<?xml version="1.0" encoding="UTF-8"?>
<svg width="2442px" height="168px" viewBox="0 0 1221 84" version="1.1" xmlns="http://www.w3.org/2000/svg" xmlns:xlink="http://www.w3.org/1999/xlink">
    <!-- Generator: Sketch 43.2 (39069) - http://www.bohemiancoding.com/sketch -->
    <title>fist-bump-group</title>
    <desc>Created with Sketch.</desc>
    <defs></defs>
    <g id="Screens" stroke="none" stroke-width="1" fill="none" fill-rule="evenodd">
        <g id="Hirer" transform="translate(-69.000000, -817.000000)">
            <g id="fist-bump-group" transform="translate(69.000000, 817.000000)">
                <path d="M238,34.4023438 L958,34.4023438 L958,47.75 L878.882812,47.75 C856.106445,47.75 848.234375,43.4258682 792.021484,43.4258682 L691.644531,43.4258682 C670.160156,43.4258682 668.962891,47.75 636.595703,47.75 C606.215217,47.75 587.712967,43.7453851 570.832031,43.2777188 C553.951095,42.8100526 534.406672,43.4258682 533.626953,43.4258682 C520.923828,43.4258682 503.431641,47.75 494.015625,47.75 C484.599609,47.75 474.308594,45.6147579 451.099609,45.6147579 C427.890625,45.6147579 408.131836,47.75 380.876953,47.75 C353.62207,47.75 370.193359,39.7777188 344.732422,39.7777188 C319.271484,39.7777188 304.53125,47.75 281.841797,47.75 L238,47.75 L238,34.4023438 Z" id="bg-wiggle-1" fill="#E35205"></path>
                <g id="Page-1">
                    <polygon id="Fill-1" fill="#FFFFFF" points="617.9835 42.55625 621.0665 36.34575 625.1735 39.67025 623.8475 42.85325 622.1285 43.98775 619.143 43.48125"></polygon>
                    <g id="Group-260" transform="translate(0.000000, 0.433500)">
                        <g id="Group-4" transform="translate(612.000000, 22.500000)" fill="#D6906D">
                            <path d="M12.12315,18.52705 C11.53565,19.34855 10.84715,20.07055 10.05165,20.69355 C8.65265,20.59355 7.29665,20.24405 5.98365,19.62255 C6.69915,18.51055 7.18365,17.29905 7.61215,16.05305 C7.89215,15.67805 8.11265,15.28955 8.23015,14.89655 C9.12165,15.16355 10.02565,15.42405 10.85965,15.83955 C11.42765,16.12255 11.88315,16.53705 12.35865,16.92155 C12.14715,17.42855 12.06715,17.98555 12.12315,18.52705 M606.88065,29.36605 C605.95715,22.14805 606.91415,14.32805 607.54315,7.08505 C607.78265,4.32255 609.74915,0.57855 607.14365,0.47005 C606.73765,0.35855 600.15165,0.65805 599.71865,0.63155 C585.46565,-0.24045 571.42115,2.61955 557.37115,4.55305 C543.25665,6.49605 529.13015,5.74705 514.92715,5.28505 C485.85615,4.34055 456.79715,5.46355 427.74965,6.84705 C414.28015,7.48905 400.81815,8.27155 387.35715,9.07805 C387.12065,8.98005 386.87415,8.90505 386.61815,8.86305 C386.11815,8.73605 385.56715,8.71955 384.97615,8.83405 C366.04565,9.03305 347.12115,9.61505 328.21615,10.57455 C301.20315,10.08205 274.19065,12.11055 247.18165,13.18855 C230.61365,13.51655 214.05415,14.22305 197.51765,15.29605 C163.26165,16.28105 129.01215,17.48705 94.77315,18.94255 C84.63915,19.37305 74.50615,19.82605 64.37365,20.29755 C58.59065,19.56505 52.79165,18.93505 47.02615,18.09805 C44.43915,16.88255 41.93565,15.49455 39.70665,13.73555 C37.69815,12.15105 36.14765,10.10355 34.11265,8.55355 C32.24815,7.13405 31.06715,4.93155 28.91915,3.93255 C26.48965,2.80305 24.31815,3.71005 21.82115,3.76905 C19.05765,3.83405 16.51015,2.93805 13.76165,3.56805 C13.64365,3.54305 13.53265,3.51005 13.40665,3.49405 C12.61465,3.39605 11.82165,3.31555 11.02715,3.24505 C10.39865,3.11455 9.76765,2.99005 9.11915,3.01255 C7.42665,3.07205 5.08765,4.02605 4.13015,5.48205 C3.40215,6.58805 2.26065,7.42155 2.05265,8.82005 C1.78665,10.60855 3.04765,12.23205 4.25065,13.41105 C4.32115,13.47955 4.39915,13.53205 4.47365,13.59105 C4.04815,13.71605 3.65715,13.93855 3.30215,14.21355 C1.56415,14.72305 0.21715,16.19855 0.04365,18.06455 C-0.02935,18.85455 0.07865,19.50805 0.31065,20.07555 C0.38865,20.55005 0.55015,21.01355 0.76115,21.45705 C0.96015,21.87505 1.20015,22.24805 1.48315,22.61355 C1.52215,22.66355 1.57115,22.71805 1.62415,22.77405 C1.57515,22.83855 1.52915,22.90805 1.48865,22.98905 C0.70265,24.56355 -0.14735,25.92355 0.83765,27.65655 C1.66465,29.11255 3.15565,29.69705 4.41365,30.62955 C3.85115,31.23105 3.62965,31.96405 3.63915,32.73755 C3.38515,33.45605 3.45165,34.26655 4.03365,35.03055 C4.19915,35.24755 4.36415,35.46455 4.52965,35.68155 C4.79365,36.02755 5.09215,36.29655 5.41015,36.50155 C7.61215,38.34355 10.42865,39.06555 13.22265,39.73855 C15.05715,40.18005 16.88615,40.47405 18.72715,40.66955 C21.47715,41.69055 24.62715,41.77955 27.53015,41.93455 C29.72565,42.05205 31.93365,41.95205 34.02415,41.21455 C36.00215,40.51655 37.79265,39.41205 39.79615,38.76455 C44.11865,37.36705 48.64915,37.08905 53.14365,36.69705 C54.26365,36.59955 55.38165,36.48405 56.49865,36.36205 C87.88115,38.35355 119.28165,35.40005 150.67115,34.85655 C153.80365,34.80205 156.93665,34.77705 160.06965,34.78055 C172.55815,35.48605 185.06765,35.84355 197.56915,36.21755 C216.04915,36.77005 234.47515,36.94005 252.92815,35.62855 C256.75665,35.35655 260.58765,35.08105 264.41965,34.88555 C273.15765,35.28505 281.88865,35.91705 290.63015,36.89955 C300.70465,38.03205 310.77265,39.22005 320.91015,39.61455 C331.00565,40.00755 341.11165,39.79205 351.20765,39.53255 C362.01715,39.25455 372.82715,38.96855 383.63665,38.68555 C384.21365,38.75155 384.78915,38.82955 385.36515,38.90355 C394.20315,40.30805 408.21165,38.98505 417.15815,39.17405 C429.40715,39.43305 441.65665,39.69005 453.90665,39.91255 C478.07365,40.35155 497.24465,42.15655 521.41615,42.07455 C535.32165,42.02705 549.22665,41.84805 563.12815,41.50155 C563.49365,41.49205 563.85215,41.44455 564.19965,41.36505 C573.87065,41.71455 583.54115,42.06355 593.21165,42.41255 C594.12365,42.75055 595.19915,42.80155 596.40415,42.43305 C597.93365,41.96505 599.70665,42.27705 601.31165,41.85005 C603.06115,41.38505 604.68765,40.81405 605.72865,39.33205 C608.11865,35.92905 607.36365,33.14505 606.88065,29.36605" id="Fill-2"></path>
                        </g>
                        <path d="M669.45835,49.73775 C669.42985,49.35225 669.29685,49.03725 669.10535,48.78425 C669.11385,47.58675 669.02085,46.38375 668.81985,45.15925 C668.75285,44.75025 668.58335,44.45025 668.35585,44.24425 C668.31285,43.91975 668.26935,43.59525 668.22035,43.27025 C668.17835,42.99375 668.06885,42.76425 667.91285,42.58125 C667.82135,41.85275 667.62985,41.34475 666.68135,41.16825 C665.15635,40.88475 663.62135,40.64475 662.09235,40.38325 C661.59385,40.29775 660.94035,40.71775 661.16985,41.30575 C661.22785,41.45375 661.28035,41.60125 661.32835,41.74875 L661.63585,43.09125 C661.69385,43.34525 661.83135,43.49975 661.99885,43.57625 C662.00185,43.60075 662.00185,43.62325 662.00735,43.64875 C662.31585,45.14625 662.66985,46.62625 663.06435,48.09875 C663.30035,50.65275 662.95435,53.27925 662.04785,55.67975 C662.00935,55.74175 661.97435,55.80525 661.93485,55.86675 C661.77885,56.11075 661.69835,56.35275 661.67185,56.58625 C661.56335,56.82825 661.45085,57.06825 661.33035,57.30425 C660.93485,58.07975 661.85835,58.76475 662.50835,58.21325 L662.56135,58.16825 C662.95835,58.39975 663.43935,58.51175 663.91135,58.43775 C665.21885,58.23225 666.75885,58.73875 667.63335,57.46675 C668.16385,56.69425 668.34485,55.73025 668.67635,54.84075 C668.81685,54.56225 668.94835,54.27875 669.07435,53.99025 C669.07935,53.98225 669.08285,53.97375 669.08735,53.96575 L669.08535,53.96475 C669.14535,53.82625 669.20585,53.68825 669.26385,53.54725 C669.46335,53.06425 669.41285,52.63425 669.21335,52.28725 C669.47285,51.50325 669.52585,50.65175 669.45835,49.73775" id="Fill-5" fill="#E35205"></path>
                        <path d="M618.1598,42.4289 C619.3383,40.3074 620.2253,38.0474 620.7433,35.6734 C620.9663,34.6514 621.0923,33.6249 621.2098,32.5874 C621.2818,31.9494 621.3453,31.2244 621.7078,30.6689 C622.1913,29.9269 623.0638,29.6254 623.8508,29.3399 C626.3318,28.4419 628.8533,27.6514 631.3988,26.9569 C633.8503,26.2874 636.9313,25.0884 639.4623,25.8639 C641.9383,26.6224 643.8233,29.1919 645.4723,31.0549 C647.0713,32.8614 648.6438,34.7039 650.4633,36.2959 C651.9873,37.6289 653.6778,38.7974 655.5693,39.5429 C657.8203,40.4299 660.2753,40.6014 662.6563,40.8794 C665.7563,41.2414 668.8563,41.6034 671.9558,41.9654 C673.4223,42.1369 674.8908,42.3499 676.3613,42.4799 C677.3848,42.5709 678.4148,42.5004 679.4383,42.5914 C679.7588,42.6204 679.7568,42.1199 679.4383,42.0914 C678.5468,42.0119 677.6508,42.0624 676.7583,42.0099 C675.3198,41.9259 673.8768,41.6899 672.4453,41.5229 C669.6718,41.1989 666.8983,40.8749 664.1248,40.5509 C661.3213,40.2234 658.3523,40.1134 655.7023,39.0604 C653.3158,38.1124 651.2658,36.4694 649.4603,34.6739 C647.5453,32.7689 645.8603,30.6514 644.0018,28.6934 C642.5438,27.1574 640.9358,25.5059 638.7368,25.1989 C636.3528,24.8659 633.7598,25.7999 631.4903,26.4134 C628.9433,27.1014 626.4208,27.8884 623.9373,28.7789 C623.0683,29.0909 622.0873,29.3879 621.4808,30.1324 C620.8368,30.9229 620.7808,31.9719 620.6743,32.9434 C620.3183,36.2054 619.3218,39.3084 617.7283,42.1769 C617.5718,42.4584 618.0033,42.7104 618.1598,42.4289" id="Fill-7" fill="#071F2C"></path>
                        <path d="M618.45205,27.5217 C620.05955,28.1387 621.66705,28.7557 623.27455,29.3722 C623.57505,29.4877 623.70505,29.0047 623.40755,28.8902 C621.80005,28.2732 620.19255,27.6562 618.58505,27.0397 C618.28455,26.9242 618.15405,27.4072 618.45205,27.5217" id="Fill-9" fill="#071F2C"></path>
                        <path d="M622.72645,28.61815 C622.77645,27.75765 622.48195,26.95265 621.90745,26.31365 C621.69195,26.07365 621.33945,26.42815 621.55395,26.66715 C622.04445,27.21265 622.26895,27.88815 622.22645,28.61815 C622.20745,28.93965 622.70745,28.93865 622.72645,28.61815" id="Fill-11" fill="#071F2C"></path>
                        <path d="M623.53135,29.0544 C623.80185,28.5564 623.93335,28.0124 623.91035,27.4454 C623.89735,27.1249 623.39735,27.1234 623.41035,27.4454 C623.42985,27.9269 623.32985,28.3779 623.09935,28.8019 C622.94585,29.0849 623.37735,29.3374 623.53135,29.0544" id="Fill-13" fill="#071F2C"></path>
                        <path d="M620.2384,35.76105 C619.1499,35.65805 617.7094,35.77005 616.6764,35.42355 C615.6909,35.09305 614.7099,32.83805 614.4574,31.89005 C614.0804,30.47605 615.0999,29.33655 615.9079,28.28055 C616.6384,27.32505 617.4719,26.38655 618.5429,25.80555 C619.7854,25.13105 621.1464,25.23355 622.5089,25.31905 C623.8124,25.40155 625.1164,25.48505 626.4199,25.56805 L634.7314,26.09655 C635.0529,26.11655 635.0514,25.61655 634.7314,25.59655 C631.1459,25.36855 627.5609,25.14055 623.9754,24.91255 C622.5299,24.82055 620.9649,24.54805 619.5364,24.89055 C618.4114,25.16005 617.4514,25.84105 616.6464,26.65155 C615.0984,28.21055 613.2239,30.28505 614.1829,32.55705 C614.4259,33.13355 614.7159,33.69405 615.0279,34.23555 C615.2549,34.63005 615.6849,35.60405 616.1054,35.84755 C616.4674,36.05705 617.1544,35.96905 617.5669,36.00805 C618.4574,36.09255 619.3479,36.17655 620.2384,36.26105 C620.5589,36.29155 620.5564,35.79105 620.2384,35.76105" id="Fill-15" fill="#071F2C"></path>
                        <path d="M626.9884,42.3415 C629.6084,39.5195 629.0294,35.0265 632.0739,32.5165 C632.3224,32.312 631.9669,31.96 631.7204,32.163 C628.6449,34.6985 629.2529,39.1675 626.6349,41.988 C626.4159,42.2235 626.7689,42.578 626.9884,42.3415" id="Fill-17" fill="#071F2C"></path>
                        <path d="M617.8739,43.1545 C619.8659,44.486 622.2524,44.7965 624.5099,43.9795 C624.8104,43.871 624.6804,43.3875 624.3769,43.4975 C622.2309,44.274 620.0234,43.9905 618.1259,42.723 C617.8579,42.5435 617.6074,42.9765 617.8739,43.1545" id="Fill-19" fill="#071F2C"></path>
                        <path d="M629.07555,38.3154 C630.11055,37.5039 631.39405,37.3069 632.59505,36.8569 C633.55305,36.4979 634.42605,35.9974 635.24405,35.3849 C635.49905,35.1944 635.25005,34.7599 634.99205,34.9529 C633.88255,35.7834 632.69355,36.3264 631.37105,36.7299 C630.40605,37.0244 629.52355,37.3339 628.72155,37.9619 C628.46905,38.1599 628.82505,38.5119 629.07555,38.3154" id="Fill-21" fill="#071F2C"></path>
                        <path d="M630.4059,37.4731 C631.3779,38.0206 630.9444,39.7111 630.8999,40.5926 C630.8459,41.6696 630.8214,42.6811 629.8104,43.3336 C628.6234,44.0996 626.8429,44.4531 625.4789,44.8086 C623.1169,45.4231 620.7124,45.3481 618.2914,45.3266 C617.9694,45.3236 617.9694,45.8236 618.2914,45.8266 C620.0459,45.8421 621.8244,45.9156 623.5694,45.6941 C625.2019,45.4866 626.7724,44.9751 628.3269,44.4536 C629.8794,43.9331 631.1444,43.4071 631.3379,41.6151 C631.4759,40.3381 632.0624,37.8321 630.6584,37.0411 C630.3774,36.8831 630.1254,37.3151 630.4059,37.4731" id="Fill-23" fill="#071F2C"></path>
                        <path d="M612.81605,40.4006 C612.95755,38.2126 614.46305,36.6391 616.48355,35.9601 C616.78705,35.8586 616.65705,35.3751 616.35105,35.4781 C614.10555,36.2326 612.47255,37.9826 612.31605,40.4006 C612.29505,40.7221 612.79505,40.7206 612.81605,40.4006" id="Fill-25" fill="#071F2C"></path>
                        <path d="M614.0475,44.6638 C613.7085,44.2553 613.37,43.8463 613.0305,43.4378 C612.825,43.1898 612.473,43.5453 612.677,43.7913 C613.016,44.2003 613.355,44.6088 613.694,45.0173 C613.8995,45.2653 614.2515,44.9098 614.0475,44.6638" id="Fill-27" fill="#071F2C"></path>
                        <path d="M640.8705,34.61435 C639.524,35.08785 638.16,35.49635 636.7745,35.84085 C636.4625,35.91835 636.5945,36.40085 636.9075,36.32285 C638.2925,35.97835 639.657,35.56985 641.0035,35.09635 C641.305,34.99035 641.175,34.50735 640.8705,34.61435" id="Fill-29" fill="#071F2C"></path>
                        <path d="M628.411,50.374 C629.857,49.9625 631.2885,49.4285 631.877,47.9235 C632.155,47.2115 632.207,46.425 632.108,45.6725 C631.975,44.659 631.0205,43.412 631.2145,42.4105 C631.2755,42.096 630.794,41.9615 630.733,42.2775 C630.4685,43.6395 631.5785,44.737 631.6495,46.101 C631.7675,48.3705 630.23,49.336 628.278,49.892 C627.969,49.98 628.1005,50.4625 628.411,50.374" id="Fill-31" fill="#071F2C"></path>
                        <path d="M613.67125,51.2048 C617.32775,55.0708 623.06525,51.0643 627.29475,50.5963 C627.61125,50.5613 627.61475,50.0608 627.29475,50.0963 C625.07975,50.3413 623.01275,51.1688 620.88475,51.7778 C618.47725,52.4673 615.91625,52.8513 614.02475,50.8513 C613.80325,50.6168 613.45025,50.9708 613.67125,51.2048" id="Fill-33" fill="#071F2C"></path>
                        <path d="M613.58165,44.737 C613.59865,45.4845 613.15165,46.0305 612.84965,46.6755 C612.58915,47.231 612.51615,47.765 612.61615,48.3705 C612.66815,48.687 613.15015,48.553 613.09815,48.2375 C612.88065,46.9175 614.11115,46.0325 614.08165,44.737 C614.07415,44.4155 613.57415,44.4145 613.58165,44.737" id="Fill-35" fill="#071F2C"></path>
                        <path d="M617.1212,46.76435 C617.5207,48.10185 617.5902,49.44935 617.3172,50.81885 C617.2547,51.13285 617.7362,51.26735 617.7992,50.95185 C618.0897,49.49485 618.0287,48.05535 617.6032,46.63135 C617.5112,46.32385 617.0287,46.45485 617.1212,46.76435" id="Fill-37" fill="#071F2C"></path>
                        <path d="M627.9193,46.249 C628.0508,46.904 628.1053,47.56 628.0903,48.2275 C628.0833,48.5495 628.5833,48.5495 628.5903,48.2275 C628.6063,47.516 628.5413,46.814 628.4013,46.116 C628.3383,45.801 627.8563,45.9345 627.9193,46.249" id="Fill-39" fill="#071F2C"></path>
                        <path d="M629.25305,46.6196 C629.36305,47.1521 629.40105,47.6846 629.37605,48.2271 C629.36055,48.5491 629.86055,48.5481 629.87605,48.2271 C629.90305,47.6406 629.85405,47.0621 629.73505,46.4866 C629.67005,46.1716 629.18805,46.3051 629.25305,46.6196" id="Fill-41" fill="#071F2C"></path>
                        <path d="M615.32775,38.10215 C614.53525,39.49065 614.30525,41.04015 614.65325,42.60065 C614.72375,42.91415 615.20575,42.78165 615.13575,42.46765 C614.81675,41.03815 615.03325,39.62615 615.75925,38.35465 C615.91925,38.07465 615.48725,37.82215 615.32775,38.10215" id="Fill-43" fill="#071F2C"></path>
                        <path d="M614.0055,38.2352 C613.6135,38.8712 613.426,39.5882 613.46,40.3342 C613.4745,40.6552 613.9745,40.6567 613.96,40.3342 C613.9295,39.6692 614.0875,39.0552 614.4375,38.4877 C614.607,38.2132 614.1745,37.9617 614.0055,38.2352" id="Fill-45" fill="#071F2C"></path>
                        <path d="M616.1598,52.71945 C616.0443,53.02145 615.5438,53.05395 615.3848,53.34345 C615.3093,53.48095 615.3103,53.61895 615.2693,53.77195 C615.0688,54.51195 615.1733,55.64545 615.3178,56.39595 C615.4528,57.09845 615.7638,57.73345 616.3143,58.20495 C616.5913,58.44245 616.9168,58.53395 617.2068,58.73095 C617.6188,59.01045 617.8408,59.40945 618.2198,59.70745 C618.4698,59.90395 618.8263,59.55295 618.5733,59.35395 C618.1538,59.02395 617.9188,58.58595 617.4593,58.29895 C616.5328,57.71995 615.9763,57.30495 615.7858,56.10445 C615.6613,55.31895 615.5668,54.09245 616.1118,53.44495 C616.4383,53.05645 616.4553,53.34045 616.6418,52.85245 C616.7568,52.55145 616.2738,52.42145 616.1598,52.71945" id="Fill-47" fill="#071F2C"></path>
                        <path d="M621.1852,58.69015 C623.2407,58.23865 625.3947,57.92515 627.4097,57.31915 C628.7592,56.91315 629.7802,55.67315 630.7012,54.65865 C631.5592,53.71315 631.4637,52.83165 630.8917,51.74215 C630.2787,50.57465 629.3762,50.31215 628.1142,50.21465 C627.7932,50.18965 627.7947,50.69015 628.1142,50.71465 C628.9967,50.78315 629.8112,50.91915 630.3172,51.72965 C630.7652,52.44665 630.8897,53.36415 630.4867,54.16065 C630.2722,54.58415 629.6457,55.01065 629.3092,55.34665 C628.9462,55.70865 628.6017,56.10765 628.1802,56.40315 C627.2332,57.06715 625.8302,57.15865 624.7152,57.40365 L621.0522,58.20815 C620.7382,58.27665 620.8712,58.75915 621.1852,58.69015" id="Fill-49" fill="#071F2C"></path>
                        <path d="M623.7003,59.82835 C624.0413,58.84635 624.7678,58.08935 625.7173,57.67535 C626.0113,57.54735 625.7568,57.11585 625.4648,57.24385 C624.3953,57.70985 623.5998,58.59685 623.2183,59.69535 C623.1123,59.99985 623.5953,60.13085 623.7003,59.82835" id="Fill-51" fill="#071F2C"></path>
                        <path d="M618.30505,55.363 C618.45305,56.639 618.94505,57.7775 619.78005,58.755 C619.98955,59 620.34205,58.6445 620.13405,58.4015 C619.39205,57.5335 618.93655,56.498 618.80505,55.363 C618.76855,55.047 618.26805,55.0435 618.30505,55.363" id="Fill-53" fill="#071F2C"></path>
                        <path d="M617.4481,56.95285 C617.5691,57.45885 617.9246,57.83635 618.4051,58.02135 C618.7056,58.13685 618.8356,57.65385 618.5381,57.53935 C618.2196,57.41685 618.0081,57.14635 617.9301,56.81985 C617.8556,56.50735 617.3736,56.63985 617.4481,56.95285" id="Fill-55" fill="#071F2C"></path>
                        <path d="M630.12465,54.759 C630.09165,56.06 630.18215,57.3455 630.38915,58.63 C630.44015,58.9465 630.92215,58.812 630.87115,58.497 C630.67165,57.257 630.59265,56.014 630.62465,54.759 C630.63315,54.437 630.13315,54.437 630.12465,54.759" id="Fill-57" fill="#071F2C"></path>
                        <path d="M631.1239,48.59175 C632.4504,51.74025 631.7804,55.84075 634.7849,58.11475 C635.0414,58.30925 635.2904,57.87525 635.0374,57.68325 C632.2089,55.54225 632.8559,51.42575 631.6059,48.45875 C631.4829,48.16675 630.9989,48.29525 631.1239,48.59175" id="Fill-59" fill="#071F2C"></path>
                        <path d="M631.41905,48.1826 C632.66205,50.3816 633.68855,52.6751 634.49855,55.0681 C634.60105,55.3711 635.08455,55.2411 634.98055,54.9351 C634.15705,52.5011 633.11505,50.1676 631.85055,47.9306 C631.69205,47.6501 631.26005,47.9016 631.41905,48.1826" id="Fill-61" fill="#071F2C"></path>
                        <path d="M636.78675,51.16085 C638.57225,52.06485 640.46375,52.59635 642.46275,52.71535 C642.78425,52.73435 642.78275,52.23435 642.46275,52.21535 C640.54725,52.10085 638.74975,51.59535 637.03875,50.72935 C636.75275,50.58435 636.49925,51.01535 636.78675,51.16085" id="Fill-63" fill="#071F2C"></path>
                        <path d="M631.67885,46.51095 C632.36585,47.56445 633.18485,48.50845 634.12785,49.34045 C634.36835,49.55245 634.72335,49.19995 634.48135,48.98695 C633.56985,48.18245 632.77485,47.27745 632.11035,46.25845 C631.93535,45.98995 631.50235,46.23995 631.67885,46.51095" id="Fill-65" fill="#071F2C"></path>
                        <path d="M613.7445,45.05635 C615.1605,45.66735 616.77,45.74985 618.2915,45.82685 C618.613,45.84285 618.612,45.34285 618.2915,45.32685 C616.8635,45.25435 615.3275,45.19835 613.997,44.62485 C613.7045,44.49835 613.4495,44.92935 613.7445,45.05635" id="Fill-67" fill="#071F2C"></path>
                        <path d="M644.9579,25.48375 C643.8399,24.40125 642.5734,23.52075 641.1659,22.85525 C640.8764,22.71825 640.6224,23.14925 640.9139,23.28675 C642.2829,23.93425 643.5154,24.78325 644.6039,25.83725 C644.8354,26.06125 645.1894,25.70825 644.9579,25.48375" id="Fill-69" fill="#071F2C"></path>
                        <path d="M644.9562,20.80965 C644.3487,20.43465 643.6932,20.16115 642.9987,19.99415 C642.6862,19.91865 642.5527,20.40065 642.8662,20.47615 C643.5222,20.63415 644.1297,20.88715 644.7037,21.24165 C644.9782,21.41115 645.2297,20.97865 644.9562,20.80965" id="Fill-71" fill="#071F2C"></path>
                        <path d="M629.1332,55.69455 C628.6147,56.76805 628.3222,57.89955 628.2592,59.09005 C628.2427,59.41155 628.7427,59.41055 628.7592,59.09005 C628.8177,57.98755 629.0847,56.94105 629.5652,55.94705 C629.7047,55.65855 629.2732,55.40455 629.1332,55.69455" id="Fill-73" fill="#071F2C"></path>
                        <path d="M627.9835,62.14205 C634.266,63.55305 641.104,64.97455 647.154,61.96605 C647.4425,61.82255 647.1895,61.39155 646.902,61.53405 C640.9835,64.47705 634.253,63.03805 628.1165,61.66005 C627.803,61.58955 627.6695,62.07155 627.9835,62.14205" id="Fill-75" fill="#071F2C"></path>
                        <path d="M619.31285,60.2768 C621.36385,61.0288 623.33435,62.0198 625.57285,61.7023 C625.88985,61.6573 625.75485,61.1753 625.43985,61.2203 C623.31385,61.5218 621.38285,60.5053 619.44585,59.7948 C619.14335,59.6833 619.01285,60.1668 619.31285,60.2768" id="Fill-77" fill="#071F2C"></path>
                        <path d="M627.4542,52.59005 C627.4897,53.40705 627.5252,54.22405 627.5602,55.04105 C627.5742,55.36155 628.0742,55.36305 628.0602,55.04105 C628.0252,54.22405 627.9897,53.40705 627.9542,52.59005 C627.9407,52.26955 627.4402,52.26755 627.4542,52.59005" id="Fill-79" fill="#071F2C"></path>
                        <path d="M626.5858,52.59125 C626.5173,53.40825 626.5903,54.21075 626.7983,55.00325 C626.8803,55.31425 627.3628,55.18225 627.2808,54.87025 C627.0833,54.11875 627.0213,53.36475 627.0858,52.59125 C627.1128,52.27025 626.6128,52.27225 626.5858,52.59125" id="Fill-81" fill="#071F2C"></path>
                        <path d="M623.1271,30.75055 C623.7691,31.10055 624.4191,31.43405 625.0821,31.74255 C625.6991,32.02955 626.5446,32.23655 626.8816,32.88005 C627.0311,33.16505 627.4626,32.91255 627.3136,32.62755 C627.0006,32.02955 626.4231,31.80155 625.8336,31.53805 C624.9986,31.16505 624.1821,30.75655 623.3791,30.31855 C623.0966,30.16455 622.8441,30.59605 623.1271,30.75055" id="Fill-83" fill="#071F2C"></path>
                        <path d="M622.29555,31.39875 C622.62205,31.52875 622.90005,31.73175 623.13805,31.98875 C623.35705,32.22575 623.71005,31.87175 623.49155,31.63525 C623.19255,31.31175 622.83655,31.07925 622.42855,30.91675 C622.12955,30.79775 622.00005,31.28075 622.29555,31.39875" id="Fill-85" fill="#071F2C"></path>
                        <path d="M622.08555,32.66805 C622.47105,32.80905 622.83505,32.99155 623.18255,33.21005 C623.45605,33.38205 623.70705,32.94955 623.43505,32.77855 C623.05055,32.53705 622.64455,32.34205 622.21855,32.18605 C621.91605,32.07505 621.78555,32.55805 622.08555,32.66805" id="Fill-87" fill="#071F2C"></path>
                        <path d="M655.24475,53.60275 C655.15325,54.48775 655.04675,55.37075 654.92275,56.25225 C654.87875,56.56675 655.36025,56.70275 655.40525,56.38475 C655.53525,55.45975 655.64875,54.53225 655.74475,53.60275 C655.77775,53.28275 655.27725,53.28525 655.24475,53.60275" id="Fill-89" fill="#071F2C"></path>
                        <path d="M655.59585,46.0903 C655.60435,47.6873 655.56135,49.2818 655.46735,50.8758 C655.44835,51.1973 655.94885,51.1963 655.96735,50.8758 C656.06135,49.2818 656.10435,47.6873 656.09585,46.0903 C656.09435,45.7688 655.59435,45.7678 655.59585,46.0903" id="Fill-91" fill="#071F2C"></path>
                        <path d="M657.58605,50.7851 C657.47655,52.4271 657.16705,54.0206 656.66055,55.5856 C656.56105,55.8921 657.04405,56.0236 657.14255,55.7181 C657.66305,54.1096 657.97355,52.4711 658.08605,50.7851 C658.10755,50.4636 657.60705,50.4651 657.58605,50.7851" id="Fill-93" fill="#071F2C"></path>
                        <path d="M723.73035,58.73285 C760.23935,58.17935 796.74685,56.84385 833.26435,57.41685 C842.44685,57.56085 851.61235,57.93185 860.79685,57.72685 C869.78535,57.52635 878.73985,57.28535 887.72235,57.83335 C905.67885,58.92835 923.54685,61.32385 941.54585,61.74335 C962.03335,62.22135 982.53885,60.50585 1003.00735,61.98735 C1003.32835,62.01035 1003.32685,61.51035 1003.00735,61.48735 C984.75335,60.16635 966.46485,61.38285 948.19185,61.32735 C930.15535,61.27285 912.27435,59.15685 894.31385,57.78835 C885.13735,57.08935 876.01935,56.85785 866.81985,57.07935 C857.82035,57.29635 848.87085,57.24235 839.87285,57.04185 C821.79735,56.63935 803.71435,56.74385 785.63785,57.03035 C765.00085,57.35785 744.36785,57.91985 723.73035,58.23285 C723.40885,58.23785 723.40785,58.73785 723.73035,58.73285" id="Fill-95" fill="#071F2C"></path>
                        <path d="M647.15415,61.96605 C650.91115,59.65005 655.27965,59.00905 659.61765,58.81155 C664.15915,58.60505 668.72565,58.58905 673.26765,58.77055 C683.20315,59.16805 693.10015,59.35805 703.04465,59.21005 C708.63965,59.12655 714.23315,58.99755 719.82665,58.84455 C720.14765,58.83555 720.14865,58.33555 719.82665,58.34455 C709.64665,58.62305 699.45915,58.86405 689.27515,58.78055 C679.51565,58.70105 669.78865,57.90455 660.02565,58.29405 C655.46965,58.47655 650.85215,59.09955 646.90215,61.53405 C646.62865,61.70305 646.87915,62.13555 647.15415,61.96605" id="Fill-97" fill="#071F2C"></path>
                        <path d="M646.0272,60.16355 C644.9932,59.00805 643.4337,58.37155 642.2562,57.36155 C640.9542,56.24505 639.8552,54.94055 638.9342,53.49505 C638.7617,53.22455 638.3292,53.47505 638.5027,53.74755 C639.3707,55.11055 640.3882,56.35755 641.5912,57.44105 C642.8407,58.56755 644.5672,59.28055 645.6732,60.51705 C645.8887,60.75705 646.2412,60.40305 646.0272,60.16355" id="Fill-99" fill="#071F2C"></path>
                        <path d="M639.4081,62.52 C639.7126,61.9505 639.8696,61.3355 639.8706,60.6895 C639.8711,60.3675 639.3711,60.367 639.3706,60.6895 C639.3696,61.249 639.2406,61.774 638.9761,62.2675 C638.8246,62.551 639.2561,62.804 639.4081,62.52" id="Fill-101" fill="#071F2C"></path>
                        <path d="M644.3358,74.0954 C641.9903,75.7934 639.5743,77.3844 637.0883,78.8694 C636.8123,79.0339 637.0638,79.4669 637.3408,79.3014 C639.8268,77.8159 642.2423,76.2249 644.5883,74.5274 C644.8463,74.3404 644.5973,73.9064 644.3358,74.0954" id="Fill-103" fill="#071F2C"></path>
                        <path d="M642.67395,70.92695 C641.06195,72.72745 639.07845,74.04795 636.79045,74.82745 C636.48745,74.93045 636.61795,75.41345 636.92345,75.30945 C639.29295,74.50245 641.35745,73.14545 643.02745,71.28045 C643.24145,71.04145 642.88945,70.68645 642.67395,70.92695" id="Fill-105" fill="#071F2C"></path>
                        <path d="M690.3524,42.23945 C730.5104,41.04595 770.6469,39.24395 810.7799,37.41595 C830.8249,36.50295 850.8689,35.49745 870.9224,34.78845 C890.9239,34.08095 910.9344,33.67795 930.9424,33.22345 C953.4104,32.71295 975.8794,32.13295 998.3259,30.99695 C998.6459,30.98095 998.6479,30.48095 998.3259,30.49695 C958.3339,32.52045 918.2844,32.76495 878.2674,34.04145 C838.1464,35.32195 798.0534,37.56695 757.9479,39.25945 C735.4209,40.20995 712.8899,41.06995 690.3524,41.73945 C690.0314,41.74895 690.0299,42.24945 690.3524,42.23945" id="Fill-107" fill="#071F2C"></path>
                        <path d="M679.43835,42.5915 C681.95035,42.5155 684.46235,42.435 686.97435,42.352 C687.29535,42.3415 687.29685,41.8415 686.97435,41.852 C684.46235,41.935 681.95035,42.0155 679.43835,42.0915 C679.11735,42.1015 679.11585,42.6015 679.43835,42.5915" id="Fill-109" fill="#071F2C"></path>
                        <path d="M620.4623,37.2877 C622.0068,37.5247 623.3643,38.3127 624.3028,39.5682 C624.4928,39.8227 624.9273,39.5737 624.7343,39.3157 C623.7183,37.9562 622.2773,37.0637 620.5953,36.8057 C620.2803,36.7572 620.1448,37.2392 620.4623,37.2877" id="Fill-111" fill="#071F2C"></path>
                        <path d="M623.9452,40.0654 C623.7362,40.3984 623.5272,40.7314 623.3187,41.0644 C623.1467,41.3374 623.5792,41.5889 623.7502,41.3164 C623.9592,40.9839 624.1677,40.6509 624.3767,40.3179 C624.5487,40.0444 624.1162,39.7934 623.9452,40.0654" id="Fill-113" fill="#071F2C"></path>
                        <path d="M618.37245,41.72725 C618.86245,42.45675 619.64545,42.88875 620.52645,42.90025 C620.84845,42.90425 620.84845,42.40425 620.52645,42.40025 C619.82795,42.39125 619.19495,42.05625 618.80395,41.47475 C618.62545,41.20925 618.19245,41.45925 618.37245,41.72725" id="Fill-115" fill="#071F2C"></path>
                        <path d="M633.4613,40.38035 C634.1408,40.76235 634.8528,41.06985 635.5968,41.30435 C635.9043,41.40135 636.0358,40.91885 635.7293,40.82235 C635.0258,40.60035 634.3568,40.30985 633.7138,39.94835 C633.4328,39.79085 633.1803,40.22235 633.4613,40.38035" id="Fill-117" fill="#071F2C"></path>
                        <path d="M678.8612,49.77095 L680.9107,49.77095 C681.2322,49.77095 681.2327,49.27095 680.9107,49.27095 L678.8612,49.27095 C678.5392,49.27095 678.5387,49.77095 678.8612,49.77095" id="Fill-119" fill="#071F2C"></path>
                        <path d="M691.15615,48.405 C691.47815,48.405 691.47865,47.905 691.15615,47.905 C690.83415,47.905 690.83365,48.405 691.15615,48.405" id="Fill-121" fill="#071F2C"></path>
                        <path d="M746.9972,54.374 C754.9987,54.31 763.0002,54.4185 770.9972,54.7 C771.3187,54.7115 771.3187,54.2115 770.9972,54.2 C763.0002,53.9185 754.9987,53.81 746.9972,53.874 C746.6757,53.8765 746.6747,54.3765 746.9972,54.374" id="Fill-123" fill="#071F2C"></path>
                        <path d="M765.4994,52.13155 C767.9994,51.96505 770.4994,51.79805 772.9994,51.63155 C773.3189,51.61055 773.3214,51.11005 772.9994,51.13155 C770.4994,51.29805 767.9994,51.46505 765.4994,51.63155 C765.1799,51.65255 765.1774,52.15305 765.4994,52.13155" id="Fill-125" fill="#071F2C"></path>
                        <path d="M949.4994,38.13155 C943.0224,38.83705 936.5149,39.17055 929.9994,39.13155 C929.6774,39.12955 929.6774,39.62955 929.9994,39.63155 C936.5149,39.67055 943.0224,39.33705 949.4994,38.63155 C949.8159,38.59705 949.8194,38.09655 949.4994,38.13155" id="Fill-127" fill="#071F2C"></path>
                        <path d="M927.9994,44.13155 L922.4994,44.13155 C922.1774,44.13155 922.1769,44.63155 922.4994,44.63155 L927.9994,44.63155 C928.3214,44.63155 928.3219,44.13155 927.9994,44.13155" id="Fill-129" fill="#071F2C"></path>
                        <path d="M667.44395,58.2656 C668.74295,55.9006 669.50595,53.2911 669.59995,50.5881 C669.70595,47.5476 668.85095,44.6316 667.95395,41.7596 C667.85795,41.4536 667.37495,41.5841 667.47145,41.8926 C668.31195,44.5821 669.13395,47.3146 669.10945,50.1606 C669.08545,52.9231 668.33895,55.5976 667.01245,58.0131 C666.85745,58.2956 667.28895,58.5481 667.44395,58.2656" id="Fill-131" fill="#071F2C"></path>
                        <path d="M661.48475,57.97555 C662.54775,55.16405 663.31125,52.20155 663.26825,49.17605 C663.22475,46.14405 661.94925,43.48005 661.36175,40.55705 C661.29825,40.24205 660.81675,40.37555 660.87975,40.69005 C661.45925,43.57305 662.72225,46.18205 662.76825,49.17605 C662.81375,52.15805 662.05025,55.07255 661.00275,57.84255 C660.88875,58.14355 661.37175,58.27405 661.48475,57.97555" id="Fill-133" fill="#071F2C"></path>
                        <path d="M998.2367,30.9476 C1026.9462,33.1081 1055.5027,28.3426 1084.1457,27.2841 C1112.7892,26.2256 1141.4042,29.6386 1170.0447,28.2671 C1186.0382,27.5011 1201.9112,25.2711 1217.7532,23.0466 C1218.0707,23.0026 1217.9357,22.5206 1217.6207,22.5646 C1203.2882,24.5771 1188.9367,26.5906 1174.4852,27.5176 C1160.1832,28.4351 1145.8517,28.0856 1131.5417,27.5541 C1117.2297,27.0226 1102.9087,26.3326 1088.5827,26.6521 C1074.4612,26.9671 1060.3932,28.3236 1046.3202,29.4401 C1030.3297,30.7081 1014.2622,31.6536 998.2367,30.4476 C997.9157,30.4236 997.9172,30.9236 998.2367,30.9476" id="Fill-135" fill="#071F2C"></path>
                        <path d="M1003.046,61.9941 C1029.807,62.1761 1056.5655,62.6521 1083.3225,63.1441 C1109.9775,63.6336 1136.633,64.1431 1163.292,64.3971 C1178.6205,64.5426 1193.9535,64.5196 1209.275,65.0736 C1209.597,65.0851 1209.5965,64.5851 1209.275,64.5736 C1195.64,64.0806 1181.996,64.0541 1168.3545,63.9421 C1155.0145,63.8321 1141.6745,63.6526 1128.336,63.4401 C1101.5925,63.0141 1074.8515,62.4541 1048.1085,62.0296 C1033.088,61.7911 1018.0675,61.5961 1003.046,61.4941 C1002.724,61.4921 1002.724,61.9921 1003.046,61.9941" id="Fill-137" fill="#071F2C"></path>
                        <path d="M1069.6869,57.18305 C1088.4539,56.40405 1107.2444,56.28155 1126.0204,56.81605 C1126.3424,56.82505 1126.3419,56.32505 1126.0204,56.31605 C1107.2444,55.78155 1088.4539,55.90405 1069.6869,56.68305 C1069.3659,56.69605 1069.3644,57.19655 1069.6869,57.18305" id="Fill-139" fill="#071F2C"></path>
                        <path d="M1145.9452,33.53595 C1150.3747,34.38845 1154.8722,34.53695 1159.3477,33.96445 C1159.6627,33.92445 1159.6662,33.42395 1159.3477,33.46445 C1154.9172,34.03095 1150.4652,33.89795 1146.0782,33.05395 C1145.7637,32.99345 1145.6292,33.47495 1145.9452,33.53595" id="Fill-141" fill="#071F2C"></path>
                        <path d="M1150.9508,36.83885 C1152.0703,37.11785 1153.2003,37.22935 1154.3528,37.16985 C1154.6728,37.15335 1154.6748,36.65285 1154.3528,36.66985 C1153.2448,36.72735 1152.1608,36.62535 1151.0838,36.35685 C1150.7713,36.27885 1150.6383,36.76085 1150.9508,36.83885" id="Fill-143" fill="#071F2C"></path>
                        <path d="M601.2821,48.9824 C601.2551,48.1514 601.1411,47.2969 600.9876,46.3789 C600.8321,45.4469 600.6681,44.5164 600.5061,43.5859 C600.4891,43.3504 600.4581,43.1094 600.3956,42.8574 C600.3831,42.8089 600.3681,42.7619 600.3556,42.7134 C600.0751,41.1159 599.7906,39.5189 599.5066,37.9224 C599.0321,35.2534 598.9386,30.9234 597.3091,28.2524 C597.1201,27.8884 596.8681,27.5609 596.5631,27.2734 C595.9356,26.6204 595.1436,26.1609 594.1366,25.9829 C593.6421,25.7444 593.0491,25.6254 592.3581,25.6729 C591.7901,25.7119 591.2221,25.7509 590.6541,25.7899 C589.9721,25.8369 589.3921,26.0084 588.9051,26.2649 C588.6406,26.3334 588.3716,26.4319 588.1011,26.5644 C579.5861,30.8509 568.8626,30.8639 559.5581,31.4989 C548.9526,32.2234 538.3301,32.6694 527.7016,32.8624 C527.3751,32.8684 527.0741,32.9139 526.7916,32.9829 C480.4741,30.8269 434.1566,28.6709 387.8391,26.5144 L344.4816,24.4959 C343.8901,24.4684 343.3726,24.5589 342.9266,24.7359 C337.9716,24.3564 332.9896,24.2644 328.0096,24.2624 C326.6061,24.2619 325.2031,24.2639 323.7996,24.2649 C297.7366,22.4249 271.5491,22.2224 245.5501,19.4779 C243.8856,19.1744 242.2226,18.8584 240.5636,18.5149 C239.7696,18.3509 239.0541,18.4219 238.4326,18.6544 C209.3766,16.3799 180.2956,14.3159 151.1296,14.8709 C135.8626,15.1614 120.6066,15.8474 105.3336,15.6129 C90.5681,15.3859 75.8221,14.5399 61.0811,13.7139 C44.0476,12.7594 27.0046,11.8479 9.9386,11.9079 C9.4221,11.9094 8.9896,12.0409 8.6386,12.2589 C7.9486,12.2389 7.2586,12.2244 6.5696,12.2184 C0.1756,12.1649 0.7846,18.4839 0.5891,23.2029 C0.1461,33.8994 -0.0409,44.6049 0.0076,55.3104 C0.0086,55.6104 0.0396,55.8909 0.0921,56.1559 C0.1466,58.1094 1.4291,60.0084 3.9501,59.9844 C68.2186,59.3679 132.4771,58.0329 196.7336,56.7049 C214.9746,56.3284 233.2151,55.9514 251.4556,55.5744 C251.7831,55.5674 252.0886,55.5284 252.3746,55.4614 C270.9276,56.2654 289.5006,56.5629 308.0701,56.3199 C318.2746,56.1869 328.4771,55.8944 338.6721,55.4434 C342.8731,55.2579 347.0846,55.0949 351.2836,54.8229 C351.5046,54.8459 351.7341,54.8574 351.9811,54.8419 C363.3856,54.1254 374.7946,53.4794 386.2071,52.8989 C399.6661,53.3004 413.1286,53.5239 426.5951,53.3599 C449.3201,53.0834 471.8986,51.0359 494.5431,49.4489 C495.7526,49.4334 496.9621,49.4149 498.1716,49.4009 C504.7996,49.3249 511.4281,49.2739 518.0561,49.2449 C527.3031,49.9409 536.4766,50.3794 545.7521,50.2034 C547.2591,50.1744 548.7546,50.1999 550.2406,50.2714 C550.6521,50.3759 551.0496,50.6409 551.4731,50.5994 C563.8971,49.3794 566.2046,55.8749 572.8271,57.6864 C580.1771,59.6974 584.7741,59.6879 593.1091,62.5954 C596.5761,63.8054 598.7191,59.3364 597.3771,56.9374 C597.5276,56.7349 597.6621,56.5204 597.7796,56.3009 C597.7961,56.2864 597.8076,56.2779 597.8256,56.2624 C598.0501,56.0909 598.2726,55.9179 598.4926,55.7419 C598.9826,55.3004 599.5056,54.7814 599.8456,54.2024 C599.8756,54.1519 599.8996,54.0979 599.9281,54.0464 C601.3696,52.8389 601.7461,50.8889 601.2821,48.9824" id="Fill-145" fill="#EFECD3"></path>
                        <path d="M601.13805,46.95555 C602.14005,50.09505 601.33755,53.99255 597.73255,54.84455 C597.41955,54.91855 597.55205,55.40105 597.86555,55.32655 C601.72255,54.41505 602.70705,50.22705 601.62005,46.82255 C601.52305,46.51705 601.04005,46.64755 601.13805,46.95555" id="Fill-147" fill="#071F2C"></path>
                        <path d="M591.82385,25.47565 C593.49785,25.48165 595.70385,25.68415 596.88835,27.03315 C597.98735,28.28415 597.81485,30.20815 598.12885,31.74315 C598.96835,35.84515 600.13485,39.83615 600.72735,43.99415 C600.77235,44.31165 601.25435,44.17665 601.20935,43.86115 C600.52585,39.06165 599.02685,34.43265 598.33335,29.65015 C598.12385,28.20665 597.75335,26.86115 596.46235,26.03415 C595.11435,25.17115 593.38835,24.98115 591.82385,24.97565 C591.50185,24.97465 591.50135,25.47465 591.82385,25.47565" id="Fill-149" fill="#071F2C"></path>
                        <path d="M590.7389,27.85725 C589.3004,27.71925 587.9244,27.80625 586.6239,28.48075 C586.3379,28.62875 586.5904,29.06025 586.8759,28.91225 C588.0979,28.27875 589.3954,28.22825 590.7389,28.35725 C591.0589,28.38825 591.0569,27.88775 590.7389,27.85725" id="Fill-151" fill="#071F2C"></path>
                        <path d="M596.24355,56.4455 C598.48805,56.5425 598.89905,52.686 599.13205,51.1435 C599.41855,49.2505 599.47305,47.3955 599.25105,45.4885 C599.04605,43.7295 598.64905,41.9965 598.52055,40.229 C598.24655,36.4625 598.78305,28.6235 593.47805,28.148 C593.15755,28.1195 593.15955,28.6195 593.47805,28.648 C598.33855,29.0835 597.77105,36.802 598.02055,40.229 C598.26705,43.62 599.22705,46.8695 598.75205,50.2995 C598.55855,51.699 598.25005,56.032 596.24355,55.9455 C595.92205,55.9315 595.92255,56.4315 596.24355,56.4455" id="Fill-153" fill="#071F2C"></path>
                        <path d="M595.13415,40.7402 C595.26965,43.3622 595.29965,45.8767 595.00965,48.4932 C594.97465,48.8127 595.47465,48.8102 595.50965,48.4932 C595.79965,45.8772 595.76965,43.3622 595.63415,40.7402 C595.61765,40.4202 595.11765,40.4182 595.13415,40.7402" id="Fill-155" fill="#071F2C"></path>
                        <path d="M556.61095,50.4741 C563.34695,51.0201 570.31445,52.4336 576.82545,49.8901 C577.12195,49.7741 576.99295,49.2901 576.69295,49.4076 C570.22395,51.9351 563.30095,50.5161 556.61095,49.9741 C556.28995,49.9481 556.29195,50.4481 556.61095,50.4741" id="Fill-157" fill="#071F2C"></path>
                        <path d="M582.8314,46.60445 C584.1639,46.05745 585.6969,46.10795 587.0809,45.69195 C588.2989,45.32545 589.3599,44.70345 590.3639,43.92795 C590.6149,43.73445 590.3664,43.29995 590.1119,43.49645 C589.0469,44.31845 587.9379,44.95095 586.6289,45.29895 C585.3424,45.64045 583.9309,45.61645 582.6984,46.12245 C582.4049,46.24295 582.5334,46.72695 582.8314,46.60445" id="Fill-159" fill="#071F2C"></path>
                        <path d="M585.9381,45.77635 C586.0751,46.08285 585.9586,46.42485 586.1046,46.73235 C586.3111,47.16435 586.8511,47.47735 587.2031,47.76735 C588.0561,48.46935 588.9326,49.14135 589.8261,49.79035 C590.0871,49.97985 590.3366,49.54635 590.0786,49.35885 C589.2576,48.76285 588.4511,48.14635 587.6661,47.50385 C587.2921,47.19735 586.8776,46.93035 586.6546,46.49735 C586.4886,46.17685 586.5171,45.85285 586.3696,45.52435 C586.2386,45.23085 585.8076,45.48485 585.9381,45.77635" id="Fill-161" fill="#071F2C"></path>
                        <path d="M586.29895,45.96995 C586.98945,46.51595 587.77345,46.82995 588.65145,46.90345 C588.97195,46.93045 588.97045,46.43045 588.65145,46.40345 C587.91745,46.34195 587.23095,46.07395 586.65245,45.61645 C586.40295,45.41895 586.04645,45.77045 586.29895,45.96995" id="Fill-163" fill="#071F2C"></path>
                        <path d="M586.14415,46.76925 C585.03215,47.77575 584.17415,49.01475 583.73415,50.45575 C583.63965,50.76425 584.12215,50.89625 584.21615,50.58875 C584.63165,49.22775 585.44865,48.07225 586.49765,47.12275 C586.73665,46.90625 586.38215,46.55375 586.14415,46.76925" id="Fill-165" fill="#071F2C"></path>
                        <path d="M586.15295,46.9409 C585.08195,46.3779 583.74795,46.1239 582.54545,46.2744 C582.23045,46.3139 582.22645,46.8144 582.54545,46.7744 C583.66345,46.6344 584.90195,46.8474 585.90095,47.3729 C586.18495,47.5224 586.43845,47.0909 586.15295,46.9409" id="Fill-167" fill="#071F2C"></path>
                        <path d="M581.00745,47.5549 C580.06045,48.3504 579.14995,50.3379 580.12745,51.4479 C580.36645,51.7189 580.65495,51.8064 580.99245,51.8989 C581.70895,52.0964 582.37195,52.2109 583.03745,52.5889 C583.94345,53.1049 584.62195,53.8624 585.69495,54.0269 C586.93095,54.2169 588.30995,53.9099 589.54695,53.8024 C590.63245,53.7079 592.28745,53.8669 593.28345,53.3634 C594.76845,52.6129 595.35345,49.9619 595.50995,48.4929 C595.54395,48.1734 595.04345,48.1759 595.00995,48.4929 C594.91345,49.4004 594.70345,50.2804 594.31995,51.1114 C593.84945,52.1309 593.40595,52.8704 592.21545,53.0704 C590.56045,53.3479 588.79495,53.3914 587.12095,53.5134 C586.09095,53.5884 585.29145,53.5094 584.40395,52.9339 C583.84245,52.5694 583.35495,52.1449 582.73595,51.8689 C582.46345,51.7474 582.17795,51.6479 581.89045,51.5694 C581.21645,51.3864 581.18895,51.5054 580.69595,50.8219 C580.24395,50.1939 580.20395,49.9379 580.43045,49.2144 C580.59795,48.6774 580.93545,48.2659 581.36095,47.9084 C581.60745,47.7009 581.25245,47.3489 581.00745,47.5549" id="Fill-169" fill="#071F2C"></path>
                        <path d="M583.76255,53.0793 C584.30055,53.7188 584.55355,54.4433 584.85605,55.2063 C584.98805,55.5388 585.10555,55.9773 585.41405,56.1988 C586.08355,56.6783 587.50655,56.5843 588.27555,56.6553 C590.96405,56.9038 593.70505,56.9848 596.38155,56.5743 C596.69855,56.5258 596.56405,56.0438 596.24855,56.0918 C593.88555,56.4548 591.46355,56.4028 589.08555,56.2233 C588.55305,56.1833 588.02055,56.1338 587.48955,56.0763 C586.56855,55.9763 585.88255,55.9693 585.33805,55.0738 C584.86305,54.2913 584.72905,53.4548 584.11605,52.7258 C583.90855,52.4793 583.55655,52.8343 583.76255,53.0793" id="Fill-171" fill="#071F2C"></path>
                        <path d="M576.7899,57.5251 C582.4664,58.0026 587.3959,61.4326 593.0564,62.1421 C594.9264,62.3771 596.9154,62.3276 597.9774,60.5146 C598.9899,58.7841 598.1039,56.9731 596.4414,56.1176 C596.1554,55.9706 595.9024,56.4016 596.1889,56.5491 C597.3444,57.1436 598.2059,58.2396 597.8269,59.6066 C597.5064,60.7616 596.5074,61.5401 595.3559,61.6961 C593.5449,61.9416 591.6329,61.4381 589.8884,60.9876 C585.4559,59.8431 581.4139,57.4136 576.7899,57.0251 C576.4694,56.9981 576.4709,57.4981 576.7899,57.5251" id="Fill-173" fill="#071F2C"></path>
                        <path d="M558.10655,50.7087 C563.70455,52.5412 568.19405,57.3912 574.34505,57.4797 C574.66705,57.4847 574.66705,56.9847 574.34505,56.9797 C568.27705,56.8927 563.77555,52.0387 558.23955,50.2267 C557.93305,50.1262 557.80155,50.6087 558.10655,50.7087" id="Fill-175" fill="#071F2C"></path>
                        <path d="M564.39905,48.32735 C565.23905,46.30385 565.65905,44.21585 565.67655,42.02685 C565.67905,41.70535 565.17905,41.70485 565.17655,42.02685 C565.15955,44.17085 564.73755,46.21685 563.91705,48.19435 C563.79355,48.49135 564.27705,48.62085 564.39905,48.32735" id="Fill-177" fill="#071F2C"></path>
                        <path d="M537.2672,49.87935 C542.8992,49.93385 548.5262,50.17635 554.1417,50.60685 C554.4627,50.63135 554.4612,50.13135 554.1417,50.10685 C548.5262,49.67635 542.8992,49.43385 537.2672,49.37935 C536.9452,49.37635 536.9452,49.87635 537.2672,49.87935" id="Fill-179" fill="#071F2C"></path>
                        <path d="M540.0138,32.629 C544.3983,32.561 548.7738,32.254 553.1503,32.0045 C557.4563,31.759 561.8143,31.856 566.0968,31.3315 C570.2673,30.82 574.3588,29.834 578.5053,29.172 C580.4263,28.8655 582.4048,28.738 584.2223,27.994 C586.2448,27.166 588.0053,25.7425 590.2378,25.4995 C590.5543,25.465 590.5578,24.9645 590.2378,24.9995 C588.4438,25.195 586.9733,26.06 585.4008,26.8785 C583.4328,27.9035 581.4698,28.2275 579.3063,28.5465 C574.8843,29.198 570.5353,30.2865 566.0968,30.8315 C561.8143,31.357 557.4563,31.259 553.1503,31.5045 C548.7738,31.754 544.3983,32.061 540.0138,32.129 C539.6923,32.134 539.6913,32.634 540.0138,32.629" id="Fill-181" fill="#071F2C"></path>
                        <path d="M586.9806,17.0151 C585.5551,17.4416 584.3616,18.2826 583.4651,19.4676 C583.2711,19.7246 583.7051,19.9736 583.8971,19.7201 C584.7101,18.6441 585.8236,17.8831 587.1136,17.4971 C587.4211,17.4051 587.2901,16.9226 586.9806,17.0151" id="Fill-183" fill="#071F2C"></path>
                        <path d="M582.6952,16.79475 C582.2772,17.05575 581.8592,17.31675 581.4417,17.57775 C581.1692,17.74775 581.4197,18.18075 581.6937,18.00925 C582.1117,17.74825 582.5297,17.48725 582.9472,17.22675 C583.2197,17.05625 582.9692,16.62375 582.6952,16.79475" id="Fill-185" fill="#071F2C"></path>
                        <path d="M574.1886,65.6716 C575.3681,66.9081 576.7116,67.9441 578.2071,68.7716 C578.4891,68.9276 578.7411,68.4961 578.4596,68.3401 C577.0006,67.5326 575.6936,66.5246 574.5421,65.3181 C574.3196,65.0851 573.9666,65.4386 574.1886,65.6716" id="Fill-187" fill="#071F2C"></path>
                        <path d="M578.7733,66.9587 C579.3968,67.3662 580.0873,67.5942 580.8283,67.6567 C581.1493,67.6832 581.1473,67.1832 580.8283,67.1567 C580.1748,67.1017 579.5743,66.8857 579.0258,66.5272 C578.7558,66.3502 578.5048,66.7832 578.7733,66.9587" id="Fill-189" fill="#071F2C"></path>
                        <path d="M597.25965,54.10175 C596.66165,54.03925 596.14065,53.74675 595.74965,53.29475 C595.53865,53.05125 595.18665,53.40625 595.39615,53.64825 C595.87765,54.20475 596.53115,54.52525 597.25965,54.60175 C597.57915,54.63525 597.57665,54.13525 597.25965,54.10175" id="Fill-191" fill="#071F2C"></path>
                        <path d="M596.39465,55.2639 C595.90615,54.8824 595.41765,54.5009 594.92915,54.1194 C594.67865,53.9234 594.32215,54.2749 594.57565,54.4729 C595.06415,54.8544 595.55265,55.2359 596.04115,55.6174 C596.29165,55.8134 596.64815,55.4619 596.39465,55.2639" id="Fill-193" fill="#071F2C"></path>
                        <path d="M601.26845,50.67915 C600.74545,50.78315 600.22195,50.88715 599.69845,50.99115 C599.38295,51.05365 599.51645,51.53565 599.83095,51.47315 C600.35445,51.36915 600.87795,51.26515 601.40145,51.16115 C601.71695,51.09865 601.58345,50.61665 601.26845,50.67915" id="Fill-195" fill="#071F2C"></path>
                        <path d="M586.662,56.87445 C586.299,57.27045 585.997,57.71095 585.7665,58.19645 C585.6295,58.48545 586.06,58.73945 586.1985,58.44895 C586.411,58.00145 586.681,57.59345 587.0155,57.22795 C587.2325,56.99095 586.88,56.63645 586.662,56.87445" id="Fill-197" fill="#071F2C"></path>
                        <path d="M585.21595,56.6196 C584.87645,56.9031 584.63445,57.2546 584.46345,57.6601 C584.33895,57.9561 584.82245,58.0856 584.94545,57.7931 C585.08245,57.4686 585.30095,57.1976 585.56945,56.9731 C585.81695,56.7666 585.46145,56.4146 585.21595,56.6196" id="Fill-199" fill="#071F2C"></path>
                        <path d="M579.72085,48.46335 C578.59835,49.49085 577.63635,50.63535 576.81235,51.91485 C576.63735,52.18585 577.07035,52.43685 577.24385,52.16685 C578.04535,50.92235 578.98285,49.81585 580.07485,48.81685 C580.31235,48.59885 579.95835,48.24635 579.72085,48.46335" id="Fill-201" fill="#071F2C"></path>
                        <path d="M535.71035,32.18025 C497.11235,32.03675 458.55135,30.15225 420.01985,28.02975 C381.65235,25.91625 343.28935,23.93875 304.89935,22.28525 C294.15485,21.82225 283.40985,21.36525 272.66785,20.85625 C261.98235,20.35025 251.28485,19.69025 240.73135,17.85825 C240.41635,17.80375 240.28135,18.28525 240.59785,18.34025 C249.87085,19.95025 259.25885,20.66825 268.64935,21.15775 C278.18185,21.65475 287.72085,22.04075 297.25735,22.45475 C316.45985,23.28825 335.66385,24.08825 354.86235,25.01275 C393.41735,26.87025 431.93585,29.41975 470.50185,31.05125 C492.22635,31.97025 513.96535,32.59925 535.71035,32.68025 C536.03235,32.68125 536.03235,32.18125 535.71035,32.18025" id="Fill-203" fill="#071F2C"></path>
                        <path d="M537.2672,49.37935 C528.4337,49.26485 519.6002,49.33985 510.7662,49.27985 C501.2142,49.21435 491.6572,48.92935 482.1117,49.43835 C472.5632,49.94735 463.0827,50.87035 453.5132,51.01585 C443.8882,51.16185 434.2677,51.41285 424.6457,51.69735 C415.0302,51.98185 405.4237,52.16935 395.8037,52.19435 C386.2132,52.21985 376.6107,52.25335 367.0407,52.95785 C347.6707,54.38285 328.3217,55.56985 308.8967,55.92585 C287.1472,56.32485 265.3862,55.91685 243.6662,54.72135 C243.3447,54.70385 243.3457,55.20385 243.6662,55.22135 C282.4527,57.35585 321.3722,56.96085 360.1052,54.00485 C369.6982,53.27335 379.2487,52.79335 388.8722,52.72385 C398.4887,52.65435 408.0992,52.67185 417.7132,52.39935 C427.3422,52.12635 436.9702,51.80635 446.6017,51.62485 C456.1832,51.44335 465.6892,51.14285 475.2467,50.40435 C485.9767,49.57485 496.6757,49.63185 507.4282,49.75035 C517.3742,49.85985 527.3212,49.75035 537.2672,49.87935 C537.5892,49.88335 537.5892,49.38335 537.2672,49.37935" id="Fill-205" fill="#071F2C"></path>
                        <path d="M594.5248,33.9671 C594.3968,32.8271 593.7243,31.8401 592.6783,31.3501 C592.3883,31.2146 592.1343,31.6456 592.4258,31.7821 C593.3023,32.1921 593.9158,32.9971 594.0248,33.9671 C594.0603,34.2831 594.5608,34.2871 594.5248,33.9671" id="Fill-207" fill="#071F2C"></path>
                        <path d="M591.40835,30.96275 C590.03635,30.89975 588.68085,30.98225 587.32535,31.20125 C587.00835,31.25225 587.14285,31.73425 587.45835,31.68325 C588.76935,31.47175 590.08185,31.40175 591.40835,31.46275 C591.72985,31.47775 591.72935,30.97775 591.40835,30.96275" id="Fill-209" fill="#071F2C"></path>
                        <path d="M584.1122,31.3159 C583.4237,31.5454 582.7352,31.7749 582.0467,32.0044 C581.7427,32.1059 581.8727,32.5889 582.1792,32.4869 C582.8682,32.2574 583.5567,32.0274 584.2452,31.7979 C584.5487,31.6969 584.4187,31.2139 584.1122,31.3159" id="Fill-211" fill="#071F2C"></path>
                        <path d="M566.44835,48.71285 C567.14485,48.01585 567.73735,47.23485 568.21935,46.37535 C568.37735,46.09435 567.94585,45.84235 567.78785,46.12285 C567.32585,46.94635 566.76185,47.69135 566.09435,48.35935 C565.86685,48.58735 566.22035,48.94085 566.44835,48.71285" id="Fill-213" fill="#071F2C"></path>
                        <path d="M569.3749,44.47335 C569.4134,44.32035 569.4519,44.16735 569.4899,44.01485 C569.5684,43.70235 569.0864,43.56935 569.0079,43.88135 C568.9694,44.03485 568.9309,44.18735 568.8929,44.34035 C568.8144,44.65235 569.2964,44.78585 569.3749,44.47335" id="Fill-215" fill="#071F2C"></path>
                        <path d="M570.4784,48.84225 C571.4469,47.93675 572.2264,46.87725 572.7999,45.68175 C572.9384,45.39325 572.5074,45.13925 572.3684,45.42925 C571.8119,46.58875 571.0644,47.61025 570.1249,48.48875 C569.8894,48.70875 570.2434,49.06175 570.4784,48.84225" id="Fill-217" fill="#071F2C"></path>
                        <path d="M573.2882,43.90255 C573.4792,43.29055 573.6707,42.67855 573.8617,42.06655 C573.9582,41.75855 573.4757,41.62705 573.3797,41.93355 C573.1887,42.54555 572.9972,43.15755 572.8062,43.76955 C572.7097,44.07755 573.1922,44.20905 573.2882,43.90255" id="Fill-219" fill="#071F2C"></path>
                        <path d="M573.9181,48.0356 C574.2421,47.7236 574.4601,47.3276 574.5411,46.8846 C574.5991,46.5701 574.1171,46.4351 574.0591,46.7521 C573.9921,47.1171 573.8321,47.4241 573.5646,47.6821 C573.3321,47.9056 573.6861,48.2586 573.9181,48.0356" id="Fill-221" fill="#071F2C"></path>
                        <path d="M592.6029,42.3288 C592.1304,42.4923 591.7114,42.7438 591.3479,43.0873 C591.1134,43.3083 591.4674,43.6618 591.7014,43.4408 C592.0009,43.1578 592.3459,42.9458 592.7359,42.8108 C593.0379,42.7063 592.9079,42.2233 592.6029,42.3288" id="Fill-223" fill="#071F2C"></path>
                        <path d="M515.28725,38.483 C513.69325,38.2555 512.09975,38.0275 510.50625,37.8 C510.19125,37.755 510.05525,38.2365 510.37325,38.282 C511.96675,38.5095 513.56075,38.7375 515.15425,38.965 C515.46925,39.01 515.60525,38.5285 515.28725,38.483" id="Fill-225" fill="#071F2C"></path>
                        <path d="M269.18055,50.133 C277.18055,50.4665 285.18055,50.7995 293.18055,51.133 C293.50255,51.1465 293.50205,50.6465 293.18055,50.633 C285.18055,50.2995 277.18055,49.9665 269.18055,49.633 C268.85905,49.6195 268.85955,50.1195 269.18055,50.133" id="Fill-227" fill="#071F2C"></path>
                        <path d="M308.1818,48.60495 C308.5038,48.60495 308.5043,48.10495 308.1818,48.10495 C307.8603,48.10495 307.8593,48.60495 308.1818,48.60495" id="Fill-229" fill="#071F2C"></path>
                        <path d="M401.24845,34.61385 C400.41495,34.44735 399.58195,34.28035 398.74845,34.11385 C398.43395,34.05085 398.29995,34.53285 398.61545,34.59585 C399.44845,34.76285 400.28195,34.92935 401.11545,35.09585 C401.42945,35.15885 401.56395,34.67685 401.24845,34.61385" id="Fill-231" fill="#071F2C"></path>
                        <path d="M417.808,36.139 L414.808,34.639 C414.521,34.4955 414.2675,34.9265 414.5555,35.071 L417.5555,36.571 C417.8425,36.714 418.096,36.283 417.808,36.139" id="Fill-233" fill="#071F2C"></path>
                        <path d="M2.6847,61.18235 C34.4257,58.66735 66.2727,57.96135 98.1022,57.70335 C129.3092,57.45085 160.5052,57.36835 191.7072,56.65685 C209.0352,56.26135 226.3612,55.77635 243.6862,55.28035 C244.0077,55.27135 244.0087,54.77135 243.6862,54.78035 C212.8052,55.66435 181.9207,56.51885 151.0282,56.87935 C119.4582,57.24785 87.8852,57.00985 56.3222,57.90985 C38.4247,58.42035 20.5347,59.26785 2.6847,60.68235 C2.3657,60.70785 2.3632,61.20785 2.6847,61.18235" id="Fill-235" fill="#071F2C"></path>
                        <path d="M2.57095,10.65045 C21.26145,11.35795 39.94495,12.23245 58.62895,13.09245 C75.08345,13.84995 91.54095,14.55195 108.00795,14.99245 C124.32795,15.42895 140.65495,15.64495 156.98095,15.61995 C169.51695,15.60095 182.05595,15.56695 194.58995,15.82495 C199.67895,15.92995 204.79095,16.01995 209.86395,16.47195 C213.32095,16.77995 216.75445,17.20545 220.22345,17.39945 C224.80845,17.65545 229.39945,17.75495 233.98645,17.96345 C235.94595,18.05245 237.90445,18.16495 239.85845,18.34295 C240.17845,18.37195 240.17645,17.87195 239.85845,17.84295 C231.00845,17.03595 222.09295,17.31095 213.25095,16.35045 C208.48645,15.83295 203.73495,15.56845 198.94245,15.43145 C186.21545,15.06645 173.47645,15.09595 160.74495,15.11395 C145.33595,15.13595 129.92845,15.00795 114.52345,14.65445 C97.86145,14.27245 81.20845,13.61645 64.55995,12.86345 C46.50195,12.04695 28.44695,11.17295 10.38445,10.45345 C7.77995,10.34995 5.17545,10.24895 2.57095,10.15045 C2.24895,10.13845 2.24945,10.63845 2.57095,10.65045" id="Fill-237" fill="#071F2C"></path>
                        <path d="M34.85855,19.98725 C49.42305,20.83325 63.98755,21.67925 78.55205,22.52475 C78.87355,22.54375 78.87255,22.04375 78.55205,22.02475 C63.98755,21.17925 49.42305,20.33325 34.85855,19.48725 C34.53705,19.46875 34.53805,19.96875 34.85855,19.98725" id="Fill-239" fill="#071F2C"></path>
                        <path d="M75.20205,26.8116 L83.20205,26.8116 C83.52405,26.8116 83.52455,26.3116 83.20205,26.3116 L75.20205,26.3116 C74.88005,26.3116 74.87955,26.8116 75.20205,26.8116" id="Fill-241" fill="#071F2C"></path>
                        <path d="M233.40785,23.00985 C232.40285,23.55635 231.39785,24.10285 230.39285,24.64935 C230.11035,24.80285 230.36235,25.23485 230.64535,25.08085 C231.65035,24.53435 232.65535,23.98785 233.66035,23.44185 C233.94285,23.28785 233.69085,22.85585 233.40785,23.00985" id="Fill-243" fill="#071F2C"></path>
                        <path d="M225.19595,51.46015 C214.63395,51.03565 204.05745,51.29615 193.52895,52.24065 C193.21095,52.26915 193.20795,52.76915 193.52895,52.74065 C204.05745,51.79615 214.63395,51.53565 225.19595,51.96015 C225.51795,51.97315 225.51745,51.47315 225.19595,51.46015" id="Fill-245" fill="#071F2C"></path>
                        <path d="M611.8373,13.222 C612.4798,9.659 613.2408,6.121 614.1193,2.6085 C614.1973,2.2965 613.7153,2.163 613.6373,2.4755 C612.7583,5.988 611.9978,9.526 611.3553,13.089 C611.2983,13.4035 611.7803,13.5385 611.8373,13.222" id="Fill-247" fill="#071F2C"></path>
                        <path d="M606.329,10.0554 C605.171,6.5899 603.6255,3.2899 601.7,0.1844 C601.5305,-0.0886 601.098,0.1619 601.268,0.4364 C603.1715,3.5064 604.702,6.7624 605.847,10.1884 C605.9485,10.4919 606.4315,10.3619 606.329,10.0554" id="Fill-249" fill="#071F2C"></path>
                        <path d="M599.1283,12.29195 C597.5833,10.78045 596.0383,9.26895 594.4933,7.75695 C594.2633,7.53195 593.9093,7.88495 594.1398,8.11045 L598.7748,12.64545 C599.0048,12.87045 599.3588,12.51745 599.1283,12.29195" id="Fill-251" fill="#071F2C"></path>
                        <g id="Group-255" transform="translate(615.000000, 70.000000)" fill="#071F2C">
                            <path d="M0.38075,0.3703 C1.49525,4.6358 2.36625,8.9548 2.99275,13.3188 C3.03825,13.6363 3.52025,13.5013 3.47475,13.1858 C2.84875,8.8218 1.97725,4.5028 0.86275,0.2373 C0.78175,-0.0737 0.29925,0.0583 0.38075,0.3703" id="Fill-253"></path>
                        </g>
                        <path d="M609.02455,74.08075 C608.83305,76.13825 608.64105,78.19525 608.44955,80.25275 C608.41955,80.57275 608.92005,80.57075 608.94955,80.25275 C609.14105,78.19525 609.33305,76.13825 609.52455,74.08075 C609.55455,73.76075 609.05455,73.76275 609.02455,74.08075" id="Fill-256" fill="#071F2C"></path>
                        <path d="M602.9535,73.95845 C601.8095,76.45545 600.8015,79.00545 599.9315,81.61095 C599.829,81.91695 600.312,82.04795 600.4135,81.74395 C601.27,79.17895 602.259,76.66895 603.385,74.21045 C603.518,73.91995 603.0875,73.66595 602.9535,73.95845" id="Fill-258" fill="#071F2C"></path>
                    </g>
                </g>
            </g>
        </g>
    </g>
</svg>
