<?xml version="1.0" encoding="UTF-8"?>
<svg width="320px" height="333px" viewBox="0 0 320 333" version="1.1" xmlns="http://www.w3.org/2000/svg" xmlns:xlink="http://www.w3.org/1999/xlink">
    <!-- Generator: Sketch 50 (54983) - http://www.bohemiancoding.com/sketch -->
    <title>left-bar-chart</title>
    <desc>Created with Sketch.</desc>
    <defs></defs>
    <g id="Screens" stroke="none" stroke-width="1" fill="none" fill-rule="evenodd">
        <g id="hirer-updated-section-the-power-of-referrals-mobile" transform="translate(-28.000000, -46.000000)">
            <g id="left-bar-chart" transform="translate(28.000000, 46.000000)">
                <path d="M3.60124926,2.75190724 L43.1246868,0.154128739 C94.9859164,2.08861791 133.73787,2.95454408 159.380546,2.75190724 C169.809177,2.66949679 184.867281,0.696858748 204.480156,0.154128739 C212.598347,-0.0705189164 223.849486,3.04915797 238.958671,2.75190724 C259.351188,2.35071484 307.775077,-3.2341925 313.027031,2.75190724 C316.528333,6.74264041 317.90789,12.716941 317.165702,20.674809 C316.164005,40.6545536 315.55963,54.1786303 315.352576,61.2470392 C315.19762,66.5369783 315.115797,71.0996804 315.107109,74.9351455 C315.006311,119.43245 316.936861,156.424313 317.165702,182.293603 C317.483434,218.211435 318.295283,256.113568 319.601249,296 L3.60124926,296 C2.1715452,253.371266 1.28743062,223.214617 0.948905515,205.530053 C0.399575222,176.833018 -0.879338778,152.307809 0.948905515,132.204264 C4.46713468,93.5174885 5.35124926,50.3667028 3.60124926,2.75190724 Z" id="Rectangle-5" fill="#EFEBD3"></path>
                <path d="M3.19937537,271.575516 C29.7286401,272.241155 47.9401765,272.733399 57.8339844,273.052246 C75.4573586,273.620194 115.222241,271.661356 121.816406,271.575516 C137.767609,271.367869 190.444056,270.800486 201.201328,271.575516 C217.546607,272.753144 232.167794,271.575516 245.547032,271.575516 C275.512634,271.575516 300.063416,272.067759 319.199375,273.052246 L319.199375,278.617676 L319.714844,296.473953 C289.994249,296.210846 267.921384,296.210846 253.49625,296.473953 C249.469191,296.547404 236.193507,297.375493 221.207188,296.473953 C210.060637,295.803404 199.567117,296.285484 182.621094,296.473953 C162.45306,296.698257 126.697858,297.823359 73.2501566,298.763016 C59.5515805,299.003848 36.2013201,298.240827 3.19937537,296.473953 L3.19937537,271.575516 Z" id="Rectangle-6" fill="#E35205"></path>
                <path d="M123.812,150.156 C121.376,150.156 119.516,148.14 119.516,145.74 C119.516,143.34 121.376,141.324 123.812,141.324 C126.248,141.324 128.108,143.34 128.108,145.74 C128.108,148.14 126.248,150.156 123.812,150.156 Z M123.812,149.04 C125.6,149.04 126.872,147.528 126.872,145.74 C126.872,143.928 125.564,142.44 123.812,142.44 C122.024,142.44 120.752,143.928 120.752,145.74 C120.752,147.528 122.06,149.04 123.812,149.04 Z M130.04,150 L130.04,145.56 C130.04,145.452 130.052,145.416 130.124,145.344 L130.016,145.248 C129.944,145.32 129.884,145.332 129.824,145.332 L128.816,145.332 L128.816,144.3 L129.824,144.3 C129.884,144.3 129.944,144.312 130.016,144.384 L130.124,144.288 C130.052,144.216 130.04,144.18 130.04,144.072 L130.04,142.38 L131.192,142.38 L131.192,144.072 C131.192,144.18 131.18,144.216 131.108,144.288 L131.216,144.384 C131.288,144.312 131.348,144.3 131.408,144.3 L132.62,144.3 L132.62,145.332 L131.408,145.332 C131.348,145.332 131.288,145.32 131.216,145.248 L131.108,145.344 C131.18,145.416 131.192,145.452 131.192,145.56 L131.192,150 L130.04,150 Z M133.628,150 L133.628,141.504 L134.78,141.504 L134.78,144.456 C134.78,144.612 134.756,144.72 134.648,144.852 L134.768,144.948 C135.08,144.564 135.668,144.18 136.436,144.18 C137.792,144.18 138.788,144.972 138.788,146.772 L138.788,150 L137.636,150 L137.636,147.012 C137.636,145.848 137.192,145.26 136.232,145.26 C135.248,145.26 134.78,145.896 134.78,147.096 L134.78,150 L133.628,150 Z M142.988,150.144 C141.236,150.144 140.012,148.848 140.012,147.168 C140.012,145.548 141.14,144.18 142.904,144.18 C144.44,144.18 145.58,145.404 145.58,147.156 C145.58,147.312 145.568,147.432 145.556,147.552 L141.512,147.552 C141.308,147.552 141.284,147.54 141.236,147.48 L141.128,147.576 C141.2,147.648 141.224,147.684 141.236,147.744 C141.38,148.428 141.98,149.088 142.988,149.088 C143.54,149.088 144.056,148.812 144.368,148.32 L145.184,148.944 C144.704,149.688 143.9,150.144 142.988,150.144 Z M141.224,146.688 C141.272,146.64 141.308,146.64 141.416,146.64 L144.236,146.64 C144.344,146.64 144.38,146.64 144.428,146.688 L144.536,146.592 C144.452,146.508 144.368,146.424 144.344,146.34 C144.164,145.716 143.6,145.236 142.88,145.236 C142.028,145.236 141.524,145.776 141.332,146.34 C141.308,146.424 141.2,146.508 141.116,146.592 L141.224,146.688 Z M147.932,150 L146.78,150 L146.78,144.3 L147.932,144.3 L147.932,144.528 C147.932,144.708 147.884,144.816 147.8,144.912 L147.92,145.008 C148.4204,144.3192 148.9844,144.1788 149.4596,144.1788 C149.5268,144.1788 149.5808,144.1836 149.624,144.192 L149.624,145.44 C149.48,145.416 149.348,145.404 149.228,145.404 C148.376,145.404 147.932,146.016 147.932,147.024 L147.932,150 Z M155.792,150.144 C154.124,150.144 152.792,148.848 152.792,147.168 C152.792,145.44 154.136,144.18 155.792,144.18 C156.884,144.18 157.832,144.732 158.288,145.596 L157.364,146.148 C157.04,145.56 156.452,145.236 155.792,145.236 C154.772,145.236 153.944,146.016 153.944,147.18 C153.944,148.212 154.712,149.088 155.792,149.088 C156.5,149.088 157.076,148.728 157.4,148.176 L158.312,148.74 C157.82,149.58 156.872,150.144 155.792,150.144 Z M159.452,150 L159.452,141.504 L160.604,141.504 L160.604,144.456 C160.604,144.612 160.58,144.72 160.472,144.852 L160.592,144.948 C160.904,144.564 161.492,144.18 162.26,144.18 C163.616,144.18 164.612,144.972 164.612,146.772 L164.612,150 L163.46,150 L163.46,147.012 C163.46,145.848 163.016,145.26 162.056,145.26 C161.072,145.26 160.604,145.896 160.604,147.096 L160.604,150 L159.452,150 Z M168.632,150.144 C167.144,150.144 165.836,148.884 165.836,147.156 C165.836,145.404 167.168,144.18 168.632,144.18 C169.52,144.18 170.18,144.504 170.588,144.972 L170.708,144.876 C170.6,144.744 170.576,144.648 170.576,144.504 L170.576,144.3 L171.728,144.3 L171.728,150 L170.576,150 L170.576,149.82 C170.576,149.652 170.612,149.556 170.708,149.448 L170.588,149.352 C170.18,149.82 169.52,150.144 168.632,150.144 Z M168.836,149.088 C169.88,149.088 170.648,148.248 170.648,147.156 C170.648,146.088 169.88,145.236 168.836,145.236 C167.744,145.236 166.988,146.124 166.988,147.156 C166.988,148.248 167.768,149.088 168.836,149.088 Z M173.408,150 L173.408,144.3 L174.56,144.3 L174.56,144.408 C174.56,144.6 174.548,144.708 174.428,144.852 L174.548,144.948 C174.884,144.552 175.388,144.18 176.252,144.18 C177.608,144.18 178.592,144.972 178.592,146.76 L178.592,150 L177.44,150 L177.44,147 C177.44,145.848 176.972,145.26 176.024,145.26 C175.052,145.26 174.56,145.896 174.56,147.096 L174.56,150 L173.408,150 Z M180.2,150 L180.2,144.3 L181.352,144.3 L181.352,144.408 C181.352,144.6 181.34,144.708 181.22,144.852 L181.34,144.948 C181.676,144.552 182.18,144.18 183.044,144.18 C184.4,144.18 185.384,144.972 185.384,146.76 L185.384,150 L184.232,150 L184.232,147 C184.232,145.848 183.764,145.26 182.816,145.26 C181.844,145.26 181.352,145.896 181.352,147.096 L181.352,150 L180.2,150 Z M189.584,150.144 C187.832,150.144 186.608,148.848 186.608,147.168 C186.608,145.548 187.736,144.18 189.5,144.18 C191.036,144.18 192.176,145.404 192.176,147.156 C192.176,147.312 192.164,147.432 192.152,147.552 L188.108,147.552 C187.904,147.552 187.88,147.54 187.832,147.48 L187.724,147.576 C187.796,147.648 187.82,147.684 187.832,147.744 C187.976,148.428 188.576,149.088 189.584,149.088 C190.136,149.088 190.652,148.812 190.964,148.32 L191.78,148.944 C191.3,149.688 190.496,150.144 189.584,150.144 Z M187.82,146.688 C187.868,146.64 187.904,146.64 188.012,146.64 L190.832,146.64 C190.94,146.64 190.976,146.64 191.024,146.688 L191.132,146.592 C191.048,146.508 190.964,146.424 190.94,146.34 C190.76,145.716 190.196,145.236 189.476,145.236 C188.624,145.236 188.12,145.776 187.928,146.34 C187.904,146.424 187.796,146.508 187.712,146.592 L187.82,146.688 Z M193.376,150 L193.376,141.504 L194.528,141.504 L194.528,150 L193.376,150 Z M197.864,150.144 C197.048,150.144 196.268,149.88 195.68,149.448 L196.184,148.536 C196.712,148.944 197.36,149.124 197.888,149.124 C198.524,149.124 198.908,148.944 198.908,148.464 C198.908,147.204 195.956,148.068 195.956,145.86 C195.956,144.84 196.748,144.18 197.936,144.18 C198.704,144.18 199.436,144.408 199.916,144.804 L199.364,145.644 C198.908,145.32 198.452,145.2 197.984,145.2 C197.324,145.2 197.06,145.464 197.06,145.836 C197.06,146.952 200.036,146.196 200.036,148.368 C200.036,149.52 199.268,150.144 197.864,150.144 Z" id="Other-channels" fill="#2D2926"></path>
                <path d="M88.104,284 L88.104,275.504 L90.972,275.504 C92.712,275.504 93.924,276.344 93.924,278.024 C93.924,279.644 92.724,280.448 91.416,280.52 L91.416,280.64 C91.56,280.628 91.704,280.736 91.812,280.868 L94.392,284 L92.928,284 L90.048,280.532 L89.52,280.532 C89.46,280.532 89.4,280.52 89.328,280.448 L89.22,280.544 C89.292,280.616 89.304,280.652 89.304,280.76 L89.304,284 L88.104,284 Z M89.328,279.548 C89.4,279.476 89.46,279.464 89.52,279.464 L90.984,279.464 C92.004,279.464 92.712,279.032 92.712,278.024 C92.712,277.016 92.004,276.596 90.984,276.596 L89.52,276.596 C89.46,276.596 89.4,276.584 89.328,276.512 L89.22,276.608 C89.292,276.68 89.304,276.716 89.304,276.824 L89.304,279.236 C89.304,279.344 89.292,279.38 89.22,279.452 L89.328,279.548 Z M97.776,284.144 C96.024,284.144 94.8,282.848 94.8,281.168 C94.8,279.548 95.928,278.18 97.692,278.18 C99.228,278.18 100.368,279.404 100.368,281.156 C100.368,281.312 100.356,281.432 100.344,281.552 L96.3,281.552 C96.096,281.552 96.072,281.54 96.024,281.48 L95.916,281.576 C95.988,281.648 96.012,281.684 96.024,281.744 C96.168,282.428 96.768,283.088 97.776,283.088 C98.328,283.088 98.844,282.812 99.156,282.32 L99.972,282.944 C99.492,283.688 98.688,284.144 97.776,284.144 Z M96.012,280.688 C96.06,280.64 96.096,280.64 96.204,280.64 L99.024,280.64 C99.132,280.64 99.168,280.64 99.216,280.688 L99.324,280.592 C99.24,280.508 99.156,280.424 99.132,280.34 C98.952,279.716 98.388,279.236 97.668,279.236 C96.816,279.236 96.312,279.776 96.12,280.34 C96.096,280.424 95.988,280.508 95.904,280.592 L96.012,280.688 Z M101.964,284 L101.964,279.56 C101.964,279.452 101.976,279.416 102.048,279.344 L101.94,279.248 C101.868,279.32 101.808,279.332 101.748,279.332 L100.956,279.332 L100.956,278.3 L101.748,278.3 C101.808,278.3 101.868,278.312 101.94,278.384 L102.048,278.288 C101.976,278.216 101.964,278.18 101.964,278.072 L101.964,278 C101.964,276.416 102.732,275.444 104.16,275.444 C104.22,275.444 104.4,275.444 104.592,275.468 L104.592,276.56 L104.544,276.56 C104.472,276.56 104.34,276.548 104.256,276.548 C103.38,276.548 103.116,277.22 103.116,277.748 L103.116,278.072 C103.116,278.18 103.104,278.216 103.032,278.288 L103.14,278.384 C103.212,278.312 103.272,278.3 103.332,278.3 L104.484,278.3 L104.484,279.332 L103.332,279.332 C103.272,279.332 103.212,279.32 103.14,279.248 L103.032,279.344 C103.104,279.416 103.116,279.452 103.116,279.56 L103.116,284 L101.964,284 Z M107.964,284.144 C106.212,284.144 104.988,282.848 104.988,281.168 C104.988,279.548 106.116,278.18 107.88,278.18 C109.416,278.18 110.556,279.404 110.556,281.156 C110.556,281.312 110.544,281.432 110.532,281.552 L106.488,281.552 C106.284,281.552 106.26,281.54 106.212,281.48 L106.104,281.576 C106.176,281.648 106.2,281.684 106.212,281.744 C106.356,282.428 106.956,283.088 107.964,283.088 C108.516,283.088 109.032,282.812 109.344,282.32 L110.16,282.944 C109.68,283.688 108.876,284.144 107.964,284.144 Z M106.2,280.688 C106.248,280.64 106.284,280.64 106.392,280.64 L109.212,280.64 C109.32,280.64 109.356,280.64 109.404,280.688 L109.512,280.592 C109.428,280.508 109.344,280.424 109.32,280.34 C109.14,279.716 108.576,279.236 107.856,279.236 C107.004,279.236 106.5,279.776 106.308,280.34 C106.284,280.424 106.176,280.508 106.092,280.592 L106.2,280.688 Z M112.908,284 L111.756,284 L111.756,278.3 L112.908,278.3 L112.908,278.528 C112.908,278.708 112.86,278.816 112.776,278.912 L112.896,279.008 C113.3964,278.3192 113.9604,278.1788 114.4356,278.1788 C114.5028,278.1788 114.5568,278.1836 114.6,278.192 L114.6,279.44 C114.456,279.416 114.324,279.404 114.204,279.404 C113.352,279.404 112.908,280.016 112.908,281.024 L112.908,284 Z M116.796,284 L115.644,284 L115.644,278.3 L116.796,278.3 L116.796,278.528 C116.796,278.708 116.748,278.816 116.664,278.912 L116.784,279.008 C117.2844,278.3192 117.8484,278.1788 118.3236,278.1788 C118.3908,278.1788 118.4448,278.1836 118.488,278.192 L118.488,279.44 C118.344,279.416 118.212,279.404 118.092,279.404 C117.24,279.404 116.796,280.016 116.796,281.024 L116.796,284 Z M121.812,284.144 C120.324,284.144 119.016,282.884 119.016,281.156 C119.016,279.404 120.348,278.18 121.812,278.18 C122.7,278.18 123.36,278.504 123.768,278.972 L123.888,278.876 C123.78,278.744 123.756,278.648 123.756,278.504 L123.756,278.3 L124.908,278.3 L124.908,284 L123.756,284 L123.756,283.82 C123.756,283.652 123.792,283.556 123.888,283.448 L123.768,283.352 C123.36,283.82 122.7,284.144 121.812,284.144 Z M122.016,283.088 C123.06,283.088 123.828,282.248 123.828,281.156 C123.828,280.088 123.06,279.236 122.016,279.236 C120.924,279.236 120.168,280.124 120.168,281.156 C120.168,282.248 120.948,283.088 122.016,283.088 Z M126.588,284 L126.588,275.504 L127.74,275.504 L127.74,284 L126.588,284 Z M131.076,284.144 C130.26,284.144 129.48,283.88 128.892,283.448 L129.396,282.536 C129.924,282.944 130.572,283.124 131.1,283.124 C131.736,283.124 132.12,282.944 132.12,282.464 C132.12,281.204 129.168,282.068 129.168,279.86 C129.168,278.84 129.96,278.18 131.148,278.18 C131.916,278.18 132.648,278.408 133.128,278.804 L132.576,279.644 C132.12,279.32 131.664,279.2 131.196,279.2 C130.536,279.2 130.272,279.464 130.272,279.836 C130.272,280.952 133.248,280.196 133.248,282.368 C133.248,283.52 132.48,284.144 131.076,284.144 Z M140.664,281.312 L137.22,281.312 L137.22,280.208 L140.664,280.208 L140.664,281.312 Z M144.396,276.662 L144.396,275.504 L149.964,275.504 L149.964,276.668 L146.628,284 L145.296,284 L148.512,277.016 C148.584,276.86 148.68,276.812 148.74,276.812 L148.74,276.662 L144.396,276.662 Z M155.04,277.16 C155.04,278.396 154.008,279.404 152.772,279.404 C151.536,279.404 150.504,278.396 150.504,277.16 C150.504,275.924 151.536,274.916 152.772,274.916 C154.008,274.916 155.04,275.924 155.04,277.16 Z M153.468,284 L152.424,284 L157.296,275.12 L158.34,275.12 L153.468,284 Z M152.772,278.42 C153.468,278.42 154.008,277.856 154.008,277.16 C154.008,276.464 153.468,275.9 152.772,275.9 C152.076,275.9 151.536,276.464 151.536,277.16 C151.536,277.856 152.076,278.42 152.772,278.42 Z M160.236,281.924 C160.236,283.16 159.204,284.168 157.968,284.168 C156.732,284.168 155.7,283.16 155.7,281.924 C155.7,280.688 156.732,279.68 157.968,279.68 C159.204,279.68 160.236,280.688 160.236,281.924 Z M157.968,283.196 C158.664,283.196 159.204,282.62 159.204,281.924 C159.204,281.228 158.664,280.676 157.968,280.676 C157.272,280.676 156.732,281.228 156.732,281.924 C156.732,282.62 157.272,283.196 157.968,283.196 Z M166.86,284.144 C165.144,284.144 163.86,282.8 163.86,281.144 C163.86,279.512 165.144,278.18 166.86,278.18 C168.552,278.18 169.824,279.512 169.824,281.144 C169.824,282.8 168.552,284.144 166.86,284.144 Z M166.86,283.088 C167.916,283.088 168.672,282.224 168.672,281.144 C168.672,280.1 167.916,279.236 166.86,279.236 C165.78,279.236 165.012,280.1 165.012,281.144 C165.012,282.224 165.78,283.088 166.86,283.088 Z M171.444,284 L171.444,279.56 C171.444,279.452 171.456,279.416 171.528,279.344 L171.42,279.248 C171.348,279.32 171.288,279.332 171.228,279.332 L170.436,279.332 L170.436,278.3 L171.228,278.3 C171.288,278.3 171.348,278.312 171.42,278.384 L171.528,278.288 C171.456,278.216 171.444,278.18 171.444,278.072 L171.444,278 C171.444,276.416 172.212,275.444 173.64,275.444 C173.7,275.444 173.88,275.444 174.072,275.468 L174.072,276.56 L174.024,276.56 C173.952,276.56 173.82,276.548 173.736,276.548 C172.86,276.548 172.596,277.22 172.596,277.748 L172.596,278.072 C172.596,278.18 172.584,278.216 172.512,278.288 L172.62,278.384 C172.692,278.312 172.752,278.3 172.812,278.3 L173.964,278.3 L173.964,279.332 L172.812,279.332 C172.752,279.332 172.692,279.32 172.62,279.248 L172.512,279.344 C172.584,279.416 172.596,279.452 172.596,279.56 L172.596,284 L171.444,284 Z M179.988,284.144 C178.5,284.144 177.192,282.884 177.192,281.156 C177.192,279.404 178.524,278.18 179.988,278.18 C180.876,278.18 181.536,278.504 181.944,278.972 L182.064,278.876 C181.956,278.744 181.932,278.648 181.932,278.504 L181.932,278.3 L183.084,278.3 L183.084,284 L181.932,284 L181.932,283.82 C181.932,283.652 181.968,283.556 182.064,283.448 L181.944,283.352 C181.536,283.82 180.876,284.144 179.988,284.144 Z M180.192,283.088 C181.236,283.088 182.004,282.248 182.004,281.156 C182.004,280.088 181.236,279.236 180.192,279.236 C179.1,279.236 178.344,280.124 178.344,281.156 C178.344,282.248 179.124,283.088 180.192,283.088 Z M184.764,286.772 L184.764,278.3 L185.916,278.3 L185.916,278.504 C185.916,278.648 185.892,278.744 185.784,278.876 L185.904,278.972 C186.312,278.504 186.972,278.18 187.86,278.18 C189.324,278.18 190.656,279.404 190.656,281.156 C190.656,282.884 189.348,284.144 187.86,284.144 C186.972,284.144 186.312,283.82 185.904,283.352 L185.784,283.448 C185.88,283.556 185.916,283.652 185.916,283.82 L185.916,286.772 L184.764,286.772 Z M187.656,283.088 C188.724,283.088 189.504,282.248 189.504,281.156 C189.504,280.124 188.748,279.236 187.656,279.236 C186.612,279.236 185.844,280.088 185.844,281.156 C185.844,282.248 186.612,283.088 187.656,283.088 Z M191.952,286.772 L191.952,278.3 L193.104,278.3 L193.104,278.504 C193.104,278.648 193.08,278.744 192.972,278.876 L193.092,278.972 C193.5,278.504 194.16,278.18 195.048,278.18 C196.512,278.18 197.844,279.404 197.844,281.156 C197.844,282.884 196.536,284.144 195.048,284.144 C194.16,284.144 193.5,283.82 193.092,283.352 L192.972,283.448 C193.068,283.556 193.104,283.652 193.104,283.82 L193.104,286.772 L191.952,286.772 Z M194.844,283.088 C195.912,283.088 196.692,282.248 196.692,281.156 C196.692,280.124 195.936,279.236 194.844,279.236 C193.8,279.236 193.032,280.088 193.032,281.156 C193.032,282.248 193.8,283.088 194.844,283.088 Z M199.14,284 L199.14,275.504 L200.292,275.504 L200.292,284 L199.14,284 Z M202.548,276.968 C202.128,276.968 201.804,276.644 201.804,276.224 C201.804,275.804 202.128,275.492 202.548,275.492 C202.968,275.492 203.28,275.804 203.28,276.224 C203.28,276.644 202.968,276.968 202.548,276.968 Z M203.124,284 L201.972,284 L201.972,278.3 L203.124,278.3 L203.124,284 Z M207.408,284.144 C205.74,284.144 204.408,282.848 204.408,281.168 C204.408,279.44 205.752,278.18 207.408,278.18 C208.5,278.18 209.448,278.732 209.904,279.596 L208.98,280.148 C208.656,279.56 208.068,279.236 207.408,279.236 C206.388,279.236 205.56,280.016 205.56,281.18 C205.56,282.212 206.328,283.088 207.408,283.088 C208.116,283.088 208.692,282.728 209.016,282.176 L209.928,282.74 C209.436,283.58 208.488,284.144 207.408,284.144 Z M213.48,284.144 C211.992,284.144 210.684,282.884 210.684,281.156 C210.684,279.404 212.016,278.18 213.48,278.18 C214.368,278.18 215.028,278.504 215.436,278.972 L215.556,278.876 C215.448,278.744 215.424,278.648 215.424,278.504 L215.424,278.3 L216.576,278.3 L216.576,284 L215.424,284 L215.424,283.82 C215.424,283.652 215.46,283.556 215.556,283.448 L215.436,283.352 C215.028,283.82 214.368,284.144 213.48,284.144 Z M213.684,283.088 C214.728,283.088 215.496,282.248 215.496,281.156 C215.496,280.088 214.728,279.236 213.684,279.236 C212.592,279.236 211.836,280.124 211.836,281.156 C211.836,282.248 212.616,283.088 213.684,283.088 Z M218.256,284 L218.256,278.3 L219.408,278.3 L219.408,278.408 C219.408,278.6 219.396,278.708 219.276,278.852 L219.396,278.948 C219.732,278.552 220.236,278.18 221.1,278.18 C222.456,278.18 223.44,278.972 223.44,280.76 L223.44,284 L222.288,284 L222.288,281 C222.288,279.848 221.82,279.26 220.872,279.26 C219.9,279.26 219.408,279.896 219.408,281.096 L219.408,284 L218.256,284 Z M225.552,284 L225.552,279.56 C225.552,279.452 225.564,279.416 225.636,279.344 L225.528,279.248 C225.456,279.32 225.396,279.332 225.336,279.332 L224.328,279.332 L224.328,278.3 L225.336,278.3 C225.396,278.3 225.456,278.312 225.528,278.384 L225.636,278.288 C225.564,278.216 225.552,278.18 225.552,278.072 L225.552,276.38 L226.704,276.38 L226.704,278.072 C226.704,278.18 226.692,278.216 226.62,278.288 L226.728,278.384 C226.8,278.312 226.86,278.3 226.92,278.3 L228.132,278.3 L228.132,279.332 L226.92,279.332 C226.86,279.332 226.8,279.32 226.728,279.248 L226.62,279.344 C226.692,279.416 226.704,279.452 226.704,279.56 L226.704,284 L225.552,284 Z M230.748,284.144 C229.932,284.144 229.152,283.88 228.564,283.448 L229.068,282.536 C229.596,282.944 230.244,283.124 230.772,283.124 C231.408,283.124 231.792,282.944 231.792,282.464 C231.792,281.204 228.84,282.068 228.84,279.86 C228.84,278.84 229.632,278.18 230.82,278.18 C231.588,278.18 232.32,278.408 232.8,278.804 L232.248,279.644 C231.792,279.32 231.336,279.2 230.868,279.2 C230.208,279.2 229.944,279.464 229.944,279.836 C229.944,280.952 232.92,280.196 232.92,282.368 C232.92,283.52 232.152,284.144 230.748,284.144 Z" id="Referrals---7%-of-ap" fill="#FFFFFF"></path>
                <path d="M68.8903999,329 L68.8903997,319.752 C68.8903997,319.57104 68.9556797,319.49856 69.0270398,319.41488 L68.8830398,319.27456 C68.7993599,319.34592 68.6823999,319.42336 68.54096,319.42336 L65.16,319.42336 L65.16,317.672 L74.45104,317.672 L74.45104,319.42336 L71.0860801,319.42336 C70.9446401,319.42336 70.8276802,319.34592 70.7563201,319.27456 L70.6,319.41488 C70.6836799,319.49856 70.74896,319.57104 70.74896,319.752 L70.74896,329 L68.8903999,329 Z M77.35696,329.17968 C75.0073599,329.17968 73.2830398,327.4 73.2830398,325.192 C73.2830398,323.00368 75.0073599,321.22768 77.35696,321.22768 C79.7236799,321.22768 81.4196799,323.00368 81.4196799,325.192 C81.4196799,327.4 79.7113599,329.17968 77.35696,329.17968 Z M77.35696,327.47632 C78.6171199,327.47632 79.52672,326.49664 79.52672,325.192 C79.52672,323.91088 78.6171199,322.93104 77.35696,322.93104 C76.1014399,322.93104 75.176,323.91088 75.176,325.192 C75.176,326.49664 76.1014399,327.47632 77.35696,327.47632 Z M83.71504,329 L83.71504,323.48624 C83.71504,323.32992 83.768,323.25728 83.864,323.16128 L83.7076799,323.00864 C83.5993599,323.11696 83.5070398,323.16992 83.3900798,323.16992 L82.1569597,323.16992 L82.1569597,321.4 L83.3900798,321.4 C83.5070398,321.4 83.5993599,321.45296 83.7076799,321.56128 L83.864,321.40864 C83.768,321.31264 83.71504,321.24 83.71504,321.08368 L83.71504,318.82768 L85.5833601,318.82768 L85.5833601,321.08368 C85.5833601,321.24 85.5304001,321.31264 85.4344001,321.40864 L85.5907202,321.56128 C85.6990403,321.45296 85.7913604,321.4 85.9083203,321.4 L87.3150403,321.4 L87.3150403,323.16992 L85.9083203,323.16992 C85.7913604,323.16992 85.6990403,323.11696 85.5907202,323.00864 L85.4344001,323.16128 C85.5304001,323.25728 85.5833601,323.32992 85.5833601,323.48624 L85.5833601,329 L83.71504,329 Z M91.8700801,329.18096 C89.71376,329.18096 87.9943999,327.38896 88.00672,325.208 C88.01904,322.95824 89.7211201,321.25232 91.8700801,321.22656 C92.84496,321.21536 93.5894399,321.49968 94.2073599,322.07456 L94.3673599,321.92192 C94.2479998,321.80736 94.1913599,321.67936 94.1913599,321.52432 L94.1913599,321.4 L96.0596799,321.4 L96.0596799,329 L94.17904,329 L94.17904,328.90768 C94.17904,328.68368 94.2516799,328.60496 94.3673599,328.4856 L94.2073599,328.33296 C93.5894399,328.88304 92.84496,329.18096 91.8700801,329.18096 Z M92.0806401,327.47632 C93.3617603,327.47632 94.2504001,326.504 94.2504001,325.208 C94.2504001,323.91936 93.3617603,322.93104 92.0806401,322.93104 C90.7969602,322.93104 89.8996802,323.94288 89.8996802,325.208 C89.8996802,326.49168 90.8043201,327.47632 92.0806401,327.47632 Z M98.1580801,329 L98.1580801,317.672 L100.0264,317.672 L100.0264,329 L98.1580801,329 Z M108.29472,329.17968 C106.92368,329.17968 105.8344,328.69232 105.09968,328.15328 L105.98096,326.65424 C106.70944,327.25968 107.52432,327.54896 108.28976,327.54896 C109.07632,327.54896 109.45296,327.34592 109.45296,326.81664 C109.45296,325.50592 105.45536,326.43632 105.45536,323.57856 C105.45536,322.19392 106.58512,321.22768 108.34144,321.22768 C109.43936,321.22768 110.26768,321.47024 111.10464,322.072 L110.20864,323.46288 C109.53904,322.99392 108.85712,322.87088 108.33168,322.87088 C107.52544,322.87088 107.23504,323.14896 107.23504,323.5096 C107.23504,324.70224 111.24,323.85424 111.24,326.77488 C111.24,328.2 110.27744,329.17968 108.29472,329.17968 L108.29472,329.17968 Z M112.83008,329 L112.83008,317.672 L114.6984,317.672 L114.6984,321.49728 C114.6984,321.69296 114.62944,321.78768 114.51008,321.90224 L114.67008,322.05488 C115.12304,321.66592 115.71008,321.25232 116.7464,321.25232 C118.44368,321.25232 119.85776,322.24688 119.85776,324.63456 L119.85776,329 L117.98944,329 L117.98944,324.95456 C117.98944,323.58704 117.24976,323.03696 116.35136,323.03696 C115.44544,323.03696 114.6984,323.5896 114.6984,324.95568 L114.6984,329 L112.83008,329 Z M125.23008,329.18096 C123.07376,329.18096 121.3544,327.38896 121.36672,325.208 C121.37904,322.95824 123.08112,321.25232 125.23008,321.22656 C126.20496,321.21536 126.94944,321.49968 127.56736,322.07456 L127.72736,321.92192 C127.608,321.80736 127.55136,321.67936 127.55136,321.52432 L127.55136,321.4 L129.41968,321.4 L129.41968,329 L127.53904,329 L127.53904,328.90768 C127.53904,328.68368 127.61168,328.60496 127.72736,328.4856 L127.56736,328.33296 C126.94944,328.88304 126.20496,329.18096 125.23008,329.18096 Z M125.44064,327.47632 C126.72176,327.47632 127.6104,326.504 127.6104,325.208 C127.6104,323.91936 126.72176,322.93104 125.44064,322.93104 C124.15696,322.93104 123.25968,323.94288 123.25968,325.208 C123.25968,326.49168 124.16432,327.47632 125.44064,327.47632 Z M133.3864,329 L131.51808,329 L131.51808,321.4 L133.3864,321.4 L133.3864,321.64256 C133.3864,321.82096 133.31008,321.95264 133.19808,322.06832 L133.35808,322.22096 C134.0696,321.45152 134.64816,321.23104 135.46624,321.23104 C135.58672,321.23104 135.70672,321.24736 135.77776,321.26832 L135.77776,323.19088 C135.6104,323.14656 135.4344,323.11824 135.06512,323.11824 C133.94144,323.11824 133.3864,323.9096 133.3864,324.97056 L133.3864,329 Z M140.415361,329.17968 C138.030081,329.17968 136.42272,327.51824 136.42272,325.24864 C136.42272,322.99024 138.104,321.22768 140.27872,321.22768 C142.516321,321.22768 143.93296,322.9336 143.93296,325.22032 C143.93296,325.42832 143.91696,325.6376 143.88864,325.82224 L138.7304,325.82224 C138.55696,325.82224 138.47568,325.75696 138.43632,325.68928 L138.28,325.86656 C138.33904,325.9256 138.42032,326.01056 138.43632,326.06592 C138.73904,326.95328 139.31744,327.51328 140.46464,327.51328 C141.12672,327.51328 141.65472,327.29296 142.18144,326.63696 L143.38032,327.71504 C142.6664,328.65792 141.63136,329.17968 140.41536,329.17968 L140.415361,329.17968 Z M138.48176,324.55936 C138.558081,324.48304 138.618401,324.43392 138.787041,324.43392 L141.66096,324.43392 C141.82944,324.43392 141.88976,324.48304 141.9784,324.55936 L142.13472,324.40688 C142.02272,324.30704 141.972321,324.24432 141.940321,324.13232 C141.712641,323.38656 141.046721,322.88192 140.259041,322.88192 C139.467681,322.88192 138.808001,323.34336 138.539681,324.13232 C138.495361,324.24432 138.437441,324.30704 138.313121,324.40688 L138.48176,324.55936 Z M152.62096,329.17968 C150.27136,329.17968 148.54704,327.4 148.54704,325.192 C148.54704,323.00368 150.27136,321.22768 152.62096,321.22768 C154.98768,321.22768 156.68368,323.00368 156.68368,325.192 C156.68368,327.4 154.97536,329.17968 152.62096,329.17968 Z M152.62096,327.47632 C153.88112,327.47632 154.79072,326.49664 154.79072,325.192 C154.79072,323.91088 153.88112,322.93104 152.62096,322.93104 C151.36544,322.93104 150.44,323.91088 150.44,325.192 C150.44,326.49664 151.36544,327.47632 152.62096,327.47632 Z M158.75008,329 L158.75008,323.48624 C158.75008,323.32992 158.80304,323.25728 158.89904,323.16128 L158.74272,323.00864 C158.6344,323.11696 158.54208,323.16992 158.42512,323.16992 L157.5784,323.16992 L157.5784,321.4 L158.42512,321.4 C158.54208,321.4 158.6344,321.45296 158.74272,321.561281 L158.89904,321.408641 C158.80304,321.312641 158.75008,321.240001 158.75008,321.083681 L158.75008,320.692321 C158.75008,319.060321 159.7864,317.579681 161.73968,317.579681 C162.01664,317.579681 162.24432,317.592001 162.50032,317.648641 L162.50032,319.375361 L162.46096,319.375361 C162.40176,319.375361 162.23808,319.347041 161.9784,319.347041 C161.032,319.347041 160.6184,319.94768 160.6184,320.7256 L160.6184,321.08368 C160.6184,321.24 160.56544,321.31264 160.46944,321.40864 L160.62576,321.56128 C160.73408,321.45296 160.8264,321.4 160.94336,321.4 L162.344,321.4 L162.344,323.16992 L160.94336,323.16992 C160.8264,323.16992 160.73408,323.11696 160.62576,323.00864 L160.46944,323.16128 C160.56544,323.25728 160.6184,323.32992 160.6184,323.48624 L160.6184,329 L158.75008,329 Z M170.59008,329.18096 C168.43376,329.18096 166.7144,327.38896 166.72672,325.208 C166.73904,322.95824 168.44112,321.25232 170.59008,321.22656 C171.56496,321.21536 172.30944,321.49968 172.92736,322.07456 L173.08736,321.92192 C172.968,321.80736 172.91136,321.67936 172.91136,321.52432 L172.91136,321.4 L174.77968,321.4 L174.77968,329 L172.89904,329 L172.89904,328.90768 C172.89904,328.68368 172.97168,328.60496 173.08736,328.4856 L172.92736,328.33296 C172.30944,328.88304 171.56496,329.18096 170.59008,329.18096 Z M170.80064,327.47632 C172.08176,327.47632 172.9704,326.504 172.9704,325.208 C172.9704,323.91936 172.08176,322.93104 170.80064,322.93104 C169.51696,322.93104 168.61968,323.94288 168.61968,325.208 C168.61968,326.49168 169.52432,327.47632 170.80064,327.47632 Z M176.87808,332.696 L176.87808,321.4 L178.7464,321.4 L178.7464,321.52432 C178.7464,321.67936 178.68976,321.80736 178.5704,321.92192 L178.7304,322.07456 C179.34832,321.49968 180.09296,321.21536 181.06768,321.22656 C183.24112,321.2536 184.91872,322.94592 184.93104,325.208 C184.94336,327.40128 183.24864,329.18096 181.06768,329.18096 C180.09296,329.18096 179.34832,328.88304 178.7304,328.33296 L178.5704,328.4856 C178.68608,328.60496 178.75872,328.68368 178.75872,328.90768 L178.75872,332.696 L176.87808,332.696 Z M180.85712,327.47632 C182.13344,327.47632 183.03808,326.49168 183.03808,325.208 C183.03808,323.94288 182.14096,322.93104 180.85712,322.93104 C179.576,322.93104 178.68736,323.91936 178.68736,325.208 C178.68736,326.504 179.576,327.47632 180.85712,327.47632 L180.85712,327.47632 Z M186.54208,332.696 L186.54208,321.4 L188.4104,321.4 L188.4104,321.52432 C188.4104,321.67936 188.35376,321.80736 188.2344,321.92192 L188.3944,322.07456 C189.01232,321.49968 189.75696,321.21536 190.73168,321.22656 C192.90512,321.2536 194.58272,322.94592 194.59504,325.208 C194.60736,327.40128 192.91264,329.18096 190.73168,329.18096 C189.75696,329.18096 189.01232,328.88304 188.3944,328.33296 L188.2344,328.4856 C188.35008,328.60496 188.42272,328.68368 188.42272,328.90768 L188.42272,332.696 L186.54208,332.696 Z M190.52112,327.47632 C191.79744,327.47632 192.70208,326.49168 192.70208,325.208 C192.70208,323.94288 191.80496,322.93104 190.52112,322.93104 C189.24,322.93104 188.35136,323.91936 188.35136,325.208 C188.35136,326.504 189.24,327.47632 190.52112,327.47632 L190.52112,327.47632 Z M196.20608,329 L196.20608,317.672 L198.0744,317.672 L198.0744,329 L196.20608,329 Z M201.1144,319.77168 C200.44368,319.77168 199.92544,319.2536 199.92544,318.58288 C199.92544,317.912 200.44368,317.40992 201.1144,317.40992 C201.78512,317.40992 202.28736,317.912 202.28736,318.58288 C202.28736,319.2536 201.78512,319.77168 201.1144,319.77168 Z M202.0424,329 L200.17408,329 L200.17408,321.4 L202.0424,321.4 L202.0424,329 Z M207.61664,329.17968 C205.4024,329.17968 203.65104,327.45168 203.65104,325.224 C203.65104,322.91024 205.4024,321.22768 207.688,321.22768 C209.304,321.22768 210.408,321.91456 211.12672,323.15264 L209.57472,324.07328 C209.192,323.35088 208.55568,322.93104 207.66336,322.93104 C206.488,322.93104 205.544,323.90832 205.544,325.22768 C205.544,326.48064 206.46944,327.47632 207.65104,327.47632 C208.5704,327.47632 209.20304,327.00864 209.58576,326.32192 L211.13408,327.25856 C210.40432,328.46464 209.30032,329.17968 207.61664,329.17968 Z M215.95008,329.18096 C213.79376,329.18096 212.0744,327.38896 212.08672,325.208 C212.09904,322.95824 213.80112,321.25232 215.95008,321.22656 C216.92496,321.21536 217.66944,321.49968 218.28736,322.07456 L218.44736,321.92192 C218.328,321.80736 218.27136,321.67936 218.27136,321.52432 L218.27136,321.4 L220.13968,321.4 L220.13968,329 L218.25904,329 L218.25904,328.90768 C218.25904,328.68368 218.33168,328.60496 218.44736,328.4856 L218.28736,328.33296 C217.66944,328.88304 216.92496,329.18096 215.95008,329.18096 Z M216.16064,327.47632 C217.44176,327.47632 218.3304,326.504 218.3304,325.208 C218.3304,323.91936 217.44176,322.93104 216.16064,322.93104 C214.87696,322.93104 213.97968,323.94288 213.97968,325.208 C213.97968,326.49168 214.88432,327.47632 216.16064,327.47632 Z M223.04304,329 L223.04304,323.48624 C223.04304,323.32992 223.096,323.25728 223.192,323.16128 L223.03568,323.00864 C222.92736,323.11696 222.83504,323.16992 222.71808,323.16992 L221.48496,323.16992 L221.48496,321.4 L222.71808,321.4 C222.83504,321.4 222.92736,321.45296 223.03568,321.56128 L223.192,321.40864 C223.096,321.31264 223.04304,321.24 223.04304,321.08368 L223.04304,318.82768 L224.91136,318.82768 L224.91136,321.08368 C224.91136,321.24 224.8584,321.31264 224.7624,321.40864 L224.91872,321.56128 C225.02704,321.45296 225.11936,321.4 225.23632,321.4 L226.64304,321.4 L226.64304,323.16992 L225.23632,323.16992 C225.11936,323.16992 225.02704,323.11696 224.91872,323.00864 L224.7624,323.16128 C224.8584,323.25728 224.91136,323.32992 224.91136,323.48624 L224.91136,329 L223.04304,329 Z M228.9064,319.77168 C228.23568,319.77168 227.71744,319.2536 227.71744,318.58288 C227.71744,317.912 228.23568,317.40992 228.9064,317.40992 C229.57712,317.40992 230.07936,317.912 230.07936,318.58288 C230.07936,319.2536 229.57712,319.77168 228.9064,319.77168 Z M229.8344,329 L227.96608,329 L227.96608,321.4 L229.8344,321.4 L229.8344,329 Z M235.51696,329.17968 C233.16736,329.17968 231.44304,327.4 231.44304,325.192 C231.44304,323.00368 233.16736,321.22768 235.51696,321.22768 C237.88368,321.22768 239.57968,323.00368 239.57968,325.192 C239.57968,327.4 237.87136,329.17968 235.51696,329.17968 Z M235.51696,327.47632 C236.77712,327.47632 237.68672,326.49664 237.68672,325.192 C237.68672,323.91088 236.77712,322.93104 235.51696,322.93104 C234.26144,322.93104 233.336,323.91088 233.336,325.192 C233.336,326.49664 234.26144,327.47632 235.51696,327.47632 Z M241.18208,329 L241.18208,321.4 L243.0504,321.4 L243.0504,321.48256 C243.0504,321.68928 242.98512,321.784 242.86208,321.90224 L243.02208,322.05488 C243.4824,321.64992 244.04368,321.22768 245.12176,321.22768 C246.84368,321.22768 248.2664,322.23456 248.2664,324.63088 L248.2664,329 L246.39808,329 L246.39808,324.95088 C246.39808,323.58704 245.65104,323.03696 244.73168,323.03696 C243.82944,323.03696 243.0504,323.5896 243.0504,324.95568 L243.0504,329 L241.18208,329 Z M252.82272,329.17968 C251.45168,329.17968 250.3624,328.69232 249.62768,328.15328 L250.50896,326.65424 C251.23744,327.25968 252.05232,327.54896 252.81776,327.54896 C253.60432,327.54896 253.98096,327.34592 253.98096,326.81664 C253.98096,325.50592 249.98336,326.43632 249.98336,323.57856 C249.98336,322.19392 251.11312,321.22768 252.86944,321.22768 C253.96736,321.22768 254.79568,321.47024 255.63264,322.072 L254.73664,323.46288 C254.06704,322.99392 253.38512,322.87088 252.85968,322.87088 C252.05344,322.87088 251.76304,323.14896 251.76304,323.5096 C251.76304,324.70224 255.768,323.85424 255.768,326.77488 C255.768,328.2 254.80544,329.17968 252.82272,329.17968 L252.82272,329.17968 Z" id="Total-share-of-appli" fill="#E35205"></path>
            </g>
        </g>
    </g>
</svg>