<?xml version="1.0" encoding="UTF-8"?>
<svg width="318px" height="333px" viewBox="0 0 318 333" version="1.1" xmlns="http://www.w3.org/2000/svg" xmlns:xlink="http://www.w3.org/1999/xlink">
    <!-- Generator: Sketch 49.3 (51167) - http://www.bohemiancoding.com/sketch -->
    <title>left-bar-chart</title>
    <desc>Created with Sketch.</desc>
    <defs></defs>
    <g id="Screens" stroke="none" stroke-width="1" fill="none" fill-rule="evenodd">
        <g id="hirer-updated" transform="translate(-200.000000, -5083.000000)">
            <g id="bar-chart" transform="translate(200.000000, 5060.000000)">
                <g id="left-bar-chart" transform="translate(0.000000, 23.000000)">
                    <path d="M3.58320648,2.75190724 L42.9086257,0.154128739 C94.510023,2.08861791 133.067823,2.95454408 158.582026,2.75190724 C168.958408,2.66949679 183.941069,0.696858748 203.45568,0.154128739 C211.533198,-0.0705189164 222.727967,3.04915797 237.761453,2.75190724 C258.0518,2.35071484 306.233079,-3.2341925 311.458719,2.75190724 C314.942479,6.74264041 316.315125,12.716941 315.576656,20.674809 C314.579977,40.6545536 313.978629,54.1786303 313.772614,61.2470392 C313.618433,66.5369783 313.53702,71.0996804 313.528376,74.9351455 C313.428083,119.43245 315.34896,156.424313 315.576656,182.293603 C315.892795,218.211435 316.700577,256.113568 318,296 L3.58320648,296 C2.16066544,253.371266 1.2809804,223.214617 0.944151359,205.530053 C0.397573292,176.833018 -0.874933161,152.307809 0.944151359,132.204264 C4.44475368,93.5174885 5.32443872,50.3667028 3.58320648,2.75190724 Z" id="Rectangle-5" fill="#EFEBD3"></path>
                    <path d="M3.19937537,270.575516 C29.5613857,271.241155 47.658107,271.733399 57.4895392,272.052246 C75.0018064,272.620194 114.51599,270.661356 121.068582,270.575516 C136.91922,270.367869 189.263567,269.800486 199.95302,270.575516 C216.19525,271.753144 230.724257,270.575516 244.019145,270.575516 C273.795829,270.575516 298.191829,271.067759 317.207146,272.052246 L317.207146,277.617676 L317.719364,295.473953 C288.186144,295.210846 266.252438,295.210846 251.918248,295.473953 C247.916577,295.547404 234.72459,296.375493 219.832752,295.473953 C208.756475,294.803404 198.329112,295.285484 181.489925,295.473953 C161.449041,295.698257 125.919259,296.823359 72.8085198,297.763016 C59.1963067,298.003848 35.9932585,297.240827 3.19937537,295.473953 L3.19937537,270.575516 Z" id="Rectangle-6" fill="#E35205"></path>
                    <text id="Other-channels" font-family="F37Jan-Regular, F37 Jan" font-size="12" font-weight="normal" fill="#2D2926">
                        <tspan x="119" y="150">Other channels</tspan>
                    </text>
                    <text id="Referrals---7%-of-ap" font-family="F37Jan-Regular, F37 Jan" font-size="12" font-weight="normal" fill="#FFFFFF">
                        <tspan x="87" y="287">Referrals - 7% of applicants</tspan>
                    </text>
                    <text id="Total-share-of-appli" font-family="F37Jan-Bold, F37 Jan" font-size="16" font-weight="bold" fill="#E35205">
                        <tspan x="65" y="329">Total share of applications</tspan>
                    </text>
                </g>
            </g>
        </g>
    </g>
</svg>