<?xml version="1.0" encoding="UTF-8"?>
<svg width="569px" height="92px" viewBox="0 0 569 92" version="1.1" xmlns="http://www.w3.org/2000/svg" xmlns:xlink="http://www.w3.org/1999/xlink">
    <!-- Generator: Sketch 49.3 (51167) - http://www.bohemiancoding.com/sketch -->
    <title>Page 1</title>
    <desc>Created with Sketch.</desc>
    <defs></defs>
    <g id="Screens" stroke="none" stroke-width="1" fill="none" fill-rule="evenodd">
        <g id="hirer-updated" transform="translate(-871.000000, -5553.000000)">
            <g id="Page-1" transform="translate(871.000000, 5553.000000)">
                <path d="M1723.5802,40.0618 C1722.5852,36.8128 1721.7292,33.5388 1721.6372,30.1318 C1721.5092,25.3908 1722.8152,21.0308 1720.2312,16.6148 C1717.0032,11.0988 1710.8092,10.7828 1705.1442,10.6128 L1703.0872,10.5518 C1701.4492,9.5298 1699.5172,8.8998 1697.4682,8.7578 C1647.2142,5.2788 1607.0872,5.4498 1556.7422,7.1608 C1500.3092,9.0778 1464.5392,7.9978 1409.7422,7.1608 C1385.1602,6.7848 1347.1222,10.8208 1322.5622,12.3478 C1297.5682,13.9008 1272.5202,14.2128 1247.4872,14.5878 C1197.1332,15.3408 1146.7792,16.0948 1096.4252,16.8478 C1041.0032,17.6768 985.5802,18.5068 930.1582,19.3358 C929.7952,19.2858 929.4342,19.2368 929.0732,19.1888 C918.3582,17.7588 907.5912,16.8358 896.7882,16.4218 C852.9652,14.7448 809.3492,20.6608 765.9052,25.5538 C756.7462,26.5858 747.5802,27.5708 738.4052,28.4378 L675.0702,28.8118 C636.4522,26.3948 597.8392,24.1238 559.4262,28.1298 C529.0222,29.1438 498.6182,30.1568 468.2142,31.1688 C453.5532,31.6578 438.8462,31.8968 424.2312,33.2468 C409.3092,34.6248 394.5252,37.8108 379.4732,36.6558 C377.9422,36.5388 376.6572,36.8218 375.6152,37.3808 C364.3472,37.0288 353.1162,38.1218 341.8472,38.3818 C317.4302,38.9468 292.9852,37.1998 268.6242,39.5318 L210.3792,35.8918 C190.8042,34.6678 170.7962,32.2238 151.1072,32.6398 C140.7242,30.4778 130.3192,27.8628 120.9352,22.8068 C114.1032,19.1248 106.8312,14.2628 99.2732,15.6438 C98.5632,15.4128 97.7812,15.4708 97.0522,16.0058 C96.8382,16.1888 96.6012,16.3338 96.3722,16.4928 C95.5502,16.8258 94.7252,17.2368 93.8962,17.7468 C93.4532,18.0198 93.1392,18.3838 92.9172,18.7898 C91.5802,19.0298 90.2852,19.4098 89.0262,20.0448 C87.2762,20.9278 86.9152,22.2248 85.6262,23.3188 C83.0832,25.4768 80.2492,25.1918 78.9632,27.7698 C76.1402,30.5378 73.8042,35.0158 70.5962,37.8938 C63.0812,38.4168 55.5602,38.5368 48.1652,40.0688 C42.9412,41.1518 37.8132,38.8668 32.5702,39.5638 C31.0312,39.7688 29.0742,40.1438 27.9962,41.4218 C27.7702,41.6888 27.4952,42.0238 27.3382,42.3758 C26.9632,42.3368 26.5902,42.2958 26.2242,42.2488 C22.5732,41.7698 22.6102,46.9848 25.4262,48.1408 C25.4712,48.1598 25.5142,48.1688 25.5582,48.1868 C25.9912,49.0778 26.8352,49.7678 28.1072,49.8158 C34.2462,50.0468 39.9732,52.0418 45.9652,53.1628 C50.4672,54.0038 54.9592,53.9958 59.4812,54.1258 C59.4482,55.4978 60.2322,56.8778 61.5502,57.1988 C61.9632,57.4318 62.4592,57.5758 63.0592,57.5608 C64.9232,57.5118 67.8022,61.8138 69.1232,62.9258 C70.7832,64.3218 72.5862,65.7188 74.4372,66.8488 C78.7072,69.4558 83.7982,69.6458 88.0152,72.3498 C91.8112,74.7838 95.2962,77.4718 100.0272,77.4778 C105.8292,77.4848 111.7952,75.3988 117.6142,74.8658 C122.9252,74.3788 127.9572,73.6358 133.0452,71.9888 C138.9322,70.0828 144.4282,70.7638 150.5002,70.8608 C157.0642,70.9648 163.6162,70.6618 170.1352,70.0188 C175.5652,71.1688 181.0152,72.2278 186.5962,72.6158 C199.7152,73.5268 212.8882,73.7098 226.0162,74.5748 C238.9702,75.4278 251.8822,76.6648 264.8102,77.8268 C270.5362,78.3418 276.2412,78.6888 281.9312,78.6798 C301.0152,81.3918 320.1772,84.1028 339.4552,82.8738 C357.9962,81.6918 376.3062,79.1798 394.8082,78.1748 C419.2872,79.2558 443.8512,78.5998 468.3432,79.7178 C502.4732,81.2768 535.9562,88.3148 569.9282,91.4258 C572.1272,91.6278 573.8152,90.9938 575.0032,89.8928 C587.6102,90.3728 600.2592,90.2968 612.8292,90.1668 C648.0632,89.8038 683.2972,89.4288 718.5312,89.0608 C720.4302,89.0408 722.3292,89.0198 724.2282,88.9998 C747.2312,91.2108 770.3842,91.7178 793.5122,92.2868 C810.0592,92.6928 826.6122,93.1848 843.1152,94.5028 C859.5202,95.8138 875.8512,97.9238 892.2682,99.1078 C911.1972,100.4738 930.1012,100.3318 948.8182,96.8958 C949.6582,96.7418 950.3692,96.4618 950.9962,96.1118 C1041.5282,103.2968 1132.1182,110.0848 1222.9022,113.0008 C1323.5452,116.2348 1424.1812,113.5508 1524.7042,108.2018 C1540.2512,107.3748 1555.7952,106.4858 1571.3372,105.5608 C1620.4632,105.1128 1669.5872,104.4398 1718.7082,103.5508 C1721.2352,103.5058 1723.2892,102.7318 1724.8722,101.5068 C1727.0142,101.0928 1729.0742,100.1008 1730.8522,98.4278 C1734.6212,94.8828 1735.5622,89.8378 1735.9002,84.9038 C1737.0062,68.7918 1728.1272,54.9058 1723.5802,40.0618" id="Fill-3" fill="#EFEBD3"></path>
                <path d="M99.0099,63.4348 C97.4439,63.7828 95.8719,63.6318 94.4079,62.9678 C93.8259,62.7048 93.3169,63.5658 93.9029,63.8308 C95.6259,64.6118 97.4269,64.8098 99.2759,64.3988 C99.9039,64.2598 99.6379,63.2958 99.0099,63.4348" id="Fill-5" fill="#081F2C"></path>
                <path d="M92.2633,61.7849 C90.4543,60.6009 88.4733,60.1069 86.4543,59.4069 C83.8993,58.5199 82.1403,56.8389 79.9093,55.4179 C79.3643,55.0709 78.8623,55.9359 79.4043,56.2809 C81.2303,57.4439 82.7243,58.9699 84.7383,59.8319 C87.0793,60.8349 89.5943,61.2319 91.7583,62.6479 C92.2983,63.0019 92.8003,62.1369 92.2633,61.7849" id="Fill-7" fill="#081F2C"></path>
                <path d="M78.3839,55.6755 C76.5689,55.3775 75.0149,54.5145 73.3659,53.7565 C72.8369,53.5125 72.2039,53.3605 71.7049,53.0765 C71.0469,52.7025 70.6879,52.0055 70.0799,51.5735 C69.5539,51.2005 69.0539,52.0675 69.5749,52.4375 C69.9869,52.7295 70.1219,53.2665 70.5049,53.5905 C71.1769,54.1595 72.3449,54.3815 73.1129,54.7385 C74.7579,55.5055 76.3069,56.3425 78.1179,56.6395 C78.7479,56.7425 79.0179,55.7795 78.3839,55.6755" id="Fill-9" fill="#081F2C"></path>
                <path d="M71.0025,52.9861 C67.7485,53.0641 64.4945,53.0731 61.2405,52.9871 C58.1775,52.9071 53.8655,53.3961 51.3965,51.2661 C50.9105,50.8471 50.2005,51.5521 50.6895,51.9731 C52.8355,53.8241 55.6155,53.7751 58.3135,53.8871 C62.5415,54.0651 66.7725,54.0881 71.0025,53.9861 C71.6445,53.9701 71.6475,52.9701 71.0025,52.9861" id="Fill-11" fill="#081F2C"></path>
                <path d="M52.878,52.2127 C50.182,52.2567 47.542,52.1977 44.887,51.6637 C42.726,51.2287 38.919,50.8347 37.948,48.5537 C37.697,47.9637 36.836,48.4727 37.085,49.0587 C38.022,51.2607 40.635,51.6627 42.724,52.1847 C46.112,53.0317 49.394,53.2697 52.878,53.2127 C53.521,53.2027 53.523,52.2017 52.878,52.2127" id="Fill-13" fill="#081F2C"></path>
                <path d="M38.4845,49.8694 C35.2765,50.0334 32.0885,49.6784 29.0385,48.6354 C27.6315,48.1534 26.0845,47.5944 24.8565,46.7364 C22.6975,45.2274 22.9035,43.3364 23.5065,41.1284 C23.6765,40.5074 22.7125,40.2424 22.5425,40.8634 C21.6115,44.2694 22.2145,46.5434 25.3995,48.1754 C29.4515,50.2504 33.9545,51.1014 38.4845,50.8694 C39.1255,50.8364 39.1295,49.8364 38.4845,49.8694" id="Fill-15" fill="#081F2C"></path>
                <path d="M86.4322,42.6321 C91.4322,42.4271 96.4152,42.5821 101.3922,43.0961 C102.0322,43.1621 102.0272,42.1621 101.3922,42.0961 C96.4152,41.5821 91.4322,41.4271 86.4322,41.6321 C85.7912,41.6581 85.7872,42.6581 86.4322,42.6321" id="Fill-17" fill="#081F2C"></path>
                <path d="M86.2994,44.6487 C87.5054,44.8557 88.7514,44.9917 89.9754,44.9907 C90.6184,44.9907 90.6194,43.9907 89.9754,43.9907 C88.8404,43.9917 87.6834,43.8767 86.5654,43.6847 C85.9364,43.5757 85.6654,44.5397 86.2994,44.6487" id="Fill-19" fill="#081F2C"></path>
                <path d="M89.4542,34.9182 C86.0302,34.1752 82.4892,33.4162 78.9782,33.9902 C75.2062,34.6062 72.0572,37.1472 68.1912,37.3452 C67.5512,37.3782 67.5472,38.3782 68.1912,38.3452 C71.3502,38.1842 73.8922,36.5892 76.8152,35.5772 C80.8972,34.1632 85.0892,34.9932 89.1882,35.8822 C89.8152,36.0192 90.0832,35.0552 89.4542,34.9182" id="Fill-21" fill="#081F2C"></path>
                <path d="M93.2545,23.3962 C88.9845,22.2442 83.8645,21.0732 80.1275,24.2332 C78.0825,25.9612 77.9545,28.6272 76.4165,30.6902 C74.5995,33.1282 72.0495,35.1422 69.7945,37.1652 C69.3145,37.5962 70.0235,38.3012 70.5015,37.8732 C73.5375,35.1492 77.1775,32.4602 78.6695,28.5502 C81.1445,22.0632 87.3325,22.8342 92.9885,24.3602 C93.6105,24.5282 93.8765,23.5632 93.2545,23.3962" id="Fill-23" fill="#081F2C"></path>
                <path d="M99.6534,18.1419 C96.9724,17.7179 93.4244,16.4459 90.7544,17.2569 C88.3064,17.9999 86.3404,20.3729 85.0754,22.4699 C84.7424,23.0219 85.6064,23.5249 85.9394,22.9739 C87.6034,20.2179 89.8874,17.9079 93.3774,18.1549 C95.3764,18.2969 97.4094,18.7929 99.3874,19.1059 C100.0174,19.2059 100.2884,18.2429 99.6534,18.1419" id="Fill-25" fill="#081F2C"></path>
                <path d="M113.2144,18.3171 C109.3214,16.9601 106.0384,14.0431 101.8284,13.6251 C98.2424,13.2691 94.8024,14.5461 92.1444,16.9271 C91.6644,17.3571 92.3734,18.0621 92.8524,17.6341 C95.8684,14.9331 100.0074,13.8551 103.9224,15.0671 C107.1074,16.0541 109.7974,18.1831 112.9484,19.2811 C113.5574,19.4931 113.8194,18.5281 113.2144,18.3171" id="Fill-27" fill="#081F2C"></path>
                <path d="M66.0611,37.3455 C62.0931,37.3925 58.1441,37.8215 54.1761,37.8805 C51.0111,37.9265 48.0101,37.9645 45.0531,39.2215 C44.4621,39.4725 44.9721,40.3345 45.5581,40.0845 C48.9141,38.6575 52.5071,38.9705 56.0641,38.8285 C59.3991,38.6965 62.7221,38.3855 66.0611,38.3455 C66.7041,38.3375 66.7061,37.3375 66.0611,37.3455" id="Fill-29" fill="#081F2C"></path>
                <path d="M45.4381,39.1712 C40.7201,37.9822 35.8341,37.4602 30.9711,37.7482 C28.3581,37.9032 23.8381,37.8502 22.5931,40.7432 C22.3411,41.3282 23.2031,41.8382 23.4571,41.2482 C24.7641,38.2102 30.9601,38.6712 33.6141,38.6722 C37.5191,38.6742 41.3881,39.1812 45.1721,40.1352 C45.7961,40.2932 46.0631,39.3282 45.4381,39.1712" id="Fill-31" fill="#081F2C"></path>
                <path d="M31.1622,38.6453 C30.4282,39.7883 29.1812,40.4993 28.3092,41.5383 C26.8792,43.2463 24.9732,43.2673 23.0762,42.2383 C22.5102,41.9313 22.0042,42.7943 22.5712,43.1013 C24.2262,43.9993 26.1682,44.3793 27.8582,43.3323 C28.6842,42.8193 29.1552,41.9713 29.8482,41.3133 C30.6202,40.5823 31.4392,40.0633 32.0262,39.1503 C32.3742,38.6073 31.5092,38.1053 31.1622,38.6453" id="Fill-33" fill="#081F2C"></path>
                <path d="M51.0328,38.4114 C49.9288,40.4944 49.4028,42.7434 49.4878,45.0994 C49.5108,45.7414 50.5108,45.7444 50.4878,45.0994 C50.4078,42.9114 50.8708,40.8514 51.8958,38.9164 C52.1978,38.3484 51.3338,37.8424 51.0328,38.4114" id="Fill-35" fill="#081F2C"></path>
                <path d="M52.544,38.8938 C52.339,40.0218 52.134,41.1508 51.93,42.2788 C51.815,42.9088 52.779,43.1778 52.894,42.5448 C53.099,41.4168 53.304,40.2888 53.508,39.1598 C53.623,38.5308 52.659,38.2608 52.544,38.8938" id="Fill-37" fill="#081F2C"></path>
                <path d="M55.3717,38.6638 C55.4247,41.1608 54.1987,43.4198 52.9817,45.5238 C52.6587,46.0808 53.5227,46.5858 53.8457,46.0278 C55.1497,43.7738 56.4287,41.3358 56.3717,38.6638 C56.3577,38.0208 55.3577,38.0188 55.3717,38.6638" id="Fill-39" fill="#081F2C"></path>
                <path d="M48.8634,38.3103 C47.3484,39.8613 46.4254,42.0023 46.3254,44.1663 C46.2954,44.8103 47.2954,44.8083 47.3254,44.1663 C47.4134,42.2673 48.2424,40.3763 49.5704,39.0173 C50.0204,38.5563 49.3144,37.8493 48.8634,38.3103" id="Fill-41" fill="#081F2C"></path>
                <path d="M40.2745,38.6135 C39.0175,40.2725 37.9585,42.2075 37.5635,44.2685 C37.4435,44.8975 38.4065,45.1675 38.5275,44.5345 C38.9075,42.5495 39.9265,40.7175 41.1375,39.1175 C41.5265,38.6055 40.6585,38.1065 40.2745,38.6135" id="Fill-43" fill="#081F2C"></path>
                <path d="M36.4918,41.343 C36.4138,41.889 36.3368,42.434 36.2598,42.98 C36.1698,43.61 37.1338,43.882 37.2238,43.246 C37.3008,42.7 37.3788,42.155 37.4558,41.609 C37.5448,40.979 36.5818,40.707 36.4918,41.343" id="Fill-45" fill="#081F2C"></path>
                <path d="M75.9708,36.4133 C74.7908,39.4893 77.3158,42.7353 79.3258,44.8443 C79.7718,45.3113 80.4778,44.6033 80.0338,44.1373 C78.2768,42.2953 75.8978,39.3833 76.9348,36.6793 C77.1658,36.0783 76.1988,35.8173 75.9708,36.4133" id="Fill-47" fill="#081F2C"></path>
                <path d="M83.2633,39.4734 C83.1463,40.0184 83.0293,40.5644 82.9123,41.1104 C82.7783,41.7374 83.7423,42.0064 83.8773,41.3754 C83.9933,40.8304 84.1113,40.2854 84.2273,39.7394 C84.3623,39.1114 83.3983,38.8434 83.2633,39.4734" id="Fill-49" fill="#081F2C"></path>
                <path d="M74.1104,40.4465 C74.4374,42.1945 75.2204,43.7565 76.3954,45.0875 C76.8224,45.5705 77.5274,44.8615 77.1024,44.3805 C76.0364,43.1725 75.3704,41.7615 75.0744,40.1805 C74.9574,39.5485 73.9924,39.8165 74.1104,40.4465" id="Fill-51" fill="#081F2C"></path>
                <path d="M73.9102,44.5325 C74.0662,45.0395 74.2222,45.5455 74.3782,46.0525 C74.5662,46.6655 75.5322,46.4045 75.3422,45.7865 C75.1862,45.2805 75.0302,44.7735 74.8742,44.2665 C74.6862,43.6535 73.7202,43.9155 73.9102,44.5325" id="Fill-53" fill="#081F2C"></path>
                <path d="M60.0645,53.5989 C59.0535,55.1119 58.2515,58.1319 59.7445,59.6519 C60.4895,60.4099 61.9385,60.6939 62.9145,60.9909 C64.4545,61.4609 66.0275,61.7529 67.6265,61.9339 C68.2645,62.0069 68.2595,61.0069 67.6265,60.9339 C65.5745,60.7009 63.5445,60.2449 61.6185,59.4919 C60.4085,59.0179 60.0165,58.4199 59.9865,57.0939 C59.9615,55.9879 60.3215,55.0119 60.9285,54.1029 C61.2865,53.5669 60.4205,53.0659 60.0645,53.5989" id="Fill-55" fill="#081F2C"></path>
                <path d="M67.8331,60.8816 C67.1351,57.2986 62.9401,55.8516 59.8101,55.0676 C59.1861,54.9116 58.9191,55.8756 59.5441,56.0316 C62.3151,56.7256 66.2491,57.9636 66.8691,61.1476 C66.9911,61.7786 67.9561,61.5116 67.8331,60.8816" id="Fill-57" fill="#081F2C"></path>
                <path d="M73.8902,59.8626 C74.9872,61.1986 75.7982,62.8306 75.8762,64.5786 C75.9212,65.5696 75.8272,66.5656 76.3172,67.4626 C76.6262,68.0276 77.4902,67.5236 77.1812,66.9576 C76.5602,65.8206 76.9752,64.1896 76.6262,62.9306 C76.2352,61.5216 75.5202,60.2806 74.5972,59.1556 C74.1892,58.6576 73.4852,59.3686 73.8902,59.8626" id="Fill-59" fill="#081F2C"></path>
                <path d="M88.9254,71.6423 C85.1954,69.4343 81.3784,68.3463 77.3474,66.8953 C75.0824,66.0803 74.1734,64.3603 72.3844,62.9733 C70.9304,61.8463 69.1264,61.3033 67.3934,60.7763 C66.7764,60.5883 66.5124,61.5533 67.1274,61.7413 C69.5924,62.4913 71.5294,63.3593 73.2784,65.3003 C74.1954,66.3183 75.0774,67.0473 76.3714,67.5953 C78.0774,68.3173 79.9454,68.6573 81.6904,69.2853 C84.0444,70.1343 86.2704,71.2333 88.4204,72.5053 C88.9754,72.8343 89.4794,71.9703 88.9254,71.6423" id="Fill-61" fill="#081F2C"></path>
                <path d="M150.129,67.5432 C141.597,65.9642 133.087,68.8022 125.032,71.3232 C119.822,72.9532 114.411,73.0642 109.027,73.6572 C103.522,74.2632 95.789,78.0122 91.129,73.5772 C90.663,73.1342 89.954,73.8402 90.421,74.2852 C94.027,77.7162 98.885,76.6192 103.258,75.6242 C109.448,74.2142 115.854,74.4872 122.052,73.1612 C131.353,71.1712 140.059,66.6922 149.863,68.5072 C150.492,68.6242 150.762,67.6602 150.129,67.5432" id="Fill-63" fill="#081F2C"></path>
                <path d="M150.0758,30.8596 C143.0728,29.8116 136.0028,28.7496 129.3178,26.3256 C126.0758,25.1496 123.1228,23.5376 120.1118,21.8886 C118.7798,21.1596 116.5928,19.3786 115.0008,19.3486 C114.3568,19.3376 114.3568,20.3376 115.0008,20.3486 C116.0008,20.3676 117.3508,21.5536 118.2248,22.0136 C119.4068,22.6336 120.5638,23.2956 121.7308,23.9416 C124.3438,25.3886 127.0598,26.6076 129.8838,27.5836 C136.3218,29.8096 143.0978,30.8186 149.8098,31.8236 C150.4388,31.9186 150.7108,30.9546 150.0758,30.8596" id="Fill-65" fill="#081F2C"></path>
                <path d="M91.3307,36.8079 C93.3827,37.3939 95.4077,38.0589 97.4077,38.8049 C98.0117,39.0299 98.2717,38.0639 97.6737,37.8409 C95.6737,37.0949 93.6487,36.4299 91.5967,35.8439 C90.9767,35.6669 90.7117,36.6319 91.3307,36.8079" id="Fill-67" fill="#081F2C"></path>
                <path d="M81.794,26.9983 C82.102,27.6523 82.523,28.2323 83.041,28.7363 C83.503,29.1853 84.211,28.4783 83.748,28.0293 C83.285,27.5793 82.932,27.0763 82.657,26.4933 C82.383,25.9113 81.521,26.4183 81.794,26.9983" id="Fill-69" fill="#081F2C"></path>
                <path d="M80.1573,29.1023 C80.4293,29.4923 80.7023,29.8823 80.9753,30.2713 C81.3423,30.7953 82.2093,30.2953 81.8393,29.7673 C81.5663,29.3773 81.2933,28.9873 81.0203,28.5983 C80.6543,28.0743 79.7863,28.5733 80.1573,29.1023" id="Fill-71" fill="#081F2C"></path>
                <path d="M95.0738,27.2175 C97.0218,27.8805 98.9708,28.5425 100.9198,29.2055 C101.5298,29.4125 101.7918,28.4465 101.1848,28.2405 C99.2368,27.5785 97.2878,26.9155 95.3398,26.2535 C94.7288,26.0455 94.4668,27.0115 95.0738,27.2175" id="Fill-73" fill="#081F2C"></path>
                <path d="M102.4327,22.1511 C105.0067,23.2781 107.5797,24.4051 110.1537,25.5321 C110.7367,25.7881 111.2467,24.9261 110.6577,24.6691 C108.0847,23.5421 105.5107,22.4151 102.9377,21.2871 C102.3537,21.0321 101.8447,21.8931 102.4327,22.1511" id="Fill-75" fill="#081F2C"></path>
                <path d="M940.61,19.7122 C929.869,15.6132 917.643,16.8412 906.381,17.0272 C893.361,17.2432 880.346,17.6782 867.337,18.2602 C841.309,19.4232 815.312,21.1732 789.318,22.9272 C737.764,26.4062 686.329,29.0762 634.645,29.1892 C608.57,29.2452 582.493,29.0792 556.421,29.5232 C530.892,29.9562 505.367,30.9032 479.85,31.7462 C428.608,33.4382 377.361,36.2012 326.093,36.8832 C311.731,37.0742 297.369,36.9562 283.007,37.1062 C268.548,37.2552 254.081,37.6402 239.628,37.0482 C225.243,36.4592 210.992,34.3212 196.646,33.1992 C182.378,32.0822 168.076,31.4732 153.768,31.1682 C153.125,31.1542 153.125,32.1542 153.768,32.1682 C166.54,32.4402 179.307,32.9542 192.051,33.8572 C204.863,34.7642 217.583,36.5752 230.383,37.5252 C255.525,39.3912 280.947,38.1322 306.138,38.0482 C357.304,37.8772 408.418,35.1932 459.546,33.4312 C511.139,31.6522 562.68,30.1972 614.308,30.2022 C639.862,30.2042 665.422,30.2022 690.966,29.4142 C717.015,28.6092 743.034,27.0042 769.036,25.2872 C797.635,23.3982 826.225,21.3302 854.85,19.8602 C869.415,19.1132 883.989,18.5192 898.569,18.1832 C905.797,18.0162 913.027,17.8852 920.256,17.8852 C927.102,17.8852 933.884,18.2112 940.344,20.6762 C940.946,20.9062 941.206,19.9402 940.61,19.7122" id="Fill-77" fill="#081F2C"></path>
                <path d="M149.9962,68.5252 L228.4852,74.5812 C254.5582,76.5922 280.6412,79.1142 306.7922,79.7602 C358.0132,81.0252 409.2842,75.7332 460.4482,79.0912 C485.5412,80.7382 510.5242,83.6932 535.5902,85.6752 C548.3672,86.6862 561.1932,87.5722 574.0162,87.5252 C586.7962,87.4782 599.5572,86.6532 612.3352,86.4952 C624.7042,86.3412 636.9542,87.5042 649.2972,88.0412 C662.2722,88.6062 675.2622,88.6592 688.2472,88.6432 C714.3962,88.6102 740.5252,88.7812 766.6602,89.7362 C795.4632,90.7892 824.2402,92.5822 852.9512,95.1152 C867.5372,96.4012 882.1302,98.1132 896.7892,98.1882 C911.4242,98.2642 926.2342,94.8872 940.8022,97.1382 C941.4312,97.2352 941.7032,96.2722 941.0672,96.1732 C928.9002,94.2942 916.8012,96.5692 904.6232,97.0592 C891.5462,97.5852 878.4782,96.4622 865.4672,95.2602 C839.3742,92.8492 813.2532,90.8822 787.0792,89.6072 C760.9082,88.3312 734.7062,87.6692 708.5042,87.6182 C683.0292,87.5692 657.6432,87.7532 632.2132,85.9782 C606.6882,84.1952 581.1112,87.3372 555.5522,86.0062 C529.9232,84.6722 504.4202,81.6962 478.8592,79.5032 C453.6402,77.3382 428.5812,76.6292 403.2832,77.3052 C377.3492,77.9982 351.4162,79.0412 325.4682,78.9972 C296.1742,78.9482 267.0892,76.5592 237.9042,74.3072 L149.9962,67.5252 C149.3542,67.4762 149.3572,68.4762 149.9962,68.5252" id="Fill-79" fill="#081F2C"></path>
                <path d="M275.5728,70.4675 L268.0438,69.5065 C267.4068,69.4255 267.4128,70.4255 268.0438,70.5065 L275.5728,71.4675 C276.2098,71.5485 276.2038,70.5485 275.5728,70.4675" id="Fill-81" fill="#081F2C"></path>
                <path d="M251.1944,67.5584 C245.6564,67.2134 240.1194,66.8674 234.5814,66.5214 C233.9384,66.4814 233.9414,67.4814 234.5814,67.5214 C240.1194,67.8674 245.6564,68.2134 251.1944,68.5584 C251.8374,68.5984 251.8354,67.5984 251.1944,67.5584" id="Fill-83" fill="#081F2C"></path>
                <path d="M155.9317,63.177 C154.5037,60.844 153.3677,58.392 152.5187,55.791 C152.3197,55.182 151.3537,55.443 151.5547,56.057 C152.4287,58.736 153.5977,61.278 155.0687,63.681 C155.4037,64.23 156.2687,63.728 155.9317,63.177" id="Fill-85" fill="#081F2C"></path>
                <path d="M149.8463,59.7029 C149.4823,58.3499 149.1183,56.9969 148.7553,55.6449 C148.5883,55.0239 147.6233,55.2869 147.7913,55.9109 C148.1543,57.2639 148.5183,58.6159 148.8823,59.9689 C149.0483,60.5899 150.0133,60.3269 149.8463,59.7029" id="Fill-87" fill="#081F2C"></path>
                <path d="M196.7135,40.6296 C197.1295,40.7336 197.5445,40.8376 197.9605,40.9416 C198.5845,41.0976 198.8515,40.1326 198.2265,39.9766 C197.8105,39.8736 197.3945,39.7696 196.9795,39.6656 C196.3545,39.5086 196.0885,40.4736 196.7135,40.6296" id="Fill-89" fill="#081F2C"></path>
                <path d="M25.463,24.3294 C24.296,22.2074 23.128,20.0844 21.961,17.9624 C21.65,17.3984 20.787,17.9024 21.097,18.4674 L24.6,24.8334 C24.91,25.3984 25.774,24.8934 25.463,24.3294" id="Fill-91" fill="#081F2C"></path>
                <path d="M10.2398,30.6243 C7.3298,30.0003 4.4208,29.3773 1.5108,28.7543 C0.8828,28.6193 0.6148,29.5833 1.2448,29.7183 L9.9738,31.5883 C10.6008,31.7233 10.8698,30.7593 10.2398,30.6243" id="Fill-93" fill="#081F2C"></path>
                <path d="M8.7267,47.4592 C6.4927,47.7752 4.3167,48.2932 2.1797,49.0182 C1.5737,49.2232 1.8337,50.1892 2.4457,49.9822 C4.5827,49.2572 6.7587,48.7392 8.9927,48.4232 C9.6267,48.3342 9.3567,47.3702 8.7267,47.4592" id="Fill-95" fill="#081F2C"></path>
                <path d="M20.025,62.2229 C18.572,63.5759 17.119,64.9289 15.666,66.2809 C15.193,66.7209 15.901,67.4259 16.373,66.9879 C17.826,65.6359 19.279,64.2829 20.732,62.9299 C21.204,62.4909 20.496,61.7849 20.025,62.2229" id="Fill-97" fill="#081F2C"></path>
                <path d="M83.3394,81.948 C84.4844,82.882 85.6284,83.816 86.7724,84.749 C87.2674,85.153 87.9784,84.449 87.4794,84.042 C86.3354,83.109 85.1914,82.175 84.0464,81.241 C83.5524,80.838 82.8404,81.541 83.3394,81.948" id="Fill-99" fill="#081F2C"></path>
                <path d="M81.8795,87.0095 C82.5035,87.3215 83.1265,87.6335 83.7505,87.9455 C84.3235,88.2325 84.8305,87.3695 84.2545,87.0815 C83.6305,86.7695 83.0075,86.4575 82.3845,86.1465 C81.8105,85.8595 81.3035,86.7215 81.8795,87.0095" id="Fill-101" fill="#081F2C"></path>
                <path d="M107.5523,6.0252 C108.7993,6.2332 110.0463,6.4412 111.2933,6.6492 C111.9233,6.7542 112.1933,5.7902 111.5593,5.6842 C110.3123,5.4762 109.0653,5.2692 107.8183,5.0612 C107.1883,4.9562 106.9183,5.9192 107.5523,6.0252" id="Fill-103" fill="#081F2C"></path>
                <path d="M111.503,1.2708 C112.438,1.8768 113.206,2.6708 113.787,3.6208 C114.122,4.1688 114.987,3.6668 114.65,3.1168 C113.98,2.0188 113.087,1.1068 112.008,0.4068 C111.466,0.0558 110.964,0.9218 111.503,1.2708" id="Fill-105" fill="#081F2C"></path>
                <path d="M264.8082,33.1653 C267.2012,33.3723 269.5852,33.3723 271.9782,33.1653 C272.6152,33.1103 272.6202,32.1093 271.9782,32.1653 C269.5852,32.3723 267.2012,32.3723 264.8082,32.1653 C264.1672,32.1103 264.1712,33.1103 264.8082,33.1653" id="Fill-107" fill="#081F2C"></path>
                <path d="M585.4108,37.4182 C579.5778,37.5852 573.7438,37.7512 567.9108,37.9182 C567.2688,37.9362 567.2658,38.9372 567.9108,38.9182 C573.7438,38.7512 579.5778,38.5852 585.4108,38.4182 C586.0528,38.3992 586.0558,37.3992 585.4108,37.4182" id="Fill-109" fill="#081F2C"></path>
                <path d="M544.9113,41.427 C542.7443,41.594 540.5783,41.76 538.4113,41.927 C537.7743,41.977 537.7683,42.977 538.4113,42.927 C540.5783,42.76 542.7443,42.594 544.9113,42.427 C545.5493,42.378 545.5543,41.378 544.9113,41.427" id="Fill-111" fill="#081F2C"></path>
                <path d="M530.9108,50.9182 L524.4108,50.9182 C523.7668,50.9182 523.7658,51.9182 524.4108,51.9182 L530.9108,51.9182 C531.5548,51.9182 531.5558,50.9182 530.9108,50.9182" id="Fill-113" fill="#081F2C"></path>
            </g>
        </g>
    </g>
</svg>