<svg xmlns="http://www.w3.org/2000/svg" xmlns:xlink="http://www.w3.org/1999/xlink" width="1215" height="23" viewBox="0 0 1215 23"><defs><path id="a" d="M1119.917 20H.185V.063h1119.732V20z"/><path id="c" d="M0 2.2V.856h41.722V2.2H0z"/><path id="e" d="M363.098.76v6.12H.442V.76h362.656z"/></defs><g fill="none" fill-rule="evenodd"><g transform="translate(87 2.246)"><mask id="b" fill="#fff"><use xlink:href="#a"/></mask><path fill="#F2F2F2" d="M1117.024 2.814l-10.363.395a3.496 3.496 0 0 0-1.946-.676c-58.743-2.863-117.464.752-176.207 1.758C899.03 2.763 869.54 1.171 840.04.39c-19.16-.507-38.348-.509-57.487.621-18.672 1.103-37.257 3.27-55.857 5.193-.275.028-.551.054-.826.083L519.435 5.77l-75.81-.189c-.99-.002-1.75.344-2.304.87L166.176 3.778l-79.558-.773a3.522 3.522 0 0 0-1.498.297A4488.35 4488.35 0 0 1 7.298.974C5.926.921 5.052 1.65 4.656 2.611c-.53-.04-1.06-.074-1.59-.115-3.851-.299-3.831 5.702 0 6 72.802 5.656 145.855 5.334 218.823 5.141 72.28-.19 144.41-1.536 216.52 3.906 35.914 2.708 71.809-.128 107.809 1.212 36.237 1.35 72.51 1.713 108.742.536 72.57-2.36 145.125-3.44 217.68-6.196l229.017-3.698c1.018.046 2.039.086 3.058.136a3.333 3.333 0 0 0 1.632-.314l10.677-.405c3.849-.146 3.867-6.147 0-6" mask="url(#b)"/></g><path fill="#071F2C" d="M148.926 3.518c90.326 1.159 180.649 2.508 270.979 3.429 89.92.918 179.849 1.41 269.774.869 25.206-.152 50.41-.386 75.615-.715 12.822-.167 25.646-.36 38.468-.578 12.2-.208 24.236-1.717 36.29-3.617.634-.1.365-1.064-.266-.964-11.494 1.81-23.016 3.357-34.651 3.557-10.99.189-21.98.359-32.971.51-22.451.309-44.904.54-67.357.705-44.946.33-89.894.394-134.841.265-89.94-.256-179.874-1.277-269.806-2.45-50.411-.658-100.822-1.365-151.234-2.011-.644-.01-.644.99 0 1m-60.778-.675l16.932.187c.643.006.644-.994 0-1l-16.932-.187c-.644-.008-.645.992 0 1"/><g transform="translate(0 .246)"><mask id="d" fill="#fff"><use xlink:href="#c"/></mask><path fill="#071F2C" d="M.483 1.856L41.24 2.2c.643.006.644-.994 0-1L.483.856c-.644-.006-.644.994 0 1" mask="url(#d)"/></g><g transform="translate(851 -.754)"><mask id="f" fill="#fff"><use xlink:href="#e"/></mask><path fill="#071F2C" d="M.923 3.914C49.687.08 98.57 2.29 147.371 4.058c24.106.872 48.226 1.594 72.349 1.303 22.599-.273 45.138-2.073 67.741-2.171 25.105-.108 50.167 1.407 75.158 3.688.641.058.637-.943 0-1-22.505-2.054-45.069-3.506-67.673-3.675-22.073-.166-44.049 1.486-66.102 1.998C180.503 5.32 132.222 1.946 83.908.998 56.233.455 28.529.744.923 2.914c-.638.05-.644 1.05 0 1" mask="url(#f)"/></g></g></svg>