<svg xmlns="http://www.w3.org/2000/svg" xmlns:xlink="http://www.w3.org/1999/xlink" width="744" height="319" viewBox="0 0 744 319"><defs><path id="a" d="M248.836.548v6.528H.449V.548h248.387z"/></defs><g fill="none" fill-rule="evenodd"><path fill="#E0E0E0" d="M421.93 181.06c-12.967.153-25.935.29-38.902.46-12.758.168-25.74 1.988-38.441.337-.72-.094-1.225.165-1.536.583-1.503-.008-2.862 1.994-1.508 3.438 2.203 2.352 1.783 5.814 3 8.61.883 2.032 2.324 3.575 4.005 4.984 4.895 4.105 10.823 7.23 16.27 10.532a209.532 209.532 0 0 0 7.809 4.504c3.308 2.789 6.607 5.625 10.217 7.953 5.594 3.61 12.014 5.555 17.957 8.465 6.41 3.14 12.338 7.35 18.357 11.166 2.005 1.272 3.858-1.552 2.452-3.084.056-.208.088-.435.065-.697-.103-1.214-.272-2.651-.364-4.118.914-2.003 1.69-4.378 1.308-6.141.848-.84 1.045-2.39-.287-3.173-.088-.051-.173-.09-.26-.136.77-7.94.855-15.846.266-23.768l.33-6.013c.047-.758.09-1.514.124-2.262a1.86 1.86 0 0 0-.26-1.078l.004-.032c.064-.14.118-.292.148-.466l.883-5.09a2.09 2.09 0 0 0-.32-1.491c1.126-1.084.695-3.505-1.317-3.482"/><path fill="#FFF" d="M414.674 197.83a104.57 104.57 0 0 1-7.623-12.193c-.764-1.432-2.94-.16-2.176 1.271a104.54 104.54 0 0 0 7.622 12.193c.944 1.301 3.13.044 2.177-1.272m4.282-3.355a134.108 134.108 0 0 1-5.647-7.766c-.904-1.337-3.088-.077-2.177 1.273a143.8 143.8 0 0 0 6.042 8.275c1 1.275 2.772-.52 1.782-1.782"/><path fill="#F2F2F2" d="M423.728 162.643c.308-3.11 3.121-6.801 1.952-9.806-.053-.137-.122-.257-.19-.377-.086-1.172-.879-2.277-2.399-2.262-13.906.136-27.814.18-41.721.123-10.928-.045-22.052-.731-32.93.634a2.922 2.922 0 0 0-1.034-.04c-1.663.23-3.195.542-4.815.984-.59.162-1.02.457-1.312.825l-.395.116c-1.01-.103-1.735.306-2.71 1.117-1.017.848-.934 2.118-.305 3.053a2.895 2.895 0 0 0-.096.71c-.009 1.829.034 3.65.123 5.466-.716 5.152-.805 11.178.567 16.154-.418 1.012-.202 2.182 1.117 2.746l.185.079c.75.322 1.487.398 2.168.144.108.004.209.018.324.009 18.514-1.307 37.091-1.05 55.657-1.271.887 1.18 2.923 1.03 3.873-.052 6.778-.11 13.553-.3 20.324-.674 2.502-.14 3.05-3.22 1.634-4.474.12-4.396-.447-8.826-.017-13.204"/><path fill="#CECECE" d="M420.923 148.988c-.23-.074-.45-.158-.676-.234.03-.429-.153-.883-.658-1.075a48.207 48.207 0 0 1-5.976-2.746c-1.815-1.589-3.778-2.868-6.04-3.858a1.21 1.21 0 0 0-.438-.105l.01-.097c.08-.8-.88-1.155-1.491-.878-.013 0-.028-.009-.043-.009-.584 0-.947.46-1 1l-.224 2.3c-.04.4.187.686.497.843a.807.807 0 0 0 .15.35c.038.05.067.085.1.131-.48.077-.962.118-1.443.17-16.323-.91-32.78-.067-49.102.21a.927.927 0 0 0-.671.284l.097-.19c.044-.05.094-.083.134-.145.18-.285.27-.492.32-.726l.082-.183c.027-.062.03-.12.046-.183l.006-.004c.17-.119.34-.275.447-.459a1.208 1.208 0 0 0-.05-1.318c-.476-.676-1.557-.697-1.967.065a.999.999 0 0 0-.117.482c-.107.115-.19.244-.254.385l-.365.244c-.014.01-.028.016-.041.027l-7.235 4.825c-.454.304-.521.785-.38 1.188-.18.005-.362.013-.542.017a.943.943 0 0 0-.685.298l-1.085.263c-1.251.302-.721 2.232.53 1.93l2.147-.52c10.32-.284 20.947-1.247 31.214-.216 5.723.575 11.403.112 17.077-.25 4.632.363 9.27.13 13.91-.054.117.011.234.017.35.031a.923.923 0 0 0 .449-.06c4.217-.16 8.436-.248 12.65.231 1.164.132 1.29-1.636.267-1.964"/><path fill="#E35205" d="M363.475 165.16l-.812-.143a1.864 1.864 0 0 0-1.01.105l-.017.001c-.78.07-1.538.64-1.5 1.5.034.752.663 1.576 1.5 1.5a9.122 9.122 0 0 1 1.44-.016c.744.051 1.38-.61 1.473-1.3.092-.679-.338-1.516-1.074-1.647m-10.463 1.163a.558.558 0 0 0-.13-.07c-.016-.019-.04-.04-.072-.074a4.228 4.228 0 0 1-.32-.349c-.307-.373-.811-.486-1.282-.408a1.822 1.822 0 0 0-1.767.12c-.794.495-1.03 1.675-.304 2.355a3.395 3.395 0 0 0 2.263.946c.034.022.063.05.097.071.686.431 1.654.143 2.053-.539.422-.72.149-1.619-.538-2.052m53.479-.398c-.02-.776-.67-1.546-1.5-1.5-4.703.262-9.975-.03-14.644 1.063-.869-.671-2.485-.302-2.462 1.122l.007.525c.006.355.157.67.383.922.3.512.867.847 1.614.638l.021-.005c.09-.008.18-.018.274-.041 4.786-1.213 10.35 1.539 15.164.175.484-.136.938-.542 1.048-1.046.146-.672.116-1.101.095-1.853"/><path fill="#D1CCB2" d="M270.598 235.727c-2.098-3.92-1.887-8.232-1.883-12.536.003-3.372.012-6.743.018-10.114a1.64 1.64 0 0 0 .279-.696c.029-.18.043-.353.07-.531l.003-.024c.2-1.358.339-2.687.366-4.076a1.808 1.808 0 0 0-.11-.652c.015-.068.032-.137.04-.205a.853.853 0 0 0 .095-.221c.512-.504.5-1.526-.375-1.683-.091-.016-.177-.02-.266-.033v-.002h-.012a7.11 7.11 0 0 0-1.288-.078c-2.027-.327-3.612-.114-5.365.906-2.696.807-5.257 2.064-7.944 2.828-1.223-.076-2.36-.086-3.444.629-1.497.103-2.117 1.51-1.848 2.628a2.43 2.43 0 0 0-.137.566 57.265 57.265 0 0 0-.292 5.138c-.224.3-.364.687-.366 1.164a111.7 111.7 0 0 1-.706 12.184c-.061.537.12.972.43 1.296a1.933 1.933 0 0 0-.05.388l-.073 2.708c-.032 1.164.948 1.889 2 2 6.366.68 12.735 1.168 19.13 1.426 1.577.062 2.414-1.731 1.728-3.01"/><path fill="#847B5F" d="M285.378 183.952c-.068-1.822-.31-3.623-.665-5.43a1.806 1.806 0 0 0-.096-.313c1.09-1.268.019-3.805-2.044-3.263a57.104 57.104 0 0 1-12.535 1.855c-2.026.072-2.466 2.318-1.254 3.461.814 3.247.23 6.226.541 9.525.245 2.594 1.334 4.93 2.455 7.246l-.516 4.371a1.714 1.714 0 0 0-.142.451l-.189 1.19a1.9 1.9 0 0 0-.345.82 60.308 60.308 0 0 0-.596 4.213l-.007.068a1.98 1.98 0 0 0-.216.626c-.134.84-.255 1.671-.366 2.5-2.937 8.031-.453 17.152 1.005 25.321.182 1.018 1.509 1.726 2.46 1.397 2.323-.806 4.917-.313 7.344-.68.848-.127 1.476-1.128 1.468-1.927-.022-2.547.012-5.084.104-7.628a2.223 2.223 0 0 0-.036-.486c0-.296-.008-.59-.012-.886a2595105800974202 2595105800974202 0 0 0 .2-2.975c.066-1.037.12-2.074.16-3.115.142-.196.25-.43.291-.717.025-.178.043-.354.066-.532l.006.001.016-.166c.583-4.28.88-8.547.84-12.868.437-2.643.701-5.299.778-8.007.388-.434.605-1.035.462-1.76a7.517 7.517 0 0 1-.201-1.314c.01-.086.027-.168.028-.26-.021-2.83.843-5.59.991-8.422.004-.067 0-.133.003-.2.124-.255.189-.548.156-.885-.04-.407-.105-.807-.154-1.21"/><path fill="#D1CCB2" d="M387.41 98.29l-.476-3.146c.247-.875-.463-1.982-1.446-1.898-13.09 1.104-26.144.367-39.254 2.036a1.62 1.62 0 0 0-.615.206c-1.245-.023-2.49-.037-3.736-.062a1.541 1.541 0 0 0-.495.073c-.215-.022-.43-.032-.646-.057-1.249-.139-1.709 1.35-1.295 2.257a83.401 83.401 0 0 1 1.802 4.274c.001.105.01.215.032.33 1.05 5.293.97 10.215-.224 15.476-.11.487 0 .897.228 1.21-1.248 3.068-1.38 6.101-.282 9.325l1.428 15.078a62.895 62.895 0 0 1-.79 3.681c-.053.213-.058.41-.033.593a.86.86 0 0 0-.278.341c-.056.121-.11.241-.167.362a.986.986 0 0 0-.068.554c-.383.958.824 1.75 1.624 1.063 2.53-2.17 5.856-3.148 8.106-5.683a.967.967 0 0 0 .236-.538c1.01-.712 2.014-1.259 3.205-1.81 1.332-.617 1.24-2.004.486-2.883.245-.773.417-1.713.526-2.933.543-6.054.726-12.137.033-18.183a2.412 2.412 0 0 0-.155-.614c.01-.547.034-1.094.057-1.64.038-.512.072-1.022.074-1.53.031-.51.07-1.022.111-1.532.023-.253.041-.496.052-.713.076-1.455-1.537-1.793-2.432-1.08-.393-.058-.81-.085-1.24-.119a1.33 1.33 0 0 0-.667.125 25.666 25.666 0 0 0-2.734-.159 55.373 55.373 0 0 0-.326-2.46c.526-.28.918-.836.853-1.479.82-.115 1.59-.292 2.05-.394 1.273-.28 3.374-.299 4.207-1.518.482-.705.558-1.814.521-2.933 10.171.213 20.23-2.142 30.431-1.363 1.132.086 1.875-1.34 1.296-2.258"/><path fill="#EFECD3" d="M468.23 208.943c5.457-.316 12.505-2.046 17.518.413a22.34 22.34 0 0 1-.33 1.85c-5.127.932-10.3 1.426-15.52 1.691-5.962.302-12.304 1.048-17.952-1.247a1.35 1.35 0 0 0-.57-.105 9.93 9.93 0 0 0-.188-1.068c5.564-1.199 11.387-1.207 17.043-1.534m26.817 12.982a82.19 82.19 0 0 0 .623-10.34c-.001-.386-.116-.69-.296-.92.01-.06.029-.115.033-.176.192-3.032.017-5.94-.465-8.936-.061-.378-.23-.64-.452-.817a15.996 15.996 0 0 0-.118-3.162c-.067-.769-.633-1.553-1.5-1.5l-10.972.674c-.058-.006-.108-.018-.17-.02a28.103 28.103 0 0 0-4.683.3l-4.29.272c-4.675-.424-9.35-.41-14.068-.02-3.822.314-8.478.241-11.99 2.077l-5.899.021c-1.664.005-2.07 2.54-.397 2.946l.028.01a1.35 1.35 0 0 0-.038.453c.447 4.52.897 9.04 1.346 13.56.037.381.19.686.404.914-.314 3.685-.562 7.37-.71 11.06a44.9 44.9 0 0 0-.448 3.578 85.302 85.302 0 0 0-.308 3.062c-.534.39-.894 1.03-.865 1.944.065 2.085.3 4.362.48 6.665a32.295 32.295 0 0 0-.303 2.16 2.676 2.676 0 0 0-.103.722v.271a28.134 28.134 0 0 0-.003 3.971c.032.46.166.848.363 1.177-.06.394-.107.793-.19 1.174-.405 1.853 1.162 3.572 3.075 3.076a20.785 20.785 0 0 1 2.128-.42c10.168 1.166 20.257.36 30.422 1.211 4.728.396 9.825.693 14.5-.34 4.31-.95 3.58-3.723 3.1-7.592a2.673 2.673 0 0 0-.237-.798l1.7-16.462c.286-2.775.877-5.685.555-8.47a10.045 10.045 0 0 0-.252-1.325"/><path fill="#F2F2F2" d="M712.1 231.227c-2.865.185-5.524.492-8.071 1.088a3.109 3.109 0 0 0-2.447-.617c-.052.002-.097-.007-.151-.002l-12.735 1.109c-1.174-.986-2.782-1.551-4.85-1.377-8.643.727-17.29 1.436-25.935 2.147-.458-.336-1.058-.528-1.81-.478-1.794.119-3.59.223-5.383.337a2.959 2.959 0 0 0-.981-.09c-2.965.23-5.93.463-8.893.694a1739.764 1739.764 0 0 1-93.918 2.876 3.45 3.45 0 0 0-.552.05c-16.424-.133-32.855.365-49.274.736-2.203.049-3.146 2.027-2.833 3.699-.025.123-.061.238-.073.37l-1.227 12.686c-17.356.792-34.644 3.354-52.041 1.954a3.003 3.003 0 0 0-.84.052c.112-3.865.064-7.654-.69-11.464a.593.593 0 0 0-.022-.235c1.996-2.001.242-5.872-2.865-5.031-2.332.63-4.662.965-7.083.873-1.26-.047-2.415-.234-3.593-.231-1.793-1.392-5.368.233-4.856 3.252.172 1.016.338 2.032.499 3.046-.452.5-.747 1.139-.747 1.867a65.328 65.328 0 0 0 1.429 13.716c-3.413.06-6.833.247-10.238.498-7.195.532-14.384 1.004-21.577 1.39a605.24 605.24 0 0 0-29.292.943l-.151-.001-.866-.01a157.306 157.306 0 0 0-9.14-.118l-4.263-.057c-.196-.002-.366.034-.541.062-.333-.575-.928-1.011-1.847-1.14-.23-.031-1.106-5.423-1.84-10.101a57.502 57.502 0 0 0-.194-3.766 3.165 3.165 0 0 0-.013-.627l-.156-1.288a3.373 3.373 0 0 0-.17-.71c.738-1.836-.117-4.274-2.612-4.061-10.426.894-20.884 1.174-31.34.718-8.97-.391-17.896-1.724-26.803-.378l-.005-.526.228-1.082a3.21 3.21 0 0 0 .04-1.072c.02-.037.03-.075.05-.111.866-2.192-1.665-4.258-3.69-3.691-4.171 1.169-8.364 1.557-12.683 1.646-.118.003-.247-.004-.368-.004-2.988-.341-5.94-.78-8.618-.85-7.85-.206-15.708.287-23.547.634l-30.597 1.357a4172.35 4172.35 0 0 0-113.322-.284 383.086 383.086 0 0 0-43.85-1.627c-6.925-.6-13.864-.945-20.826-1.03a3.031 3.031 0 0 0-1.184.217 38.132 38.132 0 0 0-10.97-1.435c-3.858.055-3.868 6.055 0 6 9.152-.128 15.16 3.668 22.497 8.486a21.451 21.451 0 0 0 3.654 1.92c.664.385 1.428.66 2.288.8 4.423 1.289 9.057 1.285 13.952 1.482 17.499.703 34.877 3.019 52.13 5.95 26.07 4.433 35.716 1.42 60.966 9.457 2.248 1.006 21.14 8.66 22.94 10.36 3.755 3.545 10.646.512 15.317 3.016 9.864 5.286 18.176 1.668 28.963 4.204 8.722 2.05 17.44 4.116 26.159 6.179a495.934 495.934 0 0 0 12.169 5.263c19.577 8.13 40.194 6.28 60.84 10.448 21.537 4.35 42.012 10.317 64.238 9.519 15.439-.554 30.669-3.144 45.74-6.484 1.052-.102 2.104-.202 3.157-.316 21.35-2.31 44.479-4.747 61.384-19.225 13.874-11.881 22.315-11.144 37.496-21.635 5.824-4.024 12.12-7.116 18.687-9.551 21.135-4.331 42.952-5.175 64.519-6.587 14.45-.946 28.925-2.172 43.172-4.856 6.795-1.28 13.937-2.568 20.245-5.508 2.779-1.296 5.108-3.21 7.75-4.72 3.732-2.14 7.853-2.454 12.065-2.725 3.834-.248 3.862-6.25 0-6"/><path fill="#071F2C" d="M363.563 166.652c-.284.633-1.183.748-1.786.693-.697-.062-1.57-.484-.91-1.255.534-.624 1.594-.434 2.306-.346a.422.422 0 0 0 .248-.04c.199.26.262.682.142.948m-.955-2.13a.451.451 0 0 0-.252.167c-1.142-.017-2.32.274-2.664 1.532-.4 1.457 1.072 2.104 2.28 2.135 1.173.03 2.635-.618 2.663-1.966.023-1.095-.883-2.157-2.027-1.868m-9.55 3.198c-.317.53-2.064.124-2.461.022-.74-.192-1.524-.716-.858-1.523.353-.43.917-.535 1.48-.543a.485.485 0 0 0 .34.485c.537.18 2.016.699 1.499 1.56m-.491-2.225c.158-.286.025-.754-.41-.78-1.362-.084-3.117.042-3.602 1.599-.44 1.415.866 2.21 2.058 2.454 1.103.225 3.115.532 3.46-.946.275-1.173-.567-1.885-1.506-2.327m-7.739 99.607c24.972-.073 49.938-.794 74.871-2.163.641-.035.645-1.035 0-1-3.76.207-7.519.393-11.28.57.876-.508 1.786-.93 2.764-1.201.602-.168 1.411-.187 1.887-.668.62-.624.638-1.931.631-2.916.918.17 1.793.133 2.738-.135.618-.175.356-1.141-.266-.965a4.898 4.898 0 0 1-2.84-.003c-.317-.092-.628.16-.633.48-.006.377.023 1.098-.028 1.674l-.004-.011c-.592-1.073-1.348-3.604-2.68-3.917-.684-.16-1.625.143-2.312.225l-3.719.447a.512.512 0 0 0-.252.107c-.163-.51-.344-1.014-.594-1.433-.789-1.32-2.847-.416-4.019-.207-.015.003-.023.012-.037.015l-.473-.902c-.52-.99-.855-2.187-2.002-2.5-1.216-.332-5.514.633-5.955 2.029-.518 1.645 2.325 2.756-.267 4.48-.44.293-1.643.544-2.159.674-1.48.623-2.938.299-4.373-.968a1.166 1.166 0 0 0-.318-.473c-2.45-.798-5.765.158-8.446.145a.47.47 0 0 0-.22.049 35.77 35.77 0 0 0-.27-1.901c-.044-.25-.382-.437-.616-.35-1.488.563-2.975 1.133-4.466 1.689-1.51.562-1.786.86-3.597 0-.225-.106-.37-.41-.605-.5-.639-.241-.91-.477-1.642-.388-.979.123-2.15 1.584-2.952 1.314-.87-.294-1.427-2.694-1.924-3.455-.353-.54-.673-.954-1.292-1.182-1.89-.698-5.073.472-6.984.777-.633.1-.364 1.064.267.963 1.43-.227 2.858-.463 4.29-.682 2.526-.383 3.193 1.31 4.151 3.204.451.89.744 1.712 1.861 1.535.344-.054.787-.452 1.031-.563.903-.416 2.05-.698 3.092-.315.526.192.821.733 1.418.889 1.08.28 2.167-.266 3.152-.633 1.312-.488 2.62-.988 3.93-1.484a32.05 32.05 0 0 1 .326 6.634c-.035.643.965.64 1 0a32.784 32.784 0 0 0-.09-4.631c.045.013.088.03.14.03 2.053.01 4.282-.48 6.303-.351 1.927.122 1.483.759 2.673 1.57 1.933 1.322 5.438.042 7.306-.858.79-.381 1.035-.546 1.132-1.441.097-.893-.937-2.427-.753-3.086.223-.805 2.068-1.322 2.734-1.371 1.543-.114 2.357.427 3.262 1.655 1.192 1.62 2 3.812 2.932 5.59.3.569 1.162.065.864-.505-.66-1.258-1.32-2.518-1.982-3.775.575-.12 1.211-.315 1.78-.313l.982.22c.057.158.114.315.172.47.213.324.297.817.428 1.177l1.456 3.998c.22.6 1.186.342.965-.265l-1.2-3.293c-.045-.123-.087-.26-.129-.393l4.62-.555c1.142-.137 1.38.202 2.01 1.157.446.675.797 1.443 1.188 2.152.18.326.542.289.756.095-.014.04-.027.087-.045.118-.416.742-1.185.728-1.875.938-.968.292-1.869.726-2.74 1.233-.392.227-.254.718.055.878a1444.47 1444.47 0 0 1-63.128 1.57c-.644.003-.645 1.003 0 1m20.76-155.22a411.197 411.197 0 0 0 18.133-1.021c.638-.048.642-1.05 0-1-6.037.474-12.081.814-18.133 1.02-.643.023-.646 1.023 0 1m-1.311 5.338l8.407-.564c.64-.043.644-1.043 0-1l-8.407.564c-.639.042-.644 1.043 0 1m-.265 5.722l7.096-.26c.64-.023.644-1.023 0-1l-7.096.26c-.642.023-.645 1.023 0 1m-1.046 2.987l26.274-1.666c.639-.041.643-1.041 0-1l-26.274 1.666c-.64.04-.644 1.04 0 1m-.27 4.1l34.165-2.334c.64-.044.644-1.044 0-1l-34.165 2.334c-.639.044-.644 1.044 0 1m-2.626 4.499a530.212 530.212 0 0 1 35.741-3.396c.64-.039.645-1.039 0-1a530.212 530.212 0 0 0-35.74 3.396c-.63.082-.638 1.083 0 1m24.173.495c.631-.075.64-1.076 0-1l-19.683 2.33c-.63.073-.639 1.075 0 1 6.561-.778 13.122-1.554 19.683-2.33m8.405 1.25c-9.906 1.103-19.812 2.204-29.717 3.308-.632.07-.64 1.07 0 1 9.905-1.104 19.811-2.206 29.716-3.309.633-.07.641-1.07 0-1m3.698 3.453c-10.608.65-21.21 1.409-31.803 2.276-.636.05-.642 1.052 0 1a1557.942 1557.942 0 0 1 31.803-2.276c.639-.04.644-1.04 0-1"/><path fill="#071F2C" d="M422.37 235.22c-.036-.005-.063.006-.096.009.37-3.498.78-6.987.97-10.5 5.823-.258 11.65-.331 17.48-.22.042.003.075-.012.112-.02-.212 3.139-.492 6.28-.754 9.424-5.863.884-11.772 2.023-17.712 1.307m17.297 4.182c-5.857.48-11.713.77-17.59.789-.015-.002-.028-.011-.043-.012l-.218-.011c.1-1.34.226-2.676.364-4.011a.513.513 0 0 0 .19.063c5.904.712 11.8-.4 17.63-1.288a279.83 279.83 0 0 0-.333 4.47m-76.994-57.835V171.18c0-.643-1-.645-1 0v10.413c-3.445.096-6.888.198-10.332.31a.48.48 0 0 0 .037-.211 62.27 62.27 0 0 1 .376-8.69c.072-.637-.928-.633-1 0a62.27 62.27 0 0 0-.376 8.69.487.487 0 0 0 .07.238c-3.462.114-6.923.236-10.384.37a.476.476 0 0 0-.458.37c-2.33-4.256-1.768-9.76-1.68-14.437l.264-14.252a.453.453 0 0 0 .243-.082c.29-.21.583-.412.874-.62 6.028-2.437 12.588-2.49 19.025-2.33 1.075.027 2.15.049 3.225.077-.563 1.4-.266 2.92-.163 4.392l.42 6.028c.043.637 1.043.642 1 0l-.364-5.224c-.108-1.558-.526-3.495.084-4.972a.46.46 0 0 0 .038-.201c5.634.137 11.268.265 16.903.324 14.434.152 28.871.012 43.3-.402.057-.001.104-.02.151-.035.098.067.2.13.298.197.533.363 1.034-.503.504-.863-.862-.588-1.733-1.147-2.6-1.717l27.962-.64c.642-.014.644-1.014 0-1l-28.76.659a.457.457 0 0 0-.384.202 255.364 255.364 0 0 0-7.274-4.52c11.75-.905 23.558-.617 35.326-.286.643.019.643-.981 0-1-12.235-.345-24.516-.655-36.728.387-.025.002-.044.014-.067.019a526.273 526.273 0 0 0-5.887-3.444.546.546 0 0 0-.18-.061c.367-4.47.517-8.956.405-13.445-.006-.243-.015-.486-.024-.73 3.564-.098 7.135-.193 10.678-.604 3.64-.423 7.226-1.058 10.901-1.115 8.041-.123 16.118.249 24.148.679-.009.932-.004 1.864.014 2.795l-25.35-.066c-.643-.002-.644.998 0 1l25.372.066c.051 1.704.15 3.403.3 5.097-2.378.018-4.753-.095-7.13-.055-.643.01-.645 1.01 0 1 2.408-.041 4.815.077 7.222.055.13 1.225.308 2.404.771 3.57.177.445.36.86.53 1.269-.02-.002-.035-.012-.055-.012-15.548-.353-31.213-1.282-46.76-.722-.642.022-.644 1.022 0 1 15.547-.56 31.212.369 46.76.722a.44.44 0 0 0 .375-.172c.29.797.483 1.595.438 2.514-.03-.215-.18-.398-.465-.37l-2.276.238c-.634.066-.64 1.067 0 1 .76-.08 1.518-.157 2.276-.237a.507.507 0 0 0 .434-.338c-.017.172-.03.342-.065.524-.565 2.924-1.66 5.669-2.07 8.653-.496 3.619-.56 7.274-.49 10.929a.466.466 0 0 0-.165-.043c-3.713-.205-7.342-.118-11.033.34-3.506.435-6.975.925-10.517.73-.642-.035-.64.965 0 1 3.543.195 7.011-.295 10.517-.73 3.69-.457 7.321-.545 11.033-.34a.497.497 0 0 0 .182-.028c.058 2.328.164 4.655.245 6.97l.1 2.888a87.415 87.415 0 0 0-8.876.404c-.634.06-.64 1.062 0 1a87.511 87.511 0 0 1 8.911-.404l.216 6.244c-9.355.62-18.725.745-28.094.375a.417.417 0 0 0-.16-.262.444.444 0 0 0-.32-.115c-20.146.543-40.297.872-60.44 1.424M341.65 202.75c-.01.315-.022.627-.033.94l-18.98.434c-.643.015-.645 1.015 0 1 6.315-.143 12.63-.288 18.944-.432-.14 3.944-.287 7.885-.37 11.83-.04-.011-.073-.028-.118-.03a658.618 658.618 0 0 0-33.672-.568c-.643.006-.645 1.006 0 1a658.618 658.618 0 0 1 33.672.568c.036.002.063-.01.095-.015a262.815 262.815 0 0 0-.048 4.699c0 .628.011 1.256.014 1.884-9.699-.601-19.418-1.19-29.14-.886-9.56.297-19.053 1.375-28.63 1.39-.644 0-.645 1 0 1 9.577-.015 19.07-1.093 28.63-1.39 9.725-.303 19.446.285 29.148.887.006.723.007 1.448.017 2.172-7-.33-14-.254-20.993.24-.638.045-.643 1.045 0 1a178.385 178.385 0 0 1 21.015-.24c.04 2.19.102 4.382.183 6.57-19.33.488-38.664.76-58 .814-.644.002-.645 1.002 0 1 19.347-.054 38.694-.326 58.037-.814.095 2.402.217 4.804.363 7.203-1.389-.6-3.395-.097-4.816-.035-2.65.114-5.297.249-7.946.369-5.294.24-10.593.434-15.893.33-10.35-.2-20.657-1.467-31.019-.974a.481.481 0 0 0-.178.045c.29-8.551.757-17.092 1.375-25.623a294.2 294.2 0 0 1 20.515-.15c.644.019.644-.981 0-1a293.79 293.79 0 0 0-20.436.148c.24-3.243.493-6.485.781-9.725a.42.42 0 0 0 .264.055 152.204 152.204 0 0 1 16.952-1.051c.643-.004.644-1.004 0-1-5.67.035-11.32.385-16.952 1.05a.508.508 0 0 0-.18.058c.282-3.13.57-6.258.896-9.383.067-.64-.933-.634-1 0a664.49 664.49 0 0 0-2.96 40.617.426.426 0 0 0-.244-.038c-3.374.448-6.725.764-10.077.952a.478.478 0 0 0 .163-.481c-1.154-5.324-2.315-10.693-2.343-16.166-.029-5.657 1.1-11.222 2.14-16.758.412-2.192.9-4.406 1.128-6.627.262-2.552-1.62-3.783-1.999-6.194-.352-2.243.131-4.745-.07-7.04-.203-2.293-.625-4.55-1.195-6.776l15.527-2.363c.08 2.199.255 4.38.497 6.586.38 3.457.631 6.909-1.056 10.088-.302.569.562 1.074.863.506 2.97-5.6.685-12.367.64-18.365-.012-1.574.006-3.151.027-4.727.552-.12.56-.974.006-.976.016-.88.05-1.758.073-2.636h.004c.63-.04.641-1.007.025-.997.093-2.994.22-5.988.386-8.98a558.019 558.019 0 0 1 51.756-2.576.454.454 0 0 0-.24.405c-.043 2.25-.089 4.5-.134 6.749-8.527.035-17.062-.031-25.589.117-4.228.072-8.369.75-12.57 1.156-4.27.412-8.557.554-12.848.478-.643-.01-.644.99 0 1 4.131.073 8.258-.054 12.374-.433 4.36-.401 8.658-1.125 13.044-1.201 8.52-.148 17.05-.082 25.57-.116-.052 2.616-.099 5.232-.138 7.848a.453.453 0 0 0-.453-.315c-8.366.034-16.728.278-25.08.73-.642.035-.646 1.035 0 1a500.706 500.706 0 0 1 25.08-.73.457.457 0 0 0 .446-.308c-.003.215-.009.43-.01.646l-.025 1.507c-15.799.355-31.395 3.689-47.226 3.35-.644-.013-.644.987 0 1 15.827.339 31.42-2.993 47.214-3.35-.029 3.767.167 7.694 2.14 10.927.248.406.786.235.911-.105.294.994.532 1.994.744 2.998-8.914.217-17.832.529-26.748.638-8.404.105-16.907-2.327-25.245-.632-.63.129-.363 1.092.267.964 8.487-1.725 17.308.813 25.885.654 8.65-.161 17.295-.417 25.942-.626.035-.001.061-.015.093-.022.936 5.014.984 10.132.808 15.252m-57.468-31.435c-2.224.742-4.496 1.136-6.845 1.08-1.255-.031-2.385-.137-3.506.31a.505.505 0 0 0-.027-.336c-.95-2.101 4.027-2.203 5.502-2.367l4.906-.548c-.01.62-.024 1.242-.03 1.86m-7.878-2.665l-.276-1.332c2.774-.36 5.494-1.192 8.26-1.502-.023.875-.042 1.75-.06 2.627-2.71.257-5.558.369-8.268.793.222-.08.405-.29.344-.586m64.63-41.072c-.628-4.4.25-7.932 1.583-12.083.12-.372.218-.735.307-1.095h.02c.573-.015.632-.811.178-.97.427-2.444.16-4.692-.555-7.288-.816-2.965-2.378-6.522-2.725-9.79.034.005.063.016.102.013a570.76 570.76 0 0 1 46.32-2.316 9.29 9.29 0 0 0 .7 5.429c.023.049.054.08.083.114l-30.712 2c.01-.133.016-.267.028-.4.053-.641-.948-.637-1 0-.02.236-.032.472-.049.708a.566.566 0 0 0-.032.465c-.898 12.839.97 25.77-.54 38.562-4.083 3.389-8.475 6.366-12.835 9.386.737-3.797 1.061-7.646.827-11.513-.23-3.797-1.162-7.468-1.7-11.222m-1.213-33.432c.146-1.418.79-2.71 1.085-4.094.033.223.183.433.468.45 3.875.258 7.741.158 11.59-.37 1.972-.27 3.93-.64 5.86-1.122.87-.216 1.772-.601 2.657-.733 1.774-.264 1.772-.078 2.157 1.643.008.036.027.06.041.09-.839.126-1.677.276-2.515.444-1.506.3-3 .655-4.512.93-2.006.365-4.12.297-6.099.707-1.47.305-2.442 1.11-2.56 2.606-2.685.207-5.368.423-8.049.668a.502.502 0 0 0-.162.047 9.662 9.662 0 0 1 .04-1.266m25.988-3.417c2.555-.22 4.964.188 7.486.545 1.397.198 2.801.319 4.212.347 1.413.029 2.787-.556 2.833 1.222.003.122.05.214.11.29a572.136 572.136 0 0 0-31.422 1.486c.346-.791 2.52-1.538 3.211-1.67.586-.11 1.228-.086 1.824-.155a43.411 43.411 0 0 0 3.306-.534c2.803-.542 5.586-1.286 8.44-1.531m-11.525 53.61c-.404.013-.808.018-1.212.03-.642.023-.645 1.023 0 1a938.339 938.339 0 0 1 53.867-.227c.643.016.643-.984 0-1-.743-.018-1.487-.023-2.23-.04.168-1.388.31-2.778.434-4.171 5.61 3.232 11.084 6.498 16.464 10.07-14.67.405-29.349.532-44.025.35-7.257-.09-14.51-.372-21.768-.452-4.595-.05-9.175.187-13.56 1.385 4.164-2.89 8.358-5.742 12.302-8.927-.086.624-.17 1.249-.275 1.873-.006.039.002.072.003.109m41.437-44.312c.201 3.3.295 6.603.28 9.91 0 .246.232.536.5.5 3.08-.401 6.702-.428 9.446-2.076-1.945 4.808-1.574 9.968-1.373 15.093.271 6.895-.035 13.784-.863 20.632a937.95 937.95 0 0 0-48.439.228c.16-.97.295-1.94.413-2.91a.386.386 0 0 0 .04-.371c1.484-12.756-.325-25.633.54-38.436 13.152-.856 26.304-1.711 39.456-2.57m9.657 7.509c-2.449 1.423-5.602 1.524-8.384 1.846.003-3.088-.084-6.172-.269-9.253 3.565 1.369 5.293 5.549 8.653 7.407m.333 9.075c7.98.805 15.887-1.155 23.856-.586 3.603.258 7.141 1.019 10.761 1.12 3.803.105 7.577-.321 11.302-1.062.026-.006.042-.02.066-.027-.079.957-.143 1.916-.197 2.875a626.52 626.52 0 0 1-13.216-.296c-.643-.021-.642.979 0 1 4.387.146 8.774.24 13.163.295a98.988 98.988 0 0 0-.092 2.726c-8.034-.43-16.115-.803-24.16-.68-3.68.057-7.256.698-10.9 1.115-3.557.406-7.139.506-10.716.605-.1-2.402-.252-4.833-.175-7.232a.51.51 0 0 0 .308.147m17.771 71.784c.048-2.29.112-4.581.2-6.874 9.384.37 18.77.246 28.14-.377l.21 6.069c-9.489.257-18.973.642-28.452 1.156-.038.002-.065.017-.098.026m28.672 2.323a149.347 149.347 0 0 1-3.605-.24c-.162-.012-.334.103-.429.254-8.147.253-16.29.619-24.425 1.11a.485.485 0 0 0-.279.11c.013-.867.028-1.734.045-2.601.04.008.073.02.12.018 9.49-.515 18.986-.901 28.486-1.157.03.835.058 1.67.087 2.506m6.194 1.219c4.182.068 8.364-.01 12.542-.207-.056.125-.118.246-.17.37-.763 1.829-.929 3.398-3.092 3.92-1.142.275-2.31.355-3.374.86a535.577 535.577 0 0 0-19.91 1.844.572.572 0 0 0-.107-.38c.248-.001.516-.16.556-.474.25-1.96 5.278-1.993 6.426-1.99 2.2.004 4.262.448 6.316 1.2.605.222.866-.744.266-.963-2.778-1.018-5.662-1.431-8.593-1.118-.003-.618-.267-2.966-.05-3.202.485-.524 1.97-.13 2.687-.09 2.165.124 4.334.196 6.503.23m2.574-2.673c1.65-.318 3.371-.393 5.044-.511 2.761-.196 5.525-.328 8.287-.511-.428.123-.835.282-1.19.537-.7.502-1.222 1.187-1.65 1.929-3.978.198-7.965.289-11.95.246.465-.918.193-1.445 1.46-1.69m17.433-1.683c.274-.332.101-.834-.354-.853-.36-1.131.006-1.875 1.098-2.231.78-.687 1.494-.652 2.146.109 1.408.876.693.718.972 2.06.185.888.521 1.478 1.286 1.957.964.604 2.022.365 3.066.55 3.4.608 3.043 3.479 3.364 6.186a.514.514 0 0 0 .096.238c-6.93.179-13.856.489-20.772.936a3.065 3.065 0 0 0 1.521-1.49c1.1-2.262 1.126-4.98 3.931-5.991 1.377-.496 2.645-.258 3.646-1.471m-34.635 10.56c-3.383.667-6.796-.02-10.205-.051-3.316-.03-6.62.267-9.92.562a.503.503 0 0 0-.234.083c.005-1.992.021-3.984.045-5.976.076.053.166.09.288.083a835.855 835.855 0 0 1 24.42-1.11c.104 1.06.146 2.11.096 3.183a369.873 369.873 0 0 0-22.785-.203c-.643.015-.645 1.015 0 1a370.35 370.35 0 0 1 19.914.11c-.802.382-1.412.986-1.547 2.048a.412.412 0 0 0 .055.27c-.04 0-.08-.008-.127 0m-20.248 12.31a315.81 315.81 0 0 1 17.348-.78.522.522 0 0 0 .221-.053c.063.812.111 1.625.146 2.439a41.577 41.577 0 0 0-9.694.04c-.63.077-.638 1.078 0 1a41.53 41.53 0 0 1 9.733-.036c.02.65.031 1.303.036 1.955a122.85 122.85 0 0 0-16.603.363c-.635.058-.64 1.059 0 1a122.91 122.91 0 0 1 16.607-.363 126.596 126.596 0 0 1-.272 7.535.542.542 0 0 0-.174-.04 275.2 275.2 0 0 0-17.428.219c.04-.972.066-1.945.061-2.921-.015-3.461-.043-6.916-.064-10.37.028.003.052.014.083.012m-159.495-8.835c-2.282.41-4.079 1.824-6.406 2.136-.134.019-.265.034-.396.05-.34-2.25.784-2.692 2.665-3.028 1.217-.22 2.435-.472 3.657-.65 1.851-.27 3.162-.144 4.954.343.667.18 1.156.344 1.712.418-2.056.224-4.155.364-6.186.73m176.598-1.48c-.152-.625-1.117-.361-.963.266.672 2.758 1.098 5.525 1.351 8.298-.046-.013-.089-.03-.143-.027-5.79.1-11.573.36-17.348.779-.033.002-.059.016-.089.024a1300.28 1300.28 0 0 1-.022-5.227c.005 0 .01.002.016 0 5.07-.691 10.271-.863 15.376-1.17.64-.04.644-1.04 0-1-5.114.307-10.313.5-15.394 1.179a738.181 738.181 0 0 1 0-3.645.447.447 0 0 0 .235.04c3.612-.322 7.235-.648 10.866-.544 2.188.063 4.345.324 6.506.289-.116.308.024.7.435.654a535.71 535.71 0 0 1 22.65-2.155c.123.054.27.058.421-.028.004 0 .007-.002.01-.004a536.05 536.05 0 0 1 28.652-1.346c.643-.013.646-1.013 0-1-.74.015-1.48.04-2.223.058.022-.062.033-.132.022-.216-.227-1.906.234-5.733-1.777-6.805-2.265-1.208-5.14.762-5.97-2.652-.223-.916.141-1.836-.678-2.571-1.466-1.312-4.318.234-5.364 1.416-.643.728-.849 1.684-.472 2.315-4.267.344-8.548.476-12.81.855-1.245.11-2.81.104-3.997.55-1.324.499-.71 1.039-1.342 2.136a.454.454 0 0 0-.053.338c-1.773-.03-3.545-.086-5.316-.172l-.704-20.264c-.235-6.79-.74-13.71.39-20.45.461-2.753 1.776-5.458 2.02-8.22.256-2.94-1.775-5.434-2.1-8.333-.365-3.253-.492-6.548-.45-9.844.346-.146.348-.698.014-.894.022-.985.061-1.971.111-2.955a.54.54 0 0 0 .04-.687c.12-2.111.295-4.214.521-6.3.07-.638-.93-.633-1 0-.086.793-.163 1.586-.233 2.38a.496.496 0 0 0-.4-.084c-3.946.786-7.947 1.19-11.97.99-3.629-.18-7.192-.978-10.82-1.14-7.13-.316-14.19 1.187-21.318.764a.508.508 0 0 0-.213-.055l-1.332-.066a.454.454 0 0 0-.273.072c.051-.924.141-1.844.285-2.753 3.355.14 6.573.755 9.601-.86 4.203-2.242 9.163-.961 13.615.03 3.463.773 6.925 2.384 10.518 1.7 2.108-.401 4.121-1.13 6.254-1.457 2.487-.381 4.985-.443 7.494-.307.643.037.641-.963 0-1-4.246-.232-8.236.299-12.334 1.37-4.69 1.226-8.884-.752-13.478-1.647-3.216-.626-7.22-1.634-10.443-.602-1.806.578-3.085 1.947-5.082 2.005-1.976.058-3.987-.135-5.965-.223a17.605 17.605 0 0 1 1.33-4.033c.017-.04.02-.077.028-.116a.369.369 0 0 0 .01-.04c.004-.028.01-.057.01-.087.015-.213-.08-.434-.34-.517-4.692-1.49-6.12-7.483-11.202-8.338a.515.515 0 0 0-.54.254c-2.488.162-4.978.323-7.466.486a.517.517 0 0 0 .093-.576 8.134 8.134 0 0 1-.572-4.906c.002-.012-.002-.022 0-.033.622-.027.62-1.001-.018-.997-1.994.016-3.986.04-5.977.079a.455.455 0 0 0 .081-.272c-.016-.605-.03-1.211-.047-1.815-.007-.257-.223-.52-.5-.5-3.558.23-6.867-.266-10.385-.712-1.955-.25-3.884-.176-5.805.064a.555.555 0 0 0 0-.226c-.224-.99-.205-2.411-1.363-2.743-.499-.142-1.13.135-1.587.264-1.329.375-2.642.774-3.989 1.085-5.345 1.236-10.822 1.606-16.29 1.243a.413.413 0 0 0-.403.203c.025-.155.052-.311.066-.47.13-1.45-.147-2.91-.423-4.325-.347-1.772-.833-3.597-.467-5.401.33-1.63 1.562-2.774 1.986-4.344.341-1.261-.156-2.397-.328-3.64-.26-1.878.438-3.638.532-5.5.074-1.47-.274-2.585-1.038-3.823-.364-.588-.682-1.131-.906-1.705a.5.5 0 0 0-.107-.31 4.671 4.671 0 0 1-.225-1.698c.038-.793.246-1.565.275-2.36.157-4.133-2.523-8.327-.63-12.33.274-.58-.589-1.088-.864-.505-1.179 2.493-.81 4.997-.256 7.614.363 1.715.815 3.454.75 5.22-.048 1.346-.47 2.626-.246 3.93a684.11 684.11 0 0 1-40.69.608c-.644-.01-.645.99 0 1a683.57 683.57 0 0 0 41-.62c.642 1.448 1.816 2.458 1.955 4.195.065.818-.065 1.632-.224 2.445-.033-.005-.06-.018-.098-.016a1336.103 1336.103 0 0 1-61.405 1.23.46.46 0 0 0-.359.153c.116-2.223.307-4.44.565-6.65.035.003.066.013.106.007a59.213 59.213 0 0 1 15.447-.048c.637.08.631-.92 0-1a59.28 59.28 0 0 0-15.433.046c.294-2.324.66-4.638 1.113-6.94.14-.714.275-1.415.407-2.112.022.004.04.014.064.015 9.552.198 19.086.624 28.606 1.44 9.436.809 18.618-.583 27.98-1.661.632-.074.64-1.074 0-1-9.362 1.078-18.544 2.47-27.98 1.662-9.48-.814-18.976-1.238-28.488-1.44.35-1.934.628-3.83.777-5.77 17.77.793 35.754 2.157 53.391-.86.633-.107.365-1.07-.266-.962-17.518 2.995-35.408 1.615-53.058.826.032-.635.044-1.281.042-1.932a693.117 693.117 0 0 0 51.61-1.616c.637-.044.641-1.044 0-1a693.51 693.51 0 0 1-51.624 1.616c-.002-.07 0-.137-.002-.206-.026-.642-1.026-.644-1 0 .2 5.23-.969 9.942-1.854 15.053a106.031 106.031 0 0 0-1.462 13.712c-.395 9.636.566 19.27 2.75 28.66.146.626 1.111.36.964-.267a104.096 104.096 0 0 1-.69-3.22c5.382-.481 10.752-.12 16.133.195 5.39.314 10.701.265 16.087-.105.64-.044.644-1.045 0-1-5.387.37-10.696.419-16.087.105-5.386-.315-10.76-.677-16.148-.193a.533.533 0 0 0-.17.05 107.335 107.335 0 0 1-1.085-6.754 301.733 301.733 0 0 1 26.546.499c.643.04.641-.96 0-1a301.875 301.875 0 0 0-26.569-.498c-.033 0-.055.014-.083.019a104.642 104.642 0 0 1-.618-17.026.447.447 0 0 0 .388.203c20.443.06 40.884-.35 61.308-1.227-.142.723-.257 1.447-.235 2.179.06 1.832.92 3.36-.044 5.144-.629 1.166-1.31 2.102-1.543 3.44-.327 1.889.12 3.74.5 5.598a274.48 274.48 0 0 0-29.607 1.7c-.632.07-.64 1.07 0 1a274.346 274.346 0 0 1 29.792-1.702c.184 1.038.31 2.079.211 3.13-.116 1.25-.627 2.39-.966 3.578-.486.048-.555.688-.209.91-.024.134-.05.267-.065.404-.189 1.677.306 3.316.75 4.912a57.1 57.1 0 0 0 .64 2.113.47.47 0 0 0-.249-.07c-9.75.018-19.498.077-29.219.908a98.348 98.348 0 0 1-13.753.233c-4.339-.231-8.637-.36-12.894.664-.626.15-.36 1.115.266.965 4.486-1.08 8.99-.82 13.553-.58 4.65.248 9.162.02 13.798-.364 9.397-.781 18.827-.81 28.25-.826a.454.454 0 0 0 .446-.305c.952 2.955 2.002 6.059 2.091 9.019.03.919-.086 1.813-.277 2.694-19.02.485-38.044.968-57.066 1.45-.643.018-.645 1.018 0 1 18.937-.48 37.873-.961 56.81-1.444-.445 1.6-1.074 3.17-1.539 4.772.094-.293-.056-.67-.454-.664-4.49.083-8.717.833-13.124 1.549-2.629.427-4.1-1.348-6.524-1.493-2.136-.127-4.188.82-6.34.732-4.592-.19-9.13.135-13.73.033-4.705-.105-9.375-.323-14.045.393-.634.098-.365 1.062.266.965 5.061-.777 10.134-.385 15.225-.332 2.214.024 4.396-.104 6.603-.241 2.205-.136 4.346.26 6.535.194 2.621-.08 4.893-1.34 7.471-.113 1.414.672 2.204 1.13 3.872.979 1.817-.166 3.636-.728 5.444-1 2.767-.417 5.55-.614 8.347-.666a.463.463 0 0 0 .45-.32c-.239.825-.436 1.657-.537 2.509-.197 1.669-.124 3.328.071 4.98a.477.477 0 0 0-.218-.05 811.723 811.723 0 0 0-54.469 1.244c-.64.037-.645 1.037 0 1a811.723 811.723 0 0 1 54.47-1.244.456.456 0 0 0 .327-.127c.317 2.23.82 4.449 1.181 6.657.46 2.8.641 5.604.565 8.405-.032-.004-.06-.015-.097-.013-18.004.978-35.998 2.119-53.994 3.222-.64.039-.644 1.039 0 1 17.996-1.103 35.99-2.244 53.994-3.222.022-.002.037-.012.057-.015a46.06 46.06 0 0 1-.805 6.63c-.056.289.117.495.332.58-.81.562-1.617 1.129-2.42 1.699l-.188.076c-.044-.203-.194-.38-.463-.38a557.76 557.76 0 0 0-52.339 2.578c.075-1.32.15-2.637.232-3.954.041-.642-.959-.64-1 0-.294 4.67-.514 9.346-.654 14.024-2.982.33-5.887 1.278-8.888 1.583-.336.034-.553.29-.483.633l.392 1.887a.421.421 0 0 0 .39.358c-.617.1-1.229.213-1.828.355-2.282.542-1.785 1.426-.962 3.247a.415.415 0 0 0 .211.214c-.1.125-.159.302-.099.445l.738 1.766c.245.586 1.213.328.965-.266-.504-1.204-.55-1.667 1.004-1.698 1.028-.02 2.048.095 3.081.044 1.825-.092 3.592-.457 5.327-1.013-.004.629.006 1.255.02 1.88-5.416.825-10.83 1.648-16.246 2.47-.268.042-.412.38-.348.616.737 2.763 1.231 5.563 1.386 8.422.114 2.102-.359 4.445.071 6.502.187.896.71 1.449 1.116 2.242.92 1.792.777 3.323.456 5.273-.008.048-.019.096-.026.144-1.887-.03-3.58-1.081-5.548-.987-2.024.098-4.046.605-6.034.962-2.765.494-3.322 1.26-2.92 4.026-2.24.267-3.864.617-3.96 3.549-.02.645.98.643 1 0 .11-3.342 5.07-2.443 7.381-3.486 1.64-.74 2.902-1.3 4.747-1.535 1.658-.211 3.323-.387 4.984-.578-.355 1.953-.729 3.9-1.086 5.853-.887 4.848-1.634 9.758-1.445 14.7.193 5.077 1.277 10.068 2.35 15.017a.431.431 0 0 0 .15.246c-4.768.24-9.534.216-14.367-.13-7.87-.56-15.745-1.27-23.554.253-.63.123-.364 1.088.265.965 8.034-1.566 16.145-.7 24.234-.151 8.124.553 16.083.15 24.15-.92a.523.523 0 0 0 .205-.07c-.075 1.813-.169 3.623-.229 5.436-.015.453.473.58.773.394a.423.423 0 0 0 .418.237c9.876-.47 19.702.656 29.564.939 4.956.143 9.913.02 14.866-.186 2.482-.103 4.965-.226 7.448-.342 1.323-.062 2.648-.124 3.973-.18 1.061-.042 2.843-.478 3.773.185.042.029.083.039.125.054.054.85.104 1.699.165 2.547-20.537 2.116-41.116-.397-61.676-.65-.644-.008-.644.992 0 1 20.586.254 41.191 2.773 61.752.643a356.68 356.68 0 0 0 1.3 13.844c.072.632 1.072.64 1 0-1.525-13.4-2.297-26.874-2.258-40.36.016-5.414.456-10.992.655-16.565.376-.16.387-.75.027-.914.212-6.942-.007-13.863-1.952-20.44 10.67-.407 21.341-.71 32.014-.968a.445.445 0 0 0-.288.439c.121 14.543-.048 29.086-.508 43.623-.02.643.98.643 1 0 .46-14.537.63-29.08.508-43.623a.46.46 0 0 0-.314-.45l6.43-.15c-.01.034-.028.063-.03.1-.555 6.416-1.412 12.889-1.528 19.33-.117 6.465 1.986 12.799 1.157 19.263-.082.637.92.63 1 0 .83-6.464-1.263-12.8-1.157-19.262.107-6.441.973-12.916 1.527-19.33.004-.046-.008-.083-.014-.123l2.413-.054c-.019.049-.038.097-.042.157a424.47 424.47 0 0 0-.48 43.088c.025.642 1.025.645 1 0a424.47 424.47 0 0 1 .48-43.088.498.498 0 0 0-.025-.178l1.993-.044a246.756 246.756 0 0 0 2.097 45.794c.09.635 1.053.365.965-.265a245.26 245.26 0 0 1-2.06-45.551l2.823-.063a.493.493 0 0 0-.023.212c1.237 12.676-1.434 25.317-.57 38 .044.639 1.044.644 1 0-.864-12.683 1.807-25.324.57-38a.503.503 0 0 0-.083-.231l3.154-.07c-.012.042-.029.08-.03.13l-1.106 44.143c-.017.644.983.643 1 0l1.106-44.142c.001-.057-.013-.103-.027-.151.878-.02 1.757-.037 2.635-.057a.526.526 0 0 0-.059.194c-1.354 14.147 1.496 28.216 1.296 42.365-.009.644.991.644 1 0 .2-14.15-2.65-28.218-1.296-42.365a.465.465 0 0 0-.024-.213l1.784-.04.48 34.164c.008.643 1.008.645 1 0l-.48-34.186 1.366-.03a.404.404 0 0 0-.106.346 161.622 161.622 0 0 1 .04 37.525c-.074.639.926.633 1 0a161.622 161.622 0 0 0-.04-37.525.517.517 0 0 0-.208-.362 4322.61 4322.61 0 0 0 19.384-.467c-.523 13.243-.31 26.407-.24 39.65.034 6.458-1.048 12.783-1.533 19.204a131.576 131.576 0 0 0-.296 5.648.506.506 0 0 0-.143-.087c-1.332-.497-1.432-2.315-2.87-2.785-1.16-.38-1.619.22-2.616-.788-.769-.78-.628-1.213-1.038-2.108-.064-.142-.276-.27-.43-.248-2.819.368-5.5.2-8.253-.538-.286-.076-.51.098-.616.349a16.18 16.18 0 0 0-.777 2.41c-.13-.01-.26-.02-.414-.007a3.105 3.105 0 0 0-.638.125 8.485 8.485 0 0 0-2.845-1.325l.623-2.971c.34-1.616.257-2.093 1.98-2.264 1.591-.157 3.034-.702 4.383-1.511a13.623 13.623 0 0 0 2.545 4.069c.432.478 1.138-.231.707-.707-.178-.197-.334-.401-.496-.602.812-.396 1.693-.417 2.581.039.358.185.887-.127.734-.564-.244-.7-.887-1.81-.886-2.543-.379-.495-.419-.701-.12-.617l1.194-.198 5.965-.99c.632-.105.364-1.07-.266-.965l-4.773.792c-.768.128-2.234.059-2.86.575-.805.663-.17 2.122.35 3.233-.862-.174-1.709-.042-2.525.419a12.276 12.276 0 0 1-1.428-2.796c-.103-.285-.447-.488-.735-.3-1.266.837-2.6 1.409-4.108 1.618-.686.095-1.783-.097-2.384.403-.436.363-.465 1.027-.592 1.547-.334 1.363-.586 2.75-.869 4.128-.07-.012-.136-.033-.207-.044-.869-.134-1.959.08-2.299-.67-.418-.924.45-3.577.58-4.6.04-.315-.353-.58-.633-.482-3.743 1.295-7.426-.477-11.218-.175-1.33.106-2.242.868-3.437 1.106-1.607.322-1.756-.654-1.988-1.705a.511.511 0 0 0 .441.148c1.971-.286 3.941-.574 5.911-.856 1.225-.175 2.791-.622 4.012-.288.644.177 1.116.639 1.732.84 2.235.726 3.835-.491 5.393-2.018a.463.463 0 0 0 .125-.211c1.12-.8 2.174-1.833 3.621-1.642.805.106 1.403.392 2.243.336.82-.057 1.433-.385 2.172-.652.817-.294.39-.485 1.466-.486 1.115-.001.88.22 1.684.852.898.704 1.187.7 2.174.282 2.993-1.274 5.495-1.58 8.767-1.424.644.03.643-.97 0-1-2.349-.111-4.826-.23-7.096.52-1.419.467-2.056 1.44-3.589.477-.554-.348-.894-.995-1.6-1.11-.55-.088-.877.084-1.346.32-1.549.779-2.433 1.354-4.278 1.027-.605-.106-.982-.453-1.62-.334-1.057.196-2.41 1.5-3.256 2.08a.49.49 0 0 0-.195.279c-.637.624-1.299 1.279-2.129 1.633-1.196.508-2.165-.081-3.289-.445-.895-.29-1.447-.434-2.379-.401-2.904.102-5.913.84-8.788 1.257a.386.386 0 0 0-.325.236c-.109-.358-.26-.7-.522-.97-.869-.9-1.963-.51-3.066-.277-2.213.47-4.722.702-6.83 1.488-.73.273-1.01.376-1.36 1.079-.866 1.739-.793 4.666-1.109 6.588a.503.503 0 0 0 .06.327c-1.049-.116-2.183-.377-2.778-1.178-.403-.543-.49-1.633-.702-2.305-.246-.78-.346-1.508-1.078-1.936-.874-.511-2.299-.37-3.245-.456l-5.933-.54c-.64-.056-.637.944 0 1l5.477.498c.98.09 2.867.087 3.58.93.471.558.59 1.983.82 2.69.747 2.289 2.9 2.247 5.083 2.397.643.044.64-.956 0-1a16.722 16.722 0 0 0-.372-.024c.02-.042.043-.082.053-.137.29-1.761.327-4.02.936-5.697.693-1.91 3.878-1.935 5.712-2.334 1.383-.301 3.477-1.106 4.498.672.186.324.16.904.313 1.274.257.629.656 1.356 1.378 1.54.96.244 1.527-.441 2.324-.834 1.604-.79 3.424-.697 5.147-.505 2.695.3 5.311.898 7.952.227l-.609 4.839c-.034.277.258.487.5.5 2.04.103 4.072.262 5.817 1.266-.758.362-1.507.816-2.049 1.115-1.493.828-1.497 1.074-2.74-.155-.904-.894-1.633-2.113-2.412-3.12-.143-.187-.42-.161-.605-.077a28.833 28.833 0 0 1-5.95 1.923c-.41.085-.433.565-.222.836a17.53 17.53 0 0 1 2.566 4.536c.231.593 1.2.336.965-.266a19.335 19.335 0 0 0-2.335-4.301 25.354 25.354 0 0 0 1.951-.5c.596-.181 2.058-1.028 2.635-.965 1.486.16 3.057 3.102 3.905 4.2.128.165.44.189.607.078 1.18-.783 3.192-2.303 4.821-2.523.19.119.396.093.554-.014.18.013.351.04.514.1 1.194.435 1.473 1.613 2.607 2.243 2.017 1.122 4.257.212 6.134-.788.177 1.402.453 2.779.917 4.12.743 2.149 2.31 4.202 1.656 6.588-.17.62.794.887.964.266.423-1.541.12-2.728-.446-4.217-.978-2.57-1.908-4.777-2.187-7.547-.037-.371-.397-.63-.752-.431-1.258.7-2.602 1.51-4.093 1.515-1.806.004-2.38-1.308-3.413-2.43a2.968 2.968 0 0 0-.464-.413c.166-.692.376-1.36.63-2.023 2.102.484 4.064.396 6.197.667.654-.26 1.193-.118 1.618.426a2.145 2.145 0 0 0-.01.766c.242.56.064.598.41 1.009.792.946 1.742.45 2.765.629 2.008.348 2.13 2.249 3.778 2.863a.41.41 0 0 0 .387-.03c-.129 4.756-.056 9.517.022 14.273.011.642 1.011.644 1 0-.107-6.538-.204-13.087.227-19.616.008 0 .014.006.022.006l.19.01c.021.003.041.016.062.016 5.872-.017 11.724-.307 17.575-.785-.33 5.507-.405 11.012.275 16.499.078.63 1.08.638 1 0-2.34-18.914 4.172-38.023-.4-56.773m-90.918 72.745c-3.067-.241-6.138-.482-9.19-.884-2.06-.271-7.058-.394-8.705-2.101 2.15-1.505 4.453-2.627 6.992-3.352.617-.176.355-1.142-.266-.965a23.839 23.839 0 0 0-7.698 3.766c-.216.158-.331.433-.18.684 1.386 2.302 5.448 2.32 7.817 2.685 3.722.573 7.479.872 11.23 1.167.644.05.64-.95 0-1m82.255 1.008c-25.717 3.145-51.598 6.245-77.543 4.518-.644-.042-.642.958 0 1 25.945 1.727 51.826-1.373 77.543-4.518.63-.077.639-1.078 0-1m1.422-10.179c-.617-.187-.88.777-.266.964l-.997 2.177c-.384.093-.77.174-1.159.245a78.45 78.45 0 0 1-2.354.43c-1.684.288-3.374.535-5.069.75-2.843.361-5.7.625-8.559.827-6.059.424-12.133.552-18.204.64-11.718.172-23.45.238-35.079 1.866-.634.09-.365 1.052.266.964 14.878-2.082 29.916-1.535 44.89-2.056 7.051-.245 14.106-.74 21.077-1.87 1.818-.295 5.367-.26 6.51-2.083.72-1.155.177-2.48-1.056-2.854m43.251-2.887c-3.95-.015-7.89.16-11.825.525-.636.06-.642 1.06 0 1 3.934-.365 7.874-.54 11.825-.526.645.003.645-.997 0-1"/><path fill="#071F2C" d="M271.6 247.15c1.013-.477 2.089-.738 3.19-.897.635-.09.365-1.053-.265-.963-1.743.25-6.28 1.31-5.625 3.956.222.892 1.069 1.357 1.862 1.663 1.81.698 3.74 1.177 5.61 1.68.624.168.889-.796.267-.964-1.864-.502-3.816-.958-5.61-1.68-.877-.352-1.22-1.398-.513-2.135.29-.305.709-.483 1.085-.66m62.969 9.986c-22.696.685-45.4-.987-67.749-5.007-.629-.112-.899.852-.266.965a328.417 328.417 0 0 0 68.015 5.042c.643-.02.645-1.02 0-1m-13.921-4.099c.644.008.644-.992 0-1a444.216 444.216 0 0 1-38.868-2.217c-.64-.065-.637.936 0 1a444.216 444.216 0 0 0 38.868 2.217M274.35 141.09c.23-1.154.994-2.802.08-3.8-.891-.971-3.008-.616-4.108-.375-5.516 1.207-10.98 3.486-16.354 5.218-.61.197-.35 1.162.266.965 3.377-1.09 6.754-2.178 10.13-3.266 1.496-.482 2.985-.983 4.486-1.447a60.26 60.26 0 0 0 3.276 5.192c.369.523 1.236.023.864-.505a59.71 59.71 0 0 1-3.165-5.005c.818-.266 1.859-.567 2.275-.391 1.53.647 1.547 1.838 1.287 3.148-.125.629.838.899.964.266m-20.796-1.381a225.306 225.306 0 0 0-14.85-37.442c-.29-.576-1.152-.07-.863.504a223.928 223.928 0 0 1 14.749 37.204c.183.615 1.148.353.964-.266m-14.039-38.094c4.007-1.725 8.31-1.55 12.576-1.769 2.235-.114 4.52-.53 6.752-.163 2.157.356 4.15 1.356 6.092 2.31.576.281 1.083-.58.505-.864-1.902-.934-3.837-1.893-5.925-2.325-2.466-.509-4.942-.085-7.424.042-4.472.23-8.89.101-13.08 1.905-.59.254-.081 1.115.504.864m35.394 33.682a794.198 794.198 0 0 1-9.832-30.45c-.185-.615-1.15-.353-.964.265a791.926 791.926 0 0 0 9.832 30.45c.21.605 1.175.345.964-.265m-51.511-81.184c5.16.528 10.33.753 15.51.691-.323.34-.064 1.034.459.834a99.99 99.99 0 0 0 2.267-.906c.584-.018 1.168-.019 1.752-.046.476-.02.599-.579.365-.852 14.015-6.1 26.55-15.2 36.663-26.713.422-.482-.281-1.192-.707-.707a103.103 103.103 0 0 1-38.263 27.324 136.36 136.36 0 0 1-15.302-.395c12.65-4.47 23.411-13.267 30.285-24.814 8.53-.96 17.257-.39 25.498-3.169.608-.204.346-1.17-.265-.964-8.087 2.727-16.659 2.227-25.046 3.12-.21-.208-.591-.257-.784.074l-.007.012a54.252 54.252 0 0 0-4.167.638c-.63.125-.364 1.088.266.965a53.128 53.128 0 0 1 3.236-.52c-7.042 11.464-18.005 20.112-30.838 24.235a.475.475 0 0 0-.292.247c-.21-.02-.42-.033-.63-.054-.64-.064-.636.936 0 1M350.55 61.94l15.845-8.798c.562-.313.059-1.178-.504-.864-5.282 2.933-10.564 5.864-15.845 8.799-.562.312-.058 1.175.505.863m14.814-6.957c13.021 4.42 26.582 6.9 40.315 7.43a60.584 60.584 0 0 1-21.209 12.434A106.78 106.78 0 0 1 351.9 63.29c-.564-.312-1.069.551-.505.863a107.578 107.578 0 0 0 32.432 11.583c.097.178.284.294.535.211.065-.022.125-.047.19-.068.121.021.24.048.361.07.324.056.55-.172.61-.42 7.99-2.824 15.272-7.196 21.5-12.967.03-.026.04-.056.06-.084l.032.002c.644.018.644-.982 0-1a141.492 141.492 0 0 1-41.483-7.46c-.612-.209-.873.757-.266.963m-8.844 166.365c.875-12.61.678-25.25-.592-37.825-.065-.634-1.065-.641-1 0a222.558 222.558 0 0 1 .591 37.825c-.043.643.957.64 1 0m-3.551-3.924a452.425 452.425 0 0 0-.076-33.9c-.026-.642-1.027-.645-1 0 .449 11.296.475 22.6.077 33.9-.022.644.978.643 1 0m7.735-10.774c-.42-7.705-.768-15.412-1.038-23.124-.023-.642-1.023-.645-1 0 .27 7.712.617 15.42 1.038 23.124.035.641 1.035.645 1 0m2.572 4.737l.173-28.116c.004-.644-.996-.645-1 0l-.173 28.116c-.004.645.996.645 1 0m-2.996 17.082a345.93 345.93 0 0 0-.122-18.136c-.022-.641-1.022-.644-1 0 .2 6.044.24 12.09.122 18.136-.013.645.987.645 1 0m6.444-6.043l-.2-39.158c-.002-.643-1.002-.645-1 0l.2 39.158c.003.645 1.003.646 1 0m2.194-39.414a1005.07 1005.07 0 0 0 .34 41.78c.019.642 1.019.645 1 0a1001.612 1001.612 0 0 1-.34-41.78c.009-.644-.991-.645-1 0m7.32 29.424a545.86 545.86 0 0 0 .336-29.43c-.01-.642-1.01-.644-1 0a545.86 545.86 0 0 1-.337 29.43c-.024.644.976.643 1 0M358.87 240.33c-.919.79-2.163 1.717-3.409 1.884-1.379.184-1.896-.47-2.818-1.073-.759-.499-1.098-1.113-2.118-.983-2.5.32-2.515 3.748-3.556 5.36-.35.541.514 1.042.863.503.726-1.123.71-2.906 1.547-3.858 2.025-2.302 2.777.58 4.192 1.088 1.657.595 3.65-.43 5.11-1.5-.138 2.058-.45 5.331 1.501 5.87 1.201.334 2.56-.375 3.707-.614 3.546-.738 3.084 2.091 4.62 3.934 1.025 1.235 1.768.534 2.561-.42.125-.896.608-1.592 1.45-2.087a5.74 5.74 0 0 1 1.412-.1c.924-.019 1.838.11 2.768.057.8-.045 1.158-.153 1.952-.235 1.323-.135 1.734.182 2.247.967-.079-.019-.158-.022-.236-.045-.616-.19-.88.774-.267.964.48.147.928.2 1.366.188a.503.503 0 0 0 .255-.018c.665-.056 1.318-.244 2.03-.474 2.324-.748 4.45-.735 6.654.408.57.295 1.076-.567.504-.863-1.45-.752-2.98-1.194-4.63-1.103-1.472.08-2.974.88-4.449 1.025l-1.396-2.223a.51.51 0 0 0-.564-.229c-1.867.523-3.678.667-5.608.608-.917-.027-1.986-.129-2.843.3a1.908 1.908 0 0 0-.614.458 16.345 16.345 0 0 1-.446-6.432c1.462.825 3.432 2.17 4.874 2.094 1.45-.074 1.82-2.094 2.163-3.367.638.24 1.187.682 1.863.805.771.14 1.61-.164 2.325-.379 2.318-.694 4.502-1.74 6.57-2.989.55-.332.048-1.197-.505-.863-1.745 1.053-3.555 1.95-5.486 2.615-1.867.645-3.187-.017-4.969-.293-.283-.044-.516.07-.615.35-.199.565-.335 1.332-.649 1.841l-.325.921c-.729.133-1.394.027-1.995-.315-1.156-.409-2.289-1.097-3.394-1.627-.26-.125-.678-.045-.735.3-.476 2.894-.287 5.647.61 8.427-.11.588-.139 1.264-1.36.641-.286-.147-.51-1.235-.679-1.597-.794-1.714-1.912-2.593-3.856-2.382-.995.107-2.835 1.151-3.756.81-1.587-.592-.984-4.714-1.012-5.995-.01-.455-.53-.63-.854-.354m49.168 13.752l.798-5.027c.144-.223.134-.528-.1-.657-.17-.185-.454-.248-.645-.126-1.167-.16-2.333-.323-3.5-.484-.722-.1-2.17-.603-2.906-.272-.512.23-.509.783-.583 1.278-.196 1.321-.362 2.647-.543 3.97-.086.63.877.902.964.266l.35-2.552c.057-.414.016-1.034.193-1.417.275-.594.012-.595.837-.505 1.636.177 3.27.44 4.9.674a3637.4 3637.4 0 0 0-.729 4.585c-.099.63.863.902.964.267"/><path fill="#071F2C" d="M379.2 252.422c1.614-.247 3.444-.943 4.58.596.737 1.002 1.211 2.013 2.566 2.139.64.06.636-.941 0-1-1.41-.131-1.833-2.466-3.14-3.01-.743-.307-1.564-.102-2.326.013-1.298.196-2.595.397-3.892.595-.21.032-.37.282-.367.482l.04 2.775c.01.642 1.01.644 1 0-.006-.372-.263-1.75-.03-2.081.354-.505 1.007-.423 1.57-.51M350.272 232.2c-.94 1.111-2.014 1.15-3.301 1.181a.505.505 0 0 0-.481.632c.413 1.563.558 3.094.455 4.706-.04.642.96.64 1 0a15.1 15.1 0 0 0-.356-4.363c1.178-.063 2.35-.27 3.195-1.178 1.094-1.178 1.344-2.395 3.315-1.94 1.793.412 1.992 1.893 2.562 3.423.221.598 1.188.34.964-.267a.21.21 0 0 1-.01-.03c.712.604 1.59.667 2.551.666 2.072-.004 4.06-.028 5.92 1.037.56.32 1.065-.544.505-.864-1.098-.629-2.243-.974-3.502-1.109-1.423-.153-4.012.474-5.051-.716-.233-.266-.543-.169-.713.048-.246-.873-.53-1.856-1.06-2.364-.652-.627-2.219-.968-3.078-.973-.85-.005-1.559.274-2.127.902-.327.362-.478.843-.788 1.208m-4.731 17.127c-.253.311-.831.561-1.075.807-.233.234-.455.317-.607.696-.691 1.736.808 5.32 1.348 6.92.205.604 1.171.345.964-.268-.387-1.145-.731-2.296-.971-3.483a23.573 23.573 0 0 1-.379-2.552c.118-.247.293-.374.525-.379.13-.186.525-.214.697-.429.574-.72.191-1.7 1.726-1.58.639.051 1.412 1.056 2.22 1.176.671.1 1.308-.058 1.963-.163 2.251-.358 4.49-1.036 6.672-1.683.615-.183.354-1.149-.266-.964a81.754 81.754 0 0 1-4.151 1.125c-.687.165-1.398.4-2.1.47-.597.176-1.2.133-1.808-.13-.813.093-1.487-.138-2.026-.694-1.005-.342-1.519-.449-2.328.294-.283.261-.145.521-.404.837"/><path fill="#071F2C" d="M360.254 260.33c-1.136-1.23-2.663-3.705-4.21-4.38-1.274-.559-3.08-.184-4.423-.158-3.413.067-4.621 2.184-6.357 4.907-.348.545.517 1.047.863.506.695-1.09 1.393-2.393 2.334-3.278 1.355-1.274 2.793-1.13 4.542-1.154 1.564-.02 2.436.045 3.63 1.106.95.844 1.787 1.896 2.644 2.855a9.544 9.544 0 0 0-.597-.102c-2.334-.316-4.68-.554-7.02-.826-.637-.075-.632.926 0 1 3.088.36 6.346.485 9.362 1.258.919.237 1.887.768 2.845.791.81.022 4.13-1.539 4.244.003.047.638 1.047.644 1 0-.211-2.853-3.29-1.31-4.94-1.214-1.271.077-2.584-.34-3.892-.677.13-.179.167-.428-.025-.637m19.636.725c.103-.762 4.215.577 4.795.646 1.952.229 4.047.3 5.999.016 2.599-.381 4.904-1.475 6.947-3.066l.376.819c.268.584 1.13.077.863-.505l-.62-1.35c-.143-.317-.562-.29-.784-.101-3.841 3.23-9.806 4.478-14.592 2.715-1.477-.543-3.667-1.542-3.984.826-.085.637.916.63 1 0m29.382-37.308a193.008 193.008 0 0 0-.976-41.743c-.084-.629-1.084-.637-1 0a193.008 193.008 0 0 1 .976 41.743c-.055.642.945.638 1 0m-58.645-61.765c-.016.644.984.644 1 0a94.923 94.923 0 0 0-.299-10.244c-.054-.637-1.054-.643-1 0 .284 3.41.384 6.822.299 10.244m58.061-2.39l2.627-.263c.635-.063.642-1.064 0-1l-2.627.263c-.635.063-.642 1.064 0 1m-6.308-.789h2.103c.643 0 .644-1 0-1h-2.102c-.645 0-.645 1 0 1m-6.045.263h.525c.644 0 .645-1 0-1h-.525c-.644 0-.645 1 0 1m-6.044 0h.263c.643 0 .644-1 0-1h-.263c-.644 0-.645 1 0 1m93.773 97.926c2.853.016 7.36.973 9.596-1.352.445-.463-.26-1.17-.707-.707-1.586 1.65-4.849 1.08-6.925 1.07-2.128-.013-4.255-.025-6.383-.036-4.094-.023-8.185-.045-12.276-.069l-25.045-.139c-.643-.004-.643.996 0 1l27.99.156 13.75.077m-23.081 2.785c-4.66-.007-9.303.211-13.94.653-.636.061-.642 1.062 0 1 4.637-.442 9.28-.66 13.94-.653.643 0 .644-1 0-1m37.516-2.994a120.184 120.184 0 0 1-28.97 9.088c-.632.113-.364 1.078.266.965a121.181 121.181 0 0 0 29.208-9.19c.584-.267.076-1.13-.505-.863m28.872-29.039c-.475-.548-.684-1.148-1.324-1.604-3.344-2.377-11.28 1.432-10.733-4.994.336-3.949-3.4-3.609-5.84-1.879-.899.636-1.718 1.416-2.703 1.924-1.43.738-2.893.58-4.39.328a.468.468 0 0 0 .098-.205c.334-1.505.591-3.02.732-4.558.1-1.079.49-2.886.02-3.903-.422-.909-1.587-.757-2.427-.827a83.602 83.602 0 0 0-5.296-.252 230.48 230.48 0 0 0-1.027-15.09c-.064-.635-1.065-.64-1 0a230.64 230.64 0 0 1-1.042 55.55c-.088.63.875.901.965.266a232.077 232.077 0 0 0 2.13-39.73c1.638 0 6.342-.362 6.812 1.107.271.847-.078 2.324-.168 3.198a34.206 34.206 0 0 1-.663 3.974.47.47 0 0 0 .045.33c-1.803-.31-3.388-.515-5.059.395-.566.31-.06 1.172.505.865 2.47-1.346 5.167.258 7.772.118 1.881-.1 3.212-1.14 4.671-2.227.436-.324.86-.667 1.331-.939 1.208-.696 1.173-.673 2.428.31 1.493 1.17.988.872.995 2.292.002.371.01.723.105 1.081.316 1.19 1.217 1.944 2.318 2.41 1.591.675 3.262.537 4.941.52 1.44-.015 3.226.006 4.322 1.103.681.682.824 1.742 1.518 2.416 1.342 1.304 3.793.814 5.475.816l9.568.014c.644 0 .645-1 0-1l-9.568-.014c-2.27-.003-3.934.026-5.51-1.795m-47.848-62.92c1.594 2.704 4.608 4.074 7.719 3.752 3.95-.41 6.892-3.509 8.569-6.895.284-.574-.577-1.082-.863-.503-1.377 2.778-3.565 5.376-6.685 6.2-3.012.794-6.28-.348-7.877-3.059-.327-.554-1.192-.052-.863.505m47.953 14.998c.644-.008.647-1.008 0-1-11.625.134-22.6-7.028-27.08-17.775-.243-.586-1.212-.329-.964.265 4.653 11.162 15.936 18.65 28.044 18.51m-9.978 8.557c-4.354.48-8.619-.762-12.367-2.928-.558-.322-1.062.54-.505.864 4.625 2.673 10.031 3.927 15.302 2.642 3.592-.876 9.959-3.873 9.676-8.333-.04-.64-1.041-.643-1 0 .295 4.656-7.501 7.357-11.106 7.755m-15.031-2.489c.562.315 1.067-.548.505-.862a84.863 84.863 0 0 1-22.686-18.43c-.423-.486-1.13.224-.707.707a85.662 85.662 0 0 0 22.888 18.586m-153.8-75.002c1.871.14 3.743.28 5.615.423.642.048.639-.952 0-1l-5.252-.396c-.381-1.11-.736-2.633.579-3.175 1.313-.542 3.027-.506 4.422-.493.644.007.644-.993 0-1a19.893 19.893 0 0 0-3.395.246c-.813.133-1.716.277-2.312.903-1.055 1.107-.6 2.86-.139 4.125a.527.527 0 0 0 .482.367m-94.632-6.489c2.437-.473 4.823-.225 7.126.69.598.236.857-.73.266-.965-2.47-.98-5.053-1.196-7.658-.689-.63.122-.364 1.087.266.964m6.308 3.125c.604.226.863-.74.266-.965a8.498 8.498 0 0 0-5.263-.238c-.62.167-.357 1.132.267.964 1.599-.43 3.18-.342 4.73.24m-1.998 3.624c.629-.348 1.305-.397 1.984-.175.614.2.877-.763.267-.963a3.427 3.427 0 0 0-2.755.275c-.564.31-.06 1.174.504.862m8.169-79.225a48.04 48.04 0 0 1-8.54-.771c-.63-.114-.898.85-.266.964 2.916.53 5.842.802 8.806.807.644 0 .645-1 0-1m-3.547 3.082c.629-.137.362-1.102-.266-.964a10.326 10.326 0 0 1-4.464.005c-.627-.137-.896.827-.266.965a11.58 11.58 0 0 0 4.996-.006m-5.388.859h-1.84c-.643 0-.644 1 0 1h1.84c.643 0 .645-1 0-1m-15.898 11.844c-.624-.155-.891.809-.266.965l1.05.263c.626.156.893-.808.268-.964l-1.052-.264zm4.21-2.389c-.63-.116-.9.848-.267.964l2.89.532c.63.115.899-.848.267-.965l-2.89-.53m6.168-1.046c-1.312-.176-2.627-.35-3.94-.525-.636-.085-.63.916 0 1l3.94.525c.638.085.63-.916 0-1m4.337-1.125c.632-.124.365-1.088-.265-.965-1.754.344-3.5.348-5.255.014-.627-.12-.897.843-.264.964a15.03 15.03 0 0 0 5.784-.013m125.371 27.906a102.226 102.226 0 0 0 15.87-7.19c.563-.315.06-1.18-.503-.864a100.767 100.767 0 0 1-15.633 7.09c-.602.213-.342 1.18.266.964m6.552-7.316a53.191 53.191 0 0 0-7.216 3.467c-.557.322-.055 1.185.505.863a51.345 51.345 0 0 1 6.976-3.365c.592-.233.335-1.2-.266-.965m-5.794.227l-5.517 1.845c-.607.203-.346 1.169.266.964l5.517-1.844c.607-.203.347-1.17-.266-.965m-4.717-.227l-2.892 1.051c-.6.22-.34 1.185.267.965.964-.35 1.927-.702 2.89-1.05.6-.22.34-1.187-.265-.966m-3.284-.281c-.644 0-.646 1 0 1 .644 0 .644-1 0-1m121.641 100.717c-1.567 2.562-3.81 4.504-6.553 5.722-.587.26-.079 1.122.505.864 2.893-1.285 5.261-3.384 6.911-6.082.337-.551-.528-1.053-.863-.504m-2.579 5.53c-.534.353-.034 1.22.505.863a12.673 12.673 0 0 0 4.105-4.398c.316-.562-.548-1.067-.863-.505a11.59 11.59 0 0 1-3.747 4.04m5.986-2.237c-1.674 1.389-3.35 2.778-5.023 4.168-.497.41.214 1.115.707.707l5.023-4.168c.496-.411-.215-1.115-.707-.707m-.574 3.096c-.788.613-1.576 1.227-2.365 1.839-.507.394.205 1.099.708.708l2.364-1.84c.508-.395-.204-1.099-.707-.707"/><path fill="#071F2C" d="M508.815 183.785c-.644-.028-.642.972 0 1 4.454.2 8.705-.763 12.65-2.836.57-.3.064-1.164-.505-.864-3.8 2-7.858 2.891-12.146 2.7m6.061-3.822a23.803 23.803 0 0 1-6.981 2.053c-.635.087-.365 1.05.265.965a24.7 24.7 0 0 0 7.222-2.155c.581-.273.074-1.135-.506-.863M337.582 76.895c-19.183.713-38.379.912-57.572.598-.644-.01-.644.99 0 1 19.193.314 38.39.115 57.572-.598.642-.024.645-1.024 0-1m-.254 31.281c.642-.021.645-1.021 0-1-16.18.492-32.359.986-48.538 1.479-.643.02-.646 1.02 0 1l48.538-1.48m-29.558 63.053c.643-.023.647-1.023 0-1-7.24.263-14.48.524-21.72.788-.642.023-.646 1.024 0 1 7.24-.264 14.48-.525 21.72-.788m31.87 23.749c-8.854 1.422-17.913.634-26.835.495a670.053 670.053 0 0 0-26.295.11c-.641.016-.644 1.017 0 1a670.874 670.874 0 0 1 27.287-.093c8.698.147 17.477.838 26.11-.548.633-.102.365-1.066-.266-.964m-21.186 9.407a482.19 482.19 0 0 1-13.818-.142c-.645-.015-.644.985 0 1 4.605.113 9.211.16 13.818.142.644-.003.645-1.003 0-1m-32.982 35.321c7.177-.228 14.34.04 21.48.8.639.066.634-.935 0-1a155.956 155.956 0 0 0-21.48-.8c-.642.021-.645 1.021 0 1m-16.978-34.315c.621.173.887-.792.267-.964-3.33-.924-6.423.162-9.508 1.436-1.758.726-3.513 1.527-5.368 1.976-1.42.343-3.85-.172-5.068.652-1.015.686-.79 2.086-.826 3.169l-.249 7.767c-.17 5.342-.342 10.682-.513 16.023-.02.643.98.643 1 0l.405-12.624.217-6.797.093-2.912c.046-1.427-.299-2.552.867-3.418 1.103-.821 2.961-.553 4.34-.896 1.503-.374 2.942-.966 4.37-1.558 3.2-1.328 6.457-2.83 9.973-1.853m23.628 56.27a25.121 25.121 0 0 1-7.486-1.308c-.613-.204-.875.762-.266.965a26.058 26.058 0 0 0 7.752 1.343c.645.015.644-.985 0-1m-7.149 2.629l-2.32-.327c-.63-.089-.902.875-.266.965.774.108 1.547.216 2.319.326.63.09.903-.875.267-.965m115.816 18.906h-21.534c-.644 0-.645 1 0 1h21.534c.644 0 .645-1 0-1m13.833-152.593a305.375 305.375 0 0 1 15.521.049c.644.018.643-.982 0-1a305.375 305.375 0 0 0-15.52-.05c-.644.016-.646 1.016 0 1m-7.147 3.229a37.688 37.688 0 0 1 9.156-.412c.643.047.639-.953 0-1a38.928 38.928 0 0 0-9.423.447c-.632.108-.364 1.07.267.965m17.207 18.03c3.858.096 7.846.501 11.687.047 4.415-.523 8.782-.952 13.233-1.02.642-.008.644-1.008 0-1-4.241.064-8.45.387-12.653.94-4.041.53-8.204.134-12.267.032-.644-.018-.643.982 0 1m-.95 27.203c-.019-1.49 0-2.978.037-4.466l16.192-.252c.642-.01.644-1.01 0-1l-16.16.252c.025-.774.058-1.548.101-2.321l17.901-.24c.644-.008.645-1.008 0-1l-17.84.239c.102-1.586.226-3.172.402-4.754.191-1.73.441-3.447.66-5.167 4.02-.934 8.667-.677 12.777-.792 4.08-.113 8.16-.1 12.238-.08.643.004.644-.996 0-1-4.41-.021-8.819-.031-13.227.11-3.78.12-7.936-.067-11.662.72.262-2.25.436-4.504.311-6.788-.035-.64-1.035-.645-1 0 .241 4.38-.617 8.662-1.097 12.997-.499 4.498-.69 9.018-.633 13.542.008.644 1.008.646 1 0m1.486 34.031a16.71 16.71 0 0 1 3.577.073c.637.082.63-.918 0-1a16.646 16.646 0 0 0-3.577-.073c-.636.056-.642 1.056 0 1m-.109 8.072a187.61 187.61 0 0 1 13.334-.08c.644.018.644-.982 0-1a187.614 187.614 0 0 0-13.334.08c-.642.026-.645 1.026 0 1m13.547 5.325a66.86 66.86 0 0 0-14.957.242c-.629.081-.637 1.082 0 1a66.86 66.86 0 0 1 14.957-.243c.641.062.637-.938 0-1M482.99 211.7a227.39 227.39 0 0 1-29.043 1.31c-.644-.014-.644.986 0 1a227.39 227.39 0 0 0 29.043-1.31c.633-.069.641-1.069 0-1m1.154-.692c-.615.184-.353 1.148.267.965 2.489-.74 2.408-4.33-.201-4.82-.628-.116-.898.847-.265.966 1.588.298 1.804 2.412.199 2.889m-31.174.58a2.292 2.292 0 0 1-.916-.217c-.207-.1-.7-.37-.73-.642-.063-.625 1.253-.841 1.646-.842a.462.462 0 0 0 .31-.118c9.746.38 19.483-.02 29.167-1.208.629-.078.637-1.078 0-1a181.324 181.324 0 0 1-30.012 1.179.43.43 0 0 0-.452.3c-.84.239-1.661.772-1.662 1.655-.002 1.239 1.644 1.849 2.649 1.893.644.027.643-.973 0-1m-19.509 32.006c.639-.043.644-1.043 0-1l-1.626.107c-.639.043-.644 1.043 0 1l1.626-.107m2.168.842c-.65.037-1.301.072-1.951.108-.64.037-.645 1.037 0 1l1.95-.108c.64-.035.645-1.035 0-1m40.774-23.655a16.72 16.72 0 0 1 2.942-.37h1.556c.647.001.641-.968 0-1a17.401 17.401 0 0 0-1.566 0h-3.064c-.396 0-.547.38-.455.671-.127.323.133.8.587.7m4.564 2.15c-.608.016-1.216.03-1.823.048-.43.01-.665.54-.354.853.589.59.726 1.398.427 2.166-.234.6.732.86.964.266a2.894 2.894 0 0 0-.106-2.31l.892-.023c.642-.017.645-1.017 0-1m-27.252 22.889a18.344 18.344 0 0 1 4.952-.765c.643-.009.645-1.009 0-1-1.777.03-3.514.293-5.22.801-.614.183-.351 1.15.268.964m5.736 2.757c.642 0 .644-1 0-1-.645 0-.646 1 0 1m-7.344-12.887a8.71 8.71 0 0 0 .41-3.262c-.042-.638-1.042-.644-1 0a7.919 7.919 0 0 1-.374 2.996c-.197.615.767.877.964.266M266.274 129.412l-1.176-3.128c-.225-.597-1.192-.338-.966.267.394 1.042.786 2.085 1.178 3.128.224.596 1.192.337.964-.267m-5.558 1.804c.644 0 .645-1 0-1-.644 0-.645 1 0 1m151.299-99.561a28.918 28.918 0 0 1 6.637-6.092c.534-.354.034-1.22-.505-.864a29.77 29.77 0 0 0-6.84 6.25c-.396.497.307 1.21.708.706m-18.175-6.038l1.124-7.83c.09-.63-.873-.902-.964-.268-.375 2.612-.75 5.222-1.123 7.832-.09.63.873.902.964.266M212.73 152.323a71.406 71.406 0 0 1 15.125-1.155c.644.017.643-.983 0-1a72.728 72.728 0 0 0-15.391 1.191c-.631.116-.364 1.08.267.964m9.383-11.758c1.77-.4 3.542-.507 5.348-.343.64.06.636-.942 0-1a17.845 17.845 0 0 0-5.615.38c-.627.142-.36 1.106.267.963m255.445-5.65c2.55 6.291 6.36 11.792 11.454 16.29.48.425 1.19-.279.707-.707-5.864-5.178-9.661-11.54-12.336-18.83-2.204-6.006-4.147-12.17-8.528-17.005-.433-.477-1.14.231-.707.708 4.996 5.514 6.685 12.82 9.41 19.544m-7.942 2.609c-.262-.587-1.123-.078-.863.506a84.08 84.08 0 0 0 10.344 17.254c.394.508 1.097-.204.707-.707a83.052 83.052 0 0 1-10.188-17.053M252.253 58.701a46.704 46.704 0 0 1-17.882 6.586c-.635.095-.365 1.06.266.964a47.37 47.37 0 0 0 18.121-6.687c.545-.34.043-1.205-.505-.863m-4.705 7.947a11.706 11.706 0 0 0 3.64-1.614c.533-.357.033-1.223-.504-.865a10.832 10.832 0 0 1-3.403 1.516c-.623.156-.36 1.121.267.963m143.136 106.985a5.918 5.918 0 0 0-1.89.154c-.624.15-.36 1.116.267.964a5.063 5.063 0 0 1 1.623-.118c.642.052.639-.95 0-1m5.702-.443h-1.17c-.643 0-.643 1 0 1h1.17c.644 0 .645-1 0-1m9.064-.28a25.92 25.92 0 0 0-3.95.098c-.635.064-.642 1.064 0 1a25.92 25.92 0 0 1 3.95-.098c.643.032.641-.968 0-1m5.262-.607c-.437.055-.876.108-1.313.162-.63.079-.638 1.08 0 1 .437-.054.876-.107 1.313-.162.63-.078.639-1.08 0-1m-4.89-3.871c-5.514.246-11.089-.528-16.61-.006a.498.498 0 0 0-.264.11c.001-.032.01-.06.005-.092a12.19 12.19 0 0 1-.105-2.46 933.148 933.148 0 0 0 16.974-.834v3.282zm6.795-4.568c-.17-.221-.492-.22-.7-.067-7.755.495-15.515.897-23.28 1.197a.474.474 0 0 0-.377.198.494.494 0 0 0-.404.459 13.492 13.492 0 0 0 .132 3.058c.063.409.481.44.748.244-.009.256.148.504.476.473 7.652-.724 15.387.997 22.946-.832.625-.152.36-1.116-.266-.965-1.68.407-3.373.629-5.07.746v-3.283c1.676-.098 3.353-.184 5.028-.292.103.474.18.948.204 1.437.034.64 1.034.644 1 0a10.15 10.15 0 0 0-.277-1.867c.044-.19-.01-.393-.16-.506zm-41.817-7.78h-1.9c-.643 0-.644 1 0 1h1.9c.645 0 .646-1 0-1m.437 20.334a4.685 4.685 0 0 0-1.748.123c-.622.16-.358 1.125.267.964a3.87 3.87 0 0 1 1.481-.087c.638.078.632-.922 0-1m-28.597-15.886l.159 15.644c.006.642 1.006.644 1 0l-.16-15.644c-.006-.644-1.006-.645-1 0"/><path fill="#071F2C" d="M261.878 216.447l-4.683.545c-.631.074-.638 1.074 0 1l4.683-.545c.632-.074.64-1.075 0-1m-3.056 3.833c-.617.18-.355 1.144.266.964a3.396 3.396 0 0 1 1.33-.118c.64.061.635-.939 0-1a4.219 4.219 0 0 0-1.596.153m22.504-39.336c-.996.088-1.967.273-2.92.574-.61.193-.35 1.158.266.964a12.39 12.39 0 0 1 2.654-.538c.636-.057.642-1.057 0-1m2.186-68.155l-1.787-10.116c-.111-.633-1.076-.365-.965.265 1.273 7.202 3.63 14.908 2.57 22.224-.902 6.241-.533 11.91 2.555 17.538.31.565 1.174.061.863-.504-.027-.05-.05-.1-.077-.152 9.642.687 19.169-1.198 28.777-1.63.64-.03.644-1.03 0-1-9.614.432-19.147 2.32-28.795 1.63a.406.406 0 0 0-.398.193 24.817 24.817 0 0 1-1.436-3.543c.04.011.075.028.12.03 4.489.146 8.98.278 13.462-.099 4.48-.378 8.94-.962 13.426-1.316a286.003 286.003 0 0 1 20.366-.88c.97-.007 1.94-.01 2.913-.007.965.003 2.774-.346 3.59.288.504.39 1.216-.313.709-.707-1.204-.934-2.838-.577-4.3-.58a285.226 285.226 0 0 0-21.342.74c-4.818.347-9.608.917-14.416 1.375-4.797.457-9.6.343-14.407.185a.437.437 0 0 0-.37.157 22.242 22.242 0 0 1-.82-5.334c-.096-3.334.856-6.55.952-9.864.087-2.98-.674-5.978-1.19-8.893m81.381-72.548c.428.481 1.134-.228.707-.707l-8.288-9.325c-.428-.482-1.134.227-.707.707l8.288 9.325zm9.367-22.41c.332.551 1.196.048.863-.506A72.867 72.867 0 0 0 360.792.131c-.481-.424-1.191.281-.707.707A72.04 72.04 0 0 1 374.26 17.83m107.848 69.903c.907-.909 1.815-1.817 2.726-2.726.455-.456-.252-1.163-.707-.707l-2.726 2.725c-.457.456.25 1.164.707.707m8.406 14.794c1.959-1.41 3.917-2.823 5.876-4.235.517-.373.019-1.24-.505-.864l-5.876 4.235c-.516.373-.018 1.241.505.864M228.82 176.669l-7.006 1.943c-.619.172-.356 1.137.266.964l7.006-1.943c.62-.172.355-1.137-.267-.964M299.23 6.499c.207.605 1.172.346.964-.267l-.65-1.908c-.207-.605-1.172-.346-.964.266l.65 1.909M256.557 287.89l-1.908 2.555c-.385.515.482 1.014.863.505l1.908-2.555c.385-.516-.482-1.015-.863-.504m42.792 11.523l-1.274 2.55c-.288.574.575 1.081.863.505l1.274-2.55c.287-.575-.575-1.08-.863-.505m146.327-9.008c-.304-.568-1.167-.064-.863.504l4.169 7.81c.303.566 1.167.061.863-.506l-4.17-7.808m-19.785 11.643c-.212-.603-1.18-.344-.963.266l1.346 3.8c.214.602 1.18.343.964-.265l-1.346-3.801m52.612-63.744c.509-.381.011-1.25-.505-.863-1.194.892-1.57 2.578-.723 3.847.356.533 1.222.033.864-.505-.52-.778-.414-1.897.364-2.48m-223.318-13.966c.644 0 .645-1 0-1-.644 0-.645 1 0 1m-29.811 12.266a915.257 915.257 0 0 1-85.629 3.439c-.643-.004-.643.996 0 1a915.257 915.257 0 0 0 85.63-3.44c.635-.055.641-1.056 0-1m-93.465 3.291l-102.056-3.188c-9.79-.307-19.58-.614-29.372-.918-.643-.021-.642.979 0 1l102.056 3.188 29.372.918c.644.02.643-.98 0-1"/><g transform="translate(495 230.906)"><mask id="b" fill="#fff"><use xlink:href="#a"/></mask><path fill="#071F2C" d="M248.353 1.19C197.138-.953 145.96 2.838 94.786 4.326c-14.525.424-29.053.654-43.584.532a.457.457 0 0 0-.279.09c-.017-.001-.03-.01-.05-.01L.932 6.077c-.643.014-.645 1.014 0 1 16.646-.38 33.293-.76 49.941-1.138a.46.46 0 0 0 .27-.094c.021.003.036.013.06.013 51.373.43 102.632-3.72 153.988-4.263 14.39-.151 28.784-.006 43.162.597.644.026.643-.974 0-1" mask="url(#b)"/></g><path fill="#071F2C" d="M635.999 160.442c5.018 2.604 10.405 4.516 16.06 5.058 4.938.472 11.056.141 15.173-2.986 7.821-5.938 2.002-17.429-4.886-21.426a74793.4 74793.4 0 0 1 13.091-8.292c.541-.343.041-1.209-.505-.864l-14.416 9.132c-.543.344-.041 1.21.504.863l.359-.226c7.914 4.176 13.068 17.635 2.153 21.657-8.806 3.245-19.059.357-27.028-3.779-.571-.296-1.077.566-.505.863m47.748-11.821c.094.635 1.058.365.965-.266-.836-5.673-3.46-10.757-7.582-14.742-.463-.447-1.17.26-.707.707 4.008 3.875 6.512 8.79 7.324 14.301m-11.246 9.776c3.666-2.002 7.332-4.004 10.998-6.004.565-.309.062-1.173-.505-.863-3.666 2-7.332 4.001-10.998 6.004-.564.308-.06 1.172.505.863"/><path fill="#071F2C" d="M640.91 158.52c7.18-2.256 14.36-4.512 21.54-6.77-.307.182-.432.649-.028.839a13.91 13.91 0 0 0 6.336 1.359c.642-.016.645-1.016 0-1a12.76 12.76 0 0 1-5.83-1.222.502.502 0 0 0-.25-.046c.085-.027.17-.055.256-.081.612-.192.351-1.158-.266-.964l-22.025 6.92c-.612.194-.35 1.158.266.965m34.431-8.28c-.391.512.477 1.01.863.506a5.163 5.163 0 0 1 2.682-1.809c.617-.179.354-1.144-.266-.965-1.335.388-2.437 1.168-3.28 2.268m2.775-3.401c.748-.644 1.667-.921 2.646-.856.642.043.64-.957 0-1-1.247-.082-2.41.337-3.353 1.149-.488.42.222 1.125.707.707m-6.589-5.902a14.133 14.133 0 0 1 4.856-2.024c.63-.134.364-1.098-.265-.964a14.9 14.9 0 0 0-5.095 2.125c-.536.35-.036 1.217.504.863m21.245 14.687l.5-2c.156-.624-.808-.89-.964-.266l-.502 2c-.154.624.81.891.966.266m-122.733-20.258a205.052 205.052 0 0 0 38.025 17.293c.612.206.873-.76.266-.964a203.713 203.713 0 0 1-37.787-17.193c-.557-.324-1.06.54-.504.864m-417.559-32.919a152.366 152.366 0 0 1-40.083-7.454c-.611-.202-.874.764-.266.964a153.304 153.304 0 0 0 41.752 7.572c.412.018.69-.574.355-.853A73.719 73.719 0 0 1 141.453 88.9c-.371-.518-1.24-.019-.865.506a74.84 74.84 0 0 0 11.89 13.041m-45.988-20.5a59.868 59.868 0 0 0 30.77 7.031c.64-.026.644-1.026 0-1a58.825 58.825 0 0 1-30.265-6.894c-.567-.303-1.073.56-.505.863m6.155 11.152a19.973 19.973 0 0 1-5.13-8.685c-.18-.617-1.143-.355-.965.266a21.075 21.075 0 0 0 5.388 9.127c.455.455 1.162-.252.707-.708m2.096-4.116c-.18 1.974 1.051 3.786 2.896 4.453.606.218.868-.749.265-.966-1.449-.522-2.298-1.975-2.16-3.487.058-.642-.942-.638-1 0"/><path fill="#071F2C" d="M121.691 93.733l-1.5-3c-.288-.577-1.15-.07-.863.504l1.5 3c.288.576 1.15.07.863-.504M88.906 69.838c.491.409 1.202-.295.707-.707l-3-2.5c-.49-.41-1.202.295-.707.707l3 2.5m-6.402 15.875c1.164-.96 2.677-1.154 4.073-.628.604.228.864-.74.267-.964-1.745-.658-3.62-.291-5.047.885-.497.41.214 1.114.707.707m75.254 7.309a88.149 88.149 0 0 0 19.63-1.076c.635-.106.366-1.07-.265-.963a86.963 86.963 0 0 1-19.365 1.038c-.644-.037-.641.963 0 1m-30.03 70.335c-.178-.618-1.143-.356-.965.266 2.492 8.623 7.566 16.19 14.623 21.742.5.393 1.213-.31.707-.707-6.932-5.454-11.916-12.824-14.364-21.302m-26.969 1.622a169.1 169.1 0 0 0 24.002-.975c.633-.071.64-1.072 0-1a169.093 169.093 0 0 1-24.002.975c-.644-.02-.643.98 0 1m41.996 23.982a77.833 77.833 0 0 1-25.39-.826c-.63-.125-.897.839-.266.965a78.68 78.68 0 0 0 25.656.861c.629-.082.638-1.084 0-1m-39.002-19.258c-.296-.572-1.16-.067-.863.504a38.062 38.062 0 0 0 17.506 16.951c.578.275 1.086-.586.503-.863a37.175 37.175 0 0 1-17.146-16.592m18.506.283c.644 0 .645-1 0-1h-4c-.644 0-.645 1 0 1h4zm2.65 1.467c-1.734-.545-3.48-.67-5.279-.424-.635.087-.365 1.051.265.965 1.613-.22 3.2-.064 4.747.424.616.193.88-.773.267-.965m-1.947 3.885a3.293 3.293 0 0 1 2.644-.307c.618.183.882-.782.265-.964a4.311 4.311 0 0 0-3.414.408c-.557.32-.055 1.185.505.863m18.133 23.485c.426-.479-.28-1.189-.707-.707a8.358 8.358 0 0 0-2.108 4.872c-.06.641.94.636 1 0a7.22 7.22 0 0 1 1.815-4.165m-59.96-45.911l6.994 1.034c.63.093.902-.87.266-.964l-6.994-1.035c-.63-.094-.902.87-.266.964m10.876 29.507l2-1.5c.509-.38.012-1.25-.504-.863l-2 1.5c-.51.381-.012 1.25.504.863"/><path fill="#F2F2F2" d="M138.433 295.618c.448-1.492-.213-3.478-1.925-4.124-5.93-2.24-12.041-3.725-18.248-4.973-4.284-.86-8.511-1.867-12.79-1.622-.095-.009-.187-.022-.282-.03a2.368 2.368 0 0 0-1.102.156c-.833.104-1.67.253-2.508.473-3.58.937-2.265 6.281 1.15 5.856.344.531.908.957 1.76 1.155 2.76.64 5.532 1.22 8.31 1.751 6.795 2.79 13.76 5.056 20.94 6.748 1.647.387 3.085-.746 3.623-2.119 1.018-.765 1.454-2.098 1.072-3.27m-76.455-22.175c-.066-1.114-.715-2.168-2.12-2.543a3.688 3.688 0 0 0-2.201.094l-2.7-.648a3.147 3.147 0 0 0-1.422 0l-.311-.09c-3.72-1.062-5.307 4.726-1.595 5.787 1.59.454 3.181.91 4.773 1.363.462.132.932.124 1.383.027.949.312 2.018.233 2.908-.398 1.157-.823 1.632-2.343 1.285-3.592m627.673-7.124c-.123.042-.246.08-.369.122a3.036 3.036 0 0 0-1.19.125c-.652-.617-1.585-.962-2.72-.729-.917.187-1.836.338-2.755.491-.48-.54-1.206-.872-2.187-.794-8.376.672-16.75 1.343-25.126 2.013-1.098.09-1.879.627-2.352 1.34-2.106 1.082-2.593 4.5.008 5.384.35.501.888.876 1.655.983.265.037.532.065.798.1v.006c.02.002.041.001.061.002 4.343.56 8.666.784 12.963.652a68.418 68.418 0 0 0 22.81-3.91c3.616-1.277 2.058-7.076-1.596-5.786m-117.891 7.165h-7.333c-3.861 0-3.867 6 0 6h7.333c3.86 0 3.867-6 0-6"/></g></svg>