<?xml version="1.0" encoding="UTF-8"?>
<svg width="320px" height="329px" viewBox="0 0 320 329" version="1.1" xmlns="http://www.w3.org/2000/svg" xmlns:xlink="http://www.w3.org/1999/xlink">
    <!-- Generator: Sketch 49.3 (51167) - http://www.bohemiancoding.com/sketch -->
    <title>right-bar-chart</title>
    <desc>Created with Sketch.</desc>
    <defs></defs>
    <g id="Screens" stroke="none" stroke-width="1" fill="none" fill-rule="evenodd">
        <g id="hirer-updated" transform="translate(-567.000000, -5084.000000)">
            <g id="bar-chart" transform="translate(171.000000, 5060.000000)">
                <g id="right-bar-chart" transform="translate(396.000000, 24.000000)">
                    <path d="M4.51082222,2.58905281 C39.9485707,0.887450822 66.526882,0.0366498272 84.2457562,0.0366498272 C93.5738551,0.0366498272 118.439314,2.61547787 161.057936,2.58905281 C184.209908,2.57469776 213.378737,-0.358710419 246.358998,0.0366498272 C260.779013,0.209513849 284.527696,0.209513849 317.605049,0.0366498272 C317.605044,16.7329755 317.605044,28.8502071 317.605049,36.3883447 C317.605056,47.7222346 317.610871,61.0351512 317.605049,67.9286133 C317.586924,89.390135 316.657296,111.934909 317.605049,125.519039 C319.464984,152.17747 319.464984,209.004457 317.605049,296 C260.244904,292.607227 217.224796,290.910841 188.544723,290.910841 C159.864651,290.910841 97.3497433,292.607227 1,296 C1,236.114911 1,189.245881 1,155.392911 C1,136.059659 3.74745432,106.736181 4.51082222,76.2605955 C4.89302677,61.002019 4.89302677,36.4448381 4.51082222,2.58905281 Z" id="Rectangle-3" fill="#EFEBD3"></path>
                    <path d="M1.04785156,170 C37.3700344,171.558382 64.3726125,172.337573 82.0555858,172.337573 C99.7385592,172.337573 128.577658,171.558382 168.572883,170 L318.666016,172.943848 C318.666016,184.223628 318.666016,195.500809 318.666016,206.775391 C318.666016,213.853303 319.235115,234.373747 319.825094,254.137916 C320.058302,261.950359 320.058302,275.904387 319.825094,296 C265.095363,295.531328 225.286178,294.027553 200.397541,291.488674 C193.170081,290.751404 185.531115,293.593067 180.746094,293.809444 C170.441613,294.275411 166.084284,293.305281 156.259655,293.809444 C128.802261,295.218456 103.024694,296 82.0555858,296 C25.3384519,296 -1.66412615,296 1.04785156,296 C1.26644174,281.909911 1.26644174,271.683023 1.04785156,265.319336 C0.273768973,242.783926 1.04785156,223.353709 1.04785156,210.270508 C1.04785156,191.645535 1.04785156,178.222032 1.04785156,170 Z" id="Rectangle-4" fill="#E35205"></path>
                    <text id="Other-channels" font-family="F37Jan-Regular, F37 Jan" font-size="12" font-weight="normal" fill="#2D2926">
                        <tspan x="119" y="109">Other channels</tspan>
                    </text>
                    <text id="Referrals---40%-of-h" font-family="F37Jan-Regular, F37 Jan" font-size="12" font-weight="normal" fill="#FFFFFF">
                        <tspan x="98" y="238">Referrals - 40% of hires</tspan>
                    </text>
                    <text id="Total-share-of-hires" font-family="F37Jan-Bold, F37 Jan" font-size="16" font-weight="bold" fill="#E35205">
                        <tspan x="92" y="328">Total share of hires</tspan>
                    </text>
                </g>
            </g>
        </g>
    </g>
</svg>