<?xml version="1.0" encoding="UTF-8"?>
<svg width="319px" height="329px" viewBox="0 0 319 329" version="1.1" xmlns="http://www.w3.org/2000/svg" xmlns:xlink="http://www.w3.org/1999/xlink">
    <!-- Generator: Sketch 50 (54983) - http://www.bohemiancoding.com/sketch -->
    <title>right-bar-chart</title>
    <desc>Created with Sketch.</desc>
    <defs></defs>
    <g id="Screens" stroke="none" stroke-width="1" fill="none" fill-rule="evenodd">
        <g id="hirer-updated-section-the-power-of-referrals-mobile" transform="translate(-29.000000, -411.000000)">
            <g id="right-bar-chart" transform="translate(29.000000, 411.000000)">
                <path d="M3.51082222,2.58905281 C38.9485707,0.887450822 65.526882,0.0366498272 83.2457562,0.0366498272 C92.5738551,0.0366498272 117.439314,2.61547787 160.057936,2.58905281 C183.209908,2.57469776 212.378737,-0.358710419 245.358998,0.0366498272 C259.779013,0.209513849 283.527696,0.209513849 316.605049,0.0366498272 C316.605044,16.7329755 316.605044,28.8502071 316.605049,36.3883447 C316.605056,47.7222346 316.610871,61.0351512 316.605049,67.9286133 C316.586924,89.390135 315.657296,111.934909 316.605049,125.519039 C318.464984,152.17747 318.464984,209.004457 316.605049,296 C259.244904,292.607227 216.224796,290.910841 187.544723,290.910841 C158.864651,290.910841 96.3497433,292.607227 0,296 C0,236.114911 0,189.245881 0,155.392911 C0,136.059659 2.74745432,106.736181 3.51082222,76.2605955 C3.89302677,61.002019 3.89302677,36.4448381 3.51082222,2.58905281 Z" id="Rectangle-3" fill="#EFEBD3"></path>
                <path d="M0.343717571,170 C36.6322073,171.558382 63.6097373,172.337573 81.2763076,172.337573 C98.9428778,172.337573 127.755225,171.558382 167.71335,170 L317.667253,172.943848 C317.667253,184.223628 317.667253,195.500809 317.667253,206.775391 C317.667253,213.853303 318.235824,234.373747 318.825256,254.137916 C319.058248,261.950359 319.058248,275.904387 318.825256,296 C264.146293,295.531328 224.374037,294.027553 199.508486,291.488674 C192.287731,290.751404 184.655851,293.593067 179.875268,293.809444 C169.580346,294.275411 165.227059,293.305281 155.411544,293.809444 C127.979619,295.218456 102.225964,296 81.2763076,296 C24.6117855,296 -2.36574446,296 0.343717571,296 C0.562104981,281.909911 0.562104981,271.683023 0.343717571,265.319336 C-0.429646964,242.783926 0.343717571,223.353709 0.343717571,210.270508 C0.343717571,191.645535 0.343717571,178.222032 0.343717571,170 Z" id="Rectangle-4" fill="#E35205"></path>
                <path d="M122.812,109.156 C120.376,109.156 118.516,107.14 118.516,104.74 C118.516,102.34 120.376,100.324 122.812,100.324 C125.248,100.324 127.108,102.34 127.108,104.74 C127.108,107.14 125.248,109.156 122.812,109.156 Z M122.812,108.04 C124.6,108.04 125.872,106.528 125.872,104.74 C125.872,102.928 124.564,101.44 122.812,101.44 C121.024,101.44 119.752,102.928 119.752,104.74 C119.752,106.528 121.06,108.04 122.812,108.04 Z M129.04,109 L129.04,104.56 C129.04,104.452 129.052,104.416 129.124,104.344 L129.016,104.248 C128.944,104.32 128.884,104.332 128.824,104.332 L127.816,104.332 L127.816,103.3 L128.824,103.3 C128.884,103.3 128.944,103.312 129.016,103.384 L129.124,103.288 C129.052,103.216 129.04,103.18 129.04,103.072 L129.04,101.38 L130.192,101.38 L130.192,103.072 C130.192,103.18 130.18,103.216 130.108,103.288 L130.216,103.384 C130.288,103.312 130.348,103.3 130.408,103.3 L131.62,103.3 L131.62,104.332 L130.408,104.332 C130.348,104.332 130.288,104.32 130.216,104.248 L130.108,104.344 C130.18,104.416 130.192,104.452 130.192,104.56 L130.192,109 L129.04,109 Z M132.628,109 L132.628,100.504 L133.78,100.504 L133.78,103.456 C133.78,103.612 133.756,103.72 133.648,103.852 L133.768,103.948 C134.08,103.564 134.668,103.18 135.436,103.18 C136.792,103.18 137.788,103.972 137.788,105.772 L137.788,109 L136.636,109 L136.636,106.012 C136.636,104.848 136.192,104.26 135.232,104.26 C134.248,104.26 133.78,104.896 133.78,106.096 L133.78,109 L132.628,109 Z M141.988,109.144 C140.236,109.144 139.012,107.848 139.012,106.168 C139.012,104.548 140.14,103.18 141.904,103.18 C143.44,103.18 144.58,104.404 144.58,106.156 C144.58,106.312 144.568,106.432 144.556,106.552 L140.512,106.552 C140.308,106.552 140.284,106.54 140.236,106.48 L140.128,106.576 C140.2,106.648 140.224,106.684 140.236,106.744 C140.38,107.428 140.98,108.088 141.988,108.088 C142.54,108.088 143.056,107.812 143.368,107.32 L144.184,107.944 C143.704,108.688 142.9,109.144 141.988,109.144 Z M140.224,105.688 C140.272,105.64 140.308,105.64 140.416,105.64 L143.236,105.64 C143.344,105.64 143.38,105.64 143.428,105.688 L143.536,105.592 C143.452,105.508 143.368,105.424 143.344,105.34 C143.164,104.716 142.6,104.236 141.88,104.236 C141.028,104.236 140.524,104.776 140.332,105.34 C140.308,105.424 140.2,105.508 140.116,105.592 L140.224,105.688 Z M146.932,109 L145.78,109 L145.78,103.3 L146.932,103.3 L146.932,103.528 C146.932,103.708 146.884,103.816 146.8,103.912 L146.92,104.008 C147.4204,103.3192 147.9844,103.1788 148.4596,103.1788 C148.5268,103.1788 148.5808,103.1836 148.624,103.192 L148.624,104.44 C148.48,104.416 148.348,104.404 148.228,104.404 C147.376,104.404 146.932,105.016 146.932,106.024 L146.932,109 Z M154.792,109.144 C153.124,109.144 151.792,107.848 151.792,106.168 C151.792,104.44 153.136,103.18 154.792,103.18 C155.884,103.18 156.832,103.732 157.288,104.596 L156.364,105.148 C156.04,104.56 155.452,104.236 154.792,104.236 C153.772,104.236 152.944,105.016 152.944,106.18 C152.944,107.212 153.712,108.088 154.792,108.088 C155.5,108.088 156.076,107.728 156.4,107.176 L157.312,107.74 C156.82,108.58 155.872,109.144 154.792,109.144 Z M158.452,109 L158.452,100.504 L159.604,100.504 L159.604,103.456 C159.604,103.612 159.58,103.72 159.472,103.852 L159.592,103.948 C159.904,103.564 160.492,103.18 161.26,103.18 C162.616,103.18 163.612,103.972 163.612,105.772 L163.612,109 L162.46,109 L162.46,106.012 C162.46,104.848 162.016,104.26 161.056,104.26 C160.072,104.26 159.604,104.896 159.604,106.096 L159.604,109 L158.452,109 Z M167.632,109.144 C166.144,109.144 164.836,107.884 164.836,106.156 C164.836,104.404 166.168,103.18 167.632,103.18 C168.52,103.18 169.18,103.504 169.588,103.972 L169.708,103.876 C169.6,103.744 169.576,103.648 169.576,103.504 L169.576,103.3 L170.728,103.3 L170.728,109 L169.576,109 L169.576,108.82 C169.576,108.652 169.612,108.556 169.708,108.448 L169.588,108.352 C169.18,108.82 168.52,109.144 167.632,109.144 Z M167.836,108.088 C168.88,108.088 169.648,107.248 169.648,106.156 C169.648,105.088 168.88,104.236 167.836,104.236 C166.744,104.236 165.988,105.124 165.988,106.156 C165.988,107.248 166.768,108.088 167.836,108.088 Z M172.408,109 L172.408,103.3 L173.56,103.3 L173.56,103.408 C173.56,103.6 173.548,103.708 173.428,103.852 L173.548,103.948 C173.884,103.552 174.388,103.18 175.252,103.18 C176.608,103.18 177.592,103.972 177.592,105.76 L177.592,109 L176.44,109 L176.44,106 C176.44,104.848 175.972,104.26 175.024,104.26 C174.052,104.26 173.56,104.896 173.56,106.096 L173.56,109 L172.408,109 Z M179.2,109 L179.2,103.3 L180.352,103.3 L180.352,103.408 C180.352,103.6 180.34,103.708 180.22,103.852 L180.34,103.948 C180.676,103.552 181.18,103.18 182.044,103.18 C183.4,103.18 184.384,103.972 184.384,105.76 L184.384,109 L183.232,109 L183.232,106 C183.232,104.848 182.764,104.26 181.816,104.26 C180.844,104.26 180.352,104.896 180.352,106.096 L180.352,109 L179.2,109 Z M188.584,109.144 C186.832,109.144 185.608,107.848 185.608,106.168 C185.608,104.548 186.736,103.18 188.5,103.18 C190.036,103.18 191.176,104.404 191.176,106.156 C191.176,106.312 191.164,106.432 191.152,106.552 L187.108,106.552 C186.904,106.552 186.88,106.54 186.832,106.48 L186.724,106.576 C186.796,106.648 186.82,106.684 186.832,106.744 C186.976,107.428 187.576,108.088 188.584,108.088 C189.136,108.088 189.652,107.812 189.964,107.32 L190.78,107.944 C190.3,108.688 189.496,109.144 188.584,109.144 Z M186.82,105.688 C186.868,105.64 186.904,105.64 187.012,105.64 L189.832,105.64 C189.94,105.64 189.976,105.64 190.024,105.688 L190.132,105.592 C190.048,105.508 189.964,105.424 189.94,105.34 C189.76,104.716 189.196,104.236 188.476,104.236 C187.624,104.236 187.12,104.776 186.928,105.34 C186.904,105.424 186.796,105.508 186.712,105.592 L186.82,105.688 Z M192.376,109 L192.376,100.504 L193.528,100.504 L193.528,109 L192.376,109 Z M196.864,109.144 C196.048,109.144 195.268,108.88 194.68,108.448 L195.184,107.536 C195.712,107.944 196.36,108.124 196.888,108.124 C197.524,108.124 197.908,107.944 197.908,107.464 C197.908,106.204 194.956,107.068 194.956,104.86 C194.956,103.84 195.748,103.18 196.936,103.18 C197.704,103.18 198.436,103.408 198.916,103.804 L198.364,104.644 C197.908,104.32 197.452,104.2 196.984,104.2 C196.324,104.2 196.06,104.464 196.06,104.836 C196.06,105.952 199.036,105.196 199.036,107.368 C199.036,108.52 198.268,109.144 196.864,109.144 Z" id="Other-channels" fill="#2D2926"></path>
                <path d="M98.104,238 L98.104,229.504 L100.972,229.504 C102.712,229.504 103.924,230.344 103.924,232.024 C103.924,233.644 102.724,234.448 101.416,234.52 L101.416,234.64 C101.56,234.628 101.704,234.736 101.812,234.868 L104.392,238 L102.928,238 L100.048,234.532 L99.52,234.532 C99.46,234.532 99.4,234.52 99.328,234.448 L99.22,234.544 C99.292,234.616 99.304,234.652 99.304,234.76 L99.304,238 L98.104,238 Z M99.328,233.548 C99.4,233.476 99.46,233.464 99.52,233.464 L100.984,233.464 C102.004,233.464 102.712,233.032 102.712,232.024 C102.712,231.016 102.004,230.596 100.984,230.596 L99.52,230.596 C99.46,230.596 99.4,230.584 99.328,230.512 L99.22,230.608 C99.292,230.68 99.304,230.716 99.304,230.824 L99.304,233.236 C99.304,233.344 99.292,233.38 99.22,233.452 L99.328,233.548 Z M107.776,238.144 C106.024,238.144 104.8,236.848 104.8,235.168 C104.8,233.548 105.928,232.18 107.692,232.18 C109.228,232.18 110.368,233.404 110.368,235.156 C110.368,235.312 110.356,235.432 110.344,235.552 L106.3,235.552 C106.096,235.552 106.072,235.54 106.024,235.48 L105.916,235.576 C105.988,235.648 106.012,235.684 106.024,235.744 C106.168,236.428 106.768,237.088 107.776,237.088 C108.328,237.088 108.844,236.812 109.156,236.32 L109.972,236.944 C109.492,237.688 108.688,238.144 107.776,238.144 Z M106.012,234.688 C106.06,234.64 106.096,234.64 106.204,234.64 L109.024,234.64 C109.132,234.64 109.168,234.64 109.216,234.688 L109.324,234.592 C109.24,234.508 109.156,234.424 109.132,234.34 C108.952,233.716 108.388,233.236 107.668,233.236 C106.816,233.236 106.312,233.776 106.12,234.34 C106.096,234.424 105.988,234.508 105.904,234.592 L106.012,234.688 Z M111.964,238 L111.964,233.56 C111.964,233.452 111.976,233.416 112.048,233.344 L111.94,233.248 C111.868,233.32 111.808,233.332 111.748,233.332 L110.956,233.332 L110.956,232.3 L111.748,232.3 C111.808,232.3 111.868,232.312 111.94,232.384 L112.048,232.288 C111.976,232.216 111.964,232.18 111.964,232.072 L111.964,232 C111.964,230.416 112.732,229.444 114.16,229.444 C114.22,229.444 114.4,229.444 114.592,229.468 L114.592,230.56 L114.544,230.56 C114.472,230.56 114.34,230.548 114.256,230.548 C113.38,230.548 113.116,231.22 113.116,231.748 L113.116,232.072 C113.116,232.18 113.104,232.216 113.032,232.288 L113.14,232.384 C113.212,232.312 113.272,232.3 113.332,232.3 L114.484,232.3 L114.484,233.332 L113.332,233.332 C113.272,233.332 113.212,233.32 113.14,233.248 L113.032,233.344 C113.104,233.416 113.116,233.452 113.116,233.56 L113.116,238 L111.964,238 Z M117.964,238.144 C116.212,238.144 114.988,236.848 114.988,235.168 C114.988,233.548 116.116,232.18 117.88,232.18 C119.416,232.18 120.556,233.404 120.556,235.156 C120.556,235.312 120.544,235.432 120.532,235.552 L116.488,235.552 C116.284,235.552 116.26,235.54 116.212,235.48 L116.104,235.576 C116.176,235.648 116.2,235.684 116.212,235.744 C116.356,236.428 116.956,237.088 117.964,237.088 C118.516,237.088 119.032,236.812 119.344,236.32 L120.16,236.944 C119.68,237.688 118.876,238.144 117.964,238.144 Z M116.2,234.688 C116.248,234.64 116.284,234.64 116.392,234.64 L119.212,234.64 C119.32,234.64 119.356,234.64 119.404,234.688 L119.512,234.592 C119.428,234.508 119.344,234.424 119.32,234.34 C119.14,233.716 118.576,233.236 117.856,233.236 C117.004,233.236 116.5,233.776 116.308,234.34 C116.284,234.424 116.176,234.508 116.092,234.592 L116.2,234.688 Z M122.908,238 L121.756,238 L121.756,232.3 L122.908,232.3 L122.908,232.528 C122.908,232.708 122.86,232.816 122.776,232.912 L122.896,233.008 C123.3964,232.3192 123.9604,232.1788 124.4356,232.1788 C124.5028,232.1788 124.5568,232.1836 124.6,232.192 L124.6,233.44 C124.456,233.416 124.324,233.404 124.204,233.404 C123.352,233.404 122.908,234.016 122.908,235.024 L122.908,238 Z M126.796,238 L125.644,238 L125.644,232.3 L126.796,232.3 L126.796,232.528 C126.796,232.708 126.748,232.816 126.664,232.912 L126.784,233.008 C127.2844,232.3192 127.8484,232.1788 128.3236,232.1788 C128.3908,232.1788 128.4448,232.1836 128.488,232.192 L128.488,233.44 C128.344,233.416 128.212,233.404 128.092,233.404 C127.24,233.404 126.796,234.016 126.796,235.024 L126.796,238 Z M131.812,238.144 C130.324,238.144 129.016,236.884 129.016,235.156 C129.016,233.404 130.348,232.18 131.812,232.18 C132.7,232.18 133.36,232.504 133.768,232.972 L133.888,232.876 C133.78,232.744 133.756,232.648 133.756,232.504 L133.756,232.3 L134.908,232.3 L134.908,238 L133.756,238 L133.756,237.82 C133.756,237.652 133.792,237.556 133.888,237.448 L133.768,237.352 C133.36,237.82 132.7,238.144 131.812,238.144 Z M132.016,237.088 C133.06,237.088 133.828,236.248 133.828,235.156 C133.828,234.088 133.06,233.236 132.016,233.236 C130.924,233.236 130.168,234.124 130.168,235.156 C130.168,236.248 130.948,237.088 132.016,237.088 Z M136.588,238 L136.588,229.504 L137.74,229.504 L137.74,238 L136.588,238 Z M141.076,238.144 C140.26,238.144 139.48,237.88 138.892,237.448 L139.396,236.536 C139.924,236.944 140.572,237.124 141.1,237.124 C141.736,237.124 142.12,236.944 142.12,236.464 C142.12,235.204 139.168,236.068 139.168,233.86 C139.168,232.84 139.96,232.18 141.148,232.18 C141.916,232.18 142.648,232.408 143.128,232.804 L142.576,233.644 C142.12,233.32 141.664,233.2 141.196,233.2 C140.536,233.2 140.272,233.464 140.272,233.836 C140.272,234.952 143.248,234.196 143.248,236.368 C143.248,237.52 142.48,238.144 141.076,238.144 Z M150.664,235.312 L147.22,235.312 L147.22,234.208 L150.664,234.208 L150.664,235.312 Z M158.5,238 L158.5,236.26 C158.5,236.152 158.512,236.116 158.584,236.044 L158.476,235.948 C158.404,236.02 158.344,236.032 158.284,236.032 L154.42,236.032 L154.42,234.976 L158.704,229.504 L159.712,229.504 L159.712,234.712 C159.712,234.82 159.7,234.856 159.628,234.928 L159.736,235.024 C159.808,234.952 159.868,234.94 159.928,234.94 L160.624,234.94 L160.624,236.032 L159.928,236.032 C159.868,236.032 159.808,236.02 159.736,235.948 L159.628,236.044 C159.7,236.116 159.712,236.152 159.712,236.26 L159.712,238 L158.5,238 Z M158.476,235.024 L158.584,234.928 C158.512,234.856 158.5,234.82 158.5,234.712 L158.5,231.988 C158.5,231.82 158.536,231.748 158.608,231.616 L158.488,231.544 L156.088,234.628 C155.992,234.748 155.956,234.796 155.8,234.796 L155.8,234.94 L158.284,234.94 C158.344,234.94 158.404,234.952 158.476,235.024 Z M164.668,238.156 C162.676,238.156 161.8,236.692 161.8,234.88 L161.8,232.42 C161.8,230.788 162.748,229.336 164.668,229.336 C166.504,229.336 167.536,230.692 167.536,232.42 L167.536,234.88 C167.536,236.596 166.732,238.156 164.668,238.156 Z M164.668,236.92 C165.952,236.92 166.276,235.984 166.276,234.796 L166.276,232.588 C166.276,231.568 165.892,230.584 164.668,230.584 C163.492,230.584 163.06,231.484 163.06,232.588 L163.06,234.796 C163.06,235.9 163.336,236.92 164.668,236.92 Z M173.14,231.16 C173.14,232.396 172.108,233.404 170.872,233.404 C169.636,233.404 168.604,232.396 168.604,231.16 C168.604,229.924 169.636,228.916 170.872,228.916 C172.108,228.916 173.14,229.924 173.14,231.16 Z M171.568,238 L170.524,238 L175.396,229.12 L176.44,229.12 L171.568,238 Z M170.872,232.42 C171.568,232.42 172.108,231.856 172.108,231.16 C172.108,230.464 171.568,229.9 170.872,229.9 C170.176,229.9 169.636,230.464 169.636,231.16 C169.636,231.856 170.176,232.42 170.872,232.42 Z M178.336,235.924 C178.336,237.16 177.304,238.168 176.068,238.168 C174.832,238.168 173.8,237.16 173.8,235.924 C173.8,234.688 174.832,233.68 176.068,233.68 C177.304,233.68 178.336,234.688 178.336,235.924 Z M176.068,237.196 C176.764,237.196 177.304,236.62 177.304,235.924 C177.304,235.228 176.764,234.676 176.068,234.676 C175.372,234.676 174.832,235.228 174.832,235.924 C174.832,236.62 175.372,237.196 176.068,237.196 Z M184.96,238.144 C183.244,238.144 181.96,236.8 181.96,235.144 C181.96,233.512 183.244,232.18 184.96,232.18 C186.652,232.18 187.924,233.512 187.924,235.144 C187.924,236.8 186.652,238.144 184.96,238.144 Z M184.96,237.088 C186.016,237.088 186.772,236.224 186.772,235.144 C186.772,234.1 186.016,233.236 184.96,233.236 C183.88,233.236 183.112,234.1 183.112,235.144 C183.112,236.224 183.88,237.088 184.96,237.088 Z M189.544,238 L189.544,233.56 C189.544,233.452 189.556,233.416 189.628,233.344 L189.52,233.248 C189.448,233.32 189.388,233.332 189.328,233.332 L188.536,233.332 L188.536,232.3 L189.328,232.3 C189.388,232.3 189.448,232.312 189.52,232.384 L189.628,232.288 C189.556,232.216 189.544,232.18 189.544,232.072 L189.544,232 C189.544,230.416 190.312,229.444 191.74,229.444 C191.8,229.444 191.98,229.444 192.172,229.468 L192.172,230.56 L192.124,230.56 C192.052,230.56 191.92,230.548 191.836,230.548 C190.96,230.548 190.696,231.22 190.696,231.748 L190.696,232.072 C190.696,232.18 190.684,232.216 190.612,232.288 L190.72,232.384 C190.792,232.312 190.852,232.3 190.912,232.3 L192.064,232.3 L192.064,233.332 L190.912,233.332 C190.852,233.332 190.792,233.32 190.72,233.248 L190.612,233.344 C190.684,233.416 190.696,233.452 190.696,233.56 L190.696,238 L189.544,238 Z M195.676,238 L195.676,229.504 L196.828,229.504 L196.828,232.456 C196.828,232.612 196.804,232.72 196.696,232.852 L196.816,232.948 C197.128,232.564 197.716,232.18 198.484,232.18 C199.84,232.18 200.836,232.972 200.836,234.772 L200.836,238 L199.684,238 L199.684,235.012 C199.684,233.848 199.24,233.26 198.28,233.26 C197.296,233.26 196.828,233.896 196.828,235.096 L196.828,238 L195.676,238 Z M203.02,230.968 C202.6,230.968 202.276,230.644 202.276,230.224 C202.276,229.804 202.6,229.492 203.02,229.492 C203.44,229.492 203.752,229.804 203.752,230.224 C203.752,230.644 203.44,230.968 203.02,230.968 Z M203.596,238 L202.444,238 L202.444,232.3 L203.596,232.3 L203.596,238 Z M206.428,238 L205.276,238 L205.276,232.3 L206.428,232.3 L206.428,232.528 C206.428,232.708 206.38,232.816 206.296,232.912 L206.416,233.008 C206.9164,232.3192 207.4804,232.1788 207.9556,232.1788 C208.0228,232.1788 208.0768,232.1836 208.12,232.192 L208.12,233.44 C207.976,233.416 207.844,233.404 207.724,233.404 C206.872,233.404 206.428,234.016 206.428,235.024 L206.428,238 Z M211.624,238.144 C209.872,238.144 208.648,236.848 208.648,235.168 C208.648,233.548 209.776,232.18 211.54,232.18 C213.076,232.18 214.216,233.404 214.216,235.156 C214.216,235.312 214.204,235.432 214.192,235.552 L210.148,235.552 C209.944,235.552 209.92,235.54 209.872,235.48 L209.764,235.576 C209.836,235.648 209.86,235.684 209.872,235.744 C210.016,236.428 210.616,237.088 211.624,237.088 C212.176,237.088 212.692,236.812 213.004,236.32 L213.82,236.944 C213.34,237.688 212.536,238.144 211.624,238.144 Z M209.86,234.688 C209.908,234.64 209.944,234.64 210.052,234.64 L212.872,234.64 C212.98,234.64 213.016,234.64 213.064,234.688 L213.172,234.592 C213.088,234.508 213.004,234.424 212.98,234.34 C212.8,233.716 212.236,233.236 211.516,233.236 C210.664,233.236 210.16,233.776 209.968,234.34 C209.944,234.424 209.836,234.508 209.752,234.592 L209.86,234.688 Z M217.072,238.144 C216.256,238.144 215.476,237.88 214.888,237.448 L215.392,236.536 C215.92,236.944 216.568,237.124 217.096,237.124 C217.732,237.124 218.116,236.944 218.116,236.464 C218.116,235.204 215.164,236.068 215.164,233.86 C215.164,232.84 215.956,232.18 217.144,232.18 C217.912,232.18 218.644,232.408 219.124,232.804 L218.572,233.644 C218.116,233.32 217.66,233.2 217.192,233.2 C216.532,233.2 216.268,233.464 216.268,233.836 C216.268,234.952 219.244,234.196 219.244,236.368 C219.244,237.52 218.476,238.144 217.072,238.144 Z" id="Referrals---40%-of-h" fill="#FFFFFF"></path>
                <path d="M94.8903999,328 L94.8903997,318.752 C94.8903997,318.57104 94.9556797,318.49856 95.0270398,318.41488 L94.8830398,318.27456 C94.7993599,318.34592 94.6823999,318.42336 94.54096,318.42336 L91.16,318.42336 L91.16,316.672 L100.45104,316.672 L100.45104,318.42336 L97.0860801,318.42336 C96.9446401,318.42336 96.8276802,318.34592 96.7563201,318.27456 L96.6,318.41488 C96.6836799,318.49856 96.74896,318.57104 96.74896,318.752 L96.74896,328 L94.8903999,328 Z M103.35696,328.17968 C101.00736,328.17968 99.2830398,326.4 99.2830398,324.192 C99.2830398,322.00368 101.00736,320.22768 103.35696,320.22768 C105.72368,320.22768 107.41968,322.00368 107.41968,324.192 C107.41968,326.4 105.71136,328.17968 103.35696,328.17968 Z M103.35696,326.47632 C104.61712,326.47632 105.52672,325.49664 105.52672,324.192 C105.52672,322.91088 104.61712,321.93104 103.35696,321.93104 C102.10144,321.93104 101.176,322.91088 101.176,324.192 C101.176,325.49664 102.10144,326.47632 103.35696,326.47632 Z M109.71504,328 L109.71504,322.48624 C109.71504,322.32992 109.768,322.25728 109.864,322.16128 L109.70768,322.00864 C109.59936,322.11696 109.50704,322.16992 109.39008,322.16992 L108.15696,322.16992 L108.15696,320.4 L109.39008,320.4 C109.50704,320.4 109.59936,320.45296 109.70768,320.56128 L109.864,320.40864 C109.768,320.31264 109.71504,320.24 109.71504,320.08368 L109.71504,317.82768 L111.58336,317.82768 L111.58336,320.08368 C111.58336,320.24 111.5304,320.31264 111.4344,320.40864 L111.59072,320.56128 C111.69904,320.45296 111.79136,320.4 111.90832,320.4 L113.31504,320.4 L113.31504,322.16992 L111.90832,322.16992 C111.79136,322.16992 111.69904,322.11696 111.59072,322.00864 L111.4344,322.16128 C111.5304,322.25728 111.58336,322.32992 111.58336,322.48624 L111.58336,328 L109.71504,328 Z M117.87008,328.18096 C115.71376,328.18096 113.9944,326.38896 114.00672,324.208 C114.01904,321.95824 115.72112,320.25232 117.87008,320.22656 C118.84496,320.21536 119.58944,320.49968 120.20736,321.07456 L120.36736,320.92192 C120.248,320.80736 120.19136,320.67936 120.19136,320.52432 L120.19136,320.4 L122.05968,320.4 L122.05968,328 L120.17904,328 L120.17904,327.90768 C120.17904,327.68368 120.25168,327.60496 120.36736,327.4856 L120.20736,327.33296 C119.58944,327.88304 118.84496,328.18096 117.87008,328.18096 Z M118.08064,326.47632 C119.36176,326.47632 120.2504,325.504 120.2504,324.208 C120.2504,322.91936 119.36176,321.93104 118.08064,321.93104 C116.79696,321.93104 115.89968,322.94288 115.89968,324.208 C115.89968,325.49168 116.80432,326.47632 118.08064,326.47632 Z M124.15808,328 L124.15808,316.672 L126.0264,316.672 L126.0264,328 L124.15808,328 Z M134.29472,328.17968 C132.92368,328.17968 131.8344,327.69232 131.09968,327.15328 L131.98096,325.65424 C132.70944,326.25968 133.52432,326.54896 134.28976,326.54896 C135.07632,326.54896 135.45296,326.34592 135.45296,325.81664 C135.45296,324.50592 131.45536,325.43632 131.45536,322.57856 C131.45536,321.19392 132.58512,320.22768 134.34144,320.22768 C135.43936,320.22768 136.26768,320.47024 137.10464,321.072 L136.20864,322.46288 C135.53904,321.99392 134.85712,321.87088 134.33168,321.87088 C133.52544,321.87088 133.23504,322.14896 133.23504,322.5096 C133.23504,323.70224 137.24,322.85424 137.24,325.77488 C137.24,327.2 136.27744,328.17968 134.29472,328.17968 L134.29472,328.17968 Z M138.83008,328 L138.83008,316.672 L140.6984,316.672 L140.6984,320.49728 C140.6984,320.69296 140.62944,320.78768 140.51008,320.90224 L140.67008,321.05488 C141.12304,320.66592 141.71008,320.25232 142.7464,320.25232 C144.44368,320.25232 145.85776,321.24688 145.85776,323.63456 L145.85776,328 L143.98944,328 L143.98944,323.95456 C143.98944,322.58704 143.24976,322.03696 142.35136,322.03696 C141.44544,322.03696 140.6984,322.5896 140.6984,323.95568 L140.6984,328 L138.83008,328 Z M151.23008,328.18096 C149.07376,328.18096 147.3544,326.38896 147.36672,324.208 C147.37904,321.95824 149.08112,320.25232 151.23008,320.22656 C152.20496,320.21536 152.94944,320.49968 153.56736,321.07456 L153.72736,320.92192 C153.608,320.80736 153.55136,320.67936 153.55136,320.52432 L153.55136,320.4 L155.41968,320.4 L155.41968,328 L153.53904,328 L153.53904,327.90768 C153.53904,327.68368 153.61168,327.60496 153.72736,327.4856 L153.56736,327.33296 C152.94944,327.88304 152.20496,328.18096 151.23008,328.18096 Z M151.44064,326.47632 C152.72176,326.47632 153.6104,325.504 153.6104,324.208 C153.6104,322.91936 152.72176,321.93104 151.44064,321.93104 C150.15696,321.93104 149.25968,322.94288 149.25968,324.208 C149.25968,325.49168 150.16432,326.47632 151.44064,326.47632 Z M159.3864,328 L157.51808,328 L157.51808,320.4 L159.3864,320.4 L159.3864,320.64256 C159.3864,320.82096 159.31008,320.95264 159.19808,321.06832 L159.35808,321.22096 C160.0696,320.45152 160.64816,320.23104 161.46624,320.23104 C161.58672,320.23104 161.70672,320.24736 161.77776,320.26832 L161.77776,322.19088 C161.6104,322.14656 161.4344,322.11824 161.06512,322.11824 C159.94144,322.11824 159.3864,322.9096 159.3864,323.97056 L159.3864,328 Z M166.415361,328.17968 C164.030081,328.17968 162.42272,326.51824 162.42272,324.24864 C162.42272,321.99024 164.104,320.22768 166.27872,320.22768 C168.516321,320.22768 169.93296,321.9336 169.93296,324.22032 C169.93296,324.42832 169.91696,324.6376 169.88864,324.82224 L164.7304,324.82224 C164.55696,324.82224 164.47568,324.75696 164.43632,324.68928 L164.28,324.86656 C164.33904,324.9256 164.42032,325.01056 164.43632,325.06592 C164.73904,325.95328 165.31744,326.51328 166.46464,326.51328 C167.12672,326.51328 167.65472,326.29296 168.18144,325.63696 L169.38032,326.71504 C168.6664,327.65792 167.63136,328.17968 166.41536,328.17968 L166.415361,328.17968 Z M164.48176,323.55936 C164.558081,323.48304 164.618401,323.43392 164.787041,323.43392 L167.66096,323.43392 C167.82944,323.43392 167.88976,323.48304 167.9784,323.55936 L168.13472,323.40688 C168.02272,323.30704 167.972321,323.24432 167.940321,323.13232 C167.712641,322.38656 167.046721,321.88192 166.259041,321.88192 C165.467681,321.88192 164.808001,322.34336 164.539681,323.13232 C164.495361,323.24432 164.437441,323.30704 164.313121,323.40688 L164.48176,323.55936 Z M178.62096,328.17968 C176.27136,328.17968 174.54704,326.4 174.54704,324.192 C174.54704,322.00368 176.27136,320.22768 178.62096,320.22768 C180.98768,320.22768 182.68368,322.00368 182.68368,324.192 C182.68368,326.4 180.97536,328.17968 178.62096,328.17968 Z M178.62096,326.47632 C179.88112,326.47632 180.79072,325.49664 180.79072,324.192 C180.79072,322.91088 179.88112,321.93104 178.62096,321.93104 C177.36544,321.93104 176.44,322.91088 176.44,324.192 C176.44,325.49664 177.36544,326.47632 178.62096,326.47632 Z M184.75008,328 L184.75008,322.48624 C184.75008,322.32992 184.80304,322.25728 184.89904,322.16128 L184.74272,322.00864 C184.6344,322.11696 184.54208,322.16992 184.42512,322.16992 L183.5784,322.16992 L183.5784,320.4 L184.42512,320.4 C184.54208,320.4 184.6344,320.45296 184.74272,320.561281 L184.89904,320.408641 C184.80304,320.312641 184.75008,320.240001 184.75008,320.083681 L184.75008,319.692321 C184.75008,318.060321 185.7864,316.579681 187.73968,316.579681 C188.01664,316.579681 188.24432,316.592001 188.50032,316.648641 L188.50032,318.375361 L188.46096,318.375361 C188.40176,318.375361 188.23808,318.347041 187.9784,318.347041 C187.032,318.347041 186.6184,318.94768 186.6184,319.7256 L186.6184,320.08368 C186.6184,320.24 186.56544,320.31264 186.46944,320.40864 L186.62576,320.56128 C186.73408,320.45296 186.8264,320.4 186.94336,320.4 L188.344,320.4 L188.344,322.16992 L186.94336,322.16992 C186.8264,322.16992 186.73408,322.11696 186.62576,322.00864 L186.46944,322.16128 C186.56544,322.25728 186.6184,322.32992 186.6184,322.48624 L186.6184,328 L184.75008,328 Z M193.21408,328 L193.21408,316.672 L195.0824,316.672 L195.0824,320.49728 C195.0824,320.69296 195.01344,320.78768 194.89408,320.90224 L195.05408,321.05488 C195.50704,320.66592 196.09408,320.25232 197.1304,320.25232 C198.82768,320.25232 200.24176,321.24688 200.24176,323.63456 L200.24176,328 L198.37344,328 L198.37344,323.95456 C198.37344,322.58704 197.63376,322.03696 196.73536,322.03696 C195.82944,322.03696 195.0824,322.5896 195.0824,323.95568 L195.0824,328 L193.21408,328 Z M203.1784,318.77168 C202.50768,318.77168 201.98944,318.2536 201.98944,317.58288 C201.98944,316.912 202.50768,316.40992 203.1784,316.40992 C203.84912,316.40992 204.35136,316.912 204.35136,317.58288 C204.35136,318.2536 203.84912,318.77168 203.1784,318.77168 Z M204.1064,328 L202.23808,328 L202.23808,320.4 L204.1064,320.4 L204.1064,328 Z M208.0744,328 L206.20608,328 L206.20608,320.4 L208.0744,320.4 L208.0744,320.64256 C208.0744,320.82096 207.99808,320.95264 207.88608,321.06832 L208.04608,321.22096 C208.7576,320.45152 209.33616,320.23104 210.15424,320.23104 C210.27472,320.23104 210.39472,320.24736 210.46576,320.26832 L210.46576,322.19088 C210.2984,322.14656 210.1224,322.11824 209.75312,322.11824 C208.62944,322.11824 208.0744,322.9096 208.0744,323.97056 L208.0744,328 Z M215.103361,328.17968 C212.718081,328.17968 211.11072,326.51824 211.11072,324.24864 C211.11072,321.99024 212.792,320.22768 214.96672,320.22768 C217.204321,320.22768 218.62096,321.9336 218.62096,324.22032 C218.62096,324.42832 218.60496,324.6376 218.57664,324.82224 L213.4184,324.82224 C213.24496,324.82224 213.16368,324.75696 213.12432,324.68928 L212.968,324.86656 C213.02704,324.9256 213.10832,325.01056 213.12432,325.06592 C213.42704,325.95328 214.00544,326.51328 215.15264,326.51328 C215.81472,326.51328 216.34272,326.29296 216.86944,325.63696 L218.06832,326.71504 C217.3544,327.65792 216.31936,328.17968 215.10336,328.17968 L215.103361,328.17968 Z M213.16976,323.55936 C213.246081,323.48304 213.306401,323.43392 213.475041,323.43392 L216.34896,323.43392 C216.51744,323.43392 216.57776,323.48304 216.6664,323.55936 L216.82272,323.40688 C216.71072,323.30704 216.660321,323.24432 216.628321,323.13232 C216.400641,322.38656 215.734721,321.88192 214.947041,321.88192 C214.155681,321.88192 213.496001,322.34336 213.227681,323.13232 C213.183361,323.24432 213.125441,323.30704 213.001121,323.40688 L213.16976,323.55936 Z M222.66272,328.17968 C221.29168,328.17968 220.2024,327.69232 219.46768,327.15328 L220.34896,325.65424 C221.07744,326.25968 221.89232,326.54896 222.65776,326.54896 C223.44432,326.54896 223.82096,326.34592 223.82096,325.81664 C223.82096,324.50592 219.82336,325.43632 219.82336,322.57856 C219.82336,321.19392 220.95312,320.22768 222.70944,320.22768 C223.80736,320.22768 224.63568,320.47024 225.47264,321.072 L224.57664,322.46288 C223.90704,321.99392 223.22512,321.87088 222.69968,321.87088 C221.89344,321.87088 221.60304,322.14896 221.60304,322.5096 C221.60304,323.70224 225.608,322.85424 225.608,325.77488 C225.608,327.2 224.64544,328.17968 222.66272,328.17968 L222.66272,328.17968 Z" id="Total-share-of-hires" fill="#E35205"></path>
            </g>
        </g>
    </g>
</svg>