<?xml version="1.0" encoding="UTF-8"?>
<svg width="356px" height="384px" viewBox="0 0 356 384" version="1.1" xmlns="http://www.w3.org/2000/svg" xmlns:xlink="http://www.w3.org/1999/xlink">
    <!-- Generator: Sketch 49.3 (51167) - http://www.bohemiancoding.com/sketch -->
    <title>ok-hand</title>
    <desc>Created with Sketch.</desc>
    <defs>
        <polygon id="path-1" points="340.00049 376.19 0.0737403595 376.19 0.0737403595 0.600033564 340.00049 0.600033564 340.00049 376.19"></polygon>
        <polygon id="path-3" points="252.658716 201.19 0.204824505 201.19 0.204824505 0.738790382 252.658716 0.738790382 252.658716 201.19"></polygon>
        <polygon id="path-5" points="242.871027 205.19 0.17824979 205.19 0.17824979 0.696493106 242.871027 0.696493106 242.871027 205.19"></polygon>
        <polygon id="path-7" points="10.2966038 9.19 0.609258672 9.19 0.609258672 0.699814198 10.2966038 0.699814198 10.2966038 9.19"></polygon>
    </defs>
    <g id="Screens" stroke="none" stroke-width="1" fill="none" fill-rule="evenodd">
        <g id="hirer-updated" transform="translate(-893.000000, -5733.000000)">
            <g id="ok-hand" transform="translate(887.000000, 5733.000000)">
                <g id="Group-3" transform="translate(0.000000, 7.637000)">
                    <mask id="mask-2" fill="white">
                        <use xlink:href="#path-1"></use>
                    </mask>
                    <g id="Clip-2"></g>
                    <path d="M322.8529,76.517 C322.1879,75.455 321.5279,74.394 321.0379,73.238 C320.6869,72.411 320.4399,71.404 319.7629,70.777 C319.3469,70.392 319.2799,69.691 319.5609,69.214 C319.6949,68.997 319.8199,68.775 319.9359,68.548 C320.6999,67.127 322.8089,68.313 322.2169,69.72 C322.6199,70.326 322.8989,71.009 323.1769,71.689 C323.6889,72.939 324.3649,74.072 325.0799,75.214 C325.9639,76.627 323.7309,77.92 322.8529,76.517 M310.1749,85.913 C308.9089,86.847 307.5309,87.511 306.1029,88.062 C302.7229,88.26 299.4439,87.669 296.2259,86.347 C293.1139,85.069 290.1949,83.568 286.7219,83.892 C286.3269,83.929 285.9489,83.993 285.5839,84.078 C285.6169,83.82 285.6549,83.56 285.7109,83.302 C286.2339,80.89 287.8829,78.896 288.5489,76.523 C288.7639,75.762 288.8449,74.932 288.8049,74.104 C291.7659,72.557 294.5759,70.765 296.9659,68.415 C300.1349,68.494 303.8199,69.413 306.5859,68.812 C309.9969,72.462 313.9729,75.542 318.3649,77.929 C315.8189,80.81 313.1919,83.689 310.1749,85.913 M336.0049,60.888 C330.4479,60.713 326.8109,64.472 323.3519,68.251 C321.0939,64.589 318.7969,60.574 314.8779,58.8 C313.7119,58.273 312.5189,57.787 311.3149,57.318 C311.0919,57.136 310.8369,56.968 310.5459,56.82 C306.0319,54.517 301.0399,51.971 295.8749,51.962 C295.4869,51.819 295.0689,51.711 294.5929,51.689 C290.4089,51.492 287.2109,54.591 283.9769,56.872 C281.7969,58.41 279.6169,59.947 277.4359,61.485 C277.7709,57.278 277.6639,52.902 277.4099,48.877 C277.2379,46.168 276.4069,43.826 275.3319,41.579 C278.6549,37.017 280.8229,30.682 279.9109,25.232 C282.7539,16.867 288.1429,6.915 278.6689,1.322 C278.6409,1.304 278.6129,1.297 278.5849,1.283 C277.7819,0.392 276.1589,0.272 275.3299,1.531 C275.0469,1.96 274.7639,2.389 274.4809,2.818 C274.0179,3.522 274.0799,4.206 274.4149,4.74 C274.1669,5.693 273.9179,6.647 273.6699,7.601 C273.4799,7.806 273.3239,8.063 273.2219,8.382 C271.9549,12.507 270.5369,16.572 268.9759,20.585 C268.8449,20.076 268.6919,19.57 268.5139,19.067 C268.6599,18.61 268.6179,18.078 268.2839,17.527 C267.4219,16.103 266.4659,14.763 265.4649,13.449 C265.0819,12.921 264.6839,12.396 264.2499,11.871 C263.8319,11.361 263.3359,11.172 262.8569,11.201 C261.6629,10.631 259.9019,11.195 259.9299,12.912 C259.9309,12.917 259.9299,12.924 259.9299,12.924 C259.8489,13.298 259.7779,13.667 259.7069,14.035 C259.0269,16.027 258.7649,17.98 258.8699,20.107 C257.1689,20.605 255.6689,22.203 255.6459,24.021 C255.5639,30.347 251.8469,36.027 251.3269,42.376 C251.2999,42.703 251.3299,43.005 251.3839,43.296 C251.1009,44.913 251.0009,46.568 251.1549,48.279 C249.6489,47.021 247.8329,46.148 246.0659,45.331 C245.2919,44.972 244.4579,44.82 243.6589,44.878 C242.0529,44.587 240.1699,45.398 239.4269,46.805 C238.5649,48.435 238.8349,50.099 239.8889,51.367 C240.0539,51.677 240.2399,51.982 240.4699,52.263 C241.8419,53.942 242.9589,55.822 244.2589,57.567 C244.2709,57.612 244.2719,57.653 244.2849,57.699 C246.7909,66.648 248.9439,75.757 251.5219,84.702 C251.5309,87.701 251.4379,90.707 251.9399,93.691 C252.7409,98.454 254.8899,102.841 256.8129,107.236 C258.5499,111.205 260.3789,115.343 261.7949,119.589 C262.4909,130.407 261.2469,141.068 258.0749,151.398 C257.9969,151.632 257.9159,151.865 257.8379,152.099 C252.2799,161.085 245.2559,168.924 236.8749,175.622 C224.8659,185.22 213.4839,195.531 201.9669,205.71 C201.1979,206.389 200.8769,207.167 200.8539,207.933 C200.5979,208.105 200.3409,208.279 200.0839,208.451 C195.4969,211.539 190.4999,214.384 186.3499,218.066 C184.4479,219.752 182.9559,221.723 181.4249,223.663 C181.3949,223.683 181.3669,223.693 181.3369,223.713 C169.2509,232.201 157.8749,241.619 146.2569,250.718 C142.1769,253.345 138.2199,256.175 134.3889,259.221 C133.9089,259.603 133.5989,260.024 133.4089,260.458 C132.6979,260.978 131.9889,261.499 131.2769,262.017 C124.2729,266.29 118.5369,273.148 112.7979,278.781 C105.6839,285.763 98.7029,292.876 92.0069,300.263 C82.0899,309.079 70.8669,317.74 63.4689,328.749 C63.3659,328.826 63.2609,328.886 63.1619,328.978 L47.2339,343.454 C46.7149,343.571 46.1979,343.798 45.7099,344.19 C42.1199,347.076 38.5289,349.96 34.9379,352.847 C29.4179,356.747 23.9229,360.673 19.1539,365.531 C19.0229,365.665 18.9249,365.803 18.8189,365.941 C18.4949,366.089 18.1739,366.275 17.8669,366.544 L2.3259,380.204 C1.4399,380.982 1.1839,381.997 1.3379,382.976 C0.1769,383.951 -0.4111,385.574 0.5699,387.273 C3.0649,391.593 6.7369,394.533 10.6339,397.534 C16.0109,401.673 20.0939,406.493 23.7989,412.176 C25.4399,414.695 27.1379,417.308 28.1759,420.148 C29.5259,423.841 28.9229,426.851 28.3269,430.595 C27.8949,433.304 28.1449,435.826 29.3619,437.912 C29.6079,439.603 30.9539,441.107 32.6329,441.094 C34.9569,442.312 37.0899,440.481 37.4329,438.355 C44.5359,432.964 50.5259,426.337 57.4519,420.703 C65.9369,413.8 74.8699,407.687 83.0839,400.407 C86.8669,397.054 90.1319,393.507 93.1749,389.48 C96.5319,385.037 100.5999,381.496 104.6089,377.67 C110.5899,371.964 116.0889,365.812 121.1839,359.322 C124.2909,356.622 127.2109,353.716 129.9139,350.542 C130.2949,350.095 130.5399,349.624 130.6829,349.152 C131.1259,348.99 131.5629,348.723 131.9719,348.316 C134.4349,345.859 136.8959,343.402 139.3589,340.945 C141.5269,339.035 143.5579,337.02 145.4779,334.839 C145.7199,334.565 145.8929,334.28 146.0369,333.992 C149.9199,330.261 153.9259,326.66 157.9539,323.072 C158.7919,322.326 159.1239,321.484 159.1059,320.678 C160.4659,319.398 161.8179,318.108 163.1579,316.804 C163.4169,316.552 163.6089,316.289 163.7709,316.024 C164.3379,315.497 164.8839,314.949 165.4359,314.351 C165.6699,314.097 165.8439,313.833 165.9899,313.566 C169.5329,310.5 173.0749,307.435 176.6169,304.369 C177.2269,303.84 177.5319,303.199 177.6239,302.535 C177.7289,302.449 177.8369,302.378 177.9389,302.276 C189.7309,290.476 202.8719,279.161 213.2689,266.097 C219.9569,257.695 227.9089,249.996 234.4189,241.363 L251.4229,221.576 C255.7129,216.581 260.3319,211.726 263.1289,205.79 C265.3169,203.204 267.5109,200.621 269.6849,198.022 C273.0329,194.021 276.3619,190.005 279.6629,185.966 C281.2009,184.083 282.8069,182.36 284.0499,180.456 C284.6599,180.348 285.2409,179.996 285.6609,179.319 C287.7839,175.904 289.7459,172.413 291.5729,168.857 C291.9139,168.656 292.2059,168.349 292.3949,167.902 L295.0059,161.738 C295.9919,159.547 296.9319,157.333 297.8199,155.091 C298.0709,154.459 297.9919,153.87 297.7209,153.372 L300.3189,146.236 C301.9049,143.271 303.4579,140.289 304.7409,137.18 C306.4829,135.066 308.7619,133.726 310.8399,131.705 C313.4269,129.187 314.8789,125.937 316.2699,122.662 C318.5929,117.187 320.1269,111.568 321.0489,105.777 C323.1939,103.124 324.8959,100.089 326.6999,97.214 C329.5679,92.644 332.4359,88.072 335.3039,83.499 C335.7159,82.843 335.9359,82.195 336.0299,81.569 C336.7509,79.644 337.0349,77.599 337.1369,75.473 C337.3039,71.984 337.7029,69.941 339.4589,66.908 C341.0159,64.22 339.0159,60.984 336.0049,60.888" id="Fill-1" fill="#D6906D" mask="url(#mask-2)"></path>
                </g>
                <path d="M285.9008,92.5553 C291.1488,91.2943 294.8778,96.2803 299.8558,96.9403 C302.2778,97.2613 304.8218,97.0993 306.9338,98.4933 C309.6498,100.2863 311.8128,102.9683 313.9168,105.4113 C314.3378,105.9003 315.0418,105.1903 314.6238,104.7043 C312.5328,102.2773 310.4128,99.7613 307.7928,97.8803 C305.7078,96.3853 303.4088,96.3053 300.9288,96.0553 C295.4308,95.5013 291.3778,90.2113 285.6348,91.5913 C285.0088,91.7423 285.2748,92.7053 285.9008,92.5553" id="Fill-4" fill="#1D1E1B"></path>
                <path d="M305.2343,97.0055 C307.0933,96.9095 308.2403,96.0915 309.9293,95.4915 C311.7463,94.8465 312.4203,95.3625 314.0133,95.9075 C314.6863,96.1395 315.1503,96.1855 315.8573,96.0735 C316.4913,95.9745 316.2223,95.0105 315.5913,95.1095 C313.9113,95.3735 312.5803,93.6955 310.8253,94.0655 C308.8293,94.4845 307.3783,95.8955 305.2343,96.0055 C304.5943,96.0375 304.5903,97.0375 305.2343,97.0055" id="Fill-6" fill="#1D1E1B"></path>
                <path d="M310.4701,95.1784 C312.1781,94.2284 313.7431,93.0764 315.0991,91.6634 C316.5581,90.1454 317.5851,88.2144 319.3581,87.0204 C319.8881,86.6624 319.3891,85.7964 318.8531,86.1574 C317.3161,87.1924 316.3711,88.6694 315.1951,90.0634 C313.7231,91.8084 311.9561,93.2064 309.9651,94.3154 C309.4031,94.6284 309.9071,95.4924 310.4701,95.1784" id="Fill-8" fill="#1D1E1B"></path>
                <path d="M323.3544,77.6364 C324.4234,75.2804 327.4384,73.0354 329.5214,71.6224 C331.5384,70.2544 336.0244,67.9784 338.2664,70.1344 C338.6174,71.1044 338.9674,72.0744 339.3184,73.0444 C339.1134,73.5044 338.9094,73.9654 338.7044,74.4254 C338.3134,75.1744 337.8204,75.8634 337.4364,76.6164 C336.9624,77.5434 336.5874,78.5214 336.3114,79.5244 C335.4404,82.6834 335.9304,85.9634 335.4204,89.1714 C335.3214,89.8014 336.2844,90.0724 336.3854,89.4374 C336.7414,87.1914 336.5994,84.9504 336.7814,82.6934 C337.0214,79.7104 338.2234,77.5224 339.5674,74.9304 C340.7484,72.6544 340.7984,70.2334 338.2234,68.9714 C335.6854,67.7284 332.6224,68.6674 330.3064,69.9554 C327.5544,71.4864 323.8154,74.2114 322.4904,77.1314 C322.2274,77.7134 323.0884,78.2224 323.3544,77.6364" id="Fill-10" fill="#1D1E1B"></path>
                <path d="M304.7216,145.5202 C306.1386,142.5752 308.7276,140.7292 311.0706,138.5732 C313.1966,136.6152 314.6736,134.4362 315.6066,131.6922 C316.7346,128.3752 317.8276,125.1362 319.0856,121.8652 C320.3946,118.4592 320.2286,114.9992 319.9146,111.4232 C319.8596,110.7872 318.8586,110.7812 318.9146,111.4232 C319.2756,115.5332 319.2086,119.1272 317.5346,122.9662 C316.3286,125.7312 315.6166,128.5822 314.6426,131.4252 C313.4896,134.7912 311.4016,136.9702 308.7916,139.2492 C306.8376,140.9562 304.9986,142.6442 303.8586,145.0152 C303.5806,145.5922 304.4426,146.1002 304.7216,145.5202" id="Fill-12" fill="#1D1E1B"></path>
                <path d="M320.057,116.4596 C324.652,107.5216 330.46,99.2626 336.101,90.9516 C336.464,90.4176 335.598,89.9166 335.238,90.4466 C329.597,98.7576 323.788,107.0166 319.194,115.9546 C318.9,116.5256 319.763,117.0316 320.057,116.4596" id="Fill-14" fill="#1D1E1B"></path>
                <path d="M301.5238,140.7467 C299.8028,132.3477 295.5398,126.0457 289.2568,120.3877 C281.5648,113.4587 275.0818,104.4467 271.9498,94.5047 C271.7568,93.8927 270.7908,94.1537 270.9848,94.7697 C273.8898,103.9897 279.6948,112.7107 286.6638,119.3707 C289.3508,121.9387 292.2008,124.2827 294.5028,127.2277 C297.6708,131.2807 299.5318,135.9997 300.5598,141.0137 C300.6888,141.6427 301.6528,141.3767 301.5238,140.7467" id="Fill-16" fill="#1D1E1B"></path>
                <path d="M289.2523,115.6911 C285.3353,109.7481 281.9383,103.5401 279.9973,96.6531 C278.1663,90.1571 278.0493,83.0921 274.5923,77.1441 C274.2693,76.5881 273.4043,77.0901 273.7293,77.6491 C277.3913,83.9501 277.3523,91.6361 279.4973,98.4801 C281.4933,104.8481 284.7313,110.6451 288.3883,116.1961 C288.7413,116.7311 289.6073,116.2311 289.2523,115.6911" id="Fill-18" fill="#1D1E1B"></path>
                <path d="M289.4511,95.9665 C287.4291,96.2595 284.8021,96.3615 283.7261,94.2545 C282.7181,92.2825 282.9401,89.4535 283.2891,87.3435 C283.3941,86.7135 282.4301,86.4435 282.3261,87.0775 C281.9081,89.5935 281.5501,93.4725 283.3731,95.5805 C284.9181,97.3675 287.6001,97.2375 289.7171,96.9315 C290.3511,96.8395 290.0821,95.8755 289.4511,95.9665" id="Fill-20" fill="#1D1E1B"></path>
                <path d="M285.9574,94.2448 C284.9934,89.1808 290.3184,85.4388 289.2794,80.2618 C289.1534,79.6318 288.1894,79.8978 288.3154,80.5268 C289.3304,85.5858 284.0094,89.3438 284.9934,94.5108 C285.1134,95.1418 286.0774,94.8748 285.9574,94.2448" id="Fill-22" fill="#1D1E1B"></path>
                <path d="M286.8773,78.5739 C284.8023,76.2739 282.3413,74.4399 279.5423,73.1139 C278.9633,72.8399 278.4553,73.7019 279.0373,73.9769 C281.7633,75.2689 284.1483,77.0409 286.1703,79.2809 C286.6023,79.7599 287.3073,79.0509 286.8773,78.5739" id="Fill-24" fill="#1D1E1B"></path>
                <path d="M289.5302,82.3971 C293.0642,80.6931 295.8782,77.9171 297.6342,74.4091 C297.9212,73.8351 297.0592,73.3281 296.7702,73.9041 C295.0832,77.2761 292.4212,79.8961 289.0252,81.5341 C288.4462,81.8131 288.9522,82.6751 289.5302,82.3971" id="Fill-26" fill="#1D1E1B"></path>
                <path d="M296.4833,72.4977 C296.1603,70.8767 295.2383,69.5137 293.8973,68.5597 C293.3713,68.1857 292.8713,69.0537 293.3923,69.4237 C294.5243,70.2267 295.2493,71.4087 295.5193,72.7637 C295.6443,73.3937 296.6083,73.1277 296.4833,72.4977" id="Fill-28" fill="#1D1E1B"></path>
                <path d="M296.9325,75.4186 C299.8275,74.9516 302.3075,77.1236 305.2105,76.7616 C307.2865,76.5016 308.9375,75.2626 310.0355,73.5286 C310.3805,72.9836 309.5155,72.4816 309.1715,73.0236 C307.3385,75.9186 304.4155,76.1386 301.4045,75.1246 C299.7775,74.5766 298.3845,74.1776 296.6665,74.4536 C296.0335,74.5566 296.3025,75.5206 296.9325,75.4186" id="Fill-30" fill="#1D1E1B"></path>
                <path d="M307.62,75.5104 C308.713,79.4794 311.66,82.2434 315.089,84.3314 C318.73,86.5484 322.063,88.2464 326.119,86.0524 C326.684,85.7454 326.18,84.8814 325.614,85.1884 C321.762,87.2734 318.207,85.1724 314.897,83.0334 C311.968,81.1414 309.531,78.6804 308.584,75.2444 C308.413,74.6244 307.449,74.8884 307.62,75.5104" id="Fill-32" fill="#1D1E1B"></path>
                <path d="M325.8881,84.4215 C323.7211,79.1395 321.5541,73.8575 319.3861,68.5745 C319.1451,67.9865 318.1771,68.2445 318.4221,68.8405 C320.5891,74.1225 322.7561,79.4045 324.9241,84.6885 C325.1651,85.2755 326.1331,85.0185 325.8881,84.4215" id="Fill-34" fill="#1D1E1B"></path>
                <path d="M288.205,62.5592 C290.676,60.5022 292.906,59.0582 296.246,59.8302 C298.519,60.3562 300.771,61.2142 302.962,62.0072 C307.708,63.7262 312.307,65.7972 316.769,68.1542 C317.338,68.4552 317.844,67.5912 317.274,67.2902 C311.941,64.4742 306.406,62.0712 300.685,60.1592 C298.402,59.3962 295.763,58.2212 293.299,58.5802 C291.038,58.9082 289.195,60.4392 287.498,61.8522 C287.003,62.2642 287.714,62.9682 288.205,62.5592" id="Fill-36" fill="#1D1E1B"></path>
                <path d="M277.9037,70.529 C281.1897,68.684 284.1957,66.454 286.9177,63.849 C287.3837,63.403 286.6757,62.697 286.2107,63.142 C283.5497,65.688 280.6107,67.863 277.3997,69.666 C276.8377,69.981 277.3417,70.845 277.9037,70.529" id="Fill-38" fill="#1D1E1B"></path>
                <path d="M279.3564,78.0856 C277.0514,72.4626 277.2754,67.3046 278.1404,61.4276 C278.7424,57.3396 277.6764,53.6096 275.9504,49.9126 C275.6784,49.3296 274.8154,49.8376 275.0864,50.4176 C276.0524,52.4856 276.9164,54.7306 277.2524,57.0036 C277.6524,59.7186 276.8934,62.3376 276.5494,65.0096 C275.9614,69.5736 276.6524,74.1066 278.3924,78.3516 C278.6334,78.9396 279.6014,78.6816 279.3564,78.0856" id="Fill-40" fill="#1D1E1B"></path>
                <path d="M276.0009,50.2975 C276.6919,46.8675 279.2259,44.2945 280.2719,40.9985 C281.3429,37.6265 281.0449,34.0545 280.3509,30.6405 C280.2229,30.0105 279.2589,30.2765 279.3869,30.9055 C280.2109,34.9615 280.3429,39.0905 278.4129,42.8665 C277.1879,45.2625 275.5789,47.3435 275.0369,50.0315 C274.9099,50.6605 275.8739,50.9295 276.0009,50.2975" id="Fill-42" fill="#1D1E1B"></path>
                <path d="M280.4716,30.7506 C280.6516,28.0176 282.3406,25.9256 283.3786,23.4886 C284.3566,21.1936 284.5156,18.6736 284.2266,16.2106 C283.7476,12.1186 280.5006,8.5306 276.4006,7.7856 C275.7716,7.6716 275.5016,8.6356 276.1346,8.7506 C281.7066,9.7626 283.8826,15.1676 283.2186,20.2716 C282.7256,24.0636 279.7246,26.8926 279.4716,30.7506 C279.4296,31.3936 280.4296,31.3916 280.4716,30.7506" id="Fill-44" fill="#1D1E1B"></path>
                <path d="M269.7333,28.488 C271.7123,22.156 273.6903,15.824 275.6683,9.492 C275.8603,8.877 274.8963,8.613 274.7043,9.226 L268.7693,28.222 C268.5763,28.838 269.5423,29.101 269.7333,28.488" id="Fill-46" fill="#1D1E1B"></path>
                <path d="M271.7797,78.8649 C268.3867,75.3749 269.7607,70.3329 268.8207,66.0109 C268.1327,62.8459 266.3477,60.1329 263.8787,58.0709 C263.3877,57.6619 262.6767,58.3649 263.1717,58.7779 C267.0077,61.9799 268.0697,65.9429 268.2657,70.7919 C268.3967,74.0229 268.7187,77.1509 271.0727,79.5729 C271.5217,80.0349 272.2287,79.3279 271.7797,78.8649" id="Fill-48" fill="#1D1E1B"></path>
                <path d="M266.0004,60.1403 C265.0534,56.5243 267.2664,52.6823 267.1694,48.9573 C267.0864,45.7473 266.1494,42.6983 264.5664,39.9183 C264.2474,39.3593 263.3834,39.8633 263.7024,40.4233 C265.6634,43.8643 266.5474,47.7493 266.0154,51.6963 C265.6114,54.6953 264.2364,57.3543 265.0364,60.4063 C265.1984,61.0283 266.1634,60.7643 266.0004,60.1403" id="Fill-50" fill="#1D1E1B"></path>
                <path d="M265.7939,42.318 C264.9209,39.015 268.7189,36.225 269.4439,33.1 C270.0389,30.538 269.6769,27.844 268.6879,25.429 C267.0429,21.413 263.4649,16.578 258.5989,17.234 C257.9639,17.319 258.2339,18.283 258.8639,18.198 C264.7089,17.41 268.9629,26.077 268.7219,30.906 C268.5729,33.883 267.0589,35.762 265.6229,38.199 C264.7689,39.646 264.3959,40.942 264.8299,42.584 C264.9939,43.205 265.9589,42.941 265.7939,42.318" id="Fill-52" fill="#1D1E1B"></path>
                <path d="M274.0512,49.7839 C272.9602,49.9369 271.8682,50.0899 270.7772,50.2419 C270.1422,50.3309 270.4122,51.2949 271.0432,51.2059 C272.1342,51.0539 273.2252,50.9009 274.3172,50.7489 C274.9512,50.6599 274.6812,49.6959 274.0512,49.7839" id="Fill-54" fill="#1D1E1B"></path>
                <path d="M269.3232,31.2672 C271.2932,31.5072 273.2552,31.5322 275.2292,31.3392 C275.8642,31.2782 275.8702,30.2772 275.2292,30.3392 C273.2552,30.5322 271.2932,30.5072 269.3232,30.2672 C268.6862,30.1892 268.6922,31.1902 269.3232,31.2672" id="Fill-56" fill="#1D1E1B"></path>
                <path d="M277.8422,30.9167 C277.0052,31.3537 276.1252,31.6297 275.1932,31.7717 C274.5582,31.8697 274.8282,32.8337 275.4582,32.7367 C276.4752,32.5807 277.4352,32.2557 278.3462,31.7807 C278.9182,31.4827 278.4132,30.6197 277.8422,30.9167" id="Fill-58" fill="#1D1E1B"></path>
                <path d="M251.7421,54.9616 C250.9711,51.6416 251.9771,48.5176 253.0551,45.3956 C253.9851,42.7016 254.7631,40.0376 255.2201,37.2196 C256.1581,31.4286 256.7501,25.5676 257.4901,19.7496 C257.5711,19.1126 256.5701,19.1186 256.4901,19.7496 C255.6511,26.3496 255.1921,33.1556 253.7461,39.6526 C252.5941,44.8326 249.5141,49.7846 250.7781,55.2276 C250.9241,55.8546 251.8881,55.5886 251.7421,54.9616" id="Fill-60" fill="#1D1E1B"></path>
                <path d="M256.3158,29.1247 C256.9228,29.0687 257.5488,29.0927 258.1148,28.8277 C258.8458,28.4847 259.1308,27.7717 259.1318,26.9997 C259.1338,26.3557 258.1338,26.3547 258.1318,26.9997 C258.1298,28.1297 257.1788,28.0457 256.3158,28.1247 C255.6798,28.1837 255.6738,29.1847 256.3158,29.1247" id="Fill-62" fill="#1D1E1B"></path>
                <path d="M259.2919,19.9303 C258.4029,22.2083 258.0209,24.5583 258.1319,26.9993 C258.1619,27.6403 259.1619,27.6443 259.1319,26.9993 C259.0249,24.6443 259.3999,22.3903 260.2559,20.1973 C260.4899,19.5963 259.5239,19.3363 259.2919,19.9303" id="Fill-64" fill="#1D1E1B"></path>
                <path d="M254.6034,66.5622 C255.0304,69.4872 256.9244,71.5812 258.7244,73.7962 C261.1324,76.7632 261.8804,79.8952 262.9194,83.4782 C263.0984,84.0952 264.0634,83.8332 263.8834,83.2122 C263.0434,80.3162 262.5134,77.2942 260.7484,74.7902 C258.8094,72.0402 256.0794,69.7982 255.5674,66.2962 C255.4754,65.6622 254.5114,65.9312 254.6034,66.5622" id="Fill-66" fill="#1D1E1B"></path>
                <path d="M262.8583,83.2516 C263.8063,86.6546 265.9313,89.4826 268.9303,91.3486 C269.4783,91.6896 269.9813,90.8246 269.4353,90.4846 C266.6533,88.7546 264.7013,86.1416 263.8223,82.9856 C263.6503,82.3666 262.6853,82.6306 262.8583,83.2516" id="Fill-68" fill="#1D1E1B"></path>
                <path d="M239.2934,53.6618 C242.2874,52.5838 247.4384,54.0048 249.7014,56.1698 C252.1984,58.5588 253.1184,62.5568 254.2774,65.6928 C254.4994,66.2918 255.4654,66.0328 255.2424,65.4278 C253.9454,61.9208 252.8934,57.3578 249.7924,54.9278 C247.1954,52.8918 242.2044,51.5538 239.0274,52.6978 C238.4264,52.9138 238.6854,53.8808 239.2934,53.6618" id="Fill-70" fill="#1D1E1B"></path>
                <path d="M238.8637,56.0524 C239.3137,58.8304 240.8857,61.0254 242.2287,63.4364 C243.8487,66.3494 244.7777,69.5374 245.5057,72.7734 C246.8177,78.6124 247.5677,84.5904 250.5247,89.8964 C250.8387,90.4584 251.7017,89.9544 251.3877,89.3914 C248.3417,83.9244 247.6997,77.7104 246.2887,71.7154 C245.6637,69.0614 244.8717,66.4294 243.6527,63.9834 C242.2877,61.2464 240.3287,58.8834 239.8277,55.7864 C239.7257,55.1534 238.7617,55.4214 238.8637,56.0524" id="Fill-72" fill="#1D1E1B"></path>
                <path d="M251.8319,93.4889 C252.0509,97.3069 252.6289,101.0729 253.6289,104.7669 C254.6859,108.6689 256.3699,112.2849 257.7369,116.0739 C260.5109,123.7599 263.6639,132.6539 262.4329,140.8959 C260.2999,155.1679 254.1439,169.9469 243.0059,179.4679 C242.5159,179.8869 243.2259,180.5929 243.7129,180.1759 C254.8129,170.6859 260.8349,156.2219 263.2489,142.0719 C264.6309,133.9679 262.0989,126.1839 259.6229,118.5199 C258.3189,114.4839 256.4749,110.6549 255.2069,106.6079 C253.8709,102.3399 253.0889,97.9539 252.8319,93.4889 C252.7949,92.8489 251.7949,92.8449 251.8319,93.4889" id="Fill-74" fill="#1D1E1B"></path>
                <path d="M291.0004,178.1149 C293.5354,173.3879 295.9134,168.6649 297.5014,163.5269 C299.0674,158.4629 300.3214,153.2799 303.5914,148.9869 C303.9804,148.4749 303.1124,147.9759 302.7274,148.4819 C299.7434,152.3999 298.3944,157.0599 297.0044,161.7129 C295.3284,167.3249 292.8994,172.4599 290.1374,177.6099 C289.8334,178.1769 290.6954,178.6829 291.0004,178.1149" id="Fill-76" fill="#1D1E1B"></path>
                <path d="M311.4721,132.613 C310.8441,129.717 309.0521,127.279 306.4881,125.799 C305.9301,125.475 305.4261,126.34 305.9831,126.662 C308.3371,128.021 309.9321,130.225 310.5081,132.879 C310.6441,133.508 311.6081,133.241 311.4721,132.613" id="Fill-78" fill="#1D1E1B"></path>
                <path d="M313.1347,127.6764 C312.7817,127.1514 312.4287,126.6264 312.0757,126.1014 C311.7177,125.5694 310.8517,126.0694 311.2117,126.6054 L312.2707,128.1814 C312.6287,128.7124 313.4947,128.2124 313.1347,127.6764" id="Fill-80" fill="#1D1E1B"></path>
                <path d="M315.8803,125.7184 C315.4993,124.7804 314.7783,124.0934 313.7963,123.8164 C313.1753,123.6414 312.9103,124.6064 313.5293,124.7814 C314.1503,124.9554 314.6703,125.3794 314.9163,125.9844 C315.1553,126.5724 316.1233,126.3154 315.8803,125.7184" id="Fill-82" fill="#1D1E1B"></path>
                <path d="M314.7348,100.3415 C316.3798,103.2845 318.2178,106.3505 321.4368,107.7515 C322.0218,108.0065 322.5308,107.1455 321.9418,106.8885 C318.8718,105.5515 317.1658,102.6415 315.5988,99.8375 C315.2848,99.2755 314.4208,99.7795 314.7348,100.3415" id="Fill-84" fill="#1D1E1B"></path>
                <path d="M318.6449,86.5397 C320.1599,90.1807 323.5799,92.5637 327.5379,92.6517 C328.1819,92.6667 328.1819,91.6667 327.5379,91.6517 C324.0709,91.5757 320.9479,89.4897 319.6089,86.2737 C319.3659,85.6877 318.3979,85.9447 318.6449,86.5397" id="Fill-86" fill="#1D1E1B"></path>
                <path d="M307.7821,69.6071 L306.0261,71.8341 C305.6311,72.3341 306.3341,73.0451 306.7331,72.5411 C307.3181,71.7981 307.9041,71.0561 308.4901,70.3141 C308.8841,69.8141 308.1811,69.1021 307.7821,69.6071" id="Fill-88" fill="#1D1E1B"></path>
                <path d="M320.3769,75.1032 C319.0909,75.4372 318.5709,76.7272 318.9229,77.9582 C319.1669,78.8122 319.7689,79.4712 320.3019,80.1562 C321.2049,81.3152 321.9629,82.5402 322.6259,83.8532 C322.9159,84.4272 323.7779,83.9212 323.4889,83.3482 C322.9379,82.2542 322.3229,81.2102 321.5989,80.2212 C321.0149,79.4232 318.3839,76.6542 320.6429,76.0672 C321.2649,75.9062 321.0009,74.9412 320.3769,75.1032" id="Fill-90" fill="#1D1E1B"></path>
                <path d="M260.5609,58.0573 C259.8099,58.5793 259.0579,59.1033 258.3069,59.6263 C257.7819,59.9913 258.2819,60.8583 258.8109,60.4903 C259.5629,59.9663 260.3139,59.4443 261.0659,58.9203 C261.5899,58.5553 261.0909,57.6883 260.5609,58.0573" id="Fill-92" fill="#1D1E1B"></path>
                <path d="M261.1405,41.9333 C260.0585,41.8853 258.9935,42.0163 257.9535,42.3233 C257.3385,42.5043 257.6005,43.4693 258.2205,43.2873 C259.1795,43.0043 260.1415,42.8893 261.1405,42.9333 C261.7845,42.9613 261.7825,41.9613 261.1405,41.9333" id="Fill-94" fill="#1D1E1B"></path>
                <path d="M254.3061,66.238 C253.1071,67.686 251.6161,68.815 249.8711,69.526 C249.2831,69.765 249.5401,70.733 250.1371,70.49 C252.0451,69.713 253.6971,68.535 255.0131,66.945 C255.4201,66.453 254.7171,65.742 254.3061,66.238" id="Fill-96" fill="#1D1E1B"></path>
                <path d="M255.4374,69.0592 C254.4924,69.5342 253.7294,70.2862 253.2364,71.2202 C252.9364,71.7892 253.7994,72.2952 254.1004,71.7252 C254.5204,70.9292 255.1384,70.3272 255.9414,69.9232 C256.5174,69.6342 256.0114,68.7712 255.4374,69.0592" id="Fill-98" fill="#1D1E1B"></path>
                <path d="M261.683,84.2956 C260.603,85.9276 259.009,87.0496 257.119,87.5436 C256.497,87.7056 256.761,88.6706 257.385,88.5076 C259.53,87.9466 261.324,86.6476 262.546,84.8006 C262.903,84.2626 262.037,83.7616 261.683,84.2956" id="Fill-100" fill="#1D1E1B"></path>
                <path d="M262.3993,87.2995 C261.7303,87.8945 261.0613,88.4885 260.3923,89.0835 C259.9093,89.5115 260.6193,90.2165 261.0993,89.7905 C261.7683,89.1955 262.4373,88.6015 263.1063,88.0065 C263.5883,87.5785 262.8783,86.8725 262.3993,87.2995" id="Fill-102" fill="#1D1E1B"></path>
                <path d="M268.9535,97.6872 C266.8305,99.2642 264.6275,100.7142 262.3405,102.0412 C261.7835,102.3652 262.2865,103.2292 262.8445,102.9052 C265.1325,101.5782 267.3355,100.1272 269.4585,98.5502 C269.9695,98.1702 269.4715,97.3022 268.9535,97.6872" id="Fill-104" fill="#1D1E1B"></path>
                <path d="M265.7807,103.4674 C264.4367,103.6274 263.2527,104.1214 262.1937,104.9644 C261.6897,105.3644 262.4017,106.0694 262.9007,105.6714 C263.7307,105.0104 264.7267,104.5934 265.7807,104.4674 C266.4117,104.3924 266.4197,103.3914 265.7807,103.4674" id="Fill-106" fill="#1D1E1B"></path>
                <path d="M307.8241,140.6471 C307.0661,136.2461 305.0911,132.3121 302.0431,129.0511 C301.6021,128.5801 300.8961,129.2881 301.3351,129.7581 C304.2741,132.9021 306.1301,136.6741 306.8601,140.9131 C306.9691,141.5451 307.9331,141.2781 307.8241,140.6471" id="Fill-108" fill="#1D1E1B"></path>
                <path d="M265.308,145.8307 C264.079,149.9107 262.701,153.9357 261.169,157.9137 C260.937,158.5147 261.904,158.7737 262.133,158.1797 C263.665,154.2027 265.044,150.1777 266.272,146.0967 C266.458,145.4787 265.494,145.2147 265.308,145.8307" id="Fill-110" fill="#1D1E1B"></path>
                <path d="M257.6249,165.986 C256.5939,166.91 255.6799,167.936 254.8659,169.054 C254.4859,169.575 255.3539,170.075 255.7289,169.559 C256.4929,168.51 257.3659,167.558 258.3319,166.693 C258.8119,166.263 258.1029,165.558 257.6249,165.986" id="Fill-112" fill="#1D1E1B"></path>
                <path d="M297.5331,147.4948 C296.1971,143.7838 294.2041,140.4428 291.5691,137.5098 C291.1381,137.0288 290.4331,137.7378 290.8621,138.2168 C293.3831,141.0228 295.2901,144.2108 296.5691,147.7608 C296.7851,148.3608 297.7521,148.1018 297.5331,147.4948" id="Fill-114" fill="#1D1E1B"></path>
                <path d="M265.9833,113.0934 C265.8423,113.3394 265.7013,113.5844 265.5613,113.8304 C265.2403,114.3894 266.1043,114.8944 266.4243,114.3344 C266.5653,114.0894 266.7063,113.8444 266.8463,113.5984 C267.1673,113.0384 266.3033,112.5344 265.9833,113.0934" id="Fill-116" fill="#1D1E1B"></path>
                <path d="M287.4853,100.3796 C290.9813,102.9476 295.3013,104.4526 299.3913,105.7746 C303.2803,107.0296 307.2973,108.1526 311.3633,108.6496 C312.0013,108.7276 311.9953,107.7266 311.3633,107.6496 C307.3933,107.1646 303.4543,106.0346 299.6573,104.8096 C295.6363,103.5126 291.4263,102.0406 287.9903,99.5166 C287.4713,99.1346 286.9713,100.0016 287.4853,100.3796" id="Fill-118" fill="#1D1E1B"></path>
                <path d="M287.7738,106.0553 C292.7788,110.4683 298.7328,114.1553 305.3428,115.4813 C305.9708,115.6073 306.2398,114.6443 305.6088,114.5173 C299.1708,113.2253 293.3568,109.6483 288.4808,105.3483 C287.9998,104.9243 287.2898,105.6283 287.7738,106.0553" id="Fill-120" fill="#1D1E1B"></path>
                <g id="Group-124" transform="translate(34.000000, 182.637000)">
                    <mask id="mask-4" fill="white">
                        <use xlink:href="#path-3"></use>
                    </mask>
                    <g id="Clip-123"></g>
                    <path d="M251.7006,0.9545 C223.8516,38.7585 193.5826,74.7665 161.0966,108.6705 C127.3086,143.9335 92.5566,178.3135 58.2136,213.0375 C39.9736,231.4785 21.4926,249.8475 0.4226,265.0885 C-0.0944,265.4625 0.4046,266.3295 0.9276,265.9515 C19.3266,252.6415 35.7926,236.9595 51.8036,220.9145 C69.0996,203.5825 86.2436,186.0975 103.4546,168.6815 C137.6086,134.1205 172.1896,99.9785 203.7606,62.9945 C220.7616,43.0765 237.0326,22.5425 252.5636,1.4595 C252.9456,0.9405 252.0786,0.4405 251.7006,0.9545" id="Fill-122" fill="#1D1E1B" mask="url(#mask-4)"></path>
                </g>
                <g id="Group-127" transform="translate(1.000000, 178.637000)">
                    <mask id="mask-6" fill="white">
                        <use xlink:href="#path-5"></use>
                    </mask>
                    <g id="Clip-126"></g>
                    <path d="M1.0058,213.6674 C14.4168,197.2244 31.5458,184.5764 47.8738,171.2434 C64.8428,157.3884 79.7358,141.6534 94.6678,125.6794 C102.3188,117.4934 110.0538,109.3694 118.2838,101.7584 C126.7158,93.9594 135.7168,86.8184 144.9178,79.9534 C162.4548,66.8674 180.7128,54.6744 197.1558,40.1834 C205.1108,33.1724 212.4428,25.4754 220.5958,18.6884 C227.7648,12.7224 235.8058,7.8174 242.7128,1.5384 C243.1898,1.1054 242.4808,0.3994 242.0058,0.8314 C236.1488,6.1554 229.4118,10.3884 223.2148,15.2854 C215.8148,21.1334 209.1658,27.7674 202.2768,34.1874 C185.9188,49.4334 167.5308,62.1094 149.5388,75.3024 C140.7008,81.7814 131.9628,88.4174 123.6738,95.5934 C115.1968,102.9324 107.2838,110.8844 99.5688,119.0124 C84.4518,134.9354 69.9188,151.3974 53.1128,165.6044 C35.0548,180.8704 15.3568,194.4964 0.2988,212.9604 C-0.1042,213.4554 0.5988,214.1664 1.0058,213.6674" id="Fill-125" fill="#1D1E1B" mask="url(#mask-6)"></path>
                </g>
                <g id="Group-130" transform="translate(74.000000, 374.637000)">
                    <mask id="mask-8" fill="white">
                        <use xlink:href="#path-7"></use>
                    </mask>
                    <g id="Clip-129"></g>
                    <path d="M1.473,9.5443 C4.362,6.8773 7.251,4.2103 10.14,1.5443 C10.614,1.1063 9.905,0.4003 9.432,0.8373 C6.544,3.5033 3.655,6.1703 0.766,8.8373 C0.292,9.2743 1,9.9803 1.473,9.5443" id="Fill-128" fill="#1D1E1B" mask="url(#mask-8)"></path>
                </g>
                <path d="M90.8651,380.9128 C103.0501,369.9818 115.2341,359.0518 127.4191,348.1208 C127.8991,347.6898 127.1901,346.9848 126.7121,347.4138 C114.5271,358.3448 102.3431,369.2748 90.1581,380.2058 C89.6781,380.6368 90.3871,381.3418 90.8651,380.9128" id="Fill-131" fill="#1D1E1B"></path>
                <path d="M226.3983,205.4323 C223.4723,207.8313 220.5473,210.2313 217.6213,212.6313 C217.1243,213.0393 217.8353,213.7443 218.3283,213.3383 C221.2543,210.9383 224.1803,208.5383 227.1053,206.1393 C227.6033,205.7313 226.8923,205.0273 226.3983,205.4323" id="Fill-133" fill="#1D1E1B"></path>
                <path d="M163.1142,251.0485 C165.3232,249.6945 167.5332,248.3415 169.7432,246.9875 C170.2912,246.6525 169.7892,245.7875 169.2392,246.1245 C167.0292,247.4785 164.8192,248.8315 162.6092,250.1855 C162.0612,250.5215 162.5632,251.3865 163.1142,251.0485" id="Fill-135" fill="#1D1E1B"></path>
                <path d="M242.3642,4.8893 C239.6492,6.3843 237.6622,8.7733 236.6542,11.7003 C236.4442,12.3093 237.4092,12.5713 237.6182,11.9653 C238.5432,9.2833 240.3862,7.1203 242.8692,5.7533 C243.4322,5.4433 242.9282,4.5783 242.3642,4.8893" id="Fill-137" fill="#1D1E1B"></path>
                <path d="M231.1391,1.195 C230.1901,3.484 229.6921,5.852 229.6181,8.328 C229.5981,8.971 230.5981,8.97 230.6181,8.328 C230.6901,5.939 231.1891,3.666 232.1031,1.461 C232.3491,0.867 231.3821,0.608 231.1391,1.195" id="Fill-139" fill="#1D1E1B"></path>
                <path d="M352.6195,86.8278 L352.6195,92.8278 C352.6195,93.4708 353.6195,93.4728 353.6195,92.8278 L353.6195,86.8278 C353.6195,86.1838 352.6195,86.1828 352.6195,86.8278" id="Fill-141" fill="#1D1E1B"></path>
                <path d="M360.6869,90.2028 C360.5199,91.2028 360.3539,92.2028 360.1869,93.2028 C360.0819,93.8328 361.0449,94.1028 361.1509,93.4688 C361.3179,92.4688 361.4839,91.4688 361.6509,90.4688 C361.7559,89.8398 360.7929,89.5678 360.6869,90.2028" id="Fill-143" fill="#1D1E1B"></path>
                <path d="M329.3686,131.653 C328.2996,134.124 327.2316,136.593 326.1626,139.064 C325.9096,139.648 326.7706,140.159 327.0256,139.569 C328.0946,137.098 329.1636,134.629 330.2326,132.158 C330.4846,131.574 329.6236,131.063 329.3686,131.653" id="Fill-145" fill="#1D1E1B"></path>
                <path d="M331.1879,138.0749 C330.0309,140.1339 328.5549,141.9319 326.7659,143.4739 C326.2779,143.8939 326.9879,144.5989 327.4729,144.1809 C329.3229,142.5869 330.8549,140.7079 332.0509,138.5799 C332.3669,138.0179 331.5029,137.5129 331.1879,138.0749" id="Fill-147" fill="#1D1E1B"></path>
                <path d="M244.706,123.445 C245.632,127.706 245.922,131.98 245.597,136.326 C245.549,136.967 246.55,136.965 246.597,136.326 C246.929,131.886 246.615,127.526 245.67,123.178 C245.533,122.55 244.569,122.816 244.706,123.445" id="Fill-149" fill="#1D1E1B"></path>
                <path d="M238.1376,131.4606 C238.4766,133.2066 238.4766,134.9476 238.1376,136.6936 C238.0146,137.3226 238.9786,137.5926 239.1016,136.9606 C239.4766,135.0326 239.4766,133.1216 239.1016,131.1936 C238.9786,130.5636 238.0146,130.8306 238.1376,131.4606" id="Fill-151" fill="#1D1E1B"></path>
                <path d="M135.3837,248.4225 C131.7847,250.6295 128.5657,253.3135 125.7527,256.4625 C125.3257,256.9415 126.0297,257.6515 126.4597,257.1695 C129.2167,254.0825 132.3587,251.4505 135.8877,249.2855 C136.4357,248.9495 135.9337,248.0845 135.3837,248.4225" id="Fill-153" fill="#1D1E1B"></path>
            </g>
        </g>
    </g>
</svg>