<?xml version="1.0" encoding="UTF-8"?>
<svg width="504px" height="92px" viewBox="0 0 504 92" version="1.1" xmlns="http://www.w3.org/2000/svg" xmlns:xlink="http://www.w3.org/1999/xlink">
    <!-- Generator: Sketch 49.3 (51167) - http://www.bohemiancoding.com/sketch -->
    <title>Page 1</title>
    <desc>Created with Sketch.</desc>
    <defs></defs>
    <g id="Screens" stroke="none" stroke-width="1" fill="none" fill-rule="evenodd">
        <g id="hirer-updated" transform="translate(0.000000, -5734.000000)">
            <g id="Page-1" transform="translate(252.000000, 5780.000000) rotate(90.000000) translate(-252.000000, -5780.000000) translate(206.000000, 5528.000000)">
                <path d="M89.9453335,100.733399 C89.68914,99.964229 89.4105681,99.1950586 89.1204213,98.4258883 C89.1590046,97.1312988 89.0772079,95.8490904 88.7994077,94.4717029 C88.5563325,93.2676495 87.7514836,91.6124631 87.2468132,90.5012673 C87.5053218,87.2535733 85.6247687,83.5470081 81.8389693,83.9424266 C81.7772359,83.9145694 81.7170459,83.8867121 81.6437375,83.8542119 C81.2116038,83.6584372 80.7663519,83.5083174 80.3180132,83.3961145 C80.3635416,82.7461114 80.3403915,82.0512272 80.2616815,81.3400929 C80.3149265,81.0305676 80.3496516,80.7148518 80.3504232,80.3898502 C80.3504232,80.3047308 80.3511949,80.2188375 80.3511949,80.1329443 C80.3697149,79.9178242 80.3758882,79.7088946 80.3527382,79.5193104 C80.3828332,78.7199614 80.2169248,77.9747793 79.8542412,77.2829902 C79.6211977,76.5641178 79.2222457,75.9411982 78.658157,75.415779 C78.3780418,75.113218 78.0678316,74.8617287 77.732928,74.6543468 C76.362447,72.8049333 74.5127606,71.6001061 72.3312574,71.8647502 C72.0017555,71.7804046 71.6683952,71.7347496 71.348925,71.7486782 C70.2516142,71.7982023 69.1126334,72.1595731 68.3479111,72.9952913 C67.7020257,73.7010089 67.2614037,74.5444653 67.1417953,75.4869698 C66.1779829,77.0732869 65.5969175,78.9637125 65.0073637,80.656042 C64.7133585,80.4749697 64.3846283,80.3225285 64.037378,80.1840159 C63.9872196,76.6097728 63.8691546,73.0347558 64.4579366,69.5007509 C64.9178503,66.737464 65.1223421,64.1204277 65.0752704,61.4732128 C65.9001827,53.079661 66.3847897,44.6628948 66.5360365,36.2306524 C66.6456132,35.3554696 66.729725,34.4779655 66.7906867,33.597366 C66.9110668,33.1926617 66.9774302,32.7446239 66.9728001,32.2501573 C66.9496501,29.7182405 67.3817838,26.455844 66.0714928,24.1034519 C66.0552878,23.9649393 66.0506578,23.8264268 66.0236495,23.6871404 C65.9966411,23.5540445 65.9704044,23.4201748 65.9441677,23.287079 C65.6571075,21.8400483 64.3259816,20.7172453 62.9794222,20.3148625 L62.5897303,20.1980167 C60.1157652,19.4582512 58.3108355,20.8952224 57.6425717,22.7833266 C57.1996347,23.3807104 56.8894245,24.0879756 56.7590127,24.9035747 C56.6833893,25.374827 56.677216,25.8189958 56.7134843,26.2422716 C56.704996,26.2925694 56.702681,26.3436411 56.6949643,26.3947128 C55.5282035,32.0311681 54.4933977,37.6923855 53.4825137,43.3597934 C52.5248746,48.7246403 51.3403654,54.123535 51.0895736,59.5812395 C50.6319749,63.4170315 51.0502186,67.4315744 50.8958851,71.240283 C50.8017417,73.5648178 50.696795,75.979115 50.1465962,78.2525782 C50.0439645,78.2494829 49.9459628,78.2417448 49.841016,78.2432924 C48.5623634,78.2680545 47.2867975,78.4831745 46.2944334,77.6559682 C45.0844592,76.6484634 44.1306785,74.2945237 43.3983663,72.9372553 C41.5710583,69.5510488 40.2669407,66.0054367 39.2583716,62.2950024 C38.9126647,61.020532 38.2768109,60.0695156 37.4781353,59.4048101 C37.4472687,59.177309 37.407142,58.9467127 37.3423219,58.7076044 C36.9418266,57.2938477 36.5637097,55.7586023 36.1400644,54.2156188 C36.1115127,54.0693681 36.0767877,53.9207959 36.0328026,53.7691285 C34.230188,47.6428494 34.1545646,41.3765101 32.822667,35.1565996 C32.6799085,34.4903465 32.4275733,33.9417129 32.0980714,33.502187 C32.0679764,33.3265314 32.038653,33.1508758 32.0070147,32.9752202 C31.8935796,32.3352767 31.6759695,31.8075361 31.3865942,31.3765222 C30.0184282,27.3859675 23.0981165,27.8541245 23.1328416,32.8111718 C23.1775983,39.1324519 22.329536,46.422546 24.4230692,52.5318012 C24.3320124,55.5063392 24.4446759,58.4739128 24.7703194,61.4469031 C24.8567462,62.2338711 25.0828447,62.9852438 25.4347249,63.6460802 C25.8082118,67.5747298 26.7295825,71.4074266 28.2690586,75.0807179 C28.2883503,75.1271467 28.3107287,75.171254 28.330792,75.216909 C29.7699514,80.8611025 30.9961306,86.55482 32.0023847,92.2988354 C31.6798278,97.9546361 31.9360213,103.724961 32.9908904,109.216713 C33.4569774,111.639523 33.8983711,114.049951 34.3073547,116.461153 C34.1229262,116.896036 33.9994595,117.382764 33.9593328,117.925981 C33.6074525,122.68648 35.4031222,127.072453 35.8499175,131.750928 C36.2889961,136.342735 35.5782906,140.537576 37.1586651,144.992419 C38.7274646,149.414762 39.9798805,153.711746 40.3649424,158.421173 C40.7337994,162.947981 39.9644472,167.622586 40.4405658,172.095226 C40.5146459,172.795527 40.699846,173.47184 40.9761029,174.092438 C41.2207214,179.784608 41.3025181,185.45898 40.7353427,191.15115 C40.0585906,197.935944 39.6318586,204.570619 39.807027,211.398746 C40.1766556,225.817208 41.0432379,240.230252 42.1729588,254.607702 C42.1968804,254.913358 42.2586138,255.219788 42.3396389,255.522349 C42.3234339,265.786207 42.3805372,276.050066 42.5240673,286.31315 C42.5912024,291.10847 42.6166674,295.911529 42.8126709,300.703754 C42.905271,302.967158 42.7748592,305.959493 43.2772146,308.596649 C43.1722678,309.096532 43.1444878,309.635106 43.2247412,310.210823 C43.9146117,315.163228 44.0419368,320.206168 43.6730799,325.190299 C43.2995929,330.245621 41.9607503,335.137668 41.4915766,340.175192 C41.3094631,342.132939 41.2045164,344.108484 41.152043,346.093315 C40.0601339,354.105377 38.9574214,362.131367 38.7436696,370.226227 C38.7413546,370.317537 38.7382679,370.408847 38.7359529,370.500931 C38.5005944,372.403738 38.3778993,374.241544 38.1772659,375.670003 C37.8670556,377.883109 37.6008304,380.098536 37.3762753,382.317058 C36.9588033,384.448914 36.5637097,386.584638 36.2511844,388.728875 C35.4663989,394.109972 35.5520539,399.580831 35.4239572,405.006035 C35.146157,416.729305 35.1592753,428.263765 32.2832716,439.706141 C31.929848,441.111385 32.2462315,442.300736 32.9214404,443.195264 C32.8774553,445.827003 33.2115872,448.359694 33.4145357,451.098219 C33.4623791,451.745126 33.4847574,452.39126 33.4947891,453.037394 C33.4446307,453.7671 33.3967874,454.48752 33.365149,455.180083 C33.2802656,457.020211 33.1560272,458.85647 33.0117254,460.691181 C32.9090937,461.55553 32.7995169,462.418332 32.6876252,463.281134 C32.6351518,463.685838 32.6397818,464.055721 32.6829952,464.399294 C32.5371501,465.873408 32.3805016,467.346748 32.2030182,468.818541 C32.1574898,469.199257 32.1605765,469.551342 32.1991598,469.877891 C31.7731995,472.303795 31.2847342,474.728926 30.7993555,477.199712 C29.8201098,482.18539 31.2615841,488.558516 29.0067725,493.117823 C28.3917537,494.360567 28.4079587,495.565394 28.8099974,496.59147 C29.223611,498.813862 31.1813308,500.813395 34.0094911,500.109999 C35.9564076,499.626366 38.0121291,498.998029 40.0308105,499.344698 C41.9638369,499.677437 43.4693597,500.914765 45.1593109,501.827091 C48.7112952,503.745373 52.3828879,504.382996 56.3747224,503.781743 C60.2500353,503.199061 63.8051062,501.554708 67.4867305,500.291845 C71.828902,498.802255 76.2652169,497.686416 80.7748402,496.842186 C83.2372303,496.380993 84.0868359,494.401579 83.771224,492.492582 C86.1502741,487.37845 87.0793615,482.199319 87.2946566,476.505601 C87.5138101,470.73605 87.6503952,464.972689 87.1048265,459.227126 C87.3054599,454.704962 86.7876712,450.13869 86.4921227,445.638193 L85.8354339,435.64749 C86.1402424,429.995559 86.2289842,424.394699 85.5923587,418.697112 C85.5722954,418.516814 85.526767,418.348896 85.4866403,418.177884 C85.566122,410.182072 85.6857304,402.183939 85.6965338,394.187353 C85.7011638,390.426621 84.7651314,386.88333 84.5097096,383.158193 C84.2157044,378.881328 84.7404381,374.598272 85.2474235,370.357775 C85.4033002,369.052353 85.0267266,368.066515 84.3615495,367.392523 C84.5243713,364.034948 84.6100263,360.675825 84.603853,357.312833 C84.9765683,353.377219 84.9557332,349.327854 85.0082066,345.395335 C85.6533204,343.911162 85.7983939,342.009129 85.8740172,339.652868 C86.2228108,328.69722 85.8400639,317.741573 84.8237781,306.830033 C85.08846,305.320324 85.0051199,303.662816 85.3191885,302.019237 C85.4951286,301.098399 85.3940402,300.271192 85.1085234,299.555415 C85.4071586,294.108544 84.6601847,288.698042 84.3584628,283.245754 C84.0173859,277.099356 84.0258742,270.942125 83.9780309,264.788762 C83.9294158,258.650876 83.8406741,252.502156 83.2835304,246.385163 C82.7186699,240.178407 80.9600403,233.992544 80.8242269,227.776503 C80.8141952,227.334655 80.7462885,226.932273 80.6390268,226.56239 C80.7053901,226.307805 80.7586352,226.043935 80.7825569,225.759946 C81.7618026,214.348522 82.5519898,202.183405 81.0811921,190.699243 C81.1475555,186.198746 80.8350302,181.61545 80.4175583,177.076262 C80.4245033,176.143043 80.4013533,175.228396 80.3882349,174.388035 C80.3797466,173.78833 80.2308148,173.243565 79.998543,172.749099 C79.9777079,172.540943 79.9561013,172.332787 79.9352663,172.124631 C80.2956348,167.898064 80.6560034,163.67227 81.0171437,159.446476 C81.7834093,157.285989 82.4408697,155.093777 82.9841235,152.861325 C83.0705502,152.506145 83.1122202,152.166441 83.1191652,151.839892 C83.7349557,150.120479 84.3252811,148.39178 84.8816532,146.649927 C85.3091568,146.136115 85.6602654,145.539505 85.8848206,144.840752 C87.2900266,140.475671 89.1150196,136.046365 89.9453335,131.526522 C90.8674759,126.510665 90.6112824,121.238675 90.7378358,116.159365 C90.8643892,111.085472 91.5735514,105.633184 89.9453335,100.733399" id="Fill-1" fill="#7F5C4F"></path>
                <path d="M68.4181596,105.002699 C67.1780339,104.940444 66.689865,105.967294 66.9367643,106.82349 C66.6585,107.413819 66.4164262,108.015866 66.2596009,108.645013 C66.065781,109.425771 65.7923421,110.397689 66.2507544,111.140361 C66.7260555,111.911597 67.5930176,112.001684 68.4736516,111.995093 C69.3808253,111.988501 70.378073,112.088842 71.1782839,111.625954 C72.0146851,111.141826 72.1940289,110.196274 72.4224308,109.387685 C72.6427903,108.60473 73.0079117,107.709716 72.9998694,106.895999 C72.981372,104.783706 70.000084,105.082533 68.4181596,105.002699" id="Fill-3" fill="#FFFFFF"></path>
                <path d="M74.8421387,86.8134072 C74.8061481,86.6751784 74.7596603,86.5407681 74.688429,86.413231 C74.3285232,85.7709635 73.8051603,85.5388002 73.2600531,85.5632385 C70.706222,84.2588474 67.8239769,85.3035822 66.0934302,87.8352311 C65.0497035,89.3618574 64.5053461,90.6395191 65.6023088,92.3120112 C66.4390896,93.5873818 67.9109541,94.6321165 69.4458021,94.7863829 C70.0883838,95.1758674 70.9671536,95.0468029 71.4477777,94.2831079 C72.3430433,93.601892 72.8379136,92.3822711 73.3380327,91.2962968 C73.7046866,90.5005266 74.4709859,89.3252 74.7784054,88.2056232 C75.0273402,87.7802451 75.0910735,87.2624598 74.8421387,86.8134072" id="Fill-5" fill="#FFFFFF"></path>
                <path d="M31.9871968,94.5131871 C31.6741599,93.208378 31.8795904,91.7055385 31.7524191,90.3576794 C31.6214854,88.9636393 31.3701529,87.5852537 31.1082855,86.2084336 C30.5521935,83.2865067 30.0209338,80.3324879 29.0735457,77.5107502 C28.2646162,75.1015107 27.4609542,72.7110567 26.7144816,70.2744217 C26.320928,68.9923118 25.9296318,67.5137369 25.8844823,66.1611814 C25.8197679,64.2325375 27.6535922,63.2431681 29.2165193,62.7719654 C29.6808072,62.6326396 29.4829016,61.8765235 29.0163562,62.0174147 C27.2969108,62.5355812 24.9694514,63.2275136 25.0003035,65.4379399 C25.0469581,68.705833 26.6452522,71.6958574 27.3330304,74.7954637 C28.0117787,77.8582819 29.393355,80.7207214 29.9185948,83.8578988 C30.2812962,86.0197959 30.8042785,88.1699522 30.9999266,90.3576794 C31.1293553,91.7932042 30.9269348,93.3273528 31.261794,94.7213929 C31.3791828,95.2098158 32.1045856,95.0023926 31.9871968,94.5131871" id="Fill-7" fill="#1D1E1B"></path>
                <path d="M25.2330386,65.5386061 C25.235044,65.567774 25.236381,65.5961536 25.2383865,65.6245332 C25.457653,65.589847 25.676251,65.5551608 25.8955174,65.5204747 C24.960961,62.8307209 25.1160519,59.7838573 25.1213998,56.9277676 C25.1240738,55.3054014 25.2216741,53.6538674 25.0685887,52.0385961 C25.0251365,51.5813695 24.9389006,51.1430626 24.8767305,50.6913542 C24.672171,49.2116743 24.6674915,48.6693089 25.8473858,47.7477608 C26.2043623,47.4686949 25.8701146,46.7852199 25.5097956,47.0666508 C24.7624178,47.6507972 24.089243,47.9984471 24.0076866,49.115499 C23.9508645,49.887266 24.2242791,50.7150039 24.3285644,51.4615446 C24.5010362,52.6897499 24.4763018,53.9329333 24.4629319,55.1721751 C24.4261647,58.6400024 24.1106349,62.4468082 25.2504194,65.7301683 C25.3801075,66.1014678 25.9396381,66.1109277 25.9068819,65.6245332 C25.9048764,65.5961536 25.9035394,65.567774 25.9015339,65.5386061 C25.8681091,65.0356568 25.1989453,65.0317152 25.2330386,65.5386061" id="Fill-9" fill="#1D1E1B"></path>
                <path d="M24.6829951,47.300191 C24.2254934,44.4257857 23.7562809,41.5521485 23.8398179,38.6270454 C23.906179,36.3310546 24.1567901,33.5426817 24.8289897,31.351927 C25.1256632,30.3871346 25.4410739,29.6443367 26.4388336,29.2272329 C27.3257312,28.8554499 28.7419566,28.6534273 29.6749166,28.9491638 C31.5111693,29.5321872 32.4285149,32.0755213 33.1093024,33.6410045 C34.2928734,36.3633168 34.7847268,39.3944241 34.9666345,42.3348901 C35.132147,45.0018958 35.7473541,47.6420164 36.2048559,50.2706147 C36.6404974,52.76786 37.2057385,55.3288615 38.0161255,57.7370017 C38.741414,59.8939579 39.212188,62.1177429 40.2411765,64.1863623 C41.412256,66.5422686 41.6753585,69.1455181 42.6824869,71.5475131 C43.5217605,73.55084 44.7084544,77.1396219 47.1442998,77.7165002 C48.2201314,77.9715249 49.3498328,78.0014826 50.4537704,77.9999463 C51.9199619,77.99841 53.1870699,77.3293542 54.6243748,77.2317995 C55.1232547,77.1980011 55.1271583,76.4298543 54.6243748,76.4636527 C53.365074,76.5496852 52.201021,77.1672752 50.9276672,77.2479306 C49.5473549,77.3354993 47.3262074,77.176493 46.1918218,76.3107915 C44.9356438,75.3529124 44.2985766,73.2044058 43.676343,71.829423 C43.0759696,70.5036016 42.6567231,68.9650036 42.2968114,67.5485409 C41.5582506,64.6472504 39.9398187,62.0877852 39.2098458,59.1895673 C38.5290583,56.4849224 37.6632402,53.7994812 37.154211,51.0456749 C36.6514275,48.3248989 36.0877479,45.5803103 35.7941973,42.8364899 C35.4826902,39.9221409 35.293756,36.914078 34.1749847,34.1571992 C33.3677206,32.1653945 32.3824524,29.1204605 30.1316376,28.3000798 C28.2485418,27.6133565 25.4543461,28.0834624 24.549492,29.9362325 C23.2956563,32.5041472 23.271454,35.7956563 23.0497296,38.5901744 C22.814733,41.5567574 23.463511,44.5771106 23.9303813,47.5045181 C24.0076726,47.9915232 24.7602863,47.7848917 24.6829951,47.300191" id="Fill-11" fill="#1D1E1B"></path>
                <path d="M49.7838889,78.8176871 C50.7148831,77.4178399 50.9430516,76.1446898 50.9505462,74.5030368 C50.9588735,72.8946031 51.2511624,71.3286593 51.2286786,69.7163629 C51.2045294,67.9680991 51.5292948,66.2260155 51.5542768,64.4816144 C51.5842551,62.4227884 50.5433403,58.2170666 53.6985613,57.7504508 C54.2265133,57.672424 54.0025084,56.927693 53.4770546,57.0057198 C52.1571747,57.2011731 50.8223055,58.1150909 50.5325148,59.3921038 C50.3093427,60.3763231 50.6807411,61.5961678 50.6832393,62.6089712 C50.6857375,63.784781 50.6565919,64.8879718 50.5616604,66.0576012 C50.4042741,67.9835499 50.5408421,69.9419454 50.3118409,71.8586235 C50.0403703,74.1337614 50.4101032,76.4050366 49.0644086,78.4283256 C48.7821125,78.851679 49.5024255,79.2402679 49.7838889,78.8176871" id="Fill-13" fill="#1D1E1B"></path>
                <path d="M51.8140621,59.5157886 C51.5002664,58.1549063 52.2784501,55.985271 52.5922457,54.6251663 C52.9831922,52.931451 53.3207265,51.2462898 53.6085581,49.5331334 C53.8808111,47.9140722 54.2487606,46.3160075 54.5358503,44.6969464 C54.8311002,43.032004 54.9267967,40.4751005 56.7479987,39.7752182 C57.1923572,39.6049135 57.0002222,38.8529288 56.5506709,39.0255664 C55.4757537,39.438497 54.6382234,40.5551982 54.3251695,41.6820087 C53.760634,43.7171111 53.4861555,45.9777311 53.0914999,48.0548263 C52.6701383,50.2648993 52.3422478,52.4695287 51.8199968,54.6671592 C51.4550145,56.2045675 50.7376612,58.1549063 51.0989343,59.7226427 C51.2109512,60.2086721 51.926079,60.0025957 51.8140621,59.5157886" id="Fill-15" fill="#1D1E1B"></path>
                <path d="M54.7924736,41.1831485 C54.8598306,35.9943275 55.5888715,30.4677046 56.748205,25.3968461 C57.4621896,22.275434 60.3466557,19.9874198 63.751752,21.046019 C67.0356057,22.0670846 67.0807745,26.5021707 67.2075643,29.2750571 C67.4381631,34.3520434 66.6259164,39.3899643 66.0482308,44.4033734 C65.6876725,47.5324454 65.8263488,50.7304566 65.8944982,53.8572307 C65.9578931,56.7687613 65.5117518,59.7193575 65.3580193,62.6308882 C65.3318689,63.1234202 66.1243046,63.1226542 66.150455,62.6308882 C66.2859615,60.0694153 66.3921479,57.4910906 66.5831249,54.9365116 C66.8073842,51.9514458 66.6282937,48.8821211 66.7812338,45.8694796 C67.0173797,41.2543857 68,36.697507 68,32.0617312 C68,29.6304768 67.8755876,27.3179508 67.4920487,24.913506 C67.1750744,22.9288241 66.5823325,21.4336103 64.6162994,20.549657 C62.740604,19.7055352 60.576462,19.8342217 58.8695554,20.9318863 C56.9589929,22.1597694 56.3091956,23.6741331 55.8654316,25.7783095 C54.8138693,30.7587811 54.0666024,36.0923743 54.0000378,41.1831485 C53.9936983,41.6764465 54.7861341,41.6764465 54.7924736,41.1831485" id="Fill-17" fill="#1D1E1B"></path>
                <path d="M65.3451785,64.7550031 C65.651236,64.8223018 63.9610784,79.1909603 64.0006859,80.6266658 C64.0143685,81.1232837 64.7345038,81.1256044 64.7208212,80.6266658 C64.6416063,77.7846496 65.0528036,74.6463644 65.4503183,71.8445727 C65.7916624,69.4427054 66.1891771,66.8281124 65.9004029,64.4038122 C65.8816793,64.2421406 65.8031846,64.0680922 65.6361132,64.0309619 C65.602987,64.024 65.5698607,64.0162645 65.5367345,64.0093026 C65.0844895,63.9087413 64.8907731,64.6544418 65.3451785,64.7550031" id="Fill-19" fill="#1D1E1B"></path>
                <path d="M42.5975386,112.958695 C46.5046667,111.115395 48.9933032,106.945654 51.1563458,103.396871 C51.8020419,102.337404 52.3528057,101.230955 52.8902319,100.114325 C53.7548213,98.3164424 54.8092752,97.40184 56.4388143,96.2601531 C57.4509017,95.5507098 58.5139857,94.896863 59.500967,94.1647112 C60.0344705,93.769271 60.9037672,92.8108178 61.6216432,92.783411 C62.1245486,92.7638348 62.1276869,91.9807847 61.6216432,92.000361 C60.7554847,92.032466 60.3435886,92.4553131 59.6296355,92.9924854 C58.6026414,93.7661388 57.5536795,94.4904601 56.5055022,95.2508016 C55.5718712,95.9281399 54.4797583,96.4794071 53.6826414,97.3266672 C52.9781031,98.07448 52.571699,98.9961299 52.1331278,99.906034 C51.0025713,102.251269 49.6939188,104.529944 48.0832092,106.572139 C46.3399083,108.782689 44.8280537,111.043354 42.2021185,112.28214 C41.7455023,112.497478 42.1432762,113.172467 42.5975386,112.958695" id="Fill-21" fill="#1D1E1B"></path>
                <path d="M61.6585694,90.9398413 C63.4642664,88.9193427 65.4664751,86.9473663 67.5333984,85.1816097 C68.4204628,84.4234489 69.3564579,83.6637717 70.4139902,83.1254775 C71.9852939,82.3256178 73.8091426,82.9139507 75.2739038,83.7456531 C78.0984623,85.3499215 78.6753698,89.3340567 78.0369044,92.1551732 C77.5176087,94.4508842 75.8697523,96.3280905 75.2052432,98.532064 C75.0631866,99.0013656 75.8239785,99.2015201 75.9652459,98.7337348 C76.4064105,97.2742752 77.5262899,95.8110248 78.132398,94.4008456 C78.7874367,92.875426 79.048663,91.3757838 78.9926296,89.7411891 C78.9081848,87.2483562 78.1031975,84.4181418 75.6724515,83.0913603 C73.1012273,81.6880046 71.4565277,81.5939926 69.046301,83.066341 C66.0496963,84.8957831 63.4074438,87.822284 61.1006027,90.4038216 C60.7715049,90.7722878 61.327104,91.310582 61.6585694,90.9398413" id="Fill-23" fill="#1D1E1B"></path>
                <path d="M48.646494,128.893834 C49.525688,128.054076 50.7525054,127.661481 51.7135373,126.924041 C52.6858313,126.178263 53.7985261,125.221788 54.5605944,124.27365 C55.9233076,122.576702 56.5329622,120.309811 57.9061867,118.662127 C58.2155189,118.291512 57.6869513,117.752642 57.3753668,118.126288 C56.0396825,119.730014 55.3962416,121.868062 54.1326348,123.558946 C53.3600553,124.591969 52.187296,125.610593 51.1504326,126.382139 C50.172883,127.108969 49.0008745,127.512174 48.115674,128.357995 C47.7635459,128.693747 48.2951167,129.228827 48.646494,128.893834" id="Fill-25" fill="#1D1E1B"></path>
                <path d="M53.6578097,129.909902 C55.1400138,128.696891 56.4151728,126.829646 57.4556307,125.206089 C58.0012732,124.35473 58.3204367,123.396273 58.6926695,122.455666 C59.1628189,121.266713 59.3324913,119.651693 59.9454048,118.5776 C60.1905701,118.147652 59.5447687,117.756508 59.2996033,118.186456 C58.9139163,118.863973 58.8668266,119.746374 58.6388527,120.488306 C58.2449437,121.765731 57.726957,123.181299 57.098347,124.345417 C56.1640277,126.075297 54.6265119,128.135786 53.1293587,129.361215 C52.7518937,129.670094 53.284082,130.215677 53.6578097,129.909902" id="Fill-27" fill="#1D1E1B"></path>
                <path d="M60.8388861,116.631764 C60.5002798,113.925593 62.2400977,112.066067 63.942645,110.139273 C64.9885975,108.954743 66.1915618,107.602431 67.398491,106.581044 C70.0748288,104.317139 72.8344305,102.395758 74.9263355,99.5589171 C75.2252923,99.1545378 74.5369779,98.7679419 74.241986,99.1692284 C72.8225357,101.093703 71.0819249,102.723591 69.1755793,104.216624 C68.0011626,105.135949 66.6514954,105.983367 65.6753259,107.119959 C63.297152,109.887985 59.5423491,112.61426 60.0458971,116.631764 C60.1069573,117.119648 60.9007393,117.125833 60.8388861,116.631764" id="Fill-29" fill="#1D1E1B"></path>
                <path d="M64.1866721,91.6957288 C64.4354465,91.8306729 64.492567,92.4926491 64.6684378,92.7617877 C65.0066508,93.2775743 65.5786067,93.5512111 66.0588692,93.9058144 C66.6022648,94.3068984 66.9066566,94.9403863 67.5349813,95.2282672 C68.1648092,95.5168978 68.8705471,95.7777899 69.5372026,95.9817055 C70.0009302,96.1233969 70.1993486,95.3999462 69.7371241,95.2590045 C69.1238311,95.0715821 67.9911931,94.7184782 67.510179,94.324891 C67.0712536,93.9657896 66.8051927,93.5092285 66.3181659,93.1786153 C65.6560199,92.7288014 65.386201,92.4814037 65.0637712,91.7647002 C64.9314924,91.4693225 64.8646013,91.2099298 64.5654707,91.0487465 C64.1400738,90.8185917 63.7605236,91.465574 64.1866721,91.6957288" id="Fill-31" fill="#1D1E1B"></path>
                <path d="M65.7678168,89.7173555 C66.027357,88.771156 67.2915439,87.7672712 67.9610486,87.1719907 C68.8604763,86.3716069 70.3686154,84.9366845 71.6273465,84.8036878 C72.1214862,84.7516108 72.126942,83.9496246 71.6273465,84.0025028 C70.1979268,84.1539268 68.8066977,85.3989683 67.7420372,86.3139215 C66.8316979,87.0950769 65.3570729,88.2640059 65.0164751,89.5042403 C64.8800801,90.000975 65.6314218,90.2140902 65.7678168,89.7173555" id="Fill-33" fill="#1D1E1B"></path>
                <path d="M71.0014275,95.3813069 C71.0071659,95.4568031 71.0129043,95.5322994 71.0186427,95.6077956 C71.0465148,95.9684107 71.4408243,96.1202063 71.7187263,95.8921113 C74.4149501,93.6810349 76.4217473,89.321528 76.9914875,85.9780078 C77.0226388,85.7956924 76.9701735,85.623818 76.8029404,85.5242272 C75.5986981,84.8038002 74.3214963,84.1628852 72.9139511,84.003058 C72.3909378,83.944428 72.3958564,84.7475796 72.9139511,84.8062097 C72.8942766,84.8046034 75.9069317,85.6262274 76.1299091,86.021378 C76.3250144,86.3659301 75.3830986,88.5304237 75.2429179,88.8974639 C74.4108513,91.0732016 72.9951083,93.8023108 71.1391489,95.3242831 C71.3719636,95.419055 71.605598,95.5138269 71.8384128,95.6077956 C71.8326744,95.5322994 71.826936,95.4568031 71.8211976,95.3813069 C71.7818486,94.8688961 70.9612588,94.8648804 71.0014275,95.3813069" id="Fill-35" fill="#1D1E1B"></path>
                <path d="M55.082284,98.2826802 C54.6779148,99.4912101 55.8637001,101.172751 56.4718151,102.065115 C57.168142,103.087907 58.3148955,104.611778 59.5178547,104.981601 C60.0010681,105.130191 60.2079365,104.33441 59.7255038,104.185821 C58.7903025,103.898547 57.7817214,102.538951 57.2305928,101.762157 C56.7192766,101.041496 55.508511,99.4796531 55.8348166,98.5022628 C56.0026532,98.0003597 55.2485594,97.784079 55.082284,98.2826802" id="Fill-37" fill="#1D1E1B"></path>
                <path d="M57.1029802,99.5393834 C57.5750801,99.9642065 57.9312753,100.476011 58.3984281,100.905246 C58.7164594,101.196445 59.2154154,100.750192 58.8987974,100.458993 C58.4309379,100.030388 58.0747428,99.5185835 57.6026428,99.0937605 C57.2824912,98.8044522 56.7828286,99.2507055 57.1029802,99.5393834" id="Fill-39" fill="#1D1E1B"></path>
                <path d="M58.1578401,96.7169241 C60.1040771,98.1615342 61.3960868,100.431314 62.283405,102.749898 C62.4528606,103.192141 63.1449831,102.999176 62.9726675,102.550176 C62.008129,100.029616 60.629604,97.6359484 58.5182014,96.068201 C58.14211,95.7888897 57.7846087,96.4398652 58.1578401,96.7169241" id="Fill-41" fill="#1D1E1B"></path>
                <path d="M63.7702604,87.7206577 C64.0190189,86.2853571 64.4515733,84.8384629 64.7985676,83.4147561 C65.1408085,82.0088263 65.311929,80.4954615 65.7801335,79.1219941 C66.2166491,77.8405033 67.0714592,76.7105037 67.5887817,75.4537462 C68.1718588,74.0393143 68.441215,72.9657374 69.9765458,72.209055 C72.8499434,70.7938502 76.6930235,73.0221601 78.7734046,74.9590815 C78.2956933,74.5146562 80.1162248,76.3827883 80.2390196,76.5543751 C81.0589718,77.7021518 81.1160119,78.9334031 81.1896888,80.2813644 C81.2578201,81.5242095 80.9813338,82.7469588 81.1033363,83.9890309 C81.1191808,84.1505698 81.21504,84.3252483 81.3948749,84.3615752 C81.430525,84.3693044 81.4677595,84.3762606 81.5042018,84.3832168 C82.0017187,84.4836956 82.214827,83.7386069 81.7149335,83.6381281 C82.0540055,83.7061445 81.8741706,79.1111733 81.8313905,78.6567001 C81.691959,77.1889372 81.1152197,76.2598951 80.1090948,75.1561745 C78.1871586,73.0461204 74.7584118,70.8935561 71.7598427,71.0040827 C70.3560212,71.055095 69.2231404,71.5690825 68.2186,72.5367703 C67.1546427,73.5616537 66.9344044,75.0487395 66.297456,76.3441426 C64.5997193,79.7982934 63.6648946,83.7208299 63.0065562,87.5150626 C62.9217882,88.0012253 63.6854924,88.2106849 63.7702604,87.7206577" id="Fill-43" fill="#1D1E1B"></path>
                <path d="M78.6555998,86.3949834 C79.2389919,85.6632965 80.360348,85.2006006 81.2569546,84.9590577 C82.7353594,84.5606687 83.8503396,85.2562809 85.0768975,85.9315032 C85.8667083,86.3659668 86.6453614,86.6161363 87.2120168,87.3321386 C87.8663404,88.1595016 87.8511978,89.1272418 88.0639924,90.1216458 C88.3038845,91.2415267 88.3931467,92.4178722 88.7525863,93.5071681 C89.5902162,96.0418004 90.3680723,97.902779 90.0628275,100.625627 C90.0070387,101.12675 90.8040224,101.122829 90.8598112,100.625627 C91.0144261,99.2500866 91.11644,98.0486458 90.7474365,96.7131016 C90.3768391,95.3704993 89.7001999,94.0804404 89.3861884,92.7292116 C88.9813206,90.9858676 89.159845,88.4222187 88.1062325,86.9196334 C87.5523289,86.1299135 86.5600842,85.8389641 85.7312211,85.3982266 C84.8505541,84.9292569 84.0017665,84.2783457 83.000755,84.0689562 C81.4458398,83.7427164 79.0708283,84.6139963 78.0921323,85.8405325 C77.7789177,86.2334319 78.3391973,86.7918039 78.6555998,86.3949834" id="Fill-45" fill="#1D1E1B"></path>
                <path d="M67.3192107,106.263699 C67.1084518,107.5169 66.6232931,108.802141 66.2860788,110.037866 C66.1191247,110.649538 65.707525,111.827008 66.3414547,112.328726 C66.533204,112.480916 67.1646541,112.576308 67.3853311,112.649854 C67.9283452,112.830443 68.4060653,112.86758 68.9755276,112.914912 C70.0408931,113.002294 70.8095432,113.109337 71.7831666,112.743061 C72.2708049,112.559559 71.8501136,111.931867 71.3657814,112.11464 C70.4169531,112.471449 67.3283022,112.384796 66.8803363,111.513162 C66.5646112,110.900033 67.3969022,109.268906 67.5531117,108.59024 C67.7151068,107.886088 67.9985981,107.157178 68.1159619,106.457396 C68.1928269,105.998641 67.3969022,105.801304 67.3192107,106.263699" id="Fill-47" fill="#1D1E1B"></path>
                <path d="M72.4460068,111.639991 C72.4636158,111.111867 72.8326038,110.524067 73.0102943,110.030255 C73.2640236,109.324597 73.5185533,108.609242 73.7058487,107.884935 C73.8427185,107.351589 74.2261138,106.416928 73.8155046,105.925354 C73.4249056,105.458396 72.3483571,105.339046 71.7696622,105.192096 C70.9124254,104.974282 69.9407303,104.845235 69.1763409,105.350235 C68.7593284,105.626233 69.1587319,106.272962 69.5797464,105.994726 C70.3329302,105.497185 71.2710081,105.842555 72.0666135,106.060369 C72.2939293,106.123028 72.9942862,106.193892 73.121551,106.360982 C73.2584208,106.5415 73.0911355,106.967431 73.052716,107.154661 C72.8646201,108.066198 72.5548623,108.95312 72.2387012,109.831836 C72.0265931,110.420381 71.6664096,111.013403 71.645599,111.639991 C71.6295908,112.120376 72.4299987,112.11963 72.4460068,111.639991" id="Fill-49" fill="#1D1E1B"></path>
                <path d="M66.2848256,114.266043 C68.135452,114.689922 70.1079665,115.35457 72.0310885,114.770178 C73.8912748,114.204487 75.6008936,112.200413 76.7345318,110.766705 C78.0792832,109.066515 78.9898584,106.808425 79.8582109,104.833961 C80.2071452,104.040746 80.9002339,102.991958 80.9894591,102.089657 C81.0874475,101.117229 80.4740242,101.108658 80.31788,100.281159 C80.2254682,99.788712 79.4574941,99.9975347 79.5499059,100.488424 C79.6829471,101.19359 79.9402662,101.137488 79.8749406,102.06784 C79.8128016,102.938973 79.5275996,103.559207 79.195395,104.352422 C78.358112,106.347146 77.3375986,108.770423 75.9530146,110.448017 C75.105375,111.476546 73.8418823,112.925838 72.6715981,113.605291 C70.7413062,114.725764 68.4740299,113.967614 66.4967354,113.514905 C65.9980302,113.400364 65.7853237,114.151502 66.2848256,114.266043" id="Fill-51" fill="#1D1E1B"></path>
                <path d="M80.6583449,101.875172 C81.8044058,100.611542 83.026819,99.4598798 84.1378203,98.1642594 C84.715915,97.4908568 85.2301231,96.8046578 85.8580804,96.1752423 C85.9118386,96.1208582 87.0267354,94.71567 86.7197687,94.780451 C87.2106038,94.6772812 87.0025832,93.9063071 86.5125272,94.0094769 C86.4759094,94.0166748 86.4400706,94.0246725 86.4042319,94.0318704 C86.2756798,94.0590624 86.1627098,94.1838258 86.1323248,94.3109886 C85.9009311,95.2627097 85.0735234,95.7505667 84.4782884,96.4503617 C84.0053727,97.0069985 83.5589465,97.5796307 83.0836935,98.1338683 C82.1394203,99.2359454 81.0860726,100.230054 80.1075188,101.309738 C79.7662716,101.686427 80.3163185,102.253461 80.6583449,101.875172" id="Fill-53" fill="#1D1E1B"></path>
                <path d="M80.6683232,102.141354 C81.4729638,101.298672 83.0051303,102.402846 83.8502756,102.699767 C84.8652288,103.056579 85.6036599,103.01862 86.6240656,102.967165 C87.1241424,102.942703 87.1264792,102.099177 86.6240656,102.12364 C85.8692769,102.161598 85.1947186,102.239203 84.4422667,102.013138 C83.6625521,101.778638 82.9467101,101.341691 82.1693323,101.111409 C81.4488168,100.897997 80.6722178,100.964636 80.1176156,101.544981 C79.7569684,101.92288 80.3076759,102.518409 80.6683232,102.141354" id="Fill-55" fill="#1D1E1B"></path>
                <path d="M75.786907,111.543033 C75.7328892,111.769679 80.2857028,113.087841 80.5348297,113.169183 C82.2569494,113.733017 83.7718665,113.988168 85.6108904,113.999987 C86.1293,114.003463 86.1301062,113.30823 85.6108904,113.304754 C83.3663299,113.290849 81.585355,112.760386 79.5141352,112.097134 C78.2306078,111.686251 76.8180826,110.918714 75.4208759,111.007008 C75.2523727,111.017437 75.0693571,111.107122 75.0322703,111.262159 C75.0250142,111.294139 75.0169518,111.32612 75.0096957,111.358101 C74.904885,111.794707 75.6820963,111.981725 75.786907,111.543033" id="Fill-57" fill="#1D1E1B"></path>
                <path d="M72.1754596,114.743329 C73.2790647,115.515596 73.8862919,116.810461 74.5464988,117.907606 C75.176548,118.954353 75.397432,120.018158 76.3037901,120.885795 C76.674647,121.239363 77.2517167,120.691177 76.8800447,120.33761 C76.3217216,119.802606 76.1016527,119.225732 75.7951863,118.543408 C75.5009459,117.888997 75.0877054,117.308247 74.7355951,116.6833 C74.189498,115.712539 73.5349967,114.737902 72.5870701,114.073412 C72.1640487,113.777996 71.7573286,114.45024 72.1754596,114.743329" id="Fill-59" fill="#1D1E1B"></path>
                <path d="M78.0606983,122.586437 C80.2292234,126.147649 83.8291925,129.210085 84.2214222,133.620564 C84.2664703,134.124097 85.0431627,134.128855 84.9981145,133.620564 C84.5864676,128.995984 81.0059157,125.922447 78.7317605,122.186782 C78.4676851,121.753823 77.7958462,122.151892 78.0606983,122.586437" id="Fill-61" fill="#1D1E1B"></path>
                <path d="M62.0455037,117.584516 C62.6518034,118.773668 62.8698517,120.260494 63.404776,121.509027 C64.0557834,123.025929 64.7985595,124.503501 65.4589791,126.016547 C66.6856968,128.825939 67.1837568,131.592917 67.675542,134.594331 C68.2316435,137.991359 68.420671,141.249575 67.4096485,144.611129 C66.4299999,147.870116 64.95386,150.66794 62.9608359,153.441087 C62.6690591,153.846725 63.3490874,154.232313 63.6377268,153.82976 C67.5853421,148.338991 70.0019133,141.780915 68.597149,135.013851 C68.0057518,132.1659 67.7116219,129.312551 66.6221648,126.581048 C65.995472,125.007079 65.1452406,123.494804 64.4620749,121.938572 C63.7930274,120.4155 63.4643863,118.648738 62.723179,117.195843 C62.4965028,116.751646 61.8196119,117.141861 62.0455037,117.584516" id="Fill-63" fill="#1D1E1B"></path>
                <path d="M48.7164303,78.0476799 C46.8197933,77.7964762 45.0326529,78.5864937 43.2767972,79.2796703 C41.2034015,80.0980847 38.8195047,80.9813024 37.1254364,82.3887713 C36.7492375,82.7011376 37.3037594,83.2144669 37.6783941,82.9035568 C39.1088885,81.7152541 41.0626202,81.0322712 42.7762414,80.2815726 C44.4147794,79.5643678 46.6664981,78.5056716 48.5083868,78.7495941 C49.0011213,78.8151255 49.2138575,78.1132113 48.7164303,78.0476799" id="Fill-65" fill="#1D1E1B"></path>
                <path d="M33.6768435,61.0000232 C32.7769568,61.0103892 31.0688447,60.9870658 31.0006005,62.583419 C30.9771834,63.1397238 31.6462442,63.1379962 31.6696613,62.583419 C31.7051215,61.7550084 33.2432921,61.8690337 33.6768435,61.8638507 C34.1070495,61.8586677 34.1083876,60.9948403 33.6768435,61.0000232" id="Fill-67" fill="#1D1E1B"></path>
                <path d="M32.3671281,64.0938101 C31.5154511,64.8318536 30.4264692,65.2195782 29.61774,66.0173269 C28.8847154,66.7395449 28.4071939,67.6264919 28.0272149,68.5681088 C27.8539678,68.9982745 28.5578752,69.185303 28.7289386,68.7594534 C29.1416744,67.7358317 29.7167383,66.784144 30.6179145,66.1094025 C31.3472995,65.563423 32.1895134,65.2030334 32.881774,64.6023839 C33.2348196,64.2966642 32.71799,63.789529 32.3671281,64.0938101" id="Fill-69" fill="#1D1E1B"></path>
                <path d="M31.7142103,46.0672098 C30.8453199,45.9087586 29.9882672,46.0603631 29.1249011,46.2139238 C28.4020095,46.3420541 27.6680694,46.5308262 27.1211656,47.1714776 C26.751828,47.6047731 27.3105695,48.2953073 27.6791179,47.8629899 C28.1218496,47.3436221 28.7981793,47.248747 29.3766504,47.1509376 C30.0790232,47.0325883 30.7971797,46.8809838 31.5042876,47.0100921 C32.0014729,47.1010549 32.2153415,46.1591506 31.7142103,46.0672098" id="Fill-71" fill="#1D1E1B"></path>
                <path d="M30.4426282,44.9925175 C31.8520651,44.7027281 31.7023654,41.60947 31.9841115,40.5024093 C32.1119212,39.9985338 31.4305051,39.7836338 31.3026954,40.2858812 C31.1127462,41.0331472 31.1028604,41.7942515 30.9799937,42.5553558 C30.9136174,42.9615494 30.7137824,44.113381 30.2547974,44.2078068 C29.8085228,44.2997905 29.9977658,45.0845012 30.4426282,44.9925175" id="Fill-73" fill="#1D1E1B"></path>
                <path d="M59.1926435,40.1727786 C59.5939197,40.420449 59.9845061,40.451912 60.4458092,40.4962829 C61.1784671,40.5664696 61.8173842,40.8698053 62.5360632,40.9754887 C63.6453287,41.1376442 64.2513543,40.4704671 64.8984944,39.705674 C65.2348098,39.3095628 64.6559196,38.735968 64.3171373,39.1353061 C63.9413521,39.5790152 63.6083257,40.1639045 62.9192491,40.2018214 C62.5549759,40.2211833 62.1643894,40.0324052 61.8297185,39.9275285 C61.1406419,39.7113212 60.1983008,39.8404002 59.6070763,39.475752 C59.1581074,39.1982322 58.7453193,39.8968723 59.1926435,40.1727786" id="Fill-75" fill="#1D1E1B"></path>
                <path d="M61.7263274,57.184031 C59.9662268,56.6147883 57.9880334,57.5007225 56.2747767,58.0188536 C55.7932832,58.1651731 55.9975532,59.1312823 56.4790467,58.9849629 C58.0126073,58.521952 59.9485644,57.6410288 61.5220575,58.1501403 C62.0020151,58.3054794 62.2062851,57.3393702 61.7263274,57.184031" id="Fill-77" fill="#1D1E1B"></path>
                <path d="M61.6231613,59.1032566 C59.7803189,59.0919417 56.522966,58.5079169 55.1053349,60.2460651 C54.7682866,60.6603659 55.3183306,61.2774651 55.6577195,60.8622939 C56.8389488,59.4122414 60.0845985,59.9640621 61.6231613,59.9736363 C62.1256129,59.9771178 62.1256129,59.1067381 61.6231613,59.1032566" id="Fill-79" fill="#1D1E1B"></path>
                <path d="M52.1702032,75.7858226 C53.6460805,76.9103127 54.8286595,77.7335707 56.5688964,78.3302891 C58.2387417,78.9023837 59.8686984,79.0468437 61.6222315,78.9877464 C62.1251404,78.9713305 62.1267047,78.1505349 61.6222315,78.1669508 C59.9609896,78.2227649 58.3544967,78.0791256 56.7769427,77.5382213 C55.093019,76.961202 53.9855244,76.1601055 52.5643962,75.0766552 C52.156907,74.7663945 51.7658425,75.4780243 52.1702032,75.7858226" id="Fill-81" fill="#1D1E1B"></path>
                <path d="M56.7263026,94.7054135 C57.1721112,91.5889929 57.8625162,88.4042405 58.9703057,85.4863077 C59.1543139,85.0022904 58.4302489,84.7916006 58.2492327,85.2699235 C57.1414432,88.1878563 56.4502903,91.3726087 56.0052297,94.4890293 C55.9319256,95.0015182 56.6522505,95.2219698 56.7263026,94.7054135" id="Fill-83" fill="#1D1E1B"></path>
                <path d="M36.6960212,122.797811 C37.3536459,121.462072 37.6193984,119.852377 38.0998548,118.432343 C38.7251988,116.579492 39.6177968,115.092185 40.8910063,113.694036 C41.2303286,113.322007 40.6995744,112.748158 40.3602521,113.120998 C39.4158549,114.157654 38.4939792,115.225111 37.9804914,116.575439 C37.2733196,118.437207 36.9174816,120.623182 36.047405,122.389308 C35.8206896,122.848874 36.4685551,123.258998 36.6960212,122.797811" id="Fill-85" fill="#1D1E1B"></path>
                <path d="M31.0414026,96.5910762 C31.6923502,97.9432541 31.3488613,100.30201 31.3944997,101.764997 C31.472165,104.24851 31.4913811,106.535976 31.935755,109.006316 C32.3240816,111.169026 32.8965632,113.26587 33.1663902,115.451052 C33.4578353,117.817557 33.4714468,120.167789 33.8974051,122.512597 C34.817379,127.565635 35.8774707,132.569081 35.790998,137.725954 C35.7509643,140.094784 35.7877953,142.512431 36.7261846,144.741781 C37.816702,147.333778 38.8976112,149.965295 39.5998019,152.706845 C40.2899825,155.400352 40.3780566,158.173673 40.6847145,160.912899 C41.0089873,163.813301 41.3957126,166.635439 40.6094512,169.519569 C40.4781408,170.001549 41.24999,170.207669 41.3813005,169.724914 C41.9425726,167.666814 42.1619572,165.242967 41.8721134,163.129076 C41.5686581,160.915223 41.3965133,158.67735 41.0570277,156.475121 C40.5902351,153.455386 39.8760343,150.645646 38.8207466,147.758416 C37.9624246,145.405859 36.9111402,143.24005 36.7133739,140.712369 C36.3082331,135.508227 36.4491516,130.354454 35.3610363,125.195256 C35.0864053,123.892671 34.7445177,122.625731 34.5267345,121.306873 C34.3049479,119.964769 34.3690018,118.642811 34.2136711,117.296832 C33.9454455,114.968297 33.5355007,112.772267 33.034279,110.48635 C32.715611,109.031887 32.3088688,107.436395 32.1847644,105.955586 C32.0782748,104.681672 32.3465005,103.413956 32.2744399,102.151666 C32.1719536,100.364776 32.5226486,97.8394192 31.7331846,96.1997582 C31.5154014,95.748774 30.8252208,96.1408668 31.0414026,96.5910762" id="Fill-87" fill="#1D1E1B"></path>
                <path d="M50.7015593,156.880587 C52.433472,155.162914 55.3680341,154.853733 57.6064112,154.858886 C58.1307891,154.860604 58.1316033,154.001767 57.6064112,154.000049 C55.1278299,153.994896 52.0247178,154.39082 50.1258836,156.27339 C49.7431854,156.652137 50.3196754,157.258476 50.7015593,156.880587" id="Fill-89" fill="#1D1E1B"></path>
                <path d="M67.7366842,156.631774 C67.7464383,156.59239 67.7554421,156.553007 67.7651962,156.513624 C67.6113817,156.606858 67.4575672,156.700091 67.3037527,156.794129 C68.5680329,157.307718 69.63423,158.215139 70.8895065,158.776149 C72.4156465,159.458524 73.9065218,159.707683 75.5287021,159.993814 C76.0014003,160.076599 76.2047356,159.302598 75.7282858,159.218206 C73.9485394,158.904748 72.3533704,158.629869 70.6944247,157.822111 C69.5832086,157.281999 68.6490669,156.484689 67.502586,156.019325 C67.3157577,155.942969 67.0884123,156.104521 67.0418928,156.299829 C67.0321387,156.339213 67.0223846,156.378596 67.0133809,156.417979 C66.8933305,156.919512 67.6173842,157.133307 67.7366842,156.631774" id="Fill-91" fill="#1D1E1B"></path>
                <path d="M82.7304346,157.721197 C83.0703782,155.795738 84.138987,153.90349 84.6552811,151.995023 C85.3891993,149.282544 86.1658917,146.729168 87.1542048,144.097785 C88.0817332,141.626278 88.7323539,139.092983 89.2614053,136.510258 C89.7761985,134.000133 90.9686279,131.679234 91.4226365,129.149028 C91.8879016,126.561669 91.3318348,123.96118 91.5269459,121.35065 C91.6725289,119.402793 91.7603289,117.420181 91.8631375,115.465373 C91.9989648,112.91277 91.9847067,110.292972 91.9997153,107.738051 C92.0124725,105.491297 91.5959853,103.372752 90.8598159,101.263475 C90.698474,100.799295 89.9728105,100.999332 90.1364037,101.468919 C91.7138024,105.990232 91.3288331,111.077676 91.0324142,115.799027 C90.9063424,117.807899 90.8470586,119.842258 90.7457509,121.847269 C90.6054209,124.624625 91.1840006,127.374949 90.4403269,130.098241 C89.8107182,132.402922 88.86593,134.590206 88.420176,136.946633 C87.9001297,139.692324 86.9898612,142.3183 85.9947943,144.918017 C85.1318026,147.174812 84.5644794,149.461728 83.931869,151.790352 C83.414074,153.69264 82.3469661,155.584888 82.0070224,157.515753 C81.9214737,158.001559 82.6441354,158.210092 82.7304346,157.721197" id="Fill-93" fill="#1D1E1B"></path>
                <path d="M42.1341709,105.669326 C42.7426643,106.17926 43.1825295,106.842497 43.7250034,107.417786 C43.9620374,107.669525 44.1942989,107.939016 44.4655359,108.152833 C44.6524587,108.300488 45.1432305,108.487679 45.2140225,108.71844 C45.3651516,109.213043 46.1327282,109.001647 45.9800083,108.504623 C45.7914947,107.885763 45.0366447,107.622728 44.6126879,107.188639 C43.9532878,106.514106 43.4187681,105.704828 42.6965302,105.098878 C42.3051854,104.770487 41.7388491,105.337708 42.1341709,105.669326" id="Fill-95" fill="#1D1E1B"></path>
                <path d="M38.1137808,96.6273498 C40.0465674,98.4610534 41.8276461,100.21413 43.3134897,102.436913 C43.8288499,103.207675 44.2743055,103.965863 44.8937788,104.663395 C45.3615444,105.189318 45.8545946,105.495551 46.4621692,105.931232 C46.8511063,106.210097 47.222939,105.568781 46.8377203,105.292875 C45.2358649,104.144129 44.3367734,102.533813 43.1714496,100.94199 C41.8239278,99.1016291 40.2949516,97.6747578 38.6395523,96.1043856 C38.2930042,95.7759611 37.7664891,96.2981856 38.1137808,96.6273498" id="Fill-97" fill="#1D1E1B"></path>
                <path d="M48.308542,103.472436 C48.3036144,103.492683 48.2979829,103.51368 48.2937593,103.533927 C48.4894535,103.479185 48.6858517,103.423693 48.8815459,103.368201 C47.8108592,102.417336 47.2301121,100.714327 46.604313,99.4147607 C45.7933787,97.7327488 45.340044,95.9307539 44.6403316,94.1962495 C44.4615319,93.7545621 43.8547391,94.136258 44.0321309,94.5749459 C44.8156117,96.5156711 45.3421558,98.4301501 46.2488253,100.318383 C46.835204,101.53846 47.3744189,103.003003 48.3838631,103.899126 C48.5795573,104.072351 48.9005521,104.025858 48.9723536,103.733399 C48.9772811,103.713152 48.9822087,103.692155 48.9871362,103.671908 C49.1011739,103.204724 48.4225796,103.004502 48.308542,103.472436" id="Fill-99" fill="#1D1E1B"></path>
                <path d="M52.7005286,97.6134484 C52.6374565,96.3221409 52.4099178,95.139845 52.6087147,93.8397203 C52.7891489,92.6606306 53.0047119,91.5977667 52.9999216,90.3994397 C52.9911394,88.305774 52.3763858,86.2786375 51.7879787,84.2811587 C51.6426733,83.7873998 50.8722354,83.9982092 51.0183392,84.4943727 C51.6498588,86.6409411 52.3149104,88.8452215 52.2175079,91.1032063 C52.1712018,92.1796967 51.8438654,93.2096969 51.7352856,94.2749655 C51.6179235,95.4139773 51.847059,96.4824522 51.9021473,97.6134484 C51.9268971,98.1272462 52.7260768,98.1304524 52.7005286,97.6134484" id="Fill-101" fill="#1D1E1B"></path>
                <path d="M71.2715172,74.7545087 C72.2541408,74.9351793 73.1624482,75.0414105 74.0797637,75.4578057 C74.8184204,75.7927828 75.7882826,76.282842 76.3602911,76.8845602 C76.6995928,77.2404734 77.2303146,76.6922585 76.8910129,76.3363453 C76.3392724,75.7563386 75.4549863,75.2593007 74.758367,74.8917563 C73.688666,74.3272578 72.6392331,74.221802 71.4711947,74.0070134 C70.9982743,73.9201675 70.7955941,74.6668874 71.2715172,74.7545087" id="Fill-103" fill="#1D1E1B"></path>
                <path d="M84.9999966,88.5997664 C85.0015887,87.8048882 84.4467473,87.1905136 83.9261357,86.6721868 C83.6212516,86.3691395 83.2980584,86.0859642 82.9517801,85.8342528 C82.5601273,85.5485934 82.0689693,85.4086618 81.6996058,85.0981625 C81.3039728,84.7677912 80.7371908,85.3498739 81.1360079,85.6843851 C81.7075662,86.16214 82.4064912,86.3914955 82.9764574,86.8940903 C83.44055,87.3031214 84.2055465,87.915012 84.2039544,88.5997664 C84.2023623,89.1329971 84.9984045,89.1338251 84.9999966,88.5997664" id="Fill-105" fill="#1D1E1B"></path>
                <path d="M85.6456855,91.1017785 C85.2483989,91.0990838 84.8533113,91.0766284 84.4604227,91.0056694 C83.998632,90.9221354 83.7999887,91.7880151 84.2654444,91.8715491 C84.7250361,91.954185 85.1816958,91.9972993 85.6456855,91.9999939 C86.1177383,92.0026886 86.1184713,91.1044731 85.6456855,91.1017785" id="Fill-107" fill="#1D1E1B"></path>
                <path d="M82.8749105,89.296146 C82.5022965,88.9358051 82.0867203,88.6342784 81.733935,88.2515714 C81.3877592,87.8771481 81.0671955,87.482844 80.7061482,87.1216746 C80.3294032,86.7447663 79.744457,87.3295955 80.1220282,87.7073323 C80.4822493,88.0685016 80.8036392,88.4628058 81.149815,88.837229 C81.5026003,89.219936 81.9181765,89.5214627 82.2907905,89.8818036 C82.6733189,90.2520851 83.2582651,89.6672558 82.8749105,89.296146" id="Fill-109" fill="#1D1E1B"></path>
                <path d="M72.6505373,75.4287616 C71.8663636,75.3525622 71.1534785,74.9670158 70.3538712,75.0022723 C69.883514,75.0233124 69.8805742,75.5919649 70.3538712,75.5709247 C70.7764577,75.5521592 71.1453942,75.6914791 71.5349088,75.7966798 C71.9016404,75.8956253 72.2661673,75.9604517 72.6505373,75.9974141 C73.1186898,76.0429063 73.1142802,75.4736852 72.6505373,75.4287616" id="Fill-111" fill="#1D1E1B"></path>
                <path d="M25.1052823,43.6591617 C26.0393614,44.6559407 27.1883613,45.0265187 28.6010526,44.9985362 C29.1317418,44.9887046 29.1342217,44.2324231 28.6010526,44.2422547 C27.3917095,44.2656995 26.4890419,43.9775562 25.6897017,43.1244707 C25.3433485,42.754649 24.7605823,43.2916089 25.1052823,43.6591617" id="Fill-113" fill="#1D1E1B"></path>
                <path d="M36.5902001,61.7892142 C36.6120419,61.7640775 36.6338838,61.7397788 36.6564082,61.7146421 C36.5758664,61.7556986 36.4953246,61.7967552 36.4154654,61.8378117 C36.5417385,61.8252434 36.8461591,62.0548247 36.9615113,62.1185042 C37.1731041,62.2341328 37.344426,62.4301986 37.5375897,62.5877216 C37.7450872,62.7578129 37.8829638,62.8935508 38.0065067,63.1667023 C38.1266368,63.4323129 38.2276553,63.6736247 38.4112632,63.8839346 C38.7320652,64.2517676 39.2159983,63.6602185 38.8938313,63.2915477 C38.6481106,63.0091794 38.5764421,62.5810185 38.3416423,62.2835682 C38.1225414,62.0070651 37.8167557,61.7917278 37.5607967,61.5713632 C37.3239493,61.3685943 37.0290845,61.2320185 36.7656173,61.086226 C36.5164839,60.9479744 36.309669,60.9697595 36.107632,61.1968272 C35.7827347,61.5621465 36.2666679,62.1528576 36.5902001,61.7892142" id="Fill-115" fill="#1D1E1B"></path>
                <path d="M64.0368923,112.589248 C64.8854826,114.491801 66.3901915,116.073413 67.471774,117.862059 C69.0045354,120.394948 70.2388486,123.001723 71.2245849,125.802447 C72.2040872,128.590856 73.7173677,131.140677 74.6095953,133.960643 C75.4729912,136.692099 77.1405608,139.108002 78.2190264,141.743254 C78.4037058,142.197342 79.1580083,141.998775 78.9702119,141.539299 C77.8559014,138.815539 76.1782017,136.297273 75.2742855,133.468842 C74.3711485,130.643489 72.8750112,128.056725 71.8627809,125.267546 C70.9845795,122.847794 70.0066357,120.535792 68.636735,118.354629 C67.3774862,116.349714 65.6647208,114.340181 64.7093748,112.200579 C64.5075521,111.7488 63.8366281,112.139777 64.0368923,112.589248" id="Fill-117" fill="#1D1E1B"></path>
                <path d="M67.0341868,123.582567 C67.235193,124.079467 67.397338,124.60003 67.6512759,125.066399 C67.9259843,125.570169 68.2837754,126.015929 68.3286667,126.634192 C68.3635078,127.119643 69.0335285,127.124223 68.9986874,126.634192 C68.953796,126.018219 68.7360393,125.538874 68.4352,125.031287 C68.0908094,124.448899 67.8697026,123.832162 67.6124147,123.197106 C67.4321791,122.75211 66.8546213,123.139097 67.0341868,123.582567" id="Fill-119" fill="#1D1E1B"></path>
                <path d="M71.0012406,134.366534 C71.2259705,137.254537 72.1324653,140.228762 72.6458932,143.09769 C73.266215,146.567872 73.9454548,150.121986 74.1575595,153.632608 C74.1870185,154.120937 75.0287035,154.123989 74.9992445,153.632608 C74.8098654,150.514175 74.2450947,147.379718 73.7089414,144.296383 C73.4278186,142.678033 73.159321,141.057393 72.8714647,139.439806 C72.5709832,137.753548 71.9759119,136.071104 71.8429256,134.366534 C71.8050498,133.879731 70.9633648,133.875916 71.0012406,134.366534" id="Fill-121" fill="#1D1E1B"></path>
                <path d="M81.3145641,160.176558 C80.898835,160.84609 80.8634077,161.747056 80.789661,162.529596 C80.6414445,164.103189 80.5452846,165.715484 80.5445616,167.298366 C80.5431156,170.433943 80.070992,173.504501 80.0001373,176.626146 C79.9885692,177.124618 80.7115762,177.124618 80.7231443,176.626146 C80.7845999,173.935634 81.210451,171.26602 81.2596155,168.564671 C81.2841978,167.232574 81.3572215,165.936081 81.4222921,164.606306 C81.4808557,163.432883 81.2979349,161.599217 81.9385191,160.567441 C82.1973556,160.151016 81.5712315,159.763229 81.3145641,160.176558" id="Fill-123" fill="#1D1E1B"></path>
                <path d="M41.0003981,171.374655 C40.9923071,172.740635 41.1102047,174.075587 41.1119385,175.437687 C41.1125165,176.068318 41.1356336,176.93243 41.7228101,176.998363 C42.093263,177.04025 42.0915292,176.264566 41.7228101,176.22268 C41.7297453,176.223455 41.5783277,171.432832 41.5783277,171.374655 C41.5812174,170.875115 41.0032878,170.875115 41.0003981,171.374655" id="Fill-125" fill="#1D1E1B"></path>
                <path d="M80.0004687,178.374349 C79.9839267,183.300618 80.4077178,188.191263 80.8756209,193.088878 C81.3577029,198.13054 81.18283,203.218669 81.1781037,208.287437 C81.1749529,210.732372 81.1820423,213.176532 81.1796792,215.622242 C81.1757406,218.310354 80.8196931,220.973683 80.7881845,223.659472 C80.7291058,228.682547 81.3836975,233.513559 82.172201,238.458415 C82.5692097,240.942847 83.1111581,243.509371 83.2048963,246.022457 C83.2931204,248.370586 83.1135212,250.641271 83.4183672,252.981655 C83.7539341,255.555149 83.5451894,258.225448 83.5451894,260.815205 C83.5451894,263.500994 83.5294351,266.18291 83.4774459,268.868699 C83.4262444,271.463103 83.9272316,273.973091 83.8689406,276.563623 C83.8169514,278.891616 84.3006088,281.153781 84.3329052,283.484872 C84.3447209,284.364646 84.49675,285.050034 84.6487792,285.914318 C84.8921833,287.293612 84.6038794,288.594686 84.7062824,289.970107 C84.7897803,291.083765 85.0662685,292.16567 85.1190454,293.283199 C85.186789,294.70896 85.1206209,296.160277 85.1206209,297.588361 L85.1206209,329.69004 C85.1206209,332.178345 85.1214086,334.665874 85.1206209,337.153404 C85.1206209,339.750131 84.8283783,342.298842 84.7393665,344.887051 C84.5668567,349.885343 84.3329052,354.835621 84.3329052,359.860245 C84.3329052,365.317012 84.336056,370.774553 84.3376315,376.232094 C84.3376315,378.551568 84.3273912,380.829222 84.6361757,383.133982 C85.0048267,385.88405 85.4664281,388.760353 85.5176296,391.531331 C85.7137708,402.180777 85.1670961,412.861202 85.5160542,423.506001 C85.6042783,426.211926 85.9122752,428.852796 85.9083366,431.57421 C85.9036103,434.486912 85.9406329,437.401163 85.8886437,440.313091 C85.7854529,446.076539 86.9087355,451.839987 87.0788821,457.610406 C87.2466656,463.287116 87.2033412,469.018812 87.1537151,474.69862 C87.1033013,480.449677 86.5542635,486.160463 84.347084,491.535913 C84.1572446,491.998259 84.9189657,492.198841 85.106442,491.741916 C88.8717231,482.573216 87.8878662,472.417868 87.874475,462.751197 C87.8665979,457.376522 87.6869987,451.970095 87.0686418,446.624849 C86.4896708,441.625007 86.685812,436.604255 86.6960523,431.57421 C86.6999909,429.487844 86.7267732,427.461886 86.4660393,425.387912 C86.0902989,422.403961 86.3187365,419.293774 86.317161,416.288912 C86.3140102,410.894876 86.3021944,405.50084 86.3021944,400.107578 C86.3021944,394.97608 86.3100716,389.979336 85.6641447,384.885011 C84.9764689,379.459997 85.1206209,374.059765 85.1206209,368.598351 C85.1206209,363.390183 85.1418892,358.182014 85.1292857,352.97462 C85.122984,350.501805 85.4995121,348.073908 85.5144787,345.589476 C85.5294453,343.015982 85.9083366,340.469594 85.9083366,337.889905 C85.909912,327.139006 85.9083366,316.387332 85.9083366,305.636433 C85.9083366,300.893708 86.3675749,295.884573 85.6704464,291.188315 C85.4609141,289.778818 85.6090046,288.507173 85.5790714,287.108519 C85.5562277,286.076953 85.1907276,285.115862 85.1166823,284.091266 C85.037123,282.984578 85.1836381,281.871695 85.053665,280.765008 C84.9024236,279.474002 84.6204214,278.244951 84.646416,276.930712 C84.6944667,274.43234 84.2399547,272.039293 84.2517704,269.55641 C84.2659493,266.897727 84.3329052,264.239818 84.3329052,261.579586 C84.3329052,256.47984 84.0800484,251.446697 83.9973383,246.362441 C83.9059632,240.768596 82.1288766,235.245227 81.745259,229.662225 C81.3474626,223.873994 81.9634563,218.11132 81.9626686,212.321541 C81.9626686,209.387154 81.969758,206.453542 81.969758,203.519929 C81.969758,200.601032 82.1737764,197.583004 81.8886233,194.676498 C81.3561275,189.249935 80.7692793,183.834214 80.7881845,178.374349 C80.7897599,177.875604 80.0020442,177.87483 80.0004687,178.374349" id="Fill-127" fill="#1D1E1B"></path>
                <path d="M40.7960461,177.372687 C40.7355686,178.597768 40.4106956,179.776444 40.3680512,181.006166 C40.3277329,182.170921 40.4168985,183.358105 40.4448112,184.52286 C40.5083901,187.142399 39.9702951,189.698518 40.0455043,192.327337 C40.1230396,195.005655 40.1331192,197.486754 39.7508701,200.149604 C39.4066134,202.553361 39.6306904,205.106386 39.6345672,207.532573 C39.6384439,210.364799 39.653951,213.197026 39.6500742,216.029252 C39.6485235,217.571431 39.5795171,219.122891 39.6237122,220.663523 C39.6609292,221.922634 39.9423824,223.145395 40.0113888,224.399092 C40.0726417,225.512802 39.9726211,226.630379 39.9710704,227.744863 C39.9695197,229.065073 40.3440153,230.215907 40.4293041,231.509821 C40.5758459,233.717133 40.5921283,235.933725 40.9022695,238.141036 C41.2186136,240.392432 41.2961489,242.655429 41.6822747,244.903731 C42.1986599,247.916935 41.9590758,251.067807 41.9590758,254.123549 L41.9590758,271.357438 C41.9590758,273.922064 41.992416,276.489785 41.9536483,279.055185 C41.9125546,281.752838 41.6326521,284.461319 41.8807651,287.157425 C42.1226753,289.775417 42.163769,292.417385 42.4304905,295.028416 C42.7088422,297.746178 42.7181465,300.448471 43.0019257,303.168553 C43.2771761,305.799693 43.1096998,308.491933 43.1112505,311.135447 C43.1143519,314.193509 43.1221054,317.250798 43.1213301,320.30886 C43.1197794,325.481424 41.8350193,330.394896 41.4799076,335.538071 C41.1387522,340.473198 40.648729,345.395178 40.1075326,350.31097 C39.5384234,355.471933 38.1350343,360.578758 38.1117737,365.759056 C38.1016941,368.065364 37.7504591,370.520167 37.4659046,372.809459 C37.1906542,375.022185 37.0681484,377.190052 36.8262382,379.399684 C36.2563537,384.603958 35.2041996,389.706915 34.8785513,394.936712 C34.5443741,400.308816 34.5893445,405.663131 34.5885692,411.055344 C34.5885692,413.51324 34.1210313,415.90385 34.0845897,418.357879 C34.043496,421.152208 34.2388849,423.852955 33.9318451,426.640324 C33.6472905,429.231246 33.4146846,431.835317 33.1425357,434.430107 C32.8758142,436.973078 32.4594496,439.325017 32.5478398,441.915166 C32.7471056,447.776065 32.9688566,453.792419 32.436189,459.63785 C32.1624893,462.644094 32.0050927,465.697515 31.6600605,468.690611 C31.3258833,471.588577 30.3729744,474.369759 30.0465507,477.256897 C29.6743812,480.547755 30.1961939,483.846348 29.6433671,487.124832 C29.1626482,489.977167 28.3206147,492.747521 28.0027199,495.630792 C27.9484452,496.125001 28.7237983,496.121134 28.778073,495.630792 C29.0882143,492.817901 29.9178421,490.113287 30.3915828,487.330559 C30.842063,484.67931 30.6117831,482.072146 30.683891,479.401562 C30.7622016,476.508236 31.6236189,473.80749 32.1058886,470.973716 C32.5176011,468.555264 32.488913,466.142226 32.7222943,463.713719 C32.961103,461.236488 33.3635113,458.795607 33.4224381,456.299814 C33.4922199,453.360857 33.4301917,450.412619 33.4301917,447.472115 C33.4301917,444.946159 33.2448823,442.413242 33.2875267,439.889606 C33.3262943,437.622742 33.8558605,435.30406 34.1132777,433.043383 C34.3768978,430.728568 34.4924254,428.400604 34.7886103,426.091976 C35.1189107,423.516522 34.8219505,420.946481 34.8599428,418.357879 C34.8963844,415.90385 35.3639223,413.514787 35.3639223,411.055344 C35.3646976,408.207649 35.3809801,405.359181 35.3685744,402.511487 C35.3577195,399.953047 35.5011598,397.484324 35.6539044,394.936712 C35.8229313,392.116087 36.0935296,389.115257 36.5370315,386.322474 C37.2790445,381.646439 37.7256478,377.00134 38.3125901,372.325305 C38.5816377,370.186827 38.8793733,367.917643 38.8871268,365.759056 C38.896431,363.12869 39.2732526,360.408608 39.7710293,357.806857 C40.7479742,352.7039 41.1775199,347.549898 41.5938845,342.393575 C42.0024956,337.339342 42.6041696,332.318366 43.4423263,327.327553 C44.3324316,322.026603 43.8912557,316.491309 43.8866036,311.135447 C43.8827268,305.751742 43.7912352,300.368037 43.2058436,295.028416 C42.6251041,289.721278 42.6437126,284.381658 42.7290014,279.055185 C42.815841,273.567069 42.7344289,268.07122 42.7344289,262.583104 L42.7344289,254.123549 C42.7344289,251.418161 43.026737,248.537983 42.6630964,245.858119 C42.3188396,243.327522 42.0466907,240.796152 41.7024339,238.269422 C41.3387933,235.600385 41.4535456,232.830032 40.9774788,230.201986 C40.7014531,228.679915 40.775887,227.2406 40.7921694,225.704608 C40.8076764,224.306283 40.5580127,222.9969 40.4463619,221.61095 C40.1966982,218.498749 40.4293041,215.291419 40.4215506,212.166844 C40.4137971,208.840409 40.39829,205.512427 40.4145724,202.185991 C40.4277534,199.57496 40.9929858,197.056738 40.9038202,194.415544 C40.8510962,192.845522 40.7340179,191.2755 40.8433427,189.705478 C40.9317329,188.427806 41.2155122,187.177975 41.2496277,185.896436 C41.2868446,184.511259 41.1542593,183.117574 41.1503825,181.731624 C41.1457304,180.251318 41.4992914,178.842165 41.5713992,177.372687 C41.5962105,176.875384 40.8208574,176.876158 40.7960461,177.372687" id="Fill-129" fill="#1D1E1B"></path>
                <path d="M50.0850982,280.371925 C50.0073413,283.715404 49.1419529,286.99959 49.0221158,290.345379 C48.9086822,293.50559 49.2261133,296.648861 50.1015643,299.725138 C50.2387824,300.206408 51.1206369,300.00312 50.9834189,299.52031 C50.0631433,296.285406 49.7850481,292.971958 49.9680054,289.65312 C50.1399854,286.542961 50.9267021,283.485935 50.9998851,280.371925 C51.0117773,279.876025 50.0969904,279.876025 50.0850982,280.371925" id="Fill-131" fill="#1D1E1B"></path>
                <path d="M51,309.373739 L51,313.626261 C51,314.124193 52,314.124966 52,313.626261 L52,309.373739 C52,308.875807 51,308.875034 51,309.373739" id="Fill-133" fill="#1D1E1B"></path>
                <path d="M40.1668152,446.375922 C40.03352,453.276379 37.9241222,459.960468 37.4134346,466.831351 C36.8994147,473.759828 36.5486815,480.698422 36.0013377,487.626121 C35.9621823,488.125793 36.7952778,488.123458 36.8344332,487.626121 C37.381777,480.698422 37.7325102,473.759828 38.2465301,466.831351 C38.7572177,459.960468 40.8666155,453.278714 40.9999107,446.375922 C41.0099079,445.874693 40.1768124,445.874693 40.1668152,446.375922" id="Fill-135" fill="#1D1E1B"></path>
                <path d="M42,466.405057 L42,470.594943 C42,471.1346 43,471.135438 43,470.594943 L43,466.405057 C43,465.8654 42,465.864562 42,466.405057" id="Fill-137" fill="#1D1E1B"></path>
                <path d="M75.1281927,166.382102 C75.1281927,171.087085 74.6914458,176.089291 75.4302419,180.716016 C75.5095444,181.213233 76.0716591,181.002963 75.9923566,180.505746 C75.2675551,175.965975 75.7112993,171.002503 75.7112993,166.382102 C75.7112993,165.873028 75.1281927,165.872237 75.1281927,166.382102" id="Fill-139" fill="#1D1E1B"></path>
                <path d="M75.5451574,205.899615 C75.6306417,205.815755 75.7161259,205.731895 75.8022296,205.647265 C75.6294028,205.591102 75.4565759,205.534169 75.2843685,205.478006 C75.4726816,206.203513 75.3456942,206.975183 75.328969,207.721463 C75.3066688,208.68855 75.3258718,209.660253 75.3258718,210.62811 C75.3258718,211.123579 75.9453228,211.124348 75.9453228,210.62811 C75.9453228,209.576393 75.9162086,208.516983 75.9577118,207.466035 C75.9862065,206.728218 76.0673546,205.989631 75.8815193,205.273355 C75.8047074,204.976382 75.5470158,204.924065 75.3642777,205.103327 C75.278174,205.187956 75.1926898,205.271817 75.1072055,205.355677 C74.7943828,205.661883 75.2354319,206.203513 75.5451574,205.899615" id="Fill-141" fill="#1D1E1B"></path>
                <path d="M48.6362811,162.000117 C47.8757099,162.017782 47.3139414,162.732405 46.9072994,163.341842 C46.4773131,163.986609 46.0405494,164.80401 46.0006383,165.613381 C45.9750349,166.129676 46.7280757,166.12807 46.7536791,165.613381 C46.7815416,165.050514 47.1189039,164.462757 47.3960229,164.002668 C47.6460324,163.586741 48.1053873,162.815912 48.6362811,162.803064 C49.1204863,162.791823 49.1219924,161.988876 48.6362811,162.000117" id="Fill-143" fill="#1D1E1B"></path>
                <path d="M73.1221175,376.35901 C73.1221175,379.357349 72.7006682,382.844395 73.4236517,385.741725 C73.5365815,386.195523 74.098902,386.001675 73.984808,385.544163 C73.2821984,382.730017 73.7042299,379.284563 73.7042299,376.35901 C73.7042299,375.880702 73.1221175,375.879959 73.1221175,376.35901" id="Fill-145" fill="#1D1E1B"></path>
                <path d="M76,391.364044 L76,396.635956 C76,397.120971 77,397.121725 77,396.635956 L77,391.364044 C77,390.879029 76,390.878275 76,391.364044" id="Fill-147" fill="#1D1E1B"></path>
                <path d="M73.6655039,0.980695851 C73.7428878,0.890797322 73.819474,0.801716052 73.896858,0.711817523 C73.6878415,0.546731133 73.4796228,0.381644743 73.2706063,0.216558353 C72.8238534,1.15395483 72.4193826,2.06601628 71.9064146,2.96827061 C71.458864,3.75610863 71.1325748,4.58154058 71.0049312,5.48706394 C70.9315361,6.00112008 71.7005892,6.22341462 71.7731865,5.70363767 C71.9088079,4.74744423 72.2757834,3.92691583 72.7592338,3.1031184 C73.2307176,2.29975245 73.5594001,1.46941695 73.9590843,0.629274328 C74.1457632,0.236989837 73.6511439,-0.23620333 73.3328326,0.134015158 C73.2554486,0.223096428 73.1788624,0.312994957 73.1014784,0.402893486 C72.7632227,0.795995237 73.3256526,1.37624938 73.6655039,0.980695851" id="Fill-149" fill="#1D1E1B"></path>
                <path d="M79.4390452,3.04414968 C79.5595142,2.95460375 79.6807862,2.86505782 79.8020583,2.77551188 C79.6052924,2.62024416 79.4085264,2.46579797 79.2117605,2.31135177 C78.9146038,3.36700795 77.8014709,4.049693 77.1814575,4.91146992 C76.6305129,5.67795024 76.6216785,6.67856443 76.0787652,7.41136234 C75.7663491,7.83280329 76.4634626,8.24274293 76.7718631,7.82623111 C77.0794604,7.41136234 77.1678043,7.00717336 77.3083514,6.51425997 C77.5019048,5.83403948 77.8456428,5.32469564 78.3106529,4.80877963 C78.953957,4.09569825 79.7137144,3.49598696 79.9867773,2.52987671 C80.0767274,2.20866148 79.6888175,1.84965623 79.3964795,2.0657166 C79.2752075,2.15526253 79.1547386,2.24480846 79.0334665,2.33517592 C78.6190534,2.64242527 79.0198134,3.35468512 79.4390452,3.04414968" id="Fill-151" fill="#1D1E1B"></path>
                <path d="M8.43933051,51 L8.66639344,51 C9.11085704,51 9.1115472,50 8.66639344,50 L5.33360656,50 C4.88914296,50 4.8884528,51 5.33360656,51 L8.66639344,51 C9.11085704,51 9.1115472,50 8.66639344,50 L8.43933051,50 C7.9948669,50 7.99417674,51 8.43933051,51" id="Fill-153" fill="#1D1E1B"></path>
                <path d="M7.72396837,45.1671817 C5.81075386,44.828439 1.82654182,42.9237616 0.112271127,44.8481632 C-0.23530888,45.2383605 0.303592578,45.8455247 0.651172584,45.4544698 C1.31660536,44.7075207 2.8479392,44.9930937 3.70240672,45.0968604 C5.00354503,45.2563697 6.23227084,45.7657701 7.52121337,45.9938854 C8.00142258,46.0787855 8.20798877,45.2529393 7.72396837,45.1671817" id="Fill-155" fill="#1D1E1B"></path>
                <path d="M21.9946599,15.4613538 C21.8618282,14.6152422 21.5850957,13.7468193 20.8595532,13.1263947 C20.4016866,12.7350895 19.6892261,13.3417842 20.148099,13.7330893 C20.744835,14.244532 20.915906,14.9988242 21.0245865,15.6896151 C21.1111283,16.2336666 22.0801954,16.0019727 21.9946599,15.4613538" id="Fill-157" fill="#1D1E1B"></path>
                <path d="M10.7577686,20.3429413 C10.3002406,20.2732126 9.87749545,20.0741813 9.41996746,20.0044526 C8.99922901,19.9401398 8.81728806,20.5927459 9.24203991,20.6570587 C9.6995679,20.7267874 10.122982,20.9258187 10.579841,20.9955474 C11.0012484,21.0598602 11.1825204,20.4072541 10.7577686,20.3429413" id="Fill-159" fill="#1D1E1B"></path>
            </g>
        </g>
    </g>
</svg>