<svg xmlns="http://www.w3.org/2000/svg" xmlns:xlink="http://www.w3.org/1999/xlink" width="320" height="370" viewBox="0 0 320 370">
    <defs>
        <path id="a" d="M.394.33h35.744v37.96H.394z"/>
        <path id="c" d="M0 13.474V.067h35.224v13.407H0z"/>
        <path id="e" d="M.866 3.617H.335V.148h.53z"/>
        <path id="g" d="M0 7.534V.15h30.157v7.384H0z"/>
        <path id="i" d="M.337.305h37.435V19.93H.337V.305z"/>
        <path id="k" d="M.14.342h65.01v37.719H.14V.342z"/>
        <path id="m" d="M1.094 3.775h-.73V.121h.73v3.654z"/>
        <path id="o" d="M0 .705V.233h.472v.472z"/>
    </defs>
    <g fill="none" fill-rule="evenodd">
        <path fill="#F2F2F2" d="M241.789 36.036c-.878-2.115-2.963-1.26-4.633-.888-2.548.57-4.35-1.38-6.829-1.147-1.26.117-1.741 1.385-1.445 2.294-1.12.103-2.246.14-3.38.106-.651-.02-2.559.117-2.763-.72-.133-.543.478-1.648.468-2.272-.059-3.698-5.14-4.202-7.67-5.427-1.865-.904-3.32 1.593-1.62 2.775 1.423.988 4.625 2.46 1.827 4.039-1.352.763-2.947.729-4.409.335a9.325 9.325 0 0 1-.984-1.141c-.806-1.108-2.49-1.01-2.933.384-.412 1.297.093 2.263.98 2.92.121.144.28.268.483.358.328.147.663.29 1.003.43 2.06 1.73 4.594 2.794 7.39 2.897 2.441.09 4.808-.708 7.24-.742 2.672-.036 5.235.214 7.907-.113 2.335-.286 4.717-.59 7.02-1.056 1.548-.313 3.115-1.184 2.348-3.032M266.814 24.08c-1.272-.324-2.578-.531-3.896-.494-.61.018-1.223.083-1.824.184-.008 0-1.41.272-1.473.518-.166-.302-.394-1.053-.514-1.252a6.276 6.276 0 0 0-.939-1.17c-.782-.772-1.787-1.344-2.83-1.669-2.139-.668-5.049-.494-7.04.59-2.193 1.193-1.754 3.334-1.76 5.446-.007 2.07 3.203 2.072 3.209 0 .002-.594-.316-1.697-.106-2.238.358-.919 2.469-.968 3.267-.948.983.024 1.944.254 2.72.878.743.599.817 1.291 1.258 2.056.62 1.08 1.58 1.475 2.799 1.358 2.278-.216 3.97-.745 6.277-.16 2.002.51 2.856-2.59.852-3.1M260.244 36.295c-.57.272-1.15.548-1.744.771-.698-.37-1.408-1.628-1.846-2.046a10.274 10.274 0 0 0-2.426-1.693c-1.787-.91-3.73-1.407-5.674-1.853-1.914-.438-2.777 2.332-1.112 3.01.302.289.683.42 1.097.565.047.358-.008.747-.16 1.026a2.82 2.82 0 0 1-.227.118c-1.119.084-2.23.285-3.318.62-1.688.521-1.436 3.2.427 3.158 2.82-.064 5.334.176 8.085.796 2.233.504 4.378.617 6.4-.602.136-.083.25-.187.348-.304.595-.24 1.184-.51 1.77-.79 1.864-.889.237-3.662-1.62-2.776M249.405 9.19c-1.707-3.37-5.259-4.432-8.698-5.196a1.182 1.182 0 0 0-.162-.022 4.985 4.985 0 0 0-.07-.522c-.338-1.816-1.826-2.875-3.6-2.962-1.225-.06-1.233 1.576-.268 1.974 1.005.414 1.747 1.582.738 2.414-.642.53-.184 1.433.443 1.679 2.081.816 1.814 3.382.562 4.795-.478.54-1.061.934-1.694 1.239-.092.041-.183.084-.275.123l-.064.027a12.93 12.93 0 0 1-1.732.568c-.015.004-.026.01-.04.014-.26.066-.522.126-.786.176-.49.068-.98.135-1.46.213-1.105.18-.86 2.083.267 1.973.485-.047.966-.117 1.441-.205 1.982-.267 4.052-.508 5.692-1.666 2.338-1.652 4.132-2.954 7.133-2.972.372-.002.685-.228.859-.528.112.09.226.176.342.253.892.586 1.797-.536 1.372-1.375"/>
        <path fill="#071F2C" d="M256.99 37.5l5.371-.432c1.046-.084 2.468.011 3.365-.651.537-.397.716-1.016 1.075-1.55.489-.727 1.262-1.148 2.079-1.407 1.21-.385 2.494-.413 3.717-.74 1.652-.444 4.05-1.954 3.064-4.027-.38-.8-1.238-1.077-2.03-1.294-.589-.16-1.315-.275-1.764-.729-.617-.625-.397-1.58-.655-2.352-.572-1.707-2.66-1.812-4.149-2.058-1.06-.175-2.268-.399-2.96-1.304-.854-1.119-.534-2.681-.718-3.989-.157-1.12-.687-1.935-1.567-2.627-.523-.41-1.098-.753-1.595-1.196-.663-.59-.961-1.296-1.303-2.098-.909-2.137-2.885-2.921-5.126-2.677-1.625.176-3.115.901-4.646 1.421-1.681.57-3.403.462-5.097.88-2.76.683-4.38 3.807-7.313 3.943-.257.011-.259.414 0 .402 2.155-.1 3.612-1.736 5.272-2.902 1.186-.834 2.354-1.155 3.794-1.271a15.146 15.146 0 0 0 4.11-.9c2.348-.861 5.77-2.272 7.86-.055.82.87.937 2.148 1.694 3.063.756.915 1.904 1.376 2.705 2.24 1.647 1.78.102 4.682 1.923 6.365 1.22 1.128 3.098 1.047 4.62 1.391 1.024.232 1.933.666 2.187 1.777.224.983.083 1.926 1.061 2.52.797.483 1.793.456 2.602.905 1.914 1.063.407 3.154-.964 3.793-2.19 1.02-5.296.393-6.955 2.46-.488.607-.655 1.452-1.393 1.836-.781.407-1.839.345-2.694.414l-5.57.448c-.256.02-.258.422 0 .401"/>
        <g transform="translate(213.82 .071)">
            <mask id="b" fill="#fff">
                <use xlink:href="#a"/>
            </mask>
            <path fill="#071F2C" d="M36.12 9.61a9.493 9.493 0 0 0-5.4-5.084 9.724 9.724 0 0 0-1.96-.502c-.846-.126-1.971.09-2.33-.919-.365-1.021-.473-1.798-1.536-2.35C22.688-.39 20.47.96 19.04 2.664c-1.995 2.374-3.5 4.943-4.285 7.94-.398 1.517-1.156 2.524-2.527 3.265-.99.535-2.065.883-3.093 1.332-.897.39-1.81.857-2.458 1.614-.792.924-.76 2.001-1.063 3.122-.663 2.455-4.025 2.2-4.974 4.43-1.15 2.704 1.996 4.464 4.065 5.112 1.423.445 3.558.968 4.08 2.592.412 1.28-.815 2.596.151 3.789 1.81 2.234 6.105-.393 7.387 2.327.11.234.456.03.346-.203-.916-1.946-3.374-1.364-5.086-1.476-.642-.042-1.36-.168-1.908-.53-.906-.596-.759-1.487-.536-2.414.221-.92.15-1.751-.478-2.497-1.714-2.037-4.854-1.658-6.746-3.431-1.342-1.258-1.435-3.192.128-4.275.842-.584 1.84-.904 2.671-1.506.87-.63 1.233-1.409 1.41-2.458.224-1.316.594-2.315 1.739-3.081 1.68-1.124 3.782-1.425 5.417-2.633 2.088-1.542 1.97-4.412 3.161-6.546.702-1.26 1.55-2.462 2.421-3.61C19.81 2.28 21.044.955 22.687.767c.717-.083 1.473.033 2.106.394.8.455 1.012 1.08 1.217 1.918.313 1.283 1.283 1.173 2.409 1.303a9.207 9.207 0 0 1 7.354 5.432c.104.236.45.031.346-.203" mask="url(#b)"/>
        </g>
        <path fill="#071F2C" d="M262.153 36.915c-.996 1.34-2.077 2.783-3.6 3.558-1.693.861-3.489.459-5.233 0-1.614-.425-3.109-.758-4.783-.55-1.65.206-3.341.698-4.953.042-.87-.355-1.555-.978-1.74-1.937-.125-.644-.014-1.312-.144-1.957-.197-.983-.907-1.57-1.916-1.582-1.58-.019-2.851 1.296-4.468.777-1.255-.403-2.205-1.368-3.585-1.376-.259-.002-.259.4 0 .402 1.519.01 2.584 1.305 4.054 1.496 1.572.204 3.05-1.362 4.59-.812 1.554.555.692 3.041 1.53 4.224.687.972 1.932 1.408 3.075 1.492 1.78.13 3.51-.56 5.295-.438 1.753.119 3.393.859 5.13 1.08 3.268.417 5.3-1.801 7.095-4.216.154-.208-.194-.408-.347-.203"/>
        <g transform="translate(207 27.398)">
            <mask id="d" fill="#fff">
                <use xlink:href="#c"/>
            </mask>
            <path fill="#071F2C" d="M35.079 11.435c-2.848-.422-5.575.629-8.332 1.169-3.382.663-6.671-.528-10.053-.086-1.593.209-3.163.59-4.778.559-1.748-.035-3.462-.48-5.099-1.069-1.588-.571-3.218-1.228-4.707-2.03-.781-.42-1.553-1.013-1.677-1.95-.178-1.352.978-1.508 1.988-1.767C3.56 5.97 4.291 5.07 4.887 4.108 5.692 2.808 6.56.414 8.375.47c.258.008.258-.394 0-.402-2.94-.09-3.251 4.416-5.474 5.592C1.804 6.24.24 5.892.02 7.497c-.155 1.129.587 2.027 1.484 2.595 1.417.896 3.123 1.516 4.687 2.111 1.664.634 3.395 1.131 5.18 1.25 1.935.129 3.782-.366 5.69-.579 1.944-.217 3.825.153 5.754.334 1.96.184 3.792-.13 5.693-.589 2.113-.509 4.272-1.121 6.463-.797.253.038.361-.35.107-.387" mask="url(#d)"/>
        </g>
        <path fill="#071F2C" d="M264.238 26.846c-4.222-1.695-7.63 3.25-11.825 2.293-.252-.057-.359.33-.107.388 4.222.962 7.677-3.96 11.826-2.293.24.096.343-.293.106-.388"/>
        <path fill="#071F2C" d="M258.942 27.449c-1.853-.653-1.778-2.5-2.854-3.81-.654-.797-1.635-1.18-2.638-1.289-1.753-.191-5.21.504-4.436 3.005.076.246.464.142.387-.107-.929-3.003 4.784-2.961 6.181-1.574.759.753.885 1.85 1.437 2.724a3.494 3.494 0 0 0 1.817 1.439c.244.086.349-.302.106-.388M272.506 33.875l.137 1.74c.02.257.421.26.401 0l-.136-1.74c-.02-.257-.422-.259-.402 0M272.635 38.698l-.134 1.473c-.023.258.378.256.402 0l.133-1.473c.024-.258-.378-.256-.4 0M272.88 43.015c.323 0 .323-.5 0-.5-.321 0-.322.5 0 .5M272.499 44.86a5.63 5.63 0 0 0 .14 1.66c.06.252.446.146.387-.106a5.271 5.271 0 0 1-.126-1.554c.017-.259-.385-.258-.401 0M272.632 48.477v1.74c0 .26.5.26.5 0v-1.74c0-.26-.5-.26-.5 0M272.771 53.165a6.951 6.951 0 0 0 0 1.875c.034.253.47.257.434 0a6.951 6.951 0 0 1 0-1.875c.035-.256-.4-.254-.434 0M272.632 57.987v1.608c0 .258.5.259.5 0v-1.608c0-.259-.5-.26-.5 0M272.231 62.14v.268c0 .259.5.259.5 0v-.268c0-.259-.5-.26-.5 0M267.551 36.152v1.474c0 .259.5.26.5 0v-1.474c0-.258-.5-.259-.5 0M267.283 40.037v.804c0 .259.5.26.5 0v-.804c0-.259-.5-.259-.5 0M267.283 43.118v.938c0 .259.5.26.5 0v-.938c0-.259-.5-.26-.5 0M267.29 47.056l.268 1.072c.063.25.45.144.387-.107l-.268-1.072c-.062-.25-.449-.144-.386.107M267.551 50.352v.134c0 .259.5.26.5 0v-.134c0-.26-.5-.26-.5 0M267.551 53.299v2.143c0 .259.5.26.5 0V53.3c0-.259-.5-.26-.5 0M267.551 58.389v.536c0 .259.5.26.5 0v-.536c0-.259-.5-.26-.5 0M252.708 66.252v.804c0 .259.5.26.5 0v-.804c0-.259-.5-.26-.5 0M252.708 69.333v.938c0 .259.5.259.5 0v-.938c0-.259-.5-.26-.5 0M252.715 73.271l.268 1.072c.062.25.45.144.386-.107l-.267-1.072c-.062-.25-.45-.144-.387.107M252.975 76.567v.134c0 .259.5.259.5 0v-.134c0-.259-.5-.26-.5 0M252.975 79.514v2.143c0 .259.5.26.5 0v-2.143c0-.259-.5-.26-.5 0M252.975 84.604v.536c0 .259.5.26.5 0v-.536c0-.258-.5-.26-.5 0M262.603 40.573v1.474c0 .258.5.259.5 0v-1.474c0-.259-.5-.26-.5 0M262.985 45.694c.322 0 .323-.5 0-.5-.322 0-.322.5 0 .5M262.336 47.94v1.072c0 .259.5.26.5 0V47.94c0-.258-.5-.259-.5 0M262.202 51.691v.804c0 .259.5.26.5 0v-.804c0-.258-.5-.259-.5 0M262.186 54.696l.133.803c.043.255.429.147.387-.107l-.133-.803c-.042-.255-.428-.147-.387.107M262.59 59.462l.128 1.073c.03.254.432.257.4 0l-.127-1.073c-.031-.253-.433-.256-.402 0M257.112 43.385l-.136 1.473c-.024.258.377.256.401 0l.136-1.473c.024-.257-.377-.256-.4 0M257.235 47.57c.322 0 .323-.5 0-.5-.322 0-.322.5 0 .5M256.72 48.744v.938c0 .259.5.26.5 0v-.938c0-.259-.5-.259-.5 0M257.122 52.093l.134 1.607c.021.256.423.259.401 0l-.134-1.607c-.021-.256-.422-.258-.4 0M257.656 57.183v1.206c0 .259.5.26.5 0v-1.206c0-.258-.5-.259-.5 0M257.636 61.77c.322 0 .323-.5 0-.5-.322 0-.322.5 0 .5M252.842 42.716v1.474c0 .259.5.259.5 0v-1.474c0-.259-.5-.26-.5 0M252.839 46.065l-.156 1.337c-.03.256.371.254.4 0l.157-1.337c.03-.256-.371-.254-.401 0M252.823 49.445c.322 0 .322-.5 0-.5s-.323.5 0 .5M252.577 51.636c-.156.38-.19.777-.127 1.18.04.255.426.147.386-.107-.05-.332 0-.657.127-.966.098-.24-.29-.344-.386-.107M252.18 55.764l.134.803c.042.255.429.147.387-.107l-.134-.803c-.043-.255-.429-.147-.387.107M252.316 59.194a16.577 16.577 0 0 0 .097 3.083c.031.254.433.257.4 0a16.577 16.577 0 0 1-.095-3.083c.016-.259-.386-.258-.402 0M239.985 65.917v1.473c0 .259.5.26.5 0v-1.473c0-.259-.5-.26-.5 0M239.982 69.265l-.156 1.337c-.03.257.371.255.401 0l.156-1.337c.03-.256-.371-.254-.401 0M239.966 72.646c.322 0 .322-.5 0-.5s-.323.5 0 .5M239.72 74.837c-.156.38-.19.776-.127 1.18.04.254.426.146.387-.107a1.8 1.8 0 0 1 .126-.967c.098-.239-.29-.343-.386-.106M239.323 78.964l.134.804c.042.255.43.146.387-.107l-.134-.804c-.043-.254-.429-.147-.387.107"/>
        <g transform="translate(239.093 82.052)">
            <mask id="f" fill="#fff">
                <use xlink:href="#e"/>
            </mask>
            <path fill="#071F2C" d="M.366.342a16.582 16.582 0 0 0 .097 3.084c.031.253.433.256.4 0A16.582 16.582 0 0 1 .769.342C.784.083.382.084.366.342" mask="url(#f)"/>
        </g>
        <path fill="#071F2C" d="M263.136 64.182v1.474c0 .259.5.26.5 0v-1.474c0-.258-.5-.259-.5 0M263.133 67.531l-.156 1.337c-.03.256.372.254.401 0l.156-1.337c.03-.257-.371-.254-.4 0M263.117 70.911c.322 0 .323-.5 0-.5-.322 0-.322.5 0 .5M262.871 73.102c-.155.38-.189.776-.126 1.18.039.255.425.147.386-.107a1.8 1.8 0 0 1 .127-.966c.098-.24-.29-.344-.387-.107M262.475 77.23l.133.803c.043.255.43.147.387-.107l-.134-.804c-.042-.254-.428-.146-.386.107M262.61 80.66a16.577 16.577 0 0 0 .097 3.084c.032.253.433.256.401 0a16.578 16.578 0 0 1-.096-3.084c.016-.259-.385-.258-.401 0M246.956 42.582l-.134 1.206c-.029.256.373.254.4 0l.135-1.206c.029-.256-.373-.254-.4 0M246.69 46.869v.67c0 .258.5.259.5 0v-.67c0-.259-.5-.26-.5 0M246.42 50.352c.045.836.006 1.664-.126 2.49-.04.254.346.363.387.108a12.14 12.14 0 0 0 .14-2.598c-.014-.257-.416-.26-.402 0M240.673 42.314v1.608c0 .259.5.259.5 0v-1.608c0-.259-.5-.259-.5 0M240.673 47.137v1.741c0 .26.5.26.5 0v-1.741c0-.26-.5-.26-.5 0M240.406 51.29v1.339c0 .259.5.26.5 0v-1.34c0-.258-.5-.259-.5 0M240.272 55.71v1.608c0 .258.5.259.5 0V55.71c0-.259-.5-.259-.5 0M240.112 60.34l-.257 1.877c-.035.253.352.362.387.107l.257-1.876c.035-.254-.352-.363-.387-.107M233.72 42.448v2.144c0 .258.5.259.5 0v-2.144c0-.258-.5-.259-.5 0M233.98 46.813l-.133.804c-.042.253.344.362.387.107l.134-.804c.042-.253-.345-.362-.387-.107M233.968 50.249c.322 0 .322-.5 0-.5s-.323.5 0 .5M233.591 53.11c-.076.45-.038.892.137 1.313.098.236.486.132.387-.106a1.965 1.965 0 0 1-.137-1.099c.043-.253-.343-.362-.387-.107M233.987 57.585v1.206c0 .259.5.26.5 0v-1.206c0-.259-.5-.259-.5 0M233.863 60.8l-.08 1.47c-.014.259.404.258.419 0l.08-1.47c.014-.258-.405-.257-.419 0M246.003 57.215c.322 0 .322-.5 0-.5s-.323.5 0 .5M227.837 42.528c-.133.819-.18 1.637-.131 2.465.015.257.416.259.401 0-.047-.791-.01-1.575.117-2.358.041-.253-.345-.362-.387-.107M227.836 47.27v1.474c0 .259.5.26.5 0v-1.473c0-.259-.5-.26-.5 0M227.97 51.155v1.474c0 .259.5.26.5 0v-1.474c0-.258-.5-.259-.5 0M227.836 55.576c.022.35-.019.685-.126 1.018-.08.247.307.353.386.107.118-.365.166-.742.141-1.125-.016-.257-.418-.259-.401 0M227.839 58.925a4.618 4.618 0 0 1-.266 1.821c-.087.244.3.349.387.107a4.911 4.911 0 0 0 .28-1.928c-.014-.257-.415-.26-.401 0M220.756 44.11l.133.803c.043.254.43.146.387-.107l-.133-.804c-.043-.254-.43-.146-.387.107M220.882 48.075l.134 1.205c.028.254.43.257.401 0l-.134-1.205c-.028-.255-.43-.258-.4 0M221.283 51.155v.67c0 .26.5.26.5 0v-.67c0-.258-.5-.259-.5 0M221.532 54.268c.322 0 .322-.5 0-.5s-.323.5 0 .5M221.283 56.514v1.206c0 .258.5.259.5 0v-1.206c0-.259-.5-.26-.5 0M221.157 60.747l-.134.402c-.082.246.306.351.387.107l.134-.402c.082-.246-.306-.351-.387-.107M227.373 65.445l.134.804c.042.254.428.146.386-.107l-.133-.804c-.043-.254-.43-.146-.387.107M227.5 69.41l.133 1.206c.028.254.43.257.401 0l-.133-1.206c-.028-.254-.43-.257-.401 0M227.9 72.491v.67c0 .259.5.259.5 0v-.67c0-.258-.5-.259-.5 0M228.15 75.603c.321 0 .322-.5 0-.5-.323 0-.323.5 0 .5M227.9 77.85v1.205c0 .259.5.26.5 0V77.85c0-.258-.5-.259-.5 0M227.774 82.083l-.133.402c-.083.245.305.35.386.107l.134-.402c.082-.247-.305-.352-.387-.107M245.298 60.93l.134.804c.043.255.43.147.387-.107l-.134-.804c-.042-.254-.429-.146-.387.107M245.425 64.895l.134 1.206c.028.254.43.257.4 0l-.133-1.206c-.028-.254-.43-.257-.401 0M245.826 67.977v.67c0 .258.5.259.5 0v-.67c0-.26-.5-.26-.5 0M246.074 71.089c.322 0 .323-.5 0-.5-.322 0-.322.5 0 .5M245.826 73.335v1.205c0 .26.5.26.5 0v-1.205c0-.26-.5-.26-.5 0M245.7 77.568l-.134.402c-.082.245.305.351.387.107l.133-.402c.082-.246-.305-.351-.386-.107M214.464 42.314l-.134 1.206c-.028.257.373.255.401 0l.134-1.206c.028-.257-.373-.254-.401 0M214.337 46.252l.134.536c.062.25.45.145.386-.107l-.133-.535c-.063-.251-.45-.145-.387.106M214.598 49.146v1.206c0 .258.5.259.5 0v-1.206c0-.259-.5-.26-.5 0M214.33 52.763v.536c0 .259.5.26.5 0v-.536c0-.259-.5-.26-.5 0M214.578 56.01c.322 0 .323-.5 0-.5-.322 0-.322.5 0 .5M208.179 40.305c-.04.695.01 1.38.14 2.063.05.254.436.146.387-.107a7.893 7.893 0 0 1-.126-1.956c.015-.258-.386-.258-.401 0M208.695 46.498c.322 0 .322-.5 0-.5s-.323.5 0 .5M208.312 48.208v1.876c0 .259.5.26.5 0v-1.876c0-.258-.5-.259-.5 0M208.283 52.495l.002 1.206c0 .259.498.259.498 0l-.003-1.206c0-.259-.498-.259-.497 0"/>
        <g>
            <g transform="translate(42 91.976)">
                <mask id="h" fill="#fff">
                    <use xlink:href="#g"/>
                </mask>
                <path fill="#F2F2F2" d="M28.806.809c-2.967.274-5.736-.008-8.666-.46-1.052-.162-2.089-.26-3.092-.158a13.983 13.983 0 0 0-4.605 1.03c-.776.315-1.45.533-2.13.671-3.103-.279-6.332-.799-9.314-.08-1.314.317-1.23 1.91-.339 2.599 1.842 1.426 4.056 1.195 6.248 1.098 3.032-.134 5.696.589 8.567 1.445C20.92 8.58 25.09 6.59 29.522 3.46c1.03-.728.818-2.791-.716-2.65" mask="url(#h)"/>
            </g>
            <path fill="#F2F2F2" d="M104.718 86.214c-.276-1.914-2.274-2.662-3.972-2.716-2.941-.092-5.756 1.5-8.425 2.53-1.289.5-2.596.974-3.946 1.277-1.737.39-3.302.2-5.038.323-2.609.186-4.2 2.39-6.636 2.983a.945.945 0 0 0-.54.334c-.953.268-.841 1.93.333 1.993.849.045 1.693.064 2.538.064 2.485.563 4.691-.285 7.086-.943 3.03-.832 5.697.25 8.714.165 1.012-.028 2.021-.219 2.93-.683 1.4-.714 2.33-1.887 3.889-2.32 1.577-.437 3.371-.905 3.067-3.007M98.811 76.656c-1.402-1.143-2.243-2.517-2.587-4.289-.231-1.189-.252-2.444-.794-3.554-.455-.93-1.121-1.613-2.08-2.022-.725-.31-2.501-.312-3.552-.835a5.097 5.097 0 0 1-.84-1.588c-.15-.452-.47-.675-.811-.715a3.151 3.151 0 0 0-.482-.548 2.281 2.281 0 0 0-.366-.429c-.821-.724-1.8-1-2.876-1.009-1.126-.008-1.397 1.729-.27 1.996 1.118.263 2.448.495 1.899 2.357-.15.51-.484.717-.56 1.295-.094.718.152 1.412.567 1.995.417.585.929.954 1.552 1.292.442.24 1.627.44 1.85.847.748 1.36-1.688 2.23-2.29 2.97-1.22 1.495-.624 3.42 1.188 4.063 1.132.4 2.485.167 3.657.188 1.957.035 3.881.28 5.797.676.959.197 1.503-.865 1.167-1.514.203-.383.2-.876-.169-1.176M73.351 70.203c-2.18-.593-2.885-2.494-4.694-3.536-1.337-.771-2.948-.834-4.45-.868-1.137-.025-1.38 1.712-.268 1.995 1.703.434 4.282 1.724 2.577 3.742-.82.973-2.405 1.528-3.513 2.055-1.99.946-3.78 1.992-4.936 3.933-.345.58-.01 1.299.605 1.492.24.076.492.162.751.251.06.06.128.115.21.163 2.33 1.374 7.23 3.172 8.78-.215.372-.814.248-1.79.656-2.582.43-.834 1.306-1.353 2.046-1.874 1.298-.914 2.381-1.774 2.944-3.307.188-.514-.214-1.115-.708-1.25"/>
            <path fill="#071F2C" d="M57.454 92.624c4.26-.564 8.36 1.174 12.608 1.01 1.918-.074 3.71-.653 5.46-1.408 2.117-.914 4.204-1.897 6.303-2.849.237-.108.031-.458-.205-.35-3.853 1.747-7.92 4.256-12.265 4.21-4.004-.042-7.873-1.552-11.9-1.019-.255.034-.259.44 0 .406"/>
            <path fill="#071F2C" d="M74.847 92.465c3.169 1.001 6.87 2.058 9.877.05.958-.64 1.76-1.269 2.975-1.298 1.208-.029 2.413.329 3.602.502 1.69.247 3.61.539 5.306.206.578-.114 1.158-.334 1.583-.759.703-.702.785-1.746 1.696-2.29 1.378-.824 3.131-.51 4.56-1.231.943-.477 1.731-1.354 1.496-2.481-.27-1.298-1.626-1.939-2.27-3.012-.432-.72-.275-1.657-.787-2.329-.448-.587-1.23-.721-1.907-.855-2.555-.508-5.113-1-7.669-1.498-.254-.05-.363.342-.107.392l5.702 1.114c.845.165 1.723.276 2.553.507.628.175 1.065.439 1.339 1.085.156.372.126.829.254 1.215.352 1.055 1.325 1.665 1.99 2.498 1.43 1.797-.488 3.134-2.18 3.45-1.164.217-2.452.236-3.444.971-.53.393-.74.896-1.04 1.46-.556 1.04-1.43 1.369-2.55 1.447-1.823.128-3.741-.143-5.53-.465-1.461-.262-3.004-.615-4.398.1-.785.401-1.424 1.031-2.225 1.412-.921.437-1.946.607-2.96.605-1.97-.004-3.896-.6-5.758-1.188-.25-.078-.356.314-.108.392"/>
            <g transform="translate(62.253 61.101)">
                <mask id="j" fill="#fff">
                    <use xlink:href="#i"/>
                </mask>
                <path fill="#071F2C" d="M37.68 17.674c-2.318-1.565-3.576-3.988-3.844-6.73-.172-1.759-.34-3.99-2.105-4.934-.703-.376-1.504-.37-2.278-.43-.632-.05-1.333-.118-1.799-.606-.487-.51-.56-1.264-.849-1.884-.647-1.389-2.013-2.32-3.481-2.648-1.411-.314-2.966-.106-4.136.786-.367.279-.648.632-.985.944-.646.598-1.277.671-2.11.621-.922-.055-1.72-.096-2.583.299-1.448.66-2.526 2.139-2.698 3.725-.11 1.023.306 1.755.527 2.723.263 1.153-.353 1.924-1.236 2.557-1.179.845-2.831 1.477-3.393 2.938-.513 1.331.213 2.79-1.077 3.83-1.48 1.194-3.45.545-5.049 0-.247-.084-.353.308-.107.392 1.834.625 4.217 1.281 5.74-.369.612-.661.674-1.43.697-2.296.031-1.22.31-1.98 1.257-2.732 1.066-.845 2.58-1.357 3.317-2.566.287-.47.386-1.002.307-1.546-.183-1.267-.845-2.18-.46-3.515a4.463 4.463 0 0 1 1.92-2.547c1.158-.709 2.22-.403 3.478-.461.833-.038 1.388-.404 1.964-.977.757-.753 1.54-1.312 2.62-1.483 1.91-.302 4.1.56 5.033 2.317.417.787.481 1.762 1.213 2.356.606.491 1.43.514 2.17.564.713.048 1.43.097 2.041.51.692.467 1.102 1.298 1.325 2.079.382 1.337.254 2.76.581 4.107.524 2.16 1.97 4.095 3.796 5.326.216.147.42-.205.204-.35" mask="url(#j)"/>
            </g>
            <path fill="#071F2C" d="M73.609 70c-1.736.344-2.733-1.872-3.803-2.854-.934-.858-2.166-1.247-3.397-1.425-2.381-.346-6.671-.787-7.879 1.952-.275.626-.16 1.187-.158 1.848.004.938-.56 1.542-1.285 2.052-.944.663-2.064 1.129-2.769 2.084-1.567 2.126-.401 4.99-1.034 7.363-.529 1.98-2.276 2.241-3.951 2.853-1.004.368-2.14 1.137-2.295 2.295-.197 1.465 1.514 2.019 1.785 3.336.51 2.478-1.975 3.723-3.991 3.962-.917.109-2.16.19-2.54 1.206-.334.89.322 1.62 1.07 2.008 1.249.65 2.753.507 4.111.475 2.143-.05 4.315-.192 6.427.268 1.952.425 3.75 1.34 5.667 1.88 1.83.516 3.639.539 5.46-.028 1.759-.547 3.754-1.396 5.232-2.505 1.032-.773 2.344-2.246 1.978-3.63-.067-.253-.458-.146-.391.107.273 1.034-.596 1.965-1.245 2.67-.62.672-1.451 1.07-2.254 1.478-1.574.8-3.196 1.587-4.96 1.84-3.464.494-6.46-1.663-9.754-2.28-1.65-.309-3.336-.284-5.007-.238-1.589.043-3.593.384-5.06-.387-.908-.477-1.394-1.542-.244-2.141.613-.32 1.367-.281 2.038-.375 1.19-.166 2.365-.661 3.14-1.613.626-.769.923-1.824.714-2.805-.3-1.405-2.459-2.324-1.509-3.849.899-1.441 2.75-1.405 4.122-2.096a3.478 3.478 0 0 0 1.782-2.096c.725-2.266-.372-4.91.785-7.062.976-1.814 3.98-2.092 4.352-4.285.158-.933-.196-1.7.397-2.572.558-.82 1.507-1.217 2.454-1.375 1.704-.286 3.797-.19 5.482.194.891.202 1.757.554 2.44 1.178.52.475.924 1.068 1.39 1.594.749.844 1.617 1.601 2.808 1.365.255-.051.147-.443-.108-.392"/>
        </g>
        <g>
            <path fill="#F2F2F2" d="M12.187 245.595a1.057 1.057 0 0 0-.634.005 1.62 1.62 0 0 0-.256-.266c.304.064.604.149.9.25a.12.12 0 0 0-.01.01m27.637-3.4a1.177 1.177 0 0 0-.237-.304c-.173-.417-.038-.83.416-1.241 1.303-1.229-.666-3.188-1.967-1.96-.737.695-1.166 1.577-1.254 2.49a5.286 5.286 0 0 1-1.975 1.559l-.048.018a10.054 10.054 0 0 1-4.717-.168c-2.678-.757-4.973-3.005-7.937-2.117-1.214.364-2.17 1.205-3.244 1.826-1.79 1.033-3.545.497-5.46.148-2.065-.378-4.212-.433-5.888.714-1.645.407-3.292 1.022-4.666 1.449-1.612.5-2.914 1.43-2.002 3.267.077.155.198.292.325.424.09.314.276.59.55.755.066.185.107.36.106.515-.918 1.177-3.354.668-4.583.92a7.85 7.85 0 0 0-2.618 1.04c-.939.6-2.185 1.708-2.223 2.916-1.074.015-2.56.08-3.707.412-.165-.06-.356-.037-.485.127-.178-.141-.422-.219-.737-.184a1.768 1.768 0 0 0-.305.063 2.72 2.72 0 0 0-.003-.022 6.395 6.395 0 0 0-.947.428c-.156.009-.318.05-.483.133-1.167.586-1.57 1.916-.796 3.016 1.18 1.68 3.676.75 5.369 1.145.072.048.147.09.22.138.283.19.56.227.809.17 1.622.545 3.205 1.233 4.959.694.874-.27 1.589-.838 2.28-1.408 1.17-.965 1.693-1.878 3.622-1.067.344.145.678.548 1.014.74 1.975 1.133 8.512 1.34 7.887-2.395-.137-.82-.754-1.577-1.5-2.12 1.432-1.206 3.32-.946 4.787-2.08.251-.193.428-.415.555-.655.448.127.95-.04 1.055-.627.08-.453.102-.913.054-1.36.171-.011.34-.06.489-.159 1.549-1.017 4.791.16 5.593-2.15.475-1.369-.64-2.447-1.849-2.805 1.458-.815 2.872-1.649 4.447-1.19 2.498.726 4.328 2.176 7.043 2.399 1.187.098 2.394.02 3.563-.215.938-.187 2.059-.93 2.986-1.14 1.054.29 2.251-.712 1.59-1.971l-.088-.168M17.035 226.269c-1.457.674-2.241 1.969-3.512 2.869-1.666 1.18-3.667 1.006-5.576.592a7.515 7.515 0 0 0-2.21-.9c-1.665-.38-2.413 2.04-.95 2.603.156.266.416.483.81.582.512.13 1.03.256 1.553.369.262.172.518.366.775.596.46.41.83 1.003 1.464 1.182.69.194 1.738-.12 2.363-.168 1.113-.089 2.212-.025 3.32.089.87.09 1.619-.962 1.34-1.755-.557-1.589 1.21-3.026 2.308-3.882 1.328-1.036-.364-2.79-1.685-2.177M102.22 240.358c-3.577.49-6.638.938-9.857 2.648-3.49 1.856-6.874 1.976-10.707 2.208-1.945-.114-3.664.68-5.475 1.952-2.225 1.563-4.663 4.074-7.644 3.179-2.689-.807-3.179-3.96-5.98-4.658-2.653-.661-5.664-.655-8.495-.772-.689-.363-1.138-.766-1.403-1.538-.768-2.238-4.352-1.277-3.577.983.307.893.733 1.666 1.3 2.322.016.943.811 1.748 1.853 1.829l5.333.412c1.773.137 3.96-.166 5.149 1.28 1.537 1.871 2.947 3.347 5.45 3.855 2.347.476 4.612-.146 6.627-1.37 2.512-1.528 4.874-4.639 8.057-3.425.824.316 1.475.024 1.857-.51 2.537-.152 5.052-.441 7.403-1.488 1.867-.832 3.548-2.05 5.553-2.542 1.793-.439 3.713-.55 5.541-.8 2.355-.322 1.352-3.885-.986-3.565"/>
            <path fill="#F2F2F2" d="M89.509 238.625c-1.87-3.27-4.715-5.493-8.278-6.684-2.33-.778-4.34-1.419-5.115-4.002-.437-1.456-.574-2.723-2.255-3.142-1.737-.434-2.477 2.24-.74 2.673.087.022 1.235 3.39 1.538 3.812.847 1.18 1.995 1.91 3.32 2.469 1.663.703 3.432 1.026 5.001 1.957 1.776 1.055 3.11 2.538 4.127 4.316.886 1.55 3.29.155 2.402-1.4M52.56 220.52c-3.435-.77-3.526-4.835-6.682-6.194-3.08-1.328-6.989-1.273-10.248-.92-1.351.146-1.991 2.242-.571 2.67.298.661.948 1.142.885 1.895-.123 1.45-2.102 1.25-3.228 1.219-.049-.001-.093.007-.14.011a7.11 7.11 0 0 0-1.507.029c-2.729.35-3.767 2.377-6.053 3.453-1.617.762-.207 3.153 1.404 2.393 1.342-.631 2.12-1.858 3.377-2.573 1.688-.96 3.771-.67 5.214.594.439.385 1.159.575 1.685.217 2.994-2.04 6.399-3.668 10.122-3.099.23.035.443.022.638-.024.254.433.542.85.925 1.23.96.948 2.136 1.48 3.44 1.772 1.744.391 2.488-2.28.74-2.673"/>
            <path fill="#071F2C" d="M39.986 241.463c-.092-2.805 2.868-3.432 5.077-3.258 1.607.127 2.566-.043 3.604-1.314.647-.792 1.227-1.444 2.273-1.745.903-.26 1.861-.25 2.792-.21 1.612.068 3.156.183 4.653-.513.27-.126.035-.525-.234-.4-2.1.978-4.38.182-6.58.52-.733.114-1.453.335-2.06.773-.659.476-1.02 1.189-1.59 1.746-1.087 1.06-2.3.658-3.63.625-.81-.021-1.632.071-2.389.371-1.436.568-2.431 1.841-2.38 3.405.01.296.474.298.464 0"/>
            <path fill="#071F2C" d="M49.567 235.925c.584-1.262 1.594-2.272 2.934-2.722 1.016-.341 2.107-.306 3.153-.495 2.009-.362 2.608-1.543 3.186-3.35.5-1.56 1.514-1.966 2.98-2.343 1.005-.258 1.77-.677 2.586-1.316 2.198-1.722 5.158-1.892 7.138.313.09.1.235.074.328 0 1.393-1.114 3.008-1.823 4.71-2.331 1.552-.462 3.304-.992 4.935-.948 4.455.122 4.065 5.145 5.27 8.174.047.12.152.194.285.161 1.805-.433 3.714-.596 5.501.013 1.877.639 2.934 1.904 3.741 3.637.406.873.86 1.292 1.83 1.394 2.03.215 3.633.942 4.382 2.982.338.922.558 1.661 1.273 2.351.3.29.387-.088.508.563.11.603-.462 1.258-.919 1.56-.952.632-2.24.575-3.332.673-1.497.135-3.012.318-4.434.827-1.538.55-2.757 1.568-4.129 2.413-3.114 1.919-6.623 1.563-10.11 1.457-1.387-.042-2.637.14-3.753 1.01-1.378 1.073-2.392 2.22-4.075 2.869-1.406.54-2.942 1.043-4.445 1.202-2.102.224-3.393-.61-4.46-2.364-.592-.972-1.175-1.825-2.252-2.3-1.393-.613-3.048-.53-4.534-.589l-3.107-.122c-.98-.04-2.258.088-3.149-.39-1.403-.75-.938-2.846-2.469-3.594-1.308-.64-2.74-.11-4.03.27-2.133.625-4.22.242-5.432-1.775-.153-.255-.554-.022-.4.233.658 1.095 1.678 1.91 2.936 2.22 1.635.402 3.032-.378 4.6-.688 1.35-.266 2.655.063 3.164 1.449.2.543.301 1.134.642 1.615.822 1.16 2.434 1.055 3.694 1.104 1.98.078 3.984.073 5.958.255 1.003.093 2.01.309 2.792.977.78.667 1.155 1.628 1.739 2.446 1.79 2.509 4.93 1.77 7.453.978 1.462-.46 2.905-.986 4.086-1.994.658-.561 1.22-1.232 1.949-1.71 1.048-.688 2.296-.68 3.5-.62 3.411.17 6.919.328 9.937-1.54 1.714-1.06 3.166-2.222 5.175-2.71 1.835-.444 3.772-.287 5.588-.748 1.06-.268 2.102-.959 2.26-2.122.045-.337.015-.772-.206-1.044-.253-.31-.707-.316-.95-.703-.247-.397-.375-.864-.527-1.302-.484-1.402-1.31-2.542-2.7-3.166-.701-.316-1.323-.321-2.062-.427-.964-.138-1.31-.527-1.661-1.359-.137-.32-.263-.638-.442-.94-1.896-3.204-5.975-3.524-9.253-2.736l.285.162c-1.127-2.833-.805-7.487-4.559-8.382-1.615-.385-3.376.094-4.942.486-1.769.442-3.538 1.017-5.088 1.997-.825.523-.727.709-1.494.11a5.326 5.326 0 0 0-2.021-.963c-1.332-.322-2.789-.16-3.973.544-.796.474-1.423 1.196-2.262 1.603-.874.423-1.882.456-2.766.856-1.29.584-1.554 1.735-1.966 2.966-.847 2.522-3.01 2.14-5.164 2.593-1.721.361-3.1 1.516-3.832 3.096-.124.269.275.504.4.234"/>
            <path fill="#071F2C" d="M62.095 226.217c-1.758-.409-1.798-2.467-2.697-3.706-.62-.856-1.576-1.377-2.597-1.603-1.322-.293-2.684-.046-3.958.34-.248.076-.97.437-1.221.415-.432-.038-.226-.094-.497-.307-.436-.346-.76-.674-1.287-.907-2.232-.989-5.218-1.011-7.592-.698-2.472.328-4.783 1.267-6.62 2.97l.363.047c-.82-1.624-2.695-2.346-4.456-2.086-1.12.164-2.16.695-3.068 1.351-1.214.877-2.243 2.525-3.87 2.404-1.126-.085-2.107-.376-3.254-.21a6.928 6.928 0 0 0-3.217 1.35c-1.74 1.341-2.65 3.448-2.63 5.614.003.297.467.298.464 0-.022-2.39 1.17-4.66 3.317-5.81a6.518 6.518 0 0 1 3.402-.76c.884.048 1.793.437 2.685.29.697-.116 1.158-.56 1.653-1.022.82-.766 1.645-1.527 2.64-2.067 1.971-1.068 4.796-1.074 5.934 1.179.07.138.261.142.364.047 2.057-1.906 4.743-2.791 7.515-2.949a18.68 18.68 0 0 1 3.975.21c1.361.215 2.936.516 3.637 1.84.044.084.17.14.262.106 2.313-.842 5.543-1.9 7.488.28 1.19 1.334 1.084 3.65 3.141 4.128.29.067.414-.378.124-.446"/>
            <g transform="translate(-11.364 208.12)">
                <mask id="l" fill="#fff">
                    <use xlink:href="#k"/>
                </mask>
                <path fill="#071F2C" d="M64.925 12.596c-3.071.021-4.145-3.647-6.286-5.238-1.804-1.343-4.086-1.777-6.287-1.92-1.189-.077-2.38-.066-3.57-.048-.94.014-1.987.044-2.323-1.085-.165-.555-.202-1.137-.45-1.668C45.274 1.07 43.412.557 41.824.41c-2.03-.19-4.388-.022-6.188 1.018-.84.486-1.383 1.164-1.951 1.927-1.145 1.54-2.543.919-4.134.835-2.013-.105-3.128 1.35-3.218 3.266-.036.767.095 1.525.113 2.29.024 1.028-.426 1.344-1.37 1.567-1.155.274-2.389.312-3.49.795-.883.386-1.432.997-1.922 1.802-.308.507-.561 1.065-.98 1.497-.715.739-1.702.779-2.669.728-2.267-.119-4.27.09-6.035 1.678-.77.693-1.268 1.531-1.744 2.436-.256.486-.515 1.02-.92 1.402-.807.762-1.773.355-2.73.33C2.709 21.936.8 23.063.272 24.92c-.501 1.756.487 3.124 2.197 3.557 1.135.286 2.458.219 3.403 1 1.048.867 1.12 2.356 1.457 3.577.533 1.928 1.956 3.2 3.881 3.716 2.408.646 4.849-.1 7.13-.877 1.621-.551 3.502-1.406 5.242-.94 1.39.373 2.362 1.54 3.804 1.84 1.188.247 2.425.08 3.558-.326 1.318-.471 2.289-1.414 3.517-2.025 1.928-.957 3.383.708 4.765 1.798.989.78 2.11 1.353 3.345 1.625a8.21 8.21 0 0 0 3.75-.04c1.662-.418 3.47-1.66 5.18-.77.265.137.5-.261.235-.4-2.216-1.151-4.498.737-6.738.921a7.767 7.767 0 0 1-3.973-.73c-1.142-.55-2.012-1.448-3.013-2.198-.687-.514-1.472-.973-2.357-.977-1.142-.006-2 .747-2.896 1.345-1.099.736-2.354 1.288-3.685 1.408-1.74.158-2.86-.643-4.286-1.448-2.14-1.208-4.436-.254-6.572.472-2.559.87-5.429 1.73-8.011.459-1.204-.593-2.001-1.55-2.388-2.826-.275-.903-.364-1.863-.747-2.734-.854-1.938-2.688-1.852-4.478-2.316C.92 27.597.13 26.127.915 24.524c.738-1.505 2.411-2.175 4.018-2.045.881.071 1.698.277 2.46-.287.701-.518 1.05-1.367 1.449-2.107 1.428-2.649 3.887-3.706 6.81-3.514.848.055 1.754.13 2.546-.245.93-.442 1.36-1.347 1.867-2.182.738-1.217 1.746-1.742 3.11-2.012.978-.194 2.219-.2 3.088-.737.688-.426.675-1.119.637-1.857-.074-1.43-.423-3.271.79-4.363 1.667-1.503 4.215.634 5.914-.982.912-.867 1.357-1.916 2.55-2.518 1.156-.583 2.484-.78 3.764-.837 1.375-.06 2.863-.01 4.134.575 1.403.646 1.568 1.691 1.96 3.014.206.693.558 1.217 1.296 1.387 1.277.292 2.842.002 4.15.045 2.848.092 5.9.585 7.918 2.784 1.617 1.764 2.775 4.434 5.55 4.415.298-.002.298-.464 0-.462" mask="url(#l)"/>
            </g>
            <path fill="#071F2C" d="M-15.187 257.608c-.613-.445-.15-1.255.245-1.635.328-.315.817-.428 1.242-.558a9.392 9.392 0 0 1 2.281-.386c1.065-.051 2.136.203 3.196.076.612-.074 1.19-.29 1.584-.783.306-.381.403-.84.587-1.28a3.44 3.44 0 0 1 1.542-1.732c1.254-.705 2.744-.699 4.142-.655.682.021 1.697.233 2.296-.234.521-.406.475-1.077.182-1.61-.187-.338-.5-.577-.763-.85-.815-.844-.84-2.224.475-2.66.282-.094.161-.54-.124-.446-.746.247-1.28.816-1.412 1.606-.07.419-.003.825.202 1.196.289.527 1.014.835 1.221 1.388.602 1.603-2.163 1.137-2.717 1.131-.726-.007-1.46.017-2.173.165-1.07.224-2.13.741-2.806 1.622-.309.404-.44.815-.626 1.279-.451 1.124-1.233 1.452-2.375 1.43-1.384-.027-2.69-.186-4.065.103-.95.2-2.31.524-2.788 1.49-.318.641-.15 1.327.42 1.742.241.176.472-.225.234-.399M-13.154 259.488c2.925-1.234 5.667 1.91 8.635 1.473 1.412-.209 2.276-1.247 3.218-2.21.93-.948 2.491-2.054 3.708-.856.558.548.772 1.2 1.507 1.568 1.287.644 3.162.368 4.476-.069 1.247-.414 2.342-1.293 2.579-2.642.576-3.287-4.705-4.03-6.917-3.803-.294.03-.298.492 0 .462 1.824-.187 3.786.109 5.35 1.123 2.485 1.613.431 4.051-1.642 4.56-.86.21-1.842.32-2.726.198-1.194-.164-1.567-.963-2.299-1.724-.725-.754-1.733-.788-2.666-.4-1.214.506-1.91 1.619-2.869 2.451-1.283 1.114-2.735 1.034-4.26.534-2.051-.674-4.146-1.984-6.328-1.064-.274.116-.037.513.234.399"/>
            <path fill="#071F2C" d="M9.482 254.213c1.393-1.66 3.898-.754 5.502-2.075a3.363 3.363 0 0 0 1.06-1.574c.132-.418.094-.798.366-1.155.45-.59 1.688-.591 2.388-.673 1.276-.152 3.037-.289 3.532-1.733.193-.562.065-1.19-.275-1.667a1.813 1.813 0 0 0-.49-.477c-.144-.093-1.217-.475-1.014-.686.207-.215-.12-.542-.327-.327-.935.97 1.206 1.347 1.515 1.84 1.218 1.938-1.76 2.447-2.941 2.587-.781.093-1.86.082-2.548.46-.326.18-.395.304-.498.654-.177.603-.105 1.158-.471 1.729-.418.65-1.022 1.032-1.754 1.243-1.539.446-3.24.176-4.372 1.527-.19.226.136.555.327.327M71.813 226.265c1.68 1.127 2.167 3.132 2.898 4.896.597 1.44 1.018 2.367 2.661 2.432 4.302.171 8.327 2.164 11.116 5.422.193.227.52-.101.327-.326-2.487-2.907-5.978-4.868-9.781-5.411-1.173-.168-2.482.08-3.276-.995-.579-.783-.838-1.865-1.19-2.76-.559-1.43-1.21-2.777-2.521-3.657-.248-.166-.48.234-.234.4M24.53 245.168v1.696c0 .297.5.298.5 0v-1.696c0-.298-.5-.298-.5 0M70.532 237.551c.464.618.548 1.4.182 2.09-.14.263.26.496.4.233.438-.822.382-1.806-.182-2.556-.177-.235-.58-.005-.4.233M81.594 239.317c2.002 1.556 1.772 4.427-.483 5.614-.264.139-.03.538.234.4 2.494-1.314 2.81-4.605.576-6.34-.232-.181-.562.144-.327.326M84.725 241.327c.899.37 1.314 1.497.891 2.363-.13.266.27.5.4.233.565-1.158.02-2.552-1.167-3.042-.276-.113-.396.334-.124.446M32.912 234.97c1.692-.793 1.381-2.887.145-3.958-1.788-1.548-5.006-1.852-7.264-1.736-.297.015-.299.478 0 .462 1.687-.087 3.369.167 4.984.658.794.241 1.616.557 2.199 1.175.844.895.974 2.404-.298 3-.27.126-.035.525.234.399"/>
            <path fill="#071F2C" d="M32.439 230.733c.68-.373.975-1.105.888-1.862-.113-.979-.87-1.716-1.547-2.36-.216-.206-.545.12-.328.326.822.783 2.376 2.607.753 3.497-.262.143-.028.542.234.399M17.726 236.18c.34-1.663-2.778-2.277-3.92-2.421a8.821 8.821 0 0 0-6.239 1.575c-.24.172-.009.573.234.399 1.36-.969 2.93-1.525 4.608-1.579a8.392 8.392 0 0 1 2.364.256c.597.153 2.696.718 2.506 1.647-.06.29.387.415.447.123"/>
            <path fill="#071F2C" d="M9.528 234.309c-.5-2.082-3.312-3.646-5.217-4.21-2.185-.646-4.584-.24-6.232 1.382-.212.21.115.536.328.327 1.536-1.512 3.748-1.864 5.78-1.263 1.729.511 4.44 1.996 4.894 3.886.07.29.517.167.447-.122M59.77 245.485c1.605.394 4.244.629 4.533-1.618.298-2.318-2.196-3.35-3.98-3.91-.286-.09-.407.356-.123.445 1.41.443 3.175 1.017 3.584 2.634.635 2.511-2.357 2.38-3.89 2.003-.29-.07-.413.375-.123.446M16.158 249.104c-.274-2.253-3.126-3.493-5.08-3.89-.29-.058-.416.387-.123.446 1.694.344 4.496 1.44 4.74 3.444.035.291.499.295.463 0M101.776 248.265l.006 1.628c0 .297.495.298.494 0l-.005-1.628c-.001-.297-.496-.298-.495 0M101.998 253.74l-.32 2.281c-.04.29.406.417.447.123l.32-2.28c.04-.291-.406-.417-.447-.123M101.651 259.987v1.954c0 .297.5.298.5 0v-1.954c0-.297-.5-.298-.5 0M101.651 265.36v1.79c0 .298.5.299.5 0v-1.79c0-.298-.5-.298-.5 0M101.465 270.894l-.17 2.279c-.022.296.442.295.464 0l.17-2.28c.021-.296-.443-.295-.464 0M101.163 276.92c-.064 1.006-.007 1.999.161 2.993.05.292.497.168.447-.123a12.398 12.398 0 0 1-.144-2.87c.019-.297-.445-.297-.464 0M95.933 248.916v1.954c0 .297.5.298.5 0v-1.954c0-.297-.5-.298-.5 0M95.933 254.289v.814c0 .297.5.298.5 0v-.814c0-.298-.5-.298-.5 0M95.77 258.196v.815c0 .297.5.297.5 0v-.815c0-.297-.5-.298-.5 0M95.693 264.652c.321 0 .322-.5 0-.5s-.323.5 0 .5M95.273 267.802l.162 3.745c.013.296.477.298.464 0-.055-1.248-.108-2.497-.162-3.745-.013-.296-.477-.298-.464 0M95.444 274.966l-.164 2.605c-.019.297.445.296.463 0l.164-2.605c.019-.297-.445-.296-.463 0M95.28 280.664v2.28c0 .297.5.297.5 0v-2.28c0-.297-.5-.298-.5 0M89.562 251.521l-.163 2.117c-.023.296.441.295.464 0l.163-2.117c.023-.297-.44-.295-.464 0M89.045 257.477l-.33 1.79c-.054.291.393.416.447.123l.33-1.79c.053-.29-.394-.416-.447-.123M88.599 261.512c.168.57.213 1.142.144 1.73-.036.296.428.293.463 0a4.588 4.588 0 0 0-.16-1.854c-.084-.284-.532-.163-.447.124M88.743 266.599l-.165.814c-.06.29.387.414.447.122l.165-.813c.059-.29-.388-.415-.447-.123M88.12 270.95a5 5 0 0 1 .29 2.486c-.041.291.405.417.446.123a5.46 5.46 0 0 0-.289-2.733c-.103-.276-.552-.156-.446.123M88.607 276.433l-.175 1.953c-.027.296.437.294.464 0l.175-1.953c.026-.296-.437-.294-.464 0M81.885 253.312v2.28c0 .297.5.297.5 0v-2.28c0-.298-.5-.298-.5 0M82.048 258.685v1.465c0 .297.5.298.5 0v-1.465c0-.298-.5-.298-.5 0M82.211 263.08v1.792c0 .297.5.298.5 0v-1.791c0-.298-.5-.298-.5 0M82.048 268.779v2.116c0 .298.5.298.5 0v-2.116c0-.298-.5-.298-.5 0M82.624 275.723c.322 0 .323-.5 0-.5-.322 0-.322.5 0 .5M82.211 279.199v1.14c0 .297.5.297.5 0v-1.14c0-.298-.5-.298-.5 0M75.514 254.615v2.279c0 .297.5.297.5 0v-2.28c0-.297-.5-.297-.5 0M75.677 260.638v2.28c0 .297.5.298.5 0v-2.28c0-.297-.5-.298-.5 0M75.926 266.28c.322 0 .323-.5 0-.5-.322 0-.322.5 0 .5M75.849 270.02a4.982 4.982 0 0 0-.172 1.69c.02.295.485.297.464 0a4.603 4.603 0 0 1 .155-1.567c.08-.287-.368-.41-.447-.123M76.167 274.803v1.79c0 .298.5.299.5 0v-1.79c0-.298-.5-.298-.5 0M76.494 281.152v1.303c0 .298.5.298.5 0v-1.303c0-.297-.5-.298-.5 0M76.829 286.138a10.07 10.07 0 0 0-.172 2.666c.02.296.485.298.464 0-.06-.857-.012-1.7.155-2.543.057-.29-.39-.415-.447-.123M76.494 291.41v2.442c0 .297.5.298.5 0v-2.442c0-.298-.5-.298-.5 0M76.167 297.596v1.954c0 .297.5.298.5 0v-1.954c0-.297-.5-.298-.5 0M76.33 303.295l-.163 1.302c-.037.294.427.292.464 0l.163-1.302c.037-.295-.427-.292-.463 0M69.968 256.832a5.545 5.545 0 0 0-.172 1.853c.023.294.487.297.464 0a5.165 5.165 0 0 1 .155-1.73c.076-.288-.371-.41-.447-.123M69.47 260.638v1.954c0 .297.5.298.5 0v-1.954c0-.297-.5-.298-.5 0M69.478 265.461a7.35 7.35 0 0 0-.172 2.179c.021.294.485.296.464 0-.05-.695-.001-1.376.155-2.056.066-.29-.38-.413-.447-.123M69.323 270.409l-.178 2.278c-.023.296.44.294.464 0l.178-2.278c.023-.298-.44-.296-.464 0M69.143 275.78v2.768c0 .297.5.298.5 0v-2.768c0-.298-.5-.298-.5 0M69.47 281.804v2.116c0 .298.5.298.5 0v-2.116c0-.298-.5-.298-.5 0M69.882 287.446c.322 0 .323-.5 0-.5-.322 0-.322.5 0 .5M69.633 290.758v1.954c0 .297.5.298.5 0v-1.954c0-.297-.5-.298-.5 0M69.804 296.233c-.146.441-.204.899-.171 1.363.02.295.484.298.463 0-.03-.427.02-.834.155-1.24.094-.284-.353-.405-.447-.123M69.623 300.625l-.164.977c-.048.291.398.416.447.123l.164-.977c.049-.29-.398-.416-.447-.123M69.306 304.597v1.302c0 .298.5.298.5 0v-1.302c0-.297-.5-.298-.5 0M69.143 308.667v1.303c0 .297.5.298.5 0v-1.303c0-.297-.5-.298-.5 0M69.306 313.226v1.466c0 .297.5.297.5 0v-1.466c0-.297-.5-.298-.5 0M69.472 317.07a2.66 2.66 0 0 0-.155 1.427c.045.293.492.168.447-.123-.062-.406.001-.803.155-1.181.112-.276-.336-.396-.447-.123M69.306 321.53v1.627c0 .298.5.299.5 0v-1.628c0-.297-.5-.298-.5 0M68.326 327.065v1.628c0 .298.5.298.5 0v-1.628c0-.297-.5-.298-.5 0M68.902 333.032c.322 0 .323-.5 0-.5-.322 0-.322.5 0 .5M68.653 335.857v1.79c0 .298.5.299.5 0v-1.79c0-.298-.5-.298-.5 0M68.653 340.578v1.628c0 .298.5.298.5 0v-1.628c0-.297-.5-.298-.5 0M62.772 256.243l-.164 1.79c-.027.297.437.295.464 0l.163-1.79c.027-.297-.436-.295-.463 0M62.858 261.884c.322 0 .322-.5 0-.5s-.323.5 0 .5M62.772 264.546v1.465c0 .297.5.298.5 0v-1.465c0-.298-.5-.298-.5 0M62.434 268.778l-.162 2.117c-.022.297.441.295.464 0l.162-2.117c.023-.297-.441-.295-.464 0M62.445 273.5v2.117c0 .298.5.298.5 0V273.5c0-.297-.5-.298-.5 0M62.608 277.897v1.953c0 .297.5.298.5 0v-1.953c0-.298-.5-.298-.5 0M62.669 283.423v1.23c0 .298.5.298.5 0v-1.23c0-.298-.5-.298-.5 0M62.669 287.484v.862c0 .297.5.298.5 0v-.862c0-.297-.5-.298-.5 0M62.916 290.93v1.97c0 .297.5.297.5 0v-1.97c0-.297-.5-.298-.5 0M62.792 295.607v1.846c0 .298.5.298.5 0v-1.846c0-.297-.5-.298-.5 0M63.286 300.53v2.707c0 .298.5.298.5 0v-2.707c0-.298-.5-.298-.5 0M63.163 306.93l-.124 1.23c-.03.296.434.294.464 0l.123-1.23c.03-.296-.434-.294-.463 0M63.536 311.26c.321 0 .322-.5 0-.5s-.323.5 0 .5M63.06 313.762a7.653 7.653 0 0 0-.034 2.34c.04.293.487.168.448-.123a6.906 6.906 0 0 1 .032-2.094c.05-.29-.397-.416-.446-.123M63.166 318.928a7.484 7.484 0 0 0-.124 2.031c.022.295.486.298.463 0a7.024 7.024 0 0 1 .108-1.908c.058-.29-.389-.415-.447-.123M63.048 323.36l-.124.492c-.072.288.375.412.447.123l.123-.492c.073-.289-.374-.412-.446-.123M62.921 326.805c-.127.421-.172.855-.127 1.293.03.293.494.295.464 0-.04-.4-.006-.785.11-1.17.087-.286-.36-.407-.447-.123M62.669 332.898l.124 2.461c.014.296.478.298.463 0l-.124-2.461c-.014-.297-.478-.298-.463 0M62.298 340.897l-.123 1.477c-.025.297.439.295.464 0l.123-1.477c.025-.296-.44-.295-.464 0M62.424 346.704c.322 0 .323-.5 0-.5-.322 0-.322.5 0 .5M55.63 252.532v1.846c0 .298.5.298.5 0v-1.846c0-.297-.5-.298-.5 0M56.124 257.947v.862c0 .297.5.298.5 0v-.862c0-.297-.5-.298-.5 0M56 261.27v2.092c0 .298.5.298.5 0v-2.092c0-.297-.5-.298-.5 0M56.014 266.377c.126.838.158 1.678.108 2.524-.018.296.446.296.463 0 .053-.89.008-1.767-.124-2.647-.044-.293-.491-.169-.447.123M56.116 271.795l.25 1.6c.045.293.491.168.446-.123l-.249-1.6c-.045-.293-.492-.168-.447.123M56.371 276.408v1.107c0 .298.5.299.5 0v-1.107c0-.298-.5-.298-.5 0M56.256 280.777a4.135 4.135 0 0 0 0 1.476c.052.293.5.17.447-.122a3.475 3.475 0 0 1 0-1.231c.052-.29-.395-.416-.447-.123M56.132 283.854a4.246 4.246 0 0 0-.131 1.415c.022.295.486.297.463 0-.033-.44.003-.866.115-1.292.076-.288-.37-.41-.447-.123M56.371 288.346c-.018.65.067 1.285.256 1.907.085.284.533.163.446-.123a5.537 5.537 0 0 1-.238-1.784c.008-.298-.455-.298-.464 0M56.865 294.253v.861c0 .298.5.298.5 0v-.86c0-.298-.5-.299-.5 0M56.865 298.684l-.123 1.23c-.03.296.434.294.463 0l.124-1.23c.03-.296-.435-.294-.464 0M56.5 302.314c-.084.503-.05.996.128 1.476.102.277.55.157.447-.122-.148-.4-.198-.81-.128-1.23.049-.292-.398-.417-.447-.124M56.371 306.806v1.723c0 .298.5.298.5 0v-1.723c0-.297-.5-.298-.5 0M56.62 311.998c.322 0 .323-.5 0-.5-.322 0-.322.5 0 .5M56.388 314.623l-.125.738c-.05.291.397.416.447.123l.125-.738c.05-.29-.398-.416-.447-.123M56.495 318.867v1.97c0 .297.5.297.5 0v-1.97c0-.297-.5-.298-.5 0M56.495 322.683l-.124 1.107c-.033.295.431.293.463 0l.124-1.107c.033-.296-.43-.293-.463 0M56.371 325.76l.124 1.722c.02.295.484.297.463 0l-.123-1.723c-.021-.294-.485-.297-.464 0M56 330.929a9.852 9.852 0 0 1-.115 2.153c-.048.291.398.416.448.123.125-.756.172-1.51.131-2.276-.015-.297-.48-.299-.463 0M56.515 335.793a3.407 3.407 0 0 0-.033 1.602c.062.29.51.167.447-.123a2.87 2.87 0 0 1 .032-1.356c.076-.288-.37-.41-.446-.123M56.518 340.775a6.258 6.258 0 0 0 .314 2.167c.093.281.54.16.447-.123a5.873 5.873 0 0 1-.297-2.044c.009-.298-.455-.297-.464 0M49.315 251.3c-.04.657-.08 1.313-.122 1.97-.018.296.446.295.464 0l.121-1.97c.019-.297-.445-.296-.463 0M49.582 256.863c.322 0 .322-.5 0-.5s-.323.5 0 .5M49.705 260.062c.322 0 .323-.5 0-.5-.322 0-.322.5 0 .5M49.332 263.116l-.123 1.846c-.02.297.444.296.464 0l.123-1.846c.02-.297-.444-.296-.464 0M49.085 269.393v1.6c0 .297.5.298.5 0v-1.6c0-.298-.5-.298-.5 0M49.17 274.432l.202 2.342c.025.294.49.296.464 0l-.202-2.342c-.025-.295-.489-.297-.463 0M49.58 279.73v1.108c0 .298.5.298.5 0v-1.107c0-.298-.5-.298-.5 0M49.826 283.546v1.723c0 .297.5.298.5 0v-1.723c0-.297-.5-.298-.5 0M50.076 288.984c.322 0 .322-.5 0-.5s-.323.5 0 .5M49.703 291.546l.123 1.97c.019.294.483.296.464 0l-.123-1.97c-.019-.296-.483-.298-.464 0M50.073 296.469v1.353c0 .298.5.298.5 0v-1.353c0-.298-.5-.298-.5 0M50.444 301.145v1.108c0 .297.5.298.5 0v-1.108c0-.298-.5-.298-.5 0M50.687 306.068l-.124 1.846c-.02.297.443.295.463 0l.125-1.846c.02-.297-.444-.296-.464 0M50.073 310.745v1.846c0 .297.5.298.5 0v-1.846c0-.298-.5-.298-.5 0M50.452 315.114l-.123.861c-.042.291.404.417.447.123l.123-.861c.042-.29-.405-.417-.447-.123M50.329 318.683a7.575 7.575 0 0 0-.132 2.03c.02.295.484.298.464 0a7.118 7.118 0 0 1 .115-1.907c.057-.29-.39-.415-.447-.123M50.094 324.839a3.512 3.512 0 0 0 .243 2.028c.117.272.516.038.4-.233a2.947 2.947 0 0 1-.196-1.672c.05-.29-.397-.416-.447-.123M50.69 333.636l.124 1.477c.025.294.489.297.464 0l-.124-1.477c-.024-.295-.488-.297-.463 0M50.938 337.944l-.247 2.338c-.031.295.432.293.463 0l.247-2.338c.031-.296-.432-.294-.463 0M42.913 248.84c-.048.807-.005 1.603.121 2.401.046.293.493.169.447-.123-.119-.756-.15-1.514-.104-2.278.018-.297-.445-.296-.464 0M43.408 254.77c.322 0 .322-.5 0-.5s-.323.5 0 .5M42.911 257.578v2.339c0 .297.5.297.5 0v-2.339c0-.297-.5-.298-.5 0M42.788 263.24v2.215c0 .297.5.297.5 0v-2.216c0-.297-.5-.298-.5 0M43.284 268.9a9.196 9.196 0 0 0 .121 2.279c.051.292.498.168.447-.123a8.699 8.699 0 0 1-.104-2.155c.021-.297-.442-.296-.464 0M43.775 274.562v1.6c0 .297.5.297.5 0v-1.6c0-.298-.5-.298-.5 0M43.514 278.623l-.13 2.338c-.016.297.448.296.464 0l.13-2.338c.015-.298-.448-.297-.464 0M43.652 284.9v1.6c0 .297.5.297.5 0v-1.6c0-.298-.5-.298-.5 0M43.784 289.515a4.94 4.94 0 0 0-.132 1.539c.022.294.485.297.464 0-.035-.48 0-.949.115-1.416.07-.289-.377-.412-.447-.123M43.652 293.76a8.245 8.245 0 0 1-.115 1.909c-.052.29.394.415.447.123a8.769 8.769 0 0 0 .132-2.031c-.016-.296-.48-.298-.464 0M43.775 298.684v1.723c0 .297.5.298.5 0v-1.723c0-.298-.5-.298-.5 0M43.529 304.099c.04.452.082.903.123 1.354.027.293.49.296.464 0l-.124-1.354c-.027-.294-.49-.297-.463 0M43.775 309.022v1.107c0 .298.5.298.5 0v-1.107c0-.298-.5-.298-.5 0M43.775 313.698v.616c0 .297.5.298.5 0v-.616c0-.297-.5-.298-.5 0M43.652 318.99v1.724c0 .297.5.297.5 0v-1.723c0-.298-.5-.298-.5 0M43.66 323.975l-.123.862c-.042.29.405.416.447.122l.123-.86c.042-.292-.405-.418-.447-.124M43.529 327.852v2.215c0 .297.5.298.5 0v-2.215c0-.298-.5-.298-.5 0M43.913 334.127l.123 1.23c.03.294.493.297.464 0l-.123-1.23c-.03-.293-.494-.296-.464 0M44.025 332.92c.322 0 .322-.5 0-.5s-.323.5 0 .5M36.98 247.979c.05.764.019 1.521-.105 2.277-.048.292.4.416.447.123.13-.797.174-1.593.121-2.4-.02-.296-.483-.298-.464 0M36.737 253.394l.124 1.846c.02.295.483.297.463 0l-.124-1.846c-.02-.296-.483-.298-.463 0M36.628 258.625a9.939 9.939 0 0 0-.024 2.647c.037.29.5.294.464 0a9.523 9.523 0 0 1 .007-2.524c.04-.29-.407-.417-.447-.123M31.057 248.101a4.385 4.385 0 0 0 .255 1.785c.1.277.548.158.447-.123a4.066 4.066 0 0 1-.239-1.662c.019-.297-.445-.295-.463 0M30.941 253.332l.247.984c.073.289.52.167.447-.122l-.247-.985c-.072-.288-.519-.166-.447.123M36.366 264.962v1.6c0 .297.5.298.5 0v-1.6c0-.297-.5-.298-.5 0M36.37 270.192c-.134.42-.178.855-.125 1.293.035.291.499.295.464 0a2.712 2.712 0 0 1 .109-1.17c.09-.285-.357-.406-.447-.123M36.616 274.461c.322 0 .322-.5 0-.5s-.323.5 0 .5M36.12 276.9v2.092c0 .298.5.298.5 0V276.9c0-.297-.5-.298-.5 0M36.243 283.546v1.846c0 .298.5.298.5 0v-1.846c0-.297-.5-.298-.5 0M36.49 288.346l-.123 1.23c-.03.296.433.294.463 0l.123-1.23c.03-.296-.433-.294-.463 0M35.873 293.269v1.723c0 .297.5.298.5 0v-1.723c0-.298-.5-.298-.5 0M35.869 297.454c.047.56.015 1.111-.106 1.662-.063.29.384.414.447.123.13-.59.173-1.183.123-1.785-.025-.295-.489-.297-.464 0M35.626 302.007v1.723c0 .297.5.297.5 0v-1.723c0-.298-.5-.298-.5 0M35.255 308.283v.616c0 .297.5.298.5 0v-.616c0-.297-.5-.298-.5 0M35.517 311.912c.12.675.15 1.35.104 2.032-.02.297.444.296.464 0 .05-.725.006-1.44-.121-2.154-.052-.292-.499-.169-.447.122M35.5 317.267l-.144 1.722c-.025.296.439.294.463 0l.145-1.722c.025-.296-.438-.294-.463 0M35.615 322.742l-.391 2.704c-.042.291.405.417.447.123l.391-2.704c.042-.291-.404-.417-.447-.123M35.626 329.205v1.847c0 .297.5.298.5 0v-1.847c0-.297-.5-.298-.5 0M35.626 334.374v2.954c0 .297.5.298.5 0v-2.954c0-.297-.5-.298-.5 0M35.379 340.036v1.477c0 .297.5.298.5 0v-1.477c0-.298-.5-.298-.5 0M35.663 344.534a6.006 6.006 0 0 0 .172 2.963c.09.282.537.162.447-.123a5.507 5.507 0 0 1-.172-2.717c.055-.29-.391-.415-.447-.123M31.304 258.07v.985c0 .297.5.298.5 0v-.984c0-.298-.5-.299-.5 0M31.677 262.031c.321 0 .322-.5 0-.5s-.323.5 0 .5M31.55 264.716v.615c0 .298.5.298.5 0v-.615c0-.298-.5-.298-.5 0M31.427 270.131v1.846c0 .298.5.298.5 0v-1.846c0-.297-.5-.298-.5 0M31.81 275.671l-.118.985c-.036.295.428.292.463 0l.119-.985c.035-.295-.428-.292-.464 0M31.301 280.1c.042.322.006.62-.11.924-.106.279.342.399.447.123a2.15 2.15 0 0 0 .127-1.047c-.037-.29-.501-.295-.464 0M31.16 283.48l-.12.74c-.048.29.399.415.447.122l.12-.739c.049-.29-.398-.416-.446-.123M31.18 287.361c-.037.684.01 1.358.132 2.03.053.293.5.17.447-.122a8.17 8.17 0 0 1-.115-1.908c.016-.297-.448-.296-.464 0M31.677 292.184c.321 0 .322-.5 0-.5s-.323.5 0 .5M31.18 294.376v1.6c0 .298.5.298.5 0v-1.6c0-.297-.5-.298-.5 0M31.175 298.374l-.124.862c-.04.29.406.417.448.123.04-.287.081-.575.123-.862.041-.29-.406-.416-.447-.123M30.93 302.066l-.248.984c-.072.288.374.411.447.123l.248-.985c.073-.288-.374-.411-.447-.122M30.81 305.453v.861c0 .298.5.298.5 0v-.861c0-.298-.5-.298-.5 0M30.81 308.406v.739c0 .297.5.297.5 0v-.739c0-.297-.5-.298-.5 0M30.563 310.621v1.355c0 .297.5.297.5 0v-1.355c0-.297-.5-.298-.5 0M30.316 314.314v1.107c0 .298.5.298.5 0v-1.107c0-.298-.5-.298-.5 0M30.324 317.945c-.112.338-.156.69-.132 1.046.02.295.484.297.464 0-.022-.32.015-.62.115-.923.093-.284-.354-.405-.447-.123M30.069 322.068l.123.984c.037.291.5.295.464 0l-.124-.984c-.036-.292-.5-.296-.463 0M30.192 325.021v1.477c0 .297.5.298.5 0v-1.477c0-.297-.5-.298-.5 0M30.069 328.22v1.355c0 .297.5.298.5 0v-1.354c0-.298-.5-.298-.5 0M30.192 333.39v.861c0 .298.5.298.5 0v-.861c0-.298-.5-.298-.5 0M29.945 337.205v.739c0 .297.5.297.5 0v-.74c0-.297-.5-.297-.5 0M29.83 342.066l-.124.492c-.072.29.375.413.448.124l.123-.492c.072-.29-.375-.412-.447-.124M24.014 251.113a5 5 0 0 0-.24 1.665c.008.297.472.298.464 0a4.604 4.604 0 0 1 .223-1.542c.091-.285-.356-.406-.447-.123M24.759 255.486v1.107c0 .298.5.298.5 0v-1.107c0-.298-.5-.298-.5 0M25.132 259.57c.321 0 .322-.5 0-.5s-.323.5 0 .5M25.12 261.886l.127 1.846c.02.295.484.297.464 0-.043-.616-.085-1.23-.126-1.846-.02-.295-.484-.298-.464 0M25.006 267.177v.493c0 .297.5.298.5 0v-.493c0-.297-.5-.298-.5 0M25.165 270.691a4.087 4.087 0 0 0 .17 2.228c.102.277.55.158.447-.122a3.617 3.617 0 0 1-.17-1.983c.057-.29-.39-.415-.447-.123M25.13 276.285v1.846c0 .297.5.298.5 0v-1.846c0-.298-.5-.298-.5 0M25.13 280.962v1.23c0 .298.5.298.5 0v-1.23c0-.298-.5-.298-.5 0M25.15 285.328c.04.163.082.328.124.491.072.289.52.167.446-.122-.04-.164-.082-.328-.124-.493-.072-.288-.52-.166-.446.124M25.137 288.777c-.084.496-.084.98 0 1.476.05.293.497.17.447-.122a3.657 3.657 0 0 1 0-1.231c.05-.291-.397-.416-.447-.123M25.006 294.5v1.476c0 .298.5.298.5 0V294.5c0-.298-.5-.298-.5 0M24.759 298.93v1.23c0 .298.5.298.5 0v-1.23c0-.298-.5-.298-.5 0M24.635 303.36l.124 2.093c.017.295.481.297.463 0-.04-.698-.082-1.395-.123-2.092-.018-.296-.481-.298-.464 0M24.759 308.776l.124.984c.036.291.5.295.463 0l-.124-.984c-.036-.292-.5-.295-.463 0M24.52 313.637l-.124.615c-.058.29.389.415.448.123l.123-.615c.058-.29-.388-.415-.447-.123M24.265 317.267v1.97c0 .297.5.297.5 0v-1.97c0-.297-.5-.298-.5 0M24.147 322.005a3.296 3.296 0 0 0-.128 1.293c.03.293.494.296.464 0-.04-.4-.006-.785.11-1.17.088-.286-.36-.407-.446-.123M24.018 326.62v1.355c0 .297.5.298.5 0v-1.354c0-.297-.5-.298-.5 0M23.894 331.052v1.476c0 .298.5.298.5 0v-1.476c0-.298-.5-.298-.5 0M24.126 335.67l.12.862c.04.293.487.168.446-.123l-.119-.862c-.04-.293-.487-.169-.447.123M24.388 338.928v1.477c0 .297.5.298.5 0v-1.477c0-.297-.5-.298-.5 0M23.894 344.097v1.6c0 .297.5.297.5 0v-1.6c0-.297-.5-.298-.5 0M17.975 252.47a5.829 5.829 0 0 0-.131 1.785c.023.295.487.297.463 0a5.435 5.435 0 0 1 .115-1.661c.066-.29-.38-.414-.447-.123M18.216 257.724c.322 0 .323-.5 0-.5-.322 0-.322.5 0 .5M17.95 260.78l.128 1.599c.023.295.487.296.463 0l-.127-1.6c-.023-.295-.487-.297-.463 0M17.967 264.593v1.107c0 .298.5.298.5 0v-1.107c0-.297-.5-.298-.5 0M17.844 268.532a8.52 8.52 0 0 0 .131 2.03c.054.292.501.168.448-.123a7.975 7.975 0 0 1-.116-1.907c.017-.298-.447-.297-.463 0M18.09 273.208v1.23c0 .298.5.299.5 0v-1.23c0-.298-.5-.298-.5 0M18.214 277.638v1.477c0 .298.5.298.5 0v-1.477c0-.297-.5-.298-.5 0M17.967 282.684v1.847c0 .297.5.298.5 0v-1.847c0-.297-.5-.298-.5 0M17.967 287.361v2.092c0 .298.5.298.5 0v-2.092c0-.297-.5-.298-.5 0M18.338 292.9v1.476c0 .298.5.298.5 0V292.9c0-.298-.5-.299-.5 0M18.346 298.13a4.515 4.515 0 0 0-.132 1.538c.026.294.49.297.464 0a4.135 4.135 0 0 1 .115-1.415c.074-.288-.373-.41-.447-.123M18.09 302.745v1.108c0 .297.5.298.5 0v-1.108c0-.297-.5-.298-.5 0M17.72 306.683v.985c0 .297.5.297.5 0v-.985c0-.297-.5-.298-.5 0M17.733 311.054l-.245.985c-.072.289.375.412.447.122l.245-.984c.072-.29-.375-.412-.447-.123M17.35 315.298v1.477c0 .298.5.298.5 0v-1.477c0-.297-.5-.298-.5 0M17.595 319.729l.124 1.23c.029.294.493.297.463 0l-.123-1.23c-.03-.293-.493-.296-.464 0M17.473 324.652v.984c0 .297.5.298.5 0v-.984c0-.298-.5-.298-.5 0M17.367 328.715l-.129 1.353c-.028.296.436.294.464 0l.129-1.353c.028-.296-.436-.294-.464 0M17.229 333.413c.322 0 .322-.5 0-.5s-.323.5 0 .5M17.35 336.467v1.723c0 .297.5.297.5 0v-1.723c0-.298-.5-.298-.5 0M17.473 342.005v.615c0 .298.5.298.5 0v-.615c0-.298-.5-.298-.5 0M11.793 258.563c0 .606.086 1.202.255 1.784.083.285.53.164.447-.123a5.897 5.897 0 0 1-.239-1.661c0-.298-.464-.298-.463 0M12.04 262.993v1.23c0 .298.5.299.5 0v-1.23c0-.297-.5-.298-.5 0M11.919 267.446c.322 0 .322-.5 0-.5s-.323.5 0 .5M11.307 254.686l.247.738c.094.28.542.16.447-.123l-.247-.738c-.094-.28-.541-.16-.447.123M10.928 270.5v.862c0 .297.5.298.5 0v-.861c0-.298-.5-.298-.5 0M11.422 274.193v.738c0 .297.5.298.5 0v-.738c0-.298-.5-.299-.5 0M12.04 277.27v1.353c0 .297.5.298.5 0v-1.354c0-.297-.5-.298-.5 0M12.163 280.715v1.108c0 .297.5.298.5 0v-1.108c0-.297-.5-.298-.5 0M12.287 284.408l-.124.984c-.037.295.427.292.464 0l.123-.984c.037-.295-.427-.292-.463 0M12.04 288.715v.985c0 .297.5.297.5 0v-.985c0-.298-.5-.298-.5 0M12.163 291.915v1.6c0 .297.5.298.5 0v-1.6c0-.298-.5-.298-.5 0M12.04 296.222v.862c0 .297.5.298.5 0v-.862c0-.297-.5-.298-.5 0M12.166 300.553c.322 0 .322-.5 0-.5s-.323.5 0 .5M11.916 302.868v.739c0 .297.5.297.5 0v-.739c0-.297-.5-.298-.5 0M11.546 307.791v.615c0 .298.5.298.5 0v-.615c0-.298-.5-.298-.5 0M11.546 313.576l.123.984c.037.291.5.295.464 0l-.123-.984c-.037-.292-.501-.296-.464 0M11.672 318.89c.322 0 .322-.5 0-.5s-.323.5 0 .5M11.548 322.213c.322 0 .323-.5 0-.5-.322 0-.322.5 0 .5M11.184 324.59a7.385 7.385 0 0 0-.132 1.785c.014.296.478.298.464 0-.028-.56.008-1.111.115-1.662.056-.29-.39-.415-.447-.123M11.67 330.56v.491c0 .298.5.299.5 0v-.492c0-.297-.5-.298-.5 0M11.299 334.62v.492c0 .298.5.298.5 0v-.492c0-.297-.5-.298-.5 0M5.874 261.701a4.138 4.138 0 0 0 0 1.477c.052.292.5.168.447-.123a3.475 3.475 0 0 1 0-1.231c.052-.29-.395-.416-.447-.123M5.991 265.97c.322 0 .323-.5 0-.5-.322 0-.322.5 0 .5M5.742 267.793v1.846c0 .297.5.298.5 0v-1.846c0-.298-.5-.298-.5 0M5.868 272.37c.322 0 .322-.5 0-.5s-.322.5 0 .5M5.771 274.506c-.126.49-.14.98-.052 1.477.052.292.498.169.447-.123a2.868 2.868 0 0 1 .052-1.231c.075-.288-.372-.411-.447-.123M5.868 279.854a2.78 2.78 0 0 0 .266 1.475c.127.27.527.035.4-.233a2.328 2.328 0 0 1-.202-1.242c.03-.296-.435-.293-.464 0M5.989 283.915c.016.43.11.83.279 1.224.116.273.515.038.4-.233a2.784 2.784 0 0 1-.215-.99c-.011-.297-.475-.299-.464 0M6.113 287.361v1.6c0 .297.5.298.5 0v-1.6c0-.297-.5-.298-.5 0M5.989 291.423v.86c0 .298.5.299.5 0v-.86c0-.298-.5-.298-.5 0M6.116 296.285c.08.451.16.903.242 1.355.052.291.499.168.447-.124l-.243-1.354c-.051-.292-.498-.169-.446.123M6.208 301.022l.003.862c.001.297.498.298.497 0l-.004-.862c0-.297-.497-.298-.496 0M6.115 303.976l-.138 1.352c-.03.296.433.294.464 0l.138-1.352c.03-.296-.434-.293-.464 0M6.124 309.27l-.15 1.35c-.034.295.43.293.463 0l.151-1.35c.033-.296-.43-.294-.464 0M6.362 314.93a4.128 4.128 0 0 0 .123 1.54c.078.286.525.164.447-.124a3.789 3.789 0 0 1-.106-1.416c.032-.296-.432-.294-.464 0M6.609 320.121c.321 0 .322-.5 0-.5s-.323.5 0 .5M5.866 323.298v1.477c0 .297.5.298.5 0v-1.477c0-.298-.5-.298-.5 0M5.989 327.975v.615c0 .297.5.298.5 0v-.615c0-.298-.5-.298-.5 0M6.12 331.974c.105.51.14 1.02.116 1.539-.014.297.45.297.464 0a6.642 6.642 0 0 0-.132-1.661c-.06-.292-.507-.168-.447.122M6.244 337.39a3.506 3.506 0 0 0-.131 1.169c.016.296.48.297.463 0-.02-.358.017-.701.115-1.046.082-.287-.365-.41-.447-.123M6.732 342.15c.322 0 .323-.5 0-.5-.322 0-.322.5 0 .5M-.68 261.762v1.231c0 .298.5.298.5 0v-1.23c0-.298-.5-.299-.5 0M-.183 266.34c.322 0 .323-.5 0-.5-.322 0-.322.5 0 .5M-.312 268.286c.045.52.012 1.03-.107 1.539-.068.289.379.413.447.123a5.277 5.277 0 0 0 .123-1.662c-.025-.295-.49-.297-.463 0M-.3 272.285l-.124.37c-.095.282.353.403.447.122l.124-.369c.094-.283-.353-.404-.447-.123M-.309 275.3v.985c0 .297.5.297.5 0v-.985c0-.297-.5-.298-.5 0M.185 280.346v1.477c0 .297.5.298.5 0v-1.477c0-.297-.5-.298-.5 0M.556 284.777v.984c0 .297.5.298.5 0v-.984c0-.298-.5-.298-.5 0M1.05 289.577c-.034.52.012 1.031.131 1.538.069.29.516.166.448-.123a4.75 4.75 0 0 1-.116-1.415c.02-.297-.444-.296-.463 0M1.422 295.26c.322 0 .323-.5 0-.5-.322 0-.322.5 0 .5M.926 297.822v1.108c0 .297.5.298.5 0v-1.108c0-.297-.5-.298-.5 0M.803 301.268v1.477c0 .297.5.298.5 0v-1.477c0-.297-.5-.298-.5 0M1.297 305.33l.123.984c.037.291.5.295.464 0l-.124-.984c-.036-.291-.5-.295-.463 0M.916 312.098l-.13 1.722c-.023.297.441.295.463 0l.13-1.722c.023-.297-.44-.295-.463 0M.682 317.536c.322 0 .322-.5 0-.5s-.323.5 0 .5M.556 320.221l-.124 1.231c-.03.296.434.293.464 0l.123-1.23c.03-.297-.434-.294-.463 0M.46 324.71l.357 1.848c.057.292.504.168.448-.123l-.359-1.848c-.057-.292-.503-.168-.447.123M.803 330.067l-.124 1.354c-.027.296.437.294.464 0l.123-1.354c.027-.296-.436-.294-.463 0M.803 335.236v.861c0 .298.5.298.5 0v-.861c0-.298-.5-.298-.5 0M.81 340.59a8.327 8.327 0 0 0-.13 1.907c.013.296.477.298.463 0-.029-.6.007-1.193.115-1.785.053-.29-.393-.415-.447-.122M.44 345.266l-.247 1.6c-.045.291.402.416.448.123l.246-1.6c.045-.29-.401-.416-.446-.123"/>
        </g>
        <g>
            <path fill="#F2F2F2" d="M341.677 257.916c-2.51-1.2-5.185-1.87-7.982-1.704-3.117.185-5.728 1.69-8.723 2.334-3.582.77-4.998-1.818-7.973-2.954-1.928-.736-3.97-.715-5.981-.444a3.825 3.825 0 0 0-1.756.29c-.113.023-.227.044-.34.066-.457.09-.746.37-.89.72-.068.06-.136.119-.202.183-.665.637-.484 1.765.286 2.223 2.642 1.57 4.833-.174 7.556.218 1.56.225 2.383 1.658 3.542 2.555 1.05.812 2.179 1.25 3.502 1.397 3.11.345 5.785-1.178 8.691-1.956 3.332-.893 6.72 1.002 9.93-.341.993-.414 1.568-2 .34-2.587M326.004 250.723a8.563 8.563 0 0 0-.881-.793.219.219 0 0 0-.003-.216 11.09 11.09 0 0 0-.48-.758c.012-.115.01-.235-.007-.358-.465-3.252-3.21-6.262-6.45-6.683-1.147-.15-1.374 1.327-.835 2.014.817 1.04-3.692 1.163-3.808 1.15-1.189-.128-2.296-.472-3.409-.899a1.262 1.262 0 0 0-.274-.07c-1.164-.856-2.77.76-1.612 1.707.348.284.7.568 1.057.848.032.32.195.63.545.848 1.23.763 2.521 1.492 3.948 1.682.1.03.198.065.3.09 2.895.706 6.061-.746 8.803.645.251.127.496.169.719.144.327.236.694.403 1.11.483.328.183.656.365.99.536.235.12.478-.172.287-.37M308.982 264.291a1.36 1.36 0 0 0 .384-.405l.1-.049c1.822-.032 1.828-2.863 0-2.831-1.278.023-2.265.401-3.105 1.131l-.065.03c-1.997.965-3.485 1.522-5.708 1.798-3.857.478-7.745.827-11.431-.67-.393-.16-.679.052-.791.357a1.888 1.888 0 0 0-.462-.676c-1.323-1.275-.754-2.395-.089-3.815.378-.808.307-1.616-.295-2.288-1.754-1.957-5.927-.534-8.044.107-.093.028-.175.066-.257.103-2.228-.295-4.434.61-6.685-.04-2.13-.613-3.836-1.447-6.114-1.237-1.33.12-2.782.759-4.018.062-.696-.011-.932-.288-.708-.83.019-.514.157-.998.418-1.453.3-.582.794-1.165 1.333-1.54a5.03 5.03 0 0 1 .653-.381c.24.078.514.08.816-.043a60.85 60.85 0 0 0 1.718-.73c1.273-.253 2.584-.44 3.716-.98 1.279-.61 2.347-1.447 3.29-2.44.265-.098.509-.286.693-.594l.134-.223c.288-.247.448-.585.49-.936.28-.992-.664-1.742-1.589-1.63-.767-.3-1.06-2.19-1.423-2.781a3.774 3.774 0 0 0-1.822-1.546c-2.066-.816-3.92.35-5.785 1.09-1.843.733-3.915.77-4.884 2.781-.515 1.068-.551 2.277-1.093 3.348-.07.14-.145.274-.223.407l-1.479 1.504c-1.744 1.288-3.9 2.07-5.135 4.069-.018.031-.029.062-.045.093-.905 1.386-.993 3.328-.35 5.012 1.09 2.853 3.598 4.885 6.429 5.863 1.957.675 3.187.986 4.647 2.52.062.065.126.12.19.18a1.39 1.39 0 0 0-.04.209c-.281 2.773 3.407 2.793 5.269 2.501 2.227-.349 4.392-1.494 6.617-2.022.122.063.242.13.365.186.04.021.076.038.115.06 2.914 1.594 5.315 1.084 8.432.472 1.65-.325 3.731.186 5.037-.493.478.987 1.614 1.636 2.744 1.761 2.835.316 5.507-1.383 8.33-1.256 2.79.125 4.196 2.863 6.83 3.438 1.737.38 3.629-.334 4.335-2.06a2.951 2.951 0 0 0-.024-2.297c-.277-.644-2.339-2.204-1.421-2.836"/>
            <path fill="#071F2C" d="M301.01 244.415c3.424.163 6.405.562 8.88 3.123.834.863 1.646 1.654 2.81 2.042 1.327.442 2.756.333 4.126.207 1.63-.15 3.295-.388 4.906.047 1.476.4 2.762 1.274 4.172 1.84 1.378.552 2.645.58 4.117.513.874-.04 1.759-.086 2.602.197 1.171.393 1.51 1.214 1.933 2.31.958 2.485 3.833 1.92 5.765 3.075.562.336 1.67 1.245 1.064 2.044-.298.393-1.054.44-1.488.47-1.146.077-2.316-.094-3.453-.214-1.066-.114-2.144-.248-3.218-.205-1.612.065-3.177.532-4.71.995-2.791.841-7.178 2.385-9.302-.542-.787-1.086-1.306-1.916-2.741-2.077-1.31-.147-2.554.31-3.821.55-1.171.223-4.132.263-4.013-1.611.111-1.762 2.368-1.222 3.434-.947.294.076.42-.379.125-.455-1.403-.361-4.287-.688-4.061 1.68.228 2.388 3.917 1.964 5.412 1.607.92-.22 1.874-.448 2.826-.352 1.413.143 1.856 1.164 2.652 2.145.752.926 1.88 1.39 3.04 1.545 3.763.506 7.218-1.793 10.906-2.052 2.543-.178 5.266.906 7.768.29 2.335-.575.88-2.794-.593-3.488-1.399-.66-3.33-.503-4.501-1.608-.666-.63-.672-1.536-1.11-2.283-.325-.555-.837-.939-1.421-1.193-1.569-.682-3.257-.202-4.896-.309-1.941-.127-3.545-1.283-5.293-2.003-3.969-1.634-8.83 1.284-12.17-2-1.275-1.253-2.35-2.365-4.075-2.976-1.812-.642-3.769-.747-5.671-.837-.304-.015-.303.457 0 .472"/>
            <path fill="#071F2C" d="M324.199 262.006c-2.744 2.025-6.237 1.48-9.422 1.28-1.838-.115-5.958-.61-6.366 2.017-.234 1.508 1.446 1.618 1.749 2.868.478 1.976-1.748 3.214-3.399 2.927-1.913-.333-3.077-1.744-4.598-2.78-1.162-.79-2.481-.907-3.836-.644-1.714.332-3.283 1.196-5.007 1.48-2.214.362-4.451-.665-4.277-3.15.065-.916.235-2.01-.318-2.82-.288-.421-.774-.598-1.115-.967-.58-.628-.764-1.562-.68-2.388a3.32 3.32 0 0 1 .265-1.029c.14-.32.449-.574.572-.878a1.034 1.034 0 0 0-.018-.753c-.258-.66-1.041-.896-1.673-1.009-2.462-.44-4.909.392-7.236 1.067-1.943.562-3.757.718-5.732.223-1.59-.398-3.117-1.031-4.732-1.332-1.436-.266-2.693-.123-4.087.254-.629.17-1.338.398-1.952.071-.516-.274-.946-.916-.808-1.525.12-.533.782-1.324 1.094-1.799.966-1.472 3.098-1.58 4.696-1.881 1.435-.272 2.896-.57 4.184-1.287 2.683-1.494 3.059-4.895 5.536-6.57 1.402-.95 3.092-1.33 4.646-1.954 1.297-.521 2.453-1.254 3.516-2.158 2.414-2.052 4.31-4.84 7.295-6.126 1.448-.625 3.13-.958 4.674-.498 1.567.467 2.036 1.816 3.264 2.681 2.175 1.534 5.159-.934 6.726-2.318 2.079-1.836 5.496-4.968 8.486-2.997 1.873 1.234 1.53 3.807.846 5.6-.488 1.28-1.644 2.845-1.541 4.27.181 2.52 4.323 2.719 6.07 3.338 2.008.712 2.787 2.183 3.244 4.17.284 1.232.584 2.279 1.429 3.252.718.825 1.63 1.479 2.735 1.596.302.033.3-.44 0-.471-1.847-.197-3.14-2.102-3.538-3.757-.34-1.41-.574-2.93-1.634-4.01-.933-.951-2.27-1.324-3.523-1.64-1.772-.448-4.951-1-4.116-3.53.872-2.64 3.247-5.907 1-8.57-1.647-1.953-4.588-1.319-6.53-.211-1.27.723-2.307 1.789-3.397 2.745-1.236 1.083-3.156 2.73-4.96 2.497-1.683-.218-2.397-2.281-3.952-2.928-1.07-.445-2.257-.48-3.387-.285-3.03.521-5.18 2.586-7.257 4.688-1.23 1.246-2.476 2.517-3.988 3.425-1.483.892-3.173 1.283-4.755 1.951-1.317.558-2.433 1.32-3.272 2.491-.93 1.299-1.487 2.892-2.643 4.025-1.31 1.285-3.178 1.718-4.921 2.056-1.403.272-3.188.373-4.413 1.169-.817.53-1.54 1.761-1.948 2.618-.416.871.002 1.792.793 2.281 1.274.788 2.814-.216 4.143-.336 1.786-.161 3.529.46 5.207.983 1.598.497 3.232.957 4.923.813 1.766-.15 3.416-.833 5.12-1.27 1.253-.323 2.579-.505 3.875-.428.537.032 1.289.066 1.732.423.696.561.04 1.025-.223 1.62a3.974 3.974 0 0 0-.092 2.962c.171.45.435.87.794 1.194.726.654 1.15.993 1.176 2.064.028 1.17-.349 2.22.344 3.281.667 1.02 1.832 1.542 3.02 1.613 1.712.102 3.303-.632 4.894-1.149.909-.295 1.866-.569 2.83-.542 1.403.038 2.302.793 3.327 1.644 1.82 1.51 5.028 3.169 6.9.811.543-.683.879-1.639.646-2.507-.116-.432-.345-.707-.647-1.02-.49-.511-1.146-.919-1.004-1.683.142-.762.874-1.18 1.571-1.372 1.677-.463 3.65-.17 5.359-.047 1.606.114 3.23.243 4.835.03 1.366-.18 2.608-.632 3.72-1.452.241-.179.006-.588-.24-.407"/>
            <path fill="#071F2C" d="M292.327 243.473c-2.784.052-5.112 2.346-5.21 5.124-.01.304.462.303.473 0 .089-2.52 2.216-4.604 4.737-4.652.304-.005.305-.477 0-.472"/>
            <path fill="#071F2C" d="M288.828 245.133c-.405-.591-.814-1.032-1.566-.926-.425.059-.804.294-1.241.32-.849.052-1.356-.54-2.103-.759-1.96-.573-2.241 2.635-4.117 2.543-.304-.015-.303.457 0 .472.703.034 1.24-.264 1.72-.762.524-.544 1.021-1.743 1.836-1.848.539-.07 1.053.441 1.538.625.402.153.794.229 1.223.191 1.027-.09 1.543-.726 2.302.383.171.249.58.013.408-.239M288.728 267.638c-2.286-.669-4.676-.729-6.977-.083-1.305.365-2.723 1.068-4.11.777-1.18-.248-1.976-1.178-2.823-1.956-1.309-1.2-2.502-1.563-4.25-1.196-1.354.285-3.514.803-3.607-1.3-.09-2.052 2.369-2.469 3.899-2.195.297.054.424-.401.125-.454-1.935-.348-4.649.325-4.497 2.799.171 2.808 3.353 1.637 5.032 1.47 2.839-.283 3.853 3.256 6.63 3.356 1.508.053 2.916-.679 4.359-1.006 2.03-.462 4.102-.34 6.094.243.292.086.417-.37.125-.455"/>
            <path fill="#071F2C" d="M274.773 266.725c-2.488.103-4.46 1.564-6.78 2.252-1.3.386-2.749.479-3.96-.236-1.211-.716-1.216-2.031-1.961-3.068-1.055-1.467-3.174-1.29-4.726-1.758a8.152 8.152 0 0 1-5.34-5.213c-.837-2.553-.426-6.012 1.837-7.725 1.177-.89 2.425-1.688 3.586-2.6 1.468-1.15 1.309-2.597 1.98-4.179 1.044-2.465 3.612-2.608 5.826-3.37 1.301-.447 2.262-1.239 3.724-.843.779.21 1.47.616 1.93 1.287.383.559.473 1.204.76 1.804.837 1.747 2.781 1.617 4.386 1.134.29-.087.167-.543-.125-.456-1.515.457-3.25.62-3.942-1.143-.363-.926-.575-1.735-1.406-2.373a4.361 4.361 0 0 0-2.379-.863c-1.1-.054-1.914.565-2.9.94-1.954.742-4.228.798-5.636 2.555-.556.694-.848 1.485-1.038 2.343-.283 1.285-.628 2.153-1.718 2.983-1.34 1.018-3.04 1.872-4.149 3.151-1.412 1.63-1.811 4.052-1.501 6.131a8.467 8.467 0 0 0 3.246 5.483 8.686 8.686 0 0 0 2.734 1.41c1.233.376 2.713.284 3.828.99 1.193.757 1.13 2.432 2.166 3.367.709.64 1.683.957 2.624 1.016 3.204.2 5.77-2.417 8.934-2.547.303-.012.305-.485 0-.472M315.785 267.069l.17 2.348c.022.3.494.303.472 0l-.17-2.348c-.021-.301-.494-.304-.472 0M317.153 271.7a6.685 6.685 0 0 0-.177 2.075c.022.302.494.304.473 0a6.268 6.268 0 0 1 .159-1.949c.072-.295-.384-.42-.455-.126M316.812 276.46l-.365 3.182c-.034.301.438.298.472 0l.365-3.183c.034-.301-.438-.299-.472 0M316.305 282.663v1.51c0 .303.472.304.472 0v-1.51c0-.304-.472-.304-.472 0M316.976 288.7v2.013c0 .303.473.303.473 0V288.7c0-.304-.473-.304-.473 0M316.709 295.476c.304 0 .304-.472 0-.472s-.305.472 0 .472M315.928 300.435l-.16 2.014c-.025.302.448.3.472 0l.16-2.014c.024-.303-.448-.301-.472 0M315.634 305.134v2.348c0 .303.472.304.472 0v-2.348c0-.304-.472-.304-.472 0M315.466 311.339l-.168 2.012c-.025.303.447.301.472 0l.168-2.012c.025-.303-.447-.301-.472 0M315.198 317.444c.304 0 .305-.472 0-.472-.303 0-.304.472 0 .472M314.459 321.568v1.677c0 .304.472.304.472 0v-1.677c0-.304-.472-.304-.472 0M315.14 326.935c-.058.838-.115 1.677-.171 2.515-.021.303.451.302.472 0l.17-2.515c.02-.303-.451-.302-.472 0M314.627 332.468v2.18c0 .304.472.304.472 0v-2.18c0-.304-.472-.304-.472 0M314.64 336.555c.165.643.212 1.288.152 1.95-.028.302.444.3.472 0a6.068 6.068 0 0 0-.17-2.076c-.075-.294-.53-.17-.455.126M315.03 342.43c.305 0 .305-.472 0-.472-.303 0-.304.472 0 .472M314.774 346.644l.03 2.258c.004.303.476.304.472 0l-.03-2.258c-.004-.303-.477-.304-.472 0M315.146 352.149a5.49 5.49 0 0 1 .148 1.951c-.03.302.442.3.472 0a5.853 5.853 0 0 0-.165-2.077c-.076-.293-.532-.169-.455.126M315.341 357.678c.122.69.103 1.375-.052 2.057-.066.296.389.422.456.126a5.765 5.765 0 0 0 .052-2.308c-.053-.299-.508-.172-.456.125M319.516 338l.318 2.852c.033.3.505.303.472 0l-.317-2.853c-.033-.298-.506-.302-.473 0M319.17 346.22a.938.938 0 0 0 .44.875c.255.167.491-.241.238-.408-.165-.109-.223-.275-.206-.466.027-.303-.446-.301-.473 0M310.466 273.328c.16.647.198 1.294.123 1.956-.034.3.439.299.473 0a5.85 5.85 0 0 0-.14-2.081c-.073-.295-.53-.17-.456.125M310.599 278.639v1.509c0 .304.472.304.472 0v-1.51c0-.303-.472-.304-.472 0M310.51 283.57v1.539c0 .303.472.304.472 0v-1.538c0-.304-.472-.305-.472 0M310.508 287.767l-.233 1.657c-.042.297.413.425.455.125l.234-1.657c.042-.297-.414-.425-.456-.125M310.033 291.448c.205.555.283 1.118.239 1.708-.024.303.45.301.472 0a4.294 4.294 0 0 0-.256-1.833c-.105-.282-.561-.16-.455.125M310.629 297.652v1.894c0 .304.472.304.472 0v-1.894c0-.303-.472-.304-.472 0M310.746 304.042c.304 0 .305-.472 0-.472-.304 0-.305.472 0 .472M310.296 307.003l-.143 1.891c-.023.303.449.301.472 0l.143-1.891c.023-.303-.45-.302-.472 0M309.689 311.853a7.952 7.952 0 0 0 .101 2.077c.054.299.509.173.456-.125a7.488 7.488 0 0 1-.085-1.952c.026-.303-.447-.3-.472 0M309.444 317.533l-.118 1.775c-.02.303.452.301.472 0 .04-.592.08-1.184.118-1.775.02-.303-.452-.303-.472 0M309.089 322.148v.355c0 .304.472.304.472 0v-.355c0-.304-.472-.304-.472 0M308.97 325.58v1.775c0 .303.473.304.473 0v-1.776c0-.304-.473-.304-.473 0M308.852 331.141v.829c0 .303.472.304.472 0v-.829c0-.303-.472-.304-.472 0M308.852 334.218v1.302c0 .303.472.303.472 0v-1.302c0-.304-.472-.304-.472 0M308.378 340.49v1.775c0 .303.472.303.472 0v-1.775c0-.304-.472-.305-.472 0M308.272 344.749l.125 1.656c.023.3.495.303.473 0l-.125-1.656c-.023-.301-.495-.304-.473 0M303.768 273.277c-.09.7-.051 1.388.109 2.075.069.296.524.17.455-.125a5.428 5.428 0 0 1-.091-1.95c.039-.3-.434-.298-.473 0M304.115 279.074v.828c0 .304.472.304.472 0v-.828c0-.304-.472-.304-.472 0M304.115 282.979v1.42c0 .304.472.304.472 0v-1.42c0-.304-.472-.305-.472 0M303.955 287.827l-.192 1.897c-.03.302.442.3.473 0l.192-1.897c.03-.302-.442-.3-.473 0M303.641 293.156v1.302c0 .303.472.304.472 0v-1.302c0-.304-.472-.305-.472 0M303.523 297.77v1.303c0 .303.472.304.472 0v-1.302c0-.304-.472-.305-.472 0M302.955 302.265l.116 1.42c.025.301.497.304.472 0l-.116-1.42c-.024-.3-.497-.303-.472 0M302.93 307.238v1.302c0 .303.473.303.473 0v-1.302c0-.304-.473-.305-.473 0M302.93 311.498v.473c0 .303.473.304.473 0v-.473c0-.304-.473-.305-.473 0M303.049 318.243v2.011c0 .304.472.304.472 0v-2.011c0-.304-.472-.305-.472 0M302.811 324.869c.304 0 .305-.472 0-.472-.304 0-.304.472 0 .472M301.95 328.35l-.445 2.608c-.05.297.405.425.456.125l.444-2.607c.051-.298-.404-.426-.455-.126M302.116 334.572l.118 1.538c.022.301.495.303.472 0l-.118-1.538c-.023-.301-.495-.304-.472 0M302.228 340.845l-.133 1.774c-.024.303.449.301.472 0 .045-.59.09-1.182.133-1.774.023-.303-.45-.302-.472 0M301.751 345.05c.203.837.277 1.68.23 2.54-.016.303.456.302.473 0a9.139 9.139 0 0 0-.247-2.666c-.072-.295-.527-.17-.456.126M301.865 350.785v2.248c0 .304.472.304.472 0v-2.248c0-.304-.472-.305-.472 0M301.777 356.581l.11 1.658c.021.3.493.303.473 0l-.11-1.658c-.02-.301-.493-.304-.473 0M301.438 363.324c.038.505-.013.993-.157 1.48-.088.292.368.416.455.125.156-.523.215-1.06.175-1.605-.023-.301-.495-.303-.473 0M297.252 270.791c-.067.671-.07 1.34-.014 2.012.025.3.498.303.473 0-.057-.672-.053-1.34.013-2.012.03-.302-.443-.3-.472 0M297.378 275.585c.116.369.148.738.102 1.122-.035.301.438.298.473 0 .05-.423.008-.842-.12-1.248-.09-.288-.546-.165-.455.126M297.26 280.196a1.944 1.944 0 0 0 .265 1.712c.173.246.583.01.407-.238a1.49 1.49 0 0 1-.218-1.348c.092-.29-.365-.415-.455-.126M297.601 284.873l-.118 1.656c-.022.303.45.301.472 0l.118-1.656c.022-.304-.45-.303-.472 0M297.838 289.842v.592c0 .304.472.304.472 0v-.592c0-.304-.472-.304-.472 0M297.601 293.274v1.539c0 .303.472.304.472 0v-1.539c0-.304-.472-.304-.472 0M297.72 297.77v1.066c0 .303.472.304.472 0v-1.065c0-.304-.473-.305-.473 0M297.72 302.268v.946c0 .304.472.304.472 0v-.946c0-.304-.473-.305-.473 0M297.719 307.119c.304 0 .304-.472 0-.472s-.305.472 0 .472M297.483 310.551v1.302c0 .303.472.303.472 0v-1.302c0-.304-.472-.304-.472 0M297.246 314.693v1.301c0 .304.472.304.472 0v-1.301c0-.304-.472-.305-.472 0M297.127 318.48v1.656c0 .303.473.304.473 0v-1.656c0-.304-.473-.305-.473 0M297.127 323.33c.304 0 .304-.471 0-.471-.305 0-.305.471 0 .471M296.423 326.408l.128 2.01c.02.302.491.304.472 0l-.128-2.01c-.02-.302-.492-.304-.472 0M296.417 330.905v2.13c0 .303.472.304.472 0v-2.13c0-.304-.472-.305-.472 0M296.418 335.165a5.01 5.01 0 0 0 .122 1.602c.07.295.525.17.455-.126a4.607 4.607 0 0 1-.105-1.476c.027-.303-.445-.301-.472 0M296.89 339.78l-.118 1.183c-.03.302.442.3.473 0l.118-1.183c.03-.302-.443-.3-.473 0M291.916 272.802l-.236 1.775c-.04.3.432.298.472 0l.237-1.775c.04-.3-.433-.297-.473 0M291.692 277.534l.122 1.183c.032.3.504.303.473 0-.041-.394-.083-.788-.123-1.183-.031-.299-.504-.302-.472 0M291.68 280.967v1.42c0 .304.472.305.472 0v-1.42c0-.304-.472-.304-.472 0M291.561 285.227v1.42c0 .304.473.304.473 0v-1.42c0-.304-.473-.304-.473 0M291.561 290.08v2.248c0 .303.473.304.473 0v-2.249c0-.304-.473-.304-.473 0M291.667 295.048l-.12.946c-.04.3.434.298.471 0l.121-.946c.039-.301-.434-.298-.472 0M291.206 298.717v1.42c0 .304.472.305.472 0v-1.42c0-.303-.472-.304-.472 0M291.561 305.226c.04.434.08.868.118 1.302.028.3.5.302.473 0-.04-.434-.08-.868-.118-1.302-.028-.3-.5-.303-.473 0M292.034 311.497c.304 0 .305-.472 0-.472-.304 0-.304.472 0 .472M291.443 315.758v2.366c0 .304.472.304.472 0v-2.366c0-.304-.472-.305-.472 0M291.561 322.266v1.302c0 .303.473.304.473 0v-1.302c0-.304-.473-.304-.473 0M291.346 328.596l-.118.592c-.058.297.397.423.456.125l.117-.591c.058-.297-.396-.424-.455-.126M291.209 332.206l.118 1.775c.02.301.493.304.473 0l-.119-1.775c-.02-.302-.492-.304-.472 0M291.925 338.77a5.385 5.385 0 0 0-.246 1.72c.006.303.479.304.473 0a4.967 4.967 0 0 1 .228-1.594c.091-.29-.364-.415-.455-.126M291.463 344.574l.118.71c.05.299.505.172.456-.126l-.119-.71c-.05-.298-.505-.172-.455.126M291.561 348.773v1.42c0 .303.473.304.473 0v-1.42c0-.304-.473-.304-.473 0M291.68 354.098v2.604c0 .303.472.304.472 0v-2.604c0-.304-.472-.304-.472 0M291.326 360.725l.084 1.54c.017.302.49.304.473 0l-.085-1.54c-.016-.302-.489-.305-.472 0M285.047 271.146l-.118 2.13c-.017.303.456.302.473 0l.118-2.13c.017-.304-.456-.303-.473 0M285.166 277.654v.828c0 .304.472.304.472 0v-.828c0-.304-.472-.304-.472 0M285.165 282.624c.304 0 .305-.472 0-.472-.304 0-.304.472 0 .472M284.93 286.292v2.012c0 .304.471.304.471 0v-2.012c0-.304-.472-.304-.472 0M285.047 293.037c.304 0 .304-.472 0-.472s-.305.472 0 .472M284.589 296.352l-.12 2.485c-.014.303.458.302.473 0l.12-2.485c.014-.304-.458-.304-.473 0M283.981 302.741v1.775c0 .303.473.304.473 0v-1.775c0-.304-.473-.304-.473 0M284.219 308.066v1.657c0 .303.472.303.472 0v-1.657c0-.304-.472-.304-.472 0M284.455 313.154c.303 0 .304-.472 0-.472s-.305.472 0 .472M284.219 315.52l-.119 2.131c-.017.304.455.303.472 0l.119-2.13c.017-.304-.456-.303-.472 0M284.248 320.725l.2 1.897c.032.299.505.302.473 0l-.201-1.897c-.032-.3-.504-.303-.472 0M284.1 325.935v1.893c0 .303.472.304.472 0v-1.893c0-.304-.472-.305-.472 0M283.745 330.905l.118 1.183c.03.3.503.302.472 0l-.118-1.183c-.03-.3-.503-.303-.472 0M283.99 334.99c.157 1 .23 2.003.229 3.015-.001.303.47.303.472 0a19.86 19.86 0 0 0-.246-3.14c-.046-.299-.502-.172-.455.126M283.73 341.79l-.117 1.302c-.027.302.445.3.472 0l.118-1.302c.027-.302-.445-.3-.472 0M283.399 345.814l.051 1.778c.009.302.481.304.472 0l-.051-1.778c-.01-.303-.481-.304-.472 0M282.797 350.903v1.657c0 .303.473.304.473 0v-1.657c0-.304-.473-.304-.473 0M282.7 355.46c.04.277.08.553.118.83.043.299.498.17.456-.126-.04-.276-.08-.553-.118-.83-.043-.298-.498-.17-.456.126M282.56 360.606v1.065c0 .304.473.304.473 0v-1.065c0-.303-.473-.304-.473 0M280.319 271.675a8.8 8.8 0 0 0-.127 2.074c.018.302.49.304.472 0a8.265 8.265 0 0 1 .11-1.949c.053-.297-.402-.425-.455-.125M280.073 276.59v1.064c0 .303.473.304.473 0v-1.065c0-.304-.473-.304-.473 0M280.192 280.494v1.657c0 .303.472.304.472 0v-1.657c0-.304-.472-.304-.472 0M279.97 286.472c.119.528.15 1.056.1 1.595-.027.303.446.3.473 0 .053-.58.01-1.152-.118-1.72-.067-.297-.523-.171-.455.125M280.31 292.918c.304 0 .304-.471 0-.471s-.305.471 0 .471M279.835 294.93l-.118 2.368c-.015.303.457.302.472 0l.118-2.367c.015-.304-.457-.303-.472 0M279.363 300.611l-.119 1.538c-.023.303.45.302.473 0l.118-1.538c.023-.303-.45-.302-.472 0M279.011 304.043l-.131 1.656c-.024.302.449.3.472 0l.132-1.656c.024-.303-.449-.302-.473 0M278.652 309.131v1.302c0 .303.473.304.473 0v-1.302c0-.304-.473-.304-.473 0M278.652 313.746v.828c0 .304.473.304.473 0v-.828c0-.304-.473-.304-.473 0M278.417 317.888l-.119 1.893c-.019.304.454.302.473 0l.118-1.893c.019-.304-.453-.303-.472 0M278.33 323.033c.11.53.132 1.061.077 1.599-.031.302.441.3.472 0a5.638 5.638 0 0 0-.093-1.724c-.062-.298-.517-.172-.456.125M278.77 327.945c.304 0 .305-.472 0-.472-.304 0-.305.472 0 .472M278.415 330.313v1.775c0 .304.473.304.473 0v-1.775c0-.304-.473-.305-.473 0M278.534 335.165v1.538c0 .304.472.304.472 0v-1.538c0-.304-.472-.305-.472 0M278.525 339.424l-.12 1.301c-.027.302.445.3.473 0l.119-1.301c.028-.303-.445-.3-.472 0M278.415 343.448v.947c0 .303.473.304.473 0v-.947c0-.304-.473-.304-.473 0M278.03 347.823l-.225 2.25c-.03.302.443.3.472 0l.226-2.25c.03-.302-.443-.3-.472 0M277.468 354.217v2.011c0 .304.472.304.472 0v-2.011c0-.304-.472-.305-.472 0M277.586 360.251v1.066c0 .303.473.303.473 0v-1.066c0-.303-.473-.304-.473 0M277.823 365.34v1.065c0 .303.473.304.473 0v-1.065c0-.304-.473-.305-.473 0M275.1 270.79l-.119 1.894c-.02.303.453.302.472 0l.119-1.893c.019-.304-.454-.303-.473 0M275.218 275.05v1.302c0 .304.472.304.472 0v-1.301c0-.304-.472-.305-.472 0M275.218 279.074v1.775c0 .303.472.304.472 0v-1.775c0-.304-.472-.304-.472 0M275.336 283.453v1.538c0 .303.472.304.472 0v-1.538c0-.304-.472-.305-.472 0M275.455 288.186v1.775c0 .303.472.304.472 0v-1.775c0-.304-.472-.304-.472 0M275.345 292.975a5.79 5.79 0 0 0-.127 1.6c.018.302.49.305.472 0a5.34 5.34 0 0 1 .11-1.475c.065-.296-.39-.422-.455-.125M274.757 298.837l-.12 1.775c-.02.303.453.302.473 0l.12-1.775c.02-.304-.452-.302-.473 0M274.389 303.333v.946c0 .304.472.304.472 0v-.946c0-.304-.472-.305-.472 0M274.388 307.947c.304 0 .305-.472 0-.472-.304 0-.305.472 0 .472M274.27 312.208l-.236 1.893c-.038.3.435.298.472 0l.236-1.893c.038-.301-.435-.298-.472 0M273.796 318.243v.828c0 .304.473.304.473 0v-.828c0-.304-.473-.305-.473 0M273.796 321.793v1.656c0 .304.473.304.473 0v-1.656c0-.304-.473-.305-.473 0M273.796 326.526a7.755 7.755 0 0 1-.228 1.713c-.073.294.382.42.456.125.15-.604.232-1.216.245-1.838.006-.304-.466-.304-.473 0M273.323 331.97v.946c0 .304.472.304.472 0v-.946c0-.304-.472-.305-.472 0M273.323 335.638v2.367c0 .303.472.304.472 0v-2.367c0-.304-.472-.304-.472 0M273.204 342.619c.304 0 .304-.472 0-.472s-.305.472 0 .472M272.612 346.643c.039.85.006 1.697-.11 2.54-.04.298.414.426.456.126.121-.887.167-1.771.127-2.666-.014-.302-.486-.304-.473 0M272.257 353.033l-.118 1.065c-.034.302.439.3.472 0l.118-1.065c.034-.301-.439-.299-.472 0M272.265 357.474l.119.355c.095.287.552.164.455-.125l-.118-.356c-.096-.286-.552-.163-.456.126M268.704 271.619v2.367c0 .303.472.304.472 0v-2.367c0-.304-.472-.304-.472 0M268.94 277.298c.304 0 .305-.471 0-.471-.304 0-.304.471 0 .471M268.455 279.786l.233 2.012c.034.298.507.301.472 0l-.233-2.012c-.034-.299-.507-.302-.472 0M268.698 284.637a5.897 5.897 0 0 1-.092 1.714c-.06.296.394.423.455.125.125-.61.164-1.22.11-1.84-.027-.3-.5-.303-.473 0M268.828 289.069a2.586 2.586 0 0 0-.122 1.128c.034.299.506.302.472 0a2.271 2.271 0 0 1 .105-1.002c.098-.29-.358-.413-.455-.126M268.94 292.919l-.236 1.894c-.037.3.435.298.473 0l.236-1.894c.038-.3-.435-.298-.472 0M268.473 296.887l.362 1.893c.057.297.512.171.455-.126l-.361-1.892c-.057-.298-.512-.172-.456.125M268.822 301.912v.948c0 .303.473.303.473 0v-.948c0-.303-.473-.304-.473 0M268.717 305.519a6.306 6.306 0 0 0-.01 2.137c.049.3.503.173.455-.125a5.623 5.623 0 0 1 .01-1.886c.052-.297-.403-.425-.455-.126M268.704 310.787v2.368c0 .303.472.303.472 0v-2.368c0-.303-.472-.304-.472 0M268.23 316.113l-.118 1.183c-.03.302.442.3.472 0l.119-1.183c.03-.302-.443-.3-.473 0M268.12 320.31l-.118.473c-.074.295.382.42.455.126.04-.158.08-.315.118-.473.075-.295-.381-.42-.455-.126M267.52 323.686v1.302c0 .303.472.304.472 0v-1.302c0-.304-.472-.304-.472 0M267.647 327.765c-.08.552-.158 1.104-.237 1.657-.043.297.412.425.455.125l.237-1.656c.042-.298-.413-.426-.455-.126M267.519 332.442c.304 0 .305-.472 0-.472-.304 0-.305.472 0 .472M267.164 335.165v1.183c0 .304.473.304.473 0v-1.183c0-.304-.473-.305-.473 0M266.808 341.08c.305 0 .305-.471 0-.471-.304 0-.304.472 0 .472M266.927 343.685v1.42c0 .303.473.304.473 0v-1.42c0-.304-.473-.305-.473 0M266.81 348.536l-.12 1.302c-.027.302.446.3.473 0 .04-.434.08-.868.118-1.302.028-.302-.444-.3-.472 0M266.69 353.033v.947c0 .303.473.304.473 0v-.947c0-.304-.472-.304-.472 0M266.587 356.404a7.91 7.91 0 0 0-.257 1.954c-.002.304.47.304.472 0a7.375 7.375 0 0 1 .24-1.829c.077-.294-.378-.42-.455-.125M266.453 361.08l.236 1.775c.04.297.513.3.473 0-.08-.591-.158-1.183-.237-1.775-.04-.297-.513-.3-.472 0M262.797 271.084a8.076 8.076 0 0 0-.258 1.955c-.003.303.47.304.472 0a7.534 7.534 0 0 1 .241-1.829c.076-.294-.379-.42-.455-.126M262.546 274.932v1.066c0 .303.472.303.472 0v-1.066c0-.303-.472-.304-.472 0M262.542 278.01c.046.422.015.83-.102 1.24-.084.292.372.417.455.125.128-.447.17-.903.12-1.365-.032-.3-.505-.303-.473 0M262.546 282.624v1.775c0 .304.472.304.472 0v-1.775c0-.304-.472-.304-.472 0M262.546 287.476v.71c0 .303.472.304.472 0v-.71c0-.304-.472-.305-.472 0M262.427 290.907v1.184c0 .303.473.304.473 0v-1.184c0-.304-.473-.304-.473 0M262.446 295.52l.12 1.42c.026.301.499.304.473 0l-.121-1.42c-.026-.3-.498-.303-.472 0M262.548 299.901c-.047.383-.005.764.12 1.13.1.284.556.161.457-.126a2.18 2.18 0 0 1-.105-1.004c.037-.3-.436-.298-.472 0M262.9 304.278c.304 0 .305-.471 0-.471-.304 0-.304.471 0 .471M262.664 307.001v1.42c0 .304.472.304.472 0v-1.42c0-.304-.472-.304-.472 0M262.782 311.735v1.893c0 .303.473.304.473 0v-1.893c0-.304-.473-.305-.473 0M262.554 315.814l-.118.828c-.043.297.412.425.455.125l.118-.828c.043-.297-.412-.426-.455-.125M262.309 319.545v1.538c0 .303.472.304.472 0v-1.538c0-.304-.472-.305-.472 0M262.083 323.15c-.051.37-.025.723.113 1.073.11.28.566.158.455-.125a1.613 1.613 0 0 1-.113-.822c.041-.297-.414-.426-.455-.126M262.309 328.064v1.302c0 .304.472.304.472 0v-1.302c0-.303-.472-.304-.472 0M261.953 332.561v1.42c0 .304.473.304.473 0v-1.42c0-.304-.473-.304-.473 0M261.598 336.584v1.539c0 .303.473.304.473 0v-1.539c0-.303-.473-.304-.473 0M261.243 340.608c.03.422-.004.83-.11 1.239-.077.294.379.42.455.125.117-.447.16-.902.127-1.364-.022-.301-.494-.304-.472 0M261.361 347.116v2.249c0 .303.473.304.473 0v-2.249c0-.304-.473-.304-.473 0M261.124 353.506c.304 0 .304-.472 0-.472s-.305.472 0 .472M260.65 356.347v2.603c0 .304.473.304.473 0v-2.603c0-.304-.472-.305-.472 0M260.296 363.447c.02.556.188 1.08.509 1.537.172.246.582.01.407-.239a2.363 2.363 0 0 1-.443-1.298c-.011-.303-.483-.305-.473 0M257.335 267.714v2.485c0 .304.472.304.472 0v-2.485c0-.304-.472-.304-.472 0M257.453 273.986l.119 1.301c.027.3.5.303.472 0l-.119-1.301c-.027-.3-.5-.304-.472 0M257.453 278.72l.119 2.011c.017.302.49.303.472 0l-.119-2.012c-.018-.302-.49-.304-.472 0M257.68 284.753c-.04.394-.082.789-.124 1.183-.032.302.44.3.472 0l.125-1.183c.032-.302-.44-.3-.472 0M256.98 288.068v2.366c0 .304.472.304.472 0v-2.366c0-.304-.473-.305-.473 0M256.506 294.22v1.776c0 .304.472.304.472 0v-1.775c0-.304-.472-.305-.472 0M256.506 299.31v2.248c0 .303.472.304.472 0v-2.249c0-.304-.472-.304-.472 0M256.175 304.282c-.09.827-.119 1.654-.087 2.485.01.303.483.304.472 0a17.123 17.123 0 0 1 .087-2.485c.033-.301-.44-.299-.472 0M256.15 310.433v.71c0 .303.473.304.473 0v-.71c0-.304-.473-.305-.473 0M256.023 314.1l-.12 2.25c-.017.302.456.301.472 0l.12-2.25c.017-.303-.456-.302-.472 0M255.795 318.953l.118 2.722c.013.302.486.304.473 0l-.119-2.722c-.013-.303-.485-.305-.472 0M255.922 324.689a3.077 3.077 0 0 0-.127 1.127c.022.301.495.303.472 0-.025-.344.01-.672.11-1.002.089-.292-.367-.416-.455-.125M255.558 329.958l-.118 1.184c-.03.301.442.3.472 0l.119-1.184c.03-.302-.443-.3-.473 0M255.084 334.454v2.13c0 .304.473.305.473 0v-2.13c0-.303-.473-.304-.473 0M254.98 340.191l-.233 1.539c-.045.297.41.425.456.126l.233-1.54c.045-.296-.41-.425-.455-.125M254.73 345.342l-.12 2.248c-.015.303.457.302.473 0l.119-2.248c.016-.304-.457-.303-.473 0M254.965 352.559c.305 0 .305-.472 0-.472-.304 0-.304.472 0 .472M254.738 354.627a4.83 4.83 0 0 0-.364 1.601c-.018.303.454.302.472 0 .03-.513.149-1.001.347-1.475.117-.28-.34-.402-.455-.126M254.73 360.606a7.278 7.278 0 0 1-.11 1.831c-.057.297.398.424.454.126a7.79 7.79 0 0 0 .128-1.957c-.02-.301-.492-.304-.473 0"/>
            <g transform="translate(254.723 366.057)">
                <mask id="n" fill="#fff">
                    <use xlink:href="#m"/>
                </mask>
                <path fill="#071F2C" d="M.598.348A11.458 11.458 0 0 1 .37 3.48c-.063.297.392.423.455.125.23-1.077.314-2.157.246-3.257C1.05.046.579.044.598.348" mask="url(#n)"/>
            </g>
            <path fill="#071F2C" d="M252.597 264.164a8.754 8.754 0 0 0 0 1.894c.033.298.505.301.473 0a8.754 8.754 0 0 1 0-1.894c.032-.302-.44-.3-.473 0M252.834 269.489v1.42c0 .303.473.304.473 0v-1.42c0-.304-.473-.305-.473 0M253.071 273.63v2.13c0 .304.472.305.472 0v-2.13c0-.303-.472-.304-.472 0M252.479 280.612v3.196c0 .303.472.304.472 0v-3.196c0-.304-.472-.304-.472 0M252.111 287.359c.039.315.076.632.114.947.036.298.509.301.472 0l-.113-.947c-.036-.298-.509-.302-.473 0M251.066 291.207c.109.607.142 1.215.11 1.83-.015.304.457.303.473 0a8.511 8.511 0 0 0-.128-1.956c-.052-.298-.508-.171-.455.126M251.54 295.578a4.774 4.774 0 0 0-.127 1.365c.016.301.488.303.472 0-.022-.42.013-.83.11-1.24.07-.294-.385-.42-.455-.125M251.413 302.03v1.895c0 .303.472.303.472 0v-1.894c0-.304-.472-.305-.472 0M251.176 307.238v2.84c0 .303.472.304.472 0v-2.84c0-.304-.472-.305-.472 0M250.83 313.92a9.826 9.826 0 0 0-.128 2.192c.018.302.49.305.473 0a9.265 9.265 0 0 1 .11-2.067c.05-.296-.405-.424-.456-.125M250.229 321.675c.102.865.142 1.732.118 2.603-.008.304.464.303.473 0a17.957 17.957 0 0 0-.119-2.603c-.035-.299-.508-.302-.472 0"/>
            <g transform="translate(250 327.832)">
                <mask id="p" fill="#fff">
                    <use xlink:href="#o"/>
                </mask>
                <path fill="#071F2C" d="M.228.705c.304 0 .305-.472 0-.472-.304 0-.305.472 0 .472" mask="url(#p)"/>
            </g>
        </g>
    </g>
</svg>
