<svg xmlns="http://www.w3.org/2000/svg" viewBox="0 0 729.62 46.19"><defs><style>.cls-1{fill:#f2f2f2;}</style></defs><title>fist-shadows-mobile</title><g id="Layer_2" data-name="Layer 2"><g id="Layer_1-2" data-name="Layer 1"><path class="cls-1" d="M726.82,11.57l1-.19c3.15-.66,1.82-5.48-1.33-4.82-19.23,4-38.81,1.9-58.26,1.29-19.65-.61-38.58,2.79-58.06,4.53a132.59,132.59,0,0,1-28.31-.4c-9.4-1.17-18.65-2.6-28.16-2.07-9.75.54-19.39,2.25-29.14,2.85-9.93.62-19.89.53-29.83.24-21.82-.64-43.65-2.2-65.42.19a2.57,2.57,0,0,0-2.18,1.69c-1.31,1.27-1.34,3.77.91,4.12l18.53,2.92C454,24.51,461.24,28,469,29.73c6.12,1.34,12.27,1,18.49,1.25,7.06.29,13.86,2.05,20.77,3.33,12.59,2.31,25.45,2.47,38.2,3L563,38q11.62,1.34,23.25,2.63c18.08,2,36.22,4.48,54.39,5.42a134.13,134.13,0,0,0,29.12-1.89c10.24-1.7,20.48-3.54,30.71-.87a2.4,2.4,0,0,0,1.58-.09q11.35,1,22.74,1.16a2.47,2.47,0,0,0,2.13-3.7,3.58,3.58,0,0,0,2.16-3.91c-.08-.79-.15-1.58-.21-2.37l0-.33a99.55,99.55,0,0,1,.32-18.54A4.13,4.13,0,0,0,726.82,11.57Z"/><path class="cls-1" d="M335.76,20.2a3.56,3.56,0,0,0-4.35-3.43c-11,2.51-22.2,2.65-33.42,2.72q-16,.09-31.93.16-6.85,0-13.71,0c-10.19-1.18-20.24-3.75-30.3-6.1a197,197,0,0,0-23.48-4.33c-8.14-.89-16.12-.24-24.27,0C165.24,9.57,156.93,7,148,6.07c-9.08-1-18.2,0-27.28.49-5.18.25-10.36.18-15.53-.07l-.28,0c-2-.22-4.06-.33-6.08-.36C88.11,5.27,77.38,3.85,66.68,2.88A619.74,619.74,0,0,0,4.34,0c-4.17,0-4.48,6-.93,6.89a3.08,3.08,0,0,0-1.27,3.44,9.26,9.26,0,0,0-.59,3.45A90,90,0,0,0,3.12,26.42,6.39,6.39,0,0,0,3,30.51c-2.6.67-3.17,4-1.69,5.78-2.23,1.93-1.55,6.44,2.08,6.16C35.48,40,67.6,36.94,99.82,36.3c9-.18,17.9-1,26.83-1.64q16.53-.41,33.06-.88c12.49.54,24.88,1.75,37.48.91,17.55-1.17,35.07-2.68,52.61-4.07,3.45-.15,6.9-.28,10.35-.43q36.66-1.65,73.29-3.75C336.93,26.24,337.71,22,335.76,20.2Z"/></g></g></svg>