<svg xmlns="http://www.w3.org/2000/svg" viewBox="0 0 1541.85 166.87"><defs><style>.cls-1{fill:#fff;}.cls-2{fill:#efebd3;}.cls-3{fill:#d6906d;}.cls-4{fill:#e35205;}.cls-5{fill:#081f2c;}</style></defs><title>fist-bump_1</title><g id="Layer_2" data-name="Layer 2"><g id="Layer_1-2" data-name="Layer 1"><polygon class="cls-1" points="769.58 83.45 775.75 71.03 783.96 77.67 781.31 84.04 777.87 86.31 771.9 85.3 769.58 83.45"/><path class="cls-2" d="M730.82,96.22a39.63,39.63,0,0,0-.59-5.21c-.31-1.86-.64-3.72-1-5.59A8.47,8.47,0,0,0,729,84l-.08-.29q-.84-4.79-1.7-9.58c-.95-5.34-1.14-14-4.39-19.34a7.34,7.34,0,0,0-1.49-2,8.64,8.64,0,0,0-4.85-2.58A7,7,0,0,0,713,49.6l-3.41.23a8.71,8.71,0,0,0-3.5.95,8.5,8.5,0,0,0-1.61.6C687.42,60,666,60,647.37,61.25Q615.55,63.42,583.66,64a8.2,8.2,0,0,0-1.82.24L303.93,51.28l-86.71-4a7.42,7.42,0,0,0-3.11.48c-9.91-.76-19.87-.94-29.83-.95h-8.42c-52.13-3.68-104.5-4.08-156.5-9.57C16,36.6,12.7,36,9.38,35.28,1.81,33.72-2.27,42.74,1.32,47.37A6.39,6.39,0,0,0,3.53,53c.34.3.68.58,1,.87.22,1.3.51,3.22.51,3.23l1.26,5.85L8.63,73.67c.71,3.29,1.51,6.38,1.32,9.77S9.08,90,9.46,93.33a17,17,0,0,0,4.75,10.22A7.25,7.25,0,0,0,21,108.63q61.65,3,123.41,2.26,30.61-.4,61.2-1.75c8.4-.37,16.82-.7,25.22-1.24a8.25,8.25,0,0,0,1.39,0q34.21-2.15,68.45-3.89c26.92.8,53.84,1.25,80.78.92,45.45-.55,90.61-4.65,135.9-7.82l7.26-.1q19.88-.23,39.77-.31c18.49,1.39,36.84,2.27,55.39,1.92,3-.06,6,0,9,.14q1.23.31,2.46.66c13.22,3.7,25.26,10.56,38.5,14.18,14.7,4,29.87,6.63,44.77,9.81,7.18,1.53,11.22-6.52,8.54-11.32a10.11,10.11,0,0,0,.8-1.27l.09-.08,1.33-1a13.87,13.87,0,0,0,2.71-3.08c.06-.1.11-.21.16-.31C731,103.93,731.74,100,730.82,96.22Z"/><path class="cls-3" d="M1541.82,114l-4.91-41.78c1.67-4.11-1.56-9.52-6.05-10.25a7.49,7.49,0,0,0-3.28-.06q-56.79.6-113.52,3.48c-54-1-108.05,3.07-162.07,5.23q-49.7,1-99.33,4.21-102.77,3-205.49,7.29-30.4,1.29-60.8,2.71c-11.57-1.46-23.16-2.72-34.7-4.4A74.74,74.74,0,0,1,837,71.67c-4-3.17-7.12-7.26-11.19-10.36-3.73-2.84-6.09-7.24-10.39-9.24-4.86-2.26-9.2-.44-14.2-.33-5.53.13-10.62-1.66-16.12-.4-.24-.05-.46-.12-.71-.15-1.58-.2-3.17-.36-4.76-.5a16,16,0,0,0-3.82-.46c-3.38.12-8.06,2-10,4.94-1.46,2.21-3.74,3.88-4.15,6.68-.53,3.58,2,6.82,4.4,9.18a5.33,5.33,0,0,0,.45.36,7.15,7.15,0,0,0-2.34,1.24,9,9,0,0,0-6.52,7.7,8.36,8.36,0,0,0,.53,4,10.38,10.38,0,0,0,.9,2.76,12.53,12.53,0,0,0,1.44,2.31c.08.1.18.21.28.32a2.7,2.7,0,0,0-.27.43c-1.57,3.15-3.27,5.87-1.3,9.34,1.65,2.91,4.64,4.08,7.15,5.95a5.86,5.86,0,0,0-1.55,4.22,4.71,4.71,0,0,0,.79,4.59l1,1.3a6.94,6.94,0,0,0,1.76,1.64c4.4,3.68,10,5.13,15.63,6.47a85.41,85.41,0,0,0,11,1.86c5.5,2,11.8,2.22,17.61,2.53a33.38,33.38,0,0,0,13-1.44c4-1.4,7.54-3.61,11.54-4.9,8.65-2.79,17.71-3.35,26.69-4.13,2.24-.2,4.48-.43,6.71-.67,62.76,4,125.57-1.92,188.34-3q9.4-.16,18.8-.15c25,1.41,50,2.13,75,2.87,37,1.11,73.81,1.44,110.72-1.18,7.66-.54,15.32-1.09,23-1.49,17.48.8,34.94,2.06,52.42,4,20.15,2.26,40.29,4.64,60.56,5.43s40.4.35,60.6-.16l64.86-1.69c1.91.22,3.83.46,5.74.72a8.92,8.92,0,0,0,6.86-1.58C1540.06,119.46,1542.15,116.8,1541.82,114Zm-760-32.7a21,21,0,0,1-4.14,4.33,22.62,22.62,0,0,1-8.14-2.14,32.54,32.54,0,0,0,3.26-7.14A7.61,7.61,0,0,0,774.08,74a32.76,32.76,0,0,1,5.26,1.89,16.77,16.77,0,0,1,3,2.16A6.61,6.61,0,0,0,781.86,81.26Z"/><path class="cls-4" d="M872.53,98.68a3.53,3.53,0,0,0-.71-1.91,42.73,42.73,0,0,0-.57-7.25,3.06,3.06,0,0,0-.93-1.83c-.09-.65-.17-1.3-.27-1.95a2.72,2.72,0,0,0-.62-1.38c-.18-1.46-.57-2.47-2.46-2.83-3.05-.57-6.12-1-9.18-1.57-1-.17-2.3.67-1.85,1.85.12.3.22.59.32.89l.61,2.69a1.32,1.32,0,0,0,.73,1s0,.09,0,.14q.93,4.49,2.11,8.9a34.27,34.27,0,0,1-2,15.16l-.23.37a3.35,3.35,0,0,0-.53,1.44c-.22.48-.44,1-.68,1.44a1.51,1.51,0,0,0,2.36,1.82l.11-.09a4.14,4.14,0,0,0,2.7.54c2.62-.41,5.7.6,7.44-1.94,1.06-1.54,1.42-3.47,2.09-5.25.28-.56.54-1.12.8-1.7l0,0h0c.12-.28.24-.55.36-.83a2.77,2.77,0,0,0-.1-2.52A13.06,13.06,0,0,0,872.53,98.68Z"/><path class="cls-5" d="M769.94,84.06a49.57,49.57,0,0,0,5.17-13.51,60.8,60.8,0,0,0,.93-6.17,8.8,8.8,0,0,1,1-3.84c1-1.48,2.71-2.09,4.29-2.66,5-1.8,10-3.38,15.1-4.77,4.9-1.34,11.07-3.74,16.13-2.19s8.72,6.66,12,10.38a113.58,113.58,0,0,0,10,10.48,35.48,35.48,0,0,0,10.21,6.49c4.5,1.77,9.41,2.12,14.17,2.67l18.6,2.17c2.93.34,5.87.77,8.81,1,2,.18,4.11,0,6.15.22.64.06.64-.94,0-1-1.78-.16-3.57-.06-5.36-.16-2.88-.17-5.76-.64-8.63-1L861.87,80.3c-5.61-.65-11.54-.88-16.84-3a38.15,38.15,0,0,1-12.48-8.77c-3.83-3.81-7.2-8-10.92-12-2.92-3.07-6.13-6.38-10.53-7-4.77-.67-10,1.2-14.49,2.43q-7.64,2.07-15.11,4.73c-1.74.62-3.7,1.22-4.91,2.71s-1.4,3.68-1.61,5.62a48.71,48.71,0,0,1-5.89,18.47c-.31.56.55,1.07.86.5Z"/><path class="cls-5" d="M770.52,54.24l9.64,3.7c.6.23.86-.74.27-1l-9.64-3.7c-.6-.23-.86.74-.27,1Z"/><path class="cls-5" d="M779.07,56.44a6.27,6.27,0,0,0-1.64-4.61c-.43-.48-1.14.23-.71.71a5.25,5.25,0,0,1,1.34,3.9c0,.64,1,.64,1,0Z"/><path class="cls-5" d="M780.68,57.31a6.16,6.16,0,0,0,.76-3.22c0-.64-1-.64-1,0a5.13,5.13,0,0,1-.62,2.71c-.31.57.56,1.07.86.5Z"/><path class="cls-5" d="M774.09,70.72c-2.18-.21-5.06,0-7.12-.67S763,64.88,762.53,63c-.75-2.83,1.29-5.11,2.9-7.22a17.43,17.43,0,0,1,5.27-5c2.49-1.35,5.21-1.14,7.93-1l7.82.5,16.62,1.06c.64,0,.64-1,0-1L781.57,49c-2.89-.18-6-.73-8.88,0a12.38,12.38,0,0,0-5.78,3.52c-3.1,3.12-6.85,7.27-4.93,11.81a30.69,30.69,0,0,0,1.69,3.36c.45.79,1.31,2.74,2.16,3.22s2.1.24,2.92.32l5.34.51c.64.06.64-.94,0-1Z"/><path class="cls-5" d="M787.59,83.88c5.24-5.64,4.08-14.63,10.17-19.65.5-.41-.21-1.11-.71-.71-6.15,5.07-4.93,14-10.17,19.65-.44.47.27,1.18.71.71Z"/><path class="cls-5" d="M769.36,85.51a14.58,14.58,0,0,0,13.27,1.65c.6-.22.34-1.18-.27-1a13.61,13.61,0,0,1-12.5-1.55c-.54-.36-1,.51-.5.86Z"/><path class="cls-5" d="M791.77,75.83c2.07-1.62,4.64-2,7-2.92a21.26,21.26,0,0,0,5.3-2.94c.51-.38,0-1.25-.5-.86a22.91,22.91,0,0,1-7.24,3.55,15.46,15.46,0,0,0-5.3,2.46c-.51.4.21,1.1.71.71Z"/><path class="cls-5" d="M794.43,74.15c1.94,1.09,1.08,4.48,1,6.24-.11,2.15-.16,4.18-2.18,5.48-2.37,1.53-5.93,2.24-8.66,2.95-4.72,1.23-9.53,1.08-14.37,1a.5.5,0,0,0,0,1,78.44,78.44,0,0,0,10.56-.27,49.91,49.91,0,0,0,9.51-2.48c3.11-1,5.64-2.09,6-5.68.28-2.55,1.45-7.57-1.36-9.15a.5.5,0,0,0-.5.86Z"/><path class="cls-5" d="M759.25,80c.28-4.38,3.29-7.52,7.34-8.88.61-.2.35-1.17-.27-1-4.49,1.51-7.76,5-8.07,9.85,0,.64,1,.64,1,0Z"/><path class="cls-5" d="M761.71,88.53l-2-2.45c-.41-.5-1.12.22-.71.71l2,2.45c.41.5,1.12-.22.71-.71Z"/><path class="cls-5" d="M815.36,68.43q-4,1.42-8.19,2.45a.5.5,0,0,0,.27,1q4.16-1,8.19-2.45c.6-.21.34-1.18-.27-1Z"/><path class="cls-5" d="M790.44,99.95c2.89-.82,5.76-1.89,6.93-4.9a9.14,9.14,0,0,0,.46-4.5c-.27-2-2.18-4.52-1.79-6.52.12-.63-.84-.9-1-.27-.53,2.72,1.69,4.92,1.83,7.65.24,4.54-2.84,6.47-6.74,7.58a.5.5,0,0,0,.27,1Z"/><path class="cls-5" d="M761,101.61c7.31,7.73,18.79-.28,27.25-1.22.63-.07.64-1.07,0-1-4.43.49-8.56,2.14-12.82,3.36-4.82,1.38-9.94,2.15-13.72-1.85-.44-.47-1.15.24-.71.71Z"/><path class="cls-5" d="M760.78,88.67c0,1.49-.86,2.59-1.46,3.88a5.5,5.5,0,0,0-.47,3.39c.1.63,1.07.36,1-.27-.44-2.64,2-4.41,2-7a.5.5,0,0,0-1,0Z"/><path class="cls-5" d="M767.86,92.73a16.56,16.56,0,0,1,.39,8.11c-.13.63.84.9,1,.27a17.67,17.67,0,0,0-.39-8.64.5.5,0,0,0-1,.27Z"/><path class="cls-5" d="M789.46,91.7a18,18,0,0,1,.34,4,.5.5,0,0,0,1,0,19.24,19.24,0,0,0-.38-4.22c-.13-.63-1.09-.36-1,.27Z"/><path class="cls-5" d="M792.12,92.44a12.84,12.84,0,0,1,.25,3.22c0,.64,1,.64,1,0a13.93,13.93,0,0,0-.28-3.48c-.13-.63-1.09-.36-1,.27Z"/><path class="cls-5" d="M764.27,75.4a12.39,12.39,0,0,0-1.35,9c.14.63,1.1.36,1-.27a11.31,11.31,0,0,1,1.25-8.23.5.5,0,0,0-.86-.5Z"/><path class="cls-5" d="M761.63,75.67a7.29,7.29,0,0,0-1.09,4.2c0,.64,1,.64,1,0a6.33,6.33,0,0,1,1-3.69c.34-.55-.53-1.05-.86-.5Z"/><path class="cls-5" d="M765.94,104.64c-.23.6-1.23.67-1.55,1.25a3.56,3.56,0,0,0-.23.86,13.47,13.47,0,0,0,.1,5.25,6.16,6.16,0,0,0,2,3.62,17.26,17.26,0,0,0,1.79,1.05c.82.56,1.27,1.36,2,2,.5.39,1.21-.31.71-.71-.84-.66-1.31-1.54-2.23-2.11-1.85-1.16-3-2-3.35-4.39-.25-1.57-.44-4,.65-5.32.65-.78.69-.21,1.06-1.19.23-.6-.74-.86-1-.27Z"/><path class="cls-5" d="M776,116.58c4.11-.9,8.42-1.53,12.45-2.74,2.7-.81,4.74-3.29,6.58-5.32s1.53-3.65.38-5.83c-1.23-2.33-3-2.86-5.55-3.05-.64,0-.64,1,0,1,1.77.14,3.39.41,4.41,2a5,5,0,0,1,.34,4.86,12.59,12.59,0,0,1-2.35,2.37A18,18,0,0,1,790,112c-1.89,1.33-4.7,1.51-6.93,2l-7.33,1.61c-.63.14-.36,1.1.27,1Z"/><path class="cls-5" d="M781,118.86a7.28,7.28,0,0,1,4-4.31c.59-.26.08-1.12-.5-.86a8.24,8.24,0,0,0-4.49,4.9c-.21.61.75.87,1,.27Z"/><path class="cls-5" d="M770.23,109.93a12.46,12.46,0,0,0,3,6.78c.42.49,1.12-.22.71-.71a11.26,11.26,0,0,1-2.66-6.08c-.07-.63-1.07-.64-1,0Z"/><path class="cls-5" d="M768.51,113.11a3,3,0,0,0,1.91,2.14c.6.23.86-.74.27-1a2,2,0,0,1-1.22-1.44c-.15-.63-1.11-.36-1,.27Z"/><path class="cls-5" d="M793.87,108.72a41.75,41.75,0,0,0,.53,7.74c.1.63,1.07.36,1-.27a40.32,40.32,0,0,1-.49-7.48.5.5,0,0,0-1,0Z"/><path class="cls-5" d="M795.86,96.38c2.65,6.3,1.31,14.5,7.32,19,.51.39,1-.48.5-.86-5.66-4.28-4.36-12.52-6.86-18.45-.25-.58-1.21-.33-1,.27Z"/><path class="cls-5" d="M796.45,95.57a80.09,80.09,0,0,1,6.16,13.77c.21.61,1.17.35,1-.27a81.47,81.47,0,0,0-6.26-14,.5.5,0,0,0-.86.5Z"/><path class="cls-5" d="M807.19,101.52a28.7,28.7,0,0,0,11.35,3.11c.64,0,.64-1,0-1a27.35,27.35,0,0,1-10.85-3c-.57-.29-1.08.57-.5.86Z"/><path class="cls-5" d="M797,92.22a27.67,27.67,0,0,0,4.9,5.66c.48.42,1.19-.28.71-.71a26.7,26.7,0,0,1-4.74-5.46c-.35-.54-1.22,0-.86.5Z"/><path class="cls-5" d="M761.11,89.31c2.83,1.22,6.05,1.39,9.09,1.54.64,0,.64-1,0-1-2.86-.14-5.93-.26-8.59-1.4-.58-.25-1.09.61-.5.86Z"/><path class="cls-5" d="M823.53,50.17a28.15,28.15,0,0,0-7.58-5.26c-.58-.27-1.09.59-.5.86a27.34,27.34,0,0,1,7.38,5.1c.46.45,1.17-.26.71-.71Z"/><path class="cls-5" d="M823.53,40.82a13.4,13.4,0,0,0-3.91-1.63c-.63-.15-.89.81-.27,1A12.5,12.5,0,0,1,823,41.68c.55.34,1.05-.53.5-.86Z"/><path class="cls-5" d="M749.84,26.31q1.93-10.69,4.56-21.23a.5.5,0,0,0-1-.27Q750.81,15.36,748.88,26c-.11.63.85.9,1,.27Z"/><path class="cls-5" d="M738.83,20A93.8,93.8,0,0,0,729.57.24c-.34-.55-1.2,0-.86.5a92.65,92.65,0,0,1,9.16,19.5c.2.61,1.17.35,1-.27Z"/><path class="cls-5" d="M724.42,24.45l-9.27-9.07c-.46-.45-1.17.26-.71.71l9.27,9.07c.46.45,1.17-.26.71-.71Z"/><path class="cls-5" d="M756.93,140.61a233.87,233.87,0,0,1,5.22,25.9c.09.63,1.05.36,1-.27a233.87,233.87,0,0,0-5.22-25.9.5.5,0,0,0-1,.27Z"/><path class="cls-5" d="M744.22,148l-1.15,12.34c-.06.64.94.64,1,0L745.22,148c.06-.64-.94-.64-1,0Z"/><path class="cls-5" d="M732.07,147.78a153.25,153.25,0,0,0-6,15.3c-.2.61.76.87,1,.27a150.82,150.82,0,0,1,5.94-15.07c.27-.58-.6-1.09-.86-.5Z"/><path class="cls-5" d="M791.88,110.59a17.58,17.58,0,0,0-1.75,6.79c0,.64,1,.64,1,0a16.26,16.26,0,0,1,1.61-6.29c.28-.58-.58-1.08-.86-.5Z"/><path class="cls-5" d="M789.58,123.48c12.57,2.82,26.24,5.66,38.34-.35.58-.29.07-1.15-.5-.86-11.84,5.89-25.3,3-37.57.25-.63-.14-.89.82-.27,1Z"/><path class="cls-5" d="M772.24,119.75c4.1,1.5,8,3.49,12.52,2.85.63-.09.36-1.05-.27-1-4.25.6-8.11-1.43-12-2.85-.61-.22-.87.74-.27,1Z"/><path class="cls-5" d="M788.53,104.38l.21,4.9c0,.64,1,.64,1,0l-.21-4.9c0-.64-1-.64-1,0Z"/><path class="cls-5" d="M786.79,104.38a14.18,14.18,0,0,0,.43,4.82.5.5,0,0,0,1-.27,13.36,13.36,0,0,1-.39-4.56c.05-.64-.95-.64-1,0Z"/><path class="cls-5" d="M779.87,60.7c1.28.7,2.58,1.37,3.91,2s2.93,1,3.6,2.27c.3.57,1.16.07.86-.5-.63-1.2-1.78-1.65-3-2.18q-2.5-1.12-4.91-2.44c-.57-.31-1.07.55-.5.86Z"/><path class="cls-5" d="M778.21,62a4.6,4.6,0,0,1,1.68,1.18c.44.47,1.14-.23.71-.71A5.72,5.72,0,0,0,778.47,61c-.6-.24-.86.73-.27,1Z"/><path class="cls-5" d="M777.79,64.54A11.63,11.63,0,0,1,780,65.62c.55.34,1-.52.5-.86a12.88,12.88,0,0,0-2.43-1.19c-.61-.22-.87.74-.27,1Z"/><path class="cls-5" d="M844.11,106.41q-.27,2.66-.64,5.3c-.09.63.87.9,1,.27q.39-2.78.68-5.56c.07-.64-.93-.63-1,0Z"/><path class="cls-5" d="M844.81,91.38q0,4.79-.26,9.57c0,.64,1,.64,1,0q.28-4.78.26-9.57a.5.5,0,0,0-1,0Z"/><path class="cls-5" d="M848.79,100.77a39.54,39.54,0,0,1-1.85,9.6c-.2.61.77.88,1,.27a40.63,40.63,0,0,0,1.89-9.87c0-.64-1-.64-1,0Z"/><path class="cls-5" d="M981.08,116.67c73-1.11,146-3.78,219.07-2.63,18.36.29,36.7,1,55.06.62,18-.4,35.89-.88,53.85.21,35.91,2.19,71.65,7,107.65,7.82,41,1,82-2.48,122.92.49.64,0,.64-1,0-1-36.51-2.64-73.09-.21-109.63-.32-36.07-.11-71.84-4.34-107.76-7.08a547.94,547.94,0,0,0-55-1.42c-18,.43-35.9.33-53.89-.08-36.15-.8-72.32-.6-108.47,0-41.27.65-82.54,1.78-123.82,2.4a.5.5,0,0,0,0,1Z"/><path class="cls-5" d="M827.93,123.13c7.51-4.63,16.25-5.91,24.93-6.31,9.08-.41,18.22-.45,27.3-.08,19.87.8,39.66,1.17,59.55.88q16.78-.25,33.56-.73a.5.5,0,0,0,0-1c-20.36.56-40.73,1-61.1.87-19.52-.16-39-1.75-58.5-1-9.11.36-18.35,1.61-26.25,6.48-.55.34,0,1.2.5.86Z"/><path class="cls-5" d="M825.67,119.53c-2.07-2.31-5.19-3.58-7.54-5.6a34.59,34.59,0,0,1-6.64-7.73c-.34-.54-1.21,0-.86.5a35.62,35.62,0,0,0,6.18,7.39c2.5,2.25,6,3.68,8.16,6.15.43.48,1.14-.23.71-.71Z"/><path class="cls-5" d="M812.43,124.24a7.71,7.71,0,0,0,.93-3.66.5.5,0,0,0-1,0,6.6,6.6,0,0,1-.79,3.16c-.3.57.56,1.07.86.5Z"/><path class="cls-5" d="M730.53,92.16c2,6.28.4,14.07-6.81,15.78-.63.15-.36,1.11.27,1,7.71-1.82,9.68-10.2,7.51-17-.19-.61-1.16-.35-1,.27Z"/><path class="cls-5" d="M711.9,49.21c3.35,0,7.76.42,10.13,3.11,2.2,2.5,1.85,6.35,2.48,9.42,1.68,8.2,4,16.19,5.2,24.5.09.63,1.05.36,1-.27-1.37-9.6-4.37-18.86-5.75-28.42-.42-2.89-1.16-5.58-3.74-7.23s-6.15-2.11-9.28-2.12a.5.5,0,0,0,0,1Z"/><path class="cls-5" d="M709.73,54a14.33,14.33,0,0,0-8.23,1.25c-.57.3-.07,1.16.5.86A13.44,13.44,0,0,1,709.73,55c.64.06.64-.94,0-1Z"/><path class="cls-5" d="M720.74,111.15c4.49.19,5.31-7.52,5.78-10.6a42.11,42.11,0,0,0,.24-11.31c-.41-3.52-1.2-7-1.46-10.52-.55-7.53.53-23.21-10.08-24.16-.64-.06-.64.94,0,1,9.72.87,8.59,16.31,9.08,23.16s2.41,13.28,1.46,20.14c-.39,2.8-1,11.47-5,11.29-.64,0-.64,1,0,1Z"/><path class="cls-5" d="M718.52,79.73a94.45,94.45,0,0,1-.25,15.51c-.07.64.93.63,1,0a94.46,94.46,0,0,0,.25-15.51c0-.64-1-.64-1,0Z"/><path class="cls-5" d="M641.47,99.2c13.47,1.09,27.41,3.92,40.43-1.17.59-.23.33-1.2-.27-1-12.94,5.05-26.78,2.22-40.16,1.13-.64-.05-.64.95,0,1Z"/><path class="cls-5" d="M693.91,91.46c2.66-1.09,5.73-1,8.5-1.82A20.24,20.24,0,0,0,709,86.11c.5-.39,0-1.26-.5-.86a19.41,19.41,0,0,1-7,3.6c-2.57.68-5.4.64-7.86,1.65-.59.24-.33,1.21.27,1Z"/><path class="cls-5" d="M700.13,89.81c.27.61,0,1.3.33,1.91.41.86,1.49,1.49,2.2,2.07q2.56,2.11,5.25,4c.52.38,1-.49.5-.86q-2.46-1.79-4.83-3.71a7,7,0,0,1-2-2c-.33-.64-.27-1.29-.57-1.95s-1.12-.08-.86.5Z"/><path class="cls-5" d="M700.85,90.19a8.59,8.59,0,0,0,4.71,1.87c.64.05.64-.95,0-1a7.39,7.39,0,0,1-4-1.57c-.5-.4-1.21.31-.71.71Z"/><path class="cls-5" d="M700.54,91.79a16.46,16.46,0,0,0-4.82,7.37c-.19.62.78.88,1,.27a15.48,15.48,0,0,1,4.56-6.93c.48-.43-.23-1.14-.71-.71Z"/><path class="cls-5" d="M700.56,92.14a12.64,12.64,0,0,0-7.21-1.33c-.63.08-.64,1.08,0,1a11.72,11.72,0,0,1,6.71,1.2c.57.3,1.08-.56.5-.86Z"/><path class="cls-5" d="M690.27,93.36c-1.89,1.59-3.72,5.57-1.76,7.79a3.19,3.19,0,0,0,1.73.9,16.56,16.56,0,0,1,4.09,1.38c1.81,1,3.17,2.55,5.31,2.88,2.47.38,5.23-.23,7.7-.45,2.17-.19,5.48.13,7.47-.88,3-1.5,4.14-6.8,4.45-9.74.07-.64-.93-.63-1,0a16.57,16.57,0,0,1-1.38,5.24c-.94,2-1.83,3.52-4.21,3.92-3.31.56-6.84.64-10.19.89a8,8,0,0,1-5.43-1.16,24.85,24.85,0,0,0-3.34-2.13,11.72,11.72,0,0,0-1.69-.6c-1.35-.37-1.4-.13-2.39-1.5a2.84,2.84,0,0,1-.53-3.22A5.58,5.58,0,0,1,691,94.07c.49-.41-.22-1.12-.71-.71Z"/><path class="cls-5" d="M695.78,104.41a14.47,14.47,0,0,1,2.19,4.25,4.22,4.22,0,0,0,1.12,2c1.34,1,4.18.77,5.72.91A66.67,66.67,0,0,0,721,111.4c.63-.1.36-1.06-.27-1a63.26,63.26,0,0,1-14.33.26q-1.6-.12-3.19-.29c-1.84-.2-3.21-.21-4.3-2-1-1.56-1.22-3.24-2.44-4.7-.41-.49-1.12.22-.71.71Z"/><path class="cls-5" d="M681.83,113.3c11.35,1,21.21,7.82,32.53,9.23,3.74.47,7.72.37,9.84-3.26,2-3.46.25-7.08-3.07-8.79-.57-.29-1.08.57-.5.86,2.31,1.19,4,3.38,3.28,6.12a5.86,5.86,0,0,1-4.94,4.18c-3.62.49-7.45-.52-10.94-1.42-8.87-2.29-16.95-7.15-26.2-7.93-.64-.05-.64.95,0,1Z"/><path class="cls-5" d="M644.47,99.67c11.2,3.67,20.18,13.37,32.48,13.54a.5.5,0,0,0,0-1c-12.14-.17-21.14-9.88-32.21-13.51-.61-.2-.88.76-.27,1Z"/><path class="cls-5" d="M657,94.91a33.16,33.16,0,0,0,2.55-12.6.5.5,0,0,0-1,0,32.5,32.5,0,0,1-2.52,12.33c-.25.59.72.85,1,.27Z"/><path class="cls-5" d="M602.79,98q16.9.16,33.75,1.46c.64,0,.64-1,0-1Q619.69,97.18,602.79,97a.5.5,0,0,0,0,1Z"/><path class="cls-5" d="M608.28,63.51c8.77-.14,17.52-.75,26.27-1.25s17.33-.3,25.89-1.35c8.34-1,16.52-3,24.82-4.32,3.84-.61,7.8-.87,11.43-2.36,4-1.66,7.57-4.5,12-5,.63-.07.64-1.07,0-1-3.59.39-6.53,2.12-9.67,3.76-3.94,2-7.86,2.7-12.19,3.34-8.84,1.3-17.54,3.48-26.42,4.57-8.56,1.05-17.28.86-25.89,1.35s-17.5,1.11-26.27,1.25a.5.5,0,0,0,0,1Z"/><path class="cls-5" d="M702.21,32.28a13.58,13.58,0,0,0-7,4.91c-.39.51.48,1,.86.5a12.47,12.47,0,0,1,6.43-4.45.5.5,0,0,0-.27-1Z"/><path class="cls-5" d="M693.64,31.84l-2.51,1.57c-.54.34,0,1.21.5.86l2.51-1.57c.54-.34,0-1.21-.5-.86Z"/><path class="cls-5" d="M676.63,129.6a33.44,33.44,0,0,0,8,6.2c.56.31,1.07-.55.5-.86a32.56,32.56,0,0,1-7.83-6c-.45-.47-1.15.24-.71.71Z"/><path class="cls-5" d="M685.8,132.17a8.74,8.74,0,0,0,4.11,1.4c.64.05.64-.95,0-1a7.68,7.68,0,0,1-3.61-1.26c-.54-.35-1,.51-.5.86Z"/><path class="cls-5" d="M822.29,147.39q-7,5.09-14.49,9.55a.5.5,0,0,0,.5.86q7.46-4.45,14.49-9.55c.52-.37,0-1.24-.5-.86Z"/><path class="cls-5" d="M819,141.05a27.59,27.59,0,0,1-11.77,7.8c-.61.21-.35,1.17.27,1a28.59,28.59,0,0,0,12.21-8.06c.43-.48-.28-1.19-.71-.71Z"/><path class="cls-5" d="M722.77,106.46a4.6,4.6,0,0,1-3-1.61c-.42-.49-1.13.22-.71.71a5.62,5.62,0,0,0,3.73,1.91c.64.07.63-.93,0-1Z"/><path class="cls-5" d="M721,108.78l-2.93-2.29c-.5-.39-1.21.31-.71.71l2.93,2.29c.5.39,1.21-.31.71-.71Z"/><path class="cls-5" d="M730.79,99.61l-3.14.62c-.63.13-.36,1.09.27,1l3.14-.62c.63-.13.36-1.09-.27-1Z"/><path class="cls-5" d="M701.58,112a10.71,10.71,0,0,0-1.79,2.64c-.27.58.59,1.09.86.5a9.83,9.83,0,0,1,1.63-2.44c.43-.47-.27-1.18-.71-.71Z"/><path class="cls-5" d="M698.68,111.49a5.36,5.36,0,0,0-1.5,2.08c-.25.59.72.85,1,.27a4.34,4.34,0,0,1,1.25-1.64c.49-.41-.22-1.12-.71-.71Z"/><path class="cls-5" d="M687.69,95.18a34.89,34.89,0,0,0-5.82,6.9c-.35.54.52,1,.86.5a33.88,33.88,0,0,1,5.66-6.7c.48-.44-.23-1.14-.71-.71Z"/><path class="cls-5" d="M914.32,83.68c80.32-2.39,160.59-6,240.86-9.65,40.09-1.83,80.18-3.84,120.28-5.26s80-2.22,120-3.13c44.94-1,89.87-2.18,134.77-4.45.64,0,.64-1,0-1-80,4-160.08,4.54-240.12,7.09-80.24,2.56-160.43,7-240.64,10.43q-67.58,2.85-135.19,5c-.64,0-.64,1,0,1Z"/><path class="cls-5" d="M892.49,84.38l15.07-.48c.64,0,.64-1,0-1l-15.07.48c-.64,0-.64,1,0,1Z"/><path class="cls-5" d="M599.67,62.61c-77.2-.29-154.32-4.06-231.38-8.3Q253.19,48,138.05,42.82C116.56,41.9,95.07,41,73.59,40S30.82,37.63,9.71,34c-.63-.11-.9.85-.27,1,18.55,3.22,37.32,4.66,56.1,5.63,19.07,1,38.14,1.77,57.22,2.59,38.41,1.67,76.81,3.27,115.21,5.12C315.09,52,392.12,57.09,469.26,60.36c43.45,1.84,86.93,3.1,130.42,3.26a.5.5,0,0,0,0-1Z"/><path class="cls-5" d="M602.79,97c-17.67-.23-35.33-.08-53-.2-19.1-.13-38.22-.7-57.31.32s-38.06,2.86-57.2,3.16-38.49.79-57.73,1.36-38.44.94-57.68,1-38.39.12-57.53,1.53C223.59,107,184.9,109.39,146,110.11Q80.8,111.3,15.58,107.7c-.64,0-.64,1,0,1a1777.83,1777.83,0,0,0,232.88-2.43c19.19-1.46,38.29-2.42,57.53-2.56s38.45-.1,57.68-.65,38.51-1.19,57.78-1.55,38.18-1,57.29-2.44c21.46-1.66,42.86-1.55,64.36-1.31,19.89.22,39.79,0,59.68.26a.5.5,0,0,0,0-1Z"/><path class="cls-5" d="M774.54,73.78a11.66,11.66,0,0,1,7.68,4.56c.38.51,1.25,0,.86-.5a12.62,12.62,0,0,0-8.28-5c-.63-.1-.9.87-.27,1Z"/><path class="cls-5" d="M781.51,79.33l-1.25,2c-.34.55.52,1,.86.5l1.25-2c.34-.55-.52-1-.86-.5Z"/><path class="cls-5" d="M770.36,82.66A5.21,5.21,0,0,0,774.67,85a.5.5,0,0,0,0-1,4.17,4.17,0,0,1-3.44-1.85c-.36-.53-1.22,0-.86.5Z"/><path class="cls-5" d="M717.3,66.19A6.5,6.5,0,0,0,713.61,61c-.58-.27-1.09.59-.5.86a5.5,5.5,0,0,1,3.2,4.37c.07.63,1.07.64,1,0Z"/><path class="cls-5" d="M711.07,60.18a39.61,39.61,0,0,0-8.17.48c-.63.1-.36,1.07.27,1a38.33,38.33,0,0,1,7.9-.44c.64,0,.64-1,0-1Z"/><path class="cls-5" d="M696.48,60.89l-4.13,1.38c-.61.2-.35,1.17.27,1l4.13-1.38c.61-.2.35-1.17-.27-1Z"/><path class="cls-5" d="M661.15,95.68A21.44,21.44,0,0,0,664.69,91a.5.5,0,0,0-.86-.5A20.47,20.47,0,0,1,660.44,95a.5.5,0,0,0,.71.71Z"/><path class="cls-5" d="M667,87.2l.23-.92a.5.5,0,0,0-1-.27l-.23.92a.5.5,0,0,0,1,.27Z"/><path class="cls-5" d="M669.21,95.94a21.11,21.11,0,0,0,4.64-6.32c.28-.58-.58-1.09-.86-.5a20.37,20.37,0,0,1-4.49,6.12c-.47.44.24,1.15.71.71Z"/><path class="cls-5" d="M674.83,86.06,676,82.39c.19-.62-.77-.88-1-.27l-1.15,3.67c-.19.62.77.88,1,.27Z"/><path class="cls-5" d="M676.09,94.32a4.24,4.24,0,0,0,1.25-2.3c.12-.63-.85-.9-1-.27a3.34,3.34,0,0,1-1,1.86c-.46.45.24,1.15.71.71Z"/><path class="cls-5" d="M713.46,82.91a6.9,6.9,0,0,0-2.51,1.52c-.47.44.24,1.15.71.71a5.7,5.7,0,0,1,2.07-1.26c.6-.21.34-1.18-.27-1Z"/><path class="cls-5" d="M800.54,80a22.51,22.51,0,0,0,4.27,1.85c.62.19.88-.77.27-1a21.22,21.22,0,0,1-4-1.75.5.5,0,0,0-.5.86Z"/><path class="cls-5" d="M891.34,98.74h4.1a.5.5,0,0,0,0-1h-4.1a.5.5,0,0,0,0,1Z"/><path class="cls-5" d="M915.93,96a.5.5,0,0,0,0-1,.5.5,0,0,0,0,1Z"/><path class="cls-5" d="M558.83,75.22l-9.56-1.37c-.63-.09-.9.87-.27,1l9.56,1.37c.63.09.9-.87.27-1Z"/><path class="cls-5" d="M66.61,98.52l48,2c.64,0,.64-1,0-1l-48-2c-.64,0-.64,1,0,1Z"/><path class="cls-5" d="M144.62,95.46a.5.5,0,0,0,0-1,.5.5,0,0,0,0,1Z"/><path class="cls-5" d="M330.75,67.48l-5-1c-.63-.13-.9.84-.27,1l5,1c.63.13.9-.84.27-1Z"/><path class="cls-5" d="M363.87,70.53l-6-3c-.57-.29-1.08.58-.5.86l6,3c.57.29,1.08-.58.5-.86Z"/><path class="cls-5" d="M1027.61,107.95q24-.19,48,.65c.64,0,.64-1,0-1q-24-.84-48-.65a.5.5,0,0,0,0,1Z"/><path class="cls-5" d="M1064.62,103.46l15-1c.64,0,.64-1,0-1l-15,1c-.64,0-.64,1,0,1Z"/><path class="cls-5" d="M1432.62,75.46a341.17,341.17,0,0,1-39,2,.5.5,0,0,0,0,1,341.17,341.17,0,0,0,39-2c.63-.07.64-1.07,0-1Z"/><path class="cls-5" d="M1389.62,87.46h-11a.5.5,0,0,0,0,1h11a.5.5,0,0,0,0-1Z"/><path class="cls-5" d="M868.5,115.73a34.35,34.35,0,0,0,4.31-15.35c.21-6.08-1.5-11.91-3.29-17.66-.19-.61-1.16-.35-1,.27,1.68,5.38,3.32,10.84,3.28,16.54a33.17,33.17,0,0,1-4.19,15.71c-.31.56.55,1.07.86.5Z"/><path class="cls-5" d="M856.59,115.15a48.12,48.12,0,0,0,3.57-17.6c-.09-6.06-2.64-11.39-3.81-17.24-.13-.63-1.09-.36-1,.27,1.16,5.77,3.69,11,3.78,17a47.26,47.26,0,0,1-3.53,17.33c-.23.6.74.86,1,.27Z"/></g></g></svg>