<svg xmlns="http://www.w3.org/2000/svg" xmlns:xlink="http://www.w3.org/1999/xlink" width="1179" height="342" viewBox="0 0 1179 342">
    <defs>
        <path id="a" d="M0 4.83V.2h63.044v4.63H0z"/>
    </defs>
    <g fill="none" fill-rule="evenodd">
        <path fill="#0D4391" d="M689.063 136.613c.294-2.051-.576-4.087-3.159-4.531-2.365-.407-5.238.473-7.665.346-3.167-.167-6.083-.902-9.142-1.66-3.93-.971-7.61-1.577-11.493-.058-5.517 2.157-10.69 5.064-16.289 7.089-1.82.658-3.66 1.255-5.506 1.827-.915.23-1.83.458-2.74.707-1.498.056-2.703.339-3.998.929a45.767 45.767 0 0 0-3.92 1.222 2.265 2.265 0 0 0-.729.424c-.658.23-1.312.476-1.96.75-2.42 1.027-4.757 2.233-7.292 2.976-.923.272-1.876.356-2.744.689a1.548 1.548 0 0 0-1.63.294c-.519.463-.752 1.262-.567 1.94-.357 1.023-.33 2.206-.237 3.378-.082.312-.083.662.023 1.04l.015.053c-.557 2.194-.645 4.369-.612 6.543a1.522 1.522 0 0 0-.188.405c-.535 1.876-.736 3.589-.646 5.366-.698 6.155-.478 12.502-.94 18.6-.352 4.654-1.05 9.43-.782 14.102.258 4.505 1.52 8.857 1.895 13.346-.353 1.438-.654 2.889-.707 4.427-.163 4.698.06 9.436.107 14.136.018 1.93 3.018 1.934 3 0-.044-4.454-.293-8.958-.125-13.408.033-.89.146-1.751.297-2.6.324-.238.545-.62.524-1.156-.013-.34-.038-.677-.06-1.014.484-2.015 1.054-4.003 1.262-6.12.387-3.938.292-7.723.936-11.618 1.185 2.017 3.238 3.76 4.754 5.472l7.71 8.712c1.39 1.572 3.514-.013 3.343-1.694 1.721-.825 3.153-1.935 4.491-3.543.202-.242.33-.498.406-.757.096-.077.193-.146.276-.253.094-.118.16-.227.237-.34.246-.115.488-.234.745-.34 1.044-.434 1.65-1.29 1.396-2.46-1.015-4.705-2.853-8.682-5.33-12.768-2.812-4.64-4.643-9.794-6.727-14.79a2.145 2.145 0 0 0-.204-.38l.007-.001c1.124.562 2.348.572 3.531.118.865-.331 1.864-1.337 2.776-1.388.76-.042 1.287-.427 1.598-.94.99-.256 1.983-.502 2.985-.718 8.431-1.814 17.024-2.425 25.628-2.642 1.385-.035 2.163-1.244 1.928-2.532-.644-3.527-.74-6.94-.248-10.492.172-1.242-.492-2.553-1.928-2.532-2.325.036-5.272.558-7.526.116-2.207-.431-2.657-1.817-2.742-3.55l-.015-1.856c.001-.255 0-.512-.007-.77 0-.044-.014-.078-.018-.121 5.355-1.205 10.755-2.15 16.224-2.681 4.66-.453 9.63.013 14.346-.277.045.33.254.64.694.776 1.72.533 1.567 4.776 1.587 6.757-3.678.64-7.466.745-11.175 1.019-.745.056-1.046.757-.922 1.315-.303.364-.272.786-.069 1.107-.15.569-.099 1.177.17 1.642-.178 1.518-.115 3.91-.12 4.22l-.11 6.092c-.012.697.886 1.33 1.505.864 2.117-1.594 4.85-1.19 6.748-3.276.243-.267.474-.548.693-.838.98-.667 1.462-1.646 1.782-2.77.086-.168.158-.342.235-.514.27-.388.501-.8.678-1.25.242-.618.257-1.807.67-2.457.058-.075.122-.145.18-.221.058-.052.113-.107.182-.142.612-.311.911-.78.99-1.278a41.56 41.56 0 0 1 1.798-1.92c.202-.148.391-.303.608-.443.491-.315.556-.887.351-1.316a1.08 1.08 0 0 0 .235-.38c.921-2.53.8-5.29.91-7.947.053-1.29.345-2.854-.184-4.057M603.705 213.242c-.045-5.553.058-11.105-.071-16.656-.086-3.691.607-10.136-1.135-13.67a51.53 51.53 0 0 0-.077-4.981 1.98 1.98 0 0 0-.513-1.234c.94-.843 1.126-2.438.069-3.083a27.95 27.95 0 0 0-.247-4.36 2.47 2.47 0 0 0 .466-1.247 57.36 57.36 0 0 0-.138-10.97 3.057 3.057 0 0 0-.172-.728c.003-.641.006-1.284.007-1.925.003-.616.076-1.334-.151-1.932-.02-.277-.025-.553-.051-.83-.114-1.241-2.015-1.273-1.992-.075-.423.194-.713.598-.947 1.044-.101-.013-.202-.026-.301-.024-3.234.064-3.864 1.692-5.177 4.205-.305.586-.357 1.155-.247 1.67-.056.19-.1.39-.115.609a66.539 66.539 0 0 0-.16 3.529 2.471 2.471 0 0 0-.37 1.255l-.173 8.334c-.09.21-.155.442-.182.7-.506 5.007-.947 10.102-.745 15.138.183 4.55 1.975 8.283 3.457 12.514 3.502 9.99 3.6 20.706 3.704 31.17.012 1.177.914 1.873 2 2 2.415.286 3.918-1.293 4.108-3.69.427-5.382-.802-11.305-.847-16.763"/>
        <path fill="#514B30" d="M617.802 52.182c-.379-.846-.741-1.691-1.007-2.549.129-1.204-.003-2.586-.07-3.88 3.519-4.642-2.409-9.868-5.01-13.294-2.173-2.861-4.326-2.812-7.611-4.234-2.966-1.283-4.475-.836-7.144.569-2.74 1.441-6.918 2.955-10 3.388-1.516.214-1.949.322-3.284.865-1.524.618-3.475.279-4.856.973-.922.463-1.168.853-1.54 1.84-.236.62-.082 1.102-.226 1.732-.356 1.547-1.057 2.826-1.683 4.299-.77 1.809-1.016 3.37.111 4.66l-.48.527c-1.051 1.15-.566 2.846.883 3.342 5.558 1.904 11.025 2.081 14.235-3.369.895-.411 1.942-.584 2.856-.822l.933-.244c2.229.188 4.467.592 6.74.76-.05.877-.076 1.752-.052 2.637.01.367.217.638.488.804a1.01 1.01 0 0 0-.017.876c1.687 3.81 4.519 2.45 7.43.821.345-.194.477-.538.46-.884l1.513.362-.001.099a.78.78 0 0 0-.002.181c-.001.15-.002.301-.005.45a.923.923 0 0 0 .374.739c.035.147.077.292.1.444.087.394.547.772.963.734a92.12 92.12 0 0 1 5.038-.321c.813-.029 1.173-.814.864-1.505"/>
        <path fill="#F2F2F2" d="M344.044 271.94c-.36-.006-.72-.012-1.08-.02 2.529-.043 5.058-.082 7.586-.137-2.168.062-4.337.107-6.506.158m668.595-15.575c-18.671.427-37.276 1.925-55.826 4.01a702.22 702.22 0 0 1-37.566.175 555.41 555.41 0 0 0-10.232-.551 6.3 6.3 0 0 0-2.382-.586c-14.707-.782-29.448-1.525-44.181-1.74-16.846-2.265-33.754 1.732-50.763 1.38-17.713-.365-35.355-3.688-52.954-1.866a2.051 2.051 0 0 0-.886-.251c-14.218-.832-28.502-1.266-42.732-1.064-2.177.03-2.816 3.485-.532 3.928 4.34.842 11.382 3.616 11.107 8.974-.443.344-.95.62-1.537.81-1.744 1.054-3.674 1.182-5.791.38a2.146 2.146 0 0 0-.861-.193c-1.016-1.701-1.831-3.36-1.233-4.22.792-1.138-.078-2.534-1.196-2.936-10.955-3.95-21.564-9.903-33.425-7.811-2.157-.336-4.346-.161-6.524.04-1.145.107-1.907.835-2 2-.116 1.454-.155 9.62-.904 13.109a71.782 71.782 0 0 0-2.318-2.948c-.56-3.71-.844-8.463-.822-9.224.029-.993-.944-2.12-2-2-6.498.736-12.97.948-19.502.672-5.847-.247-9.465 2.11-14.54 4.786-1.24.653-1.173 2.196-.405 3.14l.399 4.316c-.134.264-.205.52-.235.766-4.268 1.237-10.296 1.373-10.224-4.603.002-.146-.032-.272-.057-.404 1.124-.702 2.505-1.15 3.748-1.553.619-.076 1.093-.276 1.879-.681.754-.387 1.019-1.13.94-1.853a19.89 19.89 0 0 1 2.272-1.231c1.963-.923.765-3.575-1.01-3.726-4.872-.418-11.011-1.232-15.95-.166-.665-.482-1.666-.478-2.4-.002-.936.142-1.838.847-1.86 1.94l-.137 7.282c-.01.53.14.942.38 1.25-.187 2.454.18 5.473-2.281 6.02l-.283.019c-.492-2.591-.947-5.19-1.315-7.806-.3-2.123-.578-7.82-4.331-5.673a2.182 2.182 0 0 0-.365.26 1.946 1.946 0 0 0-.4.05c-8.442 2.029-18.505 6.004-27.26 4.11-.72-1.41-1.21-2.916-1.518-4.57.257-.157.52-.3.789-.438.27.218.639.27 1.012-.017.437-.337.723-.645.839-1.205a1.105 1.105 0 0 0-.051-.58c.367-.617.12-1.576-.784-1.5l-4.2.362a3.055 3.055 0 0 0-1.151-.203l-14.544.56c-.155-.1-.303-.21-.471-.296-2.303-1.178-5.416-.822-7.9-.83a227.55 227.55 0 0 0-10.384.227c-5.612.238-12.61-.307-18.16 1.235-1.21-.391-2.59-.327-3.8.13-2.812.38-5.467 2.959-4.455 6.246.247.8.533 1.574.828 2.345a18.664 18.664 0 0 0-.272 3.275 3.993 3.993 0 0 1-.981.952c-2.221 1.512-6.646 1.784-9.17 2.406-3.025.743-5.24.13-8.287.168-1.17.013-2.341.128-3.507.3-.288-.033-.578-.07-.86-.092l.005-.036c-.085.005-.17.019-.253.024a7.147 7.147 0 0 0-2.211.206c-.371.048-.738.118-1.108.177a1067.907 1067.907 0 0 1-16.165-3.081 23.946 23.946 0 0 0-1.642-10.04c-.91-2.312-3.002-4.637-5.786-4.404a1777.556 1777.556 0 0 1-242.251 3.726c-5.046-.267-6.781 4.77-5.228 8.404-1.3 3.375.48 8.429 5.295 9.013 7.695.933 15.398 1.772 23.106 2.56.744 2.092 2.548 3.826 5.392 4.022a1067.915 1067.915 0 0 0 75.046 2.49c1.04.05 2.08.097 3.12.148.27 2.75 2.21 5.444 5.735 5.782 7.235.695 14.46 1.492 21.67 2.383 11.942 4.683 23.957 9.183 36.223 12.942 16.263 4.984 32.906 8.259 49.707 10.808 22.833 3.462 45.73 6.543 68.627 9.608a262.135 262.135 0 0 0 15.155 2.814c.7.97 1.755 1.679 3.207 1.885.53.075 1.063.138 1.595.21v.004l.12.013a303.124 303.124 0 0 0 27.614 2.496 836.386 836.386 0 0 0 48.975 2.2c.05 2.9 1.977 5.768 5.79 5.898 13.529.463 26.903-1.293 40.082-4.104 24.76-4.175 48.993-11.005 73.087-18.452 3.076-.374 6.148-.764 9.214-1.191 12.002-1.671 23.64-4.235 35.103-7.6 18.269-2.214 35.9-5.571 53.503-11.373 39.182-12.918 80.396-18.058 121.184-23.365a976.617 976.617 0 0 1 16.268-1.976 699.321 699.321 0 0 0 55.343-3.995c8.097-.911 8.563-13.196 0-13"/>
        <path fill="#E35205" d="M645.805 216.229c-.507-1.375-2.025-2.003-3.329-1.305a.852.852 0 0 0-.48.745c-.018.006-.039.007-.057.013-1.132.377-1.565 1.818-.685 2.68.748.736 2.171 1.207 3.191.926 1.328-.366 1.808-1.842 1.36-3.06M502.656 120.189a53.478 53.478 0 0 1-9.046.569c-.55-.01-.988.468-1 1-.014.67-.047 1.26.089 1.733a1.015 1.015 0 0 0-.176.769c.24 1.499.49 2.997.752 4.492.168.96.167 2.889.8 3.697.594.759 1.59.526 2.457.508l4.795-.102c.569-.013.962-.45 1-1 .19-2.711.519-5.4.975-8.08a.782.782 0 0 0 .48-.637c.014-.091.019-.177.03-.266h.005v-.045c.073-.558.12-1.1.106-1.673-.02-.71-.622-1.062-1.267-.965"/>
        <path fill="#EFECD3" d="M624.232 61.03c.1-1.436-1.027-2.402-2.202-2.894-.298-.114-.583-.25-.868-.382a3.31 3.31 0 0 0-.438-.706c-.556-.68-1.113-1.357-1.67-2.036-.58-.708-1.342-.955-2.102-.9-1.154-.537-2.417-.795-3.847-.548-1.489.256-2.49 1.269-3.81 1.859l-.053.019c.26-.383.332-.83.25-1.266a.997.997 0 0 0 .403-.334l.375-.54c.44-.633-.147-1.512-.864-1.504-.144 0-.282.02-.424.03a.898.898 0 0 0-.558-.023l-.88.255a.901.901 0 0 0-.516.373 2.128 2.128 0 0 0-.532.183c-.479.24-1.12.588-1.784.818-.643-.024-1.328-.175-1.995-.358-.059-.074-.1-.15-.17-.223-.504-.528-1.957-2.025-2.097-3.078 1.146-1.77-.13-4.411-2.636-3.821-2.967.697-5.792.14-8.395 2.16-.823.64-1.026 1.198-1.302 1.936l-1.439.87c-.425.349-.742.712-1.07 1.14l-.175-.062a.449.449 0 0 0-.253-.017 45.682 45.682 0 0 1-1.148-.28c-.382-.096-.844.366-.565.734.172.227.355.443.535.66a.416.416 0 0 0 .025.453c.267.403.488.82.675 1.25-.046.318.02.62.151.935-.003.055-.023.098-.017.157.017.197.05.386.081.577a.783.783 0 0 0 .017.502c.031.082.07.159.103.239h-.002c.015.036.031.07.047.105.294.718.623 1.415 1.027 2.08a.93.93 0 0 0 .5.403c.567.714 1.19 1.082 2.325 1.325 2.046 4.813-.085 6.403 4.728 8.547 1.442.64 2.428 1.819 3.943 2.396 2.096.8.672-.722 1.421 1.655.74 2.35 3.793 3.597 6.036 2.927 1.785-.534 2.277-2.026 3.538-3.105 1.394-1.194-2.343-2.533 2.5-.193 1.375.665 2.653 1.487 3.916 2.34.157.108.32.178.481.228.22.299.438.598.657.898.3.41.88.255.932-.252.006-.065.035-.121.045-.183.038-.012.083-.01.111-.032.423-.326.391-.87.453-1.368.103-.154.195-.314.26-.485.842-2.252 1.853-4.298 3.08-6.357a1.852 1.852 0 0 0 .208-1.5c1.603-1.535 2.813-3.072 2.99-5.607M634.156 109.844c-1.84-.435-3.655-.873-5.424-1.554-1.728-.665-3.363-1.257-5.24-1.183a1.444 1.444 0 0 0-.96.387 22.753 22.753 0 0 0-2.325-.17c-.932-.017-1.18 1.02-.763 1.606-.23 1.517-.793 2.933-1.62 4.226-.22.344-.192.677-.034.94a56.073 56.073 0 0 0-7.056 1.096 66.28 66.28 0 0 0-3.244.505c-.288.053-.57.125-.854.19-4.501.705-8.862 2.068-13.277 3.485a178.863 178.863 0 0 1-20.747 5.332c-.541.105-.94.34-1.231.643-3.51.28-7.027.426-10.56.415-1.096-.003-1.81.58-2.157 1.346-2.751.316-5.473.82-8.142 1.715a.95.95 0 0 0-.651.745c-.99.195-1.985.367-2.99.493-1.26.16-1.276 2.161 0 2 .388-.049.772-.109 1.157-.17a.927.927 0 0 0 .44.068c6.053-.443 12.105-.887 18.157-1.332 2.566-.117 5.125-.304 7.679-.566.394.452.998.72 1.824.627l18.847-2.14c.396.368.954.585 1.692.514 9.115-.89 18.22-1.869 27.313-2.959 2.249-.269 5.594.04 7.29-1.763 1.196-1.272 1.456-3.777 1.5-6.024.86-1.59 1.675-3.394 1.52-5.144.017-.05.04-.099.055-.148a1.54 1.54 0 0 0 .068-.425c1.032-.582 1.199-2.408-.267-2.755"/>
        <path fill="#071F2C" d="M594.6 60.652c-2.348.83-4.776.715-7.013-.394-.575-.284-1.082.578-.505.865.86.425 1.75.717 2.653.89a1.267 1.267 0 0 0-.408.926 1.277 1.277 0 1 0 2.554 0c0-.29-.113-.542-.275-.756a9.89 9.89 0 0 0 3.26-.566c.602-.214.342-1.18-.266-.965M590.022 45.658a4.267 4.267 0 0 1-.575 1.838c-.314.528-.742.993-1.268 1.463-.653.585-1.247 1.897-2.14 2.043-.818.133-1.738-.382-2.599-.287-.815.089-1.56.484-2.27.867-.566.306-.06 1.17.505.863.356-.191.675-.327.988-.435.547.934 1 1.912 1.303 2.958.205.704.263 1.468.502 2.162-.329.017-.658.04-.992.037-.643-.007-.644.993 0 1 2.084.022 4.09-.342 6.03-1.11.591-.233.333-1.2-.266-.963a15.083 15.083 0 0 1-3.738.943c-.462-.918-.477-2.152-.83-3.13a14.224 14.224 0 0 0-.99-2.108c.383-.03.782-.023 1.256.054.354.057.734.166 1.101.149.75-.035 1.27-.298 1.708-.887.845-1.134 1.79-1.988 2.451-3.045.03-.016.061-.025.091-.05 1.014-.857 2.617-.346 3.787-.874.588-.264.816-.531 1.466-.648.354-.064.823.02 1.165-.144.53-.255.805-.743.931-1.304.085-.384-.016-.773-.004-1.156.041-1.201.64-1.952 1.481-2.728.473-.44-.236-1.145-.707-.707-.689.635-1.396 1.358-1.66 2.288-.15.52.077 1.198-.08 1.659-.593 1.762-.709.683-1.423.986-1.182.503-2.076 1.036-3.42 1.13a5.612 5.612 0 0 0-1 .154 5.34 5.34 0 0 0 .197-1.018c.057-.641-.943-.637-1 0M603.613 52.596c-1.117-.968-2.441-1.986-2.296-3.598.073-.812.219-1.56.051-2.387-.357-1.742-1.72-1.229-3.143-1.012-.634.096-.365 1.06.266.964.471-.07 1.492-.376 1.872.081.179.215.112.986.1 1.281-.034.76-.412 1.526-.193 2.285.35 1.215 1.727 2.306 2.636 3.093.484.42 1.194-.285.707-.707M576.46 38.496c-.388 1.847-2.348 2.831-2.692 4.703-.27 1.46.68 2.444 1.528 3.498-.115.127-.236.247-.348.377-.445.514-.687 1.05-.493 1.733.36 1.265 2.018 2.505 3.326 1.968.587-.24.33-1.209-.266-.965-.628.258-1.198-.12-1.632-.567-.566-.58-.515-1.144-.01-1.697.65-.709 1.32-1.4 1.982-2.102.44-.468-.265-1.175-.707-.707-.386.41-.782.816-1.172 1.224-.658-.791-1.465-1.557-1.198-2.744.185-.82.876-1.47 1.389-2.096.596-.729 1.063-1.43 1.258-2.358.133-.628-.831-.896-.964-.267M584.614 32.482c1.196-.473 1.743.092 2.795.279 1.08.193 2.113.018 3.113-.404.584-.246.327-1.214-.265-.964-1.084.456-2.149.579-3.288.222-.644-.202-1.145-.472-1.837-.354-1.272.215-2.297 1.133-2.977 2.182-2.568-.605-5.279-.785-5.393 2.244-.024.643.976.643 1 0 .126-3.363 6.453-.521 8.134-.314.637.08.632-.922 0-1-.658-.081-1.639-.38-2.714-.67.37-.517.836-.987 1.432-1.221M590.505 36.359c-1.076-.75-2.354-.684-3.131.403-.375.525.49 1.025.863.505 1.097-1.533 3.049 1.526 3.903 2.122.982.687 2.176.892 3.337 1.072.63.097.9-.867.265-.965-1.14-.176-2.295-.35-3.22-1.09-.752-.602-1.22-1.491-2.017-2.047M595.286 38.291c1.307.108 3.414-1.319 4.396-.115.407.5 1.11-.212.708-.707-1.62-1.985-5.084 1.211-6.168-.879-.297-.57-1.161-.066-.864.505.39.751 1.094 1.127 1.928 1.196M615.931 48.128a18.063 18.063 0 0 0 1.851 5.11 8 8 0 0 0-4.766-.03c-.614.186-.353 1.15.266.964 1.736-.523 3.507-.409 5.146.374.055.026.107.033.16.041a18.333 18.333 0 0 0 4.876 4.934c.531.365 1.031-.5.505-.865-3.727-2.569-6.187-6.362-7.073-10.794-.126-.63-1.09-.364-.965.266"/>
        <path fill="#071F2C" d="M609.606 34.37c.948.67 1.938 1.247 3.043 1.616 1.411.472 1.844.052 2.397 1.934.124.422.063.942.164 1.384.318 1.402 1.215 2.302 1.316 3.746.104 1.508-.714 2.294-.949 3.73-.104.63.86.901.964.267.216-1.322 1.354-2.391 1.423-3.736.09-1.708-1.523-2.968-1.808-4.627-.18-1.05.108-2.21-.803-2.978-.388-.327-1.192-.315-1.64-.449a12.038 12.038 0 0 1-3.602-1.75c-.526-.37-1.026.495-.505.864"/>
        <path fill="#071F2C" d="M603.717 33.358c-.221.605.745.866.965.266.506-1.388 1.649-2.416 3.119-2.673 1.688-.295 3.506.63 3.366 2.552-.048.64.953.639 1 0 .16-2.191-1.744-3.66-3.827-3.617-2.144.045-3.907 1.508-4.623 3.472"/>
        <path fill="#071F2C" d="M597.282 30.477c-.14-1.657 1.158-2.66 2.659-2.876 1.266-.183 1.175.38 1.938 1.027.406.346.58.277 1.073.366.18.033.375-.131.553-.12 1.029.069 1.27.577 1.67 1.352.294.573 1.157.068.863-.504-.527-1.027-1.076-1.72-2.244-1.906-.354-.057-.532.12-.913-.036-.78-.322-.008-.06-.591-.56-.311-.267-.53-.46-.936-.588-2.445-.776-5.286 1.309-5.072 3.845.054.637 1.054.643 1 0M612.182 46.545a11.648 11.648 0 0 1-.85-5.677c.063-.639-.938-.635-1 0a12.27 12.27 0 0 0 .885 5.943c.243.587 1.211.33.965-.266M601.903 70.078a11.598 11.598 0 0 0-6.305 2.52c-.504.4.208 1.105.707.709a10.387 10.387 0 0 1 5.598-2.23c.636-.056.643-1.056 0-1M590.9 67.377c-.072-.632-1.073-.64-1 0a2.872 2.872 0 0 0 3.358 2.512c.633-.115.365-1.077-.265-.965-.955.171-1.983-.577-2.094-1.547M685.167 118.77c1.747 2.399 1.795 2.857 1.408 5.563-.367 2.58-.96 4.507.438 6.775-3.174.21-6.14.477-9.334.106a22.321 22.321 0 0 0-2.76-4.648 34.269 34.269 0 0 0 2.364-1.375 17.913 17.913 0 0 1 4.043 5.266c.29.574 1.153.068.863-.505a18.574 18.574 0 0 0-4.043-5.322c.699-.461 1.389-.933 2.077-1.406a36.713 36.713 0 0 1 4.632 6.952c.294.573 1.158.068.864-.505a37.787 37.787 0 0 0-4.673-7.011c.296-.203.593-.407.889-.606.407-.273.758-.523 1.069-.763a13.915 13.915 0 0 1 2.434 3.399c.292.573 1.155.067.863-.505a14.816 14.816 0 0 0-2.545-3.553c.657-.67.97-1.355 1.044-2.336.112.14.234.29.367.475m-11.155 11.659a12.897 12.897 0 0 0-1.408-2.816c.478-.183.949-.384 1.412-.603a21.342 21.342 0 0 1 2.494 4.053 355.6 355.6 0 0 1-2.493-.351.437.437 0 0 0-.005-.283m24.95 18.467c1.115-2.833 1.093-6.074.745-9.304.567.334 1.146.65 1.746.926a.495.495 0 0 0 .327.029c.006.49.023.979.027 1.468.027 3.273.598 7.442-1.122 10.38-2.072 3.537-7.041 5.845-6.14 10.53-1.6.077-3.2.175-4.8.263-.331-6.331 7.11-8.94 9.217-14.292m2.709-14.308c.017.738.026 1.475.04 2.212l-2.65-1.877a98.51 98.51 0 0 1-.335-2.332 45.296 45.296 0 0 0 2.945 1.997m-.246-2.412a.54.54 0 0 0 .202.043c.01.389.012.779.02 1.168a43.699 43.699 0 0 1-3.027-2.103c.945.213 1.869.489 2.805.892m-2.156 4.115l2.063 1.46a.404.404 0 0 0 .397.062c.01.58.025 1.16.033 1.74a19.291 19.291 0 0 1-2.205-1.226c-.09-.684-.188-1.363-.288-2.036m-20.901 63.149a442.261 442.261 0 0 1-.22 5.4c-.071 1.557.162 3.743-.551 5.184-.73 1.476-2.505 1.87-4.152 2.032a.503.503 0 0 0 .21-.514c-1.992-11.167-1.5-22.502-.952-33.773a.423.423 0 0 0-.172-.381c2.048-.122 4.096-.244 6.144-.358a.453.453 0 0 0-.104.299c.11 7.37.05 14.743-.203 22.11m-21.285 49.155c-.177-.878-.468-1.774-.8-2.662a250.74 250.74 0 0 0 12.098-6.88 384.056 384.056 0 0 0-.11 4.55 64 64 0 0 0-11.188 4.992m-51.546-95.908c-.937.009-1.925-.066-2.845.149.04-3.858.114-7.716.246-11.573a.427.427 0 0 0-.22-.406c2.53-.186 5.058-.377 7.588-.574l-.005.015c-.397 4.119-.777 8.237-1.124 12.352l-3.64.037m4.354 80.22c.72.152.44.02.534.736.125.967-.104 2.145-.151 3.113-.073 1.524-.218 3.056-.025 4.57l-.413.006a.471.471 0 0 0-.237.065c-.108-2.827-.22-5.653-.305-8.481.213-.027.426-.043.597-.008M499.02 155.945c-.037-.01-.068-.026-.11-.028a54.93 54.93 0 0 0-4.887 0c.139-3.468.078-6.923-.466-10.331 1.784-.04 3.569-.061 5.354-.07.088 3.476.163 6.953.109 10.429m-9.54 107.295c-.442-.357-.875-.725-1.311-1.087a346.764 346.764 0 0 0 6.265-2.555c.584-.246.327-1.214-.266-.964-2.278.96-4.57 1.889-6.867 2.799-.514-.433-1.02-.877-1.526-1.32 1.26-.508 2.524-1.013 3.78-1.53a7.22 7.22 0 0 1 .454-.158.49.49 0 0 0 .442-.136c1.363-.416 3.587-1.081 4.282-2.038l.203 5.288a.482.482 0 0 0-.456-.005 84.369 84.369 0 0 1-4.944 2.313c.143-.177.175-.422-.056-.607m-7.194.117a71.863 71.863 0 0 1-1.486-1.266 575.325 575.325 0 0 0 3.94-1.56c.499.44.995.886 1.503 1.319-1.313.515-2.637 1.008-3.957 1.507m-3.633-3.2a156.667 156.667 0 0 0 3.955-1.554c.462.429.924.858 1.394 1.28a945.176 945.176 0 0 1-4.002 1.5c-.452-.403-.904-.81-1.347-1.225m-2.55-2.534c1.27-.528 2.534-1.07 3.794-1.621.627.622 1.26 1.239 1.903 1.846-1.307.526-2.613 1.053-3.936 1.54a71.522 71.522 0 0 1-1.761-1.765m-3-3.303c1.302-.414 2.6-.842 3.886-1.298.707.753 1.422 1.497 2.149 2.229a205.238 205.238 0 0 1-3.776 1.599 75.569 75.569 0 0 1-2.26-2.53m2.982-3.763a284.252 284.252 0 0 0 4.474-2.098c.475.534.955 1.064 1.435 1.593-1.564.635-3.14 1.239-4.73 1.81-.4-.43-.786-.87-1.18-1.305m-2.761-3.176c1.51-.65 3.012-1.32 4.496-2.021.276.318.538.647.815.965.402.46.823.904 1.227 1.362a279.968 279.968 0 0 1-4.475 2.093c-.698-.79-1.386-1.59-2.063-2.4m3.102-5.176a264.05 264.05 0 0 0 4.576-2.448c.543.702 1.083 1.405 1.63 2.103-1.498.789-3.01 1.55-4.536 2.284-.556-.647-1.12-1.287-1.67-1.94m-1.756-2.005c1.523-.903 3.036-1.823 4.549-2.741.385.502.776.999 1.163 1.5a276.848 276.848 0 0 1-4.627 2.469 75.28 75.28 0 0 0-1.085-1.228m3.02-6.407c.827-.462 1.647-.935 2.465-1.41.57.77 1.127 1.549 1.722 2.298-.801.495-1.612.974-2.415 1.464-.596-.78-1.181-1.568-1.772-2.352m-2.45-3.25c.93-.388 1.85-.79 2.764-1.205a88.908 88.908 0 0 0 1.548 2.238c-.82.475-1.641.95-2.47 1.412-.612-.816-1.231-1.626-1.841-2.445m-1.482-2.02a41.688 41.688 0 0 0 2.848-1.294c.27.43.562.844.84 1.269-.93.42-1.87.826-2.815 1.219-.293-.396-.581-.797-.873-1.193m8.046-1.071c.436.67.9 1.32 1.367 1.965-.913.558-1.824 1.118-2.747 1.659a85.018 85.018 0 0 1-1.504-2.162 57.723 57.723 0 0 0 2.884-1.462m3.697 4.94c-.925.582-1.845 1.174-2.772 1.75-.588-.736-1.14-1.503-1.701-2.26.915-.537 1.819-1.093 2.724-1.648.56.74 1.148 1.454 1.749 2.158m2.216 2.409c-.99.583-1.986 1.154-2.983 1.723a80.105 80.105 0 0 1-1.356-1.61c.934-.58 1.858-1.174 2.788-1.76a47.253 47.253 0 0 0 1.55 1.647m2.759 2.593c-1.067.653-2.14 1.296-3.223 1.92-.627-.665-1.26-1.328-1.862-2.013 1.02-.583 2.038-1.17 3.05-1.767a47.315 47.315 0 0 0 2.035 1.86m-9.21 1.084c-.396-.514-.796-1.022-1.191-1.537.817-.498 1.639-.986 2.45-1.488.435.53.88 1.052 1.328 1.574-.861.486-1.721.973-2.586 1.45m2.256 2.909c-.55-.7-1.09-1.405-1.635-2.107.877-.485 1.748-.981 2.619-1.475.6.686 1.227 1.353 1.852 2.02-.94.532-1.885 1.052-2.836 1.562m1.659 3.7c-1.46.734-2.924 1.459-4.397 2.166l-.21-.23c-.617-.697-1.214-1.413-1.824-2.117 1.51-.728 3.01-1.476 4.49-2.258.643.817 1.294 1.627 1.94 2.44m2.125 2.663a128.115 128.115 0 0 1-4.334 1.902c-.495-.543-.994-1.082-1.485-1.63a275.98 275.98 0 0 0 4.33-2.138c.497.622.99 1.246 1.489 1.866m-2.788 5.075a214.74 214.74 0 0 1-4.396 1.993 119.588 119.588 0 0 1-2.105-2.168c1.576-.573 3.14-1.172 4.69-1.807.605.66 1.2 1.328 1.81 1.982m-1.684 4.619a111.298 111.298 0 0 1-1.951-1.875 219.716 219.716 0 0 0 4.36-1.987c.634.67 1.277 1.332 1.916 1.997a157.312 157.312 0 0 1-4.325 1.865m5.06-1.1c.479.495.947 1 1.429 1.49a358.35 358.35 0 0 1-4.262 1.649c-.477-.425-.95-.854-1.42-1.286a155.189 155.189 0 0 0 4.253-1.853m6.084-.6c.032.154-1.504.829-3.653 1.693-.493-.501-.971-1.015-1.461-1.52a153.405 153.405 0 0 0 5.754-2.767c.026.67.05 1.34.077 2.01-.321-.14-.812.123-.717.584m.48-6.75c.042 1.05.08 2.1.122 3.15a.483.483 0 0 0-.275.049 156.036 156.036 0 0 1-6.177 2.96c-.648-.672-1.302-1.341-1.943-2.02a215.529 215.529 0 0 0 8.274-4.138M683.012 113.63c.66 1.23 1.088 3.464.802 4.852-.402 1.963-2.73 2.94-4.234 3.949-.773.52-1.545 1.04-2.325 1.548a.557.557 0 0 0-.512.329c-1.847 1.172-3.756 2.223-5.887 2.849-3.443 1.01-7.12.954-10.673.932-.644-.004-.645.996 0 1 3.817.023 7.765.039 11.443-1.13.56.816 1.022 1.68 1.366 2.61-2.32-.333-4.637-.671-6.96-.991-2.89-.4-5.438-.396-8.241.509-.696.225-1.383.479-2.063.747a.494.494 0 0 0-.321-.053c-1.491.26-3.15.57-4.622.015-1.336-.504-2.157-1.754-3.236-2.62-.497-.398-1.21.305-.707.708 1.232.989 2.135 2.332 3.677 2.877.752.265 1.529.342 2.312.326-1.212.562-2.412 1.15-3.606 1.739-3.101 1.527-6.217 3.07-9.557 4.013-3.482.984-7.105 1.338-10.57 2.399-6.232 1.908-11.95 5.189-18.4 6.377.198-2.107.4-4.212.603-6.317.003-.035-.007-.06-.01-.09 6.816-.533 13.632-1.09 20.442-1.694.636-.056.642-1.056 0-1a1902.119 1902.119 0 0 1-119.97 6.852c-10.746.272-21.833-.345-32.472 1.368-.634.102-.365 1.066.266.965 4.284-.69 8.645-.963 13.023-1.084-.002.039-.011.076-.004.12.86 5.287.32 10.573-.09 15.874-.405 5.274-.556 10.559-.54 15.849.033 10.253.563 20.505.953 30.75l1.516 39.708c-.033.009-.065.01-.1.029a214.587 214.587 0 0 1-8.861 4.432c-.6-.64-1.18-1.298-1.772-1.944 1.43-.6 2.853-1.226 4.263-1.88.113.14.223.28.335.42.406.5 1.109-.21.707-.706l-.116-.146a127.064 127.064 0 0 0 5.063-2.532c.569-.301.064-1.165-.505-.864a125.16 125.16 0 0 1-5.197 2.596c-.504-.628-1.004-1.26-1.506-1.89a290.754 290.754 0 0 0 6.893-3.597c.567-.307.062-1.17-.505-.864a285.386 285.386 0 0 1-7.025 3.663c-.654-.823-1.316-1.64-1.965-2.466.982-.528 1.969-1.046 2.939-1.597.415.43.809.88 1.234 1.305.456.456 1.163-.251.707-.707-.362-.362-.698-.747-1.054-1.115 1.515-.876 3.02-1.77 4.502-2.704.544-.342.043-1.207-.504-.863-.195.123-.393.24-.59.363a46.81 46.81 0 0 1-2.025-1.85c.947-.562 1.897-1.12 2.837-1.695.548-.335.046-1.2-.505-.863-1.017.623-2.044 1.226-3.07 1.834a46.606 46.606 0 0 1-1.572-1.663c1.23-.778 2.47-1.541 3.693-2.331.539-.348.038-1.214-.504-.864-1.28.827-2.574 1.624-3.86 2.437a44.98 44.98 0 0 1-1.743-2.143 180.393 180.393 0 0 0 5.15-3.297c.533-.356.032-1.222-.505-.864a178.1 178.1 0 0 1-5.23 3.347 44.912 44.912 0 0 1-1.344-1.932c1.346-.768 2.66-1.6 3.92-2.535.51-.38.012-1.247-.505-.863-2.424 1.798-5.034 3.235-7.734 4.504-.288-.438-.587-.866-.867-1.31.349-.186.7-.367 1.045-.564.559-.32.056-1.184-.505-.863-.423.24-.851.466-1.281.692a.548.548 0 0 0-.457.243 40.04 40.04 0 0 1-3.144 1.428c-.863-1.177-1.731-2.35-2.586-3.534-.373-.518-1.241-.02-.863.504.82 1.139 1.657 2.266 2.486 3.399-.34.127-.68.26-1.025.379-.605.208-.345 1.175.266.965.462-.16.917-.334 1.372-.508.295.4.586.805.882 1.205-.78.316-1.56.63-2.343.94-.591.236-.334 1.203.265.965.897-.354 1.79-.715 2.684-1.08.633.853 1.278 1.696 1.916 2.544a177.478 177.478 0 0 1-4.082 2.189c-.572.295-.066 1.159.505.863a186.21 186.21 0 0 0 4.185-2.243c.598.79 1.189 1.587 1.79 2.375-1.535.93-3.07 1.865-4.615 2.78-1.278-1.44-2.54-2.97-3.19-4.593-.236-.59-1.204-.332-.964.266.728 1.818 2.148 3.285 3.376 4.789 0 .002.003.004.004.005l-.34.205c-.554.326-.051 1.19.505.863.164-.097.325-.197.488-.294.332.403.676.795 1.01 1.195-.924.477-1.843.96-2.772 1.426-.576.289-.07 1.152.504.864.983-.492 1.953-1.002 2.928-1.506.54.644 1.08 1.289 1.627 1.927a136.32 136.32 0 0 1-4.496 2.02 115.049 115.049 0 0 1-2.026-2.531c-.394-.507-1.097.205-.707.707.585.753 1.182 1.492 1.784 2.228-.201.084-.4.173-.601.256-.586.242-.33 1.21.266.965.33-.138.654-.292.984-.432.675.813 1.36 1.616 2.056 2.408-1.362.614-2.722 1.23-4.094 1.823-.59.255-.08 1.117.505.863 1.436-.62 2.862-1.266 4.289-1.91.37.415.739.832 1.115 1.24-1.27.443-2.548.864-3.833 1.268-.177-.213-.36-.421-.533-.637-.406-.5-1.11.212-.708.707.07.086.144.168.213.254-.096.029-.191.06-.287.09-.614.185-.353 1.15.266.965.24-.073.477-.153.717-.226a73.31 73.31 0 0 0 2.296 2.61c-.93.378-1.85.77-2.785 1.135-.593.232-.335 1.199.266.965 1.092-.427 2.17-.883 3.256-1.326a73.155 73.155 0 0 0 1.705 1.729 149.88 149.88 0 0 1-4.405 1.538c-.608.2-.348 1.165.266.964a156.655 156.655 0 0 0 4.939-1.724c.44.419.888.83 1.339 1.239-.773.288-1.327.495-1.553.582-.593.23-.336 1.197.266.965.697-.27 1.392-.547 2.088-.82.484.427.978.843 1.475 1.257-.621.233-1.236.48-1.858.708-.6.22-.34 1.187.266.964.829-.305 1.648-.631 2.474-.941a77.026 77.026 0 0 0 3.659 2.79c.524.376 1.024-.491.504-.863a73.578 73.578 0 0 1-3.082-2.34c1.31-.497 2.627-.984 3.932-1.497.548.457 1.093.919 1.65 1.367a.508.508 0 0 0 .277.107c-.965.408-1.936.805-2.92 1.177-.595.226-.336 1.192.267.964a85.695 85.695 0 0 0 8.333-3.672l.009-.003.23-.114c.016.453.034.907.052 1.36a.468.468 0 0 0-.303.054 33.334 33.334 0 0 1-3.97 1.896c-.59.236-.332 1.203.267.965a35.623 35.623 0 0 0 4.044-1.913l.215 5.644c.007.197.149.449.368.482l3.853.569c.63.093.902-.87.267-.964-.714-.105-2.304-.033-2.892-.427-.898-.604-.673-1.663-.71-2.622l-.263-6.911-.471-12.343-.961-25.178c-.642-16.813-1.781-33.704-1.485-50.533.089-5.137.737-10.363.999-15.566a54.79 54.79 0 0 1 4.93-.002c.038.002.066-.01.098-.015a100.6 100.6 0 0 1-.148 3.723c-.308 5.236-.89 10.406-.742 15.66.285 10.027.793 20.033.945 30.067.31 20.593.9 41.222-.258 61.798-.036.643.964.642 1 0 .88-15.652.75-31.336.5-47.01.08.092.2.15.365.14 2.232-.134 4.464-.27 6.696-.403 1.57-.094 3.054-.111 4.46-.877.386-.21.282-.797-.12-.915a51.403 51.403 0 0 0-9.782-1.845c-.641-.06-.637.942 0 1a49.65 49.65 0 0 1 7.994 1.405c-1.336.305-2.82.249-4.127.327l-5.121.308a.482.482 0 0 0-.376.206c-.076-4.713-.161-9.424-.231-14.134-.152-10.034-.66-20.04-.945-30.067-.148-5.254.434-10.424.742-15.66.297-5.033.179-10.076.052-15.113 3.142-.011 6.276-.011 9.38-.085a1892.827 1892.827 0 0 0 88.917-4.228c1.3-.093 2.598-.2 3.896-.295a.479.479 0 0 0-.166.359c-.102 2.975-.17 5.95-.222 8.926a.522.522 0 0 0-.39.11c-2.405 1.87-5.752 2.018-7.635 4.613-1.514 2.087-1.68 4.836-1.821 7.32-.244 4.303-.432 8.61-.65 12.916-.207 4.143-.666 8.36-.496 12.51.15 3.695 1.464 6.972 2.665 10.422 1.317 3.79 2.247 7.699 2.88 11.66 1.316 8.238 1.382 16.613 1.454 24.935a.455.455 0 0 0 .11.297c-.145.898-.16 1.928-.253 2.604a89.158 89.158 0 0 0-.553 5.234c-.003.035.01.07.019.106-.262.047-.493.27-.398.6.339 1.178-.134 2.242-.99 3.184a.354.354 0 0 0-.203.226c-1.657 1.669-4.486 2.919-6.038 3.652-2.963 1.4-6.16 2.186-9.208 3.363-2.207.85-9.497 3.72-7.998 7.14 1.733 3.958 8.815 2.206 11.847 1.536 6.41-1.416 12.82-2.848 19.23-4.272.628-.14.36-1.103-.267-.965-5.471 1.217-10.944 2.432-16.416 3.648-2.806.623-5.797 1.56-8.692 1.487-2.057-.053-5.52-.592-4.253-3.497.456-1.045 2.574-2.075 3.536-2.606 1.83-1.014 3.782-1.743 5.753-2.42a.49.49 0 0 0 .306.31c.302.112.47.329.592.616.252.59 1.113.082.863-.504a1.825 1.825 0 0 0-.663-.795c.74-.25 1.479-.5 2.217-.756.028.109.1.21.238.277a8.523 8.523 0 0 1 2.216 1.55c.462.45 1.17-.256.707-.706a9.365 9.365 0 0 0-2.09-1.512 36.544 36.544 0 0 0 2.509-1.018.467.467 0 0 0 .31.288c.7.219 1.388.47 2.056.777.364.168 1.604.583 1.635 1.004.045.639 1.045.644 1 0-.061-.856-.783-1.193-1.477-1.55a18.59 18.59 0 0 0-2.49-1.032c.194-.098.393-.184.583-.288 1.42-.777 3.36-1.747 4.716-3.048a13.193 13.193 0 0 1 3.404.028c.636.085.63-.916 0-1a13.608 13.608 0 0 0-2.5-.093c.61-.925.886-1.991.542-3.238 1.958-.194 4.59.018 6.137-1.371.479-.431-.23-1.136-.707-.707-1.074.965-3.39.942-4.975 1.042.168-2.022.388-4.04.704-6.045.217-1.382.27-1.898 1.666-2.276.879-.238 1.982-.17 2.89-.246.638-.055.643-1.055 0-1-1.283.109-3.177-.045-4.4.378-.1.034-.166.06-.23.087-.065-7.101-.193-14.217-1.125-21.266-.47-3.56-1.14-7.093-2.114-10.55-.974-3.444-2.592-6.736-3.328-10.241-.824-3.916-.318-8.026-.12-11.984l.599-11.923c.175-3.476-.25-7.937 1.49-11.086 1.57-2.843 5.09-3.142 7.588-4.868-.475 29.984 1.373 60.04 2.573 89.978.377 9.425.844 18.848 1.85 28.23.068.633 1.069.64 1 0-1.767-16.481-2.042-33.11-2.686-49.66-.65-16.665-1.414-33.331-1.693-50.006a626.263 626.263 0 0 1-.063-15.925c1.044-.324 2.309-.171 3.384-.182l3.03-.03c-1.053 12.679-1.775 25.355-1.621 38.114.162 13.553.392 27.11.81 40.658a.582.582 0 0 0 .009.239c.1 3.226.2 6.453.326 9.677.373 9.627 1.416 19.379.35 28.99-.07.639.93.635 1 0 .942-8.492.15-17.048-.21-25.553-.05-1.161-.081-2.322-.126-3.484a.487.487 0 0 0 .205.04l.975-.014c.342-.005.545-.315.482-.633-.575-2.883.579-5.876.165-8.734-.187-1.284-1.124-1.136-2.19-1.016a1572.82 1572.82 0 0 1-.301-11.697c-.37-16.872-1.001-33.813-.078-50.675.4-7.315 1.027-14.614 1.71-21.908 6.456-1.101 12.163-4.351 18.35-6.32 3.309-1.053 6.75-1.447 10.105-2.298 2.89-.734 5.625-1.907 8.308-3.19 3.127-1.494 6.185-3.156 9.442-4.36 3.744-1.386 6.968-1.228 10.86-.675 3.178.45 6.354.923 9.534 1.353 3.409.46 6.54.158 9.914-.064 1.243 1.699 1.966 3.28 1.929 5.522-.031 1.882-.232 3.773-.352 5.652-.13 2.066.165 4.806-.878 6.647-.727 1.283-2.064 2.068-3.068 3.1-2.175 2.236-1.703 5.449-3.68 7.786-2.283 2.698-5.902 3.496-9.232 4.133.315-4.854.449-9.716.405-14.58 3.48-.173 6.962-.321 10.447-.413.642-.017.644-1.017 0-1a445.661 445.661 0 0 0-30.518 1.855.534.534 0 0 0 .019-.252 44.726 44.726 0 0 1-.69-5.992 269.004 269.004 0 0 1 15.826-1.57c2.6-.177 5.205-.317 7.81-.417 2.024-.077 6.684-.975 8.338.905l.052 5.894c.005.642 1.005.644 1 0l-.048-5.468c.164-.14.25-.364.107-.605-.042-.07-.09-.125-.134-.19a.44.44 0 0 0-.24-.322c-.811-.947-1.957-1.251-3.274-1.337-3.193-.21-6.517.133-9.707.302-6.638.354-13.256.978-19.85 1.824-.236-.367-.93-.288-.915.249-.202.229-.19.606.038.757.104 2.094.34 4.17.722 6.237a.41.41 0 0 0 .23.316c-.14.31-.006.736.42.696a443.24 443.24 0 0 1 19.366-1.416c.036 3.959-.033 7.918-.236 11.872a192.866 192.866 0 0 1-.504 7.169c-.056 1.129-.562 1.639-1.52 1.53-1.03.384-2.511.222-3.591.222-.644 0-.645 1 0 1 1.364 0 4.279.295 5.45-.675.046-.038.075-.091.115-.134a.423.423 0 0 0 .28.074c7.582-.58 15.158-1.211 22.73-1.89.636-.058.642-1.06 0-1-7.5.673-15.001 1.296-22.507 1.873.304-1.084.175-2.528.24-3.388.03-.366.047-.733.073-1.1 1.253-.237 2.537-.5 3.787-.858a638.305 638.305 0 0 1 19.258-1.196.506.506 0 0 0 .23-.07c.009.008.013.018.023.026 3.819 2.633 1.648 9.435-1.633 11.347-.042.026-.067.057-.097.087-.027-.003-.05-.014-.08-.012a1416.295 1416.295 0 0 0-49.463 3.098c-.638.05-.643 1.052 0 1a1427.83 1427.83 0 0 1 18.373-1.341c.006 1.338.022 2.674.048 4.01-.35.132-.523.668-.102.9.042.022.085.045.127.069.202 8.736.835 17.452 1.91 26.129.078.63 1.079.638 1 0a261.886 261.886 0 0 1-1.79-22.181 6.229 6.229 0 0 0 1.725.83c.618.185.882-.78.266-.964a5.123 5.123 0 0 1-2.041-1.175c-.023-.694-.037-1.39-.055-2.082l3.959 2.167c.564.31 1.069-.553.504-.863l-4.493-2.462c-.021-.966-.032-1.931-.041-2.898a68.24 68.24 0 0 0 6.169 3.823c.565.308 1.07-.556.505-.863a68.397 68.397 0 0 1-6.688-4.17l-.003-.277c0-.022-.01-.038-.013-.058.876-.06 1.75-.12 2.627-.177-.19.213-.228.579.084.777 1.077.678 2.153 1.357 3.228 2.036.546.343 1.049-.522.505-.865l-3.16-1.992c1.809-.116 3.619-.225 5.428-.334a.48.48 0 0 0-.16.342c-.551 11.365-1.02 22.78.99 34.039a.41.41 0 0 0 .194.296l-.855.059c-2.04.132-3.886-.112-5.626-1.252-.54-.354-1.042.51-.505.863 1.015.666 2.11 1.05 3.245 1.252a.485.485 0 0 0-.173.483c1.253 6.395-.088 13.357-.381 19.813a363.281 363.281 0 0 0-.176 4.55 251.926 251.926 0 0 1-12.493 7.119c-.38-.96-.775-1.896-1.086-2.775-.941-2.655-1.814-5.326-2.484-8.063-1.364-5.567-1.998-11.343-1.537-17.068.126-1.553.664-3.185-.56-4.4-1.82-1.804-4.606-3.102-6.737-4.517-.54-.356-1.04.51-.505.864 1.688 1.119 3.796 2.165 5.302 3.515 2.07 1.856 1.49 3.864 1.39 6.407-.156 3.948.189 7.906.897 11.79.73 4.014 1.908 7.897 3.27 11.738.344.97.808 2.019 1.208 3.078-.102.227.013.503.229.632.238.689.434 1.377.532 2.044.528 3.606-2.675 3.752-5.49 4.046-.633.066-.64 1.067 0 1 2.254-.236 7.08-.472 6.879-3.63a62.794 62.794 0 0 1 11.03-4.985 361.35 361.35 0 0 0-.033 8.198c.026 3.259.095 6.516.208 9.772.086 2.465-.228 5.422.424 7.813.572 2.097 3.955 2.338 4.48.072.144-.627-.82-.895-.965-.267-.32.627-.857.92-1.613.882-.821-.736-1.18-1.617-1.075-2.64-.215-1.248-.127-2.641-.178-3.907a363.54 363.54 0 0 1-.21-22.476c.027-1.278.08-2.553.12-3.83a.504.504 0 0 0 .008-.24c.114-3.528.262-7.055.477-10.58.292-4.738.954-9.515.033-14.22-.01-.05-.033-.085-.052-.124 1.32.139 2.679.057 4.02-.146a.51.51 0 0 0-.06.222 2889.697 2889.697 0 0 0-1.606 55.854c-.012.644.988.644 1 0 .154-8.04.347-16.081.568-24.12l40.21 18.176c.582.264 1.09-.598.505-.863l-40.493-18.303a.506.506 0 0 0-.195-.045c.047-1.666.094-3.33.143-4.996a334.97 334.97 0 0 0 44.276 22.5c.593.248.852-.72.266-.965a333.358 333.358 0 0 1-44.258-22.53.465.465 0 0 0-.251-.067c.246-8.214.52-16.428.836-24.641a.444.444 0 0 0-.14-.358c.205-.037.41-.07.612-.111 3.005-.605 3.549-2.608 3.71-5.432.568-9.973.693-19.98.544-29.966a.463.463 0 0 0-.145-.342c4.607-.254 9.217-.49 13.827-.697a.48.48 0 0 0 .34-.157.456.456 0 0 0 .342-.054c4.078-2.376 6.066-10.004 1.64-13.07-.86-3.481 2.27-5.747 4.357-7.998 1.414-1.524 2.333-3.178 2.67-5.248.415-2.534.226-5.192.205-7.748-.02-2.412-.078-4.823-.133-7.233.185-.194.229-.521-.013-.727-.015-.62-.017-1.24-.034-1.86-.008-.29-.22-.443-.444-.47.017-.163-.05-.324-.253-.412a18.376 18.376 0 0 0-4.412-1.271c-.027-.021-.05-.045-.081-.061a.512.512 0 0 0-.037-.301 10.325 10.325 0 0 1-.828-2.754c-.1-.635-1.064-.365-.965.266.149.933.435 1.82.809 2.683-2.101-.306-4.776-.86-4.517-3.557.062-.64-.94-.636-1 0-.166 1.718.875 3.102 2.397 3.836.954.46 2.027.589 3.064.728.367.049.723.107 1.078.167-.16.176-.201.434.042.624.047.037.097.07.145.107.234 2.058.634 4.306.914 6.588a.497.497 0 0 0 .058.494c.525 4.588.479 9.262-2.485 12.75-3.024 3.559-7.685 6.38-7.368 11.63-3.358.19-6.715.406-10.07.649 1.15-.598 2.212-1.353 3.096-2.377.87-1.007 1.384-2.106 1.744-3.376.397-1.407.517-2.758 1.495-3.942.552-.668 1.26-1.192 1.895-1.775 2.807-2.576 2.558-5.538 2.785-9.147.15-2.361.613-4.934.32-7.293-.202-1.627-.955-2.92-1.89-4.2a.563.563 0 0 0 .046-.372.4.4 0 0 0-.052-.414c-1.931-2.727-.396-6.002-.32-9.074.019-.713.082-1.547-.222-2.218-.522-1.156-2.455-1.71-2.433-3.14.004-.301-.213-.455-.446-.475v-.007c-.16-1.303-.466-2.6-1.274-3.67-1.1-1.453-3.23-1.974-3.837-3.804-.202-.608-1.168-.348-.965.266.756 2.275 3.303 2.72 4.396 4.756M639.302 77.927c-3.904 7.32-9.687 13.413-15.068 19.652-.42.486.284 1.196.707.707 5.435-6.3 11.28-12.46 15.223-19.855.304-.567-.558-1.073-.862-.504M643.812 80.107a13.438 13.438 0 0 0-9.54-10.22c-.62-.175-.887.79-.267.965 4.526 1.277 7.891 4.919 8.843 9.52.13.63 1.094.364.964-.265"/>
        <path fill="#071F2C" d="M653.963 111.555c.466-.445-.241-1.15-.707-.707-4.221 4.032-10.116 2.554-15.083.998-.615-.193-.88.772-.266.964 5.346 1.675 11.558 3.042 16.056-1.255M642.05 118.171c4.69-.314 9.843.872 13.624-2.64.472-.439-.236-1.145-.707-.708-3.525 3.276-8.563 2.056-12.916 2.348-.64.043-.644 1.044 0 1M650.879 123.894c-.927.436-1.778.975-2.585 1.604-.508.394.205 1.097.707.707a12.488 12.488 0 0 1 2.383-1.448c.582-.273.074-1.136-.505-.863M651.662 126.183c-.422.482.282 1.192.707.707 1.73-1.981 3.487-3.918 5.617-5.483 1.453-1.068 3.013-1.978 4.392-3.146 3.029-2.566 5.097-6.025 7.106-9.395.33-.555-.534-1.058-.863-.505-2.177 3.65-4.413 7.301-7.857 9.9-3.353 2.528-6.304 4.719-9.102 7.922M629.445 162.06a189.524 189.524 0 0 0 19.958-3.37c.627-.14.361-1.105-.267-.963a186.77 186.77 0 0 1-19.691 3.334c-.632.073-.639 1.073 0 1M629.103 165.779a31.907 31.907 0 0 1 7.707-1.647c.637-.056.643-1.056 0-1a33.01 33.01 0 0 0-7.973 1.683c-.604.208-.344 1.175.266.964M691.746 124.928c1.329-4.598 1.117-9.37 1.058-14.108-.067-5.315-.174-10.63-.323-15.944-.146-5.26-.386-10.516-.553-15.775-.077-2.4-.51-5.8.668-7.987 1.589-2.952 5.396-2.547 8.117-1.957.627.135.895-.828.265-.964-3.404-.739-8.043-.869-9.526 3.067-.748 1.984-.596 4.395-.56 6.468.052 3.06.228 6.12.337 9.18.218 6.141.382 12.286.492 18.431.112 6.331.839 13.17-.94 19.323-.18.62.786.884.965.266"/>
        <path fill="#071F2C" d="M704.471 84.574c1.883.354 1.746 1.633 1.846 2.906.116 1.493.18 2.992.27 4.487.18 2.99.36 5.982.538 8.972l.51 8.475c.086 1.448.356 3.034.27 4.486-.173 2.88-1.638 3.596-3.979 3.543-.053-.001-.095.014-.139.026.03-5.946-.343-11.901-.675-17.851-.277-4.933-.474-9.868-.362-14.81.528-.126 1.21-.33 1.721-.234m5.838 15.623c.064.845.235 2.072-.207 2.807-.36.599-1.114.925-1.784 1.137l-.223-3.7a138.767 138.767 0 0 1-.173-4.492c2.138.053 2.261 2.577 2.387 4.248m-9.107-30.705c1.105 5.023.666 10.09.537 15.184-.127 4.984.094 9.966.373 14.942.58 10.352 1.358 20.752-.263 31.054-.1.629.864.9.964.265.656-4.166.918-8.343.971-12.526.044.015.087.03.142.032 2.354.053 4.58-.395 4.977-3.057.351-2.355-.216-5.097-.359-7.468l-.165-2.75c2.891-.874 3.155-2.836 2.868-5.677-.22-2.187-.763-4.558-3.353-4.545-.083-2.911-.198-5.84-.663-8.632-.429-2.568-2.234-2.96-4.465-2.524v-.02c.156-4.881.457-9.736-.6-14.544-.137-.63-1.102-.363-.964.266M614.885 194.01c-.215-.25-.502-.185-.678.001.145-4.008.47-8.006.952-11.988a.4.4 0 0 0-.1-.34c.41-1.303 1.351-2.558 1.852-3.75.406-.967.73-1.96.996-2.973 1.95-1.726 4.43-1.916 6.902-2.13-.07 1.19.295 2.105.972 3.114 1.07 1.595 1.86 2.683 2.27 4.642.321 1.536.578 3.007 1.411 4.358.845 1.37 2.046 2.458 2.84 3.877 1.785 3.19 2.683 6.953 3.976 10.358.236.621.494 1.232.737 1.851-.039.014-.077.022-.117.05a61.15 61.15 0 0 0-9.175 7.804 315.691 315.691 0 0 1-1.903-2.182l-10.935-12.693m19.651 23.51c-1.795-2.809-3.955-5.367-6.154-7.88a59.775 59.775 0 0 1 9.002-7.683 197.871 197.871 0 0 0 3.15 7.47 41.809 41.809 0 0 0-5.998 8.093m-.628 1.38c.118.395.706.508.914.118.03-.056.065-.108.095-.164a.477.477 0 0 0 .154-.263 41.013 41.013 0 0 1 6.958-9.308c.456-.456-.25-1.163-.707-.707-.018.018-.034.038-.05.055a185.695 185.695 0 0 1-4.194-10.15c-1.087-2.884-1.93-5.907-3.197-8.717-1.324-2.938-3.923-5.029-4.632-8.229-.303-1.375-.464-2.787-1.145-4.045-.883-1.629-2.448-2.696-2.296-4.75a19.542 19.542 0 0 0 1.922-.279c3.235-.659 6.014-2.458 9.247-3.209-.346.664-1.373 2.563-1.458 2.93a5.603 5.603 0 0 0 .098 2.974c.287.897.806 1.73 1.555 2.313 1.123.873 2.623.902 3.736 1.811.495.404 1.206-.3.707-.708-.658-.536-1.259-.792-2.055-1.085-1.825-.67-3.163-1.768-3.202-3.877-.033-1.678 1.006-2.546 1.545-3.95.122-.318.193-.466.195-.636 8.046-1.357 16.171-2.355 24.248-3.517-.094 1.863-.067 3.78.773 5.28.316.561 1.18.057.864-.506-.8-1.425-.528-3.329-.513-4.899l.044-4.767.084-9.055c.007-.644-.993-.645-1 0a20123.8 20123.8 0 0 1-.102 10.962c-.006.621-.048 1.29-.09 1.976l-13.418 1.94c-4.41.638-8.965 1.01-13.306 2.025-1.748.41-3.232 1.094-4.85 1.84-2.01.927-3.92 1.33-6.128 1.541-2.313.223-4.528.443-6.45 1.64.587-2.867.742-5.793.78-8.712.008-.645-.992-.645-1 0-.043 3.261-.229 6.54-1.039 9.711-.083-1.268-.337-2.494-.84-3.674-.59-1.38-1.832-2.492-2.195-3.946-.155-.624-1.12-.36-.964.266.304 1.22 1.172 2.068 1.78 3.14.824 1.454 1.204 3.035 1.254 4.696.011.4.4.55.69.454-.827 2.43-2.71 4.737-2.863 7.248a.415.415 0 0 0 .187.392 140.744 140.744 0 0 0-.855 11.2c-.142 4.136.381 8.5-.518 12.564-.837 3.79-1.687 6.961-1.599 10.88.1 4.364-.146 8.612-.97 12.91-.12.627.844.897.965.264a58.427 58.427 0 0 0 1.031-12.283c-.042-2.025-.164-4.063.157-6.074.345-2.156 1.193-4.196 1.568-6.346.625-3.59.241-7.346.337-10.973.004-.16.014-.322.02-.482 3.435 3.988 6.871 7.978 10.308 11.966 3.211 3.728 6.682 7.363 9.313 11.541-.016.251.004.327.107.673M596.637 192.489a64.537 64.537 0 0 0 1.08 13.058c.116.63 1.08.364.963-.266a63.294 63.294 0 0 1-1.043-12.792c.013-.644-.987-.644-1 0"/>
        <path fill="#071F2C" d="M632.348 192.363c-4.049-.602-8.063-1.27-11.616-3.428-.552-.336-1.055.53-.505.864 3.62 2.199 7.725 2.914 11.855 3.529.63.094.902-.87.266-.965M629.303 261.257l15.526-9.34.153.387c.237.59 1.205.332.964-.266a333.515 333.515 0 0 1-3.372-8.737c.91-.08 1.8-.242 2.676-.503.615-.183.354-1.148-.265-.964-.806.24-1.623.402-2.46.474a.494.494 0 0 0-.269.11c-.328-.89-.646-1.786-.966-2.68a10.498 10.498 0 0 0 2.191-.238c.628-.136.362-1.1-.266-.964a9.376 9.376 0 0 1-2.285.203c-.258-.73-.535-1.455-.788-2.188-.112-.325-.213-.655-.324-.98a14.493 14.493 0 0 0 1.708-.175c.632-.107.364-1.07-.266-.964a12.24 12.24 0 0 1-1.769.15c-.459-1.356-.91-2.714-1.348-4.077.285-.039.573-.047.871.01.63.117.898-.847.266-.965a3.975 3.975 0 0 0-1.458-.016c-.066-.204-.138-.406-.203-.61a96.89 96.89 0 0 1-.48-1.563c.69-.026 1.38-.05 2.07-.078.642-.024.645-1.024 0-1l-2.349.088c-.55-2.065-.86-4.157-.286-6.305.166-.623-.798-.888-.964-.266-.575 2.154-.4 4.404.11 6.64-.506.147-.472.992.125.97.038-.003.075-.004.113-.005.68 2.53 1.71 5.021 2.502 7.318-.257.257-.156.813.3.861.352 1.034.711 2.068 1.074 3.098-.48.085-.43.917.145.988.07.01.138.01.21.017 1.35 3.79 2.777 7.55 4.267 11.288l-15.657 9.42c-.55.33-.049 1.195.504.862M632.06 262.091c3.164-1.96 6.454-3.679 9.796-5.294l25.866-.546c.643-.013.646-1.014 0-1l-23.669.5a470.28 470.28 0 0 1 4.553-2.097c.585-.265.077-1.127-.505-.863a334.217 334.217 0 0 0-6.48 3.011l-.917.02c-.384.007-.535.367-.459.652-2.962 1.46-5.875 3.01-8.69 4.754-.546.338-.044 1.203.505.863M512.028 219.882a197.473 197.473 0 0 0-3.054 36.93c.008.642 1.008.643 1 0a196.155 196.155 0 0 1 3.018-36.664c.112-.629-.852-.899-.964-.266M467.178 262.442l-1.292-43.863c0-.036-.015-.064-.022-.096a146.183 146.183 0 0 0 25.218 1.673c.643-.013.646-1.013 0-1a144.848 144.848 0 0 1-23.324-1.402c1.664-.358 3.5-.284 5.13-.36 2.12-.1 4.241-.188 6.363-.265a607.78 607.78 0 0 1 12.738-.32c.642-.01.644-1.01 0-1-4.9.073-9.799.2-14.696.394-3.684.145-8.524-.452-11.862 1.32-.208.11-.263.376-.198.596a.437.437 0 0 0-.347.46l1.292 43.863c.02.643 1.02.646 1 0M509.577 275.397c-12.488.615-24.99.75-37.49.405-.643-.017-.643.983 0 1 12.5.346 25.002.21 37.49-.405.64-.032.645-1.032 0-1M503.992 279.608a375.06 375.06 0 0 1-16.12.32c-.643 0-.644 1 0 1a375.06 375.06 0 0 0 16.12-.32c.642-.026.645-1.026 0-1M466.28 274.978c-2.161-.257-4.364-.512-6.44-1.207-.913-.305-2.606-.73-3.003-1.726-.346-.868.36-.807 1.189-1.077.719-.234 1.449-.37 2.2-.47.63-.082.638-1.082 0-1-1.372.183-6.48.945-4.523 3.253.994 1.174 3.108 1.782 4.54 2.187 1.97.558 4.012.799 6.038 1.04.638.075.633-.926 0-1M457.046 276.458a12.165 12.165 0 0 1-5.537-2.307c-.517-.384-1.016.483-.505.864a12.81 12.81 0 0 0 5.776 2.408c.629.096.9-.868.266-.965M502.128 79.368c.395.776.682 1.572.896 2.38-.547.266-1.093.532-1.64.8-.58.281-.072 1.144.504.862l1.368-.665c.226 1.183.314 2.393.35 3.611l-1.633.737c-.586.263-.078 1.126.505.862l1.146-.516c.004.409.004.817.003 1.225-.005 3.296-.018 6.632-.603 9.888-.176.982-1.084 2.922-.025 3.75 1.086.847 3.836-.218 4.973-.393.634-.097.365-1.06-.266-.964-.291.046-.693.145-1.131.236a.496.496 0 0 0 .043-.18c.012-.416-.045-.787-.098-1.196-.082-.629-1.083-.638-1 0 .058.446.11.754.098 1.195a.439.439 0 0 0 .117.325c-.885.111-1.761.053-2.142-.639-.186-.338.502-2.503.565-2.944.342-2.371.432-4.767.459-7.16.014-1.195.034-2.4.015-3.596l.569-.257c.586-.263.077-1.126-.505-.862l-.094.041c-.107-2.43-.476-4.817-1.611-7.043-.293-.575-1.156-.069-.863.504"/>
        <path fill="#071F2C" d="M507.835 95.294c-.155.18-.198.45-.025.644a32.211 32.211 0 0 0 .13 3.684c.058.635 1.059.642 1 0a33.296 33.296 0 0 1-.144-3.084l.237.135c.56.32 1.065-.545.505-.863l-.71-.405c.028-.683.073-1.369.155-2.057.086-.726.34-3.777.956-5.307.34.023.656-.39.467-.749.04-.035.082-.073.126-.094 1.368-.649 1.833.452 1.989 1.617-.2.192-.135.494.06.673.028.556.009 1.05.01 1.275a74.67 74.67 0 0 1-.048 2.955c-.03.87-.081 1.74-.132 2.61-.433.077-.864.17-1.291.285-.62.17-.357 1.135.266.965.32-.089.644-.164.97-.23a392.73 392.73 0 0 1-.228 3.257c-.046.642.954.638 1 0 .082-1.13.179-2.276.267-3.424l.048-.008c.622-.07.636-1.036.028-.998.043-.61.079-1.223.11-1.835.175-.043.35-.07.543-.067.645.013.645-.987 0-1a2.917 2.917 0 0 0-.497.033 40.79 40.79 0 0 0-.04-3.88 3.96 3.96 0 0 1 .728-.176c.63-.08.638-1.082 0-1a5.899 5.899 0 0 0-.802.162c-.103-.987-.33-2.139-1.086-2.62.067-.183.148-.359.248-.537.316-.56-.548-1.065-.863-.504a4.709 4.709 0 0 0-.362.833c-.043.003-.075-.009-.12-.003-.72.087-1.223.49-1.596 1.031a5.412 5.412 0 0 0-.516-.368c-.551-.336-1.054.53-.505.864.203.123.382.264.552.415-.276.69-.45 1.442-.606 2.055a28.191 28.191 0 0 0-.824 5.716M498.927 84.497a8.249 8.249 0 0 1 .214-1.67c.147-.627-.817-.894-.964-.267a9.579 9.579 0 0 0-.25 1.937c-.017.644.983.644 1 0"/>
        <path fill="#071F2C" d="M511.216 91.159c-.06-.366-.216-.644-.45-.926-.412-.495-1.115.216-.707.707.125.15.161.297.191.486.103.632 1.065.364.966-.267M497.404 102.49a5.378 5.378 0 0 0-.086 1.31c.042.639 1.042.643 1 0a4.244 4.244 0 0 1 .051-1.044c.114-.63-.849-.9-.965-.266M500.529 95.427l.846-.956c.425-.48-.28-1.19-.707-.707-.283.318-.564.638-.846.956-.425.48.28 1.19.707.707M497.208 94.195l-.631-.466c-.517-.383-1.017.485-.505.863l.63.466c.52.383 1.019-.484.506-.863M497.114 89.882a9.716 9.716 0 0 0-1.429-1.395c-.499-.394-1.212.308-.707.708.526.416.999.88 1.429 1.394.412.495 1.117-.215.707-.707M500.16 90.353l-1.644.406c-.625.155-.36 1.119.266.965l1.644-.407c.624-.154.36-1.118-.266-.964M500.682 106.796l.624-.397c.541-.345.04-1.21-.505-.864l-.624.398c-.54.345-.04 1.211.505.863M500.143 102.953c.191.102.32.218.451.388.395.508 1.098-.204.708-.706a1.978 1.978 0 0 0-.654-.546c-.567-.302-1.073.56-.505.864M498.54 114.961c.644 0 .645-1 0-1-.644 0-.645 1 0 1M497.756 110.425c.5.394 1.213-.309.707-.707l-.395-.31c-.5-.393-1.213.31-.708.707l.396.31M496.453 99.624c-.644 0-.645 1 0 1 .644 0 .645-1 0-1M499.323 99.703c0 .644 1 .644 1 0 0-.397-.058-.775-.186-1.15-.206-.608-1.171-.346-.964.264.1.298.15.574.15.886M494.208 86.211c.644 0 .645-1 0-1-.644 0-.645 1 0 1M489.6 109.954l-.396-.468c-.416-.49-1.122.22-.707.707l.396.468c.417.49 1.122-.22.707-.707M489.194 112.71h-.078c-.643.006-.645 1.006 0 1h.078c.644-.006.645-1.006 0-1"/>
        <path fill="#071F2C" d="M626.196 125.703c-8.723 1.072-17.407 2.132-26.178 2.77-8.031.583-16.072.985-24.114 1.381l1.87-1.099c.554-.326.051-1.191-.506-.864l-2.808 1.654a.446.446 0 0 0-.233.394c-9.045.446-18.089.905-27.117 1.609a.436.436 0 0 0-.419-.248l-.366.01c1.904-1.069 3.91-1.837 5.975-2.428l.115.026a.489.489 0 0 0 .513-.2c3.158-.846 6.439-1.31 9.693-1.805 6.805-1.035 13.491-2.616 20.159-4.308 6.538-1.66 12.97-3.558 19.438-5.459 6.965-2.047 14.117-2.573 21.331-2.968.639-.034.644-1.035 0-1-1.739.095-3.479.194-5.216.319a8.875 8.875 0 0 0 1.363-5.535.493.493 0 0 0-.125-.287c.479-.065.959-.143 1.475-.22 2.039-.305 3.788-.05 5.755.48 2.669.716 5.331 1.462 7.994 2.2-.812 2.44-1.127 4.974-2.058 7.4-.893 2.328-.83 5.771-2.509 7.68-1.53.06-3.124.386-4.032.498m-132.022-.898c.564.077 1.127.141 1.69.186.013 2.365.071 4.711.529 7.04.125.63 1.089.362.965-.267-.437-2.219-.482-4.46-.493-6.714a29.12 29.12 0 0 0 5.435-.261 93.423 93.423 0 0 0-.725 7.634c-2.074.059-4.15.121-6.225.181-.001-.016.005-.03.002-.048l-1.178-7.75m31.281 3.716a37.58 37.58 0 0 0 6.429-3.51c.166-.114.336-.228.508-.344a.405.405 0 0 0 .454.305 27.679 27.679 0 0 1 7.845.41.5.5 0 0 0 .525-.216c1.04.58 2.327.971 3.207 1.332a43.227 43.227 0 0 0 5.949 1.941c-1.957.666-3.852 1.514-5.645 2.657a.472.472 0 0 0-.197.254c-8.869.189-17.739.403-26.608.626 2.092-1.839 5.008-2.38 7.533-3.456m10.066-6.922l3.612.105c.096.862.292 1.669.68 2.272.068.106.16.2.246.296a28.625 28.625 0 0 0-6.636-.33c.864-.643 1.652-1.387 2.098-2.343m1.159-46.356c.481.42.997.595 1.548.718-.908 11.14 1.337 22.261.984 33.422-.087 2.769-.217 5.538-.157 8.308.018.82-.036 1.916.006 3.01l-3.205-.092c.607-2.363.314-5.23.405-7.596.488-12.614.586-25.239.334-37.858.03.028.054.063.085.088m-.004-2.731c.256-.636.956-.72 1.546-.69.832.04 1.968.316 2.205 1.245.199.774-.204 1.666-.854 2.148-.003-.002-.004-.004-.008-.005-.993-.218-1.963-.215-2.594-1.138-.288-.422-.5-1.05-.295-1.56m12.14-3.106c.013-.004.021-.013.033-.017.177.394.352.787.529 1.178-2.686.439-5.399 1.527-7.954 2.428a2.226 2.226 0 0 0-.762-1.3 114.33 114.33 0 0 1 8.154-2.29m-70.362 76.386a107.28 107.28 0 0 1-.348-4.828c40.548-.547 81.136-1.677 121.512-5.673a789.564 789.564 0 0 0 33.351-4.01.399.399 0 0 0 .262-.143 40.537 40.537 0 0 1-.523 5.398c-.103.63.861.9.964.266.309-1.901.524-3.806.571-5.733.031-1.24.378-3.42-.259-4.587-.445-.813-1.401-1.154-2.517-1.253 1.082-1.71 1.065-3.819 1.657-5.791.459-1.53 1.186-2.959 1.584-4.507.084-.333.155-.664.225-.995 1.923 1.763 3.231 3.97 3.645 6.575.239 1.504-.176 3.426.864 4.71.408.502 1.05.784 1.569 1.14 1.324.91 2.462 2.035 3.321 3.4.878 1.397 1.324 2.87 2.755 3.809.54.354 1.042-.512.505-.864-1.617-1.062-2.172-3.358-3.378-4.814-1.612-1.94-4.171-2.901-4.485-5.62-.432-3.746-1.415-6.743-4.365-9.3a.51.51 0 0 0-.207-.11c.166-.828.352-1.65.61-2.468.121.035.242.07.364.103.539.148.808-.56.463-.86.202-.93 1.57-1.947 1.952-2.826.582-1.34.818-2.806 1.427-4.169.369-.824.718-1.644.786-2.558.121-1.596-.583-3.038-.275-4.675.478-.549.848-1.056 1.036-1.924.186-.85.116-1.683-.066-2.51a.498.498 0 0 0 .298-.297 22.704 22.704 0 0 0 1.414-6.048 135.026 135.026 0 0 1 3.385 9.587c.19.614 1.156.352.964-.265a134.825 134.825 0 0 0-4.008-11.157.51.51 0 0 0-.243-.261c.001-.11.014-.218.012-.326-.006-.644-1.006-.645-1 0 .025 2.547-.396 4.994-1.215 7.383-.724-2.169-1.75-4.296-.589-6.507.3-.569-.563-1.075-.863-.504-1.751 3.333.832 6.032.944 9.384.088 2.628-1.846 3.18-2.741 5.17-.662 1.474-.454 3.26-.597 4.828-.06.64.941.636 1 0 .185-2.028.1-3.647 1.235-5.3.043.602.142 1.197.201 1.879.191 2.162-.603 3.377-1.313 5.307-.17.465-.247.942-.409 1.4-.042.118-.094.21-.139.319-.016-.007-.025-.016-.041-.02a80.053 80.053 0 0 0-13.795-1.837c-.644-.029-.643.971 0 1a78.56 78.56 0 0 1 13.359 1.767c-.337.53-.72 1.004-1.125 1.593-.328.478-.534.797-.605 1.234-3.111-.868-6.214-1.787-9.346-2.567-1.15-.288-2.318-.544-3.513-.507-1.628.052-3.157.541-4.78.56-.334-1.665.256-3.22.037-4.886-.123-.937-.471-1.7-.454-2.684.017-1.004.393-2.014.577-2.993.6-3.17.012-6.355.198-9.543.413-7.024 4.925-16.35 12.998-16.122.643.02.643-.98 0-1-7.562-.214-11.56 6.744-13.34 13.208-1.491-3.553.749-8.632 2.036-11.944 1.557-4.01 3.626-7.776 6.074-11.31.368-.53-.499-1.03-.863-.504-2.828 4.081-5.13 8.486-6.777 13.173-.548 1.566-1.214 3.343-1.611 5.145-1.54-2.364-4.563-3.17-6.802-4.861-.036-.029-.072-.037-.108-.053.339-.524.633-1.003.87-1.387 1.417-2.297 3.75-5.092 3.963-7.889.229-3.005-2.341-5.934-3.799-8.35-.332-.552-1.197-.05-.863.503 1.026 1.703 2.342 3.441 3.122 5.279 1.269 2.989-.404 5.166-1.897 7.663-1.434 2.398-5.957 11.73-9.539 7.415-.412-.496-1.116.216-.707.707 2.953 3.559 6.257-.128 8.332-3.161a.572.572 0 0 0 .121.136c2.305 1.742 5.906 2.5 6.954 5.5.019.056.05.099.082.14-.185 1.706-.025 3.382.819 4.874a.45.45 0 0 0 .296.228c-.741 4.07.215 8.204-.611 12.277-.323 1.6-.556 2.845-.342 4.468.268 2.028-.147 4.103.24 6.091-.235.266-.113.83.363.864.493.035.953.017 1.406-.017a.467.467 0 0 0-.023.195c.153 1.834-.263 3.534-1.258 5.085a.428.428 0 0 0 .018.52c-4.76.365-9.494.947-14.117 2.218-6.959 1.912-13.823 4.079-20.825 5.856-6.806 1.729-13.628 3.326-20.576 4.371-3.252.49-6.519.978-9.661 1.852-2.271-.49-4.502-1.114-6.673-1.951-1.1-.427-3.151-1.016-4.083-1.838-1.329-1.172-1.301-2.88-1.391-4.425-.295-5.042.206-10.087.158-15.132-.089-9.37-1.77-18.666-1.096-28.041 1.129-.305 1.977-1.25 2.208-2.405 2.679-.934 5.574-2.169 8.398-2.559 3.864 8.584 7.697 17.18 11.546 25.77.018.04.044.063.067.093-.289.275-.188.883.318.865l5.828-.2c.642-.02.645-1.02 0-1l-.509.019c-5.665-9.519-7.726-20.607-12.914-30.35-2.77-5.204-6.218-10.02-8.828-15.314-2.663-5.407-4.548-11.143-6.388-16.87a1.04 1.04 0 0 0 .129-.297c.036-.167.009-.37-.128-.488a.724.724 0 0 0-.315-.166c-.218-.57-1.143-.313-.949.291l.129.404c-.138.102-.286.202-.352.255l-.978.83c-.616.523-1.233 1.044-1.85 1.566-.491.417.219 1.12.708.707l2.175-1.842c.171-.145.401-.303.633-.475 1.674 5.192 3.404 10.38 5.717 15.327 2.569 5.497 6.076 10.454 8.992 15.76 5.383 9.796 7.473 21.02 13.09 30.7l-3.723.126a.505.505 0 0 0 .012-.447c-4.53-10.106-9.026-20.228-13.591-30.319-2.072-4.58-4.909-8.688-7.112-13.19-2.437-4.98-4.558-10.128-6.803-15.197-.26-.587-1.121-.079-.863.505 2.181 4.927 4.257 9.919 6.595 14.773 2.243 4.657 5.184 8.892 7.32 13.614l.682 1.52a114.002 114.002 0 0 0-8.444 2.38.483.483 0 0 0-.304.27 4.639 4.639 0 0 0-1.209-.281c-1.576-.153-3.043.666-2.855 2.424.025.234.088.459.167.675a.435.435 0 0 0-.207.398c.253 11.9.19 23.805-.215 35.702a493.198 493.198 0 0 1-.342 8.423c-.118 2.32-.747 3.584-2.607 4.954a35.933 35.933 0 0 1-3.191 2.09c-2.371 1.386-4.872 2.43-7.463 3.334-1.861.65-3.557 1.358-4.959 2.787a.463.463 0 0 0-.14.38c-4.697.12-9.393.255-14.09.386.136-2.555.369-5.1.722-7.636.006-.047-.003-.088-.008-.132.192-.032.384-.063.577-.1a.407.407 0 0 0 .334-.298.454.454 0 0 0 .232-.402l.061-3.455c.002-.025.012-.046.009-.075l-.006-.06c-.033-.345-.324-.5-.585-.47a.412.412 0 0 0-.379-.162c-.502.037-1.005.064-1.508.093.2-1.776.412-3.55.631-5.323.083.032.17.053.253.09.582.261 1.091-.6.505-.864a7.234 7.234 0 0 0-.641-.241c.071-.626.121-1.286.188-1.945.164.01.327.02.491.04.637.08.631-.921 0-1-.122-.015-.244-.02-.366-.028.06-.394.132-.778.235-1.14.417-1.484 1.118-2.07 2.282-2.517.119.122.23.253.36.368.48.424 1.189-.28.707-.707l-.011-.01c2.415-.684 6.032-.925 6.253-4.005.046-.643-.954-.64-1 0-.061.841-.544 1.402-1.254 1.82l-1.035-.811c-.5-.394-1.213.308-.707.706.242.19.484.382.725.57-1.095.398-2.425.656-3.651 1.016a5.757 5.757 0 0 1-.433-.585c-.342-.543-1.208-.043-.863.504.092.146.202.278.304.417-1.053.408-1.927.963-2.322 1.88-.321.748-.484 1.6-.592 2.465a9.424 9.424 0 0 0-1.665.206c-.629.136-.363 1.1.265.964a8.057 8.057 0 0 1 1.294-.167c-.054.584-.099 1.158-.168 1.697l-.002.016c-.054-.01-.106-.028-.162-.035-.629-.085-.901.877-.265.965.104.013.206.042.309.06-.233 1.885-.46 3.77-.672 5.657-1.291.063-2.582.096-3.874.114.739-5.755-.699-11.471-1.865-17.142.48-.094.631-.86.069-.962-.09-.014-.182-.031-.273-.047a78.064 78.064 0 0 1-.487-2.656l-.078-.456 1.011.185c.629.116.899-.848.266-.964-.485-.088-.969-.178-1.453-.267-.16-.933-.321-1.867-.475-2.802.523.087.723-.766.164-.982-.108-.041-.222-.065-.334-.09-.359-2.306-.645-4.621-.682-6.95-.018-1.064-.038-2.255.104-3.4.41.246.824.483 1.22.757.531.367 1.031-.5.505-.864a23.113 23.113 0 0 0-1.538-.956c.217-.904.583-1.74 1.2-2.407a4.58 4.58 0 0 1 1.635-1.123l.126.404c.192.612 1.158.352.965-.264l-.137-.442c1.065-.24 2.212-.24 3.333-.184-.234.415.202 1.034.652.697a10.558 10.558 0 0 0 1.721-1.6c.416-.486-.288-1.197-.707-.706-.213.25-.439.486-.674.715a.507.507 0 0 0-.224-.066c-1.395-.079-2.964-.112-4.399.194l-.713-2.28c-.192-.613-1.156-.351-.964.266l.714 2.282c-1.153.406-2.163 1.099-2.838 2.276a7.512 7.512 0 0 0-.693 1.701c-.439-.225-.874-.457-1.329-.653-.585-.253-1.095.608-.505.863.548.237 1.077.51 1.601.788-.401 2.257-.169 4.83.107 7.052a10.11 10.11 0 0 0-1.086-.379c-.62-.174-.886.791-.266.964.471.132.927.293 1.37.498.043.02.083.022.124.03l.077.592c.087.678.188 1.353.286 2.03a2.6 2.6 0 0 1-.515-.135c-.601-.232-.86.735-.266.965.294.115.609.154.924.195.141.939.291 1.879.444 2.816l-1.332-.245c-.629-.115-.899.849-.265.965l1.766.325c.175 1.046.354 2.093.535 3.138-.534.032-.727.856-.139.962l.314.055c.119.692.24 1.382.358 2.073.625 3.635 1.541 7.066 1.78 10.629-1.163-.385-2.323-.622-3.565-.59-2.131.05-4.278.7-4.6-2.192-.009-.08-.01-.16-.019-.237l-.002-.023a36.202 36.202 0 0 1-.178-3.883c.386-.08.61-.662.17-.916-.053-.031-.107-.047-.16-.075.014-.49.039-.98.072-1.47l.289.058c.628.13.896-.834.265-.965-.158-.031-.315-.064-.473-.097l.166-1.344c.733-1.444 1.201-1.599 1.404-.462.401.663.611 1.38.718 2.128l-.498.422c-.455.384.118 1.005.594.768.054 1.858-.229 3.806.356 5.475.609 1.74 2.989 1.084 4.487 1.103.645.007.645-.993 0-1-1.264-.016-2.867.38-3.597-1.047-.33-.645-.209-1.934-.199-2.837l1.174-.674c.558-.32.055-1.186-.505-.864l-.73.42a26.176 26.176 0 0 0-.129-1.269c.22-.184.44-.37.658-.556.492-.417-.218-1.121-.707-.707l-.136.115c-.131-.66-.298-1.311-.563-1.931-.388-.91-.932-1.356-1.475-1.406l-.07-.861c-.053-.636-1.053-.642-1 0l.097 1.174c.002.023.012.038.016.058-.242.23-.454.566-.627 1-.404-.206-.809-.41-1.213-.614-.574-.288-1.081.573-.505.864l1.252.632c.06.03.12.041.177.05a11.46 11.46 0 0 0-.193 1.145l-.286-.058c-.628-.13-.898.834-.267.964l.463.096c-.028.472-.04.944-.043 1.413a2.858 2.858 0 0 0-.783.049c-.629.13-.363 1.094.266.963.18-.037.351-.04.518-.022l.006.685c.006.853-.035 1.878.009 2.894a184.08 184.08 0 0 1-1.024-.084c-.64-.052-.637.95 0 1l1.104.091c.084.719.232 1.403.504 1.983.386.823.992 1.201 1.888 1.344.907.147 2.012-.233 2.893-.29 1.42-.093 2.733.18 4.055.649a21.494 21.494 0 0 1-.183 3.55c-.964.002-1.929-.003-2.893-.026a.45.45 0 0 0-.35.14c-.226.028-.44.18-.453.47a31.231 31.231 0 0 1-.288 3.006c-.092.629.872.9.965.266.139-.957.234-1.915.294-2.88 3.361.072 6.713-.011 10.066-.258l-.052 2.98c-3.261.624-6.51.68-9.79.144-.514-.085-.779.535-.518.825l1.228 8.08c-5.329.155-10.659.294-15.988.464-.642.02-.646 1.02 0 1 22.338-.712 44.68-1.298 67.025-1.767a.408.408 0 0 0 .455.308c15.902-1.282 31.852-1.751 47.773-2.74 7.87-.488 15.734-1.107 23.566-2.024 3.736-.437 7.471-1.12 11.221-1.4 2.551-.19 4.787-.162 4.836 3.184.004.304-.006.605-.01.907a.529.529 0 0 0-.533-.252c-39.935 5.679-80.254 7.958-120.55 9.002-11.365.296-22.733.492-34.102.645a107.653 107.653 0 0 1-.088-5.626c.007-.645-.993-.646-1 0-.04 3.828.123 7.642.49 11.454.06.636 1.061.642 1 0"/>
        <path fill="#071F2C" d="M580.645 48.368c2.163-1.314 2.065-4.218 4.01-5.657.511-.378.012-1.246-.506-.864-1.958 1.451-1.943 4.404-4.008 5.658-.55.334-.048 1.2.504.863M630.506 262.724c-.63-.109-.9.854-.265.965 2.67.463 3.26 4.416 1.087 5.697-1.332.787-3.092 1.019-4.592.629a6.777 6.777 0 0 1-1.662-.669c-.65-.374-2.037-1.585-2.042-2.487-.005-1.281.976-2.457 2.133-2.783.865-.244 1.808-.25 2.7-.278.644-.02.645-1.021 0-1-2.323.072-5.932.467-5.908 3.535.023 2.767 3.03 4.548 5.462 4.814 2.258.247 5.443-.607 6.397-2.931.887-2.17-1.125-5.113-3.31-5.492M720.843 263.054a.483.483 0 0 0 .341-.433c2.318.308 5.401 2.125 4.012 4.966-.915 1.868-3.409 2.418-5.3 2.401-2.426-.022-4.932-1.848-3.29-4.397.927-1.44 2.701-2.029 4.237-2.537m-5.774 4.06c-.163 3.026 3.057 4.01 5.528 3.842 2.498-.169 5.568-1.367 5.891-4.228.358-3.182-2.766-4.837-5.443-5.127-.337-.037-.489.224-.47.49-2.404.795-5.35 2.082-5.506 5.022"/>
        <g transform="translate(0 254.496)">
            <mask id="b" fill="#fff">
                <use xlink:href="#a"/>
            </mask>
            <path fill="#071F2C" d="M.477.203c-.639-.068-.634.933 0 1C21.274 3.418 42.15 4.596 63.044 4.83c-.02-.348-.027-.694-.016-1.042C42.148 3.558 21.29 2.418.478.203" mask="url(#b)"/>
        </g>
        <path fill="#071F2C" d="M462.99 253.54c-7.098.184-14.188.621-21.29.711-7.4.094-14.512-.536-21.828-1.553-13.556-1.885-27.477 1.365-41.036 1.984-30.382 1.385-60.81 1.17-91.21.653-30.947-.525-61.895-1.37-92.85-1.17-30.5.197-60.89 2.176-91.35 3.468-4.174.177-8.35.32-12.524.43.26.325.499.66.718 1 .305-.009.608-.012.913-.02 30.437-.973 60.805-3.305 91.262-3.762 61.387-.92 122.768 2.894 184.149.831 8.237-.277 16.465-.59 24.664-1.455 7.837-.828 15.74-1.868 23.636-1.33 3.81.26 7.553 1.082 11.355 1.447 3.92.377 7.865.498 11.802.495 7.869-.01 15.726-.526 23.59-.729.643-.016.645-1.016 0-1M558.3 255.059a1599.447 1599.447 0 0 0-41.495-.964c-.644-.007-.645.993 0 1 13.835.142 27.668.463 41.496.964.643.022.642-.978 0-1M619.238 254.331l-7.382.082c-.642.007-.644 1.007 0 1l6.459-.072c2.232-.026 4.852-.46 6.96.348.601.232.861-.735.266-.963-1.968-.756-4.23-.418-6.303-.395M695.82 254.908a86.749 86.749 0 0 0-20.437-.901c-.637.047-.642 1.047 0 1a85.67 85.67 0 0 1 20.171.866c.63.1.901-.861.266-.965M765.41 255.694l-48.353-.23c-.644-.003-.645.997 0 1l48.354.23c.644.003.645-.997 0-1M561.79 255.718c3.705-.316 7.414-.538 11.13-.666.642-.02.645-1.02 0-1-3.716.128-7.425.35-11.13.666-.637.054-.642 1.055 0 1M594.315 249.189c-.643.018-.645 1.018 0 1a6.218 6.218 0 0 1 3.022.664c.574.29 1.08-.572.505-.863a7.275 7.275 0 0 0-3.527-.801M643.721 215.61a.437.437 0 0 0 .457-.326c.592.146 1.142.415 1.326 1.047.304 1.034-.618 2.305-1.63 2.48-.98.17-2.292-.67-2.543-1.651-.36-1.41 1.405-1.584 2.39-1.55m-3.477 1.272c.03 1.536 1.82 2.928 3.268 2.967 1.553.04 2.891-1.371 3.023-2.873.163-1.857-1.394-2.587-2.974-2.814-.343-.05-.572.214-.614.478-1.314.125-2.73.703-2.703 2.242M645.339 73.582l-3.394-3.046c-.477-.429-1.186.276-.707.707 1.13 1.016 2.263 2.031 3.394 3.046.478.43 1.187-.276.707-.707M642.68 66.986l-2.129-1.52c-.524-.375-1.023.493-.504.864l2.128 1.52c.525.374 1.025-.492.505-.864M581.47 43.42c-1.044-.984-2.403-1.376-3.813-1.14-.632.108-.364 1.071.267.965 1.043-.175 2.072.16 2.838.882.47.441 1.177-.265.707-.707M494.226 270.943c.634-.065.641-1.066 0-1-4.31.439-8.638.482-12.95.036a60.48 60.48 0 0 1-7.178-1.185c-1.45-.33-7.5-1.16-6.463-3.671.245-.594-.722-.854-.965-.266-2.787 6.75 24.183 6.43 27.556 6.086M509.44 259.433c-.284 1.288-.249 2.553-.255 3.865-.005 1.135.252 3.194-.357 4.126-.58.89-2.959 1.257-4 1.456-1.539.295-3.084.339-4.643.241-.642-.042-.64.959 0 1 2.687.169 6.953.056 9.183-1.725.703-.563.656-1.109.718-2.014.154-2.204-.16-4.519.32-6.682.138-.628-.826-.896-.966-.267M514.255 266.873c-.593-.247-.852.72-.266.964.879.367 1.307 1.06.367 1.774-.393.298-.9.5-1.34.71a27.408 27.408 0 0 1-3.46 1.356c-.61.195-.35 1.162.266.965a30.059 30.059 0 0 0 3.117-1.188c.853-.385 1.944-.784 2.56-1.533 1.11-1.35.058-2.506-1.244-3.048"/>
        <path fill="#071F2C" d="M628.602 58.269c12.537-2.81 25.793 2.555 32.877 13.256 3.89 5.877 6.58 12.609 9.601 18.953 1.627 3.42 3.497 6.822 4.835 10.367 1.616 4.278.82 8.265-.377 12.526-.174.62.791.885.964.265 1.05-3.735 1.982-7.508.945-11.355-.986-3.657-3.03-7.11-4.649-10.51-3.525-7.406-6.582-15.515-11.442-22.176-7.456-10.218-20.717-15.047-33.02-12.291-.628.14-.362 1.106.266.965M541.78 32.25A791.168 791.168 0 0 1 591.02.935c.555-.326.052-1.19-.505-.864a791.479 791.479 0 0 0-49.24 31.314c-.525.362-.026 1.23.506.863M571.731 97.488a571.678 571.678 0 0 0 40.76 1.798c.643.005.644-.995 0-1a571.678 571.678 0 0 1-40.76-1.798c-.642-.051-.639.949 0 1M552.56 39.203a27.32 27.32 0 0 0-7.284 3.256c-.54.345-.04 1.21.505.864a26.413 26.413 0 0 1 7.044-3.156c.618-.174.355-1.14-.266-.964M572.611 85.099a601.86 601.86 0 0 1 22.997-.448c.644-.001.645-1.001 0-1a601.86 601.86 0 0 0-22.997.448c-.642.025-.645 1.025 0 1M564.754 72.917a35.755 35.755 0 0 0 5.878-.568c.633-.114.365-1.078-.266-.965a33.962 33.962 0 0 1-5.612.533c-.643.008-.645 1.008 0 1M563.779 61.448l-3.243.54c-.634.106-.365 1.07.265.965l3.244-.541c.633-.106.365-1.07-.266-.964M558.05 49.041a17.068 17.068 0 0 1-4.115 1.737c-.62.171-.357 1.136.264.964a18.098 18.098 0 0 0 4.355-1.837c.556-.326.053-1.19-.505-.864M667.592 158.52l-.029-3.335c-.005-.644-1.005-.644-1 0l.03 3.335c.005.644 1.005.646 1 0M719.879 268.081c.703.126 1.446-.178 1.712-.88.26-.686-.065-1.444-.687-1.8-.56-.319-1.063.544-.504.864.439.252.308.953-.255.852-.63-.112-.9.851-.266.964M626.83 266.747c-.64.028-.644 1.028 0 1 1.59-.07 2.156-2.205.665-2.928-.577-.279-1.084.583-.505.864.537.26.512 1.034-.16 1.064M467.518 221.988l-.028 40.262c0 .643 1 .644 1 0l.028-40.262c.001-.644-.999-.645-1 0M506.5 263.615a723.602 723.602 0 0 0 3.348-40.57c.035-.643-.965-.641-1 0a723.602 723.602 0 0 1-3.347 40.57c-.07.639.93.634 1 0M607.03 272.306c-.154.09-.276.126-.456.09-.628-.123-.897.841-.266.965.443.087.836.035 1.228-.192.557-.322.054-1.187-.505-.863M590.404 269.34c.641.06.636-.942 0-1a22.055 22.055 0 0 1-5.047-1.076c-.611-.206-.873.76-.265.964 1.73.583 3.495.945 5.312 1.111M584.55 269.925a38.04 38.04 0 0 1-8.202-2.39c-.592-.249-.851.718-.265.963a38.042 38.042 0 0 0 8.2 2.392c.63.11.9-.855.266-.965"/>
        <path fill="#071F2C" d="M625.677 280.376a460.24 460.24 0 0 1-35.409-4.6c-5.565-.947-11.127-1.97-16.63-3.226-2.358-.538-17.205-4.51-14.35-9.022.345-.546-.52-1.048-.865-.505-2.466 3.9 4.69 7.025 7.278 8.143 5.785 2.5 12.358 3.402 18.514 4.546 13.72 2.547 27.567 4.394 41.462 5.664.64.06.636-.94 0-1M611.391 283.647c-18.166-1.306-36.512-2.711-53.853-8.681-.61-.21-.872.756-.265.964 17.423 5.998 35.867 7.405 54.118 8.717.642.046.64-.954 0-1M721.426 275.685c3.861-.896 7.69-1.92 11.474-3.106 2.46-.773 5.209-1.436 6.44-3.924.284-.575-.577-1.082-.864-.505-1.4 2.83-5.698 3.448-8.467 4.26a158.575 158.575 0 0 1-8.85 2.31c-.626.147-.36 1.11.267.965M751.16 270.5c-6.68 4.788-14.731 6.597-22.675 8.09-9.031 1.697-18.146 2.89-27.288 3.808-.635.064-.641 1.065 0 1 9.23-.927 18.435-2.13 27.554-3.844 8.028-1.509 16.165-3.352 22.915-8.192.518-.372.019-1.24-.505-.863M737.094 282.073a122.687 122.687 0 0 1-23.375 3.01c-.642.02-.645 1.02 0 1a124.034 124.034 0 0 0 23.641-3.046c.628-.143.362-1.108-.266-.964M682.88 266.57c5.783-.048 11.563.047 17.34.285.643.027.642-.973 0-1a350.492 350.492 0 0 0-17.34-.285c-.643.006-.644 1.006 0 1M680.25 270.766l27.339.612c.644.014.644-.986 0-1l-27.34-.612c-.643-.015-.643.985 0 1M661.064 267.577l-16.166.142c-.644.005-.645 1.005 0 1l16.166-.142c.644-.005.645-1.005 0-1M661.259 270.742l-12.167.107c-.644.006-.644 1.006 0 1l12.167-.107c.644-.006.644-1.006 0-1M684.828 278.83a314.484 314.484 0 0 1-33.992.875c-.644-.019-.644.981 0 1 11.342.321 22.682.03 33.992-.875.638-.052.643-1.052 0-1M661.802 170.938a82.347 82.347 0 0 1-23.962 2.026c-.643-.04-.64.96 0 1a83.259 83.259 0 0 0 24.227-2.062c.626-.147.361-1.111-.265-.964M696.756 70.178a230.93 230.93 0 0 0 .178 33.49c.05.636 1.05.642 1 0a230.93 230.93 0 0 1-.178-33.49c.043-.643-.957-.64-1 0M696.478 125.672a931.707 931.707 0 0 0 1.741-18.728c.054-.64-.947-.637-1 0a931.707 931.707 0 0 1-1.74 18.728c-.066.64.934.635 1 0M495.59 148.809c-.063.64.938.636 1 0a3.07 3.07 0 0 0-.136-1.259c-.195-.611-1.161-.349-.966.266.108.335.137.642.103.993M606.147 143.44l-.158 1.247c-.082.637.92.63 1 0l.158-1.246c.082-.637-.919-.631-1 0M605.866 43.678a5.106 5.106 0 0 0-.021 3.27c.199.61 1.165.348.963-.266a4.191 4.191 0 0 1 .022-2.738c.209-.61-.757-.872-.964-.266M604.449 47.327c-.134-.113-.221-.21-.234-.393-.048-.637-1.048-.643-1 0 .032.44.186.812.527 1.1.489.412 1.2-.292.707-.707M606.225 61.434c.028 1.389.156 2.764.374 4.135.101.634 1.064.364.964-.266a28.338 28.338 0 0 1-.338-3.869c-.014-.643-1.014-.645-1 0M608.51 54.595c-.437.471.268 1.18.707.708.705-.758 1.65-1.364 1.893-2.437.173-.769-.14-1.542-.842-1.916-.727-.386-1.57-.245-2.279.106-.774.382-1.736.95-1.926 1.852-.13.628.832.897.965.267.174-.834 1.928-1.73 2.702-1.367 1.382.646-.735 2.266-1.22 2.787M710.678 86.906a20 20 0 0 1-.193-3.51c.02-.642-.98-.642-1 0-.037 1.27.045 2.522.23 3.777.092.633 1.056.364.963-.267M716.63 110.425a18.193 18.193 0 0 1 1.715 4.733c.134.63 1.098.364.964-.265a19.114 19.114 0 0 0-1.816-4.972c-.301-.569-1.164-.064-.863.504M731.178 112.88c.644 0 .645-1 0-1-.644 0-.645 1 0 1M704.106 190.182l4.977 8.626c.322.558 1.186.055.863-.504-1.658-2.876-3.318-5.751-4.977-8.627-.32-.557-1.185-.054-.863.505M454.052 109.855l6.966-.683c.635-.061.64-1.062 0-1l-6.966.683c-.635.063-.64 1.063 0 1M457.167 102.16l3.656-.626c.633-.109.365-1.073-.265-.965-1.22.21-2.438.418-3.657.626-.632.11-.364 1.073.266.965M559.468 210.26c5.313-3.087 10.628-6.175 15.941-9.26.557-.325.054-1.189-.504-.865l-15.942 9.261c-.557.323-.054 1.187.505.863M552.475 198.276a24.175 24.175 0 0 1 8.542-3.191c.633-.11.364-1.074-.267-.964a24.972 24.972 0 0 0-8.78 3.29c-.549.335-.047 1.2.505.865M656.956 102.284v.84c0 .642 1 .644 1 0v-.84c0-.643-1-.645-1 0M660.53 103.183c-.643 0-.645 1 0 1s.645-1 0-1M715.403 150.517c-.094.652-.187 1.305-.279 1.957-.09.63.873.901.964.266.092-.653.186-1.305.279-1.957.09-.629-.873-.901-.964-.266M710.573 160.656c.644 0 .645-1 0-1-.643 0-.645 1 0 1M561.15 161.522a14.426 14.426 0 0 1 3.007-3.524c.491-.417-.219-1.122-.707-.707a15.248 15.248 0 0 0-3.164 3.726c-.334.553.53 1.056.863.505M567.587 160.408l.279-.56c.287-.573-.575-1.08-.863-.503l-.28.559c-.286.573.576 1.08.864.504M511.52 136.333c.644 0 .645-1 0-1h-3.634c-.643 0-.644 1 0 1h3.634zM529.413 136.333c.644 0 .645-1 0-1h-1.118c-.644 0-.645 1 0 1h1.118zM533.746 136.584c.045.013.087.028.14.028h.559c.644 0 .645-1 0-1h-.56c-.052 0-.094.016-.138.03-.045-.014-.087-.03-.141-.03-.643 0-.644 1 0 1 .054 0 .096-.015.14-.028M583.928 127.226h-1.118c-.644 0-.645 1 0 1h1.118c.644 0 .645-1 0-1M621.391 121.634h-1.678c-.643 0-.644 1 0 1h1.678c.643 0 .645-1 0-1M616.772 123.833c-1.21.281-2.422.562-3.633.845-.627.145-.36 1.11.266.965l3.633-.846c.627-.146.361-1.11-.266-.964M505.03 232.004l-.278-3.634c-.05-.637-1.05-.642-1 0l.279 3.634c.05.638 1.05.644 1 0M502.944 245.293a3.907 3.907 0 0 0 .292 2.352c.262.586 1.123.08.864-.505a2.722 2.722 0 0 1-.192-1.58c.11-.63-.853-.9-.964-.267M658.357 92.193c-.194-.293-.39-.586-.585-.878-.355-.532-1.222-.032-.863.505l.585.877c.355.533 1.221.033.863-.504M705.79 101.378a25.908 25.908 0 0 1-.273-5.424c.033-.642-.967-.64-1 0-.1 1.912.01 3.8.31 5.691.1.633 1.064.364.964-.267M713.923 93.804l4.389-1.17c.62-.166.356-1.13-.268-.964l-4.386 1.17c-.621.165-.359 1.13.265.964M640.459 154.404l1.11-.74c.534-.356.034-1.222-.504-.864-.371.248-.741.495-1.111.74-.533.356-.032 1.223.505.864M861.81 256.145c-29.889-.507-59.773-1.226-89.657-1.942-.644-.016-.644.984 0 1 53.456 1.283 106.918 2.569 160.392 2.644 4.325.007 8.65-.014 12.972-.03a11.03 11.03 0 0 1-.297-1.157c-27.798.103-55.597-.043-83.41-.515M1178.018 257.944c-25.758 4.639-51.87.946-77.704-.92-26.37-1.903-52.83-1.725-79.247-1.231-14.21.264-28.419.472-42.624.625.202.238.415.46.614.703.11.133.205.269.31.404 10.923-.148 21.848-.333 32.773-.557 26.593-.545 53.221-.978 79.792.52 28.713 1.617 57.723 6.576 86.352 1.42.631-.113.364-1.078-.266-.964M459.056 210.933c-2.282 1.305-3.718 3.539-4.026 6.14-.077.637.924.631 1 0 .266-2.242 1.582-4.161 3.531-5.277.558-.319.055-1.183-.505-.863M451.426 212.202a2.524 2.524 0 0 1 1.608-1.704c.605-.208.344-1.174-.267-.964a3.576 3.576 0 0 0-2.305 2.403c-.18.62.785.882.964.265"/>
    </g>
</svg>
