<svg width="389" height="389" viewBox="0 0 389 389" xmlns="http://www.w3.org/2000/svg" xmlns:xlink="http://www.w3.org/1999/xlink"><title>raised-hands</title><defs><path d="M0 0h1440v825.683h-158.234c-45.553 0-61.297-9.528-173.723-9.528H907.289c-42.969 0-45.363 9.528-110.098 9.528-60.76 0-97.765-8.824-131.527-9.854-33.762-1.03-72.85.326-74.41.326-25.406 0-60.39 9.528-79.223 9.528-18.832 0-39.414-4.705-85.832-4.705-46.418 0-62.066 9.41-140.445 4.705-78.379-4.705-152.692 0-198.07 0H0V0z" id="a"/><path id="c" d="M2.23376141e-16 4.16778282L2.23376141e-16 0.186333452 2.00612923 0.186333452 2.00612923 4.16778282 0 4.16778282z"/></defs><g fill="none" fill-rule="evenodd" transform="translate(-539 -437)"><mask id="b" fill="#fff"><use xlink:href="#a"/></mask><g mask="url(#b)"><g transform="translate(763 437)"><path d="M156.144 78.269c-1.25-.085-2.553.348-3.703 1.494-.808.424-1.6.871-2.37 1.349a6.225 6.225 0 0 0-1.388.528 16.097 16.097 0 0 0-4.982 4.006c-2.853 2.936-5.086 6.44-7.327 9.984a325.768 325.768 0 0 0-5.84 9.605c-.71 1.214-1.273 2.435-1.958 3.482a5.886 5.886 0 0 0-1.323 1.009 4.713 4.713 0 0 1-2.497 1.723 9.043 9.043 0 0 0-1.373-1.408c-2.693-2.248-3.356-4.439-4.319-7.837-1.833-6.474-2.816-13.055-3.12-19.766.405-1.135.43-2.48.08-3.691.03-.149.06-.298.078-.454a145.304 145.304 0 0 0 .911-24.109c.122-.482.19-.999.166-1.569a62.199 62.199 0 0 0-1.225-9.993c-.075-3.041-.026-6.106-.412-9.126.594-4.205.223-8.813-.31-11.849-.218-1.246-.74-2.17-1.44-2.815-.07-.177-.139-.354-.217-.527-.513-2.012-1.352-3.816-2.769-5.022-1.442-2.176-4.14-3.335-6.92-1.398l-.915.638c-1.567 1.093-2.389 2.873-2.488 4.647-.099.439-.157.91-.153 1.423l.001.984a9.506 9.506 0 0 0-.003 1.481c-.019 3.847-.08 7.722.314 11.536.182 1.765.392 4.039 1.062 6.038-1.592 4.965-.548 9.939-1.117 15.315-.297 2.808-1.144 5.437-.966 8.294.11 1.764.432 3.385.58 4.984-.37 1.862-.884 3.687-1.623 5.453a6.353 6.353 0 0 0-2.718 1.173l-.75.053c-.127-2.239-.448-4.503-.575-6.632a476.63 476.63 0 0 1-.74-19.604 5.81 5.81 0 0 0 .006-2.36l-.245-1.261a5.25 5.25 0 0 0-.445-1.323c-.119-2.73-.839-5.449-1.906-7.51-.069-.132-.167-.238-.247-.361l-1.706-7.167a4.97 4.97 0 0 0 .64-2.389c.033-5.766-1.094-11.275-3.35-16.445.063-.982-.208-2.003-.947-2.971a66.884 66.884 0 0 0-.862-1.112l.002-.001-.07-.083c-.13-.162-.26-.319-.392-.473a5.647 5.647 0 0 0-1.65-1.833c-.774-.668-1.64-1.013-2.519-1.095-2.018-.392-4.232.222-5.67 2.41-.174.263-.348.527-.52.791-.807 1.226-.908 2.792-.499 4.234a6.112 6.112 0 0 0 .035 2.222c.891 4.596 1.811 9.197 2.414 13.841.573 4.413.525 8.892 1.458 13.247-.32 2.839-.182 5.951.326 8.809-.434 4.815-.938 9.755-.276 14.462.373 2.654 1.488 5.288 1.414 7.982-.005.169-.559 2.885-1.228 4.582a6.03 6.03 0 0 0-.525.133 5.345 5.345 0 0 1-2.725.492c-1.364-6.215-2.265-12.36-3.107-18.696-.915-6.881-4.057-13.242-5.209-20.132-.218-1.304-.777-2.241-1.517-2.888-.334-1.775-.696-3.562-1.045-5.353a139.48 139.48 0 0 0-.976-6.901c.288-.868.378-1.858.194-2.947-.352-2.074-1.34-3.553-2.667-5.121-1.196-1.412-2.647-1.895-4.043-1.744-1.306-.054-2.665.417-3.86 1.644-1.683 1.725-2.105 3.177-2.377 5.496-.116.992.077 1.84.47 2.557.482 9.804 2.22 19.454 4.193 29.057.024 5.76.482 11.516 2.101 17.055 1.04 3.554 3.373 7.28 3.644 11.028.156 2.164-.497 4.3-1.262 6.418a58.925 58.925 0 0 0-5 3.683c-1.412-2.78-2.147-5.913-3.157-8.968-1.306-3.949-2.97-7.628-5.602-10.764a6.42 6.42 0 0 0-.676-2.388l-.167-.334c-.35-.699-.998-1.327-1.726-1.798-1.886-6.592-6.795-26.652-16.38-20.805-1.502.916-2.963 2.87-2.724 4.749.396 3.132 1.805 6.121 2.882 9.084 1.125 3.095 2.196 6.223 4.137 8.913.15.209.314.404.481.592 1.474 4.091 3.006 8.163 4.997 12.055 1.532 2.995 3.186 5.994 4.734 9.045.087 3.572.898 7.026 1.725 10.557 1.134 4.847 1.834 9.69 2.273 14.646.817 9.228 1.138 18.6 3.477 27.61 2.3 8.861 7.158 16.776 9.583 25.586 2.237 8.13 2.735 16.904 3.527 25.382-.705 7.107.248 14.002.397 21.158.178 8.494-.654 17.012-.862 25.503a489.685 489.685 0 0 0 .041 25.566c.026.938.051 1.874.083 2.809-.877 5.077-1.458 10.211-1.265 15.353.287 7.592 1.848 15.066 2.11 22.681.573 16.622.512 33.287.741 49.916.005.38.052.732.116 1.071-.38 8.323-.655 16.651-.829 24.981-1.355 7.278-2.599 14.575-3.424 21.935-1.07 9.547-.97 19.093-.925 28.682.043 8.805-.339 17.701 1.015 26.426.722 4.652 1.418 9.268 1.977 13.901-.389 9.77.023 19.519 1.595 29.294 2.56 15.907 2.747 30.861.892 46.885-.452 3.907-.955 7.808-1.437 11.712-.377 3.045-.942 6.182.382 9.096 2.761 6.08 10.878 6.299 16.651 6.784 15.453 1.295 30.663-3.133 46.163-.928 5.04.717 7.991-4.701 6.531-8.087.015-.174.026-.35.027-.533.047-28.881-6.066-57.535-12.084-85.671a24.64 24.64 0 0 1-.094-.611c-.757-5.383-1.379-10.786-1.946-16.192-1.018-9.715-1.816-19.452-2.612-29.187.218-.57.347-1.168.336-1.777-.458-25.453-1.335-50.753 2.684-75.997.065-.411.088-.807.077-1.189.057-.406.072-.798.048-1.173 1.573-6.501 2.695-12.981 2.487-19.765-.28-9.134-.92-18.3-1.648-27.407-1.443-18.048-5.606-35.948-5.72-54.078a6.124 6.124 0 0 0-.112-1.111c-.185-6.033-1.035-11.988-1.832-17.957.973-10.251.394-20.883-.466-31.202.248-2.565.514-5.13.753-7.696.136-1.461-.234-2.613-.905-3.465.11-1.797.201-3.593.357-5.378.474-2.568.924-5.139 1.351-7.715.15-.498.307-.994.487-1.487.048-.13.082-.256.12-.383.936-.879 1.576-2.129 1.638-3.761.247-6.426 6.538-11.071 10.038-15.945 3.693-5.142 6.508-10.883 10.186-16.07 3.431-4.838 6.823-9.642 9.077-15.166 2.064-5.055 1.666-12.697 5.241-16.901a6.268 6.268 0 0 0 1.172-2.047c.954-.629 1.723-1.622 2.111-3.045 1.417-5.208 3.835-9.914 7.311-14.013.28-.132.557-.267.845-.395 5.916-2.629 1.717-10.803-3.966-9.959" fill="#EFEBD3"/><path d="M27.504 42.491c6.173-2.11 9.163 5.257 10.677 9.71 1.354 3.982 2.575 8.12 4.303 11.968 1.87 4.164 5.112 7.598 7.008 11.764 1.08 2.372 1.735 4.843 2.653 7.266.32.846.682 1.842 1.204 2.583-.007-.009.907 1.153.79.61.136.63 1.1.363.964-.266a17.425 17.425 0 0 1-.021-.1.498.498 0 0 0-.35-.35c-1.13-.3-1.874-3.427-2.13-4.285a38.56 38.56 0 0 0-1.343-3.854c-.83-2.007-1.732-3.956-2.858-5.82-1.372-2.273-2.95-4.41-4.29-6.706-1.243-2.132-1.84-4.548-2.757-6.83-1.59-3.955-2.472-8.366-4.622-12.072-1.881-3.242-5.571-5.924-9.494-4.582-.605.207-.345 1.173.266.964" fill="#1D1E1B"/><path d="M51.248 89.316c2.884-1.473 5.19-3.696 8-5.244 2.517-1.385 5.258-3.42 8.13-3.956.632-.117.365-1.081-.265-.964-2.656.496-5.446 2.33-7.768 3.69-2.969 1.74-5.532 4.043-8.602 5.61-.573.293-.068 1.156.505.864" fill="#1D1E1B"/><path d="M58.767 83.363l.101.08c.231.18.63.218.785-.102.734-1.517.772-3.927.73-5.585-.067-2.531-.84-4.661-1.787-6.973-1.02-2.491-1.758-5.111-2.264-7.751-.258-1.35-.378-2.763-.465-4.134-.029-.445-.513-2.804-.315-3.136.331-.554-.533-1.057-.863-.505-.288.482-.1.91-.026 1.43.144 1.007.156 1.962.223 2.964.164 2.46.673 4.893 1.354 7.25.738 2.558 1.904 4.949 2.646 7.495.654 2.248.974 6.227-.097 8.44l.786-.1-.1-.08c-.5-.394-1.213.309-.708.707m-4.164-30.111c-.84-5.035.534-9.94-1.25-14.876-.217-.6-1.184-.341-.964.267 1.76 4.87.419 9.886 1.25 14.874.106.633 1.069.364.964-.266m-2.75-19.25c-.466-2.608-.622-5.242-1.066-7.847-.445-2.61-1.124-5.454-1.064-8.116.09-4.059 2.815-7.925 7.349-7.06 4.644.888 5.005 5.322 5.33 9.176.436 5.177 1.064 10.293 2.414 15.332.7 2.614.995 5.347 1.826 7.919.354 1.096.652 2.276 1.127 3.328.488 1.086 1.308 2.3 1.352 3.527.024.64 1.024.644 1 0-.046-1.28-.623-2.293-1.174-3.42-.678-1.39-1.13-2.943-1.56-4.43-.92-3.182-1.45-6.546-2.152-9.783-.82-3.775-1.46-7.522-1.74-11.375-.211-2.934-.094-6.592-2.107-9.017-1.748-2.106-4.981-2.582-7.496-2.117-2.37.44-4.151 2.766-4.781 5-.747 2.647-.3 5.595.149 8.255.612 3.62.98 7.273 1.629 10.894.113.633 1.077.364.964-.266m17.711 18.136c.286.463.263 1.274.353 1.787.21 1.203.61 2.352.808 3.552.33 1.986.632 3.92 1.13 5.875.923 3.64.903 7.433 2.034 11.04.191.614 1.157.352.964-.264-1.154-3.685-1.117-7.575-2.096-11.285-.537-2.036-.719-4.12-1.142-6.176-.287-1.393-.432-3.813-1.188-5.034-.338-.546-1.203-.044-.863.505" fill="#1D1E1B"/><path d="M71.004 75.741c1.702-.542 3.46-.35 5.16-.957 1.69-.602 3.28-.899 5.082-.9.644 0 .645-1 0-1-1.483.001-3.058.09-4.474.565-1.22.41-2.176.834-3.506.907-1.001.054-1.574.117-2.528.421-.61.194-.35 1.16.266.964" fill="#1D1E1B"/><path d="M77.427 73.637c2.51-3.59 1.395-7.845.668-11.808-.864-4.722-.099-9.1-.1-13.82 0-.643-1-.644-1 0 .001 4.154-.586 8.033-.159 12.209.438 4.294 2.498 8.95-.272 12.914-.37.529.497 1.029.863.505m-.125-28.375c.47-.938.194-2.224.193-3.24 0-1.995-.019-3.985-.094-5.972-.089-2.37-.345-4.714-.674-7.048-.089-.635-1.052-.365-.964.265.291 2.066.435 4.157.601 6.238.131 1.636.13 3.26.13 4.904.002 1.07.432 3.374-.055 4.348-.287.574.575 1.08.863.505m-1.306-19.253c-.121-4.169-1.444-8.166-2.122-12.248-.69-4.152-1.655-11.108 3.877-12.487 6.52-1.626 8.714 5.651 9.688 10.591.795 4.03 1.933 8.386 1.807 12.52-.02.643.98.642 1 0 .157-5.137-1.243-10.765-2.53-15.702-1.218-4.669-3.857-9.314-9.314-8.52-4.231.613-6.18 4.476-6.156 8.464.034 5.887 2.579 11.505 2.75 17.382.019.642 1.019.645 1 0m13.568-.127c-.446 1.02-.044 1.956.152 3.003.414 2.208.714 4.419 1.266 6.604.583 2.309 1.187 4.614 1.87 6.897.751 2.522.894 4.89.894 7.509 0 4.039.377 8.04.377 12.069 0 2.143.094 4.294.123 6.442.021 1.613-.117 3.73.518 5.236.245.585 1.214.328.964-.265-.618-1.467-.456-4.143-.482-5.707-.034-2.05-.104-4.091-.124-6.14-.036-3.75-.376-7.455-.376-11.211 0-1.838.101-3.68-.223-5.495-.384-2.147-1.133-4.271-1.73-6.368-.624-2.188-1.186-4.39-1.573-6.634-.177-1.025-1.26-4.363-.793-5.435.255-.584-.606-1.094-.863-.505" fill="#1D1E1B"/><path d="M87.996 74.01c4.755-.359 9.709 2.36 14.002-.444.537-.35.037-1.217-.504-.864-2.403 1.57-4.868 1.233-7.535.677a21.005 21.005 0 0 0-5.963-.37c-.638.048-.643 1.048 0 1" fill="#1D1E1B"/><path d="M96.998 74.316c2.18-1.454 2.83-4.85 2.873-7.278.03-1.622.087-3.232.141-4.85.062-1.914-.674-5.247 1.616-6.197.586-.242.33-1.211-.265-.964-2.77 1.15-2.295 4.13-2.367 6.61-.1 3.382.743 9.65-2.503 11.816-.533.355-.033 1.222.505.863" fill="#1D1E1B"/><path d="M100.129 56.991l.104-.02c.234-.049.34-.272.367-.483.362-2.906-.092-5.949.08-8.874.12-2.037.122-8.969 2.574-9.748.61-.194.35-1.16-.266-.964-2.924.93-2.813 5.581-3.205 8.04-.21 1.313-.193 11.141.08 11.085-.63.13-.363 1.094.266.964" fill="#1D1E1B"/><path d="M101.87 38.76c.052-1.53-.55-2.942-.772-4.453-.393-2.648-.09-5.294-.102-7.95-.021-4.886-1.973-11.518 3.4-14.33 2.638-1.38 6.523.98 8.04 3.073 1.47 2.03 1.64 4.636 1.849 7.036.436 5.04.96 10.061 1.357 15.102.017.21.143.436.368.482l.103.021c.628.13.897-.834.266-.964.16.033-.552-9.193-.633-10.015-.265-2.67-.256-5.463-.744-8.1-.79-4.269-5.31-9.129-10.093-7.933-1.766.441-3.593 2.093-4.388 3.696-1.22 2.46-.888 5.132-.677 7.743.252 3.13-.043 6.224.038 9.346.064 2.437 1.068 4.866.989 7.245-.021.644.979.643 1 0M57.748 54.066c1.027-.66 2.53-.79 3.712-.94.6-.076 1.196-.058 1.792-.115.194-.02.804.016.64-.148.455.456 1.162-.251.707-.707-.274-.276-.38-.255-.743-.248-.796.016-1.663.118-2.459.219-1.343.17-2.99.329-4.154 1.076-.539.346-.038 1.212.505.863m.625 1.5c.484-.358 1.471-.423 2.043-.457.7-.042 1.384-.187 2.08-.225.64-.035.644-1.035 0-1-.885.049-1.807.166-2.686.28-.61.08-1.436.165-1.942.539-.512.378-.014 1.246.505.863m-3.627-17.182c2 .17 4.553.616 6.377-.568.539-.349.038-1.215-.504-.864-1.664 1.08-4.067.584-5.873.432-.641-.054-.638.946 0 1m6.747-3.931c-.476.356-.98.463-1.557.554-.656.104-1.3.248-1.948.396-.628.142-.362 1.107.265.964 1.213-.276 2.72-.283 3.745-1.051.51-.381.011-1.25-.505-.863m15.731-6.84c1.107-.888 2.548-1.116 3.906-1.371 1.264-.236 2.823-.731 4.103-.714l-.5-.5c.004.036.01.07.012.106.074.632 1.075.64 1 0l-.012-.106c-.03-.271-.203-.496-.5-.5-1.595-.021-3.426.549-4.992.872-1.38.285-2.613.614-3.724 1.506-.502.403.21 1.106.707.707" fill="#1D1E1B"/><path d="M79.12 28.26c2.003-.089 3.869-.879 5.876-.876.644.001.645-.999 0-1-2.022-.003-3.865.786-5.875.875-.641.028-.645 1.028 0 1m.318 18.503c.665.896 2.514.65 3.477.624 1.953-.053 3.591-.954 5.462-1.27.634-.106.365-1.07-.265-.963-1.266.213-2.428.842-3.703 1.078-.763.14-1.525.175-2.298.155-.258-.007-1.664.067-1.81-.13-.379-.51-1.247-.012-.863.506m1.684-1.196c.546-.254 1.391-.147 1.993-.286.736-.17 1.441-.41 2.132-.714.587-.26.08-1.121-.505-.863-.79.349-1.689.645-2.553.743-.56.064-1.048.013-1.572.257-.583.27-.076 1.134.505.863m12.625.512c-.804-.344-1.61-.807-2.51-.55-.618.176-.355 1.14.265.964.598-.171 1.208.22 1.74.449.586.25 1.095-.61.505-.863M37.871 60.884c-1.02.118-2.062.45-3.033.774-.952.317-1.624.922-2.321 1.622-.454.457.253 1.165.708.708.67-.675 1.27-1.189 2.2-1.464.792-.233 1.625-.545 2.446-.64.632-.073.639-1.074 0-1m.146 1.647c-.404.319-.97.42-1.459.542-.607.15-1.214.313-1.82.455-.627.145-.362 1.109.265.963a70.779 70.779 0 0 0 2.18-.546c.565-.151 1.08-.342 1.541-.707.505-.398-.207-1.102-.707-.707" fill="#1D1E1B"/><path d="M25.19 42.757c-.965 2.124-1.723 3.523-1.565 6.006.174 2.729 1.46 5.242 2.381 7.779 1.923 5.285 4.384 10.198 6.307 15.49 1.81 4.977 4.082 9.44 6.623 14.08a28.97 28.97 0 0 1 2.954 7.905c.608 2.8.433 5.935 1.374 8.625.211.604 1.177.344.964-.265-.858-2.455-.799-5.524-1.27-8.087-.435-2.362-1.13-5.168-2.236-7.325-2.164-4.225-4.778-8.115-6.484-12.594-1.006-2.64-1.754-5.401-2.854-7.998-.886-2.09-2.234-3.994-3.03-6.112-1.035-2.743-2.083-5.53-3.014-8.31-.478-1.43-.8-2.864-.753-4.385.058-1.797.773-2.778 1.465-4.304.264-.582-.597-1.091-.863-.505" fill="#1D1E1B"/><path d="M43.1 96.113c.437-.548.64-1.231.968-1.844a7.921 7.921 0 0 1 1.531-2.031c.468-.444-.24-1.15-.707-.707a8.589 8.589 0 0 0-1.446 1.809c-.388.644-.586 1.48-1.054 2.066-.398.498.305 1.209.707.707m1.043-20.332c-1.295 1.437-3.645.988-5.149 2.047-.522.367-.023 1.235.505.863.854-.6 2.16-.693 3.147-.995.816-.251 1.621-.561 2.204-1.208.43-.477-.275-1.186-.707-.707m-.146-1.272c-.751-.004-1.416.065-2.14.273-.696.202-1.243.555-1.862.92-.554.327-.052 1.192.504.864.553-.326 1-.636 1.625-.819.627-.184 1.22-.24 1.873-.238.644.003.645-.997 0-1m36.375-5l-.082-.007c-.503-.042-.668.702-.252.932.658.364 1.432.394 2.165.49 1.065.135 2.099.097 3.169.085.643-.007.645-1.007 0-1-.891.01-1.755.066-2.644-.025-.681-.07-1.583-.08-2.186-.413l-.252.931.082.007c.64.054.638-.946 0-1m-18.979 6.229c1.165 1.063 2.89.81 4.236.253.587-.242.33-1.21-.265-.963-.969.4-2.39.8-3.264.003-.475-.433-1.184.272-.707.707m41.596-21.247c1.497.487 2.894 1.116 4.472 1.357 1.458.224 2.944.152 4.411.286.64.06.637-.942 0-1-1.567-.143-3.169-.036-4.715-.352-1.357-.279-2.597-.83-3.902-1.255-.614-.2-.876.766-.266.964m1.005 2.7c1.553 1.106 3.751.286 5.495.8.618.183.882-.781.265-.964-.8-.236-1.653-.272-2.484-.276-.936-.004-1.963.152-2.77-.423-.527-.374-1.027.492-.506.863m11.646-18.424c.307 1.845.168 3.811.38 5.682.155 1.356.37 2.702.516 4.06.418 3.891.449 7.841.275 11.753-.285 6.443-.85 12.793-.82 19.267a122.41 122.41 0 0 0 1.597 19.202c.457 2.791 1.442 5.984 2.766 8.48.83 1.566 2.929 4.017 4.635 4.405.627.143.894-.82.266-.964-.874-.198-2.797-2.153-3.356-2.903-.893-1.197-1.655-3.159-2.121-4.556-.938-2.812-1.125-5.633-1.615-8.52-1.11-6.559-1.441-13.508-1.174-20.17.233-5.84.874-11.669.875-17.515 0-3.376-.036-6.638-.506-9.986-.395-2.814-.29-5.718-.754-8.5-.106-.634-1.07-.365-.964.265" fill="#1D1E1B"/><path d="M106.62 104.26c2.97.001 4.937 1.182 7.042 3.15 1.467 1.37 3.323 3.074 5.197 3.803 1.354.527 3.198 1.205 4.657 1.02 1.976-.25 3.078-1.577 4.732-2.417.574-.292.069-1.155-.504-.864-2.218 1.127-3.241 2.585-6.164 2.026-2.222-.425-3.911-1.664-5.668-3.006-3.14-2.397-5.07-4.709-9.291-4.713-.644 0-.645 1 0 1" fill="#1D1E1B"/><path d="M102.488 114.866c4.386.93 9.5 1.142 13.901.295 3.412-.656 8.114-2.06 10.46-4.798.417-.487-.287-1.197-.707-.707-2.255 2.631-6.733 3.908-10.018 4.541-4.191.807-9.182.593-13.37-.295-.628-.133-.896.831-.266.964m25.758-6.982l-.212-.019.353.853c1.84-2.256 3.227-4.583 4.587-7.174.867-1.653 2.094-4.328 3.649-5.478.512-.379.014-1.247-.504-.864-1.256.93-2.322 2.73-3.091 4.072-1.743 3.041-3.117 6.004-5.348 8.737-.283.347-.095.814.354.854l.212.02c.64.056.637-.944 0-1" fill="#1D1E1B"/><path d="M137.6 96.156c-1.55-1.33 2.796-7.31 3.703-8.503 1.788-2.357 4.08-4.168 6.621-5.645 2.456-1.428 5.043-3.081 7.891-3.567 3.378-.577 8.008 1.67 7.324 5.686-.108.629.856.9.963.265.565-3.308-1.843-5.907-4.896-6.764-4.074-1.143-7.844 1.347-11.298 3.135-3.03 1.568-5.89 3.992-7.799 6.852-1.157 1.735-5.615 7.188-3.217 9.248.486.418 1.196-.287.707-.707m-.976 40.16c1.114-.784 2.09-2.684 2.91-3.768 1.44-1.904 2.9-3.845 3.615-6.14 1.405-4.501 3.035-8.93 4.465-13.42.397-1.246.64-2.508 1.121-3.732.653-1.657 1.641-2.878 2.656-4.318 1.112-1.578 1.691-2.865 1.974-4.73.455-3.005 1.792-5.277 3.592-7.698.892-1.2 1.951-2.242 3.021-3.282.688-.667 1.69-2.197 2.651-2.487.615-.184.353-1.15-.265-.964-1.672.503-3.328 2.932-4.517 4.178-1.677 1.757-3.392 3.81-4.379 6.05-.902 2.049-.72 4.484-1.663 6.445-1.064 2.213-2.95 3.853-3.898 6.168-1.907 4.652-2.849 9.68-4.626 14.396-1.036 2.748-1.879 5.154-3.598 7.587-.884 1.252-1.787 2.527-2.749 3.724-.069.085-.675 1.03-.815 1.128-.522.367-.023 1.235.505.863m1.191-38.304c.325.624.91 1.345 1.468 1.777.646.5 1.476.683 2.11 1.199.495.403 1.207-.3.707-.707-.56-.457-1.203-.692-1.828-1.04-.649-.36-1.25-1.075-1.594-1.734-.297-.571-1.16-.066-.863.505m-46.32 62.804c1.124.549 2.064 1.892 3.072 2.648 1.062.798 2.135 1.508 3.132 2.386 1.871 1.646 3.703 2.26 6.17 2.632 2.84.426 5.63.385 8.408-.352 2.318-.614 3.988-2.03 5.691-3.675 1.84-1.78 3.521-3.968 5.04-6.023 1.628-2.204 2.727-4.524 4.014-6.93 1.18-2.205 2.876-4.055 3.905-6.311.724-1.588 1.526-2.888 2.56-4.294.368-.501 1.513-2.418 2.137-2.706.583-.27.076-1.132-.505-.863-1.15.532-2.266 2.623-2.99 3.629-1.428 1.98-2.395 4.26-3.735 6.285-1.352 2.04-2.494 4.212-3.546 6.42-1.192 2.498-2.905 4.7-4.727 6.769-1.725 1.96-3.309 4.093-5.499 5.584-2.637 1.797-6.099 1.896-9.169 1.56-1.854-.201-3.9-.28-5.545-1.262-.925-.554-1.637-1.36-2.452-2.042-.924-.774-1.983-1.345-2.918-2.115-.84-.694-1.573-1.732-2.539-2.203-.576-.282-1.084.58-.505.863m-1.64-4.69c-.3-1.353-.736-2.469-.882-3.87a100.156 100.156 0 0 1-.362-4.798c-.176-3.207.499-6.155.637-9.323.028-.644-.972-.642-1 0-.08 1.805-.601 3.538-.71 5.343-.098 1.63.077 3.273.148 4.903.065 1.506.119 2.95.309 4.445.16 1.257.624 2.335.896 3.567.139.627 1.103.362.964-.267m-46.357-51.992c.002 3.57.444 7.202.629 10.768.165 3.183.385 6.108.919 9.268.64 3.775.815 7.657 1.72 11.378.788 3.24 1.887 6.473 3.006 9.615 1.082 3.034 2.148 6.047 3.432 9.003 1.379 3.176 2.893 6.348 4.115 9.565 1.298 3.417 2.105 6.943 2.898 10.5.329 1.476.486 2.98.53 4.497.03 1.08-.152 2.161.319 3.158.275.582 1.138.075.864-.504-.495-1.047-.21-2.807-.275-3.956-.082-1.444-.175-2.86-.534-4.268-.837-3.277-1.564-6.627-2.794-9.785-1.191-3.057-2.693-5.952-3.941-8.997-1.238-3.02-2.47-6.019-3.517-9.113-1.04-3.068-2.034-6.124-2.921-9.229-.988-3.453-1.022-7.114-1.68-10.64-.658-3.524-1.048-6.91-1.141-10.492-.093-3.577-.627-7.196-.63-10.768 0-.644-1-.645-1 0" fill="#1D1E1B"/><path d="M60.879 174.616c-.077.025 2.145 1.103 2.167 1.11 1.282.41 2.593.723 3.92.94 2.824.462 5.01.498 7.788-.3.618-.177.355-1.143-.266-.964-3.117.895-6.17.637-9.297-.113-1.347-.323-2.364-.86-3.561-1.387-.487-.214-.461-.433-1.017-.25-.608.2-.348 1.166.266.964m-13.155-60.878c.663-.846 1.977-1.542 2.894-2.101 1.141-.695 2.342-1.288 3.505-1.946.56-.317.057-1.181-.505-.863-1.29.73-2.632 1.379-3.882 2.18-.879.563-2.066 1.189-2.719 2.023-.393.5.31 1.213.707.707m9.703-5.226c.695-.938 4.9-.886 5.825-1.014 1.873-.26 3.661-.7 5.45-1.312 3.273-1.118 6.275-2.317 9.127-4.293 3.327-2.304 5.92-5.545 9.54-7.483 4.33-2.317 9.355-3.891 13.884-5.794.585-.245.328-1.213-.265-.963-4.423 1.857-9.012 3.483-13.342 5.535-3.994 1.894-6.774 5.347-10.322 7.842-3.257 2.29-7.034 3.659-10.83 4.816-2.134.65-4.405.752-6.604 1.087-1.069.163-2.63.133-3.326 1.074-.384.518.484 1.017.863.505m43.816-8.934c-2.938 1.375-5.742 3.213-8.443 4.998-2.513 1.66-5.485 3.51-7.408 5.83-.408.492.296 1.203.707.707 1.981-2.388 5.334-4.484 7.941-6.148 2.495-1.593 5.023-3.267 7.708-4.524.582-.272.075-1.134-.505-.863m-18.625 12.75c-2.1 1.479-4.673 2.85-6.35 4.828-.415.488.29 1.199.706.707 1.618-1.907 4.12-3.243 6.15-4.672.521-.367.022-1.235-.506-.863m1.321 2.054c-2.649 3.836-3.124 8.476-3.318 13.002-.028.644.972.643 1 0 .187-4.361.627-8.797 3.181-12.497.367-.531-.499-1.031-.863-.505m-26.076 44.734c1.265.285 2.569 1.295 3.808 1.742 1.486.536 3.083.656 4.567 1.258.596.242.855-.725.266-.964-1.601-.649-3.347-.806-4.959-1.44-1.112-.438-2.254-1.298-3.416-1.56-.627-.14-.895.823-.266.964m5.883 5.768c.935-.025 1.802.231 2.717.254.887.022 1.77-.18 2.665-.175 1.93.01 3.66-.802 5.5-1.347.617-.182.354-1.148-.265-.964-.91.27-1.802.582-2.704.871-1.131.363-2.005.295-3.164.357-1.605.086-3.145-.039-4.75.004-.641.017-.644 1.017 0 1m-7.882-73.982c-1.276.3-2.76.817-3.596 1.878-.394.5.309 1.213.707.707.737-.935 2.029-1.357 3.155-1.62.626-.148.361-1.112-.266-.965m23.008-11.518c-.886.107-1.608.602-2.39.996-.868.44-1.571 1.05-2.214 1.775-.425.481.28 1.19.708.708.52-.589 1.074-1.119 1.77-1.496.63-.342 1.41-.896 2.126-.983.63-.077.639-1.078 0-1m11.875-1.125c-.976.108-1.747.877-2.307 1.623-.386.514.48 1.013.864.504.309-.41.88-1.065 1.443-1.127.633-.07.64-1.07 0-1m24.853-.728c-2.06-1.723-4.74-2.212-7.354-2.021-.638.046-.643 1.046 0 1 2.325-.17 4.797.18 6.647 1.728.49.41 1.202-.293.707-.707m-1.978-3.897c.122-2.565.684-5.149 1.357-7.617.17-.622-.795-.887-.964-.266-.694 2.541-1.268 5.242-1.393 7.883-.031.644.97.642 1 0M91.746 68.26c-.01-.827-.164-1.692.107-2.492.207-.61-.758-.873-.964-.266-.303.892-.154 1.837-.143 2.758.007.643 1.008.645 1 0M66.37 52.51c.136 1.327.865 2.533 1 3.875.064.634 1.064.641 1 0a9.761 9.761 0 0 0-.441-2.032c-.19-.585-.496-1.23-.56-1.843-.064-.634-1.065-.64-1 0m60.894 56.508c.554 1.518.437 3.13 1.066 4.651.593 1.433 1.517 2.446 2.359 3.72.354.533 1.22.033.864-.506-.89-1.346-1.891-2.43-2.458-3.989-.491-1.349-.376-2.798-.867-4.142-.22-.599-1.186-.34-.964.266m11.732-15.133c-.02.696-.072 1.273.368 1.857.407.54.807 1.076 1.38 1.45.54.353 1.042-.513.504-.864-.407-.266-.68-.662-.974-1.04-.361-.463-.294-.844-.278-1.403.019-.644-.981-.643-1 0m12.232 7.117c-.166-.973-1.824-1.32-2.6-1.474-.628-.124-.897.838-.265.965.415.081.824.18 1.215.343.189.08.65.22.686.433.108.632 1.072.364.964-.267m-.357 2.758h.083c.644-.004.643-.985 0-1-.232-.006-.46-.116-.694-.132-.278-.02-.552.015-.83-.013-.491-.05-1.06-.143-1.455-.459-.5-.396-1.211.307-.708.708.499.396 1.045.586 1.672.685.318.05.627.076.949.083.373.007.699.12 1.066.128v-1h-.083c-.643.003-.645 1.003 0 1m-1.875 3.125c-.064-.55-.528-.757-.995-.944a6.64 6.64 0 0 1-1.776-1.035c-.495-.404-1.206.3-.708.708.5.41 1.04.792 1.63 1.061.159.071.324.125.485.19.09.037.197.107.29.127.17.036.112.22.074-.107.074.632 1.075.64 1 0m-38.125-10.5c1.182-.048 2.975.05 4.045.483.953.386 1.769.832 2.83.892.643.036.64-.964 0-1-1.343-.076-2.422-.94-3.742-1.138-1.004-.15-2.121-.278-3.133-.237-.641.026-.645 1.026 0 1m-5.729-58.521c.484.49 1.075.563 1.732.635 1.08.117 2.162.135 3.247.136.643 0 .644-1 0-1a39.125 39.125 0 0 1-2.167-.046c-.596-.034-1.649.029-2.105-.432-.453-.46-1.16.249-.707.707m6.836-1.846c.007-.035.015-.069.02-.104l-.348.35c.355-.063.71.058 1.067-.038.28-.075.53-.235.746-.424.439-.385.71-.916 1.137-1.313.47-.44-.237-1.147-.707-.707-.36.335-.603.764-.938 1.12-.181.19-.347.335-.614.366-.324.037-.628-.027-.956.031a.488.488 0 0 0-.35.35l-.021.103c-.13.628.834.897.964.266m-5.09-1.39c.036-.252-1.508-.998-1.74-1.282-.488-.597-.773-1.575-.861-2.342-.15-1.31-.283-2.425.066-3.736.166-.622-.798-.889-.964-.265-.514 1.925-.38 4.222.439 6.06.609 1.363 2.13 2.537 3.662 2.284.15-.025.327-.196.349-.35l.014-.104c.088-.63-.876-.902-.964-.266M86.496 19.134c-.01.721-.094 1.622-.78 2.037-.527.318-1.49.491-2.095.463-.644-.029-.642.971 0 1 .868.04 2.169-.218 2.854-.782.813-.673 1.009-1.715 1.02-2.718.009-.644-.991-.644-1 0m-6.997 23.307c-.057.03.273.073.32.076.183.01.368-.004.553-.008.642-.013.645-1.013 0-1-.453.01-.97-.154-1.378.069-.565.308-.06 1.172.505.863M52.44 29.387c.114.239.054.594.093.853.045.294.112.607.208.89.154.456.433.79.796 1.103.99.849 1.92 1.144 3.21 1.152.643.003.644-.997 0-1-1.097-.007-2.159-.283-2.86-1.212-.504-.666-.239-1.57-.584-2.291-.277-.58-1.139-.074-.863.505M30.743 60.19c1.115.59 2.451.58 3.658.339 1.51-.302 2.333-1.032 3.323-2.167.421-.483-.283-1.193-.707-.707-.752.86-1.354 1.54-2.507 1.83-1.038.26-2.282.36-3.262-.158-.568-.302-1.074.562-.505.863m18.878 25.443c-.513-.023-.942.2-1.391.42-.47.232-.941.455-1.361.773-.507.384-.01 1.252.504.864.333-.252.697-.446 1.07-.63.368-.182.757-.447 1.178-.427.644.03.642-.97 0-1m33.997 4.944c-1.85 1.143-3.537 2.454-5.226 3.828-.5.406.212 1.11.707.707 1.617-1.315 3.254-2.578 5.024-3.672.546-.337.045-1.202-.505-.863" fill="#1D1E1B"/><path d="M75.493 96.828c-2.262 1.258-3.992 3.027-6.52 3.896-2.787.957-5.566.513-8.36 1.054-.632.122-.365 1.086.265.964 3.162-.612 6.088-.105 9.196-1.37 2.225-.903 3.872-2.54 5.924-3.681.562-.312.058-1.176-.505-.863m18.146 33.048c-.463 1.358-1.02 2.651-1.26 4.076-.211 1.258-.292 2.535-.383 3.808-.046.642.954.639 1 0 .098-1.37.169-2.755.45-4.102.256-1.215.758-2.344 1.157-3.515.208-.612-.757-.874-.964-.267m8.732-10.367c1.293.061 2.415.701 3.755.706 1.506.005 3.007-.259 4.495-.456.629-.083.637-1.084 0-1-1.49.197-2.987.461-4.495.456-1.334-.005-2.457-.645-3.755-.706-.644-.03-.642.97 0 1m40.872-6.818c-.557-.29-1.465 3.8-1.604 4.31-.17.622.793.887.963.266.367-1.34.62-2.571 1.212-3.843.234-.502.585-1.257-.066-1.596-.57-.297-1.077.566-.505.863m-5.872 16.568c0 .32-.726 1-.9 1.25-.388.556-.73 1.14-1.032 1.748-.285.574.577 1.081.864.504.37-.745.795-1.484 1.315-2.137.338-.425.754-.783.753-1.365-.001-.644-1.001-.645-1 0m-23.357 38.243c-.755 2.891-1.84 5.755-2.337 8.722-.446 2.662-.511 5.353-.927 8.004-.373 2.373-.962 4.876-.937 7.285.032 3.041.183 6.076.183 9.121 0 3.427.067 6.86-.012 10.285-.074 3.184.377 6.236.396 9.398.018 3.127.475 6.165.58 9.284.104 3.069.595 6.13.548 9.184-.023 1.456-.155 2.99.063 4.434.183 1.216.472 2.339.477 3.588.007 1.385.047 2.564.272 3.927.35 2.121-.046 4.18.164 6.29.594 5.947 1.493 11.925 2.063 17.928.253 2.666.789 5.274 1.188 7.92.553 3.668.788 7.277 1.09 10.966.532 6.445 1.99 12.863 2.159 19.337.086 3.276-.227 6.627.047 9.892.126 1.505.477 2.966.526 4.481.056 1.726-.062 3.46-.03 5.188.065 3.368-.431 6.983-.856 10.33-.432 3.412-.614 6.845-1.066 10.263-.816 6.161-1.312 12.358-1.998 18.53-.19 1.7-.112 3.369-.376 5.067a55.642 55.642 0 0 0-.53 4.732c-.214 3.16-.74 6.31-.73 9.474.022 6.827.025 13.652.025 20.478 0 6.857-.584 13.957.25 20.77 1.635 13.344 1.957 26.776 3.789 40.115 2.173 15.822 4.763 31.596 7.27 47.367 1.283 8.075 2.676 16.14 3.64 24.26.873 7.36.623 14.86 2.069 22.146.125.63 1.089.362.964-.267-1.367-6.889-1.128-13.97-1.922-20.93-.77-6.734-1.864-13.423-2.933-20.115a5994.588 5994.588 0 0 1-6.515-41.719c-1.11-7.285-2.168-14.58-2.957-21.909-.73-6.775-1.007-13.561-1.504-20.353-.234-3.19-.676-6.34-1.017-9.516-.366-3.428-.15-6.885-.134-10.325.033-6.966 0-13.935 0-20.901 0-3.034-.007-6.067-.024-9.1-.018-3.252.522-6.673.763-9.935.455-6.164 1.255-12.31 1.793-18.472.32-3.663.777-7.426 1.327-11.06.47-3.106.548-6.236.922-9.35.347-2.885.784-5.871.77-8.777-.016-3.558-.223-6.941-.516-10.471-.245-2.952.002-5.984-.035-8.946-.04-3.212-.45-6.35-.908-9.52-.928-6.405-1.047-12.897-1.996-19.287a796.256 796.256 0 0 1-2.61-18.95c-.326-2.622-.256-5.25-.663-7.836-.287-1.82-.227-3.46-.242-5.282-.013-1.673-.523-3.246-.58-4.906-.114-3.347-.537-6.605-.48-9.965a21.087 21.087 0 0 0-.32-4.002c-.336-1.996-.168-4.031-.294-6.048-.11-1.756-.454-3.494-.526-5.25-.074-1.841.107-3.684-.12-5.52-.425-3.442-.261-6.817-.261-10.28 0-3.61.019-7.22 0-10.83-.01-1.645-.183-3.287-.183-4.933 0-1.52.418-2.81.636-4.27.422-2.84.55-5.691.985-8.528.579-3.776 1.582-7.26 2.544-10.947.162-.624-.801-.89-.964-.267m-53.518 16.633v58.36c0 6.546.34 13.182-.148 19.713-.47 6.263-.36 12.481-.35 18.77.005 2.841-.087 5.678.28 8.501.408 3.12.852 6.205 1.086 9.344.182 2.451.359 4.865.703 7.311.397 2.818.22 5.625.633 8.427.46 3.135.275 6.273.313 9.433.042 3.453.155 6.907.12 10.361-.03 2.795-.523 5.491-.656 8.261-.148 3.103.019 6.253.019 9.36 0 6.108-.417 12.12-1.017 18.197-.663 6.724-1.2 13.45-2.146 20.143-.813 5.751-1.86 11.467-2.21 17.274-.376 6.267-.121 12.607-.126 18.884-.004 6.246-.76 12.618-.22 18.845.248 2.86.839 5.68 1.12 8.538.348 3.527.502 7.07.678 10.608.306 6.14.95 12.234 1.527 18.353 1.324 14.035 3.488 28.184 3.398 42.3-.046 7.19-.491 14.38-1.192 21.535-.326 3.323-.847 6.554-.884 9.904-.018 1.6-.13 3.283.12 4.87.208 1.311.78 2.52.97 3.841.09.635 1.055.365.964-.266-.214-1.49-.873-2.854-1.02-4.36-.145-1.488-.052-3.05-.03-4.54.047-3.023.513-5.959.832-8.957.67-6.32 1.128-12.739 1.214-19.095.169-12.56-1.46-24.976-2.644-37.457-.582-6.142-1.238-12.28-1.772-18.427-.558-6.413-.561-12.866-1.26-19.268-.31-2.842-.914-5.656-1.088-8.51-.196-3.246.029-6.498.172-9.74.279-6.326.125-12.684.12-19.014-.007-12.45 2.503-24.52 3.692-36.874.602-6.258 1.324-12.537 1.665-18.815.314-5.769-.193-11.568.118-17.329.168-3.106.652-6.109.662-9.247.009-3.29-.1-6.578-.132-9.867-.025-2.458.18-4.966-.072-7.412-.313-3.026-.217-6.1-.707-9.09-.905-5.537-1.005-11.148-1.83-16.702-.956-6.444-.26-13.124-.442-19.62-.1-3.528.353-6.914.504-10.427.154-3.607.038-7.223.036-10.83-.005-7.255 0-14.509 0-21.763v-43.523c0-.644-1-.645-1 0m6.646 1.147c-1.124 1.295-.59 3.043-.702 4.624-.11 1.568-.33 3.272.702 4.583.398.505 1.101-.207.707-.707-.805-1.022-.493-2.68-.409-3.876.08-1.128-.38-3.007.41-3.917.42-.484-.285-1.194-.708-.707m26.601-10.215c.431.212.706.699 1.108.972.548.37 1.18.647 1.783.917 1.141.51 2.574.653 3.508 1.533.468.44 1.177-.265.707-.707-.914-.861-2.11-1.075-3.25-1.504-.696-.261-1.48-.588-2.098-1.008-.483-.33-.724-.805-1.253-1.066-.575-.284-1.083.578-.505.863m7.77 51.201c1.155 3.412.482 7.79.483 11.367 0 .644 1 .645 1 0-.001-3.669.673-8.113-.518-11.633-.205-.606-1.171-.346-.964.266m4.835 60.22l.415-.327-.836-.22c1.054 6.719.606 13.77 2.586 20.327.185.615 1.15.353.963-.265-1.976-6.55-1.532-13.617-2.585-20.328-.065-.414-.578-.424-.835-.221l-.415.328c-.505.398.207 1.102.707.707m-34.606 70.078c1.208.928-.252 5.672-.404 6.828-.28 2.137-.34 4.287-.47 6.437-.298 4.91-.904 9.885-.874 14.803.004.643 1.004.645 1 0-.037-6.038.688-12.178 1.057-18.21.156-2.555.674-5.047.978-7.584.144-1.201.247-2.347-.782-3.137-.51-.392-1.009.476-.505.863m3.62 16.05c.908.166-.863 9.351-.867 10.518-.003.644.997.645 1 0 .013-3.487 1.96-7.617.897-11.057-.049-.157-.179-.318-.35-.35l-.414-.075c-.629-.115-.899.85-.266.964M13.996 27.134c-1.926-.092-2.983 1.917-3.768 3.39-1.534 2.88-2.204 5.898-3.214 8.977-.201.613.764.876.964.266.839-2.558 1.348-5.177 2.535-7.61.65-1.333 1.686-4.108 3.483-4.023.644.031.642-.969 0-1M2.642 24.781C.942 26.498.333 28.66.014 31c-.087.63.877.902.963.266.295-2.156.793-4.185 2.372-5.78.454-.456-.253-1.164-.707-.706m128.354 2.853c1.415.181 2.14 5.56 2.333 6.528.564 2.832.996 5.708 1.337 8.576.626 5.274.86 10.586.83 15.896-.004.644.996.645 1 0 .038-6.6-.354-13.194-1.35-19.72-.513-3.374-1.108-6.675-2.193-9.914-.398-1.186-.592-2.192-1.957-2.366-.637-.08-.631.92 0 1m8.646 7.854c.59.63.365 1.526.414 2.3.035.544.134 1.087.198 1.628.11.919.206 1.886.888 2.572.455.457 1.162-.25.707-.707-.759-.764-.75-2.608-.8-3.656-.052-1.072.084-2.005-.7-2.844-.44-.471-1.146.237-.707.707m6.872-9.22c.137.911.617 1.473 1.039 2.286.732 1.41 1.053 3.032 1.336 4.582.574 3.137.833 6.324 1.107 9.498.055.636 1.055.642 1 0-.256-2.973-.51-5.952-.993-8.899-.225-1.367-.468-2.757-.92-4.07-.421-1.234-1.414-2.393-1.605-3.664-.095-.634-1.06-.364-.964.266M20.496 141.634c-.021 5.147 1.227 9.661 3.568 14.252.293.574 1.156.068.864-.504-2.273-4.458-3.452-8.748-3.432-13.748.002-.644-.998-.645-1 0m6 6c-.125 2.26.95 4.882 2.646 6.354.484.42 1.195-.285.708-.708-1.494-1.296-2.465-3.643-2.354-5.646.036-.643-.964-.64-1 0" fill="#1D1E1B"/></g></g><g mask="url(#b)"><g transform="translate(539 516)"><path d="M142.064 670.622c-1.345-8.81-3.87-17.534-6.41-26.183-.923-7.497-1.89-14.99-2.804-22.484-1.578-12.93-3.108-25.867-4.875-38.772-.873-6.376-1.82-12.745-2.9-19.09-.7-4.115-1.551-8.146-1.875-12.231.084-.47.114-.947.072-1.43l-.187-2.082c.01-1.192.062-2.39.21-3.603.16-1.308-.19-2.555-.856-3.647-2.687-30.091-5.372-60.183-8.058-90.274-.007-.083-.024-.16-.033-.24.005-.09.017-.173.02-.264l.25-8.986a6.826 6.826 0 0 0-.513-2.851c-.1-2.618-.423-5.204-.918-7.786-.462-16.784-1.978-33.526-3.181-50.279-.774-10.793-1.181-21.576-1.545-32.387-.348-10.343-3.467-20.696-2.38-31.036.11-1.036-.087-2.031-.5-2.942-1.584-16.766-3.31-33.526-4.545-50.32a8.303 8.303 0 0 0-.383-1.95 157.576 157.576 0 0 0-3.231-35.263 8.093 8.093 0 0 0-.535-1.673 34.548 34.548 0 0 0-.807-5.675 5.02 5.02 0 0 0-.704-1.694l-.183-7.053c.008-.43.002-.876-.036-1.37a5.244 5.244 0 0 0-.052-.426 3.076 3.076 0 0 0 .308-1.649c-.35-4.411-2.024-8.487-2.63-12.863-.54-3.893-1.268-7.726-2.082-11.572-.431-2.04-.751-5.35-1.402-8.63.352-2.024 1.1-3.948 2.478-5.667.19-.237.338-.482.459-.73.378-.185.75-.455 1.103-.841l6.25-6.858c.314-.344.523-.707.677-1.075l4.156-2.69a3.63 3.63 0 0 0 1.062-1.032c4.829-2.53 10.503-4.16 13.056-9.165 1.655-3.243 1.996-7.244 2.985-10.722 1.277-4.493 2.808-8.904 4.336-13.314.767-.605 1.339-1.467 1.448-2.51.725-6.984.589-14.933 3.4-21.466.218-.503.325-.996.344-1.466a4.16 4.16 0 0 0 1.312-1.203l.158-.222c.67-.955.642-2.578 0-3.535l-.18-.268c-.652-.97-1.716-1.665-2.87-1.732-3.392-1.273-6.742 1.23-9.521 4.343-2.168 1.645-3.901 4.225-4.767 6.273a4.473 4.473 0 0 0-.256.813c-1.97 3.055-2.296 6.46-2.684 9.94-1.543 2.44-2.98 4.942-4.263 7.54-1.06 2.144-2.654 8.64-5.011 10.197-.341-2.764-1.61-5.677-1.844-8.366-.303-3.487-.023-6.904.688-10.287a68.71 68.71 0 0 0 2.806-11.718c.619-1.576 1.078-3.184 1.494-4.27 2.569-6.718 5.419-13.694 5.68-20.968.14-3.899-.48-7.785-.713-11.668-.245-4.053.354-7.962.484-11.998.144-4.434-.6-12.489-5.496-14.503-5.568-2.288-7.571 4.731-8.254 8.703-.697 4.053-.596 8.177-.818 12.269-.227 4.168-1.494 7.715-2.46 11.7-.9 3.722-1.398 7.177-2.815 10.774-1.486 3.775-2.555 7.647-3.343 11.617-.155.19-.31.386-.477.556-.782.793-1.802 1.297-2.566 2.142-.316.352-1.738 2.618-2.24 2.486-.778-.204-1.464-.165-2.053.032-.863-7.178 1.737-15.204 1.832-22.137.06-4.37-1.126-8.49-1.825-12.766-.813-4.978-.68-10.106-.814-15.138-.018-.67-.257-1.194-.613-1.584-.191-3.353-.747-6.627-1.743-9.843-.194-.628-.555-1.063-.991-1.346-.02-.064-.037-.13-.057-.195-.033-.108-.08-.197-.12-.294.115-2.514-1.73-4.838-4.451-5.013a4.92 4.92 0 0 0-1.968.26c-1.404.284-2.724 1.175-3.276 2.645-.771 2.052-.672 4.27-.533 6.454a35.632 35.632 0 0 0 .218 7.392c.017.123.047.237.069.356.003.243.005.487.005.731.002 2.352.074 4.702.144 7.05.018.615.23 1.099.538 1.478-.062.191-.11.395-.13.617-.635 7.193.304 13.97.216 21.137-.04 3.336-.333 6.667-.701 9.983-.532 2.856-1.144 5.695-2.195 8.43a2.649 2.649 0 0 0-.15.554c-.48.371-1.082.52-1.828.385 1.209-13.302.53-26.248-.361-39.526a3.683 3.683 0 0 0-.045-.67l-.073-1.102a3.963 3.963 0 0 0-.15-.832c.8-4.553 1.167-9.153 1.023-13.806-.025-.837-.291-1.52-.704-2.046-.586-2.51-2.387-4.507-5.58-3.95-1.004.174-1.794.656-2.44 1.32a4.142 4.142 0 0 0-.848.892c-2.237 3.22-2.242 7.532-3.188 11.242-.955 3.738-1.658 7.204.438 10.651-.18 3.346.15 6.669-.55 10.1-.792 3.89-1.58 7.7-1.906 11.67-.357 4.333-.088 8.82-.746 13.122-.307 2-.754 4.103-2.125 5.698-1.301 1.513-2.477 1.852-3.805 2.144a383.759 383.759 0 0 0-3.638-17.87c-.253-2.684-.615-5.356-1.143-8.011l-.241-8.22a3.482 3.482 0 0 0-.476-1.675c-.002-.265.013-.526.006-.793a4.133 4.133 0 0 0-.085-.707c.377-2.966-.596-6.42-2.127-8.633-.643-.931-1.47-1.428-2.318-1.585-.015-.013-.026-.026-.042-.038-2.513-2.081-5.828-.021-6.096 2.36a3.345 3.345 0 0 0-.495.568c-2.747 4.09-2.538 10.093-1.572 15.273.004.063-.003.121.004.188l1.675 14.865c.505 4.489.57 9.287 2.172 13.543.155.413.355.768.583 1.075l.124 9.168c0 .011.004.02.004.032a281.757 281.757 0 0 0-.027 5.44 577.768 577.768 0 0 1-.093 3.948c-.405 3.008-.604 6.032-.716 9.073l-.006.097c-.033.153-.074.298-.09.46-1.183 12.064-.986 24.196.796 36.192.769 5.18 1.962 10.26 4.19 15.022 2.409 5.142 6.152 9.524 7.645 15.078.107.4.298.755.538 1.069a57.158 57.158 0 0 0 .258 8.24c.106 1.03.548 1.819 1.152 2.38.243 1.733.53 3.46.842 5.184a99.44 99.44 0 0 0 .163 3.232c.074 2.694.244 5.383.519 8.082a5.57 5.57 0 0 0 .467 1.745c.623 4.98 1.347 9.952 1.836 14.94-.348 4.37-.295 8.717.606 13.155 0 .173-.001.346.017.522.385 3.779.702 7.56.965 11.346-.53 9.096.025 18.12.84 27.301.008.072.024.135.032.207 1.358 18.413 3.167 36.94 3.88 55.459-.594 4.577-1.293 9.144-1.786 13.743-.985 9.185.12 17.519 1.227 26.6 1.099 9.027-.612 18.08.735 27.1.62 4.156 1.849 8.18 2.166 12.379.239 3.175.468 6.015 1.157 8.866a103.14 103.14 0 0 0 .204 20.486c.014.127.04.25.058.376-.886 8.378-2.222 16.77-1.71 25.21.926 15.194-2.05 30.343-.481 45.51.088.856.319 1.666.643 2.426-.597 2.867-.958 5.736-1.033 8.644-.883 11.987 1.293 24 2.277 36.009 1.273 15.538 1.777 31.126 2.156 46.71.379 15.594.624 31.192 1.378 46.774.75 15.509 3.202 31.108 2.776 46.639a7.875 7.875 0 0 0 .266 2.288v.434c-.003 3.564 2.38 6.037 5.506 7.232 5.8 2.218 11.31 3.303 17.494 2.095 6.522-1.272 12.406-2.404 19.12-2.342 5.94.056 11.859.447 17.567-1.553 5.802-2.034 11.08-4.522 17.176-5.69 5.316-1.02 6.384-6.023 4.627-9.896 2.324-11.606.55-24.62-1.22-36.22" fill="#D6906D"/><path d="M38.326 80.702c-1.271-6.704-1.271-13.717-1.316-20.538-.019-3.033-.642-6.353-3.117-8.407-1.337-1.11-3.968-2.095-5.635-1.187-.565.308-.061 1.172.505.863 1.174-.64 3.307.256 4.195.894 1.817 1.305 2.785 3.747 3.015 5.924.298 2.813-.107 5.69.136 8.506.411 4.77.358 9.489 1.253 14.21.119.632 1.084.365.964-.265M26.378 52.317l.15.038-.22-.836c-4.551 4.49-4.22 11.952-3.742 17.912.558 6.975 1.973 13.834 2.82 20.8.494 4.068 1.054 8.068 1.289 12.164.234 4.092.116 8.169.18 12.275.06 3.804-.543 7.777-.835 11.569-.272 3.535-.297 7.077-.344 10.619-.06 4.556-.332 9.102-.332 13.67 0 1.947.149 3.74.492 5.649.282 1.572.522 3.476 1.243 4.91.289.575 1.152.07.863-.504-.834-1.661-.907-3.957-1.224-5.757-.31-1.76-.374-3.4-.374-5.2 0-3.726.018-7.474.25-11.19.233-3.693.185-7.397.417-11.101.21-3.366.419-6.736.722-10.102 1.31-14.554-2.033-28.764-3.661-43.11-.772-6.803-2.44-16.586 2.943-21.897.263-.26.145-.744-.22-.836l-.151-.037c-.625-.156-.891.808-.266.964m1.367 110.765c-.63 1.07.036 2.67.312 3.777.574 2.298.85 4.556 1.318 6.86.998 4.9 4.344 9.107 6.714 13.404 2.513 4.555 2.991 9.313 3.68 14.362.584 4.28 1.388 8.355 1.575 12.682.027.642 1.027.645 1 0-.088-2.027-.045-4.15-.37-6.162-.298-1.833-.822-3.609-1.056-5.475-.504-4.017-.64-8.215-2.18-11.985-1.824-4.467-4.62-8.344-6.835-12.602-1.227-2.36-1.45-4.855-1.86-7.418-.194-1.214-.614-2.344-.925-3.524-.185-.7-.91-2.735-.509-3.415.327-.555-.536-1.058-.864-.504m9.784-80.614c.646 2.709 1.2 5.45 1.757 8.18.303 1.483.594 2.943 1.064 4.385.479 1.472 1.473 2.935 1.66 4.469.078.63 1.079.638 1 0-.115-.95-.48-1.762-.852-2.636-.785-1.843-1.385-3.687-1.754-5.661-.562-3.008-1.2-6.027-1.911-9.003-.15-.626-1.114-.36-.964.266" fill="#1D1E1B"/><path d="M40.776 101.42c.502-.736 1.863-1.14 2.604-1.644.694-.472 1.343-1.006 2.024-1.495a9.147 9.147 0 0 0 1.626-1.463c.31-.357.692-1.332 1.066-1.552.555-.325.053-1.19-.504-.864-.515.303-.657.891-.991 1.361-.691.974-1.656 1.6-2.593 2.303-.757.568-1.504 1.124-2.335 1.586-.672.375-1.316.612-1.761 1.264-.363.532.503 1.033.864.504m7.216-8.119c.472-2.71.758-5.518.852-8.28.151-4.483-.354-9.307.347-13.735.47-2.964.915-5.913 1.228-8.89.414-3.945-.787-7.7-.781-11.575.002-2.02.494-4.032.78-6.035.255-1.77.379-3.578.788-5.319.47-2.002.97-4.759 2.634-6.123 1.488-1.218 3.824-.87 5.438-.089 2.5 1.212 2.843 2.796 3.206 5.347.297 2.083.112 4.385.014 6.496-.036.771-.694 10.644-.287 10.588-.634.088-.364 1.052.266.964l.139-.019c.154-.022.322-.199.349-.35.234-1.31.015-2.658.048-3.986.037-1.5.248-2.995.331-4.497.19-3.45.545-6.929-.047-10.352-.514-2.97-1.52-4.507-4.534-5.51-1.878-.626-3.642-.905-5.28.37-2.297 1.785-3.011 5.4-3.5 8.071-.586 3.204-1.16 6.65-1.447 9.888-.138 1.536.38 3.061.58 4.573.237 1.782.412 3.658.42 5.456.012 2.946-.544 6.138-1.025 9.05-1.293 7.808-.123 15.858-1.483 23.691-.108.63.855.9.965.266m14.419-34.885c-.997 1.529-.354 4.423-.198 6.123.3 3.258.528 6.477.694 9.743.156 3.069.33 6.1.269 9.183-.054 2.73-.627 5.434-.676 8.159-.018 1.034.116 2.393 1.53 1.98 1.703-.5 1.562-3.761 1.844-5.17.505-2.522.618-5.178.817-7.75.13-1.685.267-3.308.485-4.991.14-1.086.098-2.517.586-3.558l-.684.179.179.119c.538.357 1.039-.51.505-.863l-.18-.12c-.21-.14-.573-.055-.683.18-.666 1.418-.701 3.15-.89 4.684-.296 2.406-.362 4.823-.652 7.226-.284 2.355-.432 4.649-.866 6.99-.038.204-.235 1.663-.418 1.718-.905.267-.511-1.367-.487-1.6.116-1.14.334-2.276.423-3.417.349-4.455.095-8.893-.124-13.347a263.121 263.121 0 0 0-.542-8.228c-.138-1.706-1.056-5.221-.068-6.736.352-.54-.513-1.042-.864-.504" fill="#1D1E1B"/><path d="M67.344 70.835c-.196-3.407-.163-6.818-.167-10.24-.002-1.99-.144-4.031.022-6.015.083-1-.11-3.234.665-3.891.491-.417-.219-1.122-.707-.708-1.66 1.409-1.002 6.36-.99 8.21.024 4.218-.065 8.442.177 12.644.037.64 1.037.644 1 0" fill="#1D1E1B"/><path d="M67.01 49.835c.105-2.542-.5-5.08-.5-7.644 0-2.855-.388-5.743-.113-8.595.142-1.477.189-3.904 1.129-5.06 1.379-1.694 4.43-2.186 6.317-1.226 2.57 1.307 3.333 6.15 4.064 8.74 1.542 5.466 2.375 10.85 2.604 16.516.2 4.988 1.362 9.979 2 14.936.08.629 1.082.637 1 0-.84-6.517-2.19-13.023-2.266-19.597-.038-3.313-.884-6.56-1.77-9.728-.877-3.144-1.582-6.4-2.927-9.392-2.007-4.463-9.615-3.685-10.698 1.113-.73 3.23-.47 6.587-.34 9.86.073 1.808-.13 3.636-.003 5.439.109 1.54.567 3.1.504 4.638-.026.644.974.642 1 0M82.677 70c-.296 9.185-2.844 18.144-1.833 27.333.07.633 1.07.64 1 0-1.008-9.162 1.538-18.166 1.833-27.333.021-.644-.979-.643-1 0" fill="#1D1E1B"/><path d="M81.596 96.433c.441-.224.942-.415 1.342-.708.462-.34.824-.822 1.251-1.204.449-.401.951-.736 1.397-1.142.394-.358 1.022-1.358 1.591-1.378.642-.022.645-1.022 0-1-1.137.04-1.67 1.126-2.448 1.805-1.166 1.02-2.261 2.064-3.637 2.764-.574.291-.069 1.155.504.863" fill="#1D1E1B"/><path d="M88.51 92.168l.102.009c.463.039.618-.558.354-.854-1.338-1.5.298-4.32.73-5.902.55-2.024 1.057-4.03 1.895-5.961.883-2.036 2.128-3.844 3.019-5.873.255-.584-.606-1.093-.864-.504-1.363 3.106-3.212 5.816-4.217 9.14-.64 2.114-1.278 4.234-1.916 6.346-.445 1.474-.38 2.312.646 3.46l.353-.852-.101-.01c-.641-.053-.638.947 0 1m6-20.5c.076-4.213 1.493-7.974 2.36-12.03.353-1.642.306-3.285.307-4.956 0-1.68.252-3.27.413-4.933.379-3.923.537-8.481 2.858-11.847 1.785-2.59 5.85-3.45 8.005-.55.864 1.163 1.67 2.673 2.076 4.043.916 3.092.576 6.269.415 9.43-.174 3.39-.42 6.857-.078 10.237.253 2.504.56 5.004.75 7.515.139 1.799.187 3.665-.202 5.43-.412 1.87-1.128 3.617-1.386 5.529-.085.63.878.902.964.266.435-3.22 1.76-6.04 1.685-9.337-.06-2.58-.415-5.107-.622-7.671-.24-2.972-.194-5.816-.192-8.79 0-3.045.55-6.092.304-9.134-.222-2.76-1.07-4.913-2.406-7.271-1.358-2.4-2.731-3.098-5.581-3.065-5.841.07-6.976 8.677-7.434 12.978-.184 1.724-.457 3.467-.57 5.194-.145 2.233.203 4.455-.27 6.668-.882 4.136-2.318 8.007-2.396 12.295-.012.644.988.644 1 0m15 9.5c-.437 4.104-2.274 8.07-3.7 11.894-.82 2.202-1.575 4.364-2.053 6.672-.463 2.232-.553 4.597-1.28 6.758a54.867 54.867 0 0 0-1.701 6.32c-.393 1.9-.247 3.78-.266 5.71-.032 3.278 1.08 6.314 1.85 9.446.155.624 1.12.36.965-.266-.792-3.217-1.838-6.253-1.815-9.617.017-2.387.096-4.498.69-6.826.528-2.07 1.299-4.142 1.693-6.232.869-4.603 1.746-8.833 3.446-13.225 1.315-3.397 2.782-6.98 3.17-10.634.069-.64-.932-.634-1 0" fill="#1D1E1B"/><path d="M100.529 128.301c.227 1.08 1.419 1.04 2.318.732 1.966-.67 2.123-3.003 2.753-4.71 1.12-3.045 2.505-6 4.027-8.865 1.036-1.95 2.438-3.632 2.688-5.85.603-5.366 2.936-10.328 6.387-14.457 1.842-2.203 4.09-3.814 6.677-5.073 2.095-1.019 4.336-.89 6.073.727.978.91 1.27 2.088 1.96 3.115.357.532 1.224.032.864-.504-.44-.656-.45-1.379-.976-2.042-.706-.887-1.518-1.734-2.505-2.309-1.653-.962-3.493-.832-5.252-.154-4.421 1.706-7.713 5.17-10.164 9.101-1.135 1.82-2.155 3.785-2.892 5.805-.98 2.691-.714 5.94-2.148 8.35-1.532 2.573-2.836 5.24-4.093 7.957a45.927 45.927 0 0 0-1.347 3.207c-.27.72-.5 1.472-.8 2.178-.374.886-2.351 3.74-2.606 2.526-.132-.63-1.096-.363-.964.266" fill="#1D1E1B"/><path d="M121.493 138.801c.59-4.009 2.181-8.03 3.308-11.917 1.052-3.636 3.467-6.507 3.697-10.329.207-3.457.41-6.845.84-10.284.278-2.205.736-4.217 1.49-6.303.071-.2 1.506-4.569 2.017-4.633.629-.08.637-1.08 0-1-.81.102-.958.627-1.298 1.301-.785 1.56-1.38 3.087-1.935 4.73-1.274 3.758-1.648 7.834-1.934 11.772-.16 2.21.169 4.707-.492 6.846-.597 1.932-2.01 3.584-2.698 5.516-.834 2.346-1.468 4.801-2.105 7.203-.602 2.272-1.511 4.502-1.855 6.832-.093.63.871.901.965.266m-43.836-21.403c-2.79 3.423-5.766 6.815-8.074 10.597-2.473 4.05-4.26 8.739-5.747 13.23-1.494 4.514-2.463 9.395-2.93 14.132-.475 4.804.102 9.598.105 14.395 0 .643 1 .644 1 0-.002-4.192-.4-8.351-.234-12.558.192-4.858 1.212-10.208 2.73-14.827 1.474-4.484 3.212-8.95 5.494-13.094 2.23-4.05 5.454-7.6 8.363-11.168.403-.495-.3-1.207-.707-.707M57.78 148.134c.174.46-.174 1.144-.287 1.593-.157.633-.326 1.267-.416 1.914-.176 1.278-.078 2.576-.065 3.86.006.643 1.006.645 1 0-.017-1.648-.1-3.23.289-4.85.203-.848.766-1.934.443-2.783-.227-.595-1.193-.337-.964.266M37.76 179.251c2.585.202 4.95 1.271 7.62.99 2.319-.247 4.274-1.562 6.513-2.008.63-.126.364-1.089-.266-.964-2.46.49-4.514 2.005-7.117 2.02-2.328.011-4.477-.86-6.75-1.038-.642-.05-.64.95 0 1m51.646-86.396c2.192 2.068 5.248 3.815 8.354 3.646.64-.034.644-1.035 0-1-2.84.155-5.645-1.464-7.647-3.353-.468-.441-1.176.264-.707.707m5.356-16.672c.291-.212 1.287.422 1.593.533.853.307 1.746.524 2.655.535.643.009.644-.991 0-1-1.061-.013-2.055-.369-3.023-.769-.506-.21-1.223-.532-1.73-.162-.515.375-.016 1.243.505.863m1.998-2.432l-.165.001v1c2.683-.022 4.797 1.83 6.913 3.181.544.347 1.045-.518.504-.864-2.285-1.46-4.53-3.34-7.417-3.317-.643.005-.644 1.003 0 1h.165c.643-.004.645-1.004 0-1M67.628 51.482c.71.134 1.37.312 2.096.216.894-.119 1.776-.339 2.67-.466.634-.09.364-1.053-.266-.964a40.24 40.24 0 0 0-2.045.353c-.801.155-1.406.045-2.19-.103-.628-.119-.898.845-.265.964m11.883-2.232l.164-.006v-1c-.337.017-.63.108-.954.193-.314.084-.574.064-.893.046-.537-.028-1.015.034-1.421.413-.47.441.238 1.147.708.708.279-.263.799-.093 1.143-.093.496 0 .93-.243 1.417-.267.639-.03.646-1.023 0-1l-.164.006c-.642.022-.645 1.023 0 1m1.853 21.897c-1.166-.966-6.117-3.103-6.835-.78-.19.617.773.88.963.266.327-1.052 4.598.75 5.165 1.22.492.409 1.203-.295.707-.706M59.761 94.5c1.876-.157 3.774-.244 5.619-.643 1.586-.343 4.549-1.348 6.129-.425.557.325 1.06-.539.504-.864-1.211-.707-3.237-.433-4.565-.232-2.585.392-5.061.944-7.687 1.164-.637.053-.643 1.054 0 1M25.364 76.105c.465-.528 1.377-1.437 2.146-1.354.64.069.635-.931 0-1-1.043-.112-2.216.922-2.853 1.647-.423.48.281 1.19.707.707m9.647-2.854c-1.697-.017-3.445-.24-4.854.896-.5.405.21 1.108.708.708 1.133-.917 2.797-.618 4.146-.604.644.006.644-.994 0-1m-7.498 17.682c.325-.143.499-.377.757-.611.38-.347.808-.616 1.243-.888.827-.518 1.66-1.017 2.63-1.201.632-.119.365-1.083-.265-.964-.956.181-1.804.643-2.625 1.148-.387.239-.778.476-1.144.745-.367.27-.691.728-1.101.908-.588.258-.079 1.119.505.863m8.615-4.914c-.7.096-1.888.287-2.1 1.1-.162.623.803.888.965.266-.018.07.062-.04.157-.088.142-.07.3-.112.453-.154.259-.072.525-.124.79-.16.635-.087.365-1.05-.265-.964m13.765-10.536c.825-.187 1.577-.644 2.424-.738.965-.107 1.975 0 2.943.006.644.004.645-.996 0-1-1.075-.007-2.209-.132-3.275.033-.82.126-1.55.552-2.358.735-.627.142-.36 1.107.266.964m.75 1.286l-.22-.056.35.616c.028-.115.656-.407.844-.493.321-.15.672-.302 1.026-.352.635-.091.365-1.054-.266-.965-.504.072-1.02.325-1.469.551-.414.21-.978.502-1.1.993-.064.257.081.547.35.615l.22.056c.623.157.89-.806.265-.965m7.764-20.871c-.888.794-2.567.369-3.646.354-.644-.01-.645.99 0 1 1.44.02 3.171.41 4.353-.647.48-.43-.228-1.135-.707-.707m-3.396-1.147c-.79 0-1.583-.023-2.373 0-.375.011-.752.104-1.067-.22-.18-.184-.271-.55-.378-.782-.27-.584-1.131-.077-.864.504.313.681.588 1.35 1.402 1.494 1.025.182 2.238.002 3.28.004.644.001.645-.999 0-1m-4.25 40.5c.52.046 1.038-.323 1.553-.425.82-.16 1.605-.316 2.447-.325.643-.007.645-1.007 0-1-.773.008-1.505.104-2.258.268-.305.066-.62.107-.922.185-.237.062-.581.318-.82.297-.641-.056-.637.944 0 1m-21.248 32.432c.379-.17.555-.407.825-.723.543-.636 1.089-1.179 1.788-1.652 1.22-.823 2.549-1.518 3.887-2.125.585-.265.078-1.127-.505-.863-1.341.608-2.659 1.308-3.887 2.125a9.53 9.53 0 0 0-1.265.999c-.403.38-.854 1.154-1.348 1.376-.586.263-.078 1.125.505.863m10.73-5.799c.075-.357 3.481-1.07 3.994-1.21 1.588-.435 3.209-.803 4.817-1.15 3.11-.673 6.325-.892 9.398-1.734 2.046-.56 4.066-1.625 5.886-2.692.984-.577 2.03-1.102 2.928-1.809 1.155-.909 2.406-2.674 3.877-3.056.623-.162.358-1.126-.266-.964-.968.252-1.51.812-2.248 1.473-1.309 1.174-2.61 2.187-4.12 3.078-2.672 1.574-5.458 2.892-8.517 3.483-3.586.694-7.172 1.21-10.726 2.078-1.087.265-5.688.818-5.987 2.237-.134.628.83.896.963.266m-12.05-11.63c.402-.537.678-1.137 1.153-1.63.63-.652 1.426-1.036 2.193-1.496.776-.466 1.542-.836 2.354-1.23.65-.316 1.386-1.15 2.118-1.146.644.003.645-.997 0-1-.835-.005-1.179.33-1.827.765-.989.665-2.126 1.133-3.15 1.747-.775.466-1.603.866-2.258 1.503-.619.6-.943 1.31-1.446 1.982-.386.516.482 1.015.863.505m4.686-40.02l.22.055-.35-.615c-.252.915-2.25 1.234-3.043 1.3-.635.052-1.215.06-1.8-.199-.357-.157-.452-.298-.894-.274-.64.035-.644 1.035 0 1 .32-.018.474.267.742.39.295.134.57.117.883.126a8.738 8.738 0 0 0 2.346-.252c1.016-.257 2.419-.697 2.73-1.825a.508.508 0 0 0-.348-.616l-.22-.055c-.624-.158-.891.806-.266.964m35.03 96.872c.933.948 1.674 2.044 2.862 2.703 1.111.615 2.476.86 3.488 1.625.513.388 1.012-.48.505-.863-.923-.7-2.123-.95-3.154-1.457-1.285-.631-2.018-1.724-2.995-2.715-.452-.46-1.159.248-.707.707m43.75-57c.43.474.414 1.329.735 1.898.297.527.622 1.119.993 1.592.797 1.02 2.137 1.347 3.123 2.088.515.387 1.014-.481.505-.863-1.106-.831-2.377-1.11-3.146-2.355-.367-.594-.697-1.097-.906-1.767-.16-.52-.223-.887-.597-1.3-.433-.478-1.138.23-.707.707m-1.896 11.146c-.005.67-.056 1.346.099 2.003.16.685.579 1.29.65 1.997.065.634 1.066.641 1 0-.063-.635-.306-1.167-.526-1.76-.275-.736-.23-1.468-.223-2.24.005-.644-.995-.644-1 0" fill="#1D1E1B"/><path d="M127.51 115.751c-.82 0-1.636.005-2.455-.043-.598-.035-1.202-.007-1.648.44-.455.456.252 1.163.708.707.324-.326 1.043-.127 1.45-.108.647.03 1.3.004 1.946.004.644 0 .645-1 0-1m-.75 2.25h-3.5c-.644 0-.645 1 0 1h3.5c.644 0 .645-1 0-1m-1.75 3c-1.656-.01-3.374-.179-4.646-1.354-.473-.436-1.182.27-.708.708 1.474 1.36 3.418 1.634 5.354 1.646.644.004.645-.996 0-1m-93.334 39.167c-.099 3.107-.843 6.187 1.48 8.687.44.473 1.145-.236.707-.707-2.087-2.247-1.274-5.226-1.187-7.98.021-.644-.979-.643-1 0m4 8.333c-.078.811.39 1.421.685 2.133.243.586 1.211.33.964-.266-.25-.6-.714-1.19-.649-1.867.062-.64-.938-.636-1 0m57 26c-.337-2.736-.82-5.479-1.203-8.223-.445-3.193-1.68-6.138-1.799-9.409-.123-3.379 1.231-7.01 3.654-9.454 1.668-1.684 3.141-3.512 4.77-5.238 1.976-2.098 4.342-3.984 6.668-5.689 2.554-1.87 5.197-3.245 7.95-4.789 1.723-.969 4.164-2.192 5.404-3.78.728-.932 1.364-2.263 1.783-3.36.251-.657.23-2.808.86-3.293.501-.387.004-1.256-.506-.864-.592.457-.673.773-.847 1.53-.346 1.505-.63 2.486-1.309 3.843-1.478 2.96-5.01 4.617-7.897 6.114-5.227 2.708-10.224 6.481-13.984 11.023-3.222 3.893-7.417 7.125-7.54 12.66-.069 3.09.586 6.015 1.395 8.981.457 1.673.421 3.255.602 4.948.183 1.708.791 3.315 1 5 .077.63 1.078.638 1 0m4.186-137.646c.051-.052 2.958 1.679 3.326 1.749.824.159 1.667-.002 2.498.016.96.02 1.87.3 2.822.38.642.056.638-.945 0-1-1.069-.09-2.025-.39-3.105-.38-1.414.013-2.62-.015-3.827-.882-.775-.557-1.54-1.487-2.42-.59-.452.459.254 1.167.706.707m-.153 2.462c.482.074.81.474 1.269.624.59.192 1.256.073 1.864.06.643-.013.645-1.013 0-1-.555.012-1.25.172-1.754-.106-.38-.21-.67-.474-1.113-.542-.63-.097-.901.867-.266.964m-2.568 58.202c-1.709-.398-3.044-.7-4.774-.19-1.554.456-3.038 1.194-4.212 2.319-.466.447.242 1.153.707.707 1.048-1.004 2.385-1.657 3.77-2.063 1.491-.436 2.77-.151 4.243.192.626.145.893-.819.266-.965m-19.486 14.629c-1.428 1.662-2.033 3.803-2.877 5.794-.895 2.116-1.756 4.24-2.276 6.484-.972 4.194-1.04 8.655.525 12.708.23.595 1.196.336.963-.265-1.503-3.897-1.458-8.144-.524-12.177.501-2.16 1.314-4.206 2.176-6.245.79-1.87 1.39-4.043 2.72-5.592.418-.486-.287-1.196-.707-.707m-7.293-59.793c.722-.8 2.201-.371 3.146-.354.644.012.645-.988 0-1-1.274-.022-2.878-.433-3.853.647-.43.477.274 1.186.707.707M20.378 33.519c-.943.13-1.431.653-2.002 1.398-1.252 1.633-2.72 3.035-3.994 4.643a14.864 14.864 0 0 0-2.243 3.91c-.662 1.73-.601 3.66-1.56 5.279-.33.555.535 1.058.863.505 1.415-2.387 1.252-5.236 2.753-7.685.98-1.6 2.286-2.707 3.514-4.078.84-.94 1.603-2.825 2.935-3.008.634-.086.364-1.05-.266-.963M11.01 35.5c-2.171.104-2.522 3.353-2.5 5 .009.643 1.009.645 1 0-.013-.978.122-3.934 1.5-4 .64-.03.645-1.03 0-1m104.646-8.146c4.703 4.782 5.148 10.652 6.872 16.779.173.619 1.138.356.963-.265-.942-3.354-1.31-6.876-2.527-10.151-.999-2.69-2.596-5.031-4.6-7.07-.453-.46-1.16.248-.708.707m6.922-2.101c.653 1.414 1.917 2.359 2.714 3.684 1.007 1.673 1.512 3.636 1.718 5.564.068.633 1.068.64 1 0-.186-1.744-.58-3.444-1.32-5.041-.823-1.782-2.442-2.965-3.25-4.712-.268-.583-1.131-.076-.862.505m8.95-.62c.243 1.598 1.094 3.33 2.05 4.62.379.511 1.247.013.864-.505-.918-1.239-1.717-2.849-1.95-4.38-.096-.635-1.06-.365-.964.265M72.01.001c-3.965.033-7.44 1.471-10.354 4.146-.475.437.234 1.143.708.708 2.73-2.508 5.93-3.823 9.646-3.854.643-.005.645-1.005 0-1m-67 148.5c-.018 2.825-.144 5.64.309 8.44.477 2.956 1.382 5.822 2.209 8.693.177.617 1.143.355.964-.266-.743-2.583-1.564-5.162-2.054-7.81-.56-3.015-.447-6.008-.428-9.057.004-.644-.996-.645-1 0" fill="#1D1E1B"/><g transform="translate(0 154.825)"><mask id="d" fill="#fff"><use xlink:href="#c"/></mask><path d="M.157 1.03c.676.622.683 1.936.872 2.779.14.628 1.104.363.963-.265C1.758 2.492 1.712 1.102.864.323.391-.112-.318.593.157 1.03" fill="#1D1E1B" mask="url(#d)"/></g><path d="M42.01 221.501c-.097 1.614.409 2.98.73 4.547.382 1.862.292 3.794.558 5.68.638 4.524.666 8.746.619 13.3-.016 1.565-.051 3.16.228 4.705.38 2.11.975 4.058.944 6.235-.057 4.064.032 8.087.297 12.146.27 4.165.597 8.33.618 12.506.02 4.02.914 7.905 1.007 11.91.092 3.932.926 7.79.997 11.722.073 4.08.646 8.05 1.022 12.103.352 3.786-.017 7.607.47 11.384.526 4.084 1.056 7.931.96 12.065-.19 8.15-.441 16.258-.43 24.415.006 4.201-.164 8.434.044 12.631.2 4.067.882 8.095.93 12.172.042 3.588-.194 7.092.547 10.622.884 4.21.066 8.355.564 12.58.222 1.885.688 3.732.85 5.626.17 2.006.01 4.012.016 6.021.012 3.692 1.195 7.245 1.34 10.948.322 8.2-.31 16.485-.312 24.695-.004 8.564-.013 17.13-.013 25.694 0 8.544.155 16.965-.802 25.46-.445 3.948-.228 7.928-.186 11.892.042 3.892-1.29 7.295-1.815 11.075-.543 3.907-.168 8.043.305 11.931.445 3.651.559 7.274 1.352 10.876.92 4.181 1.245 8.151 1.202 12.428-.04 3.968.295 7.754.717 11.69.44 4.116.028 8.22.062 12.345.033 3.94.915 7.744 1.14 11.663.21 3.652-.314 7.342.087 10.985.246 2.222.884 4.363 1.026 6.602.125 1.98.038 3.975-.01 5.955-.201 8.397-.133 16.825-.041 25.223.092 8.346 1.01 16.568 1.564 24.883.57 8.551.453 17.125.943 25.683.24 4.198.454 8.396.47 12.602.003.644 1.003.645 1 0-.034-8.573-.941-17.11-.997-25.683-.055-8.434-.89-16.733-1.505-25.132-.618-8.417-.497-16.865-.497-25.299 0-7.77.636-15.635-.708-23.302-.727-4.147-.091-8.342-.331-12.517-.225-3.913-1.111-7.728-1.141-11.663-.031-4.124.378-8.23-.062-12.345-.422-3.934-.757-7.725-.717-11.69.038-3.752-.051-7.32-.857-10.994-.9-4.103-1.191-8.153-1.697-12.31-.495-4.067-.966-8.55-.188-12.614.678-3.54 1.738-6.737 1.698-10.392-.042-3.965-.257-7.944.186-11.893.458-4.087.816-7.999.81-12.119-.012-8.729-.01-17.458-.003-26.188.005-8.413-.188-16.854.088-25.263.134-4.09.396-8.185.232-12.278-.147-3.697-1.328-7.273-1.34-10.948-.012-3.756-.216-7.208-.762-10.919-.59-3.997.294-8.036-.382-12.02-.335-1.973-.838-3.82-.845-5.838-.006-2.024.035-4.049.012-6.072-.048-4.077-.73-8.105-.93-12.172-.414-8.369-.127-16.88-.061-25.26.06-7.45 1.018-14.824-.242-22.225-.737-4.325-.337-8.663-.741-13.01-.377-4.055-.943-8.022-1.022-12.103-.154-7.893-1.963-15.745-2.004-23.632-.042-8.236-1.03-16.41-.915-24.652a17.772 17.772 0 0 0-.532-4.634c-.562-2.276-.67-4.453-.634-6.792.058-3.833.187-7.534-.391-11.337-.308-2.025-.347-4.02-.57-6.042-.213-1.933-1.071-3.686-.951-5.662.039-.643-.961-.64-1 0m51.146-21.646c2.728 3.389 1.978 8.854 2.394 12.977.407 4.032.548 8.052 1.251 12.05.79 4.497 1.394 8.897 1.768 13.448.35 4.253 1.313 8.4 1.467 12.675.155 4.277-.088 8.554-.066 12.83.023 4.302.834 8.544 1.036 12.837.19 4.017.731 8.098 1.112 12.103.401 4.218 1.56 8.308 2.072 12.506.471 3.87.426 7.807 1.138 11.648.78 4.206.405 8.364 1.088 12.56.341 2.096.38 4.19.612 6.29.232 2.092.901 4.064 1.035 6.177.278 4.403.398 8.827.607 13.235.211 4.433.274 8.857.347 13.293.071 4.365 1.032 8.664 1.046 13.03.007 1.987-.23 3.988-.019 5.97.23 2.158.883 4.205 1.022 6.382.28 4.35.44 8.718.642 13.072.208 4.458.133 8.939.57 13.38.4 4.058.7 8.027.73 12.105.03 4.388 1.092 8.719 1.06 13.068a86.014 86.014 0 0 0 .686 11.746c.483 3.82-.103 7.503.817 11.27 1.022 4.192 1.425 9.126 1.464 13.453.04 4.317.126 8.373.585 12.668.451 4.225.63 8.459 1.157 12.678.258 2.07.01 4.12.177 6.192.165 2.037.887 3.969 1.084 6.003.385 3.958.837 7.807.97 11.78.065 1.994.56 3.938.78 5.918.237 2.149.36 4.309.662 6.45.595 4.225 1.161 8.387 1.558 12.637.773 8.297 2.064 16.657 3.474 24.869 1.5 8.726 1.778 17.546 3.021 26.309.655 4.616 1.281 9.227 1.802 13.86.483 4.288 1.291 8.596 1.636 12.89.321 4.016.132 7.85.848 11.848.746 4.16 1.944 8.139 3.182 12.173a91.83 91.83 0 0 1 4.04 25.307c.032 1.705.26 3.326.517 5.003.3 1.962.064 3.974.444 5.918.356 1.82 1.084 3.394 1.121 5.295.037 1.997-.034 4.006-.09 6.002-.08 2.887-.726 5.914.195 8.727.051.156.177.318.35.349.276.049.552.099.83.147.628.113.898-.851.264-.963-1.848-.33-.645-8.292-.616-9.873.035-1.88.208-3.816.021-5.693-.148-1.49-.829-2.8-1.11-4.256-.374-1.932-.153-3.964-.446-5.918-.355-2.37-.472-4.612-.48-7.005-.017-3.89-.539-7.695-1.292-11.506-1.629-8.253-4.605-16.153-6.045-24.428-.766-4.403-.338-8.79-.984-13.176-.67-4.56-1.18-9.132-1.71-13.71-1.02-8.823-2.484-17.54-3.018-26.416-.51-8.51-2.469-17.014-3.607-25.46-.61-4.527-1.234-9.026-1.632-13.578-.369-4.225-1.237-8.364-1.632-12.58-.386-4.115-.997-8.125-1.066-12.255-.03-1.808-.438-3.516-.682-5.3-.28-2.04-.297-4.063-.749-6.078-.489-2.181-.665-4.166-.643-6.397.022-2.211-.386-4.33-.606-6.525-.41-4.104-.575-8.208-1.13-12.298-.606-4.451.061-8.941-.415-13.405-.42-3.952-.964-7.751-1.712-11.631-.429-2.225-.01-4.48-.095-6.722-.068-1.798-.38-3.571-.638-5.35-.599-4.123.104-8.265-.51-12.36-.684-4.55-.735-8.916-.847-13.502-.102-4.155-.88-8.257-1-12.411-.132-4.536-.27-9.063-.509-13.595-.205-3.94-.05-8.05-.82-11.927-.896-4.512-.408-8.97-.88-13.526a151.97 151.97 0 0 1-.806-13.113c-.078-4.415-.31-8.825-.532-13.235-.209-4.152.003-8.473-.935-12.536-.489-2.12-.56-4.214-.778-6.367-.218-2.14-.724-4.238-.76-6.392-.034-1.947.178-3.868-.1-5.808-.314-2.184-.834-4.305-1.034-6.511-.358-3.935-.529-7.848-1.273-11.738-.875-4.576-1.313-9.064-1.79-13.685-.865-8.376-1.906-16.715-1.75-25.148.318-17.39-4.196-34.325-4.977-51.651-.135-2.992-.248-5.393-2.19-7.807-.404-.501-1.108.21-.708.707m-50.78-12.372c1.534.598 1.38 6.678 1.485 8.145.328 4.632.8 9.244 1.149 13.873.048.638 1.048.643 1 0-.415-5.52-.907-11.057-1.405-16.57-.16-1.765.089-5.613-1.962-6.412-.6-.234-.86.733-.266.964m9.633 50.018c-.022.797.314 1.431.484 2.19.203.913.034 1.886.016 2.81-.012.644.988.644 1 0 .017-.875.143-1.764.026-2.637-.11-.813-.55-1.532-.526-2.363.018-.644-.982-.643-1 0m6 24c-.162 2.7 2.349 4.424 2.5 7 .038.64 1.038.644 1 0-.152-2.585-2.657-4.39-2.5-7 .039-.643-.961-.64-1 0m26.518-94.132c-.257 1.14-.787 2.19-1.076 3.325-.312 1.227-.535 2.467-.924 3.675-.198.614.767.876.964.266.39-1.207.612-2.448.924-3.676.289-1.134.819-2.183 1.076-3.324.14-.627-.822-.895-.964-.266" fill="#1D1E1B"/></g></g></g></svg>