<svg width="427" height="350" viewBox="0 0 427 350" xmlns="http://www.w3.org/2000/svg"><title>target</title><g fill="none" fill-rule="evenodd"><path d="M204.393 37.734a17.292 17.292 0 0 0-.536-.437l.006.005c.18.14.354.287.53.432" fill="#F2F2F2"/><path d="M290.325 171.405a180.161 180.161 0 0 0-3.382-17.504c-.245-1-.642-1.935-1.147-2.796-1.41-10.016-4.101-19.754-9.55-28.544-.868-1.4-1.918-2.512-3.083-3.362a428.16 428.16 0 0 1-5.418-17.21c-.796-2.73-2.54-5.002-4.774-6.534-1.747-3.287-4.05-6.263-6.575-9.073a7.403 7.403 0 0 0-.474-1.672c-4.356-10.348-11.154-18.881-20.156-24.69-1.135-2.55-2.175-5.146-3.704-7.498-3.213-4.942-7.639-8.733-12.59-11.861a100.029 100.029 0 0 0-4.585-2.703c-3.184-2.744-6.48-5.375-9.823-7.945-12.077-9.282-25.041-15.785-39.84-19.552-14.876-3.785-30.698-6.949-46.09-5.908-16.213 1.099-32.972 2.857-45.183 14.643-.086.085-.156.172-.24.257-10.148 4.974-18.655 14.168-24.233 24.012-5.49 9.691-10.049 20.084-13.299 30.846-7.857 15.838-12.035 33.504-11.8 51.21.032 2.401.17 4.793.377 7.175-.107 3.082-.09 6.16.05 9.228-.035 4.375.095 8.755.418 13.135.402 5.468 1.104 11.815 2.819 17.714.004.7.017 1.4.04 2.1-.292 1.683-.3 3.46-.012 5.238a102.492 102.492 0 0 0 1.787 8.627 71.477 71.477 0 0 0 3.623 11.506c.136.328.285.651.44.97 6.205 23.387 12.75 46.82 30.224 64.53.189.26.38.518.585.768 3.099 3.793 6.652 7.09 10.316 10.272.263.462.527.923.79 1.38 6.514 11.334 14.106 22.5 23.576 31.586 10.4 9.976 23.025 15.106 36.434 19.772 6.335 2.204 12.72 4.274 19.11 6.312 5.444 1.734 10.353 2.591 15.43 1.815 1.721 1.161 3.852 1.901 6.39 1.971 14.745.41 29.828.096 43.358-5.983a12.664 12.664 0 0 0 3.324-1.241c7.773-4.228 15.09-9.084 22.088-14.495 6.037-4.67 15.127-10.583 17.569-18.4 4.901-4.503 8.762-9.981 11.899-15.99 2.755-5.274 5.431-10.726 7.71-16.305a106.11 106.11 0 0 0 4.248-10.882c1.918-5.857 3.79-12.554 4.255-19.119.913-4.993 1.115-9.984.16-14.667.625-4.64.84-9.332.776-14.068.378-3.304.575-6.656.751-10.03.474-9.046.255-18.362-2.589-27.035" fill="#FFF"/><path d="M409.65 74.107c-3.085-.16-5.818 1.077-8.675 2.104l-5.839 2.101a1.121 1.121 0 0 0-.676.031c-8.516 2.973-16.958 6.148-25.394 9.337a1.165 1.165 0 0 0-.46.053l-16.5 5.487a1.261 1.261 0 0 0-.88 1.005c-6.294 2.05-12.867 4.108-18.738 7.037-.272-.21-.64-.294-1.08-.136a454.05 454.05 0 0 0-18.873 7.218c-7.452 2.718-15.07 4.974-22.639 7.344-.494.154-.77.502-.87.894a66.069 66.069 0 0 0-6.238 2.533c-4.678 1.602-9.29 3.476-13.91 5.324-6.245 1.953-12.49 3.941-18.547 6.307a1.509 1.509 0 0 0-.39.227c-3.638 1.105-7.277 2.21-10.915 3.313a1.293 1.293 0 0 0-.599.377 374.033 374.033 0 0 0-21.207 8.118 1.075 1.075 0 0 0-1-.125 431.675 431.675 0 0 0-12.548 4.741c-.134 0-.276.017-.43.065-2.954.932-11.598 2.177-11.932 6.228-.069.824.897 1.527 1.661 1.266 5.657-1.93 11.464-3.672 17.076-5.814.247.116.546.146.891.027 12.626-4.359 25.09-9.159 37.551-13.96a171.47 171.47 0 0 0 3.228-1.243c.267.052.562.017.865-.153.158-.089.322-.164.481-.25.204.044.436.032.695-.074a171.198 171.198 0 0 1 21.268-7.114c.326.123.712.131 1.104-.046 2.562-1.159 5.124-2.316 7.687-3.474.04-.009.078-.01.12-.024 3.44-1.025 6.782-2.382 10.113-3.78.178.018.373-.003.588-.087 12.192-4.782 24.674-8.557 36.865-13.3a1.33 1.33 0 0 0 .673-.563c8.157-2.93 16.272-5.969 24.351-9.105a234.337 234.337 0 0 0 10.88-3.757c.057-.013.112-.02.171-.042l2.92-1.026a148.797 148.797 0 0 0 11.046-3.882c.127-.05.233-.118.332-.19.775-.266 1.554-.523 2.325-.797 2.816-.924 5.602-2.03 8.35-3.174.691-.279 1.384-.553 2.073-.838l8.174-2.528c2.583-.799 6.586-1.082 7.985-3.68.487-.903-.128-1.922-1.133-1.975m15.528 39.711c-.633.074-1.261.161-1.886.256a1.377 1.377 0 0 0-.875-.121l-2.947.521c-2.895.334-5.75.869-8.603 1.469a1.324 1.324 0 0 0-.67-.02l-14.44 3.161a1.259 1.259 0 0 0-1.028-.197 396.804 396.804 0 0 0-16.238 3.972c-2.51.57-5.021 1.138-7.531 1.711-.06.015-.11.037-.162.056-.646.126-1.29.263-1.935.398a1.212 1.212 0 0 0-.903-.072c-8.452 2.394-17.165 3.668-25.635 5.973-3.416.64-6.763 1.459-9.921 2.701a1.35 1.35 0 0 0-.605.462c-.331.088-.663.173-.993.262-4.13.062-8.221 1.242-12.262 2.673a1.401 1.401 0 0 0-.512.045l-10.691 2.919c-.257-.144-.58-.193-.955-.079l-4.434 1.349c-4.635.779-9.153 1.991-13.673 3.271-.04.011-.07.028-.106.041l-1.946.382c-.077.015-.13.05-.196.073a309.871 309.871 0 0 0-10.825 2.607 1.34 1.34 0 0 0-1.067-.27c-3.843.611-7.528 1.713-11.213 2.864-4.531.66-9.018 1.545-13.484 2.533-7.656.643-15.044 3.068-22.491 4.834-8.306 1.971-17.187 2.899-25.212 5.825a1.364 1.364 0 0 0-.448.267c-.787-.074-1.743.591-1.584 1.639.202 1.335 1.322 1.475 2.457 1.465 2.246-.019 4.688-.56 7.104-1.204 5.869-.875 11.524-2.62 17.318-3.861 5.433-1.165 10.832-2.09 16.164-3.626.109.004.22-.001.342-.023a514.227 514.227 0 0 0 23.926-5.002c.217.075.464.098.743.035a54.924 54.924 0 0 0 5.406-1.518c.072-.001.139.01.216-.004a120.146 120.146 0 0 0 10.076-2.216c1.44-.336 2.876-.686 4.309-1.049a218.84 218.84 0 0 0 3.328-.727c.2.053.427.062.68-.001a511.792 511.792 0 0 0 15.212-4.029c.21.062.454.071.729-.003a58.221 58.221 0 0 0 4.14-1.321c.172.024.362.013.568-.046 1.993-.565 3.986-1.125 5.98-1.687 4.524-1.101 9.123-1.984 13.426-3.591.145-.055.265-.134.376-.22a619.487 619.487 0 0 1 15.944-4.085c2.673-.404 5.352-.778 7.982-1.223.096.006.188.018.292.003a105.91 105.91 0 0 0 11.452-2.363c.084-.021.157-.052.229-.085.253.145.557.216.915.142a187.848 187.848 0 0 0 11.218-2.716c4.285-.95 8.544-2.002 12.787-3.124a380.02 380.02 0 0 0 14.538-2.823c.053-.006.105-.007.16-.019l.024-.004c.246.123.54.173.876.099 5.505-1.201 12.158-1.699 17.217-4.234 1.116-.559.637-2.598-.663-2.445m-14.724-20.282c-1.959-1.79-5.066.19-7.009.898-.533.194-1.072.366-1.608.55l-12.023 3.293c-.314.086-.54.244-.693.442-.753.215-1.509.426-2.263.64-.678.182-1.359.36-2.035.55a1.193 1.193 0 0 0-.86-.025l-11.125 3.573c-.637.195-1.275.388-1.912.58-2.32.668-4.64 1.341-6.95 2.046-.23.07-.41.184-.55.323a496.175 496.175 0 0 0-21.28 6.591 1.28 1.28 0 0 0-.717.568 194.46 194.46 0 0 0-4.517 1.573 1.3 1.3 0 0 0-.598.062l-14.559 4.898a1.31 1.31 0 0 0-.69.513c-.584.145-1.169.284-1.752.43-.269-.188-.622-.254-1.042-.1-16.948 6.211-34.304 10.924-51.389 16.66a1.26 1.26 0 0 0-.76.645c-.57.22-1.147.425-1.72.64a408.034 408.034 0 0 0-20.13 6.382 1.375 1.375 0 0 0-.319.061l-26.323 8.563c-6.4 2.082-12.929 3.961-19.238 6.354-1.91.528-3.8 1.098-5.64 1.756-1.927.476-3.853.952-5.778 1.43-1.64.404-.945 2.936.697 2.53l.083-.02c.376.39.96.594 1.577.294 1.381-.668 2.82-1.199 4.285-1.66a1.35 1.35 0 0 0 1.081-.022c.631-.279 1.271-.538 1.91-.802l5.217-1.29c.165-.04.3-.108.42-.186l.025-.008a418.887 418.887 0 0 0 13.51-3.936 411.922 411.922 0 0 0 15.556-5.178c.181.04.375.044.581-.01a82.102 82.102 0 0 0 9.292-3.1c.03-.012.053-.029.081-.043 13.025-3.87 26.034-7.812 38.76-12.564.985-.309 1.973-.61 2.957-.93.141.004.291-.01.452-.064l.963-.313c.241.106.52.133.82.024l7.928-2.874a1.48 1.48 0 0 0 .346-.187c1.62-.516 3.253-1 4.887-1.476 1.687-.323 3.357-.647 5.007-.99.191.04.403.035.638-.039.333-.105.674-.203 1.01-.305 3.14-.703 6.228-1.654 9.286-2.71 2.95-.87 5.872-1.818 8.69-2.948.054-.003.106.003.163-.006 4.137-.648 8.286-2.059 12.351-3.482a142.25 142.25 0 0 0 5.292-1.815c.128-.048.236-.11.335-.18 2.985-1.135 5.97-2.268 8.956-3.402.091-.035.155-.09.231-.138a166.81 166.81 0 0 0 7.28-2.42c.122-.006.247-.024.383-.068l2.217-.727c.095-.009.194-.029.296-.06 2.254-.706 4.493-1.45 6.723-2.22l6.31-2.083c.173.023.365.01.573-.056l4.772-1.477c.207.053.442.053.706-.033l11.987-3.896c.172-.056.312-.138.433-.234.18.03.38.02.597-.048a141.334 141.334 0 0 0 6.74-2.293c.402-.128.802-.264 1.2-.41.173.623.735 1.101 1.532.824 1.835-.638 12.654-2.926 8.344-6.865" fill="#D1CCB2"/><path d="M285.666 143.592l-1.624-3.464c-.221-.473-.43-.905-.688-1.3.255-.496.025-1.17-.52-1.276-.306-.204-.715-.241-1.053.097-.025.025-.05.048-.073.073-.693.22-.795 1.11-.187 1.577.395.304.678.844.915 1.39-.265.252-.414.639-.228 1.056.399.902.799 1.803 1.2 2.703.125.28.47.423.756.433l.747.027c.714.026 1.02-.749.755-1.316m-4.86-11.47c-.506-2.015-1.912-3.668-2.279-5.72-.09-.504-.645-.675-1.075-.61l-.135.02a.896.896 0 0 0-.471.057l-.255.107c-.034.015-.05.038-.08.054-.424.113-.745.488-.534 1.012.267.661.36 1.37.613 2.036.296.781.685 1.53 1.042 2.284.503 1.067 1.164 2.307 2.563 1.836.456-.154.733-.596.612-1.077" fill="#D1CCB2"/><path d="M213.85 338.36l-10.243 2.586a.384.384 0 0 0-.163.086c-.594.115-1.191.208-1.787.31a1.368 1.368 0 0 0-.926-.197c-13.706 1.86-27.557.796-41.307-.03l-14.221-5.75a96.376 96.376 0 0 0-2.431-.94c-5.05-2.765-10.245-5.273-15.415-7.81-4.252-2.628-8.594-5.13-12.836-7.772-6.833-4.9-13.515-10.043-20.488-14.749-.04-.046-.07-.092-.115-.137a29.215 29.215 0 0 0-2.434-2.144l-1.565-1.379c-.014-.013-.03-.02-.045-.033-8.281-8.27-15.724-17.556-23.447-26.309a2.268 2.268 0 0 0-.312-.565l-8.482-11.175c-2.06-3.546-4.933-6.847-6.763-10.315-3.08-5.838-5.618-11.927-8.944-17.63-1.536-4.155-3.371-8.166-5.373-12.1.093-.343.108-.718.008-1.107-4.093-16.07-9.732-31.698-13.691-47.837v-1.843c0-.63-.225-1.114-.566-1.462-.238-2.993-.48-5.985-.705-8.979a2.234 2.234 0 0 0-.423-1.172 2.28 2.28 0 0 0 .008-.333 165.845 165.845 0 0 0-1.521-13.505 1.795 1.795 0 0 0-.188-.56c-.026-.525-.048-1.05-.092-1.576.073-.228.122-.479.12-.769a77.182 77.182 0 0 0-.13-3.826c.008-.595.015-1.189.016-1.783.099-.21.175-.433.205-.676.333-2.715.028-5.515-.233-8.313-.018-1.21-.057-2.42-.115-3.633.094-.18.182-.37.266-.575.136-.334.173-.646.135-.93a2.04 2.04 0 0 0 .394-1.263c-.02-1.74-.022-3.478-.011-5.218.115-.857.203-1.715.22-2.572.026-.124.049-.249.055-.387.083-2.133.246-4.259.414-6.385.13-.202.243-.43.315-.713.466-1.843 1.149-4.64 1.32-7.363l.445-2.474c.233-1.298.484-2.344.444-3.408.899-2.79 1.91-5.723 2.393-8.627.447-.26.793-.669.896-1.233l.142-.775a2.24 2.24 0 0 0-.098-1.193c.036-.066.079-.126.104-.204l.175-.536c.972-1.968 2.349-4.585 2.56-6.822.729-.35 1.177-1.087 1.268-1.967.038-.362.107-.709.162-1.062.26-.227.482-.519.63-.9a183.149 183.149 0 0 1 5.389-12.419 2.65 2.65 0 0 0 .188-.547l2.02-4.325.916-1.482a135.327 135.327 0 0 0 2.2-3.565c.045-.046.094-.079.13-.138a264.92 264.92 0 0 0 4.193-6.976.84.84 0 0 0 .462-.353 9352.32 9352.32 0 0 1 2.594-4.126c.66-.878 1.304-1.77 1.938-2.669.243-.29.487-.579.732-.866.855-.85 1.65-1.732 2.403-2.68a.34.34 0 0 0 .238-.132c2.155-2.762 4.473-5.326 7.368-7.33.46-.319.023-1.078-.441-.756a26.656 26.656 0 0 0-2.334 1.827.363.363 0 0 0-.454-.012c-.28.193-.55.4-.824.597a.421.421 0 0 0-.35.015c-2.376 1.244-4.693 2.527-6.656 4.31a1.069 1.069 0 0 0-.723.062l-.126.054c-.3.128-.424.348-.443.582-1.963 1.611-4.1 2.97-5.96 4.68a32.348 32.348 0 0 0-3.127 2.653 21.396 21.396 0 0 0-1.741 1.745c-2.007 1.84-4.081 3.807-5.752 5.99-.096.062-.194.114-.284.194-2.173 1.946-3.896 4.172-5.322 6.575-.046-.002-.094-.015-.14-.013-1.068.048-2.332.971-2.186 2.188.003.03.004.104.004.17a1.863 1.863 0 0 1-.046.155c-.124.311-.097.721-.002 1.095a33.717 33.717 0 0 0-2.236 3.822c-1.403 1.11-2.353 3.132-3.125 5.265a25.997 25.997 0 0 0-2.422 5.427 1.103 1.103 0 0 0-.573.551 59.268 59.268 0 0 0-3.27 8.251 2.33 2.33 0 0 0-.318.287c-1.412 1.556-1.877 4.201-2.274 6.595a39.803 39.803 0 0 0-2.17 5.831c-1.084 2.88-2.094 5.767-2.878 8.73-1.94 4.636-3.71 9.661-3.516 14.434.009.225.067.435.144.636a2.353 2.353 0 0 0-.376 1.018 51.91 51.91 0 0 0-.37 8.194c-.443.351-.745.901-.734 1.66.035 2.723.153 5.435.347 8.142-.051.186-.09.383-.095.603a62.36 62.36 0 0 0 .335 8.218c-.746 2.538-.085 5.736.494 8.536a1.863 1.863 0 0 0-.148.968c.385 3.643.348 7.205 1.099 10.817.264 1.27.568 2.526.875 3.781-.2 5.742 1.184 11.342 2.535 16.891a193.81 193.81 0 0 0 2.497 14.2 29.444 29.444 0 0 0 .448 5.264c.078.46.286.81.568 1.063.387 1.29.917 2.52 1.575 3.7a39.026 39.026 0 0 0 2.763 7.385c.336.931.708 1.844 1.11 2.742a38.045 38.045 0 0 0 1.367 3.275c-.084.434-.048.911.167 1.4l3.107 7.07c.008.026.01.05.02.077a80.619 80.619 0 0 0 4.468 9.861c.054.101.117.181.177.267a166.804 166.804 0 0 0 4.303 8.467c0 .222.034.453.129.695 3.896 9.916 10.489 18.362 17.066 26.69-.082.62.04 1.275.449 1.802 9.31 12.001 19.68 23.825 31.42 33.527.095.121.206.24.342.348 6.8 5.492 14.008 10.424 21.26 15.295 6.629 4.453 13.378 8.63 20.885 11.372.179.2.418.375.729.517.742.338 1.489.663 2.239.978.21.184.463.34.77.451 11.515 4.131 23.045 8.056 35.293 9.214.235.022.443.004.637-.033 2.88 1.185 8.043.277 10.324.238 6.323-.108 12.569-.476 18.729-1.985a1.17 1.17 0 0 0 .843-.727l2.424-.706c4.554-.462 9.076-1.386 12.774-3.34a.857.857 0 0 0 .314-.283c.438-.098.877-.197 1.314-.306a.759.759 0 0 0 .598-.635c.844-.264 1.69-.517 2.529-.8a.424.424 0 0 0 .298-.432l.544-.142a.415.415 0 0 0 .179-.095l2.76-.698c.546-.137.315-.98-.232-.843" fill="#847B5F"/><path d="M294.386 217.785c.134-2.729.598-5.439.647-8.18.043-2.453-.13-4.88-.428-7.3.2-.266.327-.609.33-1.03.043-4.762-.358-9.469-1.133-14.159.09-.283.112-.603.02-.963-.713-2.778-.098-5.695-.696-8.524-.591-2.798-1.301-5.534-1.778-8.362-1.075-6.372-2.054-12.762-3.077-19.144-.356-2.217-3.73-1.276-3.375.931 1.024 6.381 2.002 12.772 3.077 19.144.477 2.824 1.163 5.57 1.778 8.361.576 2.615.082 5.191.549 7.79a1.845 1.845 0 0 0-.017.762c.735 4.165 1.088 8.342 1.133 12.558a1.795 1.795 0 0 0-.462 1.524c.942 6.253-.192 12.083-.106 18.29 0 .025.007.046.008.071l-.01.127c-.207.27-.328.625-.298 1.077.032.487.052.975.067 1.463a122.752 122.752 0 0 1-2.873 16.707c-.106.437-.053.82.098 1.142-.734 5.563-1.598 11.08-3.046 16.481-.587.233-1.078.735-1.165 1.515-.865 7.757-5.345 15.541-9.338 22.318l-.002.003-7.112 11.647c-1.05 1.716-1.987 3.527-3.428 4.955-1.092 1.082-2.135 1.904-2.984 3.198a1.623 1.623 0 0 0-.282.898 150.886 150.886 0 0 1-8.692 9.623 1.804 1.804 0 0 0-.478.35 65.455 65.455 0 0 1-10.906 9.078 2.218 2.218 0 0 0-.678.298 340.067 340.067 0 0 1-6.716 4.374c-.475-.124-1.007-.093-1.557.196a101.957 101.957 0 0 1-8.016 3.78c-.608-.416-1.402-.582-2.237-.226a180.552 180.552 0 0 1-14.871 5.555 2.197 2.197 0 0 0-.93.581 73.582 73.582 0 0 0-4.105.985c-2.77-.008-5.536.068-8.303.273-3.288.243-6.576.91-9.8-.046-1.004-.298-1.85-.093-2.488.378-6.104-.21-12.377-.46-18.382-1.567-5.831-1.075-10.963-4.143-16.598-5.853a3.172 3.172 0 0 0-.864-.13 52.771 52.771 0 0 1-1.59-.77c-2.273-1.159-4.212-2.822-6.462-3.999-1.958-1.026-4.107-1.639-6.08-2.638-8.621-4.365-16.781-10.036-24.634-15.636-.131-.094-.262-.156-.393-.225-1.352-1.392-2.787-2.673-4.262-3.902-.077-.1-.143-.203-.238-.3-1.67-1.729-3.815-2.814-5.582-4.432-2.114-1.936-4.043-4.139-6.041-6.192-4.141-4.252-8.316-8.47-12.202-12.96a3.33 3.33 0 0 0-.448-.425c-.078-.11-.163-.218-.24-.329a3.198 3.198 0 0 0-.992-.937c-1.701-3.162-4.241-5.475-6.581-8.162-2.434-2.795-4.59-5.867-6.726-8.892-4.468-6.33-8.392-12.99-11.432-20.127a3.076 3.076 0 0 0-.36-1.94l-.456-.823a2.713 2.713 0 0 0-.486-.612c-.011-.016-.018-.034-.028-.05-.465-2.183-1.141-4.265-1.973-6.33l-.035-.127-.013.005c-.012-.026-.022-.053-.033-.08-.3-1.563-.538-3.139-.775-4.697-.162-1.06-.725-1.697-1.438-1.999-.465-1.955-.852-4.019-1.963-5.707a3.127 3.127 0 0 0-1.025-.989 193.931 193.931 0 0 0-7.166-18.145 3.012 3.012 0 0 0-.554-.82 113.05 113.05 0 0 0-.477-2.152 3.315 3.315 0 0 0-.186-.542 2.682 2.682 0 0 0-.201-1.275 74.043 74.043 0 0 1-1.595-4.364c-.205-1.087-.321-2.203-.472-3.322-.367-2.72-1.07-5.329-1.852-7.957a3.38 3.38 0 0 0-.401-.86c-.001-.096.008-.186-.002-.287l-.962-8.85a4.066 4.066 0 0 0-.354-1.269 46.727 46.727 0 0 0-.288-5.013 2.795 2.795 0 0 0-.423-1.199l.009-.43c.122-.276.192-.6.188-.978l-.06-5.168c-.01-.794-.362-1.356-.857-1.702 0-.139.003-.278.004-.417 0-.02-.005-.036-.005-.055a78.677 78.677 0 0 0-.33-7.292 2.22 2.22 0 0 0-.52-1.273l-.388-9.7a2.247 2.247 0 0 0-.246-.955c.378-2.51.803-4.97.396-7.56a1.855 1.855 0 0 0-.202-.596c.279-3.075.61-6.145.584-9.238.236-.322.403-.729.452-1.229a90.639 90.639 0 0 1 1.968-11.836c.088-.377.077-.72.003-1.033a174.39 174.39 0 0 1 2.206-8.29c.065-.22.086-.427.089-.625a7.69 7.69 0 0 0 .136-.81c.005-.024.017-.04.022-.065.2-.917.433-1.826.648-2.738a127.11 127.11 0 0 0 2.983-8.307c.094-.293.118-.563.105-.815l1.24-3.105c.099-.247.132-.484.128-.712a96.12 96.12 0 0 0 2.48-6.26c.085-.174.176-.345.262-.518 1.099-.35 1.548-1.508 1.357-2.529.387-.975.755-1.942 1.124-2.903a119.994 119.994 0 0 1 3.655-7.778c.03-.028.063-.048.094-.079 1.554-1.59 2.649-3.314 3.46-5.336 1.785-2.015 3.664-3.963 5.282-5.998 3.147-3.957 6.265-7.563 9.898-11.085.366-.354.56-.746.628-1.138 3.716-2.408 7.409-4.87 11.205-7.147 2.63-1.576 5.319-2.957 7.752-4.784a289.466 289.466 0 0 1 15.786-6.08c4.714-1.656 9.608-2.929 14.228-4.839a110.1 110.1 0 0 1 32.992.48c.294.206.644.357 1.065.405 1.272.148 2.539.32 3.799.514.397.084.793.162 1.189.251.2.045.392.056.575.052.725.125 1.453.24 2.173.38.147.077.307.145.487.196.246.07.49.146.736.216.113.046.229.085.342.131.213.087.41.127.602.147a189.46 189.46 0 0 1 29.052 11.13c.172.34.458.645.897.872 4.786 2.48 9.535 4.998 13.94 8.091.129.468.418.907.936 1.237 6.793 4.32 13.509 8.715 19.316 14.301.105.207.248.41.444.602 2.522 2.466 5.049 4.932 7.394 7.57 2.237 2.514 4.248 5.173 6.91 7.267.078.06.158.101.237.15.133.144.262.291.395.435.15.218.308.43.456.65.226.336.502.568.799.728.237.264.482.522.716.79.067.16.153.322.274.486 4.266 5.755 8.407 11.923 13.125 17.37.05.086.106.171.175.254.113.137.218.28.33.415 1.8 2.84 3.453 6.061 5.66 8.65.009.042.009.083.023.125.433 1.233 1.1 2.355 1.805 3.458.138.431.28.861.406 1.297.188.65.626 1.015 1.128 1.158a100.503 100.503 0 0 1 3.376 6.216c.01.06.01.114.028.176.934 3.22 2.59 6.1 3.729 9.244.123.34.336.57.587.715a40.488 40.488 0 0 0 1.984 4.954c.104.216.255.367.43.47l.323.611c.103.302.25.58.442.836.01.022.024.045.035.067l.008-.006c.047.06.078.124.129.183a.717.717 0 0 0 .727.251c.006.005.01.01.018.014.535.334 1.033.004 1.214-.45.396-.213.654-.684.359-1.183a18.833 18.833 0 0 1-.952-1.847 1.072 1.072 0 0 0-.051-.66c-.364-.92-.73-1.839-1.092-2.757.05-.52-.111-1.07-.54-1.359l-1.563-3.948a37.155 37.155 0 0 0-1.116-3.098c-.37-1.085-.756-2.166-1.152-3.244.05-.2.047-.419-.044-.65a58.697 58.697 0 0 0-2.62-5.795c-.08-.217-.153-.436-.233-.653a1.34 1.34 0 0 0-.456-.617 63.484 63.484 0 0 0-1.383-2.375 1.387 1.387 0 0 0-.067-.55c-.727-2.066-1.898-3.734-3.243-5.437a1.222 1.222 0 0 0-.324-.278 47.647 47.647 0 0 0-2.893-4.725 2.278 2.278 0 0 0-.44-.692c-.103-.114-.202-.233-.306-.347-.104-.143-.203-.289-.31-.43a2.021 2.021 0 0 0-.4-.882 150.365 150.365 0 0 1-5.743-8.107c-1.48-2.244-3.256-3.984-4.988-6.013a2.108 2.108 0 0 0-.527-.448c-1.348-1.866-2.868-3.567-4.406-5.264-4.2-6.018-9.123-11.412-14.81-16.075a2.246 2.246 0 0 0-1.064-.492c-5.491-5.263-11.768-9.528-18.162-13.63a2.287 2.287 0 0 0-.706-.896c-3.69-2.834-7.672-5.173-11.748-7.368-.155-.408-.462-.779-.978-1.044-.184-.094-.371-.182-.555-.275a2.351 2.351 0 0 0-.362-.274c-10.874-6.596-22.66-11.148-35.016-13.65-7.315-2.84-15.012-4.412-22.82-5.149-5.541-.523-10.835-.115-16.122.791-6.921.043-14.128 2.31-20.523 4.591-2.81 1.001-5.841 2.13-8.773 3.49-9.207 3.305-21.062 6.711-27.546 14.51-2.871 2.044-5.174 4.598-7.315 7.581-3.13 4.36-6.893 8.402-9.613 13.032-.338.577-.378 1.138-.232 1.63a49.878 49.878 0 0 0-1.325 2.077c-1.12 1.27-2.055 2.695-2.95 4.222a2.182 2.182 0 0 0-.998 1.143 84.182 84.182 0 0 0-1.73 4.896 30.29 30.29 0 0 0-3.893 8.262 45.986 45.986 0 0 0-4.237 10.201 2.826 2.826 0 0 0-.223.436c-1.308 3.213-2.176 6.541-2.972 9.905-.286.254-.512.61-.624 1.092a82.138 82.138 0 0 0-.98 4.994c-1.37 1.318-1.17 4.107-1.365 5.813a98.919 98.919 0 0 0-.343 3.535c-.48.348-.81.904-.791 1.687.148 6.318-1.498 12.413-1.27 18.777-.001.022-.008.04-.01.062a24.307 24.307 0 0 0-.035 3.471c-.076.292-.137.587-.19.885-.37.351-.614.852-.61 1.516.04 7.905.178 15.311 1.487 22.99.015.948.084 1.894.209 2.841a39.145 39.145 0 0 0 .155 3.994c-.43.556-.656 1.295-.486 2.176a70.35 70.35 0 0 0 2.074 8.072l.138 1.273a3.054 3.054 0 0 0-.145 1.092c.077 1.583.315 3.121.788 4.634.106.337.27.626.467.882-.036.337-.035.693.047 1.08l.052 1.174c-.044.98.304 1.716.85 2.208.244 1 .464 2.005.65 3.02-.272.572-.36 1.262-.13 2.055a75.69 75.69 0 0 0 .956 2.997c.36 1.717.902 3.352 1.85 4.92l.015.02c-.033.333-.027.685.062 1.065 1.099 4.691 1.877 9.654 3.444 14.217 1.442 4.201 3.829 8.076 5.53 12.186.005.337.06.695.217 1.083a196.08 196.08 0 0 0 2.603 6.166c-.072.422-.053.886.1 1.394.97 3.201 2.542 6.092 4.227 8.964.24.41.54.718.873.95a113.26 113.26 0 0 0 10.956 19.835 182.394 182.394 0 0 0 6.774 9.206c2.484 3.147 5.68 5.738 7.54 9.33.333.642.785 1.06 1.286 1.295 3.972 5.582 8.71 10.596 13.609 15.381 1.708 1.668 3.526 3.202 5.368 4.703.165.16.325.325.492.482.854.81 1.825 1.485 2.786 2.166 2.729 2.2 5.42 4.434 7.822 7.008.439.471.922.734 1.409.858 7.776 5.54 15.835 11.047 24.332 15.421 1.97 1.014 4.115 1.633 6.08 2.638 2.04 1.042 3.794 2.573 5.818 3.656 4.098 2.194 8.529 3.515 12.389 6.167.745.511 1.477.615 2.128.464.118.06.227.128.357.177 8.459 3.21 17.449 3.316 26.38 3.185a3.066 3.066 0 0 0 1.015-.186c.382.183.828.293 1.346.293.75 0 1.356-.224 1.82-.584 2.106.163 4.202-.024 6.403-.216 4.053-.354 8.104-.462 12.17-.384 1.328.025 2.197-.658 2.63-1.57.652-.147 1.3-.303 1.947-.477 1.316-.353 2.782-.654 3.989-1.34a80.397 80.397 0 0 0 4.907-1.735c.46.485 1.149.708 2 .366 8.209-3.29 15.577-7.986 22.919-12.858.609-.404.905-.96.976-1.533a68.766 68.766 0 0 0 7.869-6.236 1.79 1.79 0 0 0 .595-.385 149.496 149.496 0 0 0 13.704-15.109 1.85 1.85 0 0 0 .368-.805c.556-.499 1.125-.986 1.62-1.555 1.242-1.429 2.148-3.18 3.129-4.787l6.132-10.042c.06-.076.123-.15.177-.242.248-.42.498-.847.749-1.275l.054-.089c.005-.007.006-.013.01-.019 3.386-5.776 6.909-12.09 8.729-18.64.212-.188.39-.432.505-.753 1.55-4.378 2.59-8.864 3.396-13.4.249-.207.437-.514.517-.938 1.61-8.667 3.94-17.368 3.646-26.215.126-1.265.249-2.53.337-3.803a1.73 1.73 0 0 0-.064-.6" fill="#D1CCB2"/><path d="M256.619 148.744a1.35 1.35 0 0 0-.075-.908l-.463-1.053c-.217-.493-.985-.781-1.482-.603-5.156 1.839-10.725 2.858-15.759 4.93a1.347 1.347 0 0 0-.785.835c-.053.016-.107.028-.16.045a1.252 1.252 0 0 0-.715-.21c-1.315 0-1.603 1.587-.871 2.292.219.553.755.947 1.487.693 5.882-2.04 12.452-2.25 18.542-3.642 1.262-.288 1.145-1.838.281-2.38m-2.639-8.724a1.24 1.24 0 0 0-.2-.663 23.248 23.248 0 0 0-1.89-2.577c.263-.886-.41-2.042-1.554-1.69-3.097.955-6.166 1.99-9.19 3.16-2.756 1.064-5.705 2.856-8.639 3.205-1.657.196-1.677 2.823 0 2.624h.011c.007.081.02.166.044.254l.096.346c.026.28.101.516.272.977.068.18.161.33.271.454-.512.904.613 2.347 1.88 1.79 5.753-2.534 12.21-3.81 18.12-6.019.85-.318 1.035-1.206.78-1.86" fill="#E35205"/><path d="M262.828 207.814c.152-2.07-.07-4.204-.447-6.347-.16-1.44-.545-2.784-.527-4.252.032-2.53.558-5.166.768-7.689.345-4.156.926-8.445.587-12.616.019-.102.03-.209.025-.327-.233-5.405-.644-10.635-2.867-15.619l-.001-.009-.002.001c-.047-.104-.082-.21-.131-.314a1.3 1.3 0 0 0-.315-.438l-.615-2.116a1.365 1.365 0 0 0-.325-.574c.182-1.07-.715-2.449-2.166-2.22-5.383.844-10.71 1.772-15.815 3.701-.553-.425-1.313-.567-1.948-.158-.751.485-1.18 1.586-.627 2.394.277.408.543.822.799 1.242a2.588 2.588 0 0 0-.121.428c-.77 4.261-.468 8.323.226 12.46 0 .024-.003.046-.001.071.166 1.638.399 3.242.699 4.831-.102.38-.137.8-.064 1.264.735 4.686 1.502 9.413 1.878 14.145.278 3.495-1.236 6.547-.942 10.057-.28.976-.551 1.955-.81 2.937-3.494 7.818-6.164 15.684-8.366 23.924-1.131 2.54-2.323 5.104-3.996 7.327-1.501 1.996-3.321 3.667-4.72 5.721a428.56 428.56 0 0 0-10.267 9.728c-2.891 2.087-6.344 3.62-8.915 6.092-1.971.894-4.01 1.658-6.038 2.358-5.848 2.018-12.034 2-18.073 3.028-18.164-2.822-39.188-6.924-51.775-21.386a2.396 2.396 0 0 0-1.045-1.159l-.252-.143a3.013 3.013 0 0 0-.673-.275c-8.331-9.013-14.753-19.46-22.541-28.898-1.376-2.644-3.367-4.946-4.31-7.803-.208-.633-.56-1.086-.981-1.387-1.598-3.078-3.141-6.153-4.256-9.45-.805-2.383-1.524-4.619-2.966-6.689l-2.17-6.444c-.248-.74-.495-1.649-.857-2.468a2.642 2.642 0 0 0-.083-.99c-2.417-8.869-3.324-17.823-3.844-26.955a6.875 6.875 0 0 0-.08-1.348 2.845 2.845 0 0 0-.086-.54c1.184-5.048 1.56-10.176 1.902-15.35.42-6.393 1.409-12.384 3.18-18.54.04-.144.065-.286.08-.427 2.798-6.093 4.815-12.55 8.784-18.034.367-.507.507-1.01.485-1.476 2.105-2.623 4.266-5.214 6.797-7.439 1.14-1 2.316-1.9 3.418-2.866.453-.094.9-.336 1.305-.783 3.59-3.974 10.255-6.927 15.09-9.092 2.652-1.186 5.523-2.308 8.404-2.806 1.62-.28 3.22-.329 4.814-.465.22.046.453.075.713.062 11.084-.554 23.082.147 33.98 2.967.626.683 1.465 1.24 2.554 1.576 1.12.348 2.232.725 3.342 1.11.413.234.815.486 1.222.73.298.508.71.981 1.256 1.39a189.338 189.338 0 0 1 21.594 18.871 191.468 191.468 0 0 1 9.294 10.151c2.405 2.825 4.563 6.09 7.106 8.863.01.672.249 1.364.83 1.99a93.665 93.665 0 0 1 2.813 3.166c.06.153.13.306.227.461a39.502 39.502 0 0 1 4.61 10.54c.464 1.69 2.369 2.352 3.856 1.568 4.219-2.224 9.708-2.786 14.245-4.362 2.213-.768 2.509-3.483.627-4.797-.128-.089-.244-.183-.365-.275a2.695 2.695 0 0 0-.233-1.463 12.222 12.222 0 0 0-.925-1.634c.218-1.216.052-2.556-.673-3.928-5.383-10.192-11.425-20.018-18.187-29.355-6.553-9.048-13.54-18.908-22.25-26.016-16.825-13.733-38.72-25.362-60.895-25.177a32.237 32.237 0 0 0-6.62-.964c-8.874-1.062-18.055 2.363-26.092 5.78-8.597 3.656-16.443 8.545-23.773 14.313a2.69 2.69 0 0 0-.463.47c-2.998 2.107-5.71 4.933-7.585 7.188-4.411 5.306-7.462 11.556-10.69 17.608-.364.683-.396 1.344-.227 1.93-.23.727-.466 1.453-.688 2.184a2.73 2.73 0 0 0-.657 1.028c-1.046 2.866-2.023 5.754-2.8 8.703-.588.275-1.074.8-1.294 1.622-2.074 7.74-4.166 15.52-5.77 23.373-1.498 7.347-1.668 14.753-1.537 22.23 0 .023.007.042.007.064a2.663 2.663 0 0 0-.063 1.377c.223 1.046.482 2.11.737 3.183-.01.7.017 1.393.074 2.08-.23 4.243.984 9.231 1.622 11.747.014.108.018.213.045.325l.079.331a115.9 115.9 0 0 0 1.796 9.974c.013.053.035.095.049.146l1.306 6.66c.05.245.128.456.222.65a126.49 126.49 0 0 0 1.016 4.011c.113.421.296.757.518 1.03l.024.058c.017.125.034.25.073.378a186.08 186.08 0 0 0 4.72 13.594 58.444 58.444 0 0 0 2.653 7.917c.3.717.65 1.423 1.019 2.126.573 2.12 1.714 4.222 2.707 6.108.805 2.237 1.793 4.382 2.845 6.533.033.068.078.121.116.183l2.289 5.326c0 .002.002.003.003.005-.033.47.079.974.399 1.49 6.463 10.362 14.654 19.455 23.857 27.423a58.655 58.655 0 0 0 2.333 2.754c.363.428.739.85 1.148 1.267.112.114.229.203.346.29 8.38 9.14 17.889 17.307 28.366 23.937 6.11 3.866 12.84 5.946 19.72 7.997 5.032 1.5 10.504 3.573 15.903 3.871.214.103.448.19.727.236 15.842 2.587 32.019.688 45.832-7.553.444.011.915-.103 1.396-.409 5.74-3.654 11.147-7.81 16.04-12.545 5.064-4.9 8.15-11.038 12.87-16.148.472-.51.678-1.074.706-1.626 4.885-8.218 8.17-17.33 10.689-26.467.189-.237.354-.512.466-.848 2.135-6.365 4.423-14.815 3.684-21.864a17.464 17.464 0 0 0-.107-3.33" fill="#E35205"/><path d="M188.935 160.704l-.015-.057-.02-.023c-.055-.063-.044-.036.035.08" fill="#E35205"/><path fill="#E35205" d="M188.9207 160.6467L188.9207 160.6467 188.9227 160.6497 188.9227 160.6487z"/><path d="M211.145 154.024c-.685-.968-1.244-1.54-1.81-1.835.632-.823-.076-2.403-1.402-2.103-6.79 1.538-13.025 4.66-19.677 6.63-1.278.38-1.112 2.039-.183 2.48-.041.49.2.982.638 1.256.065.04.084.045.09.04a.39.39 0 0 0 .042.068l.078.087c-.005-.022-.004-.018.002.003.002.002-.001-.001 0 0 .015.049.054.188.06.214-.054-.211 0 .072-.001.155-.012.686.613 1.343 1.313 1.312.325-.015.617-.137.845-.33a680.343 680.343 0 0 0 19.22-6.05c.74-.244 1.3-1.197.785-1.927" fill="#E35205"/><path d="M216.094 166.77a1.82 1.82 0 0 0-.18-.722c.917-.73.204-2.596-1.228-2.286-4.107.89-8.166 1.804-12.334 2.348-3.344.436-6.489 1.8-9.837 2.097-1.35.12-1.618 1.864-.776 2.444.112.233.236.46.381.674a4.26 4.26 0 0 0-.412 1.417 910.553 910.553 0 0 0-.518 4.664c-.17.3-.315.625-.394 1.005a141.959 141.959 0 0 0-1.43 7.954c-.01.062-.005.12-.012.18-.017.075-.038.147-.055.222-.049.084-.106.153-.152.244-.588 1.165-1.07 2.327-1.412 3.587a4.186 4.186 0 0 0-.139 1.157 37.635 37.635 0 0 0-2.756 2.926c-5.812 3.54-12.377 4.884-19.24 3.057a4.377 4.377 0 0 0-.744-.222c-4.815-.983-8.506-3.995-12.116-7.146-5.936-8.165-12.737-19.27-12.903-29.726.121-2.912.26-5.822.421-8.73 1.951-4.733 4.727-9.203 8.24-12.88.223-.116.443-.236.656-.365.454-.274.858-.64 1.274-.977.903-.008 1.734-.466 2.366-1.137.892.273 1.913.213 2.962-.37 2.09-1.163 7.028-.25 9.216.151a31.797 31.797 0 0 1 7.177 2.213c2.067 1.417 3.984 3.018 5.825 4.758 2.343 2.21 5.174 4.542 6.733 7.387.33.602.782.962 1.275 1.144.355.232.817.314 1.358.136a201.923 201.923 0 0 0 13.61-5.047c.243.04.497.041.751-.006a10.748 10.748 0 0 0 3.534-1.34 1.74 1.74 0 0 0 .71-.826c1.29-.914.244-2.95-1.289-2.994a4.5 4.5 0 0 0-.44-1.656c-2.48-5.025-5.5-8.547-8.897-12.91-3.278-4.209-6.27-7.502-11.028-10.076-.035-.019-.073-.03-.109-.048-5.82-5.993-13.757-7.999-21.762-9.454a4.247 4.247 0 0 0-.673-.066c-6.072-2.838-15.405-1.192-21.042 1.392-7.443 3.411-13.07 9.095-17.558 15.847-.254.381-.427.76-.533 1.131-3.81 6.223-5.379 14.434-6.348 21.02a4.107 4.107 0 0 0 .302 2.287 89.892 89.892 0 0 0-.714 2.884c-1.103 4.842-.584 9.402.032 14.18.05.877.15 1.764.294 2.671-.069.53-.017 1.114.2 1.748l1.26 3.667c.042 1.772.367 3.492.982 5.232.163.461.388.85.648 1.187.045.233.107.473.2.723.045.125.1.246.146.371.093.305.195.605.304.902 0 .416.081.854.272 1.311.131.314.27.624.403.938l-.006.003c.012.024.026.046.038.071.135.315.27.63.407.944-.013.46.066.955.27 1.488.944 2.472 2.194 4.651 3.651 6.817a42.447 42.447 0 0 0 2.724 4.522c.071.51.26 1.026.62 1.532 2.181 3.058 4.402 6.071 6.962 8.826 1.421 1.53 2.88 3.067 4.421 4.478.52.475 1.272.94 1.98 1.428.001.004.005.008.008.012.187.586.568 1.157 1.193 1.67 6.091 4.991 12.915 8.592 20.498 10.6 6.66 2.09 14.172 3.401 20.388 1.742.07.003.132.017.205.015 9.181-.256 18.814-7.212 24.011-14.494 5.577-7.815 6.28-17.776 6.738-27.147.08-.244.141-.505.151-.8l.027-.733a2.86 2.86 0 0 0-.037-.557 42.254 42.254 0 0 0-.004-.356c1.697-5.94 1.548-12.137 1.254-18.333" fill="#E35205"/><path d="M175.823 173.013c-.954.329-1.866.349-2.786.234.013-.757-.607-1.515-1.613-1.311l-.155.032a1.347 1.347 0 0 0-.32-.005c-2.152.22-4.148 1.097-6.158 1.858-.29.036-.578.068-.851.082a9.959 9.959 0 0 0-1.32-1.274c.262-.4.379-.784.82-1.138.49-.393 1.024-.718 1.498-1.135.057-.05.103-.103.148-.157 3.942-.7 8.02-2.806 11.64-3.473.64-.118 1.172-.998.918-1.614-1.501-3.636-1.924-4.028-5.755-2.678-1.99.7-3.88 1.529-5.794 2.383-1.496.668-3.105.53-4.73.52.104-.373.216-.743.346-1.103 1.223-1.23 2.483-2.448 3.993-3.313 1.78-1.02 3.857-1.556 5.787-2.223 1.294-.447 1.206-2.436-.18-2.566a1.291 1.291 0 0 0-.443-.411 8.601 8.601 0 0 0-2.772-1.038c-.028-.01-.052-.021-.083-.028-4.204-.946-8.74.412-10.74 4.479-.875 1.78-1.223 3.505-1.128 5.155-.147.2-.226.465-.191.8.166 1.568.624 2.983 1.24 4.428.462 1.083.915 2.256 1.802 3.053-.086.466.08.96.636 1.25.087.046.163.097.246.144.05.213.16.425.358.622.258.256.52.479.788.688l.258.225c.057.188.143.375.3.55a9.634 9.634 0 0 0 3.39 2.48c.185.082.364.124.533.138.417.497.89.922 1.448 1.11 1.327.448 3.564-.053 4.92-.18 2.396-.224 4.143-1.621 5.255-3.763.163-.314.186-.62.123-.895.504-.918-.18-2.356-1.428-1.926" fill="#E35205"/><path d="M170.614 155.033c-3.417-2.382-7.71-2.305-10.977.321-3.441 2.767-4.727 7.225-3.97 11.491 1.513 8.512 11.598 17.982 20.18 11.85.52-.37.02-1.238-.504-.863-7.534 5.382-16.274-2.374-18.35-9.699-1.066-3.759-.595-7.858 2.063-10.857 2.929-3.302 7.424-3.91 11.053-1.379.529.368 1.03-.498.505-.864" fill="#1D1F1C"/><path d="M184.523 150.918c-6.716-8.125-16.019-16.526-27.438-14.95-9.109 1.257-15.87 9.373-17.717 18.046-2.296 10.784 1.802 22.363 7.791 31.274 5.71 8.496 14.707 15.263 25.362 14.9 5.258-.18 10.983-2.221 14.19-6.602 1.671-2.286 2.26-5.074 2.811-7.797.78-3.851 1.536-7.707 2.304-11.56.125-.628-.839-.897-.965-.266-1.018 5.109-1.609 10.574-3.246 15.524-1.77 5.35-6.72 8.44-12.092 9.394-10.4 1.847-20.04-4.104-26.112-12.146-5.96-7.897-10.175-18.253-9.628-28.26.49-8.981 5.902-18.302 14.911-20.974 11.861-3.52 22.176 5.722 29.121 14.124.411.497 1.115-.214.708-.707" fill="#1D1F1C"/><path d="M205.596 143.715c-8.016-18.267-25.653-32.849-45.478-36.221-9.886-1.681-19.984.041-27.892 6.45-7.894 6.396-12.599 15.866-14.867 25.615-1.45 6.222-1.993 12.627-2.198 19-.201 6.258-.63 12.878 1.865 18.765.25.591 1.112.081.864-.505-2.302-5.432-1.912-11.576-1.755-17.353.145-5.39.511-10.793 1.465-16.106 1.734-9.667 5.514-19.155 12.554-26.2 15.472-15.486 39.422-9.161 55.11 2.614 8.456 6.347 15.218 14.76 19.468 24.445.26.589 1.12.08.864-.504m-87.374 37.42c2.329 10.563 8.021 19.904 15.074 27.988 7.188 8.24 15.604 16.024 26.265 19.276 10.379 3.168 22.966 4.47 33.182.148 8.321-3.522 15.103-10.48 18.329-18.928 2.4-6.287 3.009-13.379 3.721-20.026a206.467 206.467 0 0 0 1.147-22.528c-.002-.642-1.002-.644-1 0 .032 12.031-.721 24.314-3.116 36.125-1.943 9.578-7.486 17.833-16.038 22.733-9.837 5.637-21.844 4.916-32.537 2.425-11.041-2.572-19.448-9.35-27.038-17.486-7.943-8.516-14.49-18.499-17.025-29.993-.138-.629-1.102-.363-.964.266" fill="#1D1F1C"/><path d="M85.17 132.918c1.45-6.818 3.398-13.515 5.906-20.02 2.414-6.264 5.23-12.586 9.478-17.844 4.114-5.09 9.654-8.772 15.002-12.44 5.318-3.649 10.965-7.003 17.401-8.153 6.74-1.204 13.975-.665 20.78-.273 6.252.36 12.545 1.131 18.496 3.162 6.371 2.175 11.413 5.991 16.393 10.415a235.948 235.948 0 0 1 28.369 30.058c2.363 2.99 4.8 6.016 6.646 9.364 1.693 3.07 2.25 6.752 4.401 9.557.386.504 1.255.007.863-.505-1.979-2.579-2.515-5.909-3.982-8.774-1.512-2.952-3.54-5.606-5.56-8.22a235.77 235.77 0 0 0-28.689-30.987c-4.698-4.239-9.452-8.313-15.342-10.796-5.766-2.429-11.993-3.5-18.197-4.034-6.747-.58-13.756-.94-20.516-.417-6.74.523-12.659 3.001-18.328 6.591-5.397 3.417-11.023 7.13-15.603 11.615-5.059 4.954-8.388 11.307-11.107 17.77-3.214 7.637-5.653 15.563-7.375 23.665-.134.628.83.896.964.266" fill="#1D1F1C"/><path d="M84.188 132.785c-.703 10.331-1.042 20.774-.064 31.1.974 10.294 4.067 20.07 8.068 29.567a165.52 165.52 0 0 0 33.723 50.943c3.537 3.641 7.188 7.324 11.353 10.252 4.288 3.015 9.255 4.9 14.161 6.65 10.08 3.593 20.754 6.1 31.518 5.608 10.051-.46 19.63-3.59 27.647-9.733 4.32-3.309 8.268-7.126 12.141-10.939 3.461-3.406 6.541-7.042 8.45-11.554 2.278-5.395 3.272-11.232 5.377-16.695 2.094-5.434 4.647-10.74 5.356-16.586 1.518-12.523-4.123-24.682-2.535-37.223.081-.637-.92-.63-1 0-1.33 10.506 2.33 20.625 2.75 31.051.43 10.674-5.02 19.522-7.83 29.493-1.41 5.002-2.689 10.08-5.682 14.417-3.009 4.36-7.14 7.961-10.999 11.55-7.806 7.261-16.285 12.701-26.95 14.504-10.844 1.833-21.895.185-32.328-2.987-5.096-1.549-10.26-3.314-15.026-5.712-4.726-2.378-8.64-5.85-12.407-9.513a164.533 164.533 0 0 1-34.103-47.85c-4.998-10.633-9.208-21.874-10.517-33.613-1.209-10.845-.842-21.866-.103-32.73.043-.643-.957-.64-1 0m49.818-91.876c10.394.011 21.06.038 30.969 3.584 5.213 1.865 10.104 4.577 14.975 7.18 4.306 2.302 8.574 4.688 12.677 7.338 8.87 5.73 15.866 12.86 22.61 20.908 6.477 7.73 12.957 15.501 18.468 23.963 3.025 4.644 5.756 9.49 7.976 14.571 2.029 4.644 3.37 9.597 6.604 13.601.404.5 1.108-.21.707-.708-3.251-4.025-4.56-9.14-6.625-13.798-2.07-4.669-4.566-9.138-7.322-13.435-5.34-8.322-11.636-15.979-17.971-23.552-6.565-7.848-13.215-15.16-21.728-20.947-8.397-5.709-17.683-10.9-27.03-14.876-10.884-4.63-22.67-4.817-34.31-4.829-.644 0-.645 1 0 1" fill="#1D1F1C"/><path d="M168.523 298.469c24.977 6.02 51.403-3.5 68.377-22.393 8.16-9.083 14.186-19.892 18.607-31.23 2.418-6.198 4.363-12.577 5.927-19.043 1.554-6.426 2.949-12.766 1.95-19.393-.713-4.728-1.16-9.254-.905-14.04.218-4.108.712-8.195.948-12.302.47-8.19-.625-16-4.156-23.457-.275-.581-1.138-.075-.863.504 3.299 6.969 4.432 14.34 4.07 22.006-.336 7.087-1.554 14.16-.945 21.268.286 3.337 1.142 6.612 1.278 9.963.154 3.82-.644 7.6-1.453 11.314-1.3 5.973-2.907 11.885-4.894 17.667-8.02 23.345-22.907 44.993-46.398 54.68-13.025 5.374-27.546 6.8-41.277 3.492-.625-.151-.892.813-.266.964M60.2 180.216c-2.477-12.305-4.953-24.702-5.316-37.286-.183-6.357.188-12.737 1.38-18.99 1.102-5.771 2.844-11.393 4.55-17.007 3.431-11.292 6.858-22.945 12.885-33.178 5.7-9.678 15.906-16.667 25.495-22.122a105.025 105.025 0 0 1 17.007-7.767c6.383-2.25 13.476-4.667 20.278-3.167.627.139.895-.825.266-.964-5.672-1.25-11.307.154-16.742 1.825a106.46 106.46 0 0 0-15.25 6.015c-10.142 4.931-20.817 11.616-28.16 20.318-7.51 8.9-11.255 21.201-14.694 32.121-3.782 12.009-7.596 23.983-8.008 36.666-.482 14.773 2.445 29.393 5.344 43.802.128.63 1.09.363.965-.266m.262 3.72a245.476 245.476 0 0 0 10.698 30.93c4.225 9.976 8.739 19.788 16.025 27.924 7.199 8.04 14.686 15.907 22.256 23.6 6.869 6.981 14.166 13.68 22.522 18.856 10.319 6.391 22.04 8.848 33.195 13.286.598.237.858-.729.266-.965-9.868-3.926-20.368-6.123-29.727-11.293-8.645-4.775-16.174-11.286-23.168-18.202-7.33-7.25-14.277-14.898-21.333-22.413-3.761-4.007-7.414-8.072-10.243-12.81-2.71-4.539-4.92-9.393-7.072-14.215-5.05-11.314-9.185-23.015-12.455-34.964-.17-.62-1.134-.357-.964.266M118.69 7.578c27.347-1.676 54.526 6.43 77.62 20.899 22.357 14.008 40.147 33.36 55.18 54.837 4.293 6.133 8.832 12.23 12.26 18.905 3.3 6.422 4.386 13.87 8.458 19.892.36.53 1.226.03.864-.505-3.75-5.544-4.83-12.331-7.678-18.317-2.936-6.173-6.976-11.75-10.859-17.347-7.759-11.183-15.884-22.03-25.349-31.841-18.038-18.697-40.063-33.743-64.933-41.667-14.695-4.683-30.156-6.8-45.563-5.856-.639.039-.644 1.04 0 1m82.642 328.245a93.859 93.859 0 0 0 43.976-19.046c14.065-11.085 23.863-26.281 32.226-41.9 4.704-8.785 8.688-18.125 8.996-28.224.02-.644-.98-.643-1 0-.284 9.307-3.764 17.958-8.013 26.119-4.002 7.687-8.417 15.234-13.402 22.327-9.577 13.628-22.041 24.709-37.132 31.88-8.2 3.897-16.944 6.526-25.917 7.88-.634.095-.364 1.059.266.964m85.15-92.482c5.354-14.216 5.67-29.563 4.976-44.559-.75-16.154-2.801-32.228-6.06-48.067-.13-.63-1.093-.363-.964.267 3.24 15.752 5.279 31.733 6.024 47.8.69 14.913.384 30.155-4.94 44.292-.227.603.739.864.964.266M26.253 138.272c-1.589-23.027 3.511-45.9 12.026-67.204 2.191-5.481 4.501-10.994 7.402-16.144 2.774-4.927 6.482-8.937 10.114-13.216 3.5-4.123 6.571-8.402 10.832-11.81 4.406-3.522 9.36-6.397 14.365-8.976 11.535-5.942 23.922-9.976 36.366-13.525.62-.177.356-1.142-.265-.965C106.008 9.594 94.99 13.14 84.544 18.06c-10.187 4.798-19.616 10.59-26.669 19.495-3.427 4.325-7.412 8.236-10.536 12.792-3.236 4.72-5.605 9.98-7.855 15.224-4.626 10.775-8.44 21.923-11.003 33.374-2.886 12.897-4.139 26.127-3.228 39.326.044.639 1.044.644 1 0" fill="#1D1F1C"/><path d="M25.88 142.738c1.491 18.353 3.014 36.968 8.725 54.585 2.967 9.153 7.966 17.376 11.142 26.416 1.631 4.644 2.791 9.437 4.615 14.015 1.637 4.107 3.642 8.057 5.847 11.886 9.554 16.589 22.396 30.313 35.953 43.678 6.62 6.526 13.568 12.732 21.322 17.891 7.913 5.266 16.326 9.966 24.73 14.402 9.145 4.828 18.652 8.58 28.952 9.985 10.821 1.476 21.772.893 32.635.293.64-.035.644-1.035 0-1-9.42.521-18.889 1.037-28.306.196-9.822-.877-19.05-3.609-27.92-7.88-16.67-8.026-32.95-17.796-46.46-30.5-13.579-12.766-26.734-26.324-36.74-42.123-5.126-8.091-9.126-16.429-11.908-25.602-2.712-8.941-7.225-16.908-10.624-25.562-7.578-19.298-9.299-40.204-10.963-60.68-.052-.637-1.052-.643-1 0m-1.192-52.493c5.967-20.292 15.189-40.21 28.308-56.898 3.438-4.374 7.116-8.597 11.704-11.802 4.265-2.979 9.019-5.203 13.725-7.383 10.36-4.8 21.098-8.966 32.32-11.238C123.722.297 137.29.397 149.884 4.762c.609.211.87-.755.265-.965-22.388-7.759-46.192-1.905-67.2 7.238-10.38 4.518-20.23 9.252-27.708 17.996-7.008 8.193-12.85 17.372-17.826 26.918-5.662 10.86-10.237 22.283-13.691 34.03-.182.62.783.883.964.266M152.817 5.824c22.166 3.464 41.417 15.667 59.368 28.454 4.903 3.492 9.959 6.9 14.55 10.797 4.538 3.854 8.219 8.54 11.96 13.14 7.11 8.742 14.16 17.573 20.232 27.082 3.402 5.329 6.494 10.869 9.046 16.657 2.727 6.187 4.19 12.762 6.72 19.003.24.589 1.208.33.966-.266-2.22-5.476-3.511-11.27-5.76-16.746-2.088-5.09-4.597-9.996-7.392-14.732-5.845-9.907-12.887-19.044-20.093-27.987-3.744-4.648-7.396-9.463-11.591-13.72-4.078-4.14-8.902-7.44-13.595-10.831-9.41-6.805-18.944-13.502-29.12-19.128-10.938-6.05-22.626-10.75-35.025-12.687-.63-.098-.901.865-.266.964M287.11 150.52c4.494 17.337 6.964 35.159 7.26 53.07.29 17.677-1.043 35.802-6.688 52.656-.204.61.76.874.965.265 5.67-16.93 7.016-35.166 6.723-52.92-.298-17.997-2.78-35.916-7.296-53.337-.161-.623-1.126-.36-.964.266" fill="#1D1F1C"/><path d="M150.92 338.732c21.572 6.597 45.105 6.085 66.384-1.418 11.012-3.883 21.414-9.602 30.375-17.11 8.81-7.38 16.367-16.292 22.813-25.783 7.29-10.732 13.038-22.45 17.177-34.74.206-.612-.76-.874-.964-.266-7.188 21.342-19.449 41.451-36.023 56.808-16.979 15.733-39.624 24.604-62.634 25.951a105.083 105.083 0 0 1-36.862-4.406c-.617-.189-.88.777-.266.964M23.724 89.98c-4.126 18.964-5.646 38.453-4.381 57.825 1.27 19.472 5.76 38.423 10.4 57.317.153.624 1.118.36.964-.266-4.617-18.807-9.1-37.667-10.364-57.05-1.26-19.285.237-38.68 4.345-57.56.137-.627-.827-.895-.964-.266" fill="#1D1F1C"/><path d="M29.742 205.12c3.137 9.865 7.345 19.402 11.607 28.822 4.796 10.6 9.612 20.99 16.775 30.237 7.756 10.014 15.33 20.567 24.295 29.544 8.547 8.556 18.24 16.096 28.234 22.882 11.903 8.082 24.647 14.66 37.484 21.105.575.288 1.082-.574.506-.863-22.294-11.194-43.754-23.476-62.133-40.573-9.103-8.468-16.45-18.55-24.125-28.28-4.005-5.077-7.995-10.128-11.14-15.801-2.701-4.871-5.002-9.966-7.33-15.023-4.856-10.55-9.684-21.234-13.209-32.315-.194-.611-1.16-.35-.963.266m-20.474-2.067a470.161 470.161 0 0 0 13.145 32.532 460.104 460.104 0 0 0 7.457 15.811c2.42 4.891 4.682 10.08 8.535 14.038.45.462 1.156-.245.707-.707-3.888-3.996-6.15-9.32-8.589-14.259a463.672 463.672 0 0 1-7.247-15.388 466.905 466.905 0 0 1-13.044-32.293c-.217-.6-1.184-.34-.964.266" fill="#1D1F1C"/><path d="M40.274 267.959c14.911 23.457 34.881 43.58 58.292 58.58 23.684 15.173 52.473 26.48 81.05 22.694 13.734-1.82 27.981-5.758 40.01-12.774.555-.324.052-1.19-.506-.864-10.859 6.334-23.492 9.99-35.829 12.079-13.44 2.276-27.08 1.239-40.256-2.154-27.21-7.007-52.242-22.97-72.454-42.218a191.054 191.054 0 0 1-29.444-35.847c-.344-.542-1.21-.041-.863.504m-30.04-65.17C5.55 176.191.27 148.948 2.276 121.821c.048-.642-.952-.639-1 0-2.012 27.207 3.297 54.557 7.994 81.232.11.632 1.075.364.964-.266m-7.562-84.887c.937-9.651 3.66-18.964 6.997-28.035 3.156-8.577 6.517-17.19 10.437-25.448 7.57-15.945 19.91-28.631 34.861-37.884 8.387-5.191 17.28-9.491 26.063-13.952.574-.291.068-1.154-.504-.863-8.025 4.075-16.133 8.016-23.873 12.623a109.531 109.531 0 0 0-20.898 16.1C22.868 53.11 16.38 69.556 10.015 86.125 6.07 96.388 2.738 106.91 1.671 117.9c-.062.64.938.636 1 0m161.629 47.072l-2.396-.449.298.735c1.225-2.779 3.865-4.01 6.557-5.042 3.317-1.27 6.69-2.41 10.032-3.613l19.697-7.087c12.819-4.61 25.637-9.224 38.456-13.836l77.85-28.009 21.573-7.762 11.256-4.05c2.89-1.04 8.657-4.323 11.47-1.928.488.415 1.199-.289.708-.707-1.423-1.21-3.03-1.315-4.811-.947-3.394.702-6.728 2.292-9.978 3.462-6.88 2.474-13.757 4.95-20.635 7.424l-41.74 15.017c-27.512 9.9-55.025 19.798-82.54 29.697l-23.448 8.437c-3.194 1.15-6.465 2.172-9.587 3.507-2.437 1.041-4.621 2.431-5.723 4.932-.12.268-.05.67.298.735.799.15 1.599.3 2.397.448.629.118.899-.845.266-.964" fill="#1D1F1C"/><path d="M165.537 164.877c18.442-5.94 36.8-12.14 55.062-18.61a1984.176 1984.176 0 0 0 40.813-14.963c4.327-1.64 8.633-3.295 13.238-3.952.635-.09.365-1.054-.265-.964-4.606.657-8.91 2.313-13.238 3.952a1997.637 1997.637 0 0 1-40.814 14.963 2011.877 2011.877 0 0 1-55.062 18.61c-.61.196-.349 1.162.266.964M276.73 126.23l103.443-37.694 29.49-10.745c.6-.219.34-1.186-.267-.965l-103.443 37.695-29.489 10.745c-.6.218-.34 1.185.266.964" fill="#1D1F1C"/><path d="M358.608 91.755a610.061 610.061 0 0 1 24.808-9.228 605.418 605.418 0 0 1 18.746-6.16c1.424-.441 7.725-3.165 8.12-.287.087.634 1.05.364.964-.266-.533-3.885-5.802-1.504-7.971-.836a597.458 597.458 0 0 0-15.116 4.872 606.443 606.443 0 0 0-29.817 10.94c-.591.235-.334 1.203.266.965m-195.273 79.631c-1.001.391-1.206 1.657-.508 2.456 1.169 1.338 3.062.104 4.439.724.582.262 1.09-.599.504-.863-.791-.357-1.533-.314-2.381-.232-.381.037-.77.08-1.15.006-.263-.05-.578-.142-.731-.39-.118-.193-.185-.628.093-.737.592-.23.335-1.198-.266-.964m1.872-.368l135.003-43.596 38.217-12.341c.61-.197.349-1.163-.266-.964l-134.985 43.589-38.235 12.348c-.61.196-.35 1.163.266.964m177.402-57.85a973.71 973.71 0 0 1 33.383-10.554 956.538 956.538 0 0 1 29.039-8.11c.626-.164 1.25-.348 1.882-.492.457-.14.923-.23 1.399-.272 1.35-.384 2.219.414 2.609 2.393-.348.544.517 1.046.863.505.728-1.137.492-2.48-.6-3.343-1.767-1.4-4.55-.246-6.42.245a963.54 963.54 0 0 0-21.101 5.796 971.033 971.033 0 0 0-41.32 12.869c-.607.203-.347 1.17.266.964m-174.001 59.859a3361.096 3361.096 0 0 0 118.482-36.775c.608-.201.348-1.167-.266-.964a3362.547 3362.547 0 0 1-118.482 36.775c-.617.179-.355 1.144.266.964m120.922-38.043c31.467-7.215 61.522-19.159 92.274-28.778 8.851-2.767 17.764-5.328 26.77-7.542.625-.155.36-1.119-.266-.965-31.34 7.706-61.349 19.758-92.195 29.11-8.87 2.69-17.812 5.138-26.849 7.21-.627.143-.36 1.108.266.964m62.627-36.19c5.812-1.98 11.291-2.046 17.325-1.635 2.248.154 4.2-.423 6.383-.827 3.211-.594 6.491-.424 9.732-.264.643.032.642-.968 0-1-2.843-.14-5.705-.281-8.539.07-2.95.368-5.536 1.21-8.556.92-5.711-.547-11.16-.085-16.611 1.773-.606.206-.346 1.172.266.964" fill="#1D1F1C"/><path d="M360.861 90.788l6.017-5.39c1.96-1.756 4.011-4.192 6.392-5.325.58-.277.073-1.139-.505-.864-2.246 1.07-4.053 3.205-5.886 4.847l-6.725 6.025c-.48.43.23 1.136.707.707m13.624-12.06c3.867-.636 7.765-.764 11.675-.879l5.083-.148c1.417-.04 5.318-.729 6.355.478.42.49 1.125-.222.707-.707-.902-1.05-2.073-.904-3.364-.879-2.311.044-4.623.135-6.933.202-4.614.135-9.225.218-13.79.968-.632.104-.363 1.068.267.964m12.863 15.783a48.373 48.373 0 0 1 12.771-11.498c.546-.338.045-1.203-.504-.863a49.154 49.154 0 0 0-12.975 11.654c-.39.502.313 1.215.708.707m-215.187 77.06l.05 1.305a.519.519 0 0 0 .367.482 8.348 8.348 0 0 0 3.479.403c.635-.06.64-1.061 0-1a7.643 7.643 0 0 1-3.212-.367l.367.482-.051-1.305c-.024-.641-1.025-.645-1 0m5.237 1.434l76.563-16.355c12.35-2.64 24.74-5.14 37.022-8.072 12.2-2.913 24.221-6.492 36.3-9.851 13.837-3.848 27.791-7.375 42.052-9.23.63-.082.638-1.083 0-1-24.956 3.246-48.768 11.572-73.066 17.748-24.949 6.342-50.354 11.102-75.525 16.479-14.537 3.106-29.075 6.21-43.612 9.317-.629.134-.362 1.098.266.964m195.978-44.701l36.266-7.396 8.704-1.775c2.1-.428 4.944-.522 6.794-1.721 1.727-1.12 1.794-4.352-.742-4.24-.64.028-.645 1.028 0 1 .923 1.625.67 2.564-.759 2.815-.398.118-.8.216-1.207.295-.962.216-1.936.394-2.902.59-2.256.46-4.513.92-6.769 1.382l-13.056 2.662-26.595 5.424c-.63.128-.363 1.092.266.964" fill="#1D1F1C"/><path d="M246.046 153.803c46.27-8.853 91.597-21.833 137.571-32.005 12.905-2.856 25.861-5.478 38.884-7.736.632-.11.364-1.073-.266-.964-46.423 8.049-91.808 20.855-137.668 31.474-12.879 2.982-25.8 5.782-38.787 8.267-.63.12-.364 1.085.266.964m-56.322 12.939c18.353-4.36 36.706-8.718 55.06-13.077.625-.15.36-1.113-.267-.965l-55.059 13.078c-.626.148-.36 1.112.266.964m-18.62-9.966c.517.4 1.015.82 1.497 1.26.475.434 1.184-.271.707-.706-.482-.44-.98-.86-1.496-1.262-.502-.39-1.214.313-.707.708m4.074 4.58a13.097 13.097 0 0 1 1.886 4.68c.124.632 1.089.364.965-.265a13.894 13.894 0 0 0-1.988-4.918c-.349-.54-1.215-.038-.863.504m1.873 11.237c-.03 1.775-.583 3.383-1.624 4.82-.378.521.489 1.02.864.504 1.137-1.57 1.727-3.387 1.76-5.324.01-.644-.99-.644-1 0m13.29-2.11c.337 1.031.555 2.08.638 3.162.05.637 1.05.642 1 0a14.52 14.52 0 0 0-.675-3.428c-.199-.609-1.165-.348-.964.266m-3.633-12.86c1.206 1.447 1.942 3.127 2.244 4.981.102.634 1.066.365.964-.265-.33-2.029-1.188-3.847-2.5-5.423-.413-.495-1.117.216-.708.707m21.567-7.174a26.73 26.73 0 0 1 2.438 4.656c.237.59 1.205.333.964-.265a27.908 27.908 0 0 0-2.54-4.895c-.35-.537-1.216-.037-.862.504m22.645-8.125c1.491 1.57 1.641 3.903 2.721 5.726.328.552 1.193.05.863-.505-1.137-1.918-1.294-4.263-2.877-5.928-.444-.468-1.15.24-.707.707" fill="#1D1F1C"/><path d="M235.326 152.319l.999 2.597c.229.595 1.196.337.964-.266l-1-2.597c-.228-.595-1.195-.338-.963.266m2.391 7.547a10.2 10.2 0 0 1 .82 3.65c.025.642 1.025.645 1 0a11.53 11.53 0 0 0-.957-4.155c-.254-.59-1.115-.08-.863.505m12.871-25.02a26.022 26.022 0 0 1 3.28 6.437c.207.605 1.174.345.963-.266a27.014 27.014 0 0 0-3.38-6.675c-.365-.525-1.232-.026-.863.504m4.662 11.5a29.374 29.374 0 0 0 1.833 4.841c.28.58 1.142.073.863-.505a27.988 27.988 0 0 1-1.732-4.603c-.173-.618-1.138-.356-.964.266m19.717-19.626l1.628 3.46c.512 1.088 1.197 2.199 1.474 3.368.148.626 1.112.36.964-.266-.258-1.09-.868-2.104-1.341-3.111l-1.861-3.955c-.274-.582-1.136-.076-.864.504m5.202 11.466c1.354 2.165 2.091 4.569 2.8 7.002.18.617 1.145.354.964-.266-.73-2.512-1.504-5.007-2.9-7.241-.34-.544-1.207-.043-.864.505m-2.262-11.764l2.71 6.376c.251.59 1.113.082.864-.504l-2.711-6.377c-.251-.59-1.113-.081-.863.505m4.775 10.821a54.385 54.385 0 0 0 3.168 7.583c.292.574 1.156.068.864-.504a52.604 52.604 0 0 1-3.068-7.345c-.2-.608-1.168-.347-.964.266m-91.258 13.785c-1.636 1.442-.988 4.038 1.103 4.584.624.163.889-.802.266-.964-1.397-.365-1.731-1.971-.662-2.912.483-.427-.226-1.132-.707-.708m-4.837 12.217c-.811.373-1.3 1.286-1.13 2.17.185.946 1.084 1.578 2.022 1.565.643-.009.645-1.009 0-1-1.153.016-1.392-1.41-.388-1.872.585-.268.077-1.13-.504-.863m12.858.547c-.438 1.45.136 2.973 1.373 3.823.531.366 1.031-.5.504-.863-.874-.6-1.216-1.692-.913-2.694.187-.617-.778-.88-.964-.266m219.585-50.729c-8.458.126-16.184-3.764-24.414-5.102-.629-.103-.9.861-.265.964 8.32 1.354 16.126 5.265 24.68 5.138.642-.01.644-1.01 0-1" fill="#1D1F1C"/><path d="M368.409 124.725c4.558-2.088 8.961-4.485 13.153-7.236 4.134-2.713 7.915-6.61 12.568-8.39.595-.226.337-1.193-.266-.963-4.505 1.722-8.101 5.343-12.07 8-4.412 2.955-9.064 5.515-13.89 7.726-.584.267-.077 1.13.505.863m-.824 4.914c7.069 1.215 13.899 1.424 21.034.713 7.873-.784 15.38.362 23.096 1.888.629.125.898-.84.266-.964-7.105-1.405-14.214-2.704-21.487-2.1-3.59.298-7.142.77-10.753.724-3.994-.053-7.958-.55-11.89-1.225-.63-.108-.9.855-.266.964" fill="#1D1F1C"/><path d="M424.848 116.622c-2.97 1.818-5.86 3.688-8.139 6.364-2.137 2.511-4.058 5.393-5.608 8.297-.303.568.56 1.073.863.505 1.51-2.828 3.378-5.65 5.452-8.095 2.216-2.61 5.043-4.437 7.937-6.208.548-.335.046-1.2-.505-.863m-74.395-6.403c6.307-2.995 10.571-8.65 15.784-13.09.491-.419-.219-1.123-.707-.708-5.148 4.385-9.353 9.978-15.582 12.935-.58.276-.074 1.138.505.863m40.966-20.253a135.762 135.762 0 0 0 14.889 3.888c.628.126.897-.838.265-.966a135.74 135.74 0 0 1-14.888-3.887c-.614-.199-.877.767-.266.965m-39.532 26.05c8.625.31 17.19 1.307 25.656 2.993.627.125.897-.839.264-.964a162.363 162.363 0 0 0-25.92-3.029c-.644-.023-.644.977 0 1m47.34-6.896c.176-1.774.767-3.4 1.617-4.958.343-.63 2.117-4.097 2.824-3.873.615.195.878-.77.266-.964-1.585-.502-2.687 2.202-3.327 3.254-1.241 2.04-2.143 4.148-2.38 6.54-.063.64.937.637 1 0m-32.17-10.472a29.629 29.629 0 0 1-3.932 6.713c-.391.502.312 1.215.707.708a31.393 31.393 0 0 0 4.19-7.155c.249-.593-.718-.851-.964-.266m4.12-.405l-2.313 5.294c-.254.584.607 1.094.864.505l2.313-5.294c.255-.585-.607-1.094-.864-.505m4.012.202a8.127 8.127 0 0 1-1 3.48c-.31.565.553 1.071.862.505a9.307 9.307 0 0 0 1.138-3.985c.037-.643-.963-.641-1 0m5.604-.448l-.057 2.244c-.016.644.984.643 1 0l.057-2.244c.016-.644-.984-.644-1 0m7.447-3.74a10.607 10.607 0 0 1-1.48 4.224c-.333.552.531 1.056.864.505.884-1.461 1.408-3.037 1.615-4.729.078-.637-.922-.632-1 0m-19.591-1.301c1.815.13 3.558.53 5.255 1.182.602.23.862-.736.266-.964a19.165 19.165 0 0 0-5.521-1.218c-.642-.046-.64.954 0 1m5.851-2.395a16.616 16.616 0 0 1 5.428 2.019c.556.326 1.06-.538.505-.864a17.424 17.424 0 0 0-5.667-2.12c-.629-.117-.899.847-.266.965m5.52-1.728a7.941 7.941 0 0 1 4.528 1.233c.547.343 1.05-.522.505-.863a8.922 8.922 0 0 0-5.032-1.37c-.642.018-.645 1.018 0 1m5.88-2.244c1.22.417 2.36.975 3.445 1.67.543.349 1.045-.516.505-.863a16.912 16.912 0 0 0-3.684-1.771c-.611-.208-.873.757-.266.964m-4.087-3.892a8.544 8.544 0 0 1 1.27-2.302c.388-.503-.314-1.216-.709-.708a10.068 10.068 0 0 0-1.525 2.743c-.222.605.744.867.964.266m-4.162 1.21a10.49 10.49 0 0 0-.146-4.303c-.153-.625-1.117-.361-.964.266a9.238 9.238 0 0 1 .146 3.771c-.107.63.857.9.964.266m-3.905 1.494a6.697 6.697 0 0 0-.102-3.262c-.175-.617-1.14-.355-.964.266.257.905.297 1.809.102 2.73-.133.628.831.896.964.266m-3.575 1.201c.094-.674 0-1.288-.34-1.883-.32-.558-1.184-.054-.864.505.198.344.295.714.24 1.112-.088.63.876.902.964.266m13.498 35.097a13.763 13.763 0 0 0 3.425-5.158c.229-.602-.737-.862-.965-.265a12.65 12.65 0 0 1-3.168 4.716c-.468.443.24 1.149.708.707m4.964-1.23a62.765 62.765 0 0 0 5.268-9.21c.27-.58-.593-1.088-.864-.505a62.765 62.765 0 0 1-5.268 9.21c-.366.53.5 1.03.864.504m5.185-1.243a42.266 42.266 0 0 0 2.66-6.888c.18-.62-.785-.883-.963-.265a40.87 40.87 0 0 1-2.56 6.648c-.282.576.58 1.084.863.505m4.622-1.05a28.02 28.02 0 0 0 1.37-4.48c.137-.626-.827-.894-.963-.266a28.122 28.122 0 0 1-1.371 4.48c-.24.599.728.858.964.267m4.34-.608l1.172-2.706c.253-.584-.61-1.094-.863-.504-.391.9-.781 1.803-1.171 2.706-.253.584.608 1.094.863.504m4.25-1.908c.05-.599.102-1.197.153-1.796.055-.64-.945-.637-1 0-.05.6-.103 1.197-.154 1.796-.055.641.945.638 1 0m-6.464 7.46a11.213 11.213 0 0 1 5.66 4.176c.369.52 1.237.02.863-.505-1.564-2.201-3.693-3.785-6.257-4.635-.613-.203-.875.762-.266.964m-5.382.587a10.594 10.594 0 0 1 3.926 2.652c.443.47 1.15-.239.707-.707a11.699 11.699 0 0 0-4.367-2.909c-.6-.23-.862.735-.266.964m-5.707 1.383a14.173 14.173 0 0 1 5.417 2.372c.525.374 1.025-.493.505-.864a14.91 14.91 0 0 0-5.656-2.472c-.628-.131-.896.833-.266.964m-5.388.745a7.377 7.377 0 0 1 2.859 1.196c.53.366 1.03-.5.505-.863a8.106 8.106 0 0 0-3.098-1.297c-.63-.12-.898.843-.266.964m22.507-4.276a8.635 8.635 0 0 1 4.098 3.8c.306.566 1.17.062.863-.505a9.51 9.51 0 0 0-4.456-4.158c-.582-.263-1.091.598-.505.863m4.908-.557c.72.279 1.246.825 1.568 1.518.272.583 1.134.076.864-.505-.436-.937-1.21-1.607-2.166-1.977-.601-.233-.861.734-.266.964m-47.013-9.104a31.69 31.69 0 0 1 4.494 1.965c.568.303 1.073-.56.505-.863a33.467 33.467 0 0 0-4.733-2.066c-.609-.212-.871.754-.266.964m5.983-2.087a10.714 10.714 0 0 1 4.1 2.468c.464.445 1.172-.261.706-.707a11.881 11.881 0 0 0-4.54-2.725c-.613-.203-.875.763-.266.964m5.447-1.88a20.533 20.533 0 0 1 5.829 4.653c.423.487 1.128-.223.707-.707a21.286 21.286 0 0 0-6.032-4.81c-.566-.304-1.072.558-.504.863m5.617-1.67a9.903 9.903 0 0 1 4.125 2.112c.487.417 1.197-.287.708-.708a11.01 11.01 0 0 0-4.567-2.369c-.625-.155-.89.81-.266.964m6.025-1.86a12.3 12.3 0 0 1 4.223 3.239c.416.493 1.12-.217.707-.707a12.928 12.928 0 0 0-4.426-3.394c-.58-.272-1.087.59-.504.863m5.25-1.51a17.703 17.703 0 0 1 3.166 2.652c.443.469 1.149-.24.707-.707a18.792 18.792 0 0 0-3.368-2.808c-.54-.354-1.042.51-.505.863m-17.409-39.362a34.603 34.603 0 0 0-9.015 5.502c-.493.415.218 1.12.707.707a33 33 0 0 1 8.574-5.245c.585-.245.328-1.213-.266-.964m-3.249-3.325a8.938 8.938 0 0 0-3.296 2.148c-.449.462.257 1.17.707.707a7.805 7.805 0 0 1 2.855-1.891c.596-.225.338-1.192-.266-.964m49.896 76.733a51.468 51.468 0 0 1-10.955 4.82c-.613.19-.351 1.155.266.965a52.683 52.683 0 0 0 11.194-4.92c.555-.327.052-1.19-.505-.865m-.036 4.542l-5.075 2.202c-.588.256-.08 1.117.505.863 1.692-.733 3.383-1.468 5.074-2.202.589-.255.08-1.117-.504-.863m1.338 2.665l-1.377.91c-.535.354-.034 1.22.505.864l1.377-.91c.534-.354.034-1.22-.505-.864m-4.56-77.784c-2.806-1.4-5.816-1.935-8.93-1.534-.629.08-.637 1.082 0 1 2.937-.378 5.771.073 8.425 1.397.574.286 1.082-.576.505-.863M361.47 144.09l-3.205-.916c-.62-.177-.885.788-.266.964l3.205.916c.62.177.885-.787.266-.964" fill="#1D1F1C"/><path d="M198.737 213.101c-1.553 3.637-6.156 5.932-9.52 7.694-2.677 1.403-5.254 2.01-7.936 2.184-.515-1.805-1.99-3.284-4.436-3.253-6.467.08-11.897-.9-16.754-5.43-5.02-4.68-9.413-9.989-13.275-15.652-2.57-3.765-7.804-2.105-8.931 1.093-3.158-4.982-5.475-10.447-8.944-15.24-2.944-4.065-9.778-.14-6.8 3.975 4.272 5.9 6.93 12.746 11.26 18.626 3.215 4.364 6.886 8.205 10.966 11.678.185.231.394.45.64.64.204.373.49.727.88 1.046 8.785 7.191 19.595 9.468 30.678 10.341 6.077.48 11.207-.324 16.627-3.209 4.572-2.434 10.22-5.544 12.344-10.518 1.969-4.609-4.813-8.626-6.8-3.975" fill="#E35205"/></g></svg>