<svg width="274" height="480" viewBox="0 0 274 480" xmlns="http://www.w3.org/2000/svg"><title>white-board</title><g fill="none" fill-rule="evenodd"><path d="M8.988 39.54c-1.53-5.02-1.809-10.69-2.566-16.013a.343.343 0 0 0 .05-.437l-.157-.271a58.077 58.077 0 0 0-.317-1.925 1.14 1.14 0 0 0-.147-.381c-.543-4.943-1.695-9.881-2.54-14.717-.254-1.45-2.464-.836-2.21.61.277 1.589.59 3.189.902 4.795-.228-.001-.478.217-.415.485l1.506 6.397c.053 1.282.144 2.598.537 3.723.015.043.035.085.051.128.114 1.312.191 2.624.185 3.935-.003.545.31.888.704 1.03.486 4.062.865 8.189 1.89 12.068a1.18 1.18 0 0 0 .094.726l.337.73c.545 1.187 2.47.347 2.096-.882" fill="#A0A0A0"/><path d="M73.527 376.937l-.363-5.22c.585-.785.27-2.177-.965-2.09-1.93.136-3.859.232-5.79.288-.73.02-1.272.58-1.305 1.303-.15 3.358.588 6.675.313 10.032-.088 1.067 1.151 1.515 1.961 1.125.944-.453 1.877-.715 2.93-.723.597-.004 1.217.24 1.801.182.74-.074 1.27-.302 1.557-1.033.426-1.084-.06-2.726-.139-3.864m161.885-16.316c-.406-1.353-.13-3.628-1.227-4.667-.5-.472-1.19-.424-1.824-.412-.428.008-.857.033-1.286.058-.09 0-.181.01-.27.011l-1.275.077-.195.002c-.071.001-.135.013-.2.022a1.868 1.868 0 0 0-.077.005c-1.434.148-1.662 2.108-.55 2.53.03 1.821.818 3.311 1.117 5.084.058.346.219.583.427.735-.087.47.068.971.604 1.272.822.462 1.824.307 2.777.112 1.116-.062 2.245-.259 2.788-.984 1.012-1.35-.427-2.572-.81-3.845" fill="#CCC"/><path d="M272.629 469.006a39.25 39.25 0 0 1-.608-1.523c0-.145-.016-.295-.066-.454-1.004-3.209-2.01-6.418-3.013-9.627a1.511 1.511 0 0 0-.451-.703 40.307 40.307 0 0 0-.871-2.928 1.585 1.585 0 0 0-.562-.782 17.751 17.751 0 0 0-.76-2.087 1.678 1.678 0 0 0-.08-.488 399.967 399.967 0 0 0-2.177-6.475 95.082 95.082 0 0 0-.894-2.602c-.227-.81-.45-1.622-.671-2.433.013-.19.002-.392-.076-.62-.668-1.953-1.321-3.906-1.848-5.89-.268-1.855-.562-3.703-1.044-5.503a1.364 1.364 0 0 0-.31-.567c-.517-3.46-1.39-6.794-2.705-10.08a1.651 1.651 0 0 0-.745-.866 60.886 60.886 0 0 0-2.06-5.857 1.673 1.673 0 0 0-.495-.67 17.814 17.814 0 0 0-1.655-3.429c.258-.342.368-.78.197-1.243-1.192-3.24-3.317-5.853-4.82-8.924-1.614-3.3-1.938-7.029-3.638-10.312a1.346 1.346 0 0 0-.41-.475 14.707 14.707 0 0 0-.797-2.216 130.722 130.722 0 0 1-1.236-5.019c-.09-.395-.286-.669-.536-.847-.432-2.082-.883-4.159-1.7-6.148l-.016-.074-.011.004c-.05-.122-.088-.248-.142-.37a1.397 1.397 0 0 0-.27-.4l-.787-3.229c-.198-.812-1.098-1.268-1.881-1.068a48.37 48.37 0 0 1-2.23.513c-.411-.156-.958-.114-1.294.116l-.456.313c-1.015.695-.876 1.923-.12 2.503 0 .127.013.256.05.392l2.852 10.386c.069.254.184.457.324.618a46.976 46.976 0 0 0 2.865 8.525c-.017.15-.02.304.009.47a21.198 21.198 0 0 0 3.67 8.766c.383 1.801 1.212 3.447 1.962 5.187l3.346 7.76a1.596 1.596 0 0 0-.273 1.764c.946 2.124 1.972 4.2 3.049 6.255l5.092 15.062c.137.421.276.844.427 1.264.036.105.07.211.107.317.027.078.062.145.095.215.184.495.358.991.563 1.484.043.103.095.197.15.284.088.307.175.615.26.923.247 2.121.719 4.154 1.562 6.155.288.681.614 1.343.949 2 .905 4.61 2.368 8.972 4.377 13.222.034.074.083.13.127.192.237.943.514 1.826.869 2.74.187.62.413 1.228.67 1.836 1.05 3.577 2.21 12.051 7.376 8.73 1.792-1.154 1.51-2.323.76-4.087M75.065 472.6c.145-2.416.01-4.917.024-7.064.002-.24-.043-.45-.12-.632l.323-5.318a1.31 1.31 0 0 0-.623-1.217c.045-.82.08-1.64.097-2.459.073-2.205.093-4.41.045-6.62a1.65 1.65 0 0 0-.104-.533c.295-2.702.43-5.395.338-8.132a1.497 1.497 0 0 0-.243-.788c-.013-.663-.029-1.327-.024-1.987l.767-9.3c.043-.522-.2-.92-.562-1.176a92.39 92.39 0 0 0-.067-8.947l.005-.04c.131-5.484.414-10.943-.558-16.37a1.661 1.661 0 0 0-.09-.315c.215-2.428.087-4.81-.116-7.259-.003-.037-.014-.07-.019-.105l-.01-3.686c-.007-2.334.193-4.609-.66-6.732.58-.928.184-2.434-1.21-2.355-1.855.106-3.647.47-5.375 1.16-.762.306-1.307 1.022-1.067 1.88.024.086.06.17.102.252a154.247 154.247 0 0 0-.01 9.498c-.346.235-.572.634-.52 1.21.403 4.45.871 8.891 1.392 13.327.005 1.174.01 2.35.031 3.522a81.22 81.22 0 0 0 .316 8.48c.038.715.09 1.43.134 2.144 0 2.452.073 4.9.204 7.343.062 1.867.143 3.734.242 5.6-.16 3.726-.102 7.44.174 11.162-.013.487-.004.967.014 1.446-.277.245-.457.615-.442 1.108l.48 12.098c.02.49.212.854.491 1.1l.06 8.302c.002.44.157.78.395 1.024a14.98 14.98 0 0 0-.025 1.82c-.006.047-.018.09-.019.14l-.023.505c-.042.662-.128 1.451-.094 2.2l-.02.5c-.018.403.121.73.344.976.14.28.331.525.594.714 1.186.847 3.58.528 4.707-.246 1.524-1.046.91-2.846.805-4.428-.04-.6-.062-1.2-.083-1.802m176.437-122.939c-.15-.546-.605-.932-1.14-1.062a1.266 1.266 0 0 0-1.002-.387l-.478.033c-.295.02-.56.116-.792.257-5.658-.102-11.298-.09-16.926.384-.244-.259-.603-.421-1.082-.393-3.468.198-6.908.553-10.325 1.064-7.157.408-14.3.998-21.428 1.741a765.057 765.057 0 0 0-27.107 1.947 1.56 1.56 0 0 0-.751.268c-2.25.062-4.5.108-6.758.174-12.216.357-24.273 2.977-36.435 4.165a324.06 324.06 0 0 1-12.51.424c-.67.009-1.105.371-1.32.842-14.356.975-28.677 2.441-42.991 3.937-.388.04-.696.194-.932.408l-2.642.133c-1.467.073-2.028 2.061-.907 2.79l.076 1.779c.049 1.161 1.083 1.665 1.95 1.416.307.002.614-.078.89-.26 2.237.34 4.44.495 6.673.44.232.171.538.268.919.243 11.019-.722 22.115-1.138 33.083-2.448 4.52-.54 9.009-1.257 13.494-1.994 13.286-.651 26.503-2.14 39.688-3.883 16.542-1.28 33.056-2.948 49.57-4.518.047 0 .088.012.138.008l26.782-1.939c3.449-.249 14.007.749 12.263-5.569m-202.595-39.98c.036-1.68-.477-3.172-.798-4.813-.012-.06-.016-.12-.027-.178a.687.687 0 0 0 .215-.726 124.29 124.29 0 0 1-.502-1.928 23.141 23.141 0 0 1 .069-2.707c.059-.716-.389-1.192-.956-1.387-.017-.098-.027-.197-.043-.295a20.77 20.77 0 0 0-.23-1.825l-.036-.38v-.002a22.592 22.592 0 0 1-.033-3.53c.064-.853-1.331-1.049-1.502-.204a43.678 43.678 0 0 0-.64 4.273c-.001.006.002.009.001.012a.702.702 0 0 0-.13.297 95.907 95.907 0 0 1-1.038 5.73.739.739 0 0 0 .036.425 28.843 28.843 0 0 0-1.35 6.843c-.907 1.925-1.915 4.16-1.961 6.16-.013.513.294 1.08.757 1.32 1.171.606 2.736.599 4.031.791.286.042.544.007.776-.072.203.027.412.02.62-.016 1.078-.185 1.392-1.113 1.691-2.03.473-1.456.874-2.938 1.311-4.404.169-.566.032-1.03-.261-1.355m-4.233 19.103a.798.798 0 0 0-.786-.345c-.118.017-.235.017-.352.029a.71.71 0 0 0-.48.039 10.66 10.66 0 0 1-1.238-.01.645.645 0 0 0-.436.132c-1.086-.276-2.525-1.175-3.265-.385-.328.351-.301.842-.047 1.214.03.043.066.076.1.113a1.182 1.182 0 0 0-.306.697l-.304 3.031c-.055.403-.11.806-.173 1.208-.294.11-.537.351-.631.747a70.302 70.302 0 0 0-1.775 12.204 1.585 1.585 0 0 0-.42.941c-.173 1.679-.39 3.35-.624 5.017a1.407 1.407 0 0 0-.23.452 43.733 43.733 0 0 0-1.738 10.572c-.01.234.036.44.117.622a98.263 98.263 0 0 0-2.236 11.993c-.033.274.016.508.115.709a39.692 39.692 0 0 0-.606 3.632c-.037.241-.062.483-.096.723a1.565 1.565 0 0 0-.684 1.178 142.327 142.327 0 0 1-1.893 13.098c-.06.305-.027.577.057.82-.178.759-.342 1.52-.495 2.282a38.069 38.069 0 0 0-.635 3.661 140.725 140.725 0 0 0-3.161 17.009c-.667 2.592-.948 5.216-1.1 7.876a1.378 1.378 0 0 0-.37.743 34.615 34.615 0 0 0-.34 2.198c-.111.756-.21 1.512-.302 2.268-.233.179-.415.449-.496.829a130.087 130.087 0 0 0-2.374 16.13c-2.08 6.454-2.1 13.913-2.757 20.659-.548.197-1.004.86-.964 1.426l.026.369c.05.719.447 1.237 1.123 1.474.909.319 1.868.086 2.808.009.632-.051 1.342-.434 1.475-1.122a192.95 192.95 0 0 0 2.446-16.513c.454-1.937.91-3.916 1.028-5.849.068-.119.123-.254.16-.407 1.404-5.67 2.689-11.315 2.878-17.174a1.495 1.495 0 0 0-.027-.326 92.209 92.209 0 0 0 1.49-7.947c.085-.138.15-.296.179-.484.303-1.959.606-3.918.907-5.877.07-.136.127-.287.155-.47.092-.615.144-.958.13-1.422.216-.898.417-1.8.587-2.709.142-.161.255-.359.315-.609a127.764 127.764 0 0 0 2.492-13.671 33.503 33.503 0 0 0 1.073-7.893c1.154-5.076 2.22-10.144 2.672-15.307.362-1.442.626-2.876.806-4.326 1.08-4.386 2.02-8.792 2.597-13.281.93-4.407 1.864-8.812 2.796-13.219a1.3 1.3 0 0 0 .027-.226c1-4.79 2.477-9.832 2.575-14.699 0-.012-.005-.021-.005-.033l.423-1.032c.14-.343.017-.613-.211-.768" fill="#A0A0A0"/><path d="M48.999 318.602c-.002-.433-.35-.737-.765-.764-2.253-.146-4.543-.286-6.71-.97-.985-.31-2.497-1.347-3.498-.488-.772.663-.71 1.34-.228 1.975a24.139 24.139 0 0 0-.82 4.044c-.093.375-.19.749-.275 1.129-.312 1.37.145 2.057 1.283 2.884.435.315.899.569 1.373.795.52.392 1.113.687 1.84.832.938.186 1.932.16 2.916.027a10.054 10.054 0 0 0 2.744-.587c.515-.19.618-.715.439-1.09.069-.208.125-.433.188-.66.266-.945.51-1.897.74-2.852a.707.707 0 0 0-.184-.683l.615-2.213a.694.694 0 0 0 .346-.618l-.004-.761" fill="#CCC"/><path d="M192.062 28.254a13.036 13.036 0 0 0-.514-1.841c.33-1.228-.246-2.051-1.242-2.613-.313-.35-.765-.616-1.38-.73a606.038 606.038 0 0 0-39.702-5.94 2.788 2.788 0 0 0-1.253-.443c-9.93-1.038-19.859-2.077-29.789-3.114A1244.608 1244.608 0 0 0 82.178 8.86a1229.922 1229.922 0 0 0-38.954-3.873c-2.57-.214-6.015-1.18-8.515-.085L8.522 1.867c-1.148-.133-1.835 1.32-1.347 2.235a1.28 1.28 0 0 0-.074 1.037l.387 1.13a1.194 1.194 0 0 0-.077 1.086l1.206 2.953c.208 1.02.482 2.019.815 3.004.006.159.028.32.09.486.08.222.167.415.261.602-.017.237.01.484.098.745.06.172.143.33.242.475.012.046.021.095.034.14-.23.408-.287.918-.024 1.448 1.821 3.674.91 4.234 5.104 5.193 3.458.79 7.008 1.165 10.523 1.592a1655.091 1655.091 0 0 0 59.5 6.125c14.095 2.173 28.402 2.57 42.66 3.13 18.738.736 37.335 2.63 55.901 5.236.216.03.42.03.62.017.35.219.766.358 1.227.402l3.372.322c1.197.114 2.344-1.136 2.293-2.293a2.535 2.535 0 0 0-.12-.647c.047-.093.085-.192.11-.3.004-.017.004-.035.007-.053.527-.363.784-.957.64-1.655l-.067-.317c.046-.105.097-.201.134-.317.597-1.893.646-3.574.025-5.39" fill="#002D72"/><path d="M245.845 345.387a5.202 5.202 0 0 0-.089-.394c.07-.094.059-.222-.024-.38.066-.171.102-.353.087-.545-.058-.647-.117-1.293-.172-1.941-.073-.822-.651-1.529-1.53-1.529-.288 0-.585-.77-.84-.603-.054-.002-.108.868-.162.866h-.002l-.446-.007c-.066 0-.13-.857-.194-.85-.37.02-.74.063-1.105.142-1.915-.208-2.93-.226-4.82-.108-.24-.214-1.435.52-1.862.537-17.674.71-35.327 1.812-52.95 3.291-4.268.252-8.534.524-12.8.805-.242-.288-.617-.464-1.135-.409-3.86.421-7.72.866-11.577 1.32a576.75 576.75 0 0 0-42.546 4.16 1.31 1.31 0 0 0-.52-.037c-13.474 1.749-26.948 3.495-40.421 5.245a1.67 1.67 0 0 0-.402.106c-2.03.08-4.061.16-6.092.242-.737.027-1.198.478-1.382 1.024-.306-.041-.614-.075-.92-.122-1.37-.205-2.296.971-1.727 2.247l1.758 3.935c.196.436.541.666.928.734.23.16.533.243.914.197 3.617-.438 7.234-.873 10.85-1.308.17.053.358.082.576.065a411.403 411.403 0 0 0 24.623-2.637c.233.178.543.276.942.228 17.774-2.06 35.965-1.829 53.556-5.046 4.162-.168 8.323-.8 12.474-1.41l6.135-.231c.601-.022 1.018-.316 1.251-.714.206-.02.411-.041.618-.06 8.066-.702 16.151-1.192 24.228-1.763.323-.024.59-.13.806-.286l25.738-.767c.636-.02 1.063-.357 1.288-.798 1.385-.006 2.77-.01 4.155-.012a1.83 1.83 0 0 0 .375-.041c.195.094.412.159.672.143l7.924-.462c.292-.017.535-.096.74-.21.765.053 1.53.099 2.295.166 1.666.148 1.862-1.954.785-2.783" fill="#E35205"/><path d="M245.015 337.79c-3.858-21.197-7.788-47.001-12.966-67.916a4.138 4.138 0 0 0-.596-1.324c-.033-.25-.07-.497-.107-.745l.013-.002-.05-.258a45.546 45.546 0 0 0-.719-3.65c-.149-.711-.302-1.421-.464-2.13a30.57 30.57 0 0 0-1.686-6.586 5.832 5.832 0 0 0-.532-1.06l-.554-1.797-.22-1.277c-.175-3.96-.599-7.895-1.678-11.701a5.555 5.555 0 0 0-.106-1.32c-.992-4.922-2.123-9.813-3.512-14.641-.45-1.57-.982-3.127-1.47-4.691.007-3.474-.3-6.928-1.637-10.352a6.139 6.139 0 0 0-.49-.976 672.796 672.796 0 0 1-1.576-10.875c-.097-.724-.423-1.352-.885-1.876-2.49-10.262-5.87-20.78-6.442-31.351a5.11 5.11 0 0 0-.616-2.207c-.939-11.95-4.372-23.92-6.848-35.566a393.29 393.29 0 0 0-3.114-17.628 101.556 101.556 0 0 0-3.626-26.676c-.128-2.315-.486-4.623-1.487-6.461-.3-4.253-.87-8.484-1.782-12.654a31.203 31.203 0 0 0-.508-1.952 83.778 83.778 0 0 0-.826-3.517c-.56-2.166-1.33-4.29-1.798-6.476-.365-1.715-.084-3.975-1.012-5.536a3.137 3.137 0 0 0-.774-.883c-.196-.492-.68-.895-1.34-.784l-.668.112a6.937 6.937 0 0 0-1.59.134c-15.73-2.796-31.487-6.841-47.567-5.67-18.859-2.574-37.943-1.728-56.884-3.418-9.838-.878-19.663-1.92-29.492-2.891-10.077-.994-20.17-1.801-29.794-5.167-1.19-.415-2.243-.377-3.126-.033-1.426-.766-2.732-1.351-4.36-1.631-1.048-.18-1.693.742-1.295 1.685.266.628.503 1.26.722 1.894l1.326 9.718c.061.577.131 1.154.215 1.735-.199 3.819.113 7.576.65 11.367-.01.192-.014.388.001.59a187.485 187.485 0 0 0 2.231 18.647c.08.473.227.892.423 1.267a324.77 324.77 0 0 0 1.133 8.33 5.185 5.185 0 0 0-.389 1.86c-.174 5.737.47 11.543 2.116 17.053 1.6 5.35 4.186 10.318 4.957 15.908.736 5.327.5 10.747 1.191 16.085.283 2.186.664 4.344 1.295 6.454.135 3.653.586 7.29 1.384 10.867.563 2.52 1.496 4.996 1.856 7.559.367 2.616.428 5.255.9 7.865.863 4.776 2.24 9.243 2.521 14.114.148 2.578.637 4.955 1.358 7.26l1.257 13.013c.397 4.118.813 8.053 2.03 11.9.056 2.223.45 4.392 1.294 6.47.147.36.317.694.5 1.01l3.427 16.662a5.355 5.355 0 0 0 .01 1.855c1.671 9.512 3.23 19.043 4.656 28.595.678 4.536 1.326 9.077 1.946 13.622.24 4.766.645 9.523 1.06 14.276.077.902.324 1.658.67 2.302-.007.905.196 1.838.571 2.718 1.892 4.438 2.08 8.94 2.261 13.695.187 4.958.848 9.809 1.87 14.664.974 4.63 2.174 9.23 2.67 13.944.43 4.079 1.13 7.847 2.36 11.728-.15.233-.214.533-.124.885.064.248.121.569.186.923.02.667.098 1.312.247 1.966a.992.992 0 0 0 .542.699c.323.565.772.966 1.435.987.873.027 1.777-.693 2.58-1.014.485.01.978-.075 1.465-.28l.106-.04c.373.003.751-.02 1.127-.072a2430.17 2430.17 0 0 0 35.432-5.214c20.336-2.14 40.672-4.277 61.008-6.415.793-.083 4.262-.18 5.056-.261l14.564-.087c7.496-.52 16.613-.835 24.11-1.354 6.931-.481 18.676.178 26.643-.887 5.69-.76 9.966.352 9.335-3.115" fill="#FFF"/><path d="M149.323 58.088c-1.816-.586-2.267-.872-3.723.249-2.175 1.675-4.171 3.73-6.134 5.65-3.256 3.18-7.006 6.537-9.284 10.559-.079.009-.159.02-.237.022a1.643 1.643 0 0 0-.383-.355l-3.683-2.421c-.757-.497-1.486-.206-1.899.356a2.154 2.154 0 0 0-.99.638c-.498.558-.68 1.63 0 2.16a112.306 112.306 0 0 1 6.803 5.77c.758.696 1.838.528 2.4-.31.574-.854 1.139-1.721 1.719-2.576a1.57 1.57 0 0 0 .374-.32c.724-.846 1.465-1.678 2.199-2.516.38-.324.754-.658 1.092-1.045.151-.173.251-.364.311-.562a271.224 271.224 0 0 1 12.11-12.744c.847-.836.399-2.208-.675-2.555" fill="#E35205"/><path d="M65.476 368.386a.781.781 0 0 0 .15-.395l.273-3.24c.054-.639-.89-1.038-1.305-.54-.048.056-.097.105-.143.16-.036-.064-.065-.129-.124-.188a3.432 3.432 0 0 0-.386-.337c.268-.325.397-.767.247-1.3a499.198 499.198 0 0 1-1.83-6.629c-.59-2.203-1.598-4.73-1.62-7.02-.005-.454-.175-.798-.427-1.043a42.138 42.138 0 0 0-.648-5.2c-.069-.367-.23-.633-.446-.812a152.793 152.793 0 0 1-3.175-14.228c.07-.23.093-.485.04-.768-.449-2.363-.864-4.723-1.187-7.098-.089-.753-.173-1.507-.25-2.262.016-.104.022-.214.015-.33a24.922 24.922 0 0 0-.785-4.837c.018-.087.032-.177.038-.274a31.21 31.21 0 0 0-.514-7.572c.348-.323.517-.812.294-1.419a93.52 93.52 0 0 1-3.636-12.468 1.54 1.54 0 0 0-.275-.617c-.28-3.118-.64-6.226-1.083-9.327a171.981 171.981 0 0 0-2.588-18.342l-.01-.062-1.518-9.96c-.092-1.154-.179-2.307-.287-3.458-.412-5.316-.97-10.619-1.958-15.83-.066-.35-.216-.608-.41-.788l-3.512-18.93c-.344-2.313-.687-4.627-1.046-6.938a1.189 1.189 0 0 0-.498-.809c-.763-4.246-1.134-8.53-1.36-12.836l-.249-5.983a1.453 1.453 0 0 0-.92-1.337 292.499 292.499 0 0 0-1.83-12.803c.06-.218.081-.456.028-.722a223.216 223.216 0 0 1-3.356-22.682c-.065-.69-.497-1.132-1.015-1.334l-1.999-14.817a1.446 1.446 0 0 0-.154-.482l-.704-16.489c-.032-.75-.5-1.212-1.06-1.389l-1.784-9.065a1.32 1.32 0 0 0-.439-.777c-.43-2.726-1.058-5.406-1.8-8.065-.012-.062-.02-.124-.03-.187a1.574 1.574 0 0 0-.154-.439 164.078 164.078 0 0 0-1.845-5.957c-.103-.63-.213-1.262-.314-1.894a1.504 1.504 0 0 0-.176-.5 56.754 56.754 0 0 0-.239-3.624c.121-.212.187-.465.158-.76-.497-5.186-1.384-10.306-2.332-15.423a65.011 65.011 0 0 0-.873-13.037c.037-.18.051-.37.024-.576a211.094 211.094 0 0 0-1.173-7.599l-.346-3.12c-.009-.077-.028-.147-.046-.218a108.169 108.169 0 0 0-.613-5.67v-.034l-.004.001c-.015-.102-.023-.204-.038-.305a.918.918 0 0 0-.274-.56c-.02-.324-.042-.648-.065-.972a.897.897 0 0 0 .074-.503c-.012-.102-.03-.203-.044-.304h.003c-.013-.084-.024-.168-.039-.25-.049-.356-.1-.71-.153-1.063a140.16 140.16 0 0 0-.774-7.12c0-.019-.002-.037-.003-.055h-.003c-.014-.1-.025-.203-.038-.305a.885.885 0 0 0-.422-.66l-.187-1.035c-.115-.643-.705-.884-1.253-.802a1.05 1.05 0 0 0-1.067-.53c-.638.057-1.286.61-1.134 1.43l1.433 7.707c-.07.151-.11.33-.094.546a68.512 68.512 0 0 0 1.056 7.993.945.945 0 0 0 .08.228 1.54 1.54 0 0 0-.04.788c.293 1.463.564 2.93.827 4.397.024.238.053.475.081.713a1.588 1.588 0 0 0-.007.38c.316 3.284.708 6.557 1.133 9.827.376 3.827.678 7.661.895 11.505.012.212.062.397.131.564-.05.197-.065.412-.032.644a306.89 306.89 0 0 0 1.277 8.041 1.578 1.578 0 0 0-.01.723c.33 1.563.583 3.128.764 4.701a1.42 1.42 0 0 0-.163.777c.085 1.433.267 2.842.541 4.251.033.173.097.318.174.448-.108.272-.126.596-.005.963.121.365.24.73.36 1.096.903 5.57 1.857 11.132 2.854 16.686a1.554 1.554 0 0 0-.188 1.066 76.99 76.99 0 0 0 2.412 10.023c.526 5.35 1.303 10.665 2.156 15.972l1.398 15.68c.031.346.156.626.335.85-.004.122.002.25.03.384l1.64 8.37 1.244 12.073c.052.5.297.862.622 1.105l.71 3.77c.204 3.854.6 7.682 1.467 11.476.028.124.086.222.14.324.145 1.4.311 2.795.503 4.185.05 1.327.145 2.654.296 3.99.048.436.24.774.497 1.018.338 1.878.723 3.747 1.148 5.61a199.194 199.194 0 0 0 2.49 18.075c.034.185.095.344.171.48a61.306 61.306 0 0 0 1.764 9.585 1.366 1.366 0 0 0-.185.802 28.91 28.91 0 0 0 1.125 6.514c.077.263.21.47.37.635.086.524.175 1.034.255 1.517.055.327.185.57.356.747a54.313 54.313 0 0 0 2.783 12.623c.144 2.3.277 4.596.424 6.881-.013.116-.013.238.005.373a291.714 291.714 0 0 0 2.152 13.722c.114 1.075.236 2.148.37 3.218.168 4.25.578 8.622 1.635 12.71.001.038-.005.073-.002.113.491 5.956 1.914 11.89 3.261 17.766a1.54 1.54 0 0 0-.123 1.06l3.13 14.36a154.201 154.201 0 0 0 3.83 18.134 1.486 1.486 0 0 0-.396 1.395c.343 1.64.88 3.193 1.557 4.724.057.13.132.234.215.327.11 2.17.88 4.313 1.435 6.4.311 1.168.641 2.331.961 3.496 0 2.482-.035 4.982.39 7.34.382 2.127 1.114 2.981 2.498 3.17.132.154.32.251.548.222.688-.085.99-.13 1.661-.303.682-.176.666-.876.281-1.247z" fill="#CCC"/><path d="M5.765.747a6.869 6.869 0 0 0-3.892.995c-.549.332-.047 1.196.505.863a5.896 5.896 0 0 1 3.387-.858c.643.03.642-.97 0-1m5.18 20.422c-1.34-.525-2.759-.438-4.055.168-.583.272-.075 1.134.505.863 1.061-.496 2.202-.49 3.284-.067.6.235.86-.732.266-.964" fill="#1D1E1B"/><path d="M1.549 2.313a157.254 157.254 0 0 0 4.18 19.339c.176.619 1.14.356.966-.266a157.217 157.217 0 0 1-4.182-19.34c-.096-.633-1.06-.363-.964.267m4.37-.69a110.138 110.138 0 0 0 5.089 19.559c.217.6 1.183.34.965-.266a110.182 110.182 0 0 1-5.09-19.558c-.104-.633-1.068-.365-.964.266" fill="#1D1E1B"/><path d="M7.071 2.48c47.131 4.593 94.301 8.972 141.27 15.06a1652.288 1652.288 0 0 1 40.601 5.755c.63.098.9-.865.266-.964C142.123 15.04 94.725 10.07 47.32 5.408 33.905 4.088 20.488 2.788 7.071 1.48c-.64-.062-.636.938 0 1m4.12 19.603l69.962 8.316c11.587 1.378 23.172 2.905 34.85 3.206 11.43.296 22.738.36 34.124 1.61 12.896 1.417 25.781 2.939 38.67 4.41.64.074.634-.927 0-1-11.43-1.305-22.86-2.612-34.293-3.916-11.39-1.3-22.656-1.873-34.115-2.023-23.242-.306-46.454-4.145-69.503-6.884l-39.695-4.72c-.638-.075-.632.926 0 1" fill="#1D1E1B"/><path d="M189.285 23.287c4.129 5.11 2.536 10.644.27 16.19-.244.597.723.856.963.268 2.466-6.036 3.87-11.723-.526-17.165-.404-.501-1.108.21-.707.707m-2.248 19.585a287.38 287.38 0 0 1 8.23 39.316c.087.635 1.05.365.964-.266A287.113 287.113 0 0 0 188 42.606c-.175-.618-1.14-.355-.964.266m8.736 41.22l3.162 23.698c.851 6.371 1.378 12.93 3.317 19.087 1.472 4.677 2.216 9.463 3.09 14.28 1.042 5.75 2.238 11.555 2.572 17.4.037.64 1.037.643 1 0-.305-5.326-1.338-10.618-2.282-15.858-.919-5.108-1.572-10.33-3.157-15.284-1.984-6.204-2.615-12.7-3.473-19.132l-3.229-24.192c-.084-.628-1.086-.637-1 0" fill="#1D1E1B"/><path d="M207.932 158.69a819.624 819.624 0 0 0 10.305 50.575c.148.626 1.113.361.965-.266a820.371 820.371 0 0 1-10.306-50.576c-.109-.633-1.072-.364-.964.266" fill="#1D1E1B"/><path d="M218.237 209.265c4.363 17.255 7.903 34.729 11.44 52.169a3508.326 3508.326 0 0 1 11.731 60.654c1.627 8.814 3.225 17.634 4.73 26.47.108.633 1.072.365.964-.266-6.426-37.754-13.755-75.409-21.824-112.844-1.906-8.842-3.858-17.679-6.076-26.449-.158-.623-1.123-.359-.965.266" fill="#1D1E1B"/><path d="M64.914 363.949c48.033-4.665 96.069-10.103 144.22-13.38 13.619-.927 27.255-1.595 40.9-1.875.645-.013.647-1.013 0-1-48.22.99-96.261 6.626-144.226 11.284l-40.894 3.97c-.635.063-.641 1.063 0 1" fill="#1D1E1B"/><path d="M65.323 363.224c.068 2.022.158 4.043.228 6.065.021.642 1.021.645 1 0-.07-2.022-.16-4.043-.228-6.065-.021-.642-1.021-.645-1 0" fill="#1D1E1B"/><path d="M65.123 362.478a15.835 15.835 0 0 1-2.491 2.103c-.53.359-.03 1.226.505.863a17.01 17.01 0 0 0 2.693-2.26c.447-.462-.26-1.17-.707-.706" fill="#1D1E1B"/><path d="M61.95 365.044v3.642c0 .644 1 .645 1 0v-3.642c0-.644-1-.645-1 0m3.69 5.242c12.866.32 25.687-.799 38.483-2.025 12.928-1.238 25.855-2.487 38.783-3.731l77.606-7.466 21.89-2.106c3.07-.296 9.39-.037 9.722-4.383.05-.642-.95-.639-1 0-.247 3.229-5.519 3.075-7.727 3.287l-9.452.909-18.408 1.771-36.315 3.494-72.633 6.988c-13.615 1.31-27.255 2.602-40.949 2.262-.644-.016-.644.984 0 1M9.875 23.956c2.608 13.952 3.157 28.22 5.016 42.28 1.769 13.38 3.938 26.722 6.975 39.876.145.627 1.11.362.965-.265-3.151-13.644-5.375-27.494-7.171-41.376-1.755-13.57-2.304-27.317-4.82-40.782-.118-.632-1.082-.364-.965.266" fill="#1D1E1B"/><path d="M21.866 106.113a141.3 141.3 0 0 1 3.788 25.26c.455 7.757 1.113 15.163 2.846 22.75 1.793 7.858 2.887 15.854 4.142 23.809 1.334 8.458 2.855 16.915 3.595 25.45.056.637 1.056.643 1 0-.691-7.971-2.076-15.865-3.322-23.763-1.309-8.292-2.396-16.657-4.243-24.851-.951-4.215-1.909-8.384-2.331-12.695-.394-4.023-.506-8.065-.773-12.097a140.959 140.959 0 0 0-3.737-24.13c-.153-.624-1.117-.36-.965.267" fill="#1D1E1B"/><path d="M36.256 203.516c4.176 20.974 7.392 42.135 10.105 63.344 1.314 10.262 1.702 21.11 4.984 30.96 1.732 5.2 2.145 10.563 2.552 15.993a161.862 161.862 0 0 0 1.887 15.236c1.018 5.96 2.298 11.869 3.577 17.776 1.224 5.65 2.298 11.317 4.307 16.757.22.599 1.188.34.964-.267-1.741-4.714-2.78-9.591-3.821-14.498-1.118-5.266-2.298-10.519-3.3-15.81-1.057-5.577-1.937-11.19-2.43-16.849-.438-5.03-.565-10.122-1.733-15.055-.566-2.39-1.504-4.654-2.182-7.01-.854-2.97-1.128-6.069-1.514-9.126-.686-5.43-1.372-10.863-2.06-16.293a1148.972 1148.972 0 0 0-4.214-30.196c-1.811-11.784-3.83-23.536-6.158-35.228-.125-.63-1.09-.364-.964.266m4.937 54.024c2.96 24.83 6.435 49.695 11.91 74.112.141.627 1.105.362.964-.266-5.456-24.328-8.925-49.107-11.874-73.846-.075-.63-1.076-.639-1 0" fill="#1D1E1B"/><path d="M53.103 331.652c1.182 4.155 1.563 8.443 2.601 12.622 1.15 4.636 2.541 9.151 3.37 13.87.46 2.62.812 5.255 1.076 7.902.108 1.085 0 3.158.9 3.99 1.24 1.144 3.933.276 5.252-.316.586-.262.078-1.124-.505-.863-.48.216-.998.352-1.512.461-1.196.252-1.634.427-2.42-.427-1.1-1.197-.882-4.545-1.09-6.163a105.645 105.645 0 0 0-1.989-10.925c-.787-3.308-1.926-6.532-2.56-9.873-.672-3.539-1.17-7.07-2.159-10.544-.176-.618-1.14-.355-.964.266m-10.91-74.112c-.359-3.56-1.118-7.02-2.07-10.466-1.01-3.656-1.637-7.328-2.246-11.069-1.415-8.68-2.832-17.36-4.233-26.044-2.85-17.678-5.626-35.37-8.13-53.1a1658.409 1658.409 0 0 1-4.05-30.783c-.076-.63-1.077-.638-1 0 4.282 35.056 9.885 69.92 15.565 104.771.75 4.598 1.264 9.317 2.402 13.837 1.08 4.287 2.316 8.43 2.762 12.854.063.634 1.064.641 1 0" fill="#1D1E1B"/><path d="M21.465 126.078c-1.255-9.799-3.71-19.33-5.106-29.107-2.04-14.27-3.6-28.6-5.243-42.92-.868-7.56-1.755-15.119-2.783-22.659-.086-.635-1.05-.365-.964.266 1.894 13.897 3.34 27.851 4.967 41.78 1.423 12.172 2.43 24.723 5.263 36.661 1.255 5.29 2.175 10.583 2.866 15.98.08.628 1.082.637 1 0" fill="#1D1E1B"/><path d="M8.333 31.392A60.902 60.902 0 0 1 7.2 23.58c-.05-.637-1.051-.643-1 0a63.05 63.05 0 0 0 1.168 8.078c.133.63 1.098.363.964-.266M1.655 4.576c-2.102 1.24-.963 4.365-.646 6.266l2.187 13.135c.694 4.168 1.398 8.332 2.07 12.503.448 2.776.398 3.869 2.86 5.066.576.28 1.084-.581.504-.864-1.044-.508-1.569-.688-1.96-1.903-.43-1.34-.486-2.888-.712-4.278-.512-3.128-1.042-6.254-1.563-9.382-.52-3.128-1.042-6.255-1.563-9.383l-.78-4.69c-.216-1.29-1.387-4.724.107-5.606.555-.327.052-1.192-.504-.864" fill="#1D1E1B"/><path d="M6.366 22.906c11.661 4.484 24.023 6.326 36.336 8.025 12.276 1.694 24.557 3.392 36.89 4.623 13.045 1.304 26.072 1.813 39.177 1.892 12.999.078 25.929.557 38.822 2.325 6.268.859 12.445 2.31 18.712 3.133 5.029.659 10.162.509 14.302-2.737.506-.397-.206-1.1-.707-.707-4.496 3.525-10.426 3.015-15.727 2.113-5.761-.982-11.476-2.122-17.273-2.896-12.003-1.604-24.047-2.136-36.145-2.22-12.462-.084-24.861-.396-37.278-1.531-12.591-1.15-25.126-2.845-37.649-4.566-13.259-1.823-26.629-3.586-39.193-8.418-.602-.232-.862.735-.267.964m42.099 286.94a122.765 122.765 0 0 1-1.615 7.69c-.153.625.81.892.964.266a122.922 122.922 0 0 0 1.616-7.69c.11-.629-.853-.899-.965-.266" fill="#1D1E1B"/><path d="M39.894 316.518a12.443 12.443 0 0 0 6.397 1.581c.643-.015.646-1.015 0-1a11.382 11.382 0 0 1-5.892-1.445c-.564-.312-1.068.552-.505.864m1.077-2.358l5.218-24.087c.136-.626-.828-.894-.965-.265-1.738 8.029-3.48 16.058-5.218 24.086-.136.627.828.894.965.265m7.385 5.002l-1.702 9.315c-.115.628.848.899.964.265l1.702-9.313c.115-.63-.849-.9-.964-.267m-3.1 8.178c-3.174 1.616-6.711.402-8.283-2.76-.287-.576-1.15-.07-.863.504 1.827 3.675 6.018 4.97 9.652 3.12.573-.293.068-1.156-.505-.864" fill="#1D1E1B"/><path d="M37.144 317.01a65.718 65.718 0 0 1-1.614 8.51c-.16.622.802.888.964.265a67.415 67.415 0 0 0 1.65-8.775c.077-.638-.924-.632-1 0m.756 11.084c-3.632 17.034-6.263 34.324-9.2 51.486-4.023 23.493-7.977 47-11.749 70.536-1.194 7.446-2.466 14.895-3.4 22.38-.079.637.921.63 1 0 2.151-17.238 5.33-34.391 8.176-51.523 3.895-23.442 7.857-46.875 11.998-70.274 1.32-7.453 2.561-14.936 4.14-22.34.134-.627-.83-.895-.965-.265m6.654.416c-3.5 17.147-6.494 34.41-9.607 51.63-4.183 23.136-8.319 46.284-12.21 69.472-1.278 7.608-2.632 15.225-3.585 22.883-.08.637.921.632 1 0 2.151-17.3 5.543-34.502 8.552-51.666a7474.853 7474.853 0 0 1 12.468-69.2c1.412-7.624 2.796-15.256 4.347-22.853.128-.628-.835-.897-.965-.266m189.26 27.645c3.534 11.242 6.886 22.563 10.631 33.738 1.667 4.971 4.008 9.592 6.33 14.281 2.608 5.27 4.728 10.7 6.43 16.33 1.92 6.356 3.252 12.86 5.293 19.18 1.828 5.656 3.7 11.298 5.557 16.946 1.52 4.617 3.281 9.237 4.49 13.95.161.622 1.125.358.964-.267-2.51-9.787-6.295-19.362-9.42-28.968-1.785-5.48-3.108-11.02-4.627-16.584-1.413-5.179-3.02-10.315-5.117-15.263-2.237-5.286-5.17-10.248-7.349-15.558-2.42-5.894-4.072-12.143-5.98-18.216l-6.239-19.835c-.193-.612-1.158-.35-.964.266m-6.567.38c3.32 11.182 6.39 22.478 10.008 33.568 2.248 6.895 5.606 13.394 8.129 20.2 5.265 14.199 9.865 28.644 14.63 43.015 2.14 6.457 4.244 12.934 6.614 19.31.223.599 1.189.34.964-.265-4.717-12.693-8.69-25.675-12.981-38.514-2.378-7.118-4.778-14.23-7.336-21.284-2.265-6.248-5.04-12.224-7.494-18.389-2.315-5.816-3.864-11.953-5.644-17.948l-5.926-19.96c-.183-.614-1.15-.353-.964.267M64.59 369.591l2.914 89.951c.19 5.911.383 11.822.574 17.733.022.642 1.022.645 1 0-.97-29.984-1.942-59.967-2.913-89.95l-.575-17.734c-.021-.642-1.021-.645-1 0m8.075.601c.022 9.152 1.249 18.241 1.376 27.396.08 5.82.126 11.641.173 17.461.122 15.126.214 30.253.343 45.38.048 5.615.082 11.231.195 16.846.013.643 1.013.645 1 0-.524-25.997-.367-52.008-.69-78.008-.12-9.716-1.373-19.367-1.397-29.075-.002-.644-1.002-.645-1 0" fill="#1D1E1B"/><path d="M236.726 364.217a18.304 18.304 0 0 1-6.08 1.414c-.64.038-.644 1.038 0 1a19.794 19.794 0 0 0 6.585-1.55c.591-.25.081-1.112-.505-.864M65.64 383.522a17.724 17.724 0 0 1 7.273-1.305c.644.02.644-.98 0-1a18.368 18.368 0 0 0-7.54 1.341c-.588.237-.33 1.205.267.964m-2.715-26.69a1428.708 1428.708 0 0 1 142.116-14.343 1445.298 1445.298 0 0 1 40.415-1.466c.643-.014.645-1.014 0-1a1430.312 1430.312 0 0 0-143.578 10.44 1449.987 1449.987 0 0 0-39.22 5.405c-.633.096-.364 1.06.267.964m187.727-8.647l.22 2.325c.06.635 1.06.64 1 0l-.22-2.325c-.06-.635-1.06-.642-1 0m-213.57-29.572c-.621-.921-1.833-1.067-2.774-.534-1.134.642-1.422 2.045-1.56 3.23-.022.203.172.443.368.483l2.043.414c.628.128.897-.836.266-.964l-2.043-.415.367.483c.084-.732.223-1.584.762-2.131.423-.43 1.313-.646 1.708-.061.358.53 1.225.03.864-.505" fill="#1D1F1C"/><path d="M107.064 163.931a292.747 292.747 0 0 1 52.232 14.09c.605.225.866-.741.267-.964a292.792 292.792 0 0 0-52.232-14.09c-.63-.109-.9.854-.267.964M92.478 245.7c-1.005-6.766.14-13.481 1.486-20.116 1.243-6.112 2.352-12.2 2.996-18.41 1.363-13.118 1.487-26.355 3.827-39.365.112-.63-.85-.9-.965-.265-2.356 13.098-2.49 26.423-3.862 39.63-.717 6.915-2.103 13.646-3.42 20.46-1.174 6.07-1.942 12.17-1.027 18.332.095.634 1.06.364.965-.266m72.336-70.522c-9.874-27.928-16.833-56.833-27.796-84.383-.235-.59-1.203-.333-.965.266 10.964 27.55 17.923 56.455 27.796 84.383.213.603 1.18.343.965-.266m-87.747-63.093c-4.334 3.627-7.958 8.022-11.868 12.083-.446.463.26 1.171.707.707 3.91-4.06 7.534-8.456 11.868-12.083.494-.414-.216-1.118-.707-.707" fill="#1D1E1B"/><path d="M63.108 115.074a108.603 108.603 0 0 1 14.476 9.272c.512.389 1.01-.48.503-.863a108.582 108.582 0 0 0-14.474-9.272c-.567-.304-1.073.559-.505.863m120.77 104.38a59.416 59.416 0 0 1-11.823 9.37c-.55.333-.048 1.198.505.864a60.399 60.399 0 0 0 12.025-9.527c.45-.46-.256-1.168-.707-.707" fill="#1D1E1B"/><path d="M170.214 221.046a138.936 138.936 0 0 1 18.062 9.035c.555.33 1.059-.535.505-.864a140.717 140.717 0 0 0-18.301-9.135c-.595-.245-.854.722-.266.964m-52.251 69.538c-4.088 4.453-6.78 9.972-10.867 14.424-.435.473.27 1.182.707.707 4.088-4.453 6.78-9.972 10.868-14.424.435-.473-.271-1.183-.708-.707" fill="#1D1E1B"/><path d="M103.52 293.825a758.335 758.335 0 0 0 18.85 10.081c.571.295 1.077-.567.504-.863a766.804 766.804 0 0 1-18.85-10.081c-.564-.312-1.068.551-.505.863m-8.078-38.788c6.816 4.313 14.458 6.826 22.047 9.402 8.36 2.839 16.634 5.922 24.835 9.187 16.872 6.718 33.436 14.17 49.99 21.629.582.262 1.092-.6.505-.864-16.045-7.23-32.102-14.45-48.436-21.011-8.215-3.301-16.5-6.432-24.875-9.307-8.079-2.773-16.29-5.298-23.562-9.9-.545-.344-1.047.52-.504.864m55.513-156.37c-4.675-2.805-9.49-5.367-14.166-8.172-.553-.332-1.056.532-.504.863 4.675 2.805 9.49 5.368 14.165 8.172.554.332 1.057-.532.505-.863" fill="#1D1E1B"/><path d="M133.226 108.241a221.487 221.487 0 0 1 3.792-17.181c.163-.623-.8-.889-.965-.266a221.584 221.584 0 0 0-3.79 17.181c-.114.629.85.899.963.266m-8.477-31.3l6.39 5.01c.19.152.524.233.707 0a249.21 249.21 0 0 1 19.852-22.374c.455-.455-.252-1.162-.708-.707a247.477 247.477 0 0 0-12.733 13.697 243.586 243.586 0 0 0-5.67 6.843c-1.376 1.727-1.684 1.096-3.227-.114l-3.904-3.061c-.501-.393-1.214.31-.707.707m-.03-6.198c-1.227.936-2.322 2-3.271 3.22-.39.502.312 1.215.707.707a16.904 16.904 0 0 1 3.07-3.065c.505-.384.008-1.253-.505-.862" fill="#1D1E1B"/><path d="M124.72 71.607c1.877 1.02 3.653 2.28 5.393 3.515.526.373 1.026-.494.505-.863-1.74-1.235-3.516-2.495-5.393-3.515-.566-.308-1.07.555-.505.863m26.314-12.904a20.68 20.68 0 0 0-2.87-1.39c-.599-.236-.859.73-.266.964.911.36 1.785.794 2.631 1.289.557.326 1.06-.537.505-.863" fill="#1D1E1B"/><path d="M130.72 75.044c4.774-6.09 10.143-11.698 15.742-17.03.467-.445-.242-1.151-.707-.707-5.6 5.332-10.969 10.94-15.743 17.03-.393.5.31 1.213.708.707" fill="#1D1E1B"/><path d="M104.055 161.902c.245.169.505.25.761.26.043.2.093.392.129.603.014.088.06.152.09.23-.728.98-1.852 1.762-2.927 2.47-.453.167-.92.25-1.39.22-.038-.02-.07-.045-.112-.063a8.19 8.19 0 0 0-.985-.384c-.047-.025-.097-.047-.142-.076.2-2.364 1.969-5.062 4.576-3.26m5.368 1.899c.526-1.156.674-2.374-.139-3.838-.066-.121-.158-.206-.245-.3-.713-3.64-4.805-4.608-7.9-3.204-3.108 1.409-6.462 4.628-7.552 7.91-1.094 3.295.406 6.067 3.787 6.853 3.757.872 7.573-.482 10.369-2.995.448-.404.587-.876.53-1.322.69-.844 1.181-1.792 1.187-2.893 0-.073-.026-.14-.036-.211" fill="#E35205"/><path d="M100.206 156.814c-3.687 2.41-8.653 6.16-7.071 11.295 1.29 4.192 6.41 4.735 10.005 3.545 4.024-1.332 7.833-4.983 7.662-9.502-.15-3.945-3.368-7.475-7.384-7.404-.643.01-.645 1.01 0 1 3.7-.065 6.579 3.426 6.382 7.047-.206 3.8-3.523 6.759-6.927 7.895-3.483 1.163-8.822.495-8.982-4.184-.143-4.19 3.729-6.808 6.819-8.83.537-.35.036-1.216-.504-.862" fill="#1D1E1B"/><path d="M102.025 161.445c.855-.037 1.87.35 1.914 1.36.04.917-.959 1.57-1.688 1.887-.82.356-2.038.43-2.336-.641-.23-.83.397-1.481.997-1.947.508-.394-.204-1.097-.707-.707-.989.768-1.74 2.054-1.144 3.299.652 1.363 2.35 1.456 3.58.92 1.21-.524 2.471-1.618 2.27-3.07-.198-1.42-1.554-2.16-2.886-2.101-.642.028-.645 1.028 0 1" fill="#1D1E1B"/><path d="M166.454 181.97a5.91 5.91 0 0 1-1.206.388c-.07-.072-.13-.153-.218-.208a20.585 20.585 0 0 1-2.411-1.768c.12-.229.214-.48.232-.775.084-1.331 1.076-2.06 2.082-2.355.248.108.533.138.853.045.809-.323 1.522-.135 2.14.566.123.124.27.214.425.29l-.242 2.113c-.265.762-.78 1.313-1.655 1.704m5.824-5.062c-.176-.414-.45-.656-.757-.771a8.12 8.12 0 0 0-.953-1.366c-.438-.504-.985-.577-1.46-.389a1.465 1.465 0 0 0-.33.025 4.327 4.327 0 0 0-2.814-.649 1.544 1.544 0 0 0-.47-.115c-2.643-.201-4.941 1.009-6.626 3.246-.291.19-.54.495-.685.947-.013.045-.022.087-.036.132-.01.019-.023.034-.034.053a2.008 2.008 0 0 0-.168.374 2.1 2.1 0 0 0-.367.968c-.11 1.015.074 1.789.539 2.636.088.162.189.291.292.405.05.301.172.587.387.82.583.632 1.123 1.091 1.852 1.468.18.093.358.135.53.15 2.02 1.503 4.382 1.184 6.694.267a4.857 4.857 0 0 0 1.42-.884c.455.038.933-.2 1.289-.823.318-.026.635-.17.897-.468 1.496-1.698 1.714-3.868.8-6.026" fill="#E35205"/><path d="M165.204 177.02c-1.305.083-2.794.948-2.925 2.376-.138 1.505 1.298 2.719 2.674 2.937 1.36.215 2.825-.386 3.486-1.632.58-1.095.34-2.601-.745-3.27-.55-.338-1.053.527-.505.864.8.493.653 1.688.11 2.315-.49.567-1.27.819-2 .757-.73-.063-1.518-.472-1.86-1.155-.593-1.192.7-2.125 1.765-2.192.639-.041.644-1.041 0-1" fill="#1D1E1B"/><path d="M169.369 173.75c-4.045-.952-9.39-.52-11.774 3.417-2.015 3.325-.064 7.088 3.296 8.48 3.676 1.522 9.169.485 11.582-2.862 2.73-3.788-.208-8.21-3.808-9.936-.578-.277-1.086.585-.505.863 3.237 1.553 6.187 5.668 3.08 8.993-2.267 2.425-6.42 3.195-9.505 2.195-3.576-1.159-5.305-5.242-2.535-8.18 2.492-2.643 6.6-2.783 9.903-2.006.626.148.893-.816.266-.964" fill="#1D1E1B"/><path d="M196.969 301.694c-.338-1.159-.685-2.478-.335-3.585a14.498 14.498 0 0 1 2.272-1.133c1.04.26 1.814 1.002 2.321 2.23-.66.961-1.475 1.982-2.422 2.63a7.574 7.574 0 0 1-1.837-.142m8.175-6.915c-.012-.004-.023-.004-.032-.009-.722-.768-1.654-1.362-2.692-1.908-.484-.254-1.006-.14-1.385.147a6.745 6.745 0 0 0-1.3-.287 1.174 1.174 0 0 0-.643-.042c-2.38-.035-4.602 1.218-6.16 3.071-2.88.971-3.992 4.312-2.29 7.131 2.246 3.718 8.707 5.226 12.593 3.762 1.837-.692 5.041-3.875 4.534-6.286.554-2.175-.01-4.395-2.625-5.579" fill="#E35205"/><path d="M204.276 292.7c-4.535-1.647-9.946-.41-13.062 3.385-3.629 4.42-1.239 8.997 3.671 10.913 4.322 1.685 9.862.745 12.663-3.19 2.427-3.41 1.415-8.377-2.687-9.853-.606-.219-.867.748-.266.965 4.431 1.594 3.905 7.135.808 9.74-3.045 2.561-7.564 2.748-11.047 1.01-2.227-1.11-4.29-2.958-3.944-5.682.274-2.147 1.983-4.024 3.718-5.185 2.936-1.969 6.585-2.336 9.88-1.14.607.22.868-.745.266-.964" fill="#1D1E1B"/><path d="M201.04 295.825c-1.726.22-3.632.5-4.768 1.974-.945 1.226-.986 2.937.279 3.954 2.728 2.196 5.78-1.077 4.76-3.952-.212-.601-1.18-.342-.963.267.688 1.942-1.195 4.543-3.182 2.89-1.034-.86-.562-2.248.343-3.017.955-.81 2.338-.963 3.532-1.115.629-.08.638-1.082 0-1" fill="#1D1E1B"/><path d="M91.16 254.184a1.462 1.462 0 0 0-.177-.48c-.807-1.37-.872-2.546-.347-4.027v-.006a3.604 3.604 0 0 1 1.979-.893c.108.02.21.033.323.063 2.162.555 4.68 3.09 2.019 4.92-.917.631-2.461.77-3.796.423m6.736-7.964c-2.476-2.09-6.255-1.8-9.007-.17-2.945.527-5.162 2.98-4.983 6.13.185 3.261 2.966 5.83 6.054 6.405 3.212.598 7.093-.534 9.018-3.3 1.773-2.544 1.329-7.03-1.082-9.065" fill="#E35205"/><path d="M96.717 244.466c-3.785-.602-8.132-.18-10.76 2.949-1.98 2.358-2.613 5.905-.73 8.506 4.634 6.398 16.344 2.74 15.303-5.466-.08-.63-1.081-.637-1 0 .899 7.094-8.67 10.274-13.158 5.303-2.137-2.368-1.355-6.036.75-8.14 2.426-2.422 6.12-2.697 9.329-2.188.629.1.9-.863.266-.964" fill="#1D1E1B"/><path d="M91.145 249.244c1.026.115 2.192.266 3.083.835 1.146.734 1.414 2.109.498 3.154-1.912 2.181-4.593-.421-3.964-2.723.17-.622-.795-.887-.964-.266-.85 3.119 2.711 6.472 5.432 3.904 1.097-1.034 1.452-2.696.554-3.97-1.028-1.455-3-1.751-4.639-1.934-.639-.071-.634.93 0 1" fill="#1D1E1B"/><path d="M128.174 56.46l-2.913-4.188c-.364-.524-1.232-.025-.863.505.97 1.396 1.942 2.792 2.913 4.187.365.525 1.232.026.863-.504m-9.409 3.99a45.633 45.633 0 0 0-7.756-1.89c-.63-.096-.9.868-.266.965a45.63 45.63 0 0 1 7.756 1.889c.612.207.873-.758.266-.964m-8.21 13.245a12.698 12.698 0 0 0-4.77 1.359c-.572.293-.066 1.156.505.863a11.393 11.393 0 0 1 4.265-1.222c.637-.054.643-1.054 0-1m4.971 10.154a15.629 15.629 0 0 0-3.536 3.595c-.373.526.494 1.026.863.505a14.125 14.125 0 0 1 3.178-3.236c.514-.377.016-1.245-.505-.864m42.778-20.431c2.892-.164 5.608.44 8.147 1.833.565.309 1.07-.554.505-.864-2.68-1.47-5.599-2.142-8.651-1.97-.64.037-.644 1.037 0 1m-6.13 9.937c1.408.083 2.623.758 3.493 1.858.399.504 1.102-.208.707-.707-1.034-1.307-2.543-2.053-4.2-2.151-.642-.038-.64.962 0 1m-9.338 5.967a6.015 6.015 0 0 1 1.79 2.232c.273.582 1.136.075.863-.504a6.622 6.622 0 0 0-1.945-2.435c-.503-.39-1.216.313-.708.707m8.733-25.734a6.886 6.886 0 0 1 3.305-2.184c.614-.186.352-1.151-.266-.964a7.824 7.824 0 0 0-3.746 2.44c-.413.489.291 1.2.707.708m-12.462.281c.154-1.465.79-2.777 1.812-3.832.45-.461-.257-1.169-.707-.707-1.217 1.254-1.922 2.805-2.105 4.539-.067.639.933.635 1 0" fill="#1D1F1C"/></g></svg>