<?xml version="1.0" encoding="UTF-8"?>
<svg viewBox="0 0 160 160" version="1.1" xmlns="http://www.w3.org/2000/svg" xmlns:xlink="http://www.w3.org/1999/xlink">
  <g stroke="none" stroke-width="1" fill="none" fill-rule="evenodd">
    <g transform="translate(-232.000000, -1096.000000)" fill="#F7F7F6">
      <g transform="translate(0.000000, 923.000000)">
        <path d="M388.583299,270.52548 C387.237413,276.445411 385.504015,281.875152 382.928337,287.215985 C380.310224,292.644925 378.759373,298.685802 375.03717,303.349019 C371.296552,308.034664 366.927426,312.36468 362.242847,316.105987 C357.581486,319.829672 352.357271,323.055959 346.930492,325.675114 C341.591784,328.251818 335.873571,330.554592 329.955996,331.901013 C324.224972,333.204183 318.086419,332.986321 311.960677,332.986321 C305.835735,332.986321 300.037457,331.700772 294.307233,330.397602 C288.388858,329.051981 281.979687,328.975089 276.640979,326.399186 C271.214201,323.77923 266.523216,319.598994 261.861855,315.875309 C257.178076,312.133201 253.754514,307.131976 250.013895,302.446332 C246.291692,297.782314 243.825703,292.5408 241.20759,287.11186 C238.631912,281.770225 235.576647,276.696914 234.231562,270.777784 C232.92811,265.043677 232.143477,259.154983 232.143477,253.027602 C232.143477,246.900221 231.531783,240.693544 232.834434,234.960238 C234.17952,229.040307 236.414123,223.214088 238.989801,217.872454 C241.607913,212.443514 244.658374,206.967317 248.380578,202.3041 C252.121196,197.617655 257.903461,194.830297 262.588041,191.088189 C267.249402,187.365305 271.750634,183.386912 277.177412,180.767757 C282.51612,178.191053 288.177488,176.070098 294.095062,174.725278 C299.826086,173.422108 305.835735,173 311.960677,173 C318.086419,173 323.863881,174.443339 329.594905,175.746508 C335.512479,177.092129 341.029731,178.971994 346.368438,181.548698 C351.795217,184.167853 356.66955,187.369309 361.330911,191.092995 C366.015491,194.835103 371.586385,197.789862 375.326203,202.476307 C379.048406,207.139525 380.624878,213.259697 383.24299,218.688637 C385.818669,224.029471 390.044478,228.972225 391.389563,234.891355 C392.692215,240.625462 391.504856,246.900221 391.504856,253.027602 C391.504856,259.155784 389.88595,264.792174 388.583299,270.52548 Z" />
      </g>
    </g>
  </g>
</svg>