<svg xmlns="http://www.w3.org/2000/svg" width="44" height="44" viewBox="0 0 164 164"><g fill="none" fill-rule="evenodd"><path fill="#D1CCB2" d="M107.077 81.927a12.97 12.97 0 0 1-6.638-.766c-.646-2.955-1.372-5.878-2.007-8.661a3.412 3.412 0 0 0-.84-3.581 3.45 3.45 0 0 0-1.172-1.513c-.218-.457-.616-.834-1.257-1.006-1.165-.309-2.306-.666-3.452-1.011a23.636 23.636 0 0 0-.813-.242 107.81 107.81 0 0 1-3.303-1.1c-.214-.508-.62-.948-1.268-1.187l-2.238-.822c-2.272-.912-5.162-2.178-7.748-2.848-.675-.248-1.35-.5-2.028-.748-.697-.256-1.307-.057-1.777.335a3.991 3.991 0 0 0-.76.176c-.118.04-.214.105-.32.16a5.622 5.622 0 0 0-2.41 1.07c-2.002 1.555-3.558 3.358-4.935 5.46l-3.023 2.2c-.413.3-.63.676-.769 1.065-.754.09-1.482.502-1.832 1.378-.059.15-.103.305-.158.455-.754.12-1.43.584-1.603 1.46a50.62 50.62 0 0 0-.807 6.068 35.882 35.882 0 0 0-.131 3.24 52.012 52.012 0 0 0-7.936 1.226c-2.653.625-1.529 4.705 1.126 4.083a45.71 45.71 0 0 1 6.274-1.01c-1.836 7.22-3.155 14.972-.485 22.052 2.994 7.937 10.466 9.67 18.078 11.39a.087.087 0 0 0 .024.003c.35 4.027.466 8.087.34 12.195-.165 5.452 8.305 5.445 8.47 0 .032-.974.03-1.945.034-2.915a4.58 4.58 0 0 0 .656-.882c1.46-2.59 2.211-6.853 4.504-8.737.574-.472 4.415-1.378 5.192-1.867 3.453-2.177 5.846-6.084 6.577-10.057.125-.684.165-1.348.211-2.009.132-.171.267-.336.381-.537 2.78-4.866 3.126-10.388 2.488-15.996.193-.068.375-.178.52-.38.16-.221.34-.423.522-.622.82-.507 1.681-.903 2.575-1.242.942-.002 1.895-.05 2.865-.197 2.685-.402 1.543-4.478-1.127-4.08"/><path fill="#897D60" d="M99.98 53.305c-.64-1.132-1.045-1.51-2.127-2.227a2.485 2.485 0 0 0-.362-.19 5.683 5.683 0 0 0-1.044-1.075c-1.489-1.147-3.346-1.042-4.732-2.333-1.277-1.189-1.478-2.817-3.136-3.926-4.77-3.193-11.006-2.086-16.02.623-.822.37-1.593.817-2.327 1.322-.05.03-.094.047-.142.077-.051.03-.077.078-.123.11a17.143 17.143 0 0 0-2.528 2.19 2.01 2.01 0 0 0-.58 1.44c-2.497.996-5.421 2-7.058 3.917-1.442 1.691-.836 3.473-1.791 5.372-.995 1.976.976 3.767 2.897 2.895a69.487 69.487 0 0 1 15.016-4.864c2.592-.025 5.181.055 7.762.362 3.947.474 8.133 2.9 12.017 2.824l.605.156c1.38.356 2.617-.66 2.68-2.042.024-.52.03-1.054.024-1.59 1.076-.463 1.548-2.02.97-3.041"/><path fill="#66604F" d="M64.529 60.355c-.735.582-1.467 1.166-2.2 1.748-.366-.25-.862-.294-1.287.11l-.729.796c-.175.032-.35.089-.512.22-.047.038-.083.083-.127.123a1.035 1.035 0 0 0-.978.726l-.477 1.388a.896.896 0 0 0 .047.71c-.079.378.065.772.33 1.038.21.832 1.425 1.298 1.9.335a2.52 2.52 0 0 0 .264-.955c1.893-1.426 3.674-2.98 5.266-4.743.932-1.033-.447-2.332-1.497-1.496M99.417 60.353c-.332-1.225-1.954-.847-2.079.281-.006.058-.006.115-.01.17-.885-.347-1.84-.593-2.592-.88-4.294-1.643-8.38-2.758-12.929-2.79a1.097 1.097 0 0 0-.832 0c-.104 0-.201-.002-.305 0-1.36.044-1.366 2.16 0 2.116.195-.006.417-.006.631-.008a46.527 46.527 0 0 0 8.912 3.956c2.503 1.121 5.008 2.243 7.508 3.369.068.027.144.023.216.04.011.114.043.218.047.335.032 1.371 2.035 1.354 2.117 0 .14-2.299-.082-4.369-.684-6.589"/><path fill="#FFF" d="M84.7 121.691c-.108.722-.21 1.444-.307 2.161-.332.976-.582 2-.898 3.124a42.194 42.194 0 0 1-3.01 7.698c-.744.374-1.542.647-2.406.709-.229.014-.434.06-.644.103a77.736 77.736 0 0 1-2.5-.675c-2.143-2.728-4.201-6.546-2.69-9.613 1.387-2.817-.273-6.373-3.656-6.37-9.6.012-13.297-9.963-15.747-17.38a20.728 20.728 0 0 1-.184-2.483c.63-3.078 1.312-6.098.97-9.332.169-.33.298-.675.48-1.001.443-.792-.292-1.814-1.196-1.554-2.293.654-4.553.654-6.831.068 0 0 .004-.013.002-.021a1896.07 1896.07 0 0 1-.43-3.632c-.004-.034-.017-.065-.02-.101 1.526-1.35 5.077-1.694 6.027-1.56 2.103.292 3.564-1.26 3.905-2.877.336-.66.576-1.418.652-2.294.201-2.3.267-4.584.227-6.857.696-1.38.908-2.764.96-4.229.232-.703.435-1.418.465-2.228.02-.64-.172-1.393-.439-2.176-.021-1.202-.129-2.629.055-3.719.907-5.33 3.943-6.506 7.638-9.395 4.01-3.136 7.315-6.586 12.598-7.257 3.784-.479 7.35-.049 10.894.927.066.22.12.44.242.662 1.333 2.457 2.917 4.058 5.56 5.042 1.717.641 3.31 1.43 4.876 2.3.644 1.922 1.046 3.947 1.391 5.935a3.462 3.462 0 0 0-.705.872c-.785 1.433-.235 2.715.19 4.146a36.806 36.806 0 0 1 1.436 7.539c.009.106.036.195.053.294-.781 3.003-1.918 6.051-1.922 8.297 0 .61.152 1.115.391 1.542-.224 2.521 2.81 4.405 4.8 3.14 1.8.105 3.856.287 5.03 1.523.948 1.003.569 1.693-.244 2.686a3.7 3.7 0 0 1-.995.87c-1.267.02-2.526.042-3.767.031-3.384-.031-4.241 4.792-1.332 6.058-1.512 4.385-2.333 8.902-3.82 13.338-2.327 6.952-5.787 8.779-10.877 12.618-1.846-.01-3.934 1.151-4.222 3.071m65.275-24.18c3.265-7.827 9.564-14.807 8.61-23.83-.867-8.171-8.587-14.292-12.157-21.285-3.663-7.183-9.204-11.56-16.424-14.898-9.636-4.455-18.608-10.186-28.265-14.565-5.726-2.597-11.701-4.32-17.613-4.826-.154-.042-.294-.097-.461-.125-.466-.074-.938-.118-1.408-.173l.002-.015c-.064-.007-.132-.004-.195-.009-3.693-.417-7.43-.307-11.159.275-5.85.686-11.614 2.348-16.496 5.41-13.84 6.798-26.375 18.498-34.61 30.23-.145.114-.298.196-.44.33-1.95 1.812-3.5 3.795-4.706 5.983a46.367 46.367 0 0 0-1.851 3.018C5.145 71.836 5.1 84.341 9.334 96.232c-.263.578-.348 1.268-.144 2.053 6.718 25.857 35.847 42.249 61.033 46.226 3.947 1.208 7.95 2.152 11.998 2.726 12.437 1.76 22.922-.6 32.652-5.712 4.796-.38 9.535-.96 14.028-2.085 7.37-1.848 13.99-8.678 18.417-14.587 4.929-6.58 4.038-14.246 3.021-21.893-.241-1.82-.34-3.636-.364-5.45"/><path fill="#081F2C" d="M139.817 129.332c5.025-1.437 9.198-4.698 11.585-9.397 2.706-5.329 1.672-10.258.554-15.829-1.819-9.056 4.578-14.809 6.401-23.097 1.285-5.835-.076-11.869-2.59-17.183-6.047-12.782-18.207-22.585-29.971-29.914-12.3-7.664-26.893-14.974-41.338-17.23-14.254-2.225-28.04 2.708-39.614 10.889-6.217 4.393-11.809 9.58-17.155 14.982-5.205 5.257-10.68 10.538-15.085 16.504-16.46 22.308-2.943 55.729 17.441 70.548 13.664 9.933 32.716 16.26 49.33 18.507 8.568 1.16 16.735.15 25.04-2.066 9.356-2.493 18.49-5.697 28.315-5.232 1.362.066 1.358-2.05 0-2.116-13.185-.625-25.042 5.335-37.844 7.295-14.745 2.256-29.819-2.715-43.495-7.81-13.338-4.967-25.477-12.28-33.612-24.235C10.565 103.35 6.59 90.12 7.815 77.265 9.235 62.38 21.123 51.97 31.182 42.054c10.198-10.052 21.93-19.45 36.193-22.725 14.565-3.344 28.6 1.928 41.674 7.992 11.972 5.556 23.434 12.54 32.934 21.772 5.68 5.515 10.945 11.91 13.44 19.543 2.951 9.044-.388 15.127-4.036 23.155-2.471 5.437-2.107 9.63-.904 15.33 1.893 8.973-1.953 17.517-11.229 20.171-1.306.375-.752 2.417.563 2.04"/><path fill="#081F2C" d="M62.637 79.845c2.793-.603 6.246-1.904 9.092-1.456 4.059.635 2.983 4.383 3.53 7.36.247 1.339 2.289.77 2.043-.564-.631-3.424.523-6.726-3.411-8.438-3.562-1.547-8.283.296-11.817 1.056-1.332.288-.769 2.328.563 2.042M73.74 92.724c-.58 3.204 2.762 4.24 5.335 4.277 3.523.053 4.211-3.396 3.923-6.224-.135-1.344-2.255-1.357-2.117 0 .137 1.35.442 3.581-1.241 4.042-.95.26-4.131-.023-3.858-1.532.241-1.331-1.798-1.903-2.041-.563M77.753 87.9c-.45.061-.902.127-1.355.19-1.342.191-.77 2.23.563 2.04l1.356-.19c1.344-.188.772-2.228-.564-2.04M82.192 73.33c4.423 2.13 9.166 2.59 13.903 1.273 1.31-.364.753-2.407-.564-2.04-4.169 1.16-8.365.819-12.272-1.059-1.222-.59-2.297 1.236-1.067 1.827M61.074 75.995c3.66-2.495 8.397-6.79 13.11-4.65 1.233.557 2.31-1.266 1.07-1.829-5.706-2.588-10.718 1.564-15.247 4.652-1.12.762-.062 2.595 1.067 1.827M59.545 63.333c-.15-4.544-3.422-6.197 2.136-10.328 3.456-2.565 8.705-3.918 12.895-4.707 5.141-.965 10.5-.982 15.639-.013 1.575.297 3.703.491 5.065 1.313 6.568 3.953 3.138 8.129 1.11 11.638-.685 1.181 1.145 2.248 1.827 1.069 2.439-4.218 5.784-9.088.942-13.019-4.809-3.9-13.617-4.114-19.476-3.742-6.653.422-14.88 2.138-20.223 6.415-1.83 1.465-3.392 3.668-3.47 6.121-.066 2.062 1.372 3.266 1.437 5.253.045 1.36 2.162 1.366 2.118 0"/><path fill="#081F2C" d="M59.02 64.247c11.057-7.188 23.137-7.169 35.202-2.55 1.273.486 1.823-1.556.563-2.04-12.564-4.81-25.353-4.701-36.832 2.763-1.139.739-.08 2.572 1.067 1.827M58.067 94.082c-2.221 5.96-5.833 13.7-1.141 19.499 4.247 5.249 13.52 6.305 19.761 6.26 1.364-.01 1.366-2.127 0-2.116-5.537.038-15.321-.912-18.675-6.26-3.235-5.162.241-11.842 2.096-16.82.477-1.278-1.569-1.83-2.04-.563M79.78 120.432c6.032-.232 15.319-1.172 18.324-7.4 2.907-6.035 1.107-13.843-1.912-19.413-.65-1.198-2.478-.131-1.83 1.067 2.541 4.692 4.197 11.124 2.223 16.375-2.329 6.188-11.15 7.035-16.805 7.255-1.36.053-1.366 2.17 0 2.116M70.38 105.136c4.696.893 10.424 1.128 14.41-1.905 1.07-.815.016-2.654-1.069-1.829-3.508 2.671-8.62 2.485-12.778 1.693-1.332-.254-1.904 1.787-.563 2.04M74.644 111.235c1.519-.406 2.984-.324 4.462.205 1.285.457 1.84-1.585.563-2.04-1.817-.652-3.727-.705-5.588-.205-1.315.351-.758 2.393.563 2.04M51.686 81.6c-2.545-.33-6.712.142-6.42 3.683.297 3.615 5.173 2.599 7.619 2.571 1.361-.014 1.365-2.13 0-2.116-.966.01-1.931.021-2.897.034-.656.006-2.232.277-2.554-.417-.385-.828.614-1.467 1.27-1.67.939-.29 2.03-.093 2.982.032 1.347.175 1.334-1.943 0-2.117M104.465 83.289c1.359-.263 3.608-.739 4.453.777.122.16.184.345.184.552l-.195-.049c-.227.185-.955.297-1.232.354a8.163 8.163 0 0 1-2.842.061c-1.334-.199-1.91 1.842-.563 2.043 2.052.304 7.625.372 6.881-3.018-.734-3.366-4.622-3.266-7.25-2.762-1.336.258-.77 2.298.564 2.042"/><path fill="#081F2C" d="M71.39 120.073c.445 3.799.49 7.924 1.521 11.621.682 2.443 2.247 3.8 4.84 3.797 2.452-.002 4.447-.791 5.235-3.204 1.243-3.814 1.272-8.324 1.929-12.278.22-1.333-1.82-1.907-2.042-.565-.37 2.235-.694 4.474-1.029 6.716-.32 2.165-.137 6.074-2.513 7.007-5.78 2.265-5.437-9.81-5.823-13.094-.156-1.338-2.276-1.353-2.117 0M65.008 50.225c6.136-6.978 18.988-13.15 25.586-3.367.758 1.124 2.594.066 1.83-1.069-3.397-5.033-7.047-6.832-13.209-5.896-6.2.942-11.594 4.163-15.704 8.836-.896 1.018.595 2.52 1.497 1.496M54.99 77.171c.453 9.727-6.625 20.147-.283 29.15.779 1.107 2.615.05 1.827-1.067-5.912-8.393 1.004-18.876.574-28.083-.064-1.359-2.181-1.365-2.118 0M98.464 73.14c-.286 6.094 1.446 11.734 2.232 17.724.4 3.056.582 6.224-.208 9.247-.637 2.436-2.27 4.228-2.964 6.58-.387 1.308 1.656 1.867 2.041.56.682-2.3 2.338-4.205 2.965-6.577.643-2.436.709-5.02.54-7.516-.458-6.766-2.81-13.168-2.488-20.017.063-1.363-2.054-1.361-2.118 0"/><path fill="#081F2C" d="M75.27 58.656c3.653 1.816 7.27 3.816 11.06 5.333 4.493 1.797 12.836 2.314 12.213 9.006-.125 1.357 1.993 1.348 2.118 0 .37-3.983-2.16-6.785-5.65-8.364-3.015-1.365-6.333-1.894-9.382-3.23-3.155-1.378-6.208-3.041-9.29-4.572-1.216-.605-2.29 1.22-1.068 1.827"/><path fill="#081F2C" d="M98.853 60.212c.449 2.684 1.406 4.915.796 7.709-.464 2.118-1.308 4.046-1.495 6.228-.116 1.357 2.003 1.35 2.118 0 .228-2.688 1.564-5.102 1.736-7.803.15-2.364-.73-4.415-1.114-6.697-.224-1.34-2.266-.772-2.041.563M57.421 63.389c-.497 2.68-.997 5.355-1.497 8.034-.248 1.331 1.794 1.9 2.041.563.5-2.68 1-5.357 1.497-8.034.25-1.331-1.791-1.903-2.04-.563"/><path fill="#081F2C" d="M58.038 70.485c2.545-1.067 4.853-2.472 6.816-4.43 2.64-2.627 3.839-5.72 7.549-7.164 1.257-.487.711-2.534-.561-2.038-2.54.984-4.341 2.256-5.908 4.49-2.221 3.169-4.855 5.59-8.459 7.101-1.236.519-.692 2.568.563 2.04M93.91 107.463c1.363 0 1.366-2.116 0-2.116-1.364 0-1.366 2.116 0 2.116M69.318 83.157a2.31 2.31 0 0 1-2.312 2.31 2.312 2.312 0 1 1 2.312-2.31M90.646 83.157a2.31 2.31 0 0 1-2.312 2.31 2.312 2.312 0 1 1 2.312-2.31M78.882 42.045l-.305 4.603c-.088 1.359 2.029 1.352 2.118 0L81 42.045c.089-1.361-2.029-1.355-2.118 0M87.159 112.122c1.363 0 1.365-2.117 0-2.117-1.364 0-1.366 2.117 0 2.117M91.475 112.43c1.362 0 1.366-2.117 0-2.117-1.363 0-1.366 2.116 0 2.116"/></g></svg>