<svg xmlns="http://www.w3.org/2000/svg" width="44" height="44" viewBox="0 0 164 164"><g fill="none" fill-rule="evenodd"><path fill="#EFEBD3" d="M67.979 51.843c3.955-2.51 9.645-2.597 14.934-3.357 2.395-.772 5.012-1.617 7.472-2.095 2.687-1.397 5.679-3.981 8.952-2.98 3.348 1.02 8.305 8.068 9.836 10.773 2.062 3.644 2.054 6.423 1.107 10.317.017 1.647.015 2.606-.066 3.448.917 7.954-1.57 16.132-5.755 23.004-2.962 4.866-9.405 17.973-16.36 19.918-.42 4.694-.48 10.33-4.106 13.376-.923.775-2.734.925-3.325-.427a29.625 29.625 0 0 1-1.793-5.524 1.538 1.538 0 0 1-.39-.807c-.56-3.896-.69-7.215-.256-11.175.002-.017.01-.027.015-.044-3.411-3.006-6.187-7.084-8.268-11.742a45.297 45.297 0 0 1-5.154-13.62c-1.616-7.896-4.62-24.132 3.157-29.065M54.794 72.387c1.041-.84 2.278-1.212 3.479-1.1.39-.034.8.012 1.23.277l.12.074c.464.207.909.491 1.315.878 1.516 1.444-.012 3.882-1.8 3.613-.018.01-.033.03-.052.043-1.491 1.066-3.86.455-4.625-1.22-.358-.787-.436-1.945.333-2.565M115.76 73.644c2.725 0 2.73 4.233 0 4.233-2.725 0-2.73-4.233 0-4.233"/><path fill="#EDE48C" d="M58.49 97.686c-1.093-5.85-1.927-11.766-2.279-17.865-.114-1.981 1.267-2.974 2.78-3.033.045-.417.322-.805.752-.934.367-.114.733-.228 1.101-.34.924-.284 1.46.653 1.239 1.369.066.025.127.05.188.087a89.7 89.7 0 0 1-.703-5.86c-.368.255-.849.293-1.221-.164-1.3-1.596-3.843.049-3.956-2.67-.025-.619.047-1.28.144-1.942a2.28 2.28 0 0 1-.819-1.507c-.917-8.26-.48-15.84 4.559-22.586 1.38-1.852 2.464-3.71 4.5-4.887 2.673-1.548 4.994-2.072 7.69-4.02 1.17-.846 2.005-1.828 3.375-2.355 8.617-3.304 35.527 2.358 34.484 15.22-.011.139-.064.268-.102.401 3.153 4.432 4.745 9.933 4.226 15.861-.076.868-.584 1.427-1.207 1.74-.315 4.665-.082 9.336.013 13.967.36.444.53 1.039.284 1.767l-.248.734c.006 3.717-.19 7.401-.995 11.027.053.345.068.705.004 1.082a64.281 64.281 0 0 1-3.733 13.096 4.397 4.397 0 0 1-.267 1.05 56.676 56.676 0 0 0-1.298 3.73c1.292 4.63.026 9.015-1.164 13.794-.796 3.198-3.598 4.176-6.092 3.6a5.078 5.078 0 0 1-2.714.8c-1.66.015-3.441-.96-4.462-2.395a4.546 4.546 0 0 1-.823-.885c-.51-.269-.962-.677-1.379-1.162-1.594-.8-2.74-2.334-2.553-4.5.146-1.716.563-3.322.942-4.946-.582-2.332.275-4.973 3.08-6.06a2.17 2.17 0 0 1 .678-.808c5.452-4.019 8.324-10.375 12.378-15.708 1.438-4.282 2.878-8.565 4.318-12.847-.076-4.832-.455-9.713-.235-14.496a1.838 1.838 0 0 1-.445-1.329c.172-3.564.415-7.247-.457-10.743a15.691 15.691 0 0 0-.792-2.303c-2.62-3.454-5.643-5.915-9.454-7.89-4.195 3.183-8.732 4.582-13.94 5.748-8.134 1.825-17.46 2.769-20.404 11.709-.663 11.18 1.456 22.426 4.963 33.086 1.374 2.606 3.222 4.875 4.986 7.18 1.806 1.538 3.718 3.03 4.576 4.852 1.192 2.53-.193 5.984-.017 8.65.197 2.976.786 5.808 1.116 8.686l.502 1.567c.438.994.783 2.03.97 3.11.345 2.016-.206 4.047-1.62 5.345a4.22 4.22 0 0 1-.672.794c-2.079 1.904-4.867 1.938-7.04.332a2.726 2.726 0 0 1-.17-.095c-.188-.05-.387-.096-.425-.106-.724-.193-1.463-.318-2.177-.555-.254-.084-.478-.199-.722-.296-.006 0-.012.002-.02.004-1.904.165-3.785-.156-5.665-.453-2.757-.431-4.484-4.019-3.697-6.508.132-.413.233-.825.328-1.234-1.041-4.218-3.26-8.12-3.603-12.536-.39-5.062 1.804-9.672 3.394-14.37"/><path fill="#FFF" d="M55.564 82.118c-.064.216-.17.379-.273.546 1.334 5.478 2.68 11.438 1.361 16.883-.79 3.26-1.783 5.969-2.382 8.786-.019 1.08-.042 2.16-.055 3.238.654 6.114 3.4 12.091 4.426 18.214.304.51.633.984 1.001 1.39a64.344 64.344 0 0 0 4.588 1.525c.945-.053 1.898-.17 2.808-.134 1.667.062 2.643.426 4.273.692 3.259.536 5.431.14 7.112-1.36.252-.284.483-.589.678-.934 1.004-1.778 1.033-3.797.31-5.668a49.344 49.344 0 0 1-.49-.745c-.673-1.058.809-2.019 1.622-1.285a.888.888 0 0 1 .536.494c.067.146.103.298.165.448.178.254.345.502.523.764.317.06.635.117.953.14.016-.002.027-.008.042-.01.618.027 1.222.008 1.836-.053h.004c.199-.134.432-.202.675-.193.017-.155.058-.313.034-.464-.332-2.167 2.694-3.964 3.869-1.631 3.296 6.54 10.263 5.388 16.113 3.295 1.563-1.774 2.469-4.339 3.058-7.198-.784-2.282-.697-5.42-.443-7.408a12.583 12.583 0 0 1 1.124-3.814 2.169 2.169 0 0 1 .08-.658c.28-.861.515-1.72.748-2.582.204-.825.377-1.657.517-2.497.063-.286.184-.51.318-.71.603-2.41 1.221-4.814 2.172-7.202.047-.114.127-.188.184-.29.55-2.459.87-4.988 1.27-7.46-.493-1.954-1.27-4.78-.285-6.608 1.001-1.862 6.833-4.199.986-7.208-.931-.48-1.181-1.315-1.005-2.09-.015-.29.006-.581.1-.855-.363-1.614-.054-3.566.427-5.267v-.003c-.358-2.328.21-4.54.277-6.831a10.543 10.543 0 0 1-.28-2.733c-1.615-3.638-2.47-7.452-3.83-11.238-2.108-5.873-7.493-8.257-12.691-11.006-7.648-.952-15.173-3.3-22.853-2.195-2.19 2.343-4.347 4.517-7.447 5.774-.688.28-1.332.616-1.95.988-3.543 4.053-7.439 8.155-9.975 12.782-1.56 6.493-.582 13.51.205 20.185.123 1.037-.432 1.665-1.173 1.902-.17.339-.339.675-.506 1.02-.862 1.766-.47 1.823.62 3.11 1.525 1.794 1.25 4.055.623 6.154M5.312 35.108c5.55-7.601 17.697-13.572 28.542-13.781 7.76-2.404 15.93-3.712 23.546-6.741 10.36-4.119 21.299-10.223 32.766-9.063.89.091 1.663.345 2.357.688 8.999-.353 18.182 7.086 24.7 14.208 11.713 8.256 22.761 17.975 34.373 26.303 10.325 7.404 13.367 17.92 8.711 29.87a6.914 6.914 0 0 1-.963 1.674c-1.616 6.527-3.693 12.44-3.29 19.43.34 5.87 1.668 11.373-1.786 16.654-2.975 4.548-7.857 6.184-12.331 8.84-2.012 1.196-3.884 2.447-5.739 3.662-6.553 5.962-13.583 11.623-21.144 16.028-8.791 5.12-18.497 5.738-28.496 5.661-14.74-.114-30.401-3.204-43.067-10.999-11.648-2.35-23.393-6.252-30.226-16.688-8.167-12.485-3.498-30.78-5.431-44.922-.04-.282-.026-.542-.032-.813-1.666-4.957-3.286-9.93-4.718-14.942-2.411-8.44-3.224-17.6 2.228-25.07"/><path fill="#081F2C" d="M104.838 159.102c-1.163-11.596 11.593-18.375 19.664-23.945l18.519-12.788c7.593-5.245 14.275-9.676 13.602-20.028-.396-6.093-1.26-11.499.37-17.526 1.942-7.18 6.264-14.59 4.504-22.249-1.632-7.098-8.054-11.9-13.344-16.303-6.166-5.134-12.34-10.258-18.51-15.387-10.913-9.07-22.32-19.937-36.565-23.24-15.326-3.554-27.71 5.864-41.444 10.757-13.877 4.945-29.883 5.897-41.192 16.333C4.984 39.763 1.638 46.4 2.233 53.944c.587 7.422 4.273 14.193 6.676 21.112 2.459 7.075 2.819 13.845 2.395 21.291-.512 8.96-1.158 18.191 5.154 25.457 10.695 12.307 31.223 17.141 46.707 18.606 1.345.127 1.358 2.245 0 2.116-14.88-1.41-31.14-5.663-43.292-14.77-12.44-9.324-10.84-21.97-10.468-35.949.237-8.836-2.59-16.311-5.698-24.4C1.401 61.409-.651 55.093.283 48.587c1.834-12.788 13.918-20.86 25.197-24.833 7.788-2.745 15.953-4.207 23.791-6.79 7.798-2.569 14.907-6.738 22.59-9.578 14.223-5.258 27.461-1.617 39.719 6.593 13.49 9.035 25.607 20.415 38.07 30.786 5.057 4.207 10.661 8.567 13.126 14.891 2.386 6.117.707 12.398-1.321 18.36-1.518 4.466-3.308 8.972-3.536 13.74-.212 4.424.967 8.773.914 13.19-.08 7.025-3.936 11.552-9.405 15.535-8.086 5.886-16.47 11.402-24.7 17.084-7.25 5.004-18.81 11.175-17.773 21.537.136 1.355-1.984 1.344-2.117 0"/><path fill="#081F2C" d="M99.215 42.114c-3.502 3.024-7.417 5.44-11.79 7.001-1.983.71-7.027 3.097-8.428.426-.634-1.207 1.194-2.276 1.827-1.07.555 1.057 8.321-2.302 9.12-2.687 2.828-1.363 5.397-3.113 7.775-5.166 1.026-.887 2.53.603 1.496 1.496"/><path fill="#081F2C" d="M84.097 45.69c-4.637 5.488-12.992 7.081-19.81 7.483-1.364.08-1.357-2.036 0-2.116 6.28-.373 14.04-1.808 18.313-6.864.88-1.041 2.374.462 1.497 1.497"/><path fill="#081F2C" d="M67.566 53.077c-2.545 4.647-2.214 10.523-2.15 15.683.067 5.31.541 10.645 1.926 15.786 1.535 5.7 4.211 10.752 7.942 15.31 3.452 4.217 8.415 11.157 14.568 8.856 1.279-.478 1.83 1.566.563 2.04-6.284 2.35-8.747-.823-13-5.335-4.5-4.773-8.398-9.888-10.744-16.077-2.376-6.265-3.208-13.008-3.354-19.672-.125-5.833-.462-12.397 2.422-17.66.654-1.194 2.484-.127 1.827 1.069M111.3 68.903c-.951 4.163-.314 8.326-.972 12.495-.496 3.141-1.828 5.856-3.494 8.538-3.777 6.085-7.629 12.68-12.668 17.812-.957.974-2.454-.525-1.497-1.498 4.872-4.96 8.675-11.482 12.338-17.38 4.148-6.68 2.596-13.288 4.251-20.53.303-1.33 2.344-.767 2.042.563M106.524 61.57c-2.426-2.625-5.46-4.316-8.96-5.017-1.337-.266-.771-2.307.56-2.04a18.254 18.254 0 0 1 9.897 5.56c.925.999-.57 2.5-1.497 1.496"/><path fill="#081F2C" d="M82.36 54.835c-2.979.197-5.806 1.374-7.936 3.495-1.59 1.583-2.388 3.71-4.347 4.916-1.162.716-2.227-1.115-1.067-1.828 1.345-.828 1.965-2.284 2.926-3.471a14.005 14.005 0 0 1 2.922-2.714c2.24-1.553 4.798-2.334 7.502-2.514 1.362-.091 1.355 2.025 0 2.116M79.952 66.672c-2.695-.053-5.202.796-7.262 2.555-1.032.878-2.537-.612-1.5-1.496 2.484-2.117 5.49-3.239 8.762-3.175 1.362.025 1.366 2.142 0 2.116M87.22 81.72c1.313 2.5 2.876 2.846 4.695 1.03.218-1.071.368-2.148.45-3.24.166-1.704.179-3.397.246-5.103.085-2.047.168-4.189 1.256-5.99 2.486-4.127 7.434-3.177 11.131-1.5 1.237.56.163 2.387-1.07 1.826-3.379-1.53-7.177-1.778-8.854 2.326-.667 1.638-.322 3.994-.402 5.732-.11 2.368.125 6.292-1.559 8.222-2.496 2.857-7.752-.04-8.01-3.304-.108-1.359 2.01-1.352 2.117 0M88.99 100.395c-3.171-.106-6.1-1.47-8.147-3.91-.87-1.038.618-2.543 1.497-1.5 1.696 2.022 4.004 3.205 6.65 3.294 1.36.046 1.366 2.163 0 2.116M89.174 111.79c.105 3.653-.35 15.804-6.814 13.82-7.127-2.184-5.7-14.582-5.033-19.803.17-1.334 2.289-1.35 2.117 0-.612 4.798-1.389 10.269.879 14.781.347.688.906 1.935 1.571 2.343 3.017 1.848 3.843-1.64 4.273-3.158.743-2.628.97-5.266.89-7.983-.041-1.363 2.076-1.363 2.117 0M59.572 72.098c-1.26-.288-4.53-.466-4.96 1.295-.509 2.087 3.103 2.017 4.226 1.98 1.363-.05 1.361 2.067 0 2.116-2.615.09-6.848-.714-6.325-4.305.485-3.336 5.063-3.713 7.623-3.126 1.327.304.764 2.347-.564 2.04"/><path fill="#081F2C" d="M60.414 64.626c.284 3.605 1.48 7.097 1.772 10.733.324 4.046.201 8.11.083 12.163-.04 1.361-2.158 1.367-2.118 0 .119-4.05.25-8.119-.082-12.163-.3-3.651-1.487-7.112-1.773-10.733-.105-1.36 2.012-1.352 2.118 0M114.939 63.723c-1.412 5.812-.15 11.429.129 17.272.254 5.31-1.02 10.005-2.73 15-2.03 5.936-3.427 11.765-3.643 18.083-.14 4.057-.07 7.757-2.425 11.234-.758 1.122-2.594.064-1.827-1.069 3.09-4.567 1.908-10.906 2.609-16.17.667-5.016 2.276-9.665 3.862-14.44 1.825-5.495 2.29-10.635 1.727-16.382-.47-4.813-.895-9.352.257-14.093.321-1.323 2.363-.762 2.04.565"/><path fill="#081F2C" d="M114.167 71.682c1.97.631 3.946 1.96 4.116 4.216.144 1.893-1.39 3.72-3.369 3.482-1.336-.159-1.353-2.277 0-2.116 1.038.122 1.482-.807 1.143-1.717-.385-1.024-1.49-1.515-2.454-1.824-1.291-.413-.739-2.457.564-2.04M109.757 62.925c.421-3.067.71-5.924-1.351-8.552-.777-.995-1.842-1.772-2.77-2.614-2.42-2.201-4.154-6.508-7.489-7.082-1.34-.229-.773-2.269.563-2.04 1.781.307 3.028 1.155 4.19 2.5 1.964 2.268 3.674 4.495 5.866 6.586 3.528 3.37 3.672 7.126 3.032 11.767-.184 1.342-2.225.77-2.041-.565M98.769 32.156c1.279 1.911 2.274 4.808-.208 6.275-1.175.692-2.242-1.134-1.069-1.829 1.285-.76-.01-2.569-.552-3.377-.759-1.135 1.075-2.197 1.829-1.07M95.837 32.195c-2.107.732-3.945.394-6.083.01-4.248-.76-6.886.61-10.166 3.16-1.065.826-2.575-.66-1.5-1.498 2.25-1.744 4.593-3.564 7.482-4.021 3.28-.52 6.515 1.416 9.704.307 1.289-.449 1.844 1.596.563 2.042"/><path fill="#081F2C" d="M85.253 31.65c-7.53-2.172-12.006 1.352-15.592 7.633-.676 1.184-2.505.119-1.828-1.066 1.838-3.222 3.843-6.451 7.267-8.176 3.382-1.702 7.18-1.452 10.716-.434 1.307.377.752 2.421-.563 2.042"/><path fill="#081F2C" d="M70.625 37.08c-4.184 1.13-6.645 2.64-8.33 6.664-.839 2-2.037 2.935-3.289 4.743-4.239 6.116-1.111 14.434-1.649 21.323-.104 1.348-2.223 1.359-2.117 0 .576-7.38-2.755-16.23 2.09-22.775 1.365-1.841 2.267-3.147 3.273-5.213.51-1.05.832-1.958 1.607-2.863 1.96-2.288 5.063-3.165 7.851-3.92 1.317-.356 1.88 1.685.564 2.04M57.242 77.703c-1.126 9.476 1.692 18.32 3.936 27.408 1.897 7.677 2.067 16.627 7.394 22.915.877 1.035-.614 2.54-1.497 1.497-5.276-6.227-5.702-14.297-7.478-21.946-2.304-9.924-5.7-19.548-4.472-29.874.158-1.337 2.278-1.352 2.117 0M113.205 60.82c.144-6.094-1.753-11.633-4.07-17.176-2.722-6.519-8.103-8.61-14.114-11.556-1.224-.599-.153-2.425 1.07-1.826 5.805 2.844 11.484 4.743 14.273 10.89 2.833 6.244 5.124 12.744 4.958 19.667-.031 1.361-2.149 1.365-2.117 0M104.024 94.616c-1.734 5.573-1.245 11.715-1.89 17.487-.6 5.352-1.604 10.635-2.895 15.865-.326 1.322-2.37.761-2.041-.563 1.562-6.335 2.687-12.74 3.193-19.252.366-4.75.163-9.507 1.592-14.1.402-1.297 2.448-.743 2.041.563M98.22 104.397a78.81 78.81 0 0 1-1.343 14.946c-.247 1.338-2.288.773-2.04-.563a75.856 75.856 0 0 0 1.266-14.383c-.009-1.363 2.108-1.365 2.117 0M94.081 108.615l-1.044 12.648c-.11 1.346-2.227 1.359-2.117 0 .347-4.218.697-8.434 1.044-12.648.11-1.35 2.23-1.36 2.117 0M75.793 101.377c-.136 4.193-1.489 8.276-1.298 12.472.212 4.693 1.918 9.171 3.534 13.527.472 1.28-1.573 1.83-2.043.563-1.472-3.973-2.946-7.977-3.445-12.21-.583-4.936.976-9.456 1.135-14.352.044-1.359 2.161-1.365 2.117 0M71.926 96.964c.252 6.11-2.187 12.174-.66 18.223.332 1.32-1.711 1.884-2.044.563-1.588-6.299.85-12.445.587-18.786-.055-1.363 2.062-1.358 2.117 0M68.081 87.606c.26 3.504-.334 7.1-1.334 10.455-.387 1.306-2.433.75-2.041-.561.95-3.194 1.506-6.557 1.258-9.894-.102-1.361 2.018-1.353 2.117 0"/><path fill="#081F2C" d="M66.705 103.194c.663 9.72 3.936 18.604 9.66 26.485.8 1.103-1.036 2.16-1.83 1.067-5.933-8.172-9.261-17.484-9.947-27.552-.091-1.361 2.026-1.355 2.117 0M93.838 35.525c.28 2.097-.766 3.83-1.924 5.498-1.362 1.962-2.876 3.814-4.49 5.577-.92 1.01-2.415-.49-1.496-1.496 2.1-2.296 6.242-6.2 5.793-9.58-.178-1.345 1.942-1.333 2.117 0M88.951 37.474c-4.938 5.36-10.458 10.74-18.267 10.478-1.359-.044-1.365-2.16 0-2.116 7.24.243 12.23-4.931 16.77-9.859.926-1.005 2.42.496 1.497 1.497M58.21 92.626c1.42 5.6-1.026 9.141-2.125 14.453-1.493 7.209 3.845 13.867 3.964 21.07.02 1.363-2.097 1.363-2.118 0-.106-6.542-4.395-12.202-4.268-18.74.11-5.835 4.048-10.137 2.507-16.22-.335-1.32 1.706-1.886 2.04-.563M74.93 71.325a2.312 2.312 0 1 0 4.624-.002 2.312 2.312 0 0 0-4.624.002M99.535 71.9a2.312 2.312 0 1 0 4.625.001 2.312 2.312 0 0 0-4.625-.002"/></g></svg>