<svg id="Layer_1" data-name="Layer 1" xmlns="http://www.w3.org/2000/svg" viewBox="0 0 62.59 66.88" width="100%" height="100%" preserveAspectRatio="none"><defs><style>.cls-1{fill:#1e1f1c;}</style></defs><title>nudj-cta-test</title><path class="cls-1" d="M48.76,41.91a34.68,34.68,0,0,1-7,9.87.5.5,0,0,0,.71.71,35.42,35.42,0,0,0,7.12-10.07c.27-.58-.59-1.09-.86-.5Z"/><path class="cls-1" d="M49.75,47.7A21.55,21.55,0,0,1,48,51.55a.5.5,0,0,0,.86.5A22.92,22.92,0,0,0,50.71,48c.2-.61-.76-.87-1-.27Z"/><path class="cls-1" d="M53,52.66l-.68,2c-.21.61.76.87,1,.27l.68-2c.21-.61-.76-.87-1-.27Z"/><path class="cls-1" d="M44,12.88a5.78,5.78,0,0,0-4.8-3.2c-.64,0-.64,1,0,1a4.77,4.77,0,0,1,3.94,2.71c.28.58,1.15.07.86-.5Z"/></svg>
