<svg id="Layer_1" data-name="Layer 1" xmlns="http://www.w3.org/2000/svg" viewBox="0 0 62.59 66.88" width="100%" height="100%" preserveAspectRatio="none"><defs><style>.cls-1{fill:#1e1f1c;}</style></defs><title>nudj-cta-test</title><path class="cls-1" d="M6.67,8.13V5.8a.5.5,0,0,0-1,0V8.13a.5.5,0,0,0,1,0Z"/><path class="cls-1" d="M15.19,8.15l2.67-2.33c.49-.42-.22-1.13-.71-.71L14.48,7.44c-.49.42.22,1.13.71.71Z"/><path class="cls-1" d="M39.9,10.92A20.5,20.5,0,0,1,47.41,17c.38.51,1.25,0,.86-.5a21.51,21.51,0,0,0-7.86-6.49c-.58-.28-1.08.58-.5.86Z"/><path class="cls-1" d="M50.5,28l6,.33c.64,0,.64-1,0-1l-6-.33c-.64,0-.64,1,0,1Z"/><path class="cls-1" d="M42.53,49.09l9,7.33c.49.4,1.21-.3.71-.71l-9-7.33c-.49-.4-1.21.3-.71.71Z"/><path class="cls-1" d="M36.42,54.37A10,10,0,0,1,38,57.94c.14.63,1.11.36,1-.27a10.79,10.79,0,0,0-1.67-3.81c-.36-.53-1.23,0-.86.5Z"/><path class="cls-1" d="M7.62,55.8,8,59.46c.07.63,1.07.64,1,0L8.62,55.8c-.07-.63-1.07-.64-1,0Z"/><path class="cls-1" d="M21.4,59.58l1,3.68a.5.5,0,0,0,1-.27l-1-3.68a.5.5,0,0,0-1,.27Z"/></svg>
