<svg id="Layer_1" data-name="Layer 1" xmlns="http://www.w3.org/2000/svg" viewBox="0 0 62.59 66.88" width="100%" height="100%" preserveAspectRatio="none"><defs><style>.cls-1{fill:#1e1f1c;}</style></defs><title>nudj-cta-test</title><path class="cls-1" d="M40,10.08a23.28,23.28,0,0,1,6.4,3.59c.5.4,1.21-.31.71-.71A24.83,24.83,0,0,0,40.3,9.11c-.6-.22-.87.74-.27,1Z"/><path class="cls-1" d="M48.17,9.58l3,2.67c.48.43,1.19-.28.71-.71l-3-2.67c-.48-.43-1.19.28-.71.71Z"/><path class="cls-1" d="M45.45,51a6.3,6.3,0,0,1-3.43,3c-.6.22-.34,1.19.27,1a7.33,7.33,0,0,0,4-3.49c.3-.57-.56-1.08-.86-.5Z"/></svg>
