<svg xmlns="http://www.w3.org/2000/svg" viewBox="0 0 726.24 782.84"><defs><style>.cls-1{fill:#f2f2f2;}.cls-2{fill:#081f2c;}</style></defs><title>clouds-mobile</title><g id="Layer_2" data-name="Layer 2"><g id="Layer_1-2" data-name="Layer 1"><path class="cls-1" d="M726.24,551.39q-.24-4.66-.48-9.33h-.29c-6.6.39-12.13,3.58-18.47,4.95-7.59,1.63-10.58-3.85-16.88-6.26-4.08-1.56-8.41-1.52-12.66-.94a8.09,8.09,0,0,0-3.72.62l-.72.14a2.47,2.47,0,0,0-1.89,1.53l-.43.39a3,3,0,0,0,.61,4.71c5.59,3.33,10.23-.37,16,.46,3.3.48,5,3.51,7.5,5.41a14.23,14.23,0,0,0,7.42,3c6.58.73,12.25-2.49,18.4-4.14A18.11,18.11,0,0,1,726.24,551.39Z"/><path class="cls-1" d="M709.18,530.44a18.19,18.19,0,0,0-1.86-1.68.46.46,0,0,0,0-.46c-.32-.55-.66-1.08-1-1.61a3.18,3.18,0,0,0,0-.76c-1-6.89-6.79-13.27-13.66-14.16-2.43-.32-2.91,2.81-1.77,4.27,1.73,2.2-7.82,2.47-8.06,2.44a28.69,28.69,0,0,1-7.22-1.91,2.65,2.65,0,0,0-.58-.15c-2.46-1.81-5.87,1.61-3.41,3.62.74.6,1.48,1.21,2.24,1.8a2.34,2.34,0,0,0,1.15,1.8c2.6,1.62,5.34,3.16,8.36,3.57.21.06.42.14.64.19,6.13,1.5,12.83-1.58,18.64,1.37a2.69,2.69,0,0,0,1.52.31,5.88,5.88,0,0,0,2.35,1c.69.39,1.39.77,2.1,1.14A.5.5,0,0,0,709.18,530.44Z"/><path class="cls-1" d="M673.14,559.19a2.88,2.88,0,0,0,.81-.86l.21-.1c3.86-.07,3.87-6.07,0-6a9.77,9.77,0,0,0-6.58,2.4l-.14.06a35.11,35.11,0,0,1-12.09,3.81c-8.17,1-16.4,1.75-24.2-1.42a1.2,1.2,0,0,0-1.67.76,4,4,0,0,0-1-1.43c-2.8-2.7-1.59-5.07-.19-8.08a4.19,4.19,0,0,0-.63-4.85c-3.71-4.15-12.55-1.13-17,.23a4.63,4.63,0,0,0-.55.22c-4.72-.62-9.39,1.29-14.15-.08-4.51-1.3-8.12-3.07-12.95-2.62-2.82.26-5.89,1.61-8.51.13q-2.21,0-1.5-1.76a6.59,6.59,0,0,1,.88-3.08,9.44,9.44,0,0,1,2.82-3.26,10.75,10.75,0,0,1,1.38-.81,2.45,2.45,0,0,0,1.73-.09c1.22-.5,2.43-1,3.64-1.55a33.32,33.32,0,0,0,7.87-2.08,23.55,23.55,0,0,0,7-5.17,2.85,2.85,0,0,0,1.47-1.26l.28-.47a3.08,3.08,0,0,0,1-2c.59-2.1-1.41-3.69-3.36-3.45-1.62-.64-2.24-4.64-3-5.9a8,8,0,0,0-3.86-3.28c-4.37-1.73-8.3.74-12.25,2.31s-8.29,1.63-10.34,5.89c-1.09,2.26-1.17,4.82-2.31,7.09-.15.29-.31.58-.47.86l-3.13,3.19c-3.69,2.73-8.26,4.39-10.87,8.62,0,.07-.06.13-.1.2a12,12,0,0,0-.74,10.62c2.31,6,7.62,10.35,13.61,12.42,4.14,1.43,6.75,2.09,9.84,5.34.13.14.27.26.4.38a2.89,2.89,0,0,0-.08.44c-.6,5.88,7.21,5.92,11.15,5.3,4.72-.74,9.3-3.17,14-4.28.26.13.51.27.77.39l.24.13c6.17,3.38,11.25,2.3,17.85,1,3.49-.69,7.9.4,10.66-1a7.4,7.4,0,0,0,5.81,3.73c6,.67,11.66-2.93,17.64-2.66s8.89,6.07,14.46,7.29c3.68.8,7.68-.71,9.18-4.37a6.26,6.26,0,0,0-.05-4.87C675.56,563.83,671.19,560.53,673.14,559.19Z"/><path class="cls-2" d="M726.21,550.82l-.05-1c-.56,0-1.13,0-1.69,0a40.55,40.55,0,0,0-10,2.11c-5.91,1.78-15.2,5.06-19.69-1.15-1.67-2.3-2.77-4.06-5.8-4.4-2.78-.31-5.41.66-8.09,1.17-2.48.47-8.75.55-8.5-3.42.24-3.73,5-2.59,7.27-2a.5.5,0,0,0,.27-1c-3-.77-9.08-1.46-8.6,3.56s8.29,4.16,11.46,3.4a18.13,18.13,0,0,1,6-.75c3,.3,3.93,2.47,5.62,4.54a9.76,9.76,0,0,0,6.44,3.27,17.79,17.79,0,0,0,3,.14c-5.54,3.1-12.24,2.12-18.4,1.73-3.89-.24-12.61-1.29-13.48,4.27-.5,3.19,3.06,3.43,3.7,6.08,1,4.19-3.7,6.81-7.2,6.2-4-.71-6.52-3.7-9.74-5.89a10.39,10.39,0,0,0-8.12-1.37c-3.63.7-6.95,2.53-10.6,3.13-4.69.77-9.42-1.41-9.06-6.68.14-1.94.5-4.26-.67-6-.61-.89-1.64-1.27-2.36-2a6.57,6.57,0,0,1-1.44-5.06,7,7,0,0,1,.56-2.18c.3-.68.95-1.22,1.21-1.86a2.2,2.2,0,0,0,0-1.6c-.55-1.4-2.21-1.9-3.54-2.14-5.21-.93-10.39.83-15.32,2.26a22.34,22.34,0,0,1-12.14.47c-3.37-.84-6.6-2.19-10-2.82a18.59,18.59,0,0,0-8.65.54c-1.33.36-2.83.84-4.13.15a3.16,3.16,0,0,1-1.71-3.23c.26-1.13,1.66-2.81,2.32-3.81,2-3.12,6.56-3.35,9.95-4a29,29,0,0,0,8.86-2.73c5.68-3.17,6.48-10.37,11.72-13.92,3-2,6.55-2.82,9.84-4.14a27,27,0,0,0,7.45-4.57c5.11-4.35,9.13-10.25,15.45-13,3.07-1.32,6.63-2,9.9-1.06s4.31,3.85,6.91,5.68c4.61,3.25,10.92-2,14.24-4.91,4.4-3.89,11.64-10.53,18-6.35,4,2.62,3.24,8.07,1.79,11.87-1,2.71-3.48,6-3.26,9,.38,5.34,9.15,5.76,12.85,7.07,4.25,1.51,5.9,4.63,6.87,8.84.6,2.61,1.23,4.83,3,6.89a12.54,12.54,0,0,0,1.57,1.52c-2.55-.92-4.92-2.36-7.43-3.4-8.4-3.46-18.7,2.72-25.77-4.24-2.7-2.66-5-5-8.63-6.31-3.84-1.36-8-1.58-12-1.77-.64,0-.64,1,0,1,7.25.34,13.56,1.19,18.8,6.62,1.77,1.83,3.49,3.51,5.95,4.33,2.81.94,5.84.71,8.74.44,3.45-.32,7-.82,10.39.1,3.12.85,5.85,2.7,8.83,3.9a15.53,15.53,0,0,0,4.5,1.05,7.05,7.05,0,0,0,.85.14.41.41,0,0,0,.29-.07c1,0,2,0,3.08,0a15,15,0,0,1,5.51.42,5.18,5.18,0,0,1,2.21,1.37l-.07-1.45a7.75,7.75,0,0,0-1.09-.59c-3.17-1.38-6.58-.52-9.9-.63h0c-3.91-.42-6.65-4.45-7.49-8-.72-3-1.22-6.21-3.46-8.5-2-2-4.81-2.8-7.46-3.48-3.75-.95-10.48-2.12-8.72-7.48,1.85-5.6,6.87-12.52,2.12-18.16-3.49-4.14-9.71-2.8-13.83-.45-2.69,1.53-4.88,3.79-7.19,5.82-2.62,2.3-6.68,5.79-10.5,5.29-3.56-.46-5.07-4.83-8.37-6.21a12.93,12.93,0,0,0-7.17-.6c-6.41,1.1-11,5.48-15.36,9.93a44.59,44.59,0,0,1-8.44,7.26c-3.14,1.89-6.72,2.72-10.07,4.13A16.88,16.88,0,0,0,603,515.7c-3.18.94-6.8,1.24-8.25-2.45-.77-2-1.22-3.68-3-5a9.23,9.23,0,0,0-5-1.83c-2.33-.11-4.05,1.2-6.14,2-4.14,1.57-9,1.69-11.93,5.41a11.7,11.7,0,0,0-2.2,5c-.6,2.72-1.33,4.56-3.64,6.32-2.84,2.16-6.44,4-8.78,6.68-3,3.45-3.84,8.59-3.18,13a18,18,0,0,0,6.87,11.62,18.38,18.38,0,0,0,5.79,3c2.61.8,5.74.6,8.11,2.1,2.53,1.6,2.39,5.15,4.59,7.13a9.17,9.17,0,0,0,5.55,2.15c6.79.42,12.22-5.12,18.92-5.4a.48.48,0,0,0,.36-.18c2,1.78,3.93,3.59,6.78,3.69,3.19.11,6.18-1.44,9.23-2.13a25.52,25.52,0,0,1,12.9.52.47.47,0,0,0,.6-.41c.07.13.13.26.21.4a8.07,8.07,0,0,0,6.39,3.42c3.63.22,7-1.34,10.36-2.43a18.1,18.1,0,0,1,6-1.15c3,.08,4.87,1.68,7,3.48,3.85,3.2,10.65,6.71,14.61,1.72a6.26,6.26,0,0,0,1.37-5.31,4.76,4.76,0,0,0-1.37-2.16c-1-1.08-2.43-1.94-2.13-3.56s1.85-2.5,3.33-2.91c3.55-1,7.73-.36,11.35-.1a50.6,50.6,0,0,0,10.24.06,16.62,16.62,0,0,0,7.87-3.08l.06-.07c6.07-.8,11.89-3.87,18-4.3A19.85,19.85,0,0,1,726.21,550.82Zm-96,15.46a26.65,26.65,0,0,0-14.77-.18c-2.76.78-5.77,2.26-8.7,1.65-2.5-.52-4.18-2.5-6-4.14-2.77-2.54-5.3-3.31-9-2.53-2.87.6-7.44,1.7-7.64-2.75s5-5.23,8.26-4.65c.63.11.9-.85.27-1-4.1-.74-9.84.69-9.52,5.93.36,5.95,7.1,3.47,10.66,3.11,2.66-.27,4.57,1.06,6.37,2.64-5,.39-9.09,3.32-13.84,4.73-2.75.82-5.82,1-8.38-.5s-2.58-4.3-4.15-6.5c-2.23-3.11-6.72-2.73-10-3.73a17.26,17.26,0,0,1-11.31-11c-1.77-5.41-.9-12.74,3.89-16.37,2.49-1.89,5.13-3.58,7.59-5.51,3.11-2.44,2.77-5.5,4.19-8.86,2.21-5.22,7.65-5.53,12.34-7.14,2.75-.95,4.79-2.63,7.89-1.79a7,7,0,0,1,4.09,2.73c.81,1.18,1,2.55,1.61,3.82,1.51,3.15,4.72,3.42,7.74,2.79-.13.17-.27.33-.39.5-2,2.75-3.15,6.13-5.6,8.53-2.78,2.72-6.73,3.64-10.42,4.36-3,.58-6.75.79-9.34,2.48-1.73,1.12-3.26,3.73-4.12,5.55a3.76,3.76,0,0,0,1.68,4.83c2.7,1.67,6-.46,8.77-.71,3.78-.34,7.47,1,11,2.08,3.38,1.05,6.84,2,10.42,1.72,3.74-.32,7.23-1.76,10.84-2.69a26.84,26.84,0,0,1,8.21-.9c1.14.07,2.73.14,3.67.9,1.47,1.19.09,2.17-.47,3.43a8.43,8.43,0,0,0-.19,6.28,6.5,6.5,0,0,0,1.68,2.53c1.54,1.39,2.44,2.11,2.49,4.38s-.53,4.1.26,6Z"/><path class="cls-2" d="M637.87,515.08a11.21,11.21,0,0,0-7.61,3.23c-.79-1.1-1.64-1.88-3.11-1.68-.9.13-1.7.62-2.63.68-1.8.11-2.87-1.15-4.45-1.61-4.15-1.22-4.75,5.58-8.72,5.39-.64,0-.64,1,0,1a4.56,4.56,0,0,0,3.64-1.61c1.11-1.15,2.16-3.69,3.89-3.92,1.14-.15,2.23.94,3.26,1.32a5.7,5.7,0,0,0,2.59.4c2.16-.19,3.25-1.51,4.84.76a11.18,11.18,0,0,0-2.72,6.88c0,.64,1,.64,1,0a10.35,10.35,0,0,1,10-9.86A.5.5,0,0,0,637.87,515.08Z"/><path class="cls-2" d="M724.47,555.83a.5.5,0,0,0-1,0,8.73,8.73,0,0,0,.78,3.45c.26.59,1.12.08.86-.5A7.48,7.48,0,0,1,724.47,555.83Z"/><path class="cls-2" d="M724.55,566.72l-.36,1.42a.5.5,0,0,0,1,.27l.36-1.42A.5.5,0,0,0,724.55,566.72Z"/><path class="cls-2" d="M724.53,575.38v6.75a.5.5,0,0,0,1,0v-6.75A.5.5,0,0,0,724.53,575.38Z"/><path class="cls-2" d="M723.82,588.17v3.55a.5.5,0,0,0,1,0v-3.55A.5.5,0,0,0,723.82,588.17Z"/><path class="cls-2" d="M723.11,601.32a7.84,7.84,0,0,1-.32,3.42c-.2.61.77.88,1,.27a8.52,8.52,0,0,0,.35-3.69C724,600.69,723,600.68,723.11,601.32Z"/><path class="cls-2" d="M723.11,614.82V617a.5.5,0,0,0,1,0v-2.13A.5.5,0,0,0,723.11,614.82Z"/><path class="cls-2" d="M722,630.46v-3.2a.5.5,0,0,0-1,0v3.2A.5.5,0,0,0,722,630.46Z"/><path class="cls-2" d="M722.4,638.27v2.84a.5.5,0,0,0,1,0v-2.84A.5.5,0,0,0,722.4,638.27Z"/><path class="cls-2" d="M722.11,649.39a4.94,4.94,0,0,0-.39,2.88c.1.63,1.06.36,1-.27a3.73,3.73,0,0,1,.29-2.11C723.23,649.31,722.37,648.8,722.11,649.39Z"/><path class="cls-2" d="M720.63,661.73v1.42a.5.5,0,0,0,1,0v-1.42A.5.5,0,0,0,720.63,661.73Z"/><path class="cls-2" d="M720.63,673.45a.5.5,0,0,0,1,0V672a.5.5,0,0,0-1,0Z"/><path class="cls-2" d="M720.27,680.92l-.36,4.62c0,.64,1,.64,1,0l.36-4.62C721.32,680.27,720.32,680.28,720.27,680.92Z"/><path class="cls-2" d="M720.91,695.13v-1.78a.5.5,0,0,0-1,0v1.78A.5.5,0,0,0,720.91,695.13Z"/><path class="cls-2" d="M720.31,703.66l.37,4.26c.06.64,1.06.64,1,0l-.37-4.26C721.25,703,720.25,703,720.31,703.66Z"/><path class="cls-2" d="M720.27,715.39l.36,6c0,.64,1,.64,1,0l-.36-6C721.23,714.75,720.23,714.74,720.27,715.39Z"/><path class="cls-2" d="M720.77,729.45a.5.5,0,0,0,0,1A.5.5,0,0,0,720.77,729.45Z"/><path class="cls-2" d="M711.77,558.81a10.13,10.13,0,0,1,.32,3.78c-.06.64.94.64,1,0a10.89,10.89,0,0,0-.35-4A.5.5,0,0,0,711.77,558.81Z"/><path class="cls-2" d="M711.4,570.18l.36,1.42a.5.5,0,0,0,1-.27l-.36-1.42A.5.5,0,0,0,711.4,570.18Z"/><path class="cls-2" d="M713,584.38a8.62,8.62,0,0,0,.1-4.18c-.14-.63-1.1-.36-1,.27a7.5,7.5,0,0,1-.1,3.65A.5.5,0,0,0,713,584.38Z"/><path class="cls-2" d="M712.45,590.66v4.62a.5.5,0,0,0,1,0v-4.62A.5.5,0,0,0,712.45,590.66Z"/><path class="cls-2" d="M710.69,605l.71,4.62c.1.63,1.06.36,1-.27l-.71-4.62C711.56,604.1,710.6,604.37,710.69,605Z"/><path class="cls-2" d="M711.74,618.37l-.36,3.55c-.06.64.94.64,1,0l.36-3.55C712.81,617.74,711.8,617.74,711.74,618.37Z"/><path class="cls-2" d="M711.53,632.44a.5.5,0,0,0,0,1A.5.5,0,0,0,711.53,632.44Z"/><path class="cls-2" d="M710.68,646.45v2.49a.5.5,0,0,0,1,0v-2.49A.5.5,0,0,0,710.68,646.45Z"/><path class="cls-2" d="M710.68,657.11V661a.5.5,0,0,0,1,0v-3.91A.5.5,0,0,0,710.68,657.11Z"/><path class="cls-2" d="M709.27,672.17l.36,2.49c.09.63,1.05.36,1-.27l-.36-2.49C710.15,671.27,709.18,671.54,709.27,672.17Z"/><path class="cls-2" d="M709.9,687.67V683a.5.5,0,0,0-1,0v4.62A.5.5,0,0,0,709.9,687.67Z"/><path class="cls-2" d="M709.75,697.12a.5.5,0,0,0,0,1A.5.5,0,0,0,709.75,697.12Z"/><path class="cls-2" d="M709,707a.5.5,0,0,0,0-1A.5.5,0,0,0,709,707Z"/><path class="cls-2" d="M708.21,711.7l-.71,3.91c-.11.63.85.9,1,.27l.71-3.91C709.28,711.34,708.32,711.07,708.21,711.7Z"/><path class="cls-2" d="M708.83,729.24l-.36-6.75c0-.64-1-.64-1,0l.36,6.75C707.87,729.88,708.87,729.89,708.83,729.24Z"/><path class="cls-2" d="M708.22,740.39a9.67,9.67,0,0,1,.32,3.78c-.07.64.93.63,1,0a10.41,10.41,0,0,0-.35-4A.5.5,0,0,0,708.22,740.39Z"/><path class="cls-2" d="M701.79,562.94v5a.5.5,0,0,0,1,0v-5A.5.5,0,0,0,701.79,562.94Z"/><path class="cls-2" d="M701.44,572.18v4.62a.5.5,0,0,0,1,0v-4.62A.5.5,0,0,0,701.44,572.18Z"/><path class="cls-2" d="M701.45,581.64a11.78,11.78,0,0,0-.37,4c.05.64,1.05.64,1,0a11,11,0,0,1,.34-3.78A.5.5,0,0,0,701.45,581.64Z"/><path class="cls-2" d="M700.37,595.28v4.62a.5.5,0,0,0,1,0v-4.62A.5.5,0,0,0,700.37,595.28Z"/><path class="cls-2" d="M700.51,609a.5.5,0,0,0,0,1A.5.5,0,0,0,700.51,609Z"/><path class="cls-2" d="M700.51,621.07a.5.5,0,0,0,0,1A.5.5,0,0,0,700.51,621.07Z"/><path class="cls-2" d="M700.3,631.52v-5a.5.5,0,0,0-1,0v5A.5.5,0,0,0,700.3,631.52Z"/><path class="cls-2" d="M699.66,640.41v3.2a.5.5,0,0,0,1,0v-3.2A.5.5,0,0,0,699.66,640.41Z"/><path class="cls-2" d="M699.3,653.91v5.33a.5.5,0,0,0,1,0v-5.33A.5.5,0,0,0,699.3,653.91Z"/><path class="cls-2" d="M699.59,669.19v-3.55a.5.5,0,0,0-1,0v3.55A.5.5,0,0,0,699.59,669.19Z"/><path class="cls-2" d="M698.95,676.3l.36,2.84c.08.63,1.08.64,1,0l-.36-2.84C699.87,675.67,698.87,675.66,698.95,676.3Z"/><path class="cls-2" d="M699,687.18l-.71,3.2c-.14.63.82.89,1,.27l.71-3.2C700.07,686.82,699.11,686.55,699,687.18Z"/><path class="cls-2" d="M697.53,698.33v3.55a.5.5,0,0,0,1,0v-3.55A.5.5,0,0,0,697.53,698.33Z"/><path class="cls-2" d="M687.54,565.08l.36,5c0,.64,1,.64,1,0l-.36-5C688.5,564.44,687.5,564.43,687.54,565.08Z"/><path class="cls-2" d="M690.44,574.89a14.17,14.17,0,0,0-.37,4.4c0,.64,1,.64,1,0a13.28,13.28,0,0,1,.34-4.13C691.55,574.53,690.59,574.26,690.44,574.89Z"/><path class="cls-2" d="M689.94,591.72l.77-6.74c.07-.64-.93-.63-1,0l-.77,6.74C688.87,592.36,689.87,592.35,689.94,591.72Z"/><path class="cls-2" d="M688.64,598.12v3.2a.5.5,0,0,0,1,0v-3.2A.5.5,0,0,0,688.64,598.12Z"/><path class="cls-2" d="M690.07,610.91v4.26a.5.5,0,0,0,1,0v-4.26A.5.5,0,0,0,690.07,610.91Z"/><path class="cls-2" d="M689.5,624.27a.5.5,0,0,0,0,1A.5.5,0,0,0,689.5,624.27Z"/><path class="cls-2" d="M687.84,635.78l-.34,4.27c-.05.64.95.64,1,0l.34-4.27C688.9,635.14,687.9,635.14,687.84,635.78Z"/><path class="cls-2" d="M687.22,645.74v5a.5.5,0,0,0,1,0v-5A.5.5,0,0,0,687.22,645.74Z"/><path class="cls-2" d="M686.87,658.88l-.36,4.26c-.05.64.95.64,1,0l.36-4.26C687.92,658.24,686.92,658.25,686.87,658.88Z"/><path class="cls-2" d="M686.3,670.82a.5.5,0,0,0,0,1A.5.5,0,0,0,686.3,670.82Z"/><path class="cls-2" d="M685.73,684.11v-3.55a.5.5,0,0,0-1,0v3.55A.5.5,0,0,0,685.73,684.11Z"/><path class="cls-2" d="M686.81,697.26l.36-5.33c0-.64-1-.64-1,0l-.36,5.33C685.77,697.91,686.77,697.9,686.81,697.26Z"/><path class="cls-2" d="M686.09,708.28v-4.62a.5.5,0,0,0-1,0v4.62A.5.5,0,0,0,686.09,708.28Z"/><path class="cls-2" d="M685.44,716.45c-.06.64.94.64,1,0a12.84,12.84,0,0,0-.36-4.4.5.5,0,0,0-1,.27A12,12,0,0,1,685.44,716.45Z"/><path class="cls-2" d="M685.95,724.77a.5.5,0,0,0,0-1A.5.5,0,0,0,685.95,724.77Z"/><path class="cls-2" d="M686.46,738.48l-.06-4.78a.5.5,0,0,0-1,0l.06,4.78A.5.5,0,0,0,686.46,738.48Z"/><path class="cls-2" d="M686.5,749.5c-.06.64.94.64,1,0a12.4,12.4,0,0,0-.35-4.4.5.5,0,0,0-1,.27A11.62,11.62,0,0,1,686.5,749.5Z"/><path class="cls-2" d="M686.6,757.08a10.94,10.94,0,0,1-.11,4.36c-.14.63.82.89,1,.27a12.25,12.25,0,0,0,.11-4.89C687.46,756.18,686.49,756.45,686.6,757.08Z"/><path class="cls-2" d="M695.44,715.38l.67,6c.07.63,1.07.64,1,0l-.67-6C696.37,714.75,695.37,714.74,695.44,715.38Z"/><path class="cls-2" d="M696.15,733.79a1,1,0,0,1-.44-1c.06-.64-.94-.64-1,0a2,2,0,0,0,.93,1.85C696.18,735,696.68,734.14,696.15,733.79Z"/><path class="cls-2" d="M677.25,578.07a.5.5,0,0,0-1,.27,11.63,11.63,0,0,1,.26,4.14c-.07.64.93.63,1,0A12.41,12.41,0,0,0,677.25,578.07Z"/><path class="cls-2" d="M677.56,592.79v-3.2a.5.5,0,0,0-1,0v3.2A.5.5,0,0,0,677.56,592.79Z"/><path class="cls-2" d="M676.37,600v3.26a.5.5,0,0,0,1,0V600A.5.5,0,0,0,676.37,600Z"/><path class="cls-2" d="M676.84,612.71l.49-3.51c.09-.63-.87-.9-1-.27l-.49,3.51C675.79,613.08,676.75,613.35,676.84,612.71Z"/><path class="cls-2" d="M675.36,616.74a8.43,8.43,0,0,1,.51,3.62c0,.64,1,.64,1,0a9.11,9.11,0,0,0-.54-3.88C676.11,615.87,675.14,616.13,675.36,616.74Z"/><path class="cls-2" d="M676.62,629.88v4a.5.5,0,0,0,1,0v-4A.5.5,0,0,0,676.62,629.88Z"/><path class="cls-2" d="M676.87,642.42a.5.5,0,0,0,0,1A.5.5,0,0,0,676.87,642.42Z"/><path class="cls-2" d="M675.92,649.7l-.3,4c0,.64,1,.64,1,0l.3-4C677,649.05,676,649.06,675.92,649.7Z"/><path class="cls-2" d="M675.64,660c.05-.64-.95-.64-1,0a16.87,16.87,0,0,0,.21,4.4c.11.63,1.08.36,1-.27A15.85,15.85,0,0,1,675.64,660Z"/><path class="cls-2" d="M674.12,672l-.25,3.76c0,.64,1,.64,1,0l.25-3.76C675.16,671.37,674.16,671.37,674.12,672Z"/><path class="cls-2" d="M673.36,681.79v.75a.5.5,0,0,0,1,0v-.75A.5.5,0,0,0,673.36,681.79Z"/><path class="cls-2" d="M673.11,689.06v3.76a.5.5,0,0,0,1,0v-3.76A.5.5,0,0,0,673.11,689.06Z"/><path class="cls-2" d="M672.86,700.85v1.76a.5.5,0,0,0,1,0v-1.76A.5.5,0,0,0,672.86,700.85Z"/><path class="cls-2" d="M672.86,707.37v2.76a.5.5,0,0,0,1,0v-2.76A.5.5,0,0,0,672.86,707.37Z"/><path class="cls-2" d="M672.86,724.42v-3.76a.5.5,0,0,0-1,0v3.76A.5.5,0,0,0,672.86,724.42Z"/><path class="cls-2" d="M671.64,729.68l.26,3.51c0,.64,1,.64,1,0l-.26-3.51C672.59,729,671.59,729,671.64,729.68Z"/><path class="cls-2" d="M662.1,578.23a12.27,12.27,0,0,0,.23,4.4c.15.63,1.11.36,1-.27a11.51,11.51,0,0,1-.19-4.13C663.18,577.59,662.18,577.6,662.1,578.23Z"/><path class="cls-2" d="M662.83,590.51v1.76a.5.5,0,0,0,1,0v-1.76A.5.5,0,0,0,662.83,590.51Z"/><path class="cls-2" d="M662.83,598.79v3a.5.5,0,0,0,1,0v-3A.5.5,0,0,0,662.83,598.79Z"/><path class="cls-2" d="M662.5,609.06l-.41,4c-.06.64.94.64,1,0l.41-4C663.56,608.42,662.56,608.43,662.5,609.06Z"/><path class="cls-2" d="M661.83,620.35v2.76a.5.5,0,0,0,1,0v-2.76A.5.5,0,0,0,661.83,620.35Z"/><path class="cls-2" d="M661.58,630.13v2.76a.5.5,0,0,0,1,0v-2.76A.5.5,0,0,0,661.58,630.13Z"/><path class="cls-2" d="M660.38,639.66l.25,3c.05.64,1.05.64,1,0l-.25-3C661.33,639,660.32,639,660.38,639.66Z"/><path class="cls-2" d="M661.33,653v-2.76a.5.5,0,0,0-1,0V653A.5.5,0,0,0,661.33,653Z"/><path class="cls-2" d="M660.33,660.22a.5.5,0,0,0,1,0v-1a.5.5,0,0,0-1,0Z"/><path class="cls-2" d="M660.58,673.51v4.26a.5.5,0,0,0,1,0v-4.26A.5.5,0,0,0,660.58,673.51Z"/><path class="cls-2" d="M660.07,686.56a.5.5,0,0,0,0,1A.5.5,0,0,0,660.07,686.56Z"/><path class="cls-2" d="M658.27,700.72l.94-5.53c.11-.63-.86-.9-1-.27l-.94,5.53C657.2,701.09,658.16,701.36,658.27,700.72Z"/><path class="cls-2" d="M658.6,708.12l.25,3.26c0,.64,1,.64,1,0l-.25-3.26C659.55,707.48,658.55,707.47,658.6,708.12Z"/><path class="cls-2" d="M658.84,721.41l-.28,3.76c0,.64,1,.64,1,0l.28-3.76C659.89,720.77,658.89,720.77,658.84,721.41Z"/><path class="cls-2" d="M657.83,730.32a18.45,18.45,0,0,1,.49,5.38c0,.64,1,.64,1,0a19.39,19.39,0,0,0-.52-5.65C658.64,729.43,657.68,729.69,657.83,730.32Z"/><path class="cls-2" d="M659.07,747.24v-4.76a.5.5,0,0,0-1,0v4.76A.5.5,0,0,0,659.07,747.24Z"/><path class="cls-2" d="M657.88,754.76l.23,3.51c0,.64,1,.64,1,0l-.23-3.51C658.84,754.12,657.84,754.11,657.88,754.76Z"/><path class="cls-2" d="M657.17,769a8.6,8.6,0,0,1-.33,3.14.5.5,0,0,0,1,.27,9.39,9.39,0,0,0,.37-3.4C658.12,768.41,657.12,768.4,657.17,769Z"/><path class="cls-2" d="M648.3,573a23.33,23.33,0,0,0,0,4.26c.05.64,1.05.64,1,0a23.32,23.32,0,0,1,0-4.26C649.36,572.32,648.36,572.33,648.3,573Z"/><path class="cls-2" d="M649.79,585.5a6.31,6.31,0,0,0-.25-2.64c-.19-.61-1.16-.35-1,.27a5.6,5.6,0,0,1,.22,2.38C648.71,586.14,649.71,586.13,649.79,585.5Z"/><path class="cls-2" d="M648.88,596.52c.37.52,1.24,0,.86-.5a3.16,3.16,0,0,1-.46-2.86c.19-.62-.77-.88-1-.27A4.12,4.12,0,0,0,648.88,596.52Z"/><path class="cls-2" d="M649.79,606.31l.25-3.51c0-.64-1-.64-1,0l-.25,3.51C648.74,607,649.75,607,649.79,606.31Z"/><path class="cls-2" d="M649.54,613.33v1.25a.5.5,0,0,0,1,0v-1.25A.5.5,0,0,0,649.54,613.33Z"/><path class="cls-2" d="M650,623.86V620.6a.5.5,0,0,0-1,0v3.26A.5.5,0,0,0,650,623.86Z"/><path class="cls-2" d="M649.29,630.13v2.26a.5.5,0,0,0,1,0v-2.26A.5.5,0,0,0,649.29,630.13Z"/><path class="cls-2" d="M649.29,639.66v2a.5.5,0,0,0,1,0v-2A.5.5,0,0,0,649.29,639.66Z"/><path class="cls-2" d="M649.29,649.94a.5.5,0,0,0,0-1A.5.5,0,0,0,649.29,649.94Z"/><path class="cls-2" d="M648.79,657.22V660a.5.5,0,0,0,1,0v-2.76A.5.5,0,0,0,648.79,657.22Z"/><path class="cls-2" d="M648.29,666v2.76a.5.5,0,0,0,1,0V666A.5.5,0,0,0,648.29,666Z"/><path class="cls-2" d="M648,674v3.51a.5.5,0,0,0,1,0V674A.5.5,0,0,0,648,674Z"/><path class="cls-2" d="M648,683.3a.5.5,0,0,0,0,1A.5.5,0,0,0,648,683.3Z"/><path class="cls-2" d="M646.55,690.82l.27,4.26c0,.64,1,.64,1,0l-.27-4.26C647.51,690.18,646.51,690.17,646.55,690.82Z"/><path class="cls-2" d="M646.53,704.86a.5.5,0,0,0,1,0v-4.51a.5.5,0,0,0-1,0Z"/><path class="cls-2" d="M647.76,712.5a9.76,9.76,0,0,1-.22-3.13c.06-.64-.94-.64-1,0a10.62,10.62,0,0,0,.26,3.39C646.94,713.39,647.91,713.13,647.76,712.5Z"/><path class="cls-2" d="M647.54,719.15l-.25,2.51c-.06.64.94.64,1,0l.25-2.51C648.6,718.51,647.6,718.52,647.54,719.15Z"/><path class="cls-2" d="M637,577.22l-.5,3.76c-.08.64.92.63,1,0l.5-3.76C638.09,576.59,637.09,576.59,637,577.22Z"/><path class="cls-2" d="M637.53,587.25c-.07-.63-1.07-.64-1,0l.26,2.51c.07.63,1.07.64,1,0Z"/><path class="cls-2" d="M636.5,597.54a.5.5,0,0,0,1,0v-3a.5.5,0,0,0-1,0Z"/><path class="cls-2" d="M636.25,603.55v3a.5.5,0,0,0,1,0v-3A.5.5,0,0,0,636.25,603.55Z"/><path class="cls-2" d="M636.25,618.6a.5.5,0,0,0,1,0v-4.76a.5.5,0,0,0-1,0Z"/><path class="cls-2" d="M637.22,626.37l.26-2c.08-.64-.92-.63-1,0l-.26,2C636.14,627,637.14,627,637.22,626.37Z"/><path class="cls-2" d="M635.5,632.14v3a.5.5,0,0,0,1,0v-3A.5.5,0,0,0,635.5,632.14Z"/><path class="cls-2" d="M637.5,648.69l-.25-2.76c-.06-.64-1.06-.64-1,0l.25,2.76C636.56,649.33,637.56,649.33,637.5,648.69Z"/><path class="cls-2" d="M637.25,658.22a.5.5,0,0,0,0,1A.5.5,0,0,0,637.25,658.22Z"/><path class="cls-2" d="M636,668.25v5a.5.5,0,0,0,1,0v-5A.5.5,0,0,0,636,668.25Z"/><path class="cls-2" d="M637.25,684.8V682a.5.5,0,0,0-1,0v2.76A.5.5,0,0,0,637.25,684.8Z"/><path class="cls-2" d="M635.8,695.45l-.25,1.25c-.12.63.84.9,1,.27l.25-1.25C636.89,695.09,635.92,694.82,635.8,695.45Z"/><path class="cls-2" d="M636.76,706.86l-.25-3.76c0-.64-1-.64-1,0l.25,3.76C635.8,707.5,636.8,707.51,636.76,706.86Z"/><path class="cls-2" d="M637,717a11.39,11.39,0,0,0-.52,3.64.5.5,0,0,0,1,0,10.51,10.51,0,0,1,.48-3.38C638.18,716.66,637.21,716.4,637,717Z"/><path class="cls-2" d="M637,729c-.11-.63-1.07-.36-1,.27l.25,1.5c.11.63,1.07.36,1-.27Z"/><path class="cls-2" d="M636.25,738.21v3a.5.5,0,0,0,1,0v-3A.5.5,0,0,0,636.25,738.21Z"/><path class="cls-2" d="M636.5,749.49V755a.5.5,0,0,0,1,0v-5.52A.5.5,0,0,0,636.5,749.49Z"/><path class="cls-2" d="M635.75,763.54l.18,3.26c0,.64,1,.64,1,0l-.18-3.26C636.72,762.9,635.72,762.89,635.75,763.54Z"/><path class="cls-2" d="M623.21,578.23l.25-4.51c0-.64-1-.64-1,0l-.25,4.51C622.17,578.87,623.18,578.87,623.21,578.23Z"/><path class="cls-2" d="M622.71,587.51v1.76a.5.5,0,0,0,1,0v-1.76A.5.5,0,0,0,622.71,587.51Z"/><path class="cls-2" d="M622.71,598a.5.5,0,0,0,0-1A.5.5,0,0,0,622.71,598Z"/><path class="cls-2" d="M622.21,605.81v4.26a.5.5,0,0,0,1,0v-4.26A.5.5,0,0,0,622.21,605.81Z"/><path class="cls-2" d="M622.46,619.1a.5.5,0,0,0,0,1A.5.5,0,0,0,622.46,619.1Z"/><path class="cls-2" d="M621.49,627.13l-.25,5.27c0,.64,1,.64,1,0l.25-5.27C622.52,626.48,621.52,626.48,621.49,627.13Z"/><path class="cls-2" d="M620.2,640.67v3.76a.5.5,0,0,0,1,0v-3.76A.5.5,0,0,0,620.2,640.67Z"/><path class="cls-2" d="M621.71,651.95a.5.5,0,0,0-1,0v3.51a.5.5,0,0,0,1,0Z"/><path class="cls-2" d="M621.21,661.73a.5.5,0,0,0,0,1A.5.5,0,0,0,621.21,661.73Z"/><path class="cls-2" d="M621.46,672.26l.25-4.51c0-.64-1-.64-1,0l-.25,4.51C620.42,672.9,621.42,672.9,621.46,672.26Z"/><path class="cls-2" d="M620.77,678.77l.42,4c.07.63,1.07.64,1,0l-.42-4C621.7,678.14,620.7,678.13,620.77,678.77Z"/><path class="cls-2" d="M620.46,693.83a.5.5,0,0,0,1,0v-4a.5.5,0,0,0-1,0Z"/><path class="cls-2" d="M619.7,700.35l.25,2.51c.06.63,1.06.64,1,0l-.25-2.51C620.64,699.71,619.64,699.7,619.7,700.35Z"/><path class="cls-2" d="M620.22,709a40.49,40.49,0,0,1,.48,6.39.5.5,0,0,0,1,0,42.17,42.17,0,0,0-.52-6.65C621.09,708.1,620.12,708.37,620.22,709Z"/><path class="cls-2" d="M619.67,723.41l-.25,2.76c-.06.64.94.64,1,0l.25-2.76C620.73,722.77,619.73,722.78,619.67,723.41Z"/><path class="cls-2" d="M619,731.94l.11,3.77c0,.64,1,.64,1,0l-.11-3.77C620,731.3,619,731.3,619,731.94Z"/><path class="cls-2" d="M618.7,746.23v-3.51a.5.5,0,0,0-1,0v3.51A.5.5,0,0,0,618.7,746.23Z"/><path class="cls-2" d="M617.49,752.38l.25,1.76c.09.63,1.05.36,1-.27l-.25-1.76C618.37,751.48,617.4,751.75,617.49,752.38Z"/><path class="cls-2" d="M617.2,763.29v2.26a.5.5,0,0,0,1,0v-2.26A.5.5,0,0,0,617.2,763.29Z"/><path class="cls-2" d="M612.45,574.83a18.63,18.63,0,0,0-.27,4.4c0,.64,1,.64,1,0a17.5,17.5,0,0,1,.23-4.13C613.53,574.47,612.56,574.2,612.45,574.83Z"/><path class="cls-2" d="M612.93,587.51v-2.26a.5.5,0,0,0-1,0v2.26A.5.5,0,0,0,612.93,587.51Z"/><path class="cls-2" d="M612.18,593.52V597a.5.5,0,0,0,1,0v-3.51A.5.5,0,0,0,612.18,593.52Z"/><path class="cls-2" d="M611.71,606.19a10.78,10.78,0,0,1,.21,3.38c-.06.64.94.64,1,0a11.65,11.65,0,0,0-.25-3.65C612.53,605.3,611.57,605.56,611.71,606.19Z"/><path class="cls-2" d="M612.43,618.85a.5.5,0,0,0,0,1A.5.5,0,0,0,612.43,618.85Z"/><path class="cls-2" d="M611.42,624.12l-.25,5c0,.64,1,.64,1,0l.25-5C612.46,623.47,611.46,623.47,611.42,624.12Z"/><path class="cls-2" d="M610.43,636.15l-.25,3.26c0,.64,1,.64,1,0l.25-3.26C611.47,635.51,610.47,635.51,610.43,636.15Z"/><path class="cls-2" d="M609.68,643.42l-.28,3.51c-.05.64.95.64,1,0l.28-3.51C610.73,642.78,609.73,642.79,609.68,643.42Z"/><path class="cls-2" d="M608.92,654.21V657a.5.5,0,0,0,1,0v-2.76A.5.5,0,0,0,608.92,654.21Z"/><path class="cls-2" d="M608.92,664v1.76a.5.5,0,0,0,1,0V664A.5.5,0,0,0,608.92,664Z"/><path class="cls-2" d="M608.42,672.76l-.25,4c0,.64,1,.64,1,0l.25-4C609.46,672.12,608.46,672.12,608.42,672.76Z"/><path class="cls-2" d="M608.24,683.67a11,11,0,0,1,.16,3.39c-.07.64.94.63,1,0a11.92,11.92,0,0,0-.2-3.65C609.07,682.77,608.11,683,608.24,683.67Z"/><path class="cls-2" d="M609.17,693.07a.5.5,0,0,0,0,1A.5.5,0,0,0,609.17,693.07Z"/><path class="cls-2" d="M608.42,699.09v3.76a.5.5,0,0,0,1,0v-3.76A.5.5,0,0,0,608.42,699.09Z"/><path class="cls-2" d="M608.67,709.37v3.26a.5.5,0,0,0,1,0v-3.26A.5.5,0,0,0,608.67,709.37Z"/><path class="cls-2" d="M608.65,718.4l-.25,2.76c-.06.64.94.64,1,0l.25-2.76C609.71,717.76,608.71,717.76,608.65,718.4Z"/><path class="cls-2" d="M608.42,726.93v2a.5.5,0,0,0,1,0v-2A.5.5,0,0,0,608.42,726.93Z"/><path class="cls-2" d="M607.6,736.2l-.48,4.77c-.06.64.94.64,1,0l.48-4.77C608.67,735.56,607.67,735.56,607.6,736.2Z"/><path class="cls-2" d="M607.41,754v-4.26a.5.5,0,0,0-1,0V754A.5.5,0,0,0,607.41,754Z"/><path class="cls-2" d="M607.66,764.79v-2.26a.5.5,0,0,0-1,0v2.26A.5.5,0,0,0,607.66,764.79Z"/><path class="cls-2" d="M607.17,773.32v2.26a.5.5,0,0,0,1,0v-2.26A.5.5,0,0,0,607.17,773.32Z"/><path class="cls-2" d="M601.4,573l-.25,4c0,.64,1,.64,1,0l.25-4C602.44,572.32,601.44,572.32,601.4,573Z"/><path class="cls-2" d="M601.65,582v2.76a.5.5,0,0,0,1,0V582A.5.5,0,0,0,601.65,582Z"/><path class="cls-2" d="M602.65,594.28v-3.76a.5.5,0,0,0-1,0v3.76A.5.5,0,0,0,602.65,594.28Z"/><path class="cls-2" d="M602.9,603.05v-3.26a.5.5,0,0,0-1,0v3.26A.5.5,0,0,0,602.9,603.05Z"/><path class="cls-2" d="M602.15,609.82v3.76a.5.5,0,0,0,1,0v-3.76A.5.5,0,0,0,602.15,609.82Z"/><path class="cls-2" d="M601.92,620a12.28,12.28,0,0,0-.27,3.39c0,.64,1,.64,1,0a11.28,11.28,0,0,1,.23-3.13C603,619.61,602.05,619.34,601.92,620Z"/><path class="cls-2" d="M600.67,632.39l-.25,3.76c0,.64,1,.64,1,0l.25-3.76C601.72,631.75,600.72,631.75,600.67,632.39Z"/><path class="cls-2" d="M599.89,641.92v2a.5.5,0,0,0,1,0v-2A.5.5,0,0,0,599.89,641.92Z"/><path class="cls-2" d="M599.89,650.7a.5.5,0,0,0,0,1A.5.5,0,0,0,599.89,650.7Z"/><path class="cls-2" d="M599.64,660.73l-.5,4c-.08.64.92.63,1,0l.5-4C600.72,660.09,599.72,660.09,599.64,660.73Z"/><path class="cls-2" d="M598.64,673.51v1.76a.5.5,0,0,0,1,0v-1.76A.5.5,0,0,0,598.64,673.51Z"/><path class="cls-2" d="M598.64,681v3.51a.5.5,0,0,0,1,0V681A.5.5,0,0,0,598.64,681Z"/><path class="cls-2" d="M598.64,691.07a16.38,16.38,0,0,1-.48,3.63.5.5,0,0,0,1,.27,17.61,17.61,0,0,0,.52-3.89A.5.5,0,0,0,598.64,691.07Z"/><path class="cls-2" d="M597.64,702.6v2a.5.5,0,0,0,1,0v-2A.5.5,0,0,0,597.64,702.6Z"/><path class="cls-2" d="M597.64,710.38v5a.5.5,0,0,0,1,0v-5A.5.5,0,0,0,597.64,710.38Z"/><path class="cls-2" d="M597.38,724.17a.5.5,0,0,0,0,1A.5.5,0,0,0,597.38,724.17Z"/><path class="cls-2" d="M596.13,733.7a29.69,29.69,0,0,1-.23,5.38c-.09.63.88.9,1,.27a31.1,31.1,0,0,0,.27-5.65C597.1,733.06,596.1,733.05,596.13,733.7Z"/><path class="cls-2" d="M596.13,749.49l.25-2.26c.07-.64-.93-.63-1,0l-.25,2.26C595.06,750.13,596.06,750.13,596.13,749.49Z"/><path class="cls-2" d="M596.36,756.38c-.2-.61-1.17-.35-1,.27l.25.75c.2.61,1.17.35,1-.27Z"/><path class="cls-2" d="M587.86,574.72v5a.5.5,0,0,0,1,0v-5A.5.5,0,0,0,587.86,574.72Z"/><path class="cls-2" d="M588.36,586.75a.5.5,0,0,0,0-1A.5.5,0,0,0,588.36,586.75Z"/><path class="cls-2" d="M587.33,592l.49,4.26c.07.63,1.07.64,1,0l-.49-4.26C588.26,591.39,587.26,591.38,587.33,592Z"/><path class="cls-2" d="M587.84,602.3a12.5,12.5,0,0,1-.2,3.63c-.13.63.84.9,1,.27a13.43,13.43,0,0,0,.23-3.9C588.79,601.67,587.79,601.66,587.84,602.3Z"/><path class="cls-2" d="M588.12,611.69a5.5,5.5,0,0,0-.26,2.39c.07.63,1.07.64,1,0a4.81,4.81,0,0,1,.22-2.13C589.29,611.35,588.32,611.09,588.12,611.69Z"/><path class="cls-2" d="M588.36,619.85l-.5,4c-.08.64.92.63,1,0l.5-4C589.44,619.22,588.44,619.22,588.36,619.85Z"/><path class="cls-2" d="M589.1,632l-.77-4c-.12-.63-1.08-.36-1,.27l.77,4C588.26,632.9,589.22,632.63,589.1,632Z"/><path class="cls-2" d="M588.11,638.91v2a.5.5,0,0,0,1,0v-2A.5.5,0,0,0,588.11,638.91Z"/><path class="cls-2" d="M587.88,646.55a13.39,13.39,0,0,0,0,4.53c.1.63,1.07.36,1-.27a11.91,11.91,0,0,1,0-4C589,646.19,588,645.92,587.88,646.55Z"/><path class="cls-2" d="M587.86,657.72v5a.5.5,0,0,0,1,0v-5A.5.5,0,0,0,587.86,657.72Z"/><path class="cls-2" d="M586.85,669l-.25,2.51c-.06.64.94.64,1,0l.25-2.51C587.92,668.36,586.92,668.37,586.85,669Z"/><path class="cls-2" d="M586.62,677.9l-.25,1a.5.5,0,0,0,1,.27l.25-1A.5.5,0,0,0,586.62,677.9Z"/><path class="cls-2" d="M586.35,687.81V685a.5.5,0,0,0-1,0v2.76A.5.5,0,0,0,586.35,687.81Z"/><path class="cls-2" d="M585.62,693.69l-.5,3.51c-.09.63.87.9,1,.27l.5-3.51C586.67,693.33,585.71,693.06,585.62,693.69Z"/><path class="cls-2" d="M585.35,702.6a.5.5,0,0,0,0,1A.5.5,0,0,0,585.35,702.6Z"/><path class="cls-2" d="M584.6,709.37v2.51a.5.5,0,0,0,1,0v-2.51A.5.5,0,0,0,584.6,709.37Z"/><path class="cls-2" d="M583.84,721.91a.5.5,0,0,0,0-1A.5.5,0,0,0,583.84,721.91Z"/><path class="cls-2" d="M584.1,727.43v3a.5.5,0,0,0,1,0v-3A.5.5,0,0,0,584.1,727.43Z"/><path class="cls-2" d="M583.84,737.71l-.25,2.76c-.06.64.94.64,1,0l.25-2.76C584.9,737.07,583.9,737.07,583.84,737.71Z"/><path class="cls-2" d="M583.59,747.24v2a.5.5,0,0,0,1,0v-2A.5.5,0,0,0,583.59,747.24Z"/><path class="cls-2" d="M583.83,758.52a15.68,15.68,0,0,1,.51-3.88.5.5,0,0,0-1-.27,16.8,16.8,0,0,0-.54,4.14A.5.5,0,0,0,583.83,758.52Z"/><path class="cls-2" d="M583.09,764.29l.5,3.76c.08.63,1.08.64,1,0l-.5-3.76C584,763.66,583,763.65,583.09,764.29Z"/><path class="cls-2" d="M575.35,573.58a17.13,17.13,0,0,0-.55,4.14.5.5,0,0,0,1,0,16,16,0,0,1,.51-3.88A.5.5,0,0,0,575.35,573.58Z"/><path class="cls-2" d="M575.82,584v-2.26a.5.5,0,0,0-1,0V584A.5.5,0,0,0,575.82,584Z"/><path class="cls-2" d="M575.56,591.15a7.54,7.54,0,0,0,.25-2.89c-.07-.63-1.07-.64-1,0a6.79,6.79,0,0,1-.22,2.63A.5.5,0,0,0,575.56,591.15Z"/><path class="cls-2" d="M575.82,601.8V598a.5.5,0,0,0-1,0v3.76A.5.5,0,0,0,575.82,601.8Z"/><path class="cls-2" d="M574.82,609.82a.5.5,0,0,0,1,0v-1.5a.5.5,0,0,0-1,0Z"/><path class="cls-2" d="M574.57,618.1a.5.5,0,0,0,1,0v-2.51a.5.5,0,0,0-1,0Z"/><path class="cls-2" d="M574.61,625.37l.26,3c.05.64,1.05.64,1,0l-.26-3C575.55,624.73,574.55,624.72,574.61,625.37Z"/><path class="cls-2" d="M576,636.77a4.64,4.64,0,0,1-.22-2.13c.08-.64-.92-.63-1,0a5.3,5.3,0,0,0,.26,2.39C575.29,637.64,576.25,637.38,576,636.77Z"/><path class="cls-2" d="M575.57,642.92a.5.5,0,0,0,0,1A.5.5,0,0,0,575.57,642.92Z"/><path class="cls-2" d="M575.07,652.7a.5.5,0,0,0,1,0v-3a.5.5,0,0,0-1,0Z"/><path class="cls-2" d="M575.32,659.72v4a.5.5,0,0,0,1,0v-4A.5.5,0,0,0,575.32,659.72Z"/><path class="cls-2" d="M574.84,668.37l-.25,1.76c-.09.63.87.9,1,.27l.25-1.76C575.89,668,574.93,667.73,574.84,668.37Z"/><path class="cls-2" d="M574.32,676.27v3.26a.5.5,0,0,0,1,0v-3.26A.5.5,0,0,0,574.32,676.27Z"/><path class="cls-2" d="M573.84,683.91a4.41,4.41,0,0,0,.24,2.27c.23.59,1.2.33,1-.27a3.43,3.43,0,0,1-.24-1.74C574.89,683.55,573.93,683.28,573.84,683.91Z"/><path class="cls-2" d="M574.32,694.33v2.76a.5.5,0,0,0,1,0v-2.76A.5.5,0,0,0,574.32,694.33Z"/><path class="cls-2" d="M573.56,703.86v3a.5.5,0,0,0,1,0v-3A.5.5,0,0,0,573.56,703.86Z"/><path class="cls-2" d="M572.81,712.38v3.26a.5.5,0,0,0,1,0v-3.26A.5.5,0,0,0,572.81,712.38Z"/><path class="cls-2" d="M572.79,723.8a8.87,8.87,0,0,0,.27-2.89c0-.64-1-.64-1,0a8,8,0,0,1-.23,2.63A.5.5,0,0,0,572.79,723.8Z"/><path class="cls-2" d="M572.31,734.7v4.76a.5.5,0,0,0,1,0V734.7A.5.5,0,0,0,572.31,734.7Z"/><path class="cls-2" d="M571.81,747.24a.5.5,0,0,0,0,1A.5.5,0,0,0,571.81,747.24Z"/><path class="cls-2" d="M571.81,759.77v-5.52a.5.5,0,0,0-1,0v5.52A.5.5,0,0,0,571.81,759.77Z"/><path class="cls-2" d="M571.06,769.3c0-.64-1-.64-1,0a6,6,0,0,0,1.08,3.26c.37.52,1.23,0,.86-.5A5,5,0,0,1,571.06,769.3Z"/><path class="cls-2" d="M563.78,566.44v5.27a.5.5,0,0,0,1,0v-5.27A.5.5,0,0,0,563.78,566.44Z"/><path class="cls-2" d="M564,579.73l.25,2.76c.06.64,1.06.64,1,0l-.25-2.76C565,579.1,564,579.09,564,579.73Z"/><path class="cls-2" d="M565.29,594l-.25-4.26c0-.64-1-.64-1,0l.25,4.26C564.32,594.66,565.32,594.67,565.29,594Z"/><path class="cls-2" d="M564.52,602.55l-.26,2.51c-.07.64.93.63,1,0l.26-2.51C565.58,601.91,564.58,601.91,564.52,602.55Z"/><path class="cls-2" d="M563,609.57v5a.5.5,0,0,0,1,0v-5A.5.5,0,0,0,563,609.57Z"/><path class="cls-2" d="M562,622.61v3.76a.5.5,0,0,0,1,0v-3.76A.5.5,0,0,0,562,622.61Z"/><path class="cls-2" d="M562,633.39v4.76a.5.5,0,0,0,1,0v-4.76A.5.5,0,0,0,562,633.39Z"/><path class="cls-2" d="M561.33,643.93a36.27,36.27,0,0,0-.19,5.27c0,.64,1,.64,1,0a36.27,36.27,0,0,1,.19-5.27C562.4,643.29,561.4,643.3,561.33,643.93Z"/><path class="cls-2" d="M561.28,657v1.5a.5.5,0,0,0,1,0V657A.5.5,0,0,0,561.28,657Z"/><path class="cls-2" d="M561,664.74l-.25,4.76c0,.64,1,.64,1,0l.25-4.76C562,664.09,561,664.1,561,664.74Z"/><path class="cls-2" d="M561.78,680.79l-.25-5.77c0-.64-1-.64-1,0l.25,5.77C560.8,681.43,561.8,681.43,561.78,680.79Z"/><path class="cls-2" d="M560.79,687.17a6.52,6.52,0,0,0-.27,2.39c0,.64,1,.64,1,0a5.73,5.73,0,0,1,.23-2.12A.5.5,0,0,0,560.79,687.17Z"/><path class="cls-2" d="M560,698.34l-.25,2.51c-.06.64.94.64,1,0l.25-2.51C561.09,697.7,560.09,697.7,560,698.34Z"/><path class="cls-2" d="M560,712.38v-4.51a.5.5,0,0,0-1,0v4.51A.5.5,0,0,0,560,712.38Z"/><path class="cls-2" d="M558.8,720l-.49,3.26c-.1.63.87.9,1,.27l.49-3.26C559.86,719.66,558.9,719.39,558.8,720Z"/><path class="cls-2" d="M558,735.7c0,.64,1,.64,1,0l.25-4.76c0-.64-1-.64-1,0Z"/><path class="cls-2" d="M558.77,746.23a.5.5,0,0,0,0-1A.5.5,0,0,0,558.77,746.23Z"/><path class="cls-2" d="M558.51,754a9.46,9.46,0,0,1,.74-3.13c.25-.59-.72-.85-1-.27a10.25,10.25,0,0,0-.77,3.39C557.48,754.65,558.48,754.65,558.51,754Z"/><path class="cls-2" d="M559.27,763.29c0-.64-1-.64-1,0a15.44,15.44,0,0,1-.23,3.88c-.12.63.84.9,1,.27A16.51,16.51,0,0,0,559.27,763.29Z"/><path class="cls-2" d="M559.52,775.57a24.31,24.31,0,0,1-.48,6.64c-.13.63.83.9,1,.27a25.3,25.3,0,0,0,.52-6.9C560.48,774.93,559.48,774.93,559.52,775.57Z"/><path class="cls-2" d="M553.75,558.92a18.57,18.57,0,0,0,0,4c.07.63,1.07.64,1,0a18.57,18.57,0,0,1,0-4C554.82,558.28,553.82,558.28,553.75,558.92Z"/><path class="cls-2" d="M555.26,573.21v-3a.5.5,0,0,0-1,0v3A.5.5,0,0,0,555.26,573.21Z"/><path class="cls-2" d="M554.76,579v4.51a.5.5,0,0,0,1,0V579A.5.5,0,0,0,554.76,579Z"/><path class="cls-2" d="M553.5,593.77v6.77a.5.5,0,0,0,1,0v-6.77A.5.5,0,0,0,553.5,593.77Z"/><path class="cls-2" d="M552.73,608.07l.24,2c.08.63,1.08.64,1,0l-.24-2C553.65,607.44,552.65,607.43,552.73,608.07Z"/><path class="cls-2" d="M550.75,620.1c0,.64,1,.64,1,0a18.1,18.1,0,0,0-.27-4.15c-.11-.63-1.08-.36-1,.27A16.93,16.93,0,0,1,550.75,620.1Z"/><path class="cls-2" d="M551.52,625.49a10.11,10.11,0,0,0-.27,2.89c0,.64,1,.64,1,0a9.14,9.14,0,0,1,.23-2.63C552.63,625.13,551.66,624.86,551.52,625.49Z"/><path class="cls-2" d="M551.25,639.16v4a.5.5,0,0,0,1,0v-4A.5.5,0,0,0,551.25,639.16Z"/><path class="cls-2" d="M550.75,650.19v6a.5.5,0,0,0,1,0v-6A.5.5,0,0,0,550.75,650.19Z"/><path class="cls-2" d="M550,664.35a20.77,20.77,0,0,0-.27,4.65c0,.64,1,.64,1,0a19.59,19.59,0,0,1,.23-4.38C551.08,664,550.12,663.72,550,664.35Z"/><path class="cls-2" d="M548.74,680.79a38,38,0,0,1,.25,5.52.5.5,0,0,0,1,0,38,38,0,0,0-.25-5.52C549.66,680.16,548.66,680.15,548.74,680.79Z"/><path class="cls-2" d="M548.74,694.33a.5.5,0,0,0,0,1A.5.5,0,0,0,548.74,694.33Z"/><path class="cls-1" d="M100.15,467.07a2.57,2.57,0,0,0-.51-.66,2.3,2.3,0,0,1,.9-2.69c2.81-2.66-1.44-6.9-4.24-4.24a8.56,8.56,0,0,0-2.7,5.39,11.41,11.41,0,0,1-4.26,3.37l-.1,0A21.63,21.63,0,0,1,79,467.93c-5.78-1.64-10.73-6.51-17.12-4.58-2.62.79-4.68,2.61-7,4-3.86,2.24-7.65,1.08-11.78.32-4.45-.82-9.09-.94-12.7,1.55-3.55.88-7.1,2.21-10.06,3.13-3.48,1.08-6.29,3.09-4.32,7.07a3.79,3.79,0,0,0,.7.92A2.75,2.75,0,0,0,18,481.92a3.4,3.4,0,0,1,.23,1.12c-2,2.55-7.23,1.44-9.89,2a16.89,16.89,0,0,0-5.65,2.25l-.5.34c0,.73,0,1.45,0,2.18q.11,8.7.13,17.4a9.84,9.84,0,0,0,3.94-.36,14.8,14.8,0,0,0,4.92-3c2.52-2.09,3.65-4.06,7.81-2.31a26.06,26.06,0,0,1,2.19,1.6c4.26,2.45,18.36,2.9,17-5.18A7.67,7.67,0,0,0,35,493.31c3.09-2.61,7.16-2,10.32-4.5a4.3,4.3,0,0,0,1.2-1.42A1.69,1.69,0,0,0,48.75,486a10.51,10.51,0,0,0,.12-2.94,2.14,2.14,0,0,0,1.06-.34c3.34-2.2,10.33.35,12.06-4.65,1-3-1.38-5.3-4-6.07,3.15-1.76,6.19-3.57,9.59-2.58,5.39,1.57,9.33,4.71,15.19,5.19a27.65,27.65,0,0,0,7.69-.46c2-.41,4.44-2,6.44-2.47a2.94,2.94,0,0,0,3.43-4.27Zm-59.61,7.36a2.26,2.26,0,0,0-1.37,0,3.53,3.53,0,0,0-.55-.58,16.67,16.67,0,0,1,1.94.54Z"/><path class="cls-1" d="M51,432.61c-3.14,1.46-4.83,4.26-7.57,6.21-3.59,2.55-7.91,2.18-12,1.28a16.17,16.17,0,0,0-4.77-1.95c-3.59-.82-5.2,4.41-2.05,5.63A2.71,2.71,0,0,0,26.32,445c1.11.28,2.23.55,3.35.8a14.07,14.07,0,0,1,1.67,1.29c1,.89,1.79,2.17,3.16,2.56s3.75-.26,5.1-.36a39.2,39.2,0,0,1,7.16.19,3,3,0,0,0,2.89-3.8c-1.2-3.44,2.61-6.55,5-8.4C57.49,435.07,53.84,431.28,51,432.61Z"/><path class="cls-1" d="M234.74,463.1c-7.72,1.06-14.32,2-21.26,5.73-7.53,4-14.83,4.28-23.1,4.78-4.2-.25-7.9,1.47-11.81,4.23-4.8,3.38-10.06,8.82-16.49,6.88-5.8-1.75-6.86-8.57-12.9-10.08-5.72-1.43-12.22-1.42-18.32-1.67a5.55,5.55,0,0,1-3-3.33c-1.66-4.84-9.39-2.76-7.71,2.13a15,15,0,0,0,2.8,5,4.2,4.2,0,0,0,4,4l11.5.89c3.82.3,8.54-.36,11.11,2.77,3.32,4,6.36,7.24,11.75,8.34,5.06,1,9.95-.32,14.3-3,5.42-3.31,10.51-10,17.38-7.41a3.21,3.21,0,0,0,4-1.1c5.47-.33,10.9-1,16-3.22,4-1.8,7.65-4.44,12-5.5,3.87-1,8-1.19,12-1.73C241.94,470.12,239.78,462.41,234.74,463.1Z"/><path class="cls-1" d="M207.32,459.35a31.45,31.45,0,0,0-17.86-14.46c-5-1.69-9.36-3.07-11-8.66-.94-3.15-1.24-5.89-4.86-6.8s-5.34,4.85-1.6,5.79c.19,0,2.66,7.34,3.32,8.25a16,16,0,0,0,7.16,5.34c3.59,1.52,7.4,2.22,10.79,4.24a24.91,24.91,0,0,1,8.9,9.34C204,465.73,209.23,462.71,207.32,459.35Z"/><path class="cls-1" d="M127.62,420.16c-7.41-1.67-7.61-10.46-14.41-13.41-6.64-2.87-15.08-2.75-22.11-2-2.91.32-4.29,4.85-1.23,5.78.64,1.43,2,2.47,1.91,4.1-.26,3.14-4.53,2.7-7,2.64a2.7,2.7,0,0,0-.3,0,15.33,15.33,0,0,0-3.25.06c-5.89.76-8.13,5.14-13.06,7.47-3.49,1.65-.45,6.82,3,5.18,2.89-1.37,4.57-4,7.28-5.57a9.73,9.73,0,0,1,11.25,1.29,3.07,3.07,0,0,0,3.64.47c6.46-4.41,13.8-7.94,21.83-6.71a3.6,3.6,0,0,0,1.38-.05,12.65,12.65,0,0,0,2,2.66,14.81,14.81,0,0,0,7.42,3.84C129.79,426.8,131.39,421,127.62,420.16Z"/><path class="cls-2" d="M101.33,472.66c-4.78-2.49-9.7,1.59-14.53,2a16.71,16.71,0,0,1-8.57-1.58c-2.46-1.19-4.34-3.13-6.5-4.76a8.77,8.77,0,0,0-5.08-2.11c-2.46,0-4.32,1.62-6.25,2.91a17.25,17.25,0,0,1-7.95,3c-3.75.34-6.17-1.39-9.24-3.13-4.62-2.61-9.57-.55-14.18,1-5.52,1.88-11.71,3.74-17.28,1a9.7,9.7,0,0,1-5.15-6.11c-.59-2-.78-4-1.61-5.92a6.36,6.36,0,0,0-3.57-3.51c0,.33,0,.67,0,1a5.64,5.64,0,0,1,1,.63c2.26,1.87,2.41,5.1,3.14,7.74a11.29,11.29,0,0,0,8.37,8,15.43,15.43,0,0,0,2.85.48,4.25,4.25,0,0,0-1.9,2.92,4,4,0,0,0,.43,2.59c.62,1.14,2.19,1.81,2.64,3,1.3,3.47-4.67,2.46-5.86,2.45a21.92,21.92,0,0,0-4.69.36,10.74,10.74,0,0,0-5.24,2.62c0,.52,0,1,0,1.55a7.48,7.48,0,0,1,2.35-2.07c2.71-1.53,5.92-1.51,8.94-1.42,1.47,0,3.66.5,5-.51a2.64,2.64,0,0,0,.39-3.48,9.34,9.34,0,0,0-1.65-1.84c-1.76-1.83-1.81-4.81,1-5.76a.47.47,0,0,0,.33-.37A36.62,36.62,0,0,0,29.29,471c3.5-1.2,7.55-3,11.31-2,3,.81,5.09,3.33,8.21,4a14.26,14.26,0,0,0,7.67-.71c.32-.11.62-.24.92-.38.31,1.25,3.21,1.93,3.73,2.76,2.63,4.2-3.8,5.3-6.34,5.6-1.69.2-4,.18-5.5,1a3.27,3.27,0,0,0-.32.2c-1-4.49-6.8-7-10.84-7.82-.63-.13-.9.84-.27,1,3.65.74,9.7,3.12,10.22,7.45a.52.52,0,0,0,.21.36c0,.08-.06.15-.08.25-.38,1.3-.23,2.51-1,3.74a6.38,6.38,0,0,1-3.78,2.69c-3.26.95-6.86.41-9.3,3.16A22.77,22.77,0,0,0,23,490.35c-.63.07-.64,1.07,0,1a17.92,17.92,0,0,1,11.54,2.43c5.36,3.49.93,8.77-3.54,9.87a16.16,16.16,0,0,1-5.88.43c-2.58-.36-3.38-2.09-5-3.73a5,5,0,0,0-5.75-.86c-2.62,1.09-4.12,3.5-6.19,5.31a7.55,7.55,0,0,1-5.89,1.87c0,.36,0,.71,0,1.07a9,9,0,0,0,2.18,0c3-.45,4.91-2.7,6.94-4.78s5.37-4.45,8-1.86c1.2,1.19,1.66,2.6,3.25,3.39,2.78,1.39,6.82.8,9.65-.15s5.05-2.8,5.56-5.72c.46-2.65-.83-4.54-2.88-5.83,3.05-3.11,8.2-1.39,11.54-4.15a7.29,7.29,0,0,0,2.29-3.41,7.06,7.06,0,0,1,.79-2.5c1-1.28,3.64-1.28,5.15-1.46,2.75-.33,6.55-.62,7.62-3.75a4,4,0,0,0-.59-3.61,3.91,3.91,0,0,0-1.06-1c-.31-.2-2.62-1-2.19-1.49a.5.5,0,0,0,.09-.14c1.84-1.05,3.48-2.39,5.4-3.35,4.16-2.07,7.3,1.53,10.28,3.89a17.52,17.52,0,0,0,15.3,3.43c3.58-.9,7.49-3.59,11.18-1.67C101.39,473.82,101.9,473,101.33,472.66Z"/><path class="cls-2" d="M239.75,465c-.54-.67-1.53-.68-2-1.52a13.7,13.7,0,0,1-1.14-2.82,11,11,0,0,0-5.83-6.85,15,15,0,0,0-4.45-.92c-2.08-.3-2.82-1.14-3.58-2.94a16.69,16.69,0,0,0-1-2c-4-6.79-12.51-7.59-19.5-6-2.24-6.16-1.77-15.8-9.68-17.69-3.48-.83-7.28.2-10.66,1.05a37.14,37.14,0,0,0-11,4.32c-1.78,1.13-1.57,1.53-3.22.24a11.77,11.77,0,0,0-12.93-.9c-1.72,1-3.07,2.59-4.88,3.47a9.45,9.45,0,0,1-1.37.53.43.43,0,0,0-.35-.45c-3.79-.89-3.88-5.34-5.82-8a9.27,9.27,0,0,0-5.6-3.47,14.84,14.84,0,0,0-6.52.2.48.48,0,0,0-.46-.62c-6.62,0-8.94-7.89-13.56-11.34-3.89-2.91-8.81-3.84-13.56-4.15-2.56-.17-5.13-.14-7.7-.1-2,0-4.29.1-5-2.35A24.84,24.84,0,0,0,89,399c-1.58-3.39-5.6-4.5-9-4.82-4.38-.41-9.47,0-13.35,2.2a14.08,14.08,0,0,0-4.21,4.17c-2.47,3.33-5.49,2-8.92,1.81-4.34-.23-6.75,2.92-6.94,7.07-.08,1.66.21,3.3.24,5,.05,2.22-.92,2.91-3,3.39-2.49.59-5.15.68-7.53,1.72a8.94,8.94,0,0,0-4.15,3.9A17.41,17.41,0,0,1,30,426.67c-1.54,1.6-3.67,1.68-5.76,1.58-4.89-.26-9.21.19-13,3.63a18,18,0,0,0-3.76,5.27,11.2,11.2,0,0,1-2,3c-1.39,1.31-3,1-4.63.82,0,.34,0,.68,0,1,1.69.17,3.27.43,4.76-.67s2.26-3,3.12-4.56c3.08-5.73,8.39-8,14.69-7.61,1.83.12,3.78.28,5.49-.53,2-1,2.93-2.91,4-4.72,1.59-2.63,3.77-3.77,6.71-4.35,2.11-.42,4.78-.43,6.66-1.6,1.48-.92,1.46-2.42,1.37-4-.16-3.09-.91-7.08,1.7-9.44,3.6-3.25,9.09,1.37,12.76-2.12,2-1.88,2.93-4.15,5.5-5.45a19.9,19.9,0,0,1,8.12-1.81c3-.13,6.18,0,8.92,1.24,3,1.4,3.38,3.66,4.23,6.53a3.78,3.78,0,0,0,2.8,3c2.75.63,6.13,0,9,.1,6.14.2,12.73,1.27,17.08,6,3.32,3.63,5.74,9,11.12,9.51l-.7.2a12.77,12.77,0,0,1-2.63.9c-.93-.08-.49-.2-1.07-.67a12.44,12.44,0,0,0-2.78-2c-4.81-2.14-11.26-2.19-16.38-1.51a25.71,25.71,0,0,0-13.81,6,9.19,9.19,0,0,0-9.3-4,15.3,15.3,0,0,0-6.62,2.93c-2.62,1.9-4.84,5.46-8.35,5.2-2.43-.18-4.55-.81-7-.45a14.9,14.9,0,0,0-6.94,2.92,15.06,15.06,0,0,0-5.67,12.15.5.5,0,0,0,1,0A13.72,13.72,0,0,1,63.16,429c1.91.1,3.87.95,5.79.62a6.93,6.93,0,0,0,3.57-2.21A28.32,28.32,0,0,1,78.21,423c4.25-2.31,10.34-2.32,12.8,2.55a.51.51,0,0,0,.79.1c4.44-4.12,10.23-6,16.21-6.38a40.16,40.16,0,0,1,8.58.45c2.94.47,6.33,1.12,7.84,4a.5.5,0,0,0,.56.23c5-1.82,12-4.11,16.15.61,2.44,2.74,2.36,7.4,6.16,8.74a18.51,18.51,0,0,0-3.36,1c-2.78,1.26-3.35,3.75-4.24,6.42-1.82,5.46-6.49,4.63-11.14,5.61a11.72,11.72,0,0,0-8.08,6.35c-1.09,1-1.82,2.28-2.88,3.32-2.34,2.3-5,1.43-7.83,1.35a13,13,0,0,0-5.15.8,7.68,7.68,0,0,0-5.13,7.37c0,.64,1,.64,1,0-.2-6.07,6.19-7.43,11-7,3.47.27,5.54-.09,7.77-2.84a20.68,20.68,0,0,1,1.64-1.84.41.41,0,0,0,.3-.25l0,0a7.4,7.4,0,0,1,2.94-1.64,18.78,18.78,0,0,1,6-.46c3.48.15,6.81.4,10-1.11.58-.27.08-1.13-.5-.86-4.53,2.11-9.45.39-14.19,1.13a11.55,11.55,0,0,0-3.09.9,10.43,10.43,0,0,1,5.1-3.8c2.19-.74,4.54-.66,6.8-1.07,4.33-.78,5.63-3.34,6.87-7.25,1.08-3.37,3.26-4.25,6.43-5.07a14.39,14.39,0,0,0,5.58-2.85c4.74-3.73,11.13-4.1,15.4.68a.43.43,0,0,0,.36.14.48.48,0,0,0,.22.41c3.62,2.44,4.67,6.78,6.25,10.59,1.29,3.12,2.2,5.12,5.74,5.27a33.34,33.34,0,0,1,24,11.73c.42.49,1.12-.22.71-.71a34.29,34.29,0,0,0-21.1-11.71c-2.53-.36-5.35.17-7.07-2.15-1.25-1.7-1.81-4-2.57-6-1.2-3.08-2.6-6-5.42-7.9a29.87,29.87,0,0,1,9.76-4.75c3.34-1,7.13-2.15,10.64-2.05,9.61.26,8.77,11.13,11.37,17.69a.51.51,0,0,0,.61.35c3.89-.94,8-1.29,11.87,0,4,1.38,6.33,4.12,8.07,7.87.88,1.89,1.85,2.8,3.95,3,4.38.46,7.84,2,9.45,6.45.73,2,1.2,3.6,2.75,5.09.65.63.84-.19,1.09,1.22s-1,2.72-2,3.38c-2.05,1.37-4.83,1.24-7.19,1.46a38.34,38.34,0,0,0-9.57,1.79c-3.32,1.19-5.95,3.39-8.9,5.22-6.72,4.15-14.29,3.38-21.81,3.15-3-.09-5.69.3-8.1,2.19-3,2.32-5.16,4.81-8.79,6.21a38.81,38.81,0,0,1-9.59,2.6c-4.54.48-7.32-1.32-9.62-5.12-1.28-2.1-2.53-3.95-4.86-5-3-1.33-6.57-1.15-9.78-1.27l-6.7-.27c-2.11-.08-4.87.19-6.79-.84-3-1.63-2-6.16-5.33-7.78-2.82-1.38-5.91-.24-8.69.58-4.6,1.35-9.1.52-11.72-3.84a.5.5,0,0,0-.86.5,10.26,10.26,0,0,0,6.33,4.8c3.53.87,6.54-.82,9.92-1.49,2.91-.58,5.73.14,6.83,3.14a14.2,14.2,0,0,0,1.38,3.49c1.77,2.51,5.25,2.28,8,2.39,4.27.17,8.59.16,12.85.55a10.44,10.44,0,0,1,6,2.11c1.68,1.44,2.49,3.52,3.75,5.29,3.86,5.43,10.63,3.83,16.08,2.12,3.16-1,6.27-2.13,8.82-4.31a44.41,44.41,0,0,1,4.2-3.7c2.26-1.49,5-1.47,7.55-1.34,7.36.37,14.92.71,21.43-3.33,3.7-2.3,6.83-4.81,11.16-5.86,4-1,8.14-.62,12.05-1.62,2.28-.58,4.53-2.08,4.87-4.59A3.09,3.09,0,0,0,239.75,465Z"/><path class="cls-2" d="M67.16,473.51v3.67a.5.5,0,0,0,1,0v-3.67A.5.5,0,0,0,67.16,473.51Z"/><path class="cls-2" d="M167.64,462.05a5.14,5.14,0,0,0-.39-5.53c-.38-.51-1.25,0-.86.5a4.15,4.15,0,0,1,.39,4.52C166.48,462.12,167.34,462.62,167.64,462.05Z"/><path class="cls-2" d="M189.2,473c-.57.3-.06,1.16.5.86A8.1,8.1,0,0,0,191,460.14c-.5-.39-1.21.31-.71.71A7.11,7.11,0,0,1,189.2,473Z"/><path class="cls-2" d="M199.79,470.82a4.85,4.85,0,0,0-2.52-6.58c-.59-.25-.85.72-.27,1a3.84,3.84,0,0,1,1.92,5.11C198.64,470.89,199.5,471.39,199.79,470.82Z"/><path class="cls-2" d="M84.73,450.57c-.58.27-.07,1.14.5.86,3.65-1.72,3-6.25.31-8.57a10.5,10.5,0,0,0-1.05-.79,4,4,0,0,0,1.63-3.84c-.24-2.12-1.88-3.71-3.34-5.11-.47-.44-1.17.26-.71.71,1.77,1.69,5.12,5.64,1.62,7.57a.49.49,0,0,0-.14.12c-4-2.17-9.57-2.62-13.69-2.41-.64,0-.64,1,0,1a31.34,31.34,0,0,1,10.75,1.42,10.51,10.51,0,0,1,4.74,2.54C87.2,446,87.48,449.28,84.73,450.57Z"/><path class="cls-2" d="M52.48,454.06c.74-3.6-6-4.93-8.46-5.24A19,19,0,0,0,34.79,450c-1.11-4.48-7.14-7.85-11.24-9.07a13.48,13.48,0,0,0-13.44,3c-.46.45.25,1.16.71.71a12.45,12.45,0,0,1,12.47-2.73c3.73,1.11,9.58,4.32,10.55,8.41a.46.46,0,0,0,0,.07,19.09,19.09,0,0,0-3.3,1.89c-.52.37,0,1.24.5.86a18,18,0,0,1,15-2.86c1.29.33,5.82,1.55,5.4,3.57C51.39,454.42,52.35,454.69,52.48,454.06Z"/><path class="cls-2" d="M143.44,473.23c-.62-.15-.89.81-.27,1,3.46.85,9.15,1.36,9.78-3.5.64-5-4.74-7.25-8.58-8.46-.62-.19-.88.77-.27,1,3,1,6.85,2.2,7.73,5.7C153.2,474.33,146.74,474,143.44,473.23Z"/><path class="cls-2" d="M234.79,483.74q0-1.76,0-3.52a.5.5,0,0,0-1,0q0,1.76,0,3.52A.5.5,0,0,0,234.79,483.74Z"/><path class="cls-2" d="M234.26,492.06l-.69,4.94c-.09.63.88.9,1,.27l.69-4.94C235.31,491.7,234.35,491.43,234.26,492.06Z"/><path class="cls-2" d="M233.51,505.58v4.23a.5.5,0,0,0,1,0v-4.23A.5.5,0,0,0,233.51,505.58Z"/><path class="cls-2" d="M233.51,517.21v3.88a.5.5,0,0,0,1,0v-3.88A.5.5,0,0,0,233.51,517.21Z"/><path class="cls-2" d="M233.11,529.19l-.37,4.93c0,.64,1,.64,1,0l.37-4.93C234.16,528.55,233.16,528.55,233.11,529.19Z"/><path class="cls-2" d="M233.46,542.23c0-.64-1-.64-1,0a28,28,0,0,0,.35,6.48c.11.63,1.07.36,1-.27A26.87,26.87,0,0,1,233.46,542.23Z"/><path class="cls-2" d="M221.18,481.62v4.23a.5.5,0,0,0,1,0v-4.23A.5.5,0,0,0,221.18,481.62Z"/><path class="cls-2" d="M221.18,493.25V495a.5.5,0,0,0,1,0v-1.76A.5.5,0,0,0,221.18,493.25Z"/><path class="cls-2" d="M220.82,501.71v1.76a.5.5,0,0,0,1,0v-1.76A.5.5,0,0,0,220.82,501.71Z"/><path class="cls-2" d="M220.62,515.6a.5.5,0,0,0,0-1A.5.5,0,0,0,220.62,515.6Z"/><path class="cls-2" d="M219.75,522.5l.35,8.1c0,.64,1,.64,1,0l-.35-8.1C220.73,521.86,219.73,521.85,219.75,522.5Z"/><path class="cls-2" d="M220.12,538l-.35,5.64c0,.64,1,.64,1,0l.35-5.64C221.16,537.36,220.16,537.36,220.12,538Z"/><path class="cls-2" d="M219.77,550.33v4.93a.5.5,0,0,0,1,0v-4.93A.5.5,0,0,0,219.77,550.33Z"/><path class="cls-2" d="M207.43,487.26l-.35,4.58c0,.64,1,.64,1,0l.35-4.58C208.48,486.62,207.48,486.62,207.43,487.26Z"/><path class="cls-2" d="M206.32,500.15l-.71,3.87c-.12.63.85.9,1,.27l.71-3.87C207.4,499.79,206.43,499.52,206.32,500.15Z"/><path class="cls-2" d="M205.36,508.88a9.24,9.24,0,0,1,.31,3.75c-.08.64.93.63,1,0a10,10,0,0,0-.34-4A.5.5,0,0,0,205.36,508.88Z"/><path class="cls-2" d="M205.67,519.89l-.36,1.76c-.13.63.84.9,1,.27l.36-1.76C206.76,519.53,205.79,519.26,205.67,519.89Z"/><path class="cls-2" d="M205.91,535a11.86,11.86,0,0,0-.62-5.91c-.22-.6-1.19-.34-1,.27a10.85,10.85,0,0,1,.62,5.38C204.86,535.32,205.82,535.59,205.91,535Z"/><path class="cls-2" d="M205.37,541.18,205,545.4c-.06.64.94.64,1,0l.38-4.23C206.43,540.54,205.43,540.54,205.37,541.18Z"/><path class="cls-2" d="M191.87,496.07v-4.93a.5.5,0,0,0-1,0v4.93A.5.5,0,0,0,191.87,496.07Z"/><path class="cls-2" d="M191.23,502.76v3.17a.5.5,0,0,0,1,0v-3.17A.5.5,0,0,0,191.23,502.76Z"/><path class="cls-2" d="M191.58,512.28v3.88a.5.5,0,0,0,1,0v-3.88A.5.5,0,0,0,191.58,512.28Z"/><path class="cls-2" d="M192.23,529.19v-4.58a.5.5,0,0,0-1,0v4.58A.5.5,0,0,0,192.23,529.19Z"/><path class="cls-2" d="M192.43,538.56a.5.5,0,0,0,0,1A.5.5,0,0,0,192.43,538.56Z"/><path class="cls-2" d="M191.58,547.16v2.47a.5.5,0,0,0,1,0v-2.47A.5.5,0,0,0,191.58,547.16Z"/><path class="cls-2" d="M178.13,498.89V494a.5.5,0,0,0-1,0v4.93A.5.5,0,0,0,178.13,498.89Z"/><path class="cls-2" d="M178.48,507a.5.5,0,0,0-1,0v4.93a.5.5,0,0,0,1,0Z"/><path class="cls-2" d="M178,519.12a.5.5,0,0,0,0-1A.5.5,0,0,0,178,519.12Z"/><path class="cls-2" d="M178.82,527.56a.5.5,0,0,0-1-.27,10.84,10.84,0,0,0-.37,3.66c0,.64,1,.64,1,0A10,10,0,0,1,178.82,527.56Z"/><path class="cls-2" d="M178.54,537.65v3.88a.5.5,0,0,0,1,0v-3.88A.5.5,0,0,0,178.54,537.65Z"/><path class="cls-2" d="M179.25,551.39v2.82a.5.5,0,0,0,1,0v-2.82A.5.5,0,0,0,179.25,551.39Z"/><path class="cls-2" d="M180,562.18a21.85,21.85,0,0,0-.37,5.77c0,.64,1,.64,1,0a20.83,20.83,0,0,1,.33-5.5C181.06,561.82,180.09,561.55,180,562.18Z"/><path class="cls-2" d="M179.25,573.59v5.29a.5.5,0,0,0,1,0v-5.29A.5.5,0,0,0,179.25,573.59Z"/><path class="cls-2" d="M178.54,587v4.23a.5.5,0,0,0,1,0V587A.5.5,0,0,0,178.54,587Z"/><path class="cls-2" d="M178.89,599.31l-.35,2.82c-.08.64.92.63,1,0l.35-2.82C180,598.68,179,598.68,178.89,599.31Z"/><path class="cls-2" d="M165.17,498.75a12.06,12.06,0,0,0-.37,4c0,.64,1,.64,1,0a11.21,11.21,0,0,1,.33-3.74A.5.5,0,0,0,165.17,498.75Z"/><path class="cls-2" d="M164.09,507v4.23a.5.5,0,0,0,1,0V507A.5.5,0,0,0,164.09,507Z"/><path class="cls-2" d="M163.74,522.14c0,.64,1,.64,1,0a15,15,0,0,1,.33-4.45c.14-.63-.82-.89-1-.27A15.94,15.94,0,0,0,163.74,522.14Z"/><path class="cls-2" d="M164.39,533.07l.38-4.93c0-.64-1-.64-1,0l-.38,4.93C163.34,533.71,164.35,533.71,164.39,533.07Z"/><path class="cls-2" d="M163.39,545.75a.5.5,0,0,0,1,0v-6a.5.5,0,0,0-1,0Z"/><path class="cls-2" d="M165.09,557.38V552.8a.5.5,0,0,0-1,0v4.58A.5.5,0,0,0,165.09,557.38Z"/><path class="cls-2" d="M164.95,563.93a.5.5,0,0,0,0,1A.5.5,0,0,0,164.95,563.93Z"/><path class="cls-2" d="M165.45,576.41v-4.23a.5.5,0,0,0-1,0v4.23A.5.5,0,0,0,165.45,576.41Z"/><path class="cls-2" d="M164.82,584a7.63,7.63,0,0,0-.37,3c0,.64,1,.64,1,0a6.88,6.88,0,0,1,.33-2.69C166,583.68,165,583.42,164.82,584Z"/><path class="cls-2" d="M164.43,593.54l-.35,2.11c-.11.63.86.9,1,.27l.35-2.11C165.49,593.17,164.53,592.9,164.43,593.54Z"/><path class="cls-2" d="M164.74,602.13a.5.5,0,0,0-1,0V605a.5.5,0,0,0,1,0Z"/><path class="cls-2" d="M164.39,613.76v-2.82a.5.5,0,0,0-1,0v2.82A.5.5,0,0,0,164.39,613.76Z"/><path class="cls-2" d="M163.74,620.81V624a.5.5,0,0,0,1,0v-3.17A.5.5,0,0,0,163.74,620.81Z"/><path class="cls-2" d="M164.1,629.13a5.78,5.78,0,0,0-.33,3.09c.1.63,1.06.36,1-.27a4.81,4.81,0,0,1,.33-2.56C165.31,628.8,164.34,628.54,164.1,629.13Z"/><path class="cls-2" d="M163.74,638.78v3.52a.5.5,0,0,0,1,0v-3.52A.5.5,0,0,0,163.74,638.78Z"/><path class="cls-2" d="M162.63,654.28v-3.52a.5.5,0,0,0-1,0v3.52A.5.5,0,0,0,162.63,654.28Z"/><path class="cls-2" d="M162.83,663.59a.5.5,0,0,0,0-1A.5.5,0,0,0,162.83,663.59Z"/><path class="cls-2" d="M162.33,669.79v3.88a.5.5,0,0,0,1,0v-3.88A.5.5,0,0,0,162.33,669.79Z"/><path class="cls-2" d="M162.33,680v3.52a.5.5,0,0,0,1,0V680A.5.5,0,0,0,162.33,680Z"/><path class="cls-2" d="M149.65,497.48l-.35,3.88c-.06.64.94.64,1,0l.35-3.88C150.7,496.84,149.7,496.84,149.65,497.48Z"/><path class="cls-2" d="M149.79,508.61a.5.5,0,0,0,0,1A.5.5,0,0,0,149.79,508.61Z"/><path class="cls-2" d="M150.65,518.62v-3.17a.5.5,0,0,0-1,0v3.17A.5.5,0,0,0,150.65,518.62Z"/><path class="cls-2" d="M148.92,524.61l-.35,4.58c0,.64,1,.64,1,0l.35-4.58C150,524,149,524,148.92,524.61Z"/><path class="cls-2" d="M149.94,539.41v-4.58a.5.5,0,0,0-1,0v4.58A.5.5,0,0,0,149.94,539.41Z"/><path class="cls-2" d="M150.29,548.57v-4.23a.5.5,0,0,0-1,0v4.23A.5.5,0,0,0,150.29,548.57Z"/><path class="cls-2" d="M149.42,556.3V559a.5.5,0,0,0,1,0V556.3A.5.5,0,0,0,149.42,556.3Z"/><path class="cls-2" d="M150.42,567v-1.86a.5.5,0,0,0-1,0V567A.5.5,0,0,0,150.42,567Z"/><path class="cls-2" d="M151,576.81v-4.26a.5.5,0,0,0-1,0v4.26A.5.5,0,0,0,151,576.81Z"/><path class="cls-2" d="M149.69,582.67v4a.5.5,0,0,0,1,0v-4A.5.5,0,0,0,149.69,582.67Z"/><path class="cls-2" d="M150.76,593.33v5.86a.5.5,0,0,0,1,0v-5.86A.5.5,0,0,0,150.76,593.33Z"/><path class="cls-2" d="M151.22,609.84l.27-2.66c.06-.64-.94-.64-1,0l-.27,2.66C150.16,610.48,151.16,610.48,151.22,609.84Z"/><path class="cls-2" d="M151.26,615.47a.5.5,0,0,0,0,1A.5.5,0,0,0,151.26,615.47Z"/><path class="cls-2" d="M150.27,622a16.64,16.64,0,0,0-.07,5.06c.09.63,1.05.36,1-.27a15,15,0,0,1,.07-4.53C151.34,621.6,150.37,621.33,150.27,622Z"/><path class="cls-2" d="M150.5,633.15a16.21,16.21,0,0,0-.27,4.4c0,.64,1,.64,1,0a15.22,15.22,0,0,1,.23-4.13C151.59,632.78,150.62,632.52,150.5,633.15Z"/><path class="cls-2" d="M150.24,642.74,150,643.8a.5.5,0,0,0,1,.27l.27-1.07A.5.5,0,0,0,150.24,642.74Z"/><path class="cls-2" d="M150,650.2a7.15,7.15,0,0,0-.27,2.8c.06.63,1.06.64,1,0a6.4,6.4,0,0,1,.24-2.53A.5.5,0,0,0,150,650.2Z"/><path class="cls-2" d="M149.42,663.38l.27,5.33c0,.64,1,.64,1,0l-.27-5.33C150.39,662.74,149.39,662.74,149.42,663.38Z"/><path class="cls-2" d="M148.63,680.7l-.27,3.2c-.05.64.95.64,1,0l.27-3.2C149.68,680.05,148.68,680.06,148.63,680.7Z"/><path class="cls-2" d="M148.86,692.18a.5.5,0,0,0,0,1A.5.5,0,0,0,148.86,692.18Z"/><path class="cls-2" d="M135.24,493.44v-4a.5.5,0,0,0-1,0v4A.5.5,0,0,0,135.24,493.44Z"/><path class="cls-2" d="M135.31,501.17V503a.5.5,0,0,0,1,0v-1.86A.5.5,0,0,0,135.31,501.17Z"/><path class="cls-2" d="M135,508.36v4.53a.5.5,0,0,0,1,0v-4.53A.5.5,0,0,0,135,508.36Z"/><path class="cls-2" d="M135.07,519.41a26.24,26.24,0,0,1,.23,5.46c0,.64,1,.64,1,0a27.48,27.48,0,0,0-.27-5.73C135.94,518.51,135,518.78,135.07,519.41Z"/><path class="cls-2" d="M135.29,531.14l.54,3.46c.1.63,1.06.36,1-.27l-.54-3.46C136.16,530.24,135.19,530.51,135.29,531.14Z"/><path class="cls-2" d="M135.84,541.12v2.4a.5.5,0,0,0,1,0v-2.4A.5.5,0,0,0,135.84,541.12Z"/><path class="cls-2" d="M135.59,550.58a9,9,0,0,0,0,3.2c.11.63,1.08.36,1-.27a7.55,7.55,0,0,1,0-2.66C136.67,550.21,135.7,549.94,135.59,550.58Z"/><path class="cls-2" d="M135.33,557.24a9.22,9.22,0,0,0-.28,3.06c0,.64,1,.64,1,0a8.37,8.37,0,0,1,.25-2.8A.5.5,0,0,0,135.33,557.24Z"/><path class="cls-2" d="M137.35,570.82a12,12,0,0,1-.51-3.86.5.5,0,0,0-1,0,12.91,12.91,0,0,0,.55,4.13A.5.5,0,0,0,137.35,570.82Z"/><path class="cls-2" d="M136.91,579.74v1.86a.5.5,0,0,0,1,0v-1.86A.5.5,0,0,0,136.91,579.74Z"/><path class="cls-2" d="M136.91,589.33l-.27,2.66c-.06.64.94.64,1,0l.27-2.66C138,588.69,137,588.7,136.91,589.33Z"/><path class="cls-2" d="M136.12,597.19a6.16,6.16,0,0,0,.27,3.2c.22.6,1.19.34,1-.27a5.15,5.15,0,0,1-.28-2.66C137.19,596.83,136.22,596.56,136.12,597.19Z"/><path class="cls-2" d="M136.84,606.91a.5.5,0,0,0-1,0v3.73a.5.5,0,0,0,1,0Z"/><path class="cls-2" d="M136.34,618.07a.5.5,0,0,0,0-1A.5.5,0,0,0,136.34,618.07Z"/><path class="cls-2" d="M136.57,625.69l.27-1.6c.11-.63-.86-.9-1-.27l-.27,1.6C135.5,626.06,136.46,626.33,136.57,625.69Z"/><path class="cls-2" d="M137.11,633a.5.5,0,0,0-1,0v4.26a.5.5,0,0,0,1,0Z"/><path class="cls-2" d="M136.11,641.27l-.27,2.4c-.07.64.93.63,1,0l.27-2.4C137.18,640.63,136.18,640.64,136.11,641.27Z"/><path class="cls-2" d="M135.84,647.93l.27,3.73c0,.64,1,.64,1,0l-.27-3.73C136.79,647.29,135.79,647.29,135.84,647.93Z"/><path class="cls-2" d="M136,659.12c0-.64-1-.64-1,0a21.38,21.38,0,0,1-.25,4.66c-.1.63.86.9,1,.27A22.59,22.59,0,0,0,136,659.12Z"/><path class="cls-2" d="M137,672.85a6.24,6.24,0,0,1,.07-2.93.5.5,0,0,0-1-.27,7.39,7.39,0,0,0-.07,3.47C136.21,673.74,137.18,673.48,137,672.85Z"/><path class="cls-2" d="M137.16,680.43c0-.64-1-.64-1,0a13.58,13.58,0,0,0,.68,4.69c.2.61,1.17.35,1-.27A12.77,12.77,0,0,1,137.16,680.43Z"/><path class="cls-2" d="M120.62,486.78l-.26,4.26c0,.64,1,.64,1,0l.26-4.26C121.66,486.14,120.66,486.14,120.62,486.78Z"/><path class="cls-2" d="M121.16,497.74a.5.5,0,0,0,0,1A.5.5,0,0,0,121.16,497.74Z"/><path class="cls-2" d="M121.42,504.66a.5.5,0,0,0,0,1A.5.5,0,0,0,121.42,504.66Z"/><path class="cls-2" d="M120.66,512.35l-.27,4c0,.64,1,.64,1,0l.27-4C121.7,511.71,120.7,511.71,120.66,512.35Z"/><path class="cls-2" d="M121.12,529.4v-3.46a.5.5,0,0,0-1,0v3.46A.5.5,0,0,0,121.12,529.4Z"/><path class="cls-2" d="M121.74,541.91l-.43-5.07c-.05-.64-1.06-.64-1,0l.43,5.07C120.8,542.55,121.8,542.56,121.74,541.91Z"/><path class="cls-2" d="M122.19,550.71v-2.4a.5.5,0,0,0-1,0v2.4A.5.5,0,0,0,122.19,550.71Z"/><path class="cls-2" d="M121.72,556.57v3.73a.5.5,0,0,0,1,0v-3.73A.5.5,0,0,0,121.72,556.57Z"/><path class="cls-2" d="M122.22,568.26a.5.5,0,0,0,0-1A.5.5,0,0,0,122.22,568.26Z"/><path class="cls-2" d="M122.72,578.15l-.27-4.26c0-.64-1-.64-1,0l.27,4.26C121.76,578.79,122.76,578.79,122.72,578.15Z"/><path class="cls-2" d="M122.26,584.54v2.93a.5.5,0,0,0,1,0v-2.93A.5.5,0,0,0,122.26,584.54Z"/><path class="cls-2" d="M123.05,594.66v2.4a.5.5,0,0,0,1,0v-2.4A.5.5,0,0,0,123.05,594.66Z"/><path class="cls-2" d="M123.58,605.31l-.27,4c0,.64,1,.64,1,0l.27-4C124.62,604.67,123.62,604.67,123.58,605.31Z"/><path class="cls-2" d="M122.26,615.44v4a.5.5,0,0,0,1,0v-4A.5.5,0,0,0,122.26,615.44Z"/><path class="cls-2" d="M123.07,624.89l-.27,1.86c-.09.63.87.9,1,.27l.27-1.86C124.13,624.53,123.16,624.26,123.07,624.89Z"/><path class="cls-2" d="M122.81,632.62a16.48,16.48,0,0,0-.28,4.39c0,.64,1,.64,1,0a15.46,15.46,0,0,1,.25-4.13C123.89,632.25,122.93,632,122.81,632.62Z"/><path class="cls-2" d="M123.69,649.83a6.4,6.4,0,0,1-.42-3.62c.11-.63-.86-.9-1-.27a7.62,7.62,0,0,0,.52,4.39C123.08,650.92,123.94,650.41,123.69,649.83Z"/><path class="cls-2" d="M123.59,665l.27,3.2c.05.64,1.05.64,1,0l-.27-3.2C124.53,664.34,123.53,664.34,123.59,665Z"/><path class="cls-2" d="M124.12,674.3l-.53,5.06c-.07.64.93.63,1,0l.53-5.06C125.19,673.66,124.19,673.67,124.12,674.3Z"/><path class="cls-2" d="M106.81,481.46a24,24,0,0,0,.26,5.2c.1.63,1.06.36,1-.27a22.79,22.79,0,0,1-.22-4.93C107.85,480.81,106.85,480.82,106.81,481.46Z"/><path class="cls-2" d="M107.84,493.21a.5.5,0,0,0,0,1A.5.5,0,0,0,107.84,493.21Z"/><path class="cls-2" d="M106.81,500.37v5.06a.5.5,0,0,0,1,0v-5.06A.5.5,0,0,0,106.81,500.37Z"/><path class="cls-2" d="M106.54,512.62v4.79a.5.5,0,0,0,1,0v-4.79A.5.5,0,0,0,106.54,512.62Z"/><path class="cls-2" d="M108.84,529.54a18.91,18.91,0,0,1-.22-4.66c0-.64-1-.64-1,0a20,20,0,0,0,.26,4.93C108,530.44,108.95,530.17,108.84,529.54Z"/><path class="cls-2" d="M109.67,537.13a.5.5,0,0,0-1,0v3.46a.5.5,0,0,0,1,0Z"/><path class="cls-2" d="M108.83,551l.28-5.06c0-.64-1-.64-1,0l-.28,5.06C107.79,551.62,108.79,551.62,108.83,551Z"/><path class="cls-2" d="M109.4,563V559.5a.5.5,0,0,0-1,0V563A.5.5,0,0,0,109.4,563Z"/><path class="cls-2" d="M108.4,572.82c0,.64,1,.64,1,0a9.84,9.84,0,0,1,.25-3.06c.15-.62-.81-.89-1-.27A10.74,10.74,0,0,0,108.4,572.82Z"/><path class="cls-2" d="M109.12,583.07a19.06,19.06,0,0,0,.28-4.39c0-.64-1-.64-1,0a17.89,17.89,0,0,1-.25,4.13C108,583.44,109,583.71,109.12,583.07Z"/><path class="cls-2" d="M109.67,589.33a.5.5,0,0,0-1,0v3.73a.5.5,0,0,0,1,0Z"/><path class="cls-2" d="M108.4,604c.06.64,1.06.64,1,0l-.27-2.93c-.06-.64-1.06-.64-1,0Z"/><path class="cls-2" d="M109.67,611.71a.5.5,0,0,0-1,0v2.4a.5.5,0,0,0,1,0Z"/><path class="cls-2" d="M109.67,623.16v-1.33a.5.5,0,0,0-1,0v1.33A.5.5,0,0,0,109.67,623.16Z"/><path class="cls-2" d="M109.4,633.28a.5.5,0,0,0-1,0V637a.5.5,0,0,0,1,0Z"/><path class="cls-2" d="M108.42,644.07l-.27,1.86c-.09.63.87.9,1,.27l.27-1.86C109.48,643.71,108.51,643.44,108.42,644.07Z"/><path class="cls-2" d="M109.14,657.26v-4.79a.5.5,0,0,0-1,0v4.79A.5.5,0,0,0,109.14,657.26Z"/><path class="cls-2" d="M109,666l.27,2.66c.06.63,1.06.64,1,0L110,666C109.9,665.41,108.9,665.4,109,666Z"/><path class="cls-2" d="M109.17,662.35a.5.5,0,0,0,0,1A.5.5,0,0,0,109.17,662.35Z"/><path class="cls-2" d="M94,479.59a21.67,21.67,0,0,1-.23,4.93c-.1.63.86.9,1,.27a22.81,22.81,0,0,0,.26-5.2C95,479,94,478.95,94,479.59Z"/><path class="cls-2" d="M93.49,491.31l.27,4c0,.64,1,.64,1,0l-.27-4C94.45,490.67,93.45,490.67,93.49,491.31Z"/><path class="cls-2" d="M93.25,502.63a21.62,21.62,0,0,0-.05,5.73c.08.63,1.08.64,1,0a20.69,20.69,0,0,1,0-5.46C94.3,502.27,93.34,502,93.25,502.63Z"/><path class="cls-2" d="M81.24,479.86a9.54,9.54,0,0,0,.55,3.86c.22.6,1.18.34,1-.27a8.82,8.82,0,0,1-.51-3.6C82.28,479.22,81.28,479.22,81.24,479.86Z"/><path class="cls-2" d="M81,491.18l.53,2.13a.5.5,0,0,0,1-.27L82,490.91A.5.5,0,0,0,81,491.18Z"/><path class="cls-2" d="M93.69,519.81v-3.46a.5.5,0,0,0-1,0v3.46A.5.5,0,0,0,93.69,519.81Z"/><path class="cls-2" d="M92.43,530.47c.08.63,1.08.64,1,0a5.88,5.88,0,0,1,.24-2.53c.2-.61-.77-.88-1-.27A6.58,6.58,0,0,0,92.43,530.47Z"/><path class="cls-2" d="M93.19,535.83a.5.5,0,0,0,0,1A.5.5,0,0,0,93.19,535.83Z"/><path class="cls-2" d="M92.16,542.19v4.53a.5.5,0,0,0,1,0v-4.53A.5.5,0,0,0,92.16,542.19Z"/><path class="cls-2" d="M92.42,556.57v4a.5.5,0,0,0,1,0v-4A.5.5,0,0,0,92.42,556.57Z"/><path class="cls-2" d="M93,567l-.27,2.66c-.06.64.94.64,1,0L94,567C94,566.32,93,566.32,93,567Z"/><path class="cls-2" d="M91.62,577.61v3.73a.5.5,0,0,0,1,0v-3.73A.5.5,0,0,0,91.62,577.61Z"/><path class="cls-2" d="M91.62,586.67a12.05,12.05,0,0,1-.23,3.6c-.14.63.83.9,1,.27a13,13,0,0,0,.26-3.86C92.56,586,91.56,586,91.62,586.67Z"/><path class="cls-2" d="M91.09,596.52v3.73a.5.5,0,0,0,1,0v-3.73A.5.5,0,0,0,91.09,596.52Z"/><path class="cls-2" d="M90.29,610.11v1.33a.5.5,0,0,0,1,0v-1.33A.5.5,0,0,0,90.29,610.11Z"/><path class="cls-2" d="M91.82,617.7c-.11-.63-1.08-.36-1,.27a18.11,18.11,0,0,1,.22,4.4c0,.64,1,.64,1,0A19.21,19.21,0,0,0,91.82,617.7Z"/><path class="cls-2" d="M90.82,629.55l-.31,3.73c-.05.64.95.64,1,0l.31-3.73C91.88,628.91,90.88,628.92,90.82,629.55Z"/><path class="cls-2" d="M91.19,647.52l.84-5.85c.09-.63-.87-.9-1-.27l-.84,5.85C90.13,647.88,91.1,648.16,91.19,647.52Z"/><path class="cls-2" d="M92.09,655.39a.5.5,0,0,0-1,0v4a.5.5,0,0,0,1,0Z"/><path class="cls-2" d="M91.09,666.58V673a.5.5,0,0,0,1,0v-6.39A.5.5,0,0,0,91.09,666.58Z"/><path class="cls-2" d="M91.56,682v-3.2a.5.5,0,0,0-1,0V682A.5.5,0,0,0,91.56,682Z"/><path class="cls-2" d="M92.14,688.83c.12-.63-.85-.9-1-.27a13,13,0,0,0,.37,6.41c.19.61,1.16.35,1-.27A11.94,11.94,0,0,1,92.14,688.83Z"/><path class="cls-2" d="M82.77,503.56v-2.13a.5.5,0,0,0-1,0v2.13A.5.5,0,0,0,82.77,503.56Z"/><path class="cls-2" d="M82.54,508.92a.5.5,0,0,0,0,1A.5.5,0,0,0,82.54,508.92Z"/><path class="cls-2" d="M83.3,517.15v-1.33a.5.5,0,0,0-1,0v1.33A.5.5,0,0,0,83.3,517.15Z"/><path class="cls-2" d="M83,531.53v-4a.5.5,0,0,0-1,0v4A.5.5,0,0,0,83,531.53Z"/><path class="cls-2" d="M82.86,539.53l-.26,2.13c-.08.64.92.63,1,0l.26-2.13C83.94,538.89,82.94,538.89,82.86,539.53Z"/><path class="cls-2" d="M82.76,549.11c-.08-.63-1.08-.64-1,0a4,4,0,0,1-.24,2c-.23.6.74.86,1,.27A4.66,4.66,0,0,0,82.76,549.11Z"/><path class="cls-2" d="M82.16,558.29l.26-1.6c.1-.63-.86-.9-1-.27L81.2,558C81.1,558.66,82.06,558.93,82.16,558.29Z"/><path class="cls-2" d="M82.75,569a17.78,17.78,0,0,1-.25-4.13c0-.64-1-.64-1,0a18.92,18.92,0,0,0,.28,4.39C81.9,569.85,82.86,569.59,82.75,569Z"/><path class="cls-2" d="M82.54,574.18a.5.5,0,0,0,0,1A.5.5,0,0,0,82.54,574.18Z"/><path class="cls-2" d="M81.5,580v3.46a.5.5,0,0,0,1,0V580A.5.5,0,0,0,81.5,580Z"/><path class="cls-2" d="M81.49,588.66l-.27,1.86c-.09.63.87.9,1,.27l.27-1.86C82.54,588.3,81.58,588,81.49,588.66Z"/><path class="cls-2" d="M81,596.65l-.54,2.13a.5.5,0,0,0,1,.27l.54-2.13A.5.5,0,0,0,81,596.65Z"/><path class="cls-2" d="M80.7,604v1.86a.5.5,0,0,0,1,0V604A.5.5,0,0,0,80.7,604Z"/><path class="cls-2" d="M80.7,610.38V612a.5.5,0,0,0,1,0v-1.6A.5.5,0,0,0,80.7,610.38Z"/><path class="cls-2" d="M80.17,615.17v2.93a.5.5,0,0,0,1,0v-2.93A.5.5,0,0,0,80.17,615.17Z"/><path class="cls-2" d="M80.64,625.56v-2.4a.5.5,0,0,0-1,0v2.4A.5.5,0,0,0,80.64,625.56Z"/><path class="cls-2" d="M79.66,631a5.93,5.93,0,0,0-.28,2.26c0,.64,1,.64,1,0a5.16,5.16,0,0,1,.25-2C80.82,630.67,79.86,630.41,79.66,631Z"/><path class="cls-2" d="M79.11,639.94l.27,2.13c.08.63,1.08.64,1,0l-.27-2.13C80,639.31,79,639.3,79.11,639.94Z"/><path class="cls-2" d="M79.37,646.33v3.2a.5.5,0,0,0,1,0v-3.2A.5.5,0,0,0,79.37,646.33Z"/><path class="cls-2" d="M80.11,656.19v-2.93a.5.5,0,0,0-1,0v2.93A.5.5,0,0,0,80.11,656.19Z"/><path class="cls-2" d="M79.37,664.45v1.86a.5.5,0,0,0,1,0v-1.86A.5.5,0,0,0,79.37,664.45Z"/><path class="cls-2" d="M78.84,672.7v1.6a.5.5,0,0,0,1,0v-1.6A.5.5,0,0,0,78.84,672.7Z"/><path class="cls-2" d="M78.59,683.23l-.27,1.07a.5.5,0,0,0,1,.27l.27-1.07A.5.5,0,0,0,78.59,683.23Z"/><path class="cls-2" d="M66.53,490a10,10,0,0,1,.48-3.34c.2-.61-.77-.88-1-.27a10.83,10.83,0,0,0-.52,3.6A.5.5,0,0,0,66.53,490Z"/><path class="cls-2" d="M67.65,495.84v2.4a.5.5,0,0,0,1,0v-2.4A.5.5,0,0,0,67.65,495.84Z"/><path class="cls-2" d="M68.42,503.6a.5.5,0,0,0,0,1A.5.5,0,0,0,68.42,503.6Z"/><path class="cls-2" d="M69.7,513.69l-.27-4c0-.64-1-.64-1,0l.27,4C68.75,514.33,69.75,514.33,69.7,513.69Z"/><path class="cls-2" d="M68.18,521.14v1.07a.5.5,0,0,0,1,0v-1.07A.5.5,0,0,0,68.18,521.14Z"/><path class="cls-2" d="M69.49,529c.12-.63-.84-.9-1-.27a8.86,8.86,0,0,0,.37,4.82c.22.6,1.19.34,1-.27A7.86,7.86,0,0,1,69.49,529Z"/><path class="cls-2" d="M69.45,544.85v-4a.5.5,0,0,0-1,0v4A.5.5,0,0,0,69.45,544.85Z"/><path class="cls-2" d="M68.45,553.64a.5.5,0,0,0,1,0V551a.5.5,0,0,0-1,0Z"/><path class="cls-2" d="M69.46,560.16a.5.5,0,0,0-1,.27l.27,1.07a.5.5,0,0,0,1-.27Z"/><path class="cls-2" d="M68.47,567.89a9.42,9.42,0,0,0,0,3.2c.11.63,1.07.36,1-.27a8,8,0,0,1,0-2.66C69.54,567.53,68.58,567.26,68.47,567.89Z"/><path class="cls-2" d="M68.18,580.28v3.2a.5.5,0,0,0,1,0v-3.2A.5.5,0,0,0,68.18,580.28Z"/><path class="cls-2" d="M68.65,589.87a.5.5,0,0,0-1,0v2.66a.5.5,0,0,0,1,0Z"/><path class="cls-2" d="M67.39,599.45l.27,4.53c0,.64,1,.64,1,0l-.27-4.53C68.35,598.82,67.35,598.81,67.39,599.45Z"/><path class="cls-2" d="M67.65,611.17l.27,2.13c.08.63,1.08.64,1,0l-.27-2.13C68.57,610.54,67.57,610.54,67.65,611.17Z"/><path class="cls-2" d="M67.14,621.7,66.87,623c-.13.63.84.9,1,.27L68.1,622C68.23,621.33,67.26,621.06,67.14,621.7Z"/><path class="cls-2" d="M67.59,629.55a.5.5,0,0,0-1,0v4.26a.5.5,0,0,0,1,0Z"/><path class="cls-2" d="M66.33,639.81a7.15,7.15,0,0,0-.27,2.8c.06.63,1.06.64,1,0a6.4,6.4,0,0,1,.24-2.53A.5.5,0,0,0,66.33,639.81Z"/><path class="cls-2" d="M66.05,649.8v2.93a.5.5,0,0,0,1,0V649.8A.5.5,0,0,0,66.05,649.8Z"/><path class="cls-2" d="M65.79,659.39v3.2a.5.5,0,0,0,1,0v-3.2A.5.5,0,0,0,65.79,659.39Z"/><path class="cls-2" d="M67.51,671l-.26-1.87c-.09-.63-1.05-.36-1,.27l.26,1.87C66.63,671.88,67.6,671.61,67.51,671Z"/><path class="cls-2" d="M66.85,676.43v3.2a.5.5,0,0,0,1,0v-3.2A.5.5,0,0,0,66.85,676.43Z"/><path class="cls-2" d="M65.79,687.62v3.46a.5.5,0,0,0,1,0v-3.46A.5.5,0,0,0,65.79,687.62Z"/><path class="cls-2" d="M53,489.31a12.71,12.71,0,0,0-.28,3.86c.05.64,1.05.64,1,0a11.81,11.81,0,0,1,.25-3.6C54.13,489,53.16,488.69,53,489.31Z"/><path class="cls-2" d="M53.5,500.6a.5.5,0,0,0,0-1A.5.5,0,0,0,53.5,500.6Z"/><path class="cls-2" d="M53,507.3l.27,3.46c.05.64,1.05.64,1,0L54,507.3C53.92,506.66,52.92,506.65,53,507.3Z"/><path class="cls-2" d="M54,517.95v-2.4a.5.5,0,0,0-1,0v2.4A.5.5,0,0,0,54,517.95Z"/><path class="cls-2" d="M52.74,524.07a18.47,18.47,0,0,0,.28,4.39c.12.63,1.08.36,1-.27a17.35,17.35,0,0,1-.25-4.13C53.77,523.43,52.77,523.43,52.74,524.07Z"/><path class="cls-2" d="M53.27,534.2v2.66a.5.5,0,0,0,1,0V534.2A.5.5,0,0,0,53.27,534.2Z"/><path class="cls-2" d="M54.53,547v-3.2a.5.5,0,0,0-1,0V547A.5.5,0,0,0,54.53,547Z"/><path class="cls-2" d="M54,554.71a.5.5,0,0,0-1,0v4a.5.5,0,0,0,1,0Z"/><path class="cls-2" d="M54,569.36v-4.53a.5.5,0,0,0-1,0v4.53A.5.5,0,0,0,54,569.36Z"/><path class="cls-2" d="M53.8,576.81V580a.5.5,0,0,0,1,0v-3.2A.5.5,0,0,0,53.8,576.81Z"/><path class="cls-2" d="M53.82,588.13a9.81,9.81,0,0,0-.28,3.33c.06.64,1.06.64,1,0a9,9,0,0,1,.25-3.06A.5.5,0,0,0,53.82,588.13Z"/><path class="cls-2" d="M53.27,598.12v2.4a.5.5,0,0,0,1,0v-2.4A.5.5,0,0,0,53.27,598.12Z"/><path class="cls-2" d="M52.47,606.65v2.13a.5.5,0,0,0,1,0v-2.13A.5.5,0,0,0,52.47,606.65Z"/><path class="cls-2" d="M52.5,616.11,52,618.24a.5.5,0,0,0,1,.27l.53-2.13A.5.5,0,0,0,52.5,616.11Z"/><path class="cls-2" d="M52.67,628.49v-3.2a.5.5,0,0,0-1,0v3.2A.5.5,0,0,0,52.67,628.49Z"/><path class="cls-2" d="M52.2,634.88l.27,2.66c.06.63,1.06.64,1,0l-.27-2.66C53.14,634.25,52.14,634.24,52.2,634.88Z"/><path class="cls-2" d="M51.94,645.54v2.13a.5.5,0,0,0,1,0v-2.13A.5.5,0,0,0,51.94,645.54Z"/><path class="cls-2" d="M52.43,657.26l.28-2.93c.06-.64-.94-.64-1,0l-.28,2.93C51.37,657.9,52.37,657.89,52.43,657.26Z"/><path class="cls-2" d="M51.37,663.41a.5.5,0,0,0,0,1A.5.5,0,0,0,51.37,663.41Z"/><path class="cls-2" d="M52.67,674.83v-3.73a.5.5,0,0,0-1,0v3.73A.5.5,0,0,0,52.67,674.83Z"/><path class="cls-2" d="M51.94,683.09v1.33a.5.5,0,0,0,1,0v-1.33A.5.5,0,0,0,51.94,683.09Z"/><path class="cls-2" d="M40.68,502.5a.5.5,0,0,0-1,0,13.85,13.85,0,0,0,.55,3.86.5.5,0,0,0,1-.27A12.85,12.85,0,0,1,40.68,502.5Z"/><path class="cls-2" d="M40.22,512.09v2.66a.5.5,0,0,0,1,0v-2.66A.5.5,0,0,0,40.22,512.09Z"/><path class="cls-2" d="M39.92,520.64a.5.5,0,0,0,0,1A.5.5,0,0,0,39.92,520.64Z"/><path class="cls-2" d="M39.6,493.84c-.2-.61-1.17-.35-1,.27l.53,1.6c.2.61,1.17.35,1-.27Z"/><path class="cls-2" d="M38.82,530.2v-1.86a.5.5,0,0,0-1,0v1.86A.5.5,0,0,0,38.82,530.2Z"/><path class="cls-2" d="M39.88,537.93v-1.6a.5.5,0,0,0-1,0v1.6A.5.5,0,0,0,39.88,537.93Z"/><path class="cls-2" d="M41.22,545.92V543a.5.5,0,0,0-1,0v2.93A.5.5,0,0,0,41.22,545.92Z"/><path class="cls-2" d="M41.48,552.84v-2.4a.5.5,0,0,0-1,0v2.4A.5.5,0,0,0,41.48,552.84Z"/><path class="cls-2" d="M40.75,558.44l-.27,2.13c-.08.64.92.63,1,0l.27-2.13C41.83,557.8,40.83,557.8,40.75,558.44Z"/><path class="cls-2" d="M41.22,569.89v-2.13a.5.5,0,0,0-1,0v2.13A.5.5,0,0,0,41.22,569.89Z"/><path class="cls-2" d="M40.48,574.68v3.46a.5.5,0,0,0,1,0v-3.46A.5.5,0,0,0,40.48,574.68Z"/><path class="cls-2" d="M40.22,584v1.86a.5.5,0,0,0,1,0V584A.5.5,0,0,0,40.22,584Z"/><path class="cls-2" d="M40.45,593.3a.5.5,0,0,0,0-1A.5.5,0,0,0,40.45,593.3Z"/><path class="cls-2" d="M40,598.39V600a.5.5,0,0,0,1,0v-1.6A.5.5,0,0,0,40,598.39Z"/><path class="cls-2" d="M40.15,610.38V609a.5.5,0,0,0-1,0v1.33A.5.5,0,0,0,40.15,610.38Z"/><path class="cls-2" d="M39.15,621.56l.27,2.13c.08.63,1.08.64,1,0l-.27-2.13C40.07,620.93,39.07,620.92,39.15,621.56Z"/><path class="cls-2" d="M39.38,632a.5.5,0,0,0,0,1A.5.5,0,0,0,39.38,632Z"/><path class="cls-2" d="M39.12,640.18a.5.5,0,0,0,0-1A.5.5,0,0,0,39.12,640.18Z"/><path class="cls-2" d="M39.09,649.26a14.9,14.9,0,0,1,.25-3.6c.12-.63-.84-.9-1-.27a16,16,0,0,0-.28,3.86C38.12,649.9,39.12,649.91,39.09,649.26Z"/><path class="cls-2" d="M39.42,658.32v1.07a.5.5,0,0,0,1,0v-1.07A.5.5,0,0,0,39.42,658.32Z"/><path class="cls-2" d="M38.62,667.11v1.07a.5.5,0,0,0,1,0v-1.07A.5.5,0,0,0,38.62,667.11Z"/><path class="cls-2" d="M26.92,509.29a9,9,0,0,0,0,3.2c.11.63,1.08.36,1-.27a7.55,7.55,0,0,1,0-2.66C28,508.93,27,508.66,26.92,509.29Z"/><path class="cls-2" d="M27.13,518.45a.5.5,0,0,0,0-1A.5.5,0,0,0,27.13,518.45Z"/><path class="cls-2" d="M26.63,526.47a.5.5,0,0,0,1,0v-4a.5.5,0,0,0-1,0Z"/><path class="cls-2" d="M26.87,532.3a.5.5,0,0,0,0-1A.5.5,0,0,0,26.87,532.3Z"/><path class="cls-2" d="M27.55,539.94a6.24,6.24,0,0,1,.11-2.66.5.5,0,0,0-1-.27,7.46,7.46,0,0,0-.11,3.2C26.69,540.83,27.66,540.57,27.55,539.94Z"/><path class="cls-2" d="M28.34,551.27a5.05,5.05,0,0,1-.44-2.69c.06-.64-.94-.64-1,0a6,6,0,0,0,.57,3.19C27.75,552.35,28.61,551.85,28.34,551.27Z"/><path class="cls-2" d="M28.16,557.37c0-.64-1-.64-1,0a7.38,7.38,0,0,0,.6,2.65c.25.59,1.11.08.86-.5A6,6,0,0,1,28.16,557.37Z"/><path class="cls-2" d="M28.43,568.29v-3.46a.5.5,0,0,0-1,0v3.46A.5.5,0,0,0,28.43,568.29Z"/><path class="cls-2" d="M27.16,573.62v1.86a.5.5,0,0,0,1,0v-1.86A.5.5,0,0,0,27.16,573.62Z"/><path class="cls-2" d="M28.92,586.81l-.52-2.93c-.11-.63-1.08-.36-1,.27l.52,2.93C28.07,587.71,29,587.44,28.92,586.81Z"/><path class="cls-2" d="M28.64,596.26q0-.93,0-1.86a.5.5,0,0,0-1,0q0,.93,0,1.86A.5.5,0,0,0,28.64,596.26Z"/><path class="cls-2" d="M28.14,603.71l.3-2.93c.07-.64-.94-.64-1,0l-.3,2.93C27.07,604.35,28.07,604.35,28.14,603.71Z"/><path class="cls-2" d="M28.13,615.17l.33-2.92c.07-.64-.93-.63-1,0l-.33,2.92C27.06,615.8,28.06,615.8,28.13,615.17Z"/><path class="cls-2" d="M29,624.49c.07-.64-.93-.63-1,0a9,9,0,0,0,.27,3.33.5.5,0,0,0,1-.27A8.21,8.21,0,0,1,29,624.49Z"/><path class="cls-2" d="M28.46,634.65a.5.5,0,0,0,0,1A.5.5,0,0,0,28.46,634.65Z"/><path class="cls-2" d="M27.9,645.8v-3.2a.5.5,0,0,0-1,0v3.2A.5.5,0,0,0,27.9,645.8Z"/><path class="cls-2" d="M28.16,654.06v-1.33a.5.5,0,0,0-1,0v1.33A.5.5,0,0,0,28.16,654.06Z"/><path class="cls-2" d="M27.45,661.38a13.35,13.35,0,0,1,.25,3.33c0,.64,1,.64,1,0a14.45,14.45,0,0,0-.28-3.6C28.28,660.49,27.32,660.75,27.45,661.38Z"/><path class="cls-2" d="M28.43,675.63a6.78,6.78,0,0,1,.25-2.26.5.5,0,0,0-1-.27,7.65,7.65,0,0,0-.28,2.53C27.47,676.27,28.47,676.28,28.43,675.63Z"/><path class="cls-2" d="M28.73,682.33a.5.5,0,0,0,0,1A.5.5,0,0,0,28.73,682.33Z"/><path class="cls-2" d="M13.78,512.09v-2.66a.5.5,0,0,0-1,0v2.66A.5.5,0,0,0,13.78,512.09Z"/><path class="cls-2" d="M13.81,519.25a.5.5,0,0,0,0-1A.5.5,0,0,0,13.81,519.25Z"/><path class="cls-2" d="M13.57,523.54a10.55,10.55,0,0,1-.23,3.33c-.15.63.82.89,1,.27a11.42,11.42,0,0,0,.27-3.6C14.52,522.91,13.52,522.9,13.57,523.54Z"/><path class="cls-2" d="M13.6,532.2l-.27.8c-.2.61.76.87,1,.27l.27-.8C14.77,531.85,13.8,531.59,13.6,532.2Z"/><path class="cls-2" d="M13.58,538.72v2.13a.5.5,0,0,0,1,0v-2.13A.5.5,0,0,0,13.58,538.72Z"/><path class="cls-2" d="M14.65,549.65v3.2a.5.5,0,0,0,1,0v-3.2A.5.5,0,0,0,14.65,549.65Z"/><path class="cls-2" d="M15.44,559.23v2.13a.5.5,0,0,0,1,0v-2.13A.5.5,0,0,0,15.44,559.23Z"/><path class="cls-2" d="M16.51,569.62a11.26,11.26,0,0,0,.28,3.33c.15.63,1.11.36,1-.27a10.33,10.33,0,0,1-.25-3.06C17.55,569,16.55,569,16.51,569.62Z"/><path class="cls-2" d="M17.28,580.84a.5.5,0,0,0,0,1A.5.5,0,0,0,17.28,580.84Z"/><path class="cls-2" d="M16.24,587.47v2.4a.5.5,0,0,0,1,0v-2.4A.5.5,0,0,0,16.24,587.47Z"/><path class="cls-2" d="M16,594.93v3.2a.5.5,0,0,0,1,0v-3.2A.5.5,0,0,0,16,594.93Z"/><path class="cls-2" d="M17,603.72l.27,2.13c.08.63,1.08.64,1,0L18,603.72C18,603.09,17,603.08,17,603.72Z"/><path class="cls-2" d="M16.22,618.36l-.28,3.73c0,.64,1,.64,1,0l.28-3.73C17.27,617.72,16.27,617.73,16.22,618.36Z"/><path class="cls-2" d="M15.68,629.05a.5.5,0,0,0,0,1A.5.5,0,0,0,15.68,629.05Z"/><path class="cls-2" d="M15.44,635.95l-.27,2.66c-.06.64.94.64,1,0l.27-2.66C16.51,635.31,15.51,635.31,15.44,635.95Z"/><path class="cls-2" d="M15.24,645.66l.77,4c.12.63,1.09.36,1-.27l-.77-4C16.08,644.76,15.11,645,15.24,645.66Z"/><path class="cls-2" d="M16,657.26l-.27,2.93c-.06.64.94.64,1,0l.27-2.93C17,656.61,16,656.62,16,657.26Z"/><path class="cls-2" d="M16,668.44v1.86a.5.5,0,0,0,1,0v-1.86A.5.5,0,0,0,16,668.44Z"/><path class="cls-2" d="M16,680a18.13,18.13,0,0,0-.28,4.13c0,.64,1,.64,1,0A17,17,0,0,1,17,680.3C17.07,679.67,16.11,679.4,16,680Z"/><path class="cls-2" d="M15.2,690.15l-.53,3.46c-.1.63.87.9,1,.27l.53-3.46C16.26,689.79,15.29,689.52,15.2,690.15Z"/><path class="cls-2" d="M2,554q0,1.8-.06,3.6a.48.48,0,0,0,.63-.46v-2.66A.48.48,0,0,0,2,554Z"/><path class="cls-2" d="M2.59,564.56a.53.53,0,0,0-.75-.43c0,1,0,2-.05,3l.07.89c0,.64,1,.64,1,0Z"/><path class="cls-2" d="M2.12,574.55l.26,1.86c.09.63,1.05.36,1-.27l-.26-1.87C3,573.65,2,573.92,2.12,574.55Z"/><path class="cls-2" d="M3.19,588a.5.5,0,0,0,1,0v-4.53a.5.5,0,0,0-1,0Z"/><path class="cls-2" d="M4,594.69a.5.5,0,0,0,0,1A.5.5,0,0,0,4,594.69Z"/><path class="cls-2" d="M2.66,606.19a4.9,4.9,0,0,1-.26-3.38.5.5,0,0,0-1-.27,6,6,0,0,0,.37,4.15C2.07,607.28,2.93,606.77,2.66,606.19Z"/><path class="cls-2" d="M2.66,612.77v1.33a.5.5,0,0,0,1,0v-1.33A.5.5,0,0,0,2.66,612.77Z"/><path class="cls-2" d="M2.41,619.43l-.27,3.46c-.05.64.95.64,1,0l.27-3.46C3.46,618.79,2.46,618.8,2.41,619.43Z"/><path class="cls-2" d="M2.63,631.65a.5.5,0,0,0,0-1A.5.5,0,0,0,2.63,631.65Z"/><path class="cls-2" d="M2.16,636.48l-.54,4.26c-.08.64.92.63,1,0l.54-4.26C3.24,635.85,2.24,635.85,2.16,636.48Z"/><path class="cls-2" d="M2.58,644.87c-.2-.61-1.17-.35-1,.27l.27.8c.2.61,1.17.35,1-.27Z"/><path class="cls-2" d="M1.06,656.19v2.93a.5.5,0,0,0,1,0v-2.93A.5.5,0,0,0,1.06,656.19Z"/><path class="cls-2" d="M1.35,667.51l-.27,1.6c-.1.63.86.9,1,.27l.27-1.6C2.41,667.15,1.45,666.88,1.35,667.51Z"/><path class="cls-2" d="M1.06,675.37v4a.5.5,0,0,0,1,0v-4A.5.5,0,0,0,1.06,675.37Z"/><path class="cls-2" d="M.27,685.22,0,690.82c0,.64,1,.64,1,0l.27-5.59C1.3,684.58.3,684.58.27,685.22Z"/><path class="cls-1" d="M525.57,88.67c-2.19-5.26-7.39-3.14-11.55-2.21-6.35,1.42-10.84-3.43-17-2.86a4.31,4.31,0,0,0-3.6,5.71,68.94,68.94,0,0,1-8.43.27c-1.62,0-6.38.29-6.89-1.79-.33-1.35,1.19-4.1,1.17-5.65-.15-9.2-12.81-10.46-19.12-13.51a4,4,0,0,0-4,6.91c3.54,2.46,11.53,6.12,4.55,10-3.37,1.9-7.35,1.81-11,.83a23.21,23.21,0,0,1-2.45-2.84c-2-2.76-6.21-2.51-7.31,1a6.13,6.13,0,0,0,2.44,7.26,3.29,3.29,0,0,0,1.2.89q1.23.55,2.5,1.07A30.23,30.23,0,0,0,464.46,101c6.08.22,12-1.76,18-1.84,6.66-.09,13,.53,19.71-.28,5.82-.71,11.76-1.47,17.5-2.63C523.57,95.44,527.48,93.27,525.57,88.67Z"/><path class="cls-1" d="M588,58.92a35.46,35.46,0,0,0-9.71-1.23,33.67,33.67,0,0,0-4.55.46s-3.51.68-3.67,1.29c-.41-.75-1-2.62-1.28-3.11a15.59,15.59,0,0,0-2.34-2.91,17.6,17.6,0,0,0-7.06-4.15C554,47.6,546.76,48,541.79,50.73c-5.46,3-4.37,8.3-4.39,13.55s8,5.16,8,0c0-1.48-.79-4.22-.26-5.57.89-2.29,6.15-2.41,8.14-2.36a11,11,0,0,1,6.78,2.19c1.85,1.49,2,3.21,3.14,5.12,1.55,2.68,3.94,3.67,7,3.38,5.68-.54,9.89-1.86,15.65-.4C590.82,67.9,592.95,60.19,588,58.92Z"/><path class="cls-1" d="M571.57,89.32c-1.42.68-2.87,1.36-4.35,1.92-1.74-.92-3.51-4.05-4.6-5.09a25.59,25.59,0,0,0-6-4.21,60.7,60.7,0,0,0-14.14-4.61c-4.77-1.09-6.92,5.8-2.77,7.49a7.22,7.22,0,0,0,2.73,1.41,4.37,4.37,0,0,1-.4,2.55c-.18.11-.37.2-.57.29a37.59,37.59,0,0,0-8.27,1.54c-4.21,1.3-3.58,8,1.06,7.86a80.2,80.2,0,0,1,20.15,2c5.57,1.25,10.91,1.54,16-1.5a3.5,3.5,0,0,0,.87-.76c1.48-.6,3-1.27,4.41-2C580.26,94,576.2,87.11,571.57,89.32Z"/><path class="cls-1" d="M544.55,21.87c-4.26-8.39-13.11-11-21.68-12.93a3,3,0,0,0-.41-.06,12.71,12.71,0,0,0-.17-1.3c-.84-4.52-4.55-7.15-9-7.37-3.05-.15-3.07,3.92-.66,4.91s4.35,3.94,1.84,6c-1.6,1.32-.46,3.57,1.1,4.18,5.19,2,4.52,8.42,1.4,11.93a13.19,13.19,0,0,1-4.22,3.08l-.69.31-.16.07c-.81.34-1.65.63-2.49.9-.61.19-1.22.36-1.83.52l-.1,0c-.65.16-1.3.31-2,.44-1.22.17-2.44.33-3.64.53-2.75.45-2.14,5.18.66,4.91,1.21-.12,2.41-.29,3.59-.51,4.94-.66,10.1-1.26,14.19-4.14,5.83-4.11,10.3-7.35,17.78-7.4a2.53,2.53,0,0,0,2.14-1.31c.28.22.56.44.85.63C543.36,26.75,545.61,24,544.55,21.87Z"/><path class="cls-2" d="M610,70.4c-.95-2-3.09-2.68-5.06-3.22-1.47-.4-3.28-.68-4.4-1.81-1.54-1.56-1-3.93-1.63-5.85-1.42-4.25-6.63-4.51-10.34-5.12-2.64-.44-5.66-1-7.38-3.25-2.13-2.78-1.33-6.67-1.79-9.92a9.63,9.63,0,0,0-3.91-6.54c-1.3-1-2.74-1.87-4-3a13.31,13.31,0,0,1-3.25-5.22c-2.27-5.32-7.19-7.27-12.78-6.66-3.42.37-6.59,1.71-9.79,2.9a23.65,23.65,0,0,0-13.28-12.28,24.23,24.23,0,0,0-4.88-1.25c-2.11-.31-4.92.23-5.81-2.29s-1.18-4.48-3.83-5.85c-5.5-2.85-11,.51-14.59,4.75a50.25,50.25,0,0,0-10.68,19.76,11.94,11.94,0,0,1-6.3,8.13c-2.47,1.33-5.15,2.2-7.71,3.31a16.46,16.46,0,0,0-6.13,4c-2,2.3-1.9,5-2.65,7.77-1.65,6.11-10,5.47-12.4,11a6.75,6.75,0,0,0,1.38,7.57c-6.5.69-7.44,11.07-12.74,13.88-2.73,1.44-6.63.58-7.18,4.57-.38,2.81,1.46,5,3.7,6.46,3.53,2.23,7.78,3.77,11.68,5.25a45,45,0,0,0,12.91,3.11c4.82.32,9.43-.91,14.18-1.44s9.54.38,14.34.83a42.59,42.59,0,0,0,14.19-1.46c5.22-1.26,10.56-2.76,16-2,1.72,2.39,4.8,3.47,7.63,3.67,4.44.33,8.75-1.39,13.2-1.09s8.46,2.14,12.79,2.69c8.15,1,13.21-4.48,17.69-10.49a.46.46,0,0,0,.07-.15c2.56-.16,5.85,0,8-1.6,1.34-1,1.79-2.52,2.68-3.85a9.42,9.42,0,0,1,5.18-3.5c3-1,6.22-1,9.27-1.84C606.48,79.31,612.46,75.56,610,70.4Zm-5.13,8.08c-5.46,2.54-13.2,1-17.34,6.12-1.21,1.51-1.63,3.62-3.47,4.57s-4.58.86-6.72,1l-13.89,1.11c-.64.05-.64,1.05,0,1l12.53-1c-2.39,3.2-5,6.56-8.64,8.4-4.22,2.14-8.69,1.14-13,0-4-1.06-7.75-1.89-11.92-1.37s-8.33,1.73-12.35.1a6.58,6.58,0,0,1-4.34-4.82c-.31-1.6,0-3.27-.36-4.87a4.64,4.64,0,0,0-4.78-3.94c-3.94,0-7.11,3.22-11.14,1.93-3.13-1-5.5-3.4-8.94-3.42a.5.5,0,0,0,0,1c3.79,0,6.44,3.25,10.11,3.72,3.92.51,7.6-3.39,11.44-2,3.47,1.24,2.12,6.32,3.29,9.49-6.76-.7-13.25,1.74-19.82,3-8.43,1.65-16.63-1.31-25.06-.21-4,.52-7.88,1.47-11.91,1.39a40.22,40.22,0,0,1-12.71-2.66A87.3,87.3,0,0,1,444.11,92c-1.95-1-3.87-2.52-4.18-4.85-.44-3.37,2.44-3.75,5-4.4,2.84-.73,4.66-3,6.15-5.36,2-3.24,4.17-9.19,8.7-9.05h0a22,22,0,0,0,7.8,4.19c3.55,1.11,8.87,2.41,10.17,6.45,1,3.19-2,6.46.38,9.43,4.51,5.56,15.22-1,18.41,5.79.27.58,1.14.07.86-.5C495.12,88.85,489,90.3,484.72,90A10,10,0,0,1,480,88.71c-2.26-1.48-1.89-3.7-1.34-6a6.59,6.59,0,0,0-1.19-6.21c-4.27-5.07-12.1-4.13-16.82-8.54-3.35-3.13-3.58-7.94.32-10.64,2.1-1.45,4.58-2.25,6.66-3.75a8.6,8.6,0,0,0,3.52-6.12c.56-3.28,1.48-5.76,4.33-7.67,4.19-2.8,9.43-3.55,13.51-6.55,5.21-3.84,4.91-11,7.88-16.29a77.52,77.52,0,0,1,6-9c2.36-3.1,5.44-6.4,9.53-6.87a8.7,8.7,0,0,1,5.25,1c2,1.13,2.52,2.69,3,4.77.78,3.19,3.2,2.92,6,3.24a22.94,22.94,0,0,1,18.08,13l-.85.3c-4.19,1.42-8.48,1.15-12.71,2.19-6.88,1.7-10.92,9.47-18.23,9.81-.64,0-.64,1,0,1,5.37-.25,9-4.32,13.14-7.22A17.86,17.86,0,0,1,535.58,26a37.83,37.83,0,0,0,10.24-2.24c5.85-2.14,14.38-5.65,19.59-.14,2,2.16,2.34,5.35,4.22,7.62s4.75,3.42,6.74,5.57c4.11,4.43.26,11.65,4.79,15.84,3,2.81,7.72,2.6,11.52,3.46,2.55.58,4.82,1.66,5.45,4.42.56,2.45.21,4.79,2.65,6.27,2,1.2,4.47,1.14,6.49,2.25C612,71.69,608.29,76.89,604.87,78.48Z"/><path class="cls-2" d="M581.53,65.8c-4.71-1.89-9-.46-13.27,1.47-4.54-1.65-4.38-6.21-7-9.45a9.66,9.66,0,0,0-6.57-3.21c-4.37-.48-13,1.25-11.06,7.48.19.61,1.16.35,1-.27-2.31-7.47,11.93-7.37,15.41-3.92,1.89,1.87,2.21,4.6,3.58,6.78a8.62,8.62,0,0,0,3.53,3.14c-4.85,2.29-9.68,4.9-15,3.68-.63-.14-.89.82-.27,1,5.81,1.32,11-1.82,16.31-4.2a.41.41,0,0,0,.52-.23c4.09-1.81,8.22-3.05,12.66-1.27C581.86,67,582.12,66,581.53,65.8Z"/><path class="cls-2" d="M603.48,87.63l-.34-4.33c-.05-.64-1.05-.64-1,0l.34,4.33C602.53,88.26,603.53,88.27,603.48,87.63Z"/><path class="cls-2" d="M603.13,99l.33-3.67c.06-.64-.94-.64-1,0L602.13,99C602.07,99.6,603.07,99.6,603.13,99Z"/><path class="cls-2" d="M603,105.79a.5.5,0,0,0,0-1A.5.5,0,0,0,603,105.79Z"/><path class="cls-2" d="M602.47,114.76c.15.63,1.11.36,1-.27a13,13,0,0,1-.32-3.87c0-.64-1-.64-1,0A14,14,0,0,0,602.47,114.76Z"/><path class="cls-2" d="M602.45,119.63V124a.5.5,0,0,0,1,0v-4.33A.5.5,0,0,0,602.45,119.63Z"/><path class="cls-2" d="M602.79,131.29a18.71,18.71,0,0,0,0,4.67c.08.63,1.08.64,1,0a18.71,18.71,0,0,1,0-4.67C603.87,130.66,602.87,130.66,602.79,131.29Z"/><path class="cls-2" d="M602.45,143.29v4a.5.5,0,0,0,1,0v-4A.5.5,0,0,0,602.45,143.29Z"/><path class="cls-2" d="M601.45,153.63v.67a.5.5,0,0,0,1,0v-.67A.5.5,0,0,0,601.45,153.63Z"/><path class="cls-2" d="M589.79,89v3.67a.5.5,0,0,0,1,0V89A.5.5,0,0,0,589.79,89Z"/><path class="cls-2" d="M590.12,100.63v-2a.5.5,0,0,0-1,0v2A.5.5,0,0,0,590.12,100.63Z"/><path class="cls-2" d="M589.12,108.63a.5.5,0,0,0,1,0v-2.33a.5.5,0,0,0-1,0Z"/><path class="cls-2" d="M590.77,118.49l-.67-2.67a.5.5,0,0,0-1,.27l.67,2.67A.5.5,0,0,0,590.77,118.49Z"/><path class="cls-2" d="M589.79,124.29v.33a.5.5,0,0,0,1,0v-.33A.5.5,0,0,0,589.79,124.29Z"/><path class="cls-2" d="M589.79,131.63V137a.5.5,0,0,0,1,0v-5.33A.5.5,0,0,0,589.79,131.63Z"/><path class="cls-2" d="M589.79,144.29v1.33a.5.5,0,0,0,1,0v-1.33A.5.5,0,0,0,589.79,144.29Z"/><path class="cls-2" d="M552.79,163.86v2a.5.5,0,0,0,1,0v-2A.5.5,0,0,0,552.79,163.86Z"/><path class="cls-2" d="M553.79,173.86v-2.33a.5.5,0,0,0-1,0v2.33A.5.5,0,0,0,553.79,173.86Z"/><path class="cls-2" d="M554.44,183.73l-.67-2.67a.5.5,0,0,0-1,.27l.67,2.67A.5.5,0,0,0,554.44,183.73Z"/><path class="cls-2" d="M553.45,189.53v.33a.5.5,0,0,0,1,0v-.33A.5.5,0,0,0,553.45,189.53Z"/><path class="cls-2" d="M553.45,196.86v5.33a.5.5,0,0,0,1,0v-5.33A.5.5,0,0,0,553.45,196.86Z"/><path class="cls-2" d="M553.45,209.53v1.33a.5.5,0,0,0,1,0v-1.33A.5.5,0,0,0,553.45,209.53Z"/><path class="cls-2" d="M577.45,100v3.67a.5.5,0,0,0,1,0V100A.5.5,0,0,0,577.45,100Z"/><path class="cls-2" d="M578.29,111.46a.5.5,0,0,0,0,1A.5.5,0,0,0,578.29,111.46Z"/><path class="cls-2" d="M576.79,118.29V121a.5.5,0,0,0,1,0v-2.67A.5.5,0,0,0,576.79,118.29Z"/><path class="cls-2" d="M576.45,127.63v2a.5.5,0,0,0,1,0v-2A.5.5,0,0,0,576.45,127.63Z"/><path class="cls-2" d="M577.71,136.84l-.33-2c-.1-.63-1.07-.36-1,.27l.33,2C576.85,137.74,577.81,137.47,577.71,136.84Z"/><path class="cls-2" d="M578.74,149.63l-.32-2.67c-.08-.63-1.08-.64-1,0l.32,2.67C577.81,150.26,578.82,150.27,578.74,149.63Z"/><path class="cls-2" d="M563.77,107l-.34,3.67c-.06.64.94.64,1,0l.34-3.67C564.83,106.32,563.82,106.32,563.77,107Z"/><path class="cls-2" d="M564,116.13a.5.5,0,0,0,0,1A.5.5,0,0,0,564,116.13Z"/><path class="cls-2" d="M562.79,120.29v2.33a.5.5,0,0,0,1,0v-2.33A.5.5,0,0,0,562.79,120.29Z"/><path class="cls-2" d="M565.12,132.63l-.33-4c-.05-.64-1.05-.64-1,0l.33,4C564.18,133.26,565.18,133.27,565.12,132.63Z"/><path class="cls-2" d="M565.12,141.29v3a.5.5,0,0,0,1,0v-3A.5.5,0,0,0,565.12,141.29Z"/><path class="cls-2" d="M565,151.46a.5.5,0,0,0,0,1A.5.5,0,0,0,565,151.46Z"/><path class="cls-2" d="M554.12,109v-3.67a.5.5,0,0,0-1,0V109A.5.5,0,0,0,554.12,109Z"/><path class="cls-2" d="M552.72,117c-.07.64.93.63,1,0l.39-3.33c.07-.64-.93-.63-1,0Z"/><path class="cls-2" d="M553,121.79a.5.5,0,0,0,0-1A.5.5,0,0,0,553,121.79Z"/><path class="cls-2" d="M552.14,130.43c.1.63,1.06.36,1-.27a4.47,4.47,0,0,1,.32-2.41c.24-.6-.72-.85-1-.27A5.43,5.43,0,0,0,552.14,130.43Z"/><path class="cls-2" d="M551.47,137.76l.33,2c.11.63,1.07.36,1-.27l-.33-2C552.33,136.86,551.37,137.13,551.47,137.76Z"/><path class="cls-2" d="M553.05,154a41.17,41.17,0,0,1-.24-7.67c0-.64-1-.64-1,0a41.17,41.17,0,0,0,.24,7.67C552.13,154.6,553.13,154.61,553.05,154Z"/><path class="cls-2" d="M521.07,163v3.67a.5.5,0,0,0,1,0V163A.5.5,0,0,0,521.07,163Z"/><path class="cls-2" d="M521.06,171.36l-.39,3.33c-.07.64.93.63,1,0l.39-3.33C522.14,170.72,521.14,170.73,521.06,171.36Z"/><path class="cls-2" d="M520.9,179.53a.5.5,0,0,0,0-1A.5.5,0,0,0,520.9,179.53Z"/><path class="cls-2" d="M520.41,185.22a5.43,5.43,0,0,0-.32,2.94c.1.63,1.06.36,1-.27a4.47,4.47,0,0,1,.32-2.41C521.62,184.89,520.65,184.63,520.41,185.22Z"/><path class="cls-2" d="M520.72,197.23l-.33-2c-.11-.63-1.07-.36-1,.27l.33,2C519.86,198.13,520.82,197.86,520.72,197.23Z"/><path class="cls-2" d="M520.76,204c0-.64-1-.64-1,0a41.16,41.16,0,0,0,.24,7.67c.08.63,1.08.64,1,0A41.16,41.16,0,0,1,520.76,204Z"/><path class="cls-2" d="M578.78,158.71v3.67a.5.5,0,0,0,1,0v-3.67A.5.5,0,0,0,578.78,158.71Z"/><path class="cls-2" d="M578.77,167l-.39,3.33c-.07.64.93.63,1,0l.39-3.33C579.85,166.4,578.85,166.41,578.77,167Z"/><path class="cls-2" d="M578.61,175.21a.5.5,0,0,0,0-1A.5.5,0,0,0,578.61,175.21Z"/><path class="cls-2" d="M578.12,180.91a5.43,5.43,0,0,0-.32,2.94c.1.63,1.06.36,1-.27a4.47,4.47,0,0,1,.32-2.41C579.33,180.58,578.36,180.32,578.12,180.91Z"/><path class="cls-2" d="M578.43,192.91l-.33-2c-.11-.63-1.07-.36-1,.27l.33,2C577.57,193.81,578.54,193.54,578.43,192.91Z"/><path class="cls-2" d="M578.47,199.71c0-.64-1-.64-1,0a41.17,41.17,0,0,0,.24,7.67c.08.63,1.08.64,1,0A41.18,41.18,0,0,1,578.47,199.71Z"/><path class="cls-2" d="M538.45,105l-.33,3c-.07.64.93.63,1,0l.33-3C539.52,104.32,538.52,104.33,538.45,105Z"/><path class="cls-2" d="M537.79,115.63v1.67a.5.5,0,0,0,1,0v-1.67A.5.5,0,0,0,537.79,115.63Z"/><path class="cls-2" d="M537.11,124.29a29,29,0,0,1-.31,6.2c-.1.63.86.9,1,.27a30.2,30.2,0,0,0,.35-6.46C538.08,123.65,537.08,123.65,537.11,124.29Z"/><path class="cls-2" d="M522.79,104.29v4a.5.5,0,0,0,1,0v-4A.5.5,0,0,0,522.79,104.29Z"/><path class="cls-2" d="M522.79,116.29v4.33a.5.5,0,0,0,1,0v-4.33A.5.5,0,0,0,522.79,116.29Z"/><path class="cls-2" d="M522.12,126.63V130a.5.5,0,0,0,1,0v-3.33A.5.5,0,0,0,522.12,126.63Z"/><path class="cls-2" d="M521.79,137.63v4a.5.5,0,0,0,1,0v-4A.5.5,0,0,0,521.79,137.63Z"/><path class="cls-2" d="M521.39,149.15l-.64,4.67c-.09.63.88.9,1,.27l.64-4.67C522.44,148.79,521.48,148.51,521.39,149.15Z"/><path class="cls-2" d="M505.45,104.63V110a.5.5,0,0,0,1,0v-5.33A.5.5,0,0,0,505.45,104.63Z"/><path class="cls-2" d="M506.74,117.76l.33-2c.1-.63-.86-.9-1-.27l-.33,2C505.67,118.12,506.63,118.39,506.74,117.76Z"/><path class="cls-2" d="M506,122.79a.5.5,0,0,0,0,1A.5.5,0,0,0,506,122.79Z"/><path class="cls-2" d="M506.44,134.16a4.88,4.88,0,0,1-.34-2.73c.11-.63-.86-.9-1-.27a5.82,5.82,0,0,0,.34,3.27C505.72,135,506.69,134.75,506.44,134.16Z"/><path class="cls-2" d="M506.12,142.29v3a.5.5,0,0,0,1,0v-3A.5.5,0,0,0,506.12,142.29Z"/><path class="cls-2" d="M505.8,150.3l-.19,3.66c0,.64,1,.64,1,0l.19-3.66C506.84,149.65,505.84,149.65,505.8,150.3Z"/><path class="cls-2" d="M536,140.13a.5.5,0,0,0,0,1A.5.5,0,0,0,536,140.13Z"/><path class="cls-2" d="M490.79,104.83a27.73,27.73,0,0,0-.33,6.13c0,.64,1,.64,1,0a26.53,26.53,0,0,1,.29-5.87C491.86,104.46,490.89,104.19,490.79,104.83Z"/><path class="cls-2" d="M491.79,120.29v-3.67a.5.5,0,0,0-1,0v3.67A.5.5,0,0,0,491.79,120.29Z"/><path class="cls-2" d="M491.12,126.29V130a.5.5,0,0,0,1,0v-3.67A.5.5,0,0,0,491.12,126.29Z"/><path class="cls-2" d="M491.44,140.09a7.5,7.5,0,0,0,.35-2.8c0-.64-1-.64-1,0a6.72,6.72,0,0,1-.32,2.53C490.27,140.44,491.24,140.7,491.44,140.09Z"/><path class="cls-2" d="M491.1,150.42a12.18,12.18,0,0,0,.7-4.8c0-.64-1-.64-1,0a11.47,11.47,0,0,1-.66,4.53C489.91,150.77,490.88,151,491.1,150.42Z"/><path class="cls-2" d="M474.44,110.49l-.33-2c-.11-.63-1.07-.36-1,.27l.33,2C473.58,111.39,474.54,111.13,474.44,110.49Z"/><path class="cls-2" d="M474.79,121.63l-.33-3c-.07-.63-1.07-.64-1,0l.33,3C473.86,122.26,474.86,122.27,474.79,121.63Z"/><path class="cls-2" d="M474.45,126.29V128a.5.5,0,0,0,1,0v-1.67A.5.5,0,0,0,474.45,126.29Z"/><path class="cls-2" d="M475,132.79a.5.5,0,0,0,0,1A.5.5,0,0,0,475,132.79Z"/><path class="cls-2" d="M474.45,139.63v3a.5.5,0,0,0,1,0v-3A.5.5,0,0,0,474.45,139.63Z"/><path class="cls-2" d="M474.14,150.16l-.33,1c-.2.61.76.87,1,.27l.33-1C475.31,149.82,474.34,149.55,474.14,150.16Z"/><path class="cls-2" d="M489.63,161.85l.33,2c.11.63,1.07.36,1-.27l-.33-2C490.49,161,489.53,161.22,489.63,161.85Z"/><path class="cls-2" d="M491.28,174.72l-.33-3c-.07-.63-1.07-.64-1,0l.33,3C490.35,175.35,491.35,175.36,491.28,174.72Z"/><path class="cls-2" d="M490.95,179.39v1.67a.5.5,0,0,0,1,0v-1.67A.5.5,0,0,0,490.95,179.39Z"/><path class="cls-2" d="M491.45,185.89a.5.5,0,0,0,0,1A.5.5,0,0,0,491.45,185.89Z"/><path class="cls-2" d="M490.95,192.72v3a.5.5,0,0,0,1,0v-3A.5.5,0,0,0,490.95,192.72Z"/><path class="cls-2" d="M490.63,203.25l-.33,1c-.2.61.76.87,1,.27l.33-1C491.8,202.91,490.84,202.64,490.63,203.25Z"/><path class="cls-2" d="M534.32,150.62l.33,2c.11.63,1.07.36,1-.27l-.33-2C535.18,149.72,534.21,150,534.32,150.62Z"/><path class="cls-2" d="M536,163.48l-.33-3c-.07-.63-1.07-.64-1,0l.33,3C535,164.12,536,164.12,536,163.48Z"/><path class="cls-2" d="M535.63,168.15v1.67a.5.5,0,0,0,1,0v-1.67A.5.5,0,0,0,535.63,168.15Z"/><path class="cls-2" d="M536.13,174.65a.5.5,0,0,0,0,1A.5.5,0,0,0,536.13,174.65Z"/><path class="cls-2" d="M535.63,181.48v3a.5.5,0,0,0,1,0v-3A.5.5,0,0,0,535.63,181.48Z"/><path class="cls-2" d="M535.32,192l-.33,1c-.2.61.76.87,1,.27l.33-1C536.48,191.67,535.52,191.41,535.32,192Z"/><path class="cls-2" d="M457.45,104.29l-.33,3c-.07.64.93.63,1,0l.33-3C458.52,103.66,457.52,103.66,457.45,104.29Z"/><path class="cls-2" d="M457.14,114.09l.33,1.33a.5.5,0,0,0,1-.27l-.33-1.33A.5.5,0,0,0,457.14,114.09Z"/><path class="cls-2" d="M457.79,121.29v3a.5.5,0,0,0,1,0v-3A.5.5,0,0,0,457.79,121.29Z"/><path class="cls-2" d="M457.12,130.29v1.33a.5.5,0,0,0,1,0v-1.33A.5.5,0,0,0,457.12,130.29Z"/><path class="cls-2" d="M457.62,137.13a.5.5,0,0,0,0,1A.5.5,0,0,0,457.62,137.13Z"/><path class="cls-2" d="M441.79,99.29a20.68,20.68,0,0,0,.35,5.13c.12.63,1.09.36,1-.27a19.58,19.58,0,0,1-.32-4.87C442.82,98.65,441.82,98.65,441.79,99.29Z"/><path class="cls-2" d="M443,113.46a.5.5,0,0,0,0,1A.5.5,0,0,0,443,113.46Z"/><path class="cls-2" d="M442.12,119v4.67a.5.5,0,0,0,1,0V119A.5.5,0,0,0,442.12,119Z"/><path class="cls-2" d="M442,129.63q0,1.5,0,3a.5.5,0,0,0,1,0q0-1.5,0-3A.5.5,0,0,0,442,129.63Z"/><path class="cls-1" d="M197.09,198.62c-7.33.67-14.16,0-21.39-1.13a30.44,30.44,0,0,0-7.64-.39,34.65,34.65,0,0,0-11.37,2.53,29.26,29.26,0,0,1-5.26,1.65c-7.66-.69-15.63-2-23-.2-3.24.78-3,4.7-.84,6.4,4.55,3.51,10,2.94,15.42,2.7,7.49-.33,14.06,1.45,21.15,3.56,13.44,4,23.74-.89,34.68-8.6C201.39,203.35,200.87,198.27,197.09,198.62Z"/><path class="cls-1" d="M280.81,182.45c-.68-4.71-5.61-6.55-9.81-6.68-7.26-.23-14.21,3.69-20.8,6.23a69.49,69.49,0,0,1-9.74,3.14c-4.29,1-8.15.49-12.44.8-6.44.45-10.37,5.88-16.38,7.34a2.33,2.33,0,0,0-1.34.82c-2.35.66-2.07,4.75.83,4.9,2.1.11,4.18.16,6.26.16,6.14,1.39,11.58-.7,17.49-2.32,7.48-2,14.06.62,21.51.41a16.92,16.92,0,0,0,7.23-1.68c3.46-1.76,5.75-4.65,9.6-5.71S281.55,187.62,280.81,182.45Z"/><path class="cls-1" d="M266.22,158.92a17.28,17.28,0,0,1-6.39-10.56c-.57-2.93-.62-6-2-8.75a9.88,9.88,0,0,0-5.13-5c-1.79-.76-6.18-.77-8.77-2.06a12.54,12.54,0,0,1-2.07-3.91,2.39,2.39,0,0,0-2-1.76,7.82,7.82,0,0,0-1.19-1.35,5.7,5.7,0,0,0-.91-1.06,10.42,10.42,0,0,0-7.1-2.48c-2.78,0-3.45,4.25-.66,4.91s6,1.22,4.69,5.8c-.37,1.26-1.19,1.77-1.38,3.19a6.93,6.93,0,0,0,1.4,4.91,10.56,10.56,0,0,0,3.83,3.18c1.09.59,4,1.08,4.57,2.08,1.84,3.35-4.17,5.49-5.66,7.31-3,3.68-1.54,8.42,2.93,10,2.8,1,6.13.41,9,.46a77.65,77.65,0,0,1,14.31,1.66,2.65,2.65,0,0,0,2.88-3.73A2.27,2.27,0,0,0,266.22,158.92Z"/><path class="cls-1" d="M203.37,143c-5.38-1.46-7.12-6.14-11.59-8.7-3.3-1.9-7.28-2.05-11-2.13-2.81-.06-3.41,4.21-.66,4.91,4.2,1.07,10.57,4.24,6.36,9.21-2,2.39-5.94,3.76-8.67,5.06-4.91,2.33-9.33,4.9-12.18,9.68a2.53,2.53,0,0,0,1.49,3.67c.59.19,1.21.4,1.85.62a2.67,2.67,0,0,0,.52.4c5.75,3.38,17.85,7.81,21.67-.53.92-2,.61-4.4,1.62-6.35s3.22-3.33,5-4.61c3.21-2.25,5.88-4.37,7.27-8.14A2.53,2.53,0,0,0,203.37,143Z"/><path class="cls-2" d="M283.83,179.86c-.67-3.19-4-4.77-5.6-7.41-1.07-1.77-.68-4.08-1.95-5.73-1.1-1.45-3-1.77-4.71-2.11l-2.63-.52a21.93,21.93,0,0,1-9.43-16.53c-.42-4.33-.84-9.82-5.2-12.15-1.74-.93-3.71-.91-5.62-1.06-1.56-.12-3.29-.29-4.44-1.49s-1.38-3.11-2.1-4.64a12.34,12.34,0,0,0-8.59-6.52,12.47,12.47,0,0,0-10.21,1.93c-.91.69-1.6,1.56-2.43,2.33-1.59,1.47-3.15,1.65-5.21,1.53-2.28-.14-4.25-.24-6.38.73a11.75,11.75,0,0,0-6.66,9.17,12.12,12.12,0,0,0,.88,5.17c-4,.38-6.38-4.75-8.93-7.08a15.43,15.43,0,0,0-8.39-3.51c-5.88-.85-16.47-1.94-19.45,4.81-.68,1.54-.4,2.92-.39,4.55,0,2.31-1.38,3.8-3.17,5.05-2.33,1.63-5.1,2.78-6.84,5.13-3.87,5.23-1,12.28-2.55,18.12-1.3,4.88-5.62,5.52-9.75,7-2.48.9-5.28,2.8-5.66,5.65-.49,3.61,3.74,5,4.41,8.21,1.26,6.1-4.87,9.16-9.85,9.75-2.26.27-5.33.47-6.27,3-.82,2.19.8,4,2.64,4.94,3.08,1.6,6.8,1.25,10.15,1.17,5.29-.12,10.65-.47,15.87.66,4.82,1,9.26,3.3,14,4.63a23.23,23.23,0,0,0,13.48-.07,44.48,44.48,0,0,0,12.92-6.17c2.43-1.82,5.48-5.2,5-8.47a43.54,43.54,0,0,0,6.5-2.08c7.79,2.45,16.86,5,24.24.08,2.37-1.58,4.34-3.12,7.34-3.19s6,.81,8.89,1.24c4.17.61,8.91,1.33,13.1.51a7.48,7.48,0,0,0,3.91-1.87c1.73-1.73,1.94-4.3,4.19-5.64,3.4-2,7.73-1.25,11.26-3C282.46,184.8,284.41,182.64,283.83,179.86Zm-7.61,6.32c-2.87.54-6.06.58-8.5,2.39a9.36,9.36,0,0,0-2.57,3.59c-1.37,2.56-3.53,3.37-6.29,3.56a56.58,56.58,0,0,1-13.65-1.14c-3.61-.65-7.42-1.51-10.86.24-1.94,1-3.51,2.54-5.49,3.48a17,17,0,0,1-7.31,1.49c-4.4,0-8.71-1.21-12.9-2.51l.09,0c5.22-2.25,10.38-4.67,15.56-7,.59-.26.08-1.13-.5-.86-5.3,2.4-10.75,5.37-16.4,7.52l-.05,0a.43.43,0,0,0-.55.24,37.28,37.28,0,0,1-13.28,2.63c-9.88-.1-19.44-3.82-29.38-2.51-.63.08-.64,1.08,0,1,10.52-1.39,20.64,2.89,31.13,2.49a28.84,28.84,0,0,0,4.48-.55c.36,2.38-1.64,4.52-3.15,6.17A18.74,18.74,0,0,1,191,210c-3.89,2-7.89,3.91-12.25,4.53-8.55,1.22-15.95-4.09-24.08-5.61a58.56,58.56,0,0,0-12.36-.59c-3.92.11-8.87.95-12.49-1-2.24-1.17-3.44-3.79-.6-5.27,1.51-.79,3.38-.69,5-.92a12,12,0,0,0,7.75-4,8.35,8.35,0,0,0,1.76-6.9c-.74-3.46-6.07-5.72-3.72-9.48,2.22-3.55,6.79-3.46,10.18-5.16a8.57,8.57,0,0,0,4.4-5.16c1.79-5.58-.92-12.09,1.94-17.38,2.41-4.47,9.83-5.15,10.74-10.55.39-2.3-.48-4.18,1-6.33a8.86,8.86,0,0,1,6.06-3.39,37.41,37.41,0,0,1,13.53.48,13.11,13.11,0,0,1,6,2.9,49.8,49.8,0,0,1,3.43,3.92c1.75,2,3.77,3.74,6.48,3.43,0,.18.1.36.14.55.65,2.84-.87,4.74-3.05,6.29-2.91,2.08-7,3.64-8.38,7.23-1.27,3.28.53,6.87-2.66,9.43-3.65,2.94-8.52,1.34-12.46,0-.61-.21-.87.76-.27,1,4.53,1.54,10.41,3.15,14.17-.91,1.51-1.63,1.66-3.52,1.72-5.65.08-3,.77-4.87,3.1-6.72,2.63-2.08,6.37-3.34,8.19-6.32a5.63,5.63,0,0,0,.76-3.81c-.45-3.12-2.09-5.37-1.14-8.65a11,11,0,0,1,4.74-6.27c2.86-1.75,5.48-1,8.59-1.14a7,7,0,0,0,4.85-2.4,11.53,11.53,0,0,1,6.47-3.65c4.72-.74,10.12,1.38,12.42,5.7,1,1.94,1.19,4.34,3,5.8,1.49,1.21,3.53,1.27,5.35,1.39a9.82,9.82,0,0,1,5,1.25,9.1,9.1,0,0,1,3.27,5.12c.94,3.29.63,6.79,1.44,10.11a22.46,22.46,0,0,0,7.59,11.77l-14.06-2.74c-.63-.12-.9.84-.27,1l14.08,2.74,2,.37h0a.43.43,0,0,0,.38.06c1.31.23,2.62.46,3.88.81a4.41,4.41,0,0,1,3.3,2.67c.39.91.31,2,.63,3,.87,2.6,3.27,4.1,4.91,6.15C285.13,182.11,280.4,185.4,276.22,186.18Z"/></g></g></svg>