<svg xmlns="http://www.w3.org/2000/svg" viewBox="0 0 684.05 412.15"><defs><style>.cls-1{fill:#e35205;}.cls-2{fill:#d1ccb2;}.cls-3{fill:#efebd3;}.cls-4{fill:#847b5f;}.cls-5{fill:#335890;}.cls-6{fill:#f2f2f2;}.cls-7{fill:#081f2c;}</style></defs><title>hidden-mobile</title><g id="Layer_2" data-name="Layer 2"><g id="Layer_1-2" data-name="Layer 1"><path class="cls-1" d="M256.41,186.42l-10.11-.95c-2.78-.26-6.37-.92-9,.26-3,1.32-3.17,4.87-2.62,8.26a3.53,3.53,0,0,0-.15.72c-.47,5-.73,10-.79,15.08a3.47,3.47,0,0,0,.09.81c-.07.66-.12,1.32-.2,2-.19,1.63,1.53,3,3,3l17.92.19a3,3,0,0,0,3-3,98.71,98.71,0,0,1,1.78-22.56A3.06,3.06,0,0,0,256.41,186.42Z"/><path class="cls-2" d="M423.11,179c-1,1-3.21,1.41-5.34,1.63a3,3,0,0,0-1.31-.24q-7.09.18-14.16.74c-6.32-.19-12.63-.73-18.95-.89-3.33-.08-8.73-.81-12.55.37-.32-.22-.65-.43-1-.62-2.47-1.37-4.8.88-4.41,3.39.25,1.63.56,3.25.89,4.85l-.83,22a3,3,0,0,0,3,3q27.27.17,54.49-1.6a3.06,3.06,0,0,0,2.89-2.2,92.71,92.71,0,0,0,1-24.57q.46-1.11,1-2.21C429.32,179.7,425.65,176.61,423.11,179Z"/><path class="cls-3" d="M389.83,10c-11,2.14-23-1.7-33.81-3.64-3.64-.65-7-1.24-10.57-.12-1.63.5-3.17,1.1-4.67,1.67a25.28,25.28,0,0,0-7.68,1.32,3.16,3.16,0,0,0-1.07.61c-1,.13-1.91.24-2.87.34a3,3,0,0,0-1.63,5.42c-1.17,6.83-.88,13.43-.24,20.18a3.25,3.25,0,0,0-.2.87c-.34,4.22.45,8.28.3,12.47a52.78,52.78,0,0,1-2,13c-.61,2.07,1.52,4.48,3.69,3.69,4.14-1.5,8.7-.81,13-1.64.31-.06.6-.15.89-.23,2.93.33,6.07.36,8-1.16a10.81,10.81,0,0,0,3-5c2.5-4.05,2.87-8.61,3.46-13.18a2.73,2.73,0,0,0,.5-1,17.61,17.61,0,0,0,.56-3.16,15.51,15.51,0,0,1,.63-1.83,3.05,3.05,0,0,0,.26-.16c3.46-2.67,7.17.24,10.94-.4,1.83-.31,4.45-2,6-2.88a10,10,0,0,0,1.83-1.47c1.68-1.51,0-1.31,3.17-1.44,3.33-.14,5.78-2.32,8.89-2.43a3,3,0,0,0,2.89-3.8,21.08,21.08,0,0,1,.41-12.32C394.27,11.41,391.94,9.64,389.83,10Zm-39.06,7.77a3.07,3.07,0,0,0,1.18-.71c3.16,0,6.39.44,9.49.56a22.07,22.07,0,0,1,6.82,1.67,3.22,3.22,0,0,0,.74.72c.5.35-.86,1.48-1.07,1.66a4.2,4.2,0,0,1-2.14,1.05c-2.2-.27-4.41-.57-6.6-.92-1.68-.27-3.36-.55-5-.86l-1.67-.31Q350,20.78,350.76,17.81Z"/><path class="cls-2" d="M365.25,162.76a2.29,2.29,0,0,0,.17-1.17l-.11-.92a2.77,2.77,0,0,0,.87-2.9c-1.78-6.94-3.36-15.09-3.21-22.23.15-7.49,2.62-14.78,2.55-22.2a2.77,2.77,0,0,0-1-2.22,49.59,49.59,0,0,0-.45-5.92v-.06h0c0-.27-.06-.53-.1-.8a2.56,2.56,0,0,0-.25-.78,77.56,77.56,0,0,0-.6-10.79c-.53-3.43-1.92-7-1.25-10.49.53-2.73.89-4.64.32-7.4a3,3,0,0,0-.31-.83c.11-1.74.19-3.42,1.48-4.79,2.18-2.3-.05-5.51-2.92-5l-6.47,1.11a3.42,3.42,0,0,0-.61,0l-11.88,2.11a2.92,2.92,0,0,0-1,.39h-.07a113.67,113.67,0,0,0-14.37.52,3.16,3.16,0,0,0-1.25.42c-.1,0-.2,0-.31,0a41.51,41.51,0,0,1-11.27-1.23c-3-.67-6.24.86-9.3.87a3,3,0,0,0-2.89,3.8c.18.58.35,1.16.51,1.75a3.1,3.1,0,0,0-.12,1.06q.49,9,.32,18c-.86,6,1.56,11.62,1.25,17.65-.15,2.95-.85,5.83-1,8.77a22.55,22.55,0,0,0,.13,3.38,3.21,3.21,0,0,0-.2,1,51.79,51.79,0,0,0,1.85,15.47,71.43,71.43,0,0,1,1.75,10.17,110.1,110.1,0,0,1-1.5,16.37,3.08,3.08,0,0,0,.74,2.55c-.85,3-1.84,6-2.69,9.08-1.11,4-1.35,8.44-1.74,12.58-.43,4.56,1.29,8.41,2.31,12.68q-1.54,3.88-3.13,7.74c-.74,1.8,1.12,3.86,2.89,3.8,10.24-.36,20.39,1,30.61,1.27S353,213.32,363.26,213a3,3,0,0,0,3-3Q364.67,186.43,365.25,162.76ZM321.88,77c.7-.12,1.38-.19,1.9-.24,2.54-.26,5.13-.08,7.68-.21,1.33-.07,2.93-.46,4.22-.06q2.69-.52,1,1.84.23,1.82-1.17,1.81a8.18,8.18,0,0,1-3.18.77h-.46c-3.23-.35-6.47-.73-9.71-1a2.68,2.68,0,0,0-.43-1l-.08-1A3,3,0,0,0,321.88,77Z"/><path class="cls-4" d="M301.64,153a10.45,10.45,0,0,1-3.9.12,3.14,3.14,0,0,0-1.53-.26,24.74,24.74,0,0,0-6.13,1.15c-.12,0-.21.09-.32.14a105.62,105.62,0,0,1-17.48.84,3.74,3.74,0,0,0-3.56,3.91,2.7,2.7,0,0,0-.7,2.1c1,8.51.31,16.53-.66,25a90.13,90.13,0,0,0-.32,10.5c0,3.39,1.26,10.16-.67,13-1.77,2.59,1.15,5.92,4,5.14,4.19-1.16,9.29-.45,13.61-.49l13.82-.14.21,0,.67,0a3.57,3.57,0,0,0,3-5.17c.52-3.88,1.46-7.53,1.43-11.55,0-4.83-.12-9.67-.08-14.5a99.82,99.82,0,0,1,1.23-11.86c.6-4.72.06-9,1.72-13.6C306.84,154.77,304.07,152.22,301.64,153Z"/><path class="cls-3" d="M421.72,164.82a51.52,51.52,0,0,1-2-15.88,110.9,110.9,0,0,0-.26-13.66c.7-7.86.29-15.77,1.26-23.61.29-2.34-2.31-2.83-3.9-1.91h-.27q-3.87.39-7.74.66a2.32,2.32,0,0,0-1.36-.44c-7.57-.06-15.19-.2-22.75.44-.94.08-1.9.17-2.86.28-2.5-.12-5-.28-7.5-.49a25.7,25.7,0,0,0-4.2-.27c-2.19-2.13-5.61-.85-6,2.37-1.33,11-2.42,21-.67,32a170.81,170.81,0,0,1,1.93,34.82c-.11,2.43,2.32,3.78,4.43,3.38,8.44-1.63,17-.43,25.52-.29a154.15,154.15,0,0,0,24.16-1.66,3.36,3.36,0,0,0,2.44-2.44C422.71,173.56,423,169.36,421.72,164.82Zm-21-41.89-12.79.83c-4,.26-10.15,1.67-13.12-1.76,3.13-3.49,11.49-2.42,15.42-2.58,3.21-.13,7-.71,10.54-.48,0,.08,0,.15.08.23a2.79,2.79,0,0,0,0,.37c0,.23.08.47.11.7Z"/><path class="cls-4" d="M434.88,51.86C423,47.52,411.1,43.18,398.6,41.17c-11.81-1.9-24.08-.86-35.5-4.85A2.53,2.53,0,0,0,360,38.07q-2.32,8.1-4,16.32a57.06,57.06,0,0,1-4,7.43c-1.56,2.41,1.69,4.66,3.66,3.22h.05c1.52-.21,3.15-.32,4.71-.58a2.31,2.31,0,0,1,.29.19c1.75,1.37,1.51,3.43,1.45,5.38a73,73,0,0,0,.09,11.41c.26,2,2.81,3.4,4.25,1.84,1.79.69,3.35,1.75,5.31,2,2.12.29,4.26-.57,6.34-.3s3.77,2.1,5.94,2.4c2.37.33,4.78-.89,7.16-.85s4.72.53,7.12.49c3.12-.06,6.11-.61,9.2.07,5.43,1.2,9.83,2.21,15.5,2a2.57,2.57,0,0,0,2.5-2.5,63.9,63.9,0,0,1,3.84-16.35C431.08,65.81,434,61.75,435,57a2.32,2.32,0,0,0,0-.29A2.65,2.65,0,0,0,434.88,51.86ZM370.61,47.3c1.55.37,3.11.64,4.67.88a81.19,81.19,0,0,0,9.3,2.21l-3.46,9.27c-.57,1.52-1.36,3.11-1.92,4.72-1.75-.36-3.53-.61-5.34-1a21.94,21.94,0,0,1-7.14-3A64.89,64.89,0,0,0,370.61,47.3Z"/><path class="cls-3" d="M327.48,61.7l.22-5.93a2,2,0,0,0-3-1.76h-.07c-14.71-1.24-29.62.3-44.32,1.07a2.06,2.06,0,0,0-.87,3.86,30.48,30.48,0,0,0,.44,6.55c.66,4.54,0,8.38-.66,12.82a18.37,18.37,0,0,0,0,4.47,1.58,1.58,0,0,0-.65,1.57c.59,5.16,1.08,10.35,1.32,15.55-1.84,6.11-1.92,12.41-1.57,18.81a54.32,54.32,0,0,0-1.3,10.41c0,8.06-1.56,15.85-1.37,24a2,2,0,0,0,2,2,39.54,39.54,0,0,0,7.22-.24,2,2,0,0,0,2-2c-.06-7.14-2-14.11-2-21.24,0-3.57.58-7.1.54-10.67,0-1.5-.1-3-.17-4.45l.1,0a50.71,50.71,0,0,0,8.18.23c.62,0,4.18-.8,5.57-.93a2.27,2.27,0,0,0,.37.3,2,2,0,0,0,2.74-.72l.18-.28a2,2,0,0,0-.37-2.46c.61-.58.31-3.52.31-4.07,0-1.89-.07-3.78-.22-5.67-.29-3.63-1-7.14-.71-10.79a61.57,61.57,0,0,0,.24-7,1.61,1.61,0,0,0,.51-1.47c-.37-3.27-.88-6.56-1-9.86,0-1.11.06-2.23,0-3.35a2.2,2.2,0,0,0-.12-.65,2.25,2.25,0,0,0,1.09-1.21,13.07,13.07,0,0,1,1.71,0,2,2,0,0,0,1.93-1.47c.46-2.65,4.17-2.28,6.5-2.26,2.75,0,5.44.3,8.18.19l3.13.53a2.53,2.53,0,0,0,1.42-.19,2.2,2.2,0,0,0,2.13-.89l.42-.61A1.66,1.66,0,0,0,327.48,61.7Z"/><path class="cls-5" d="M398.39,228.32c-4.16-4.53-12.86-3.1-18.27-3a161.77,161.77,0,0,0-19.31,1.59,30.8,30.8,0,0,0-9.14.09q-17,.48-34-.11a2.82,2.82,0,0,0-1.55.37c-2.12-.06-4.24-.1-6.36-.08s-4.55-.22-6.53.62a4.85,4.85,0,0,0-1.23.78l-.27.06a6.56,6.56,0,0,0-3.91,3,3.06,3.06,0,0,0-1.59,1.77,11.56,11.56,0,0,0-.68,4.25,2.73,2.73,0,0,0-.18,1.39c.45,4.06,1,8.11,1.62,12.14a59.51,59.51,0,0,0,.92,12.38q1,6,2,12.09c.4,7,2,13.82,2.76,20.83,1,8.46.5,16.89,2,25.32a3,3,0,0,0,2.89,2.2c7.76.61,9.9-7.93,10.34-14.31a76.11,76.11,0,0,0-.63-17,31.72,31.72,0,0,0,.29-7.59,2.92,2.92,0,0,0-.29-1c.12-3.38.15-6.76,0-10.14-.08-2.34-.28-4.68-.45-7a63.53,63.53,0,0,0-.23-11.28c.09-2.52.19-5,.11-7.56a3.1,3.1,0,0,0-.26-1.16c6.59.9,14.3-.36,19.8-3.43l2.95-1.67c2.84-1,5.66-2,8.48-3l.07,0A77.5,77.5,0,0,1,361,242.6a21,21,0,0,0,2,.61,2.8,2.8,0,0,0,2.14,1c3.31.07,7.11.6,10.63.25,0,.21,0,.46,0,.74-.22,2.75-2,5.56-2.39,8.42a61,61,0,0,0-.19,9.94c.2,6.6-1.72,13.53-.47,20,.36,1.86.9,3.58,1.35,5.34a15.53,15.53,0,0,0-.24,3.4c.07,3.8.44,7.64.76,11.45a2.94,2.94,0,0,0-.26.67c-1,4.08-1.57,11.38,3.28,13.37,5.32,2.19,6.94-4.87,7.89-8.38,2-7.37,3.33-14.94,4.69-22.45,1.41-7.77,1.66-16,4.25-23.5a134.24,134.24,0,0,0,4.83-20.32C400.14,238.48,402.07,232.33,398.39,228.32Z"/><path class="cls-6" d="M654.49,318.9l-34,.94.35-.29c-11.37.45-22.75.47-34.15.41a2.75,2.75,0,0,0-2.08.84c-15.91-.7-31.76-3.5-47.61-4.73-21.68-1.69-43.45-1.93-65.18-2.18a2.78,2.78,0,0,0-1.87.63c-1.6-.87-3.74-.53-4,1.73a109,109,0,0,0-1.15,15c0,5.32.71,10.64-.37,15.9a3.35,3.35,0,0,0-.07.63,11.47,11.47,0,0,1-3.12.57c-1.69.12-1.65.25-2.54-.85-1.55-1.93-1.83-8.22-1.94-10.42-.28-5.31.09-10.47-1.15-15.69a3.22,3.22,0,0,0-2.49-4.78c-15.34-1.2-31.5-3.07-46.93-2.06a2.81,2.81,0,0,0-1.57-.38c-4.33.16-8.65.45-12.95,1-2.38.28-5.18.39-6.91,2.31-4.51,5,2.08,9.6,5.74,11.93s7.23,4.31,10.57,6.8c1.83,1.37,4.58,3.48,3.22,6.13-1.23,2.4-5,2.45-7,1.92-7.32-1.9-15.38-6.86-21.56-11.27-.1-3.15-.09-7-1.51-9.28-1.81-2.94-7.92-3.92-10.91-5-9-3.4-16.3-5-25.81-2.37a61.72,61.72,0,0,0-22.31,11.35c-2.9,2.44-3,5.56-4.32,9-1.6,4-3.64,7.67-4.31,12a3,3,0,0,0,0,.92c-2.63,2.41-6.51,2-9.85,2.05-2.42.07-4.75,1.12-4.82-2.46,0-1.12.78-2.54,1.17-3.56a91.66,91.66,0,0,1,4.24-9.34c1.4-2.7,3.13-7.13,6.26-8.15a3.05,3.05,0,0,0,2.1-3.69c-.33-1.17-.62-2.33-.89-3.49a15.18,15.18,0,0,0-.3-1.84,2.38,2.38,0,0,0-.3-.73,2.55,2.55,0,0,0-3.65-1.48c-6.72,0-13.56.68-20.17-.49a3.26,3.26,0,0,0-3.69,3.9l-.79,10.69c-.11,1.54-.37,3.12-.39,4.66-9.73.4-19.36,2.6-29.13,1.4a3.06,3.06,0,0,0-.77,0,3,3,0,0,0-3.38,2.94,30.68,30.68,0,0,1-2,11.24,9.57,9.57,0,0,1-6,.07c-.57-5.22,0-10.44.27-15.7.25-5.53-.49-11-.54-16.52a3,3,0,0,0-3-3,51.74,51.74,0,0,1-8.55-.19,2.38,2.38,0,0,0-2.6,1.42c-6.4-1.17-13.35-.81-19.42-.86-13.91-.09-27.8.72-41.68,1.63-28,1.83-56.09,4-84,.26a2.35,2.35,0,0,0-2.21.75c-15.58-1.15-31.25-1.28-46.87-1.38-5.79,0-5.8,9,0,9,9.42.06,18.88.11,28.33.4a4.36,4.36,0,0,0,3.53,2c16,1,30.93,5.61,45.16,12.93a33.26,33.26,0,0,0,9.16,3.47c3.1.57,6.33.34,9.4,1,4,.88,5.32,4.13,7.87,6.85a33.14,33.14,0,0,0,8.22,5.93,43.78,43.78,0,0,1,8.8,5.85c2.65,2.45,5.06,5.13,7.92,7.36,6.1,4.75,13.68,7.22,20.14,11.48s12.71,7.88,20.22,9.87a223.91,223.91,0,0,0,25.33,4.65c11.74,1.69,23.53,2.93,35.34,4a304.3,304.3,0,0,0,66.31,6.89c9.38-.05,18.76-.37,28.15-.86L364,410.62c12,1.75,23.25,2.58,35-.71,7.21-2,14.16-4.68,21.24-7l8.81-.72,54.16-4.26,6.11-.46c9.47-1,18.74-2.89,27.45-7.4,9.49-4.91,18.19-11.21,27.79-15.92,9.21-4.51,18.42-8.23,27-13.94,1.78-1.18,3.52-2.4,5.24-3.65a104.76,104.76,0,0,1,24.62-12.14c8-2.94,15.17-9.4,22.33-12.4s23.67-4.33,28.67-6.33S654.49,318.9,654.49,318.9Z"/><path class="cls-7" d="M367.81,181.13c10,.08,20,.22,30,.24,9.71,0,19.44-.32,29-2.29.63-.13.36-1.09-.27-1-9.77,2-19.73,2.29-29.68,2.25-9.69,0-19.38-.15-29.07-.24a.5.5,0,0,0,0,1Z"/><path class="cls-7" d="M426.62,181.4q-.42,15.33-2,30.6c-.06.64.94.64,1,0q1.55-15.26,2-30.6a.5.5,0,0,0-1,0Z"/><path class="cls-7" d="M366.11,213.13c1.35-4.33.67-9.12.53-13.58l-.49-15.18c-.16-5-.39-9.94-.23-14.9s.53-9.91-.1-14.9-1.74-9.64-2.19-14.53a65.75,65.75,0,0,1,.85-15.27A82.22,82.22,0,0,0,365.56,111,117.81,117.81,0,0,0,364.29,98c-1.49-10.66-3.41-21.62.11-32.1.21-.61-.76-.87-1-.27-6,17.7,2.81,36.27.69,54.35-.56,4.8-1.49,9.57-1.66,14.41a67,67,0,0,0,1.34,13.74,74.74,74.74,0,0,1,1.37,15.77c-.2,4.89-.36,9.74-.21,14.64.17,5.69.37,11.39.55,17.08.18,5.49,1.29,11.91-.37,17.23-.19.62.77.88,1,.27Z"/><path class="cls-7" d="M375.43,120.49c-.59,1.85-.4,3.31,1.65,3.59A47.26,47.26,0,0,0,384,124l6.38-.1,6.38-.1c1.19,0,2.92.22,4-.42,2.05-1.18.73-3.53-.56-4.68-.48-.43-1.19.28-.71.71q1.6,1.05.31,3.26a14.3,14.3,0,0,1-2.1.11c-1,0-2,0-2.94,0l-6.38.1L382,123c-1.79,0-6.63,1-5.59-2.25.2-.61-.77-.88-1-.27Z"/><path class="cls-7" d="M377.87,120.29q10.83.11,21.62-.82c.64-.05.64-1.06,0-1q-10.79.93-21.62.82a.5.5,0,0,0,0,1Z"/><path class="cls-7" d="M365.56,109.56a103.69,103.69,0,0,0,25.16,1.7c9.08-.36,18.17-.78,27.25-1.16.64,0,.64-1,0-1q-13.15.56-26.3,1.13a105.73,105.73,0,0,1-25.85-1.62c-.63-.13-.9.84-.27,1Z"/><path class="cls-7" d="M421.82,179.51a33.92,33.92,0,0,0-.46-15.63c-1.62-5.91-1.66-11.65-1.6-17.73l.36-36.33a.5.5,0,0,0-1,0l-.35,35.35c-.05,5.14-.36,10.39.72,15.45.6,2.79,1.6,5.49,2,8.33.51,3.46-.05,6.89-.64,10.3-.11.63.85.9,1,.27Z"/><path class="cls-7" d="M300.75,212.65c-.26-3.73-.11-7,2-10.23,1.7-2.57,3.61-5,5.42-7.5.38-.52-.49-1-.86-.5-2.1,2.88-4.54,5.72-6.25,8.85-1.62,3-1.56,6.11-1.34,9.39,0,.64,1,.64,1,0Z"/><path class="cls-7" d="M302.34,202.4c-2.66-17.37,4.14-34.38,3-51.75-.55-8.63-2.8-17.06-3.24-25.71a77.43,77.43,0,0,1,.89-12.79c.48-4.23-.36-8.31-.71-12.51-.84-9.87-.33-19.94-.35-29.84a.5.5,0,0,0-1,0c0,8.84-.23,17.73.15,26.57.18,4.36,1.16,8.7,1.1,13.06s-1.15,8.46-1.15,12.76c0,8.66,2.2,17.11,3.07,25.69.93,9.09-.33,18.06-1.64,27-1.34,9.21-2.54,18.46-1.12,27.74.1.63,1.06.36,1-.27Z"/><path class="cls-7" d="M415.21,196.74c-6,1.85-12,3.73-17.95,5.55-6.16,1.88-12.38,3.51-18.86,3.54a.5.5,0,0,0,0,1c6.24,0,12.27-1.51,18.22-3.3,6.3-1.89,12.57-3.88,18.85-5.83.61-.19.35-1.16-.27-1Z"/><path class="cls-7" d="M391.53,197.7a62,62,0,0,1-11.07,1.23c-2.52.05-4.88.06-7.22,1.1-.59.26-.08,1.12.5.86,3-1.33,6.36-.87,9.53-1.07a62.69,62.69,0,0,0,8.52-1.16c.63-.13.36-1.09-.27-1Z"/><path class="cls-7" d="M215.32,216.31l107.55-2.37c35.74-.79,71.49-1.88,107.25-1.52q14.87.15,29.74.71,7.68.3,15.35.74l3.46.21c.94.06,3.13-.23,4,.26s.8,2,.92,3l.56,4.39c.08.63,1.08.64,1,0l-1-7.81a.52.52,0,0,0-.5-.5C448.8,211,413.89,211.11,379,211.74s-69.64,1.5-104.45,2.26l-59.25,1.3a.5.5,0,0,0,0,1Z"/><path class="cls-7" d="M214.23,217.93l-.06,7c0,1.26-.24,2.61.68,3.59.44.47,1.15-.24.71-.71-.89-.95-.39-3.66-.38-4.84l0-5.09a.5.5,0,0,0-1,0Z"/><path class="cls-7" d="M363.74,101.76c2.37.39,4.72.86,7,1.46,1.4.36,2.39.95,2.21,2.58-.14,1.22-.3,2.43-.46,3.65-.08.64.92.63,1,0,.21-1.66,1.47-5.38-.36-6.53a13.16,13.16,0,0,0-3.87-1.09c-1.75-.41-3.52-.74-5.3-1-.63-.1-.9.86-.27,1Z"/><path class="cls-7" d="M373.76,107.41c4.24-1,8.56-1,12.89-1l5.83,0c.64,0,2.32-.34,2.91,0,1.07.58,1.24,2.43,1.53,3.46a.5.5,0,0,0,1-.27c-.35-1.29-.41-3.41-1.73-4.09a5.18,5.18,0,0,0-2.22-.1l-4.37,0c-5.36,0-10.82-.22-16.07,1.06-.62.15-.36,1.12.27,1Z"/><path class="cls-7" d="M367.16,101.23c.09-2.63,10-.12,11.78.21l5,1a12.48,12.48,0,0,1,2.73.52l.91.17a4.42,4.42,0,0,1,.5,2.32c0,.64,1,.64,1,0-.06-1.09.2-2.44-.76-3.14a6.48,6.48,0,0,0-2.29-.49l-4.09-.78c-5-.95-9.94-2.08-15-1.84a.51.51,0,0,0-.48.37,4.44,4.44,0,0,0-.26,1.7c0,.64,1,.64,1,0Z"/><path class="cls-7" d="M386.62,119.81l0,3a.5.5,0,0,0,1,0l0-3a.5.5,0,0,0-1,0Z"/><path class="cls-7" d="M361.74,84.11c2.37,1,4.92-.72,7.15.67,1.7,1.06,2.73,1.68,4.85,1.43,3.63-.42,6.42-1.57,9.84.54,2,1.26,3.31,1.1,5.61.53,5.92-1.46,11.64.75,17.56-.39,2.34-.45,3.58,0,5.59,1.05a8.66,8.66,0,0,0,2.51.86c3.2.57,6.89-.62,9.45,2,.45.46,1.16-.25.71-.71A7.55,7.55,0,0,0,419.82,88a35.86,35.86,0,0,1-4.9-.24c-1.56-.32-2.61-1.2-4-1.75-2.62-1-5.28.36-8,.4-3.21,0-6.32-.95-9.55-.8s-6.45,1.91-9.59.06a9.54,9.54,0,0,0-6.47-1.21,35.52,35.52,0,0,1-4.46.82c-1.85,0-2.67-1.15-4.16-1.82-2.16-1-4.5.55-6.69-.33-.6-.24-.86.73-.27,1Z"/><path class="cls-7" d="M352.13,63.18a23.66,23.66,0,0,1,3.15-6.31c1.19-1.81,1.09-3.82,1.49-5.9.46-2.36,1.11-4.69,1.68-7s.92-5.34,3.16-6.69a.5.5,0,0,0-.5-.86c-3.53,2.13-3.81,8-4.68,11.61-.64,2.61-.63,6.09-2,8.36a28.09,28.09,0,0,0-3.25,6.55.5.5,0,0,0,1,.27Z"/><path class="cls-7" d="M362.34,37.76c3.53-.43,6.5.62,9.91,1.28a63.9,63.9,0,0,0,8.53.79A173,173,0,0,1,401,42.14a128.44,128.44,0,0,1,18.48,4.37c5.47,1.82,10.42,5,16.22,5.73.64.08.63-.92,0-1C429.5,50.49,424,46.82,418.1,45a146.25,146.25,0,0,0-18.7-4.16,176.07,176.07,0,0,0-18.62-2,52.8,52.8,0,0,1-9.57-1c-3.08-.75-5.67-1.43-8.87-1-.63.08-.64,1.08,0,1Z"/><path class="cls-7" d="M435.92,52.45c-2.15,6.36-4.17,12.77-6.63,19-2.19,5.58-5.21,11-4.92,17.21,0,.64,1,.64,1,0-.3-6.37,3-12.07,5.23-17.84,2.29-6,4.23-12.07,6.28-18.12.21-.61-.76-.87-1-.27Z"/><path class="cls-7" d="M400.34,87.71c1,7.21.85,14.55,1,21.81a.5.5,0,0,0,1,0c-.18-7.26-.06-14.6-1-21.81-.08-.63-1.09-.64-1,0Z"/><path class="cls-7" d="M415.49,89.13c-.59,3.25-1.93,7.11-1.46,10.43.12.83.44,1.62.6,2.44a23.54,23.54,0,0,1,.12,4.11c0,1,0,2.29.77,3.08a.5.5,0,0,0,.49.13l.23-.07a.5.5,0,0,0-.27-1c-.19.06-.13-4.3-.14-4.75a41.93,41.93,0,0,0-.77-4.18c-.44-3.13.85-6.86,1.41-10,.11-.63-.85-.9-1-.27Z"/><path class="cls-7" d="M384.3,49.54a102.34,102.34,0,0,1-13.45-2.62.51.51,0,0,0-.62.35q-2,7.14-4.37,14.16c-.21.61.76.87,1,.27q2.39-7,4.37-14.16l-.62.35a104.33,104.33,0,0,0,13.71,2.66c.64.08.63-.92,0-1Z"/><path class="cls-7" d="M367.72,62.65a66.59,66.59,0,0,0,12.35,3.51.51.51,0,0,0,.62-.35A44.34,44.34,0,0,1,385.08,52c.29-.57-.57-1.08-.86-.5a45.17,45.17,0,0,0-4.5,14.09l.62-.35A66.59,66.59,0,0,1,368,61.69c-.6-.23-.86.73-.27,1Z"/><path class="cls-7" d="M372.76,50.45a42.11,42.11,0,0,0,6.18,1.7c.63.12.9-.84.27-1a42.11,42.11,0,0,1-6.18-1.7c-.61-.22-.87.75-.27,1Z"/><path class="cls-7" d="M372.06,52.74a6.24,6.24,0,0,1,3.58.66c.57.3,1.08-.57.5-.86a7.19,7.19,0,0,0-4.09-.8c-.63.07-.64,1.07,0,1Z"/><path class="cls-7" d="M371.32,54.06l2.79.64c.63.14.89-.82.27-1l-2.79-.64c-.63-.14-.89.82-.27,1Z"/><path class="cls-7" d="M369.87,59.07l5.79,1.1c.63.12.9-.84.27-1l-5.79-1.1c-.63-.12-.9.84-.27,1Z"/><path class="cls-7" d="M400.72,79.79c2.87,1.16,6.16,1.29,9.2,1.72l9.84,1.4c.63.09.9-.87.27-1l-9.84-1.4c-3-.43-6.33-.56-9.2-1.72-.6-.24-.86.73-.27,1Z"/><path class="cls-7" d="M411.68,79.28q3.55.39,7.06,1c.63.12.9-.85.27-1q-3.65-.68-7.33-1.08c-.64-.07-.63.93,0,1Z"/><path class="cls-7" d="M419.22,77.39l-1.6-.42a.5.5,0,0,0-.27,1l1.6.42a.5.5,0,0,0,.27-1Z"/><path class="cls-7" d="M421.12,75.34a1.89,1.89,0,0,1-.95-.14c-.58-.26-1.09.6-.5.86a2.93,2.93,0,0,0,1.45.28c.64,0,.64-1,0-1Z"/><path class="cls-7" d="M372.42,38.16c1.11-3.64,5.6-2.33,8.37-2q3.62.4,7.24.86,7.89,1,15.73,2.3l-.3-.73a7.39,7.39,0,0,1-1.29,2.08c-.4.5.31,1.21.71.71a11.42,11.42,0,0,0,1.45-2.28.51.51,0,0,0-.3-.73q-9.89-1.63-19.85-2.81c-2.91-.34-6.65-1.39-9.54-.77a4.26,4.26,0,0,0-3.16,3.14c-.19.62.78.88,1,.27Z"/><path class="cls-7" d="M378.42,34c-.43-1.69,3.64-1.23,4.36-1.22,1.48,0,3,.05,4.44.18a34.35,34.35,0,0,1,4.67.68c2,.44,3.19.88,2.9,3.15-.08.64.92.63,1,0,.17-1.32.51-2.51-.66-3.27-2.09-1.36-5.92-1.42-8.35-1.6-1.82-.13-10.33-1.59-9.33,2.34a.5.5,0,0,0,1-.27Z"/><path class="cls-7" d="M386.69,31.34c2.49-2.94,6.26-.6,9,.69q3.53,1.69,7.16,3.15c5.38,2.17,11.55,3.3,16.51,6.35l-.1-.79-2.79,2.89c-.45.46.26,1.17.71.71l2.79-2.89a.51.51,0,0,0-.1-.79c-2.83-1.74-6-2.62-9.09-3.65q-5.53-1.82-10.88-4.16c-3.74-1.63-10.25-6.52-13.88-2.23-.41.49.29,1.2.71.71Z"/><path class="cls-7" d="M400.39,32.55c.25-4.45,7.38-.42,8.87.29,2,1,4,2,5.94,3,3.92,2.11,7.76,4.37,11.59,6.63l-.1-.79a15.26,15.26,0,0,0-4,4.71c-.31.56.55,1.07.86.5a14.51,14.51,0,0,1,3.87-4.51.5.5,0,0,0-.1-.79c-6-3.55-12.06-7.1-18.4-10.08-2.58-1.21-9.22-4.31-9.51,1,0,.64,1,.64,1,0Z"/><path class="cls-7" d="M417.5,36.27c1.28-3,8.83,1.63,10.25,2.57A48.75,48.75,0,0,0,434.49,43l-.1-.79a31.75,31.75,0,0,0-5.61,6.28c-.36.53.5,1,.86.5a30.82,30.82,0,0,1,5.45-6.08.5.5,0,0,0-.1-.79c-3.72-1.66-6.69-4.56-10.43-6.17-2-.88-6.58-3.25-7.92-.16-.25.58.61,1.09.86.5Z"/><path class="cls-7" d="M367.68,18.34c-2.72-.45-5.45-.81-8.2-1.05a39.91,39.91,0,0,0-8-.33c-2.59.32-3.63,3.55-.69,4.28a.5.5,0,0,0,.27-1L351,18l1.31-.1c.63,0,1.28,0,1.91,0q2.15.07,4.3.24c3,.23,5.94.61,8.89,1.09.63.1.9-.86.27-1Z"/><path class="cls-7" d="M368.18,20.52c1.56,1.76-3.92,1.31-4,1.31q-1.91-.16-3.81-.36c-2.81-.3-5.61-.66-8.41-1.07-.63-.09-.9.87-.27,1A113.87,113.87,0,0,0,366.13,23c1.77,0,4.62-1.07,2.76-3.17-.43-.48-1.13.23-.71.71Z"/><path class="cls-7" d="M300.84,69.37a30.33,30.33,0,0,0,7.08-.86c1.79-.45,3.25-1.23,5.15-.65.9.28,1.66.81,2.61,1,4.54,1,10.11.6,14.66-.17a25.32,25.32,0,0,1,4-.59c1.3,0,2.51.54,3.8.52,2.26,0,4.63-1.13,6.83-1.63a73.57,73.57,0,0,1,17.94-1.7.5.5,0,0,0,0-1,75.2,75.2,0,0,0-15.86,1.26c-2.6.49-5.2,1.56-7.8,1.92-1.58.22-3-.29-4.5-.35a14.84,14.84,0,0,0-3,.3,52.72,52.72,0,0,1-8.74.81c-2.92,0-6.18.28-8.9-1a4.69,4.69,0,0,0-4.19-.4,32.91,32.91,0,0,1-9.06,1.49.5.5,0,0,0,0,1Z"/><path class="cls-7" d="M306.09,67.23c-.05-4,9.3-1.67,11.82-1.47a103.72,103.72,0,0,0,11,.3,103.61,103.61,0,0,0,10.53-.81q2.21-.28,4.41-.66c.85-.14,7.6-1.76,7.26.15-.11.63.85.9,1,.27.62-3.42-3.82-2.27-5.66-1.9a102.59,102.59,0,0,1-17.5,2,104.23,104.23,0,0,1-16.7-.92c-2.67-.36-7.21-.84-7.16,3.09a.5.5,0,0,0,1,0Z"/><path class="cls-7" d="M326.38,64.71a123.15,123.15,0,0,0,1.47-12.45c.22-4.48-.35-8.91-.47-13.38-.25-9.14.42-18.35.72-27.48,0-.64-1-.64-1,0-.29,8.82-.88,17.69-.74,26.51.06,4.15.62,8.28.56,12.44a104.7,104.7,0,0,1-1.5,14.09c-.1.63.87.9,1,.27Z"/><path class="cls-7" d="M328.14,10.7c6.65-.78,12.84-2.61,19.32-4.14,3.93-.93,7.58.28,11.4,1.1Q364,8.77,369.27,9.49a143,143,0,0,0,20.26,1.35c2.28,0,2.39.08,2.41,2.38l0,5.35.09,11.19a.5.5,0,0,0,1,0l-.16-19.46a.51.51,0,0,0-.5-.5,143.9,143.9,0,0,1-33.77-3.2,54.47,54.47,0,0,0-6.93-1.41,17.79,17.79,0,0,0-6.65,1,100.83,100.83,0,0,1-16.93,3.5c-.63.07-.64,1.07,0,1Z"/><path class="cls-7" d="M279.53,55.49c15.66-1,31.18-2,46.87-1,.64,0,.64-1,0-1-15.69-1.06-31.22-.06-46.87,1-.64,0-.64,1,0,1Z"/><path class="cls-7" d="M279.08,57.32a17.28,17.28,0,0,0,0,5.07c.37,1.83,1.38,3.15,1.27,5.12-.25,4.24-1,8.49-1.5,12.72-.44,4.07.34,7.51.68,11.52s-.17,8.25-.4,12.32c-.49,8.48-1,17-1.86,25.41-.44,4.51-1,9-1.59,13.48-.52,3.71-1.15,7.36.05,11,.2.61,1.17.35,1-.27-1.36-4.11-.32-8.38.23-12.54s1-8.43,1.43-12.65c.8-8.46,1.34-16.93,1.82-25.41.23-4,.74-8.21.25-12.26-.21-1.72-.65-3.41-.8-5.14a32,32,0,0,1,.32-6.37c.46-4,1.34-8.16,1.43-12.19a7,7,0,0,0-.65-3,13.46,13.46,0,0,1-.65-6.84c.06-.64-.94-.64-1,0Z"/><path class="cls-7" d="M269.51,156c3.71-.34,7.53-1,11.24-.42a13,13,0,0,0,6.88-.4c3-1,5.55-2.28,8.8-2,2.84.24,5.47,1,8.29.18a.5.5,0,0,0-.27-1c-3,.83-5.86-.16-8.85-.27-2.68-.1-5,.9-7.49,1.82a12.25,12.25,0,0,1-4.44,1c-1.37,0-2.69-.42-4-.56-3.32-.35-6.8.28-10.11.58-.64.06-.64,1.06,0,1Z"/><path class="cls-7" d="M281.74,61.13c4,.74,4.28,4,4.93,7.29a31.2,31.2,0,0,0,1.94,6.29,23.6,23.6,0,0,0,7.71,9.85c.52.38,1-.49.5-.86A24.15,24.15,0,0,1,288.05,70c-1.08-4.16-.92-8.89-6-9.84-.63-.12-.9.85-.27,1Z"/><path class="cls-7" d="M337.81,77.11a1,1,0,0,1-.62,1.92.5.5,0,0,0,0,1,2.05,2.05,0,0,0,1.13-3.79c-.53-.36-1,.5-.5.86Z"/><path class="cls-7" d="M333.61,76.42a80,80,0,0,0-8.72.26c-1.48.15-3.91.09-5,1.33-2.6,3.06,3.6,2.69,4.78,2.53.63-.09.36-1.05-.27-1a13.46,13.46,0,0,1-2.44.18q-1.33-1.66.15-1.67c.67-.67,3.17-.45,4.19-.52,2.42-.17,4.85-.15,7.27-.14a.5.5,0,0,0,0-1Z"/><path class="cls-7" d="M327,81l7.61.06a.5.5,0,0,0,0-1L327,80a.5.5,0,0,0,0,1Z"/><path class="cls-7" d="M348.32,99.85Q336,108.08,323.58,116.2c-.54.35,0,1.22.5.86q12.4-8.13,24.74-16.35c.53-.36,0-1.22-.5-.86Z"/><path class="cls-7" d="M342,109.7a47.61,47.61,0,0,1-11.46,6.24c-.6.23-.34,1.19.27,1a48.62,48.62,0,0,0,11.7-6.34c.51-.38,0-1.25-.5-.86Z"/><path class="cls-7" d="M285.22,53.81c-2.37-.34.71-12,1-13.51q1.2-6,2.55-12c.14-.63-.82-.89-1-.27q-1.93,8.65-3.58,17.37c-.39,2.09-3,8.88.71,9.42.63.09.9-.87.27-1Z"/><path class="cls-7" d="M290.17,26.7a140,140,0,0,0,36.64-6c.61-.19.35-1.15-.27-1a138.94,138.94,0,0,1-36.37,5.94c-.64,0-.64,1,0,1Z"/><path class="cls-7" d="M305.46,36.61a2.38,2.38,0,0,1,2.24.8,1.87,1.87,0,0,1,.51,1.17c0,.63-.72.93-1.26,1.08a2.24,2.24,0,0,1-2.4-.55,1.46,1.46,0,0,1,.15-2c.5-.41-.21-1.11-.71-.71a2.45,2.45,0,0,0-.27,3.3,3.35,3.35,0,0,0,4,.78,2,2,0,0,0,1.1-3.18,3.42,3.42,0,0,0-3.63-1.63c-.63.12-.36,1.09.27,1Z"/><path class="cls-7" d="M337.63,7.28c-.1-1-.84-3.81-.24-4.59s4-.63,5-.73q5.07-.45,10.15-.66t10.17-.16a29.73,29.73,0,0,1,4.84.1,1.42,1.42,0,0,1,1.61.55q.93.28.55,1.07a7.36,7.36,0,0,1,.1.78c.12.63,1.09.36,1-.27-.28-1.47.81-2.69-1.22-3-3.38-.59-7.29-.21-10.72-.17a212.67,212.67,0,0,0-22.23,1.41c-.25,0-.53.21-.5.5l.52,5.21c.06.63,1.06.64,1,0Z"/><path class="cls-7" d="M359.14,7.09c.5-2.4,6.41-1.91,8.29-2.12s4-.55,6-.8c1.74-.22,4.29-.82,6-.43q1.32-.34,1.71,1.1l-.2,1a21.34,21.34,0,0,1-.8,3.87c-.13.63.83.9,1,.27.42-2,1.32-4.38,1.19-6.44A.53.53,0,0,0,382,3c-2-.77-4.64-.27-6.67-.07-2.64.26-5.26.71-7.9,1s-8.49-.81-9.26,2.85c-.13.63.83.9,1,.27Z"/><path class="cls-7" d="M319.68,164.69l-5.34,12c-.26.58.6,1.09.86.5l5.34-12c.26-.58-.6-1.09-.86-.5Z"/><path class="cls-7" d="M325.44,153.9c2.15-.43,4.66-1.19,5.18-3.64.13-.63-.83-.9-1-.27-.44,2.08-2.68,2.58-4.48,2.94-.63.13-.36,1.09.27,1Z"/><path class="cls-7" d="M336.59,122.16A49.37,49.37,0,0,1,325.27,130c-.57.29-.07,1.15.5.86a50.29,50.29,0,0,0,11.52-8c.47-.44-.24-1.14-.71-.71Z"/><path class="cls-7" d="M340,114.89a52.09,52.09,0,0,1-16.51,10.71c-.59.24-.33,1.21.27,1a53.39,53.39,0,0,0,17-11c.47-.45-.24-1.15-.71-.71Z"/><path class="cls-7" d="M351.2,138.3a26.78,26.78,0,0,0,2.68,5.52c.34.54,1.21,0,.86-.5a25.6,25.6,0,0,1-2.58-5.28c-.21-.6-1.18-.34-1,.27Z"/><path class="cls-7" d="M363.67,148.22,349.44,147c-.64-.05-.64.95,0,1l14.23,1.21c.64.05.64-.95,0-1Z"/><path class="cls-7" d="M268.72,155.68c-.48,5.11-.76,10.23-.77,15.36s.24,9.82-.73,14.78c-1.8,9.21-1,19-1,28.32a.5.5,0,0,0,1,0c0-10-.47-19.93,1.29-29.76.79-4.42.42-8.87.44-13.34,0-5.13.29-10.25.77-15.36.06-.64-.94-.64-1,0Z"/><path class="cls-7" d="M215.84,228.7q52.13-.17,104.25-.86t104.24-1.91q29.42-.69,58.84-1.54c.64,0,.64-1,0-1q-52.11,1.51-104.22,2.5T274.7,227.35q-29.43.26-58.86.35a.5.5,0,0,0,0,1Z"/><path class="cls-7" d="M214.5,223.3l104.58-2.15q52.28-1.07,104.57-2.15c19.54-.38,39.11-.59,58.62.81.64,0,.64-1,0-1-34.69-2.5-69.69-.59-104.42.12l-104.58,2.15L214.5,222.3a.5.5,0,0,0,0,1Z"/><path class="cls-7" d="M234.77,215.48l.53-25.84c0-.87-.24-1.91.54-2.48.46-.33,2.28,0,2.95,0l6.87,0,12.76,0a.5.5,0,0,0,0-1l-23.57-.08a.51.51,0,0,0-.5.5l-.59,28.82a.5.5,0,0,0,1,0Z"/><path class="cls-7" d="M257.48,214.27a233.8,233.8,0,0,1,1.67-25.41c.08-.64-.92-.63-1,0a233.8,233.8,0,0,0-1.67,25.41.5.5,0,0,0,1,0Z"/><path class="cls-7" d="M257,193.75q-11-.49-22-.32a.5.5,0,0,0,0,1q11-.16,22,.32c.64,0,.64-1,0-1Z"/><path class="cls-7" d="M235.53,200.46a103.72,103.72,0,0,0,11.25-.6,26.43,26.43,0,0,1,6-.54,15.8,15.8,0,0,0,4.06.21c.63-.09.36-1.06-.27-1-1.82.26-3.57-.41-5.4-.33-1.53.07-3.06.45-4.57.64a103,103,0,0,1-11.11.59.5.5,0,0,0,0,1Z"/><path class="cls-7" d="M440.75,198.82q9.5.55,19,.69a.5.5,0,0,0,0-1q-9.52-.14-19-.69c-.64,0-.64,1,0,1Z"/><path class="cls-7" d="M457.43,212.21a45.4,45.4,0,0,1,3.07-11.06c.52-1.27,2.82-5.8,1.43-7.07-.69-.63-2.16-.26-2.95-.22l-5.94.31-12.86.66c-.64,0-.64,1,0,1l9.89-.51c3.24-.17,6.65-.67,9.89-.51,1.44.07,1.28.48,1,1.81a17.7,17.7,0,0,1-.78,2.58c-.47,1.27-1,2.51-1.51,3.78a40.7,40.7,0,0,0-2.23,9c-.09.63.88.9,1,.27Z"/><path class="cls-7" d="M439.57,195.53a118.9,118.9,0,0,0,1.51,16.35c.1.63,1.07.36,1-.27a116.94,116.94,0,0,1-1.47-16.08.5.5,0,0,0-1,0Z"/><path class="cls-7" d="M448.35,194.39a29.93,29.93,0,0,0-2.42-9.69c-.26-.59-1.12-.08-.86.5a28.42,28.42,0,0,1,2.29,9.19c.05.64,1.05.64,1,0Z"/><path class="cls-7" d="M451.07,194a38.22,38.22,0,0,0-3.12-10.71.5.5,0,0,0-.56-.23l-2.24.61a.5.5,0,0,0,.27,1c1.61-.43,1.81-.67,2.5,1.08q.54,1.37,1,2.79a37.82,37.82,0,0,1,1.23,5.77c.09.63,1.05.36,1-.27Z"/><path class="cls-7" d="M445.75,194.62a24.16,24.16,0,0,0-2.94-7.29.5.5,0,0,0-.86.5,23.28,23.28,0,0,1,2.84,7.05c.14.63,1.11.36,1-.27Z"/><path class="cls-7" d="M443.23,194.63q-1-2.94-2.35-5.77c-.27-.58-1.13-.08-.86.5q1.25,2.72,2.24,5.53c.21.6,1.18.34,1-.27Z"/><path class="cls-7" d="M442.09,187.41l-2,.4c-.63.13-.36,1.09.27,1l2-.4c.63-.13.36-1.09-.27-1Z"/><path class="cls-7" d="M455.26,167.49l-9,2.17c-.63.15-.36,1.12.27,1l9-2.17c.63-.15.36-1.12-.27-1Z"/><path class="cls-7" d="M452.72,194a85.66,85.66,0,0,0-5.1-23c-.22-.6-1.19-.34-1,.27A84.67,84.67,0,0,1,451.72,194c.05.64,1.05.64,1,0Z"/><path class="cls-7" d="M458.71,193.87a185.46,185.46,0,0,0-3.18-25.19c-.12-.63-1.09-.36-1,.27a183.49,183.49,0,0,1,3.14,24.92c0,.64,1,.64,1,0Z"/><path class="cls-7" d="M459.48,187.59q.86-2.11,1.75-4.21c.25-.58.47-1.2.78-1.75q.2-.35.43-.67.94-.54.92.7c-.2.61.76.87,1,.27.4-1.2-1-2.85-2.24-2-.9.57-1.32,2.1-1.7,3q-.94,2.22-1.86,4.44c-.24.6.72.85,1,.27Z"/><path class="cls-7" d="M463.4,181.54a44.9,44.9,0,0,0-5.31,11.8.5.5,0,0,0,1,.27A43.93,43.93,0,0,1,464.26,182c.35-.54-.52-1-.86-.5Z"/><path class="cls-7" d="M453.17,172.12l-.4,0c-.64,0-.64,1,0,1l.4,0c.64,0,.64-1,0-1Z"/><path class="cls-7" d="M454.15,175.12h-.4a.5.5,0,0,0,0,1h.4a.5.5,0,0,0,0-1Z"/><path class="cls-7" d="M454.53,177.73h-.4a.5.5,0,0,0,0,1h.4a.5.5,0,0,0,0-1Z"/><path class="cls-7" d="M455.5,180.74h-.4a.5.5,0,0,0,0,1h.4a.5.5,0,0,0,0-1Z"/><path class="cls-7" d="M455.54,183.68s-.2-.1-.25-.12a.81.81,0,0,0-.4,0,.62.62,0,1,0,.37,1.16c.58-.29.07-1.15-.5-.86l-.06,0h.5l.12.45-.3.23s.26.13.32.14a.75.75,0,0,0,.46,0c.61-.21.35-1.17-.27-1Z"/><path class="cls-7" d="M455.66,186.15h-.2a.5.5,0,0,0,0,1h.2a.5.5,0,0,0,0-1Z"/><path class="cls-7" d="M456.16,188.8a1.33,1.33,0,0,0-1.3.28c-.5.4.21,1.11.71.71a.29.29,0,0,1,.32,0c.62.19.88-.78.27-1Z"/><path class="cls-7" d="M456,191.36h-.4a.5.5,0,0,0,0,1h.4a.5.5,0,0,0,0-1Z"/><path class="cls-7" d="M245,142.84c1.27.35,2.93.65,3.78-.66a2,2,0,0,0,.31-1.15c0-.84-.73-.28.12-1.64.2-.32.64-.58.87-.89.51-.7,1-2,.4-2.83a2.37,2.37,0,0,0-1.37-.63l-3.22-.87a.5.5,0,0,0-.27,1c1.06.28,2.19.49,3.22.87,1.6.59.51,1.77-.34,2.69a2.74,2.74,0,0,0-.74,1.28c0,.17.08.38.08.55,0,2-.93,1.82-2.57,1.37a.5.5,0,0,0-.27,1Z"/><path class="cls-7" d="M242.67,100.64a3.86,3.86,0,0,0,1.15,4.89l-.18-.68c-.94,1.39-3,.63-3.65,2.43-.27.71.13,1.51-.07,2.19-.53,1.76-1.86,1.12-2.7,2.16-1.08,1.34.67,2.61-.92,3.77-1.25.91-2.28,1.35-1.72,3.16a5.27,5.27,0,0,0,1.27,1.88c1.14,1.27,1.82,1.24,1.2,3.87-.06.26-.35.45-.39.71-.26,1.66-.08,2,1.34,2.95a2.67,2.67,0,0,1,1.55,2.54c0,1.27,1.85,1-1.16,2.57-.19.1-.61,0-.73.11-1.27.63-1.94,1.06-1.8,2.64.15,1.76.77,2.6-.13,4.46-.39.82-.83,1.16-.86,2.08-.06,1.76,1.11,2.34-.37,4.33-.52.7-1,.8-1.27,1.7-.31,1.25.44.82-.84,1.47-.92.47-.83.08-1.76.19a5.1,5.1,0,0,0-2.35.68c-1.73,1.15-1.16,2.3-1.12,4,0,2.12-2.21,3.38-2.55,5.51-.14.91-.57,3,.4,3.63.79.51,1.65-.26,2.23-.73s1.6-1.83,2.1-1.83c-.4,0-.57,1.79-.46,2.32.31,1.56,2.4,1.86,3.57,2.5,2,1.08.59,2,.86,3.55a5,5,0,0,0,1.24,1.87c1.56,1.92,3.23,4.41,5.74,5.15s5.8-.65,8.3-1.28a.5.5,0,0,0-.27-1c-3.49.89-7.17,2.55-10.18-.27a29.23,29.23,0,0,1-2.59-3c-.7-.86-1.24-1.31-1.11-2.45,0-.42.35-.88.31-1.33-.13-1.34-1.4-2-2.49-2.46-.83-.38-2.13-.64-2.38-1.71a4.93,4.93,0,0,1,.16-1.26,2.24,2.24,0,0,0-.14-1.49.5.5,0,0,0-.43-.25,2.41,2.41,0,0,0-1.37.78c-.47.39-.9.84-1.38,1.23-1,.85-1.19.45-1.23-.77-.07-2.18,1.29-3.07,2.33-4.7.61-1,.34-1.59.19-2.64-.35-2.55,2-3,4.06-2.94a2.92,2.92,0,0,0,1.14,0c.83-.28.82-.79,1-1.55a4.58,4.58,0,0,1,1.22-2.42,3.94,3.94,0,0,0,.72-.9c.62-1.36-.39-2.58-.29-3.94s1.51-2.18,1.6-3.62c.12-2.06-1.58-4,1.6-4.75,2.6-.59,2.28-2.66,1.63-4.86a2.25,2.25,0,0,0-.91-1.42c-.36-.27-1-.33-1.27-.63-.94-.88-.45-1.93-.2-3a3.07,3.07,0,0,0-.31-2.78,10,10,0,0,0-1.2-1.35,4.84,4.84,0,0,1-1-1.19c-1-2.75.38-1.92,1.26-2.63.68-.55,1.22-.65,1.25-1.64,0-.17-.13-.34-.11-.51a.94.94,0,0,1,.28-1.38.92.92,0,0,1,.71-.9c.32-.25.77-.29,1.07-.6,1.11-1.08.29-2.54,1.23-3.69s2.24-.91,3-2.08a.51.51,0,0,0-.18-.68,2.9,2.9,0,0,1-.79-3.52c.28-.58-.58-1.08-.86-.5Z"/><path class="cls-7" d="M224.94,228.82c.76,1.51,1.37,4.05,3.08,4.65,1.35.47,3.43.17,4.86.24l5.38.23,4.89.21c1.34.06,3.22.51,4.52.15a1.65,1.65,0,0,0,1.13-.85,18.17,18.17,0,0,0,.78-2A7.14,7.14,0,0,1,252,229c.53-.36,0-1.23-.5-.86a9.76,9.76,0,0,0-3.12,3.64c-1,1.74-1.75,1.56-3.72,1.47l-4.4-.19-8.31-.36c-1.24-.05-3.22.25-4.22-.64-.8-.71-1.38-2.73-1.87-3.71-.29-.57-1.15-.07-.86.5Z"/><path class="cls-7" d="M449.37,226a8.82,8.82,0,0,1,2.29,4.55.5.5,0,0,0,.48.37c5.64-.18,11.28-.34,16.92-.53,1.51-.05,3.29,0,4.49-1.05s1-3.37,2.64-4.12c.58-.27.08-1.13-.5-.86-1.61.75-1.54,2.48-2.6,3.72-1.26,1.49-3.15,1.28-5,1.34l-5,.16c-3,.09-6,.41-9,.28-1.79-.08-1.55-.48-2.21-1.92a9.93,9.93,0,0,0-1.85-2.64c-.44-.47-1.15.24-.71.71Z"/><path class="cls-7" d="M360.36,195.51a203.72,203.72,0,0,1-34.52,11.74c-.63.15-.36,1.12.27,1a205.14,205.14,0,0,0,34.76-11.84c.59-.26.08-1.12-.5-.86Z"/><path class="cls-7" d="M318.38,201.48c12,.85,23.22-4.4,34.84-6.58.63-.12.36-1.08-.27-1-11.53,2.16-22.63,7.38-34.57,6.54-.64,0-.64,1,0,1Z"/><path class="cls-7" d="M253.07,121.83c2.68-1.37,2,2.43,2.91,3.54,1.13,1.33,3.49-.41,3.67,2.14,0,.64,1,.64,1,0a3.07,3.07,0,0,0-.92-2.4,2.36,2.36,0,0,0-1.38-.31c-.63-.05-1,.55-1.7-.19-.25-.27-.2-1-.24-1.3-.24-2-1.89-3.34-3.85-2.34-.57.29-.07,1.16.5.86Z"/><path class="cls-7" d="M243.05,121a8.14,8.14,0,0,0,2.32-2.35q1.09-2,3.18-.79a1.79,1.79,0,0,0,.44.47c.26.07.5.29.79.29s.64-.28.92-.41a5.61,5.61,0,0,1,4.18-.12,3,3,0,0,0,2.62,0c.57-.3.07-1.16-.5-.86-1.59.82-3.17-1.32-4.93-.94-.64.14-1.32,1-1.87,1.06-1,.11-1-.51-1.68-.88-2.67-1.54-4.24,2.73-6,3.67-.57.31-.06,1.17.5.86Z"/><path class="cls-7" d="M256.24,112.15c1.17-1-.4-2.25-1.3-2.64a7.21,7.21,0,0,0-5.52,0c-.59.23-.33,1.2.27,1a6.49,6.49,0,0,1,2.84-.49c.21,0,3.78.83,3,1.5-.49.42.22,1.12.71.71Z"/><path class="cls-7" d="M251.67,108.5a1.64,1.64,0,0,0,.8-2.74c-1.18-1.22-2.91-.53-4.16.15-.56.31-.06,1.17.5.86a3.35,3.35,0,0,1,2.35-.65c.66.18,1.21,1.26.24,1.4-.63.09-.36,1.05.27,1Z"/><path class="cls-7" d="M247.55,100.06c-.4-1.4,1.31-1.84,2.18-1.79a3.3,3.3,0,0,1,1.85.73,7.43,7.43,0,0,1,2.13,3.16c.25.58,1.21.33,1-.27-.85-2-2.12-4.2-4.49-4.57-1.78-.28-4.2.89-3.6,3a.5.5,0,0,0,1-.27Z"/><path class="cls-7" d="M253.92,104.62c2.85-1.16,6.07,1.6,4,4.62a.5.5,0,0,0,.43.75c.87,0,1.38,2.31,2,3a3.42,3.42,0,0,0,1.22.76c1.12.48,2,.8,2.21,2.21.25,1.58-.63,3.49-1.41,4.79a.5.5,0,0,0,.86.5c1-1.69,2.88-6.18.74-7.75a5.71,5.71,0,0,0-1.52-.51c-1.44-.49-1.44-1.35-2.12-2.49-.53-.9-.89-1.44-2-1.49l.43.75a4.15,4.15,0,0,0-5.16-6.09c-.59.24-.33,1.21.27,1Z"/><path class="cls-7" d="M234.37,158.24c2.32-1.59,3.65-.17,5.1,1.45.39.43.56.77,1.18.9,1,.2,1.71-.6,2.61-.75,1.66-.28,3.66,2,4.87,3,.5.4,1.21-.31.71-.71-1.24-1-2.87-2.9-4.47-3.29s-2.76,1.36-4.15.13c-1-.86-1.18-1.81-2.65-2.22a4.34,4.34,0,0,0-3.69.66c-.53.36,0,1.23.5.86Z"/><path class="cls-7" d="M240.7,167.87a8.91,8.91,0,0,1,3.13-1.74c1.28-.28,1.41.08,2.43.62a3.23,3.23,0,0,0,1.54.63,5,5,0,0,0,2.87-.89c1.69-1,2.49-1.49,4.62-1.47,4.23,0,3.76-5.51,1.88-7.87-.4-.5-1.1.21-.71.71,1,1.27,1.86,3.64.71,5.16s-2.42.7-3.76.91c-1.71.27-2.77,1.91-4.4,2.29s-2.93-1.5-4.7-1.24a9.75,9.75,0,0,0-4.32,2.21c-.51.4.21,1.1.71.71Z"/><path class="cls-7" d="M250,153.19c1.44-.9,4.36-2.33,5.3,0a.51.51,0,0,0,.73.3c1.52-.92,2.59.09,4,.28.44.06.93-.2,1.35-.15,1.83.25,2.37,1.15,2.26,2.8,0,.64,1,.64,1,0,.11-1.72-.14-3.68-2.17-3.93-.6-.07-.77.17-1.36.16-2.73,0-1.18-.58-2.61-.75a4,4,0,0,0-3,.71l.73.3c-1.25-3.13-4.57-2-6.77-.62-.55.34,0,1.2.5.86Z"/><path class="cls-7" d="M263.05,136.94c.66-1.32,2.16-3,1.12-4.58-.92-1.36-2.6-.66-3.71,0l.68.68c.38-.71,1.4-1.87,1-2.73s-2-1.1-2.85-1c-2.79.2-4.34,2.67-5.23,5-.23.6.74.86,1,.27a6.92,6.92,0,0,1,2.77-3.85c.63-.35,2-.82,2.64-.38.85.57.15,1.59-.17,2.18a.5.5,0,0,0,.68.68,5,5,0,0,1,1.27-.62q1.78.41,1.07,1.6a8.35,8.35,0,0,1-1.12,2.22c-.29.57.58,1.08.86.5Z"/><path class="cls-7" d="M246.76,151.2c-.18-1.4-1-3.77-2.72-4-1.4-.16-1.79,1.45-1.84,2.53l.93-.25c-.93-1.31-2.81-2.69-4-.78s.58,3.69,2,4.8c.51.39,1-.48.5-.86-.76-.59-1.76-1.33-1.89-2.35-.05-.42,0-1.32.58-1.45.79-.19,1.53.61,1.91,1.15a.5.5,0,0,0,.93-.25c0-.77.23-1.95,1.34-1.13a4,4,0,0,1,1.21,2.56c.08.63,1.08.64,1,0Z"/><path class="cls-7" d="M264.37,143.46c-.72,1.12-1.84,2.8-1.47,4.22a1.92,1.92,0,0,0,1.11,1.26c1.16.61,2,.81,2.65,2.16,2.1,4.72-2.93,5.2-4.77,8.5a3.68,3.68,0,0,0-.54,2.32c.22,1.54,1.76,2.18,1.36,3.75s-1.45,1.14-2.47,2a1.7,1.7,0,0,0-.69,1.21,2.31,2.31,0,0,0,.22,1q.24.58.53,1.14.12,3.51-2.52,2.86c-1.59,0-1.49-.38-2.7-1.09a4.54,4.54,0,0,0-1-.49c-4.18-1.28-6.58,3.59-4.11,6.66l.22-.84a21.05,21.05,0,0,1-11.32-1.32c-.6-.24-.86.73-.27,1a22,22,0,0,0,11.85,1.32c.41-.06.43-.58.22-.84-1.31-1.63-1.11-4.15,1.17-5a3.72,3.72,0,0,1,3.33.82,5,5,0,0,0,2.18,1.1,3.58,3.58,0,0,0,3.76-2.1,3.63,3.63,0,0,0,.28-1.69c0-.51-.33-.93-.37-1.4a1.78,1.78,0,0,1,1-2.14c1-.68,2.29-.91,2.23-2.45,0-.91-.75-1.47-1.16-2.21-1.46-2.62.32-4.15,2.16-5.61,1.39-1.1,3.16-2.46,3.3-4.4a6.81,6.81,0,0,0-2.21-4.51c-.74-.58-2.21-.46-2.47-1.62-.2-.92.9-2.38,1.38-3.14.35-.54-.52-1-.86-.5Z"/><path class="cls-7" d="M247.52,179.78a36.65,36.65,0,0,0-.89,5.7c0,.64,1,.64,1,0a34.93,34.93,0,0,1,.86-5.43c.15-.63-.81-.89-1-.27Z"/><path class="cls-7" d="M244.53,179.86a36.69,36.69,0,0,1-.26,6.06c-.08.64.92.63,1,0a36.69,36.69,0,0,0,.26-6.06c0-.64-1-.64-1,0Z"/><path class="cls-7" d="M232.68,234.15c-.85,18.68-1.83,37.33-1.09,56s2.29,37.45.45,56.14c-.06.64.94.64,1,0,1.84-18.69.29-37.43-.45-56.14s.24-37.36,1.09-56c0-.64-1-.64-1,0Z"/><path class="cls-7" d="M243.1,234.67q.07,28.73-2.17,57.4c-.75,9.46-1.37,18.67-.66,28.16s1.76,18.69.82,28.06c-.06.64.94.64,1,0,.93-9.21-.09-18.39-.78-27.58-.73-9.66-.13-19,.63-28.64q2.26-28.64,2.17-57.4a.5.5,0,0,0-1,0Z"/><path class="cls-7" d="M454.93,232.46c-.25,9.38-.59,18.76-.75,28.13a103.93,103.93,0,0,0,.82,13.53,75.51,75.51,0,0,1,.22,13.59c-1.24,18.84.11,37.47,1.83,56.24.06.64,1.06.64,1,0-1.72-18.77-3.08-37.4-1.83-56.24a75.23,75.23,0,0,0-.22-13.59,103.37,103.37,0,0,1-.82-13.53c.16-9.38.5-18.76.75-28.13a.5.5,0,0,0-1,0Z"/><path class="cls-7" d="M467.13,231.64c-1.51,9.36-3.45,18.77-3.43,28.29,0,9.69,1.33,19.32,1.3,29-.07,19.44-.81,38.89-1.24,58.32a.5.5,0,0,0,1,0c.42-19.11,1.08-38.23,1.23-57.35.07-9.54-1.11-19-1.27-28.51-.17-9.95,1.8-19.73,3.38-29.51.1-.63-.86-.9-1-.27Z"/><path class="cls-7" d="M285.09,188.6l-2.73,1.53a.5.5,0,0,0,.5.86l2.73-1.53a.5.5,0,0,0-.5-.86Z"/><path class="cls-7" d="M287.07,184.75l-11.32,5.65c-.58.29-.07,1.15.5.86l11.32-5.65c.58-.29.07-1.15-.5-.86Z"/><path class="cls-7" d="M283.72,181.56a29.23,29.23,0,0,0-6.84,4c-.51.39.2,1.1.71.71a27.47,27.47,0,0,1,6.4-3.69c.59-.24.33-1.21-.27-1Z"/><path class="cls-7" d="M281.14,181.75a.5.5,0,0,0,0-1,.5.5,0,0,0,0,1Z"/><path class="cls-7" d="M297.58,161l-2,2.7c-.38.52.49,1,.86.5l2-2.7c.38-.52-.49-1-.86-.5Z"/><path class="cls-7" d="M346.44,163.15a16.4,16.4,0,0,1,3,4.57c.26.59,1.12.08.86-.5a17.18,17.18,0,0,0-3.14-4.78c-.44-.47-1.14.23-.71.71Z"/><path class="cls-7" d="M352.59,85.25,348.34,84a.5.5,0,0,0-.27,1l4.25,1.21a.5.5,0,0,0,.27-1Z"/><path class="cls-7" d="M350.94,82.32a.5.5,0,0,0,0-1,.5.5,0,0,0,0,1Z"/><path class="cls-7" d="M451.43,44.88a22,22,0,0,0-5.21-9.13c-.44-.47-1.15.24-.71.71a20.89,20.89,0,0,1,5,8.68.5.5,0,0,0,1-.27Z"/><path class="cls-7" d="M456.89,36.94a3.79,3.79,0,0,0-1.84-3.13.5.5,0,0,0-.5.86,2.75,2.75,0,0,1,1.35,2.26c0,.64,1,.64,1,0Z"/><path class="cls-7" d="M243.71,80.41A38.53,38.53,0,0,0,239,71.36c-.37-.52-1.23,0-.86.5a37.49,37.49,0,0,1,4.56,8.82c.22.6,1.18.34,1-.27Z"/><path class="cls-7" d="M233.3,79.52,229.42,78c-.6-.24-.86.73-.27,1L233,80.48c.6.24.86-.73.27-1Z"/><path class="cls-7" d="M209.51,202.64l-14.37,4.15a.5.5,0,0,0,.27,1l14.37-4.15a.5.5,0,0,0-.27-1Z"/><path class="cls-7" d="M208.54,196.05a29.26,29.26,0,0,0-9.45,1.48c-.61.2-.35,1.17.27,1a28.45,28.45,0,0,1,9.18-1.45.5.5,0,0,0,0-1Z"/><path class="cls-7" d="M205.49,190.21a4.3,4.3,0,0,0-2.59.82c-.52.38,0,1.24.5.86a3.39,3.39,0,0,1,2.08-.68.5.5,0,0,0,0-1Z"/><path class="cls-7" d="M447.84,153.84l0-3.88a.5.5,0,0,0-1,0l0,3.88a.5.5,0,0,0,1,0Z"/><path class="cls-7" d="M452.92,146l-.76-1.94c-.23-.59-1.2-.33-1,.27l.76,1.94c.23.59,1.2.33,1-.27Z"/><path class="cls-7" d="M475.13,180.12a9.2,9.2,0,0,0-3.23-8.17c-.49-.41-1.2.29-.71.71a8.29,8.29,0,0,1,2.93,7.47c-.08.64.92.63,1,0Z"/><path class="cls-7" d="M478.08,173.16a6,6,0,0,0-2.42-4.67c-.51-.39-1,.48-.5.86a4.91,4.91,0,0,1,1.93,3.81.5.5,0,0,0,1,0Z"/><path class="cls-7" d="M463.43,347.43c-1.68-.11-4.83,1.87-6.07.13-.37-.52-1.24,0-.86.5,1.76,2.47,4.66.22,6.94.37.64,0,.64-1,0-1Z"/><path class="cls-7" d="M231.85,349.06c-.29,2.37,2.37,2.95,4.2,3.1,2.29.19,4.67-.56,5.64-2.79.25-.58-.61-1.09-.86-.5a4,4,0,0,1-3.53,2.32c-1.25.1-4.71,0-4.45-2.12.08-.64-.92-.63-1,0Z"/><path class="cls-7" d="M425.72,202.63c4.53,2.86,10.28,1.84,14.84,4.59a.5.5,0,0,0,.5-.86c-4.57-2.76-10.32-1.74-14.84-4.59-.55-.34-1,.52-.5.86Z"/><path class="cls-7" d="M257.47,207.25q4.44-2.2,9.05-4c.59-.23.34-1.2-.27-1q-4.74,1.84-9.29,4.1c-.58.29-.07,1.15.5.86Z"/><path class="cls-7" d="M377.69,238.17c-1.22,4.06-2.48,8.12-3.67,12.19a26.85,26.85,0,0,0-.87,10.94c.42,4-.15,7.89-.61,11.89a37.88,37.88,0,0,0,.23,10.49,69.14,69.14,0,0,1,1.16,12.22c-.07,4.12-.5,8.22-.65,12.33-.07,1.89-.1,3.79,0,5.69.07,1,0,2.37.85,3.17,1.71,1.67,5.88,1.06,7.95.77.63-.09.36-1.05-.27-1a19.31,19.31,0,0,1-3.34.2c-1.47-.05-2.29-.06-3.29-1.25-1.3-1.54-1-3.74-1-5.71,0-3.48.35-7,.54-10.44a62,62,0,0,0-.12-10.4c-.37-3.26-1.18-6.45-1.39-9.73a55.16,55.16,0,0,1,.73-10,46.68,46.68,0,0,0-.06-10.1c-.66-7,2.71-14.37,4.71-21a.5.5,0,0,0-1-.27Z"/><path class="cls-7" d="M316.69,252.41a484.46,484.46,0,0,0,57.64-.85c.64,0,.64-1,0-1a484.46,484.46,0,0,1-57.64.85c-.64,0-.64,1,0,1Z"/><path class="cls-7" d="M375.83,243.44c-5.61-.1-11.19.62-16.8.55-5.1-.07-10.16,0-15.25.41-9,.65-18,2.07-27.08,1.93a.5.5,0,0,0,0,1c9.06.14,18.06-1.28,27.08-1.93,4.92-.36,9.83-.49,14.77-.41,5.77.09,11.51-.64,17.28-.54a.5.5,0,0,0,0-1Z"/><path class="cls-7" d="M317.33,255.87c4.14-.13,8.29,0,12.44,0,2.07,0,4.14,0,6.21,0,2.75,0,7.27-.82,8,2.79.13.63,1.1.36,1-.27-1-5-8.2-3.51-11.9-3.53-5.24,0-10.5-.23-15.74-.07-.64,0-.64,1,0,1Z"/><path class="cls-7" d="M350.42,258.32l0,.16c-.11.63.83.9,1,.27.29-1.42,2.87-1.51,4-1.83a35.87,35.87,0,0,1,5-1.08,65.84,65.84,0,0,1,12.69-.69c.64,0,.64-1,0-1a57.12,57.12,0,0,0-15.52,1.13c-1.65.36-3.32.82-4.95,1.25-1.11.3-2,.78-2.24,2l1,.27,0-.16c.11-.63-.85-.9-1-.27Z"/><path class="cls-7" d="M344,259.42a15.18,15.18,0,0,0,6.77.08c.63-.13.36-1.1-.27-1a14,14,0,0,1-6.23-.08c-.63-.15-.89.81-.27,1Z"/><path class="cls-7" d="M343.55,259.08a172.94,172.94,0,0,1,.2,36.3c-.06.64.94.64,1,0a172.94,172.94,0,0,0-.2-36.3c-.07-.63-1.07-.64-1,0Z"/><path class="cls-7" d="M350.51,259.37q.54,22.51-.66,45c0,.64,1,.64,1,0q1.2-22.48.66-45a.5.5,0,0,0-1,0Z"/><path class="cls-7" d="M349.18,293.81c-1.68.1-5.37-.16-6.2,1.67-.45,1-.16,3-.14,4.06,0,2,.18,4,.42,6,.07.63,1.07.64,1,0a59.34,59.34,0,0,1-.42-7.29c0-1.27-.22-2.38,1.08-2.92a14,14,0,0,1,4.26-.52c.64,0,.64-1,0-1Z"/><path class="cls-7" d="M343.79,307a41.67,41.67,0,0,0,6-.06c.64-.05.64-1.05,0-1a41.67,41.67,0,0,1-6,.06c-.64,0-.64,1,0,1Z"/><path class="cls-7" d="M315.85,316.1a51.47,51.47,0,0,0-1.69,5.86c-.26,1.16-.24,4.69-1.14,5.59-.35.35-2,.36-2.59.44-2.3.31-3.32-1.19-3.71-3.18s-.8-4-1.17-5.95c-.12-.63-1.08-.36-1,.27.48,2.58.61,6.08,1.81,8.43.88,1.72,2.62,1.63,4.31,1.4s3.1,0,3.6-1.7c.55-1.85.57-4,1-5.87a51.35,51.35,0,0,1,1.5-5c.21-.61-.75-.87-1-.27Z"/><path class="cls-7" d="M374.53,317.33c-.13,2.77-.49,5.62-.4,8.39.06,1.82,1.47,1.55,3.07,1.56,1.29,0,4.24.14,5.29-.88.63-.61.58-1.82.68-2.61l.6-4.31c.09-.63-.88-.9-1-.27-.23,1.65-.31,3.41-.7,5-.34,1.4-.83,1.67-2.19,1.85a20.11,20.11,0,0,1-2.72.19c-.88,0-1.71.09-2.05-.92a10.21,10.21,0,0,1,.14-2.92l.24-5.11c0-.64-1-.64-1,0Z"/><path class="cls-7" d="M341.41,315.59c11.94-2.52,22.78,4.32,33.4,8.64.6.24.86-.72.27-1-10.84-4.41-21.75-11.22-33.93-8.64-.63.13-.36,1.1.27,1Z"/><path class="cls-7" d="M316.93,326.4c6.8-3.88,13.72-8.81,21.39-10.75a.5.5,0,0,0-.27-1c-7.77,2-14.74,6.92-21.63,10.85a.5.5,0,0,0,.5.86Z"/><path class="cls-7" d="M315.7,320.27q13.7-7.85,27.63-15.3c.57-.3.06-1.17-.5-.86q-13.93,7.45-27.63,15.3a.5.5,0,0,0,.5.86Z"/><path class="cls-7" d="M350.21,304.75a189.33,189.33,0,0,1,23,10.55c.57.31,1.07-.56.5-.86a191.28,191.28,0,0,0-23.23-10.65c-.6-.23-.86.74-.27,1Z"/><path class="cls-7" d="M352.26,271.86l9.14.39c.64,0,.64-1,0-1l-9.14-.39c-.64,0-.64,1,0,1Z"/><path class="cls-7" d="M361.15,269.32v4.53a.5.5,0,0,0,.63.48,8,8,0,0,1,3.13-.43,17.21,17.21,0,0,0,2.28.36c1.24-.08,1.18-1.18,1.23-2.16s.62-3.09-.26-3.76c-.46-.35-1.2-.21-1.73-.21l-3.31,0a.5.5,0,0,0,0,1,33.51,33.51,0,0,1,3.78,0c.34,0,.47-.07.66.26.09.16,0,.71,0,.9l-.1,2c0,.78-.28,1-1.05.79a9.59,9.59,0,0,0-1.44-.22,8.79,8.79,0,0,0-3.39.47l.63.48v-4.53a.5.5,0,0,0-1,0Z"/><path class="cls-7" d="M312.27,288.39c.22,5.14,1.82,10,1.18,15.23-.08.64.92.63,1,0,.64-5.21-1-10.07-1.18-15.23,0-.64-1-.64-1,0Z"/><path class="cls-7" d="M378.73,311.77c1.91-3.13,4.86-5.94,5.09-9.8,0-.64-1-.64-1,0-.21,3.61-3.16,6.36-5,9.29-.34.55.53,1.05.86.5Z"/><path class="cls-7" d="M384.13,230.61l-4.65,3.27c-.52.37,0,1.23.5.86l4.65-3.27c.52-.37,0-1.23-.5-.86Z"/><path class="cls-7" d="M383.39,230.81c.4-1.08-1.21-1.27-1.89-1.43L375,227.86c-.63-.15-.89.82-.27,1s7.55,2,7.64,1.73c-.22.6.74.87,1,.27Z"/><path class="cls-7" d="M382.22,325.13a124.59,124.59,0,0,1,12.66,7.64q3.45,2.38,6.73,5c1.11.89,1.83,1.55,1.87,3.08s-.73,1.83-2,2.45a10.64,10.64,0,0,1-4.3,1.42c-1.73.07-3.13-.95-4.62-1.77q-3.47-1.93-6.91-3.93-3.23-1.88-6.42-3.83c-1.38-.84-3-1.58-3.83-3-1.17-2-.37-4,.48-5.91.26-.58-.6-1.09-.86-.5-1,2.32-2.06,5-.37,7.31s5.26,3.7,7.68,5.13q5,3,10.13,5.82c2.92,1.62,4.54,2.31,7.71,1,1.92-.82,4-1.25,4.26-3.54.27-2.59-.88-3.42-2.83-5a124,124,0,0,0-18.89-12.24c-.57-.3-1.07.56-.5.86Z"/><path class="cls-7" d="M312.29,328.54c-1.3,4.71-2.81,9.36-4.57,13.91-.81,2.1-1.51,4.77-2.76,6.64-1.57,2.33-5.59,2.44-8.15,2.38-2.11-.05-4.91-.13-4.37-3.5.17-1.07,1.34-2.52,1.85-3.48l3.24-6.1c2.14-4,4-9.19,8.28-11.42.57-.3.06-1.16-.5-.86-5.16,2.71-7.46,9.55-10,14.4l-2.55,4.79c-.58,1.09-1.6,2.43-1.76,3.7-.22,1.76,1.21,2.61,2.7,3,2.64.77,5.44.39,8.1-.08,3-.53,3.59-1.27,4.78-4a146.56,146.56,0,0,0,6.7-19.12.5.5,0,0,0-1-.27Z"/><path class="cls-7" d="M389,315.43a405,405,0,0,1,61.1,2.35c.64.07.63-.93,0-1a405,405,0,0,0-61.1-2.35c-.64,0-.64,1,0,1Z"/><path class="cls-7" d="M467.42,315c29.18-.48,58.19,1.48,87.21,4.38,21.51,2.15,61.65.87,83.94,0,.86,0,2.52.2,2.78-.62.08-.26-.09-.28-.42-.27-15.22.54-49.76,1.43-65,1.1-14.54-.31-28.92-2.17-43.4-3.35s-29.11-2-43.7-2.25q-10.71-.2-21.43,0A.5.5,0,0,0,467.42,315Z"/><path class="cls-7" d="M227.53,315.95c-12.8.57-25.61,1.15-38.43,1.22-6.43,0-12.86-.23-19.28.07-6.2.29-12.37.93-18.55,1.56a276.91,276.91,0,0,1-36.88,1.53c-12.16-.38-24.28-1.42-36.42-2.12-13.81-.79-27.66-1.05-41.44.42-.63.07-.64,1.07,0,1,24.38-2.61,48.72.44,73.09,1.51a261.15,261.15,0,0,0,36.76-.86c6.34-.61,12.68-1.34,19-1.79s12.44-.37,18.68-.33c14.48.08,29-.57,43.42-1.22.64,0,.64-1,0-1Z"/><path class="cls-7" d="M349.55,227.72a33.28,33.28,0,0,0-1.77,8.27c-.06.64.95.64,1,0a32.24,32.24,0,0,1,1.73-8c.21-.61-.75-.87-1-.27Z"/><path class="cls-7" d="M344.28,229.35a21,21,0,0,0,0,8c.12.63,1.09.36,1-.27a19.61,19.61,0,0,1,0-7.44c.12-.63-.85-.9-1-.27Z"/><path class="cls-7" d="M377.47,239.83a76,76,0,0,1-21.54-8,.5.5,0,0,0-.5.86,76.91,76.91,0,0,0,21.78,8.1c.63.13.9-.84.27-1Z"/><path class="cls-7" d="M310.49,247.76c.12,2.2-2.76,4.08-4,5.73a9.83,9.83,0,0,0-2,5.45c0,.64,1,.64,1,0,.14-2.91,1.74-5,3.69-7.08,1.16-1.22,2.33-2.32,2.24-4.11,0-.64-1-.64-1,0Z"/><path class="cls-7" d="M394.51,244.15a13.39,13.39,0,0,1-8,5.12c-.63.13-.36,1.1.27,1a14.4,14.4,0,0,0,8.64-5.58c.38-.52-.48-1-.86-.5Z"/><path class="cls-7" d="M388.91,235.34a22.19,22.19,0,0,0-3,8.91c-.07.64.93.63,1,0a21,21,0,0,1,2.83-8.41.5.5,0,0,0-.86-.5Z"/><path class="cls-7" d="M313.84,321.59a8,8,0,0,1-6.81,1.58c-.63-.14-.89.82-.27,1a9,9,0,0,0,7.78-1.83c.5-.4-.21-1.11-.71-.71Z"/><path class="cls-7" d="M375.2,322.49a9.74,9.74,0,0,0,7.51-.15c.59-.25.08-1.11-.5-.86a8.75,8.75,0,0,1-6.74,0c-.6-.24-.86.73-.27,1Z"/><path class="cls-7" d="M346.15,298.26a2.87,2.87,0,0,0,.15,1.32c.21.6,1.18.34,1-.27a2.21,2.21,0,0,1-.11-1c.08-.64-.92-.63-1,0Z"/><path class="cls-7" d="M266.25,209.71a11,11,0,0,0-4.31,1.77c-.83.58-2.06,1.4-1.68,2.56.2.61,1.17.35,1-.27-.26-.8,1.73-1.8,2.31-2.1a10.36,10.36,0,0,1,3-1c.63-.12.36-1.08-.27-1Z"/><path class="cls-7" d="M438.9,212.14l0,.06a.51.51,0,0,0,.68.18l.08,0a.5.5,0,0,0,.1-.79c-.83-.77-2.43-1-3.48-1.38-1.81-.68-3.59-1.43-5.34-2.22-.58-.26-1.09.6-.5.86,1.34.61,2.69,1.19,4.05,1.73q1.07.43,2.15.82a8.35,8.35,0,0,1,2.43.89l.1-.79-.08,0,.68.18,0-.06c-.3-.57-1.17-.06-.86.5Z"/><path class="cls-7" d="M407.68,272.25a59.82,59.82,0,0,1,10,4.84.5.5,0,0,0,.5-.86,61.25,61.25,0,0,0-10.26-4.94c-.6-.22-.86.74-.27,1Z"/><path class="cls-7" d="M408,280.24l3.83,2.83c.52.38,1-.48.5-.86l-3.83-2.83c-.52-.38-1,.48-.5.86Z"/><path class="cls-7" d="M407,284.48l.83,1c.41.5,1.12-.22.71-.71l-.83-1c-.41-.5-1.12.22-.71.71Z"/><path class="cls-7" d="M346.81,310a27.21,27.21,0,0,0,.07,3.84c.06.64,1.06.64,1,0a27.21,27.21,0,0,1-.07-3.84c0-.64-1-.64-1,0Z"/><path class="cls-7" d="M251.09,140.79c.37-.45,1.4-1.64,2.06-1.45,1.08.32.07,2.1-.22,2.62-.19.35.14.91.56.73s1.72-.91,2-.8c.71.3.31,1.51.31,2.06a5.81,5.81,0,0,0,1,3.06c.34.54,1.21,0,.86-.5a5.43,5.43,0,0,1-.66-3.88,1.74,1.74,0,0,0-.29-1.44c-.87-1-2.56.19-3.45.54l.56.73c.51-.93,1.52-3.15.28-4s-3,.76-3.68,1.6c-.4.49.3,1.21.71.71Z"/><path class="cls-7" d="M260,142c.17-2.23,3.8-3.22,5.48-3.83l-.62-.35-.24,1.22c-.26.38.17.83.56.73a8.84,8.84,0,0,1,2.44-.61c1.38.16.83,1.73.52,2.7-.19.61.77.88,1,.27.34-1.08.94-3.13-.32-3.91-1-.6-2.93.36-3.87.59l.56.73a2.21,2.21,0,0,0,.34-2,.5.5,0,0,0-.62-.35c-2.31.84-6,1.87-6.22,4.79,0,.64,1,.64,1,0Z"/><path class="cls-7" d="M234.87,126.39c-.9-.56-2.74-1.51-3.73-.62s-.23,2.18.44,3l.49-.84c-1-.2-2.88-1.58-3.52,0-.53,1.36,1,3,2,3.6.55.35,1-.52.5-.86s-1.9-1.49-1.34-2.24c.38-.51.73-.11,1.21.12a3.62,3.62,0,0,0,.87.3.5.5,0,0,0,.49-.84,2.21,2.21,0,0,1-.62-1.1q.35-.75,1-.4a5.67,5.67,0,0,1,1.66.73c.55.34,1.05-.53.5-.86Z"/><path class="cls-7" d="M232.63,139.18c-.63-1.1-2.11-2.39-3.5-2.1-1.68.35-.36,2.51.14,3.31l.68-.68c-1-.74-3.61-1.63-4.41-.06s1.95,3.57,3,4.25c.55.34,1-.52.5-.86-.69-.44-2.12-1.39-2.36-2.23-.51-1.8,2.11-.69,2.75-.23.42.3.93-.28.68-.68s-1.29-1.87-.12-1.69a2.89,2.89,0,0,1,1.76,1.49.5.5,0,0,0,.86-.5Z"/><path class="cls-7" d="M223.47,147.56c-.94-.86-2.78-1.68-4-.94-1.44.85.47,2.49,1.16,3.08l.49-.84c-1.22-.39-4.23-.44-4.25,1.48,0,1.63,2.92,2.62,4.15,2.93a.5.5,0,0,0,.27-1,7.76,7.76,0,0,1-2.85-1.34,3.18,3.18,0,0,1-.45-.37.77.77,0,0,1,.77-.87,3.51,3.51,0,0,1,2.1.11.5.5,0,0,0,.49-.84,6.64,6.64,0,0,1-.78-.72l-.24-.26q-.53-.66.08-.58a2.83,2.83,0,0,1,2.41.84c.48.43,1.18-.27.71-.71Z"/><path class="cls-7" d="M264.86,127.69c.56-1.1,1.14-2.82-.22-3.64-1.18-.71-2.27.38-2.66,1.42l1,.27a1.67,1.67,0,0,0-.69-1.81,3.08,3.08,0,0,0-2.9.06c-.6.23-.34,1.19.27,1,.43-.16,2.7-1,2.36.51a.5.5,0,0,0,1,.27c.3-.79,1.11-1.28,1.49-.28.22.59-.17,1.21-.43,1.73s.57,1.08.86.5Z"/><path class="cls-7" d="M235.37,122.56a7.21,7.21,0,0,0-2.35-2.73,1.49,1.49,0,0,0-1.31-.28c-.38.13-.7.69-1.08.73-.63.07-.64,1.07,0,1a1.52,1.52,0,0,0,.73-.25c.45-.3.49-.68,1.15-.33a5.59,5.59,0,0,1,2,2.37c.3.57,1.16.07.86-.5Z"/><path class="cls-7" d="M233,115.31a1.46,1.46,0,0,0-2.91-.31c-.1.63.86.9,1,.27s1-.67.94,0a.5.5,0,0,0,1,0Z"/><path class="cls-7" d="M250.12,128.78c1.07-1.33-.29-2.67-1.69-2.73s-3.25,1-2.77,2.71a.5.5,0,0,0,1-.27c-.24-.87.62-1.35,1.36-1.43a2.06,2.06,0,0,1,1,.08c.33.12.8.54.48.93s.3,1.21.71.71Z"/><path class="cls-7" d="M246.5,131.41a1.7,1.7,0,0,0-3.2.42c-.12.63.84.9,1,.27a.71.71,0,0,1,1.37-.19c.28.58,1.15.07.86-.5Z"/><path class="cls-7" d="M239.71,141.55l.88-.53a1.86,1.86,0,0,1,.49-.29c.18,0,.08-.11.23.11a12.82,12.82,0,0,1,.83,1.91c.26.59,1.12.08.86-.5l-.71-1.64a1.65,1.65,0,0,0-.6-.85c-.79-.45-1.86.55-2.48.92a.5.5,0,0,0,.5.86Z"/><path class="cls-7" d="M236.36,161.33A1.41,1.41,0,0,0,234.7,160c-1,.13-1.5,1.16-1.71,2-.15.63.81.89,1,.27a1.92,1.92,0,0,1,.66-1.24c.26-.16.78-.08.75.3,0,.64,1,.64,1,0Z"/><path class="cls-7" d="M265.54,132.07c.08-.2.42,0,.47.12a1.12,1.12,0,0,1,0,.93,15,15,0,0,0-.61,1.74c-.11.63.86.9,1,.27.19-1.15,1.34-2.54.37-3.65a1.28,1.28,0,0,0-2.17.32c-.24.6.73.86,1,.27Z"/><path class="cls-7" d="M243.83,114.8a1,1,0,0,0-.56-1.77c-1.08-.17-1.58.94-1.73,1.8-.12.63.85.9,1,.27a2.08,2.08,0,0,1,.27-.86c.07-.09.18-.22.3-.22s.11,0,.06.08c-.5.41.21,1.11.71.71Z"/><path class="cls-7" d="M252.26,157.51c-.3-3.18-4.31-1-5.37.49l.91.39a1.35,1.35,0,0,0-1-1.83,4.46,4.46,0,0,0-3.66.9c-.52.37,0,1.24.5.86a4.46,4.46,0,0,1,1.4-.72c.25-.07,2.14-.41,1.78.52-.22.57.61.81.91.39.17-.24,3.32-3,3.5-1,.06.64,1.06.64,1,0Z"/><path class="cls-7" d="M246.27,170.48a4.34,4.34,0,0,0-4.92,1.3h.71c-1.47-1.18-3.85-1.07-4,1.2,0,.64,1,.64,1,0q1.06-1.7,2.26-.49a.51.51,0,0,0,.71,0,3.38,3.38,0,0,1,3.94-1c.6.22.86-.74.27-1Z"/><path class="cls-7" d="M252.2,170.4c.32-.25.69,0,.84.33a2.86,2.86,0,0,1,0,1.41c-.07.64.93.63,1,0a2.77,2.77,0,0,0-.49-2.36,1.47,1.47,0,0,0-1.9-.24c-.5.39,0,1.26.5.86Z"/><path class="cls-7" d="M235.25,174.87l-4.3-1.74c-.6-.24-.86.73-.27,1l4.3,1.74c.6.24.86-.73.27-1Z"/><path class="cls-7" d="M234.38,171.71a40,40,0,0,0-6.78-2.55.5.5,0,0,0-.27,1,38.55,38.55,0,0,1,6.55,2.45c.58.28,1.08-.58.5-.86Z"/><path class="cls-7" d="M231.94,167.27l-3.84-.63c-.63-.1-.9.86-.27,1l3.84.63c.63.1.9-.86.27-1Z"/><path class="cls-7" d="M390.83,119.81l-.19,3c0,.64,1,.64,1,0l.19-3c0-.64-1-.64-1,0Z"/><path class="cls-7" d="M325,77.81a35.8,35.8,0,0,0,3.43,2.92c.51.39,1-.48.5-.86a33.79,33.79,0,0,1-3.22-2.76c-.46-.45-1.17.26-.71.71Z"/><path class="cls-7" d="M328.94,77.66a25.05,25.05,0,0,0,3.43,2.75c.54.36,1-.51.5-.86A23.57,23.57,0,0,1,329.65,77c-.47-.44-1.17.26-.71.71Z"/><path class="cls-7" d="M358.64,17.8a30.18,30.18,0,0,0,.13,4.67c.07.63,1.07.64,1,0a30.18,30.18,0,0,1-.13-4.67c0-.64-1-.64-1,0Z"/><path class="cls-7" d="M356.68,17.68l-.58,3.65c-.1.63.86.9,1,.27l.58-3.65c.1-.63-.86-.9-1-.27Z"/><path class="cls-7" d="M364,18.8a15.37,15.37,0,0,1,.09,3.17c0,.64,1,.64,1,0A15.37,15.37,0,0,0,365,18.8c-.08-.63-1.08-.64-1,0Z"/><path class="cls-7" d="M413.29,160.6l-37.82,3.59c-.64.06-.64,1.06,0,1l37.82-3.59c.64-.06.64-1.06,0-1Z"/><path class="cls-7" d="M410.8,163.47a34.49,34.49,0,0,0-7.13.54c-.63.11-.36,1.08.27,1a33.18,33.18,0,0,1,6.86-.51.5.5,0,0,0,0-1Z"/><path class="cls-7" d="M375.38,133.22a5.24,5.24,0,0,0-1.89,1.64c-.38.52.49,1,.86.5a4.19,4.19,0,0,1,1.53-1.28c.57-.29.07-1.16-.5-.86Z"/><path class="cls-7" d="M376.8,136.8a.5.5,0,0,0,0-1,.5.5,0,0,0,0,1Z"/><path class="cls-7" d="M408.58,86.81c.12,3.48-1.4,6.69-1,10.2s1.53,6.64,1.2,10.12c-.06.64.94.64,1,0,.34-3.48-.85-6.69-1.2-10.12s1.17-6.73,1-10.2c0-.64-1-.64-1,0Z"/><path class="cls-7" d="M441.68,187.33a36.77,36.77,0,0,1-1.44-3.78c-.22-.68-.63-1.38-.06-2,.26-.3,1.33-.39,1.7-.49,2.38-.66,4.79-1.21,7.22-1.68.63-.12.36-1.09-.27-1-1.85.35-3.69.76-5.51,1.22-1.09.28-3.14.45-4,1.21s-.5,1.39-.25,2.32a34,34,0,0,0,1.75,4.68c.26.59,1.12.08.86-.5Z"/><path class="cls-7" d="M454.26,199.38a37,37,0,0,0-2,11.93.5.5,0,0,0,1,0,36.2,36.2,0,0,1,1.94-11.66c.21-.61-.76-.87-1-.27Z"/><path class="cls-7" d="M312.45,231.47a16.87,16.87,0,0,1-2.32,8.31.5.5,0,0,0,.86.5,18,18,0,0,0,2.45-8.82.5.5,0,0,0-1,0Z"/><path class="cls-7" d="M317,244.74c3.33-.93,6.53-3.26,9.48-5,4.07-2.35,7.65-4.89,12.44-5.43.63-.07.64-1.07,0-1-4.49.51-7.67,2.5-11.48,4.72-3.33,1.94-7,4.67-10.71,5.72a.5.5,0,0,0,.27,1Z"/><path class="cls-7" d="M323.59,241a11.93,11.93,0,0,1,.83-6.93c.31-.57-.56-1.07-.86-.5-1.21,2.24-1.27,5.23-.93,7.7.09.63,1.05.36,1-.27Z"/><path class="cls-7" d="M326.85,246.4c.26-1.12,1.62-1.75,2.49-2.37a19.68,19.68,0,0,1,3.58-2c.59-.26.08-1.12-.5-.86a25.09,25.09,0,0,0-4.36,2.55,4.56,4.56,0,0,0-2.17,2.44c-.14.63.82.89,1,.27Z"/><path class="cls-7" d="M307,332.64H304.8a.5.5,0,0,0,0,1H307a.5.5,0,0,0,0-1Z"/><path class="cls-7" d="M305.5,335.49a7.94,7.94,0,0,1-4.41-.31c-.61-.22-.87.75-.27,1a8.94,8.94,0,0,0,4.94.31c.63-.13.36-1.1-.27-1Z"/><path class="cls-7" d="M303.13,339.8a5.79,5.79,0,0,1-2.38-.45c-.59-.24-.85.72-.27,1a6.5,6.5,0,0,0,2.65.48.5.5,0,0,0,0-1Z"/><path class="cls-7" d="M300.46,343.13a3.38,3.38,0,0,1-1.59-.24c-.59-.25-1.1.61-.5.86a4.43,4.43,0,0,0,2.09.38c.64,0,.64-1,0-1Z"/><path class="cls-7" d="M385.83,327.49,382,328.86c-.6.21-.34,1.18.27,1l3.82-1.36c.6-.21.34-1.18-.27-1Z"/><path class="cls-7" d="M389.61,328.62a24.41,24.41,0,0,1-5.28,3c-.59.24-.33,1.21.27,1a25.4,25.4,0,0,0,5.52-3.12c.51-.38,0-1.25-.5-.86Z"/><path class="cls-7" d="M393.38,330.88a46.6,46.6,0,0,0-4.36,2.29.5.5,0,0,0,.5.86,46.6,46.6,0,0,1,4.36-2.29c.58-.27.08-1.13-.5-.86Z"/><path class="cls-7" d="M394.89,333.06q-1.43.94-2.78,2a.51.51,0,0,0,0,.71l.33.39c.42.49,1.12-.22.71-.71l-.33-.39v.71q1.25-1,2.58-1.85c.54-.35,0-1.22-.5-.86Z"/><path class="cls-7" d="M283.67,356.12a70.79,70.79,0,0,0,29,4.2c.64,0,.64-1,0-1a70,70,0,0,1-28.7-4.17c-.61-.22-.87.74-.27,1Z"/><path class="cls-7" d="M308.33,353.63a68.81,68.81,0,0,0,12,.67c.64,0,.64-1,0-1a67.31,67.31,0,0,1-11.7-.63c-.63-.09-.9.87-.27,1Z"/><path class="cls-7" d="M323.82,331.72a122.39,122.39,0,0,0,39.94-.78c.63-.12.36-1.08-.27-1a120.87,120.87,0,0,1-39.41.78c-.63-.09-.9.87-.27,1Z"/><path class="cls-7" d="M337.46,338.13a51.71,51.71,0,0,0,9.83-.15c.63-.07.64-1.07,0-1a51.71,51.71,0,0,1-9.83.15c-.64-.05-.64.95,0,1Z"/><path class="cls-7" d="M417.52,347.56a116.61,116.61,0,0,1-44.39,6c-.64,0-.64,1,0,1a117.37,117.37,0,0,0,44.65-6c.61-.21.35-1.17-.27-1Z"/><path class="cls-7" d="M415.05,342.22a57.4,57.4,0,0,1-9.22,3.43.5.5,0,0,0,.27,1,59,59,0,0,0,9.46-3.53c.58-.27.07-1.14-.5-.86Z"/><path class="cls-7" d="M280.61,350.66a6.37,6.37,0,0,0,2.56,1.29c.63.15.89-.81.27-1a5.26,5.26,0,0,1-2.12-1c-.49-.4-1.21.3-.71.71Z"/><path class="cls-7" d="M410.11,356c-16.34,4.82-33.46,4.49-50.32,4.08a.5.5,0,0,0,0,1c16.95.42,34.16.73,50.58-4.11a.5.5,0,0,0-.27-1Z"/><path class="cls-7" d="M369.48,334.77a4.15,4.15,0,0,0,1.13,1.72c.48.43,1.19-.28.71-.71a3.11,3.11,0,0,1-.88-1.28c-.22-.6-1.18-.34-1,.27Z"/><path class="cls-7" d="M248.64,357a69.29,69.29,0,0,1-22.7-1.59c-.63-.15-.89.81-.27,1a70.14,70.14,0,0,0,23,1.63c.64-.06.64-1.06,0-1Z"/><path class="cls-7" d="M217.33,360.12a48.07,48.07,0,0,0,10.17,2.66c.63.09.9-.87.27-1a48.07,48.07,0,0,1-10.17-2.66c-.6-.23-.86.74-.27,1Z"/><path class="cls-7" d="M216.15,365.49l1.34.48c.61.22.87-.75.27-1l-1.34-.48c-.61-.22-.87.75-.27,1Z"/><path class="cls-7" d="M476.38,351c-8,6.36-18.93,4.29-28.37,5.73-.63.1-.36,1.06.27,1,9.71-1.48,20.56.56,28.81-6,.5-.4-.21-1.1-.71-.71Z"/><path class="cls-7" d="M472.89,357.4a20,20,0,0,1-5.73,1.72c-.63.09-.36,1.06.27,1a20.82,20.82,0,0,0,6-1.82c.58-.28.07-1.14-.5-.86Z"/><path class="cls-7" d="M354.25,311.47q.19,2.3.57,4.57c.1.63,1.07.36,1-.27q-.35-2.14-.54-4.31c-.05-.64-1.05-.64-1,0Z"/><path class="cls-7" d="M336.05,312.76l.29,2.68c.07.63,1.07.64,1,0l-.29-2.68c-.07-.63-1.07-.64-1,0Z"/><path class="cls-7" d="M350.72,308.87a213.93,213.93,0,0,0,23.79,11c.6.23.86-.73.27-1A211.8,211.8,0,0,1,351.23,308c-.57-.31-1.07.56-.5.86Z"/><path class="cls-7" d="M315.43,323.57q13.67-7.86,28-14.47c.58-.27.08-1.13-.5-.86q-14.32,6.61-28,14.47a.5.5,0,0,0,.5.86Z"/><path class="cls-7" d="M243.14,260c4.11.71,8.18.31,12.31,0l13.54-1.1,3.87-.31c.48,0,2.46-.53,2.9-.24,1.14.77.53,4.69.55,6.09q.08,7,.16,14c.21,18.54.26,37.1-1.36,55.59-.06.64.94.64,1,0,2.22-25.33,1.42-50.82,1.12-76.22a.5.5,0,0,0-.5-.5l-16.44,1.34c-5.55.45-11.34,1.41-16.88.46-.63-.11-.9.85-.27,1Z"/><path class="cls-7" d="M242,337.44c11,2,21.93-1.38,33-.87.64,0,.64-1,0-1-10.93-.5-21.8,2.86-32.69.9-.63-.11-.9.85-.27,1Z"/><path class="cls-7" d="M276.76,316.86q13.55.69,27.12.29c.64,0,.64-1,0-1q-13.57.39-27.12-.29c-.64,0-.64,1,0,1Z"/><path class="cls-7" d="M260.71,272.22l-9,.68c-.64,0-.64,1,0,1l9-.68c.64,0,.64-1,0-1Z"/><path class="cls-7" d="M263.42,291.43l-13.79.45c-.64,0-.64,1,0,1l13.79-.45c.64,0,.64-1,0-1Z"/><path class="cls-7" d="M260.48,308.63a43.37,43.37,0,0,0-6.46.67c-.63.11-.36,1.08.27,1a41.57,41.57,0,0,1,6.2-.64.5.5,0,0,0,0-1Z"/><path class="cls-7" d="M259.27,323.07a9.13,9.13,0,0,0-3.08-.19c-.63.07-.64,1.07,0,1A8.32,8.32,0,0,1,259,324c.63.14.89-.82.27-1Z"/><path class="cls-7" d="M383.54,316.93c2.62-8.12,3.55-16.39,4.74-24.79s2.47-16.74,4.43-25,4.34-16.35,6.09-24.62c.68-3.22,2.18-7.59,1.5-10.89-.57-2.81-3.24-4.42-5.55-5.7-.56-.31-1.07.55-.5.86a11.41,11.41,0,0,1,4.34,3.39c1.43,2.21.56,5.05.14,7.46-.68,3.85-1.54,7.67-2.47,11.46-1.83,7.45-4,14.83-5.54,22.34-3.17,14.94-3.43,30.59-8.14,45.17-.2.61.77.88,1,.27Z"/><path class="cls-7" d="M327.33,246.56c5.8-1.06,11-3.71,16.45-5.68a19,19,0,0,1,12.26-.55c3.64,1,7.07,2.68,10.68,3.8.62.19.88-.78.27-1-7.29-2.24-14-6.26-21.76-3.82-6.15,1.92-11.76,5.09-18.16,6.26-.63.12-.36,1.08.27,1Z"/><path class="cls-7" d="M305.15,317.2c-1.42-3.39-1.37-6.93-1.37-10.54a74.56,74.56,0,0,0-.89-10.52c-1.14-8-2.32-16-3.38-24.05-1-7.74-1.93-15.51-2.62-23.29-.53-6-3.11-18.62,5.6-19.88.63-.09.36-1.06-.27-1-6.74,1-7.23,8.67-6.87,14,.59,8.77,1.56,17.51,2.66,26.23,1.07,8.44,2.28,16.87,3.49,25.29a92.28,92.28,0,0,1,1.27,13.15c0,3.7,0,7.33,1.4,10.8.24.59,1.21.33,1-.27Z"/><path class="cls-7" d="M318.67,238.15c-2.94,4.7-2.78,10.21-2.34,15.55.55,6.69.69,13.37.79,20.08.1,7.19.17,14.38,0,21.56-.07,3.43-.18,6.86-.35,10.28s.29,7.15-.94,10.47c-.22.6.74.87,1,.27,1-2.75.8-5.53.87-8.41.08-3.39.32-6.77.41-10.16.18-7,.15-14,.07-21.07-.08-6.6,0-13.24-.55-19.83-.48-6.14-1.51-12.73,1.94-18.24.34-.55-.52-1-.86-.5Z"/><path class="cls-7" d="M287.63,239.64a87,87,0,0,0-13.13,1c-.63.1-.36,1.06.27,1a85.26,85.26,0,0,1,12.87-1,.5.5,0,0,0,0-1Z"/><path class="cls-7" d="M280.5,243.15l-2.5,1c-.59.24-.33,1.2.27,1l2.5-1c.59-.24.33-1.2-.27-1Z"/><path class="cls-7" d="M232.06,327.12q-27.81-.38-55.62.19a.5.5,0,0,0,0,1q27.81-.56,55.62-.19a.5.5,0,0,0,0-1Z"/><path class="cls-7" d="M430.85,330.18q12.25-.15,24.51.08a.5.5,0,0,0,0-1q-12.25-.22-24.51-.08a.5.5,0,0,0,0,1Z"/><path class="cls-7" d="M465.26,325.87q22,.9,44.06.59a.5.5,0,0,0,0-1q-22,.31-44.06-.59c-.64,0-.64,1,0,1Z"/><path class="cls-7" d="M247.21,343.77l26.7-.92c.64,0,.64-1,0-1l-26.7.92c-.64,0-.64,1,0,1Z"/><path class="cls-7" d="M319.9,327.29a263.36,263.36,0,0,0,48.2-.78c.63-.07.64-1.07,0-1a263.36,263.36,0,0,1-48.2.78c-.64,0-.64,1,0,1Z"/><path class="cls-7" d="M440.93,73.15c-6.16,7.64-9.06,17.52-16.22,24.4-.46.45.24,1.15.71.71,7.17-6.89,10.05-16.76,16.22-24.4.4-.5-.3-1.21-.71-.71Z"/><path class="cls-7" d="M532.82,106.14l-15.58.69c-1.6.07-3.83-.27-5.33.4-1.22.54-1.48,1.64-1.79,2.84-2.56,9.92-4.93,19.91-7.39,29.86a.5.5,0,0,0,1,.27l6.22-25.12c.54-2.18.79-6.32,3.43-7.07,1.86-.53,4.4-.19,6.33-.28l13.15-.58c.64,0,.64-1,0-1Z"/><path class="cls-7" d="M503.87,134.87c-1.67-.4-3.4.32-5-.06-2.82-.66-2.26-6.23-2.28-8.61a.51.51,0,0,0-.5-.5l-10.28-1c-2.63-.25-4.91-.66-5.66-3.57-.41-1.6-.79-3.22-1.23-4.81-.54-2-1.26-2.44-3.28-2.49-3.71-.1-7.43-.12-11.15-.18a.51.51,0,0,0-.5.5,229.22,229.22,0,0,0-.49,31.61c0,.64,1,.64,1,0a226.64,226.64,0,0,1,0-25.2c.07-1.2-.27-5.24.93-5.89a12.07,12.07,0,0,1,2.91,0l2.91,0c2.24,0,5.58-.61,6.68,1.83.77,1.71.92,3.88,1.45,5.69.68,2.32,1.69,3,4.06,3.21,2,.2,4,.38,6.07.57l2.8.26c.52,0,2.37-.1,2.8.26,1,.84.62,4.42.77,5.66a4.31,4.31,0,0,0,1,2.87c1.72,1.55,4.63.2,6.66.69.63.15.89-.81.27-1Z"/><path class="cls-7" d="M461.81,130.47c-3.39.17-6.8-.38-10.15.38a4.61,4.61,0,0,0-2.52,1.13c-.4.44-.35,1.17-.92,1.54-1.15.75-2.42.16-3.62.22a5.53,5.53,0,0,0-3.41,1.91,11.23,11.23,0,0,0-1.38,1.75,7.37,7.37,0,0,1-.83,1.42,6.36,6.36,0,0,1-3.5,1.15c-5.31.54-10.83.28-16.17.41a.5.5,0,0,0,0,1L435,141c1.53,0,3.23.14,4.39-1,1.55-1.56,1.92-4.06,4.28-4.88,1.52-.52,3,.53,4.48-.27,1.16-.62,1.42-2,2.53-2.63,3.11-1.68,7.78-.52,11.13-.69.64,0,.64-1,0-1Z"/><path class="cls-7" d="M136,135.8c-.1-2.52-.16-5-.18-7.56s-.7-6.2,1.76-8c.82-.61,2.73-.78,3.73-1q1.87-.51,3.74-1a43.41,43.41,0,0,1,7.06-1.68c2.32-.17,2.48.74,3,2.58.39,1.25.72,2.53,1.07,3.79l2,7.11,4.16,14.7a.5.5,0,0,0,1-.27l-5.37-19c-.76-2.7-1.25-5.81-2.41-8.36-.81-1.8-1.91-1.93-3.75-1.55-3.16.65-6.29,1.46-9.4,2.29-2,.52-5.15.76-6.72,2.19s-.9,4.16-.91,5.86c0,3.31.06,6.62.19,9.92,0,.64,1,.64,1,0Z"/><path class="cls-7" d="M159.19,131.32a50.23,50.23,0,0,0,7-.5c2.38-.35,4.89-1.45,7.26-1.56,1.29-.06,2.45,1.35,2.84,2.45,0,.14-.08.45-.05.64a1.67,1.67,0,0,0,.45.94c1.11,1.08,4.27.73,5.6.79a72.58,72.58,0,0,0,7.67,0l1.91-.14c1-.07.88-.24,1.54.71.85,1.24.38,3.27.3,4.76l-.82,16.91c0,.64,1,.64,1,0,.32-6.63.68-13.26,1-19.9.05-1.28.29-2.92-1.2-3.46a7.19,7.19,0,0,0-2.75,0q-2.39.17-4.79.18-2.16,0-4.32-.11a14,14,0,0,1-2.39-.17,2.37,2.37,0,0,1-2.11-1.29l.11-.77c-.26-1.15-.53-2-1.77-2.46-2-.79-4.63.49-6.59.92a47.8,47.8,0,0,1-9.84,1,.5.5,0,0,0,0,1Z"/><path class="cls-7" d="M194.42,147.19l7.79-.94c1.34-.16,3.52,0,4.72-.64s1.13-1.56,1.28-2.76q.45-3.61.7-7.25t.3-7.27a20.2,20.2,0,0,1,0-3.88q-.45-1.66,1.6-1.92l1.46-.05,15-.56c.64,0,.64-1,0-1l-14.55.55c-1,0-3.14-.31-4,.44s-.49,2.94-.49,4a132.44,132.44,0,0,1-.69,14.06c-.21,2,0,3.93-2.41,4.94a12.23,12.23,0,0,1-2.92.35l-7.79.94c-.63.08-.64,1.08,0,1Z"/><path class="cls-7" d="M265.09,118.6a38.81,38.81,0,0,1,13.06-.28c.63.09.9-.87.27-1a40.37,40.37,0,0,0-13.59.28c-.63.12-.36,1.08.27,1Z"/><path class="cls-7" d="M532.21,109.39l.29,7.5a.51.51,0,0,0,.63.48c1.46-.35,4.19-1.09,5.52,0,1.09.92.61,2.28,1,3.42a2.09,2.09,0,0,0,2.25,1.48,7.9,7.9,0,0,0,1.48-.36c.86-.17,2.73-.34,3.4.37,1,1.07.48,3.59.23,4.83-.63,3.12-1.46,6.19-2,9.33q-.74,4.1-1.24,8.23c-.23,1.92-1.18,5.07-.38,6.94.7,1.65,2.87,1.48,4.36,1.6a79.58,79.58,0,0,0,9.9.14c.64,0,.64-1,0-1a77.37,77.37,0,0,1-10.4-.18c-1.69-.15-2.56-.38-3-2.22a8.42,8.42,0,0,1,.21-2.4q.3-3.05.74-6.09.69-4.77,1.72-9.48c.58-2.66,1.72-5.49,1.33-8.24a3.52,3.52,0,0,0-1.58-2.9,3.59,3.59,0,0,0-1.93-.29c-1.72.15-3.69,1.5-4.18-1-.26-1.32,0-2.27-1.36-3.06-1.89-1.11-4.31-.62-6.29-.14l.63.48-.29-7.5c0-.64-1-.64-1,0Z"/><path class="cls-7" d="M592.89,127.38a306.94,306.94,0,0,0-32.08,3.12.49.49,0,0,0-.35.35l-5,20.47c-.15.62.81.89,1,.27l3-12.09A54.88,54.88,0,0,1,561,133c.53-1.39.59-1.41,2-1.8a33.76,33.76,0,0,1,4.2-.58q12.79-1.67,25.68-2.22c.64,0,.64-1,0-1Z"/><path class="cls-7" d="M142,135.28l-7.6,0a6.57,6.57,0,0,1-1.9,0,5.37,5.37,0,0,1-2.31-2.83,19.36,19.36,0,0,1-.9-3.51,34.11,34.11,0,0,1-.62-8c.05-1.38.39-3.11-.69-4.21s-2.48-.76-3.72-.65c-2.58.23-5.16.4-7.75.43a89.36,89.36,0,0,1-16.77-1.43c-.63-.11-.9.85-.27,1a91.23,91.23,0,0,0,15.09,1.47q4.13,0,8.24-.3a14.7,14.7,0,0,1,1.93-.18c.86,0,2.44.36,2.94,1.2s0,3.22,0,4.07a34.72,34.72,0,0,0,.6,6.43c.37,2,.75,4.72,1.92,6.44.8,1.18,2,1.06,3.29,1.07,2.85,0,5.7,0,8.55,0a.5.5,0,0,0,0-1Z"/><path class="cls-7" d="M284.06,130.49c.14,2.21-.36,4.31-.43,6.5a18.65,18.65,0,0,0,.67,5,37.87,37.87,0,0,1,1.17,12.73c-.06.64.94.64,1,0a34.58,34.58,0,0,0-.77-11.25,24.85,24.85,0,0,1-1.08-6.52c.06-2.19.57-4.29.43-6.5,0-.64-1-.64-1,0Z"/><path class="cls-7" d="M284.84,128.24c.21-2.15.38-4.29.49-6.45a24.87,24.87,0,0,1,.12-3.69c.31-1.47.35-1.27,1.93-1.18a94.34,94.34,0,0,0,14-.26c.64-.06.64-1.06,0-1a96.67,96.67,0,0,1-16.38.09.51.51,0,0,0-.5.5q0,6-.63,12c-.06.64.94.64,1,0Z"/><path class="cls-7" d="M287.61,119.93q6.81-.21,13.63-.17a.5.5,0,0,0,0-1q-6.82,0-13.63.17c-.64,0-.64,1,0,1Z"/><path class="cls-7" d="M286.86,122.58q7.06-.47,14.13-.62a.5.5,0,0,0,0-1q-7.07.15-14.13.62c-.64,0-.64,1,0,1Z"/><path class="cls-7" d="M286.49,124.73a9.79,9.79,0,0,1,2.24-.09c.64,0,.64-1,0-1a10.92,10.92,0,0,0-2.51.12c-.63.1-.36,1.07.27,1Z"/><path class="cls-7" d="M290.74,126.75q5.25.07,10.5,0a.5.5,0,0,0,0-1q-5.25.1-10.5,0a.5.5,0,0,0,0,1Z"/><path class="cls-7" d="M285.15,132c5.68.68,11.39-.31,17.08.23.64.06.64-.94,0-1-5.69-.54-11.39.46-17.08-.23-.64-.08-.63.92,0,1Z"/><path class="cls-7" d="M301.79,133.16l-7.66.33c-.64,0-.64,1,0,1l7.66-.33c.64,0,.64-1,0-1Z"/><path class="cls-7" d="M291.24,133.49l-4.11,0a3.64,3.64,0,0,0-2.42.35c-.51.39.2,1.1.71.71s2.31,0,2.86,0l3,0a.5.5,0,0,0,0-1Z"/><path class="cls-7" d="M285,140.29a79.12,79.12,0,0,1,12.11-1.23.5.5,0,0,0,0-1,80.88,80.88,0,0,0-12.38,1.27c-.63.11-.36,1.08.27,1Z"/><path class="cls-7" d="M298.9,138.92q2,0,4.08-.3c.63-.08.64-1.08,0-1q-2,.25-4.08.3a.5.5,0,0,0,0,1Z"/><path class="cls-7" d="M286.17,144.66q6.78-.64,13.52-1.54c.63-.08.64-1.09,0-1q-6.75.9-13.52,1.54c-.64.06-.64,1.06,0,1Z"/><path class="cls-7" d="M286.59,148.66q4.4-.65,8.82-1c.64-.06.64-1.06,0-1q-4.56.4-9.09,1.06c-.63.09-.36,1.06.27,1Z"/><path class="cls-7" d="M286.56,152.1c2.81-.22,5.48-1.13,8.27-1.48a59.53,59.53,0,0,1,9.44-.17c.64,0,.64-1,0-1a62.61,62.61,0,0,0-9,.12c-2.93.32-5.74,1.3-8.67,1.54-.64.05-.64,1.05,0,1Z"/><path class="cls-7" d="M362.85,91.46c12.56,1.53,25.15,3,37.82,2.46.64,0,.64-1,0-1-12.67.55-25.27-.93-37.82-2.46-.64-.08-.63.92,0,1Z"/><path class="cls-7" d="M400.76,89.83,376,88.3c-.64,0-.64,1,0,1l24.81,1.52c.64,0,.64-1,0-1Z"/><path class="cls-7" d="M373.83,88.09l-10.58-1.85c-.63-.11-.9.85-.27,1l10.58,1.85c.63.11.9-.85.27-1Z"/><path class="cls-7" d="M361.85,85.17a249,249,0,0,0,38.67,3.37.5.5,0,0,0,0-1,247.32,247.32,0,0,1-38.41-3.34c-.63-.1-.9.86-.27,1Z"/><path class="cls-7" d="M364.13,97l37.39,1.86c.64,0,.64-1,0-1L364.13,96c-.64,0-.64,1,0,1Z"/><path class="cls-7" d="M388.66,104.49a63.87,63.87,0,0,1,6.47.43c2.08.25,4.16.83,6.26.58.63-.07.64-1.08,0-1-2.1.25-4.18-.33-6.26-.58a64.79,64.79,0,0,0-6.47-.43.5.5,0,0,0,0,1Z"/><path class="cls-7" d="M397.13,108.52a14.44,14.44,0,0,0,4.81-.23c.63-.13.36-1.1-.27-1a13.63,13.63,0,0,1-4.55.19c-.64-.08-.63.92,0,1Z"/><path class="cls-7" d="M397.77,101.57l3.39.42c.64.08.63-.92,0-1l-3.39-.42c-.64-.08-.63.92,0,1Z"/><path class="cls-7" d="M251.27,203.87l-.28,3.63c0,.64,1,.64,1,0l.28-3.63c0-.64-1-.64-1,0Z"/><path class="cls-7" d="M248.4,206.11l0,2.52a.5.5,0,0,0,1,0l0-2.52a.5.5,0,0,0-1,0Z"/><path class="cls-7" d="M460.66,233.07a8.29,8.29,0,0,0,1.79,3c.44.47,1.14-.23.71-.71a7.09,7.09,0,0,1-1.53-2.59c-.2-.61-1.17-.35-1,.27Z"/><path class="cls-7" d="M457.62,234.32l3.63,5.31c.36.53,1.23,0,.86-.5l-3.63-5.31c-.36-.53-1.23,0-.86.5Z"/><path class="cls-7" d="M455.91,237.27a28,28,0,0,0,4.61,7.48c.42.49,1.12-.22.71-.71a26.46,26.46,0,0,1-4.36-7c-.25-.58-1.21-.33-1,.27Z"/><path class="cls-7" d="M456.46,244a6.8,6.8,0,0,0,2.08,3.58c.48.43,1.18-.27.71-.71a5.89,5.89,0,0,1-1.82-3.14c-.14-.63-1.1-.36-1,.27Z"/><path class="cls-7" d="M239.56,235.71l.84,1.4a.5.5,0,0,0,.86-.5l-.84-1.4a.5.5,0,0,0-.86.5Z"/><path class="cls-7" d="M235.65,235.71a24.17,24.17,0,0,0,2.87,4.29c.41.49,1.12-.22.71-.71a23,23,0,0,1-2.72-4.09c-.3-.57-1.16-.07-.86.5Z"/><path class="cls-7" d="M233.7,237.94a58.75,58.75,0,0,0,5.92,9.07c.4.5,1.1-.21.71-.71a57.4,57.4,0,0,1-5.77-8.86c-.3-.57-1.16-.06-.86.5Z"/><path class="cls-7" d="M234.79,244.67l2.24,3.91a.5.5,0,0,0,.86-.5l-2.24-3.91a.5.5,0,0,0-.86.5Z"/><path class="cls-7" d="M234.77,248.88l1.37,2.25c.33.55,1.2,0,.86-.5l-1.37-2.25c-.33-.55-1.2,0-.86.5Z"/><path class="cls-7" d="M347.2,260.87l2,3.08c.34.54,1.21,0,.86-.5l-2-3.08c-.34-.54-1.21,0-.86.5Z"/><path class="cls-7" d="M344.65,261.73a28.36,28.36,0,0,0,4.6,5.37c.48.43,1.18-.27.71-.71a27.3,27.3,0,0,1-4.44-5.17c-.35-.53-1.22,0-.86.5Z"/><path class="cls-7" d="M345,267l2.52,3.35c.38.51,1.25,0,.86-.5l-2.52-3.35c-.38-.51-1.25,0-.86.5Z"/><path class="cls-7" d="M344.21,271.59a28,28,0,0,0,3.6,3.39c.5.39,1.21-.31.71-.71a28,28,0,0,1-3.6-3.39c-.43-.48-1.13.23-.71.71Z"/><path class="cls-7" d="M345,276.67l2.57,3c.42.49,1.12-.22.71-.71l-2.57-3c-.42-.49-1.12.22-.71.71Z"/><path class="cls-7" d="M643.45,319.47a320.14,320.14,0,0,1,40.12.34c.64,0,.64-1,0-1a320.14,320.14,0,0,0-40.12-.34c-.64,0-.64,1,0,1Z"/><path class="cls-7" d="M36.65,318.59a280.77,280.77,0,0,1-36.17,1.1c-.64,0-.64,1,0,1a280.77,280.77,0,0,0,36.17-1.1c.64-.06.64-1.06,0-1Z"/></g></g></svg>