<svg xmlns="http://www.w3.org/2000/svg" viewBox="0 0 552.59 23.41"><defs><style>.cls-1{fill:#f2f2f2;}.cls-2{fill:#081f2c;}</style></defs><title>page-break-mobile</title><g id="Layer_2" data-name="Layer 2"><g id="Layer_1-2" data-name="Layer 1"><path class="cls-1" d="M551.57,4.45a1.13,1.13,0,0,0-.39-2.19c-9.81.07-19.61.34-29.4.92C502.84,4.31,484,6.52,465.14,8.46h0L258.66,7.95l-75.81-.19a3.23,3.23,0,0,0-2.3.87L1.54,6.89a1.1,1.1,0,0,0-.28,2.16c3.71.87,10,1.47,18.61,3.41,59.63-.29,98.72,5.72,158.25,10.22,35.91,2.71,71.32-3.09,107.32-1.75,36.24,1.35,66.69,2.42,102.93,1.24C442,20.43,442.25,16,495.88,14.45,507,13.1,540.8,8.41,551.57,4.45Z"/><path class="cls-2" d="M.48,6.07C65.26,6.84,130,7.81,194.81,8.32c64.36.51,128.72.58,193.07-.44q26.91-.42,53.82-1.11,13.47-.35,26.93-.77c4.16-.13,8.35-.73,12.49-1.15a58.65,58.65,0,0,0,11.16-2c.61-.19.35-1.15-.27-1a57.23,57.23,0,0,1-10.9,2c-3.82.39-7.67.91-11.5,1.12-8,.44-16,.48-23.94.7q-23.92.64-47.84,1.05-48.28.85-96.57.94c-64,.17-128.06-.44-192.08-1.22Q54.84,5.77.48,5.07a.5.5,0,0,0,0,1Z"/><path class="cls-2" d="M504.15,3.09c16-1.25,32-1.89,48-2.09a.5.5,0,0,0,0-1c-16,.21-32,.84-48,2.09-.64,0-.64,1.05,0,1Z"/></g></g></svg>