<svg xmlns="http://www.w3.org/2000/svg" viewBox="0 0 686.42 319.11"><defs><style>.cls-1{fill:#e0e0e0;}.cls-2{fill:#fff;}.cls-3{fill:#f2f2f2;}.cls-4{fill:#cecece;}.cls-5{fill:#e35205;}.cls-6{fill:#d1ccb2;}.cls-7{fill:#847b5f;}.cls-8{fill:#efebd3;}.cls-9{fill:#081f2c;}</style></defs><title>paperwork-mobile</title><g id="Layer_2" data-name="Layer 2"><g id="Layer_1-2" data-name="Layer 1"><path class="cls-1" d="M399,181.45q-19.45.11-38.9.21c-12.76.09-25.75,1.82-38.44.09a1.55,1.55,0,0,0-1.54.57,2.07,2.07,0,0,0-1.53,3.43c2.19,2.37,1.75,5.82,2.95,8.63a13.66,13.66,0,0,0,4,5c4.87,4.14,10.78,7.3,16.2,10.64q3.85,2.37,7.78,4.55a101.74,101.74,0,0,0,10.17,8c5.57,3.64,12,5.63,17.9,8.58,6.39,3.18,12.29,7.43,18.28,11.28,2,1.28,3.87-1.53,2.47-3.07a2,2,0,0,0,.07-.7c-.1-1.21-.26-2.65-.34-4.12.93-2,1.72-4.37,1.35-6.13a2,2,0,0,0-.27-3.17l-.26-.14a138.71,138.71,0,0,0,.42-23.76l.37-6c.05-.76.1-1.51.14-2.26a1.86,1.86,0,0,0-.25-1.08v0a1.9,1.9,0,0,0,.15-.47l.92-5.08a2.09,2.09,0,0,0-.31-1.49C401.46,183.86,401,181.44,399,181.45Z"/><path class="cls-2" d="M391.67,198.17a104.52,104.52,0,0,1-7.54-12.24c-.75-1.44-2.94-.18-2.18,1.26a104.49,104.49,0,0,0,7.54,12.24C390.42,200.73,392.61,199.49,391.67,198.17Z"/><path class="cls-2" d="M396,194.84q-2.94-3.8-5.6-7.8c-.89-1.34-3.09-.1-2.18,1.26q2.84,4.27,6,8.31C395.17,197.89,397,196.11,396,194.84Z"/><path class="cls-3" d="M400.95,163c.33-3.11,3.16-6.78,2-9.79a2.78,2.78,0,0,0-.19-.38,2.3,2.3,0,0,0-2.38-2.28q-20.86.07-41.72-.14c-10.93-.12-22-.87-32.93.42a2.9,2.9,0,0,0-1,0,37.16,37.16,0,0,0-4.82,1,2.45,2.45,0,0,0-1.32.82l-.4.11a3.47,3.47,0,0,0-2.72,1.1,2.21,2.21,0,0,0-.33,3.05,2.92,2.92,0,0,0-.1.71q0,2.74.09,5.47c-.75,5.15-.88,11.17.47,16.16a2,2,0,0,0,1.1,2.75l.19.08a2.86,2.86,0,0,0,2.17.16,2.61,2.61,0,0,0,.32,0c18.52-1.19,37.1-.81,55.66-.92a2.63,2.63,0,0,0,3.87,0c6.78-.07,13.56-.21,20.33-.54a2.62,2.62,0,0,0,1.66-4.46C401,171.85,400.49,167.42,400.95,163Z"/><path class="cls-4" d="M398.23,149.37l-.67-.24a1,1,0,0,0-.65-1.08,48.31,48.31,0,0,1-6-2.78,23.14,23.14,0,0,0-6-3.9,1.23,1.23,0,0,0-.44-.11v-.1c.08-.8-.87-1.16-1.48-.89h0a1,1,0,0,0-1,1l-.24,2.3a.83.83,0,0,0,.49.85.82.82,0,0,0,.15.35l.1.13c-.48.07-1,.11-1.45.16-16.32-1-32.78-.28-49.1-.1a.93.93,0,0,0-.67.28l.1-.19a1.07,1.07,0,0,0,.13-.14,2.13,2.13,0,0,0,.33-.72l.08-.18a1,1,0,0,0,0-.18h0a1.55,1.55,0,0,0,.45-.46,1.21,1.21,0,0,0,0-1.32,1.17,1.17,0,0,0-2,.05,1,1,0,0,0-.12.48,1.4,1.4,0,0,0-.26.38l-.37.24,0,0L322.33,148a1,1,0,0,0-.39,1.19h-.54a.94.94,0,0,0-.69.29l-1.09.26c-1.25.29-.74,2.23.52,1.93l2.15-.5c10.32-.22,21-1.11,31.21,0,5.72.61,11.4.18,17.08-.14a118,118,0,0,0,13.91,0l.35,0a.91.91,0,0,0,.45-.06,83.76,83.76,0,0,1,12.65.31C399.11,151.47,399.25,149.7,398.23,149.37Z"/><path class="cls-5" d="M340.68,165.18l-.81-.15a1.86,1.86,0,0,0-1,.1h0a1.53,1.53,0,0,0-1.51,1.49,1.52,1.52,0,0,0,1.49,1.51,9.08,9.08,0,0,1,1.44,0,1.5,1.5,0,0,0,.42-2.94Z"/><path class="cls-5" d="M330.21,166.27l-.13-.07-.07-.07a4.32,4.32,0,0,1-.32-.35,1.35,1.35,0,0,0-1.28-.42,1.82,1.82,0,0,0-1.77.11,1.52,1.52,0,0,0-.32,2.35,3.39,3.39,0,0,0,2.26,1l.1.07a1.5,1.5,0,0,0,1.53-2.58Z"/><path class="cls-5" d="M383.69,166.21a1.52,1.52,0,0,0-1.49-1.51c-4.71.23-10-.09-14.65,1a1.5,1.5,0,0,0-2.47,1.11v.53a1.41,1.41,0,0,0,.38.92,1.35,1.35,0,0,0,1.61.65h0l.27,0c4.79-1.18,10.34,1.61,15.16.27a1.49,1.49,0,0,0,1.05-1A6.75,6.75,0,0,0,383.69,166.21Z"/><path class="cls-6" d="M247.36,235.15c-2.07-3.93-1.83-8.24-1.8-12.55q0-5.06.08-10.11a1.65,1.65,0,0,0,.28-.69c0-.18,0-.35.07-.53h0v0a31.72,31.72,0,0,0,.39-4.07,1.79,1.79,0,0,0-.11-.65c0-.07,0-.14,0-.21a.83.83,0,0,0,.1-.22,1,1,0,0,0-.36-1.69l-.27,0h0a7.09,7.09,0,0,0-1.29-.09,7.44,7.44,0,0,0-5.37.87c-2.7.79-5.27,2-8,2.78a5.24,5.24,0,0,0-3.45.61,2.07,2.07,0,0,0-1.86,2.62,2.4,2.4,0,0,0-.14.57c-.2,1.72-.29,3.43-.33,5.14A1.91,1.91,0,0,0,225,218a112,112,0,0,1-.78,12.18,1.56,1.56,0,0,0,.42,1.3,2,2,0,0,0-.05.39l-.09,2.71a2,2,0,0,0,2,2c6.36.72,12.73,1.25,19.12,1.55A2,2,0,0,0,247.36,235.15Z"/><path class="cls-7" d="M262.46,183.47a35,35,0,0,0-.63-5.44,1.81,1.81,0,0,0-.09-.31,2,2,0,0,0-2-3.28,57.1,57.1,0,0,1-12.55,1.78,2,2,0,0,0-1.28,3.45c.79,3.25.19,6.23.48,9.53a21.42,21.42,0,0,0,2.41,7.26l-.54,4.37a1.71,1.71,0,0,0-.14.45l-.2,1.19a1.92,1.92,0,0,0-.35.82c-.27,1.4-.46,2.8-.62,4.21v.07a2,2,0,0,0-.22.62q-.21,1.26-.38,2.5c-3,8-.56,17.15.84,25.33a2,2,0,0,0,2.45,1.41c2.33-.79,4.92-.28,7.35-.63a2,2,0,0,0,1.48-1.92c0-2.55,0-5.08.15-7.63a2.24,2.24,0,0,0,0-.49c0-.3,0-.59,0-.89a2.11,2.11,0,0,0,.15-.73l.07-2.24q.11-1.55.18-3.11a1.58,1.58,0,0,0,.3-.71c0-.18,0-.35.07-.53h0l0-.17a89,89,0,0,0,.92-12.86,59.21,59.21,0,0,0,.83-8,2,2,0,0,0,.47-1.76,7.5,7.5,0,0,1-.19-1.31,2.19,2.19,0,0,0,0-.26c0-2.83.88-5.58,1-8.41,0-.07,0-.13,0-.2a1.63,1.63,0,0,0,.16-.88C262.57,184.28,262.51,183.88,262.46,183.47Z"/><path class="cls-6" d="M365,98.46l-.45-3.15a1.51,1.51,0,0,0-1.43-1.91c-13.1,1-26.15.2-39.27,1.79a1.62,1.62,0,0,0-.62.2l-3.74-.09a1.54,1.54,0,0,0-.5.07l-.65-.06c-1.25-.15-1.72,1.34-1.31,2.25q.95,2.12,1.77,4.28a1.75,1.75,0,0,0,0,.33,36.05,36.05,0,0,1-.32,15.48,1.45,1.45,0,0,0,.22,1.21,12.79,12.79,0,0,0-.34,9.32l1.33,15.09c-.24,1.23-.5,2.45-.81,3.68a1.54,1.54,0,0,0,0,.59.85.85,0,0,0-.28.34l-.17.36a1.25,1.25,0,0,0,1.55,1.63c2.54-2.15,5.88-3.11,8.14-5.63a1,1,0,0,0,.24-.54,19.7,19.7,0,0,1,3.22-1.79,1.75,1.75,0,0,0,.5-2.88,13.8,13.8,0,0,0,.55-2.93,89.52,89.52,0,0,0,.15-18.18,2.48,2.48,0,0,0-.15-.62c0-.55,0-1.09.07-1.64s.08-1,.08-1.53.08-1,.12-1.53c0-.25,0-.49.06-.71a1.44,1.44,0,0,0-2.42-1.1c-.39-.06-.81-.09-1.24-.12a1.31,1.31,0,0,0-.67.12,25.78,25.78,0,0,0-2.73-.18c-.08-.82-.19-1.64-.31-2.46a1.53,1.53,0,0,0,.86-1.47c.82-.11,1.59-.28,2.05-.38,1.28-.27,3.38-.28,4.22-1.49a5.15,5.15,0,0,0,.54-2.93c10.17.28,20.24-2,30.44-1.17A1.51,1.51,0,0,0,365,98.46Z"/><path class="cls-8" d="M471.89,222.78a82.27,82.27,0,0,0,.69-10.34,1.47,1.47,0,0,0-.29-.92,1.42,1.42,0,0,0,0-.18,39.59,39.59,0,0,0-.41-8.94,1.25,1.25,0,0,0-.45-.82,15.89,15.89,0,0,0-.1-3.16,1.52,1.52,0,0,0-1.49-1.51l-11,.6-.17,0a28.06,28.06,0,0,0-4.68.27l-4.29.25a81.19,81.19,0,0,0-14.07-.11c-3.82.29-8.48.19-12,2l-5.9,0a1.51,1.51,0,0,0-.42,2.94h0a1.37,1.37,0,0,0,0,.45l1.26,13.57a1.52,1.52,0,0,0,.4.92c-.34,3.68-.61,7.37-.78,11.05q-.31,1.79-.47,3.58-.19,1.53-.33,3.06a2.2,2.2,0,0,0-.88,1.94c.05,2.09.27,4.36.44,6.67q-.2,1.09-.32,2.16a2.7,2.7,0,0,0-.11.72c0,.09,0,.18,0,.27a28.05,28.05,0,0,0,0,4,2.63,2.63,0,0,0,.36,1.18c-.06.39-.11.79-.2,1.17a2.53,2.53,0,0,0,3.06,3.09,21,21,0,0,1,2.13-.41c10.16,1.23,20.25.49,30.41,1.4,4.73.43,9.82.76,14.5-.25,4.32-.92,3.6-3.7,3.15-7.57a2.69,2.69,0,0,0-.23-.8l1.8-16.45c.3-2.77.91-5.68.61-8.47A10.23,10.23,0,0,0,471.89,222.78Zm-26.73-13.15c5.46-.28,12.52-2,17.52.52-.09.62-.2,1.24-.34,1.85a120.31,120.31,0,0,1-15.53,1.59c-6,.26-12.31,1-17.94-1.36a1.35,1.35,0,0,0-.57-.11,10.1,10.1,0,0,0-.18-1.07C433.67,209.89,439.5,209.92,445.15,209.62Z"/><path class="cls-3" d="M685.68,233.72a41.62,41.62,0,0,0-4.88.77,3.11,3.11,0,0,0-2.4-.64h-.19l-12.74,1a6.44,6.44,0,0,0-4.84-1.41q-13,1-25.95,2a2.68,2.68,0,0,0-1.81-.49l-5.39.3a3,3,0,0,0-1-.1l-8.9.64q-46.93,2.41-93.93,2.28a3.38,3.38,0,0,0-.55,0c-16.42-.24-32.86.15-49.28.42a3,3,0,0,0-2.86,3.68,3.3,3.3,0,0,0-.08.37l-1.31,12.68c-17.36.68-34.67,3.13-52.05,1.62a3.06,3.06,0,0,0-.84,0,50.89,50.89,0,0,0-.62-11.47.59.59,0,0,0,0-.23c2-2,.28-5.87-2.83-5.05a23.46,23.46,0,0,1-7.09.83c-1.26-.06-2.41-.25-3.59-.25a3.22,3.22,0,0,0-4.88,3.22q.25,1.53.48,3a2.77,2.77,0,0,0-.76,1.86,65.36,65.36,0,0,0,1.34,13.73c-3.41,0-6.83.2-10.24.43q-10.8.73-21.59,1.25-14.65,0-29.3.76h-.15l-.87,0q-4.56-.22-9.14-.18l-4.26-.08a3,3,0,0,0-.54.06,2.4,2.4,0,0,0-1.84-1.15c-.23,0-1.07-5.43-1.77-10.11,0-1.26-.08-2.52-.17-3.77a3.2,3.2,0,0,0,0-.63l-.15-1.29a3.33,3.33,0,0,0-.16-.71c.75-1.83-.09-4.27-2.59-4.08a243.11,243.11,0,0,1-31.34.52c-9-.45-17.88-1.84-26.8-.55v-.52l.24-1.08a3.2,3.2,0,0,0,0-1.07l.05-.11c.88-2.19-1.64-4.27-3.67-3.71a50.24,50.24,0,0,1-12.69,1.57h-.37c-3-.36-5.93-.82-8.61-.9-7.85-.26-15.71.19-23.55.48l-30.61,1.16c-37.77-.85-54.54,1.82-92.32,2A383.12,383.12,0,0,0,42.5,239q-10.38-1-20.82-1.16a3,3,0,0,0-1.19.21,38.11,38.11,0,0,0-11-1.5c-3.86,0-3.91,6,0,6,9.15-.07,15.14,3.76,22.44,8.63a21.4,21.4,0,0,0,3.64,1.94,6.68,6.68,0,0,0,2.28.81c4.41,1.32,9,1.34,13.94,1.57a409.59,409.59,0,0,1,52.09,6.28c26,4.6,14.71-1.35,39.9,6.84,2.24,1,21.09,8.8,22.87,10.51,3.73,3.57,10.64.58,15.3,3.11,9.83,5.35,18.16,1.78,28.94,4.39L237,293q6,2.75,12.14,5.34c19.53,8.26,40.15,6.54,60.77,10.84,21.51,4.49,41.95,10.58,64.18,9.93,15.44-.46,30.69-2.95,45.78-6.19l3.16-.3c21.36-2.17,44.51-4.46,61.51-18.83,13.95-11.79,22.39-11,37.63-21.4a84.05,84.05,0,0,1,18.75-9.43c21.16-4.2,43-4.9,64.56-6.18,14.46-.85,28.94-2,43.2-4.58,6.8-1.24,14-2.48,20.28-5.38,2.79-1.28,5.13-3.18,7.78-4.67a22.68,22.68,0,0,1,9.66-2.48A46.35,46.35,0,0,1,685.68,233.72Z"/><path class="cls-9" d="M339.82,164.53a.45.45,0,0,0-.25.17c-1.14,0-2.32.26-2.67,1.51-.41,1.45,1.06,2.11,2.27,2.15s2.64-.6,2.68-1.95A1.74,1.74,0,0,0,339.82,164.53Zm.94,2.14c-.29.63-1.19.74-1.79.68s-1.57-.49-.9-1.26,1.6-.42,2.31-.33a.42.42,0,0,0,.25,0A1,1,0,0,1,340.76,166.67Z"/><path class="cls-9" d="M329.77,165.44a.52.52,0,0,0-.41-.78c-1.36-.09-3.12,0-3.61,1.58s.85,2.22,2,2.47,3.11.55,3.47-.92C331.54,166.61,330.71,165.89,329.77,165.44Zm.48,2.23c-.32.53-2.06.11-2.46,0-.74-.2-1.52-.73-.85-1.53a1.86,1.86,0,0,1,1.48-.53.49.49,0,0,0,.34.49C329.29,166.28,330.77,166.81,330.25,167.67Z"/><path class="cls-9" d="M321.4,265q37.46.13,74.88-1.69c.64,0,.65-1,0-1q-5.64.27-11.28.5a11.78,11.78,0,0,1,2.77-1.18c.6-.16,1.41-.18,1.89-.65s.65-1.93.65-2.91a5.82,5.82,0,0,0,2.74-.12.5.5,0,0,0-.26-1,4.9,4.9,0,0,1-2.84,0,.51.51,0,0,0-.64.48c0,.38,0,1.1,0,1.67h0c-.59-1.08-1.33-3.61-2.65-3.93a7.49,7.49,0,0,0-2.31.21l-3.72.42a.51.51,0,0,0-.25.11,6.93,6.93,0,0,0-.58-1.44c-.78-1.32-2.84-.43-4-.23h0l-.47-.9c-.51-1-.84-2.19-2-2.51s-5.52.6-6,2c-.53,1.64,2.31,2.77-.3,4.48a9.62,9.62,0,0,1-2.16.66,3.94,3.94,0,0,1-4.37-1,1.17,1.17,0,0,0-.31-.48c-2.45-.81-5.77.12-8.45.09a.49.49,0,0,0-.22,0q-.1-1-.26-1.9a.5.5,0,0,0-.61-.35L346.12,256c-1.51.55-1.79.85-3.6,0-.22-.11-.37-.41-.6-.5a2.8,2.8,0,0,0-1.64-.4c-1,.12-2.16,1.57-3,1.29s-1.41-2.7-1.9-3.47a2.58,2.58,0,0,0-1.28-1.19c-1.89-.71-5.08.44-7,.73-.63.1-.37,1.06.26,1l4.29-.65c2.53-.37,3.19,1.33,4.13,3.23.45.89.73,1.72,1.85,1.55a4.67,4.67,0,0,0,1-.56,4.14,4.14,0,0,1,3.09-.3c.52.2.82.74,1.41.9a5.38,5.38,0,0,0,3.16-.61l3.94-1.46a32.05,32.05,0,0,1,.28,6.64c0,.64,1,.65,1,0a33,33,0,0,0-.06-4.63.47.47,0,0,0,.14,0c2.05,0,4.28-.45,6.3-.31s1.48.77,2.66,1.59c1.92,1.33,5.44.07,7.31-.81.79-.38,1-.54,1.14-1.43s-.92-2.43-.73-3.09,2.08-1.31,2.74-1.35a3.28,3.28,0,0,1,3.25,1.68,43.88,43.88,0,0,1,2.9,5.61c.3.57,1.16.07.87-.5l-2-3.79a9.23,9.23,0,0,1,1.78-.3l1,.23.17.47a5.84,5.84,0,0,1,.42,1.18l1.43,4c.21.6,1.18.35,1-.26l-1.18-3.3c0-.12-.09-.26-.13-.39l4.62-.53c1.14-.13,1.38.21,2,1.17.44.68.79,1.45,1.17,2.16a.47.47,0,0,0,.76.1.87.87,0,0,1,0,.12c-.42.74-1.19.72-1.88.93a12.88,12.88,0,0,0-2.75,1.21.5.5,0,0,0,0,.88Q353,264.1,321.4,264A.5.5,0,0,0,321.4,265Z"/><path class="cls-9" d="M343.14,109.91q9.08-.25,18.14-.9c.64,0,.65-1,0-1q-9.06.65-18.14.9C342.51,108.93,342.5,109.93,343.14,109.91Z"/><path class="cls-9" d="M341.8,115.24l8.41-.51c.64,0,.65-1,0-1l-8.41.51C341.17,114.28,341.16,115.28,341.8,115.24Z"/><path class="cls-9" d="M341.5,121l7.1-.21c.64,0,.65-1,0-1l-7.1.21C340.86,120,340.85,121,341.5,121Z"/><path class="cls-9" d="M340.43,123.94l26.28-1.5c.64,0,.65-1,0-1l-26.28,1.5C339.8,123,339.79,124,340.43,123.94Z"/><path class="cls-9" d="M340.14,128l34.18-2.12c.64,0,.65-1,0-1L340.14,127C339.5,127.08,339.49,128.08,340.14,128Z"/><path class="cls-9" d="M337.48,132.52q17.82-2.19,35.76-3.17c.64,0,.65-1,0-1q-17.93,1-35.76,3.17C336.86,131.6,336.84,132.6,337.48,132.52Z"/><path class="cls-9" d="M361.65,133.17c.63-.07.65-1.07,0-1l-19.7,2.2c-.63.07-.65,1.07,0,1Z"/><path class="cls-9" d="M370,134.47l-29.74,3.12c-.63.07-.65,1.07,0,1L370,135.47C370.68,135.41,370.69,134.41,370,134.47Z"/><path class="cls-9" d="M373.72,137.95q-15.92.87-31.82,2.07c-.64,0-.65,1,0,1q15.9-1.2,31.82-2.07C374.36,138.91,374.37,137.91,373.72,137.95Z"/><path class="cls-9" d="M417.46,200.64c-.15-.63-1.11-.37-1,.26a56.66,56.66,0,0,1,1.3,8.31.47.47,0,0,0-.14,0q-8.69.1-17.35.67l-.09,0q0-2.61,0-5.23h0c5.07-.66,10.28-.8,15.38-1.07.64,0,.65-1,0-1-5.12.27-10.32.43-15.4,1.08q0-1.82,0-3.65a.45.45,0,0,0,.24,0,92.36,92.36,0,0,1,10.87-.48c2.19.08,4.34.35,6.5.33-.12.31,0,.7.43.66q11.31-1.25,22.66-2a.46.46,0,0,0,.42,0h0q14.31-1,28.66-1.16a.5.5,0,0,0,0-1l-2.22,0a.46.46,0,0,0,0-.22c-.21-1.91.27-5.73-1.73-6.82-2.26-1.22-5.15.73-6-2.69-.22-.92.15-1.83-.66-2.57-1.46-1.32-4.32.21-5.37,1.38a2.07,2.07,0,0,0-.49,2.31c-4.27.32-8.55.42-12.82.77a15.94,15.94,0,0,0-4,.53c-1.33.49-.72,1-1.36,2.13a.46.46,0,0,0-.05.34q-2.66-.06-5.31-.21l-.57-20.27c-.19-6.79-.65-13.71.52-20.45.48-2.75,1.81-5.45,2.07-8.21.28-2.94-1.74-5.45-2-8.35a79.34,79.34,0,0,1-.39-9.85.52.52,0,0,0,0-.89c0-1,.07-2,.13-3a.54.54,0,0,0,0-.69c.14-2.11.32-4.21.56-6.3.07-.64-.93-.64-1,0q-.14,1.19-.25,2.38a.49.49,0,0,0-.4-.09,48.87,48.87,0,0,1-12,.91c-3.63-.2-7.18-1-10.81-1.21-7.13-.36-14.2,1.1-21.32.63a.51.51,0,0,0-.21-.06l-1.33-.07a.45.45,0,0,0-.27.07,26.85,26.85,0,0,1,.3-2.75c3.35.16,6.57.8,9.61-.8,4.22-2.21,9.17-.9,13.61.12,3.46.79,6.91,2.43,10.51,1.77,2.11-.39,4.13-1.1,6.26-1.42a36.19,36.19,0,0,1,7.5-.26c.64,0,.65-1,0-1a39.35,39.35,0,0,0-12.34,1.29c-4.7,1.2-8.88-.81-13.47-1.73-3.21-.65-7.21-1.68-10.44-.67-1.81.57-3.1,1.93-5.1,2s-4-.16-6-.26a17.62,17.62,0,0,1,1.35-4,.5.5,0,0,0,0-.11v0a.49.49,0,0,0,0-.09.48.48,0,0,0-.34-.52c-4.68-1.52-6.07-7.52-11.15-8.41a.51.51,0,0,0-.54.25l-7.47.44a.52.52,0,0,0,.1-.57,8.13,8.13,0,0,1-.54-4.91s0,0,0,0a.5.5,0,0,0,0-1q-3,0-6,0a.45.45,0,0,0,.08-.27l0-1.82a.51.51,0,0,0-.5-.5A53.37,53.37,0,0,1,348,89.87a23.09,23.09,0,0,0-5.81,0,.51.51,0,0,0,0-.23c-.22-1-.19-2.41-1.34-2.75a3.19,3.19,0,0,0-1.59.25c-1.33.37-2.65.76-4,1.06A55.8,55.8,0,0,1,319,89.38a.41.41,0,0,0-.4.2c0-.16.05-.31.07-.47a15.5,15.5,0,0,0-.4-4.33,13.92,13.92,0,0,1-.43-5.4c.34-1.63,1.58-2.76,2-4.33.35-1.26-.14-2.4-.3-3.64-.25-1.88.46-3.64.57-5.5a6.17,6.17,0,0,0-1-3.83,10.72,10.72,0,0,1-.89-1.71.51.51,0,0,0-.1-.31,4.69,4.69,0,0,1-.21-1.7c0-.79.26-1.56.29-2.36.18-4.13-2.47-8.34-.55-12.33.28-.58-.58-1.09-.86-.51-1.2,2.49-.84,5-.3,7.61a21.63,21.63,0,0,1,.72,5.23c-.06,1.34-.49,2.62-.27,3.93q-20.34.78-40.69.35a.5.5,0,0,0,0,1q20.5.44,41-.36c.63,1.45,1.8,2.47,1.93,4.21a9,9,0,0,1-.24,2.44l-.1,0q-30.69,1.13-61.41.84a.46.46,0,0,0-.36.15q.2-3.33.61-6.65h.1a59.26,59.26,0,0,1,15.45,0c.64.09.64-.92,0-1a59.27,59.27,0,0,0-15.43-.05c.31-2.32.69-4.64,1.16-6.93.15-.71.29-1.42.42-2.11l.06,0c9.55.26,19.08.75,28.6,1.62s18.62-.47,28-1.48c.63-.07.65-1.07,0-1-9.37,1-18.56,2.35-28,1.48s-19-1.36-28.48-1.62a56.47,56.47,0,0,0,.81-5.77c17.76.91,35.74,2.38,53.4-.52.63-.1.37-1.07-.26-1C295.9,46.5,278,45,260.37,44.11c0-.63.05-1.28.05-1.93q25.83.32,51.62-1.29c.64,0,.65-1,0-1q-25.78,1.61-51.63,1.29c0-.07,0-.14,0-.21,0-.64-1-.65-1,0,.17,5.23-1,9.94-1.95,15a105.87,105.87,0,0,0-1.55,13.7,107.1,107.1,0,0,0,2.57,28.68c.14.63,1.11.37,1-.26-.24-1.07-.46-2.15-.67-3.22a109.2,109.2,0,0,1,16.13.3,126.24,126.24,0,0,0,16.09,0c.64,0,.65-1,0-1a126.24,126.24,0,0,1-16.09,0,109.12,109.12,0,0,0-16.15-.3.51.51,0,0,0-.17,0c-.42-2.24-.77-4.5-1-6.76q13.28-.25,26.54.67c.64,0,.65-1,0-1q-13.27-.92-26.57-.67l-.08,0a104.66,104.66,0,0,1-.51-17,.45.45,0,0,0,.39.21q30.66.29,61.31-.84a9.77,9.77,0,0,0-.25,2.18c0,1.83.9,3.37-.08,5.14a11,11,0,0,0-1.57,3.43,15,15,0,0,0,.46,5.6,274.61,274.61,0,0,0-29.62,1.51c-.63.07-.65,1.07,0,1a274.57,274.57,0,0,1,29.8-1.51A11.71,11.71,0,0,1,317.6,89a19.79,19.79,0,0,1-1,3.57.5.5,0,0,0-.21.91c0,.13-.05.27-.07.4a13.06,13.06,0,0,0,.72,4.92c.19.69.4,1.4.63,2.12a.47.47,0,0,0-.25-.07c-9.75,0-19.5,0-29.23.72a98.4,98.4,0,0,1-13.75.15c-4.34-.26-8.63-.41-12.9.58-.63.15-.37,1.11.26,1,4.49-1,9-.76,13.56-.49a100.78,100.78,0,0,0,13.8-.28c9.4-.72,18.83-.69,28.25-.65a.45.45,0,0,0,.45-.3c.93,3,2,6.07,2,9a11.1,11.1,0,0,1-.29,2.69l-57.07,1.09a.5.5,0,0,0,0,1l56.82-1.08c-.45,1.6-1.09,3.16-1.57,4.76a.48.48,0,0,0-.45-.67,91.07,91.07,0,0,0-13.13,1.47c-2.63.41-4.09-1.37-6.51-1.53-2.14-.14-4.19.79-6.34.69-4.59-.22-9.13.08-13.73-.05s-9.37-.38-14,.3c-.63.09-.37,1.06.26,1,5.07-.74,10.14-.32,15.23-.23,2.21,0,4.4-.08,6.61-.2s4.34.29,6.53.24c2.62-.06,4.9-1.31,7.47-.07a6.34,6.34,0,0,0,3.87,1c1.82-.15,3.64-.7,5.45-1a63.77,63.77,0,0,1,8.35-.61.46.46,0,0,0,.45-.32,15.63,15.63,0,0,0-.55,2.5,21.12,21.12,0,0,0,0,5,.51.51,0,0,0-.22-.05q-27.25-.46-54.48.9c-.64,0-.65,1,0,1q27.22-1.36,54.48-.9a.45.45,0,0,0,.33-.12c.3,2.23.79,4.45,1.14,6.67a44.33,44.33,0,0,1,.51,8.41h-.1c-18,.86-36,1.89-54,2.88-.64,0-.65,1,0,1,18-1,36-2,54-2.88H319a45.94,45.94,0,0,1-.85,6.63.5.5,0,0,0,.33.58L316,152.33l-.19.08a.45.45,0,0,0-.46-.38q-26.22-.11-52.35,2.24c.08-1.32.17-2.64.26-4,0-.64-1-.65-1,0q-.49,7-.74,14c-3,.31-5.9,1.24-8.9,1.53a.51.51,0,0,0-.49.63l.38,1.89a.42.42,0,0,0,.39.36c-.62.1-1.23.21-1.83.34-2.29.53-1.79,1.41-1,3.24a.41.41,0,0,0,.21.21.46.46,0,0,0-.1.45l.73,1.77c.24.59,1.21.34,1-.26-.5-1.21-.54-1.67,1-1.69,1,0,2,.11,3.08.06a20.77,20.77,0,0,0,5.33-1c0,.63,0,1.26,0,1.88l-16.26,2.37a.51.51,0,0,0-.35.61,41.22,41.22,0,0,1,1.33,8.43c.1,2.1-.39,4.44,0,6.5a8.67,8.67,0,0,0,1.1,2.25c.91,1.8.76,3.33.42,5.27l0,.14c-1.89,0-3.57-1.1-5.54-1a47.71,47.71,0,0,0-6,.92c-2.77.48-3.33,1.24-2.95,4-2.24.25-3.87.59-4,3.52,0,.64,1,.65,1,0,.13-3.34,5.09-2.41,7.4-3.44a15.35,15.35,0,0,1,4.76-1.5c1.66-.2,3.33-.37,5-.55-.37,1.95-.75,3.9-1.12,5.85a67.57,67.57,0,0,0-1.54,14.69,86.83,86.83,0,0,0,2.25,15,.43.43,0,0,0,.15.25,117.73,117.73,0,0,1-14.36-.22c-7.87-.61-15.74-1.37-23.56.1-.63.12-.37,1.08.26,1,8-1.51,16.15-.6,24.23,0a120.3,120.3,0,0,0,24.16-.77.54.54,0,0,0,.21-.07c-.09,1.81-.19,3.62-.26,5.43a.49.49,0,0,0,.77.4.42.42,0,0,0,.42.24c9.88-.41,19.7.78,29.56,1.13,5,.17,9.91.08,14.87-.09,2.48-.09,5-.19,7.45-.29l4-.15c1.06,0,2.85-.46,3.77.21a.46.46,0,0,0,.12.06c0,.85.09,1.7.15,2.55-20.55,2-41.11-.66-61.67-1a.5.5,0,0,0,0,1c20.58.38,41.17,3,61.75,1q.47,6.94,1.21,13.85c.07.63,1.07.65,1,0a348.14,348.14,0,0,1-2-40.37c0-5.41.53-11,.76-16.56a.52.52,0,0,0,0-.91c.26-6.94.08-13.86-1.82-20.45,10.67-.34,21.34-.57,32-.77a.45.45,0,0,0-.29.44q0,21.82-.79,43.62c0,.64,1,.65,1,0q.83-21.8.79-43.62a.46.46,0,0,0-.31-.45l6.43-.11a.48.48,0,0,0,0,.1c-.6,6.41-1.49,12.88-1.65,19.32s1.91,12.81,1,19.27c-.09.64.92.64,1,0,.87-6.46-1.18-12.81-1-19.27s1.05-12.91,1.65-19.32a.46.46,0,0,0,0-.12l2.41,0a.51.51,0,0,0,0,.16,424.4,424.4,0,0,0-.75,43.08c0,.64,1,.65,1,0a424.4,424.4,0,0,1,.75-43.08.48.48,0,0,0,0-.18l2,0A246.74,246.74,0,0,0,364.91,228c.08.64,1,.37,1-.26a245.35,245.35,0,0,1-1.77-45.56l2.83,0a.48.48,0,0,0,0,.21c1.16,12.68-1.6,25.31-.81,38,0,.64,1,.65,1,0-.78-12.69,2-25.31.81-38a.51.51,0,0,0-.08-.23l3.15,0a.48.48,0,0,0,0,.13l-1.39,44.13a.5.5,0,0,0,1,0l1.39-44.13a.48.48,0,0,0,0-.15l2.63,0a.53.53,0,0,0-.06.19c-1.44,14.14,1.32,28.23,1,42.37a.5.5,0,0,0,1,0c.29-14.15-2.47-28.23-1-42.37a.47.47,0,0,0,0-.21l1.78,0q.13,17.08.26,34.17a.5.5,0,0,0,1,0l-.26-34.19,1.37,0a.4.4,0,0,0-.11.35,161.62,161.62,0,0,1-.2,37.52c-.08.64.92.64,1,0a161.62,161.62,0,0,0,.2-37.52.51.51,0,0,0-.21-.36q9.69-.15,19.39-.34c-.61,13.24-.48,26.4-.49,39.65,0,6.46-1.13,12.78-1.65,19.19-.15,1.88-.26,3.76-.33,5.65a.51.51,0,0,0-.14-.09c-1.33-.51-1.42-2.32-2.85-2.8-1.16-.39-1.62.21-2.61-.8-.76-.78-.62-1.22-1-2.11a.48.48,0,0,0-.43-.25,20.76,20.76,0,0,1-8.25-.59.52.52,0,0,0-.62.35,16.21,16.21,0,0,0-.79,2.4,2.79,2.79,0,0,0-.41,0,3.17,3.17,0,0,0-.64.12,8.49,8.49,0,0,0-2.84-1.34l.64-3c.35-1.61.27-2.09,2-2.25a10.45,10.45,0,0,0,4.39-1.48,13.65,13.65,0,0,0,2.52,4.09c.43.48,1.14-.22.71-.7-.18-.2-.33-.4-.49-.6A2.77,2.77,0,0,1,389,237c.36.19.89-.12.74-.56a10,10,0,0,1-.87-2.55q-.56-.75-.12-.62l1.19-.19,6-1c.63-.1.37-1.07-.26-1l-4.78.76c-.77.12-2.23,0-2.86.56-.81.66-.18,2.12.33,3.24a3.56,3.56,0,0,0-2.53.4,12.33,12.33,0,0,1-1.41-2.8.51.51,0,0,0-.73-.3,9.79,9.79,0,0,1-4.12,1.59c-.69.09-1.78-.11-2.39.39-.44.36-.47,1-.6,1.54-.34,1.36-.6,2.75-.9,4.12l-.21,0c-.87-.14-2,.07-2.29-.69-.41-.93.47-3.57.61-4.6a.5.5,0,0,0-.63-.49c-3.75,1.27-7.42-.52-11.22-.25-1.33.1-2.25.85-3.44,1.08-1.61.31-1.75-.67-2-1.72a.51.51,0,0,0,.44.15l5.92-.82c1.22-.17,2.79-.6,4-.26.64.18,1.11.65,1.73.85,2.23.74,3.84-.47,5.41-2a.47.47,0,0,0,.13-.21c1.13-.79,2.19-1.82,3.63-1.62a10.32,10.32,0,0,0,2.24.35,7.67,7.67,0,0,0,2.18-.64c.82-.29.39-.48,1.47-.48s.88.23,1.68.86a1.63,1.63,0,0,0,2.17.3,18.35,18.35,0,0,1,8.78-1.37c.64,0,.65-1,0-1a19.69,19.69,0,0,0-7.1.47c-1.42.46-2.07,1.43-3.59.46-.55-.35-.89-1-1.59-1.12a2,2,0,0,0-1.35.31c-1.55.77-2.44,1.34-4.28,1-.6-.11-1-.46-1.62-.35-1.06.19-2.42,1.49-3.27,2.06a.49.49,0,0,0-.2.28,7.29,7.29,0,0,1-2.14,1.62c-1.2.5-2.16-.1-3.29-.47a6.06,6.06,0,0,0-2.38-.42,83.47,83.47,0,0,0-8.8,1.2.39.39,0,0,0-.33.23,2.34,2.34,0,0,0-.52-1c-.86-.91-2-.52-3.06-.3a49.16,49.16,0,0,0-6.84,1.44c-.73.27-1,.37-1.37,1.07-.88,1.73-.82,4.66-1.15,6.58a.5.5,0,0,0,.06.33,3.9,3.9,0,0,1-2.77-1.2,8.81,8.81,0,0,1-.69-2.31c-.24-.78-.34-1.51-1.07-1.94s-2.3-.38-3.24-.48l-5.93-.58c-.64-.06-.64.94,0,1l5.47.53c1,.1,2.87.1,3.58,1,.47.56.58,2,.8,2.69.73,2.29,2.89,2.26,5.07,2.43.64,0,.65-1,0-1l-.37,0a.46.46,0,0,0,.05-.14,33.88,33.88,0,0,1,1-5.69c.7-1.9,3.89-1.91,5.73-2.3,1.38-.29,3.48-1.08,4.49.7a13,13,0,0,1,.3,1.28,2.34,2.34,0,0,0,1.37,1.55c1,.25,1.53-.43,2.33-.82a9.2,9.2,0,0,1,5.15-.47c2.69.32,5.3.93,8,.28l-.64,4.83c0,.28.25.49.5.5a12.72,12.72,0,0,1,5.81,1.3c-.76.36-1.51.81-2.06,1.1-1.5.82-1.5,1.06-2.74-.17a30.84,30.84,0,0,1-2.39-3.13.51.51,0,0,0-.61-.08,28.73,28.73,0,0,1-6,1.89.51.51,0,0,0-.23.83,17.58,17.58,0,0,1,2.54,4.55c.23.6,1.2.34,1-.26a19.35,19.35,0,0,0-2.31-4.32c.66-.14,1.31-.29,2-.49s2.06-1,2.64-.95c1.49.17,3,3.12,3.88,4.23a.5.5,0,0,0,.61.08c1.18-.78,3.21-2.28,4.84-2.49a.49.49,0,0,0,.55,0,1.91,1.91,0,0,1,.51.1c1.19.44,1.46,1.62,2.59,2.26,2,1.13,4.26.24,6.14-.75a20.37,20.37,0,0,0,.89,4.13c.73,2.15,2.28,4.22,1.61,6.6a.5.5,0,0,0,1,.27,6.25,6.25,0,0,0-.42-4.22,28.49,28.49,0,0,1-2.14-7.56.51.51,0,0,0-.75-.44,8.77,8.77,0,0,1-4.1,1.49c-1.81,0-2.37-1.32-3.4-2.45a3,3,0,0,0-.46-.42,16.21,16.21,0,0,1,.64-2,60.37,60.37,0,0,0,6.19.71,1.27,1.27,0,0,1,1.61.44,2.18,2.18,0,0,0,0,.77c.24.56.06.6.4,1,.79,1,1.74.46,2.76.65,2,.36,2.11,2.26,3.76,2.89a.41.41,0,0,0,.39,0c-.16,4.75-.12,9.52-.07,14.27a.5.5,0,0,0,1,0c-.07-6.54-.12-13.09.35-19.61h.21l.06,0c5.87,0,11.73-.23,17.58-.67a90,90,0,0,0,.17,16.5c.07.63,1.07.65,1,0C415.28,238.48,421.91,219.42,417.46,200.64Zm-176.6.36c-2.28.4-4.09,1.8-6.42,2.1l-.4,0c-.33-2.25.8-2.69,2.68-3,1.22-.21,2.44-.46,3.66-.63a11,11,0,0,1,5,.37,13.29,13.29,0,0,0,1.71.43C245,200.51,242.89,200.64,240.85,201Zm159.44,9.85q8.67-.57,17.35-.67a.5.5,0,0,0,.22-.05q.09,1.22.13,2.44a41.56,41.56,0,0,0-9.69,0c-.63.07-.65,1.07,0,1a41.57,41.57,0,0,1,9.73,0q0,1,0,2a122.68,122.68,0,0,0-16.6.26c-.64.05-.65,1.05,0,1a122.74,122.74,0,0,1,16.61-.26c0,2.51-.15,5-.32,7.53a.5.5,0,0,0-.17,0q-8.72-.22-17.43.11c0-1,.08-1.94.08-2.92q0-5.19,0-10.37Zm20.33-12.18c-3.39.65-6.8-.06-10.2-.12s-6.62.22-9.92.5a.51.51,0,0,0-.23.08q0-3,.08-6a.43.43,0,0,0,.29.08q12.21-.66,24.43-1a21.71,21.71,0,0,1,.08,3.18q-11.39-.53-22.78-.35a.5.5,0,0,0,0,1q10-.16,19.91.24a2.51,2.51,0,0,0-1.56,2,.41.41,0,0,0,.05.27Zm34.7-10.34a.51.51,0,0,0-.35-.86,1.56,1.56,0,0,1,1.11-2.22,1.33,1.33,0,0,1,2.15.12c1.4.88.69.72,1,2.07a2.71,2.71,0,0,0,1.27,2c1,.61,2,.38,3.06.57,3.4.63,3,3.5,3.33,6.21a.51.51,0,0,0,.09.24q-10.4.2-20.78.8a3.06,3.06,0,0,0,1.53-1.48c1.11-2.26,1.16-5,4-6C453,189.29,454.31,189.53,455.32,188.33Zm-17.44,1.57a42.66,42.66,0,0,1,5-.48c2.76-.18,5.53-.29,8.29-.46a3.8,3.8,0,0,0-1.19.53,6,6,0,0,0-1.66,1.92c-4,.17-8,.24-12,.17C436.87,190.66,436.6,190.13,437.87,189.9Zm-2.59,2.66c4.18.09,8.36,0,12.54-.13-.06.12-.12.24-.17.37-.77,1.82-1,3.39-3.12,3.9a16.78,16.78,0,0,0-3.38.84q-10,.67-19.92,1.72a.57.57,0,0,0-.1-.38.55.55,0,0,0,.56-.47c.26-2,5.29-2,6.44-2a18.22,18.22,0,0,1,6.31,1.24c.6.23.87-.74.27-1a18.93,18.93,0,0,0-8.59-1.17c0-.62-.25-3,0-3.2.49-.52,2-.12,2.69-.07C430.95,192.42,433.11,192.51,435.28,192.55Zm-6.19-1.26c-1.2-.07-2.4-.16-3.6-.26a.5.5,0,0,0-.43.25q-12.22.3-24.43,1a.48.48,0,0,0-.28.11q0-1.3.06-2.6l.12,0q14.24-.68,28.49-1Zm-28.66-2.51q.09-3.43.24-6.87a266,266,0,0,0,28.14-.2l.17,6.07q-14.24.29-28.46,1Zm-17.31-71.9c8,.86,15.89-1.05,23.86-.43,3.6.28,7.13,1.06,10.75,1.19a50.68,50.68,0,0,0,11.31-1l.06,0q-.13,1.43-.21,2.87-6.61-.12-13.21-.38c-.64,0-.65,1,0,1q6.58.26,13.16.38-.07,1.36-.11,2.72c-8-.48-16.11-.91-24.16-.83-3.68,0-7.26.65-10.91,1s-7.14.46-10.72.54c-.09-2.4-.22-4.83-.13-7.23A.51.51,0,0,0,383.13,116.89Zm-.28-9.08c-2.46,1.41-5.61,1.49-8.4,1.79q0-4.63-.21-9.25C377.8,101.75,379.5,105.94,382.85,107.82Zm-9.61-7.57q.27,5,.22,9.91a.5.5,0,0,0,.5.5c3.08-.38,6.7-.39,9.46-2-2,4.8-1.64,10-1.47,15.09a129.38,129.38,0,0,1-1,20.63q-24.22-.66-48.44-.08c.17-1,.31-1.94.43-2.91a.39.39,0,0,0,0-.37c1.57-12.75-.16-25.63.78-38.43Zm-41.72,44-1.21,0c-.64,0-.65,1,0,1q26.93-.72,53.87.11a.5.5,0,0,0,0-1l-2.23-.05c.18-1.39.33-2.78.46-4.17,5.59,3.27,11,6.57,16.4,10.18q-22,.47-44,.07c-7.26-.14-14.51-.46-21.76-.59a49.26,49.26,0,0,0-13.57,1.3c4.18-2.86,8.4-5.69,12.36-8.85-.09.62-.18,1.25-.29,1.87A.5.5,0,0,0,331.52,144.3Zm11.86-53.54a32.61,32.61,0,0,1,7.48.59,34.85,34.85,0,0,0,4.21.37c1.41,0,2.79-.54,2.83,1.24a.47.47,0,0,0,.11.29q-15.73.21-31.43,1.29c.35-.79,2.53-1.52,3.22-1.65s1.23-.08,1.83-.14c1.11-.12,2.21-.31,3.31-.51A81.54,81.54,0,0,1,343.39,90.76Zm-26,3.25a38.91,38.91,0,0,1,1.11-4.09.5.5,0,0,0,.46.45,57.23,57.23,0,0,0,11.59-.3A55.21,55.21,0,0,0,336.41,89c.87-.21,1.77-.59,2.66-.72,1.78-.25,1.77-.07,2.15,1.66a.45.45,0,0,0,0,.09c-.84.12-1.68.27-2.52.43-1.51.29-3,.64-4.52.9-2,.35-4.12.27-6.1.67a2.81,2.81,0,0,0-2.58,2.59c-2.69.19-5.37.39-8.05.62a.51.51,0,0,0-.16,0A9.63,9.63,0,0,1,317.38,94Zm1,33.44c-.6-4.4.3-7.93,1.66-12.07.12-.37.22-.73.31-1.09h0a.51.51,0,0,0,.19-1A16,16,0,0,0,320,106c-.8-3-2.34-6.54-2.66-9.81h.1q23.12-2,46.33-2a9.3,9.3,0,0,0,.67,5.43.45.45,0,0,0,.08.12l-30.72,1.8c0-.13,0-.27,0-.4.06-.64-.94-.64-1,0,0,.24,0,.47-.05.71a.56.56,0,0,0,0,.46c-1,12.83.81,25.78-.78,38.56-4.1,3.36-8.52,6.31-12.9,9.3a45.79,45.79,0,0,0,.9-11.51C319.8,134.88,318.89,131.21,318.38,127.45Zm-64.89,40.66-.27-1.33c2.78-.34,5.5-1.16,8.27-1.45q0,1.31-.08,2.63c-2.71.24-5.56.33-8.27.74A.5.5,0,0,0,253.49,168.11Zm7.86,2.72a19.94,19.94,0,0,1-6.85,1,8.54,8.54,0,0,0-3.51.29.5.5,0,0,0,0-.34c-.94-2.11,4-2.18,5.52-2.33l4.91-.52C261.38,169.59,261.36,170.21,261.35,170.83Zm57.27,31.8q0,.47,0,.94l-19,.31a.5.5,0,0,0,0,1l18.95-.31c-.17,3.94-.34,7.88-.45,11.83l-.12,0q-16.82-.82-33.67-.78a.5.5,0,0,0,0,1q16.84,0,33.67.78l.1,0Q318,219.7,318,222c0,.63,0,1.26,0,1.88-9.7-.66-19.41-1.31-29.13-1.07-9.56.24-19.06,1.25-28.64,1.21a.5.5,0,0,0,0,1c9.58,0,19.08-1,28.64-1.21,9.73-.24,19.44.41,29.14,1.07,0,.72,0,1.45,0,2.17a178.3,178.3,0,0,0-21,.11c-.64,0-.65,1,0,1a178.35,178.35,0,0,1,21-.11q0,3.29.14,6.57-29,.55-58,.45a.5.5,0,0,0,0,1q29,.1,58-.45.12,3.6.32,7.21c-1.38-.61-3.39-.12-4.82-.07l-7.95.32c-5.3.21-10.6.37-15.9.23-10.35-.27-20.65-1.6-31-1.17a.5.5,0,0,0-.18,0q.51-12.82,1.54-25.61,10.26-.37,20.52,0a.5.5,0,0,0,0-1q-10.22-.35-20.44,0c.26-3.24.53-6.48.84-9.72a.42.42,0,0,0,.26.06,152.14,152.14,0,0,1,17-.94.5.5,0,0,0,0-1,152.14,152.14,0,0,0-17,.94.52.52,0,0,0-.18.06c.3-3.13.61-6.25,1-9.38.07-.64-.93-.64-1,0q-2.24,20.24-3.22,40.6a.42.42,0,0,0-.24,0c-3.38.43-6.73.72-10.08.89a.48.48,0,0,0,.17-.48c-1.12-5.33-2.25-10.71-2.24-16.18,0-5.66,1.17-11.22,2.25-16.74.43-2.19.93-4.4,1.17-6.62.28-2.55-1.6-3.79-2-6.21-.34-2.24.16-4.74,0-7a42.35,42.35,0,0,0-1.15-6.78l15.54-2.26c.07,2.2.23,4.38.45,6.59.36,3.46.59,6.91-1.12,10.08-.3.57.55,1.08.86.51,3-5.58.76-12.36.76-18.36,0-1.57,0-3.15.06-4.73.55-.12.57-1,0-1,0-.88.06-1.76.09-2.63h0c.63,0,.65-1,0-1q.17-4.49.44-9,25.82-2.33,51.77-2.25a.45.45,0,0,0-.24.4q-.08,3.37-.18,6.75c-8.53,0-17.06-.14-25.59,0-4.23,0-8.37.7-12.58,1.08a113.19,113.19,0,0,1-12.85.4.5.5,0,0,0,0,1,113.39,113.39,0,0,0,12.38-.35c4.36-.37,8.66-1.07,13.05-1.12,8.52-.09,17,0,25.57,0q-.1,3.92-.19,7.85a.45.45,0,0,0-.45-.32q-12.55,0-25.09.57c-.64,0-.65,1,0,1q12.53-.6,25.09-.57a.46.46,0,0,0,.45-.3c0,.22,0,.43,0,.65,0,.5,0,1,0,1.51-15.8.25-31.42,3.49-47.25,3.05a.5.5,0,0,0,0,1c15.82.44,31.44-2.79,47.23-3.05-.05,3.77.12,7.69,2.07,10.94a.51.51,0,0,0,.91-.1c.29,1,.52,2,.73,3-8.92.16-17.84.42-26.75.47-8.4.05-16.89-2.44-25.24-.79-.63.12-.37,1.09.26,1,8.5-1.67,17.3.92,25.88.82s17.3-.31,25.94-.46l.09,0A69.86,69.86,0,0,1,318.62,202.63Zm21.16-21.05.07-10.39a.5.5,0,0,0-1,0l-.07,10.41-10.33.24a.5.5,0,0,0,0-.21,62.23,62.23,0,0,1,.43-8.69c.08-.64-.92-.64-1,0a62.23,62.23,0,0,0-.43,8.69.49.49,0,0,0,.07.24q-5.19.14-10.39.3a.48.48,0,0,0-.46.37c-2.3-4.27-1.71-9.77-1.59-14.45s.24-9.5.36-14.25a.44.44,0,0,0,.24-.08l.88-.61c6-2.4,12.6-2.41,19-2.21l3.22.1c-.57,1.4-.28,2.92-.19,4.39l.38,6c0,.64,1,.65,1,0l-.33-5.23c-.1-1.56-.5-3.5.12-5a.47.47,0,0,0,0-.2c5.63.17,11.27.34,16.9.43q21.65.37,43.3-.13a.49.49,0,0,0,.15,0l.3.2c.53.37,1-.5.51-.86-.86-.59-1.73-1.16-2.59-1.73l28-.46a.5.5,0,0,0,0-1l-28.76.48a.46.46,0,0,0-.38.2c-2.39-1.57-4.81-3.08-7.25-4.57,11.76-.83,23.56-.47,35.33-.06a.5.5,0,0,0,0-1c-12.23-.42-24.51-.81-36.73.15l-.07,0q-2.91-1.75-5.86-3.48a.51.51,0,0,0-.18-.06,125.73,125.73,0,0,0,.49-13.44c0-.24,0-.49,0-.73,3.56-.08,7.14-.15,10.68-.54a108.87,108.87,0,0,1,10.91-1c8-.07,16.12.35,24.14.83q0,1.4,0,2.8l-25.35-.23a.5.5,0,0,0,0,1l25.37.23q.06,2.55.27,5.1c-2.38,0-4.75-.13-7.13-.1a.5.5,0,0,0,0,1c2.41,0,4.81.11,7.22.1a13.13,13.13,0,0,0,.75,3.57c.17.45.35.86.52,1.27h-.05c-15.55-.45-31.2-1.48-46.75-1-.64,0-.65,1,0,1,15.55-.46,31.21.57,46.75,1a.44.44,0,0,0,.38-.17,6.24,6.24,0,0,1,.42,2.52.4.4,0,0,0-.46-.37l-2.28.22c-.63.06-.65,1.06,0,1l2.28-.22a.51.51,0,0,0,.44-.34c0,.17,0,.34-.07.52-.58,2.92-1.7,5.66-2.12,8.64a70.38,70.38,0,0,0-.56,10.92.5.5,0,0,0-.16,0,61.34,61.34,0,0,0-11,.27,58.93,58.93,0,0,1-10.52.66c-.64,0-.65,1,0,1a58.93,58.93,0,0,0,10.52-.66,61.39,61.39,0,0,1,11-.27.48.48,0,0,0,.18,0c0,2.33.14,4.65.2,7l.08,2.89a87.31,87.31,0,0,0-8.88.35c-.64.06-.65,1.06,0,1a87.15,87.15,0,0,1,8.91-.35l.18,6.25a266,266,0,0,1-28.1.2.41.41,0,0,0-.16-.26.45.45,0,0,0-.32-.12C380.07,181,359.92,181.15,339.77,181.58ZM416.4,239.9c-5.86.44-11.72.7-17.59.68h-.26c.11-1.34.24-2.67.39-4a.53.53,0,0,0,.19.06c5.9.75,11.8-.32,17.64-1.18C416.63,236.92,416.5,238.41,416.4,239.9Zm-17.27-4.29H399c.39-3.5.82-7,1-10.49q8.74-.33,17.48-.11l.11,0c-.23,3.14-.53,6.28-.81,9.42C411,235.26,405.06,236.36,399.13,235.61Z"/><path class="cls-9" d="M326.08,272.8c-3.07-.26-6.14-.52-9.19-.94-2.06-.28-7.05-.44-8.69-2.16a23.16,23.16,0,0,1,7-3.31.5.5,0,0,0-.26-1,23.84,23.84,0,0,0-7.72,3.72.51.51,0,0,0-.18.68c1.37,2.31,5.43,2.35,7.8,2.73,3.72.6,7.47.92,11.22,1.24C326.72,273.86,326.72,272.86,326.08,272.8Z"/><path class="cls-9" d="M408.33,274.33c-25.74,3-51.64,5.92-77.57,4-.64,0-.65,1,0,1,25.94,1.89,51.83-1,77.57-4C409,275.26,409,274.26,408.33,274.33Z"/><path class="cls-9" d="M409.81,264.16a.5.5,0,0,0-.27,1l-1,2.17q-.58.14-1.16.24c-.78.15-1.57.29-2.36.41q-2.53.42-5.07.72c-2.85.34-5.7.59-8.57.77-6.06.39-12.14.48-18.21.53-11.72.1-23.45.09-35.09,1.64-.64.08-.37,1,.26,1,14.89-2,29.93-1.35,44.9-1.77a167.88,167.88,0,0,0,21.09-1.74c1.82-.28,5.37-.23,6.52-2A1.86,1.86,0,0,0,409.81,264.16Z"/><path class="cls-9" d="M453.08,261.55q-5.93-.06-11.83.45c-.64.05-.65,1.05,0,1q5.91-.51,11.83-.45A.5.5,0,0,0,453.08,261.55Z"/><path class="cls-9" d="M248.28,246.58a11.16,11.16,0,0,1,3.2-.88c.64-.09.37-1.05-.26-1-1.74.24-6.29,1.27-5.65,3.92a2.69,2.69,0,0,0,1.85,1.68,56.76,56.76,0,0,0,5.6,1.72.5.5,0,0,0,.27-1,50.15,50.15,0,0,1-5.6-1.72,1.29,1.29,0,0,1-.5-2.14A3.53,3.53,0,0,1,248.28,246.58Z"/><path class="cls-9" d="M311.19,257a327.08,327.08,0,0,1-67.72-5.44c-.63-.12-.9.84-.27,1a328.4,328.4,0,0,0,68,5.47C311.83,258,311.84,257,311.19,257Z"/><path class="cls-9" d="M297.3,252.78a.5.5,0,0,0,0-1q-19.47-.38-38.85-2.46c-.64-.07-.64.93,0,1Q277.81,252.4,297.3,252.78Z"/><path class="cls-9" d="M251.71,140.54c.24-1.15,1-2.8.1-3.8s-3-.64-4.11-.4c-5.52,1.17-11,3.42-16.39,5.11-.61.19-.36,1.16.26,1l10.15-3.2c1.5-.47,3-1,4.49-1.42a60.3,60.3,0,0,0,3.24,5.21c.36.52,1.24,0,.87-.5-1.13-1.62-2.17-3.3-3.13-5a4.79,4.79,0,0,1,2.28-.38c1.53.66,1.54,1.85,1.27,3.16C250.62,140.9,251.58,141.17,251.71,140.54Z"/><path class="cls-9" d="M230.92,139a225.35,225.35,0,0,0-14.61-37.54c-.29-.58-1.15-.08-.87.5A223.88,223.88,0,0,1,230,139.29.5.5,0,0,0,230.92,139Z"/><path class="cls-9" d="M217.13,100.84c4-1.7,8.32-1.5,12.59-1.69,2.24-.1,4.52-.5,6.75-.12a22.4,22.4,0,0,1,6.08,2.35c.57.29,1.09-.57.51-.86a25.3,25.3,0,0,0-5.91-2.36c-2.46-.52-4.94-.12-7.42,0-4.47.2-8.89,0-13.09,1.82C216,100.23,216.54,101.09,217.13,100.84Z"/><path class="cls-9" d="M252.31,134.75q-5.13-15.16-9.64-30.51a.5.5,0,0,0-1,.26q4.51,15.35,9.64,30.51C251.55,135.62,252.51,135.36,252.31,134.75Z"/><path class="cls-9" d="M201.31,53.24a136.38,136.38,0,0,0,15.5.79c-.33.34-.07,1,.45.84.76-.29,1.52-.59,2.27-.89.58,0,1.17,0,1.75,0a.52.52,0,0,0,.37-.85A104,104,0,0,0,258.5,26.61c.43-.48-.27-1.19-.7-.71A103.09,103.09,0,0,1,219.36,53a136.29,136.29,0,0,1-15.3-.49A57.65,57.65,0,0,0,234.5,27.87c8.54-.91,17.26-.28,25.52-3,.61-.2.35-1.17-.26-1-8.1,2.68-16.67,2.12-25.06,3a.49.49,0,0,0-.78.07h0c-1.4.16-2.79.35-4.17.61-.63.12-.37,1.09.26,1,1.07-.2,2.16-.36,3.24-.5a56.6,56.6,0,0,1-31,24,.48.48,0,0,0-.29.24l-.63-.06C200.68,52.17,200.68,53.17,201.31,53.24Z"/><path class="cls-9" d="M328.41,61.87l15.9-8.7c.56-.31.07-1.18-.5-.87L327.91,61C327.35,61.32,327.85,62.18,328.41,61.87Z"/><path class="cls-9" d="M343.27,55a142.4,142.4,0,0,0,40.27,7.69A60.58,60.58,0,0,1,362.25,75a106.77,106.77,0,0,1-32.5-11.76c-.56-.31-1.07.55-.51.86A107.61,107.61,0,0,0,361.6,75.88a.42.42,0,0,0,.53.21l.19-.07.36.07a.53.53,0,0,0,.61-.42,61.82,61.82,0,0,0,21.58-12.83.45.45,0,0,0,.06-.08h0a.5.5,0,0,0,0-1,141.49,141.49,0,0,1-41.44-7.72C342.93,53.84,342.66,54.8,343.27,55Z"/><path class="cls-9" d="M333.37,221.32a222.66,222.66,0,0,0-.35-37.83c-.06-.63-1.06-.65-1,0a222.66,222.66,0,0,1,.35,37.83C332.32,222,333.32,222,333.37,221.32Z"/><path class="cls-9" d="M329.84,217.37q.7-16.94.14-33.9c0-.64-1-.65-1,0q.57,16.95-.14,33.9C328.82,218,329.82,218,329.84,217.37Z"/><path class="cls-9" d="M337.65,206.65q-.56-11.56-.89-23.13c0-.64-1-.65-1,0q.33,11.57.89,23.13C336.68,207.28,337.68,207.29,337.65,206.65Z"/><path class="cls-9" d="M340.19,211.4l.35-28.12a.5.5,0,0,0-1,0l-.35,28.12A.5.5,0,0,0,340.19,211.4Z"/><path class="cls-9" d="M337.08,228.46q.23-9.07,0-18.14c0-.64-1-.65-1,0q.24,9.07,0,18.14A.5.5,0,0,0,337.08,228.46Z"/><path class="cls-9" d="M343.57,222.46q0-19.58,0-39.16a.5.5,0,0,0-1,0q0,19.58,0,39.16A.5.5,0,0,0,343.57,222.46Z"/><path class="cls-9" d="M346,183.06q-.4,20.89.07,41.78c0,.64,1,.65,1,0q-.47-20.89-.07-41.78A.5.5,0,0,0,346,183.06Z"/><path class="cls-9" d="M353.14,212.53q.66-14.7.52-29.43a.5.5,0,0,0-1,0q.14,14.72-.52,29.43C352.11,213.17,353.11,213.17,353.14,212.53Z"/><path class="cls-9" d="M335.6,240.32a7.32,7.32,0,0,1-3.42,1.86c-1.38.18-1.89-.48-2.81-1.09-.76-.5-1.09-1.12-2.11-1-2.5.3-2.54,3.73-3.59,5.34-.35.54.51,1,.86.51.73-1.12.73-2.9,1.57-3.85,2-2.29,2.77.6,4.18,1.11,1.65.61,3.65-.41,5.12-1.47-.15,2.06-.48,5.33,1.46,5.88,1.2.34,2.56-.36,3.71-.59,3.55-.72,3.07,2.11,4.59,4,1,1.24,1.77.54,2.57-.4a2.78,2.78,0,0,1,1.46-2.08,5.67,5.67,0,0,1,1.41-.09c.92,0,1.84.12,2.77.07s1.16-.15,2-.22c1.32-.13,1.73.19,2.24,1l-.24,0c-.62-.19-.88.77-.27,1a4.17,4.17,0,0,0,1.36.2.51.51,0,0,0,.26,0,9.12,9.12,0,0,0,2-.46,8.17,8.17,0,0,1,6.65.45c.57.3,1.08-.56.51-.86a8.89,8.89,0,0,0-4.62-1.13c-1.47.07-3,.86-4.45,1l-1.38-2.23a.51.51,0,0,0-.56-.23,18.23,18.23,0,0,1-5.61.57,6,6,0,0,0-2.85.28,1.91,1.91,0,0,0-.62.45,16.34,16.34,0,0,1-.41-6.43c1.46.83,3.42,2.19,4.86,2.13s1.83-2.08,2.18-3.35a11.17,11.17,0,0,0,1.86.82,5.23,5.23,0,0,0,2.33-.36,28.61,28.61,0,0,0,6.59-2.95.5.5,0,0,0-.5-.87,28.78,28.78,0,0,1-5.5,2.58c-1.87.63-3.19,0-5-.33a.52.52,0,0,0-.62.35,10,10,0,0,1-.66,1.84l-.33.92a2.87,2.87,0,0,1-2-.33,36.07,36.07,0,0,1-3.38-1.65.51.51,0,0,0-.74.29,17.55,17.55,0,0,0,.56,8.43c-.11.59-.15,1.26-1.36.63-.28-.15-.5-1.24-.67-1.6-.78-1.72-1.89-2.6-3.84-2.41-1,.1-2.84,1.13-3.76.79-1.58-.6-1-4.72-1-6A.51.51,0,0,0,335.6,240.32Z"/><path class="cls-9" d="M384.68,254.38l.83-5a.45.45,0,0,0-.1-.66.53.53,0,0,0-.64-.13l-3.5-.51c-.72-.1-2.17-.62-2.9-.29-.51.23-.51.78-.59,1.28-.2,1.32-.38,2.65-.57,4-.09.63.87.91,1,.27l.37-2.55a5.55,5.55,0,0,1,.2-1.42c.28-.59,0-.59.84-.5,1.63.19,3.26.46,4.89.71l-.76,4.58C383.61,254.74,384.57,255,384.68,254.38Z"/><path class="cls-9" d="M355.85,252.54c1.62-.24,3.45-.92,4.58.62.73,1,1.2,2,2.55,2.16.64.06.64-.94,0-1-1.41-.14-1.82-2.48-3.12-3a4.34,4.34,0,0,0-2.33,0l-3.9.57a.5.5,0,0,0-.37.48q0,1.39,0,2.78a.5.5,0,0,0,1,0c0-.37-.25-1.75,0-2.08C354.63,252.53,355.29,252.62,355.85,252.54Z"/><path class="cls-9" d="M327.05,232.13c-.95,1.11-2,1.14-3.31,1.16a.51.51,0,0,0-.49.63,14.43,14.43,0,0,1,.43,4.71c0,.64,1,.65,1,0a15.13,15.13,0,0,0-.33-4.36,4.43,4.43,0,0,0,3.2-1.16c1.1-1.17,1.36-2.39,3.33-1.92,1.79.42,2,1.91,2.54,3.44.22.6,1.19.35,1-.26v0a3.7,3.7,0,0,0,2.55.68c2.07,0,4.06,0,5.91,1.07a.5.5,0,0,0,.51-.86,8.76,8.76,0,0,0-3.49-1.13c-1.42-.16-4,.45-5-.75a.44.44,0,0,0-.71,0,5.55,5.55,0,0,0-1-2.37,5.43,5.43,0,0,0-3.07-1,2.7,2.7,0,0,0-2.13.89C327.52,231.29,327.36,231.77,327.05,232.13Z"/><path class="cls-9" d="M322.21,249.23a13.16,13.16,0,0,1-1.08.8c-.23.23-.46.31-.61.69-.7,1.73.77,5.33,1.3,6.93.2.61,1.17.35,1-.26a28.6,28.6,0,0,1-.95-3.49,23.85,23.85,0,0,1-.36-2.55A.58.58,0,0,1,322,251c.13-.19.53-.21.7-.43.58-.72.2-1.7,1.73-1.57.64.05,1.41,1.06,2.21,1.19a6.37,6.37,0,0,0,2-.15,53.21,53.21,0,0,0,6.68-1.64.5.5,0,0,0-.26-1c-1.38.4-2.76.77-4.16,1.1a16.32,16.32,0,0,1-2.1.46,2.58,2.58,0,0,1-1.81-.14,2.3,2.3,0,0,1-2-.71c-1-.35-1.52-.46-2.33.28C322.33,248.65,322.47,248.91,322.21,249.23Z"/><path class="cls-9" d="M336.85,260.32c-1.13-1.24-2.64-3.72-4.18-4.41-1.27-.57-3.08-.2-4.42-.18-3.41,0-4.64,2.16-6.39,4.87-.35.54.51,1,.86.51a17,17,0,0,1,2.36-3.26c1.36-1.26,2.8-1.11,4.55-1.12a4.42,4.42,0,0,1,3.62,1.13,34.58,34.58,0,0,1,2.63,2.87l-.6-.11c-2.33-.33-4.68-.58-7-.87-.64-.08-.64.92,0,1a70.86,70.86,0,0,1,9.35,1.32,13.62,13.62,0,0,0,2.84.81c.81,0,4.14-1.51,4.24,0,0,.64,1,.65,1,0-.19-2.85-3.28-1.33-4.93-1.24a13.08,13.08,0,0,1-3.89-.7A.48.48,0,0,0,336.85,260.32Z"/><path class="cls-9" d="M356.48,261.17c.11-.76,4.21.6,4.79.68a23.39,23.39,0,0,0,6,.05,14.68,14.68,0,0,0,7-3l.37.82c.26.59,1.13.08.87-.5l-.61-1.35a.51.51,0,0,0-.78-.11,15.4,15.4,0,0,1-14.61,2.62c-1.47-.55-3.66-1.57-4,.8C355.39,261.8,356.4,261.8,356.48,261.17Z"/><path class="cls-9" d="M386.1,224.05a193,193,0,0,0-.71-41.75c-.08-.63-1.08-.64-1,0A193,193,0,0,1,385.1,224C385,224.69,386,224.69,386.1,224.05Z"/><path class="cls-9" d="M327.85,161.92a.5.5,0,0,0,1,0,95,95,0,0,0-.23-10.25c0-.64-1-.65-1,0A95,95,0,0,1,327.85,161.92Z"/><path class="cls-9" d="M385.93,159.9l2.63-.25c.63-.06.65-1.06,0-1l-2.63.25C385.3,159,385.28,160,385.93,159.9Z"/><path class="cls-9" d="M379.62,159.07h2.1a.5.5,0,0,0,0-1h-2.1A.5.5,0,0,0,379.62,159.07Z"/><path class="cls-9" d="M373.58,159.29h.53a.5.5,0,0,0,0-1h-.53A.5.5,0,0,0,373.58,159.29Z"/><path class="cls-9" d="M367.53,159.25h.26a.5.5,0,0,0,0-1h-.26A.5.5,0,0,0,367.53,159.25Z"/><path class="cls-9" d="M460.68,257.77c2.85,0,7.35,1,9.6-1.29.45-.46-.25-1.17-.7-.71-1.6,1.64-4.85,1-6.93,1l-6.38-.08L444,256.57l-25-.3a.5.5,0,0,0,0,1l28,.33Z"/><path class="cls-9" d="M437.58,260.41q-7-.05-13.94.57c-.64.06-.65,1.06,0,1q7-.62,13.94-.57A.5.5,0,0,0,437.58,260.41Z"/><path class="cls-9" d="M475.12,257.66a120.18,120.18,0,0,1-29,8.9c-.63.11-.37,1.08.26,1a121.17,121.17,0,0,0,29.27-9C476.2,258.26,475.7,257.39,475.12,257.66Z"/><path class="cls-9" d="M504.17,228.8a7.75,7.75,0,0,0-1.31-1.61c-3.33-2.4-11.29,1.36-10.7-5.06.36-3.95-3.38-3.63-5.83-1.92a23.63,23.63,0,0,1-2.71,1.91,6.7,6.7,0,0,1-4.39.3.48.48,0,0,0,.1-.2,36.3,36.3,0,0,0,.76-4.55c.11-1.08.51-2.88,0-3.9s-1.58-.77-2.42-.84c-1.76-.16-3.53-.24-5.29-.29-.15-5-.45-10.07-.93-15.1-.06-.63-1.06-.65-1,0a230.71,230.71,0,0,1-1.39,55.54c-.09.63.87.91,1,.27a232.17,232.17,0,0,0,2.38-39.71c1.64,0,6.34-.32,6.8,1.15A9.6,9.6,0,0,1,479,218a34.39,34.39,0,0,1-.69,4,.48.48,0,0,0,0,.33c-1.8-.32-3.38-.54-5.06.36-.57.3-.07,1.17.5.87,2.48-1.33,5.17.29,7.77.17,1.88-.09,3.22-1.12,4.68-2.2a13.92,13.92,0,0,1,1.34-.93c1.21-.69,1.18-.66,2.43.33,1.49,1.18,1,.88,1,2.3a4.18,4.18,0,0,0,.1,1.08,3.7,3.7,0,0,0,2.3,2.42,11.94,11.94,0,0,0,4.94.55c1.44,0,3.23,0,4.31,1.13.68.69.81,1.75,1.5,2.43,1.33,1.31,3.79.84,5.47.85l9.57.07a.5.5,0,0,0,0-1l-9.57-.07C507.4,230.61,505.74,230.63,504.17,228.8Z"/><path class="cls-9" d="M456.73,165.58a7.89,7.89,0,0,0,7.69,3.8c4-.38,6.92-3.46,8.61-6.84.29-.57-.57-1.09-.86-.51-1.39,2.77-3.6,5.35-6.72,6.16a7,7,0,0,1-7.86-3.11A.5.5,0,0,0,456.73,165.58Z"/><path class="cls-9" d="M504.59,180.88a.5.5,0,0,0,0-1,29.31,29.31,0,0,1-27-17.95c-.24-.59-1.21-.34-1,.26A30.34,30.34,0,0,0,504.59,180.88Z"/><path class="cls-9" d="M494.55,189.37a20.33,20.33,0,0,1-12.35-3,.5.5,0,0,0-.51.86A20.79,20.79,0,0,0,497,190c3.6-.85,10-3.81,9.73-8.27,0-.64-1-.65-1,0C506,186.35,498.16,189,494.55,189.37Z"/><path class="cls-9" d="M479.54,186.79c.56.32,1.07-.54.51-.86a84.89,84.89,0,0,1-22.57-18.57c-.42-.49-1.13.22-.71.7A85.66,85.66,0,0,0,479.54,186.79Z"/><path class="cls-9" d="M326.22,110.81l5.61.46c.64.05.64-.95,0-1l-5.25-.43c-.37-1.11-.72-2.64.6-3.17a11.84,11.84,0,0,1,4.42-.46.5.5,0,0,0,0-1,19.76,19.76,0,0,0-3.4.22,3.92,3.92,0,0,0-2.32.89c-1.06,1.1-.62,2.86-.17,4.12A.53.53,0,0,0,326.22,110.81Z"/><path class="cls-9" d="M231.63,103.72a12.52,12.52,0,0,1,7.12.73c.6.24.86-.72.27-1a13.48,13.48,0,0,0-7.65-.74C230.74,102.87,231,103.84,231.63,103.72Z"/><path class="cls-9" d="M237.92,106.89c.6.23.87-.73.27-1a8.51,8.51,0,0,0-5.26-.27.5.5,0,0,0,.26,1A7.57,7.57,0,0,1,237.92,106.89Z"/><path class="cls-9" d="M235.9,110.5a2.42,2.42,0,0,1,2-.16c.61.2.88-.76.27-1a3.43,3.43,0,0,0-2.76.26C234.83,109.94,235.33,110.81,235.9,110.5Z"/><path class="cls-9" d="M244.57,31.33A48.07,48.07,0,0,1,236,30.5c-.63-.12-.9.84-.27,1a49.58,49.58,0,0,0,8.8.86A.5.5,0,0,0,244.57,31.33Z"/><path class="cls-9" d="M241,34.39c.63-.13.37-1.1-.26-1a10.32,10.32,0,0,1-4.46,0c-.63-.14-.9.82-.27,1A11.57,11.57,0,0,0,241,34.39Z"/><path class="cls-9" d="M235.61,35.21h-1.84a.5.5,0,0,0,0,1h1.84A.5.5,0,0,0,235.61,35.21Z"/><path class="cls-9" d="M219.64,47a.5.5,0,0,0-.27,1l1,.27a.5.5,0,0,0,.27-1Z"/><path class="cls-9" d="M223.86,44.59c-.63-.12-.9.84-.27,1l2.89.55c.63.12.9-.84.27-1Z"/><path class="cls-9" d="M230,43.59,226.1,43c-.64-.09-.64.91,0,1l3.94.55C230.66,44.67,230.66,43.67,230,43.59Z"/><path class="cls-9" d="M234.38,42.49c.63-.12.37-1.09-.26-1a13.69,13.69,0,0,1-5.25,0c-.63-.12-.9.84-.27,1A15.05,15.05,0,0,0,234.38,42.49Z"/><path class="cls-9" d="M359.57,71.19a102.14,102.14,0,0,0,15.92-7.09.5.5,0,0,0-.5-.87,100.59,100.59,0,0,1-15.68,7C358.71,70.43,359,71.4,359.57,71.19Z"/><path class="cls-9" d="M366.17,63.92a53.22,53.22,0,0,0-7.24,3.42.5.5,0,0,0,.5.87,51.49,51.49,0,0,1,7-3.32C367,64.65,366.77,63.68,366.17,63.92Z"/><path class="cls-9" d="M360.37,64.11l-5.53,1.81c-.61.2-.35,1.17.26,1l5.53-1.81C361.24,64.87,361,63.91,360.37,64.11Z"/><path class="cls-9" d="M355.66,63.85l-2.9,1c-.6.21-.35,1.18.26,1l2.9-1C356.52,64.6,356.26,63.63,355.66,63.85Z"/><path class="cls-9" d="M352.37,63.55a.5.5,0,0,0,0,1A.5.5,0,0,0,352.37,63.55Z"/><path class="cls-9" d="M473.37,165a14.46,14.46,0,0,1-6.59,5.68c-.59.26-.09,1.12.5.87a15.36,15.36,0,0,0,6.95-6C474.57,165,473.71,164.49,473.37,165Z"/><path class="cls-9" d="M470.76,170.55c-.54.35,0,1.22.5.87a12.67,12.67,0,0,0,4.13-4.37.5.5,0,0,0-.86-.51A11.59,11.59,0,0,1,470.76,170.55Z"/><path class="cls-9" d="M476.76,168.35l-5.05,4.14c-.5.41.21,1.12.7.71l5.05-4.14C478,168.65,477.25,167.94,476.76,168.35Z"/><path class="cls-9" d="M476.17,171.44l-2.38,1.82c-.51.39.2,1.1.7.71l2.38-1.82C477.38,171.76,476.67,171.05,476.17,171.44Z"/><path class="cls-9" d="M485.9,184.73c-.64,0-.65,1,0,1A24.49,24.49,0,0,0,498.56,183c.57-.3.07-1.16-.5-.87A23.42,23.42,0,0,1,485.9,184.73Z"/><path class="cls-9" d="M492,180.94a23.82,23.82,0,0,1-7,2c-.64.08-.37,1,.26,1a24.66,24.66,0,0,0,7.23-2.11C493.07,181.54,492.56,180.67,492,180.94Z"/><path class="cls-9" d="M315.35,76.75q-28.78.89-57.57.23a.5.5,0,0,0,0,1q28.79.65,57.57-.23C316,77.73,316,76.73,315.35,76.75Z"/><path class="cls-9" d="M314.89,108c.64,0,.65-1,0-1l-48.55,1.17c-.64,0-.65,1,0,1Z"/><path class="cls-9" d="M284.94,170.89c.64,0,.65-1,0-1l-21.73.65c-.64,0-.65,1,0,1Z"/><path class="cls-9" d="M316.66,194.84c-8.86,1.37-17.92.52-26.84.32q-13.15-.29-26.29-.06a.5.5,0,0,0,0,1q13.64-.24,27.29.08c8.7.2,17.47.95,26.11-.38C317.55,195.71,317.29,194.74,316.66,194.84Z"/><path class="cls-9" d="M295.41,204.11q-6.91,0-13.82-.23a.5.5,0,0,0,0,1q6.91.21,13.82.23A.5.5,0,0,0,295.41,204.11Z"/><path class="cls-9" d="M262.2,239.22a156.07,156.07,0,0,1,21.47.93c.64.07.64-.93,0-1a156.07,156.07,0,0,0-21.47-.93C261.57,238.24,261.56,239.24,262.2,239.22Z"/><path class="cls-9" d="M245.45,204.8a.5.5,0,0,0,.27-1c-3.32-.94-6.42.12-9.52,1.38a37.09,37.09,0,0,1-5.38,1.94c-1.42.33-3.85-.2-5.07.62-1,.68-.8,2.08-.85,3.16l-.3,7.77-.62,16c0,.64,1,.65,1,0l.48-12.62.26-6.8.11-2.91c.05-1.43-.28-2.55.89-3.41s3-.53,4.34-.87a31,31,0,0,0,4.38-1.53C238.67,205.28,241.94,203.8,245.45,204.8Z"/><path class="cls-9" d="M268.72,261.22a25.17,25.17,0,0,1-7.48-1.35c-.61-.21-.88.76-.27,1a26.07,26.07,0,0,0,7.74,1.39A.5.5,0,0,0,268.72,261.22Z"/><path class="cls-9" d="M261.55,263.8l-2.32-.34c-.63-.09-.91.87-.27,1l2.32.34C261.91,264.86,262.18,263.9,261.55,263.8Z"/><path class="cls-9" d="M377.24,283.45l-21.53-.14a.5.5,0,0,0,0,1l21.53.14A.5.5,0,0,0,377.24,283.45Z"/><path class="cls-9" d="M392,130.94q7.76-.12,15.52.15a.5.5,0,0,0,0-1q-7.76-.27-15.52-.15A.5.5,0,0,0,392,130.94Z"/><path class="cls-9" d="M384.88,134.13a37.79,37.79,0,0,1,9.16-.35c.64.05.64-.95,0-1a38.89,38.89,0,0,0-9.43.39C384,133.26,384.25,134.23,384.88,134.13Z"/><path class="cls-9" d="M402,152.26c3.86.12,7.84.55,11.69.12a128.71,128.71,0,0,1,13.24-.94.5.5,0,0,0,0-1,109.57,109.57,0,0,0-12.66.86c-4,.51-8.2.08-12.27,0A.5.5,0,0,0,402,152.26Z"/><path class="cls-9" d="M400.85,179.46c0-1.49,0-3,.07-4.47l16.19-.15a.5.5,0,0,0,0-1L401,174q0-1.16.12-2.32l17.9-.13a.5.5,0,0,0,0-1l-17.84.12c.11-1.59.25-3.17.43-4.75s.46-3.44.69-5.16c4-.91,8.67-.62,12.78-.71s8.16,0,12.24,0a.5.5,0,0,0,0-1c-4.41,0-8.82-.09-13.23,0-3.78.1-7.94-.12-11.67.65a39.67,39.67,0,0,0,.35-6.79c0-.64-1-.65-1,0,.21,4.38-.67,8.66-1.18,13a110.3,110.3,0,0,0-.72,13.54A.5.5,0,0,0,400.85,179.46Z"/><path class="cls-9" d="M402.12,213.5a16.6,16.6,0,0,1,3.58.1c.64.09.64-.91,0-1a16.57,16.57,0,0,0-3.58-.1C401.49,212.55,401.48,213.55,402.12,213.5Z"/><path class="cls-9" d="M402,221.57q6.67-.24,13.33,0a.5.5,0,0,0,0-1q-6.67-.24-13.33,0C401.32,220.59,401.31,221.59,402,221.57Z"/><path class="cls-9" d="M415.47,227a66.82,66.82,0,0,0-15,.15c-.63.08-.64,1.08,0,1a66.82,66.82,0,0,1,15-.15C416.1,228,416.11,227,415.47,227Z"/><path class="cls-9" d="M459.9,212.47a227.35,227.35,0,0,1-29.05,1.12.5.5,0,0,0,0,1,227.35,227.35,0,0,0,29.05-1.12C460.52,213.41,460.54,212.41,459.9,212.47Z"/><path class="cls-9" d="M461.05,211.79a.5.5,0,0,0,.26,1,2.48,2.48,0,0,0-.17-4.82c-.63-.12-.9.84-.27,1A1.47,1.47,0,0,1,461.05,211.79Z"/><path class="cls-9" d="M429.88,212.17a2.3,2.3,0,0,1-.91-.22c-.21-.1-.7-.37-.72-.65-.06-.63,1.26-.83,1.65-.83a.46.46,0,0,0,.31-.12,181.21,181.21,0,0,0,29.17-1c.63-.07.65-1.07,0-1a181.24,181.24,0,0,1-30,1,.43.43,0,0,0-.45.3c-.84.23-1.67.76-1.67,1.65,0,1.24,1.63,1.86,2.64,1.91C430.51,213.2,430.52,212.2,429.88,212.17Z"/><path class="cls-9" d="M410.16,244.05c.64,0,.65-1,0-1l-1.63.1c-.64,0-.65,1,0,1Z"/><path class="cls-9" d="M412.33,244.91l-2,.1c-.64,0-.65,1,0,1l2-.1C413,245.88,413,244.88,412.33,244.91Z"/><path class="cls-9" d="M453.25,221.51a16.68,16.68,0,0,1,2.94-.35h1.56a.5.5,0,0,0,0-1c-.52,0-1,0-1.57,0l-3.06,0a.49.49,0,0,0-.46.67A.52.52,0,0,0,453.25,221.51Z"/><path class="cls-9" d="M457.8,223.69l-1.82,0a.51.51,0,0,0-.36.85,2,2,0,0,1,.41,2.17c-.24.6.73.86,1,.27a2.9,2.9,0,0,0-.09-2.31l.89,0A.5.5,0,0,0,457.8,223.69Z"/><path class="cls-9" d="M430.4,246.41a18.3,18.3,0,0,1,5-.73.5.5,0,0,0,0-1,19.28,19.28,0,0,0-5.22.77A.5.5,0,0,0,430.4,246.41Z"/><path class="cls-9" d="M436.12,249.2a.5.5,0,0,0,0-1A.5.5,0,0,0,436.12,249.2Z"/><path class="cls-9" d="M428.86,236.27a8.73,8.73,0,0,0,.43-3.26c0-.64-1-.65-1,0a8,8,0,0,1-.39,3C427.7,236.61,428.66,236.88,428.86,236.27Z"/><path class="cls-9" d="M243.71,128.81l-1.16-3.14c-.22-.6-1.19-.35-1,.26l1.16,3.14C243,129.67,243.93,129.42,243.71,128.81Z"/><path class="cls-9" d="M238.14,130.58a.5.5,0,0,0,0-1A.5.5,0,0,0,238.14,130.58Z"/><path class="cls-9" d="M390.07,32a28.91,28.91,0,0,1,6.68-6c.54-.35,0-1.22-.5-.87a29.74,29.74,0,0,0-6.88,6.2C389,31.77,389.66,32.48,390.07,32Z"/><path class="cls-9" d="M371.93,25.83,373.1,18c.09-.63-.87-.91-1-.27L371,25.56C370.87,26.19,371.84,26.46,371.93,25.83Z"/><path class="cls-9" d="M190,151.38a71.43,71.43,0,0,1,15.13-1.06.5.5,0,0,0,0-1,72.79,72.79,0,0,0-15.4,1.09C189.13,150.53,189.39,151.49,190,151.38Z"/><path class="cls-9" d="M199.48,139.68a17,17,0,0,1,5.35-.31c.64.06.64-.94,0-1a17.87,17.87,0,0,0-5.62.34C198.59,138.86,198.85,139.82,199.48,139.68Z"/><path class="cls-9" d="M455,135.66A43.06,43.06,0,0,0,466.3,152c.48.43,1.19-.27.71-.7-5.83-5.22-9.59-11.6-12.22-18.91-2.17-6-4.07-12.2-8.42-17.06-.43-.48-1.14.22-.71.7C450.63,121.6,452.27,128.92,455,135.66Z"/><path class="cls-9" d="M447,138.22c-.26-.59-1.12-.09-.87.5A84,84,0,0,0,456.36,156c.39.51,1.1-.2.71-.7A83,83,0,0,1,447,138.22Z"/><path class="cls-9" d="M230.14,58a46.71,46.71,0,0,1-17.92,6.47c-.63.09-.37,1.06.26,1a47.36,47.36,0,0,0,18.16-6.57C231.18,58.54,230.69,57.67,230.14,58Z"/><path class="cls-9" d="M225.38,65.93A11.72,11.72,0,0,0,229,64.34c.54-.35,0-1.22-.5-.87A10.86,10.86,0,0,1,225.12,65,.5.5,0,0,0,225.38,65.93Z"/><path class="cls-9" d="M367.83,173.82a6,6,0,0,0-1.89.14c-.63.15-.37,1.11.26,1a5.08,5.08,0,0,1,1.62-.11C368.47,174.88,368.47,173.88,367.83,173.82Z"/><path class="cls-9" d="M373.54,173.42h-1.17a.5.5,0,0,0,0,1h1.17A.5.5,0,0,0,373.54,173.42Z"/><path class="cls-9" d="M382.6,173.19a26,26,0,0,0-4,.07c-.63.06-.65,1.06,0,1a26,26,0,0,1,4-.07C383.24,174.23,383.24,173.23,382.6,173.19Z"/><path class="cls-9" d="M387.87,172.62l-1.31.15c-.63.07-.65,1.08,0,1l1.31-.15C388.49,173.54,388.51,172.54,387.87,172.62Z"/><path class="cls-9" d="M389.83,164.19a.51.51,0,0,0-.7-.07q-11.64.67-23.29,1.05a.47.47,0,0,0-.38.19.5.5,0,0,0-.41.46,13.51,13.51,0,0,0,.11,3.06c.06.41.48.44.75.25a.42.42,0,0,0,.47.48c7.66-.68,15.38,1.09,23-.69.63-.15.37-1.11-.26-1a30.31,30.31,0,0,1-5.07.71l0-3.28c1.68-.09,3.35-.16,5-.26a8.84,8.84,0,0,1,.2,1.44c0,.64,1,.65,1,0a10.28,10.28,0,0,0-.27-1.87A.49.49,0,0,0,389.83,164.19ZM383,168.72c-5.52.21-11.08-.6-16.61-.11a.49.49,0,0,0-.26.11.51.51,0,0,0,0-.09,12.19,12.19,0,0,1-.09-2.46c5.66-.19,11.32-.44,17-.73Z"/><path class="cls-9" d="M348.06,156.15h-1.9a.5.5,0,0,0,0,1h1.9A.5.5,0,0,0,348.06,156.15Z"/><path class="cls-9" d="M348.37,176.48a4.66,4.66,0,0,0-1.75.11.5.5,0,0,0,.26,1,3.89,3.89,0,0,1,1.48-.08C349,177.57,349,176.57,348.37,176.48Z"/><path class="cls-9" d="M319.87,160.42l.06,15.64a.5.5,0,0,0,1,0l-.06-15.64A.5.5,0,0,0,319.87,160.42Z"/><path class="cls-9" d="M238.76,215.82l-4.69.52c-.63.07-.65,1.07,0,1l4.69-.52C239.38,216.75,239.4,215.75,238.76,215.82Z"/><path class="cls-9" d="M235.68,219.63a.5.5,0,0,0,.26,1,3.41,3.41,0,0,1,1.33-.11c.64.07.64-.93,0-1A4.21,4.21,0,0,0,235.68,219.63Z"/><path class="cls-9" d="M258.43,180.44a13.64,13.64,0,0,0-2.92.56c-.61.19-.36,1.16.26,1a12.39,12.39,0,0,1,2.66-.52C259.06,181.38,259.07,180.38,258.43,180.44Z"/><path class="cls-9" d="M261.05,112.3l-1.72-10.13c-.11-.63-1.07-.37-1,.26,1.23,7.21,3.53,14.93,2.43,22.24-.94,6.23-.61,11.91,2.44,17.55.31.57,1.17.07.87-.5l-.08-.15c9.64.75,19.18-1.08,28.79-1.45.64,0,.65-1,0-1-9.62.37-19.16,2.2-28.8,1.45a.41.41,0,0,0-.4.19,24.88,24.88,0,0,1-1.41-3.55l.12,0a115.16,115.16,0,0,0,13.46,0c4.48-.35,8.95-.91,13.43-1.23s9-.55,13.58-.66q3.4-.08,6.8-.09h2.91c1,0,2.78-.33,3.59.31.5.39,1.22-.31.71-.7-1.2-.94-2.83-.6-4.3-.61q-3.4,0-6.8,0-7.28.11-14.55.59c-4.82.32-9.61.86-14.42,1.28a112.58,112.58,0,0,1-14.41.09.44.44,0,0,0-.37.15,22.27,22.27,0,0,1-.79-5.34c-.08-3.33.9-6.54,1-9.86C262.29,118.22,261.55,115.21,261.05,112.3Z"/><path class="cls-9" d="M342.89,40.27c.43.48,1.13-.22.71-.7l-8.23-9.38c-.43-.48-1.13.22-.71.7Z"/><path class="cls-9" d="M352.4,17.92a.5.5,0,0,0,.87-.5A72.9,72.9,0,0,0,339,.13c-.48-.43-1.19.27-.71.7A72.06,72.06,0,0,1,352.4,17.92Z"/><path class="cls-9" d="M459.8,88.5l2.74-2.71a.5.5,0,0,0-.7-.71l-2.74,2.71A.5.5,0,0,0,459.8,88.5Z"/><path class="cls-9" d="M468.11,103.35l5.9-4.2c.52-.37,0-1.24-.5-.87l-5.9,4.2C467.09,102.85,467.59,103.72,468.11,103.35Z"/><path class="cls-9" d="M206,175.83l-7,1.9a.5.5,0,0,0,.26,1l7-1.9A.5.5,0,0,0,206,175.83Z"/><path class="cls-9" d="M277.44,6.11c.2.61,1.17.35,1-.26l-.64-1.91c-.2-.61-1.17-.35-1,.26Z"/><path class="cls-9" d="M233,287.22l-1.92,2.54c-.39.51.48,1,.86.51l1.92-2.54C234.23,287.22,233.37,286.72,233,287.22Z"/><path class="cls-9" d="M275.7,299l-1.29,2.54c-.29.57.57,1.08.86.51l1.29-2.54C276.85,299,276,298.44,275.7,299Z"/><path class="cls-9" d="M422.08,290.94c-.3-.57-1.17-.07-.87.5l4.12,7.83c.3.57,1.17.07.87-.5Z"/><path class="cls-9" d="M402.22,302.46c-.21-.6-1.18-.35-1,.26l1.32,3.81c.21.6,1.18.35,1-.26Z"/><path class="cls-9" d="M455.24,239c.51-.38,0-1.25-.5-.87A2.85,2.85,0,0,0,454,242c.35.53,1.22,0,.87-.5A1.84,1.84,0,0,1,455.24,239Z"/><path class="cls-9" d="M232,223.66a.5.5,0,0,0,0-1A.5.5,0,0,0,232,223.66Z"/><path class="cls-9" d="M202.13,235.74q-42.73,3.45-85.65,2.89a.5.5,0,0,0,0,1q42.87.56,85.65-2.89C202.76,236.69,202.77,235.69,202.13,235.74Z"/><path class="cls-9" d="M111.67,239.57l-102.1-.94-8.81-.08c-1,.16-1,.81,0,1l81.54.75,29.39.27C112.34,240.57,112.32,239.57,111.67,239.57Z"/><path class="cls-9" d="M685.67,233.68c-39.72-.17-79.43,2.1-119.14,3-14.53.33-29.06.47-43.58.25a.45.45,0,0,0-.28.09h-.05l-49.95.82a.5.5,0,0,0,0,1l49.95-.82a.47.47,0,0,0,.27-.09h.06c51.37.76,102.66-3.07,154-3.28,2.93,0,5.85,0,8.78,0C685.71,234.34,686.46,234.06,685.67,233.68Z"/><path class="cls-9" d="M613.23,162.19a44.17,44.17,0,0,0,16,5.16c4.93.5,11.05.21,15.19-2.89,7.86-5.89,2.11-17.42-4.75-21.46l13.14-8.21c.54-.34,0-1.21-.5-.87l-14.47,9c-.54.34,0,1.21.5.87l.36-.22c7.89,4.23,13,17.72,2,21.67-8.83,3.19-19.06.24-27-4C613.17,161,612.66,161.89,613.23,162.19Z"/><path class="cls-9" d="M661,150.67c.09.63,1.05.37,1-.26a25.49,25.49,0,0,0-7.49-14.79c-.46-.45-1.17.25-.71.7A24.64,24.64,0,0,1,661,150.67Z"/><path class="cls-9" d="M649.74,160.38l11-5.93c.57-.3.07-1.17-.5-.87l-11,5.93C648.68,159.82,649.17,160.68,649.74,160.38Z"/><path class="cls-9" d="M618.15,160.3l21.58-6.63a.46.46,0,0,0,0,.84,13.9,13.9,0,0,0,6.33,1.4.5.5,0,0,0,0-1,12.76,12.76,0,0,1-5.82-1.26.51.51,0,0,0-.25,0l.26-.08c.61-.19.36-1.16-.26-1l-22.07,6.78C617.28,159.52,617.53,160.49,618.15,160.3Z"/><path class="cls-9" d="M652.63,152.24c-.39.51.47,1,.86.51a5.16,5.16,0,0,1,2.69-1.79.5.5,0,0,0-.26-1A6.28,6.28,0,0,0,652.63,152.24Z"/><path class="cls-9" d="M655.43,148.86a3.6,3.6,0,0,1,2.65-.84c.64,0,.65-1,0-1a4.61,4.61,0,0,0-3.36,1.13C654.23,148.56,654.94,149.27,655.43,148.86Z"/><path class="cls-9" d="M648.88,142.91a14.12,14.12,0,0,1,4.87-2c.63-.13.37-1.1-.26-1a14.91,14.91,0,0,0-5.11,2.09C647.84,142.39,648.33,143.26,648.88,142.91Z"/><path class="cls-9" d="M670,157.73l.51-2a.5.5,0,0,0-1-.27l-.51,2A.5.5,0,0,0,670,157.73Z"/><path class="cls-9" d="M547.43,136.7a205.09,205.09,0,0,0,37.91,17.53c.61.21.88-.75.27-1a203.74,203.74,0,0,1-37.68-17.43A.5.5,0,0,0,547.43,136.7Z"/><path class="cls-9" d="M130.09,101.12a152.32,152.32,0,0,1-40-7.71c-.61-.21-.88.76-.27,1a153.33,153.33,0,0,0,41.7,7.84.5.5,0,0,0,.36-.85,73.76,73.76,0,0,1-12.69-13.86c-.37-.52-1.24,0-.87.5A74.79,74.79,0,0,0,130.09,101.12Z"/><path class="cls-9" d="M84.23,80.33A59.87,59.87,0,0,0,115,87.56c.64,0,.65-1,0-1a58.84,58.84,0,0,1-30.22-7.09C84.17,79.16,83.66,80,84.23,80.33Z"/><path class="cls-9" d="M90.31,91.52a20,20,0,0,1-5.07-8.72.5.5,0,0,0-1,.26,21.07,21.07,0,0,0,5.33,9.16A.5.5,0,0,0,90.31,91.52Z"/><path class="cls-9" d="M92.43,87.42a4.35,4.35,0,0,0,2.87,4.47c.6.22.87-.74.27-1a3.35,3.35,0,0,1-2.14-3.5C93.5,86.78,92.5,86.78,92.43,87.42Z"/><path class="cls-9" d="M99.35,92.21l-1.48-3c-.28-.58-1.15-.08-.87.5l1.48,3C98.77,93.29,99.64,92.79,99.35,92.21Z"/><path class="cls-9" d="M66.72,68.11c.49.41,1.2-.29.71-.7l-3-2.52c-.49-.41-1.2.29-.71.7Z"/><path class="cls-9" d="M60.22,83.94a4,4,0,0,1,4.08-.6c.6.23.87-.73.27-1a5.05,5.05,0,0,0-5.05.85C59,83.64,59.72,84.35,60.22,83.94Z"/><path class="cls-9" d="M135.42,91.73a88.16,88.16,0,0,0,19.64-.95c.63-.1.37-1.07-.26-1a86.92,86.92,0,0,1-19.37.92C134.79,90.69,134.78,91.69,135.42,91.73Z"/><path class="cls-9" d="M104.95,161.87a.5.5,0,0,0-1,.26A42.62,42.62,0,0,0,118.47,184c.5.4,1.21-.3.71-.7A41.7,41.7,0,0,1,104.95,161.87Z"/><path class="cls-9" d="M78,163.32a169.14,169.14,0,0,0,24-.82c.63-.07.65-1.07,0-1a169.14,169.14,0,0,1-24,.82C77.33,162.3,77.33,163.3,78,163.32Z"/><path class="cls-9" d="M119.81,187.57a77.81,77.81,0,0,1-25.38-1c-.63-.13-.9.83-.27,1a78.64,78.64,0,0,0,25.65,1C120.44,188.49,120.45,187.49,119.81,187.57Z"/><path class="cls-9" d="M80.93,168.07c-.29-.57-1.16-.07-.87.5a38.07,38.07,0,0,0,17.4,17.06c.58.28,1.09-.58.51-.86A37.17,37.17,0,0,1,80.93,168.07Z"/><path class="cls-9" d="M99.44,168.47a.5.5,0,0,0,0-1l-4,0a.5.5,0,0,0,0,1Z"/><path class="cls-9" d="M102.08,170a11.92,11.92,0,0,0-5.28-.46c-.64.08-.37,1,.26,1a10.79,10.79,0,0,1,4.74.45C102.42,171.11,102.69,170.15,102.08,170Z"/><path class="cls-9" d="M100.11,173.82a3.29,3.29,0,0,1,2.65-.29.5.5,0,0,0,.27-1,4.31,4.31,0,0,0-3.42.39A.5.5,0,0,0,100.11,173.82Z"/><path class="cls-9" d="M118.09,197.42c.43-.48-.27-1.19-.7-.71a8.37,8.37,0,0,0-2.14,4.86c-.06.64.94.64,1,0A7.22,7.22,0,0,1,118.09,197.42Z"/><path class="cls-9" d="M58.42,151.13l7,1.08c.63.1.91-.86.27-1l-7-1.08C58.07,150.07,57.79,151,58.42,151.13Z"/><path class="cls-9" d="M69.11,180.71l2-1.49c.51-.38,0-1.25-.5-.87l-2,1.49C68.1,180.22,68.59,181.09,69.11,180.71Z"/><path class="cls-3" d="M114.81,294.2a3.42,3.42,0,0,0-1.9-4.14A116,116,0,0,0,94.7,285c-4.28-.89-8.5-1.92-12.78-1.7l-.28,0a2.38,2.38,0,0,0-1.1.15,19.22,19.22,0,0,0-2.51.46c-3.58.91-2.3,6.27,1.11,5.86a2.74,2.74,0,0,0,1.75,1.17q4.14,1,8.3,1.8a138.81,138.81,0,0,0,20.9,6.88,3.21,3.21,0,0,0,3.63-2.1A3,3,0,0,0,114.81,294.2Z"/><path class="cls-3" d="M38.5,271.54A2.71,2.71,0,0,0,36.4,269a3.68,3.68,0,0,0-2.2.08l-2.69-.67a3.15,3.15,0,0,0-1.42,0l-.31-.09c-3.71-1.09-5.34,4.69-1.63,5.78l4.76,1.39a2.84,2.84,0,0,0,1.38,0,3.22,3.22,0,0,0,2.91-.38A3.4,3.4,0,0,0,38.5,271.54Z"/><path class="cls-3" d="M666.21,268.41l-.37.12a3,3,0,0,0-1.19.12,3,3,0,0,0-2.71-.75c-.92.18-1.84.33-2.76.47a2.52,2.52,0,0,0-2.18-.81l-25.14,1.85a3,3,0,0,0-2.36,1.32c-2.11,1.07-2.62,4.48,0,5.38a2.34,2.34,0,0,0,1.65,1l.8.11H632a81.6,81.6,0,0,0,13,.74,68.41,68.41,0,0,0,22.83-3.77C671.39,272.95,669.87,267.14,666.21,268.41Z"/><path class="cls-3" d="M548.27,274.82l-7.33,0c-3.86,0-3.91,6,0,6l7.33,0C552.09,280.85,552.14,274.85,548.27,274.82Z"/></g></g></svg>