<svg xmlns="http://www.w3.org/2000/svg" viewBox="0 0 656.72 353.77"><defs><style>.cls-1{fill:#efebd3;}.cls-2{fill:#081f2c;}.cls-3{fill:#f2f2f2;}.cls-4{fill:#623f2b;}</style></defs><title>pointing-mobile</title><g id="Layer_2" data-name="Layer 2"><g id="Layer_1-2" data-name="Layer 1"><path class="cls-1" d="M650.36,28.82l-60.63,2c-14.66.49-29.37.73-44,2.08C530.82,34.3,516,37.49,501,36.33a6.92,6.92,0,0,0-3.86.72c-11.27-.35-22.5.74-33.77,1-24.42.56-48.86-1.18-73.22,1.15l-58.24-3.64c-19.58-1.22-39.58-3.67-59.27-3.25-10.38-2.16-20.79-4.78-30.17-9.83-6.83-3.68-14.1-8.54-21.66-7.16a2.38,2.38,0,0,0-2.22.36,8.05,8.05,0,0,1-.68.49,16.65,16.65,0,0,0-2.48,1.25,2.75,2.75,0,0,0-1,1,14,14,0,0,0-3.89,1.26c-1.75.88-2.11,2.18-3.4,3.27-2.54,2.16-5.38,1.87-6.66,4.45-2.82,2.77-5.16,7.25-8.37,10.12-7.51.52-15,.64-22.43,2.18-5.22,1.08-10.35-1.2-15.6-.5-1.54.2-3.5.58-4.57,1.86a4.28,4.28,0,0,0-.66,1l-1.11-.13c-3.65-.48-3.61,4.74-.8,5.89l.13,0a2.83,2.83,0,0,0,2.55,1.63c6.14.23,11.87,2.23,17.86,3.35a86.27,86.27,0,0,0,13.52,1,3,3,0,0,0,2.07,3.07,2.86,2.86,0,0,0,1.51.36c1.86,0,4.74,4.25,6.06,5.37A44.39,44.39,0,0,0,196,66.52c4.27,2.61,9.36,2.8,13.58,5.5,3.8,2.43,7.28,5.12,12,5.13,5.8,0,11.77-2.08,17.59-2.61a69.73,69.73,0,0,0,15.43-2.88c5.89-1.91,11.38-1.23,17.45-1.13a172,172,0,0,0,19.63-.84,119.23,119.23,0,0,0,16.46,2.6c13.12.91,26.29,1.09,39.42,2,13,.85,25.87,2.09,38.79,3.25,5.73.51,11.43.86,17.12.85,19.08,2.71,38.25,5.42,57.52,4.19,18.54-1.18,36.85-3.69,55.35-4.7,24.48,1.08,49,.43,73.54,1.54,19.95.91,39.67,3.69,59.4,6.47C648.7,66.85,649.08,47.77,650.36,28.82Z"/><path class="cls-2" d="M220.52,63.11a7.21,7.21,0,0,1-4.6-.47c-.58-.26-1.09.6-.5.86a8.35,8.35,0,0,0,5.37.57c.63-.14.36-1.1-.27-1Z"/><path class="cls-2" d="M213.78,61.46A25,25,0,0,0,208,59.08c-2.56-.89-4.31-2.57-6.55-4-.54-.35-1,.52-.5.86,1.83,1.16,3.32,2.69,5.33,3.55,2.34,1,4.86,1.4,7,2.82.54.35,1-.51.5-.86Z"/><path class="cls-2" d="M199.9,55.35a19.78,19.78,0,0,1-5-1.92c-.53-.24-1.16-.4-1.66-.68-.66-.37-1-1.07-1.63-1.5s-1,.49-.5.86.55.83.93,1.15a11.73,11.73,0,0,0,2.61,1.15,19.28,19.28,0,0,0,5,1.9c.63.1.9-.86.27-1Z"/><path class="cls-2" d="M192.52,52.66c-3.25.08-6.51.09-9.76,0-3.06-.08-7.38.41-9.84-1.72-.49-.42-1.2.29-.71.71,2.15,1.85,4.93,1.8,7.62,1.91,4.23.18,8.46.2,12.69.1a.5.5,0,0,0,0-1Z"/><path class="cls-2" d="M174.39,51.89a37,37,0,0,1-8-.55c-2.16-.44-6-.83-6.94-3.11-.25-.59-1.11-.08-.86.5.94,2.2,3.55,2.6,5.64,3.13a38.34,38.34,0,0,0,10.15,1,.5.5,0,0,0,0-1Z"/><path class="cls-2" d="M160,49.54a25.07,25.07,0,0,1-9.45-1.23,16.93,16.93,0,0,1-4.18-1.9c-2.16-1.51-2-3.4-1.35-5.61a.5.5,0,0,0-1-.27c-.93,3.41-.33,5.68,2.86,7.31A25.69,25.69,0,0,0,160,50.54c.64,0,.64-1,0-1Z"/><path class="cls-2" d="M207.95,42.31a104,104,0,0,1,15,.46c.64.07.63-.93,0-1a104,104,0,0,0-15-.46c-.64,0-.64,1,0,1Z"/><path class="cls-2" d="M207.81,44.32a21.79,21.79,0,0,0,3.68.34.5.5,0,0,0,0-1,20.21,20.21,0,0,1-3.41-.31c-.63-.11-.9.86-.27,1Z"/><path class="cls-2" d="M211,34.59c-3.42-.74-7-1.5-10.48-.93-3.77.62-6.92,3.16-10.79,3.36-.64,0-.64,1,0,1,3.16-.16,5.7-1.76,8.62-2.77,4.08-1.41,8.27-.58,12.37.31.63.14.9-.83.27-1Z"/><path class="cls-2" d="M214.77,23.07c-4.27-1.15-9.39-2.32-13.13.84-2,1.73-2.17,4.39-3.71,6.46-1.82,2.44-4.37,4.45-6.62,6.47-.48.43.23,1.14.71.71,3-2.72,6.68-5.41,8.17-9.32,2.47-6.49,8.66-5.72,14.32-4.19a.5.5,0,0,0,.27-1Z"/><path class="cls-2" d="M221.17,17.82c-2.68-.42-6.23-1.7-8.9-.89-2.45.74-4.41,3.12-5.68,5.21a.5.5,0,0,0,.86.5c1.66-2.76,3.95-5.07,7.44-4.82,2,.14,4,.64,6,1,.63.1.9-.86.27-1Z"/><path class="cls-2" d="M234.73,18c-3.89-1.36-7.18-4.27-11.39-4.69a12.62,12.62,0,0,0-9.68,3.3c-.48.43.23,1.14.71.71a11.47,11.47,0,0,1,11.07-2.57c3.19,1,5.88,3.12,9,4.21.61.21.87-.75.27-1Z"/><path class="cls-2" d="M187.57,37c-4,0-7.92.48-11.88.53-3.17,0-6.17.08-9.12,1.34-.59.25-.08,1.11.5.86,3.36-1.43,6.95-1.11,10.51-1.26,3.34-.13,6.66-.44,10-.48a.5.5,0,0,0,0-1Z"/><path class="cls-2" d="M167,38.85a47.7,47.7,0,0,0-14.47-1.42c-2.61.16-7.13.1-8.38,3-.25.58.61,1.09.86.5,1.31-3,7.5-2.58,10.16-2.58a47.34,47.34,0,0,1,11.56,1.46.5.5,0,0,0,.27-1Z"/><path class="cls-2" d="M152.68,38.32c-.73,1.14-2,1.85-2.85,2.89-1.43,1.71-3.34,1.73-5.23.7-.57-.31-1.07.56-.5.86a5.16,5.16,0,0,0,5.29.23,13.66,13.66,0,0,0,2-2,12.16,12.16,0,0,0,2.18-2.16c.35-.54-.52-1-.86-.5Z"/><path class="cls-2" d="M172.55,38.09A13.11,13.11,0,0,0,171,44.77c0,.64,1,.64,1,0a12,12,0,0,1,1.41-6.18c.3-.57-.56-1.07-.86-.5Z"/><path class="cls-2" d="M174.06,38.57,173.44,42c-.11.63.85.9,1,.27l.61-3.39c.11-.63-.85-.9-1-.27Z"/><path class="cls-2" d="M176.88,38.34c.05,2.5-1.17,4.76-2.39,6.86a.5.5,0,0,0,.86.5c1.3-2.25,2.58-4.69,2.53-7.36a.5.5,0,0,0-1,0Z"/><path class="cls-2" d="M170.38,38a9.1,9.1,0,0,0-2.54,5.86c0,.64,1,.64,1,0a8,8,0,0,1,2.25-5.15c.45-.46-.26-1.17-.71-.71Z"/><path class="cls-2" d="M161.79,38.29a14,14,0,0,0-2.71,5.66c-.12.63.84.9,1,.27a13.31,13.31,0,0,1,2.61-5.42c.39-.51-.48-1-.86-.5Z"/><path class="cls-2" d="M158,41l-.23,1.64c-.09.63.87.9,1,.27l.23-1.64c.09-.63-.87-.9-1-.27Z"/><path class="cls-2" d="M197.48,36.09c-1.18,3.08,1.34,6.32,3.36,8.43.45.47,1.15-.24.71-.71-1.76-1.84-4.14-4.75-3.1-7.46.23-.6-.74-.86-1-.27Z"/><path class="cls-2" d="M204.78,39.15l-.35,1.64c-.13.63.83.9,1,.27l.35-1.64c.13-.63-.83-.9-1-.27Z"/><path class="cls-2" d="M195.62,40.12a9.61,9.61,0,0,0,2.29,4.64c.43.48,1.13-.23.71-.71a8.62,8.62,0,0,1-2-4.2c-.12-.63-1.08-.36-1,.27Z"/><path class="cls-2" d="M195.42,44.21l.47,1.52c.19.61,1.15.35,1-.27l-.47-1.52c-.19-.61-1.15-.35-1,.27Z"/><path class="cls-2" d="M181.58,53.27c-1,1.51-1.81,4.53-.32,6.05a7.78,7.78,0,0,0,3.17,1.34,26.26,26.26,0,0,0,4.71.94c.64.07.63-.93,0-1a23.92,23.92,0,0,1-6-1.44,2.2,2.2,0,0,1-1.63-2.4,5.08,5.08,0,0,1,.94-3c.36-.54-.51-1-.86-.5Z"/><path class="cls-2" d="M189.35,60.56c-.7-3.58-4.89-5-8-5.81a.5.5,0,0,0-.27,1c2.77.69,6.7,1.93,7.32,5.12.12.63,1.09.36,1-.27Z"/><path class="cls-2" d="M195.4,59.54a8.15,8.15,0,0,1,2,4.72,6.32,6.32,0,0,0,.44,2.88c.31.56,1.17.06.86-.5-.62-1.14-.21-2.77-.55-4a10.26,10.26,0,0,0-2-3.78c-.41-.5-1.11.21-.71.71Z"/><path class="cls-2" d="M210.44,71.32c-3.73-2.21-7.55-3.3-11.58-4.75-2.27-.82-3.17-2.54-5-3.92a15.11,15.11,0,0,0-5-2.2c-.62-.19-.88.78-.27,1A12.37,12.37,0,0,1,194.79,65a8.33,8.33,0,0,0,3.09,2.29c1.71.72,3.57,1.06,5.32,1.69a39.49,39.49,0,0,1,6.73,3.22.5.5,0,0,0,.5-.86Z"/><path class="cls-2" d="M271.64,67.22c-8.53-1.58-17,1.26-25.1,3.78-5.21,1.63-10.62,1.74-16,2.33s-13.24,4.36-17.9-.08c-.47-.44-1.17.26-.71.71,3.61,3.43,8.46,2.33,12.84,1.34,6.19-1.41,12.6-1.14,18.79-2.46,9.3-2,18-6.47,27.81-4.65.63.12.9-.85.27-1Z"/><path class="cls-2" d="M271.59,30.53c-7-1-14.07-2.11-20.76-4.53a66.16,66.16,0,0,1-9.21-4.44c-1.33-.73-3.52-2.51-5.11-2.54a.5.5,0,0,0,0,1c1,0,2.35,1.21,3.22,1.66,1.18.62,2.34,1.28,3.51,1.93a51.63,51.63,0,0,0,8.15,3.64c6.44,2.23,13.21,3.24,19.93,4.24.63.09.9-.87.27-1Z"/><path class="cls-2" d="M212.84,36.48q3.08.88,6.08,2c.6.23.86-.74.27-1q-3-1.12-6.08-2a.5.5,0,0,0-.27,1Z"/><path class="cls-2" d="M203.31,26.67a5.94,5.94,0,0,0,1.25,1.74c.46.45,1.17-.26.71-.71a5.17,5.17,0,0,1-1.09-1.54c-.27-.58-1.14-.07-.86.5Z"/><path class="cls-2" d="M201.67,28.78l.82,1.17c.37.52,1.23,0,.86-.5l-.82-1.17c-.37-.52-1.23,0-.86.5Z"/><path class="cls-2" d="M216.59,26.89l5.85,2c.61.21.87-.76.27-1l-5.85-2c-.61-.21-.87.76-.27,1Z"/><path class="cls-2" d="M223.95,21.83l7.72,3.38c.58.26,1.09-.61.5-.86L224.45,21c-.58-.26-1.09.61-.5.86Z"/><path class="cls-2" d="M650.29,29.85c-16.31.46-32.62,1-48.92,1.57-51.24,1.69-102.49,4.46-153.76,5.14-14.36.19-28.72.07-43.09.22s-28.93.53-43.38-.06-28.64-2.73-43-3.85-28.57-1.73-42.88-2a.5.5,0,0,0,0,1c12.77.27,25.54.79,38.28,1.69s25.53,2.72,38.33,3.67c25.14,1.87,50.56.61,75.75.52,51.17-.17,102.28-2.85,153.41-4.62q34.58-1.19,69.15-2.08C650.23,30.63,650.26,30.24,650.29,29.85Z"/><path class="cls-2" d="M649.21,83.69c-16.29-1.41-32.55-3.12-48.84-4.52A671.21,671.21,0,0,0,524.8,77c-25.93.69-51.87,1.74-77.82,1.69-29.29,0-58.38-2.44-87.56-4.69L271.51,67.2c-.64,0-.64,1,0,1L350,74.26c26.07,2,52.16,4.53,78.31,5.18,51.22,1.27,102.49-4,153.66-.67,22.47,1.47,44.84,4,67.27,5.93C649.22,84.36,649.22,84,649.21,83.69Z"/><path class="cls-2" d="M397.09,70.14l-7.53-1c-.64-.08-.63.92,0,1l7.53,1c.64.08.63-.92,0-1Z"/><path class="cls-2" d="M372.71,67.23l-16.61-1c-.64,0-.64,1,0,1l16.61,1c.64,0,.64-1,0-1Z"/><path class="cls-2" d="M277.45,62.85A34.71,34.71,0,0,1,274,55.47c-.2-.61-1.16-.35-1,.27a35.88,35.88,0,0,0,3.51,7.62c.34.55,1.2,0,.86-.5Z"/><path class="cls-2" d="M271.36,59.38l-1.09-4.06a.5.5,0,0,0-1,.27l1.09,4.06a.5.5,0,0,0,1-.27Z"/><path class="cls-2" d="M318.23,40.3l1.25.31a.5.5,0,0,0,.27-1l-1.25-.31a.5.5,0,0,0-.27,1Z"/><path class="cls-2" d="M147,24l-3.5-6.37c-.31-.56-1.17-.06-.86.5l3.5,6.37c.31.56,1.17.06.86-.5Z"/><path class="cls-2" d="M131.75,30.3,123,28.43c-.63-.13-.9.83-.27,1l8.73,1.87c.63.13.9-.83.27-1Z"/><path class="cls-2" d="M130.24,47.13a36,36,0,0,0-6.55,1.56c-.61.21-.35,1.17.27,1a36,36,0,0,1,6.55-1.56c.63-.09.36-1.05-.27-1Z"/><path class="cls-2" d="M141.54,61.9,137.18,66c-.47.44.24,1.15.71.71l4.36-4.06c.47-.44-.24-1.15-.71-.71Z"/><path class="cls-2" d="M204.85,81.62l3.43,2.8c.49.4,1.21-.3.71-.71l-3.43-2.8c-.49-.4-1.21.3-.71.71Z"/><path class="cls-2" d="M203.39,86.68l1.87.94c.57.29,1.08-.58.5-.86l-1.87-.94c-.57-.29-1.08.58-.5.86Z"/><path class="cls-2" d="M229.07,5.7l3.74.62c.63.1.9-.86.27-1l-3.74-.62c-.63-.1-.9.86-.27,1Z"/><path class="cls-2" d="M233,.95A7.34,7.34,0,0,1,235.3,3.3c.34.55,1.2,0,.86-.5A8.48,8.48,0,0,0,233.52.08c-.54-.35-1,.51-.5.86Z"/><path class="cls-2" d="M386.32,32.84a41.48,41.48,0,0,0,7.17,0c.64-.06.64-1.06,0-1a41.48,41.48,0,0,1-7.17,0c-.64-.06-.64.94,0,1Z"/><path class="cls-2" d="M649.28,50.59h-3.36a.5.5,0,0,0,0,1h3.34C649.27,51.26,649.27,50.93,649.28,50.59Z"/><path class="cls-3" d="M653.79,142.74q-1.57-11.91-2.6-23.95c-56.31-3.9-112.64-7.76-169-11-25.17-1.44-50.36-2.62-75.56-3.33q-12.35-1.53-24.74-2.77a5.68,5.68,0,0,0-5.43,2.17q-20.8-.24-41.61.07c-9,.14-9,14.15,0,14,23.9-.38,47.79-.14,71.67.53,28.79,3.58,57.45,8.2,86.17,12.34,36.75,5.3,73.36,8.6,110.4,10.84,17.4,1.05,34.37,3.55,51.48,6.5C654.29,146.37,654,144.56,653.79,142.74Z"/><path class="cls-4" d="M655.94,259.27c0-1,.07-2.06.09-3.08.43-18.58.61-37.16.69-55.75-26.17.68-52.27,2.63-78.28,5.62q-21.62-.58-43.26-.36c-25.65.27-51.19,1.77-76.73,3.5q-45.28-.08-90.45,3.46c-1.22-.05-2.45-.09-3.67-.16a7.2,7.2,0,0,0-3.81.76q-5.8.49-11.59,1c-10.68,1-21.38,2-32.11,2.3-12,.3-23.95-.35-35.91-.79-22.89-.84-45.8-1.15-68.71-1.16-21.08,0-42.16.22-63.23.5a137.82,137.82,0,0,1-14-2.58c-10.46-2.55-20.85-5.41-31.26-8.13-1.61-.42-4.48-1.42-7.54-2.14l-.32-.17c-3.62-2-7-3.76-11.3-3-5.16.86-9.88,3.94-15,5.29-5.55,1.49-11.14,1.54-16.78,2.31l-.14,0c-4.95.22-9.89.48-14.82.91-3.52.31-10.11-.39-12.07,3.19a3,3,0,0,0-.18.4c-2.7.81-1.53,5.15,1.43,4.77a2.29,2.29,0,0,0,1.42,1.28c4.75,1.48,9.73,1,14.63.9l12.78-.25a2.53,2.53,0,0,0,.41.19A31.49,31.49,0,0,0,70,219.13a5.37,5.37,0,0,0-.72,2.13,6.26,6.26,0,0,1-.46,1.61,12.22,12.22,0,0,1-1.14,1.78,5.2,5.2,0,0,0-1.28,2.43,9.14,9.14,0,0,0-.88,2,5,5,0,0,0-.15.74,30.92,30.92,0,0,0-7.24,1.82c-1.18.46-.72,2.4.49,1.94,1-.37,1.92-.67,2.89-.94a1,1,0,0,0,.76.41c.55,0,1.09.11,1.62.18a.88.88,0,0,0,.11.16,1.81,1.81,0,0,0,.11,1.58c.4.7.81,1.4,1.21,2.1a1,1,0,0,0-.18.82,9.79,9.79,0,0,1,.12,3,.89.89,0,0,0,.08.45l-.17,0c-1.43-.07-2.85-.12-4.28-.2s-1.33,1.93,0,2c1.92.11,3.85.18,5.77.27,3.95.51,8.33,1.38,12.24.68A2.14,2.14,0,0,0,80,245.93l1.82.82a2.84,2.84,0,0,0,.27.15l1.84.8a36.38,36.38,0,0,0,10.44,2.7c2.4.66,4.71.59,4.65-2.22a40.32,40.32,0,0,0,8.58-.22,47,47,0,0,0,7.9-.12c5.9-.66,10.65-4.49,16.42-5.73,4.33-.93,8.74-.51,13.09-.79.24,0,.48.07.73.08,19.51.83,39,1.67,58.49,3.42,19.06,1.71,37.9,5,56.9,7.11,38.5,4.34,77.21,1.39,115.79,0q4.72-.17,9.44-.3c34.18,3.29,68.39,6.23,102.71,7.55,41.18,1.58,82.4.67,123.56-1.21,2.15.15,4.31.25,6.46.33,11.31.4,22.62.58,33.93.9Z"/><path class="cls-2" d="M100.79,220.75c-3.79,3-8.45,4.24-12.91,5.91-2.31.86-4.37,1.87-6.91,1.75s-4.86-.67-7.3-.84A29.81,29.81,0,0,0,60.9,229c-2.64,1-5.68,3.1-5.26,6.29.08.64,1.05.39,1-.24-.73-5.54,9.62-6.56,13.15-6.62,4.05-.08,8,1,12,1,3.49,0,6.92-2,10.16-3.17a31.44,31.44,0,0,0,9.52-4.8c.5-.4-.19-1.12-.69-.72Z"/><path class="cls-2" d="M94,225.21a3.56,3.56,0,0,0,.53-2.36,6.27,6.27,0,0,1,.75-3.67c.32-.56-.53-1.08-.85-.52a6.55,6.55,0,0,0-.9,2.68c-.11,1.11.32,2.37-.37,3.35-.37.53.48,1,.85.52Z"/><path class="cls-2" d="M91.76,225.7c-.18-1.5-1.2-2.74-1.36-4.24-.07-.63-1.07-.66-1,0,.18,1.6,1.2,2.92,1.39,4.51.08.64,1,.39,1-.24Z"/><path class="cls-2" d="M88,226.93c-1.43-2.44-3.32-4.92-3.55-7.81-.19-2.36.26-4.7-.09-7.06-.09-.64-1.06-.39-1,.24.41,2.75-.38,5.56.24,8.28.56,2.46,2.24,4.68,3.5,6.82.33.55,1.2.07.88-.48Z"/><path class="cls-2" d="M86.79,225c-2.13-1.6-4.65-1.86-7.13-2.62a38,38,0,0,1-9.1-4.72.5.5,0,0,0-.52.85,46.86,46.86,0,0,0,7.63,4.22c2.84,1.14,6.1,1.24,8.59,3.11.51.39,1-.47.52-.85Z"/><path class="cls-2" d="M85.47,227.76a9.52,9.52,0,0,1-4.18-2.45c-.45-.46-1.18.23-.72.69a10.53,10.53,0,0,0,4.62,2.71.5.5,0,0,0,.29-1Z"/><path class="cls-2" d="M69.58,218.35c-.46,1.48-1.72,2.6-2.33,4a30.89,30.89,0,0,1-2.83,5.31c-.36.54.49,1.06.85.52a29.6,29.6,0,0,0,2.71-5c.69-1.63,2-2.94,2.56-4.61a.5.5,0,0,0-1-.29Z"/><path class="cls-2" d="M70.34,217.55a34.09,34.09,0,0,1-7.79.56c-2.25-.19-4.33-1.11-6.57-1.28-2-.16-4.07.24-6.11.25-1.73,0-3.43-.33-5.15-.4-3.19-.12-6.39.12-9.59.13a32.52,32.52,0,0,1-4.37-.18c-2.69-.35-8.13-3.76-4.06-6.66.52-.37,0-1.25-.48-.88-2.65,1.88-2,5.47.51,7.19,3.27,2.24,8.25,1.55,12,1.46,4.71-.12,9.4.51,14.08.16,3.16-.24,5.75.71,8.82,1.12a32.28,32.28,0,0,0,9-.49c.64-.09.39-1.06-.24-1Z"/><path class="cls-2" d="M57.84,217.14c-1.43-.7-1.45-2.69-1.74-4.06-.13-.63-1.1-.39-1,.24.34,1.66.45,3.83,2.18,4.67.57.28,1.1-.57.52-.85Z"/><path class="cls-2" d="M45.89,217a3.15,3.15,0,0,1-2-2.76.5.5,0,0,0-1,0,4.09,4.09,0,0,0,2.51,3.63c.57.3,1.1-.55.52-.85Z"/><path class="cls-2" d="M62,204.34c-2.84.34-5.59-.55-8.41.17-1.44.37-2.82.92-4.28,1.22a31.41,31.41,0,0,1-6.18.34c-4.77,0-9.85.1-14.45,1.48-.61.18-.38,1.16.24,1,5.16-1.55,10.83-1.45,16.17-1.43a29.46,29.46,0,0,0,8.34-1.5c3-.83,5.84.07,8.82-.28.64-.08.39-1-.24-1Z"/><path class="cls-2" d="M94.68,200c-2.48-.35-4.46-2.09-7-2.32a16.64,16.64,0,0,0-7.45,1.33c-2.47,1-4.83,2.19-7.36,3a54,54,0,0,1-8.71,1.81c-.64.1-.39,1.07.24,1A58.57,58.57,0,0,0,79,200.65c2.73-1.16,5.67-2.24,8.69-1.93,2.53.26,4.51,2,7,2.32.64.09.65-.91,0-1Z"/><path class="cls-2" d="M140.76,213.31a150.65,150.65,0,0,1-21.85-5.38,80.14,80.14,0,0,0-10.6-2.83,33.15,33.15,0,0,1-10.59-3.52c-.56-.31-1.09.54-.52.85,6.4,3.49,13.66,3.95,20.54,6.16a160.42,160.42,0,0,0,22.73,5.66c.63.11.92-.85.29-1Z"/><path class="cls-2" d="M131.74,239.67c-7.64,3.78-16.85,7.48-25.49,7.29a61.05,61.05,0,0,1-13.48-2.13c-3.87-1-7.69-2.7-11.75-2.19-.64.08-.39,1,.24,1,4.86-.6,10.1,2,14.84,3A48.18,48.18,0,0,0,109,247.9c7.93-.52,16.2-3.87,23.27-7.36.58-.29.09-1.16-.48-.88Z"/><path class="cls-2" d="M79.55,242.71c-4.45.57-8.86,0-13.29-.49-2.14-.24-4.86-.2-6.79-1.32s-2.78-3.5-2.84-5.68c0-.64-1-.67-1,0,.12,4.2,2.41,6.84,6.5,7.54,5.7,1,11.9,1.68,17.65,1,.64-.08.39-1.05-.24-1Z"/><path class="cls-2" d="M74.11,231.86q.3,2.9.39,5.82c0,.64,1,.67,1,0q-.08-2.92-.39-5.82c-.07-.63-1.07-.66-1,0Z"/><path class="cls-2" d="M72.64,230a45.5,45.5,0,0,0-.77,10.09.5.5,0,0,0,1,0,44.3,44.3,0,0,1,.73-9.82c.14-.63-.82-.92-1-.29Z"/><path class="cls-2" d="M77.25,230.43a9.77,9.77,0,0,1,.56,4c0,.64,1,.66,1,0a10.48,10.48,0,0,0-.59-4.28c-.21-.6-1.19-.36-1,.24Z"/><path class="cls-2" d="M98.84,247c-.42,3.5-3.9,2.72-6.25,2-1.46-.48-3-.73-4.44-1.1A31.57,31.57,0,0,1,79,243.37a.5.5,0,0,0-.52.85A42.85,42.85,0,0,0,85,247.87c2.48,1,5.14,1.33,7.68,2.17,3.12,1,6.67,1,7.15-3,.08-.64-.92-.66-1,0Z"/><path class="cls-2" d="M74.6,211.51a35.72,35.72,0,0,0-1.89,6.19c-.13.63.83.92,1,.29a35.72,35.72,0,0,1,1.89-6.19c.24-.6-.72-.88-1-.29Z"/><path class="cls-2" d="M71.07,217.92a12,12,0,0,0,1-5.72c0-.64-1-.67-1,0a11.38,11.38,0,0,1-1,5.46c-.26.59.7.87,1,.29Z"/><path class="cls-2" d="M58,206.35a6.61,6.61,0,0,1-1.86,1.36c-.58.29-.09,1.16.48.88a7.43,7.43,0,0,0,2.07-1.51c.45-.46-.24-1.19-.69-.72Z"/><path class="cls-2" d="M54.94,204.94a7.1,7.1,0,0,0-.15,1.7c0,.64,1,.67,1,0a6,6,0,0,1,.11-1.43c.13-.63-.83-.92-1-.29Z"/><path class="cls-2" d="M81.32,199.52A7.47,7.47,0,0,1,84,201.67c.33.55,1.21.07.88-.48a8.4,8.4,0,0,0-3-2.52c-.56-.32-1.08.53-.52.85Z"/><path class="cls-2" d="M110.15,240.55a9,9,0,0,1-5.1,4.15c-.61.19-.37,1.17.24,1a10,10,0,0,0,5.71-4.6c.32-.56-.53-1.08-.85-.52Z"/><path class="cls-2" d="M96.13,228.39l3-.8a.5.5,0,0,0-.24-1l-3,.8a.5.5,0,0,0,.24,1Z"/><path class="cls-2" d="M102.62,227.73l.41,1.61a.5.5,0,0,0,1-.24l-.41-1.61a.5.5,0,0,0-1,.24Z"/><path class="cls-2" d="M70.43,222a6.88,6.88,0,0,1,2.88,1,.5.5,0,0,0,.52-.85A8.06,8.06,0,0,0,70.45,221c-.64-.07-.66.93,0,1Z"/><path class="cls-2" d="M69.37,224.27l2.26.81c.61.22.89-.74.29-1l-2.26-.81c-.61-.22-.89.74-.29,1Z"/><path class="cls-2" d="M217.2,214.59q-37.08,1.15-74.15-.9c-.64,0-.67,1,0,1q37,2,74.15.9c.64,0,.67-1,0-1Z"/><path class="cls-2" d="M220.26,244.73c-15.09-1.79-30.12-3-45.31-3.5-7.35-.22-14.7-.43-22-.76-3.61-.16-7.22-.33-10.83-.46-3-.11-6.26-.62-9.16.37-.6.21-.37,1.18.24,1,3.16-1.08,7-.41,10.33-.28,3.6.14,7.2.31,10.8.47,7.2.32,14.41.5,21.61.73,14.86.47,29.58,1.72,44.34,3.47.64.08.66-.92,0-1Z"/><path class="cls-2" d="M656.71,203.37c-11.16.74-22,.35-33.2-.09s-22.37,1-33.53,1.9c-23.47,1.84-47.06.87-70.57.73q-70.67-.42-141.24,4.39-17.93,1.22-35.83,2.77c-11.18,1-22.16,2.93-33.42,2.77-23.27-.32-46.47-2.9-69.76-2.41q-8.64.18-17.24,1c-.63.06-.66,1.06,0,1,23-2.24,46-.34,69,.78,11,.53,22,1.19,32.94,0,12-1.35,24-2.63,36-3.56q70.16-5.44,140.59-5.74c23.33-.09,46.68.75,70,.21,11.7-.27,23.29-1.35,34.95-2.28a158.68,158.68,0,0,1,16.71-.6c5.74.15,11.44.8,17.18.83s11.6-.27,17.39-.69C656.71,204,656.71,203.7,656.71,203.37Z"/><path class="cls-2" d="M656,257.12c-23-.65-46-1.69-69.05-1.78-23.3-.09-46.57-.43-69.85-1.3-46.91-1.75-93.86-4.83-140.83-4.09-25.92.4-51.7,3-77.64,2.23-26.25-.82-52.38-3.81-78.37-7.45-.64-.09-.65.91,0,1,23.21,3.25,46.52,6,69.94,7.12,11.7.56,23.43.73,35.14.35,11.31-.36,22.59-1.35,33.89-1.79,46.92-1.81,93.89,1,140.76,3s93.92,1.74,140.88,3.29q7.56.25,15.12.4C656,257.74,656,257.43,656,257.12Z"/><path class="cls-2" d="M58.57,241.08a20.86,20.86,0,0,0,5.39-.4c1-.19,2-.16,2.37-1.28.69-2.35-.54-5.4-1.42-7.53-.25-.59-1.12-.11-.88.48.72,1.74,1.66,4.08,1.42,6-.17,1.35-1.22,1.27-2.38,1.46a18.64,18.64,0,0,1-4.47.25c-.64,0-.66,1,0,1Z"/><path class="cls-2" d="M64.48,231.62a28.16,28.16,0,0,0-5.17-.27,7.33,7.33,0,0,0-3.14,1.25c-.55.33-.07,1.21.48.88a6.64,6.64,0,0,1,3.77-1.18c1.35,0,2.69.21,4,.33.64.05.66-.95,0-1Z"/><path class="cls-2" d="M108.33,238a3.54,3.54,0,0,1-1.58,1c-.61.19-.37,1.16.24,1a4.54,4.54,0,0,0,2-1.26c.43-.47-.25-1.2-.69-.72Z"/><path class="cls-2" d="M130.52,236.75a28.7,28.7,0,0,1,6.83-1.52c.63-.06.66-1.06,0-1a29.72,29.72,0,0,0-7.09,1.55c-.6.21-.37,1.18.24,1Z"/><path class="cls-2" d="M134.56,233.15l2.37-.34c.64-.09.39-1.06-.24-1l-2.37.34c-.64.09-.39,1.06.24,1Z"/><path class="cls-2" d="M325,221.33l-36.09.4c-.64,0-.67,1,0,1l36.09-.4c.64,0,.67-1,0-1Z"/><path class="cls-2" d="M271.74,221.39l-5.52-.13a.5.5,0,0,0,0,1l5.52.13a.5.5,0,0,0,0-1Z"/><path class="cls-2" d="M28.73,212.52l-.11.45c-.15.62.8.91,1,.29l.11-.45c.15-.62-.8-.91-1-.29Z"/><path class="cls-2" d="M103.64,240.16c-3.77-.38-7.13.27-9.52-3.34-.35-.53-1.23-.05-.88.48a7.94,7.94,0,0,0,3.58,3.16c2.14.87,4.55.46,6.79.69.64.06.66-.94,0-1Z"/><path class="cls-2" d="M94,213.31l-.87,1.25c-.37.53.48,1.05.85.52l.87-1.25c.37-.53-.48-1.05-.85-.52Z"/><path class="cls-2" d="M90.92,212.72l-.33.52a.5.5,0,0,0,.85.52l.33-.52a.5.5,0,0,0-.85-.52Z"/><path class="cls-2" d="M83,223.24A12.27,12.27,0,0,1,81.19,219a.5.5,0,0,0-1,.24,13,13,0,0,0,2,4.51c.36.53,1.24,0,.88-.48Z"/><path class="cls-2" d="M158.16,233.29l-2.12,0,0,1a22.25,22.25,0,0,1,5.1.41c.63.13.92-.83.29-1a23.41,23.41,0,0,0-5.36-.46.5.5,0,0,0,0,1l2.12,0a.5.5,0,0,0,0-1Z"/><path class="cls-2" d="M26.48,191.1a30.53,30.53,0,0,0-.74-6.71.5.5,0,0,0-1,.24,29.31,29.31,0,0,1,.71,6.44.5.5,0,0,0,1,0Z"/><path class="cls-2" d="M10.22,196.22a28.91,28.91,0,0,0-8.11-4.33c-.61-.21-.9.75-.29,1a28,28,0,0,1,7.87,4.23c.51.39,1-.46.52-.85Z"/><path class="cls-2" d="M16.75,220.63q-8.4,2.86-16.49,6.53c-.59.27-.1,1.14.48.88q8-3.62,16.24-6.44c.6-.21.37-1.18-.24-1Z"/><path class="cls-2" d="M26.77,232.64a20.39,20.39,0,0,1-2.83,4.2c-.42.48.27,1.21.69.72a21.41,21.41,0,0,0,3-4.4c.29-.57-.56-1.1-.85-.52Z"/><path class="cls-2" d="M92.88,192.2a18.92,18.92,0,0,1,7,2.59.5.5,0,0,0,.52-.85,19.64,19.64,0,0,0-7.23-2.7c-.63-.1-.92.86-.29,1Z"/><path class="cls-2" d="M95.28,188.56a2.89,2.89,0,0,1,2.15,1.1c.41.5,1.13-.19.72-.69a3.87,3.87,0,0,0-2.85-1.41.5.5,0,0,0,0,1Z"/><path class="cls-2" d="M336.54,267.42a104.84,104.84,0,0,1-10.49.67c-.64,0-.67,1,0,1a107.49,107.49,0,0,0,10.75-.7c.64-.07.39-1-.24-1Z"/><path class="cls-2" d="M328.31,264.72l-5.61-.13a.5.5,0,0,0,0,1l5.61.13a.5.5,0,0,0,0-1Z"/><path class="cls-2" d="M603.14,246.12a291.2,291.2,0,0,1-42,1.5.5.5,0,0,0,0,1,291.2,291.2,0,0,0,42-1.5c.63-.07.66-1.07,0-1Z"/><path class="cls-2" d="M577.72,242.51l-5.5-.13a.5.5,0,0,0,0,1l5.5.13a.5.5,0,0,0,0-1Z"/><path class="cls-3" d="M651.31,351.28c.55-14.54,1.43-29.06,2.3-43.58-6.85-.41-13.71-.78-20.57-1-24.92-.89-49.86-.59-74.78-.23-50,.74-99.77.35-149.65-4.17-56.4-5.11-132.84,4.79-188.79-3.82-3.77-.58-7,3.41-7.16,6.83-.14,4.18,3.11,6.59,6.83,7.16,2.84.44,56.05,3.9,89.72,6.85,14.72,1.29,46.9,7.13,56.39,8.66,10,1.62,29.65,6.48,39.81,6.93q4.22.19,8.45.31c5.45.89,10.94,1.56,16.48,2,23.3,1.64,45.66-4.39,68.72-6.15,21.69-1.66,43.38,1.06,64.63,5.27,29,5.73,58.08,14,87.56,17.49C651.28,352.94,651.28,352.12,651.31,351.28Z"/></g></g></svg>