<svg xmlns="http://www.w3.org/2000/svg" viewBox="0 0 697.15 341.5"><defs><style>.cls-1{fill:#335890;}.cls-2{fill:#514b30;}.cls-3{fill:#f2f2f2;}.cls-4{fill:#e35205;}.cls-5{fill:#efebd3;}.cls-6{fill:#081f2c;}</style></defs><title>unhappy-mobile</title><g id="Layer_2" data-name="Layer 2"><g id="Layer_1-2" data-name="Layer 1"><path class="cls-1" d="M427.14,136.61a3.71,3.71,0,0,0-3.16-4.53c-2.37-.41-5.24.47-7.67.35a48,48,0,0,1-9.14-1.66c-3.93-1-7.61-1.58-11.49-.06-5.52,2.16-10.69,5.06-16.29,7.09-1.82.66-3.66,1.26-5.51,1.83-.91.23-1.83.46-2.74.71a10,10,0,0,0-4,.93c-1.32.35-2.62.75-3.92,1.22a2.25,2.25,0,0,0-.73.42c-.66.23-1.31.48-2,.75a67.81,67.81,0,0,1-7.29,3c-.92.27-1.88.35-2.74.69a1.55,1.55,0,0,0-1.63.29,2,2,0,0,0-.57,1.94,8.38,8.38,0,0,0-.24,3.38,2,2,0,0,0,0,1V154a24.68,24.68,0,0,0-.61,6.54,1.52,1.52,0,0,0-.19.41,16.06,16.06,0,0,0-.64,5.37c-.7,6.15-.48,12.5-.94,18.6-.35,4.65-1.05,9.43-.78,14.1.26,4.51,1.52,8.86,1.9,13.35a21.48,21.48,0,0,0-.71,4.43c-.16,4.7.06,9.43.11,14.14a1.5,1.5,0,0,0,3,0c0-4.45-.29-9-.12-13.41a18.88,18.88,0,0,1,.3-2.6,1.3,1.3,0,0,0,.52-1.16c0-.34,0-.68-.06-1a44.55,44.55,0,0,0,1.26-6.12c.39-3.94.29-7.72.94-11.62,1.19,2,3.24,3.76,4.75,5.47l7.71,8.71c1.39,1.57,3.52,0,3.34-1.69a13,13,0,0,0,4.49-3.54,2.11,2.11,0,0,0,.41-.76A1.62,1.62,0,0,0,373,203c.09-.12.16-.23.24-.34.25-.12.49-.23.75-.34a2.07,2.07,0,0,0,1.4-2.46,40.5,40.5,0,0,0-5.33-12.77c-2.81-4.64-4.64-9.79-6.73-14.79a2.29,2.29,0,0,0-.2-.38h0a4.29,4.29,0,0,0,3.53.12c.86-.33,1.86-1.34,2.78-1.39a1.93,1.93,0,0,0,1.6-.94c1-.26,2-.5,3-.72a138,138,0,0,1,25.63-2.64,2,2,0,0,0,1.93-2.53,32.49,32.49,0,0,1-.25-10.49,2,2,0,0,0-1.93-2.53c-2.32,0-5.27.56-7.53.12s-2.66-1.82-2.74-3.55l0-1.86c0-.25,0-.51,0-.77,0,0,0-.08,0-.12a132.15,132.15,0,0,1,16.22-2.68c4.66-.45,9.63,0,14.35-.28a.93.93,0,0,0,.69.78c1.72.53,1.57,4.78,1.59,6.76-3.68.64-7.47.75-11.18,1a1,1,0,0,0-.92,1.31.91.91,0,0,0-.07,1.11,2.2,2.2,0,0,0,.17,1.64,41.27,41.27,0,0,0-.12,4.22l-.11,6.09a1,1,0,0,0,1.5.86c2.12-1.59,4.85-1.19,6.75-3.28.24-.27.47-.55.69-.84a4.66,4.66,0,0,0,1.78-2.77c.09-.17.16-.34.24-.52a6.09,6.09,0,0,0,.68-1.25,13.86,13.86,0,0,1,.67-2.46l.18-.22a.84.84,0,0,1,.18-.14,1.71,1.71,0,0,0,1-1.28c.58-.66,1.17-1.3,1.8-1.92.2-.15.39-.3.61-.44a1,1,0,0,0,.35-1.32,1.08,1.08,0,0,0,.24-.38c.92-2.53.8-5.29.91-7.95C427.37,139.38,427.67,137.82,427.14,136.61Z"/><path class="cls-1" d="M341.78,213.24c0-5.55.06-11.1-.07-16.66-.09-3.69.61-10.14-1.13-13.67,0-1.67,0-3.29-.08-5a2,2,0,0,0-.51-1.23c.94-.84,1.13-2.44.07-3.08a28.18,28.18,0,0,0-.25-4.36,2.47,2.47,0,0,0,.47-1.25,57.42,57.42,0,0,0-.14-11,3.09,3.09,0,0,0-.17-.73v-1.93a5.5,5.5,0,0,0-.15-1.93c0-.28,0-.55-.05-.83-.11-1.24-2-1.27-2-.08a2.2,2.2,0,0,0-.95,1l-.3,0c-3.23.06-3.86,1.69-5.18,4.2a2.44,2.44,0,0,0-.25,1.67,2.84,2.84,0,0,0-.12.61c-.09,1.18-.13,2.36-.16,3.53a2.48,2.48,0,0,0-.37,1.25l-.17,8.33a2.37,2.37,0,0,0-.18.7,108.22,108.22,0,0,0-.75,15.14c.18,4.55,2,8.28,3.46,12.51,3.5,10,3.6,20.71,3.7,31.17a2.06,2.06,0,0,0,2,2c2.41.28,3.92-1.29,4.11-3.69C343.05,224.62,341.82,218.7,341.78,213.24Z"/><path class="cls-2" d="M355.87,52.18a22.93,22.93,0,0,1-1-2.55,25.78,25.78,0,0,0-.07-3.88c3.52-4.64-2.41-9.87-5-13.29-2.17-2.86-4.33-2.81-7.61-4.23-3-1.28-4.47-.84-7.14.57a35.11,35.11,0,0,1-10,3.39,10.62,10.62,0,0,0-3.29.86c-1.52.62-3.47.28-4.85,1a2.68,2.68,0,0,0-1.54,1.84,11.3,11.3,0,0,0-.23,1.73,25.47,25.47,0,0,1-1.68,4.3c-.77,1.81-1,3.37.11,4.66l-.48.53a2,2,0,0,0,.88,3.34c5.56,1.9,11,2.08,14.24-3.37a17.22,17.22,0,0,1,2.85-.82L332,46c2.23.19,4.47.59,6.74.76,0,.88-.07,1.75-.05,2.64a1,1,0,0,0,.49.8,1,1,0,0,0,0,.88c1.69,3.81,4.52,2.45,7.43.82A.92.92,0,0,0,347,51l1.51.36v.1a.82.82,0,0,0,0,.18v.45a.93.93,0,0,0,.37.74,4.26,4.26,0,0,1,.1.44,1,1,0,0,0,1,.73q2.52-.23,5-.32A1,1,0,0,0,355.87,52.18Z"/><path class="cls-3" d="M690.9,256.1c-18.67.43-37.28-1.08-55.83,1-12.52.4-19.14.36-31.66.09-3.41-.21-17.62-1-18.52-1.05-14.71-.78-29.45,1.48-44.18,1.26-16.85-2.27-30.63-1.18-47.64-1.53-17.71-.37-25.66-.21-39.89,0-2.18,0-2.82,3.49-.53,3.93,4.34.84,11.38,3.61,11.11,9a5,5,0,0,1-1.54.81,6.33,6.33,0,0,1-5.79.38,2.14,2.14,0,0,0-.86-.19c-1-1.7-1.83-3.36-1.23-4.22a2,2,0,0,0-1.2-2.94c-11-3.95-21.56-9.9-33.43-7.81a26.5,26.5,0,0,0-6.52,0,2.07,2.07,0,0,0-2,2c-.12,1.45-.15,9.62-.9,13.11-.75-1-1.52-2-2.32-2.95a84.65,84.65,0,0,1-.82-9.22,2,2,0,0,0-2-2,125.41,125.41,0,0,1-19.5.67c-5.85-.25-9.46,2.11-14.54,4.79a2,2,0,0,0-.4,3.14l.4,4.31a2.28,2.28,0,0,0-.24.77c-4.27,1.24-10.3,1.37-10.22-4.6a1.94,1.94,0,0,0-.06-.4,17.12,17.12,0,0,1,3.75-1.55,5.28,5.28,0,0,0,1.88-.68,1.78,1.78,0,0,0,.94-1.85,19.81,19.81,0,0,1,2.27-1.23c2-.92.77-3.57-1-3.73-4.87-.42-11-1.23-15.95-.17a2.19,2.19,0,0,0-2.4,0,2.07,2.07,0,0,0-1.86,1.94l-.14,7.28a1.92,1.92,0,0,0,.38,1.25c-.19,2.45.18,5.47-2.28,6l-.28,0c-.49-2.59-.95-5.19-1.32-7.81-.3-2.12-.58-7.82-4.33-5.67a2.21,2.21,0,0,0-.37.26,2,2,0,0,0-.4.05c-8.44,2-18.5,6-27.26,4.11a16.62,16.62,0,0,1-1.52-4.57c.26-.16.52-.3.79-.44a.77.77,0,0,0,1,0,1.91,1.91,0,0,0,.84-1.2,1.1,1.1,0,0,0-.05-.58c.37-.62.12-1.58-.78-1.5l-4.2.36a3,3,0,0,0-1.15-.2l-14.54.56a5.29,5.29,0,0,0-.47-.3c-2.3-1.18-5.42-.82-7.9-.83-3.46,0-6.92.08-10.38.23-5.61.24-12.61-.31-18.16,1.24a5.84,5.84,0,0,0-3.8.13c-2.81.38-5.47,3-4.45,6.25.25.8.53,1.57.83,2.34a18.63,18.63,0,0,0-.27,3.28,4,4,0,0,1-1,1c-2.22,1.51-6.65,1.78-9.17,2.4-3,.74-5.24.13-8.29.17a26.17,26.17,0,0,0-3.51.3l-.86-.09v0l-.25,0a7.12,7.12,0,0,0-2.21.21c-.37,0-.74.12-1.11.18q-8.09-1.48-16.17-3.08a23.94,23.94,0,0,0-1.64-10c-.91-2.31-3-4.64-5.79-4.4-36.8,3.08-63.26,1-88.83,1.8-30.41.93-59.57,4.24-103.42,1.92-5-.27-6.78,4.77-5.23,8.4-1.3,3.38.48,8.43,5.3,9,7.69.93,15.4,1.77,23.11,2.56a5.8,5.8,0,0,0,5.39,4,614.34,614.34,0,0,1,83.9,8.42q10.85,1,21.67,2.38c11.94,4.68,19.13,21.2,35.93,23.75,22.83,3.46,45.73,6.54,68.63,9.61,5,1.08,10.08,2,15.15,2.81a4.62,4.62,0,0,0,3.21,1.88l1.6.21h.12q13.79,1.88,27.61,2.5,24.45,1.82,49,2.2a5.78,5.78,0,0,0,5.79,5.9c13.53.46,26.9-1.29,40.08-4.1,24.76-4.17,49-11,73.09-18.45,3.08-.37,6.15-.76,9.21-1.19,12-1.67,8.2-10.43,25.8-16.24,39.18-12.92,83.4-21.06,124.18-26.36q8.13-1.06,16.27-2,27.72-.9,55.34-4C699,268.19,699.47,255.91,690.9,256.1ZM132.12,271.94l-1.08,0,7.59-.14C136.45,271.85,134.29,271.89,132.12,271.94Z"/><path class="cls-4" d="M383.88,216.23a2.34,2.34,0,0,0-3.33-1.31.85.85,0,0,0-.48.75H380a1.62,1.62,0,0,0-.68,2.68,3.7,3.7,0,0,0,3.19.92A2.27,2.27,0,0,0,383.88,216.23Z"/><path class="cls-4" d="M240.73,120.19a53.55,53.55,0,0,1-9,.57,1,1,0,0,0-1,1,6.28,6.28,0,0,0,.09,1.73,1,1,0,0,0-.18.77q.36,2.25.75,4.49c.17,1,.17,2.89.8,3.7s1.59.53,2.46.51l4.8-.1a1,1,0,0,0,1-1q.29-4.07,1-8.08a.78.78,0,0,0,.48-.64c0-.09,0-.18,0-.27h0v0a10.67,10.67,0,0,0,.1-1.67A1,1,0,0,0,240.73,120.19Z"/><path class="cls-5" d="M362.3,61a3.08,3.08,0,0,0-2.2-2.89c-.3-.11-.58-.25-.87-.38a3.37,3.37,0,0,0-.44-.71l-1.67-2a2.4,2.4,0,0,0-2.1-.9,6.32,6.32,0,0,0-3.85-.55c-1.49.26-2.49,1.27-3.81,1.86l-.05,0a1.67,1.67,0,0,0,.25-1.27,1,1,0,0,0,.4-.33l.37-.54a1,1,0,0,0-.86-1.5l-.42,0a.89.89,0,0,0-.56,0l-.88.26a.9.9,0,0,0-.52.37,2.17,2.17,0,0,0-.53.18,14.76,14.76,0,0,1-1.78.82,9.07,9.07,0,0,1-2-.36c-.06-.07-.1-.15-.17-.22-.5-.53-2-2-2.1-3.08A2.47,2.47,0,0,0,335.89,46c-3,.7-5.79.14-8.39,2.16a3.64,3.64,0,0,0-1.3,1.93l-1.44.87a6.53,6.53,0,0,0-1.07,1.14l-.17-.06a.44.44,0,0,0-.25,0l-1.15-.28c-.38-.1-.84.37-.56.73s.35.44.53.66a.42.42,0,0,0,0,.45,8.14,8.14,0,0,1,.68,1.25,1.74,1.74,0,0,0,.15.94.88.88,0,0,0,0,.16c0,.2,0,.39.08.58a.79.79,0,0,0,0,.5l.1.24h0l0,.1a14.68,14.68,0,0,0,1,2.08.93.93,0,0,0,.5.4A3.57,3.57,0,0,0,327,61.12c2,4.81-.08,6.4,4.73,8.55,1.44.64,2.43,1.82,3.94,2.4,2.1.8.67-.72,1.42,1.65s3.79,3.6,6,2.93c1.79-.53,2.28-2,3.54-3.1s-2.34-2.53,2.5-.19a31.61,31.61,0,0,1,3.92,2.34,1.77,1.77,0,0,0,.48.23l.66.9a.5.5,0,0,0,.93-.25c0-.06,0-.12,0-.18s.08,0,.11,0c.42-.33.39-.87.45-1.37a2.36,2.36,0,0,0,.26-.49,38.86,38.86,0,0,1,3.08-6.36,1.85,1.85,0,0,0,.21-1.5A8.1,8.1,0,0,0,362.3,61Z"/><path class="cls-5" d="M372.23,109.84a41.45,41.45,0,0,1-5.42-1.55,12.92,12.92,0,0,0-5.24-1.18,1.44,1.44,0,0,0-1,.39,22.84,22.84,0,0,0-2.33-.17,1,1,0,0,0-.76,1.61,10.84,10.84,0,0,1-1.62,4.23.85.85,0,0,0,0,.94,56.21,56.21,0,0,0-7.06,1.1c-1.09.15-2.17.31-3.24.51-.29.05-.57.12-.85.19a88.59,88.59,0,0,0-13.28,3.49,178.94,178.94,0,0,1-20.75,5.33,2.24,2.24,0,0,0-1.23.64c-3.51.28-7,.43-10.56.42a2.24,2.24,0,0,0-2.16,1.35,39.6,39.6,0,0,0-8.14,1.72,1,1,0,0,0-.65.74c-1,.2-2,.37-3,.49-1.26.16-1.28,2.16,0,2l1.16-.17a1,1,0,0,0,.44.07l18.16-1.33q3.85-.18,7.68-.57a2,2,0,0,0,1.82.63l18.85-2.14a2.08,2.08,0,0,0,1.69.51q13.67-1.33,27.31-3c2.25-.27,5.59,0,7.29-1.76,1.2-1.27,1.46-3.78,1.5-6a9.61,9.61,0,0,0,1.52-5.14l.05-.15a1.56,1.56,0,0,0,.07-.42A1.49,1.49,0,0,0,372.23,109.84Z"/><path class="cls-6" d="M325.16,61.12a9.84,9.84,0,0,0,7.78.49c.6-.21.34-1.18-.27-1a8.83,8.83,0,0,1-7-.39c-.57-.28-1.08.58-.5.86Z"/><path class="cls-6" d="M321.55,58.17a15.76,15.76,0,0,0,6-1.11c.59-.23.33-1.2-.27-1a15,15,0,0,1-5.76,1.07.5.5,0,0,0,0,1Z"/><path class="cls-6" d="M319.75,52.44a4.48,4.48,0,0,1,3.26-.59,5.44,5.44,0,0,0,1.1.15,2.07,2.07,0,0,0,1.71-.89c1.39-1.86,3.05-3,3.27-5.46.06-.64-.94-.64-1,0a4.73,4.73,0,0,1-1.84,3.3c-.65.58-1.25,1.9-2.14,2s-1.74-.38-2.6-.29a6.36,6.36,0,0,0-2.27.87c-.57.31-.06,1.17.5.86Z"/><path class="cls-6" d="M328.36,48c1-.86,2.62-.35,3.79-.87a5.36,5.36,0,0,1,1.47-.65,4.51,4.51,0,0,0,1.16-.14,1.79,1.79,0,0,0,.93-1.3,6.14,6.14,0,0,0,0-1.16,3.72,3.72,0,0,1,1.48-2.73c.47-.44-.23-1.14-.71-.71a5.27,5.27,0,0,0-1.66,2.29c-.15.52.08,1.2-.08,1.66-.59,1.76-.71.68-1.42,1a9.94,9.94,0,0,1-3.42,1.13,3.48,3.48,0,0,0-2.24.79c-.49.42.22,1.12.71.71Z"/><path class="cls-6" d="M336.56,46.56c.47-.07,1.49-.38,1.87.08.18.22.11,1,.1,1.28a7,7,0,0,0-.19,2.28c.35,1.22,1.73,2.31,2.64,3.09.48.42,1.19-.28.71-.71-1.12-1-2.44-2-2.3-3.6a7.89,7.89,0,0,0,.05-2.39c-.36-1.74-1.72-1.23-3.14-1-.63.1-.36,1.06.27,1Z"/><path class="cls-6" d="M315.59,49.81a1.5,1.5,0,0,1-1.63-.57,1.1,1.1,0,0,1,0-1.7c.65-.71,1.32-1.4,2-2.1.44-.47-.26-1.18-.71-.71-.73.78-1.5,1.53-2.2,2.34a1.76,1.76,0,0,0-.49,1.73c.36,1.27,2,2.5,3.33,2,.59-.24.33-1.21-.27-1Z"/><path class="cls-6" d="M314.2,46.14c-.67-.86-1.64-1.65-1.35-2.93a5.61,5.61,0,0,1,1.39-2.1,5.4,5.4,0,0,0,1.26-2.36c.13-.63-.83-.9-1-.27-.39,1.85-2.35,2.83-2.69,4.7-.28,1.53.78,2.54,1.65,3.65.4.51,1.1-.21.71-.71Z"/><path class="cls-6" d="M315.83,35.69c.13-3.36,6.45-.52,8.13-.31.64.08.63-.92,0-1-2.38-.29-9-3.44-9.13,1.31,0,.64,1,.64,1,0Z"/><path class="cls-6" d="M321,34.14a3.77,3.77,0,0,1,1.72-1.66c1.2-.47,1.74.09,2.79.28a5.42,5.42,0,0,0,3.11-.4c.58-.25.33-1.21-.27-1a4.59,4.59,0,0,1-3.29.22,3.68,3.68,0,0,0-1.84-.35,4.74,4.74,0,0,0-3.1,2.38.5.5,0,0,0,.86.5Z"/><path class="cls-6" d="M326.31,37.27c1.1-1.53,3,1.53,3.9,2.12a7.73,7.73,0,0,0,3.34,1.07c.63.1.9-.87.27-1a6.5,6.5,0,0,1-3.22-1.09c-.75-.6-1.22-1.49-2-2a2.14,2.14,0,0,0-3.13.4c-.37.52.49,1,.86.5Z"/><path class="cls-6" d="M338.46,37.47c-1.62-2-5.08,1.21-6.17-.88-.3-.57-1.16-.07-.86.5a2.26,2.26,0,0,0,1.93,1.2c1.31.11,3.41-1.32,4.4-.12.41.5,1.11-.21.71-.71Z"/><path class="cls-6" d="M362,58.66A17,17,0,0,1,355,47.86c-.13-.63-1.09-.36-1,.27a18,18,0,0,0,7.53,11.39c.53.37,1-.5.5-.86Z"/><path class="cls-6" d="M354.61,47c.22-1.32,1.35-2.39,1.42-3.74.09-1.71-1.52-3-1.81-4.63-.18-1.05.11-2.21-.8-3-.39-.33-1.19-.31-1.64-.45a12,12,0,0,1-3.6-1.75c-.53-.37-1,.49-.5.86a11.75,11.75,0,0,0,3,1.61c1.41.47,1.84.05,2.4,1.93.12.42.06.94.16,1.38.32,1.4,1.22,2.3,1.32,3.75s-.71,2.29-.95,3.73c-.1.63.86.9,1,.27Z"/><path class="cls-6" d="M350.24,33.5a3.51,3.51,0,0,0-3.83-3.62,5.11,5.11,0,0,0-4.62,3.47c-.22.61.75.87,1,.27A4.06,4.06,0,0,1,345.87,31c1.69-.3,3.51.63,3.37,2.55,0,.64,1,.64,1,0Z"/><path class="cls-6" d="M344.11,29.72a2.94,2.94,0,0,0-2.24-1.91c-.35-.06-.53.12-.91,0-.78-.32,0-.06-.59-.56a2.46,2.46,0,0,0-.94-.59,4,4,0,0,0-5.07,3.85c.05.64,1.05.64,1,0A2.75,2.75,0,0,1,338,27.6c1.27-.18,1.17.38,1.94,1,.41.34.58.28,1.07.36.18,0,.38-.13.55-.12,1,.07,1.27.58,1.67,1.35.29.57,1.16.07.86-.5Z"/><path class="cls-6" d="M348.41,40.87a12.26,12.26,0,0,0,.89,5.94c.24.59,1.21.33,1-.27a11.64,11.64,0,0,1-.85-5.68c.06-.64-.94-.64-1,0Z"/><path class="cls-6" d="M348.15,55.29a44.64,44.64,0,0,1,3.12,5.28c1.27,3-.4,5.17-1.9,7.66s-6,11.73-9.54,7.42c-.41-.5-1.12.22-.71.71,3.75,4.52,8.08-2.66,9.72-5.33,1.42-2.3,3.75-5.09,4-7.89.23-3-2.34-5.94-3.8-8.35a.5.5,0,0,0-.86.5Z"/><path class="cls-6" d="M340,70.08a11.6,11.6,0,0,0-6.3,2.52c-.5.4.21,1.1.71.71a10.4,10.4,0,0,1,5.6-2.23c.64-.06.64-1.06,0-1Z"/><path class="cls-6" d="M331.07,68.92A1.86,1.86,0,0,1,329,67.38c-.07-.63-1.07-.64-1,0a2.87,2.87,0,0,0,3.36,2.51c.63-.11.36-1.08-.27-1Z"/><path class="cls-6" d="M347.59,73.33c2.3,1.74,5.91,2.5,7,5.5.21.6,1.18.34,1-.27-1.18-3.37-4.82-4.14-7.41-6.1-.51-.39-1,.48-.5.86Z"/><path class="cls-6" d="M363.28,59a55.29,55.29,0,0,0-6.78,13.17c-1.24,3.52-3.07,8.11-1.06,11.66a.5.5,0,0,0,.86-.5c-2-3.56.41-9,1.77-12.51a54.54,54.54,0,0,1,6.07-11.31c.37-.53-.5-1-.86-.5Z"/><path class="cls-6" d="M416.69,108.87c.76,2.28,3.3,2.72,4.39,4.76a8.59,8.59,0,0,1,.8,4.85c-.4,2-2.73,2.94-4.23,3.95-2.77,1.85-5.49,3.78-8.72,4.72-3.44,1-7.12,1-10.67.93a.5.5,0,0,0,0,1c3.94,0,8,.05,11.8-1.24s6.78-3.67,10-5.8c2.68-1.8,3.17-2.64,2.76-6a7.44,7.44,0,0,0-1.27-3.67c-1.1-1.45-3.23-2-3.84-3.81-.2-.61-1.17-.35-1,.27Z"/><path class="cls-6" d="M369.37,69.56c-7.62-.22-11.62,6.84-13.38,13.35-1.2,4.44,0,9-.87,13.44a12.52,12.52,0,0,0-.34,4.47c.28,2.14-.21,4.34.3,6.44.15.62,1.12.36,1-.27-.43-1.74.23-3.35,0-5.08a17,17,0,0,1-.45-2.68,18.24,18.24,0,0,1,.58-3c.6-3.17,0-6.35.2-9.54.41-7,4.92-16.35,13-16.12a.5.5,0,0,0,0-1Z"/><path class="cls-6" d="M355.39,107.77a16.13,16.13,0,0,0,3.73-.33,13.43,13.43,0,0,1,5.76.48c3.12.84,6.22,1.71,9.33,2.57a.5.5,0,0,0,.27-1c-3.38-.93-6.75-1.95-10.16-2.8a12.9,12.9,0,0,0-3.51-.51c-1.84.06-3.55.68-5.41.54-.64,0-.64,1,0,1Z"/><path class="cls-6" d="M377.37,77.93c-3.91,7.32-9.69,13.41-15.07,19.65-.42.49.29,1.2.71.71,5.44-6.3,11.28-12.46,15.23-19.86.3-.57-.56-1.07-.86-.5Z"/><path class="cls-6" d="M377.68,82.58c-1.75,3.33.83,6,.94,9.38.09,2.63-1.85,3.18-2.74,5.17-.66,1.47-.45,3.26-.6,4.83-.06.64.94.64,1,0,.21-2.27.06-4,1.68-5.88a5.38,5.38,0,0,0,1.63-2.59c.78-3.59-2.89-6.89-1-10.4.3-.57-.56-1.08-.86-.5Z"/><path class="cls-6" d="M377.6,95.12a11.25,11.25,0,0,0,.13,3.42c.19,2.16-.6,3.38-1.31,5.31-.17.46-.25.94-.41,1.4a11.29,11.29,0,0,1-1.74,2.82,2.39,2.39,0,0,0-.63,1.87c.06.64,1.06.64,1,0-.09-1,1.56-2.15,2-3.13.58-1.34.82-2.81,1.43-4.17a7.69,7.69,0,0,0,.79-2.56c.12-1.6-.59-3.05-.27-4.7.12-.63-.84-.9-1-.27Z"/><path class="cls-6" d="M375.82,105.55A80,80,0,0,0,362,103.71c-.64,0-.64,1,0,1a78.5,78.5,0,0,1,13.53,1.8c.63.14.89-.82.27-1Z"/><path class="cls-6" d="M372.08,70.85a12.45,12.45,0,0,1,8.84,9.52c.13.63,1.09.36,1-.27a13.44,13.44,0,0,0-9.54-10.22.5.5,0,0,0-.27,1Z"/><path class="cls-6" d="M376,112.81c5.35,1.67,11.56,3,16.06-1.25.47-.45-.24-1.15-.71-.71-4.22,4-10.12,2.55-15.08,1-.62-.19-.88.77-.27,1Z"/><path class="cls-6" d="M368.87,126.08c1.79-1.82,1.63-4.33,2.32-6.65.46-1.53,1.19-3,1.58-4.51s.6-3.32,1.18-4.94c.22-.61-.75-.87-1-.27-.92,2.56-1.21,5.24-2.19,7.8-.92,2.39-.81,6-2.64,7.85-.45.46.26,1.17.71.71Z"/><path class="cls-6" d="M372.73,113.68a11.3,11.3,0,0,1,3.92,6.83c.24,1.51-.18,3.43.87,4.71a6.89,6.89,0,0,0,1.57,1.14,11.7,11.7,0,0,1,3.32,3.4c.88,1.4,1.32,2.87,2.76,3.81.54.35,1-.51.5-.86-1.62-1.06-2.17-3.36-3.38-4.81-1.61-1.94-4.17-2.9-4.48-5.62-.43-3.75-1.41-6.74-4.36-9.3-.48-.42-1.19.28-.71.71Z"/><path class="cls-6" d="M380.12,118.17c4.69-.31,9.84.87,13.62-2.64.47-.44-.24-1.14-.71-.71-3.52,3.27-8.56,2.06-12.92,2.35-.64,0-.64,1,0,1Z"/><path class="cls-6" d="M387.07,126.2a12.55,12.55,0,0,1,2.38-1.45c.58-.27.07-1.14-.5-.86a13.62,13.62,0,0,0-2.58,1.6c-.51.4.21,1.1.71.71Z"/><path class="cls-6" d="M390.44,126.89a35.74,35.74,0,0,1,5.62-5.48c1.45-1.07,3-2,4.39-3.15,3-2.57,5.1-6,7.11-9.4a.5.5,0,0,0-.86-.5c-2.18,3.65-4.41,7.3-7.86,9.9a55.79,55.79,0,0,0-9.1,7.92c-.42.48.28,1.19.71.71Z"/><path class="cls-6" d="M283.3,132c5.25-3.34,11.36-4.14,17.39-5.06,6.81-1,13.49-2.62,20.16-4.31s13-3.56,19.44-5.46c7-2,14.12-2.57,21.33-3,.64,0,.64-1,0-1-6.8.37-13.62.79-20.21,2.61-7,1.91-13.82,4.08-20.82,5.86C313.78,123.36,307,125,300,126c-6,.9-12,1.79-17.21,5.09-.54.34,0,1.21.5.86Z"/><path class="cls-6" d="M356.37,113.54a8.87,8.87,0,0,0,1.39-5.59c-.05-.64-1.05-.64-1,0a8,8,0,0,1-1.26,5.08c-.35.54.52,1,.86.5Z"/><path class="cls-6" d="M283.92,132.64c15.9-1.28,31.85-1.75,47.77-2.74,7.87-.49,15.73-1.11,23.57-2,3.74-.44,7.47-1.12,11.22-1.4,2.55-.19,4.79-.16,4.84,3.18a39.09,39.09,0,0,1-.54,6.87c-.1.63.86.9,1,.27a42,42,0,0,0,.57-5.73c0-1.24.38-3.42-.26-4.59-1.18-2.15-5.92-1-7.79-.78-8.72,1.07-17.41,2.13-26.18,2.77-18,1.31-36.14,1.71-54.17,3.17-.64.05-.64,1.05,0,1Z"/><path class="cls-6" d="M422.21,116.56c0,1.13.4,1.35,1,2.21,1.75,2.4,1.79,2.86,1.41,5.56s-1.06,4.72.67,7.17c.37.52,1.24,0,.86-.5-1.93-2.73-.4-6-.32-9.07a5.17,5.17,0,0,0-.22-2.22c-.52-1.16-2.46-1.71-2.43-3.14a.5.5,0,0,0-1,0Z"/><path class="cls-6" d="M388.53,143.83a46.79,46.79,0,0,0,.76,7c.12.63,1.08.36,1-.27a45,45,0,0,1-.73-6.72c0-.64-1-.64-1,0Z"/><path class="cls-6" d="M421.54,143.2l.05,6.17a.5.5,0,0,0,1,0l-.05-6.17a.5.5,0,0,0-1,0Z"/><path class="cls-6" d="M389.94,151.83q15.37-1.47,30.81-1.88a.5.5,0,0,0,0-1q-15.44.41-30.81,1.88c-.63.06-.64,1.06,0,1Z"/><path class="cls-6" d="M388.86,144.65c5.49-.72,11-1.28,16.54-1.66q3.9-.27,7.81-.42c2.13-.08,7.21-1.08,8.59,1.23a.5.5,0,0,0,.86-.5,4.12,4.12,0,0,0-3.65-1.85,83.18,83.18,0,0,0-9.71.3c-6.84.36-13.65,1-20.44,1.89-.63.08-.64,1.08,0,1Z"/><path class="cls-6" d="M400.67,151.56l-.1,11c0,2.58-.69,5.93.62,8.26a.5.5,0,0,0,.86-.5c-.8-1.43-.53-3.33-.51-4.9l0-4.77.08-9.06a.5.5,0,0,0-1,0Z"/><path class="cls-6" d="M409.31,150.31c0,4,0,8-.24,12q-.15,2.87-.38,5.74-.06.72-.12,1.43-.08,1.69-1.52,1.53a11.29,11.29,0,0,1-3.59.22.5.5,0,0,0,0,1c1.36,0,4.28.3,5.45-.67s.77-3.26.86-4.46c.43-5.58.59-11.16.54-16.75a.5.5,0,0,0-1,0Z"/><path class="cls-6" d="M425,131.79a8.71,8.71,0,0,1,2.16,5.83c0,1.88-.23,3.77-.35,5.65-.13,2.07.16,4.81-.88,6.65-.73,1.28-2.06,2.07-3.07,3.1-2.17,2.24-1.7,5.45-3.68,7.79-2.41,2.85-6.33,3.58-9.81,4.24-.63.12-.36,1.08.27,1,3.68-.7,7.68-1.53,10.25-4.5a8.49,8.49,0,0,0,1.74-3.38c.4-1.41.52-2.76,1.5-3.94a18.89,18.89,0,0,1,1.9-1.77c2.81-2.58,2.56-5.54,2.79-9.15.15-2.36.61-4.93.32-7.29a9.65,9.65,0,0,0-2.26-4.7c-.38-.51-1.25,0-.86.5Z"/><path class="cls-6" d="M356.11,164.77A40,40,0,0,1,355,174.95c-.72,2.6-2.86,5-3,7.72,0,.64,1,.64,1,0,.1-1.66,1.43-3.24,2.05-4.73a23.73,23.73,0,0,0,1.32-4.32,45.9,45.9,0,0,0,.8-8.84.5.5,0,0,0-1,0Z"/><path class="cls-6" d="M351.07,167.13a12.94,12.94,0,0,0,1.78,3.14,10,10,0,0,1,1.25,4.7c0,.64,1,.64,1,0a11.3,11.3,0,0,0-.88-4.16c-.59-1.38-1.83-2.49-2.19-3.95a.5.5,0,0,0-1,.27Z"/><path class="cls-6" d="M356,175c2.73-2.43,6.5-1.83,9.83-2.51,3.5-.71,6.46-2.78,10-3.39,8.29-1.41,16.66-2.42,25-3.62.63-.09.36-1.06-.27-1l-13.5,2c-4.41.64-9,1-13.31,2a24.91,24.91,0,0,0-4.85,1.84,18.09,18.09,0,0,1-6.13,1.54c-2.75.26-5.37.51-7.51,2.42-.48.43.23,1.13.71.71Z"/><path class="cls-6" d="M217.63,146.7c9.75-1.57,19.89-1,29.73-1.27s19.78-.55,29.66-.95q29.65-1.18,59.26-3.28,16.77-1.19,33.52-2.68c.64-.06.64-1.06,0-1q-59.86,5.31-120,6.85c-10.75.27-21.83-.34-32.47,1.37-.63.1-.36,1.07.27,1Z"/><path class="cls-6" d="M216.44,134.1q34.16-1.09,68.32-1.8a.5.5,0,0,0,0-1q-34.17.71-68.32,1.8c-.64,0-.64,1,0,1Z"/><path class="cls-6" d="M255.59,132.34c2.11-2.15,5.25-2.67,7.94-3.81A37.6,37.6,0,0,0,270,125c1.46-1,3.22-2.06,3.81-3.81.83-2.46.47-5.62.57-8.19q.75-19.33.32-38.68a.5.5,0,0,0-1,0q.38,17.85-.21,35.7c-.1,2.81-.2,5.62-.34,8.42a5.64,5.64,0,0,1-2.61,5,36.22,36.22,0,0,1-3.19,2.09,42.08,42.08,0,0,1-7.46,3.33,12.1,12.1,0,0,0-5,2.79c-.45.46.26,1.17.71.71Z"/><path class="cls-6" d="M271.91,38.56c2.18,4.93,4.26,9.92,6.6,14.77,2.24,4.66,5.18,8.89,7.32,13.61,4.56,10.09,9.06,20.21,13.59,30.32.26.59,1.12.08.86-.5-4.53-10.11-9-20.23-13.59-30.32-2.07-4.58-4.91-8.69-7.11-13.19-2.44-5-4.56-10.13-6.8-15.2-.26-.59-1.12-.08-.86.5Z"/><path class="cls-6" d="M305.63,97l-5.83.2c-.64,0-.64,1,0,1l5.83-.2c.64,0,.64-1,0-1Z"/><path class="cls-6" d="M277,34.24l0-.06-.35.35h.08l-.49-.13.06.05-.13-.49c0,.16-.52.45-.65.56l-1,.83-1.85,1.57c-.49.42.22,1.12.71.71l2.18-1.84c.48-.4,1.42-.91,1.56-1.56a.5.5,0,0,0-.13-.49.67.67,0,0,0-.63-.17.49.49,0,0,0-.35.35l0,.06a.5.5,0,0,0,1,.27Z"/><path class="cls-6" d="M387.21,157.73a186.65,186.65,0,0,1-19.69,3.33c-.63.07-.64,1.07,0,1a189.17,189.17,0,0,0,20-3.37c.63-.14.36-1.11-.27-1Z"/><path class="cls-6" d="M374.88,163.13a33,33,0,0,0-8,1.68c-.6.21-.34,1.18.27,1a31.94,31.94,0,0,1,7.71-1.65c.64-.06.64-1.06,0-1Z"/><path class="cls-6" d="M352.25,194.72l10.31,12c3.35,3.89,7,7.67,9.66,12.08a.5.5,0,0,0,.86-.5c-2.55-4.22-6-7.84-9.19-11.56L353,194c-.42-.49-1.13.22-.71.71Z"/><path class="cls-6" d="M375.16,169s-1.47,2.72-1.57,3.16a5.61,5.61,0,0,0,.1,3,4.73,4.73,0,0,0,1.56,2.31c1.12.87,2.62.9,3.74,1.81.49.4,1.21-.3.71-.71a6.48,6.48,0,0,0-2.06-1.09c-1.82-.67-3.16-1.77-3.2-3.88,0-1.68,1-2.55,1.55-3.95.21-.56.3-.58.05-1.15s-1.12-.08-.86.5Z"/><path class="cls-6" d="M433.14,163.87c3.82,2.63,1.65,9.44-1.63,11.35a.5.5,0,0,0,.5.86c4.08-2.38,6.07-10,1.63-13.08-.53-.37-1,.5-.5.86Z"/><path class="cls-6" d="M381.86,179.39q24.7-2,49.46-3.1c.64,0,.64-1,0-1q-24.76,1.12-49.46,3.1c-.64.05-.64,1.05,0,1Z"/><path class="cls-6" d="M413.56,165.11q9.65-.75,19.32-1.2c.64,0,.64-1,0-1q-9.67.45-19.32,1.2c-.64,0-.64,1,0,1Z"/><path class="cls-6" d="M427.82,163.33c-.46-6.44,7.09-9,9.22-14.44,2.05-5.22.26-11.82-.35-17.18-.07-.63-1.07-.64-1,0,.71,6.35,3.06,14.53-1.5,19.9-3,3.58-7.74,6.41-7.37,11.72,0,.64,1,.64,1,0Z"/><path class="cls-6" d="M433.66,163.08c-.92-3.53,2.24-5.81,4.34-8.07a9.82,9.82,0,0,0,2.67-5.25,46,46,0,0,0,.2-7.75q0-4.91-.18-9.82a.5.5,0,0,0-1,0q.13,4.91.18,9.82c0,3.27.6,7.44-1.12,10.38-2.13,3.64-7.36,6-6.06,11a.5.5,0,0,0,1-.27Z"/><path class="cls-6" d="M440,131.31a18.43,18.43,0,0,0-4.71-1.32c-2.13-.31-5.61-.61-5.32-3.67.06-.64-.94-.64-1,0a3.86,3.86,0,0,0,2.4,3.84,10,10,0,0,0,3.06.73,18.63,18.63,0,0,1,5.06,1.29c.58.25,1.09-.61.5-.86Z"/><path class="cls-6" d="M439.05,68.19c-3.4-.74-8-.87-9.53,3.07-.75,2-.6,4.39-.56,6.47.05,3.06.23,6.12.34,9.18q.33,9.21.49,18.43c.11,6.33.84,13.17-.94,19.32a.5.5,0,0,0,1,.27c1.33-4.6,1.12-9.37,1.06-14.11q-.1-8-.32-15.94c-.15-5.26-.39-10.52-.55-15.78-.08-2.4-.51-5.8.67-8,1.59-3,5.4-2.55,8.12-2,.63.14.9-.83.27-1Z"/><path class="cls-6" d="M439.28,69.49c1.1,5,.67,10.09.54,15.18s.09,10,.37,14.94c.58,10.35,1.36,20.75-.26,31.05-.1.63.86.9,1,.27,1.64-10.4.88-20.87.3-31.32-.3-5.28-.52-10.56-.35-15.85.16-4.88.46-9.74-.6-14.54-.14-.63-1.1-.36-1,.27Z"/><path class="cls-6" d="M440.73,84.83a5.07,5.07,0,0,1,1.82-.26c1.88.35,1.75,1.63,1.85,2.91.12,1.49.18,3,.27,4.49l.54,9,.51,8.47a38.82,38.82,0,0,1,.27,4.49c-.17,2.88-1.64,3.6-4,3.54a.5.5,0,0,0,0,1c2.35.05,4.58-.4,5-3.06.35-2.36-.22-5.1-.36-7.47l-.45-7.48c-.28-4.63-.1-9.56-.86-14.13-.45-2.71-2.44-3-4.84-2.45-.63.14-.36,1.11.27,1Z"/><path class="cls-6" d="M416.64,177.33q.16,11.06-.2,22.11-.09,2.7-.22,5.4c-.07,1.56.16,3.74-.55,5.18-.95,1.92-3.67,2-5.57,2.14a8.7,8.7,0,0,1-5.63-1.25c-.54-.35-1,.51-.5.86,2.81,1.85,6.24,1.59,9.42,1,3-.61,3.55-2.61,3.71-5.43.57-10,.69-20,.54-30a.5.5,0,0,0-1,0Z"/><path class="cls-6" d="M400.24,178a261.86,261.86,0,0,0,2,31.12c.08.63,1.08.64,1,0a261.86,261.86,0,0,1-2-31.12.5.5,0,0,0-1,0Z"/><path class="cls-6" d="M371.89,218a1.56,1.56,0,0,0,.09.87.51.51,0,0,0,.91.12,41.08,41.08,0,0,1,7.21-9.73.5.5,0,0,0-.71-.71,42,42,0,0,0-7.36,9.94l.91.12-.06-.6c.06-.64-.94-.64-1,0Z"/><path class="cls-6" d="M366.18,209.92a59.82,59.82,0,0,1,9.3-8c.53-.36,0-1.23-.5-.86a61.1,61.1,0,0,0-9.5,8.13c-.44.47.26,1.17.71.71Z"/><path class="cls-6" d="M381.08,209a46.06,46.06,0,0,1,5.3,3.52c2.07,1.86,1.49,3.86,1.39,6.41a53.93,53.93,0,0,0,.9,11.79,75.88,75.88,0,0,0,3.27,11.74,33.17,33.17,0,0,1,2,5.75c.53,3.61-2.67,3.75-5.49,4-.63.07-.64,1.07,0,1,2.28-.24,7.19-.47,6.88-3.72-.23-2.42-1.59-5.07-2.39-7.34a83.83,83.83,0,0,1-2.48-8.06,53.8,53.8,0,0,1-1.54-17.07c.13-1.55.66-3.19-.56-4.4-1.82-1.81-4.61-3.1-6.74-4.52-.54-.36-1,.51-.5.86Z"/><path class="cls-6" d="M373.68,219.8c-1.34,5,1.37,10.55,3,15.23q3,8.73,6.41,17.28c.24.59,1.21.33,1-.27q-3.09-7.67-5.8-15.49-1.31-3.8-2.52-7.63c-.92-2.9-1.86-5.82-1-8.86a.5.5,0,0,0-1-.27Z"/><path class="cls-6" d="M340,141.26c-1.14,33.29,1,66.7,2.33,100,.38,9.43.84,18.85,1.85,28.23.07.63,1.07.64,1,0-1.77-16.48-2-33.11-2.69-49.66s-1.41-33.33-1.69-50c-.16-9.51-.13-19,.2-28.52,0-.64-1-.64-1,0Z"/><path class="cls-6" d="M348.37,140.3c-1.65,17.14-3,34.23-2.83,51.47.2,16.86.49,33.73,1.15,50.57.37,9.63,1.42,19.38.35,29-.07.64.93.63,1,0,.94-8.49.15-17-.21-25.55s-.6-17-.79-25.54c-.37-16.87-1-33.81-.08-50.67.54-9.78,1.47-19.52,2.41-29.27.06-.64-.94-.64-1,0Z"/><path class="cls-6" d="M349.14,230.88a58.42,58.42,0,0,0,1-12.28,33.91,33.91,0,0,1,.16-6.07c.34-2.16,1.19-4.2,1.57-6.35.63-3.59.24-7.35.34-11,.12-4.41.47-8.8,1-13.18.08-.64-.92-.63-1,0-.49,4.06-.83,8.14-1,12.23s.38,8.5-.52,12.57c-.84,3.79-1.69,7-1.6,10.88a60.52,60.52,0,0,1-1,12.91c-.12.63.84.9,1,.27Z"/><path class="cls-6" d="M334.71,192.49a64.51,64.51,0,0,0,1.08,13.06c.12.63,1.08.36,1-.27a63.21,63.21,0,0,1-1-12.79.5.5,0,0,0-1,0Z"/><path class="cls-6" d="M370.42,192.36c-4-.6-8.06-1.27-11.62-3.43a.5.5,0,0,0-.5.86c3.62,2.2,7.72,2.91,11.86,3.53.63.09.9-.87.27-1Z"/><path class="cls-6" d="M237,145.17c.13,5.15.26,10.31,0,15.45s-.89,10.41-.74,15.66c.28,10,.79,20,.94,30.07.31,20.59.9,41.22-.26,61.8,0,.64,1,.64,1,0,1.16-20.58.57-41.21.26-61.8-.15-10-.66-20-.94-30.07-.15-5.25.43-10.42.74-15.66s.17-10.3,0-15.45a.5.5,0,0,0-1,0Z"/><path class="cls-6" d="M230.65,145.73c.86,5.29.32,10.57-.09,15.87s-.56,10.56-.54,15.85c0,10.25.56,20.51,1,30.75l2.37,62.2a.51.51,0,0,0,.37.48l3.85.57c.63.09.9-.87.27-1s-2.3,0-2.89-.43c-.9-.6-.67-1.66-.71-2.62l-.26-6.91-.47-12.34-1-25.18c-.64-16.81-1.78-33.7-1.49-50.53.16-8.93,2-18.14.56-27-.1-.63-1.07-.36-1,.27Z"/><path class="cls-6" d="M411.92,213.2q-1.07,27.92-1.61,55.86a.5.5,0,0,0,1,0q.53-27.93,1.61-55.86c0-.64-1-.64-1,0Z"/><path class="cls-6" d="M407,213.51c1.25,6.39-.09,13.36-.38,19.81s-.42,13-.36,19.54q0,4.89.21,9.77c.09,2.47-.23,5.42.42,7.81.57,2.1,4,2.34,4.48.07.14-.63-.82-.89-1-.27a1.57,1.57,0,0,1-1.61.88,3,3,0,0,1-1.08-2.64,31,31,0,0,1-.18-3.91q-.16-3.91-.23-7.82-.14-7.33,0-14.66t.61-14.65c.29-4.74,1-9.52,0-14.22-.12-.63-1.09-.36-1,.27Z"/><path class="cls-6" d="M411.6,244.8l40.49,18.3c.58.26,1.09-.6.5-.86l-40.49-18.3c-.58-.26-1.09.6-.5.86Z"/><path class="cls-6" d="M411.83,238.77a335,335,0,0,0,44.5,22.63c.59.25.85-.72.27-1a333.26,333.26,0,0,1-44.26-22.53.5.5,0,0,0-.5.86Z"/><path class="cls-6" d="M406.77,237.7q-6.59,4-13.42,7.64c-.57.3-.06,1.16.5.86q6.83-3.61,13.42-7.64c.55-.33,0-1.2-.5-.86Z"/><path class="cls-6" d="M406.42,243.58a64,64,0,0,0-12,5.4.5.5,0,0,0,.5.86,62.71,62.71,0,0,1,11.73-5.3c.61-.2.35-1.17-.27-1Z"/><path class="cls-6" d="M382.57,250.95l-15.7,9.45a.5.5,0,0,0,.5.86l15.7-9.45a.5.5,0,0,0-.5-.86Z"/><path class="cls-6" d="M370.13,262.09a144.74,144.74,0,0,1,16.55-8.44c.59-.27.08-1.13-.5-.86a144.74,144.74,0,0,0-16.55,8.44c-.55.34,0,1.2.5.86Z"/><path class="cls-6" d="M229.16,219.16a144.68,144.68,0,0,1-25.27-1.68l.12.91c2-1.08,4.7-.89,7-1s4.24-.19,6.36-.26q6.37-.23,12.74-.32a.5.5,0,0,0,0-1q-7.35.11-14.7.39c-3.68.15-8.52-.45-11.86,1.32a.51.51,0,0,0,.12.91,146.2,146.2,0,0,0,25.53,1.72.5.5,0,0,0,0-1Z"/><path class="cls-6" d="M238.74,221.28l6.7-.4a10.1,10.1,0,0,0,4.46-.88.51.51,0,0,0-.12-.91,51.39,51.39,0,0,0-9.78-1.85c-.64-.06-.64.94,0,1a50,50,0,0,1,9.52,1.81l-.12-.91c-1.62.88-3.74.73-5.53.84l-5.12.31c-.64,0-.64,1,0,1Z"/><path class="cls-6" d="M250.1,219.88A197.5,197.5,0,0,0,247,256.81a.5.5,0,0,0,1,0,196.06,196.06,0,0,1,3-36.66c.11-.63-.85-.9-1-.27Z"/><path class="cls-6" d="M203,218.58l1.29,43.86c0,.64,1,.64,1,0L204,218.58c0-.64-1-.64-1,0Z"/><path class="cls-6" d="M247.65,275.4q-18.73.92-37.49.41a.5.5,0,0,0,0,1q18.75.52,37.49-.41c.64,0,.64-1,0-1Z"/><path class="cls-6" d="M242.06,279.61q-8.06.33-16.12.32a.5.5,0,0,0,0,1q8.06,0,16.12-.32c.64,0,.64-1,0-1Z"/><path class="cls-6" d="M198.3,269.5c-1.37.18-6.48.94-4.52,3.25,1,1.17,3.11,1.78,4.54,2.19a38.86,38.86,0,0,0,6,1c.64.08.63-.92,0-1a32.16,32.16,0,0,1-6.44-1.21c-.91-.31-2.61-.73-3-1.73s.36-.81,1.19-1.08a12.23,12.23,0,0,1,2.2-.47c.63-.08.64-1.08,0-1Z"/><path class="cls-6" d="M189.08,275a12.79,12.79,0,0,0,5.78,2.41c.63.1.9-.87.27-1a12.17,12.17,0,0,1-5.54-2.31c-.52-.38-1,.48-.5.86Z"/><path class="cls-6" d="M242.58,120.3v-.06a.5.5,0,0,0-1,0l-.06,3.59a.5.5,0,0,0,1,0l.06-3.59h-1v.06c.06.63,1.06.64,1,0Z"/><path class="cls-6" d="M241.67,123.56a27.78,27.78,0,0,1-10,.17c-.63-.1-.9.86-.27,1a29.27,29.27,0,0,0,10.48-.17c.63-.12.36-1.09-.27-1Z"/><path class="cls-6" d="M241.61,119.6q-5.13.38-10.28.26a.5.5,0,0,0,0,1q5.15.12,10.28-.26c.64,0,.64-1,0-1Z"/><path class="cls-6" d="M230.53,120.47c0,1-.14,2-.29,3-.09.63.87.9,1,.27.16-1.09.27-2.17.32-3.27,0-.64-1-.64-1,0Z"/><path class="cls-6" d="M240.41,124.49q-.57,4.09-.78,8.21c0,.64,1,.64,1,0q.2-4,.74-7.95c.09-.63-.88-.9-1-.27Z"/><path class="cls-6" d="M231.2,124.52l1.26,8.3c.1.63,1.06.36,1-.27l-1.26-8.3c-.1-.63-1.06-.36-1,.27Z"/><path class="cls-6" d="M239.26,77.3c-2.9-.16-6.55-.14-8.2,2.74-1.81,3.15-1,8.08-.6,11.46.57,4.39,1.36,8.78,2.11,13.14.89,5.18,2.4,9.93,1.65,15.25-.09.63.87.9,1,.27,1-7.09-1.38-14.13-2.53-21.09a84.8,84.8,0,0,1-1.58-12.33c0-2.27-.11-5.13,1.49-6.87s4.35-1.7,6.69-1.57c.64,0,.64-1,0-1Z"/><path class="cls-6" d="M240.2,79.37c1.49,2.91,1.5,6.1,1.5,9.29a56.37,56.37,0,0,1-.6,9.89c-.18,1-1.08,2.92,0,3.75s3.84-.22,5-.39c.63-.1.36-1.06-.27-1-1,.16-3.41,1-4.11-.26-.19-.34.5-2.5.57-2.94a54.53,54.53,0,0,0,.46-7.16c0-4,.23-8.07-1.63-11.72-.29-.57-1.16-.07-.86.5Z"/><path class="cls-6" d="M247,99.62a29.62,29.62,0,0,1,0-6.27c.11-.93.49-5.65,1.55-6.15,2.31-1.09,2.05,2.79,2.06,3.57,0,1,0,2,0,3-.08,2.3-.25,4.59-.41,6.89,0,.64,1,.64,1,0a77.71,77.71,0,0,0,.42-11.81c-.11-1.4-.4-3.43-2.22-3.21s-2.3,2.52-2.67,4a29.58,29.58,0,0,0-.72,10c.06.64,1.06.64,1,0Z"/><path class="cls-6" d="M250,102.41c-.25,3.53-7.81,2.21-9.24,5.52-.66,1.54-.66,3.52-.87,5.16q-.43,3.42-.81,6.84c-.07.64.93.63,1,0q.36-3.19.76-6.38a30.27,30.27,0,0,1,.57-4.27c.51-1.82,1.43-2.29,3.12-2.81,2.41-.73,6.24-.89,6.47-4.07,0-.64-1-.64-1,0Z"/><path class="cls-6" d="M234.75,115.4a10.74,10.74,0,0,0-4-.72c-2.13.05-4.28.7-4.6-2.19a36.14,36.14,0,0,1-.2-4.67c0-.93.06-1.87.15-2.8l.18-1.48q1.1-2.17,1.4-.46c1.58,2.61.22,6.07,1.17,8.79.61,1.74,3,1.08,4.49,1.1a.5.5,0,0,0,0-1c-1.26,0-2.87.38-3.6-1-.39-.76-.15-2.43-.21-3.29a15.43,15.43,0,0,0-.93-5c-.88-2.05-2.54-1.87-3.2.32a20.35,20.35,0,0,0-.47,5.81c0,1.76-.18,4.24.59,5.88a2.27,2.27,0,0,0,1.89,1.35,13.79,13.79,0,0,0,2.89-.29,10,10,0,0,1,4.13.67c.61.22.87-.75.27-1Z"/><path class="cls-6" d="M232.91,83.23A22.51,22.51,0,0,0,229,81.09c-.58-.25-1.09.61-.5.86a22.51,22.51,0,0,1,3.87,2.15c.53.37,1-.5.5-.86Z"/><path class="cls-6" d="M235.3,78.89l-1.15-3.67c-.19-.61-1.16-.35-1,.27l1.15,3.67c.19.61,1.16.35,1-.27Z"/><path class="cls-6" d="M237,84.5a8.21,8.21,0,0,1,.21-1.67c.15-.63-.82-.89-1-.27A9.56,9.56,0,0,0,236,84.5a.5.5,0,0,0,1,0Z"/><path class="cls-6" d="M240.55,88l2.72-1.23c.59-.26.08-1.13-.5-.86L240,87.09c-.59.26-.08,1.13.5.86Z"/><path class="cls-6" d="M233.86,97.83,230,97.12c-.63-.12-.9.85-.27,1l3.86.71c.63.12.9-.85.27-1Z"/><path class="cls-6" d="M230.77,90a10.73,10.73,0,0,0-1.61-.6.5.5,0,0,0-.27,1,9.11,9.11,0,0,1,1.37.5c.58.27,1.09-.59.5-.86Z"/><path class="cls-6" d="M227.2,101.53l-.1-1.18c-.05-.64-1.05-.64-1,0l.1,1.18c.05.64,1.05.64,1,0Z"/><path class="cls-6" d="M250.33,86.39a3.76,3.76,0,0,1,.42-1.14.5.5,0,0,0-.86-.5,4.65,4.65,0,0,0-.52,1.38c-.13.63.84.9,1,.27Z"/><path class="cls-6" d="M251.23,89.58a4.06,4.06,0,0,1,1.16-.33c.63-.08.64-1.08,0-1a5.68,5.68,0,0,0-1.66.47c-.59.27-.08,1.13.5.86Z"/><path class="cls-6" d="M249.29,91.16a1.84,1.84,0,0,0-.45-.93c-.41-.5-1.12.22-.71.71a.91.91,0,0,1,.19.49c.1.63,1.06.36,1-.27Z"/><path class="cls-6" d="M248.41,87.18a4.85,4.85,0,0,0-1.12-.94c-.55-.34-1.05.53-.5.86a3.93,3.93,0,0,1,.92.78c.43.48,1.13-.23.71-.71Z"/><path class="cls-6" d="M247.61,95.81l-1.1-.63a.5.5,0,0,0-.5.86l1.1.63a.5.5,0,0,0,.5-.86Z"/><path class="cls-6" d="M249.46,97.58a13.69,13.69,0,0,1,2.06-.4c.63-.07.64-1.07,0-1a15.42,15.42,0,0,0-2.32.44.5.5,0,0,0,.27,1Z"/><path class="cls-6" d="M251.39,94.41a2.08,2.08,0,0,1,.81-.14.5.5,0,0,0,0-1,2.85,2.85,0,0,0-1.07.18c-.6.22-.34,1.19.27,1Z"/><path class="cls-6" d="M236.39,103.8a4.21,4.21,0,0,1,.05-1c.12-.63-.85-.9-1-.27a5.29,5.29,0,0,0-.09,1.31c0,.64,1,.64,1,0Z"/><path class="cls-6" d="M238.6,95.43l.85-1c.42-.48-.28-1.19-.71-.71l-.85,1c-.42.48.28,1.19.71.71Z"/><path class="cls-6" d="M235.28,94.19l-.63-.47c-.52-.38-1,.48-.5.86l.63.47c.52.38,1-.48.5-.86Z"/><path class="cls-6" d="M235.19,89.88a9.68,9.68,0,0,0-1.43-1.39c-.5-.4-1.21.31-.71.71a9.68,9.68,0,0,1,1.43,1.39c.41.49,1.12-.22.71-.71Z"/><path class="cls-6" d="M236.85,91.72l1.64-.41a.5.5,0,0,0-.27-1l-1.64.41a.5.5,0,0,0,.27,1Z"/><path class="cls-6" d="M240,83.41l1.64-.8c.58-.28.07-1.14-.5-.86l-1.64.8c-.58.28-.07,1.14.5.86Z"/><path class="cls-6" d="M239.15,79a10.52,10.52,0,0,0,1.72-1.6c.42-.49-.29-1.2-.71-.71a9.43,9.43,0,0,1-1.52,1.44c-.51.38,0,1.25.5.86Z"/><path class="cls-6" d="M226.62,105l-1.81-.37c-.63-.13-.9.83-.27,1l1.81.37c.63.13.9-.83.27-1Z"/><path class="cls-6" d="M225.62,102.6l-1.25-.63c-.57-.29-1.08.57-.5.86l1.25.63c.57.29,1.08-.57.5-.86Z"/><path class="cls-6" d="M229.36,108.21l1.4-.8a.5.5,0,0,0-.5-.86l-1.4.8a.5.5,0,0,0,.5.86Z"/><path class="cls-6" d="M242.77,105.63a6.89,6.89,0,0,0,1.27,1.5c.48.43,1.19-.28.71-.71a6,6,0,0,1-1.11-1.3c-.34-.54-1.21,0-.86.5Z"/><path class="cls-6" d="M247,104.13l1.18.93c.5.39,1.21-.31.71-.71l-1.18-.93c-.5-.39-1.21.31-.71.71Z"/><path class="cls-6" d="M244.69,101a7.18,7.18,0,0,0-.1-1.2c-.08-.63-1.08-.64-1,0a6.71,6.71,0,0,1,.1,1.2c0,.64,1,.64,1,0Z"/><path class="cls-6" d="M238.87,105.54l-.62.4c-.54.34,0,1.21.5.86l.62-.4c.54-.34,0-1.21-.5-.86Z"/><path class="cls-6" d="M239.37,102.63a2,2,0,0,0-.65-.54c-.57-.3-1.07.56-.5.86a1.33,1.33,0,0,1,.45.39c.39.51,1.1-.2.71-.71Z"/><path class="cls-6" d="M236.61,115a.5.5,0,0,0,0-1,.5.5,0,0,0,0,1Z"/><path class="cls-6" d="M236.54,109.72l-.39-.31c-.5-.39-1.21.31-.71.71l.39.31c.5.39,1.21-.31.71-.71Z"/><path class="cls-6" d="M233.42,101.77l-1.26-.22c-.63-.11-.9.85-.27,1l1.26.22c.63.11.9-.85.27-1Z"/><path class="cls-6" d="M234.53,100.62a.5.5,0,0,0,0-1,.5.5,0,0,0,0,1Z"/><path class="cls-6" d="M238.4,99.7a3.52,3.52,0,0,0-.19-1.15c-.21-.61-1.17-.35-1,.27a2.65,2.65,0,0,1,.15.89.5.5,0,0,0,1,0Z"/><path class="cls-6" d="M232.1,93.78c-.59-.23-1.27-.16-1.86-.39s-.86.73-.27,1,1.27.16,1.86.39.86-.73.27-1Z"/><path class="cls-6" d="M232.28,86.21a.5.5,0,0,0,0-1,.5.5,0,0,0,0,1Z"/><path class="cls-6" d="M225.69,111.7l-1.73-.14c-.64-.05-.64.95,0,1l1.73.14c.64.05.64-.95,0-1Z"/><path class="cls-6" d="M227.67,110l-.4-.47c-.42-.49-1.12.22-.71.71l.4.47c.42.49,1.12-.22.71-.71Z"/><path class="cls-6" d="M226.16,107.43a2.72,2.72,0,0,0-2-.3c-.63.13-.36,1.1.27,1a1.64,1.64,0,0,1,1.2.2.5.5,0,0,0,.5-.86Z"/><path class="cls-6" d="M233.93,124.83a37.85,37.85,0,0,0,.53,7.2c.12.63,1.09.36,1-.27a36.46,36.46,0,0,1-.5-6.93.5.5,0,0,0-1,0Z"/><path class="cls-6" d="M238.76,111.57a8.19,8.19,0,0,1,2.77-.11c.64.08.63-.92,0-1a9,9,0,0,0-3,.15c-.63.14-.36,1.1.27,1Z"/><path class="cls-6" d="M239.45,114a5.5,5.5,0,0,1,1.53.42c.58.26,1.09-.6.5-.86a6.33,6.33,0,0,0-1.77-.52c-.63-.09-.9.88-.27,1Z"/><path class="cls-6" d="M227.27,112.71h-.08a.5.5,0,0,0,0,1h.08a.5.5,0,0,0,0-1Z"/><path class="cls-6" d="M228.65,106.33l1.4-1.19c.49-.42-.22-1.12-.71-.71l-1.4,1.19c-.49.42.22,1.12.71.71Z"/><path class="cls-6" d="M215,134.34a107.48,107.48,0,0,0,.49,11.45c.06.63,1.06.64,1,0a107.48,107.48,0,0,1-.49-11.45.5.5,0,0,0-1,0Z"/><path class="cls-6" d="M322.22,41.85c-2,1.45-1.94,4.4-4,5.66a.5.5,0,0,0,.5.86c2.16-1.31,2.06-4.22,4-5.66.51-.38,0-1.25-.5-.86Z"/><path class="cls-6" d="M380.61,83.06q2.25,5.49,4,11.16c.19.61,1.16.35,1-.27q-1.76-5.67-4-11.16c-.24-.59-1.21-.33-1,.27Z"/><path class="cls-6" d="M379.82,90.68a22.71,22.71,0,0,0,1.52-8.47.5.5,0,0,0-1,0,22,22,0,0,1-1.49,8.2c-.23.6.74.86,1,.27Z"/><path class="cls-6" d="M347.55,152.65l-3.95,0a10.6,10.6,0,0,0-3.17.22c-.61.2-.35,1.16.27,1a11.88,11.88,0,0,1,3.43-.19l3.42,0a.5.5,0,0,0,0-1Z"/><path class="cls-6" d="M237,155.92q-2.63-.12-5.26,0c-.64,0-.64,1,0,1q2.63-.13,5.26,0c.64,0,.64-1,0-1Z"/><path class="cls-6" d="M368.31,263.69c2.67.46,3.26,4.42,1.09,5.7a6.25,6.25,0,0,1-4.59.63,6.77,6.77,0,0,1-1.66-.67c-.65-.37-2-1.58-2-2.49a3,3,0,0,1,2.13-2.78,11.36,11.36,0,0,1,2.7-.28c.64,0,.64-1,0-1-2.32.07-5.93.47-5.91,3.54,0,2.77,3,4.55,5.46,4.81,2.26.25,5.44-.61,6.39-2.93.89-2.17-1.12-5.11-3.31-5.49-.63-.11-.9.85-.27,1Z"/><path class="cls-6" d="M459.12,262.6c2.33.25,5.57,2.09,4.15,5-.91,1.87-3.41,2.42-5.3,2.4-2.42,0-4.93-1.85-3.29-4.4.93-1.44,2.7-2,4.24-2.54.61-.2.35-1.17-.27-1-2.4.8-5.35,2.08-5.51,5s3.06,4,5.53,3.84,5.57-1.37,5.89-4.23c.36-3.18-2.77-4.84-5.44-5.13-.64-.07-.63.93,0,1Z"/><path class="cls-6" d="M201.06,253.54c-7.1.18-14.19.62-21.29.71a143.51,143.51,0,0,1-21.83-1.55c-13.56-1.89-27.48,1.36-41,2-30.38,1.39-60.81,1.17-91.21.65L6.86,255a8.73,8.73,0,0,1,0,1c33.06.64,66.11,1.23,99.17.12,8.24-.28,16.46-.59,24.66-1.46,7.84-.83,15.74-1.87,23.64-1.33,3.81.26,7.55,1.08,11.36,1.45s7.86.5,11.8.49c7.87,0,15.73-.52,23.59-.73A.5.5,0,0,0,201.06,253.54Z"/><path class="cls-6" d="M254.88,255.09q20.75.21,41.5,1c.64,0,.64-1,0-1q-20.74-.75-41.5-1a.5.5,0,0,0,0,1Z"/><path class="cls-6" d="M349.93,255.41l6.46-.07c2.23,0,4.85-.46,7,.35.6.23.86-.74.27-1-2-.76-4.23-.42-6.3-.39l-7.38.08a.5.5,0,0,0,0,1Z"/><path class="cls-6" d="M378.78,256.82l27-.57a.5.5,0,0,0,0-1l-27,.57a.5.5,0,0,0,0,1Z"/><path class="cls-6" d="M413.46,255a85.64,85.64,0,0,1,20.17.87c.63.1.9-.86.27-1a86.76,86.76,0,0,0-20.44-.9c-.64,0-.64,1,0,1Z"/><path class="cls-6" d="M455.13,256.46l48.35.23a.5.5,0,0,0,0-1l-48.35-.23a.5.5,0,0,0,0,1Z"/><path class="cls-6" d="M341.41,232.7a20.58,20.58,0,0,0-4.4.38c-.51.18-.49.2-.74.65-.52.94-.48,2.81-.62,3.84-.24,1.74-.42,3.48-.55,5.23a.5.5,0,0,0,.5.5c2-.21,4.66,0,6.23-1.38.48-.43-.23-1.14-.71-.71-1.21,1.08-4,.92-5.53,1.09l.5.5c.17-2.21.41-4.4.75-6.59.22-1.38.27-1.9,1.67-2.28a17.31,17.31,0,0,1,2.89-.25c.64-.05.64-1.05,0-1Z"/><path class="cls-6" d="M346.82,233a4.87,4.87,0,0,1,1.14-.08c.72.15.44,0,.53.74a19,19,0,0,1-.15,3.11,21.19,21.19,0,0,0,.05,5.19l.48-.63h-1a.5.5,0,0,0,0,1h1a.51.51,0,0,0,.48-.63c-.58-2.88.58-5.88.16-8.73-.22-1.49-1.44-1.05-2.71-1-.64,0-.64,1,0,1Z"/><path class="cls-6" d="M334.72,243.52c1,3.4-4.75,5.89-7.23,7.06-3,1.4-6.16,2.19-9.21,3.36-2.21.85-9.5,3.72-8,7.14,1.73,4,8.82,2.2,11.85,1.54l19.23-4.27c.63-.14.36-1.1-.27-1L324.68,261c-2.81.62-5.8,1.56-8.69,1.49-2.06-.05-5.52-.59-4.25-3.5.46-1,2.57-2.07,3.54-2.61,4.51-2.5,9.73-3.28,14.26-5.76,2.68-1.47,7.24-3.61,6.15-7.4a.5.5,0,0,0-1,.27Z"/><path class="cls-6" d="M299.86,255.72q5.56-.47,11.13-.67c.64,0,.64-1,0-1q-5.57.19-11.13.67c-.64.05-.64,1.05,0,1Z"/><path class="cls-6" d="M322.78,254.41a2,2,0,0,0-1.19-1.08c-.61-.22-.87.75-.27,1a1,1,0,0,1,.59.62c.25.59,1.11.08.86-.5Z"/><path class="cls-6" d="M327.5,254a9.36,9.36,0,0,0-2.42-1.71c-.58-.28-1.08.58-.5.86a8.5,8.5,0,0,1,2.22,1.55c.46.45,1.17-.26.71-.71Z"/><path class="cls-6" d="M332.92,253.52c-.06-.86-.78-1.19-1.48-1.55a18.79,18.79,0,0,0-2.95-1.2c-.62-.19-.88.77-.27,1a17.26,17.26,0,0,1,2.06.78c.36.17,1.61.58,1.63,1,0,.64,1,.64,1,0Z"/><path class="cls-6" d="M335.91,250a7.29,7.29,0,0,0-3.53-.8.5.5,0,0,0,0,1,6.21,6.21,0,0,1,3,.67c.57.29,1.08-.57.5-.86Z"/><path class="cls-6" d="M337.65,246.63a14,14,0,0,0-3.79,0c-.63.09-.36,1,.27,1a13.14,13.14,0,0,1,3.53,0c.64.09.63-.92,0-1Z"/><path class="cls-6" d="M383.06,241.83a12.26,12.26,0,0,1-2.46.47c-.64.05-.64,1.05,0,1a13.57,13.57,0,0,0,2.73-.51.5.5,0,0,0-.27-1Z"/><path class="cls-6" d="M381.29,238.54a9.56,9.56,0,0,1-3.24.13c-.64-.08-.63.92,0,1a10.35,10.35,0,0,0,3.5-.17c.63-.14.36-1.1-.27-1Z"/><path class="cls-6" d="M379.33,234.43a12.5,12.5,0,0,1-2.46.16.5.5,0,0,0,0,1,13.85,13.85,0,0,0,2.73-.2c.63-.11.36-1.07-.27-1Z"/><path class="cls-6" d="M377.35,229.55a3.87,3.87,0,0,0-2,.12c-.61.21-.35,1.17.27,1a2.83,2.83,0,0,1,1.47-.12c.63.12.9-.85.27-1Z"/><path class="cls-6" d="M377.28,226.28l-3.36.13c-.64,0-.64,1,0,1l3.36-.13c.64,0,.64-1,0-1Z"/><path class="cls-6" d="M381.79,214.61c-1.45-.05-3.51.42-3.48,2.27,0,1.54,1.82,2.93,3.27,3a3.16,3.16,0,0,0,3-2.87c.16-1.86-1.39-2.59-3-2.82-.63-.09-.9.87-.27,1,.83.12,1.93.26,2.21,1.2a2.17,2.17,0,0,1-1.63,2.48,2.5,2.5,0,0,1-2.54-1.65c-.36-1.41,1.4-1.58,2.39-1.55.64,0,.64-1,0-1Z"/><path class="cls-6" d="M362.88,172.69a4.73,4.73,0,0,0,1,3.25,12,12,0,0,1,2.27,4.64,13,13,0,0,0,1.41,4.36c.84,1.37,2,2.46,2.84,3.88,1.78,3.19,2.68,7,4,10.36s2.78,7,4.32,10.39c.26.59,1.13.08.86-.5q-2.35-5.23-4.38-10.58c-1.09-2.88-1.93-5.91-3.2-8.72s-3.92-5-4.63-8.23a15,15,0,0,0-1.15-4c-.89-1.64-2.48-2.71-2.3-4.8.06-.64-.94-.64-1,0Z"/><path class="cls-6" d="M348.54,147.68c6.51-1.08,12.25-4.36,18.48-6.35,3.31-1.05,6.75-1.45,10.11-2.3a45.11,45.11,0,0,0,8.31-3.19c3.13-1.49,6.18-3.16,9.44-4.36,3.74-1.39,7-1.23,10.86-.68,3.18.45,6.35.92,9.53,1.35,3.61.49,6.9.12,10.51-.1.64,0,.64-1,0-1a52.14,52.14,0,0,1-10.44.11c-3.75-.5-7.49-1.08-11.23-1.59a17.65,17.65,0,0,0-8.24.51,64.4,64.4,0,0,0-8.57,3.74,56.84,56.84,0,0,1-9.56,4c-3.48,1-7.1,1.34-10.57,2.4-6.39,2-12.24,5.38-18.9,6.48-.63.1-.36,1.07.27,1Z"/><path class="cls-6" d="M384.91,128.88c1.23,1,2.13,2.33,3.68,2.88a10.18,10.18,0,0,0,5.15,0c.63-.11.36-1.07-.27-1a8.88,8.88,0,0,1-4.62,0c-1.34-.5-2.16-1.75-3.24-2.62-.5-.4-1.21.3-.71.71Z"/><path class="cls-6" d="M379.31,71.24l3.39,3c.48.43,1.19-.28.71-.71l-3.39-3c-.48-.43-1.19.28-.71.71Z"/><path class="cls-6" d="M378.12,66.33l2.13,1.52c.52.37,1-.49.5-.86l-2.13-1.52c-.52-.37-1,.49-.5.86Z"/><path class="cls-6" d="M351.35,54.17a7,7,0,0,1,5.15.37c.58.28,1.09-.59.5-.86a8.07,8.07,0,0,0-5.92-.48.5.5,0,0,0,.27,1Z"/><path class="cls-6" d="M316,43.25a3.31,3.31,0,0,1,2.84.88c.47.44,1.18-.26.71-.71a4.38,4.38,0,0,0-3.81-1.14c-.63.11-.36,1.07.27,1Z"/><path class="cls-6" d="M276.82,76.56a3.11,3.11,0,0,0,2.71-3c.07-1.73-1.46-2.57-3-2.72s-3,.67-2.86,2.42a3.09,3.09,0,0,0,1.06,2,5.24,5.24,0,0,0,2.62.93c.63.14.89-.83.27-1-1-.22-2-.22-2.59-1.14a1.77,1.77,0,0,1-.29-1.56c.26-.64,1-.72,1.55-.69.83,0,2,.32,2.21,1.25a2.12,2.12,0,0,1-1.68,2.49c-.63.07-.64,1.07,0,1Z"/><path class="cls-6" d="M278.33,71.82q4.23-1.37,8.56-2.41c.63-.15.36-1.11-.27-1q-4.33,1-8.56,2.41c-.61.2-.35,1.16.27,1Z"/><path class="cls-6" d="M279.34,74.11c2.79-1,5.83-2.29,8.78-2.65.63-.08.64-1.08,0-1-3,.37-6.16,1.68-9,2.68-.6.21-.34,1.18.27,1Z"/><path class="cls-6" d="M276.33,75.56c-1,11.27,1.31,22.53,1,33.82-.09,2.77-.22,5.54-.16,8.31,0,1.74-.26,4.71.76,6.29.85,1.33,3.23,2,4.61,2.52a45.07,45.07,0,0,0,8,2.41c.63.13.9-.83.27-1a45.05,45.05,0,0,1-7.08-2c-1.1-.42-3.15-1-4.08-1.84-1.33-1.17-1.3-2.88-1.39-4.43-.3-5,.21-10.09.16-15.13-.09-9.67-1.89-19.26-1-28.94.06-.64-.94-.64-1,0Z"/><path class="cls-6" d="M275.73,33.86a141.64,141.64,0,0,0,6.18,16.77c2.57,5.5,6.08,10.45,9,15.76,5.49,10,7.55,21.47,13.42,31.28a.5.5,0,0,0,.86-.5c-5.72-9.54-7.77-20.68-13-30.46-2.77-5.2-6.22-10-8.83-15.32a129.54,129.54,0,0,1-6.69-17.79c-.2-.61-1.16-.35-1,.27Z"/><path class="cls-6" d="M204.74,264.86c-2.79,6.75,24.18,6.43,27.56,6.09.63-.06.64-1.07,0-1a63.27,63.27,0,0,1-13,0,60.41,60.41,0,0,1-7.18-1.19c-1.45-.33-7.5-1.16-6.46-3.67.25-.59-.72-.85-1-.27Z"/><path class="cls-6" d="M238.26,270.12c2.69.17,7,.06,9.18-1.72.7-.56.66-1.11.72-2,.15-2.2-.16-4.52.32-6.68.14-.63-.83-.89-1-.27a17.89,17.89,0,0,0-.26,3.87c0,1.13.25,3.19-.36,4.13s-3,1.26-4,1.46a18.36,18.36,0,0,1-4.64.24c-.64,0-.64,1,0,1Z"/><path class="cls-6" d="M252.06,267.84c.88.37,1.31,1.06.37,1.77a7.74,7.74,0,0,1-1.34.71,27.24,27.24,0,0,1-3.46,1.36c-.61.2-.35,1.16.27,1a29.7,29.7,0,0,0,3.12-1.19,6.9,6.9,0,0,0,2.56-1.53c1.11-1.35.06-2.51-1.24-3-.59-.25-.85.72-.27,1Z"/><path class="cls-6" d="M216.11,225.33a40.17,40.17,0,0,1-6.87,3.11c-.61.21-.35,1.17.27,1a41.58,41.58,0,0,0,7.11-3.21.5.5,0,0,0-.5-.86Z"/><path class="cls-6" d="M224.17,223.57c-4.48,3.33-9.6,5.44-14.75,7.48-.59.23-.33,1.2.27,1,5.23-2.07,10.44-4.21,15-7.58.51-.38,0-1.25-.5-.86Z"/><path class="cls-6" d="M227.33,225.55a180.35,180.35,0,0,1-17.13,10.11c-.57.3-.07,1.16.5.86a180.35,180.35,0,0,0,17.13-10.11c.53-.36,0-1.22-.5-.86Z"/><path class="cls-6" d="M228.28,229.42q-8.56,5.53-17.34,10.69a.5.5,0,0,0,.5.86q8.78-5.17,17.34-10.69c.54-.35,0-1.21-.5-.86Z"/><path class="cls-6" d="M229.74,232.44q-9.55,5.84-19.56,10.86c-.58.29-.07,1.15.5.86q10-5,19.56-10.86c.55-.34,0-1.2-.5-.86Z"/><path class="cls-6" d="M230,236.49a137.89,137.89,0,0,1-20.83,10.78c-.59.24-.33,1.21.27,1a139.37,139.37,0,0,0,21.07-10.88c.54-.34,0-1.21-.5-.86Z"/><path class="cls-6" d="M231.19,241Q220,247,208.4,252c-.59.25-.08,1.12.5.86q11.63-5,22.78-11.06c.57-.31.06-1.17-.5-.86Z"/><path class="cls-6" d="M231.5,244.72a124.62,124.62,0,0,1-22.34,9.18.5.5,0,0,0,.27,1A126,126,0,0,0,232,245.59c.57-.3.06-1.16-.5-.86Z"/><path class="cls-6" d="M232.39,247.94a214.33,214.33,0,0,1-22.73,10.45c-.59.23-.33,1.2.27,1a216.56,216.56,0,0,0,23-10.55c.57-.3.06-1.17-.5-.86Z"/><path class="cls-6" d="M232.37,252.19a153.25,153.25,0,0,1-21.89,9.1c-.61.2-.35,1.17.27,1a154.93,154.93,0,0,0,22.13-9.2c.57-.29.07-1.16-.5-.86Z"/><path class="cls-6" d="M232,255.74c.1.48-15.11,6-16.58,6.61-.59.23-.34,1.2.27,1q6-2.31,11.89-4.74c1-.43,5.73-1.41,5.38-3.1-.13-.63-1.09-.36-1,.27Z"/><path class="cls-6" d="M232.24,258.63q-7.33,3.09-14.8,5.83c-.6.22-.34,1.19.27,1q7.47-2.74,14.8-5.83c.58-.25.33-1.21-.27-1Z"/><path class="cls-6" d="M232.81,262.52l.25-.12-.5-.86a83.33,83.33,0,0,1-8.35,3.7c-.6.23-.34,1.19.27,1a85.72,85.72,0,0,0,8.59-3.8c.57-.29.07-1.15-.5-.86l-.25.12c-.58.29-.07,1.15.5.86Z"/><path class="cls-6" d="M232.79,263.82a33.47,33.47,0,0,1-4,1.9c-.59.24-.33,1.2.27,1a35.44,35.44,0,0,0,4.21-2,.5.5,0,0,0-.5-.86Z"/><path class="cls-6" d="M207.78,224.67q8.95,12.41,18.58,24.31c.4.5,1.11-.21.71-.71q-9.55-11.79-18.42-24.1c-.37-.52-1.24,0-.86.5Z"/><path class="cls-6" d="M214.37,226.76a84,84,0,0,0,12,15.12.5.5,0,0,0,.71-.71,82.88,82.88,0,0,1-11.85-14.92c-.34-.55-1.2,0-.86.5Z"/><path class="cls-6" d="M219.75,227.27a46.58,46.58,0,0,0,9.09,10.39c.49.41,1.2-.29.71-.71a45.69,45.69,0,0,1-8.93-10.19c-.35-.54-1.21,0-.86.5Z"/><path class="cls-6" d="M207.91,235.11a19.55,19.55,0,0,0,3.38,4.79q2.66,3.26,5.42,6.42,5.37,6.16,11.13,12c.45.46,1.16-.25.71-.71q-5.09-5.15-9.9-10.57-2.32-2.62-4.57-5.31c-1.73-2.07-4.2-4.36-5.2-6.87-.24-.59-1.2-.33-1,.27Z"/><path class="cls-6" d="M208,244.78a115.52,115.52,0,0,0,18.84,19.16c.5.4,1.21-.3.71-.71a115.52,115.52,0,0,1-18.84-19.16c-.39-.51-1.1.2-.71.71Z"/><path class="cls-6" d="M209.24,253.56a74.46,74.46,0,0,0,14.6,13.72c.52.37,1-.49.5-.86a73.52,73.52,0,0,1-14.4-13.56c-.41-.5-1.11.21-.71.71Z"/><path class="cls-6" d="M366.68,58.27a31.48,31.48,0,0,1,32.88,13.26c3.89,5.88,6.58,12.61,9.6,19,1.63,3.42,3.5,6.82,4.84,10.37,1.62,4.28.82,8.26-.38,12.53a.5.5,0,0,0,1,.27c1-3.74,2-7.51.94-11.36-1-3.66-3-7.11-4.65-10.51-3.53-7.41-6.58-15.51-11.44-22.18a32.47,32.47,0,0,0-33-12.29c-.63.14-.36,1.1.27,1Z"/><path class="cls-6" d="M279.85,32.25q24-16.56,49.24-31.31a.5.5,0,0,0-.5-.86Q303.4,14.82,279.35,31.39c-.53.36,0,1.23.5.86Z"/><path class="cls-6" d="M309.8,97.49q20.34,1.63,40.76,1.8a.5.5,0,0,0,0-1q-20.41-.17-40.76-1.8c-.64-.05-.64.95,0,1Z"/><path class="cls-6" d="M283.85,43.32a26.4,26.4,0,0,1,7-3.16.5.5,0,0,0-.27-1,27.37,27.37,0,0,0-7.28,3.26c-.54.34,0,1.21.5.86Z"/><path class="cls-6" d="M310.68,85.1q11.49-.44,23-.45a.5.5,0,0,0,0-1q-11.5,0-23,.45c-.64,0-.64,1,0,1Z"/><path class="cls-6" d="M302.83,72.92a35.71,35.71,0,0,0,5.88-.57c.63-.11.36-1.08-.27-1a34.07,34.07,0,0,1-5.61.53.5.5,0,0,0,0,1Z"/><path class="cls-6" d="M298.87,63l3.24-.54c.63-.11.36-1.07-.27-1l-3.24.54c-.63.11-.36,1.07.27,1Z"/><path class="cls-6" d="M292.27,51.74a18.11,18.11,0,0,0,4.35-1.84.5.5,0,0,0-.5-.86A17.06,17.06,0,0,1,292,50.78a.5.5,0,0,0,.27,1Z"/><path class="cls-6" d="M404.64,155.18l0,3.34a.5.5,0,0,0,1,0l0-3.34a.5.5,0,0,0-1,0Z"/><path class="cls-6" d="M409.78,177.77c-.55,11.37-1,22.78,1,34,.11.63,1.08.36,1-.27-2-11.17-1.5-22.5-1-33.77,0-.64-1-.64-1,0Z"/><path class="cls-6" d="M458.47,266.27c.44.25.31,1-.26.85s-.9.85-.27,1a1.44,1.44,0,0,0,1-2.68.5.5,0,0,0-.5.86Z"/><path class="cls-6" d="M365.06,265.68c.54.26.51,1-.16,1.06s-.64,1,0,1a1.54,1.54,0,0,0,.66-2.93c-.58-.28-1.08.58-.5.86Z"/><path class="cls-6" d="M205.59,222l0,40.26a.5.5,0,0,0,1,0l0-40.26a.5.5,0,0,0-1,0Z"/><path class="cls-6" d="M246.92,223q-1.1,20.33-3.35,40.57c-.07.64.93.63,1,0q2.24-20.24,3.35-40.57c0-.64-1-.64-1,0Z"/><path class="cls-6" d="M345.1,272.31a.59.59,0,0,1-.46.09c-.63-.12-.9.84-.27,1a1.68,1.68,0,0,0,1.23-.19.5.5,0,0,0-.5-.86Z"/><path class="cls-6" d="M323.16,268.23a23.19,23.19,0,0,0,5.31,1.11c.64.06.64-.94,0-1a22.07,22.07,0,0,1-5-1.08c-.61-.21-.87.76-.27,1Z"/><path class="cls-6" d="M314.16,268.5a38.05,38.05,0,0,0,8.2,2.39c.63.11.9-.85.27-1a38.05,38.05,0,0,1-8.2-2.39c-.59-.25-.85.72-.27,1Z"/><path class="cls-6" d="M296.5,263c-2.47,3.9,4.69,7,7.28,8.14,5.79,2.5,12.36,3.4,18.51,4.55,13.72,2.55,27.57,4.4,41.46,5.66.64.06.64-.94,0-1q-17.79-1.63-35.41-4.6c-5.56-.95-11.13-2-16.63-3.23-2.36-.54-17.2-4.51-14.35-9,.35-.55-.52-1-.86-.5Z"/><path class="cls-6" d="M295.35,275.93c17.42,6,35.87,7.4,54.12,8.72.64,0,.64-1,0-1-18.17-1.31-36.51-2.71-53.85-8.68-.61-.21-.87.76-.27,1Z"/><path class="cls-6" d="M476.55,268.15c-1.4,2.83-5.7,3.45-8.47,4.26-2.93.86-5.88,1.62-8.85,2.31-.63.15-.36,1.11.27,1,3.86-.9,7.69-1.92,11.47-3.11,2.46-.77,5.21-1.44,6.44-3.92.28-.57-.58-1.08-.86-.5Z"/><path class="cls-6" d="M489.23,270.5c-6.68,4.79-14.73,6.6-22.68,8.09-9,1.7-18.15,2.89-27.29,3.81-.63.06-.64,1.06,0,1,9.23-.93,18.44-2.13,27.55-3.84,8-1.51,16.16-3.35,22.91-8.19.52-.37,0-1.24-.5-.86Z"/><path class="cls-6" d="M475.17,282.07a122.68,122.68,0,0,1-23.37,3c-.64,0-.64,1,0,1a124.09,124.09,0,0,0,23.64-3c.63-.14.36-1.11-.27-1Z"/><path class="cls-6" d="M438.29,265.85q-8.67-.36-17.34-.28a.5.5,0,0,0,0,1q8.67-.07,17.34.28c.64,0,.64-1,0-1Z"/><path class="cls-6" d="M445.66,270.38l-27.34-.61a.5.5,0,0,0,0,1l27.34.61a.5.5,0,0,0,0-1Z"/><path class="cls-6" d="M399.14,267.58l-16.17.14a.5.5,0,0,0,0,1l16.17-.14a.5.5,0,0,0,0-1Z"/><path class="cls-6" d="M399.33,270.74l-12.17.11a.5.5,0,0,0,0,1l12.17-.11a.5.5,0,0,0,0-1Z"/><path class="cls-6" d="M422.9,278.83a314.39,314.39,0,0,1-34,.88.5.5,0,0,0,0,1,314.39,314.39,0,0,0,34-.88c.64-.05.64-1.05,0-1Z"/><path class="cls-6" d="M375.91,174a83.28,83.28,0,0,0,24.23-2.06c.63-.15.36-1.11-.27-1a82.34,82.34,0,0,1-24,2c-.64,0-.64,1,0,1Z"/><path class="cls-6" d="M409.3,171.47q11.37-.87,22.73-1.89c.64-.06.64-1.06,0-1q-11.36,1-22.73,1.89c-.64,0-.64,1,0,1Z"/><path class="cls-6" d="M403.93,178.58l3.23,2c.55.34,1-.52.5-.86l-3.23-2c-.55-.34-1,.52-.5.86Z"/><path class="cls-6" d="M400.51,179a68.34,68.34,0,0,0,6.91,4.32c.57.31,1.07-.56.5-.86a68.34,68.34,0,0,1-6.91-4.32c-.53-.37-1,.49-.5.86Z"/><path class="cls-6" d="M400.18,183l5.1,2.79c.56.31,1.07-.55.5-.86l-5.1-2.79c-.56-.31-1.07.55-.5.86Z"/><path class="cls-6" d="M400.57,186.28a6.21,6.21,0,0,0,2.59,1.52.5.5,0,0,0,.27-1,5.12,5.12,0,0,1-2.14-1.27c-.46-.45-1.17.26-.71.71Z"/><path class="cls-6" d="M435.55,131.67a45.8,45.8,0,0,0,4.61,3.19.5.5,0,0,0,.5-.86,43.74,43.74,0,0,1-4.41-3c-.5-.39-1.21.31-.71.71Z"/><path class="cls-6" d="M436.4,135.63l3,2.12c.53.37,1-.49.5-.86l-3-2.12c-.53-.37-1,.49-.5.86Z"/><path class="cls-6" d="M436.79,139a19.37,19.37,0,0,0,2.73,1.53c.58.27,1.09-.6.5-.86a19.37,19.37,0,0,1-2.73-1.53c-.54-.36-1,.51-.5.86Z"/><path class="cls-6" d="M434.83,70.18a231,231,0,0,0,.18,33.49c0,.64,1.05.64,1,0a231,231,0,0,1-.18-33.49c0-.64-1-.64-1,0Z"/><path class="cls-6" d="M435.29,106.94q-.78,9.37-1.74,18.73c-.07.64.93.63,1,0q1-9.36,1.74-18.73c.05-.64-.95-.64-1,0Z"/><path class="cls-6" d="M433.68,127.19a11.22,11.22,0,0,0,.93,3c.27.58,1.13.08.86-.5a10.32,10.32,0,0,1-.83-2.75c-.1-.63-1.06-.36-1,.27Z"/><path class="cls-6" d="M435.29,130.93a.5.5,0,0,0,0-1,.5.5,0,0,0,0,1Z"/><path class="cls-6" d="M445.81,95.94c2.32-.1,2.44,2.53,2.57,4.25a5.24,5.24,0,0,1-.21,2.81,3.6,3.6,0,0,1-2.15,1.25.5.5,0,0,0,.27,1c3-.85,3.32-2.83,3-5.73-.23-2.23-.78-4.66-3.51-4.55-.64,0-.64,1,0,1Z"/><path class="cls-6" d="M233.56,147.82a2.36,2.36,0,0,1,.1,1c-.06.64.94.64,1,0a3.08,3.08,0,0,0-.14-1.26c-.2-.61-1.16-.35-1,.27Z"/><path class="cls-6" d="M344.22,143.44l-.16,1.25c-.08.64.92.63,1,0l.16-1.25c.08-.64-.92-.63-1,0Z"/><path class="cls-6" d="M277.41,120.71l-4-.12a.5.5,0,0,0,0,1l4,.12a.5.5,0,0,0,0-1Z"/><path class="cls-6" d="M279,124.42a28.68,28.68,0,0,0-8.11-.44c-.64.06-.64,1.06,0,1a27.72,27.72,0,0,1,7.84.41c.63.12.9-.84.27-1Z"/><path class="cls-6" d="M320.54,51.67A13.38,13.38,0,0,1,322,55a12.89,12.89,0,0,0,.71,2.66c.31.57,1.17.06.86-.5a23.47,23.47,0,0,1-.86-3.22,14.74,14.74,0,0,0-1.34-2.74c-.34-.55-1.2,0-.86.5Z"/><path class="cls-6" d="M343.94,43.68a5.11,5.11,0,0,0,0,3.27c.2.61,1.17.35,1-.27a4.19,4.19,0,0,1,0-2.74c.21-.61-.76-.87-1-.27Z"/><path class="cls-6" d="M341.29,46.93a1.51,1.51,0,0,0,.53,1.1c.49.41,1.2-.29.71-.71a.53.53,0,0,1-.23-.39c0-.64-1-.64-1,0Z"/><path class="cls-6" d="M344.3,61.43a30.26,30.26,0,0,0,.37,4.13c.1.63,1.06.36,1-.27a28.32,28.32,0,0,1-.34-3.87.5.5,0,0,0-1,0Z"/><path class="cls-6" d="M345.1,53.17a2.54,2.54,0,0,1,2.7-1.37c1.38.65-.73,2.27-1.22,2.79s.27,1.18.71.71c.71-.76,1.65-1.36,1.89-2.44a1.7,1.7,0,0,0-.84-1.92,2.49,2.49,0,0,0-2.28.1c-.77.38-1.74.95-1.93,1.85-.13.63.83.9,1,.27Z"/><path class="cls-6" d="M215.76,141c40.69-.54,81.42-1.67,121.93-5.68q16.72-1.65,33.35-4c.63-.09.36-1.05-.27-1-39.93,5.68-80.25,8-120.55,9q-17.23.45-34.47.65a.5.5,0,0,0,0,1Z"/><path class="cls-6" d="M339.4,150.3c-2.41,1.87-5.75,2-7.63,4.61-1.51,2.09-1.68,4.84-1.82,7.32-.24,4.3-.43,8.61-.65,12.92-.21,4.14-.67,8.36-.5,12.51.15,3.7,1.47,7,2.66,10.42a68.25,68.25,0,0,1,2.88,11.66c1.32,8.24,1.38,16.61,1.45,24.94a.5.5,0,0,0,1,0,185.7,185.7,0,0,0-1.14-22.78,74.84,74.84,0,0,0-2.12-10.55c-1-3.44-2.59-6.74-3.33-10.24-.82-3.92-.32-8-.12-12l.6-11.92c.17-3.48-.25-7.94,1.49-11.09,1.64-3,5.42-3.16,7.92-5.11.51-.39-.2-1.1-.71-.71Z"/><path class="cls-6" d="M447.56,83.4a21.48,21.48,0,0,0,.23,3.78c.09.63,1.06.36,1-.27a20,20,0,0,1-.19-3.51c0-.64-1-.64-1,0Z"/><path class="cls-6" d="M454.7,110.43a18.15,18.15,0,0,1,1.71,4.73c.13.63,1.1.36,1-.27a19.13,19.13,0,0,0-1.82-5c-.3-.57-1.16-.06-.86.5Z"/><path class="cls-6" d="M469.25,112.88a.5.5,0,0,0,0-1,.5.5,0,0,0,0,1Z"/><path class="cls-6" d="M442.18,190.18l5,8.63a.5.5,0,0,0,.86-.5l-5-8.63a.5.5,0,0,0-.86.5Z"/><path class="cls-6" d="M199.09,108.17l-7,.68c-.63.06-.64,1.06,0,1l7-.68c.63-.06.64-1.06,0-1Z"/><path class="cls-6" d="M198.63,100.57l-3.66.63c-.63.11-.36,1.07.27,1l3.66-.63c.63-.11.36-1.07-.27-1Z"/><path class="cls-6" d="M313,200.13,297,209.4a.5.5,0,0,0,.5.86L313.48,201a.5.5,0,0,0-.5-.86Z"/><path class="cls-6" d="M298.82,194.12a25,25,0,0,0-8.78,3.29.5.5,0,0,0,.5.86,24.18,24.18,0,0,1,8.54-3.19c.63-.11.36-1.07-.27-1Z"/><path class="cls-6" d="M395,102.28v.84a.5.5,0,0,0,1,0v-.84a.5.5,0,0,0-1,0Z"/><path class="cls-6" d="M398.6,104.18a.5.5,0,0,0,0-1,.5.5,0,0,0,0,1Z"/><path class="cls-6" d="M453.48,150.52l-.28,2c-.09.63.87.9,1,.27l.28-2c.09-.63-.87-.9-1-.27Z"/><path class="cls-6" d="M448.65,160.66a.5.5,0,0,0,0-1,.5.5,0,0,0,0,1Z"/><path class="cls-6" d="M301.52,157.29a15.24,15.24,0,0,0-3.16,3.73.5.5,0,0,0,.86.5,14.4,14.4,0,0,1,3-3.52c.49-.42-.22-1.12-.71-.71Z"/><path class="cls-6" d="M305.08,159.34l-.28.56c-.29.57.58,1.08.86.5l.28-.56c.29-.57-.58-1.08-.86-.5Z"/><path class="cls-6" d="M246,136.33h3.63a.5.5,0,0,0,0-1H246a.5.5,0,0,0,0,1Z"/><path class="cls-6" d="M266.37,136.33h1.12a.5.5,0,0,0,0-1h-1.12a.5.5,0,0,0,0,1Z"/><path class="cls-6" d="M271.68,136.61a.5.5,0,0,0,0-1,.5.5,0,0,0,0,1Z"/><path class="cls-6" d="M272,136.61h.56a.5.5,0,0,0,0-1H272a.5.5,0,0,0,0,1Z"/><path class="cls-6" d="M313,130.41l2.81-1.65a.5.5,0,0,0-.5-.86l-2.81,1.65a.5.5,0,0,0,.5.86Z"/><path class="cls-6" d="M320.88,128.23H322a.5.5,0,0,0,0-1h-1.12a.5.5,0,0,0,0,1Z"/><path class="cls-6" d="M357.79,122.63h1.68a.5.5,0,0,0,0-1h-1.68a.5.5,0,0,0,0,1Z"/><path class="cls-6" d="M354.84,123.83l-3.63.85c-.63.15-.36,1.11.27,1l3.63-.85c.63-.15.36-1.11-.27-1Z"/><path class="cls-6" d="M241.82,228.37l.28,3.63c0,.64,1,.64,1,0l-.28-3.63c0-.64-1-.64-1,0Z"/><path class="cls-6" d="M241,245.29a3.91,3.91,0,0,0,.29,2.35c.26.59,1.12.08.86-.5a2.72,2.72,0,0,1-.19-1.58c.11-.63-.85-.9-1-.27Z"/><circle class="cls-6" cx="328.68" cy="62.94" r="1.28"/><path class="cls-6" d="M395,91.82l.58.88c.36.53,1.22,0,.86-.5l-.58-.88c-.36-.53-1.22,0-.86.5Z"/><path class="cls-6" d="M442.59,96a27.16,27.16,0,0,0,.31,5.69c.1.63,1.06.36,1-.27a25.91,25.91,0,0,1-.27-5.42c0-.64-1-.64-1,0Z"/><path class="cls-6" d="M452,93.8l4.39-1.17a.5.5,0,0,0-.27-1l-4.39,1.17a.5.5,0,0,0,.27,1Z"/><path class="cls-6" d="M379.14,152.8l-1.11.74c-.53.36,0,1.22.5.86l1.11-.74c.53-.36,0-1.22-.5-.86Z"/><path class="cls-6" d="M409.58,127.76a11.85,11.85,0,0,1,1.54,2.93c.21.6,1.18.34,1-.27a12.79,12.79,0,0,0-1.65-3.17c-.37-.52-1.24,0-.86.5Z"/><path class="cls-6" d="M412,126.9a21.48,21.48,0,0,1,2.94,4.94c.25.59,1.11.08.86-.5a22.37,22.37,0,0,0-3.09-5.14c-.4-.5-1.1.21-.71.71Z"/><path class="cls-6" d="M414.94,124.8a17.94,17.94,0,0,1,4.46,5.65c.29.57,1.15.07.86-.5a18.64,18.64,0,0,0-4.61-5.86c-.49-.41-1.2.29-.71.71Z"/><path class="cls-6" d="M418.13,123a36.7,36.7,0,0,1,4.8,7.16c.29.57,1.16.07.86-.5a37.8,37.8,0,0,0-5-7.36c-.42-.49-1.12.22-.71.71Z"/><path class="cls-6" d="M421.06,121.28a13.9,13.9,0,0,1,2.45,3.41c.29.57,1.16.07.86-.5a14.79,14.79,0,0,0-2.6-3.61c-.45-.46-1.16.25-.71.71Z"/><path class="cls-6" d="M683.29,256.66q-41.7.16-83.41-.51c-29.89-.51-59.77-1.23-89.66-1.94a.5.5,0,0,0,0,1c53.46,1.28,106.92,2.57,160.39,2.65,4.32,0,8.65,0,13,0A10.83,10.83,0,0,1,683.29,256.66Z"/><path class="cls-6" d="M197.13,210.93a8.06,8.06,0,0,0-4,6.14c-.08.64.92.63,1,0a7,7,0,0,1,3.53-5.28.5.5,0,0,0-.5-.86Z"/><path class="cls-6" d="M190.84,209.53a3.57,3.57,0,0,0-2.31,2.4.5.5,0,0,0,1,.27,2.53,2.53,0,0,1,1.61-1.7c.61-.21.35-1.17-.27-1Z"/></g></g></svg>