<svg xmlns="http://www.w3.org/2000/svg" width="90" height="45"><path fill="#ABA9A8" fill-rule="nonzero" d="M27.102 21.401a17.27 17.27 0 0 0-.344 1.757 6.438 6.438 0 0 1 .741-1.288c.692-.928 1.59-1.575 2.709-1.772a4.049 4.049 0 0 1 1.645.022 8.528 8.528 0 0 1 2.504-.386c1.45 0 2.452.12 3.105.336.566.187.915.469 1.043.833a.874.874 0 0 1-.01.602c-1.49 3.883-1.735 6.057-.68 6.649 1.07.599 2.96-.883 4.107-2.796l.014-.334c.074-1.434.803-3.793 1.517-4.427.383-.34.955-.462 1.392.06.212.253.25.493.24.81-.01.296-.085.699-.212 1.185-.25.958-.664 2.099-1.077 2.924a7.892 7.892 0 0 1-.13.25c.006 1.432.335 2.097 1.3 2.224.726.096 1.75-.664 2.798-1.906-.21-1.425-.064-3.176.468-5.208.953-3.542 2.786-6.507 4.255-6.507.703 0 1.107.504 1.25 1.176.088.419.088.953.012 1.585-.149 1.238-.587 2.812-1.243 4.401-.788 1.861-1.778 3.62-2.854 5.03.102.337.238.631.402.88.521.79 1.301 1.006 2.005.666 1.085-.585 2.335-1.605 3.463-2.807a10.844 10.844 0 0 1 .26-4.34c.956-3.513 2.691-6.59 4.255-6.59.708 0 1.117.505 1.243 1.174.075.398.063.901-.02 1.517-.132.995-.456 2.308-.917 3.752a3.51 3.51 0 0 1 1.91-.556c2.762 0 3.983 2.5 3.05 5.476-.768 2.489-3.107 4.461-5.483 4.257-1.767-.143-3.037-1.16-3.75-2.755-1.062 1.023-2.181 1.876-3.199 2.421-1.525.753-3.267.277-4.276-1.25a4.577 4.577 0 0 1-.225-.38c-1.211 1.183-2.47 1.852-3.634 1.698-1.258-.166-2.089-.875-2.502-1.94a9.723 9.723 0 0 1-.951.943c-1.433 1.225-2.943 1.665-4.323.892-1.27-.711-1.692-2.08-1.487-3.903.13-1.152.495-2.466 1.103-4.132-.483-.1-1.211-.16-2.22-.16-.174 0-.348.007-.522.022.593.903.822 2.166.538 3.628-.55 3.093-3.17 5.377-5.86 4.875-2.903-.538-4.015-3.239-3.476-7.137a.874.874 0 0 1-.475-1.488c.359-.351.699-.701 1.02-1.046a14.7 14.7 0 0 1 1.276-3.043c.439-.78.91-1.443 1.386-1.992.294-.339.532-.57.682-.697a.874.874 0 0 1 1.334.256c.646 1.205-.648 3.637-3.11 6.354a14.55 14.55 0 0 0-.047.185zm-.449 2.905c-.091 2.316.673 3.704 2.18 3.984 1.638.306 3.424-1.25 3.82-3.475.28-1.45-.07-2.439-.816-2.84-.652.25-1.296.588-1.925.998a12.113 12.113 0 0 0-1.742 1.386 4.32 4.32 0 0 0-.113.113c-.449.478-1.136.295-1.404-.166zm30.793 1.674c.425 1.42 1.253 2.225 2.52 2.328 1.471.126 3.121-1.265 3.667-3.034.62-1.977.019-3.208-1.38-3.208-.589 0-1.094.278-1.534.771a3.623 3.623 0 0 0-.547.825.874.874 0 0 1-1.346.346c-.421.638-.899 1.265-1.411 1.863l.031.11zm1.12-5.295c.491-1.49.834-2.841.961-3.795l.015-.119a8.177 8.177 0 0 0-.514.81c-.603 1.069-1.176 2.494-1.558 3.899a9.05 9.05 0 0 0-.294 1.846c.614-.885 1.106-1.79 1.39-2.641zm.988-4.792zm-8.662 5.024c.596-1.443.992-2.865 1.12-3.936.011-.088.02-.173.026-.253a7.431 7.431 0 0 0-.457.664c-.647 1.046-1.245 2.455-1.658 3.992-.22.84-.365 1.611-.44 2.312a23.005 23.005 0 0 0 1.409-2.78zm1.699-4.748h0zm-.578-.25a.099.099 0 0 0-.001-.004l.001.004z"/></svg>