<svg xmlns="http://www.w3.org/2000/svg" width="90" height="45"><path fill="#ABA9A8" fill-rule="nonzero" d="M43.774 18.72v2.52h-2.768v1.643h2.768v2.52h1.743v-2.52h2.768V21.24h-2.768v-2.52h-1.743zM29.205 17.1l-3.499 5.4-3.476-5.4H20.7v10.271h1.912v-6.423l2.577 4.083h1.023l2.577-4.05v6.402H30.7V17.1h-1.496zm3.645 0v10.271h6.941v-1.698h-5.029V22.86h3.825v-1.71h-3.825v-2.374h5.063l-.023-1.676H32.85zm17.437 0v10.271h6.942v-1.698H52.2V22.86h3.825v-1.71H52.2v-2.374h5.062L57.24 17.1h-6.953zm17.427 0l-3.499 5.4-3.487-5.4h-1.53v10.271h1.912v-6.423l2.576 4.083h1.024l2.576-4.05v6.402H69.2V17.1h-1.485z"/></svg>