<svg xmlns="http://www.w3.org/2000/svg" xmlns:xlink="http://www.w3.org/1999/xlink" width="90" height="45"><defs><path id="a" d="M0 19.42V.005h14.32V19.42z"/></defs><g fill="none" fill-rule="evenodd"><g transform="translate(24.3 12.6)"><mask id="b" fill="#fff"><use xlink:href="#a"/></mask><path fill="#ABA9A8" fill-rule="nonzero" d="M10.563 4.23c.26-1.754-.85-3.505-2.468-4.043C6.46-.367 4.58.408 3.55 1.673c-.517.613-1.001 1.43-1.003 2.312-.013.889.503 1.685 1.061 2.254C4.767 7.404 6.206 8.17 7.4 9.181c2.359 1.995 4.889 4.072 6.154 6.863.268.685.325 1.456-.208 1.932-.49.506-1.19.644-1.932.77-1.523.211-3.155.049-4.668-.288-2.633-.587-5.682-1.804-6.336-4.67-.798-2.888 1.596-5.465 4.16-6.489-2.475.939-5.058 3.297-4.49 6.272.417 2.972 3.404 4.621 5.99 5.325 1.57.406 3.227.62 4.865.482.805-.084 1.656-.251 2.417-.689.943-.54 1.097-1.616.886-2.437-.647-2.523-4.523-5.893-6.263-7.345-1.239-1.032-2.644-1.82-3.768-2.889-.558-.53-1.033-1.143-1.094-1.87-.046-.725.304-1.392.784-1.988C4.825.955 6.41.26 7.858.718c1.441.44 2.351 1.938 2.137 3.432l.568.08" mask="url(#b)"/></g><path fill="#ABA9A8" fill-rule="nonzero" d="M56.922 26.066c-.923.337-1.92-.208-2.383-1.001-.49-.799-.668-1.741-1.004-2.629-.168-.442-.377-.883-.688-1.26-.44-.054-.868.531-1.161.847-.296.314-.603.746-.976.95-.36.21-.851.054-1.177-.177-.568-.611-.605-1.667-.705-2.56-.057-.751-.078-1.507-.11-2.268a27.545 27.545 0 0 0 1.832-1.983c-.605.505-1.22 1-1.857 1.448v-.02c-.03-.474-.13-1.517-.243-1.797-.09.022-.255.05-.459.09l.004.354c.003.23-.009.463-.012.696-.016.42-.04.842-.07 1.262a7.844 7.844 0 0 1-2.043 1.154c.235-2.114.632-4.075.632-4.075s-.278-.074-.497-.112c0 0-.542 2.593-1 4.45-.899.21-1.836.234-2.765.025l-.095.493c.901.206 1.828.196 2.726.02a25.11 25.11 0 0 1-.162.595c-.3 1.04-.647 2.068-1.109 3.03-.24.47-.557 1.013-.72 1.152a1.887 1.887 0 0 1-.142-.27 6.906 6.906 0 0 1-.275-.731c-.142-.443-.61-2.63-.927-3.213l-.448-.004c-.055.084-.628 1.474-.628 1.474-.203.502-.41 1.002-.674 1.45-.123.234-.282.431-.438.633-.08.097-.144.143-.144.143-.238-.475-.431-.88-.592-1.396-.193-.5-.334-1.031-.498-1.548l-.4-1.263-.46-.042-.825 1.746c-.127.252-.356.731-.514.995-.5-.763-.69-1.806-.712-2.756H34.7c.055 2.385 1.054 3.378 1.054 3.378-.079.012.353-.02.393-.032.145-.233.452-.729.694-1.28.234-.491.578-1.278.578-1.278l.18.567c.166.514.3 1.032.49 1.548.17.517.37 1.025.63 1.52l.18.374.375.077s.474-.364.845-.968c.595-.959.968-2.138 1.178-2.58.088.291.157.498.216.76.13.511.243 1.043.385 1.572.166.523.32 1.068.657 1.552l.084.137s.223.022.395.034c0 0 .354-.4.427-.52.164-.23.309-.468.435-.714.524-.978.87-2.014 1.188-3.05l.153-.514a22.68 22.68 0 0 0-.034 1.187c-.004 1.089.074 2.191.378 3.263.067.27.165.532.27.791l.056.146c.182.038.406.092.409.089l.172-.202c.296-.318.645-1.014.917-1.89.698-2.245.947-5.075.947-5.075s.035.567.057.85c.104.972.131 1.972.604 2.917.252.512.838.748 1.371.73.603-.057.915-.491 1.25-.891.62-.74 1.072-1.12 1.072-1.12.072.092.152.178.21.281.13.195.239.409.337.625.398.873.582 1.853 1.078 2.72.453.87 1.53 1.525 2.516 1.177.872-.245 2.017-.804 2.656.117-.59-.906-1.75-.44-2.582-.2m-9.811-2.894c-.144.515-.302 1.03-.521 1.506-.1.245-.283.54-.366.68-.214-.509-.448-1.628-.51-3.07-.033-.764.014-1.666.1-2.567a8.14 8.14 0 0 0 2.045-1.038 28.52 28.52 0 0 1-.748 4.489M44.265 30.335h-.315v-2.127l-.857 2.127h-.13l-.86-2.127v2.127h-.315v-2.529h.451l.79 1.949.784-1.949h.452v2.529M45.168 30.335h-.285v-1.831h.285v.292c.174-.223.378-.334.61-.334v.292a.567.567 0 0 0-.394.081.575.575 0 0 0-.216.203v1.297M47.515 28.36c0 .119.051.264.152.436.165-.081.29-.16.374-.235a.366.366 0 0 0 .127-.285.273.273 0 0 0-.083-.212.309.309 0 0 0-.217-.076.337.337 0 0 0-.25.105.365.365 0 0 0-.103.267zm.16 1.785c.19 0 .365-.083.527-.25a7.212 7.212 0 0 1-.664-.784c-.25.15-.375.333-.375.545 0 .152.05.271.15.359.1.087.22.13.362.13zm1.37.19h-.395a5.586 5.586 0 0 1-.277-.265.999.999 0 0 1-.729.31.854.854 0 0 1-.563-.183c-.148-.123-.222-.297-.222-.522 0-.18.05-.326.148-.44.099-.113.235-.218.41-.314-.129-.22-.193-.41-.193-.569 0-.167.06-.306.184-.417a.65.65 0 0 1 .453-.167.62.62 0 0 1 .41.133.45.45 0 0 1 .159.364.587.587 0 0 1-.05.244.55.55 0 0 1-.159.198 1.72 1.72 0 0 1-.191.138 4.223 4.223 0 0 1-.245.133c.08.108.18.228.296.36.09.109.19.22.3.337.11-.172.202-.365.272-.58l.243.11a3.355 3.355 0 0 1-.345.652c.157.162.321.321.493.478zM52.91 30.335h-.315v-2.127l-.858 2.127h-.129l-.86-2.127v2.127h-.315v-2.529h.45l.79 1.949.785-1.949h.451v2.529M53.812 30.335h-.284v-1.831h.284v.292c.175-.223.378-.334.611-.334v.292a.567.567 0 0 0-.395.081.571.571 0 0 0-.216.203v1.297M55.364 30.38c-.31 0-.555-.096-.74-.288l.144-.205c.063.074.15.136.26.186.11.05.224.076.343.076.137 0 .244-.03.32-.087a.273.273 0 0 0 .116-.228c0-.08-.039-.144-.117-.191a.943.943 0 0 0-.285-.106 4.873 4.873 0 0 1-.332-.084.648.648 0 0 1-.282-.163.408.408 0 0 1-.118-.305c0-.149.06-.274.182-.375.122-.101.287-.152.497-.152.28 0 .507.089.68.266l-.134.197c-.129-.154-.31-.232-.546-.232a.488.488 0 0 0-.296.082.248.248 0 0 0-.11.207c0 .06.028.111.084.151.055.04.126.07.21.087.085.018.176.041.273.069.098.028.189.058.273.093a.47.47 0 0 1 .294.449.494.494 0 0 1-.187.398c-.125.104-.302.155-.53.155M58.394 30.38c-.41 0-.733-.134-.97-.401l.189-.243c.21.243.474.364.793.364.204 0 .355-.044.451-.133a.406.406 0 0 0 .144-.307.324.324 0 0 0-.112-.252.677.677 0 0 0-.277-.146c-.11-.03-.23-.065-.36-.104-.13-.04-.25-.08-.36-.123a.643.643 0 0 1-.277-.209.563.563 0 0 1-.112-.356c0-.208.082-.377.246-.508a.972.972 0 0 1 .627-.197c.371 0 .67.118.895.356l-.19.231c-.18-.202-.424-.303-.732-.303a.598.598 0 0 0-.374.112.35.35 0 0 0-.146.29c0 .088.037.161.112.22a.739.739 0 0 0 .277.128c.11.028.23.063.36.105.13.041.25.086.36.132.11.047.203.122.278.226a.627.627 0 0 1 .112.375c0 .205-.077.38-.23.525-.153.146-.388.218-.704.218M62.32 30.335h-.284V29.09c0-.252-.113-.379-.338-.379a.637.637 0 0 0-.486.28v1.343h-.284V29.09c0-.252-.112-.379-.337-.379a.505.505 0 0 0-.268.084.699.699 0 0 0-.214.2v1.339h-.285v-1.831h.285v.265a.723.723 0 0 1 .24-.21c.113-.067.231-.1.355-.1.132 0 .24.03.323.094a.451.451 0 0 1 .167.246c.055-.09.14-.17.254-.238a.689.689 0 0 1 .36-.103c.342 0 .512.185.512.554v1.323M62.927 30.335h.285v-1.831h-.285v1.83zm.28-2.148a.184.184 0 0 1-.136.055.19.19 0 0 1-.136-.055.18.18 0 0 1-.057-.134c0-.053.019-.099.057-.137a.186.186 0 0 1 .136-.057.18.18 0 0 1 .135.057.19.19 0 0 1 .055.137.183.183 0 0 1-.055.134zM64.285 30.38c-.273 0-.41-.142-.41-.428v-1.198h-.303v-.25h.303v-.5h.289v.5h.372v.25h-.372v1.137c0 .07.015.128.047.171a.158.158 0 0 0 .135.064.248.248 0 0 0 .193-.08l.084.217a.475.475 0 0 1-.338.117M66.497 30.335h-.285v-1.206c0-.154-.035-.262-.106-.324-.07-.062-.173-.093-.307-.093a.623.623 0 0 0-.306.084.694.694 0 0 0-.233.2v1.339h-.285v-2.529h.285v.963a.837.837 0 0 1 .28-.22.807.807 0 0 1 .372-.09c.39 0 .585.194.585.583v1.293"/></g></svg>