<svg xmlns="http://www.w3.org/2000/svg" xmlns:xlink="http://www.w3.org/1999/xlink" width="572" height="302"><defs><path id="a" d="M.303.741h140.226v81.634H.303V.74z"/><path id="c" d="M.982.823h89.102v94.458H.982z"/><path id="e" d="M0 33.528V.166h87.804v33.362H0z"/><path id="g" d="M2.158 9H.834V.369h1.324z"/></defs><g fill="none" fill-rule="evenodd"><path fill="#F2F2F2" d="M511.2 80.366a2.272 2.272 0 0 1 1.368.01 3.5 3.5 0 0 1 .553-.574c-.657.138-1.304.322-1.943.54l.022.024m-59.614-7.361c.123-.236.3-.458.512-.658.374-.901.08-1.796-.897-2.686-2.811-2.66 1.437-6.898 4.243-4.242 1.589 1.505 2.515 3.414 2.704 5.389 1.13 1.434 2.542 2.59 4.26 3.374.034.016.069.026.104.04 3.369.68 6.862.577 10.174-.363 5.778-1.64 10.728-6.505 17.122-4.582 2.617.787 4.678 2.607 6.996 3.95 3.86 2.238 7.648 1.077 11.778.32 4.453-.816 9.086-.936 12.7 1.548 3.547.88 7.1 2.212 10.063 3.135 3.48 1.083 6.286 3.094 4.32 7.07-.165.337-.426.633-.701.919-.194.68-.594 1.275-1.187 1.633-.142.402-.23.779-.228 1.116 1.98 2.547 7.234 1.444 9.885 1.99 1.977.409 3.945 1.162 5.649 2.253 2.024 1.297 4.712 3.695 4.794 6.31 2.317.032 5.522.17 7.997.892.356-.13.767-.082 1.045.274.385-.306.91-.473 1.59-.4.226.025.444.075.658.137l.006-.047c.676.252 1.389.55 2.043.927.336.019.687.109 1.043.288 2.517 1.267 3.385 4.147 1.717 6.528-2.547 3.636-7.93 1.624-11.581 2.477-.156.103-.32.195-.474.299-.613.412-1.212.492-1.747.367-3.5 1.18-6.913 2.669-10.697 1.502-1.885-.582-3.427-1.813-4.92-3.047-2.524-2.09-3.65-4.063-7.812-2.31-.742.314-1.46 1.187-2.186 1.604-4.26 2.45-18.36 2.899-17.013-5.185.295-1.773 1.626-3.412 3.235-4.588-3.088-2.61-7.16-2.048-10.325-4.5-.542-.42-.924-.9-1.196-1.42-.968.276-2.052-.084-2.277-1.357a10.52 10.52 0 0 1-.116-2.944 2.143 2.143 0 0 1-1.055-.342c-3.34-2.203-10.335.347-12.064-4.655-1.024-2.961 1.38-5.296 3.988-6.071-3.145-1.763-6.194-3.567-9.593-2.576-5.388 1.572-9.334 4.71-15.19 5.193a27.59 27.59 0 0 1-7.687-.465c-2.023-.405-4.44-2.014-6.44-2.467-2.273.629-4.856-1.54-3.432-4.266l.191-.364M500.743 38.539c3.141 1.46 4.833 4.26 7.575 6.209 3.593 2.554 7.91 2.178 12.028 1.282 1.412-.835 2.904-1.521 4.766-1.947 3.592-.822 5.205 4.414 2.051 5.633-.337.576-.899 1.046-1.747 1.26a97.422 97.422 0 0 1-3.352.798c-.564.372-1.117.793-1.67 1.289-.992.89-1.791 2.172-3.158 2.559-1.49.42-3.75-.258-5.098-.364-2.401-.191-4.77-.054-7.16.193-1.878.194-3.492-2.082-2.892-3.798 1.202-3.44-2.611-6.55-4.978-8.402-2.864-2.243.785-6.037 3.636-4.712M316.998 69.032c7.715 1.06 14.318 2.03 21.26 5.732 7.529 4.015 14.828 4.276 23.095 4.777 4.196-.246 7.904 1.474 11.81 4.226 4.799 3.383 10.059 8.817 16.489 6.879 5.799-1.746 6.856-8.568 12.898-10.08 5.723-1.431 12.219-1.417 18.324-1.671 1.486-.787 2.456-1.66 3.027-3.33 1.657-4.843 9.387-2.762 7.715 2.128-.661 1.934-1.58 3.607-2.802 5.025-.036 2.04-1.751 3.784-4 3.959l-11.502.892c-3.824.297-8.542-.36-11.106 2.772-3.316 4.048-6.357 7.242-11.755 8.34-5.064 1.033-9.95-.314-14.296-2.965-5.42-3.306-10.513-10.038-17.378-7.41-1.78.682-3.182.05-4.006-1.104-5.472-.33-10.898-.956-15.97-3.222-4.026-1.8-7.651-4.437-11.976-5.5-3.87-.95-8.01-1.192-11.953-1.733-5.08-.697-2.917-8.407 2.126-7.715"/><path fill="#F2F2F2" d="M344.415 65.281c4.033-7.078 10.17-11.888 17.856-14.465 5.025-1.685 9.36-3.071 11.033-8.663.942-3.15 1.238-5.892 4.863-6.8 3.746-.938 5.344 4.847 1.595 5.786-.187.047-2.663 7.336-3.316 8.249-1.827 2.556-4.304 4.134-7.16 5.344-3.589 1.521-7.404 2.221-10.789 4.237-3.83 2.283-6.708 5.492-8.9 9.34-1.912 3.355-7.099.335-5.182-3.028M424.114 26.096c7.41-1.668 7.607-10.463 14.413-13.406 6.644-2.874 15.076-2.755 22.107-1.99 2.914.316 4.294 4.852 1.23 5.78-.642 1.43-2.045 2.47-1.908 4.1.265 3.14 4.533 2.703 6.963 2.637.105-.002.2.016.302.025a15.287 15.287 0 0 1 3.25.062c5.886.756 8.125 5.144 13.057 7.474 3.488 1.648.447 6.823-3.03 5.18-2.893-1.367-4.573-4.023-7.283-5.57-3.64-2.077-8.135-1.45-11.246 1.286-.947.833-2.5 1.245-3.635.47-6.46-4.416-13.803-7.939-21.833-6.707a3.601 3.601 0 0 1-1.376-.052c-.55.937-1.17 1.841-1.997 2.661-2.071 2.053-4.606 3.202-7.42 3.835-3.76.847-5.365-4.936-1.594-5.785"/><path fill="#081F2C" d="M451.237 71.423c.199-6.071-6.187-7.428-10.951-7.05-3.466.275-5.535-.093-7.774-2.844-1.396-1.714-2.646-3.125-4.902-3.776-1.95-.563-4.016-.544-6.024-.457-3.476.149-6.807.398-10.036-1.11-.583-.272-.075-1.134.505-.864 4.53 2.116 9.448.393 14.194 1.126 1.58.245 3.134.725 4.44 1.67 1.424 1.033 2.202 2.575 3.432 3.78 2.345 2.295 4.96 1.426 7.83 1.353 1.746-.045 3.52.155 5.153.804 3.097 1.228 5.244 3.985 5.133 7.368-.021.642-1.021.645-1 0"/><path fill="#081F2C" d="M430.57 59.437c-1.26-2.73-3.438-4.916-6.328-5.89-2.191-.739-4.545-.662-6.801-1.07-4.333-.785-5.625-3.34-6.873-7.254-1.076-3.373-3.265-4.253-6.43-5.069-2.166-.559-3.817-1.466-5.575-2.849-4.742-3.726-11.126-4.095-15.398.678-.194.217-.506.161-.707 0-3.005-2.41-6.49-3.945-10.161-5.045-3.345-1-7.126-2.146-10.644-2.05-9.61.262-8.768 11.134-11.367 17.69-.102.257-.328.418-.615.348-3.892-.938-8.01-1.29-11.866.028-4.047 1.382-6.33 4.12-8.07 7.872-.874 1.888-1.853 2.796-3.946 3.017-4.38.465-7.837 2.04-9.452 6.453-.73 1.995-1.204 3.596-2.746 5.09-.65.627-.835-.193-1.095 1.216-.24 1.305.996 2.724 1.98 3.38 2.054 1.364 4.835 1.242 7.188 1.454 3.229.291 6.498.687 9.566 1.79 3.317 1.19 5.946 3.393 8.905 5.223 6.718 4.152 14.287 3.382 21.807 3.153 2.992-.09 5.688.304 8.097 2.186 2.972 2.321 5.159 4.806 8.79 6.208 3.03 1.17 6.344 2.257 9.586 2.603 4.536.483 7.319-1.322 9.622-5.118 1.276-2.104 2.533-3.949 4.858-4.977 3.004-1.327 6.573-1.147 9.779-1.274l6.702-.266c2.112-.084 4.87.191 6.792-.84 3.027-1.628 2.024-6.163 5.325-7.782 2.822-1.384 5.91-.236 8.693.583 4.6 1.355 9.103.525 11.717-3.84.33-.55 1.195-.048.864.505-1.42 2.37-3.621 4.133-6.333 4.803-3.528.872-6.54-.816-9.921-1.487-2.913-.577-5.728.136-6.827 3.135-.43 1.175-.65 2.454-1.385 3.495-1.773 2.51-5.25 2.283-7.968 2.39-4.27.17-8.594.157-12.85.552-2.165.201-4.337.668-6.023 2.114-1.683 1.444-2.491 3.523-3.751 5.295-3.862 5.43-10.634 3.828-16.076 2.115-3.155-.993-6.268-2.134-8.815-4.314-1.42-1.215-2.633-2.668-4.203-3.7-2.261-1.49-4.952-1.474-7.55-1.343-7.358.368-14.924.71-21.434-3.333-3.698-2.296-6.83-4.81-11.164-5.864-3.957-.963-8.135-.623-12.053-1.62-2.284-.58-4.533-2.076-4.874-4.594-.098-.729-.033-1.67.444-2.258.545-.672 1.525-.684 2.048-1.523.534-.859.809-1.87 1.137-2.817 1.046-3.035 2.825-5.5 5.825-6.853 1.513-.684 2.854-.695 4.448-.923 2.08-.299 2.824-1.142 3.583-2.94.294-.696.566-1.383.952-2.037 4.09-6.934 12.89-7.627 19.96-5.92-.205.116-.41.232-.615.35 2.43-6.13 1.736-16.204 9.834-18.142 3.484-.833 7.282.205 10.659 1.052 3.816.958 7.633 2.203 10.975 4.324 1.78 1.13 1.57 1.533 3.224.237 1.272-.998 2.789-1.705 4.359-2.085 2.873-.696 6.015-.344 8.569 1.18 1.717 1.024 3.07 2.587 4.879 3.467 1.886.917 4.06.987 5.967 1.854 2.782 1.263 3.352 3.754 4.242 6.418 1.825 5.46 6.493 4.632 11.138 5.612 3.713.782 6.687 3.281 8.265 6.702.268.581-.593 1.09-.863.505"/><path fill="#081F2C" d="M403.548 38.428c3.791-.886 3.878-5.34 5.816-8.022 1.338-1.854 3.401-2.98 5.603-3.47 2.851-.634 5.79-.1 8.537.738.535.163 2.092.945 2.634.898.931-.084.487-.204 1.071-.666.94-.748 1.64-1.457 2.777-1.962 4.814-2.14 11.256-2.19 16.375-1.51 5.334.707 10.318 2.74 14.282 6.426l-.785.102c1.77-3.515 5.813-5.076 9.612-4.515 2.417.355 4.658 1.506 6.617 2.925 2.62 1.897 4.84 5.465 8.348 5.202 2.43-.183 4.546-.813 7.02-.453 2.512.368 4.926 1.368 6.938 2.922 3.754 2.901 5.716 7.462 5.673 12.15-.006.643-1.007.644-1 0 .047-5.173-2.522-10.087-7.155-12.573a14.02 14.02 0 0 0-7.339-1.646c-1.907.103-3.867.945-5.79.625-1.504-.25-2.499-1.21-3.567-2.211-1.768-1.658-3.548-3.305-5.694-4.472-4.252-2.314-10.345-2.326-12.8 2.55-.15.3-.563.309-.785.102-4.436-4.125-10.23-6.04-16.209-6.382a40.16 40.16 0 0 0-8.575.453c-2.937.466-6.333 1.119-7.845 3.983-.096.183-.366.302-.565.23-4.99-1.822-11.956-4.111-16.152.607-2.568 2.885-2.339 7.896-6.776 8.933-.626.145-.893-.819-.266-.965"/><g transform="matrix(-1 0 0 1 562 -.741)"><mask id="b" fill="#fff"><use xlink:href="#a"/></mask><path fill="#081F2C" d="M140.046 27.261c-6.625.046-8.942-7.892-13.56-11.337-3.892-2.906-8.814-3.845-13.562-4.154-2.563-.167-5.134-.144-7.701-.105-2.027.031-4.285.096-5.01-2.348-.355-1.202-.435-2.46-.972-3.61-1.581-3.39-5.597-4.5-9.023-4.82-4.38-.41-9.466-.047-13.347 2.204-1.814 1.052-2.983 2.52-4.21 4.171-2.47 3.33-5.485 1.987-8.917 1.807-4.341-.229-6.747 2.922-6.941 7.067-.078 1.661.205 3.301.244 4.957.052 2.224-.92 2.908-2.953 3.392-2.494.593-5.154.675-7.528 1.72-1.906.836-3.091 2.157-4.148 3.901-.665 1.097-1.21 2.303-2.112 3.238-1.543 1.6-3.673 1.686-5.758 1.576-4.891-.256-9.212.194-13.018 3.632-1.66 1.5-2.736 3.314-3.763 5.273-.551 1.052-1.11 2.206-1.984 3.034-1.741 1.65-3.823.768-5.887.716-4.054-.1-8.171 2.338-9.312 6.356-1.08 3.802 1.05 6.762 4.739 7.698 2.449.621 5.302.474 7.342 2.167 2.259 1.874 2.414 5.098 3.14 7.74 1.15 4.172 4.222 6.926 8.374 8.043 5.194 1.398 10.459-.217 15.378-1.898 3.498-1.194 7.554-3.044 11.308-2.034 2.999.806 5.095 3.333 8.206 3.981 2.562.534 5.23.172 7.675-.705 2.843-1.02 4.936-3.06 7.586-4.382 4.159-2.072 7.296 1.531 10.278 3.89 2.133 1.688 4.549 2.93 7.216 3.517 2.659.586 5.443.58 8.088-.087 3.584-.903 7.485-3.59 11.175-1.665.57.296 1.076-.566.505-.865-4.78-2.493-9.702 1.594-14.535 1.992a16.705 16.705 0 0 1-8.568-1.582c-2.464-1.187-4.341-3.133-6.501-4.755-1.48-1.112-3.174-2.105-5.083-2.115-2.463-.013-4.316 1.616-6.246 2.912-2.371 1.593-5.078 2.786-7.95 3.046-3.751.342-6.17-1.392-9.244-3.133-4.616-2.615-9.568-.55-14.176 1.021-5.52 1.884-11.71 3.744-17.281.993-2.596-1.282-4.316-3.356-5.151-6.115-.592-1.955-.785-4.033-1.611-5.918-1.841-4.195-5.798-4.008-9.66-5.013-3.6-.936-5.307-4.118-3.613-7.588 1.59-3.256 5.2-4.706 8.666-4.425 1.9.154 3.662.6 5.308-.62 1.51-1.122 2.262-2.959 3.123-4.562 3.082-5.732 8.386-8.02 14.692-7.605 1.827.12 3.782.282 5.49-.53 2.008-.956 2.933-2.915 4.027-4.723 1.592-2.634 3.766-3.77 6.709-4.355 2.108-.418 4.785-.43 6.66-1.595 1.484-.922 1.456-2.42 1.374-4.019-.16-3.096-.911-7.079 1.705-9.443 3.595-3.25 9.092 1.374 12.757-2.125 1.967-1.876 2.926-4.146 5.5-5.45 2.493-1.26 5.357-1.689 8.118-1.81 2.966-.13 6.176-.024 8.917 1.243 3.028 1.398 3.382 3.661 4.229 6.525.443 1.5 1.204 2.634 2.796 3 2.753.634 6.129.005 8.95.098 6.144.2 12.727 1.267 17.079 6.026 3.489 3.817 5.986 9.597 11.97 9.555.645-.004.646-1.004 0-1" mask="url(#b)"/></g><path fill="#081F2C" d="M570.247 106.366c1.32-.964.323-2.716-.53-3.538-.707-.683-1.761-.926-2.68-1.208a20.196 20.196 0 0 0-4.92-.836c-2.296-.111-4.605.439-6.892.164-1.32-.16-2.565-.626-3.416-1.693-.66-.826-.871-1.82-1.268-2.772-.687-1.648-1.775-2.872-3.325-3.747-2.706-1.527-5.92-1.513-8.935-1.418-1.47.046-3.66.504-4.952-.507-1.124-.88-1.024-2.33-.392-3.483.402-.733 1.078-1.251 1.646-1.842 1.758-1.825 1.813-4.813-1.025-5.757-.608-.202-.348-1.168.266-.964 1.61.535 2.763 1.765 3.046 3.476.15.906.007 1.786-.434 2.589-.624 1.139-2.188 1.806-2.635 3.003-1.298 3.469 4.667 2.46 5.86 2.448 1.566-.015 3.15.036 4.689.358 2.309.484 4.595 1.603 6.05 3.509.668.874.95 1.764 1.352 2.768.973 2.434 2.659 3.144 5.122 3.096 2.986-.058 5.803-.403 8.77.222 2.05.433 4.984 1.135 6.013 3.224.685 1.389.325 2.873-.905 3.772-.521.38-1.02-.487-.505-.864M565.86 110.434c-6.308-2.67-12.222 4.136-18.626 3.188-3.045-.452-4.908-2.698-6.94-4.78-2.005-2.054-5.374-4.448-7.999-1.856-1.203 1.187-1.664 2.596-3.25 3.394-2.777 1.395-6.82.796-9.656-.149-2.688-.896-5.05-2.798-5.56-5.719-1.245-7.113 10.147-8.72 14.92-8.229.633.065.64 1.065 0 1-3.937-.406-8.168.234-11.542 2.43-5.36 3.49-.93 8.767 3.541 9.868 1.856.457 3.974.695 5.881.43 2.576-.356 3.38-2.085 4.96-3.732 1.563-1.632 3.738-1.705 5.75-.866 2.62 1.095 4.118 3.504 6.188 5.306 2.768 2.41 5.9 2.237 9.187 1.154 4.427-1.458 8.944-4.294 13.651-2.302.591.25.081 1.111-.505.863"/><path fill="#081F2C" d="M517.034 99.017c-3.003-3.592-8.407-1.63-11.867-4.489a7.28 7.28 0 0 1-2.286-3.408c-.285-.905-.203-1.727-.79-2.5-.969-1.278-3.641-1.279-5.151-1.457-2.752-.328-6.551-.624-7.619-3.75-.416-1.217-.14-2.575.594-3.608a3.917 3.917 0 0 1 1.057-1.032c.309-.202 2.624-1.028 2.186-1.485-.446-.464.26-1.172.707-.708 2.016 2.1-2.602 2.916-3.269 3.981-2.628 4.197 3.797 5.297 6.344 5.602 1.685.201 4.012.176 5.496.996.703.387.853.657 1.074 1.414.381 1.304.227 2.507 1.016 3.741.902 1.408 2.204 2.234 3.783 2.692 3.32.964 6.989.381 9.432 3.304.41.49-.294 1.201-.707.707M382.585 38.531c-3.622 2.438-4.674 6.778-6.251 10.595-1.288 3.117-2.196 5.124-5.74 5.265-9.28.37-17.962 4.684-23.976 11.735-.418.49-1.122-.22-.707-.707 5.366-6.291 12.895-10.534 21.099-11.711 2.529-.363 5.354.172 7.066-2.153 1.248-1.695 1.808-4.035 2.565-5.974 1.207-3.092 2.61-6.01 5.44-7.913.535-.361 1.036.506.504.863M484.577 79.442v3.671c0 .643-1 .644-1 0v-3.67c0-.645 1-.646 1 0M385.35 62.957c-1.004 1.338-1.185 3.032-.394 4.524.302.568-.56 1.074-.863.504-.945-1.78-.825-3.91.393-5.532.381-.51 1.25-.011.863.504M361.488 66.78c-4.319 3.366-3.824 9.58 1.041 12.149.57.301.064 1.164-.505.864-5.38-2.842-6.062-9.964-1.243-13.72.501-.392 1.214.311.707.707M354.733 71.129c-1.938.802-2.833 3.24-1.922 5.114.28.576-.582 1.084-.864.505-1.218-2.506-.04-5.523 2.52-6.583.595-.246.853.722.266.964M466.495 57.37c-3.65-1.716-2.98-6.248-.312-8.566 3.856-3.35 10.798-4.008 15.669-3.756.64.032.644 1.033 0 1-3.64-.19-7.267.36-10.75 1.423-1.713.523-3.487 1.205-4.744 2.543-1.82 1.938-2.101 5.204.642 6.494.58.273.075 1.135-.505.863"/><path fill="#081F2C" d="M467.517 48.2c-1.466-.807-2.104-2.391-1.916-4.03.244-2.117 1.877-3.713 3.337-5.108.465-.445 1.174.26.707.707-1.773 1.694-5.125 5.642-1.624 7.568.564.309.06 1.174-.504.863M499.253 59.99c-.735-3.6 5.992-4.93 8.456-5.24a18.979 18.979 0 0 1 13.456 3.409c.519.37.02 1.239-.505.863-2.931-2.097-6.321-3.3-9.938-3.417a18.043 18.043 0 0 0-5.1.554c-1.288.332-5.816 1.553-5.405 3.565.129.628-.835.898-.964.266"/><path fill="#081F2C" d="M516.935 55.94c1.078-4.506 7.144-7.89 11.253-9.11 4.713-1.399 9.888-.52 13.443 2.99.458.452-.249 1.16-.708.707-3.313-3.272-8.084-4.034-12.469-2.733-3.727 1.106-9.576 4.32-10.555 8.411-.15.625-1.114.36-.964-.266M408.56 80.128c-3.46.853-9.153 1.36-9.775-3.501-.643-5.016 4.736-7.25 8.585-8.464.615-.194.878.77.265.964-3.04.96-6.849 2.2-7.732 5.702-1.369 5.434 5.085 5.15 8.391 4.335.625-.154.891.81.266.964M502.635 87.96c.59-4.874 6.742-7.558 10.957-8.416.628-.128.897.836.266.964-3.655.744-9.698 3.116-10.223 7.453-.076.63-1.077.639-1 0M317.954 86.145l-.011 3.523c-.002.644-1.002.645-1 0l.01-3.523c.003-.644 1.003-.645 1 0M317.476 97.996l.69 4.936c.087.628-.877.9-.965.265l-.689-4.935c-.088-.63.875-.902.964-.266M318.224 111.515v4.23c0 .642-1 .643-1 0v-4.23c0-.644 1-.645 1 0M318.224 123.143v3.876c0 .644-1 .645-1 0v-3.876c0-.644 1-.645 1 0M318.626 135.12l.366 4.933c.048.64-.953.638-1 0l-.366-4.933c-.047-.642.953-.64 1 0M319.276 148.162a28.066 28.066 0 0 1-.348 6.479c-.108.632-1.07.364-.964-.267.348-2.063.444-4.125.312-6.212-.04-.643.96-.641 1 0M330.557 87.554v4.23c0 .642-1 .643-1 0v-4.23c0-.644 1-.645 1 0M330.557 99.182v1.762c0 .643-1 .644-1 0v-1.762c0-.644 1-.645 1 0M330.909 107.64v1.761c0 .643-1 .644-1 0v-1.762c0-.644 1-.645 1 0M331.114 121.529c-.643 0-.644-1 0-1s.645 1 0 1M331.98 128.43l-.348 8.103c-.027.642-1.028.645-1 0l.349-8.104c.028-.64 1.028-.645 1 0M331.614 143.933l.353 5.638c.04.642-.96.64-1 0l-.353-5.638c-.04-.643.96-.64 1 0M331.966 156.266v4.933c0 .643-1 .644-1 0v-4.933c0-.644 1-.645 1 0M344.3 93.192l.351 4.581c.05.642-.95.64-1 0l-.352-4.58c-.049-.643.951-.64 1 0M345.416 106.083l.711 3.875c.116.629-.848.898-.964.266l-.71-3.875c-.117-.63.847-.9.963-.266M346.378 114.814a9.253 9.253 0 0 0-.31 3.747c.076.638-.925.633-1 0a9.961 9.961 0 0 1 .346-4.014c.18-.615 1.146-.353.964.267M346.067 125.825l.356 1.76c.127.629-.836.898-.964.266l-.356-1.76c-.127-.63.837-.898.964-.266M347.41 135.24c-.653 1.739-.882 3.538-.624 5.383.088.629-.875.9-.964.265-.284-2.028-.098-3.993.623-5.914.224-.597 1.191-.338.964.266M346.36 147.11l.378 4.226c.058.64-.943.636-1 0l-.378-4.227c-.057-.64.943-.637 1 0M360.86 97.068v4.934c0 .643-1 .644-1 0v-4.934c0-.644 1-.645 1 0M360.508 108.696v3.172c0 .643-1 .644-1 0v-3.172c0-.644 1-.645 1 0M360.156 118.21v3.877c0 .643-1 .645-1 0v-3.876c0-.644 1-.645 1 0M360.508 130.543v4.58c0 .645-1 .646-1 0v-4.58c0-.644 1-.645 1 0M359.303 145.49c-.643 0-.645-1 0-1 .644 0 .645 1 0 1M360.156 153.094v2.467c0 .643-1 .644-1 0v-2.467c0-.644 1-.645 1 0M374.603 99.887v4.933c0 .643-1 .644-1 0v-4.933c0-.644 1-.645 1 0M374.25 112.924v4.934c0 .643-1 .644-1 0v-4.934c0-.644 1-.645 1 0M373.75 125.052c-.644 0-.645-1 0-1 .644 0 .645 1 0 1M373.88 133.23c.33 1.196.457 2.416.37 3.655-.044.64-1.045.644-1 0a9.994 9.994 0 0 0-.334-3.39c-.172-.62.793-.887.964-.266M373.193 143.58v3.877c0 .644-1 .645-1 0v-3.876c0-.644 1-.645 1 0M372.489 157.323v2.819c0 .644-1 .645-1 0v-2.82c0-.643 1-.644 1 0M371.766 168.113c.376 1.912.505 3.826.37 5.771-.044.639-1.045.644-1 0a20.821 20.821 0 0 0-.334-5.504c-.124-.629.839-.899.964-.267M372.489 179.522v5.285c0 .644-1 .645-1 0v-5.285c0-.644 1-.645 1 0M373.193 192.912v4.229c0 .643-1 .644-1 0v-4.23c0-.643 1-.644 1 0M372.84 205.245c.119.939.236 1.88.354 2.819.079.637-.921.63-1 0l-.353-2.82c-.08-.636.92-.63 1 0M386.565 104.687a12.04 12.04 0 0 1 .37 4.01c-.048.636-1.049.642-1 0a11.215 11.215 0 0 0-.334-3.744c-.164-.623.8-.889.964-.266M387.64 112.924v4.23c0 .642-1 .644-1 0v-4.23c0-.644 1-.645 1 0M387.622 123.363a15.96 15.96 0 0 1 .37 4.714c-.045.638-1.045.642-1 0a15.01 15.01 0 0 0-.334-4.448c-.143-.627.82-.894.964-.266M387.956 134.07l.383 4.931c.05.641-.95.637-1 0l-.383-4.931c-.05-.643.95-.639 1 0M388.345 145.695v5.99c0 .644-1 .645-1 0v-5.99c0-.644 1-.645 1 0M387.64 158.732v4.581c0 .644-1 .645-1 0v-4.58c0-.645 1-.646 1 0M386.788 170.861c-.644 0-.645-1 0-1 .644 0 .645 1 0 1M387.288 178.113v4.229c0 .642-1 .644-1 0v-4.229c0-.644 1-.645 1 0M386.918 189.96c.316.957.44 1.947.37 2.952-.045.639-1.045.644-1 0a6.868 6.868 0 0 0-.334-2.685c-.203-.613.762-.875.964-.266M387.309 199.468l.353 2.114c.105.63-.858.9-.964.266l-.353-2.115c-.105-.629.858-.9.964-.266M387.993 208.064v2.818c0 .644-1 .645-1 0v-2.818c0-.644 1-.645 1 0M388.345 216.873v2.819c0 .644-1 .645-1 0v-2.82c0-.643 1-.644 1 0M387.993 226.739v3.172c0 .643-1 .644-1 0v-3.172c0-.643 1-.645 1 0M387.635 235.058c.404.995.494 2.031.334 3.09-.096.633-1.06.363-.964-.267.133-.879-.002-1.738-.334-2.557-.242-.596.725-.856.964-.266M387.993 244.71v3.524c0 .644-1 .645-1 0v-3.524c0-.643 1-.645 1 0M390.107 256.69v3.524c0 .644-1 .645-1 0v-3.524c0-.643 1-.644 1 0M388.902 269.523c-.644 0-.645-1 0-1 .644 0 .645 1 0 1M389.402 275.719v3.875c0 .644-1 .646-1 0v-3.875c0-.644 1-.645 1 0M389.402 285.937v3.523c0 .644-1 .645-1 0v-3.523c0-.644 1-.645 1 0M402.087 103.41l.353 3.877c.058.64-.943.637-1 0l-.353-3.876c-.058-.641.942-.637 1 0M401.94 115.539c-.644 0-.645-1 0-1 .644 0 .645 1 0 1M402.087 121.382v3.17c0 .643-1 .644-1 0v-3.17c0-.645 1-.645 1 0M402.815 130.542l.35 4.58c.048.643-.952.64-1 0l-.35-4.58c-.049-.643.951-.64 1 0M402.792 140.761v4.581c0 .644-1 .645-1 0v-4.58c0-.645 1-.646 1 0M402.44 150.276v4.228c0 .643-1 .644-1 0v-4.228c0-.644 1-.645 1 0M402.31 162.237v2.663c0 .644-1 .645-1 0v-2.663c0-.644 1-.645 1 0M402.31 171.027v1.864c0 .644-1 .645-1 0v-1.864c0-.644 1-.645 1 0M401.777 178.485v4.262c0 .643-1 .644-1 0v-4.262c0-.644 1-.645 1 0M402.043 188.606v3.996c0 .644-1 .645-1 0v-3.996c0-.643 1-.645 1 0M400.977 199.261v5.86c0 .643-1 .644-1 0v-5.86c0-.644 1-.645 1 0M401.244 213.112l.266 2.663c.065.641-.936.636-1 0l-.266-2.663c-.064-.64.937-.636 1 0M400.477 222.402c-.643 0-.645-1 0-1 .644 0 .645 1 0 1M401.467 227.9a16.62 16.62 0 0 1 .072 5.062c-.087.635-1.051.365-.965-.265a14.997 14.997 0 0 0-.071-4.53c-.106-.63.858-.902.964-.267M401.236 239.08a16.25 16.25 0 0 1 .27 4.396c-.05.638-1.05.644-1 0 .105-1.39.035-2.76-.234-4.13-.124-.628.84-.898.964-.266M401.493 248.672l.266 1.065c.156.624-.808.89-.964.266-.09-.355-.177-.71-.266-1.065-.157-.624.808-.891.964-.266M401.764 256.128c.275.912.371 1.85.275 2.798-.064.634-1.065.64-1 0a6.414 6.414 0 0 0-.239-2.532c-.186-.618.778-.881.964-.266M402.31 269.314l-.268 5.327c-.03.641-1.03.645-1 0 .09-1.775.178-3.552.267-5.327.032-.64 1.032-.645 1 0M403.109 286.628l.266 3.196c.053.642-.947.638-1 0-.09-1.065-.178-2.131-.266-3.196-.054-.642.947-.638 1 0M402.875 299.114c-.644 0-.645-1 0-1 .644 0 .645 1 0 1M417.492 95.38v3.996c0 .644-1 .645-1 0V95.38c0-.644 1-.645 1 0M416.427 107.1v1.864c0 .644-1 .645-1 0V107.1c0-.644 1-.645 1 0M416.693 114.292v4.528c0 .644-1 .645-1 0v-4.528c0-.644 1-.645 1 0M416.665 125.344a26.26 26.26 0 0 0-.233 5.462c.038.642-.962.641-1 0a27.456 27.456 0 0 1 .269-5.729c.095-.633 1.059-.364.964.267M416.444 137.071l-.537 3.462c-.098.634-1.062.365-.964-.266l.537-3.462c.098-.634 1.062-.365.964.266M415.894 147.054v2.397c0 .644-1 .645-1 0v-2.397c0-.644 1-.645 1 0M416.142 156.51a8.98 8.98 0 0 1 0 3.195c-.113.633-1.077.366-.964-.265a7.545 7.545 0 0 0 0-2.664c-.113-.629.851-.9.964-.266M416.409 163.17a9.218 9.218 0 0 1 .284 3.063c-.048.637-1.05.643-1 0a8.392 8.392 0 0 0-.248-2.797c-.165-.623.8-.89.964-.266M415.894 172.891a12.903 12.903 0 0 1-.551 4.128c-.185.615-1.151.352-.964-.266.382-1.264.553-2.542.515-3.862-.02-.644.98-.644 1 0M414.828 185.677v1.864c0 .644-1 .644-1 0v-1.864c0-.644 1-.645 1 0M414.828 195.265c.09.888.178 1.776.266 2.664.064.64-.936.635-1 0l-.266-2.664c-.064-.64.937-.635 1 0M415.615 203.123c.182 1.089.108 2.155-.275 3.195-.22.599-1.187.34-.964-.265.318-.865.427-1.753.275-2.664-.105-.63.859-.901.964-.266M415.894 212.845v3.73c0 .643-1 .644-1 0v-3.73c0-.644 1-.645 1 0M415.394 224c-.644 0-.645-1 0-1 .644 0 .645 1 0 1M415.858 229.762l.27 1.598c.106.63-.857.9-.964.265l-.27-1.596c-.107-.63.857-.9.964-.267M415.627 238.949v4.262c0 .643-1 .644-1 0v-4.262c0-.644 1-.645 1 0M415.627 247.206l.267 2.397c.07.639-.93.634-1 0l-.267-2.397c-.07-.64.93-.634 1 0M415.894 253.865l-.267 3.729c-.045.638-1.045.643-1 0l.267-3.73c.045-.637 1.046-.643 1 0M416.693 265.052a21.394 21.394 0 0 0 .249 4.661c.104.63-.86.901-.965.266a22.644 22.644 0 0 1-.284-4.927c.034-.64 1.035-.645 1 0M415.584 275.58c.3 1.15.32 2.306.071 3.467-.135.629-1.1.362-.965-.266a6.234 6.234 0 0 0-.07-2.934c-.163-.623.801-.89.964-.266M415.577 286.363a13.586 13.586 0 0 1-.677 4.689c-.2.61-1.166.349-.965-.265a12.75 12.75 0 0 0 .642-4.424c-.02-.644.98-.643 1 0M431.115 92.715l.262 4.262c.039.642-.961.64-1 0l-.262-4.262c-.04-.643.96-.641 1 0M430.577 104.67c-.644 0-.645-1 0-1 .643 0 .644 1 0 1M430.31 111.595c-.643 0-.645-1 0-1 .644 0 .645 1 0 1M431.077 118.287l.266 3.996c.042.643-.958.64-1 0l-.267-3.996c-.043-.642.957-.64 1 0M431.61 131.872v3.463c0 .643-1 .644-1 0v-3.463c0-.644 1-.645 1 0M431.426 142.777l-.435 5.07c-.054.635-1.055.641-1 0l.435-5.07c.055-.637 1.055-.643 1 0M430.544 154.246v2.397c0 .644-1 .645-1 0v-2.397c0-.644 1-.645 1 0M430.011 162.504v3.729c0 .643-1 .644-1 0v-3.73c0-.643 1-.644 1 0M429.511 174.19c-.644 0-.645-1 0-1 .644 0 .645 1 0 1M430.277 179.817l-.266 4.262c-.04.638-1.04.643-1 0 .09-1.42.177-2.842.266-4.262.04-.64 1.041-.645 1 0M429.478 190.471v2.93c0 .643-1 .644-1 0v-2.93c0-.644 1-.645 1 0M428.679 200.593v2.397c0 .643-1 .644-1 0v-2.398c0-.644 1-.645 1 0M428.155 211.247l.268 3.995c.043.643-.957.64-1 0-.09-1.332-.18-2.663-.268-3.995-.043-.643.957-.64 1 0M429.478 221.369v3.995c0 .644-1 .645-1 0v-3.995c0-.644 1-.645 1 0M428.661 230.825c.09.622.177 1.243.266 1.864.09.63-.873.903-.964.267l-.266-1.865c-.09-.63.873-.902.964-.266M428.928 238.55c.288 1.454.388 2.913.284 4.394-.045.639-1.045.644-1 0 .099-1.39.023-2.76-.248-4.129-.125-.627.839-.898.964-.266M429.433 251.873a7.625 7.625 0 0 1-.524 4.39c-.252.589-1.114.08-.864-.504a6.399 6.399 0 0 0 .424-3.62c-.108-.63.856-.9.964-.266M428.146 270.912l-.266 3.196c-.053.637-1.054.643-1 0 .09-1.065.177-2.131.266-3.196.053-.637 1.054-.642 1 0M427.614 280.235l.533 5.061c.067.64-.933.634-1 0l-.533-5.06c-.067-.64.933-.636 1 0M444.922 87.39c.105 1.746.011 3.47-.26 5.196-.1.634-1.064.365-.965-.266.257-1.637.325-3.277.225-4.93-.039-.644.961-.642 1 0M443.894 100.142c-.644 0-.645-1 0-1 .644 0 .645 1 0 1M444.927 106.302v5.06c0 .644-1 .645-1 0v-5.06c0-.645 1-.646 1 0M445.194 118.553v4.795c0 .643-1 .644-1 0v-4.795c0-.644 1-.645 1 0M444.122 130.806a19.968 19.968 0 0 1-.26 4.931c-.111.632-1.075.364-.965-.266.272-1.549.339-3.098.225-4.665-.046-.642.954-.639 1 0M443.063 143.06v3.461c0 .643-1 .644-1 0v-3.462c0-.644 1-.645 1 0M443.628 151.847l.278 5.06c.035.643-.965.641-1 0l-.278-5.06c-.035-.644.965-.642 1 0M443.329 165.433v3.463c0 .643-1 .644-1 0v-3.463c0-.644 1-.645 1 0M443.045 175.422c.266 1.096.366 2.204.284 3.33-.046.638-1.046.643-1 0a9.832 9.832 0 0 0-.248-3.063c-.152-.626.812-.893.964-.267M443.329 184.611c-.073 1.389.003 2.76.249 4.129.112.629-.851.899-.965.266a19.04 19.04 0 0 1-.284-4.395c.034-.64 1.034-.644 1 0M443.063 195.265v3.73c0 .643-1 .644-1 0v-3.73c0-.644 1-.645 1 0M443.596 206.985l-.267 2.931c-.057.635-1.058.641-1 0l.267-2.93c.058-.636 1.058-.643 1 0M443.063 217.64v2.396c0 .644-1 .645-1 0v-2.396c0-.644 1-.645 1 0M443.063 227.761v1.332c0 .644-1 .645-1 0v-1.332c0-.644 1-.645 1 0M443.329 239.215v3.73c0 .643-1 .644-1 0v-3.73c0-.644 1-.644 1 0M443.311 250.003l.266 1.865c.09.629-.873.902-.964.266l-.266-1.864c-.09-.63.873-.902.964-.267M443.596 258.393v4.795c0 .642-1 .644-1 0v-4.795c0-.644 1-.645 1 0M442.766 271.974l-.265 2.664c-.064.635-1.064.641-1 0l.265-2.664c.063-.634 1.064-.64 1 0M442.563 269.281c-.644 0-.645-1 0-1 .643 0 .645 1 0 1M457.722 85.525a21.64 21.64 0 0 0 .225 4.93c.103.63-.861.9-.964.266a22.769 22.769 0 0 1-.261-5.196c.042-.639 1.042-.644 1 0M458.245 97.245l-.267 3.995c-.042.639-1.043.644-1 0l.267-3.995c.042-.64 1.042-.644 1 0M458.48 108.567c.267 1.915.295 3.808.052 5.728-.08.63-1.08.637-1 0a20.68 20.68 0 0 0-.015-5.462c-.087-.629.876-.902.964-.266M470.498 85.79a9.52 9.52 0 0 1-.551 3.863c-.216.6-1.183.342-.964-.265a8.827 8.827 0 0 0 .515-3.597c-.04-.643.96-.64 1 0M470.746 97.111l-.533 2.131c-.156.624-1.12.36-.964-.266l.533-2.131c.156-.624 1.12-.359.964.266M459.044 122.283v3.463c0 .642-1 .644-1 0v-3.463c0-.644 1-.645 1 0M459.035 133.6c.29.91.385 1.851.271 2.8-.075.63-1.076.638-1 0a5.89 5.89 0 0 0-.235-2.534c-.196-.615.769-.877.964-.266M458.544 142.76c-.644 0-.645-1 0-1 .644 0 .645 1 0 1M459.577 148.12v4.528c0 .644-1 .645-1 0v-4.528c0-.644 1-.645 1 0M459.31 162.504v3.995c0 .644-1 .645-1 0v-3.995c0-.644 1-.645 1 0M458.778 172.891l.266 2.664c.064.64-.936.635-1 0l-.266-2.664c-.064-.64.936-.636 1 0M460.11 183.546v3.729c0 .644-1 .645-1 0v-3.73c0-.643 1-.644 1 0M460.118 192.603a12.047 12.047 0 0 0 .228 3.598c.137.628-.827.895-.964.265a12.955 12.955 0 0 1-.264-3.863c.053-.638 1.053-.643 1 0M460.642 202.458v3.729c0 .643-1 .644-1 0v-3.73c0-.643 1-.644 1 0M461.442 216.042v1.332c0 .644-1 .645-1 0v-1.332c0-.644 1-.645 1 0M460.877 223.896a18.096 18.096 0 0 0-.225 4.397c.043.643-.957.64-1 0a19.125 19.125 0 0 1 .26-4.663c.112-.632 1.076-.364.965.266M460.912 235.486l.312 3.725c.054.641-.946.637-1 0l-.312-3.725c-.054-.642.946-.638 1 0M460.665 247.334l.844 5.854c.09.629-.873.9-.965.265l-.843-5.853c-.091-.63.872-.902.964-.266M460.642 261.323v3.996c0 .643-1 .645-1 0v-3.996c0-.644 1-.645 1 0M460.642 272.51v6.393c0 .643-1 .644-1 0v-6.393c0-.644 1-.645 1 0M461.175 284.763v3.196c0 .644-1 .645-1 0v-3.196c0-.644 1-.645 1 0M460.56 294.499c.407 2.169.294 4.306-.37 6.412-.192.61-1.157.35-.963-.266.608-1.932.743-3.887.37-5.88-.118-.63.845-.9.964-.266M469.965 107.367v2.13c0 .643-1 .645-1 0v-2.13c0-.644 1-.645 1 0M469.198 115.857c-.643 0-.645-1 0-1 .644 0 .645 1 0 1M469.432 121.75v1.332c0 .644-1 .645-1 0v-1.332c0-.644 1-.645 1 0M469.698 133.47v3.995c0 .644-1 .645-1 0v-3.996c0-.643 1-.645 1 0M468.872 145.46l.256 2.132c.077.638-.924.632-1 0l-.256-2.132c-.076-.638.924-.632 1 0M469.97 155.046a4.025 4.025 0 0 0 .237 2c.23.602-.736.862-.964.266a4.67 4.67 0 0 1-.273-2.266c.08-.63 1.081-.638 1 0M470.273 162.361l.26 1.599c.104.63-.86.9-.963.265l-.261-1.598c-.103-.63.86-.901.964-.266M470.231 170.76a18.876 18.876 0 0 1-.284 4.395c-.114.632-1.078.364-.964-.266.247-1.369.323-2.74.248-4.129-.034-.644.966-.642 1 0M469.198 181.116c-.643 0-.645-1 0-1 .644 0 .645 1 0 1M470.231 185.943v3.463c0 .643-1 .644-1 0v-3.463c0-.644 1-.645 1 0M470.243 194.595l.266 1.865c.089.63-.874.902-.965.266l-.265-1.864c-.09-.63.874-.902.964-.267M470.77 202.585l.535 2.13c.156.625-.807.89-.964.266l-.535-2.13c-.157-.624.807-.891.964-.266M471.03 209.916v1.864c0 .644-1 .645-1 0v-1.864c0-.644 1-.645 1 0M471.03 216.308v1.598c0 .643-1 .644-1 0v-1.598c0-.644 1-.645 1 0M471.563 221.102v2.931c0 .643-1 .644-1 0v-2.93c0-.644 1-.646 1 0M472.096 229.094v2.397c0 .643-1 .644-1 0v-2.398c0-.643 1-.644 1 0M472.078 236.952a5.91 5.91 0 0 1 .284 2.264c-.043.638-1.043.643-1 0a5.143 5.143 0 0 0-.248-1.998c-.201-.614.764-.876.964-.266M472.629 245.875l-.267 2.13c-.078.63-1.08.639-1 0l.267-2.13c.079-.631 1.08-.64 1 0M472.362 252.267v3.196c0 .644-1 .645-1 0v-3.196c0-.644 1-.645 1 0M472.629 259.192v2.931c0 .642-1 .644-1 0v-2.93c0-.645 1-.646 1 0M472.362 270.38v1.864c0 .644-1 .645-1 0v-1.864c0-.644 1-.645 1 0M472.895 278.636v1.6c0 .642-1 .643-1 0v-1.6c0-.644 1-.645 1 0M473.143 289.158l.267 1.065c.156.625-.809.892-.965.267l-.266-1.065c-.156-.625.808-.892.964-.267M485.69 92.308c.374 1.172.546 2.375.515 3.604-.016.643-1.016.645-1 0a9.996 9.996 0 0 0-.48-3.338c-.198-.615.768-.877.964-.266M484.082 101.773v2.397c0 .643-1 .644-1 0v-2.397c0-.644 1-.645 1 0M483.316 110.53c-.643 0-.645-1 0-1 .644 0 .645 1 0 1M483.301 115.625c-.09 1.332-.18 2.663-.272 3.995-.043.639-1.043.644-1 0l.272-3.995c.043-.64 1.044-.644 1 0M483.55 127.077v1.065c0 .644-1 .645-1 0v-1.065c0-.644 1-.645 1 0M483.205 134.681c.318 1.634.21 3.26-.366 4.823-.22.6-1.188.34-.965-.265.515-1.397.652-2.829.367-4.29-.123-.63.841-.9.964-.268M483.283 146.788v3.995c0 .644-1 .645-1 0v-3.995c0-.644 1-.645 1 0M483.283 156.91v2.663c0 .644-1 .645-1 0v-2.663c0-.644 1-.645 1 0M483.24 166.36l-.268 1.063c-.156.624-1.121.361-.963-.265.087-.355.177-.71.266-1.066.156-.623 1.121-.359.965.267M483.265 173.824a9.416 9.416 0 0 1 0 3.195c-.107.634-1.07.366-.964-.265.15-.885.15-1.78 0-2.664-.107-.63.857-.9.964-.266M483.55 186.21v3.196c0 .644-1 .645-1 0v-3.196c0-.644 1-.645 1 0M484.082 195.798v2.663c0 .644-1 .645-1 0v-2.663c0-.643 1-.644 1 0M484.348 205.387l-.266 4.528c-.038.64-1.038.644-1 0 .09-1.509.178-3.018.266-4.528.038-.64 1.038-.644 1 0M484.082 217.107l-.267 2.131c-.078.63-1.079.638-1 0l.267-2.13c.08-.63 1.08-.639 1 0M484.597 227.629l.267 1.332c.125.628-.838.897-.965.266l-.266-1.332c-.126-.628.838-.898.964-.266M485.148 235.486v4.262c0 .643-1 .644-1 0v-4.262c0-.644 1-.645 1 0M485.402 245.74c.275.912.37 1.85.275 2.798-.064.634-1.065.64-1 0a6.412 6.412 0 0 0-.239-2.532c-.187-.62.778-.882.964-.266M485.68 255.73v2.93c0 .643-1 .644-1 0v-2.93c0-.644 1-.646 1 0M485.947 265.319v3.196c0 .644-1 .645-1 0v-3.196c0-.644 1-.645 1 0M485.447 275.314l-.257 1.865c-.087.635-1.051.365-.964-.265.085-.622.17-1.245.257-1.867.087-.634 1.05-.364.964.267M484.881 282.366v3.196c0 .644-1 .645-1 0v-3.196c0-.644 1-.645 1 0M485.947 293.552v3.463c0 .643-1 .644-1 0v-3.463c0-.643 1-.645 1 0M498.714 95.248c.29 1.274.39 2.558.284 3.86-.05.639-1.052.644-1 0a11.802 11.802 0 0 0-.248-3.594c-.142-.627.821-.895.964-.266M498.232 106.535c-.644 0-.645-1 0-1 .644 0 .645 1 0 1M498.767 113.23c-.09 1.153-.183 2.307-.274 3.461-.05.638-1.05.642-1 0l.274-3.462c.051-.638 1.051-.643 1 0M498.732 121.484v2.396c0 .644-1 .645-1 0v-2.396c0-.644 1-.645 1 0M498.998 130.007a18.502 18.502 0 0 1-.284 4.395c-.116.632-1.08.365-.965-.265.251-1.37.328-2.74.25-4.13-.037-.644.963-.642 1 0M498.466 140.129v2.664c0 .644-1 .645-1 0v-2.664c0-.644 1-.645 1 0M498.2 149.718v3.196c0 .644-1 .645-1 0v-3.196c0-.643 1-.645 1 0M498.732 160.638v3.996c0 .644-1 .645-1 0v-3.996c0-.644 1-.645 1 0M498.732 170.76v4.528c0 .644-1 .645-1 0v-4.528c0-.644 1-.645 1 0M497.933 182.747v3.196c0 .644-1 .645-1 0v-3.196c0-.644 1-.645 1 0M497.915 194.067a9.804 9.804 0 0 1 .284 3.33c-.055.636-1.055.642-1 0a8.979 8.979 0 0 0-.248-3.064c-.16-.623.803-.889.964-.266M498.466 204.055v2.397c0 .644-1 .645-1 0v-2.397c0-.644 1-.645 1 0M499.265 212.579v2.13c0 .644-1 .645-1 0v-2.13c0-.644 1-.645 1 0M499.238 222.038l.528 2.132c.155.625-.81.89-.965.265l-.527-2.131c-.155-.625.809-.892.964-.266M500.064 231.224v3.196c0 .644-1 .645-1 0v-3.196c0-.644 1-.645 1 0M499.534 240.813l-.266 2.664c-.063.635-1.064.641-1 0l.266-2.664c.063-.634 1.064-.64 1 0M499.798 251.468v2.13c0 .643-1 .644-1 0v-2.13c0-.644 1-.645 1 0M500.026 260.261l.278 2.93c.061.64-.939.634-1 0l-.278-2.93c-.06-.64.94-.636 1 0M500.363 270.346c-.644 0-.645-1 0-1 .644 0 .645 1 0 1M500.064 277.039v3.729c0 .643-1 .644-1 0v-3.73c0-.643 1-.644 1 0M499.798 289.025v1.331c0 .644-1 .645-1 0v-1.33c0-.645 1-.646 1 0M512.05 108.432a13.852 13.852 0 0 1-.55 3.861c-.179.618-1.145.355-.965-.265.343-1.179.514-2.369.515-3.596.001-.644 1.001-.645 1 0M511.517 118.021v2.663c0 .644-1 .645-1 0v-2.663c0-.644 1-.645 1 0M511.817 127.577c-.644 0-.645-1 0-1 .643 0 .645 1 0 1M513.098 100.042l-.533 1.598c-.202.607-1.17.347-.964-.266l.533-1.6c.202-.606 1.168-.345.964.268M513.915 134.27v1.863c0 .644-1 .645-1 0v-1.864c0-.644 1-.645 1 0M512.85 142.26v1.599c0 .642-1 .643-1 0v-1.6c0-.643 1-.644 1 0M511.517 148.919v2.93c0 .643-1 .644-1 0v-2.93c0-.644 1-.645 1 0M511.251 156.377v2.397c0 .644-1 .645-1 0v-2.397c0-.644 1-.645 1 0M510.985 164.368l.267 2.13c.079.638-.922.632-1 0l-.267-2.13c-.08-.637.92-.631 1 0M511.517 173.69v2.131c0 .643-1 .644-1 0v-2.13c0-.645 1-.646 1 0M511.251 180.616v3.463c0 .643-1 .644-1 0v-3.463c0-.644 1-.645 1 0M511.517 189.938v1.865c0 .643-1 .644-1 0v-1.865c0-.644 1-.645 1 0M511.284 199.228c-.644 0-.645-1 0-1 .643 0 .645 1 0 1M511.784 204.322v1.598c0 .643-1 .644-1 0v-1.598c0-.644 1-.645 1 0M512.583 214.976v1.332c0 .644-1 .645-1 0v-1.332c0-.644 1-.645 1 0M512.583 227.496c-.09.71-.178 1.42-.266 2.13-.08.63-1.08.639-1 0l.266-2.13c.079-.631 1.08-.64 1 0M512.35 238.916c-.645 0-.646-1 0-1 .642 0 .644 1 0 1M512.615 246.108c-.644 0-.645-1 0-1 .644 0 .645 1 0 1M513.364 251.335c.248 1.278.348 2.56.284 3.862-.03.64-1.032.645-1 0a14.903 14.903 0 0 0-.248-3.596c-.122-.628.841-.898.964-.266M512.317 264.254v1.065c0 .643-1 .645-1 0v-1.065c0-.644 1-.645 1 0M513.115 273.043v1.065c0 .644-1 .645-1 0v-1.065c0-.643 1-.645 1 0M524.818 115.224a8.985 8.985 0 0 1 0 3.196c-.113.632-1.077.365-.964-.266a7.545 7.545 0 0 0 0-2.664c-.113-.629.85-.9.964-.266M524.602 124.38c-.644 0-.645-1 0-1 .644 0 .645 1 0 1M525.102 128.409v3.995c0 .644-1 .645-1 0v-3.995c0-.644 1-.645 1 0M524.869 138.231c-.644 0-.645-1 0-1 .643 0 .644 1 0 1M525.038 142.938a7.462 7.462 0 0 1 .113 3.196c-.112.633-1.075.366-.965-.265a6.227 6.227 0 0 0-.112-2.665c-.16-.623.804-.89.964-.266M524.83 154.513c.11 1.112-.1 2.183-.574 3.192-.274.582-1.136.075-.864-.504.4-.853.53-1.755.437-2.688-.063-.64.938-.636 1 0M524.57 163.302a7.368 7.368 0 0 1-.602 2.65c-.25.59-1.112.081-.863-.505a6.043 6.043 0 0 0 .464-2.145c.023-.642 1.023-.645 1 0M524.303 170.76v3.463c0 .643-1 .644-1 0v-3.463c0-.644 1-.645 1 0M524.57 179.55v1.864c0 .645-1 .646-1 0v-1.863c0-.644 1-.645 1 0M524.296 190.073l-.522 2.933c-.113.63-1.077.364-.965-.267.175-.977.35-1.954.523-2.932.112-.631 1.076-.364.964.266M524.097 200.327l-.007 1.864c-.002.644-1.002.645-1 0l.007-1.864c.002-.644 1.002-.645 1 0M524.297 206.72c.1.975.2 1.95.298 2.926.066.64-.935.636-1 0l-.298-2.927c-.065-.64.936-.635 1 0M524.277 218.175c.11.975.217 1.95.326 2.924.071.639-.929.633-1 0l-.326-2.923c-.07-.64.93-.634 1 0M523.764 230.427a8.963 8.963 0 0 1-.266 3.332c-.167.62-1.132.357-.964-.267a8.227 8.227 0 0 0 .23-3.065c-.07-.64.931-.635 1 0M523.27 241.58c-.643 0-.645-1 0-1 .644 0 .645 1 0 1M524.835 248.538v3.196c0 .644-1 .645-1 0v-3.196c0-.644 1-.645 1 0M524.57 258.66v1.33c0 .645-1 .646-1 0v-1.33c0-.644 1-.645 1 0M524.285 267.316a13.385 13.385 0 0 0-.249 3.33c.031.643-.969.642-1 0a14.421 14.421 0 0 1 .285-3.596c.128-.63 1.092-.363.964.266M524.018 279.037c.235.826.333 1.672.284 2.53-.035.64-1.035.644-1 0a6.76 6.76 0 0 0-.248-2.264c-.177-.62.788-.885.964-.266M523.004 289.259c-.644 0-.645-1 0-1 .644 0 .645 1 0 1M538.952 115.357v2.664c0 .644-1 .645-1 0v-2.664c0-.644 1-.645 1 0M537.92 125.18c-.643 0-.645-1 0-1 .644 0 .645 1 0 1M538.161 129.475a10.567 10.567 0 0 0 .23 3.331c.146.626-.817.894-.964.267a11.458 11.458 0 0 1-.266-3.598c.055-.637 1.056-.643 1 0M538.135 138.131l.267.8c.204.611-.762.873-.965.264l-.266-.797c-.204-.612.761-.874.964-.267M538.154 144.657v2.13c0 .644-1 .645-1 0v-2.13c0-.644 1-.645 1 0M537.088 155.578v3.196c0 .644-1 .645-1 0v-3.196c0-.644 1-.645 1 0M536.289 165.167v2.13c0 .644-1 .645-1 0v-2.13c0-.644 1-.645 1 0M535.223 175.555a11.267 11.267 0 0 1-.284 3.33c-.147.625-1.112.36-.965-.267.24-1.012.316-2.027.25-3.063-.043-.643.957-.64 1 0M534.457 187.775c-.644 0-.645-1 0-1 .644 0 .645 1 0 1M535.49 193.401v2.397c0 .644-1 .645-1 0v-2.397c0-.644 1-.645 1 0M535.756 200.86v3.195c0 .644-1 .645-1 0v-3.196c0-.644 1-.645 1 0M534.69 209.65l-.265 2.13c-.08.63-1.08.638-1 0l.266-2.13c.079-.63 1.08-.639 1 0M535.512 224.298l.281 3.728c.048.642-.952.638-1 0l-.281-3.728c-.048-.643.952-.64 1 0M536.056 235.986c-.644 0-.645-1 0-1 .644 0 .645 1 0 1M536.289 241.879l.267 2.664c.064.64-.937.635-1 0l-.267-2.664c-.064-.64.937-.635 1 0M536.497 251.594l-.773 4c-.123.63-1.086.363-.965-.267l.774-4c.122-.63 1.086-.363.964.267M535.756 263.188l.267 2.93c.058.64-.943.636-1 0l-.267-2.93c-.058-.642.942-.637 1 0M535.756 274.375v1.864c0 .644-1 .645-1 0v-1.864c0-.644 1-.645 1 0M535.739 285.962c.25 1.368.35 2.738.284 4.129-.03.64-1.031.644-1 0 .06-1.3-.015-2.582-.248-3.863-.115-.63.848-.9.964-.266M536.537 296.084l.533 3.463c.097.629-.866.9-.965.266l-.532-3.463c-.097-.63.866-.901.964-.266M551.205 118.82v2.664c0 .643-1 .644-1 0v-2.664c0-.644 1-.645 1 0M551.471 130.273v1.865c0 .644-1 .645-1 0v-1.865c0-.644 1-.645 1 0M551.376 140.24a7.416 7.416 0 0 0-.15 2.816c.082.636-.918.63-1 0a8.141 8.141 0 0 1 .186-3.081c.156-.624 1.121-.36.964.266M551.187 150.117l-.533 3.463c-.097.634-1.06.365-.964-.266l.533-3.463c.097-.633 1.061-.364.964.266M550.14 160.373v2.663c0 .644-1 .645-1 0v-2.663c0-.644 1-.645 1 0M550.14 170.494l-.267 3.463c-.048.638-1.05.642-1 0l.267-3.463c.049-.638 1.049-.643 1 0M549.618 180.486l-.263 1.865c-.09.635-1.053.364-.964-.265l.263-1.866c.089-.634 1.052-.364.964.266M548.542 189.406v4.528c0 .643-1 .645-1 0v-4.528c0-.644 1-.645 1 0M547.775 201.626c-.644 0-.645-1 0-1 .644 0 .645 1 0 1M550.3 208.477c.382 1.416.245 2.822-.366 4.151-.268.584-1.13.077-.863-.505.496-1.08.573-2.237.265-3.38-.168-.622.796-.888.964-.266M549.074 218.706v1.33c0 .645-1 .646-1 0v-1.33c0-.644 1-.645 1 0M549.32 225.366l.272 3.463c.05.64-.95.638-1 0l-.272-3.463c-.05-.642.95-.64 1 0M549.107 237.585c-.644 0-.645-1 0-1 .643 0 .645 1 0 1M549.572 242.416l.543 4.26c.082.637-.919.632-1 0l-.543-4.26c-.082-.637.92-.63 1 0M550.122 251.068c-.09.267-.178.532-.266.8-.203.606-1.17.346-.964-.267l.266-.799c.202-.607 1.169-.347.964.266M550.673 262.123v2.93c0 .643-1 .644-1 0v-2.93c0-.644 1-.645 1 0M550.389 273.443l.266 1.598c.105.63-.858.9-.964.266l-.267-1.598c-.105-.63.858-.9.964-.266M550.673 281.3v3.995c0 .644-1 .645-1 0V281.3c0-.644 1-.644 1 0M551.464 291.156l.27 5.594c.03.642-.97.641-1 0l-.27-5.594c-.03-.644.97-.642 1 0M553.902 278.87c-.644 0-.645-1 0-1 .644 0 .645 1 0 1M564.257 120.152c.16 1.69.16 3.371 0 5.061-.06.634-1.06.641-1 0 .16-1.69.16-3.372 0-5.06-.06-.642.94-.638 1 0M563.49 135.302c-.644 0-.645-1 0-1 .644 0 .645 1 0 1M564.257 144.39l.266 3.463c.05.641-.95.64-1 0l-.266-3.463c-.049-.642.951-.639 1 0M564.523 153.18v5.062c0 .642-1 .644-1 0v-5.062c0-.644 1-.645 1 0M563.49 166.465c-.644 0-.645-1 0-1 .644 0 .645 1 0 1M565.837 173.024l-.799 4.528c-.112.633-1.076.365-.964-.265l.8-4.529c.11-.632 1.074-.364.963.266M564.277 183.666a12.85 12.85 0 0 1 .594 5.216c-.058.636-1.059.64-1 0a12.158 12.158 0 0 0-.558-4.95c-.2-.613.764-.875.964-.266M564.512 194.2c.142 1.512.151 3.018.028 4.53-.051.637-1.052.643-1 0a25.852 25.852 0 0 0-.028-4.53c-.06-.64.94-.635 1 0M564.023 206.154c-.644 0-.645-1 0-1 .644 0 .645 1 0 1M564.79 214.177c.17 1.424.17 2.838 0 4.262-.076.631-1.077.638-1 0 .17-1.424.17-2.839 0-4.262-.077-.638.924-.632 1 0M564.79 224.298v3.197c0 .643-1 .645-1 0v-3.197c0-.643 1-.644 1 0M564.523 232.29v1.332c0 .644-1 .645-1 0v-1.332c0-.644 1-.645 1 0"/><g><path fill="#F2F2F2" d="M85.28 177.67c2.189-5.261 7.385-3.136 11.55-2.207 6.35 1.416 10.84-3.435 17.02-2.856 3.14.292 4.343 3.446 3.603 5.707 2.791.257 5.598.351 8.425.265 1.624-.05 6.38.29 6.89-1.793.33-1.35-1.193-4.099-1.169-5.653.147-9.202 12.811-10.456 19.118-13.505 4.65-2.249 8.28 3.964 4.038 6.907-3.544 2.46-11.526 6.123-4.553 10.05 3.371 1.898 7.346 1.814 10.991.833a23.216 23.216 0 0 0 2.454-2.839c2.01-2.756 6.207-2.513 7.311.956 1.026 3.226-.232 5.632-2.445 7.265a3.288 3.288 0 0 1-1.202.892c-.819.365-1.654.723-2.5 1.071-5.136 4.302-11.453 6.95-18.424 7.207-6.083.224-11.982-1.762-18.045-1.845-6.662-.09-13.049.532-19.712-.283-5.819-.71-11.755-1.465-17.5-2.626-3.856-.779-7.763-2.948-5.85-7.546M22.897 147.919c3.173-.805 6.427-1.321 9.713-1.228 1.52.044 3.05.207 4.548.457.018.002 3.513.679 3.67 1.289.415-.75.982-2.62 1.283-3.115.631-1.038 1.471-2.056 2.34-2.912 1.95-1.921 4.454-3.342 7.055-4.152 5.33-1.661 12.584-1.23 17.55 1.469 5.464 2.969 4.37 8.296 4.386 13.552.016 5.149-7.984 5.156-8 0-.004-1.48.788-4.224.264-5.571-.89-2.286-6.154-2.408-8.144-2.358-2.449.06-4.845.632-6.778 2.185-1.854 1.49-2.039 3.213-3.137 5.117-1.546 2.685-3.94 3.668-6.978 3.379-5.678-.54-9.894-1.856-15.646-.398-4.992 1.266-7.12-6.447-2.126-7.714M39.275 178.316c1.422.677 2.869 1.364 4.349 1.919 1.739-.923 3.509-4.051 4.6-5.093 1.774-1.691 3.87-3.105 6.049-4.212 4.455-2.264 9.297-3.502 14.143-4.61 4.77-1.092 6.923 5.801 2.773 7.49-.753.717-1.704 1.043-2.735 1.406-.117.889.02 1.859.399 2.553.184.109.374.202.565.293 2.789.209 5.559.708 8.272 1.543 4.206 1.296 3.579 7.963-1.064 7.857-7.03-.159-13.298.438-20.154 1.982-5.566 1.253-10.913 1.536-15.953-1.499a3.497 3.497 0 0 1-.868-.756c-1.484-.596-2.953-1.27-4.414-1.966-4.646-2.212-.591-9.111 4.038-6.907M66.294 110.869c4.255-8.387 13.11-11.03 21.682-12.93.14-.03.273-.043.405-.054.032-.384.081-.808.174-1.3.843-4.518 4.551-7.153 8.976-7.37 3.052-.15 3.072 3.92.665 4.91-2.505 1.03-4.353 3.937-1.84 6.008 1.602 1.32.46 3.566-1.104 4.178-5.187 2.032-4.52 8.415-1.4 11.933 1.191 1.34 2.645 2.323 4.222 3.082.23.103.456.209.687.306l.158.068a32.27 32.27 0 0 0 2.485.896c.61.186 1.223.36 1.834.517.036.009.064.026.1.036.647.163 1.3.313 1.957.437 1.224.168 2.444.335 3.64.529 2.755.447 2.143 5.183-.664 4.91a41.714 41.714 0 0 1-3.594-.511c-4.939-.662-10.1-1.263-14.187-4.145-5.829-4.11-10.3-7.35-17.782-7.396-.926-.005-1.706-.565-2.14-1.312-.28.225-.565.438-.854.628-2.224 1.458-4.479-1.333-3.42-3.42"/><path fill="#081F2C" d="M47.388 181.315l-13.39-1.075c-2.607-.209-6.152.027-8.389-1.622-1.337-.988-1.785-2.526-2.679-3.855-1.217-1.81-3.145-2.857-5.18-3.503-3.019-.956-6.218-1.027-9.266-1.842-4.12-1.103-10.095-4.86-7.638-10.02.947-1.988 3.084-2.68 5.057-3.219 1.47-.4 3.28-.684 4.4-1.813 1.538-1.556.988-3.933 1.633-5.855 1.425-4.247 6.628-4.508 10.342-5.12 2.642-.436 5.655-.992 7.38-3.246 2.127-2.783 1.329-6.67 1.787-9.925.393-2.787 1.714-4.816 3.907-6.537 1.304-1.022 2.737-1.874 3.977-2.975 1.651-1.468 2.395-3.226 3.246-5.22 2.267-5.319 7.194-7.27 12.78-6.664 4.05.438 7.764 2.243 11.582 3.537 4.19 1.42 8.482 1.15 12.704 2.192 6.88 1.697 10.92 9.47 18.23 9.81.64.028.644 1.03 0 1-5.374-.25-9.005-4.319-13.144-7.222-2.955-2.074-5.867-2.874-9.457-3.163a37.811 37.811 0 0 1-10.244-2.24c-5.854-2.142-14.384-5.652-19.592-.136-2.044 2.164-2.337 5.345-4.224 7.623-1.886 2.277-4.746 3.424-6.742 5.574-4.108 4.43-.256 11.65-4.794 15.838-3.042 2.807-7.724 2.604-11.517 3.462-2.552.577-4.818 1.657-5.45 4.42-.56 2.446-.21 4.793-2.647 6.27-1.987 1.204-4.47 1.137-6.485 2.254-4.773 2.644-1.016 7.85 2.401 9.438 5.462 2.54 13.203.977 17.34 6.12 1.214 1.511 1.631 3.615 3.47 4.571 1.948 1.012 4.584.857 6.716 1.028l13.885 1.115c.637.051.643 1.051 0 1"/><g transform="matrix(-1 0 0 1 155 88.177)"><mask id="d" fill="#fff"><use xlink:href="#c"/></mask><path fill="#081F2C" d="M90.036 23.913c-2.585-5.881-7.437-10.41-13.46-12.65a24.273 24.273 0 0 0-4.883-1.25c-2.11-.315-4.915.226-5.812-2.287-.908-2.54-1.178-4.474-3.828-5.848-5.499-2.848-11.025.515-14.59 4.75-4.974 5.909-8.727 12.302-10.684 19.759-.99 3.774-2.88 6.282-6.298 8.124-2.467 1.33-5.147 2.198-7.71 3.313-2.236.974-4.514 2.136-6.128 4.018-1.973 2.299-1.896 4.98-2.65 7.769-1.653 6.108-10.032 5.473-12.398 11.025C-1.273 67.362 6.57 71.74 11.73 73.353c3.546 1.11 8.867 2.412 10.17 6.453 1.026 3.184-2.03 6.46.377 9.427 4.512 5.56 15.218-.979 18.412 5.79.274.583 1.137.077.863-.504-2.284-4.843-8.409-3.395-12.677-3.674-1.6-.105-3.39-.418-4.757-1.317-2.258-1.484-1.89-3.703-1.336-6.009.551-2.29.372-4.358-1.19-6.213-4.274-5.07-12.1-4.126-16.817-8.537-3.346-3.13-3.577-7.944.318-10.638 2.1-1.453 4.585-2.25 6.66-3.748 2.168-1.566 3.071-3.506 3.514-6.117.557-3.274 1.48-5.76 4.333-7.666 4.187-2.797 9.428-3.547 13.505-6.552 5.205-3.837 4.912-10.98 7.88-16.289 1.75-3.133 3.864-6.126 6.035-8.98 2.361-3.106 5.44-6.405 9.533-6.873 1.788-.206 3.672.083 5.251.98 1.995 1.131 2.521 2.686 3.032 4.774.782 3.191 3.2 2.918 6.005 3.24 8.064.931 15.073 6.104 18.333 13.518.258.588 1.12.079.863-.505" mask="url(#d)"/></g><path fill="#081F2C" d="M34.516 179.859c2.483 3.335 5.18 6.925 8.977 8.854 4.22 2.142 8.695 1.14 13.043-.001 4.022-1.057 7.748-1.887 11.923-1.368 4.112.512 8.328 1.736 12.345.103 2.17-.882 3.878-2.432 4.34-4.818.31-1.604.034-3.267.356-4.87.493-2.447 2.261-3.908 4.778-3.937 3.937-.047 7.106 3.224 11.137 1.932 3.128-1.003 5.497-3.402 8.937-3.423.644-.004.645.996 0 1-3.786.023-6.44 3.247-10.107 3.722-3.917.508-7.6-3.388-11.442-2.019-3.872 1.381-1.725 7.567-3.81 10.51-1.715 2.418-4.818 3.503-7.667 3.712-4.438.326-8.752-1.394-13.2-1.09-4.37.297-8.457 2.138-12.786 2.689-8.149 1.036-13.213-4.483-17.687-10.491-.385-.517.483-1.016.863-.505"/><g transform="matrix(-1 0 0 1 172 156.177)"><mask id="f" fill="#fff"><use xlink:href="#e"/></mask><path fill="#081F2C" d="M87.442 28.453c-7.098-1.049-13.897 1.567-20.769 2.91-8.43 1.65-16.629-1.314-25.06-.212-3.97.518-7.883 1.467-11.91 1.388-4.358-.086-8.629-1.194-12.71-2.659-3.959-1.421-8.02-3.056-11.734-5.05-1.947-1.047-3.87-2.521-4.179-4.851-.445-3.366 2.438-3.755 4.955-4.398 2.837-.727 4.661-2.968 6.146-5.358 2.008-3.237 4.173-9.194 8.696-9.054.644.02.643-.98 0-1-7.33-.226-8.105 10.989-13.646 13.916-2.733 1.442-6.634.575-7.18 4.57-.384 2.808 1.464 5.044 3.701 6.456 3.532 2.232 7.784 3.774 11.682 5.255 4.15 1.578 8.465 2.815 12.912 3.11 4.824.32 9.43-.91 14.184-1.44 4.847-.54 9.536.38 14.344.83 4.888.459 9.454-.324 14.191-1.465 5.27-1.267 10.65-2.79 16.111-1.982.63.093.901-.872.266-.966" mask="url(#f)"/></g><path fill="#081F2C" d="M29.32 154.803c10.525-4.219 19.018 8.087 29.477 5.706.627-.143.894.821.266.965-10.523 2.394-19.136-9.852-29.478-5.706-.598.24-.857-.728-.266-.965"/><path fill="#081F2C" d="M42.52 156.303c4.62-1.624 4.433-6.219 7.117-9.482 1.63-1.982 4.074-2.935 6.574-3.206 4.37-.476 12.986 1.253 11.059 7.478-.19.612-1.156.352-.965-.266 2.315-7.473-11.925-7.369-15.41-3.918-1.89 1.873-2.205 4.604-3.58 6.78-1.07 1.694-2.65 2.918-4.528 3.58-.61.213-.87-.753-.266-.966M8.709 172.293l-.34 4.333c-.05.637-1.05.643-1 0l.34-4.333c.05-.638 1.05-.643 1 0M8.388 184.295c.11 1.223.222 2.444.333 3.667.058.64-.942.637-1 0l-.333-3.667c-.058-.641.942-.637 1 0M7.895 194.794c-.644 0-.645-1 0-1 .644 0 .645 1 0 1M8.728 199.628a13.984 13.984 0 0 1-.352 4.133c-.147.626-1.11.36-.963-.266.3-1.277.4-2.558.315-3.867-.042-.643.958-.641 1 0M8.395 208.628v4.333c0 .644-1 .645-1 0v-4.333c0-.644 1-.645 1 0M8.061 220.294a18.69 18.69 0 0 1 0 4.667c-.079.63-1.08.638-1 0a18.69 18.69 0 0 0 0-4.667c-.08-.637.921-.631 1 0M8.395 232.294v4c0 .644-1 .645-1 0v-4c0-.644 1-.645 1 0M9.395 242.628v.666c0 .644-1 .645-1 0v-.666c0-.644 1-.645 1 0M21.061 177.96v3.668c0 .644-1 .645-1 0v-3.667c0-.644 1-.645 1 0M21.728 187.628v2c0 .644-1 .645-1 0v-2c0-.644 1-.645 1 0M21.728 195.294v2.334c0 .644-1 .645-1 0v-2.334c0-.644 1-.645 1 0M21.71 205.093l-.667 2.667c-.156.624-1.12.36-.964-.266l.667-2.667c.156-.624 1.12-.359.964.266M21.061 213.294v.334c0 .644-1 .645-1 0v-.334c0-.644 1-.645 1 0M21.061 220.628v5.333c0 .644-1 .645-1 0v-5.333c0-.644 1-.645 1 0M21.061 233.294v1.334c0 .644-1 .645-1 0v-1.334c0-.644 1-.645 1 0M58.061 252.86v2c0 .644-1 .645-1 0v-2c0-.644 1-.645 1 0M58.061 260.526v2.334c0 .644-1 .645-1 0v-2.334c0-.643 1-.645 1 0M58.044 270.326l-.667 2.667c-.156.624-1.121.359-.964-.266l.667-2.667c.155-.624 1.12-.36.964.266M57.395 278.526v.334c0 .644-1 .645-1 0v-.334c0-.643 1-.645 1 0M57.395 285.86v5.333c0 .644-1 .645-1 0v-5.333c0-.644 1-.645 1 0M57.395 298.526v1.334c0 .644-1 .645-1 0v-1.334c0-.643 1-.645 1 0M33.395 188.96v3.668c0 .644-1 .645-1 0v-3.667c0-.644 1-.645 1 0M32.561 201.46c-.643 0-.645-1 0-1 .644 0 .645 1 0 1M34.061 207.294v2.667c0 .644-1 .645-1 0v-2.667c0-.644 1-.645 1 0M34.395 216.628v2c0 .644-1 .645-1 0v-2c0-.644 1-.645 1 0M34.434 224.103c-.11.667-.22 1.333-.332 2-.105.634-1.068.365-.964-.266l.332-2c.105-.633 1.068-.365.964.266M33.43 235.964c-.108.89-.214 1.78-.32 2.67-.077.63-1.078.639-1 0 .106-.89.212-1.78.32-2.67.075-.63 1.076-.638 1 0M47.082 195.959l.34 3.666c.06.64-.94.637-1 0l-.34-3.666c-.059-.641.941-.637 1 0M46.895 206.128c-.644 0-.645-1 0-1 .644 0 .645 1 0 1M48.061 209.294v2.334c0 .644-1 .645-1 0v-2.334c0-.644 1-.645 1 0M47.058 217.627l-.334 4c-.053.637-1.053.643-1 0 .11-1.333.223-2.666.334-4 .053-.637 1.053-.642 1 0M45.728 230.294v3c0 .644-1 .645-1 0v-3c0-.644 1-.645 1 0M45.895 241.46c-.644 0-.645-1 0-1 .644 0 .645 1 0 1M57.728 194.294v3.667c0 .644-1 .645-1 0v-3.667c0-.644 1-.645 1 0M57.735 202.627l.39 3.327c.074.638-.927.632-1 0l-.39-3.327c-.075-.638.926-.633 1 0M57.895 210.794c-.644 0-.645-1 0-1 .644 0 .645 1 0 1M58.389 216.489c.387.945.47 1.933.315 2.937-.097.634-1.061.365-.963-.266.127-.827-.001-1.635-.316-2.404-.244-.596.723-.855.964-.267M59.377 226.76l-.333 2c-.105.633-1.07.364-.964-.266.11-.667.222-1.334.333-2 .106-.633 1.069-.365.964.266M59.037 235.296c.16 2.569.08 5.12-.24 7.674-.079.63-1.08.638-1 0 .32-2.554.4-5.106.24-7.674-.04-.643.96-.641 1 0M89.777 252.026v3.666c0 .644-1 .645-1 0v-3.666c0-.644 1-.645 1 0M89.784 260.358l.39 3.327c.073.638-.927.633-1 0l-.39-3.327c-.075-.638.926-.633 1 0M89.944 268.526c-.644 0-.645-1 0-1 .644 0 .645 1 0 1M90.438 274.221c.387.945.471 1.932.315 2.937-.098.633-1.062.364-.964-.267.128-.826 0-1.635-.315-2.404-.244-.596.723-.855.964-.266M91.426 284.492l-.333 2c-.106.634-1.07.364-.964-.266.11-.667.222-1.334.333-2 .106-.633 1.069-.365.964.266"/><g transform="matrix(-1 0 0 1 92 292.177)"><mask id="h" fill="#fff"><use xlink:href="#g"/></mask><path fill="#081F2C" d="M.913.85a41.19 41.19 0 0 0 .24 7.675c.08.63 1.08.638 1 0A41.19 41.19 0 0 1 1.913.85c.04-.643-.96-.64-1 0" mask="url(#h)"/></g><path fill="#081F2C" d="M32.066 247.71v3.667c0 .644-1 .645-1 0v-3.667c0-.644 1-.645 1 0M32.073 256.043l.39 3.326c.073.638-.927.633-1 0l-.39-3.326c-.074-.64.927-.633 1 0M32.233 264.21c-.644 0-.645-1 0-1 .644 0 .645 1 0 1M32.727 269.905c.387.945.471 1.932.315 2.937-.098.633-1.06.365-.964-.266.128-.827 0-1.636-.315-2.405-.244-.595.723-.855.964-.266M33.715 280.175c-.11.667-.222 1.334-.333 2-.106.634-1.069.365-.964-.266l.333-2c.106-.632 1.07-.364.964.266M33.376 288.712c.159 2.569.079 5.12-.24 7.674-.08.63-1.08.637-1 0a41.18 41.18 0 0 0 .24-7.675c-.04-.643.96-.64 1 0M72.4 193.96l.334 3c.071.639-.93.634-1 0l-.335-3c-.07-.638.93-.633 1 0M73.061 204.628v1.666c0 .644-1 .645-1 0v-1.666c0-.644 1-.645 1 0M73.737 213.295a28.958 28.958 0 0 0 .313 6.198c.101.63-.862.902-.964.267a30.157 30.157 0 0 1-.349-6.465c.035-.64 1.035-.645 1 0M88.061 193.294v4c0 .644-1 .645-1 0v-4c0-.644 1-.645 1 0M88.061 205.294v4.334c0 .644-1 .645-1 0v-4.334c0-.644 1-.645 1 0M88.728 215.628v3.333c0 .644-1 .645-1 0v-3.333c0-.644 1-.645 1 0M89.061 226.628v4c0 .644-1 .645-1 0v-4c0-.644 1-.645 1 0M89.46 238.15c.212 1.557.426 3.113.64 4.67.087.629-.877.901-.964.266l-.64-4.67c-.088-.63.876-.902.963-.266M105.395 193.628v5.333c0 .644-1 .645-1 0v-5.333c0-.644 1-.645 1 0M104.743 204.489l.333 2c.105.63-.858.9-.964.266-.11-.666-.223-1.333-.333-2-.105-.63.858-.901.964-.266M104.895 212.794c-.644 0-.645-1 0-1 .644 0 .645 1 0 1M105.714 220.16c.19 1.116.096 2.217-.34 3.266-.244.586-1.212.328-.965-.266.365-.877.501-1.794.341-2.733-.107-.63.856-.901.964-.267M104.728 231.294v3c0 .644-1 .645-1 0v-3c0-.644 1-.645 1 0M105.045 239.295l.192 3.657c.034.643-.966.64-1 0l-.192-3.657c-.034-.643.966-.641 1 0M74.895 230.128c-.644 0-.645-1 0-1 .644 0 .645 1 0 1M120.057 193.825a27.76 27.76 0 0 1 .328 6.135c-.037.639-1.038.644-1 0a26.56 26.56 0 0 0-.292-5.868c-.103-.63.86-.901.964-.267M120.061 205.628v3.666c0 .644-1 .645-1 0v-3.666c0-.644 1-.645 1 0M119.728 215.294v3.667c0 .644-1 .645-1 0v-3.667c0-.644 1-.645 1 0M120.061 226.294a6.716 6.716 0 0 0 .315 2.534c.2.613-.766.877-.963.266a7.486 7.486 0 0 1-.352-2.8c.041-.64 1.042-.644 1 0M120.054 234.627c-.083 1.562.136 3.06.662 4.532.217.608-.749.868-.964.266a12.201 12.201 0 0 1-.698-4.798c.034-.64 1.035-.644 1 0M137.71 197.76l-.333 2c-.106.633-1.07.364-.964-.266.11-.667.222-1.334.333-2 .105-.633 1.07-.365.964.266M137.395 207.628l-.333 3c-.071.632-1.071.64-1 0l.333-3c.07-.633 1.07-.64 1 0M136.395 215.294v1.667c0 .644-1 .645-1 0v-1.667c0-.644 1-.645 1 0M135.895 222.794c-.644 0-.645-1 0-1 .644 0 .645 1 0 1M136.395 228.628v3c0 .644-1 .645-1 0v-3c0-.644 1-.645 1 0M136.71 239.16l.333 1c.205.613-.76.876-.964.267l-.333-1c-.204-.612.761-.874.964-.266M121.215 250.851c-.11.667-.222 1.334-.333 2-.106.634-1.069.365-.964-.266.11-.667.222-1.333.333-2 .106-.633 1.07-.364.964.266M120.9 260.718l-.333 3c-.07.633-1.071.64-1 0l.333-3c.07-.633 1.07-.64 1 0M119.9 268.385v1.666c0 .644-1 .645-1 0v-1.666c0-.644 1-.645 1 0M119.4 275.885c-.644 0-.645-1 0-1 .644 0 .645 1 0 1M119.9 281.718v3c0 .644-1 .645-1 0v-3c0-.644 1-.645 1 0M120.215 292.253l.333 1c.205.61-.76.874-.964.266l-.333-1c-.204-.613.761-.874.964-.266M76.531 239.617c-.11.667-.222 1.334-.333 2-.105.634-1.07.365-.963-.266l.332-2c.106-.632 1.07-.364.965.266M76.216 249.484l-.333 3c-.07.633-1.07.64-1 0l.333-3c.07-.633 1.071-.64 1 0M75.216 257.151v1.667c0 .643-1 .645-1 0v-1.667c0-.644 1-.645 1 0M74.716 264.651c-.644 0-.645-1 0-1 .644 0 .645 1 0 1M75.216 270.484v3c0 .644-1 .645-1 0v-3c0-.644 1-.645 1 0M75.531 281.018l.334 1c.204.611-.761.874-.965.266l-.333-1c-.203-.613.762-.874.965-.266M153.395 193.294l.333 3c.07.639-.93.634-1 0l-.333-3c-.071-.64.93-.633 1 0M153.71 203.093l-.333 1.333c-.156.624-1.12.36-.964-.266l.333-1.333c.156-.624 1.12-.359.964.266M153.061 210.294v3c0 .644-1 .645-1 0v-3c0-.644 1-.645 1 0M153.728 219.294v1.334c0 .644-1 .645-1 0v-1.334c0-.644 1-.645 1 0M153.228 227.128c-.644 0-.645-1 0-1 .644 0 .645 1 0 1M169.061 188.294c.1 1.729-.023 3.434-.35 5.133-.123.632-1.087.364-.965-.266.311-1.613.41-3.226.315-4.867-.037-.643.963-.641 1 0M167.895 203.46c-.644 0-.645-1 0-1 .644 0 .645 1 0 1M168.728 207.96v4.668c0 .644-1 .645-1 0v-4.667c0-.644 1-.645 1 0M168.803 218.628l-.005 3c-.001.644-1.001.645-1 0l.005-3c.001-.644 1.001-.645 1 0"/></g></g></svg>