<svg xmlns="http://www.w3.org/2000/svg" width="80" height="17"><g fill="none" fill-rule="nonzero"><path fill="#ABA9A8" d="M70.299.74a8.13 8.13 0 1 0 8.048 8.13A8.014 8.014 0 0 0 70.299.74zm0 14.194c-3.312 0-5.865-2.694-5.865-6.049 0-3.354 2.553-6.071 5.865-6.071 3.312 0 5.888 2.724 5.888 6.071 0 3.348-2.553 6.033-5.888 6.033v.016z"/><path fill="#ECECEB" d="M71.773.74a8.13 8.13 0 1 0 8.052 8.141A8.014 8.014 0 0 0 71.773.74zm0 14.193c-3.312 0-5.865-2.693-5.865-6.048 0-3.354 2.553-6.071 5.865-6.071 3.312 0 5.888 2.724 5.888 6.071 0 3.347-2.533 6.045-5.888 6.045v.003z"/><path fill="#D0D0CE" d="M70.295 0a8.13 8.13 0 1 0 8.052 8.142A8.014 8.014 0 0 0 70.295 0zm0 14.194c-3.312 0-5.865-2.693-5.865-6.048s2.553-6.071 5.865-6.071c3.312 0 5.888 2.724 5.888 6.071 0 3.347-2.553 6.048-5.888 6.048z"/><path fill="#ABA9A8" d="M.901 16.26A.91.91 0 0 1 0 15.362V1.64c0-.49.4-.89.901-.9h5.258c4.516 0 7.145 3.381 7.145 7.795s-2.629 7.727-7.145 7.727H.9zm5.258-1.958c3.296 0 5.004-2.501 5.004-5.768 0-3.266-1.724-5.84-5.02-5.84h-4.01v11.608H6.16zM22.174 15.916c0 .599-.496 1.084-1.109 1.084a1.096 1.096 0 0 1-1.108-1.084V1.823c0-.599.496-1.084 1.108-1.084.613 0 1.109.485 1.109 1.084v14.093zM30.567 2.778a1.01 1.01 0 0 1-1.002-1.02c0-.562.449-1.019 1.002-1.019h10.094a1.01 1.01 0 0 1 1.002 1.02 1.01 1.01 0 0 1-1.002 1.02h-3.965v13.13c0 .603-.48 1.091-1.072 1.091a1.082 1.082 0 0 1-1.072-1.09V2.777h-3.989.004zm17.467 0a1.01 1.01 0 0 1-1.002-1.02c0-.562.449-1.019 1.002-1.019h10.094a1.01 1.01 0 0 1 1.002 1.02 1.01 1.01 0 0 1-1.002 1.02h-3.965v13.13c0 .603-.48 1.091-1.072 1.091a1.082 1.082 0 0 1-1.072-1.09V2.777H48.03h.004zM70.836.74a8.13 8.13 0 1 1-8.01 8.138A8.033 8.033 0 0 1 70.837.74zm0 14.187c3.334 0 5.886-2.692 5.886-6.045 0-3.353-2.552-6.069-5.886-6.069s-5.862 2.724-5.862 6.069c0 3.345 2.552 6.041 5.862 6.041v.004z"/></g></svg>