<svg xmlns="http://www.w3.org/2000/svg" xmlns:xlink="http://www.w3.org/1999/xlink" width="44" height="44" viewBox="0 0 164 164"><defs><path id="a" d="M23.742.218v69.81H.515V.218h23.227z"/></defs><g fill="none" fill-rule="evenodd"><path fill="#EFEBD3" d="M54.794 72.387c1.041-.84 2.278-1.212 3.479-1.1.39-.034.8.012 1.23.277l.12.074c.464.207.909.491 1.315.878 1.516 1.444-.012 3.882-1.8 3.613-.018.01-.033.03-.052.043-1.491 1.066-3.86.455-4.625-1.22-.358-.787-.436-1.945.333-2.565M115.76 73.644c2.725 0 2.73 4.233 0 4.233-2.725 0-2.73-4.233 0-4.233"/><path fill="#FFF" d="M5.312 35.107c5.55-7.6 17.697-13.57 28.542-13.78 7.76-2.404 15.93-3.712 23.546-6.741 10.36-4.119 21.299-10.223 32.766-9.063.89.091 1.663.345 2.357.688 8.999-.353 18.182 7.086 24.7 14.208 11.713 8.256 22.761 17.975 34.373 26.303 10.325 7.404 13.367 17.92 8.711 29.87a6.914 6.914 0 0 1-.963 1.674c-1.616 6.527-3.693 12.44-3.29 19.43.34 5.87 1.668 11.373-1.786 16.654-2.975 4.548-7.857 6.184-12.331 8.84-2.012 1.196-3.884 2.447-5.739 3.662-6.553 5.962-13.583 11.623-21.144 16.028-8.791 5.12-18.497 5.738-28.496 5.661-14.74-.114-30.401-3.204-43.067-10.999-11.648-2.35-23.393-6.252-30.226-16.688-8.167-12.485-3.498-30.78-5.431-44.922-.04-.282-.026-.542-.032-.813-1.666-4.957-3.286-9.93-4.718-14.942-2.411-8.44-3.224-17.6 2.228-25.07"/><path fill="#081F2C" d="M104.838 159.102c-1.163-11.596 11.593-18.375 19.664-23.945l18.519-12.788c7.593-5.245 14.275-9.676 13.602-20.028-.396-6.093-1.26-11.499.37-17.526 1.942-7.18 6.264-14.59 4.504-22.249-1.632-7.098-8.054-11.9-13.344-16.303-6.166-5.134-12.34-10.258-18.51-15.387-10.913-9.07-22.32-19.937-36.565-23.24-15.326-3.554-27.71 5.864-41.444 10.757-13.877 4.945-29.883 5.897-41.192 16.333C4.984 39.763 1.638 46.4 2.233 53.944c.587 7.422 4.273 14.193 6.676 21.112 2.459 7.075 2.819 13.845 2.395 21.291-.512 8.96-1.158 18.191 5.154 25.457 10.695 12.307 31.223 17.141 46.707 18.606 1.345.127 1.358 2.245 0 2.116-14.88-1.41-31.14-5.663-43.292-14.77-12.44-9.324-10.84-21.97-10.468-35.949.237-8.836-2.59-16.311-5.698-24.4C1.401 61.409-.651 55.093.283 48.587c1.834-12.788 13.918-20.86 25.197-24.833 7.788-2.745 15.953-4.207 23.791-6.79 7.798-2.569 14.907-6.738 22.59-9.578 14.223-5.258 27.461-1.617 39.719 6.593 13.49 9.035 25.607 20.415 38.07 30.786 5.057 4.207 10.661 8.567 13.126 14.891 2.386 6.117.707 12.398-1.321 18.36-1.518 4.466-3.308 8.972-3.536 13.74-.212 4.424.967 8.773.914 13.19-.08 7.025-3.936 11.552-9.405 15.535-8.086 5.886-16.47 11.402-24.7 17.084-7.25 5.004-18.81 11.175-17.773 21.537.136 1.355-1.984 1.344-2.117 0"/><g><path fill="#081F2C" d="M75.522 105.56c1.604-.154 2.255-.931 3.307-1.578.254.652 1.17 1.665 1.908 1.665.958 0 2.168-.927 2.168-2.027 0-2.674-.436-2.674-.436-5.349 0-10.824-.466-10.352.024-21.65.33-7.584.061-7.591.061-15.182 0-.969-.604-1.554-1.817-1.812-.94-.2-1.865.843-1.865 1.812 0 7.591.019 7.508.019 15.1 0 10.825-.318 10.908-.318 21.732 0 1.934-1.135 3.047-3.05 3.047-1.917 0-2.784-1.114-2.854-3.047-.296-8.207-.768-13.44-.82-17.643-.064-5.337.373-8.687.78-17.906.045-.968-.438-3.258-2.321-3.258-.959 0-1.627 1.006-1.627 1.975 0 18.416.07 18.416.07 36.832 0 3.869 2.956 7.658 6.771 7.29M93.848 60.387c.124-1.93.824-3.058 2.741-3.058 1.916 0 3.479 1.407 3.479 3.34 0 4.918-.213 4.64.022 9.55.558 11.738-.52 10.754-.174 21.492.062 1.934-1.41 2.974-3.327 2.974s-2.78-1.434-2.78-3.368c0-15.785-.82-17.437.04-30.93m2.294 38.45c1.553.154 3.029.155 4.087-.5.27.612.864 1.782 1.572 1.782.961 0 1.826-.936 1.826-1.905 0-2.63.56-4.809.56-7.44 0-10.868-.086-9.686-.086-20.554 0-4.917.319-5.235.319-10.152 0-11.401-.401-11.969-.401-23.369 0-.968-1.257-1.699-2.218-1.699-.958 0-1.466.73-1.466 1.7 0 8.367.719 9.3.19 17.65-1.024-.599-2.67-1.371-3.937-1.371-3.833 0-6.716 3.542-6.84 7.408-.473 14.773.238 15.785.238 31.57 0 3.868 2.34 6.504 6.156 6.88M92.82 120.177c-.178-.156-.335-.292-.571-.649a.378.378 0 0 0-.528-.105.388.388 0 0 0-.105.532c.295.443.514.633.708.802.18.158.335.293.571.65a.383.383 0 0 0 .528.106.386.386 0 0 0 .105-.532c-.294-.443-.514-.635-.707-.804M89.403 121.008a.39.39 0 0 0-.373-.406c-.197-.017-.394.159-.4.376-.045 1.153.137 1.746.312 2.32.164.533.32 1.037.28 2.057a.389.389 0 0 0 .372.406h.015a.389.389 0 0 0 .387-.376c.044-1.154-.138-1.747-.315-2.319-.162-.534-.317-1.038-.278-2.058M86.663 107.366c.12.578.244 1.176.728 2.243a.402.402 0 1 0 .73-.338c-.445-.984-.556-1.514-.673-2.073-.12-.577-.246-1.174-.728-2.241a.399.399 0 0 0-.532-.2.406.406 0 0 0-.198.538c.446.984.555 1.512.673 2.071M86.13 120.663c-.365.466-.498.76-.616 1.021-.108.24-.211.468-.519.861a.396.396 0 0 0 .064.552.39.39 0 0 0 .241.085.39.39 0 0 0 .306-.15c.365-.467.499-.761.616-1.022.11-.24.214-.468.52-.861a.396.396 0 0 0-.064-.552.388.388 0 0 0-.547.066M90.406 104.839c-.251.54-.314.86-.37 1.14-.051.262-.1.508-.312.962a.395.395 0 0 0 .353.563.39.39 0 0 0 .354-.226c.251-.542.314-.861.371-1.143.051-.26.101-.507.312-.961a.395.395 0 0 0-.188-.525.39.39 0 0 0-.52.19"/><path fill="#081F2C" d="M86.558 112.77c-.199-.636-.428-.97-.936-.978-.473-.008-.78-.042-1.288.277-1.661 1.1-2.805 1.613-3.748 1.973-1.638.604-2.836 1.376-3.77 1.922-2.282 1.333-4.493 2.866-9.318 3.394-2.396.263-3.423-.467-5.02-1.848-.85-.735-1.48-1.795-1.683-4.088-.486-5.47.43-19.117.43-38.856 0-3.835-3.01-6.526-6.722-6.702-1.371-.067-2.661-.194-3.806.484-.102-.92-.939-1.955-1.897-1.962-.86-.006-1.38.606-1.33 1.445.202 3.445-.262 3.632-.262 6.723 0 3.553-.208 3.415-.208 6.966 0 15.008.763 14.863.747 30.162 0 .677.51 1.281 1.181 1.3.976.027 2.63-.383 2.616-1.788-.146-15.111-.504-14.878-.695-29.74-.032-2.547-.905-8.088.397-9.508.652-.71 2.164-.642 3.129-.72 2.171-.174 3.023 1.91 3.1 3.836.952 23.62-.94 20.663-.854 37.529.013 2.603 1.096 6.684 3.16 8.245 1.414 1.07 3.986 1.624 5.857 1.539.763-.036 1.448 0 2.421-.174 6.252-1.117 6.857-3.08 10.297-4.047.01-.003 1.203-.234 1.84-.018.168.072.348.154.555.267 1.174.633 1.85.336 2.713.16.863-.18.853-.124 1.614-.027 1.408.182 1.643.212 2.24-.128.229-.13.434-.601.2-.98a.208.208 0 0 0-.205-.092c-.89.14-1.475.137-1.85.111-.415-.028-1.096.048-1.522-.443a.117.117 0 0 0-.152-.021c-.28.178-.463.201-.898.306-.542.132-1.412-.06-1.42-.202-.025-.394.554.126 1.371-.08.543-.137.945-.577 1.199-.916.417-.557.475-.768.46-1.193-.017-.415.193-.965.402-.886.21.08-.09.575.113.66.21.089.333-.42.534-.34.272.106.14.15.167.406.017.146.139.364.387.54.15.106.41.185.534.257.238.138.216.415-.007.423-.239.008-.806-.635-.938-.519-.173.151.239.436-.006.503-.307.087-.28-.337-.75-.236-.143.03-.322.17-.457.343-.177.229-.28.515-.124.692.272.31.62.205 1.14.248.464.04 1.237.185 2.061-.082.577-.215 1.222-.465.766-1.37-.829-1.65-1.473-1.83-1.765-2.766M112.917 43.475c1.09 0 1.713-.339 2.053-1.384.31-.955.161-1.737-.02-2.304-.333-1.046-.945-1.352-2.034-1.352-1.09 0-2.045 1.02-2.045 2.12 0 .399.109.814.118 1.067.043 1.098.84 1.853 1.928 1.853M93.321 113.49c.09-.322-.254-.433-.486-.877-.04-.076-.37.068-.453.089-.375.098-.826.122-1.403.32-.302.13-.88.352-.56 1.114.114.276.354.338.679.313.45-.036 2.145-.67 2.223-.958M92.55 111.994c.07-.135-.308-.716-.416-1.364-.008-.057-.064-.09-.12-.078-2.806.606-2.235 1.276-2.126 1.899.047.268.315.261.392.265.7-.014 2.176-.534 2.27-.722M91.938 115.948c.926-.174 2.674-.613 2.744-1.026.049-.296-.115-.728-.534-.849-.601-.172-2.825.686-2.978.888-.155.203-.162.264-.06.502.109.256.436.462.552.493a.87.87 0 0 0 .276-.008M94.177 115.773c-.547.222-2.438.198-2.254 1.035.075.345.648.664 2.092.09.212-.084.44-.182.692-.255a.355.355 0 0 0 .245-.257.58.58 0 0 0-.096-.521c-.202-.276-.23-.273-.679-.092"/><g transform="translate(92.085 46.439)"><mask id="b" fill="#fff"><use xlink:href="#a"/></mask><path fill="#081F2C" d="M23.692 28.862c0-6.622-.227-6.622-.227-13.245 0-6.623-1.019-6.624-.895-13.245.027-1.468-.305-2.657-2.123-1.938-1.126.446-2.062 1.58-2.128 2.797-.31 5.561.86 6.43.94 12.751.073 6.128.311 6.792.311 13.413 0 6.623-.209 6.086-.209 12.71 0 6.618.017 6.535.017 13.146 0 2.125-1.493 4.172-3.23 5.071-1.131.586-2.33 1.088-3.896 1.716-4.324 1.635-5.8 1.57-6.257 1.449-.06-.024-.12-.048-.178-.076-.005-.002-.007-.005-.007-.005v.003a3.982 3.982 0 0 1-1.196-.87c-.854-.877-3.193-.067-3.81.574-.644.672-.063 1.715.306 2.38.715 1.294.302 1.71.845 1.583.406-.094.822-.477.604-1.338-.306-1.208-.823-1.402-.685-1.606.234-.34.452.285.805.916.028.05.057.183.145.127.112-.073.67-1.015.75-1.335.092-.367.233-.194.156.015a41.332 41.332 0 0 1-.537 1.403c-.099.217.061.301.131.297.19-.023.614-.175.749-.276.217-.16.268-.023.148.107-.054.058-.366.436-.968.595-.25.066-.315.406-.293.674.038.44.235.702.863 1.062 1.095.629 1.772.296 1.782.547.007.18-.55.228-1.348.072-.92-.18-1.126-.813-1.304-.612-.222.25.196.286.203.64.007.262-.18.233-.069.559.113.329.2.278.236.43.045.194.03.299.001.526a.13.13 0 0 0 .164.144c1.31-.354 2.687-.67 3.25-1.57.623-.996.789-1.775 2.79-2.537.056-.018.113-.038.17-.053 1.866-.493 2.924-1.19 7.27-2.883 3.282-1.28 6.042-4.454 6.057-8.003.026-6.251.718-6.376.718-12.87 0-6.623-.051-6.623-.051-13.245" mask="url(#b)"/></g></g></g></svg>