<svg xmlns="http://www.w3.org/2000/svg" width="44" height="44" viewBox="0 0 164 164"><g fill="none" fill-rule="evenodd"><path fill="#262318" d="M79.997 101.646c-.381.688-.79 1.34-1.22 1.966-1.204 1.509-2.509 2.878-3.902 4.19-.07.05-.144.087-.214.136-.146-.032-.286-.076-.444-.07l-7.763.326c-1.198-2.43-3.178-4.16-5.75-5.156l-.234-.472a2.739 2.739 0 0 0-.683-.86c.002-.016.012-.026.016-.045l.064-.424a.83.83 0 0 0 .313-.544c.07-.484.297-.933.627-1.352 2.649-1.005 5.272-2.28 7.985-2.866a58.243 58.243 0 0 1 3.242-.626c2.077-.009 4.052.243 5.547.806.457.294.887.675 1.268 1.35.02.032.047.05.068.075-.015.213-.006.433.06.662a24.83 24.83 0 0 0 1.024 2.9c-.002.002-.004.002-.004.004m18.59-3.459l-.387-4.442a1.065 1.065 0 0 0-.463-.819c-.058-.21-.09-.421-.153-.63a1.096 1.096 0 0 0-.116-.468l-.062-1.097c.227-1.318-1.65-1.894-2.04-.563-.103.34-.145.64-.16.927-.21 1.215-.417 2.432-.624 3.647-.437.034-.847.275-.917.745-.072.485-.193.96-.273 1.443-.45-.067-.917.146-1.103.741-.079.256-.197.476-.288.72a.867.867 0 0 0-.314.199c-.157.152-.309.302-.464.455-.38.287-.692.63-1.001.988a1.929 1.929 0 0 0-1.326.254c-.04.025-.743-.57-1.334-1.084-.654-1.646-1.166-3.367-2.407-4.683-1.863-1.975-4.963-2.699-7.519-3.014-3.347-.41-6.71.154-9.969.887-3.97.89-9.051 4.084-13 4.12a1.957 1.957 0 0 0-1.146.381c-.292-1.179-2.212-1.151-2.07.146.243 2.231.71 4.204 1.577 6.286.311.75 1.031.879 1.53.589-.503 2.853.964 4.821 2.827 6.713l.043.085c.339.685.809 1.132 1.334 1.38.178.239.334.484.466.734-1.032.542-1.84 1.545-1.828 2.76.024 2.133.384 2.967 1.85 4.48.522.536 1.176.817 1.847.89a96.631 96.631 0 0 0 1.804 1.92c.074.596.335 1.195.843 1.743 1.22 1.32 1.893 1.702 3.633 2.148.888.229 1.711.017 2.395-.406.178.072.352.144.557.2 5.065 1.402 6.134-2.24 6.441-6.001.265.11.557.18.913.141 6.354-.694 14.993-3.71 15.033-10.396a67.758 67.758 0 0 0 1.506-4.264c.239-.77.059-1.37-.31-1.806a4.572 4.572 0 0 0-.156-.662c.074.01.144.049.22.04.292.04.604-.017.868-.248a26.234 26.234 0 0 0 2.674-2.683c.437-.506.297-1.126-.065-1.503.57.074 1.167-.241 1.135-.993"/><path fill="#623F2B" d="M103.621 80.332c-2.685-.533-2.647-.571-5.179-.448.695-5.141.834-10.265 2.05-15.461.718-3.067 1.215-2.91.163-6.043-.49-1.456-1.781-2.364-2.814-3.458-.093-.262-.184-.525-.29-.777a31.42 31.42 0 0 0 .925-6.971c.042-2.015-2.266-2.553-3.617-1.497-3.495 2.737-13.473 1.207-18.495 1.154-4.849-.053-5.88.626-10.638 2.842-3.369 1.569-4.283 1.55-5.897 4.834-1.44 2.938-2.591 5.96-3.373 9.078-.16.264-.28.565-.32.923l-.12 1.043a35.29 35.29 0 0 0-.667 5.655c-.013.375.102.69.262.97-.019.76-.004 1.525.005 2.292-.096.281-.17.575-.254.863-.155.142-.301.307-.409.538-1.317 2.813-4.21 3.687-6.979 4.535-.635.195-1.042.589-1.266 1.059-2.588.772-1.478 4.831 1.141 4.074 1.427-.415 3.092-.836 4.69-1.408-.093 3.905.316 7.611 1.277 11.55.608 2.5 4.239 1.619 4.1-.72 2.925.443 6.917-1.2 9.591-1.646 3.979-.667 15.732-2.646 19.372 2.165a5.137 5.137 0 0 0 .476 2.681c.174.377.475.637.826.805.798 1.604 3.123 1.697 3.9-.288a81.694 81.694 0 0 0 3.01-9.262c.425-.65.755-1.213.882-1.594.051-.156.068-.302.112-.457.219-.09.428-.218.62-.385l6.353-2.489c2.283-.082 3.005-3.672.563-4.157"/><path fill="#623F2B" d="M77.707 99.9a4.616 4.616 0 0 0-.447-1.476c-2.215-4.421-10.369-1.164-13.725-.245a2.12 2.12 0 0 0-.73.355c-.718-.108-1.449.172-1.842 1.069-.45 1.026-.636 1.647-.316 2.73.19.646.618 1.056 1.156 1.302.102.135.163.292.288.417.673.675 1.662 1.035 2.59 1.13.192.019.675.087 1.016.053.55 2.205 2.552 2.595 4.79 2.256.349.14.73.229 1.17.17.424-.058.845-.18 1.262-.346a14.593 14.593 0 0 0 4.515-2.296c.79-.593 1.04-1.412.923-2.148.76-.944.305-2.311-.65-2.972M80.923 123.462c.993-2.538-3.1-3.64-4.082-1.126-.485 1.236-.62 2.48-.565 3.754a3.076 3.076 0 0 0-2.865.449c-2.433 1.837-1.29 5.753.019 7.956 1.42 2.385 5.812 2.461 7.335.061 2.034-3.204-1.192-7.642.158-11.094"/><path fill="#262318" d="M110.223 51.481c.727-1.962-.794-3.53-2.517-3.884-.824-4.14-3.93-8.303-7.076-11.799-6.626-7.363-16.03-9.135-25.123-10.809-12.254-2.256-21.335 4.47-23.876 17.366-1.97 1.498-4.072 2.747-5.922 4.385-1.025.443-1.874 1.389-2.147 2.47-.894 1.63-.735 3.308.216 5.209-.316.946-.64 1.869-.682 2.159-.231 1.542-.201 2.963-.047 4.391a2.83 2.83 0 0 0 .047 1.64c.127.39.254.784.383 1.173.407 1.247 1.256 1.93 2.2 2.157-.292.95-.112 2.023.864 2.923l3.769 3.468c1.903 1.75 5.583.637 5.423-2.245a47.63 47.63 0 0 1-.053-3.992c.036-.093.082-.175.114-.277 1.626-5.175 3.756-10.04 6.388-14.756 6.594-1.41 12.425-5.065 20.08-4.195 3.15.36 5.843.637 8.97.7 2.673.058 2.196-1.369 5.267.094 1.41.675 2.056 1.314 2.354 2.095-.013.034-.034.066-.046.102-1.16 3.083-1.195 7.094 2.109 8.878.218 1.215.459 2.635-.07 3.748-.701 1.474-1.559 2.796-.858 4.343-.669 2.09-.99 4.263-.879 6.504.062 1.213 1.686 1.416 2.08.284a28.574 28.574 0 0 0 1.215-4.864c2.029.339 4.256-1.28 3.902-3.327.447-.933.828-1.852 1.013-2.959 1.744-.96 2.43-3.274 1.863-5.18-.12-.405-.31-.794-.504-1.173.076-.277.157-.55.245-.823.39-1.283.835-2.547 1.298-3.806"/><path fill="#FFF" d="M110.2 53.335c-1.067.63-1.275 2.438-.318 3.249.02.019.042.03.062.046.116 3.406-1.68 4.487-2.916 7.357-.282.659-.123 1.454-.381 2.068-.8 1.896-1.737 1.827-2.8 2.658-1.767 1.38-2.614 2.108-3.726 4.25-.57 1.099-.614 2.161-.343 3.099-.735 1.24-.195 3.238 1.69 3.244.226.184.457.369.75.506.937.436 1.862.732 2.826 1.03.104.422.258.826.472 1.199-.057.484-.061.975.028 1.456a3.733 3.733 0 0 0-2.177 1.786c-.11-.008-.222-.042-.333-.042a4.341 4.341 0 0 0-1.427-.246c-4.82 0-5.376 6.619-1.66 8.145.227.603.394 1.197.37 1.782-.126 3.403-3.702 6.658-4.62 9.875-.416 1.462-.967 4.1-1.82 6.754-2.308.751-3.142 3.352-2.486 5.441-1.224 1.772-2.77 2.919-4.77 2.648-4.574-.616-6.905 5.29-4.077 7.441.072.936.104 1.873.161 2.809-.118 1.147-.391 2.27-.904 3.36a2.104 2.104 0 0 0-.118 1.476c-4.512 2.5-11.601 1.803-10.407-5.058.188-1.078-.276-2.34-1.478-2.602-6.136-1.348-9.66-6.235-13.664-10.65-.008-.008-.017-.01-.023-.019.362-.666.726-1.329 1.09-1.993.708-1.291-.042-2.48-1.08-2.95-.607-1.724-1.72-3.391-2.678-5.383-1.438-2.986-2.556-5.323-2.37-8.796.151-2.808.464-5.388.333-8.184 1.27-1.198.87-3.812-1.294-3.645-2.392.186-6.013.133-4.806-3.263.013-.034.032-.058.044-.091a5.051 5.051 0 0 0 1.468-1.886c.974-.652 2.23-.893 3.542-1.029.316-.034.589-.129.832-.256.555.08 1.142-.085 1.64-.658.177-.203.274-.396.385-.59 1.194-1.044.376-3.417-1.457-3.611-.483-.341-1-.644-1.463-.908-2.33-1.334-3.968-2.858-4.65-5.541a2.13 2.13 0 0 0-.398-.82 1.911 1.911 0 0 0-.837-.93 6.557 6.557 0 0 1-2.092-1.816c-.184-.305-.362-.612-.55-.917-.515-1.096-.65-2.364-.294-3.725.275-1.047 1.043-1.795 1.063-2.927.027-1.58-1.049-2.88-1.08-4.502-.043-2.055 1.04-3.69 2.447-5.026 1.95-.654 4.167-.813 5.74-2.229.858-.772 1.034-1.602.945-2.73-.159-2.043-.453-3.706 1.145-4.874 1.682.226 2.884-1.905 1.908-3.304a86.789 86.789 0 0 0 3.295-4.28c.764-.211 1.54-.41 2.045-1.068.602-.786.805-1.537 1.391-2.206 2.313-.49 4.623-.984 6.935-1.473 3.61.462 7.246-.408 10.94.995 3.452 1.314 6.87.804 10.352 1.217 1.669 1.621 3.53 2.772 5.696 3.799 1.395.66 2.08 1.632 3.27 2.51.948.7 2.043.997 3.07 1.515.372.502.7 1.06.925 1.761-.193.968.201 1.975 1.467 2.172.453.074.898.171 1.332.296.728.387 1.436.82 2.007 1.393.534.535.854 1.19 1.07 1.883.042.462.05.94.036 1.482-.028.973-.108 1.843.599 2.614.43.47 1.099.635 1.65.923.101.203.22.404.372.603.762 1.007.407 3.312.104 5.386m51.152 10.123c-1.14-7.981-6.151-13.837-11.46-19.45-3.614-3.825-5.894-6.08-7.466-11.459-1.134-3.881-1.765-7.697-3.83-11.25-7.574-13.036-23.628-16.958-37.67-15.788-19.078 1.592-38.21 7.31-56.901 11.262-3.005.633-4.402 2.758-4.552 5.075-8.737 4.506-16.45 11.857-21.799 19.45-5.58 7.918-11.447 15.688-13.52 24.558-1.831 4.043-2.786 7.998-1.492 13.287C4.186 85.385 7.04 91.594 9.92 97.521c-.013.749.127 1.562.493 2.44 1.449 3.473 2.467 6.868 3.109 10.311-1 8.072-2.694 16.985 3.985 22.95 2.869 2.562 6.568 3.557 10.093 4.854 5.681 2.091 10.613 4.563 15.838 7.588 12.15 7.029 32.314 16.984 45.46 7.134a26.425 26.425 0 0 0 3.901-2.546c.9-.245 1.79-.696 2.626-1.439 7.836-6.95 14.23-15.334 22.181-22.157 7.748-6.65 16.378-12.157 23.67-19.351 7.744-7.643 16.533-19.13 17.694-30.649 2.009-4.182 3.036-8.62 2.382-13.198"/><path fill="#081F2C" d="M103.42 7.637c11.297 1.828 23.603 3.854 31.986 12.385 7.49 7.62 6.55 18.977 13.007 27.23 3.363 4.3 7.508 7.885 9.647 13.023 2.473 5.95 2.352 12.695.508 18.81-3.534 11.727-12.732 20.897-21.51 28.974-8.68 7.987-17.981 15.304-26.19 23.793-6.884 7.122-12.963 15.7-21.73 20.684-11.761 6.686-24.836 2.724-35.984-3.234-9.368-5.01-18.05-10.497-28.15-13.97-3.08-1.059-6.512-2.212-8.907-4.55-3.597-3.52-2.837-8.263-2.293-12.757.623-5.151.33-9.702-1.302-14.663C8.674 91.747-1.361 78.795 6.067 66.534c.707-1.168-1.122-2.233-1.83-1.069-5.568 9.198-1.922 19.582 2.116 28.617 3.176 7.103 6.34 13.899 5.603 21.867-.483 5.217-1.976 10.587 1.57 15.13 2.508 3.213 6.508 4.74 10.224 6.058 6.55 2.324 12.672 5.048 18.715 8.508 10.649 6.098 21.907 13.196 34.696 12.608 10.951-.504 19.226-7.607 26.35-15.25 9.144-9.805 18.53-18.87 28.624-27.71 15.435-13.518 39.777-36.132 26.382-58.927-4.008-6.819-10.426-11.183-12.96-19.01-1.79-5.532-2.59-11.077-6.115-15.867-8.21-11.158-22.656-13.82-35.458-15.892-1.334-.216-1.908 1.822-.563 2.04M10.637 50.75C26.75 26.331 54.236 10.885 83.475 9.797c1.36-.049 1.366-2.167 0-2.117-30.014 1.118-58.13 16.94-74.665 42-.754 1.138 1.08 2.2 1.827 1.068"/><path fill="#081F2C" d="M99.958 77.697c.015-2.927 3.128-4.99 2.497-8.061-.164-.8-.648-1.336-1.11-1.973-1.211-1.666-1.812-3.3-2.45-5.276-.417-1.294-2.462-.741-2.043.56.438 1.361.754 2.853 1.372 4.138.417.87 1.17 1.295 1.624 2.076 1.501 2.589-1.995 5.723-2.007 8.536-.007 1.365 2.11 1.365 2.117 0"/><path fill="#081F2C" d="M100.755 66.261c1.243-1.748 2.277-4.339 1.586-6.506-.28-.872-.792-1.441-1.493-2.013-1.58-1.293-2.617-2.137-3.07-4.192-.292-1.332-2.335-.769-2.043.563.364 1.646 1.126 3.117 2.41 4.241 1.056.923 2.161 1.801 2.206 3.31.038 1.268-.72 2.538-1.425 3.528-.79 1.114 1.046 2.172 1.83 1.07M85.049 40.48c.213-.957 1.621-.523 2.157-.12.775.585 1.262 1.628 1.122 2.598-.19 1.333 1.849 1.907 2.044.563.302-2.119-.623-4.284-2.592-5.28-1.7-.862-4.305-.439-4.773 1.675-.294 1.327 1.747 1.897 2.042.563"/><path fill="#081F2C" d="M93.33 46.512c1.497-.125 3.722-.266 3.674 1.84-.039 1.638-.902 3.092-.814 4.768.072 1.354 2.192 1.365 2.118 0-.127-2.392 1.72-4.828.195-7.111-1.131-1.696-3.35-1.763-5.173-1.613-1.349.112-1.362 2.23 0 2.116M68.489 34.545c-2.873-.302-5.361 1.135-7.472 2.957-1.832 1.583-3.674 3.672-2.368 6.157.633 1.204 2.463.135 1.828-1.069-.883-1.68 2.062-3.716 3.218-4.516 1.465-1.016 2.996-1.6 4.794-1.412 1.353.142 1.342-1.977 0-2.117M51.836 47.684c.81 3.296-3.153 4.53-3.39 7.554-.133 1.693.777 3.05 1.738 4.34 2.162 2.909 3.138 4.498 3.412 8.287.182 2.546.156 5.147-.134 7.685-.154 1.35 1.963 1.34 2.118 0 .465-4.07.85-9.672-.886-13.522-.347-.766-.802-1.36-1.3-2.043-2.454-3.37-2.968-1.938-.787-7.507.243-.622 1.19-.86 1.389-1.555.493-1.736.307-2.072-.119-3.802-.324-1.322-2.367-.762-2.041.563"/><path fill="#081F2C" d="M57.448 57.277c-2.223 2.85-3.52 6.05-3.881 9.653-.136 1.352 1.984 1.344 2.117 0a15.764 15.764 0 0 1 3.26-8.157c.829-1.063-.658-2.57-1.496-1.496M59.273 67.016c2.494-2.233 5.564-3.342 8.908-3.285 1.361.023 1.361-2.093 0-2.117-3.905-.067-7.5 1.306-10.405 3.905-1.016.91.485 2.405 1.497 1.497M77.445 60.798a33.402 33.402 0 0 0 9.143 3.27c1.332.267 1.902-1.773.564-2.04a31.474 31.474 0 0 1-8.637-3.056c-1.203-.64-2.274 1.187-1.07 1.826M66.442 91.336c1.7-.967 3.47-1.337 5.418-1.11 1.374.158 2.782.73 4.188.573 1.728-.193 2.749-1.348 3.278-2.925.436-1.293-1.61-1.85-2.041-.561-.88 2.626-4.834.643-6.877.713-1.82.06-3.464.59-5.036 1.484-1.183.673-.118 2.501 1.07 1.826"/><path fill="#081F2C" d="M79.009 88.726c1.116-2.925.084-5.706-.074-8.695-.127-2.385.578-4.315 2.4-5.902 1.993-1.736 7.992-4.11 9.376-.072.44 1.28 2.486.73 2.042-.561-1.849-5.393-9.075-4.003-12.63-1.152-1.775 1.427-3.03 3.404-3.293 5.687-.394 3.412 1.406 6.8.137 10.13-.484 1.276 1.561 1.826 2.042.565M60.391 106.02c.659-1.56.818-3.262 1.447-4.797 1.547-3.778 4.508-2.573 7.637-2.89 2.058-.206 4.42-1.65 6.378-.445 1.948 1.202 2.06 4.347 2.553 6.356.324 1.322 2.365.761 2.041-.561-.514-2.11-.61-5.287-2.25-6.885-1.963-1.918-4.866-1.592-7.208-1.033-2.973.713-6.056-.28-8.751 1.513-2.825 1.875-2.452 4.78-3.676 7.672-.523 1.24 1.3 2.32 1.83 1.07M78.397 93.591c2.248 1.717 6.03.51 7.076 3.575.309.908.472 1.875 1.092 2.641 1.07 1.323 3.731 1.562 1.938 3.757-.853 1.048.635 2.553 1.497 1.496 1.044-1.278 2.09-2.819 1.323-4.508-.3-.664-.777-1.056-1.44-1.346-1.274-.556-1.878-1.011-2.293-2.343-.45-1.443-.997-2.658-2.41-3.371-1.829-.92-4.037-.447-5.714-1.727-1.082-.826-2.139 1.01-1.07 1.826"/><path fill="#081F2C" d="M55.434 107.115c-.13-1.116-.277-2.259-.11-3.378.235-1.547 1.194-2.174 1.846-3.446.578-1.121.333-2.702 1.413-3.566 1.236-.988 3.442-.955 4.918-.87 1.362.076 1.358-2.04 0-2.116-2.784-.161-6.928.351-7.768 3.538-.375 1.414-.358 1.666-1.252 3.054-.351.549-.707 1.027-.936 1.65-.599 1.64-.425 3.438-.228 5.134.154 1.337 2.274 1.354 2.117 0M58.304 75.041c2.973-2.038 6.263-3.026 9.871-2.931 1.362.036 1.362-2.08 0-2.117-3.94-.105-7.69.99-10.94 3.222-1.116.766-.06 2.6 1.069 1.826M60.255 104.143c1.546.969 4.49 2.146 4.988 4.046.386 1.467.147 2.88.765 4.326.533 1.249 2.359.172 1.83-1.068-.754-1.761-.079-3.785-1.241-5.442-1.159-1.644-3.61-2.648-5.275-3.691-1.156-.726-2.219 1.105-1.067 1.829"/><path fill="#081F2C" d="M66.74 108.737c1.36.045 2.777-.008 4.128.184.966.136 1.8.563 2.802.449 2.579-.296 3.625-3.04 5.935-3.83 1.28-.441.73-2.485-.564-2.043-2.121.73-3.468 3.187-5.566 3.496-2.012.294-4.65-.302-6.736-.372-1.363-.047-1.361 2.07 0 2.116M53.966 109.827c.644 1.377 1.427 1.86 2.44 2.874 1.668 1.674.082 1.407-.24 3.344-.159.946.167 1.636.79 2.326 1.685 1.869 4.196 2.237 4.588 5.276.174 1.333 2.293 1.35 2.117 0-.188-1.46-.614-2.648-1.558-3.805-.52-.637-1.143-1.162-1.8-1.655a9.145 9.145 0 0 0-1.075-.741c-.951-.72-1.076-1.378-.38-1.977.382-1.07 1.142-1.48.66-2.739-.672-1.746-2.876-2.177-3.715-3.972-.574-1.232-2.401-.159-1.827 1.069"/><path fill="#081F2C" d="M63.908 124.758c1.401 2.64 3.745 2.16 6.34 2.379 3.171.262 4.225 1.4 6.313-1.38 1.48-1.975.602-4.384 2.077-6.164 2.035-2.457 6.056-2.958 6.687-6.43.241-1.329-1.798-1.9-2.043-.56-.392 2.156-4.182 3.606-5.724 5.07-.999.949-2.212 2.153-2.45 3.571-.306 1.823 1.167 4.034-2.2 4.265-.548.038-1.446-.373-2.045-.434-1.795-.184-4.044.652-5.126-1.386-.64-1.202-2.469-.134-1.83 1.069M53.462 75.55c-.194 4.637-3.227 8.368-2.96 13.173.237 4.3 2.7 7.682 3.907 11.704.39 1.3 2.435.745 2.041-.565-1.385-4.616-4.241-8.354-3.727-13.42.39-3.838 2.694-7 2.857-10.892.057-1.363-2.06-1.361-2.118 0M90.843 101.652c3.896-4.96 6.914-10.387 7.358-16.78.096-1.356-2.024-1.35-2.117 0-.402 5.78-3.218 10.803-6.738 15.284-.832 1.06.657 2.57 1.497 1.496M99.898 80.068c1.592-.32 4.07.084 4.155 2.159.088 2.203-2.982 2.11-4.436 2.059-1.364-.047-1.362 2.07 0 2.116 2.864.098 6.928-.747 6.521-4.5-.364-3.373-3.913-4.457-6.803-3.874-1.334.268-.769 2.309.563 2.04"/><path fill="#081F2C" d="M50.757 78.79c-2.257.161-6.111.963-6.393 3.764-.317 3.149 4.028 3.293 6.139 2.819 1.33-.297.766-2.337-.564-2.04-.662.15-4.397.317-3.207-1.059.857-.997 2.803-1.28 4.025-1.367 1.35-.097 1.361-2.214 0-2.117M70.332 127.24c.176 2.882-.226 7.82 2.698 9.547 2.168 1.279 6.424 1.922 8.247-.205 1.749-2.036 1.26-5.46 1.154-7.916-.13-2.952-.324-5.903-.59-8.847-.121-1.346-2.241-1.356-2.118 0 .313 3.444.552 6.91.648 10.369.06 2.176.56 5.14-2.643 5.585-5.22.726-5.065-5.05-5.278-8.533-.083-1.353-2.202-1.363-2.118 0M101.983 70.066c1.86-1.346 4.695-1.856 5.453-4.336.624-2.047-.398-4.373-2.348-5.249-1.233-.557-2.31 1.268-1.07 1.826 1.482.665 2.018 2.521.767 3.702-1.067 1.01-2.683 1.37-3.87 2.23-1.093.79-.039 2.627 1.068 1.827"/><path fill="#081F2C" d="M106.55 63.432c1.988-.89 3.964-2.84 4.01-5.158.051-2.534-2.113-3.973-4.135-4.986-1.215-.61-2.289 1.214-1.067 1.826 1.323.665 3.2 1.505 3.05 3.264-.132 1.549-1.633 2.647-2.927 3.227-1.24.553-.165 2.377 1.07 1.827"/><path fill="#081F2C" d="M109.324 54.918c1.093-1.718 2.092-4.165 1.345-6.199-.83-2.262-3.26-2.906-5.398-3.23-1.332-.205-1.907 1.835-.563 2.04 1.525.231 3.536.45 3.991 2.18.365 1.393-.476 2.995-1.202 4.143-.733 1.153 1.099 2.215 1.827 1.066"/><path fill="#081F2C" d="M107.206 46.512c.931-1.828.637-3.907-.6-5.53-1.43-1.884-3.79-2.641-6.017-3.08-1.332-.26-1.902 1.778-.565 2.04 2.363.464 7.048 2.18 5.354 5.501-.618 1.211 1.21 2.284 1.828 1.07"/><path fill="#081F2C" d="M102.863 39.33c-.004-2.491-2.214-4.777-4.17-6.068-2.292-1.509-4.945-1.998-7.634-1.617-1.345.19-.773 2.23.563 2.043 1.914-.271 3.843.13 5.514 1.1 1.45.842 3.608 2.673 3.61 4.542 0 1.363 2.117 1.365 2.117 0"/><path fill="#081F2C" d="M93.174 31.82c-1.84-5.637-10.877-7.694-14.951-3.482-.947.98.55 2.478 1.499 1.498 2.863-2.96 10.053-1.61 11.41 2.546.422 1.289 2.467.737 2.042-.563"/><path fill="#081F2C" d="M81.026 27.36c-4.013-4.51-10.742-4.512-14.759-.006-.904 1.016.59 2.517 1.497 1.497 3.282-3.68 8.479-3.687 11.765.006.906 1.02 2.399-.482 1.497-1.496"/><path fill="#081F2C" d="M69.029 26.096c-.208-1.384-2.067-1.57-3.183-1.655-1.685-.131-3.443.281-4.836 1.26-2.48 1.739-3.316 5.187-1.768 7.805.692 1.172 2.524.11 1.827-1.07-.889-1.504-.56-3.421.701-4.63.693-.664 1.603-1.041 2.541-1.194.248-.04 2.647-.146 2.676.047.202 1.342 2.243.772 2.042-.563"/><path fill="#081F2C" d="M58.376 28.892c-2.276.458-4.5 1.93-5.117 4.284-.538 2.057.275 4.21 2.064 5.344 1.154.735 2.217-1.098 1.07-1.826-1.133-.72-1.457-2.193-.93-3.395.616-1.401 2.054-2.078 3.477-2.366 1.334-.269.768-2.31-.564-2.04"/><path fill="#081F2C" d="M53.737 35.982c-4.878 1.767-3.927 7.374-1.471 10.768.79 1.092 2.627.036 1.827-1.068-1.505-2.08-3.307-6.388.208-7.66 1.27-.461.722-2.508-.564-2.04M60.79 54.548c.132-1.198.231-2.156 1.54-2.641.52-.193 1.158-.176 1.7-.296 1.146-.256 2.274-.682 3.219-1.387 1.755-1.306 2.572-3.318 2.106-5.458-.287-1.33-2.329-.766-2.04.563.85 3.913-3.9 3.763-6.194 4.75-1.85.793-2.249 2.647-2.448 4.47-.146 1.352 1.974 1.341 2.118 0"/><path fill="#081F2C" d="M68.644 48.565c.703-.504 1.499-1.158 2.37-1.334 1.09-.218 1.829.369 2.788.68 1.058.345 2.115.442 3.1-.163 2.583-1.587 1.535-4.826 2.04-7.255.278-1.332-1.763-1.901-2.042-.565-.246 1.187-.149 2.31-.204 3.513-.027.59-.004 1.522-.438 2.013-.942 1.068-1.768.45-2.704.08-2.295-.906-4.053-.184-5.98 1.204-1.094.788-.038 2.625 1.07 1.827"/><path fill="#081F2C" d="M77.585 46.558c4.529.79 8.031 4.571 12.855 3.991 1.336-.158 1.353-2.277 0-2.116-4.508.544-8.002-3.168-12.292-3.918-1.334-.23-1.905 1.808-.563 2.043M96.331 70.703c.106 3.553 1.072 6.995 1.178 10.544.04 1.359 2.157 1.365 2.117 0-.106-3.551-1.071-6.993-1.177-10.544-.04-1.359-2.158-1.365-2.118 0M55.16 74.432a32.344 32.344 0 0 0-4.927-3.66c-1.186-.72-2.596-1.246-3.127-2.675-.566-1.511.537-3.42 1.55-4.438.96-.965-.536-2.464-1.5-1.497-1.95 1.958-3.133 5.34-1.533 7.89.763 1.216 2.054 1.668 3.248 2.371a29.01 29.01 0 0 1 4.792 3.505c1.008.912 2.51-.58 1.497-1.496"/><path fill="#081F2C" d="M45.997 65.271c-2.361-1.47-3.52-4.398-2.529-7.056.754-2.023 2.28-3.315 2.245-5.598-.023-1.361-2.14-1.365-2.117 0 .031 1.928-1.536 3.206-2.154 4.897-.449 1.222-.555 2.532-.364 3.816.366 2.46 1.76 4.466 3.851 5.768 1.159.723 2.222-1.105 1.068-1.827"/><path fill="#081F2C" d="M44.348 56.185c.364-.96.004-1.454-.445-2.315-1.135-2.167-.663-4.038 1.476-5.344 2.094-1.28 4.459-1.772 6.197-3.613.934-.993-.56-2.491-1.497-1.496-2.104 2.23-5.532 2.406-7.586 4.711a5.46 5.46 0 0 0-1.36 3.092 5.823 5.823 0 0 0 .225 2.275c.142.453 1.099 1.73.948 2.127-.482 1.277 1.563 1.827 2.042.563M96.743 87.837c.05 2.146.809 4.174.885 6.267.262 7.037-1.34 4.768-3.763 8.53-.379.592-.745 1.187-.87 1.875-.506 2.802.726 2.605-.845 6.12-1.66 3.708-2.956 6.5-7.498 7.209-3.394.53-5.928 1.287-8.764 3.257-1.109.77-.052 2.606 1.07 1.827 4.019-2.792 8.4-1.96 12.518-3.947 1.022-.494 1.795-1.093 2.39-2.083.585-.971.424-1.947.851-2.902.56-1.253 1.665-2.25 2.29-3.456.412-.8.594-1.494.753-2.372.345-1.895-.315-3.577.896-5.436.555-.85 1.607-1.373 2.179-2.262 2.469-3.852.122-8.508.025-12.627-.032-1.36-2.151-1.365-2.117 0M78.474 104.666l.036.13c.119.435.559.794 1.02.778.428-.017.78.059 1.047.425.794 1.092 2.632.036 1.827-1.067-.701-.963-1.658-1.522-2.873-1.475.34.258.68.516 1.02.777-.01-.045-.023-.087-.036-.131-.36-1.313-2.4-.754-2.041.563M62.737 99.091c2.95 2.866 6.816 4.36 10.93 4.163 1.358-.063 1.364-2.18 0-2.116-3.582.171-6.856-1.037-9.433-3.543-.976-.95-2.475.546-1.497 1.496M51.187 92.798c.29 1.807-.87 3.45-1.148 5.198a9.535 9.535 0 0 0 .108 3.583c.71 3.162 3.557 5.126 4.246 8.241.292 1.33 2.335.767 2.043-.563-.665-3.007-3.318-4.831-4.14-7.744-.942-3.344 1.45-6.025.932-9.278-.214-1.34-2.255-.773-2.041.563M66.168 77.697a2.312 2.312 0 1 1-4.625.002 2.312 2.312 0 0 1 4.625-.002M89.03 77.697a2.312 2.312 0 1 1-4.625.002 2.312 2.312 0 0 1 4.625-.002"/></g></svg>