<svg xmlns="http://www.w3.org/2000/svg" width="44" height="44" viewBox="0 0 164 164"><g fill="none" fill-rule="evenodd"><path fill="#081F2C" d="M24.783 28.14c-3.993 4.447-4.271 9.475-4.633 15.146-.186 2.916-3.498 8.528-3.498 8.528-2.73 4.613-3.738 12.52-3.738 24.601 0 11.967 5.549 21.713 9.44 29.103 8.177 15.534 24.528 32.355 40.367 39.683 15.839 7.329 27.786 4.64 41.083-.265 7.142-2.635 13.886-6.198 20.448-10.032 6.388-3.731 13.044-7.414 18.842-12.038 7.227-5.764 9.577-11.472 11.461-15.239 1.257-2.109-1.23-3.763-2.122-1.109-4.205 14.319-19.401 20.99-31.685 27.964-12.451 7.07-26.216 13.112-40.84 12.583-14.935-.54-28.661-11.573-37.99-19.843-9.328-8.27-18.34-23.51-20.975-29.283-6.881-9.694-6.881-35.334-3.66-42.855 2.867-5.252 4.757-8.512 5.07-14.328.495-9.158 6.42-16.416 16.067-16.579 1.36-.023 1.352-2.14-.016-2.116-5.225.087-10.1 2.158-13.621 6.078zM147.341 47.185c-10.627-13.13-27.393-24.172-42.858-30.643-7.977-3.338-16.126-4.476-24.721-4.485-9.684-.014-19.336.717-28.706-2.275-1.298-.416-1.841 1.63-.547 2.044 12.574 4.016 25.57 1.328 38.442 2.748 14.827 1.637 28.1 10.34 39.993 18.8 11.597 8.251 21.43 18.456 26.193 32.11 0 1.139 3.247 1.511 1.99-1.148-1.548-4.102-4.218-10.271-9.786-17.15z"/><path fill="#666252" d="M61.028 85.809c.602.03 1.248-.383 1.518-1.006.152.012.306-.006.453-.048l.317.63c.04.082.094.128.14.196.256.744.528 1.484.826 2.217-.217.648-.71 1.248-1.281 1.767-.824-.31-1.84-.788-1.697-.714a1.41 1.41 0 0 0-.783-.131c.08-.958.296-1.95.507-2.911m48.916 37.56a9.639 9.639 0 0 0-1.414-2.773c-.002-.006 0-.012-.002-.016-.395-1.059-.734-2.122-1.084-3.185l-.326-4.795a1.48 1.48 0 0 0-.39-.918c.333-1.392.542-2.722.628-4.112.13-.64.25-1.281.352-1.925.212-.169.383-.4.444-.746.022-.128.026-.252.05-.382v-.013c.543-3.36.488-6.445-.179-9.739.032-1.05.057-2.101.06-3.15a59.022 59.022 0 0 0-.035-3.465 1.37 1.37 0 0 0-.518-1.055c-.242-1.05-.482-2.099-.708-3.15 0-.05.019-.084.013-.134a47.742 47.742 0 0 1-.309-6.574c.025-1.264-1.595-1.887-2.47-1.02-.342.255-.68.512-1.021.769-.552.176-.961.352-1.686.687l-.288-2.066c.01-.04.026-.07.033-.11.019-.128.024-.255.043-.385a.013.013 0 0 0 .008.001l.001-.067c.146-1.015.248-2.02.326-3.027.267.121.576.178.943.07.25.021.5.04.75.059 1.103.602 2.458-.393 2.127-1.63-.362-1.36-.859-2.685-1.381-4-.11-1.62-.504-3.22-.937-4.819-.31-1.764-.67-3.52-1.093-5.268a38.625 38.625 0 0 0-.564-3.097c.17-.223.28-.5.243-.876-.248-2.49-.48-5.105-1.99-7.198-1.179-1.636-1.134-.973-2.561-2.287-1.534-1.415-2.868-3.104-4.354-4.591-3.673-3.672-7.979-3.766-12.688-2.995-7.113-.432-14.374 5.138-18.019 10.937-2.715 4.32-1.7 8.738-2.614 13.568-1.036 5.486-2.109 10.736-2.49 16.326-.002.035.014.061.014.096a1.29 1.29 0 0 0-.264.819c.01.552.045 1.102.08 1.65a1.43 1.43 0 0 0-.278.758 52.462 52.462 0 0 0 .019 6.628l.016 5.567c.001.629.306 1.033.716 1.233l.122.918a39.4 39.4 0 0 0 .029 1.986 54.36 54.36 0 0 0 .353 10.691c.058.433.262.763.531.995v.42a224.327 224.327 0 0 1-.256 4.925c-.834-.284-1.905.134-1.922 1.291-.022 1.534.059 3.012.192 4.477.155 3.617.31 7.234.463 10.85.05 1.11 1.648 2.082 2.471 1.02.518-.666 1.01-1.353 1.517-2.024a90.307 90.307 0 0 0 5.058-5.627c.49-.596.43-1.272.116-1.77-.032-.065-.083-.118-.122-.177.054-.05.114-.074.164-.139l7.728-9.874c.14-.182.236-.371.294-.56.984-1.082 1.952-2.18 2.906-3.3a1.433 1.433 0 0 0 .257-1.51c.159-.15.3-.334.402-.575.028-.07.058-.139.087-.208.145-.346.142-.65.046-.904.107-1.551-.273-2.643-1.001-3.638-.008-.008-.01-.018-.016-.025l-.008-.007c-.697-.946-1.689-1.824-2.905-2.957a1.44 1.44 0 0 0-.456-.285c-.392-.702-.786-1.413-1.262-2.101a80.57 80.57 0 0 1-3.505-5.576c-.059-.112-.133-.228-.195-.342a40.541 40.541 0 0 1-1.188-5.304 1.361 1.361 0 0 0-.24-.586v-.027c-.237-1.619-.092-4.259-2.11-4.735-.913-.213-1.758.326-2.67.303-1-.026-1.818-.432-2.52-1.074-.005-.13-.016-.257-.018-.387-.001-.016-.01-.027-.01-.045.096-.135.17-.295.208-.487l2.728-2.753c.59-.122.885-.505.984-.943.415-.215.754-.59.813-1.166.383-3.622.601-7.247.69-10.88 1.432-1.634 2.92-2.83 4.995-3.606 1.568-.586 3.222-.958 4.729-1.708 1.175-.587 2.12-1.354 2.856-2.263.68.722 1.4 1.426 2.226 2.096.116.095.248.151.38.205l.021.017c1.46 1.659 3.054 2.754 5.072 3.537 1.302 1.016 2.732 1.85 4.396 2.562.358.153.756.143 1.122.035.37.095.754.167 1.164.183.197.007.395-.055.585-.141.816.333 1.647.641 2.497.917.816.682 1.815 1.01 2.831 1.344.119.091.245.175.385.225-.011.065-.042.117-.045.19a187.34 187.34 0 0 0-.252 10.858c-.005.114-.011.226-.015.34-.264.164-.481.427-.568.838-.854 4.01-1.498 8.03-1.969 12.1-.317.168-.566.437-.622.834l-.316 2.19c-.042.065-.094.107-.13.183a24.674 24.674 0 0 1-.98 2.075c-.072.089-.137.177-.2.266-.183.233-.353.465-.542.742-.854 1.065-2.107 1.848-2.565 3.162-.335.96-.384 2.122-.325 3.315-.288 1.346-.275 2.51-.068 3.562-.146 1.057-.073 2.08.346 3.007.314.696.915.839 1.468.673 2.024 2.42 5.243 4.257 7.938 6.73l1.905 2.13c.01.011.025.014.036.027-.555.758-.47 1.96.701 2.18.087.016.17.045.253.065-.127.548.012 1.168.58 1.584l5.027 3.684c1.027.755 2.486-.493 2.126-1.629"/><path fill="#EBBD8E" d="M98.684 66.09c-.454-1.078-1.413-1.601-2.325-1.521a2.13 2.13 0 0 0-1.347-1.231 20.707 20.707 0 0 0-5.621-1.034l-3.706-2.24a41.772 41.772 0 0 0-4.547-2.746 2.33 2.33 0 0 0-.925-.269c-.534-.473-.931-.944-1.115-1.398-.397-.986-1.497-2.016-2.685-1.524-5.815 2.413-12.923 3.686-10.853 11.008-.701.298-1.273.909-1.338 1.875a95.128 95.128 0 0 1-.313 3.491c-.046.156-.115.287-.135.464-.134 1.203-.27 2.406-.402 3.608-.119.039-.241.077-.355.134a2.523 2.523 0 0 0-.487-.064 3.065 3.065 0 0 0-.46.034c-.217-.274-.576-.468-1.117-.482-.91-.024-1.405.625-1.475 1.347-.173.247-.27.533-.255.832a1.602 1.602 0 0 0-.077 1.483c.556 1.28 2.837 1.006 4.155.18.768.24 1.686.238 2.397.101.2.066.4.093.598.117.048.04.088.088.137.125a3.89 3.89 0 0 0-.154.756c-.247 3.006.228 5.84 1.386 8.496a3.203 3.203 0 0 0 .13 1.646c1.476 4.34 3.955 7.747 7.586 10.362.562.933 1.401 1.561 2.377 1.955-.272.438-.375 1.004-.184 1.672.634 2.227 1.294 4.463 1.703 6.744.424 2.364.227 4.802.67 7.147.404 2.134 2.055 4.366 4.554 3.733 3.016-.764 2.97-4.613 3.259-7.1.596-5.118.726-10.25.515-15.393.334-.39.653-.787.935-1.203a9.58 9.58 0 0 0 1.798-2.624 6.216 6.216 0 0 0 1.547-2.294c1.177-3.06 1.997-6.19 2.527-9.379.202-.79.382-1.586.57-2.378 1.08-2.21 1.225-4.527 1.818-6.899.58-2.313 2.212-5.157 1.214-7.53M103.132 73.11a11.263 11.263 0 0 1-.258-.663c-.269-.775-.976-.438-1.158.219l-.017.062c-.172.1-.328.273-.445.562-.342.835-.344 1.99.027 2.814.038.427.127.832.293 1.177.674 1.407 1.761.524 2.139-.731.332-1.109.612-3.227-.58-3.44"/><path fill="#081F2C" d="M74.186 64.013c-2.171.462-4.174 1.595-5.915 3.353-.652.656-.005 2.13.655 1.466 1.664-1.678 3.53-2.74 5.605-3.183.822-.177.473-1.81-.345-1.636M70.19 62.732c1.678-2.211 3.82-3.601 6.297-4.107.898-.182.518-1.793-.375-1.61-2.698.549-5.102 2.133-6.923 4.536-.607.799.392 1.985 1.002 1.181"/><path fill="#081F2C" d="M99.733 63.54c-.9.855-4.637-1.782-5.954-2.193-2.242-.697-4.257-.665-6.424-1.825-3.996-2.134-7.427-5.486-10.912-8.342-.727-.598-1.776.437-1.042 1.04.405.33.812.678 1.219 1.027a.719.719 0 0 0-.705-.034c-3.217 1.554-7.346 2.835-10.087 5.156-.715.605-1.355 1.342-1.652 2.253-.552 1.693.669 3.662-.096 5.257-.408.85.862 1.598 1.273.743.4-.836.486-1.446.425-2.37-.043-.665-.328-1.348-.326-2.014.006-1.697 1.068-2.614 2.36-3.443 2.705-1.733 5.956-2.913 8.848-4.31.483-.235.445-.737.172-1.059 3.833 3.286 7.868 7.107 12.668 8.594 1.256.389 2.656.354 3.885.748 2.02.645 2.142 1.587 3.698 2.329 1.4.668 2.592.527 3.692-.517.688-.653-.356-1.694-1.042-1.04M82.926 79.374c-.763.456-1.543.942-2.425 1.074-.835.123-2.245-.305-2.086-1.498.126-.951-1.257-1.363-1.385-.403-.197 1.478.58 2.71 1.912 3.235 1.634.645 3.307-.267 4.708-1.105.803-.48.082-1.784-.724-1.303M83.54 91.418c.812-.311.46-1.638-.363-1.325-2.482.95-5.04.61-7.194-.965-.71-.519-1.39.672-.686 1.186a8.634 8.634 0 0 0 8.243 1.104M74.493 46.499a20.429 20.429 0 0 1 4.33-8.263c.6-.701-.468-1.702-1.077-.994-2.272 2.643-3.866 5.6-4.722 8.883-.228.878 1.24 1.253 1.47.374M80.546 42.464c.302-1.891.77-3.74 1.41-5.56.32-.905-1.218-1.294-1.535-.39a31.935 31.935 0 0 0-1.41 5.557c-.15.931 1.385 1.333 1.535.393M83.705 35.513c.98.096 1.999.12 2.97.29 1.836.325 2.536 1.235 3.578 2.713 1.448 2.053 2.892 4.104 4.337 6.155.55.78 1.829.027 1.273-.762-1.911-2.71-3.683-6.11-5.991-8.468-1.512-1.544-4.192-1.244-6.167-1.437-.944-.092-.936 1.417 0 1.51"/><path fill="#081F2C" d="M57.446 76.305c.008-5.92 2.443-11.356 3.016-17.193.326-3.307-.121-6.708 1.474-9.764 1.098-2.107 2.87-3.785 4.678-5.32-.485 2.171-.235 4.52-1.733 6.362-.581.713.435 1.738 1.023 1.018 1.938-2.383 1.38-5.182 2.393-7.92.72-1.948 2.268-3.447 3.836-4.771 2.317-1.957 4.279-2.317 7.167-2.275.933.013.933-1.427 0-1.44-4.372-.063-6.867 1.175-9.91 4.305-.82.84-1.534 1.746-2.062 2.767a.721.721 0 0 0-.755.114c-4.433 3.671-7.123 7.235-7.374 13.109-.303 7.15-3.19 13.87-3.199 21.008 0 .926 1.446.927 1.446 0"/><path fill="#081F2C" d="M62.006 89.05c-1.41-.036-1.383-1.987-.168-2.258a.641.641 0 0 0 .312.167c1.149.264 1.178 2.12-.144 2.09m8.725 8.612l-.257 9.279c-.024.941 1.41.94 1.434 0 .08-2.824.158-5.648.234-8.474.21.234.414.47.635.696.65.67 1.664-.364 1.014-1.035-5.17-5.325-6.977-12.557-7.46-19.835a.719.719 0 0 0-.161-.404c-.039-.323-.255-.608-.671-.578-1.08.073-2.16.124-3.242.137-.81.009-2.462.228-2.785-.839-.288-.952.59-1.873 1.38-2.181.947-.37 2.035-.28 3.028-.232.717.035.866-.834.469-1.247v-1.241c0-.942-1.434-.943-1.434 0v1.017c-2.325.075-5.122.868-4.903 3.785.122 1.62 1.368 2.233 2.86 2.425-.072 2.192.081 4.36.437 6.52-1.014.37-1.775 1.291-1.843 2.448-.086 1.413 1.034 2.5 2.373 2.599 1.292.095 2.472-.766 2.601-2.117.112-1.172-.567-2.355-1.657-2.747a31.714 31.714 0 0 1-.48-6.629c.953-.013 1.894-.118 2.634-.188.367 4.878 1.327 9.691 3.415 13.973-.365-.01-.75.22-.771.7l-.82 17.803c-.043.94 1.39.937 1.433 0 .266-5.76.532-11.519.796-17.28a24.576 24.576 0 0 0 2.018 3.094.688.688 0 0 0-.277.55"/><path fill="#000" d="M65.835 121.513c.01-.065.018-.131.025-.199.016.068.035.138.054.205.639.128.96 2.292.618 1.582-4.783 5.913-12.667 12.046-10.478 9.166-.774-4.214-1.109-8.456-.807-12.737.299-4.207 1.348-8.352 1.203-12.589-.152-4.467-1.023-8.898-1.277-13.365-.268-4.689-.212-9.376.083-14.06.058-.925 1.508-.928 1.45 0-.557 8.873.482 17.341 1.119 26.15.307 4.26-.589 8.33-1.015 12.543-.442 4.363-.196 8.716.545 13.03 1.256-1.38 2.525-2.75 3.785-4.127-.437.196-1.056-.005-1.036-.617l1-30.308c.03-.929 1.48-.93 1.451 0-.334 10.102-.667 20.205-1.053 30.529a114.891 114.891 0 0 0 3.325-3.812c-.164-.01-.33-.06-.487-1.39.107-.656-.048-1.884-.044-2.326a510.736 510.736 0 0 0 .007-8.78c-.007-.932 1.443-.93 1.45 0 .02 2.487.024 4.974.005 7.463-.003.435.055 1.022.097 1.643.477-1.562 2.255-2.985 3.238-4.146 2.528-2.986 5.697-5.975 7.234-9.607.177-.416.606-.532.954-.447-.156-1.293-.336-2.586-.478-3.881-.055-.496.335-.714 1.322-.743 3.704 1.556 7.072.233 9.766-2.254-.018-.512.41-.73.805-.68 1.682-1.716 3.058-3.822 4.031-5.811 1.465-2.993 1.742-6.797 2.36-10.034.58-3.053 1.165-6.107 1.747-9.16.174-.913 1.572-.524 1.399.384-1.047 5.483-1.538 11.42-2.888 17.435-.405 6.962-.17 13.876 1.028 21.412 1.944 1.198 3.062 3.126 4.756 5.535.003.113-.015.231-.515 1.258 2.93 1.805 5.713 3.89 8.217 6.251-1.72-5.302-3.113-10.572-2.214-16.2 1.237-7.734.95-14.482-.203-22.23-.513-3.438-.976-6.908-1.47-10.38-.679.927-1.824 1.537-2.995 1.599.41 8.373.99 16.737 1.754 25.088.085.927-1.366.919-1.45 0a593.647 593.647 0 0 1-2.161-34.988c-.03-.931 1.42-.927 1.45 0 .038 1.159.093 2.317.138 3.477.928-.253 1.898.007 2.642.586-1.308-8.567-2.986-17.085-6.21-25.112-.347-.864 1.056-1.237 1.398-.383 5.06 12.599 6.317 26.408 8.3 39.73.928 6.227 1.91 12.533.96 18.822-.487 3.228-1.252 6.316-.962 9.612.33 3.794 5.16 14.55 2.279 12.465a902.447 902.447 0 0 1-5.765-4.208l-4.812-3.39-.632-.326 1.214-1.671c-1.794-2.295-3.034-3.634-3.72-4.015-.685-.382-3.244-2.16-7.676-5.335-.932 6.723-1.51 10.396-1.734 11.021-.337.937-2.399 1.72-3.313 1.72-.914 0-3.694 0-4.078-1.394-.284-1.331-1.047-5.522-2.29-12.573-1.69 2.788-3.044 4.672-4.064 5.654-1.529 1.473-5.88 5.998-5.88 6.935 0 .928-2.114 1.962-1.502 1.983z"/><path fill="#EBBD8E" d="M103.174 77c1.432-.052 3.066-1.08 2.797-2.468-.23-1.19-1.742-1.835-2.971-1.392.057 1.287.106 2.573.174 3.86z"/><path fill="#666252" d="M92.364 97.101a20.504 20.504 0 0 1-2.352 2.297c.1 2.59.124 5.136-.012 7.637.025.018.052.025.077.05 1.763 1.719 3.771 2.813 5.923 3.915a94.837 94.837 0 0 1-.834-18 21.724 21.724 0 0 1-2.802 4.101z"/><path fill="#EBBD8E" d="M88 100c-2.57 2.087-5.702 3.157-9 1.968.588 5.445 1.39 11.189 2.17 16.605 1.617.599 2.793.599 4.796-.197C87.064 112.089 88 102.556 88 100z"/><path fill="#081F2C" d="M87.79 54.832c.676.552 1.662-.386.98-.942l-4.56-3.722c-.676-.552-1.661.386-.98.944l4.56 3.72M93.806 56.73c-2.968-3.331-3.466-8.042-4.341-12.204-.193-.92-1.64-.532-1.447.387.942 4.483 1.538 9.272 4.727 12.849.635.71 1.692-.327 1.061-1.033M95.567 51.484c-.19-.848-1.74-.488-1.55.358.671 2.982 2.254 5.651 4.638 7.94.682.652 1.814-.302 1.137-.95-2.209-2.122-3.603-4.59-4.225-7.348M100.383 114.19c.095 1.075 1.708 1.085 1.613 0l-.38-4.382c-.093-1.072-1.707-1.083-1.612 0l.38 4.382M94.51 67.203c-2.688-1.058-6.965-2.032-9.528-.087-2.421 1.842-2.076 6.507-1.757 9.17.113.947 1.563.957 1.449 0-.274-2.284-.773-6.844 1.523-8.188 2.208-1.295 5.75-.303 7.928.554.873.342 1.25-1.108.386-1.449"/><path fill="#081F2C" d="M88 71a2 2 0 1 0 3.998.002A2 2 0 0 0 88 71M75 71a2 2 0 1 0-4 0 2 2 0 0 0 4 0"/></g></svg>