<svg xmlns="http://www.w3.org/2000/svg" xmlns:xlink="http://www.w3.org/1999/xlink" width="263" height="209" viewBox="0 0 263 209">
    <defs>
        <path id="a" d="M200.337 91.32a106.525 106.525 0 0 0-1.954-11.39c-1.68-7.391-5.786-13.872-9.002-20.54-3.27-6.779-4.838-14.793-9.486-20.615-4.672-5.851-10.849-10.78-16.7-15.45-5.822-4.65-12.265-9.021-19.044-12.292-6.668-3.216-14.461-3.913-21.853-5.593C115.141 3.813 107.829.5 100.178.5c-7.65 0-15.522.846-22.68 2.473-7.392 1.68-13.264 7.662-19.932 10.88-6.778 3.27-13.071 6.714-18.893 11.362-5.851 4.672-10.52 10.118-15.192 15.968-4.649 5.822-10.856 10.645-14.126 17.424-3.218 6.667-4.69 14.161-6.371 21.553-.832 3.66-1.59 7.378-2.132 11.16h199.485z"/>
        <path id="c" d="M198.958.616c1.28 6.362 2.026 13.029 2.026 19.729 0 7.65-.922 15.27-2.549 22.427-1.681 7.391-5.249 14.144-8.466 20.812-3.27 6.779-7.415 12.923-12.063 18.744-4.672 5.851-8.887 12.335-14.737 17.007-5.823 4.647-13.205 7.052-19.983 10.322-6.669 3.217-13.79 4.624-21.181 6.303-7.158 1.628-14.176 4.698-21.827 4.698-7.651 0-15.365-.011-22.522-1.638-7.391-1.68-14.557-4.615-21.226-7.831-6.777-3.27-13.085-7.626-18.908-12.274-5.85-4.672-9.465-11.483-14.136-17.334-4.649-5.822-9.681-11.242-12.951-18.02-3.217-6.668-6.57-13.458-8.25-20.849C.558 35.555.014 27.995.014 20.345.014 13.567 1.068 7.003 2.44.616h196.518z"/>
    </defs>
    <g fill="none" fill-rule="evenodd">
        <path fill="#C1430C" d="M178.31 110.588c-.217 1.295-.347 2.593-.447 3.91-.027.356.023.675.13.957-.019 1 .01 1.99.137 2.946-.433.29-.785.75-.97 1.406a20.17 20.17 0 0 1-1.333 3.462c-2.753.389-5.512.715-8.274 1.003-8.833-.116-17.695-.302-26.486.579-8.393.84-16.62.966-24.965.665a2.474 2.474 0 0 0-.9-.033 271.107 271.107 0 0 1-5.123-.248c-.698-.041-1.235.17-1.629.518-3.716.08-7.427-.017-11.142-.283a116.847 116.847 0 0 0 1.904-19.33c13.413.304 26.925-.51 40.322-.803 12.922-.282 25.845-.564 38.768-.848-.03.243-.038.495.001.763.244 1.652.152 3.47.006 5.336m-51.248-20.781c-.002-1.854.27-4.02.043-5.978 4.777-2.07 9.79-2.903 14.884-3.111 2.876.567 4.262 2.078 6.12 4.099-.634.586-1.018 1.444-.788 2.403.46 1.914.917 3.828 1.376 5.743-5.742 2.315-11.79 2.877-17.82 1.782a2.561 2.561 0 0 0-.748-.667c-.689-.408-2.196-.501-2.698-.937-.697-.606-.368-2.624-.369-3.334m65.542 14.516c1.194-1.042 1.51-3.06-.298-3.95-7.83-3.847-14.61-9.211-21.51-14.482-3.21-2.452-6.607-5.554-10.267-7.306-1.913-.915-3.802-.804-5.734-.438-4.187-.33-8.37-.56-12.504-.413a26.556 26.556 0 0 0-2.653-.158c-6.46-.095-12.908.195-19.342.762-.73-.553-1.696-.72-2.585-.06-.176.13-.33.268-.5.4l-.006-.01-.146.133a18.739 18.739 0 0 0-1.912 1.719c-8.866 8.068-17.89 17.442-28.857 22.21-.482.21-.805.507-1.015.842-.535.353-.966.899-1.092 1.456-.76 3.374-1.274 6.796-1.322 10.26-.049 3.568 1.428 7.839.756 11.282-.305 1.562.686 3.18 2.41 3.164l8.22-.072c.215-.002.417-.03.605-.073.398.45.964.774 1.711.832 5.331.416 10.653.474 15.992.173.321-.018.601-.096.858-.201.678.03 1.36.07 2.038.096 13.083 3.495 27.902 1.792 41.467-.372 3.533-.207 7.06-.484 10.583-.845 1.518.019 3.035.038 4.551.047.813.005 1.42-.311 1.822-.786.604-.078 1.21-.146 1.813-.228.391.265.852.439 1.361.452l12.64.297c1.338.03 2.517-1.171 2.5-2.5-.059-4.495-.257-9.014-.17-13.51.05-2.467 1.193-5.974.586-8.721"/>
        <path fill="#FFF" d="M177.835 105.004c-12.907.9-25.87 2.168-38.822 1.798-12.966-.371-25.809-.944-38.786-.32-.905.043-1.79.934-1.447 1.899 1.38 3.862.4 7.658-.18 11.59-.08.546.1 1.003.403 1.33-.11 1.31-.212 2.622-.302 3.935-.07 1.043 1.01 1.618 1.9 1.447 12.393-2.376 25.295-1.507 37.853-1.798a909.987 909.987 0 0 0 37.548-1.668c.885-.057 1.397-.647 1.5-1.5l1.833-15.213c.093-.77-.763-1.552-1.5-1.5"/>
        <path fill="#335890" d="M147.57 85.573c.263-.525.262-1.169-.186-1.937-1.252-2.153-5.63-2.618-7.803-2.681-3.251-.095-8.163.615-10.79 2.643-2.02 1.562-1.63 5.997-1.237 8.278.495 2.867 3.557 2.731 6.03 2.918 3.617.272 8.993.273 12.274-1.534.056-.03.1-.068.152-.1.785.877 2.619.357 2.63-1.038a18.872 18.872 0 0 0-1.07-6.549"/>
        <g>
            <g transform="translate(39 5.639)">
                <mask id="b" fill="#fff">
                    <use xlink:href="#a"/>
                </mask>
                <path fill="#E35205" d="M207.731 6.262c-9.716-9.584-19.876-19.04-30.948-27.044a88.348 88.348 0 0 0-1.8-1.264c-7.315-6.36-15.24-12.006-23.83-16.668-20.31-11.02-44.01-16.985-67.133-14.276a95.885 95.885 0 0 0-15.676 3.185c-5.73.065-11.46.507-17.185 1.48-12.042 2.045-23.636 6.961-33.068 14.774C8.224-25.379 2.718-13.924-3.634-3.097c-7.34 12.511-18.885 21.433-26.76 33.521-4.204 6.452-6.714 13.86-9.082 21.133-2.558 7.862-4.753 15.77-4.724 24.108.003.87.14 1.681.373 2.436-2.85 4.992-.509 13.083 7.036 13.154 15.688.15 31.377.046 47.062-.343 7.842-.194 15.682-.457 23.52-.788 7.252-.306 14.821-.329 21.857-2.316 6.924-1.956 11.775-5.935 16.833-10.834 4.426-4.288 10.073-4.85 15.994-5.092 10.32-.42 20.65-.675 30.98-.927 5.308 5.314 11.178 10.222 18.476 12.446 9.391 2.862 20.52 1.541 30.22 1.577 20.875.08 41.75-.072 62.622-.434 4.44-.076 8.71-3.834 8.5-8.5-1.2-26.753-12.54-51.04-31.542-69.782" mask="url(#b)"/>
            </g>
            <g transform="translate(39 87.639)">
                <mask id="d" fill="#fff">
                    <use xlink:href="#c"/>
                </mask>
                <path fill="#EFECD3" d="M228.667 2.595c-.435-1.174-1.474-2.065-3.132-1.972-7.64.433-15.283.856-22.927 1.242-2.154.054-3.982.144-5.098.137-8.915-.05-17.827.146-26.732.52-.318-.322-.774-.52-1.387-.47-1.869.15-3.734.294-5.598.406-4.687-.177-9.374-.39-14.059-.66a3.379 3.379 0 0 0-1.539.25 45.707 45.707 0 0 1-3.488-.66c-.738-.172-1.347.048-1.78.45-.006-.004-.01-.008-.016-.01-2.2-1.352-4.21 2.106-2.019 3.454a240.858 240.858 0 0 1 6.317 4.022c.375.47.902.84 1.591 1.057a246.156 246.156 0 0 1 5.926 4.084 4.236 4.236 0 0 0-.406 1.466c-.719 8.152-1.88 16.886-1.592 25.243-6.484-.29-12.963-.772-19.458-.609-10.11.254-20.113 2.076-30.233 2.407-19.43.635-38.846-1.215-58.274-.573-1.79-8.252-1.86-16.538-.097-24.88.108-.512.105-.986.047-1.434 4.113-2.136 7.678-5.569 12.1-6.823 2.092-.592 1.784-4.132-.532-3.927-1.373.121-2.746.223-4.12.331-.484-.488-1.18-.802-1.917-.699-4.366.604-8.739 1.2-13.145 1.4-2.798.126-6.71-.747-9.363.115a2.149 2.149 0 0 0-.762.445l-65.755.174c-3.876.01-4.406 5.174-1.607 6.612-.415.985-.658 2.116-.659 3.404-.01 17.895 10.721 33.646 17.561 49.58C-16.71 82.461-5.43 95.35 7.741 106.21c10.165 8.382 21.243 15.4 32.96 21.051 6.955 3.661 14.195 6.773 21.708 9.088a92.222 92.222 0 0 0 10.384 2.54 173.622 173.622 0 0 0 21.78 4.04c16.55 1.976 33.33 1.183 49.661-2.063 4.262-.262 8.513-.785 12.56-1.84 3.596.091 7.177-.193 10.614-1.396 6.154-2.152 10.088-7.045 13.972-12.009 8.172-10.444 16.345-21.01 22.708-32.687 3.604-6.613 6.656-13.606 8.68-20.87 2.05-7.357 2.68-14.993 4.496-22.397 1.958-7.978 6.621-14.278 9.746-21.73 1.264-3.016 2.004-6.055 2.225-9.317.261-3.853-.398-7.654 1.942-10.999 1.663-2.378-.25-4.663-2.51-5.025" mask="url(#d)"/>
            </g>
        </g>
        <g fill="#071F2C">
            <path d="M146.105 83.459c-5.669 2.727-12.124 2.87-17.903.375-.026-.011-.05-.01-.075-.016 2.705-1.601 5.852-2.191 8.932-2.651 3.358-.502 7.193-.405 9.477 2.287a.494.494 0 0 0-.43.005m-18.33 1.896c-.006-.211-.019-.424-.026-.636.164.07.33.132.495.198l-.47.438m21.671 5.082c-.72-1.882-1.153-3.83-1.188-5.852-.015-.861.09-1.8-.945-1.924-.053-.007-.095.004-.14.012-1.91-2.126-4.787-2.882-7.689-2.764-4.062.166-8.686 1.034-12.157 3.213-.018.012-.027.028-.043.04-.283-.052-.598.098-.577.465.05.886.07 1.77.073 2.655-.168.156-.335.31-.502.467-.403.376.056.94.492.824a50.73 50.73 0 0 1-.097 2.205.367.367 0 0 0-.015.233c-.01.168-.018.335-.032.502-.05.64.95.638 1 0 .01-.103.013-.206.02-.31l3.938-3.151c.502-.403-.209-1.106-.707-.707l-3.147 2.518c.034-.716.05-1.432.052-2.15l1.507-1.402c5.698 1.988 11.808 1.664 17.321-.988.214-.103.278-.286.247-.461.108.149.216.298.315.46.028.048.065.077.1.11.034.92.165 2.377.214 2.677a18.34 18.34 0 0 0 .995 3.593c.228.595 1.195.337.965-.265"/>
            <path d="M116.008 78.346l-.005.003c-10.058 9.153-19.949 18.95-32.223 25.112-.545.275-.118 1.052.417.888a.49.49 0 0 0 .538.238c17.73-3.669 35.866-3.378 53.866-2.777 8.843.296 17.686.656 26.535.64 8.808-.016 17.658-1.158 26.451-.808l.001.001c.52.381 1.02-.486.504-.863-10.939-8.016-21.917-15.98-32.884-23.958-.52-.379-1.02.488-.505.863 10.496 7.635 21 15.26 31.472 22.927-8.329-.188-16.702.823-25.039.838-9.17.017-18.336-.372-27.5-.67-17.158-.565-34.43-.753-51.35 2.492 11.433-6.228 20.86-15.512 30.424-24.216.208-.189.184-.427.058-.603 13.313-.213 26.626-.428 39.938-.642.643-.01.645-1.01 0-1l-40.384.65c-.507.008-.608.627-.314.885"/>
            <path d="M192.828 126.985l.395-25.178c.01-.644-.99-.644-1 0l-.395 25.178c-.01.644.99.644 1 0M83.344 104.86a151.443 151.443 0 0 0-.076 24.81c.051.635 1.051.641 1 0a151.443 151.443 0 0 1 .076-24.81c.055-.64-.945-.638-1 0"/>
            <path d="M162.985 130.118c9.312-1.281 18.714-.985 28.08-.66.644.023.643-.977 0-1-9.102-.316-18.245-.616-27.303.556-8.527 1.103-16.859 2.318-25.483 2.365-17.812.096-35.523-2.485-53.34-2.185-.644.01-.646 1.01 0 1 17.817-.3 35.528 2.28 53.34 2.185 8.358-.045 16.45-1.125 24.706-2.261M177.243 74.596c2.625-1.857 5.25-3.715 7.875-5.57.521-.37.021-1.237-.505-.865l-7.874 5.572c-.522.368-.023 1.235.504.862M159.362 57.471a40.538 40.538 0 0 1 3.828-9.6c.313-.564-.551-1.069-.864-.505a41.581 41.581 0 0 0-3.928 9.84c-.161.623.803.89.964.265M139.179 51.588l-.01-9.6c0-.642-1-.643-1 0l.01 9.6c0 .644 1 .645 1 0M117.257 57.944c.337.547 1.203.045.864-.505a61.343 61.343 0 0 0-6.54-8.754c-.43-.48-1.136.23-.708.707a59.83 59.83 0 0 1 6.384 8.552M90.447 71.968A95.94 95.94 0 0 0 99.2 74.68c.624.161.89-.803.266-.964a95.946 95.946 0 0 1-8.754-2.712c-.606-.22-.867.746-.266.965M115.894 115.858c.182-.312.355-.627.54-.937.517-.869 1.044-1.732 1.584-2.587.294-.467.865-1.627 1.473-2.399l-1.17 5.375a9.508 9.508 0 0 0-2.427.548m2.428 4.133l2.427-11.136c.086-.395-.234-.68-.615-.615-1.639.28-2.65 3.052-3.439 4.324a125.038 125.038 0 0 0-4.295 7.525c-.299.57.563 1.075.864.504a134.792 134.792 0 0 1 2.174-3.942c.088.197.28.33.543.227a8.594 8.594 0 0 1 2.113-.53c-.246 1.125-.49 2.251-.737 3.377-.136.627.828.896.965.266M129.347 112.747c.343-.56.764-1.354 1.283-1.77.826-.657 1.251-.464.78.962-.548 1.662-2.057 2.74-3.48 3.665.4-.986.858-1.946 1.417-2.857m-3.014 7.71c.357-1.224.721-2.457 1.15-3.665a.422.422 0 0 0 .47-.013c1.781-1.146 3.74-2.444 4.421-4.573.282-.881.611-3.147-.867-3.21-1.327-.053-3.017 3.17-3.52 4.11-1.192 2.228-1.914 4.673-2.618 7.086-.18.619.784.884.964.266M140.104 115.368c-.582.274-.075 1.137.504.863 1.487-.701 2.7-1.84 3.226-3.43.282-.85.541-2.196-.395-2.761-1.485-.898-2.545 1.406-3.106 2.338-1.423 2.366-2.393 4.94-2.978 7.634-.136.627.827.895.964.265.581-2.672 1.515-6.133 3.394-8.22.293-.324 1.11-1.242 1.374-.598.103.248-.127.814-.217 1.076-.459 1.342-1.515 2.242-2.766 2.833M148.197 118.83c.015 1.658 2.217 1.236 3.315 1.254.643.01.644-.99 0-1-.437-.007-1.166.094-1.604-.025-.79-.214-.522-.297-.48-.955.064-.941.642-2.092.92-3.004.35-1.145 1.345-2.852.796-4.018-.275-.581-1.137-.074-.864.505.309.655-.852 3.105-1.08 3.847-.311 1.02-1.012 2.344-1.003 3.396M160.077 120.022a33.307 33.307 0 0 1 4.501-9.467c.364-.532-.502-1.033-.864-.504a34.246 34.246 0 0 0-2.685 4.674v-.01l-.836-3.909c-.135-.629-1.099-.362-.964.267l.836 3.908c.083.388.48.434.741.267a34.635 34.635 0 0 0-1.693 4.508c-.182.62.782.883.964.266M186.61 113.843c.164-.104.685-.294.843-.07.053.075.016.174-.073.28a.42.42 0 0 0-.376.242c-.04.075-.09.128-.139.188-.125.087-.247.17-.356.24-.59.051-.17-.706.101-.88m.105 1.912c.396-.132.72-.352.963-.668.362-.252.69-.532.787-.99.17-.805-.526-1.377-1.27-1.406-.808-.034-1.629.49-1.91 1.255-.288.778.22 1.746 1.075 1.772a.423.423 0 0 0 .355.037M88.89 116.414c.587-.26.08-1.122-.504-.863-1.406.623-.51 2.819.93 2.553.765-.141 1.35-.82 1.454-1.577.122-.886-.372-1.71-.995-2.293-.469-.44-1.178.266-.707.707.501.47 1.08 1.346.452 1.965-.585.577-1.143-.264-.63-.492M.799 94.604v.057l4.95-.108a6.66 6.66 0 0 1-.03-.999l-5.034.11c.052.308.094.622.114.94M35.575 93.044c-1.358.018-2.718.03-4.078.05.037.333.044.667.03 1 1.38-.02 2.758-.032 4.139-.051a2.779 2.779 0 0 1-.09-1M94.878 92.728c-18.22-.062-36.44.038-54.658.26a2.79 2.79 0 0 1-.072 1 3515.75 3515.75 0 0 1 54.73-.26c.644.002.645-.998 0-1M235.48 88.513c-18.369.113-36.736.3-55.102.58-.643.01-.645 1.01 0 1 18.383-.28 36.768-.467 55.153-.58a9.258 9.258 0 0 1-.052-1M250.416 88.438c.005.334-.01.668-.042 1 3.917-.015 7.834-.034 11.75-.043.026-.33.076-.665.137-1-3.95.008-7.897.027-11.845.043M107.746 138.337c-7.587-.62-15.175-1.237-22.762-1.855-3.629-.296-7.259-.576-10.886-.888-1.699-.147-3.434-.285-5.053-.86-.99-.35-3.112-1.098-2.184-2.761.341-.612 2.9-.363 3.532-.36.644.004.645-.996 0-1-1.587-.008-6.755.125-4.904 2.993 1.808 2.8 6.71 2.832 9.598 3.069 10.886.892 21.773 1.774 32.66 2.662.641.052.637-.948 0-1M124.09 140.827a243.93 243.93 0 0 0 71.298-5.612c.627-.144.362-1.108-.266-.964a243.01 243.01 0 0 1-71.033 5.576c-.642-.044-.639.956 0 1M70.416 100.741c-18.554.241-37.107.481-55.66.723-.644.008-.646 1.008 0 1 18.553-.242 37.106-.482 55.66-.723.643-.009.645-1.009 0-1M210.744 95.368l-21.683-.608c-.644-.02-.644.98 0 1l21.683.608c.644.018.643-.982 0-1M77.48 110.19c.637-.056.643-1.057 0-1-5.723.492-11.446.986-17.17 1.48-.636.054-.642 1.055 0 1 5.724-.494 11.447-.988 17.17-1.48M225.98 102.954c.64-.034.643-1.035 0-1-4.374.237-8.74.23-13.112-.016-.643-.036-.64.964 0 1 4.372.247 8.738.253 13.111.016M197.375 106.647l27.835.137c.644.003.644-.997 0-1-9.278-.046-18.557-.09-27.835-.137-.644-.003-.645.997 0 1M156.514 80.235l.812-.074c.636-.058.642-1.059 0-1l-.812.074c-.636.06-.642 1.06 0 1M118.45 80.06c-.644.007-.645 1.007 0 1 .272-.005.546-.008.819-.012.641-.009.643-1.009 0-1l-.82.011"/>
            <path d="M222.965 138.795c1.62-4.19-2.467-6.308-5.562-7.87-5.074-2.561-10.497-4.398-16.002-5.777-.625-.158-.891.807-.267.963 4.745 1.19 9.415 2.714 13.862 4.763 1.934.89 4.3 1.819 5.906 3.245 2.267 2.014 1.51 5.106-.988 6.48-4.026 2.215-8.977 3.655-13.382 4.908-5.057 1.439-10.258 1.99-15.461 2.638-21.344 2.648-42.827 4.469-64.35 4.392-12.134-.044-24.26-.721-36.312-2.146-.637-.075-.632.925 0 1 24.137 2.855 48.505 2.6 72.702.655 12.113-.974 24.242-2.246 36.272-3.974 4.955-.712 9.747-2.185 14.426-3.934 2.894-1.081 7.898-2.088 9.156-5.343M67.976 168.199l-1.657.021c-.643.008-.645 1.008 0 1l1.657-.021c.643-.009.645-1.009 0-1M160.318 167.82l-5.683 5.107c-.48.432.23 1.137.707.707l5.683-5.106c.48-.432-.229-1.137-.707-.708M108.605 169.329c-.644 0-.645 1 0 1 .644 0 .645-1 0-1M226.145 157.013c-3.7-.43-7.22-1.455-10.576-3.072-.577-.278-1.085.584-.505.864a34.514 34.514 0 0 0 11.081 3.208c.638.074.633-.927 0-1M38.454 128.797c-.83.01-1.657.02-2.486.032-.643.009-.645 1.009 0 1l2.486-.032c.643-.01.645-1.01 0-1M24.835 111.584l-3.304.87c-.622.165-.358 1.13.266.966l3.304-.872c.622-.164.358-1.13-.266-.964M238.805 100.692a3.323 3.323 0 0 1 3.568 1.35c.359.53 1.226.03.863-.505-1.044-1.538-2.888-2.26-4.697-1.809-.624.155-.36 1.12.266.964M177.477 98.901c1.135-.5 2.27-1 3.405-1.502.588-.26.08-1.12-.504-.863l-3.406 1.502c-.587.26-.079 1.121.505.863M178.35 94.007l-7.468 3.379c-.586.265-.078 1.127.504.863l7.47-3.38c.584-.263.077-1.126-.506-.862M174.876 92.852l-9.105 4.415c-.58.28-.073 1.143.504.863 3.035-1.47 6.07-2.943 9.105-4.414.579-.28.073-1.143-.504-.864M173.825 90.812a86.959 86.959 0 0 0-12.375 5.908c-.557.322-.054 1.187.505.863a85.235 85.235 0 0 1 12.135-5.806c.595-.229.338-1.196-.266-.965M170.83 88.362a230.944 230.944 0 0 1-13.957 7.584c-.575.288-.069 1.151.505.863a231.247 231.247 0 0 0 13.956-7.584c.554-.326.051-1.19-.505-.863M166.489 86.662a133.752 133.752 0 0 1-13.348 7.638c-.576.287-.07 1.149.505.863a133.555 133.555 0 0 0 13.348-7.638c.537-.35.037-1.216-.505-.863M162.545 84.579c-3.446 2.08-6.892 4.163-10.338 6.244-.55.333-.048 1.198.505.864l10.338-6.245c.55-.332.048-1.197-.505-.863M161.277 81.588c-2.746 1.754-5.49 3.508-8.236 5.26-.54.346-.04 1.213.505.865l8.235-5.261c.541-.345.04-1.212-.504-.864M157.281 81.384c-2.17 1.19-4.341 2.382-6.513 3.572-.564.31-.06 1.174.506.864l6.512-3.572c.565-.31.06-1.174-.505-.864M151.817 80.85a9.764 9.764 0 0 1-2.725 1.418c-.608.201-.348 1.167.266.964a10.635 10.635 0 0 0 2.963-1.52c.514-.376.016-1.244-.504-.863M148.465 80.667l2.28-.89c.592-.23.334-1.197-.267-.964l-2.279.889c-.593.232-.335 1.199.266.965M66.836 32.673l5.957 2.036c.61.208.872-.757.265-.965l-5.956-2.035c-.61-.21-.872.757-.266.964M147.284 3.217c.463-.994 1.244-1.801 2.267-2.222.587-.241.329-1.21-.267-.964-1.261.519-2.284 1.435-2.863 2.68-.27.58.592 1.089.863.506M190.54 46.97l4-1.5c.598-.223.339-1.19-.265-.963l-4 1.5c-.597.224-.338 1.19.266.964M134.384 87.728c.551-.33.05-1.196-.505-.863a42.401 42.401 0 0 0-6.779 5.063c-.507-.13-.899.616-.378.904 3.287 1.812 6.953 1.98 10.628 2.027 3.74.05 7.404-.194 10.755-2.003.566-.306.062-1.17-.505-.863-2.434 1.314-5.062 1.734-7.749 1.84.211-.29.088-.813-.38-.813-.477 0-.599.548-.369.832a53.81 53.81 0 0 1-1.752.007 88.666 88.666 0 0 1-1.263-.023l1.941-1.585c.498-.407-.213-1.11-.707-.707l-1.964 1.604c-.25.205-.195.485-.014.661a32.522 32.522 0 0 1-2.343-.166l5.1-3.817c.51-.382.011-1.25-.505-.865l-5.71 4.277a.504.504 0 0 0-.168.225 16.74 16.74 0 0 1-1.502-.327 52.76 52.76 0 0 1 6.303-4.347c.555-.327.052-1.19-.505-.864a54.45 54.45 0 0 0-6.728 4.678.438.438 0 0 0-.142.202 13.06 13.06 0 0 1-1.05-.419 41.066 41.066 0 0 1 6.291-4.658M99.188 107.321l-1.038 18.312c-.036.644.964.641 1 0l1.038-18.312c.037-.643-.964-.64-1 0M178.067 124.648c-.12-6.437.296-12.844 1.266-19.209.096-.63-.868-.9-.964-.266a114.988 114.988 0 0 0-1.3 18.356c-.004-.245-.163-.482-.48-.474l-74.135 1.966c-.642.018-.644 1.018 0 1l74.135-1.966c.316-.008.475-.253.48-.499.004.364-.01.728-.002 1.092.012.643 1.012.645 1 0"/>
            <path d="M177.254 104.745c-25.777.654-51.563.843-77.347.566-.643-.006-.644.994 0 1 25.784.277 51.57.088 77.347-.566.643-.016.645-1.016 0-1M55.82 132.508c-1.671 3.317 3.054 5.186 5.363 6.152 4.773 1.997 9.732 3.465 14.805 4.474.628.125.897-.84.266-.965-2.894-.575-21.8-4.733-19.57-9.156.289-.573-.573-1.08-.863-.505M66.25 182.64c-10.397-1.287-20.318-4.81-29.216-10.335-.549-.34-1.05.524-.505.863 9.057 5.623 19.142 9.162 29.72 10.472.637.08.631-.922 0-1M79.042 164.053l-12-4c-.612-.204-.874.762-.266.965l12 4c.612.203.874-.762.266-.965M136.909 180.7h-2c-.644 0-.645 1 0 1h2c.644 0 .645-1 0-1M245.044 138.039l-8.666-1.34c-.629-.096-.9.867-.266.966 2.89.446 5.777.893 8.666 1.338.63.098.901-.866.266-.964M230.495 122.77l-6-2.667c-.583-.26-1.092.603-.505.863l6 2.667c.583.26 1.092-.602.505-.864"/>
        </g>
    </g>
</svg>
