<?xml version="1.0" encoding="UTF-8"?>
<svg width="1440px" height="50px" viewBox="0 0 1440 50" version="1.1" xmlns="http://www.w3.org/2000/svg" xmlns:xlink="http://www.w3.org/1999/xlink">
    <!-- Generator: Sketch 43.2 (39069) - http://www.bohemiancoding.com/sketch -->
    <title>bg-wiggle-3</title>
    <desc>Created with Sketch.</desc>
    <defs></defs>
    <g id="Page-1" stroke="none" stroke-width="1" fill="none" fill-rule="evenodd">
        <g id="bg-wiggle-3" fill="#F7F7F6">
            <path d="M0,2.78571429 L61.816,2.78571429 C107.367,2.78571429 86.983,0.883673469 239.742,0.883673469 C322.792,0.883673469 356.254,8.68877551 407.472,5.96326531 C450.464,3.6755102 526.684,3.59591837 561.492,2.78469388 C637.77,1.00714286 597.8,5.96326531 708.102,5.96326531 C743.504,5.96326531 793.793,1.23877551 829.195,1.23877551 C864.598,1.23877551 908.02,2.78469388 946.152,2.78469388 C1018.616,2.78469388 1030.345,1.99387755 1087.652,1.99387755 C1117.82,1.99387755 1189.069,6.86632653 1229.628,4.38673469 C1266.115,2.15510204 1305.636,2.78469388 1340.52,2.78469388 L1440,2.78469388 L1440,50 L0,50 L0,2.78571429 Z" id="Shape"></path>
        </g>
    </g>
</svg>