<?xml version="1.0" encoding="utf-8"?>
<!-- Generator: Adobe Illustrator 21.1.0, SVG Export Plug-In . SVG Version: 6.00 Build 0)  -->
<!DOCTYPE svg PUBLIC "-//W3C//DTD SVG 1.1//EN" "http://www.w3.org/Graphics/SVG/1.1/DTD/svg11.dtd">
<svg version="1.1" id="Layer_1" xmlns="http://www.w3.org/2000/svg" xmlns:xlink="http://www.w3.org/1999/xlink" x="0px" y="0px"
	 viewBox="0 0 1440 50" style="enable-background:new 0 0 1440 50;" xml:space="preserve">
<style type="text/css">
	.st0{fill:transparent;}
	.st1{fill:#081F2C;}
</style>
<g>
	<path id="path-1" class="st0" d="M0,5h61.8C107.4,5,92,1.6,244.7,1.6c83,0,114.5,6.9,165.7,5.3c43-1.4,125.4-6.3,160.2-6.8
		c76.3-1.1,44.6,9.8,154.9,9.8c35.4,0,68.2-5.8,103.7-5.8c35.4,0,78.8,0.9,117,0.9c72.5,0,84.2-3.8,141.5-3.8
		c30.2,0,101.4,6.3,142,4.8c36.5-1.3,73.5-4.8,108.4-4.8c73.7,0,102,3.8,102,3.8v45H0V5z"/>
</g>
<title>bg-wiggle-1</title>
<desc>Created with Sketch.</desc>
<g id="Page-1">
	<g id="bg-wiggle-1">
		<g id="Shape">
			<path id="path-1_1_" class="st1" d="M1440,45h-61.8c-45.6,0-30.2,3.4-182.9,3.4c-83,0-114.5-6.9-165.7-5.3
				c-43,1.4-125.4,6.3-160.2,6.8c-76.3,1.1-44.6-9.8-154.9-9.8c-35.4,0-68.2,5.8-103.7,5.8c-35.4,0-78.8-0.9-117-0.9
				c-72.5,0-84.2,3.8-141.5,3.8c-30.2,0-101.4-6.3-142-4.8c-36.5,1.3-73.5,4.8-108.4,4.8C28.3,48.9,0,45,0,45L0,0l1440,0V45z"/>
		</g>
	</g>
</g>
</svg>
