<?xml version="1.0" encoding="UTF-8"?>
<svg width="1440px" height="50px" viewBox="0 0 1440 50" version="1.1" xmlns="http://www.w3.org/2000/svg" xmlns:xlink="http://www.w3.org/1999/xlink">
    <!-- Generator: Sketch 43.2 (39069) - http://www.bohemiancoding.com/sketch -->
    <title>bg-wiggle-1</title>
    <desc>Created with Sketch.</desc>
    <defs>
        <path d="M0,4.97224056 L61.816,4.97224056 C107.367,4.97224056 91.983,1.60187019 244.742,1.60187019 C327.792,1.60187019 359.254,8.48335168 410.472,6.86112945 C453.465,5.50372205 535.849,0.553722046 570.657,0.0722405645 C646.934,-0.983314991 615.245,9.87779612 725.547,9.87779612 C760.95,9.87779612 793.794,4.0555739 829.197,4.0555739 C864.599,4.0555739 908.021,4.97409242 946.153,4.97409242 C1018.617,4.97409242 1030.346,1.14446279 1087.653,1.14446279 C1117.821,1.14446279 1189.07,7.40187019 1229.629,5.92779612 C1266.116,4.60001834 1303.156,1.14446279 1338.04,1.14446279 C1411.7,1.14261093 1440,4.97224056 1440,4.97224056 L1440,49.9981665 L0,49.9981665 L0,4.97224056 Z" id="path-1"></path>
    </defs>
    <g id="Page-1" stroke="none" stroke-width="1" fill="none" fill-rule="evenodd">
        <g id="bg-wiggle-1">
            <mask id="mask-2" fill="white">
                <use xlink:href="#path-1"></use>
            </mask>
            <use id="Shape" fill="#2D2926" xlink:href="#path-1"></use>
        </g>
    </g>
</svg>