<svg xmlns="http://www.w3.org/2000/svg" xmlns:xlink="http://www.w3.org/1999/xlink" width="1101" height="619" viewBox="0 0 1101 619">
    <defs>
        <path id="a" d="M.303.741h140.226v81.634H.303V.74z"/>
        <path id="c" d="M2.316 8H.77V.256h1.546V8z"/>
        <path id="e" d="M0 1.494v-1h1v1z"/>
        <path id="g" d="M.982.823h89.102v94.458H.982z"/>
        <path id="i" d="M0 33.528V.166h87.804v33.362H0z"/>
        <path id="k" d="M2.158 9H.834V.369h1.324z"/>
        <path id="m" d="M0 18.545V.368h74.45v18.177H0z"/>
        <path id="o" d="M.833.751H93.25v48.305H.833V.751z"/>
    </defs>
    <g fill="none" fill-rule="evenodd">
        <path fill="#F2F2F2" d="M60.8 247.366a2.272 2.272 0 0 0-1.367.01 3.5 3.5 0 0 0-.553-.574c.656.138 1.303.322 1.942.54l-.022.024m59.615-7.361a2.546 2.546 0 0 0-.513-.658c-.374-.901-.08-1.796.897-2.686 2.811-2.66-1.437-6.898-4.243-4.242-1.588 1.505-2.514 3.414-2.703 5.389-1.13 1.434-2.542 2.59-4.26 3.374-.035.016-.07.026-.105.04-3.368.68-6.862.577-10.174-.363-5.777-1.64-10.727-6.505-17.121-4.582-2.617.787-4.678 2.607-6.996 3.95-3.86 2.238-7.648 1.077-11.779.32-4.453-.816-9.085-.936-12.7 1.548-3.548.88-7.1 2.212-10.064 3.135-3.479 1.083-6.286 3.094-4.32 7.07.166.337.427.633.702.919.194.68.594 1.275 1.188 1.633.142.402.229.779.228 1.116-1.981 2.547-7.234 1.444-9.885 1.99-1.977.409-3.945 1.162-5.65 2.253-2.024 1.297-4.712 3.695-4.794 6.31-2.317.032-5.522.17-7.997.892-.355-.13-.766-.082-1.044.274-.386-.306-.91-.473-1.59-.4a3.803 3.803 0 0 0-.659.137 5.908 5.908 0 0 0-.006-.047c-.675.252-1.388.55-2.042.927a2.644 2.644 0 0 0-1.044.288c-2.517 1.267-3.385 4.147-1.716 6.528 2.547 3.636 7.93 1.624 11.58 2.477.156.103.32.195.474.299.612.412 1.211.492 1.746.367 3.5 1.18 6.913 2.669 10.698 1.502 1.884-.582 3.427-1.813 4.92-3.047 2.524-2.09 3.65-4.063 7.811-2.31.742.314 1.462 1.187 2.187 1.604 4.26 2.45 18.36 2.899 17.012-5.185-.295-1.773-1.626-3.412-3.235-4.588 3.088-2.61 7.16-2.048 10.325-4.5.542-.42.924-.9 1.197-1.42.968.276 2.052-.084 2.276-1.357.173-.98.22-1.975.116-2.944.37-.023.733-.13 1.055-.342 3.341-2.203 10.335.347 12.064-4.655 1.024-2.961-1.38-5.296-3.988-6.071 3.145-1.763 6.194-3.567 9.593-2.576 5.389 1.572 9.335 4.71 15.19 5.193a27.59 27.59 0 0 0 7.688-.465c2.023-.405 4.44-2.014 6.44-2.467 2.272.629 4.855-1.54 3.431-4.266l-.19-.364M71.257 205.539c-3.142 1.46-4.834 4.26-7.576 6.209-3.592 2.554-7.91 2.178-12.027 1.282-1.413-.835-2.905-1.521-4.767-1.947-3.592-.822-5.205 4.414-2.05 5.633.336.576.898 1.046 1.746 1.26 1.108.28 2.226.554 3.352.798.566.372 1.118.793 1.671 1.289.992.89 1.791 2.172 3.158 2.559 1.49.42 3.75-.258 5.098-.364 2.401-.191 4.77-.054 7.16.193 1.878.194 3.492-2.082 2.892-3.798-1.201-3.44 2.611-6.55 4.978-8.402 2.865-2.243-.784-6.037-3.635-4.712M255.002 236.032c-7.715 1.06-14.318 2.03-21.26 5.732-7.529 4.015-14.828 4.276-23.095 4.777-4.196-.246-7.904 1.474-11.81 4.226-4.799 3.383-10.059 8.817-16.489 6.879-5.799-1.746-6.856-8.568-12.898-10.08-5.723-1.431-12.219-1.417-18.324-1.671-1.486-.787-2.456-1.66-3.027-3.33-1.657-4.843-9.387-2.762-7.715 2.128.661 1.934 1.58 3.607 2.802 5.025.036 2.04 1.751 3.784 4 3.959l11.502.892c3.824.297 8.542-.36 11.106 2.772 3.316 4.048 6.357 7.242 11.755 8.34 5.064 1.033 9.95-.314 14.296-2.965 5.42-3.306 10.513-10.038 17.378-7.41 1.78.682 3.182.05 4.006-1.104 5.472-.33 10.898-.956 15.97-3.222 4.026-1.8 7.651-4.437 11.976-5.5 3.87-.95 8.01-1.192 11.953-1.733 5.08-.697 2.917-8.407-2.126-7.715"/>
        <path fill="#F2F2F2" d="M227.585 232.281c-4.033-7.078-10.17-11.888-17.856-14.465-5.025-1.685-9.36-3.071-11.033-8.663-.942-3.15-1.238-5.892-4.863-6.8-3.746-.938-5.344 4.847-1.595 5.786.187.047 2.663 7.336 3.316 8.249 1.827 2.556 4.304 4.134 7.16 5.344 3.589 1.521 7.404 2.221 10.789 4.237 3.83 2.283 6.708 5.492 8.9 9.34 1.912 3.355 7.099.335 5.182-3.028M147.886 193.096c-7.41-1.668-7.607-10.463-14.413-13.406-6.644-2.874-15.076-2.755-22.107-1.99-2.914.316-4.294 4.852-1.23 5.78.642 1.43 2.045 2.47 1.908 4.1-.265 3.14-4.533 2.703-6.963 2.637-.105-.002-.2.016-.302.025a15.287 15.287 0 0 0-3.25.062c-5.886.756-8.125 5.144-13.057 7.474-3.488 1.648-.447 6.823 3.03 5.18 2.893-1.367 4.573-4.023 7.283-5.57 3.64-2.077 8.135-1.45 11.246 1.286.947.833 2.5 1.245 3.635.47 6.46-4.416 13.803-7.939 21.833-6.707.498.076.957.046 1.376-.052.55.937 1.17 1.841 1.997 2.661 2.071 2.053 4.606 3.202 7.42 3.835 3.76.847 5.365-4.936 1.594-5.785"/>
        <path fill="#071F2C" d="M120.763 238.423c-.199-6.071 6.187-7.428 10.951-7.05 3.466.275 5.535-.093 7.774-2.844 1.396-1.714 2.646-3.125 4.902-3.776 1.95-.563 4.016-.544 6.024-.457 3.476.149 6.807.398 10.036-1.11.583-.272.075-1.134-.505-.864-4.53 2.116-9.448.393-14.194 1.126-1.58.245-3.134.725-4.44 1.67-1.424 1.033-2.202 2.575-3.432 3.78-2.345 2.295-4.96 1.426-7.83 1.353-1.746-.045-3.52.155-5.153.804-3.097 1.228-5.244 3.985-5.133 7.368.021.642 1.021.645 1 0"/>
        <path fill="#071F2C" d="M141.43 226.437c1.26-2.73 3.438-4.916 6.328-5.89 2.191-.739 4.545-.662 6.801-1.07 4.333-.785 5.625-3.34 6.873-7.254 1.076-3.373 3.265-4.253 6.43-5.069 2.166-.559 3.817-1.466 5.575-2.849 4.742-3.726 11.126-4.095 15.398.678.194.217.506.161.707 0 3.005-2.41 6.49-3.945 10.161-5.045 3.345-1 7.126-2.146 10.644-2.05 9.61.262 8.768 11.134 11.367 17.69.102.257.328.418.615.348 3.892-.938 8.01-1.29 11.866.028 4.047 1.382 6.33 4.12 8.07 7.872.874 1.888 1.853 2.796 3.946 3.017 4.38.465 7.837 2.04 9.452 6.453.73 1.995 1.204 3.596 2.746 5.09.65.627.835-.193 1.095 1.216.24 1.305-.996 2.724-1.98 3.38-2.054 1.364-4.835 1.242-7.188 1.454-3.229.291-6.498.687-9.566 1.79-3.317 1.19-5.946 3.393-8.905 5.223-6.718 4.152-14.287 3.382-21.807 3.153-2.992-.09-5.688.304-8.097 2.186-2.972 2.321-5.159 4.806-8.79 6.208-3.03 1.17-6.344 2.257-9.586 2.603-4.536.483-7.319-1.322-9.622-5.118-1.276-2.104-2.533-3.949-4.858-4.977-3.004-1.327-6.573-1.147-9.779-1.274l-6.702-.266c-2.112-.084-4.87.191-6.792-.84-3.027-1.628-2.024-6.163-5.325-7.782-2.822-1.384-5.91-.236-8.693.583-4.6 1.355-9.103.525-11.717-3.84-.33-.55-1.195-.048-.864.505 1.42 2.37 3.621 4.133 6.333 4.803 3.528.872 6.54-.816 9.921-1.487 2.913-.577 5.728.136 6.827 3.135.43 1.175.65 2.454 1.385 3.495 1.773 2.51 5.25 2.283 7.968 2.39 4.27.17 8.594.157 12.85.552 2.165.201 4.337.668 6.023 2.114 1.683 1.444 2.491 3.523 3.751 5.295 3.862 5.43 10.634 3.828 16.076 2.115 3.155-.993 6.268-2.134 8.815-4.314 1.42-1.215 2.633-2.668 4.203-3.7 2.261-1.49 4.952-1.474 7.55-1.343 7.358.368 14.924.71 21.434-3.333 3.698-2.296 6.83-4.81 11.164-5.864 3.957-.963 8.135-.623 12.053-1.62 2.284-.58 4.533-2.076 4.874-4.594.098-.729.033-1.67-.444-2.258-.545-.672-1.525-.684-2.048-1.523-.534-.859-.809-1.87-1.137-2.817-1.046-3.035-2.825-5.5-5.825-6.853-1.513-.684-2.854-.695-4.448-.923-2.08-.299-2.824-1.142-3.583-2.94-.294-.696-.566-1.383-.952-2.037-4.09-6.934-12.89-7.627-19.96-5.92.205.116.41.232.615.35-2.43-6.13-1.736-16.204-9.834-18.142-3.484-.833-7.282.205-10.659 1.052-3.816.958-7.633 2.203-10.975 4.324-1.78 1.13-1.57 1.533-3.224.237-1.272-.998-2.789-1.705-4.359-2.085-2.873-.696-6.015-.344-8.569 1.18-1.717 1.024-3.07 2.587-4.879 3.467-1.886.917-4.06.987-5.967 1.854-2.782 1.263-3.352 3.754-4.242 6.418-1.825 5.46-6.493 4.632-11.138 5.612-3.713.782-6.687 3.281-8.265 6.702-.268.581.593 1.09.863.505"/>
        <path fill="#071F2C" d="M168.452 205.428c-3.791-.886-3.878-5.34-5.816-8.022-1.338-1.853-3.401-2.98-5.603-3.47-2.851-.633-5.79-.1-8.537.738-.535.164-2.092.945-2.634.898-.931-.084-.487-.204-1.071-.666-.94-.748-1.64-1.457-2.777-1.962-4.814-2.14-11.256-2.19-16.375-1.51-5.334.708-10.318 2.74-14.282 6.427l.785.1c-1.77-3.514-5.813-5.075-9.612-4.514-2.417.356-4.658 1.506-6.617 2.925-2.62 1.897-4.84 5.465-8.348 5.202-2.43-.183-4.546-.813-7.02-.452-2.512.368-4.926 1.368-6.938 2.922-3.754 2.9-5.716 7.46-5.673 12.149.006.643 1.007.644 1 0-.047-5.173 2.522-10.087 7.155-12.573a14.02 14.02 0 0 1 7.339-1.646c1.907.103 3.867.945 5.79.625 1.504-.25 2.499-1.21 3.567-2.211 1.768-1.659 3.548-3.306 5.694-4.473 4.252-2.313 10.345-2.325 12.8 2.551.15.3.563.308.785.101 4.436-4.124 10.23-6.04 16.209-6.38a40.16 40.16 0 0 1 8.575.451c2.937.467 6.333 1.12 7.845 3.984.096.182.366.302.565.23 4.99-1.822 11.956-4.112 16.152.606 2.568 2.886 2.339 7.897 6.776 8.933.626.146.893-.818.266-.964"/>
        <g transform="translate(10 166.259)">
            <mask id="b" fill="#fff">
                <use xlink:href="#a"/>
            </mask>
            <path fill="#071F2C" d="M140.046 27.261c-6.625.046-8.942-7.892-13.56-11.337-3.892-2.906-8.814-3.845-13.562-4.154-2.563-.167-5.134-.144-7.701-.105-2.027.031-4.285.096-5.01-2.348-.355-1.202-.435-2.46-.972-3.61-1.581-3.39-5.597-4.5-9.023-4.82-4.38-.41-9.466-.047-13.347 2.204-1.814 1.052-2.983 2.52-4.21 4.171-2.47 3.33-5.485 1.987-8.917 1.807-4.341-.229-6.747 2.922-6.941 7.067-.078 1.661.205 3.301.244 4.957.052 2.224-.92 2.908-2.953 3.392-2.494.593-5.154.675-7.528 1.72-1.906.836-3.091 2.157-4.148 3.901-.665 1.097-1.21 2.303-2.112 3.238-1.543 1.6-3.673 1.686-5.758 1.576-4.891-.256-9.212.194-13.018 3.632-1.66 1.5-2.736 3.314-3.763 5.273-.551 1.052-1.11 2.206-1.984 3.034-1.741 1.65-3.823.768-5.887.716-4.054-.1-8.171 2.338-9.312 6.356-1.08 3.802 1.05 6.762 4.739 7.698 2.449.621 5.302.474 7.342 2.167 2.259 1.874 2.414 5.098 3.14 7.74 1.15 4.172 4.222 6.926 8.374 8.043 5.194 1.398 10.459-.217 15.378-1.898 3.498-1.194 7.554-3.044 11.308-2.034 2.999.806 5.095 3.333 8.206 3.981 2.562.534 5.23.172 7.675-.705 2.843-1.02 4.936-3.06 7.586-4.382 4.159-2.072 7.296 1.531 10.278 3.89 2.133 1.688 4.549 2.93 7.216 3.517 2.659.586 5.443.58 8.088-.087 3.584-.903 7.485-3.59 11.175-1.665.57.296 1.076-.566.505-.865-4.78-2.493-9.702 1.594-14.535 1.992a16.705 16.705 0 0 1-8.568-1.582c-2.464-1.187-4.341-3.133-6.501-4.755-1.48-1.112-3.174-2.105-5.083-2.115-2.463-.013-4.316 1.616-6.246 2.912-2.371 1.593-5.078 2.786-7.95 3.046-3.751.342-6.17-1.392-9.244-3.133-4.616-2.615-9.568-.55-14.176 1.021-5.52 1.884-11.71 3.744-17.281.993-2.596-1.282-4.316-3.356-5.151-6.115-.592-1.955-.785-4.033-1.611-5.918-1.841-4.195-5.798-4.008-9.66-5.013-3.6-.936-5.307-4.118-3.613-7.588 1.59-3.256 5.2-4.706 8.666-4.425 1.9.154 3.662.6 5.308-.62 1.51-1.122 2.262-2.959 3.123-4.562 3.082-5.732 8.386-8.02 14.692-7.605 1.827.12 3.782.282 5.49-.53 2.008-.956 2.933-2.915 4.027-4.723 1.592-2.634 3.766-3.77 6.709-4.355 2.108-.418 4.785-.43 6.66-1.595 1.484-.922 1.456-2.42 1.374-4.019-.16-3.096-.911-7.079 1.705-9.443 3.595-3.25 9.092 1.374 12.757-2.125 1.967-1.876 2.926-4.146 5.5-5.45 2.493-1.26 5.357-1.689 8.118-1.81 2.966-.13 6.176-.024 8.917 1.243 3.028 1.398 3.382 3.661 4.229 6.525.443 1.5 1.204 2.634 2.796 3 2.753.634 6.129.005 8.95.098 6.144.2 12.727 1.267 17.079 6.026 3.489 3.817 5.986 9.597 11.97 9.555.645-.004.646-1.004 0-1" mask="url(#b)"/>
        </g>
        <path fill="#071F2C" d="M1.753 273.366c-1.32-.964-.323-2.716.53-3.538.707-.683 1.761-.926 2.68-1.208a20.196 20.196 0 0 1 4.92-.836c2.296-.111 4.605.439 6.892.164 1.32-.16 2.565-.626 3.416-1.693.66-.826.871-1.82 1.268-2.772.687-1.648 1.775-2.872 3.325-3.747 2.706-1.527 5.92-1.513 8.935-1.418 1.47.046 3.66.504 4.952-.507 1.124-.88 1.024-2.33.392-3.483-.402-.733-1.078-1.251-1.646-1.842-1.758-1.825-1.813-4.813 1.025-5.757.608-.202.348-1.168-.266-.964-1.61.535-2.763 1.765-3.046 3.476a3.942 3.942 0 0 0 .434 2.589c.624 1.139 2.188 1.806 2.635 3.003 1.298 3.469-4.667 2.46-5.86 2.448-1.566-.015-3.15.036-4.689.358-2.309.484-4.595 1.603-6.05 3.509-.668.874-.95 1.764-1.352 2.768-.973 2.434-2.659 3.144-5.122 3.096-2.986-.058-5.803-.403-8.77.222-2.05.433-4.984 1.135-6.013 3.224-.685 1.389-.325 2.873.905 3.772.521.38 1.02-.487.505-.864M6.14 277.434c6.308-2.67 12.222 4.136 18.626 3.188 3.045-.452 4.908-2.698 6.94-4.78 2.005-2.054 5.374-4.448 7.999-1.856 1.203 1.187 1.664 2.596 3.25 3.394 2.777 1.395 6.82.796 9.656-.149 2.688-.896 5.05-2.798 5.56-5.719 1.245-7.113-10.147-8.72-14.92-8.229-.633.065-.64 1.065 0 1 3.937-.406 8.168.234 11.542 2.43 5.36 3.49.93 8.767-3.541 9.868-1.856.457-3.974.695-5.881.43-2.576-.356-3.38-2.085-4.96-3.732-1.563-1.632-3.738-1.705-5.75-.866-2.62 1.095-4.118 3.504-6.188 5.306-2.768 2.41-5.9 2.237-9.187 1.154-4.427-1.458-8.944-4.294-13.651-2.302-.591.25-.081 1.111.505.863"/>
        <path fill="#071F2C" d="M54.966 266.017c3.003-3.592 8.407-1.63 11.867-4.489a7.28 7.28 0 0 0 2.286-3.408c.285-.905.203-1.727.79-2.5.969-1.278 3.641-1.279 5.151-1.457 2.752-.328 6.551-.624 7.619-3.75.416-1.217.14-2.575-.594-3.608a3.917 3.917 0 0 0-1.057-1.032c-.309-.202-2.624-1.028-2.186-1.485.446-.464-.26-1.172-.707-.708-2.016 2.1 2.602 2.916 3.269 3.981 2.628 4.197-3.797 5.297-6.344 5.602-1.685.201-4.012.176-5.496.996-.703.387-.853.657-1.074 1.414-.381 1.304-.227 2.507-1.016 3.741-.902 1.408-2.204 2.234-3.783 2.692-3.32.964-6.989.381-9.432 3.304-.41.49.294 1.201.707.707M189.415 205.531c3.622 2.438 4.674 6.778 6.251 10.595 1.288 3.117 2.196 5.124 5.74 5.265 9.28.37 17.962 4.684 23.976 11.735.418.49 1.122-.22.707-.707-5.366-6.291-12.895-10.534-21.099-11.711-2.529-.363-5.354.172-7.066-2.153-1.248-1.695-1.808-4.035-2.565-5.974-1.207-3.092-2.61-6.01-5.44-7.913-.535-.361-1.036.506-.504.863M87.423 246.442v3.671c0 .643 1 .644 1 0v-3.67c0-.645-1-.646-1 0M186.65 229.957c1.004 1.338 1.185 3.032.394 4.524-.302.568.56 1.074.863.504.945-1.78.825-3.91-.393-5.532-.381-.51-1.25-.011-.863.504M210.512 233.78c4.319 3.366 3.824 9.58-1.041 12.149-.57.301-.064 1.164.505.864 5.38-2.842 6.062-9.964 1.243-13.72-.501-.392-1.214.311-.707.707M217.267 238.129c1.938.802 2.833 3.24 1.922 5.114-.28.576.582 1.084.864.505 1.218-2.506.04-5.523-2.52-6.583-.595-.246-.853.722-.266.964M105.505 224.37c3.65-1.716 2.98-6.248.312-8.566-3.856-3.35-10.798-4.008-15.669-3.756-.64.032-.644 1.033 0 1 3.64-.19 7.267.36 10.75 1.423 1.713.523 3.487 1.205 4.744 2.543 1.82 1.938 2.101 5.204-.642 6.494-.58.273-.075 1.135.505.863"/>
        <path fill="#071F2C" d="M104.483 215.2c1.466-.807 2.104-2.391 1.916-4.03-.244-2.117-1.877-3.713-3.337-5.108-.465-.445-1.174.26-.707.707 1.773 1.694 5.125 5.642 1.624 7.568-.564.309-.06 1.174.504.863M72.747 226.99c.735-3.6-5.992-4.93-8.456-5.24a18.979 18.979 0 0 0-13.456 3.409c-.519.37-.02 1.239.505.863 2.931-2.097 6.321-3.3 9.938-3.417 1.72-.055 3.431.123 5.1.554 1.288.332 5.816 1.553 5.405 3.565-.129.628.835.898.964.266"/>
        <path fill="#071F2C" d="M55.065 222.94c-1.078-4.506-7.144-7.89-11.253-9.11-4.713-1.399-9.888-.52-13.443 2.99-.458.452.249 1.16.708.707 3.313-3.272 8.084-4.034 12.469-2.733 3.727 1.106 9.576 4.32 10.555 8.411.15.625 1.114.36.964-.266M163.44 247.128c3.46.853 9.153 1.36 9.775-3.501.643-5.016-4.736-7.25-8.585-8.464-.615-.194-.878.77-.265.964 3.04.96 6.849 2.2 7.732 5.702 1.369 5.434-5.085 5.15-8.391 4.335-.625-.154-.891.81-.266.964M69.365 254.96c-.59-4.874-6.742-7.558-10.957-8.416-.628-.128-.897.836-.266.964 3.655.744 9.698 3.116 10.223 7.453.076.63 1.077.639 1 0M254.046 253.145l.011 3.523c.002.644 1.002.645 1 0l-.01-3.523c-.003-.644-1.003-.645-1 0M254.524 264.996l-.69 4.936c-.087.628.877.9.965.265l.689-4.935c.088-.63-.875-.902-.964-.266M253.776 278.515v4.23c0 .642 1 .643 1 0v-4.23c0-.644-1-.645-1 0M253.776 290.143v3.876c0 .644 1 .645 1 0v-3.876c0-.644-1-.645-1 0M253.374 302.12l-.366 4.933c-.048.64.953.638 1 0l.366-4.933c.047-.642-.953-.64-1 0M252.724 315.162a28.066 28.066 0 0 0 .348 6.479c.108.632 1.07.364.964-.267a26.922 26.922 0 0 1-.312-6.212c.04-.643-.96-.641-1 0M241.443 254.554v4.23c0 .642 1 .643 1 0v-4.23c0-.644-1-.645-1 0M241.443 266.182v1.762c0 .643 1 .644 1 0v-1.762c0-.644-1-.645-1 0M241.091 274.64v1.761c0 .643 1 .644 1 0v-1.762c0-.644-1-.645-1 0M240.886 288.529c.643 0 .644-1 0-1s-.645 1 0 1M240.02 295.43l.348 8.103c.027.642 1.028.645 1 0l-.349-8.104c-.028-.64-1.028-.645-1 0M240.386 310.933l-.353 5.638c-.04.642.96.64 1 0l.353-5.638c.04-.643-.96-.64-1 0M240.034 323.266v4.933c0 .643 1 .644 1 0v-4.933c0-.644-1-.645-1 0M227.7 260.192l-.351 4.581c-.05.642.95.64 1 0l.352-4.58c.049-.643-.951-.64-1 0M226.584 273.083l-.711 3.875c-.116.629.848.898.964.266l.71-3.875c.117-.63-.847-.9-.963-.266M225.622 281.814a9.253 9.253 0 0 1 .31 3.747c-.076.638.925.633 1 0a9.961 9.961 0 0 0-.346-4.014c-.18-.615-1.146-.353-.964.267M225.933 292.825l-.356 1.76c-.127.629.836.898.964.266l.356-1.76c.127-.63-.837-.898-.964-.266M224.59 302.24c.653 1.739.881 3.538.624 5.383-.089.629.875.9.964.265.284-2.028.097-3.993-.624-5.914-.224-.597-1.19-.338-.964.266M225.64 314.11l-.378 4.226c-.058.64.943.636 1 0l.378-4.227c.057-.64-.943-.637-1 0M211.14 264.068v4.934c0 .643 1 .644 1 0v-4.934c0-.644-1-.645-1 0M211.492 275.696v3.172c0 .643 1 .644 1 0v-3.172c0-.644-1-.645-1 0M211.844 285.21v3.877c0 .643 1 .645 1 0v-3.876c0-.644-1-.645-1 0M211.492 297.543v4.58c0 .645 1 .646 1 0v-4.58c0-.644-1-.645-1 0M212.697 312.49c.643 0 .645-1 0-1-.644 0-.645 1 0 1M211.844 320.094v2.467c0 .643 1 .644 1 0v-2.467c0-.644-1-.645-1 0M197.397 266.887v4.933c0 .643 1 .644 1 0v-4.933c0-.644-1-.645-1 0M197.75 279.924v4.934c0 .643 1 .644 1 0v-4.934c0-.644-1-.645-1 0M198.25 292.052c.644 0 .645-1 0-1-.644 0-.645 1 0 1M198.12 300.23a10.818 10.818 0 0 0-.37 3.655c.044.64 1.045.644 1 0a9.994 9.994 0 0 1 .334-3.39c.172-.62-.793-.887-.964-.266M198.807 310.58v3.877c0 .644 1 .645 1 0v-3.876c0-.644-1-.645-1 0M199.511 324.323v2.819c0 .644 1 .645 1 0v-2.82c0-.643-1-.644-1 0M200.234 335.113a21.865 21.865 0 0 0-.37 5.771c.044.639 1.045.644 1 0a20.821 20.821 0 0 1 .334-5.504c.124-.629-.839-.899-.964-.267M199.511 346.522v5.285c0 .644 1 .645 1 0v-5.285c0-.644-1-.645-1 0M198.807 359.912v4.229c0 .643 1 .644 1 0v-4.23c0-.643-1-.644-1 0M199.16 372.245c-.119.939-.236 1.88-.354 2.819-.079.637.921.63 1 0l.353-2.82c.08-.636-.92-.63-1 0M185.435 271.687a12.04 12.04 0 0 0-.37 4.01c.048.636 1.049.642 1 0-.097-1.273.01-2.51.334-3.744.164-.623-.8-.889-.964-.266M184.36 279.924v4.23c0 .642 1 .643 1 0v-4.23c0-.644-1-.645-1 0M184.378 290.363a15.96 15.96 0 0 0-.37 4.714c.045.638 1.045.642 1 0a15.01 15.01 0 0 1 .334-4.448c.143-.627-.82-.894-.964-.266M184.044 301.07l-.383 4.931c-.05.641.95.637 1 0l.383-4.931c.05-.643-.95-.639-1 0M183.655 312.695v5.99c0 .644 1 .645 1 0v-5.99c0-.644-1-.645-1 0M184.36 325.732v4.581c0 .644 1 .645 1 0v-4.58c0-.645-1-.646-1 0M185.212 337.861c.644 0 .645-1 0-1-.644 0-.645 1 0 1M184.712 345.113v4.229c0 .642 1 .644 1 0v-4.229c0-.644-1-.645-1 0M185.082 356.96a7.631 7.631 0 0 0-.37 2.952c.045.639 1.045.644 1 0a6.868 6.868 0 0 1 .334-2.685c.203-.613-.762-.875-.964-.266M184.691 366.467l-.353 2.114c-.105.63.858.901.964.266l.353-2.114c.105-.629-.858-.9-.964-.266M184.007 375.064v2.818c0 .644 1 .645 1 0v-2.818c0-.644-1-.645-1 0M183.655 383.873v2.819c0 .644 1 .645 1 0v-2.82c0-.643-1-.644-1 0M184.007 393.739v3.172c0 .643 1 .644 1 0v-3.172c0-.643-1-.645-1 0M184.365 402.058c-.404.995-.494 2.031-.334 3.09.096.633 1.06.363.964-.267-.133-.879.002-1.738.334-2.557.242-.596-.725-.856-.964-.266M184.007 411.71v3.524c0 .644 1 .645 1 0v-3.524c0-.643-1-.645-1 0M181.893 423.69v3.524c0 .644 1 .645 1 0v-3.524c0-.643-1-.644-1 0M183.098 436.523c.644 0 .645-1 0-1-.644 0-.645 1 0 1M182.598 442.719v3.875c0 .644 1 .646 1 0v-3.875c0-.644-1-.645-1 0M182.598 452.937v3.523c0 .644 1 .645 1 0v-3.523c0-.644-1-.645-1 0M169.913 270.41l-.353 3.877c-.058.64.943.637 1 0l.353-3.876c.058-.641-.942-.637-1 0M170.06 282.539c.644 0 .645-1 0-1-.644 0-.645 1 0 1M169.913 288.382v3.17c0 .643 1 .644 1 0v-3.17c0-.644-1-.645-1 0M169.185 297.542l-.35 4.58c-.048.643.952.64 1 0l.35-4.58c.049-.643-.951-.64-1 0M169.208 307.761v4.581c0 .644 1 .645 1 0v-4.58c0-.645-1-.646-1 0M169.56 317.276v4.228c0 .643 1 .644 1 0v-4.228c0-.644-1-.645-1 0M169.69 329.237v2.663c0 .644 1 .645 1 0v-2.663c0-.644-1-.645-1 0M169.69 338.027v1.864c0 .644 1 .645 1 0v-1.864c0-.644-1-.645-1 0M170.223 345.485v4.262c0 .643 1 .644 1 0v-4.262c0-.644-1-.645-1 0M169.957 355.606v3.996c0 .644 1 .645 1 0v-3.996c0-.643-1-.645-1 0M171.023 366.261v5.86c0 .643 1 .644 1 0v-5.86c0-.644-1-.645-1 0M170.756 380.112l-.266 2.663c-.065.641.936.636 1 0l.266-2.663c.064-.64-.937-.636-1 0M171.523 389.402c.643 0 .645-1 0-1-.644 0-.645 1 0 1M170.533 394.9a16.62 16.62 0 0 0-.072 5.062c.087.635 1.051.365.965-.265a14.997 14.997 0 0 1 .071-4.53c.106-.63-.858-.902-.964-.267M170.764 406.08a16.25 16.25 0 0 0-.27 4.396c.05.638 1.05.644 1 0a15.252 15.252 0 0 1 .234-4.13c.124-.628-.84-.898-.964-.266M170.507 415.672l-.266 1.065c-.156.624.808.89.964.266.09-.355.177-.71.266-1.065.157-.624-.808-.891-.964-.266M170.236 423.128c-.275.912-.371 1.85-.275 2.798.063.634 1.064.64 1 0a6.414 6.414 0 0 1 .238-2.532c.186-.618-.778-.881-.964-.266M169.69 436.314l.268 5.327c.03.641 1.03.645 1 0-.09-1.775-.178-3.552-.267-5.327-.032-.64-1.032-.645-1 0M168.891 453.628l-.266 3.196c-.053.642.947.638 1 0 .09-1.065.178-2.131.266-3.196.054-.642-.947-.638-1 0M169.125 466.114c.644 0 .645-1 0-1-.644 0-.645 1 0 1M154.508 262.38v3.996c0 .644 1 .645 1 0v-3.995c0-.644-1-.645-1 0M155.573 274.1v1.864c0 .644 1 .645 1 0V274.1c0-.644-1-.645-1 0M155.307 281.292v4.528c0 .644 1 .645 1 0v-4.528c0-.644-1-.645-1 0M155.335 292.344a26.26 26.26 0 0 1 .233 5.462c-.038.642.962.641 1 0a27.456 27.456 0 0 0-.269-5.729c-.095-.633-1.059-.364-.964.267M155.556 304.071l.537 3.462c.098.634 1.062.365.964-.266l-.537-3.462c-.098-.634-1.062-.365-.964.266M156.106 314.054v2.397c0 .644 1 .645 1 0v-2.397c0-.644-1-.645-1 0M155.858 323.51a8.98 8.98 0 0 0 0 3.195c.113.633 1.077.366.964-.265a7.545 7.545 0 0 1 0-2.664c.113-.629-.851-.9-.964-.266M155.591 330.17a9.218 9.218 0 0 0-.284 3.063c.049.637 1.05.643 1 0a8.392 8.392 0 0 1 .249-2.797c.163-.623-.8-.89-.965-.266M156.106 339.891c-.04 1.406.144 2.782.551 4.128.185.615 1.151.352.964-.266a12.022 12.022 0 0 1-.515-3.862c.02-.644-.98-.644-1 0M157.172 352.677v1.864c0 .644 1 .645 1 0v-1.864c0-.644-1-.645-1 0M157.172 362.265c-.09.888-.178 1.776-.266 2.664-.064.64.936.635 1 0l.266-2.664c.064-.64-.937-.635-1 0M156.385 370.123c-.182 1.089-.108 2.155.275 3.195.22.599 1.187.34.964-.265-.318-.865-.427-1.753-.275-2.664.105-.63-.859-.901-.964-.266M156.106 379.845v3.73c0 .643 1 .644 1 0v-3.73c0-.644-1-.645-1 0M156.606 391c.644 0 .645-1 0-1-.644 0-.645 1 0 1M156.142 396.762l-.27 1.598c-.106.63.857.9.964.265l.27-1.596c.107-.63-.857-.9-.964-.267M156.373 405.949v4.262c0 .643 1 .644 1 0v-4.262c0-.644-1-.645-1 0M156.373 414.206l-.267 2.397c-.07.639.93.634 1 0l.267-2.397c.07-.64-.93-.634-1 0M156.106 420.865l.267 3.729c.045.638 1.045.643 1 0l-.267-3.73c-.045-.637-1.046-.643-1 0M155.307 432.052a21.394 21.394 0 0 1-.249 4.661c-.104.63.86.901.965.266.271-1.636.372-3.27.284-4.927-.034-.64-1.035-.645-1 0M156.416 442.58a7.398 7.398 0 0 0-.071 3.467c.135.629 1.1.362.965-.266a6.234 6.234 0 0 1 .07-2.934c.163-.623-.801-.89-.964-.266M156.423 453.363a13.586 13.586 0 0 0 .677 4.689c.2.61 1.166.349.965-.265a12.75 12.75 0 0 1-.642-4.424c.02-.644-.98-.643-1 0M140.886 259.715l-.262 4.262c-.04.642.96.64 1 0l.262-4.262c.04-.643-.96-.641-1 0M141.423 271.67c.644 0 .645-1 0-1-.643 0-.644 1 0 1M141.69 278.595c.643 0 .645-1 0-1-.644 0-.645 1 0 1M140.923 285.287l-.266 3.996c-.043.643.957.64 1 0 .09-1.332.177-2.664.266-3.996.043-.642-.957-.64-1 0M140.39 298.872v3.463c0 .643 1 .644 1 0v-3.463c0-.644-1-.645-1 0M140.574 309.777l.435 5.07c.054.635 1.055.641 1 0l-.435-5.07c-.055-.637-1.055-.643-1 0M141.456 321.246v2.397c0 .644 1 .645 1 0v-2.397c0-.644-1-.645-1 0M141.989 329.504v3.729c0 .643 1 .644 1 0v-3.73c0-.643-1-.644-1 0M142.489 341.19c.644 0 .645-1 0-1-.644 0-.645 1 0 1M141.723 346.817l.266 4.262c.04.638 1.04.643 1 0-.09-1.42-.177-2.842-.266-4.262-.04-.64-1.041-.645-1 0M142.522 357.471v2.93c0 .643 1 .644 1 0v-2.93c0-.644-1-.645-1 0M143.321 367.592v2.397c0 .644 1 .645 1 0v-2.397c0-.644-1-.645-1 0M143.845 378.247a5355.96 5355.96 0 0 1-.268 3.995c-.043.643.957.64 1 0 .09-1.332.18-2.663.268-3.995.043-.643-.957-.64-1 0M142.522 388.369v3.995c0 .644 1 .645 1 0v-3.995c0-.644-1-.645-1 0M143.339 397.825c-.09.622-.177 1.243-.266 1.864-.09.63.873.903.964.267l.266-1.865c.09-.63-.873-.902-.964-.266M143.072 405.55a16.448 16.448 0 0 0-.284 4.394c.045.638 1.045.643 1 0a15.457 15.457 0 0 1 .248-4.129c.125-.628-.839-.898-.964-.266M142.567 418.873a7.625 7.625 0 0 0 .524 4.39c.252.589 1.114.08.864-.504a6.399 6.399 0 0 1-.424-3.62c.108-.63-.856-.9-.964-.266M143.854 437.912l.266 3.196c.053.637 1.054.643 1 0-.09-1.065-.177-2.131-.266-3.196-.053-.637-1.054-.642-1 0M144.386 447.235l-.533 5.061c-.067.64.933.634 1 0l.533-5.06c.067-.64-.933-.636-1 0M127.078 254.39a23.978 23.978 0 0 0 .26 5.196c.1.634 1.064.365.965-.266a22.791 22.791 0 0 1-.225-4.93c.039-.644-.961-.642-1 0M128.106 267.142c.644 0 .645-1 0-1-.644 0-.645 1 0 1M127.073 273.302v5.06c0 .643 1 .644 1 0v-5.06c0-.644-1-.645-1 0M126.806 285.553v4.795c0 .643 1 .644 1 0v-4.795c0-.644-1-.645-1 0M127.878 297.806a19.968 19.968 0 0 0 .26 4.931c.111.632 1.075.364.965-.266a18.889 18.889 0 0 1-.225-4.665c.046-.642-.954-.639-1 0M128.937 310.06v3.461c0 .643 1 .644 1 0v-3.462c0-.644-1-.645-1 0M128.372 318.847l-.278 5.06c-.035.643.965.641 1 0l.278-5.06c.035-.644-.965-.642-1 0M128.671 332.433v3.463c0 .643 1 .644 1 0v-3.463c0-.644-1-.645-1 0M128.955 342.422a10.725 10.725 0 0 0-.284 3.33c.046.638 1.046.643 1 0a9.832 9.832 0 0 1 .248-3.063c.152-.626-.812-.893-.964-.267M128.671 351.611a17.904 17.904 0 0 1-.249 4.129c-.112.629.851.899.965.266a19.04 19.04 0 0 0 .284-4.395c-.034-.64-1.034-.644-1 0M128.937 362.265v3.73c0 .643 1 .644 1 0v-3.73c0-.644-1-.645-1 0M128.405 373.985l.267 2.931c.056.635 1.058.641 1 0l-.267-2.93c-.059-.636-1.059-.643-1 0M128.937 384.64v2.396c0 .644 1 .645 1 0v-2.396c0-.644-1-.645-1 0M128.937 394.761v1.332c0 .644 1 .645 1 0v-1.332c0-.644-1-.645-1 0M128.671 406.216v3.729c0 .643 1 .644 1 0v-3.73c0-.643-1-.644-1 0M128.689 417.003l-.266 1.865c-.09.629.873.902.964.266l.266-1.864c.09-.63-.873-.902-.964-.267M128.405 425.393v4.795c0 .642 1 .644 1 0v-4.795c0-.644-1-.645-1 0M129.234 438.974l.265 2.664c.064.635 1.064.641 1 0l-.265-2.664c-.063-.634-1.064-.64-1 0M129.437 436.281c.644 0 .645-1 0-1-.643 0-.645 1 0 1M114.278 252.525a21.64 21.64 0 0 1-.225 4.93c-.103.63.861.9.964.266.282-1.726.376-3.449.261-5.196-.042-.639-1.042-.644-1 0M113.755 264.245l.267 3.995c.042.639 1.043.644 1 0l-.267-3.995c-.042-.64-1.042-.644-1 0M113.52 275.567a21.583 21.583 0 0 0-.052 5.728c.08.63 1.08.637 1 0a20.68 20.68 0 0 1 .015-5.462c.087-.629-.876-.902-.964-.266M101.502 252.79a9.52 9.52 0 0 0 .551 3.863c.216.6 1.183.342.964-.265a8.827 8.827 0 0 1-.515-3.597c.04-.643-.96-.64-1 0M101.254 264.111l.533 2.131c.156.624 1.12.36.964-.266l-.533-2.131c-.156-.624-1.12-.359-.964.266M112.956 289.283v3.463c0 .642 1 .644 1 0v-3.463c0-.644-1-.645-1 0M112.965 300.6a6.572 6.572 0 0 0-.271 2.8c.075.63 1.076.638 1 0a5.89 5.89 0 0 1 .235-2.534c.196-.615-.769-.877-.964-.266M113.456 309.76c.644 0 .645-1 0-1-.644 0-.645 1 0 1M112.423 315.12v4.528c0 .644 1 .645 1 0v-4.528c0-.644-1-.645-1 0M112.69 329.504v3.995c0 .644 1 .645 1 0v-3.995c0-.644-1-.645-1 0M113.222 339.891l-.266 2.664c-.064.64.936.635 1 0l.266-2.664c.064-.64-.936-.636-1 0M111.89 350.546v3.729c0 .644 1 .645 1 0v-3.73c0-.643-1-.644-1 0M111.882 359.603a12.047 12.047 0 0 1-.228 3.598c-.136.628.828.895.965.265.278-1.276.371-2.56.263-3.863-.053-.638-1.053-.643-1 0M111.358 369.458v3.729c0 .643 1 .644 1 0v-3.73c0-.643-1-.644-1 0M110.558 383.042v1.332c0 .644 1 .645 1 0v-1.332c0-.644-1-.645-1 0M111.123 390.896c.258 1.46.325 2.92.225 4.397-.043.643.957.64 1 0a19.125 19.125 0 0 0-.26-4.663c-.112-.632-1.076-.364-.965.266M111.088 402.486l-.312 3.725c-.054.641.946.637 1 0l.312-3.725c.054-.642-.946-.638-1 0M111.335 414.334l-.844 5.854c-.09.629.873.9.965.265l.843-5.853c.091-.63-.872-.902-.964-.266M111.358 428.323v3.996c0 .643 1 .645 1 0v-3.996c0-.644-1-.645-1 0M111.358 439.51v6.393c0 .643 1 .644 1 0v-6.393c0-.644-1-.645-1 0M110.825 451.763v3.196c0 .644 1 .645 1 0v-3.196c0-.644-1-.645-1 0M111.44 461.499c-.407 2.169-.294 4.306.37 6.412.192.61 1.157.35.963-.266-.608-1.932-.743-3.887-.37-5.88.118-.63-.845-.9-.964-.266M102.035 274.367v2.13c0 .643 1 .645 1 0v-2.13c0-.644-1-.645-1 0M102.802 282.857c.642 0 .644-1 0-1-.645 0-.646 1 0 1M102.568 288.75v1.332c0 .644 1 .645 1 0v-1.332c0-.644-1-.645-1 0M102.302 300.47v3.995c0 .644 1 .645 1 0v-3.996c0-.643-1-.645-1 0M103.128 312.46l-.256 2.132c-.077.638.924.632 1 0l.256-2.132c.076-.638-.924-.632-1 0M102.03 322.046a4.025 4.025 0 0 1-.237 2c-.23.602.736.862.964.266a4.67 4.67 0 0 0 .273-2.266c-.08-.63-1.081-.638-1 0M101.727 329.361l-.26 1.599c-.104.63.86.9.963.265l.261-1.598c.103-.63-.86-.901-.964-.266M101.769 337.76c-.08 1.48.02 2.938.284 4.395.114.632 1.078.364.964-.266a17.739 17.739 0 0 1-.248-4.129c.034-.644-.966-.642-1 0M102.802 348.116c.642 0 .644-1 0-1-.645 0-.646 1 0 1M101.769 352.943v3.463c0 .643 1 .644 1 0v-3.463c0-.644-1-.645-1 0M101.757 361.595l-.266 1.865c-.089.63.874.902.965.266l.265-1.864c.09-.63-.874-.902-.964-.267M101.23 369.585l-.535 2.13c-.156.625.807.89.964.266l.535-2.13c.157-.624-.807-.891-.964-.266M100.97 376.916v1.864c0 .644 1 .645 1 0v-1.864c0-.644-1-.645-1 0M100.97 383.308v1.598c0 .643 1 .644 1 0v-1.598c0-.644-1-.645-1 0M100.437 388.102v2.931c0 .643 1 .644 1 0v-2.93c0-.644-1-.646-1 0M99.904 396.094v2.397c0 .644 1 .645 1 0v-2.397c0-.644-1-.645-1 0M99.922 403.952a5.91 5.91 0 0 0-.284 2.264c.043.638 1.043.643 1 0a5.143 5.143 0 0 1 .248-1.998c.201-.614-.764-.876-.964-.266M99.371 412.875l.267 2.13c.078.63 1.08.639 1 0l-.267-2.13c-.079-.631-1.08-.64-1 0M99.638 419.267v3.196c0 .644 1 .645 1 0v-3.196c0-.644-1-.645-1 0M99.371 426.192v2.931c0 .642 1 .644 1 0v-2.93c0-.645-1-.646-1 0M99.638 437.38v1.864c0 .644 1 .645 1 0v-1.864c0-.644-1-.645-1 0M99.105 445.636v1.6c0 .642 1 .643 1 0v-1.6c0-.644-1-.645-1 0M98.857 456.158l-.267 1.065c-.156.625.809.892.965.267l.266-1.065c.156-.625-.808-.892-.964-.267M86.31 259.308a10.854 10.854 0 0 0-.515 3.604c.016.643 1.016.645 1 0a9.996 9.996 0 0 1 .48-3.338c.198-.615-.768-.877-.964-.266M87.918 268.773v2.397c0 .643 1 .644 1 0v-2.397c0-.644-1-.645-1 0M88.684 277.53c.643 0 .645-1 0-1-.644 0-.645 1 0 1M88.699 282.625c.09 1.332.18 2.663.272 3.995.043.639 1.043.644 1 0l-.272-3.995c-.043-.64-1.044-.644-1 0M88.45 294.077v1.065c0 .644 1 .645 1 0v-1.065c0-.644-1-.645-1 0M88.795 301.681c-.318 1.634-.21 3.26.366 4.823.22.6 1.188.34.965-.265-.515-1.397-.652-2.829-.367-4.29.123-.63-.841-.9-.964-.268M88.717 313.788v3.995c0 .644 1 .645 1 0v-3.995c0-.644-1-.645-1 0M88.717 323.91v2.663c0 .644 1 .645 1 0v-2.663c0-.644-1-.645-1 0M88.76 333.36l.268 1.063c.156.624 1.121.361.963-.265l-.266-1.066c-.156-.623-1.121-.359-.965.267M88.735 340.824a9.416 9.416 0 0 0 0 3.195c.107.634 1.07.366.964-.265a7.942 7.942 0 0 1 0-2.664c.107-.63-.857-.9-.964-.266M88.45 353.21v3.196c0 .644 1 .645 1 0v-3.196c0-.644-1-.645-1 0M87.918 362.798v2.663c0 .644 1 .645 1 0v-2.663c0-.643-1-.644-1 0M87.652 372.387l.266 4.528c.038.64 1.038.644 1 0-.09-1.509-.178-3.018-.266-4.528-.038-.64-1.038-.644-1 0M87.918 384.107l.267 2.131c.078.63 1.079.638 1 0l-.267-2.13c-.08-.63-1.08-.639-1 0M87.403 394.629l-.267 1.332c-.125.628.838.897.965.266l.266-1.332c.126-.628-.838-.898-.964-.266M86.852 402.486v4.262c0 .643 1 .644 1 0v-4.262c0-.644-1-.645-1 0M86.598 412.74a7.157 7.157 0 0 0-.275 2.798c.064.634 1.065.64 1 0a6.412 6.412 0 0 1 .239-2.532c.187-.62-.778-.882-.964-.266M86.32 422.73v2.93c0 .643 1 .644 1 0v-2.93c0-.644-1-.646-1 0M86.053 432.319v3.196c0 .644 1 .645 1 0v-3.196c0-.644-1-.645-1 0M86.553 442.314l.257 1.865c.087.635 1.051.365.964-.265-.085-.622-.17-1.245-.257-1.867-.087-.634-1.05-.364-.964.267M87.119 449.366v3.196c0 .644 1 .645 1 0v-3.196c0-.644-1-.645-1 0M86.053 460.552v3.463c0 .643 1 .644 1 0v-3.463c0-.643-1-.645-1 0M73.286 262.248a12.657 12.657 0 0 0-.284 3.86c.05.639 1.052.644 1 0a11.802 11.802 0 0 1 .248-3.594c.142-.627-.821-.895-.964-.266M73.768 273.535c.644 0 .645-1 0-1-.644 0-.645 1 0 1M73.233 280.23c.09 1.153.183 2.307.274 3.461.05.638 1.05.642 1 0l-.274-3.462c-.051-.638-1.051-.643-1 0M73.268 288.484v2.396c0 .644 1 .645 1 0v-2.396c0-.644-1-.645-1 0M73.002 297.007a18.502 18.502 0 0 0 .284 4.395c.116.632 1.08.365.965-.265a17.317 17.317 0 0 1-.25-4.13c.037-.643-.963-.641-1 0M73.534 307.129v2.664c0 .644 1 .645 1 0v-2.664c0-.644-1-.645-1 0M73.8 316.717v3.196c0 .644 1 .645 1 0v-3.196c0-.643-1-.645-1 0M73.268 327.638v3.996c0 .644 1 .645 1 0v-3.996c0-.644-1-.645-1 0M73.268 337.76v4.528c0 .644 1 .645 1 0v-4.528c0-.644-1-.645-1 0M74.067 349.747v3.196c0 .644 1 .645 1 0v-3.196c0-.644-1-.645-1 0M74.085 361.067a9.804 9.804 0 0 0-.284 3.33c.055.636 1.055.642 1 0a8.979 8.979 0 0 1 .248-3.064c.16-.623-.803-.889-.964-.266M73.534 371.055v2.397c0 .644 1 .645 1 0v-2.397c0-.644-1-.645-1 0M72.735 379.579v2.13c0 .644 1 .645 1 0v-2.13c0-.644-1-.645-1 0M72.762 389.038l-.528 2.132c-.155.625.81.89.965.265l.527-2.131c.155-.625-.809-.892-.964-.266M71.936 398.224v3.196c0 .644 1 .645 1 0v-3.196c0-.644-1-.645-1 0M72.466 407.813l.266 2.664c.063.635 1.064.641 1 0l-.266-2.664c-.063-.634-1.064-.64-1 0M72.202 418.467v2.131c0 .643 1 .644 1 0v-2.13c0-.645-1-.646-1 0M71.974 427.261l-.278 2.93c-.061.64.939.634 1 0l.278-2.93c.06-.64-.94-.636-1 0M71.637 437.346c.644 0 .645-1 0-1-.644 0-.645 1 0 1M71.936 444.039v3.729c0 .643 1 .644 1 0v-3.73c0-.643-1-.644-1 0M72.202 456.025v1.331c0 .644 1 .645 1 0v-1.33c0-.645-1-.646-1 0M59.95 275.432c0 1.313.185 2.601.55 3.861.179.618 1.145.355.965-.265a12.802 12.802 0 0 1-.515-3.596c-.001-.644-1.001-.645-1 0M60.483 285.021v2.663c0 .644 1 .645 1 0v-2.663c0-.644-1-.645-1 0M60.183 294.577c.644 0 .645-1 0-1-.643 0-.645 1 0 1M58.902 267.042l.533 1.598c.202.607 1.17.347.964-.266l-.533-1.6c-.202-.606-1.168-.345-.964.268M58.085 301.27v1.863c0 .644 1 .645 1 0v-1.864c0-.644-1-.645-1 0M59.15 309.26v1.599c0 .643 1 .644 1 0v-1.6c0-.644-1-.645-1 0M60.483 315.919v2.93c0 .643 1 .644 1 0v-2.93c0-.644-1-.645-1 0M60.749 323.377v2.397c0 .644 1 .645 1 0v-2.397c0-.644-1-.645-1 0M61.015 331.368l-.267 2.13c-.079.638.922.632 1 0l.267-2.13c.08-.637-.92-.631-1 0M60.483 340.69v2.131c0 .643 1 .644 1 0v-2.13c0-.645-1-.646-1 0M60.749 347.616v3.463c0 .643 1 .644 1 0v-3.463c0-.644-1-.645-1 0M60.483 356.938v1.865c0 .643 1 .644 1 0v-1.865c0-.644-1-.645-1 0M60.716 366.228c.644 0 .645-1 0-1-.643 0-.645 1 0 1M60.216 371.322v1.598c0 .643 1 .644 1 0v-1.598c0-.644-1-.645-1 0M59.417 381.976v1.332c0 .644 1 .645 1 0v-1.332c0-.644-1-.645-1 0M59.417 394.496c.09.71.178 1.42.266 2.13.08.63 1.08.639 1 0l-.266-2.13c-.079-.631-1.08-.64-1 0M59.65 405.916c.645 0 .646-1 0-1-.642 0-.644 1 0 1M59.385 413.108c.644 0 .645-1 0-1s-.645 1 0 1M58.636 418.335a16.036 16.036 0 0 0-.284 3.862c.03.64 1.032.645 1 0-.06-1.212.017-2.404.248-3.596.122-.628-.841-.898-.964-.266M59.683 431.254v1.065c0 .643 1 .645 1 0v-1.065c0-.644-1-.645-1 0M58.885 440.043v1.065c0 .644 1 .645 1 0v-1.065c0-.643-1-.645-1 0M47.182 282.224a8.985 8.985 0 0 0 0 3.196c.113.632 1.077.365.964-.266a7.545 7.545 0 0 1 0-2.664c.113-.629-.85-.9-.964-.266M47.398 291.38c.644 0 .645-1 0-1-.644 0-.645 1 0 1M46.898 295.409v3.995c0 .644 1 .645 1 0v-3.995c0-.644-1-.645-1 0M47.132 305.231c.644 0 .645-1 0-1-.643 0-.645 1 0 1M46.962 309.938a7.462 7.462 0 0 0-.113 3.196c.112.633 1.075.366.965-.265a6.227 6.227 0 0 1 .112-2.665c.16-.623-.804-.89-.964-.266M47.17 321.513c-.11 1.112.1 2.183.574 3.192.274.582 1.136.075.864-.504-.4-.853-.53-1.755-.437-2.688.063-.64-.938-.636-1 0M47.43 330.302c.035.928.24 1.797.602 2.65.25.59 1.112.081.863-.505a6.043 6.043 0 0 1-.464-2.145c-.023-.642-1.023-.645-1 0M47.697 337.76v3.463c0 .643 1 .644 1 0v-3.463c0-.644-1-.645-1 0M47.43 346.55v1.864c0 .644 1 .645 1 0v-1.864c0-.644-1-.645-1 0M47.704 357.073l.522 2.933c.113.63 1.077.364.965-.267-.175-.977-.35-1.954-.523-2.932-.112-.631-1.076-.364-.964.266M47.903 367.327l.007 1.864c.002.644 1.002.645 1 0l-.007-1.864c-.002-.644-1.002-.645-1 0M47.703 373.72c-.1.975-.2 1.95-.298 2.926-.066.64.935.636 1 0l.298-2.927c.065-.64-.936-.635-1 0M47.723 385.175c-.11.975-.217 1.95-.326 2.924-.071.639.929.634 1 0l.326-2.923c.07-.64-.93-.634-1 0M48.236 397.427a8.963 8.963 0 0 0 .266 3.332c.166.62 1.131.357.963-.267a8.227 8.227 0 0 1-.23-3.065c.07-.64-.93-.635-1 0M48.73 408.58c.643 0 .645-1 0-1-.644 0-.645 1 0 1M47.165 415.538v3.196c0 .644 1 .645 1 0v-3.196c0-.644-1-.645-1 0M47.43 425.66v1.33c0 .645 1 .646 1 0v-1.33c0-.644-1-.645-1 0M47.715 434.316c.225 1.103.302 2.206.249 3.33-.031.643.969.642 1 0a14.421 14.421 0 0 0-.285-3.596c-.128-.63-1.092-.363-.964.266M47.982 446.037a7.613 7.613 0 0 0-.284 2.53c.035.64 1.035.644 1 0a6.76 6.76 0 0 1 .248-2.264c.177-.62-.788-.885-.964-.266M48.996 456.259c.644 0 .645-1 0-1-.644 0-.645 1 0 1M33.048 282.357v2.664c0 .644 1 .645 1 0v-2.664c0-.644-1-.645-1 0M34.08 292.18c.643 0 .645-1 0-1-.644 0-.645 1 0 1M33.839 296.475a10.567 10.567 0 0 1-.23 3.331c-.146.626.817.894.964.267.276-1.187.37-2.383.266-3.598-.055-.637-1.056-.643-1 0M33.864 305.131c-.088.268-.177.532-.267.8-.203.611.762.873.965.264.09-.265.178-.532.267-.798.203-.612-.761-.874-.965-.266M33.846 311.657v2.13c0 .644 1 .645 1 0v-2.13c0-.644-1-.645-1 0M34.912 322.578v3.196c0 .644 1 .645 1 0v-3.196c0-.644-1-.645-1 0M35.711 332.167v2.13c0 .644 1 .645 1 0v-2.13c0-.644-1-.645-1 0M36.777 342.555a11.267 11.267 0 0 0 .284 3.33c.147.625 1.112.36.965-.267a10.314 10.314 0 0 1-.25-3.063c.043-.643-.957-.64-1 0M37.543 354.775c.644 0 .645-1 0-1-.644 0-.645 1 0 1M36.51 360.401v2.397c0 .644 1 .645 1 0v-2.397c0-.644-1-.645-1 0M36.244 367.86v3.195c0 .644 1 .645 1 0v-3.196c0-.644-1-.645-1 0M37.31 376.65l.265 2.13c.08.63 1.08.638 1 0l-.266-2.13c-.079-.63-1.08-.639-1 0M36.488 391.298l-.281 3.728c-.048.642.952.638 1 0l.281-3.728c.048-.643-.952-.64-1 0M35.944 402.986c.645 0 .645-1 0-1-.644 0-.645 1 0 1M35.711 408.879l-.267 2.664c-.064.64.937.635 1 0l.267-2.664c.064-.64-.937-.635-1 0M35.503 418.594l.773 4c.123.63 1.086.363.965-.267l-.774-4c-.122-.63-1.086-.363-.964.267M36.244 430.188l-.267 2.93c-.058.64.943.636 1 0l.267-2.93c.058-.642-.942-.637-1 0M36.244 441.375v1.864c0 .644 1 .645 1 0v-1.864c0-.644-1-.645-1 0M36.261 452.962a18.08 18.08 0 0 0-.284 4.129c.03.64 1.031.644 1 0-.06-1.3.015-2.582.248-3.863.115-.63-.848-.9-.964-.266M35.463 463.084l-.533 3.463c-.097.629.866.9.965.266l.532-3.463c.097-.63-.866-.901-.964-.266M20.795 285.82v2.664c0 .643 1 .644 1 0v-2.664c0-.644-1-.645-1 0M20.529 297.273v1.865c0 .644 1 .645 1 0v-1.865c0-.644-1-.645-1 0M20.624 307.24c.234.934.277 1.864.15 2.816-.082.636.918.63 1 0a8.141 8.141 0 0 0-.186-3.081c-.156-.624-1.121-.36-.964.266M20.813 317.117l.533 3.463c.097.634 1.06.365.964-.266l-.533-3.463c-.097-.633-1.061-.364-.964.266M21.86 327.373v2.663c0 .644 1 .645 1 0v-2.663c0-.644-1-.645-1 0M21.86 337.494l.267 3.463c.048.638 1.05.642 1 0l-.267-3.463c-.049-.638-1.049-.643-1 0M22.382 347.486l.263 1.865c.09.635 1.053.364.964-.265l-.263-1.866c-.089-.634-1.052-.364-.964.266M23.458 356.406v4.528c0 .643 1 .645 1 0v-4.528c0-.644-1-.645-1 0M24.225 368.626c.644 0 .645-1 0-1-.644 0-.645 1 0 1M21.7 375.477c-.382 1.416-.245 2.822.366 4.151.268.584 1.13.077.863-.505-.496-1.08-.573-2.237-.265-3.38.168-.622-.796-.888-.964-.266M22.925 385.706v1.33c0 .645 1 .646 1 0v-1.33c0-.644-1-.645-1 0M22.68 392.366l-.272 3.463c-.05.64.95.638 1 0l.272-3.463c.05-.642-.95-.64-1 0M22.893 404.585c.644 0 .645-1 0-1-.643 0-.645 1 0 1M22.428 409.416l-.543 4.26c-.082.637.919.632 1 0l.543-4.26c.082-.637-.92-.63-1 0M21.878 418.068c.09.267.178.532.266.8.203.606 1.17.346.964-.267l-.266-.799c-.202-.607-1.169-.347-.964.266M21.327 429.123v2.93c0 .643 1 .644 1 0v-2.93c0-.644-1-.645-1 0M21.611 440.443l-.265 1.598c-.105.63.857.9.963.266l.267-1.598c.104-.63-.858-.9-.965-.266M21.327 448.3v3.995c0 .644 1 .645 1 0V448.3c0-.644-1-.644-1 0M20.536 458.156l-.27 5.594c-.03.642.97.641 1 0l.27-5.594c.03-.644-.97-.642-1 0M18.098 445.87c.644 0 .645-1 0-1-.644 0-.645 1 0 1M7.743 287.152a26.741 26.741 0 0 0 0 5.061c.06.634 1.06.641 1 0-.16-1.69-.16-3.372 0-5.06.06-.642-.94-.638-1 0M8.51 302.302c.643 0 .645-1 0-1-.644 0-.646 1 0 1M7.743 311.39l-.266 3.463c-.05.641.95.64 1 0l.266-3.463c.049-.642-.951-.639-1 0M7.477 320.18v5.062c0 .642 1 .644 1 0v-5.062c0-.644-1-.645-1 0M8.51 333.466c.643 0 .645-1 0-1-.644 0-.646 1 0 1M6.163 340.024l.799 4.528c.112.633 1.076.365.964-.265l-.8-4.529c-.11-.632-1.074-.364-.963.266M7.723 350.666a12.85 12.85 0 0 0-.594 5.216c.058.636 1.059.64 1 0a12.158 12.158 0 0 1 .558-4.95c.2-.613-.764-.875-.964-.266M7.488 361.2a25.852 25.852 0 0 0-.028 4.53c.051.637 1.052.643 1 0a25.852 25.852 0 0 1 .028-4.53c.06-.64-.94-.635-1 0M7.977 373.154c.644 0 .645-1 0-1-.644 0-.645 1 0 1M7.21 381.177a17.872 17.872 0 0 0 0 4.262c.076.631 1.077.638 1 0a17.872 17.872 0 0 1 0-4.262c.077-.638-.924-.632-1 0M7.21 391.298v3.197c0 .643 1 .645 1 0v-3.197c0-.643-1-.644-1 0M7.477 399.29v1.332c0 .644 1 .645 1 0v-1.332c0-.644-1-.645-1 0"/>
        <g>
            <path fill="#F2F2F2" d="M1099.109 381.273c-5.313-2.54-10.977-3.96-16.899-3.609-6.6.392-12.129 3.582-18.47 4.945-7.585 1.631-10.583-3.852-16.881-6.26-4.083-1.56-8.407-1.515-12.664-.94a8.093 8.093 0 0 0-3.718.616c-.24.046-.481.091-.72.138-.967.19-1.579.784-1.885 1.527-.143.125-.287.25-.428.386-1.407 1.35-1.023 3.741.607 4.711 5.594 3.328 10.232-.368 15.999.463 3.304.475 5.044 3.513 7.498 5.414 2.223 1.72 4.614 2.646 7.416 2.96 6.583.731 12.249-2.497 18.402-4.146 7.055-1.892 14.226 2.123 21.026-.722 2.101-.878 3.319-4.239.717-5.483M1065.925 366.032a18.135 18.135 0 0 0-1.865-1.68.464.464 0 0 0-.005-.459 23.503 23.503 0 0 0-1.018-1.605 3.135 3.135 0 0 0-.016-.76c-.983-6.89-6.794-13.269-13.656-14.16-2.429-.317-2.91 2.811-1.767 4.267 1.73 2.202-7.817 2.465-8.064 2.44-2.517-.275-4.86-1.004-7.217-1.907a2.67 2.67 0 0 0-.58-.15c-2.465-1.814-5.867 1.611-3.414 3.617a155.63 155.63 0 0 0 2.24 1.798c.066.677.41 1.334 1.153 1.797 2.602 1.616 5.337 3.161 8.358 3.565.213.061.42.137.636.191 6.13 1.495 12.833-1.582 18.638 1.365.532.27 1.05.358 1.522.305.692.5 1.471.855 2.352 1.025.694.387 1.388.773 2.096 1.136.497.255 1.012-.365.606-.785M1029.883 394.784c.343-.236.61-.532.813-.859l.213-.103c3.857-.068 3.87-6.068 0-6-2.707.05-4.797.85-6.575 2.397l-.137.062c-4.229 2.046-7.379 3.227-12.087 3.812-8.166 1.013-16.397 1.752-24.203-1.42-.83-.338-1.436.11-1.674.757a4 4 0 0 0-.979-1.434c-2.8-2.702-1.595-5.074-.187-8.084.8-1.71.65-3.424-.625-4.848-3.715-4.146-12.55-1.132-17.032.227-.196.06-.37.14-.545.218-4.717-.625-9.387 1.291-14.154-.084-4.508-1.299-8.12-3.066-12.945-2.623-2.816.257-5.89 1.61-8.508.132-1.473-.023-1.972-.609-1.498-1.758a6.587 6.587 0 0 1 .885-3.08c.635-1.232 1.681-2.469 2.821-3.264.44-.308.906-.57 1.384-.807.506.167 1.087.17 1.728-.09a128.785 128.785 0 0 0 3.637-1.547c2.695-.536 5.472-.932 7.868-2.076 2.707-1.293 4.97-3.067 6.967-5.172.56-.207 1.076-.605 1.466-1.257l.284-.473a3.077 3.077 0 0 0 1.038-1.984c.591-2.103-1.406-3.69-3.364-3.452-1.624-.636-2.244-4.644-3.013-5.896-.907-1.477-2.249-2.64-3.859-3.276-4.374-1.728-8.3.742-12.248 2.312-3.903 1.553-8.289 1.63-10.342 5.892-1.09 2.262-1.167 4.824-2.313 7.094-.148.295-.308.58-.472.862l-3.132 3.187c-3.693 2.73-8.257 4.386-10.872 8.623-.04.066-.062.131-.096.198-1.916 2.937-2.103 7.052-.74 10.62 2.308 6.046 7.617 10.352 13.611 12.423 4.144 1.431 6.747 2.09 9.84 5.341.13.138.266.256.4.381a2.948 2.948 0 0 0-.082.443c-.597 5.876 7.213 5.92 11.155 5.3 4.716-.739 9.3-3.166 14.011-4.284.257.133.511.275.772.393.083.045.161.08.244.126 6.17 3.38 11.253 2.298 17.853 1.001 3.494-.688 7.9.395 10.665-1.044 1.012 2.091 3.417 3.466 5.81 3.732 6.002.67 11.66-2.93 17.636-2.662 5.907.266 8.886 6.068 14.462 7.286 3.68.804 7.684-.708 9.18-4.366a6.258 6.258 0 0 0-.052-4.868c-.587-1.364-4.952-4.67-3.009-6.008"/>
            <path fill="#071F2C" d="M1013.006 352.665c7.25.345 13.56 1.19 18.8 6.618 1.766 1.828 3.486 3.505 5.95 4.326 2.81.938 5.836.707 8.735.44 3.455-.318 6.979-.823 10.389.1 3.124.847 5.848 2.7 8.833 3.897 2.918 1.17 5.602 1.229 8.718 1.088 1.85-.083 3.723-.181 5.508.418 2.48.832 3.2 2.573 4.094 4.895 2.029 5.265 8.115 4.069 12.206 6.515 1.19.712 3.537 2.639 2.253 4.332-.63.832-2.232.933-3.152.995-2.426.164-4.902-.197-7.31-.453-2.257-.24-4.54-.525-6.815-.434-3.412.139-6.725 1.127-9.972 2.108-5.909 1.783-15.197 5.054-19.695-1.148-1.667-2.3-2.765-4.06-5.804-4.4-2.775-.313-5.408.656-8.09 1.166-2.48.47-8.748.555-8.497-3.416.236-3.734 5.015-2.588 7.271-2.005.623.16.89-.804.265-.965-2.97-.766-9.077-1.458-8.599 3.56.483 5.059 8.293 4.162 11.46 3.405 1.95-.466 3.967-.95 5.982-.745 2.993.303 3.93 2.466 5.616 4.544 1.593 1.963 3.98 2.944 6.436 3.275 7.97 1.072 15.283-3.8 23.092-4.348 5.384-.38 11.15 1.92 16.447.615 4.945-1.22 1.865-5.922-1.253-7.393-2.962-1.397-7.053-1.065-9.531-3.407-1.41-1.334-1.423-3.255-2.35-4.838-.688-1.175-1.772-1.99-3.01-2.528-3.32-1.446-6.894-.427-10.365-.654-4.11-.27-7.506-2.72-11.207-4.244-8.404-3.463-18.697 2.72-25.77-4.24-2.697-2.654-4.975-5.011-8.627-6.306-3.835-1.36-7.98-1.582-12.007-1.773-.644-.031-.642.969 0 1"/>
            <path fill="#071F2C" d="M1062.103 389.94c-5.81 4.291-13.204 3.138-19.95 2.713-3.89-.244-12.613-1.292-13.477 4.275-.496 3.194 3.062 3.428 3.702 6.077 1.013 4.187-3.7 6.81-7.196 6.202-4.05-.706-6.516-3.696-9.736-5.889-2.46-1.676-5.253-1.923-8.121-1.366-3.63.704-6.951 2.533-10.602 3.134-4.688.77-9.425-1.408-9.056-6.675.137-1.94.497-4.256-.674-5.974-.61-.893-1.64-1.266-2.361-2.048-1.228-1.332-1.616-3.31-1.44-5.06.078-.776.25-1.466.562-2.18.296-.678.95-1.219 1.21-1.862.203-.497.163-1.089-.036-1.595-.548-1.399-2.205-1.9-3.543-2.139-5.213-.93-10.394.831-15.322 2.26-4.112 1.192-7.954 1.523-12.135.474-3.366-.844-6.601-2.186-10.02-2.822-3.041-.565-5.701-.26-8.654.537-1.331.36-2.832.843-4.133.151-1.092-.58-2.003-1.942-1.711-3.23.256-1.13 1.656-2.807 2.317-3.813 2.046-3.12 6.56-3.349 9.944-3.988 3.038-.576 6.13-1.205 8.859-2.726 5.68-3.167 6.476-10.373 11.72-13.924 2.97-2.01 6.548-2.815 9.837-4.138 2.746-1.106 5.194-2.658 7.446-4.574 5.11-4.348 9.126-10.255 15.445-12.982 3.067-1.323 6.627-2.03 9.897-1.055 3.318.99 4.31 3.848 6.91 5.682 4.606 3.251 10.923-1.98 14.24-4.912 4.403-3.89 11.638-10.527 17.97-6.352 3.966 2.615 3.238 8.068 1.79 11.867-1.033 2.712-3.48 6.03-3.263 9.048.384 5.34 9.154 5.762 12.85 7.074 4.254 1.51 5.904 4.626 6.872 8.837.6 2.611 1.235 4.83 3.025 6.89 1.52 1.75 3.45 3.135 5.792 3.384.639.068.634-.933 0-1-3.912-.416-6.65-4.453-7.492-7.96-.72-2.989-1.216-6.209-3.46-8.498-1.975-2.015-4.807-2.805-7.46-3.475-3.75-.949-10.483-2.119-8.714-7.479 1.846-5.596 6.874-12.519 2.118-18.16-3.488-4.14-9.714-2.796-13.828-.449-2.686 1.533-4.883 3.791-7.191 5.817-2.618 2.296-6.682 5.787-10.503 5.292-3.562-.462-5.074-4.835-8.368-6.206-2.265-.943-4.778-1.016-7.17-.604-6.415 1.106-10.97 5.48-15.365 9.936-2.604 2.64-5.244 5.333-8.444 7.257-3.14 1.89-6.72 2.718-10.068 4.135-2.79 1.182-5.152 2.795-6.93 5.278-1.968 2.752-3.146 6.128-5.595 8.53-2.775 2.721-6.728 3.64-10.42 4.356-2.97.576-6.75.79-9.343 2.476-1.73 1.124-3.26 3.733-4.125 5.55-.88 1.845.006 3.795 1.68 4.832 2.698 1.67 5.958-.457 8.772-.712 3.78-.342 7.47.975 11.024 2.082 3.384 1.055 6.843 2.028 10.424 1.723 3.74-.319 7.234-1.764 10.84-2.692 2.655-.683 5.46-1.069 8.206-.905 1.136.068 2.729.14 3.666.896 1.475 1.19.086 2.172-.471 3.431-.862 1.947-.951 4.283-.195 6.278.362.952.92 1.843 1.68 2.53 1.538 1.387 2.436 2.105 2.49 4.375.06 2.48-.737 4.703.73 6.952 1.41 2.163 3.879 3.267 6.393 3.418 3.625.217 6.994-1.339 10.363-2.434 1.924-.625 3.95-1.206 5.993-1.149 2.97.081 4.874 1.681 7.044 3.483 3.854 3.2 10.646 6.715 14.61 1.72 1.149-1.449 1.859-3.474 1.366-5.314-.244-.916-.73-1.497-1.37-2.163-1.037-1.08-2.426-1.945-2.124-3.564.3-1.615 1.85-2.5 3.326-2.908 3.55-.98 7.728-.358 11.345-.099 3.402.242 6.84.514 10.238.063 2.893-.382 5.522-1.338 7.875-3.077.512-.378.014-1.246-.505-.863"/>
            <path fill="#071F2C" d="M994.62 350.67c-5.894.11-10.823 4.97-11.03 10.857-.023.644.977.643 1 0 .188-5.338 4.693-9.757 10.03-9.857.643-.012.645-1.012 0-1"/>
            <path fill="#071F2C" d="M987.212 354.187c-.857-1.254-1.723-2.187-3.315-1.964-.901.125-1.703.624-2.63.68-1.795.11-2.87-1.145-4.451-1.609-4.15-1.215-4.746 5.583-8.717 5.388-.644-.032-.642.968 0 1 1.488.073 2.625-.559 3.64-1.614 1.112-1.152 2.164-3.693 3.889-3.916 1.14-.148 2.229.935 3.257 1.325.85.323 1.68.484 2.589.404 2.174-.19 3.268-1.539 4.875.811.36.528 1.227.028.863-.505M987 401.876c-4.84-1.417-9.9-1.544-14.772-.177-2.764.775-5.767 2.265-8.703 1.647-2.497-.526-4.184-2.496-5.978-4.144-2.77-2.545-5.296-3.312-8.997-2.534-2.867.604-7.442 1.7-7.638-2.754-.192-4.35 5.015-5.233 8.255-4.652.63.113.9-.851.266-.964-4.099-.736-9.844.69-9.523 5.932.363 5.95 7.1 3.469 10.655 3.115 6.01-.6 8.158 6.9 14.037 7.11 3.193.115 6.175-1.436 9.23-2.131 4.3-.977 8.686-.72 12.902.517.62.18.883-.784.266-.965"/>
            <path fill="#071F2C" d="M957.452 399.941c-5.267.217-9.443 3.314-14.357 4.772-2.75.818-5.818 1.014-8.38-.5-2.568-1.518-2.577-4.304-4.155-6.5-2.234-3.11-6.72-2.735-10.006-3.726-5.293-1.598-9.588-5.8-11.307-11.048-1.772-5.41-.9-12.74 3.89-16.368 2.492-1.887 5.134-3.578 7.593-5.51 3.107-2.439 2.77-5.503 4.19-8.855 2.213-5.225 7.65-5.528 12.338-7.14 2.754-.949 4.788-2.627 7.885-1.789 1.648.446 3.11 1.306 4.086 2.728.811 1.184 1.002 2.552 1.61 3.823 1.77 3.701 5.888 3.425 9.286 2.402.615-.185.353-1.15-.265-.965-3.209.967-6.88 1.311-8.346-2.424-.77-1.962-1.219-3.676-2.977-5.028-1.406-1.08-3.263-1.742-5.037-1.829-2.329-.114-4.053 1.2-6.142 1.993-4.137 1.572-8.95 1.691-11.933 5.413-1.177 1.471-1.796 3.147-2.197 4.965-.6 2.724-1.329 4.564-3.638 6.321-2.836 2.16-6.436 3.967-8.784 6.68-2.99 3.451-3.835 8.585-3.179 12.99.69 4.63 3.16 8.778 6.874 11.618a18.385 18.385 0 0 0 5.787 2.987c2.612.8 5.745.604 8.106 2.101 2.527 1.602 2.393 5.152 4.587 7.133 1.5 1.356 3.562 2.03 5.554 2.154 6.785.423 12.22-5.122 18.917-5.398.641-.026.645-1.027 0-1M1090.87 391.072l-.355 3.198c-.071.64.929.634 1 0l.355-3.198c.07-.639-.93-.633-1 0M1090.519 401.022v1.422c0 .643 1 .644 1 0v-1.422c0-.643-1-.645-1 0M1091.585 413.104c-.12 1.185-.237 2.37-.355 3.554-.064.64.936.635 1 0l.355-3.554c.064-.64-.937-.635-1 0M1090.874 424.83v2.844c0 .643 1 .644 1 0v-2.843c0-.644-1-.645-1 0M1091.019 437.058c.643 0 .645-1 0-1-.644 0-.645 1 0 1M1090.519 445.086v4.976c0 .643 1 .644 1 0v-4.976c0-.644-1-.645-1 0M1089.488 457.299l.589 4.28c.088.635 1.052.366.965-.265l-.59-4.281c-.087-.634-1.051-.365-.964.266M1090.163 471.026v2.133c0 .643 1 .644 1 0v-2.133c0-.643-1-.645-1 0M1089.452 483.108l-.355 2.843c-.08.637.921.632 1 0l.355-2.843c.08-.637-.92-.63-1 0M1089.492 494.352a9.495 9.495 0 0 0-.056 4.533c.144.627 1.108.362.965-.266a8.34 8.34 0 0 1 .055-4c.16-.624-.804-.89-.964-.267M1089.808 507.983l.355 3.908c.058.636 1.059.643 1 0l-.355-3.908c-.058-.636-1.058-.642-1 0M1089.097 522.553v2.843c0 .643 1 .644 1 0v-2.843c0-.644-1-.645-1 0M1089.086 536.27l-.701 2.846c-.154.625.81.891.964.265l.7-2.844c.156-.625-.81-.892-.963-.267M1088.742 550.625v1.776c0 .644 1 .645 1 0v-1.776c0-.644-1-.645-1 0M1087.675 563.062v6.041c0 .644 1 .645 1 0v-6.04c0-.645-1-.646-1 0M1087.675 576.21v4.976c0 .642 1 .644 1 0v-4.976c0-.644-1-.645-1 0M1087.694 587.804c-.12.71-.237 1.422-.355 2.132-.105.63.858.9.964.266l.354-2.132c.106-.63-.857-.9-.963-.266M1080.214 391.429a8.728 8.728 0 0 0 .779 3.45c.262.587 1.124.078.863-.505a7.492 7.492 0 0 1-.642-2.945c-.011-.643-1.011-.646-1 0M1081.297 402.311l-.355 1.421c-.156.625.808.892.964.266l.355-1.42c.157-.625-.808-.892-.964-.267M1081.28 410.972v6.752c0 .644 1 .644 1 0v-6.752c0-.644-1-.645-1 0M1080.569 423.765v3.553c0 .643 1 .644 1 0v-3.553c0-.644-1-.645-1 0M1079.851 436.914a7.856 7.856 0 0 1-.317 3.425c-.198.613.768.877.964.265a8.514 8.514 0 0 0 .353-3.69c-.078-.63-1.079-.638-1 0M1079.858 450.416v2.133c0 .643 1 .644 1 0v-2.133c0-.643-1-.644-1 0M1077.726 462.853v3.198c0 .644 1 .645 1 0v-3.198c0-.644-1-.645-1 0M1079.147 473.869v2.843c0 .643 1 .644 1 0v-2.843c0-.643-1-.645-1 0M1078.851 484.984a4.955 4.955 0 0 0-.39 2.876c.098.634 1.061.364.964-.267a3.711 3.711 0 0 1 .29-2.104c.263-.582-.599-1.09-.864-.505M1077.37 497.322v1.422c0 .643 1 .644 1 0v-1.422c0-.644-1-.645-1 0M1077.37 507.628v1.42c0 .644 1 .645 1 0v-1.42c0-.644-1-.645-1 0M1077.015 516.512l-.355 4.619c-.05.642.95.639 1 0l.355-4.62c.05-.641-.95-.638-1 0M1076.66 528.95v1.775c0 .644 1 .645 1 0v-1.776c0-.644-1-.645-1 0M1077.053 539.25l.37 4.264c.054.635 1.055.64 1 0l-.37-4.263c-.055-.637-1.056-.643-1 0M1077.015 550.98l.355 6.041c.038.64 1.038.644 1 0l-.355-6.04c-.038-.64-1.038-.645-1 0M1077.515 566.05c.644 0 .645-1 0-1-.644 0-.645 1 0 1M1068.517 394.4c.347 1.245.447 2.494.317 3.78-.064.64.937.634 1 0a10.873 10.873 0 0 0-.353-4.046c-.172-.619-1.137-.356-.964.266M1068.15 405.775l.354 1.421c.157.624 1.121.36.965-.266l-.356-1.42c-.155-.625-1.12-.36-.964.265M1068.927 416.064a7.5 7.5 0 0 1-.102 3.65c-.17.621.794.886.965.265a8.625 8.625 0 0 0 .101-4.18c-.137-.63-1.102-.363-.964.265M1069.197 426.253v4.619c0 .644 1 .645 1 0v-4.62c0-.643-1-.644-1 0M1067.439 440.6l.71 4.619c.098.635 1.062.365.965-.265l-.711-4.62c-.097-.633-1.061-.365-.964.266M1068.487 453.97l-.355 3.554c-.064.639.936.635 1 0l.355-3.554c.064-.64-.937-.635-1 0M1068.276 469.039c.644 0 .645-1 0-1-.644 0-.645 1 0 1M1067.42 482.043v2.487c0 .644 1 .645 1 0v-2.487c0-.644-1-.645-1 0M1067.42 492.703v3.909c0 .644 1 .645 1 0v-3.909c0-.644-1-.645-1 0M1066.017 507.76c.12.83.237 1.659.355 2.488.091.635 1.055.365.965-.265l-.356-2.488c-.09-.634-1.054-.365-.964.266M1065.644 518.643v4.62c0 .643 1 .644 1 0v-4.62c0-.644-1-.645-1 0M1066.5 533.713c.643 0 .644-1 0-1s-.646 1 0 1M1065.789 542.597c.644 0 .645-1 0-1-.644 0-.645 1 0 1M1064.951 547.294l-.71 3.909c-.115.629.848.899.963.266l.711-3.91c.115-.628-.849-.898-.964-.265M1064.223 558.088l.355 6.75c.034.642 1.034.646 1 0l-.355-6.75c-.034-.641-1.034-.645-1 0M1064.964 575.984a9.682 9.682 0 0 1 .319 3.778c-.07.64.93.634 1 0a10.413 10.413 0 0 0-.355-4.045c-.178-.617-1.144-.354-.965.267M1058.537 398.535v4.976c0 .643 1 .644 1 0v-4.976c0-.644-1-.645-1 0M1058.182 407.774v4.62c0 .643 1 .645 1 0v-4.62c0-.644-1-.645-1 0M1058.2 417.236a11.797 11.797 0 0 0-.374 4.042c.052.637 1.052.642 1 0a10.95 10.95 0 0 1 .337-3.776c.168-.622-.797-.888-.964-.266M1057.115 430.872v4.62c0 .644 1 .645 1 0v-4.62c0-.644-1-.645-1 0M1057.26 445.586c.644 0 .645-1 0-1-.644 0-.645 1 0 1M1057.26 457.668c.644 0 .645-1 0-1-.644 0-.645 1 0 1M1056.05 462.143v4.976c0 .643 1 .643 1 0v-4.976c0-.643-1-.645-1 0M1056.405 476.002v3.198c0 .644 1 .645 1 0v-3.198c0-.644-1-.645-1 0M1056.05 489.505v5.33c0 .644 1 .645 1 0v-5.33c0-.644-1-.645-1 0M1055.339 501.231v3.554c0 .643 1 .644 1 0v-3.554c0-.644-1-.645-1 0M1055.694 511.892l.355 2.843c.08.63 1.081.638 1 0l-.355-2.843c-.079-.63-1.08-.638-1 0M1055.712 522.774a4709.85 4709.85 0 0 0-.71 3.198c-.14.627.824.896.963.267l.711-3.198c.14-.627-.824-.896-.964-.267M1054.273 533.924v3.554c0 .642 1 .644 1 0v-3.554c0-.644-1-.645-1 0M1044.288 400.67l.36 4.975c.047.637 1.047.643 1 0l-.36-4.975c-.046-.638-1.047-.643-1 0M1047.184 410.484a14.177 14.177 0 0 0-.373 4.397c.046.638 1.046.643 1 0a13.293 13.293 0 0 1 .337-4.13c.152-.626-.812-.893-.964-.267M1046.462 420.568l-.772 6.744c-.073.64.927.633 1 0l.772-6.744c.073-.639-.928-.634-1 0M1045.39 433.715v3.198c0 .644 1 .645 1 0v-3.198c0-.644-1-.645-1 0M1046.81 446.508v4.264c0 .643 1 .644 1 0v-4.264c0-.644-1-.645-1 0M1046.244 460.866c.644 0 .645-1 0-1-.643 0-.645 1 0 1M1044.59 471.375l-.339 4.266c-.051.64.95.638 1 0l.339-4.266c.051-.642-.949-.64-1 0M1043.968 481.332v4.975c0 .643 1 .644 1 0v-4.975c0-.644-1-.645-1 0M1043.612 494.48a6126.53 6126.53 0 0 0-.355 4.264c-.054.641.946.637 1 0l.355-4.265c.053-.64-.947-.638-1 0M1043.046 507.417c.644 0 .645-1 0-1-.643 0-.644 1 0 1M1041.48 516.156v3.554c0 .643 1 .644 1 0v-3.554c0-.644-1-.645-1 0M1042.921 527.528l-.361 5.33c-.044.643.956.64 1 0l.361-5.33c.043-.642-.957-.64-1 0M1041.836 539.254v4.619c0 .644 1 .645 1 0v-4.62c0-.643-1-.644-1 0M1041.862 547.913c.35 1.364.451 2.731.323 4.133-.059.64.941.637 1 0a12.869 12.869 0 0 0-.359-4.4c-.159-.622-1.124-.358-.964.267M1042.691 560.364c.644 0 .645-1 0-1-.644 0-.645 1 0 1M1042.147 569.294l.063 4.784c.009.643 1.009.645 1 0l-.063-4.784c-.01-.643-1.01-.645-1 0M1042.935 580.958c.355 1.365.454 2.733.314 4.135-.064.639.936.636 1 0a12.413 12.413 0 0 0-.35-4.401c-.162-.622-1.127-.358-.964.266M1043.349 592.675a10.94 10.94 0 0 1-.11 4.359c-.141.627.822.895.964.266.369-1.627.4-3.248.11-4.891-.111-.632-1.075-.364-.964.266M1052.189 550.975l.672 6.046c.07.633 1.07.64 1 0l-.672-6.046c-.07-.632-1.071-.64-1 0M1051.454 568.396c-.068.761.304 1.437.933 1.852.54.355 1.04-.51.504-.864-.35-.23-.473-.583-.437-.988.058-.642-.943-.638-1 0M1033.026 413.933c.34 1.371.418 2.742.261 4.144-.073.638.928.633 1 0 .168-1.49.063-2.956-.297-4.41-.154-.624-1.119-.36-.964.267M1033.307 425.186v3.198c0 .644 1 .645 1 0v-3.198c0-.644-1-.645-1 0M1033.12 435.638v3.26c0 .643 1 .644 1 0v-3.26c0-.644-1-.645-1 0M1033.116 444.53l-.495 3.511c-.088.63.875.901.965.265l.494-3.51c.089-.63-.875-.903-.964-.267M1032.109 452.33a8.429 8.429 0 0 1 .506 3.619c-.05.642.952.639 1 0a9.106 9.106 0 0 0-.542-3.884c-.221-.598-1.188-.34-.964.266M1033.37 465.477v4.013c0 .643 1 .644 1 0v-4.013c0-.643-1-.645-1 0M1033.62 479.018c.643 0 .644-1 0-1s-.646 1 0 1M1032.666 485.29c-.1 1.337-.202 2.674-.303 4.01-.049.64.951.638 1 0l.303-4.01c.048-.641-.952-.638-1 0M1031.38 495.57a16.864 16.864 0 0 0 .215 4.401c.113.633 1.077.365.964-.265a15.88 15.88 0 0 1-.179-4.136c.054-.642-.946-.638-1 0M1030.862 507.605l-.25 3.761c-.043.642.957.64 1 0l.25-3.76c.043-.644-.957-.642-1 0M1030.11 517.385v.752c0 .644 1 .644 1 0v-.752c0-.644-1-.645-1 0M1029.86 524.656v3.762c0 .643 1 .644 1 0v-3.762c0-.644-1-.645-1 0M1029.609 536.442v1.755c0 .643 1 .644 1 0v-1.755c0-.644-1-.645-1 0M1029.609 542.962v2.758c0 .643 1 .644 1 0v-2.758c0-.644-1-.645-1 0M1028.606 556.252v3.76c0 .644 1 .645 1 0v-3.76c0-.644-1-.645-1 0M1028.381 565.277l.265 3.51c.049.636 1.049.642 1 0l-.264-3.51c-.049-.638-1.049-.644-1 0M1018.845 413.825a12.254 12.254 0 0 0 .23 4.397c.145.627 1.11.362.963-.265a11.512 11.512 0 0 1-.193-4.132c.083-.637-.918-.63-1 0M1019.579 426.11v1.754c0 .643 1 .644 1 0v-1.755c0-.644-1-.645-1 0M1019.579 434.384v3.01c0 .643 1 .644 1 0v-3.01c0-.643-1-.645-1 0M1019.241 444.656c-.136 1.341-.27 2.682-.407 4.021-.065.64.936.636 1 0l.407-4.02c.064-.64-.936-.636-1 0M1018.576 455.95v2.758c0 .642 1 .644 1 0v-2.759c0-.644-1-.645-1 0M1018.325 465.728v2.76c0 .642 1 .643 1 0v-2.76c0-.644-1-.645-1 0M1017.123 475.253l.246 3.01c.052.636 1.052.642 1 0l-.246-3.01c-.052-.637-1.053-.643-1 0M1017.07 485.789v2.759c0 .643 1 .644 1 0v-2.76c0-.643-1-.644-1 0M1017.07 494.816v1.003c0 .643 1 .644 1 0v-1.003c0-.644-1-.645-1 0M1017.322 509.11v4.262c0 .643 1 .644 1 0v-4.263c0-.644-1-.645-1 0M1016.819 523.15c.643 0 .645-1 0-1-.644 0-.645 1 0 1M1014.995 530.526l-.942 5.527c-.108.63.856.901.964.266l.942-5.526c.108-.63-.856-.9-.964-.267M1015.347 543.712l.249 3.26c.048.637 1.048.642 1 0l-.25-3.26c-.048-.638-1.048-.644-1 0M1015.584 557.006l-.283 3.759c-.049.64.951.638 1 0 .095-1.253.19-2.506.283-3.76.048-.642-.952-.64-1 0M1014.574 565.915c.43 1.775.586 3.56.487 5.382-.035.643.965.64 1 0a19.381 19.381 0 0 0-.523-5.648c-.15-.625-1.115-.36-.964.266M1014.814 578.067v4.765c0 .643 1 .644 1 0v-4.765c0-.644-1-.645-1 0M1014.63 590.35l.234 3.512c.043.638 1.043.643 1 0l-.234-3.512c-.042-.639-1.043-.644-1 0M1013.912 604.639a8.616 8.616 0 0 1-.334 3.136c-.185.618.78.882.964.265a9.4 9.4 0 0 0 .37-3.401c-.048-.638-1.048-.643-1 0M1005.047 408.558a23.259 23.259 0 0 0-.028 4.263c.053.635 1.054.641 1 0a23.259 23.259 0 0 1 .028-4.264c.063-.64-.938-.636-1 0M1005.316 418.716c.245.782.312 1.563.216 2.378-.075.638.926.632 1 0a6.302 6.302 0 0 0-.252-2.645c-.192-.611-1.157-.35-.964.267M1005.063 428.487a4.122 4.122 0 0 0 .562 3.627c.368.521 1.235.022.863-.505-.608-.86-.775-1.848-.46-2.855.192-.617-.774-.88-.965-.267M1005.787 438.396l-.25 3.511c-.047.641.953.638 1 0l.25-3.51c.045-.644-.955-.64-1 0M1006.289 448.928v1.254c0 .643 1 .644 1 0v-1.254c0-.644-1-.645-1 0M1005.787 456.2v3.26c0 .643 1 .644 1 0v-3.26c0-.644-1-.645-1 0M1006.038 465.728v2.257c0 .643 1 .644 1 0v-2.257c0-.644-1-.645-1 0M1006.038 475.258v2.006c0 .643 1 .644 1 0v-2.006c0-.644-1-.645-1 0M1006.036 485.537c.644 0 .645-1 0-1-.644 0-.645 1 0 1M1005.536 492.81v2.758c0 .643 1 .644 1 0v-2.758c0-.644-1-.645-1 0M1005.035 501.587v2.758c0 .643 1 .644 1 0v-2.758c0-.644-1-.645-1 0M1004.784 509.611v3.511c0 .642 1 .644 1 0v-3.51c0-.645-1-.646-1 0M1004.782 519.89c.644 0 .645-1 0-1-.644 0-.645 1 0 1M1003.292 526.411l.271 4.262c.041.638 1.041.643 1 0l-.27-4.262c-.042-.64-1.042-.644-1 0M1003.28 535.94v4.514c0 .643 1 .644 1 0v-4.514c0-.644-1-.645-1 0M1003.282 544.968c-.1 1.146-.008 2.276.257 3.395.15.626 1.113.36.964-.266a9.77 9.77 0 0 1-.22-3.13c.055-.64-.945-.636-1 0M1004.282 554.747l-.25 2.508c-.064.639.936.636 1 0l.25-2.508c.064-.64-.937-.635-1 0M993.75 412.82l-.5 3.76c-.085.636.916.63 1 0l.5-3.76c.086-.637-.915-.63-1 0M993.275 422.847l.26 2.507c.066.634 1.066.64 1 0l-.26-2.507c-.066-.634-1.066-.641-1 0M993.25 430.121v3.01c0 .642 1 .644 1 0v-3.01c0-.644-1-.645-1 0M992.999 439.148v3.01c0 .642 1 .643 1 0v-3.01c0-.644-1-.645-1 0M992.999 449.43v4.765c0 .642 1 .644 1 0v-4.765c0-.644-1-.645-1 0M993.223 459.958l-.256 2.005c-.081.637.92.63 1 0l.256-2.005c.08-.637-.92-.631-1 0M992.246 467.734v3.01c0 .643 1 .644 1 0v-3.01c0-.643-1-.645-1 0M992.999 481.526l.25 2.76c.058.634 1.059.64 1 0l-.25-2.76c-.058-.636-1.06-.642-1 0M994 494.815c.643 0 .645-1 0-1-.644 0-.645 1 0 1M992.748 503.844v5.015c0 .643 1 .644 1 0v-5.015c0-.644-1-.645-1 0M992.999 517.636v2.758c0 .643 1 .644 1 0v-2.758c0-.644-1-.645-1 0M992.542 531.049l-.248 1.254c-.124.629.84.897.964.266l.248-1.254c.124-.63-.839-.898-.964-.266M992.253 538.698l.25 3.762c.044.638 1.044.643 1 0l-.25-3.762c-.043-.639-1.043-.644-1 0M993.769 552.608a11.42 11.42 0 0 0-.52 3.644c.013.642 1.013.644 1 0a10.534 10.534 0 0 1 .484-3.378c.193-.616-.772-.879-.964-.266M992.79 564.906l.251 1.505c.105.633 1.07.364.964-.267l-.25-1.504c-.106-.633-1.07-.365-.965.266M992.999 573.805v3.009c0 .643 1 .644 1 0v-3.01c0-.643-1-.644-1 0M993.25 585.089v5.517c0 .643 1 .644 1 0v-5.517c0-.644-1-.645-1 0M992.5 599.13l.18 3.265c.034.64 1.034.644 1 0l-.18-3.264c-.035-.64-1.035-.645-1 0M979.207 409.308l-.25 4.514c-.036.642.964.64 1 0l.25-4.514c.036-.643-.964-.64-1 0M979.458 423.1v1.755c0 .643 1 .644 1 0V423.1c0-.644-1-.645-1 0M979.456 433.63c.644 0 .645-1 0-1-.644 0-.645 1 0 1M978.956 441.405v4.263c0 .643 1 .644 1 0v-4.263c0-.644-1-.645-1 0M979.205 455.697c.644 0 .645-1 0-1-.644 0-.645 1 0 1M978.236 462.722l-.253 5.266c-.031.642.969.64 1 0l.253-5.266c.031-.644-.969-.643-1 0M976.95 476.26v3.762c0 .643 1 .644 1 0v-3.761c0-.644-1-.645-1 0M977.452 487.545v3.51c0 .643 1 .644 1 0v-3.51c0-.644-1-.645-1 0M977.952 498.325c.643 0 .644-1 0-1s-.645 1 0 1M977.452 503.342l-.251 4.514c-.036.643.964.64 1 0l.25-4.514c.037-.643-.964-.641-1 0M977.513 514.369l.425 4.02c.067.633 1.068.64 1 0-.14-1.34-.283-2.68-.425-4.02-.067-.634-1.067-.641-1 0M977.2 525.41v4.011c0 .643 1 .644 1 0v-4.012c0-.644-1-.645-1 0M976.448 535.94l.251 2.508c.063.634 1.064.64 1 0-.084-.836-.168-1.672-.25-2.508-.064-.634-1.065-.64-1 0M976.968 544.6c.333 2.118.488 4.242.484 6.387-.002.642.998.643 1 0a42.117 42.117 0 0 0-.52-6.654c-.1-.633-1.063-.364-.964.267M976.42 559.008l-.25 2.758c-.058.64.942.637 1 0l.25-2.758c.057-.641-.943-.637-1 0M975.716 567.535l.109 3.766c.019.641 1.019.644 1 0-.036-1.255-.072-2.511-.11-3.766-.019-.642-1.019-.645-1 0M974.442 578.318v3.511c0 .643 1 .644 1 0v-3.51c0-.645-1-.646-1 0M974.237 587.976l.25 1.755c.09.635 1.054.365.964-.265l-.25-1.757c-.09-.634-1.054-.363-.964.267M973.941 598.88v2.257c0 .643 1 .644 1 0v-2.257c0-.643-1-.645-1 0M969.195 410.43a18.661 18.661 0 0 0-.27 4.396c.039.639 1.04.643 1 0a17.528 17.528 0 0 1 .234-4.13c.113-.63-.851-.9-.964-.266M968.675 420.844v2.257c0 .642 1 .644 1 0v-2.257c0-.644-1-.645-1 0M968.926 429.118v3.511c0 .643 1 .644 1 0v-3.511c0-.644-1-.645-1 0M968.455 441.786c.253 1.119.317 2.238.214 3.38-.058.641.943.637 1 0a11.637 11.637 0 0 0-.25-3.646c-.142-.628-1.106-.362-.964.266M969.175 455.446c.644 0 .645-1 0-1-.643 0-.645 1 0 1M968.17 459.71l-.25 5.016c-.031.643.969.64 1 0l.25-5.016c.032-.643-.968-.641-1 0M967.17 471.747l-.25 3.26c-.05.641.95.638 1 0 .084-1.087.168-2.173.25-3.26.05-.642-.95-.639-1 0M966.426 479.02l-.278 3.508c-.05.641.95.637 1 0l.278-3.509c.051-.642-.949-.639-1 0M965.666 489.802v2.758c0 .643 1 .644 1 0v-2.758c0-.644-1-.645-1 0M965.666 499.58v1.756c0 .643 1 .644 1 0v-1.755c0-.644-1-.645-1 0M965.168 508.357l-.251 4.012c-.04.643.96.64 1 0 .084-1.337.168-2.674.25-4.012.04-.643-.96-.64-1 0M964.985 519.26c.232 1.125.278 2.249.162 3.389-.066.639.935.634 1 0a11.957 11.957 0 0 0-.198-3.654c-.13-.63-1.094-.363-.964.266M965.915 529.67c.644 0 .645-1 0-1-.644 0-.645 1 0 1M965.165 534.686v3.762c0 .643 1 .644 1 0v-3.762c0-.644-1-.645-1 0M965.415 544.968v3.26c0 .643 1 .644 1 0v-3.26c0-.644-1-.645-1 0M965.396 553.993l-.252 2.758c-.059.64.941.637 1 0l.252-2.758c.06-.641-.942-.637-1 0M965.165 562.52v2.006c0 .643 1 .644 1 0v-2.006c0-.644-1-.645-1 0M964.35 571.792l-.478 4.768c-.064.639.937.634 1 0 .16-1.59.32-3.178.478-4.768.064-.64-.937-.635-1 0M963.158 585.34v4.263c0 .643 1 .644 1 0v-4.263c0-.644-1-.645-1 0M963.41 598.128v2.257c0 .643 1 .644 1 0v-2.257c0-.644-1-.645-1 0M963.91 608.91v2.257c0 .643 1 .644 1 0v-2.257c0-.643-1-.645-1 0M958.143 408.557l-.25 4.012c-.04.642.96.64 1 0l.25-4.012c.041-.643-.96-.641-1 0M958.394 417.584v2.758c0 .643 1 .644 1 0v-2.758c0-.644-1-.645-1 0M958.394 426.11v3.76c0 .643 1 .644 1 0v-3.76c0-.645-1-.646-1 0M958.645 435.388v3.26c0 .642 1 .644 1 0v-3.26c0-.644-1-.645-1 0M958.896 445.417v3.762c0 .643 1 .644 1 0v-3.762c0-.643-1-.644-1 0M958.663 455.565a12.28 12.28 0 0 0-.27 3.393c.04.64 1.04.644 1 0a11.327 11.327 0 0 1 .234-3.127c.137-.627-.827-.895-.964-.266M957.42 467.987l-.254 3.762c-.044.641.957.64 1 0l.253-3.762c.043-.643-.957-.64-1 0M956.639 477.514v2.006c0 .643 1 .644 1 0v-2.006c0-.644-1-.645-1 0M956.637 487.292c.644 0 .645-1 0-1-.644 0-.645 1 0 1M956.388 496.321l-.501 4.012c-.08.636.92.631 1 0l.5-4.012c.08-.638-.92-.632-1 0M955.385 509.11v1.755c0 .643 1 .644 1 0v-1.756c0-.644-1-.645-1 0M955.385 516.632v3.51c0 .644 1 .645 1 0v-3.51c0-.643-1-.645-1 0M955.385 526.662a16.445 16.445 0 0 1-.483 3.629c-.156.624.808.891.964.266.318-1.28.49-2.577.519-3.895.014-.644-.986-.644-1 0M954.382 538.197v2.006c0 .643 1 .644 1 0v-2.006c0-.644-1-.645-1 0M954.382 545.97v5.017c0 .642 1 .644 1 0v-5.016c0-.644-1-.645-1 0M954.13 560.764c.644 0 .645-1 0-1-.643 0-.645 1 0 1M952.878 569.29a29.635 29.635 0 0 1-.233 5.385c-.086.629.877.9.964.265.258-1.88.355-3.753.269-5.65-.03-.64-1.03-.644-1 0M952.125 582.832l-.25 2.257c-.072.639.93.634 1 0l.25-2.257c.071-.64-.93-.634-1 0M952.143 592.243l.25.752c.203.607 1.17.347.965-.266l-.25-.753c-.203-.607-1.17-.346-.965.267M944.603 410.311v5.016c0 .642 1 .644 1 0v-5.016c0-.644-1-.645-1 0M945.103 422.347c.643 0 .645-1 0-1-.644 0-.645 1 0 1M944.075 427.617l.493 4.264c.073.632 1.074.638 1 0l-.493-4.264c-.073-.632-1.074-.64-1 0M944.59 437.896a12.506 12.506 0 0 1-.195 3.632c-.128.63.835.897.964.266.264-1.292.347-2.585.231-3.898-.056-.637-1.057-.643-1 0M944.865 447.288a5.484 5.484 0 0 0-.258 2.392c.07.632 1.072.639 1 0a4.816 4.816 0 0 1 .222-2.125c.206-.612-.76-.874-.964-.267M945.104 455.447l-.5 4.013c-.08.636.92.631 1 0l.5-4.013c.08-.637-.92-.63-1 0M944.114 463.856l.766 4.01c.12.631 1.085.364.964-.266l-.766-4.01c-.12-.63-1.084-.364-.964.266M944.853 474.505v2.007c0 .642 1 .644 1 0v-2.007c0-.644-1-.645-1 0M944.63 482.147a13.373 13.373 0 0 0-.023 4.53c.104.633 1.067.364.964-.266a11.925 11.925 0 0 1 .023-3.998c.11-.629-.854-.9-.964-.266M944.603 493.311v5.016c0 .643 1 .644 1 0v-5.016c0-.643-1-.645-1 0M943.6 504.596l-.25 2.508c-.065.639.935.636 1 0l.25-2.508c.063-.64-.937-.635-1 0M943.366 513.49l-.25 1.003c-.157.625.808.891.964.266l.25-1.003c.157-.624-.808-.89-.964-.266M942.095 520.644v2.758c0 .643 1 .644 1 0v-2.758c0-.644-1-.645-1 0M942.363 529.288l-.5 3.511c-.09.629.872.901.963.265l.501-3.51c.09-.63-.873-.902-.964-.266M942.093 539.2c.644 0 .645-1 0-1-.644 0-.645 1 0 1M941.342 544.968v2.508c0 .643 1 .644 1 0v-2.508c0-.644-1-.645-1 0M940.589 557.504c.644 0 .645-1 0-1-.644 0-.645 1 0 1M940.841 563.022v3.01c0 .642 1 .643 1 0v-3.01c0-.644-1-.645-1 0M940.59 573.303l-.25 2.759c-.058.64.942.637 1 0 .084-.92.168-1.84.25-2.76.058-.64-.942-.636-1 0M940.34 582.832v2.006c0 .643 1 .644 1 0v-2.006c0-.644-1-.645-1 0M940.12 589.975a16.773 16.773 0 0 0-.544 4.142c-.004.643.996.644 1 0a15.64 15.64 0 0 1 .508-3.876c.162-.623-.802-.89-.964-.266M939.836 599.884l.5 3.762c.085.628 1.086.636 1 0l-.5-3.762c-.084-.63-1.085-.637-1 0M932.095 409.179a17.127 17.127 0 0 0-.546 4.142c-.006.643.994.644 1 0 .012-1.317.181-2.601.51-3.875.161-.624-.803-.89-.964-.267M931.563 417.333v2.257c0 .643 1 .644 1 0v-2.257c0-.644-1-.645-1 0M931.556 423.853c.097.896.03 1.76-.217 2.627-.177.62.788.885.964.266a7.52 7.52 0 0 0 .253-2.893c-.068-.634-1.069-.64-1 0M931.563 433.632v3.762c0 .643 1 .644 1 0v-3.762c0-.644-1-.645-1 0M931.563 443.913v1.504c0 .643 1 .644 1 0v-1.504c0-.644-1-.645-1 0M931.313 451.185v2.507c0 .643 1 .644 1 0v-2.507c0-.644-1-.645-1 0M931.351 460.96l.256 3.01c.055.637 1.055.642 1 0l-.256-3.01c-.054-.636-1.055-.642-1 0M931.568 470.243c-.1.812-.01 1.618.256 2.392.209.604 1.176.344.965-.266a4.624 4.624 0 0 1-.221-2.126c.078-.638-.923-.632-1 0M932.314 479.518c.643 0 .645-1 0-1-.644 0-.645 1 0 1M931.814 485.288v3.009c0 .643 1 .644 1 0v-3.009c0-.644-1-.645-1 0M932.065 495.318v4.012c0 .643 1 .644 1 0v-4.012c0-.644-1-.645-1 0M931.581 503.962l-.25 1.755c-.09.63.873.9.963.266l.251-1.755c.09-.63-.873-.902-.964-.266M931.062 511.868v3.26c0 .643 1 .644 1 0v-3.26c0-.644-1-.645-1 0M930.583 519.509c-.108.784-.052 1.532.24 2.274.232.592 1.2.334.964-.265-.22-.561-.323-1.142-.24-1.742.087-.63-.877-.903-.964-.267M931.062 529.922v2.759c0 .643 1 .644 1 0v-2.76c0-.642-1-.643-1 0M930.31 539.451v3.01c0 .642 1 .643 1 0v-3.01c0-.644-1-.645-1 0M929.557 547.976v3.26c0 .643 1 .644 1 0v-3.26c0-.644-1-.645-1 0M928.805 556.503a8.003 8.003 0 0 1-.233 2.625c-.162.623.802.89.964.266a8.86 8.86 0 0 0 .269-2.891c-.046-.64-1.047-.644-1 0M929.056 570.294v4.765c0 .643 1 .644 1 0v-4.765c0-.644-1-.645-1 0M928.552 583.833c.644 0 .645-1 0-1-.643 0-.645 1 0 1M927.55 589.853v5.517c0 .643 1 .644 1 0v-5.517c0-.644-1-.645-1 0M926.8 604.898a5.97 5.97 0 0 0 1.077 3.257c.366.523 1.234.024.863-.505a5.01 5.01 0 0 1-.94-2.752c-.022-.642-1.022-.645-1 0M920.53 402.037v5.266c0 .643 1 .644 1 0v-5.266c0-.644-1-.645-1 0M920.78 415.327l.251 2.758c.058.636 1.058.641 1 0l-.25-2.758c-.059-.636-1.059-.643-1 0M920.78 425.357l.251 4.263c.038.64 1.038.643 1 0l-.25-4.263c-.039-.64-1.039-.645-1 0M921.263 438.143l-.264 2.506c-.068.64.933.635 1 0l.264-2.506c.067-.64-.933-.635-1 0M919.778 445.167v5.015c0 .643 1 .644 1 0v-5.015c0-.644-1-.645-1 0M918.775 458.206v3.762c0 .643 1 .644 1 0v-3.762c0-.644-1-.645-1 0M918.775 468.988v4.765c0 .643 1 .644 1 0v-4.765c0-.644-1-.645-1 0M918.074 479.526a36.314 36.314 0 0 0-.185 5.266c.024.641 1.024.644 1 0a36.314 36.314 0 0 1 .185-5.266c.07-.639-.93-.634-1 0M918.022 492.56v1.505c0 .643 1 .643 1 0v-1.505c0-.644-1-.645-1 0M917.752 500.332l-.255 4.765c-.034.642.966.64 1 0l.255-4.765c.035-.643-.966-.642-1 0M917.27 510.614l.25 5.768c.028.64 1.03.644 1 0l-.25-5.768c-.028-.642-1.028-.645-1 0M917.539 522.768a6.525 6.525 0 0 0-.27 2.39c.048.637 1.049.642 1 0-.052-.73.02-1.424.234-2.124.188-.618-.777-.88-.964-.266M916.769 533.935l-.251 2.508c-.064.639.937.635 1 0l.25-2.508c.065-.64-.936-.636-1 0M915.765 543.463v4.514c0 .643 1 .644 1 0v-4.514c0-.644-1-.645-1 0M915.546 555.619l-.495 3.261c-.095.63.869.901.965.266l.494-3.261c.096-.629-.868-.901-.964-.266M915.013 566.533l-.25 4.764c-.035.643.965.641 1 0l.25-4.764c.034-.644-.966-.642-1 0M915.513 581.827c.644 0 .645-1 0-1-.644 0-.645 1 0 1M915.032 586.21a10.243 10.243 0 0 0-.771 3.393c-.038.642.962.64 1 0a9.447 9.447 0 0 1 .735-3.127c.248-.593-.72-.852-.964-.266M915.013 598.88a15.434 15.434 0 0 1-.233 3.88c-.12.629.844.898.964.266a16.52 16.52 0 0 0 .27-4.146c-.042-.64-1.042-.644-1 0"/>
            <g transform="translate(915 610.43)">
                <mask id="d" fill="#fff">
                    <use xlink:href="#c"/>
                </mask>
                <path fill="#071F2C" d="M1.267.737a24.3 24.3 0 0 1-.484 6.638c-.134.628.83.896.964.265.487-2.282.665-4.571.52-6.903-.04-.64-1.04-.644-1 0" mask="url(#d)"/>
            </g>
            <path fill="#071F2C" d="M910.5 394.514a18.565 18.565 0 0 0 0 4.013c.068.633 1.069.639 1 0a18.565 18.565 0 0 1 0-4.013c.069-.64-.932-.634-1 0M911.001 405.798v3.009c0 .643 1 .644 1 0v-3.01c0-.643-1-.644-1 0M911.503 414.574v4.514c0 .643 1 .644 1 0v-4.514c0-.644-1-.645-1 0M910.249 429.369v6.771c0 .643 1 .644 1 0v-6.771c0-.644-1-.645-1 0M909.47 443.665l.241 2.008c.076.63 1.077.638 1 0l-.24-2.008c-.077-.631-1.078-.64-1 0M907.258 451.82c.23 1.285.3 2.574.233 3.878-.033.643.967.642 1 0a18.05 18.05 0 0 0-.27-4.145c-.112-.632-1.076-.364-.964.266M908.26 461.082c-.226.95-.32 1.915-.268 2.892.034.639 1.034.643 1 0a9.128 9.128 0 0 1 .233-2.626c.149-.625-.815-.893-.964-.266M907.992 474.756v4.013c0 .642 1 .643 1 0v-4.013c0-.644-1-.645-1 0M907.49 485.789v6.019c0 .643 1 .644 1 0v-6.02c0-.643-1-.644-1 0M906.756 499.95a20.839 20.839 0 0 0-.269 4.645c.037.64 1.037.645 1 0a19.65 19.65 0 0 1 .233-4.38c.107-.629-.857-.9-.964-.266M905.485 516.382c.217 1.834.3 3.67.25 5.517-.018.643.982.642 1 0a38.083 38.083 0 0 0-.25-5.517c-.075-.632-1.076-.64-1 0"/>
            <g transform="translate(905 529.43)">
                <mask id="f" fill="#fff">
                    <use xlink:href="#e"/>
                </mask>
                <path fill="#071F2C" d="M.483 1.494c.644 0 .645-1 0-1-.644 0-.645 1 0 1" mask="url(#f)"/>
            </g>
        </g>
        <g>
            <path fill="#F2F2F2" d="M763.72 153.67c-2.189-5.261-7.386-3.136-11.55-2.207-6.35 1.416-10.84-3.435-17.02-2.856-3.14.292-4.342 3.446-3.602 5.707a68.942 68.942 0 0 1-8.426.265c-1.624-.05-6.38.29-6.89-1.793-.33-1.35 1.193-4.099 1.169-5.653-.147-9.202-12.811-10.456-19.118-13.505-4.65-2.249-8.28 3.964-4.038 6.907 3.544 2.46 11.526 6.123 4.553 10.05-3.371 1.898-7.346 1.814-10.991.833a23.216 23.216 0 0 1-2.454-2.839c-2.01-2.756-6.207-2.513-7.311.956-1.026 3.226.232 5.632 2.445 7.265.3.36.696.667 1.202.892.819.365 1.654.723 2.5 1.071 5.136 4.302 11.453 6.95 18.424 7.207 6.083.224 11.982-1.762 18.045-1.845 6.662-.09 13.049.532 19.712-.283 5.819-.71 11.756-1.465 17.5-2.626 3.857-.779 7.764-2.948 5.85-7.546M826.103 123.919c-3.173-.805-6.427-1.321-9.713-1.228a33.688 33.688 0 0 0-4.548.457c-.018.002-3.513.679-3.67 1.289-.415-.75-.982-2.62-1.283-3.115-.631-1.038-1.471-2.056-2.34-2.912-1.95-1.921-4.454-3.342-7.055-4.152-5.33-1.661-12.584-1.23-17.55 1.469-5.464 2.969-4.37 8.296-4.386 13.552-.016 5.149 7.984 5.156 8 0 .004-1.48-.788-4.224-.264-5.571.89-2.286 6.154-2.408 8.144-2.358 2.449.06 4.845.632 6.778 2.185 1.854 1.49 2.039 3.213 3.137 5.117 1.546 2.685 3.94 3.668 6.978 3.379 5.678-.54 9.894-1.856 15.646-.398 4.992 1.266 7.12-6.447 2.126-7.714M809.725 154.316c-1.422.677-2.869 1.364-4.349 1.919-1.739-.923-3.509-4.051-4.6-5.093-1.774-1.691-3.87-3.105-6.049-4.212-4.455-2.264-9.297-3.502-14.143-4.61-4.77-1.092-6.923 5.801-2.773 7.49.753.717 1.704 1.043 2.735 1.406.117.889-.02 1.859-.399 2.553a7.035 7.035 0 0 1-.565.293 37.622 37.622 0 0 0-8.272 1.543c-4.206 1.296-3.579 7.963 1.064 7.857 7.03-.159 13.298.438 20.154 1.982 5.566 1.253 10.913 1.536 15.953-1.499.341-.205.623-.466.868-.756 1.484-.596 2.953-1.27 4.414-1.966 4.646-2.212.591-9.111-4.038-6.907M782.706 86.869c-4.255-8.387-13.11-11.03-21.682-12.93a2.953 2.953 0 0 0-.405-.054 12.385 12.385 0 0 0-.174-1.3c-.843-4.518-4.551-7.153-8.976-7.37-3.052-.15-3.072 3.92-.665 4.91 2.505 1.03 4.353 3.937 1.84 6.008-1.602 1.32-.46 3.566 1.104 4.178 5.187 2.032 4.52 8.415 1.4 11.933-1.191 1.34-2.645 2.323-4.222 3.082-.23.103-.456.209-.687.306l-.158.068a32.27 32.27 0 0 1-2.485.896 41.53 41.53 0 0 1-1.834.517c-.036.009-.064.026-.1.036-.647.163-1.3.313-1.957.437-1.224.168-2.444.335-3.64.529-2.755.447-2.143 5.183.664 4.91a41.714 41.714 0 0 0 3.594-.511c4.939-.662 10.1-1.263 14.187-4.145 5.829-4.11 10.3-7.35 17.782-7.396.926-.005 1.706-.565 2.14-1.312.28.225.565.438.854.628 2.224 1.458 4.479-1.333 3.42-3.42"/>
            <path fill="#071F2C" d="M801.612 157.315l13.39-1.075c2.607-.209 6.153.027 8.389-1.622 1.337-.988 1.785-2.526 2.679-3.855 1.217-1.81 3.144-2.857 5.18-3.503 3.018-.956 6.217-1.027 9.266-1.842 4.12-1.103 10.094-4.86 7.638-10.02-.947-1.988-3.085-2.68-5.058-3.219-1.469-.4-3.28-.684-4.399-1.813-1.539-1.556-.989-3.933-1.633-5.855-1.425-4.247-6.629-4.508-10.342-5.12-2.642-.436-5.655-.992-7.38-3.246-2.128-2.783-1.329-6.67-1.788-9.925-.393-2.787-1.713-4.816-3.907-6.537-1.303-1.022-2.736-1.874-3.976-2.975-1.652-1.468-2.396-3.226-3.247-5.22-2.266-5.319-7.193-7.27-12.779-6.664-4.05.438-7.764 2.243-11.582 3.537-4.19 1.42-8.483 1.15-12.705 2.192-6.879 1.697-10.92 9.47-18.229 9.81-.64.028-.645 1.03 0 1 5.373-.25 9.004-4.319 13.143-7.222 2.955-2.074 5.867-2.874 9.457-3.163a37.811 37.811 0 0 0 10.245-2.24c5.853-2.142 14.383-5.652 19.591-.136 2.044 2.164 2.337 5.345 4.224 7.623 1.886 2.277 4.746 3.424 6.742 5.574 4.108 4.43.256 11.65 4.794 15.838 3.042 2.807 7.724 2.604 11.517 3.462 2.552.577 4.818 1.657 5.451 4.42.56 2.446.21 4.793 2.646 6.27 1.987 1.204 4.47 1.137 6.485 2.254 4.773 2.644 1.016 7.85-2.4 9.438-5.462 2.54-13.203.977-17.34 6.12-1.214 1.511-1.631 3.615-3.47 4.571-1.948 1.012-4.584.857-6.716 1.028l-13.885 1.115c-.637.051-.643 1.051 0 1"/>
            <g transform="translate(694 64.177)">
                <mask id="h" fill="#fff">
                    <use xlink:href="#g"/>
                </mask>
                <path fill="#071F2C" d="M90.036 23.913c-2.585-5.881-7.437-10.41-13.46-12.65a24.273 24.273 0 0 0-4.883-1.25c-2.11-.315-4.915.226-5.812-2.287-.908-2.54-1.178-4.474-3.828-5.848-5.499-2.848-11.025.515-14.59 4.75-4.974 5.909-8.727 12.302-10.684 19.759-.99 3.774-2.88 6.282-6.298 8.124-2.467 1.33-5.147 2.198-7.71 3.313-2.236.974-4.514 2.136-6.128 4.018-1.973 2.299-1.896 4.98-2.65 7.769-1.653 6.108-10.032 5.473-12.398 11.025C-1.273 67.362 6.57 71.74 11.73 73.353c3.546 1.11 8.867 2.412 10.17 6.453 1.026 3.184-2.03 6.46.377 9.427 4.512 5.56 15.218-.979 18.412 5.79.274.583 1.137.077.863-.504-2.284-4.843-8.409-3.395-12.677-3.674-1.6-.105-3.39-.418-4.757-1.317-2.258-1.484-1.89-3.703-1.336-6.009.551-2.29.372-4.358-1.19-6.213-4.274-5.07-12.1-4.126-16.817-8.537-3.346-3.13-3.577-7.944.318-10.638 2.1-1.453 4.585-2.25 6.66-3.748 2.168-1.566 3.071-3.506 3.514-6.117.557-3.274 1.48-5.76 4.333-7.666 4.187-2.797 9.428-3.547 13.505-6.552 5.205-3.837 4.912-10.98 7.88-16.289 1.75-3.133 3.864-6.126 6.035-8.98 2.361-3.106 5.44-6.405 9.533-6.873 1.788-.206 3.672.083 5.251.98 1.995 1.131 2.521 2.686 3.032 4.774.782 3.191 3.2 2.918 6.005 3.24 8.064.931 15.073 6.104 18.333 13.518.258.588 1.12.079.863-.505" mask="url(#h)"/>
            </g>
            <path fill="#071F2C" d="M814.484 155.859c-2.483 3.335-5.18 6.925-8.977 8.854-4.22 2.142-8.695 1.14-13.043-.001-4.022-1.057-7.748-1.887-11.923-1.368-4.112.512-8.328 1.736-12.345.103-2.17-.882-3.878-2.432-4.34-4.818-.31-1.604-.034-3.267-.356-4.87-.493-2.447-2.261-3.908-4.778-3.937-3.937-.047-7.106 3.224-11.137 1.932-3.128-1.003-5.497-3.402-8.937-3.423-.644-.004-.645.996 0 1 3.786.023 6.44 3.247 10.107 3.722 3.917.508 7.6-3.388 11.442-2.019 3.872 1.381 1.725 7.567 3.81 10.51 1.715 2.418 4.818 3.503 7.667 3.712 4.438.326 8.752-1.394 13.2-1.09 4.37.297 8.457 2.138 12.786 2.689 8.149 1.036 13.213-4.483 17.687-10.491.385-.517-.483-1.016-.863-.505"/>
            <g transform="translate(677 132.177)">
                <mask id="j" fill="#fff">
                    <use xlink:href="#i"/>
                </mask>
                <path fill="#071F2C" d="M87.442 28.453c-7.098-1.049-13.897 1.567-20.769 2.91-8.43 1.65-16.629-1.314-25.06-.212-3.97.518-7.883 1.467-11.91 1.388-4.358-.086-8.629-1.194-12.71-2.659-3.959-1.421-8.02-3.056-11.734-5.05-1.947-1.047-3.87-2.521-4.179-4.851-.445-3.366 2.438-3.755 4.955-4.398 2.837-.727 4.661-2.968 6.146-5.358 2.008-3.237 4.173-9.194 8.696-9.054.644.02.643-.98 0-1-7.33-.226-8.105 10.989-13.646 13.916-2.733 1.442-6.634.575-7.18 4.57-.384 2.808 1.464 5.044 3.701 6.456 3.532 2.232 7.784 3.774 11.682 5.255 4.15 1.578 8.465 2.815 12.912 3.11 4.824.32 9.43-.91 14.184-1.44 4.847-.54 9.536.38 14.344.83 4.888.459 9.454-.324 14.191-1.465 5.27-1.267 10.65-2.79 16.111-1.982.63.093.901-.872.266-.966" mask="url(#j)"/>
            </g>
            <path fill="#071F2C" d="M819.68 130.803c-10.525-4.219-19.018 8.087-29.477 5.706-.627-.143-.894.821-.266.965 10.523 2.394 19.136-9.852 29.478-5.706.598.24.857-.728.266-.965"/>
            <path fill="#071F2C" d="M806.48 132.303c-4.62-1.624-4.433-6.219-7.117-9.482-1.63-1.982-4.074-2.935-6.574-3.206-4.37-.476-12.986 1.253-11.059 7.478.19.612 1.156.352.965-.266-2.315-7.473 11.925-7.369 15.41-3.918 1.89 1.873 2.205 4.604 3.58 6.78 1.07 1.694 2.65 2.918 4.528 3.58.61.213.87-.753.266-.966M840.291 148.293l.34 4.333c.05.637 1.05.643 1 0l-.34-4.333c-.05-.638-1.05-.643-1 0M840.612 160.295c-.11 1.223-.222 2.444-.333 3.667-.058.64.942.637 1 0l.333-3.667c.058-.641-.942-.637-1 0M841.105 170.794c.644 0 .645-1 0-1-.644 0-.645 1 0 1M840.272 175.628c-.09 1.396.03 2.77.352 4.133.147.626 1.11.36.963-.266a13.094 13.094 0 0 1-.315-3.867c.042-.643-.958-.641-1 0M840.605 184.628v4.333c0 .644 1 .645 1 0v-4.333c0-.644-1-.645-1 0M840.939 196.294a18.69 18.69 0 0 0 0 4.667c.079.63 1.08.638 1 0a18.69 18.69 0 0 1 0-4.667c.08-.637-.921-.631-1 0M840.605 208.294v4c0 .644 1 .645 1 0v-4c0-.644-1-.645-1 0M839.605 218.628v.666c0 .644 1 .645 1 0v-.666c0-.644-1-.645-1 0M827.939 153.96v3.668c0 .644 1 .645 1 0v-3.667c0-.644-1-.645-1 0M827.272 163.628v2c0 .644 1 .645 1 0v-2c0-.644-1-.645-1 0M827.272 171.294v2.334c0 .644 1 .645 1 0v-2.334c0-.644-1-.645-1 0M827.29 181.093l.667 2.667c.156.624 1.12.36.964-.266l-.667-2.667c-.156-.624-1.12-.359-.964.266M827.939 189.294v.334c0 .644 1 .645 1 0v-.334c0-.644-1-.645-1 0M827.939 196.628v5.333c0 .644 1 .645 1 0v-5.333c0-.644-1-.645-1 0M827.939 209.294v1.334c0 .644 1 .645 1 0v-1.334c0-.644-1-.645-1 0M790.939 228.86v2c0 .644 1 .645 1 0v-2c0-.644-1-.645-1 0M790.939 236.526v2.334c0 .644 1 .645 1 0v-2.334c0-.643-1-.645-1 0M790.956 246.326l.667 2.667c.156.624 1.121.359.964-.266l-.667-2.667c-.155-.624-1.12-.36-.964.266M791.605 254.526v.334c0 .644 1 .645 1 0v-.334c0-.643-1-.645-1 0M791.605 261.86v5.333c0 .644 1 .645 1 0v-5.333c0-.644-1-.645-1 0M791.605 274.526v1.334c0 .644 1 .645 1 0v-1.334c0-.643-1-.645-1 0M815.605 164.96v3.668c0 .644 1 .645 1 0v-3.667c0-.644-1-.645-1 0M816.439 177.46c.643 0 .645-1 0-1-.644 0-.645 1 0 1M814.939 183.294v2.667c0 .644 1 .645 1 0v-2.667c0-.644-1-.645-1 0M814.605 192.628v2c0 .644 1 .645 1 0v-2c0-.644-1-.645-1 0M814.566 200.103c.11.667.22 1.333.332 2 .105.634 1.068.365.964-.266l-.332-2c-.105-.633-1.068-.365-.964.266M815.57 211.964c.108.89.214 1.78.32 2.67.077.63 1.078.639 1 0-.106-.89-.212-1.78-.32-2.67-.075-.63-1.076-.638-1 0M801.918 171.959l-.34 3.666c-.06.64.94.637 1 0l.34-3.666c.059-.641-.941-.637-1 0M802.105 182.128c.644 0 .645-1 0-1-.644 0-.645 1 0 1M800.939 185.294v2.334c0 .644 1 .645 1 0v-2.334c0-.644-1-.645-1 0M801.942 193.627l.334 4c.053.637 1.053.643 1 0-.11-1.333-.223-2.666-.334-4-.053-.637-1.053-.642-1 0M803.272 206.294v3c0 .644 1 .645 1 0v-3c0-.644-1-.645-1 0M803.105 217.46c.644 0 .645-1 0-1-.644 0-.645 1 0 1M791.272 170.294v3.667c0 .644 1 .645 1 0v-3.667c0-.644-1-.645-1 0M791.265 178.627l-.39 3.327c-.074.638.927.632 1 0l.39-3.327c.075-.638-.926-.633-1 0M791.105 186.794c.644 0 .645-1 0-1-.644 0-.645 1 0 1M790.611 192.489c-.387.945-.47 1.933-.315 2.937.097.634 1.061.365.963-.266-.127-.827.001-1.635.316-2.404.244-.596-.723-.855-.964-.267M789.623 202.76l.333 2c.105.633 1.07.364.964-.266-.11-.667-.222-1.334-.333-2-.106-.633-1.069-.365-.964.266M789.963 211.296a41.177 41.177 0 0 0 .24 7.674c.079.63 1.08.638 1 0a41.177 41.177 0 0 1-.24-7.674c.04-.643-.96-.641-1 0M759.223 228.026v3.666c0 .644 1 .645 1 0v-3.666c0-.644-1-.645-1 0M759.216 236.358l-.39 3.327c-.073.638.927.633 1 0l.39-3.327c.075-.638-.926-.633-1 0M759.056 244.526c.644 0 .645-1 0-1-.644 0-.645 1 0 1M758.562 250.221c-.387.945-.471 1.932-.315 2.937.098.633 1.062.364.964-.267-.128-.826 0-1.635.315-2.404.244-.596-.723-.855-.964-.266M757.574 260.492l.333 2c.106.634 1.07.364.964-.266-.11-.667-.222-1.334-.333-2-.106-.633-1.069-.365-.964.266"/>
            <g transform="translate(757 268.177)">
                <mask id="l" fill="#fff">
                    <use xlink:href="#k"/>
                </mask>
                <path fill="#071F2C" d="M.913.85a41.19 41.19 0 0 0 .24 7.675c.08.63 1.08.638 1 0A41.19 41.19 0 0 1 1.913.85c.04-.643-.96-.64-1 0" mask="url(#l)"/>
            </g>
            <path fill="#071F2C" d="M816.934 223.71v3.667c0 .644 1 .645 1 0v-3.667c0-.644-1-.645-1 0M816.927 232.043l-.39 3.326c-.073.638.927.633 1 0l.39-3.326c.075-.64-.927-.633-1 0M816.767 240.21c.644 0 .645-1 0-1-.644 0-.645 1 0 1M816.273 245.905c-.387.945-.471 1.932-.315 2.937.098.633 1.06.365.964-.266-.128-.827 0-1.636.315-2.405.244-.595-.723-.855-.964-.266M815.285 256.175c.11.667.222 1.334.333 2 .106.634 1.069.365.964-.266l-.333-2c-.106-.632-1.07-.364-.964.266M815.624 264.712a41.177 41.177 0 0 0 .24 7.674c.08.63 1.08.637 1 0a41.18 41.18 0 0 1-.24-7.675c.04-.643-.96-.64-1 0M776.6 169.96l-.334 3c-.071.639.93.634 1 0l.335-3c.07-.638-.93-.633-1 0M775.939 180.628v1.666c0 .644 1 .645 1 0v-1.666c0-.644-1-.645-1 0M775.263 189.295c.114 2.08.017 4.14-.313 6.198-.101.63.862.902.964.267.345-2.148.468-4.292.349-6.465-.035-.64-1.035-.645-1 0M760.939 169.294v4c0 .644 1 .645 1 0v-4c0-.644-1-.645-1 0M760.939 181.294v4.334c0 .644 1 .645 1 0v-4.334c0-.644-1-.645-1 0M760.272 191.628v3.333c0 .644 1 .645 1 0v-3.333c0-.644-1-.645-1 0M759.939 202.628v4c0 .644 1 .645 1 0v-4c0-.644-1-.645-1 0M759.54 214.15c-.212 1.557-.426 3.113-.64 4.67-.087.629.877.901.964.266l.64-4.67c.088-.63-.876-.902-.963-.266M743.605 169.628v5.333c0 .644 1 .645 1 0v-5.333c0-.644-1-.645-1 0M744.257 180.489l-.333 2c-.105.63.858.9.964.266.11-.666.223-1.333.333-2 .105-.63-.858-.901-.964-.266M744.105 188.794c.644 0 .645-1 0-1-.644 0-.645 1 0 1M743.286 196.16c-.19 1.116-.096 2.217.34 3.266.244.586 1.212.328.965-.266-.365-.877-.501-1.794-.341-2.733.107-.63-.856-.901-.964-.267M744.272 207.294v3c0 .644 1 .645 1 0v-3c0-.644-1-.645-1 0M743.955 215.295l-.192 3.657c-.034.643.966.64 1 0l.192-3.657c.034-.643-.966-.641-1 0M774.105 206.128c.644 0 .645-1 0-1-.644 0-.645 1 0 1M728.943 169.825a27.76 27.76 0 0 0-.328 6.135c.037.639 1.038.644 1 0a26.56 26.56 0 0 1 .292-5.868c.103-.63-.86-.901-.964-.267M728.939 181.628v3.666c0 .644 1 .645 1 0v-3.666c0-.644-1-.645-1 0M729.272 191.294v3.667c0 .644 1 .645 1 0v-3.667c0-.644-1-.645-1 0M728.939 202.294a6.716 6.716 0 0 1-.315 2.534c-.2.613.766.877.963.266a7.486 7.486 0 0 0 .352-2.8c-.041-.64-1.042-.644-1 0M728.946 210.627a11.474 11.474 0 0 1-.662 4.532c-.217.608.749.868.964.266.554-1.553.786-3.152.698-4.798-.034-.64-1.035-.644-1 0M711.29 173.76l.333 2c.106.633 1.07.364.964-.266-.11-.667-.222-1.334-.333-2-.105-.633-1.07-.365-.964.266M711.605 183.628l.333 3c.071.632 1.071.64 1 0l-.333-3c-.07-.633-1.07-.64-1 0M712.605 191.294v1.667c0 .644 1 .645 1 0v-1.667c0-.644-1-.645-1 0M713.105 198.794c.644 0 .645-1 0-1-.644 0-.645 1 0 1M712.605 204.628v3c0 .644 1 .645 1 0v-3c0-.644-1-.645-1 0M712.29 215.16l-.333 1c-.205.613.76.876.964.267l.333-1c.204-.612-.761-.874-.964-.266M727.785 226.851c.11.667.222 1.334.333 2 .106.634 1.069.365.964-.266-.11-.667-.222-1.333-.333-2-.106-.633-1.07-.364-.964.266M728.1 236.718l.333 3c.07.633 1.071.64 1 0l-.333-3c-.07-.633-1.07-.64-1 0M729.1 244.385v1.666c0 .644 1 .645 1 0v-1.666c0-.644-1-.645-1 0M729.6 251.885c.644 0 .645-1 0-1-.644 0-.645 1 0 1M729.1 257.718v3c0 .644 1 .645 1 0v-3c0-.644-1-.645-1 0M728.785 268.253l-.333 1c-.205.61.76.874.964.266l.333-1c.204-.613-.761-.874-.964-.266M772.468 215.617l.333 2c.106.634 1.07.365.964-.266-.11-.667-.222-1.333-.333-2-.105-.632-1.069-.364-.964.266M772.784 225.484l.333 3c.07.633 1.07.64 1 0l-.333-3c-.07-.633-1.071-.64-1 0M773.784 233.151v1.667c0 .643 1 .645 1 0v-1.667c0-.644-1-.645-1 0M774.284 240.651c.644 0 .645-1 0-1-.644 0-.645 1 0 1M773.784 246.484v3c0 .644 1 .645 1 0v-3c0-.644-1-.645-1 0M773.468 257.018l-.333 1c-.204.611.761.874.965.266l.333-1c.204-.613-.761-.874-.964-.266M695.605 169.294l-.333 3c-.07.639.93.634 1 0l.333-3c.071-.64-.93-.633-1 0M695.29 179.093l.333 1.333c.156.624 1.12.36.964-.266l-.333-1.333c-.156-.624-1.12-.359-.964.266M695.939 186.294v3c0 .644 1 .645 1 0v-3c0-.644-1-.645-1 0M695.272 195.294v1.334c0 .644 1 .645 1 0v-1.334c0-.644-1-.645-1 0M695.772 203.128c.644 0 .645-1 0-1-.644 0-.645 1 0 1M679.939 164.294c-.1 1.729.023 3.434.35 5.133.123.632 1.087.364.965-.266a19.607 19.607 0 0 1-.315-4.867c.037-.643-.963-.641-1 0M681.105 179.46c.644 0 .645-1 0-1-.644 0-.645 1 0 1M680.272 183.96v4.668c0 .644 1 .645 1 0v-4.667c0-.644-1-.645-1 0M680.197 194.628l.005 3c.001.644 1.001.645 1 0l-.005-3c-.001-.644-1.001-.645-1 0"/>
        </g>
        <g>
            <g transform="translate(332 75.25)">
                <mask id="n" fill="#fff">
                    <use xlink:href="#m"/>
                </mask>
                <path fill="#F2F2F2" d="M71.115 1.991c-7.325.675-14.16-.02-21.393-1.132C47.123.46 44.563.22 42.085.47a34.606 34.606 0 0 0-11.368 2.533c-1.916.777-3.58 1.313-5.259 1.654C17.8 3.97 9.828 2.691 2.467 4.46c-3.246.78-3.037 4.7-.838 6.397 4.548 3.511 10.014 2.942 15.425 2.703 7.486-.329 14.063 1.45 21.15 3.558 13.441 4 23.737-.896 34.678-8.605 2.541-1.79 2.02-6.87-1.767-6.522" mask="url(#n)"/>
            </g>
            <path fill="#F2F2F2" d="M486.836 61.066c-.683-4.713-5.614-6.554-9.807-6.685-7.261-.227-14.21 3.69-20.798 6.228-3.182 1.227-6.41 2.395-9.743 3.14-4.288.96-8.151.496-12.436.798-6.441.456-10.37 5.884-16.383 7.34-.608.149-1.044.448-1.336.825-2.35.659-2.074 4.75.825 4.904 2.095.11 4.18.158 6.265.158 6.136 1.387 11.58-.702 17.494-2.321 7.48-2.048 14.063.617 21.513.407 2.498-.07 4.989-.54 7.234-1.682 3.457-1.757 5.753-4.645 9.599-5.71 3.894-1.076 8.323-2.23 7.573-7.402M472.252 37.538c-3.462-2.813-5.538-6.195-6.387-10.556-.57-2.927-.62-6.018-1.96-8.75-1.123-2.287-2.768-3.97-5.134-4.976-1.79-.764-6.176-.768-8.769-2.056-.897-1.141-1.559-2.368-2.074-3.91-.372-1.112-1.163-1.662-2.004-1.758a7.764 7.764 0 0 0-1.188-1.35 5.62 5.62 0 0 0-.905-1.056c-2.027-1.784-4.44-2.462-7.1-2.483-2.778-.022-3.449 4.255-.665 4.912 2.76.649 6.043 1.22 4.686 5.802-.37 1.256-1.194 1.766-1.38 3.188-.233 1.766.375 3.475 1.4 4.91 1.027 1.44 2.292 2.349 3.831 3.18 1.091.59 4.015 1.082 4.567 2.084 1.845 3.348-4.168 5.492-5.655 7.312-3.01 3.68-1.54 8.42 2.934 10 2.795.988 6.134.412 9.03.464 4.828.086 9.58.69 14.31 1.663 2.366.487 3.71-2.129 2.88-3.724.502-.944.492-2.158-.417-2.896M409.399 21.653c-5.384-1.458-7.124-6.138-11.59-8.704-3.301-1.897-7.278-2.053-10.983-2.135-2.81-.062-3.408 4.214-.664 4.91 4.204 1.069 10.57 4.243 6.363 9.212-2.026 2.393-5.94 3.76-8.674 5.057-4.912 2.328-9.333 4.904-12.185 9.682-.853 1.429-.024 3.196 1.494 3.673.593.187 1.215.397 1.854.618.148.145.315.28.517.4 5.752 3.382 17.85 7.809 21.675-.53.919-2.002.613-4.404 1.62-6.354 1.063-2.054 3.224-3.332 5.05-4.614 3.206-2.25 5.88-4.367 7.269-8.14.465-1.265-.527-2.745-1.746-3.075"/>
            <path fill="#071F2C" d="M370.153 76.844c10.518-1.388 20.64 2.89 31.126 2.486 4.733-.182 9.16-1.608 13.48-3.467 5.224-2.248 10.377-4.668 15.558-7.012.586-.265.078-1.127-.504-.863-9.513 4.301-19.553 10.478-30.28 10.365-9.885-.105-19.438-3.82-29.38-2.509-.628.083-.637 1.084 0 1"/>
            <path fill="#071F2C" d="M413.092 76.453c7.822 2.464 16.961 5.066 24.382.123 2.367-1.577 4.344-3.124 7.345-3.195 2.982-.071 5.958.809 8.894 1.236 4.171.607 8.911 1.326 13.097.507 1.428-.28 2.86-.822 3.91-1.868 1.734-1.73 1.938-4.3 4.185-5.638 3.403-2.03 7.731-1.255 11.258-3.031 2.328-1.172 4.275-3.331 3.694-6.107-.668-3.195-4.015-4.772-5.602-7.412-1.068-1.774-.682-4.08-1.946-5.734-1.104-1.445-3.037-1.775-4.708-2.105-6.306-1.25-12.621-2.46-18.931-3.687-.629-.123-.898.84-.265.964l14.076 2.742c2.086.406 4.255.68 6.303 1.249 1.552.43 2.629 1.08 3.305 2.672.387.914.312 2.039.629 2.989.867 2.598 3.271 4.099 4.91 6.15 3.531 4.423-1.202 7.714-5.378 8.492-2.875.535-6.055.58-8.504 2.39-1.31.967-1.825 2.206-2.569 3.594-1.372 2.559-3.529 3.369-6.294 3.562-4.501.314-9.236-.352-13.651-1.144-3.608-.646-7.418-1.514-10.86.244-1.938.989-3.515 2.54-5.491 3.476-2.275 1.077-4.804 1.495-7.306 1.49-4.865-.01-9.62-1.476-14.217-2.924-.616-.193-.879.772-.266.965"/>
            <g transform="translate(382 -.75)">
                <mask id="p" fill="#fff">
                    <use xlink:href="#o"/>
                </mask>
                <path fill="#071F2C" d="M93.023 43.504c-5.723-3.85-8.829-9.815-9.49-16.565-.425-4.329-.84-9.82-5.197-12.146-1.735-.926-3.714-.91-5.624-1.06-1.56-.122-3.29-.287-4.44-1.489-1.203-1.255-1.385-3.113-2.097-4.637-1.598-3.419-4.969-5.713-8.595-6.518-3.483-.773-7.322-.26-10.209 1.933-.907.687-1.6 1.557-2.432 2.325C43.344 6.82 41.785 7 39.731 6.877c-2.278-.137-4.246-.238-6.379.733-3.573 1.627-6.235 5.265-6.66 9.171-.273 2.518.756 4.32 1.301 6.702.65 2.838-.87 4.736-3.05 6.294-2.91 2.081-6.99 3.636-8.378 7.231-1.266 3.278.525 6.867-2.659 9.43-3.653 2.94-8.518 1.341-12.464.001-.61-.208-.872.757-.265.963 4.528 1.54 10.411 3.153 14.173-.908 1.51-1.628 1.663-3.519 1.718-5.653.078-3 .767-4.874 3.105-6.723 2.631-2.08 6.368-3.34 8.19-6.317.706-1.156.95-2.468.756-3.806-.452-3.119-2.086-5.365-1.137-8.652.742-2.568 2.455-4.87 4.742-6.269 2.857-1.746 5.478-.994 8.585-1.136 2.057-.094 3.428-.994 4.85-2.404 1.868-1.853 3.803-3.23 6.468-3.65C57.343 1.14 62.75 3.26 65.051 7.586c1.031 1.937 1.19 4.337 2.995 5.8 1.495 1.21 3.528 1.266 5.355 1.39 1.763.117 3.534.238 5.041 1.253 1.71 1.151 2.721 3.195 3.271 5.118.942 3.29.627 6.793 1.435 10.11 1.294 5.315 4.865 10.08 9.37 13.11.535.361 1.037-.506.505-.863" mask="url(#p)"/>
            </g>
            <path fill="#071F2C" d="M410.034 21.153c-4.285.849-6.748-4.607-9.388-7.025-2.305-2.111-5.348-3.07-8.386-3.507-5.879-.851-16.47-1.936-19.45 4.804-.68 1.54-.398 2.922-.39 4.55.008 2.31-1.384 3.796-3.174 5.05-2.33 1.633-5.097 2.78-6.836 5.132-3.87 5.232-.99 12.283-2.553 18.123-1.305 4.876-5.62 5.517-9.755 7.024-2.477.904-5.28 2.798-5.664 5.648-.486 3.607 3.737 4.969 4.406 8.213 1.258 6.098-4.875 9.163-9.854 9.752-2.262.267-5.33.467-6.27 2.969-.825 2.19.796 3.986 2.64 4.943 3.085 1.6 6.8 1.247 10.151 1.168 5.29-.124 10.653-.472 15.867.66 4.818 1.045 9.258 3.297 13.99 4.628 4.517 1.269 8.984 1.326 13.48-.07 4.342-1.346 9.266-3.436 12.917-6.166 2.546-1.903 5.785-5.53 4.881-8.937-.165-.621-1.13-.357-.965.266.675 2.544-1.47 4.836-3.072 6.57-1.53 1.657-3.583 2.634-5.565 3.639-3.885 1.97-7.89 3.908-12.247 4.528-8.55 1.219-15.948-4.092-24.079-5.61-4.073-.76-8.235-.7-12.36-.587-3.923.106-8.87.947-12.493-.952-2.24-1.175-3.44-3.795-.602-5.27 1.514-.787 3.376-.692 5.032-.923 2.937-.408 5.84-1.627 7.751-3.97 1.545-1.893 2.28-4.49 1.762-6.904-.74-3.46-6.069-5.721-3.723-9.475 2.217-3.548 6.79-3.46 10.175-5.161 2.154-1.083 3.665-2.866 4.4-5.158 1.79-5.577-.919-12.088 1.938-17.384 2.41-4.465 9.826-5.148 10.744-10.548.39-2.297-.485-4.185.98-6.33 1.377-2.017 3.72-2.996 6.058-3.386 4.207-.703 9.373-.466 13.533.478 2.201.499 4.338 1.364 6.026 2.9 1.283 1.169 2.28 2.63 3.43 3.924 1.848 2.077 3.992 3.94 6.931 3.359.631-.125.364-1.09-.266-.965"/>
        </g>
    </g>
</svg>
