<svg id="Layer_1" data-name="Layer 1" xmlns="http://www.w3.org/2000/svg" viewBox="0 0 62.59 66.88" width="100%" height="100%" preserveAspectRatio="none"><defs><style>.cls-1{fill:#1e1f1c;}</style></defs><title>nudj-cta-test</title><path class="cls-1" d="M15,45.73c4.11,7.7,13,9.58,20.88,10.91.63.11.9-.86.27-1-7.63-1.29-16.3-3-20.28-10.46-.3-.57-1.17-.06-.86.5Z"/><path class="cls-1" d="M10.26,50.47a11.44,11.44,0,0,0,7.62,7.2.5.5,0,0,0,.27-1,10.39,10.39,0,0,1-6.92-6.5c-.21-.6-1.18-.34-1,.27Z"/><path class="cls-1" d="M22.55,12.17a7.31,7.31,0,0,0-3.61,2.37c-.41.49.3,1.2.71.71a6.4,6.4,0,0,1,3.17-2.11.5.5,0,0,0-.27-1Z"/></svg>
