<svg id="Layer_1" data-name="Layer 1" xmlns="http://www.w3.org/2000/svg" viewBox="0 0 62.59 66.88" width="100%" height="100%" preserveAspectRatio="none"><defs><style>.cls-1{fill:#1e1f1c;}</style></defs><title>nudj-cta-test</title><path class="cls-1" d="M27.58,10.17a16.43,16.43,0,0,0-4.44-2.41c-.61-.22-.87.75-.27,1a15.6,15.6,0,0,1,4.2,2.3c.51.39,1-.48.5-.86Z"/><path class="cls-1" d="M14.33,25.1H11.67a.5.5,0,0,0,0,1h2.67a.5.5,0,0,0,0-1Z"/><path class="cls-1" d="M55.81,8.4A3.54,3.54,0,0,0,55,5.57c-.41-.5-1.11.21-.71.71a2.43,2.43,0,0,1,.53,1.85c-.09.63.88.9,1,.27Z"/><path class="cls-1" d="M44.59,6.5l-.67-.33c-.57-.29-1.08.58-.5.86l.67.33c.57.29,1.08-.58.5-.86Z"/><path class="cls-1" d="M15.53,45.11a8.89,8.89,0,0,0-5.95,4.25.5.5,0,0,0,.86.5,7.91,7.91,0,0,1,5.35-3.79c.63-.13.36-1.09-.27-1Z"/><path class="cls-1" d="M24.32,53.91a4.43,4.43,0,0,0-1.46,2.22.5.5,0,0,0,1,.27A3.52,3.52,0,0,1,25,54.62c.5-.41-.21-1.11-.71-.71Z"/><path class="cls-1" d="M57.18,56.13l-.67,1.67c-.24.6.73.86,1,.27l.67-1.67c.24-.6-.73-.86-1-.27Z"/><path class="cls-1" d="M42.82,55.79l-.33,2c-.1.63.86.9,1,.27l.33-2c.1-.63-.86-.9-1-.27Z"/></svg>
