<svg id="Layer_1" data-name="Layer 1" xmlns="http://www.w3.org/2000/svg" viewBox="0 0 62.59 66.88" width="100%" height="100%" preserveAspectRatio="none"><defs><style>.cls-1{fill:#1e1f1c;}</style></defs><title>nudj-cta-test</title><path class="cls-1" d="M13.95,8.06l.33-1.67c.12-.63-.84-.9-1-.27L13,7.79c-.12.63.84.9,1,.27Z"/><path class="cls-1" d="M24,7.88a6.7,6.7,0,0,1,3-2.19c.6-.22.34-1.19-.27-1a7.92,7.92,0,0,0-3.57,2.65c-.39.51.48,1,.86.5Z"/><path class="cls-1" d="M43,14.08l10.67-3.33c.61-.19.35-1.16-.27-1L42.7,13.11c-.61.19-.35,1.16.27,1Z"/><path class="cls-1" d="M48,23.75l2.33.33c.63.09.9-.87.27-1l-2.33-.33c-.63-.09-.9.87-.27,1Z"/><path class="cls-1" d="M44.8,52l5,5.33c.44.47,1.15-.24.71-.71l-5-5.33c-.44-.47-1.15.24-.71.71Z"/><path class="cls-1" d="M35.33,53.93v2.33a.5.5,0,0,0,1,0V53.93a.5.5,0,0,0-1,0Z"/><path class="cls-1" d="M20.35,55.13l-1.34,5a.5.5,0,0,0,1,.27l1.34-5a.5.5,0,0,0-1-.27Z"/><path class="cls-1" d="M2.33,55.6v2a.5.5,0,0,0,1,0v-2a.5.5,0,0,0-1,0Z"/></svg>
