<svg id="Layer_1" data-name="Layer 1" xmlns="http://www.w3.org/2000/svg" viewBox="0 0 62.59 66.88" width="100%" height="100%" preserveAspectRatio="none"><defs><style>.cls-1{fill:#1e1f1c;}</style></defs><title>nudj-cta-test</title><path class="cls-1" d="M32.74,60.88l2,5.27c.22.6,1.19.34,1-.27l-2-5.27c-.22-.6-1.19-.34-1,.27Z"/><path class="cls-1" d="M47.53,53.37a11.68,11.68,0,0,1,3.69,2.2c.48.42,1.19-.28.71-.71A13,13,0,0,0,47.8,52.4c-.6-.22-.87.74-.27,1Z"/><path class="cls-1" d="M42.49,10.66,47,4.38c.38-.52-.49-1-.86-.5l-4.55,6.28c-.38.52.49,1,.86.5Z"/><path class="cls-1" d="M31.69,4.72,31,3.07c-.23-.59-1.2-.33-1,.27L30.73,5c.23.59,1.2.33,1-.27Z"/><path class="cls-1" d="M8.77,6.48,8.4,2.87c-.06-.63-1.06-.64-1,0l.36,3.61c.06.63,1.06.64,1,0Z"/><path class="cls-1" d="M52.1,30.72a16.23,16.23,0,0,1,8.84,1.12c.59.25,1.1-.61.5-.86a17.46,17.46,0,0,0-9.62-1.22c-.63.1-.36,1.06.27,1Z"/></svg>
