<svg xmlns="http://www.w3.org/2000/svg" xmlns:xlink="http://www.w3.org/1999/xlink" width="652" height="230" viewBox="0 0 652 230">
    <defs>
        <path id="a" d="M59.626 452.785H.84V.849h58.787v451.936z"/>
        <path id="c" d="M95.94 675.785H.836V.335h95.106v675.45z"/>
        <path id="e" d="M6.14 106.785H.75V.023h5.39z"/>
        <path id="g" d="M27.917 494.785H.162V.9h27.755v493.885z"/>
    </defs>
    <g fill="none" fill-rule="evenodd">
        <g transform="rotate(-83 222.688 -32.495)">
            <mask id="b" fill="#fff">
                <use xlink:href="#a"/>
            </mask>
            <path fill="#F2F2F2" d="M37.233 585.848c-.03-1.366-.07-2.731-.092-4.098.064 1.328.116 2.659.178 3.987-.03.036-.057.075-.086.11M59.488 689.14c-3.173-14.985-3.698-29.893-3.518-45.158.167-14.215-.017-28.42-.28-42.633-.537-29.256-1.077-58.511-1.617-87.767-.535-29.03-1.024-58.061-1.611-87.09-.585-28.922-3.81-57.96-3.011-86.877.58-21.057 3.172-42.231 2.324-63.235.835-5.707 1.14-11.474.649-17.264-.978-11.524-3.985-22.746-5.475-34.201-3.078-23.67-4.153-47.701-6.043-71.491-.89-11.204-1.404-22.626-4.216-33.555-1.24-4.82-2.963-9.5-4.238-14.31-.56-4.234-1.126-8.47-1.7-12.703a135.644 135.644 0 0 1-.02-5.148c.087-6.298.213-12.701-1.051-18.91-.465-2.281-1.18-4.477-2.026-6.624-.703-8.676-1.881-17.311-3.04-25.94C23.112 25.04 21.88 13.75 16.378 3.677 14.227-.26 9.538.284 7.314 3.046a6.254 6.254 0 0 0-2.211 1.907c-2.26 3.18-3.348 6.825-2.974 10.723v.007c-1.42 8.869-1.556 17.718.05 26.62C3.83 51.44 7.902 59.91 9.47 69.062c1.632 9.52.867 19.34.377 28.93-.526 10.313-1.055 20.625-1.582 30.936-.5 9.734-1.541 19.626-1.123 29.376.384 8.962 3.033 16.964 6.169 25.299 3.01 8 5.144 16.103 6.34 24.31l.118 2.086c-2.047 11.397-5.488 22.318-5.392 34.115.117 14.414 2.123 28.809 2.574 43.229.433 13.843.304 27.699-.24 41.537-.57 14.474-1.651 28.909-2.908 43.338-1.167 13.4-2.145 26.812-.73 40.234.534 5.069 1.44 10.107 2.04 15.172-.053 5.788-.086 11.578-.134 17.368a83.88 83.88 0 0 1-1.71 8.229c-3.25 12.612-6.145 24.909-6.606 37.997-.417 11.849.575 23.607 2.429 35.26-.67 4.6-1.303 9.207-1.793 13.83-2.43 22.963 1.483 45.635 1.228 68.589-.268 24.028-10.184 47.407-7.09 71.506.746 5.8 1.472 12.31 7.889 14.12 4.795 1.352 9.955 1.4 14.845.608a33.716 33.716 0 0 0 2.153-.428c5.925 2.387 12.943 1.475 17.777-2.707 1.53.978 3.422 1.367 5.197 1.157 2.56 5.048 11.546 2.383 10.19-4.013" mask="url(#b)"/>
        </g>
        <g transform="rotate(-83 58.16 35.489)">
            <mask id="d" fill="#fff">
                <use xlink:href="#c"/>
            </mask>
            <path fill="#7F5C4F" d="M45.132 105.878l-.001.013a1.846 1.846 0 0 1-.241.67c-.94 1.494-4.136 1.837-5.607 1.21-1.95-.834-3.736-3.199-4.355-5.18a1.29 1.29 0 0 1-.05-.27c-.563-.827-.434-2.097.807-2.317 1.613-.287 3.173-.976 4.832-.989 1.18-.01 2.433.066 3.18 1.123.323.457.399.943.539 1.472.186.701.507 1.357.68 2.058.155.622.336 1.486.216 2.21m-11.32 10.883c-2.367.24-3.445-1.19-4.648-2.936-.023.005-.043.017-.066.022-1.964.4-2.796-2.609-.83-3.01.9-.184 1.28-1.08 1.895-1.686.749-.738 1.697-1.178 2.76-1.089 2.212.183 3.937 2.56 4.237 4.613.347 2.375-1.021 3.85-3.348 4.086m62.047 571.403l-.308-2.17c.004-.035.012-.066.015-.1 1.174-12.616-1.217-25.256-3.034-37.704-.234-1.61-.488-3.216-.728-4.825.394-2.892 1.077-5.817.913-8.72-.182-3.238-1.658-6.234-2.516-9.315-.037-.135-.062-.27-.098-.405-1.023-8.908.744-17.938-2.531-26.554l-1.22-16.437c-.011-.139-.05-.264-.067-.399.045-.397.06-.816.024-1.266l-2.626-32.693c-.773-9.613-.633-19.72-2.287-29.258.303-2.169.639-4.335.84-6.49.288-3.064.357-6.829-.962-9.542 1.823-21.369.923-43.265 1-64.623a6.989 6.989 0 0 0-.072-.99c2.487-12.666-.07-26.483-.94-39.244-.761-11.152-.738-22.784-2.598-33.904a17.925 17.925 0 0 0-.865-4.858 6.548 6.548 0 0 0-.16-1.734c-4.612-20.3-1.183-41.204-2.284-61.779-1.022-19.085-4.971-37.915-5.02-57.04l.083-5.373a6.376 6.376 0 0 0-.28-2.018 473.122 473.122 0 0 0 1.762-22.258c.075-1.35-.553-2.385-1.478-3.054a52.47 52.47 0 0 0-.015-1.122c.023-1.357.03-2.716.018-4.075-.002-.243-.035-.462-.066-.68a4.31 4.31 0 0 0 .127-1.073c-.05-5.04-.28-10.07-.607-15.094a4.87 4.87 0 0 0 .088-.923l.03-9.68c.003-.992-.278-1.787-.732-2.395.307-3.005.726-5.99 1.268-8.96a68.256 68.256 0 0 0 1.535-7.11c.346-1.307.68-2.616 1.04-3.92.213-.774.187-1.47.019-2.09 2.579-11.866 5.03-23.74 6.228-35.84.024-.245.017-.47.004-.693.44-1.696.902-3.389 1.408-5.074a3.61 3.61 0 0 0 .138-1.205c.63-.635 1.007-1.55.894-2.775-1.33-14.353-7.684-26.916-15.448-38.724-.093-.226-.183-.454-.278-.678-.977-3.517-2.7-6.588-4.737-9.497a4.554 4.554 0 0 0-.308-.872c-2.924-6.193-7.361-11.5-11.563-16.873-.728-1.733-1.5-3.385-2.805-4.898 0-.082.01-.158.006-.243l-.21-4.76c.56-.65.902-1.477.845-2.435a151.427 151.427 0 0 0-2.208-18.247 3.232 3.232 0 0 0-.48-1.202 4.718 4.718 0 0 0-.431-1.042c-.495-.85-1.187-1.597-2.058-2.075-.867-.474-1.752-.642-2.671-.62-1.348-.398-2.888-.239-4.651.774a6.836 6.836 0 0 0-1.666 1.35c-1.447.447-2.553 1.647-2.358 3.625.263 2.681.392 5.348.387 8.041-.001.45.083.862.22 1.241a4.537 4.537 0 0 0-1.75-1.088 31.946 31.946 0 0 0-2.041-.64c-4.25-1.18-9.67-1.643-12.12 2.367-.75 1.23-.694 2.804 0 4.038.538.953 1.187 1.874 1.892 2.774.082.791.429 1.598 1.148 2.34 4.033 4.161 8.108 8.381 11.886 12.823l.995 14.281a4.478 4.478 0 0 0-.29 1.353c-.287 5.684.634 10.56-1.988 15.383-2.073-3.246-4.446-6.754-8.58-5.997-1.86.34-3.676 1.156-5.122 2.362-.841.31-1.58.876-1.98 1.68a11.081 11.081 0 0 0-.655 1.603c-1.266.794-2.034 2.255-1.431 4.193 1.12 3.607 2.533 7.074 4.193 10.443-3.381-.296-6.473.282-9.661 1.87a4.348 4.348 0 0 0-1.014.702 6.044 6.044 0 0 0-2.093 2.021c-.843 1.317-1.206 2.695-1.305 4.113-.453.622-.702 1.377-.617 2.217.494 4.87.802 9.8 1.53 14.64.575 3.807 2.402 7.208 2.659 11.066.235 3.547-.05 7.17.903 10.641.92 3.356 2.962 6.041 5.139 8.677 3.257 3.943 5.575 8.49 8.24 12.804.038.198.068.392.138.6a197.08 197.08 0 0 0 4.102 11.074c1.236 5.796 2.206 11.641 2.578 17.56.572 9.087-1.246 17.84-2.015 26.772-2.161 7.897-3.032 15.952-3.21 24.058-.011.032-.025.06-.036.094-2.403 7.14-2.371 14.583-1.754 21.991-.527 5.122-.043 10.323.253 15.501l1.427 24.951 1.11 19.392c-.751 1.182-1.13 2.65-.877 4.335a269.931 269.931 0 0 1 2.145 19.015 6.217 6.217 0 0 0-.473 2.221c-.525 16.6.264 33.733 2.454 50.2.059.445.128.89.19 1.333a1176.434 1176.434 0 0 0-2.014 44.071c-.561.877-.883 1.988-.833 3.345.139 3.736.368 7.462.669 11.182-1.18 5.802-1.974 11.666-1.774 17.616.313 9.352 2.467 18.52 2.47 27.898 0 1.556.494 2.794 1.273 3.724-.077 2.698-.042 5.403.1 8.115-3.008 14.016-4.644 28.264-4.808 42.603-.016 1.367.343 2.491.945 3.374-.502 5.222-.591 10.28.143 15.456.103 3.29.284 6.578.527 9.863a168.82 168.82 0 0 0-.085 3.828l-.753 20.836a7.164 7.164 0 0 0-.082.85 1833.945 1833.945 0 0 1-4.507 86.245 6.123 6.123 0 0 0 .146 1.952c-1.382 4.717 3.427 10.534 8.502 7.07 5.637-3.846 12.416-5.186 19.066-6.853.218.017.442.024.674.02 7.652-.147 14.682 3.45 22.179 4.534 3.628.525 7.196.673 10.847.301 4.032-.41 7.976-1.659 12.033-1.6 4.302.061 6.312-3.864 5.786-7.596" mask="url(#d)"/>
        </g>
        <path fill="#1D1E1B" d="M82.404 53.75c-6.723 2.166-13.608 4.072-20.18 6.663-5.504 2.17-9.978 5.622-14.714 9.074-2.449 1.783-5.02 3.582-7.857 4.69-2.111.825-4.266 1.332-6.008-.392-1.281-1.268-1.734-2.8-1.853-4.578-.374-5.606 3.497-11.132 8.939-12.541.616-.16.478-1.152-.146-.99-4.945 1.28-8.635 5.452-9.588 10.458-.483 2.54-.277 5.673 1.235 7.862 1.486 2.15 4.072 2.25 6.4 1.596 7.002-1.966 12.276-8.02 18.42-11.6 7.783-4.535 17.229-6.579 25.748-9.322.611-.198.212-1.116-.396-.92M42.93 54.939C61 39.217 84.184 31.813 106.638 24.784c.613-.191.215-1.109-.396-.918-22.534 7.054-45.795 14.507-63.928 30.285-.485.421.128 1.21.616.788"/>
        <path fill="#1D1E1B" d="M34.842 59.182c-3.819-1.277-9.809.503-12.71-2.89-1.907-2.23-1.291-6.805.456-9.002 1.72-2.158 4.655-2.274 7.177-2.237 4.747.071 9.514.513 14.22 1.126 3.342.434 7.02 1.598 10.115-.247.552-.329-.07-1.113-.616-.787-2.73 1.628-6.447.422-9.378.041a141.128 141.128 0 0 0-9.067-.886c-3.879-.253-9.547-1.253-12.68 1.762-2.475 2.38-3.326 7.726-1.222 10.563 3.03 4.087 9.158 2.09 13.324 3.482.608.203.992-.72.381-.925M83.706 54.461c.94-2.613 1.174-5.297.679-8.03-.114-.631-1.105-.49-.99.146.464 2.558.266 5.054-.614 7.503-.217.605.706.987.925.381M65.168 56.09c-.319-1.113-.639-2.226-.957-3.34-.177-.616-1.095-.216-.92.397.32 1.113.64 2.225.959 3.34.176.615 1.094.215.918-.397M54.051 62.912a7.4 7.4 0 0 1-2.24-2.993c-.244-.595-1.164-.2-.918.396a8.448 8.448 0 0 0 2.552 3.393c.505.403 1.11-.394.606-.796M87.482 68.055c-1.95-3.798-7.617-3.32-11.313-3.61-6.27-.496-12.54-.985-18.81-1.478-.639-.05-.764.942-.122.992l14.953 1.174c2.345.184 4.697.332 7.038.572 2.479.255 6.074.288 7.336 2.746.292.569 1.213.179.918-.396"/>
        <path fill="#1D1E1B" d="M82.807 54.01c1.518 4.21 6.179 4.704 10.056 4.772.638.011.766-.98.122-.992-3.502-.061-7.866-.31-9.26-4.176-.218-.606-1.136-.209-.918.396M99.745 61.627c-2.488-1.298-3.83-3.673-4.24-6.388-.288-1.897-.506-5.834 1.003-7.36.448-.45-.162-1.243-.615-.787-1.939 1.958-1.782 6.217-1.314 8.736.542 2.906 2.146 5.346 4.784 6.723.572.298.95-.629.382-.924M98.35 46.521c5.79-8.059 12.207-18.155 23.23-18.621.64-.027.491-1.017-.147-.99-11.29.478-17.944 10.745-23.88 19.006-.375.522.42 1.128.797.605"/>
        <path fill="#1D1E1B" d="M102.381 40.876a26.146 26.146 0 0 0-1.008-7.127c-.176-.617-1.092-.216-.918.397a24.38 24.38 0 0 1 .934 6.609c.002.635.995.765.992.121M101.191 41.144c-.713-2.48-2.366-4.488-4.608-5.744-.56-.315-.937.613-.381.924 2.019 1.132 3.434 3.002 4.07 5.215.178.617 1.095.217.92-.395M198.69 40.655c-16.248-2.073-30.991-9.568-46.689-13.757-3.745-1-7.584-1.64-11.307-2.724-3.665-1.064-7.175-2.62-10.89-3.52-6.76-1.635-13.831-.7-20.022 2.42-.572.288-.181 1.209.396.918 7.357-3.708 15.243-3.88 22.985-1.31 3.322 1.102 6.57 2.338 9.978 3.158 4.038.972 8.081 1.808 12.065 2.998 14.454 4.318 28.272 10.883 43.362 12.81.639.081.761-.911.122-.993M99.261 83.662c-3.553.955-7.86 2.11-11.572 1.721-4.237-.443-6.057-6.326-6.318-9.94-.236-3.264 2.134-4.238 4.593-5.385 1.784-.833 3.568-1.666 5.353-2.497l10.71-4.996c.582-.271.19-1.191-.396-.919l-15.618 7.286c-1.505.701-3.426 1.29-4.597 2.54-1.252 1.334-1.174 3.253-.936 4.946.44 3.143 1.804 7.458 4.688 9.225 1.796 1.101 4.126.76 6.109.553 2.752-.288 5.458-.827 8.13-1.545.613-.165.477-1.157-.146-.99M101.403 81.768l13.88-7.188 6.074-3.145c1.807-.936 3.901-1.746 5.433-3.129 3.736-3.37 4.967-13.44-1.522-14.457-.636-.1-.757.893-.122.992 4.51.707 4.091 6.86 2.786 10.025-1.47 3.566-5.509 4.894-8.705 6.55l-18.22 9.432c-.567.296-.177 1.216.396.92M121.751 54.044c-6.353 1.83-11.732 6.301-18.42 7.033-.64.07-.494 1.058.146.988 6.782-.74 12.23-5.248 18.67-7.102.617-.178.216-1.095-.396-.919"/>
        <path fill="#1D1E1B" d="M116.719 56.164c-3.47-2.228-7.3-3.256-11.42-3.077-.642.028-.493 1.018.146.99 3.83-.167 7.442.811 10.668 2.882.538.346 1.148-.447.606-.795"/>
        <path fill="#1D1E1B" d="M115.441 55.489c1.372-2.115 3.67-4.587 4.317-7.041.24-.903.047-1.744-.097-2.642-.357-2.228-.304-4.071.598-6.191.25-.593-.673-.973-.925-.38-.993 2.335-.907 4.263-.663 6.718.328 3.304-2.297 6.265-4.025 8.93-.35.537.445 1.146.795.606"/>
        <path fill="#1D1E1B" d="M119.758 48.447c.95-1.67 2.736-2.356 4.187-3.466 1.144-.873 1.971-1.982 2.778-3.168 2.54-3.743 5.503-6.4 10.332-6.05.64.046.765-.947.122-.993-3.9-.281-7.477 1.272-9.85 4.397-1.54 2.03-2.64 4.12-4.806 5.58-1.439.968-2.814 1.784-3.687 3.319-.319.558.61.933.924.381M128.96 65.348c1.86-.557 4.336-.618 5.623 1.111 1.069 1.436 1.195 3.68 1.25 5.405.14 4.397-1.908 7.502-5.506 9.842-2.85 1.854-6.099 2.98-8.983 4.772-2.641 1.64-4.932 3.7-6.942 6.064-.417.492.38 1.096.797.607 3.519-4.141 7.79-6.474 12.567-8.877 3.335-1.677 6.783-3.837 8.309-7.413 1.252-2.938 1.205-7.587-.35-10.427-1.437-2.621-4.547-2.785-7.16-2.002-.616.183-.216 1.1.395.918M147.628 97.533c-4.243.905-8.78-.689-13.093-.512-1.932.08-3.396.998-5.19 1.56-1.701.532-4.905.557-6.692.342-.639-.077-.762.916-.122.992 1.686.203 3.612.076 5.3-.01 2.247-.117 4.026-1.617 6.243-1.858 4.554-.496 9.188 1.437 13.7.475.627-.132.486-1.123-.146-.989"/>
        <path fill="#1D1E1B" d="M120.922 98.562c-4.514-1.586-8.991 1.568-13.398.2-6.206-1.929-7.615-10.982-6.44-16.396.137-.629-.856-.747-.993-.122-1.167 5.382.026 12.092 4.328 15.905 4.797 4.252 10.766-.545 16.12 1.337.607.213.99-.71.383-.924M150.409 97.628c3.247-1.279 5.95-3.377 8.853-5.267 1.497-.976 3.034-1.874 4.707-2.516 1.682-.648 3.506-.987 5.08-1.9 2.552-1.478 3.593-4.22 4.69-6.813 1.478-3.493 2.57-7.035 2.03-10.86-.09-.636-1.08-.491-.99.147.56 3.958-.773 7.604-2.332 11.18-.717 1.642-1.399 3.374-2.742 4.606-1.327 1.215-2.99 1.672-4.656 2.22-5.56 1.826-9.642 6.16-15.036 8.285-.598.236-.203 1.155.396.918"/>
        <path fill="#1D1E1B" d="M170.16 87.087c10.835-2.848 22.385-1.738 33.339-.23.639.087.76-.905.122-.993-11.028-1.518-22.696-2.635-33.608.234-.615.161-.478 1.154.146.99M129.83 62.81c9.804-.72 22.224 7.66 30.718-.565.458-.443-.153-1.236-.616-.788-8.204 7.945-20.695-.338-30.248.364-.64.047-.494 1.036.147.989"/>
        <path fill="#1D1E1B" d="M139.322 63.837c5.831-.078 12.283-1.8 17.522-4.294 2.432-1.157 4.91-2.6 6.09-5.123 1.56-3.338 1.552-7.223 2.305-10.773.133-.63-.861-.748-.992-.122-.711 3.352-.693 7.072-2.11 10.238-1.33 2.97-4.557 4.46-7.428 5.622-4.776 1.934-10.339 3.393-15.533 3.462-.64.009-.49.998.146.99M135.432 66.876a650.125 650.125 0 0 1 18.47 5.285c.61.185.996-.739.38-.924a650.059 650.059 0 0 0-18.469-5.286c-.613-.165-1.001.757-.381.925M124.984 94.991c.465-2.899.253-5.75-.595-8.558-.187-.615-1.103-.215-.92.396.797 2.636.959 5.324.523 8.04-.102.637.891.758.992.122M138.038 90.496a34.625 34.625 0 0 0-4.229-9.176c-.352-.54-1.138.08-.789.616a33.75 33.75 0 0 1 4.1 8.956c.18.616 1.096.215.918-.396M134.982 71.428c-1.463.732-1.9 2.609-3.324 3.321-.574.287-.183 1.208.396.919 1.463-.732 1.9-2.61 3.324-3.321.572-.287.182-1.208-.396-.92M126.77 69.753a9.159 9.159 0 0 0 3.904 6.964c.526.37 1.133-.425.605-.795-2.11-1.483-3.362-3.744-3.52-6.316-.038-.64-1.028-.493-.99.147M118.18 58.508c-.372 3.407-.043 6.5 2.132 9.264.4.506 1.188-.11.79-.616-2.017-2.562-2.272-5.377-1.93-8.526.07-.64-.923-.763-.993-.122M120.965 58.369c1.402-.877 2.9-1.226 4.543-1.215.636.005.766-.988.122-.992-1.93-.014-3.635.39-5.281 1.419-.546.34.075 1.126.616.788M122.977 67.063c.825-.295 1.605-.769 2.317-1.274.675-.48 1.376-1.048 1.742-1.81.28-.581-.646-.959-.924-.381-.309.642-1.018 1.119-1.586 1.509-.605.413-1.252.79-1.945 1.037-.605.216-.208 1.134.396.919M104.8 64.52c.357 2.573 1.568 4.836 3.477 6.591.474.436 1.076-.363.606-.796-1.714-1.574-2.774-3.64-3.094-5.941-.088-.637-1.077-.493-.989.146M107.453 63.462a9.836 9.836 0 0 0 3.236 5.822c.484.428 1.086-.371.607-.796a8.742 8.742 0 0 1-2.854-5.173c-.105-.633-1.095-.491-.99.147M87.752 67.926a27.696 27.696 0 0 1 1.145-8.497c.18-.613-.743-.998-.925-.382a29.39 29.39 0 0 0-1.21 9.025c.014.64 1.004.49.99-.146M69.148 59.277c-.286 1.07-.146 2.09.42 3.042.33.553 1.114-.07.788-.615a2.685 2.685 0 0 1-.283-2.045c.164-.614-.758-1.002-.925-.382M72.885 57.07c-.175 1.313.383 2.415 1.23 3.38.423.482 1.212-.13.788-.616-.672-.766-1.165-1.59-1.025-2.641.085-.639-.907-.76-.993-.122M67.487 56.814c-1.516-3.908-1.945-7.941-1.309-12.082.098-.636-.894-.757-.992-.121-.662 4.305-.192 8.539 1.382 12.599.232.6 1.151.205.919-.396M121.178 74.782c.35.88.703 1.76 1.055 2.64.24.599 1.157.204.918-.395l-1.055-2.641c-.238-.598-1.158-.203-.918.396M117.878 74.642c-.553 1.82.645 4.477 2.177 5.557.526.371 1.133-.424.606-.795-1.124-.794-2.273-3.017-1.859-4.38.185-.613-.738-.998-.924-.382M103.418 83.604c.587 3.005 1.947 5.714 4.034 7.957.436.469 1.227-.144.789-.616-1.971-2.118-3.279-4.647-3.833-7.488-.123-.628-1.113-.487-.99.147"/>
        <path fill="#1D1E1B" d="M102.093 85.53c.27 4.01 1.183 9.187 5.99 9.877.637.091.76-.902.121-.993-4.293-.616-4.885-5.53-5.121-9.03-.043-.641-1.034-.494-.99.146M110.838 92.14l-.42-2.192c-.122-.629-1.112-.488-.99.146l.42 2.192c.12.63 1.111.488.99-.147M82.949 75.364c.252 2.574 1.116 4.962 2.541 7.118.356.538 1.141-.08.788-.616-1.334-2.018-2.105-4.242-2.34-6.649-.063-.64-1.052-.494-.99.147M86.578 78.234l1.252 1.244c.45.448 1.243-.162.788-.615l-1.251-1.244c-.452-.449-1.245.161-.789.615M48.14 53.978c-.273 1.3-.173 2.595.25 3.85.205.61 1.122.212.918-.395-.369-1.093-.412-2.207-.176-3.333.132-.63-.862-.748-.993-.122M43.212 50.162l-.759-2.24c-.206-.61-1.124-.213-.919.395l.76 2.241c.206.61 1.124.212.918-.396M45.694 50.16a10.346 10.346 0 0 1-.923-3.216c-.076-.639-1.065-.493-.989.147.144 1.205.476 2.366.993 3.465.274.58 1.193.188.919-.396M203.5 86.857c12.453 1.674 24.518 5.152 36.648 8.321 12.658 3.307 25.381 5.698 38.4 7.046 26.015 2.696 52.214 4.047 78.296 5.958l44.582 3.265c.64.048.765-.945.122-.992l-79.257-5.807c-25.951-1.9-52.09-2.94-77.434-9.286-13.691-3.428-27.21-7.611-41.236-9.498-.638-.085-.76.907-.122.993"/>
        <path fill="#1D1E1B" d="M401.426 111.447c23.022 1.85 45.322 8.51 68.3 10.471 12.558 1.073 25.147 1.773 37.704 2.851 12.453 1.07 24.672 3.382 36.764 6.502 12.937 3.339 26.102 6.802 39.568 6.517.64-.013.49-1.003-.148-.99-12.25.26-24.305-2.678-36.093-5.694-12.066-3.088-24.117-5.728-36.529-7.002-12.498-1.283-25.087-1.987-37.618-2.909-10.753-.792-21.322-2.667-31.906-4.669-13.235-2.503-26.477-4.989-39.92-6.07-.64-.05-.766.942-.122.993"/>
        <g transform="rotate(-83 371.729 -258.054)">
            <mask id="f" fill="#fff">
                <use xlink:href="#e"/>
            </mask>
            <path fill="#1D1E1B" d="M1.722 127.569C7.128 95.162 6.23 62.09 5.819 29.365c-.12-9.618-.215-19.238-.157-28.86.003-.642-.997-.642-1 0-.2 33.158 1.62 66.392-.74 99.504-.651 9.14-1.655 18.252-3.163 27.293-.105.63.859.901.964.266" mask="url(#f)"/>
        </g>
        <g transform="rotate(-83 125.951 -94.006)">
            <mask id="h" fill="#fff">
                <use xlink:href="#g"/>
            </mask>
            <path fill="#1D1E1B" d="M.165 1.378C1.732 17 1.37 32.683 1.045 48.353.7 65.173.974 81.878 2.243 98.66c1.298 17.168 2.003 34.367 3.283 51.532 1.114 14.911 3.745 29.632 4.98 44.533 2.575 31.047 2.69 62.351 2.157 93.482-.3 17.418-1 34.875-.445 52.294.547 17.143 2.379 34.228 3.947 51.298l9.546 103.913 1.205 13.115c.058.635 1.059.642 1 0l-9.546-103.913c-1.591-17.32-3.423-34.64-4.541-52.002-1.107-17.189-.76-34.398-.418-51.608.633-31.807.86-63.68-1.103-95.448-.45-7.269-1.026-14.532-1.816-21.772-.795-7.292-2.023-14.522-2.847-21.809-1.9-16.788-2.121-33.702-3.391-50.539C2.965 94.657 1.702 77.661 1.85 60.521c.137-15.735.93-31.479.193-47.209a225.606 225.606 0 0 0-.88-11.934c-.063-.634-1.063-.64-1 0" mask="url(#h)"/>
        </g>
        <path fill="#1D1E1B" d="M190.091 50.13c8.768-.14 17.535-.281 26.303-.42.64-.01.49-1-.146-.99l-26.304.42c-.64.011-.489 1 .147.99M229.91 52.172a19.24 19.24 0 0 0 7.622.498c.637-.086.492-1.076-.147-.989a17.973 17.973 0 0 1-7.092-.433c-.615-.164-1.003.758-.383.924M370.36 98.126c9.786.834 19.59.404 29.266-1.296.632-.11.49-1.1-.147-.988a112.321 112.321 0 0 1-28.997 1.291c-.64-.055-.765.938-.122.993M399.092 90.03c1.833.377 3.667.4 5.509.077.632-.111.49-1.1-.147-.99-1.758.308-3.493.28-5.24-.08-.631-.13-.749.863-.122.993M621.381 84.37c15.505.531 31.02.546 46.528.05.64-.02.491-1.01-.147-.989a697.853 697.853 0 0 1-46.259-.054c-.638-.022-.766.97-.122.993M641.358 96.306l8.768-.119c.641-.009.49-.998-.145-.99l-8.77.12c-.639.01-.488.998.147.99M7.202 44.979c-2.404-.554-4.528-1.693-6.355-3.35-.477-.433-1.079.366-.605.796 1.963 1.78 4.259 2.952 6.838 3.547.627.144.744-.85.122-.993M9.31 67.475a32.634 32.634 0 0 0-9.172 7.063c-.434.476.365 1.08.795.606a31.25 31.25 0 0 1 8.772-6.751c.568-.294.178-1.216-.396-.918M36.59 84.29a42.591 42.591 0 0 0-1.926 12.999c.005.634.997.764.993.122a41.681 41.681 0 0 1 1.858-12.739c.188-.61-.735-.996-.926-.382M58 86.042c.068 2.025.138 4.052.205 6.078.023.642 1.012.492.99-.145l-.206-6.08c-.022-.641-1.012-.492-.99.147M36.98 30.315c-.41-1.908-.818-3.815-1.23-5.722-.134-.625-1.124-.486-.988.147l1.229 5.721c.134.625 1.126.485.99-.146M62.503 21.255l-.768-5.648c-.087-.638-1.077-.493-.99.145l.767 5.65c.087.637 1.077.493.99-.147M108.286 10.057l4.238-1.426c.61-.206.212-1.124-.396-.92-1.411.477-2.825.952-4.237 1.428-.61.205-.213 1.122.395.918M111.812 1.982l4.597-.354c.64-.05.493-1.04-.147-.99l-4.597.355c-.64.049-.493 1.038.147.989M168.824 111.423l3.743-1.495c.599-.239.204-1.158-.396-.92l-3.743 1.497c-.597.239-.202 1.158.396.918M176.48 112.56c.08-.64-.913-.763-.992-.123-.078.64.914.763.993.122M76.605 101.397c.238.705.478 1.411.718 2.117.207.61 1.125.212.92-.396l-.72-2.117c-.207-.61-1.125-.212-.918.396M364.39 46.972l9.548.326c.637.022.765-.97.122-.992l-9.548-.326c-.638-.022-.766.97-.122.992"/>
    </g>
</svg>
