<?xml version="1.0" encoding="UTF-8"?>
<svg width="1576px" height="357px" viewBox="0 0 1576 357" version="1.1" xmlns="http://www.w3.org/2000/svg" xmlns:xlink="http://www.w3.org/1999/xlink">
    <!-- Generator: Sketch 43.2 (39069) - http://www.bohemiancoding.com/sketch -->
    <title>Page 1</title>
    <desc>Created with Sketch.</desc>
    <defs>
        <polygon id="path-1" points="0.531497355 0.292 6.07850264 0.292 6.07850264 1.72859443 0.531497355 1.72859443 0.531497355 0.292"></polygon>
        <polygon id="path-3" points="1343.024 0.297572245 1343.024 192 0.337706044 192 0.337706044 0.297572245 1343.024 0.297572245"></polygon>
    </defs>
    <g id="Screens" stroke="none" stroke-width="1" fill="none" fill-rule="evenodd">
        <g id="iPad-Pro-Landscape" transform="translate(-3309.000000, -159.000000)">
            <g id="Page-1" transform="translate(3309.000000, 158.000000)">
                <path d="M132.8675,73.9037 C132.8705,73.9267 132.8795,73.9477 132.8815,73.9717 C133.0745,75.9667 129.9945,76.4777 129.8015,74.4807 C129.7135,73.5657 128.8615,73.0927 128.3255,72.4197 C127.6695,71.5957 127.3315,70.6077 127.5315,69.5597 C127.9465,67.3787 130.4905,65.9137 132.5645,65.8307 C134.9625,65.7357 136.2845,67.2507 136.2755,69.5897 C136.2655,71.9687 134.7305,72.8907 132.8675,73.9037 M122.3005,66.9897 C122.2105,67.0077 122.1185,67.0127 122.0285,67.0117 C121.1465,67.4857 119.8965,67.2237 119.8085,65.9667 C119.6925,64.3317 119.1715,62.7077 119.3325,61.0567 C119.4475,59.8817 119.6545,58.6437 120.7835,58.0117 C121.2715,57.7387 121.7635,57.7157 122.3045,57.6317 C123.0205,57.5197 123.7065,57.2697 124.4225,57.1707 C125.0575,57.0827 125.9365,56.9937 126.6435,57.1887 C126.6475,57.1897 126.6515,57.1897 126.6555,57.1917 C126.8945,57.2577 127.1135,57.3577 127.2955,57.5017 C128.6835,58.5917 128.6885,61.8077 127.9095,63.2047 C126.8765,65.0547 124.3375,66.5837 122.3005,66.9897 M1571.9785,138.5417 C1569.6735,130.4317 1565.0565,123.2207 1560.3755,116.3137 C1558.2205,113.1327 1554.7365,111.1607 1551.1175,111.1527 C1550.0485,110.5447 1548.7215,110.2237 1547.1035,110.3697 C1493.4815,115.2097 1439.4075,114.4227 1385.9645,107.8577 C1359.7345,104.6357 1333.9615,99.3237 1308.0395,94.3117 C1281.0185,89.0887 1253.8765,86.7537 1226.3995,85.7607 C1116.6795,81.7997 1006.9175,78.7637 897.1815,75.2747 L716.0435,69.5147 C714.7185,68.4317 712.8875,67.8787 711.0355,67.9427 C710.3055,67.9677 709.5755,67.9947 708.8445,68.0207 C708.8105,68.0127 708.7805,68.0027 708.7465,67.9957 C696.3245,65.5017 683.5035,66.5507 670.9325,67.0497 C669.3075,67.1137 667.6825,67.1967 666.0585,67.2657 C663.2235,66.5707 660.3875,65.5847 657.4825,65.4417 C654.2435,65.2827 651.1095,66.4357 647.9545,66.9647 C647.8165,66.9877 647.6795,66.9987 647.5415,67.0207 C638.5745,67.1017 629.7825,64.3947 620.8685,66.7467 L604.3935,66.2327 C604.2545,66.2277 604.1265,66.2527 603.9905,66.2567 C603.6005,66.1697 603.1855,66.1107 602.7335,66.0997 C591.8045,65.8247 580.8755,65.5497 569.9465,65.2757 C560.3055,65.0327 550.2675,63.8307 540.6105,64.4747 C538.4855,63.9447 536.3665,63.3827 534.2445,62.9557 C531.2265,62.3487 527.4915,61.8837 524.6545,62.9107 C503.5945,58.8517 481.7255,57.4447 460.4945,55.1237 C460.1485,55.0867 459.8215,55.0817 459.5005,55.0917 C447.1675,51.2877 433.1575,52.3767 420.3765,51.9017 C409.2065,51.4857 397.6405,50.2407 386.3875,50.9217 C384.7305,50.8097 383.1025,50.9277 381.4645,51.2717 C380.9225,51.1917 380.3435,51.1747 379.7235,51.2487 C359.0505,53.7017 338.6235,48.0937 318.0475,47.0267 C298.9605,46.0367 279.8195,47.9847 260.7955,46.0227 C259.0175,45.8077 257.2395,45.5917 255.4605,45.3767 C254.7205,45.2867 254.0425,45.3167 253.4245,45.4417 C246.1415,43.9067 238.8265,42.5417 231.4745,41.3507 C230.1405,41.1347 229.0445,41.6507 228.2825,42.5007 C227.9105,42.4627 227.5375,42.4267 227.1655,42.3967 C225.8185,42.2307 224.4685,42.0827 223.1145,41.9507 C222.8725,41.9267 222.6525,41.9367 222.4305,41.9457 C222.1105,41.8307 221.7655,41.7427 221.3785,41.7057 C216.3605,41.2247 211.3335,40.9257 206.3035,40.7237 C206.0255,40.6367 205.7225,40.5737 205.3955,40.5387 L195.7705,39.4907 C194.7855,39.3837 193.9645,39.5797 193.3135,39.9667 C190.3575,39.3457 187.4315,38.6157 184.5365,37.7647 C182.2725,36.8827 179.9735,36.1287 177.6265,35.4907 L177.6265,35.4907 C176.3635,35.0087 175.0965,34.5397 173.8375,34.0457 C173.0895,33.7517 172.3955,33.7047 171.7615,33.8057 C160.2325,29.9947 148.6815,26.3067 136.7755,23.8457 C136.5335,23.7967 136.3075,23.7787 136.0855,23.7697 C134.4445,23.1537 132.8105,22.5157 131.1875,21.8357 C130.7855,21.6677 130.3905,21.5957 130.0035,21.5717 C129.4385,20.8777 128.5675,20.4077 127.3385,20.3917 C112.9245,20.2047 99.7635,25.2037 87.2045,31.6827 C86.9705,31.7527 86.7345,31.8177 86.5015,31.8887 C82.9015,32.4897 79.6665,33.8807 76.5595,35.6007 C76.2665,35.6397 75.9665,35.7097 75.6595,35.8167 C69.1945,38.0727 63.4495,41.9267 57.6645,45.5417 C55.8655,46.0837 54.1405,46.6757 52.4995,47.8157 C52.4175,47.8057 52.3435,47.7897 52.2585,47.7847 C50.6735,47.6867 49.0885,47.5897 47.5025,47.4917 C46.9135,46.8667 46.1285,46.4407 45.1695,46.3957 C39.0375,46.1127 32.9125,46.2157 26.7915,46.6747 C26.3265,46.7097 25.9135,46.8367 25.5455,47.0237 C25.1615,47.0937 24.7865,47.1997 24.4645,47.3447 C23.5675,47.7477 22.7515,48.3567 22.1855,49.1737 C21.6215,49.9857 21.3625,50.8477 21.2865,51.7637 C20.7495,53.0637 20.7465,54.6117 21.5685,56.4707 C21.8685,57.1507 22.2665,57.7467 22.7345,58.2697 C23.0285,59.7557 24.1045,60.9817 26.0935,60.9957 C28.7865,61.0157 31.4525,61.1687 34.1305,61.4567 C34.5775,61.5047 34.9955,61.4637 35.3885,61.3667 C34.8965,61.7597 34.4565,62.2877 34.1215,62.9917 C33.8875,63.4827 33.6525,64.0107 33.4255,64.5637 C33.3695,64.6927 33.3165,64.8227 33.2695,64.9557 C31.6495,69.0577 30.6195,74.4007 34.3505,77.2567 C35.4935,78.1317 37.0665,78.2417 38.3665,77.6807 C39.3705,77.2467 40.3545,76.6987 41.3235,76.0917 C42.1185,76.0927 42.9585,75.8337 43.7715,75.1967 C48.3325,71.6237 52.9575,68.0137 57.7715,64.7237 C62.5405,64.8947 67.3095,65.0647 72.0785,65.2357 C72.4665,65.4287 72.8935,65.5867 73.3935,65.6647 C79.0165,66.5487 83.9615,66.1447 88.4835,69.2597 C85.0375,70.9797 81.2995,72.9717 81.6175,77.1617 C81.7605,79.0467 82.3795,80.9387 83.4275,82.5037 C83.6485,83.3727 84.1325,84.1667 84.8895,84.6487 C85.4315,84.9947 85.9205,85.2527 86.4155,85.4687 C87.0715,86.8117 88.4445,87.7287 90.4345,87.3337 C94.1395,86.5977 97.7365,85.5577 101.2615,84.2607 C100.6115,87.5917 100.8605,90.7277 102.1045,94.0647 C102.2635,94.4947 102.4705,94.8407 102.6965,95.1467 C103.0685,95.9717 103.6135,96.7427 104.4865,97.4407 C105.7065,98.4177 107.0395,98.9247 108.4395,99.1707 C109.0095,99.6867 109.7355,100.0137 110.5795,100.0177 C115.4735,100.0387 120.4095,100.2497 125.2985,100.0327 C129.1445,99.8627 132.7195,98.4037 136.5835,98.5537 C140.1355,98.6927 143.7085,99.3557 147.2605,98.7747 C150.6945,98.2117 153.5785,96.4637 156.4295,94.5747 C160.6935,91.7517 165.4565,89.9227 170.0295,87.7257 C170.2285,87.7097 170.4255,87.6997 170.6395,87.6527 C174.4885,86.7987 178.2995,85.8177 182.0835,84.7377 C187.9775,84.1177 193.8915,83.7667 199.8165,84.0187 C208.9135,84.4057 217.4265,87.1327 226.2295,88.8367 C233.8555,91.8167 241.7735,93.5287 249.8165,94.5567 C249.8465,94.5717 249.8745,94.5887 249.9055,94.6027 C256.7545,97.7437 264.1595,98.4927 271.5915,98.6587 C276.6295,99.7207 281.8525,99.7867 287.0335,100.0367 L311.9955,101.2397 L331.3965,102.1747 C332.4935,103.0447 333.9135,103.5757 335.6155,103.5017 C341.9945,103.2227 348.3725,103.1937 354.7505,103.3667 C355.3775,103.7117 356.0955,103.9587 356.9095,104.0707 C373.3625,106.3387 390.4835,107.3537 407.0895,106.9067 C407.5385,106.8947 407.9865,106.8727 408.4355,106.8567 C422.9315,109.3457 437.4715,111.5497 452.0505,113.4927 C452.8645,114.1417 453.9345,114.5797 455.2895,114.6727 C459.0185,114.9277 462.7485,115.0907 466.4795,115.1827 C472.1245,116.9647 477.8735,118.3727 483.8115,118.7997 C493.1445,119.4697 502.4865,118.2917 511.8155,119.2737 C513.3625,119.4367 514.6455,119.0767 515.6525,118.3997 C518.3265,118.7597 521.0205,119.0097 523.7325,119.1537 C537.3545,123.6177 551.3515,126.7417 565.5935,128.4127 C566.9515,128.5717 568.1075,128.3327 569.0485,127.8267 C574.1895,128.8757 579.2105,129.4957 584.4345,129.3097 C587.7175,129.5527 591.0055,129.7187 594.2985,129.8207 C595.5625,129.9987 596.8285,130.1607 598.0965,130.3087 L618.7385,133.2477 C619.0045,133.3177 619.2805,133.3787 619.5735,133.4177 C648.1085,137.2627 676.5455,141.7797 704.8675,146.9657 C705.5755,147.0947 706.2295,147.1087 706.8245,147.0257 C708.4305,147.6857 710.2485,147.5817 711.8075,146.9457 C759.2935,160.5857 809.5475,159.2267 858.5905,159.8847 C915.2435,160.6447 971.3615,167.4067 1027.5285,174.3037 C1083.9445,181.2317 1140.0965,186.6877 1196.9775,187.1647 C1225.0795,187.3997 1253.3425,187.4667 1281.2445,191.2377 C1299.4895,193.7037 1317.4785,197.6447 1335.4895,201.4537 C1340.2895,202.7637 1345.1455,203.7317 1350.0415,204.4657 C1354.6935,205.3997 1359.3515,206.2987 1364.0215,207.1297 C1402.6115,213.9937 1441.5905,217.7397 1480.6665,220.2717 C1506.6955,223.4667 1532.8685,225.3287 1559.1125,225.7357 C1559.7435,225.7457 1560.3355,225.6957 1560.9085,225.6167 C1561.0075,225.6037 1561.1065,225.5917 1561.2055,225.5757 C1561.3865,225.5467 1561.5635,225.5127 1561.7375,225.4747 C1561.9965,225.4197 1562.2555,225.3567 1562.5115,225.2817 C1562.5495,225.2707 1562.5865,225.2577 1562.6235,225.2457 C1567.0045,223.9267 1570.7025,219.9497 1570.3425,215.1587 C1569.0535,198.0077 1569.3895,180.6537 1571.9715,163.6327 C1573.2635,155.1117 1574.3835,147.0027 1571.9785,138.5417" id="Fill-1" fill="#7F5C4F"></path>
                <path d="M82.6336,54.6586 C75.9466,56.9376 69.1016,58.9666 62.5686,61.6606 C57.0956,63.9176 52.6776,67.4356 47.9996,70.9646 C45.7466,72.6646 43.4126,74.3116 40.8496,75.5176 C39.1456,76.3186 36.9536,77.1496 35.1036,76.3806 C33.0906,75.5426 32.3786,72.9916 32.2166,70.9786 C31.7616,65.3346 35.5526,59.8046 40.9946,58.2916 C41.6136,58.1196 41.3516,57.1546 40.7296,57.3266 C35.6696,58.7336 31.9876,63.2446 31.2996,68.4276 C30.9776,70.8526 31.2706,73.9276 32.8406,75.9216 C34.4876,78.0136 37.1766,77.9346 39.4966,77.1526 C46.3056,74.8556 51.3406,69.0106 57.3726,65.3546 C65.0486,60.7016 74.4556,58.5006 82.8996,55.6226 C83.5056,55.4166 83.2446,54.4506 82.6336,54.6586" id="Fill-3" fill="#1D1E1B"></path>
                <path d="M43.1512,56.5038 C60.9192,40.5118 83.9422,32.7328 106.2302,25.3398 C106.8382,25.1388 106.5782,24.1728 105.9642,24.3758 C83.5062,31.8238 60.3452,39.6848 42.4442,55.7968 C41.9652,56.2278 42.6742,56.9338 43.1512,56.5038" id="Fill-5" fill="#1D1E1B"></path>
                <path d="M35.0481,60.9018 C31.1561,59.6728 24.5761,61.7418 21.9591,57.7448 C20.3701,55.3188 21.1001,50.6978 23.1061,48.7068 C24.7611,47.0648 27.2821,46.9018 29.4731,46.8778 C34.1751,46.8268 38.9251,47.1988 43.5951,47.7108 C47.0001,48.0838 50.9461,49.3208 54.0671,47.3888 C54.6131,47.0498 54.1111,46.1848 53.5621,46.5248 C50.8901,48.1798 47.4651,47.1578 44.5481,46.8188 C41.5311,46.4668 38.5041,46.2138 35.4701,46.0568 C31.4921,45.8518 25.5891,44.8648 22.3991,47.9998 C19.8711,50.4838 19.1941,56.0328 21.5221,58.8108 C24.6831,62.5848 30.6861,60.5728 34.7821,61.8658 C35.3971,62.0598 35.6601,61.0948 35.0481,60.9018" id="Fill-7" fill="#1D1E1B"></path>
                <path d="M83.8919,55.3237 C84.7879,52.6927 84.9479,50.0057 84.4069,47.2817 C84.2819,46.6507 83.3179,46.9177 83.4429,47.5467 C83.9499,50.0987 83.7659,52.5957 82.9279,55.0577 C82.7199,55.6677 83.6849,55.9297 83.8919,55.3237" id="Fill-9" fill="#1D1E1B"></path>
                <path d="M65.3933,57.3876 C65.0553,56.2806 64.7173,55.1726 64.3793,54.0646 C64.1923,53.4506 63.2263,53.7126 63.4153,54.3306 C63.7533,55.4376 64.0913,56.5456 64.4293,57.6536 C64.6163,58.2676 65.5813,58.0056 65.3933,57.3876" id="Fill-11" fill="#1D1E1B"></path>
                <path d="M54.4246,64.373 C53.3746,63.56 52.5816,62.54 52.0536,61.322 C51.7986,60.733 50.9366,61.242 51.1906,61.827 C51.7476,63.112 52.6106,64.223 53.7176,65.08 C54.2206,65.469 54.9326,64.767 54.4246,64.373" id="Fill-13" fill="#1D1E1B"></path>
                <path d="M87.8562,68.8544 C85.8722,65.1464 80.0892,65.7044 76.4562,65.4794 C70.1782,65.0904 63.9012,64.7064 57.6232,64.3194 C56.9812,64.2794 56.9832,65.2794 57.6232,65.3194 C62.6132,65.6264 67.6032,65.9344 72.5922,66.2414 C74.9412,66.3854 77.2952,66.4934 79.6402,66.6944 C82.1642,66.9104 85.6542,66.8584 86.9922,69.3594 C87.2962,69.9274 88.1602,69.4224 87.8562,68.8544" id="Fill-15" fill="#1D1E1B"></path>
                <path d="M82.9422,54.8647 C84.5562,59.1157 89.1942,59.5397 93.1572,59.5417 C93.8002,59.5427 93.8012,58.5427 93.1572,58.5417 C89.7342,58.5397 85.3382,58.3717 83.9062,54.5987 C83.6802,54.0027 82.7132,54.2607 82.9422,54.8647" id="Fill-17" fill="#1D1E1B"></path>
                <path d="M100.1023,62.3007 C97.8493,61.1737 96.4423,59.2087 95.8503,56.7767 C95.3333,54.6497 94.9293,50.2917 96.6043,48.5417 C97.0493,48.0767 96.3433,47.3687 95.8973,47.8347 C94.0783,49.7357 94.3133,53.8197 94.7093,56.1667 C95.2173,59.1807 96.8293,61.7797 99.5973,63.1647 C100.1713,63.4517 100.6783,62.5897 100.1023,62.3007" id="Fill-19" fill="#1D1E1B"></path>
                <path d="M98.4114,47.1435 C104.0294,39.0385 110.2704,28.8475 121.2134,28.1835 C121.8524,28.1445 121.8574,27.1435 121.2134,27.1835 C109.8504,27.8725 103.3954,38.2025 97.5484,46.6395 C97.1804,47.1695 98.0474,47.6695 98.4114,47.1435" id="Fill-21" fill="#1D1E1B"></path>
                <path d="M102.3216,41.4228 C102.2726,39.0408 101.9076,36.7208 101.2166,34.4398 C101.0296,33.8248 100.0646,34.0868 100.2526,34.7048 C100.9176,36.9008 101.2746,39.1298 101.3216,41.4228 C101.3346,42.0658 102.3346,42.0678 102.3216,41.4228" id="Fill-23" fill="#1D1E1B"></path>
                <path d="M101.1595,41.8354 C100.4035,39.3774 98.7625,37.3554 96.4975,36.1304 C95.9315,35.8244 95.4265,36.6874 95.9935,36.9944 C98.0335,38.0974 99.5135,39.8824 100.1955,42.1014 C100.3835,42.7144 101.3485,42.4534 101.1595,41.8354" id="Fill-25" fill="#1D1E1B"></path>
                <path d="M198.5569,39.6259 C182.5449,37.8599 167.8869,30.7969 152.4099,26.8369 C148.5469,25.8489 144.5979,25.2439 140.7429,24.2309 C136.7939,23.1929 133.0199,21.5519 129.0169,20.7109 C122.3129,19.3039 115.4119,20.4009 109.3709,23.5739 C108.8009,23.8739 109.3059,24.7369 109.8759,24.4379 C117.1709,20.6059 125.0569,20.3419 132.8389,22.7799 C136.7429,24.0019 140.5429,25.2949 144.5589,26.1229 C148.2769,26.8879 151.9649,27.7009 155.6169,28.7429 C169.9149,32.8229 183.6529,38.9819 198.5569,40.6259 C199.1959,40.6969 199.1909,39.6959 198.5569,39.6259" id="Fill-27" fill="#1D1E1B"></path>
                <path d="M99.8694,84.3183 C96.3484,85.3283 92.0134,86.6443 88.3264,86.2213 C84.1154,85.7383 81.5674,79.2373 81.8454,75.4563 C82.0464,72.7203 83.9334,72.1273 85.9994,71.1213 C87.7694,70.2583 89.5404,69.3963 91.3104,68.5333 C94.9994,66.7363 98.6884,64.9393 102.3764,63.1423 C102.9554,62.8603 102.4494,61.9983 101.8714,62.2783 C96.7074,64.7953 91.5434,67.3103 86.3794,69.8263 C82.8414,71.5503 80.3844,72.6803 80.9744,77.0193 C81.4274,80.3433 82.9944,85.3343 86.3964,86.8023 C88.2234,87.5913 90.4534,87.1703 92.3554,86.9223 C94.9924,86.5783 97.5794,86.0163 100.1354,85.2823 C100.7524,85.1053 100.4904,84.1403 99.8694,84.3183" id="Fill-29" fill="#1D1E1B"></path>
                <path d="M102.0779,82.353 C106.3769,80.034 110.6759,77.715 114.9749,75.396 C117.2679,74.159 119.5609,72.922 121.8539,71.686 C123.5499,70.77 125.4369,69.968 126.9159,68.711 C130.7169,65.479 132.1339,55 125.5009,54.075 C124.8719,53.987 124.5999,54.951 125.2359,55.04 C129.7089,55.664 129.5129,61.467 128.3919,64.717 C127.1159,68.416 123.2419,69.801 120.0589,71.518 C113.8969,74.842 107.7349,78.166 101.5729,81.489 C101.0069,81.795 101.5109,82.659 102.0779,82.353" id="Fill-31" fill="#1D1E1B"></path>
                <path d="M121.9807,54.288 C115.6717,56.225 110.3447,60.802 103.6897,61.649 C103.0607,61.729 103.0527,62.73 103.6897,62.649 C110.4767,61.786 115.8257,57.224 122.2467,55.252 C122.8597,55.064 122.5987,54.099 121.9807,54.288" id="Fill-33" fill="#1D1E1B"></path>
                <path d="M116.8684,56.4897 C113.4254,54.3547 109.5674,53.3777 105.5224,53.6287 C104.8834,53.6677 104.8794,54.6687 105.5224,54.6287 C109.4124,54.3877 113.0484,55.2977 116.3634,57.3527 C116.9114,57.6937 117.4144,56.8287 116.8684,56.4897" id="Fill-35" fill="#1D1E1B"></path>
                <path d="M115.6521,55.8212 C116.9671,53.7172 119.0041,51.3752 119.7401,48.9902 C120.0521,47.9812 119.8141,47.0682 119.6671,46.0612 C119.3371,43.7992 119.3201,42.0032 120.1881,39.8632 C120.4301,39.2662 119.4631,39.0072 119.2241,39.5962 C118.1251,42.3072 118.6591,44.2792 118.8171,47.0542 C118.9811,49.9352 116.2831,52.9242 114.7891,55.3172 C114.4461,55.8642 115.3111,56.3662 115.6521,55.8212" id="Fill-37" fill="#1D1E1B"></path>
                <path d="M119.7869,48.8212 C120.7079,47.1382 122.4389,46.3912 123.8869,45.2582 C124.9589,44.4202 125.7169,43.4252 126.4769,42.3032 C129.1229,38.3962 131.8329,35.4972 136.9539,35.7792 C137.5969,35.8152 137.5949,34.8152 136.9539,34.7792 C133.2199,34.5732 129.7399,36.0782 127.4439,39.0552 C125.8399,41.1362 124.7929,43.4122 122.5819,44.9632 C121.1769,45.9482 119.7689,46.7702 118.9239,48.3172 C118.6149,48.8822 119.4779,49.3862 119.7869,48.8212" id="Fill-39" fill="#1D1E1B"></path>
                <path d="M129.2337,65.5209 C130.8707,65.0009 133.1517,64.7639 134.5387,66.0189 C135.9807,67.3239 136.1567,69.8529 136.2717,71.6509 C136.5417,75.9029 134.7657,79.1449 131.3227,81.5759 C128.4417,83.6099 125.0717,84.8079 122.1097,86.7079 C119.4967,88.3829 117.2277,90.4779 115.2587,92.8739 C114.8537,93.3669 115.5577,94.0789 115.9657,93.5809 C119.3377,89.4769 123.4347,87.0259 128.0817,84.6199 C131.4137,82.8949 134.9027,80.7469 136.4907,77.1759 C137.8107,74.2089 137.6947,69.7679 136.2777,66.8389 C134.8967,63.9849 131.7537,63.6719 128.9677,64.5569 C128.3567,64.7509 128.6177,65.7169 129.2337,65.5209" id="Fill-41" fill="#1D1E1B"></path>
                <path d="M148.4641,97.372 C144.0471,98.391 139.3781,96.601 134.8901,97.109 C133.0601,97.317 131.6671,98.35 129.9401,98.831 C128.2221,99.31 125.3101,99.354 123.5141,99.169 C122.8751,99.103 122.8801,100.103 123.5141,100.169 C125.2141,100.344 127.3831,100.233 129.0871,100.037 C131.3771,99.773 133.1621,98.2 135.4971,98.063 C139.8721,97.807 144.4231,99.33 148.7301,98.336 C149.3571,98.192 149.0911,97.227 148.4641,97.372" id="Fill-43" fill="#1D1E1B"></path>
                <path d="M121.7796,98.8227 C117.2576,97.3187 112.8916,100.5097 108.4476,99.3017 C102.2276,97.6087 100.6506,88.3617 101.7066,83.0617 C101.8316,82.4327 100.8676,82.1637 100.7416,82.7957 C99.6586,88.2347 100.9256,94.9157 105.3126,98.7007 C110.1616,102.8847 116.1356,97.9987 121.5136,99.7867 C122.1266,99.9897 122.3886,99.0247 121.7796,98.8227" id="Fill-45" fill="#1D1E1B"></path>
                <path d="M151.2244,97.435 C154.4524,96.101 157.1294,93.981 159.9964,92.036 C162.9944,90.003 166.3684,89.264 169.4824,87.568 C172.2214,86.076 173.2494,83.222 174.3614,80.472 C175.7894,76.937 176.7874,73.402 176.1804,69.578 C176.0804,68.944 175.1164,69.213 175.2164,69.844 C175.8804,74.031 174.3704,77.999 172.7384,81.785 C172.1454,83.161 171.5404,84.635 170.4314,85.689 C169.0714,86.982 167.2014,87.456 165.4824,88.06 C160.0994,89.948 156.1884,94.309 150.9584,96.471 C150.3714,96.713 150.6294,97.681 151.2244,97.435" id="Fill-47" fill="#1D1E1B"></path>
                <path d="M170.9178,86.5248 C181.6988,83.4968 193.2788,84.4238 204.2508,85.7458 C204.8888,85.8218 204.8828,84.8218 204.2508,84.7458 C193.1868,83.4128 181.5238,82.5068 170.6518,85.5608 C170.0338,85.7338 170.2958,86.6998 170.9178,86.5248" id="Fill-49" fill="#1D1E1B"></path>
                <path d="M130.053,62.9487 C139.868,62.0607 152.489,70.2247 160.877,61.8247 C161.332,61.3687 160.625,60.6607 160.17,61.1177 C152.13,69.1697 139.577,61.0867 130.053,61.9487 C129.417,62.0067 129.411,63.0067 130.053,62.9487" id="Fill-51" fill="#1D1E1B"></path>
                <path d="M139.5603,63.8154 C145.2743,63.6424 151.4333,61.8854 156.5713,59.4674 C159.1313,58.2624 161.8323,56.7334 163.0573,54.0654 C164.5903,50.7214 164.5083,46.8174 165.1983,43.2644 C165.3203,42.6354 164.3573,42.3664 164.2343,42.9984 C163.6033,46.2454 163.5943,49.6724 162.4853,52.8134 C161.3733,55.9624 158.3873,57.5764 155.4903,58.8674 C150.6503,61.0244 144.8903,62.6544 139.5603,62.8154 C138.9183,62.8354 138.9153,63.8354 139.5603,63.8154" id="Fill-53" fill="#1D1E1B"></path>
                <path d="M135.8533,66.9301 C142.0623,68.4961 148.2483,70.1541 154.4083,71.9031 C155.0283,72.0781 155.2933,71.1141 154.6743,70.9381 C148.5133,69.1901 142.3283,67.5321 136.1193,65.9661 C135.4953,65.8081 135.2283,66.7721 135.8533,66.9301" id="Fill-55" fill="#1D1E1B"></path>
                <path d="M125.8167,95.2817 C126.2297,92.3677 126.0137,89.5327 125.1177,86.7267 C124.9227,86.1157 123.9567,86.3767 124.1537,86.9927 C124.9907,89.6137 125.2387,92.2887 124.8527,95.0157 C124.7627,95.6457 125.7267,95.9177 125.8167,95.2817" id="Fill-57" fill="#1D1E1B"></path>
                <path d="M138.8328,90.559 C137.8198,87.309 136.3678,84.269 134.4668,81.445 C134.1088,80.914 133.2428,81.414 133.6038,81.95 C135.4588,84.706 136.8788,87.651 137.8688,90.825 C138.0598,91.437 139.0248,91.176 138.8328,90.559" id="Fill-59" fill="#1D1E1B"></path>
                <path d="M135.3831,71.4965 C133.9351,72.2465 133.5391,74.1365 132.1151,74.8735 C131.5441,75.1695 132.0491,76.0325 132.6201,75.7365 C134.0691,74.9865 134.4651,73.0975 135.8881,72.3595 C136.4601,72.0635 135.9541,71.2005 135.3831,71.4965" id="Fill-61" fill="#1D1E1B"></path>
                <path d="M127.1844,69.8544 C127.4154,72.7344 128.8664,75.2354 131.2554,76.8634 C131.7884,77.2264 132.2894,76.3604 131.7594,75.9994 C129.6794,74.5834 128.3864,72.3634 128.1844,69.8544 C128.1334,69.2174 127.1324,69.2114 127.1844,69.8544" id="Fill-63" fill="#1D1E1B"></path>
                <path d="M118.4095,58.8901 C118.0955,62.3281 118.5095,65.3621 120.7365,68.1031 C121.1425,68.6031 121.8465,67.8911 121.4435,67.3961 C119.3865,64.8641 119.1225,62.0351 119.4095,58.8901 C119.4685,58.2491 118.4685,58.2531 118.4095,58.8901" id="Fill-65" fill="#1D1E1B"></path>
                <path d="M121.1326,58.6948 C122.5756,57.7598 124.0586,57.3818 125.7696,57.3638 C126.4126,57.3578 126.4146,56.3578 125.7696,56.3638 C123.9006,56.3828 122.2056,56.8098 120.6276,57.8308 C120.0896,58.1798 120.5906,59.0458 121.1326,58.6948" id="Fill-67" fill="#1D1E1B"></path>
                <path d="M123.281,67.3364 C124.716,66.7944 126.651,65.6764 127.327,64.2284 C127.597,63.6484 126.736,63.1404 126.463,63.7244 C125.899,64.9334 124.221,65.9164 123.015,66.3724 C122.419,66.5974 122.677,67.5644 123.281,67.3364" id="Fill-69" fill="#1D1E1B"></path>
                <path d="M105.1472,65.1264 C105.5412,67.6354 106.7692,69.8694 108.6662,71.5574 C109.1452,71.9834 109.8552,71.2784 109.3732,70.8504 C107.5912,69.2644 106.4812,67.2144 106.1112,64.8604 C106.0112,64.2264 105.0472,64.4964 105.1472,65.1264" id="Fill-71" fill="#1D1E1B"></path>
                <path d="M107.7815,64.0234 C108.1945,66.2484 109.3305,68.2174 111.0475,69.6904 C111.5335,70.1064 112.2445,69.4024 111.7545,68.9824 C110.1545,67.6104 109.1305,65.8294 108.7455,63.7574 C108.6285,63.1254 107.6645,63.3934 107.7815,64.0234" id="Fill-73" fill="#1D1E1B"></path>
                <path d="M88.1546,68.8486 C88.0416,65.9076 88.3756,63.0386 89.1656,60.2026 C89.3386,59.5816 88.3736,59.3166 88.2006,59.9366 C87.3866,62.8596 87.0376,65.8156 87.1546,68.8486 C87.1786,69.4906 88.1786,69.4936 88.1546,68.8486" id="Fill-75" fill="#1D1E1B"></path>
                <path d="M69.3841,60.4843 C69.1341,61.4923 69.2841,62.5203 69.8291,63.4063 C70.1661,63.9533 71.0321,63.4513 70.6931,62.9013 C70.2851,62.2403 70.1611,61.5053 70.3481,60.7503 C70.5031,60.1263 69.5391,59.8593 69.3841,60.4843" id="Fill-77" fill="#1D1E1B"></path>
                <path d="M73.0974,58.2177 C72.9474,59.5327 73.5654,60.6167 74.4214,61.5617 C74.8544,62.0397 75.5604,61.3307 75.1284,60.8547 C74.4344,60.0887 73.9754,59.2787 74.0974,58.2177 C74.1704,57.5797 73.1694,57.5847 73.0974,58.2177" id="Fill-79" fill="#1D1E1B"></path>
                <path d="M67.7239,58.0722 C66.1499,54.2062 65.6049,50.1632 66.1709,46.0222 C66.2569,45.3922 65.2929,45.1202 65.2059,45.7562 C64.6149,50.0842 65.1109,54.2892 66.7599,58.3382 C66.9989,58.9262 67.9669,58.6692 67.7239,58.0722" id="Fill-81" fill="#1D1E1B"></path>
                <path d="M121.658,74.9858 C122.025,75.8608 122.391,76.7348 122.758,77.6088 C123.003,78.1938 123.971,77.9368 123.722,77.3428 C123.355,76.4688 122.989,75.5938 122.622,74.7198 C122.377,74.1348 121.409,74.3918 121.658,74.9858" id="Fill-83" fill="#1D1E1B"></path>
                <path d="M118.366,75.0239 C117.85,76.8579 119.169,79.4749 120.698,80.5239 C121.23,80.8879 121.73,80.0219 121.202,79.6599 C120.045,78.8659 118.945,76.6609 119.33,75.2899 C119.505,74.6699 118.54,74.4039 118.366,75.0239" id="Fill-85" fill="#1D1E1B"></path>
                <path d="M104.0877,84.2309 C104.7287,87.2279 106.1567,89.8969 108.2787,92.1059 C108.7257,92.5719 109.4317,91.8639 108.9857,91.3989 C106.9747,89.3049 105.6587,86.8019 105.0517,83.9649 C104.9177,83.3359 103.9527,83.6019 104.0877,84.2309" id="Fill-87" fill="#1D1E1B"></path>
                <path d="M102.7771,86.0458 C103.1251,90.1468 104.1111,95.2618 108.9921,95.9048 C109.6281,95.9878 109.6221,94.9878 108.9921,94.9048 C104.7331,94.3428 104.0681,89.4688 103.7771,86.0458 C103.7231,85.4098 102.7221,85.4038 102.7771,86.0458" id="Fill-89" fill="#1D1E1B"></path>
                <path d="M111.6277,92.5366 C111.4757,91.8086 111.3227,91.0806 111.1707,90.3526 C111.0387,89.7236 110.0747,89.9896 110.2067,90.6186 L110.6637,92.8026 C110.7947,93.4326 111.7587,93.1656 111.6277,92.5366" id="Fill-91" fill="#1D1E1B"></path>
                <path d="M83.4641,76.2045 C83.7631,78.7805 84.6231,81.1545 86.0891,83.2985 C86.4501,83.8265 87.3171,83.3265 86.9521,82.7935 C85.5921,80.8045 84.7421,78.6015 84.4641,76.2045 C84.3911,75.5725 83.3901,75.5655 83.4641,76.2045" id="Fill-93" fill="#1D1E1B"></path>
                <path d="M87.1834,79.1337 C87.6074,79.5407 88.0314,79.9487 88.4554,80.3557 C88.9194,80.8017 89.6274,80.0957 89.1624,79.6487 C88.7384,79.2417 88.3144,78.8337 87.8904,78.4267 C87.4264,77.9807 86.7184,78.6867 87.1834,79.1337" id="Fill-95" fill="#1D1E1B"></path>
                <path d="M48.3206,55.4101 C48.0716,56.7171 48.1486,58.0071 48.5936,59.2641 C48.8076,59.8661 49.7746,59.6061 49.5586,58.9971 C49.1746,57.9131 49.0686,56.8091 49.2846,55.6761 C49.4046,55.0471 48.4406,54.7781 48.3206,55.4101" id="Fill-97" fill="#1D1E1B"></path>
                <path d="M43.3406,51.831 C43.0756,51.088 42.8096,50.346 42.5446,49.602 C42.3296,49.001 41.3626,49.26 41.5796,49.869 C41.8456,50.611 42.1116,51.354 42.3766,52.097 C42.5916,52.699 43.5586,52.439 43.3406,51.831" id="Fill-99" fill="#1D1E1B"></path>
                <path d="M45.7713,51.6669 C45.2723,50.6509 44.9613,49.5839 44.8083,48.4629 C44.7213,47.8289 43.7573,48.0989 43.8433,48.7289 C44.0083,49.9369 44.3713,51.0789 44.9073,52.1719 C45.1913,52.7499 46.0543,52.2429 45.7713,51.6669" id="Fill-101" fill="#1D1E1B"></path>
                <path d="M204.2508,85.7455 C216.9998,87.2415 229.3748,90.6425 241.8198,93.6525 C254.1058,96.6235 266.4588,98.6925 279.0518,99.8015 C305.2688,102.1105 331.6588,102.9995 357.9338,104.4795 C372.8108,105.3175 387.6868,106.1555 402.5638,106.9925 C403.2068,107.0295 403.2048,106.0285 402.5638,105.9925 C376.1158,104.5035 349.6678,103.0145 323.2208,101.5245 C296.9558,100.0455 270.5638,99.4015 244.8498,93.3485 C231.3748,90.1755 218.0368,86.3625 204.2508,84.7455 C203.6128,84.6705 203.6188,85.6715 204.2508,85.7455" id="Fill-103" fill="#1D1E1B"></path>
                <path d="M402.5638,106.9926 C425.6208,108.4536 448.0358,114.7396 471.0518,116.3106 C483.4338,117.1556 495.8378,117.6666 508.2218,118.4866 C520.8348,119.3216 533.2328,121.4376 545.5138,124.3866 C558.4928,127.5036 571.7358,130.7676 585.1838,130.2566 C585.8248,130.2316 585.8288,129.2316 585.1838,129.2566 C572.7718,129.7286 560.5338,126.9436 548.5378,124.0836 C536.6388,121.2456 524.7418,118.8806 512.5398,117.8176 C500.0808,116.7306 487.5368,116.2556 475.0508,115.5446 C464.0018,114.9156 453.1368,113.1966 442.2398,111.3246 C429.0788,109.0616 415.9068,106.8386 402.5638,105.9926 C401.9208,105.9516 401.9238,106.9516 402.5638,106.9926" id="Fill-105" fill="#1D1E1B"></path>
                <path d="M711.1306,146.5131 C679.5776,137.7601 646.6916,135.1801 614.2126,132.1601 C604.5296,131.2611 594.8486,130.3361 585.1836,129.2561 C584.5456,129.1851 584.5496,130.1851 585.1836,130.2561 C618.2916,133.9561 651.6966,135.6281 684.5256,141.5391 C693.3876,143.1351 702.1866,145.0701 710.8646,147.4771 C711.4856,147.6491 711.7516,146.6851 711.1306,146.5131" id="Fill-107" fill="#1D1E1B"></path>
                <path d="M205.2976,41.332 C220.9966,41.415 236.5546,43.424 252.1046,45.393 C268.6566,47.489 285.1616,48.976 301.8426,49.478 C318.8646,49.992 335.8536,51.045 352.8706,51.61 C368.0716,52.115 383.2426,51.028 398.4466,51.364 C429.8306,52.059 461.2126,55.273 492.3506,59.112 C509.4726,61.224 526.5946,63.723 543.8086,64.989 C560.9136,66.248 578.0956,66.221 595.2366,66.456 L699.5766,67.884 C703.9666,67.944 708.3566,68.004 712.7466,68.064 C713.3896,68.073 713.3906,67.073 712.7466,67.064 C677.9656,66.588 643.1856,66.112 608.4056,65.636 C591.1786,65.4 573.9286,65.394 556.7116,64.706 C539.5006,64.019 522.4256,61.889 505.3486,59.74 C473.5756,55.744 441.6986,52.125 409.6886,50.738 C402.3576,50.419 395.0186,50.23 387.6796,50.261 C380.3716,50.291 373.0786,50.753 365.7726,50.801 C348.7256,50.913 331.7266,49.342 314.6956,48.84 C297.8006,48.341 280.9906,47.79 264.1846,45.866 C248.5516,44.076 232.9776,41.632 217.2576,40.712 C213.2746,40.479 209.2876,40.353 205.2976,40.332 C204.6536,40.329 204.6526,41.329 205.2976,41.332" id="Fill-109" fill="#1D1E1B"></path>
                <path d="M190.0906,49.2538 C198.8546,48.9658 207.6186,48.6778 216.3826,48.3898 C217.0246,48.3688 217.0276,47.3688 216.3826,47.3898 C207.6186,47.6778 198.8546,47.9658 190.0906,48.2538 C189.4486,48.2748 189.4456,49.2748 190.0906,49.2538" id="Fill-111" fill="#1D1E1B"></path>
                <path d="M230.0706,50.6337 C232.5966,51.2617 235.1266,51.3667 237.6996,50.9757 C238.3346,50.8797 238.0646,49.9157 237.4346,50.0107 C235.0446,50.3747 232.6826,50.2527 230.3366,49.6697 C229.7116,49.5137 229.4456,50.4777 230.0706,50.6337" id="Fill-113" fill="#1D1E1B"></path>
                <path d="M371.2776,94.1972 C381.0806,94.8652 390.8696,94.2552 400.5166,92.3942 C401.1476,92.2722 400.8806,91.3082 400.2506,91.4302 C390.6906,93.2742 380.9896,93.8592 371.2776,93.1972 C370.6346,93.1542 370.6376,94.1542 371.2776,94.1972" id="Fill-115" fill="#1D1E1B"></path>
                <path d="M399.7361,85.5995 C401.6231,85.9545 403.4921,85.9505 405.3771,85.5875 C406.0081,85.4665 405.7411,84.5015 405.1111,84.6235 C403.4071,84.9515 401.7071,84.9555 400.0021,84.6355 C399.3731,84.5165 399.1041,85.4805 399.7361,85.5995" id="Fill-117" fill="#1D1E1B"></path>
                <path d="M622.031,76.207 C637.498,76.476 652.967,76.232 668.418,75.477 C669.059,75.445 669.063,74.445 668.418,74.477 C652.967,75.232 637.498,75.476 622.031,75.207 C621.387,75.196 621.387,76.196 622.031,76.207" id="Fill-119" fill="#1D1E1B"></path>
                <path d="M642.073,87.809 C644.994,87.72 647.916,87.631 650.838,87.541 C651.48,87.522 651.482,86.522 650.838,86.541 C647.916,86.631 644.994,86.72 642.073,86.809 C641.431,86.829 641.428,87.829 642.073,87.809" id="Fill-121" fill="#1D1E1B"></path>
                <g id="Group-125" transform="translate(0.000000, 43.708000)" fill="#1D1E1B">
                    <path d="M7.303,3.4907 C4.883,2.9777 2.729,1.9157 0.869,0.2827 C0.387,-0.1413 -0.322,0.5637 0.162,0.9897 C2.144,2.7307 4.455,3.9077 7.037,4.4547 C7.665,4.5877 7.933,3.6237 7.303,3.4907" id="Fill-123"></path>
                </g>
                <path d="M9.6624,69.6645 C6.2614,71.5075 3.2624,73.8955 0.7064,76.7995 C0.2834,77.2815 0.9874,77.9915 1.4134,77.5065 C3.9144,74.6645 6.8384,72.3325 10.1664,70.5275 C10.7334,70.2215 10.2284,69.3575 9.6624,69.6645" id="Fill-126" fill="#1D1E1B"></path>
                <path d="M37.2522,86.0434 C36.0122,90.3134 35.4512,94.6294 35.5602,99.0744 C35.5762,99.7164 36.5762,99.7194 36.5602,99.0744 C36.4532,94.7274 37.0032,90.4844 38.2162,86.3094 C38.3962,85.6894 37.4312,85.4254 37.2522,86.0434" id="Fill-128" fill="#1D1E1B"></path>
                <path d="M58.6985,87.3012 L59.0075,93.3762 C59.0405,94.0162 60.0405,94.0202 60.0075,93.3762 L59.6985,87.3012 C59.6655,86.6602 58.6655,86.6562 58.6985,87.3012" id="Fill-130" fill="#1D1E1B"></path>
                <path d="M36.7376,31.9672 C36.2956,30.0672 35.8536,28.1672 35.4116,26.2672 C35.2656,25.6402 34.3016,25.9052 34.4476,26.5332 C34.8896,28.4332 35.3316,30.3332 35.7736,32.2332 C35.9196,32.8602 36.8836,32.5942 36.7376,31.9672" id="Fill-132" fill="#1D1E1B"></path>
                <path d="M62.1033,22.4784 C61.8153,20.6004 61.5283,18.7224 61.2403,16.8434 C61.1433,16.2094 60.1793,16.4784 60.2763,17.1094 L61.1393,22.7444 C61.2363,23.3784 62.1993,23.1094 62.1033,22.4784" id="Fill-134" fill="#1D1E1B"></path>
                <path d="M107.6297,10.5868 C109.0347,10.0868 110.4397,9.5878 111.8437,9.0888 C112.4457,8.8748 112.1867,7.9088 111.5777,8.1248 C110.1727,8.6238 108.7687,9.1228 107.3637,9.6228 C106.7617,9.8368 107.0217,10.8028 107.6297,10.5868" id="Fill-136" fill="#1D1E1B"></path>
                <g id="Group-140" transform="translate(110.000000, 0.708000)">
                    <mask id="mask-2" fill="white">
                        <use xlink:href="#path-1"></use>
                    </mask>
                    <g id="Clip-139"></g>
                    <path d="M1.01,1.726 L5.6,1.294 C6.235,1.234 6.241,0.234 5.6,0.294 L1.01,0.726 C0.375,0.786 0.369,1.786 1.01,1.726" id="Fill-138" fill="#1D1E1B" mask="url(#mask-2)"></path>
                </g>
                <path d="M169.8699,110.9169 L173.5879,109.3579 C174.1719,109.1129 173.9149,108.1449 173.3219,108.3939 C172.0819,108.9139 170.8429,109.4329 169.6039,109.9529 C169.0189,110.1979 169.2759,111.1659 169.8699,110.9169" id="Fill-141" fill="#1D1E1B"></path>
                <path d="M177.1204,112.3451 C177.7634,112.3451 177.7654,111.3451 177.1204,111.3451 C176.4764,111.3451 176.4754,112.3451 177.1204,112.3451" id="Fill-143" fill="#1D1E1B"></path>
                <path d="M77.5403,102.3491 L78.2943,104.4541 C78.5103,105.0561 79.4773,104.7961 79.2593,104.1881 L78.5043,102.0831 C78.2893,101.4821 77.3223,101.7411 77.5403,102.3491" id="Fill-145" fill="#1D1E1B"></path>
                <path d="M364.4456,43.1518 C367.6296,43.2068 370.8136,43.2618 373.9966,43.3168 C374.6406,43.3278 374.6406,42.3278 373.9966,42.3168 C370.8136,42.2618 367.6296,42.2068 364.4456,42.1518 C363.8016,42.1408 363.8016,43.1408 364.4456,43.1518" id="Fill-147" fill="#1D1E1B"></path>
                <g id="Group-151" transform="translate(232.000000, 165.708000)">
                    <mask id="mask-4" fill="white">
                        <use xlink:href="#path-3"></use>
                    </mask>
                    <g id="Clip-150"></g>
                    <path d="M683.5701,76.0541 C684.6351,76.1041 685.6991,76.1641 686.7641,76.2151 C686.7801,76.3571 686.7951,76.4981 686.8181,76.6381 C685.7351,76.4451 684.6531,76.2451 683.5701,76.0541 M567.7631,53.4241 C571.7211,53.6591 575.6781,53.9241 579.6311,54.2541 C582.3691,54.4821 585.1061,54.7361 587.8411,55.0161 C587.9171,55.0271 587.9931,55.0381 588.0691,55.0501 C581.2861,54.7281 574.5031,54.2151 567.7631,53.4241 M1335.8201,125.1671 C1335.2071,123.6931 1334.3341,122.3721 1333.2591,121.3241 C1332.0001,118.9721 1329.6231,117.2581 1326.1151,117.3041 C1272.6541,118.0061 1220.0361,108.2401 1167.5801,99.1191 C1114.0341,89.8081 1060.2741,83.3131 1006.0971,79.0171 C951.8151,74.7141 897.4381,71.7511 843.1701,67.2521 C788.8741,62.7511 734.6671,57.1701 680.5931,50.5111 C660.3491,48.0171 640.1281,45.3561 619.9251,42.5491 C609.7061,39.8661 598.6851,38.9981 588.6871,38.0821 C561.9521,34.1551 535.2541,29.9731 508.5991,25.5261 C508.4461,25.4741 508.2951,25.4171 508.1411,25.3671 C507.4301,25.1311 506.7151,24.9091 505.9981,24.6901 C504.2911,24.5411 502.5831,24.3911 500.8761,24.2421 C500.4861,24.1761 500.0951,24.1131 499.7051,24.0471 C498.8331,23.9001 497.9581,23.8561 497.1031,23.9111 C474.0441,21.8941 450.9861,19.8671 427.9231,17.9001 C399.0991,15.4421 369.8831,15.5971 341.2111,11.7631 C320.3321,8.9721 299.5471,4.1711 278.5711,2.8061 C272.9831,1.3761 267.2791,0.4661 261.4691,0.3461 C249.9071,0.1071 238.4321,1.9191 226.8831,2.1971 C203.0211,2.7701 179.0091,1.3121 155.1531,0.6921 C143.9181,0.4001 132.5051,-0.2899 121.3411,1.3581 C116.4171,2.0841 111.5821,3.3051 106.6651,4.0691 C102.3941,4.1791 98.1241,4.2981 93.8531,4.4221 C92.1561,4.2861 90.4541,4.1071 88.7321,3.9011 C82.4771,3.1541 76.1241,2.3561 69.8161,2.9601 C67.4981,3.1821 65.2391,3.6621 63.0151,4.2791 C54.3141,4.0661 45.6031,4.3291 36.9001,4.5751 C25.6111,4.8931 14.2531,4.9321 3.6571,9.3461 C-0.4849,11.0711 -0.4369,15.7901 2.0771,18.2931 C2.4351,19.2051 3.0061,20.0421 3.7411,20.6921 C6.6661,23.2741 10.1761,24.7381 14.0921,24.7771 L14.0991,24.7771 C22.7691,27.1201 31.5551,28.1861 40.5771,27.5241 C49.8381,26.8441 58.6871,23.6841 67.9541,23.0871 C77.5931,22.4651 87.2791,24.2591 96.7641,25.7531 C106.9641,27.3611 117.1631,28.9711 127.3621,30.5791 C136.9901,32.0971 146.7171,34.1741 156.4571,34.7831 C165.4101,35.3441 173.6461,33.5491 182.2631,31.3071 C190.5371,29.1541 198.8191,27.8841 207.1081,27.5571 C207.8031,27.5911 208.4981,27.6251 209.1931,27.6591 C220.3121,30.8931 230.8101,35.4621 242.5511,36.6071 C256.8981,38.0051 271.4251,37.5231 285.8121,38.5901 C299.6241,39.6151 313.3901,41.1991 327.0931,43.1951 C341.4271,45.2821 355.6701,47.8751 369.8861,50.6411 C383.0901,53.2101 396.3241,55.5931 409.8211,55.5961 C414.9181,55.5971 420.0231,55.2261 425.1241,55.1621 C430.8741,55.8241 436.6281,56.4641 442.3801,57.1211 C445.0631,57.8271 447.7181,58.6911 450.3851,59.6871 C462.5861,64.2431 474.5101,68.4161 487.4761,70.2491 C488.3061,70.3671 489.1361,70.4731 489.9671,70.5761 C490.4771,70.8201 491.0301,71.0291 491.6391,71.1891 C518.6791,78.2931 546.6891,79.5451 574.4851,80.7751 C601.8461,81.9861 628.9821,84.3951 656.0551,88.6021 C711.2391,97.1791 765.5621,110.4951 820.7881,118.8391 C929.6151,135.2811 1040.1951,136.4051 1148.7981,154.5101 C1179.5441,159.6361 1209.8331,166.4911 1239.9541,174.4731 C1270.1651,182.4801 1300.5541,190.3491 1331.9031,191.9921 C1335.5171,192.1801 1339.2451,189.2261 1340.1001,185.7511 C1345.0471,165.6461 1343.7801,144.3331 1335.8201,125.1671" id="Fill-149" fill="#F2F2F2" mask="url(#mask-4)"></path>
                </g>
                <path d="M715.9084,69.0878 C771.2984,70.9418 826.6884,72.7958 882.0774,74.6488 C937.4684,76.5028 992.8574,78.3568 1048.2474,80.2108 C1103.8084,82.0698 1159.4224,83.3648 1214.9534,85.9608 C1242.5504,87.2518 1270.0184,89.5868 1297.3474,93.6788 C1323.5754,97.6068 1349.6164,102.6428 1375.7324,107.2298 C1426.3404,116.1178 1478.1734,123.5808 1529.5144,116.6858 C1535.7554,115.8468 1541.9594,114.7848 1548.1304,113.5348 C1548.7614,113.4068 1548.4934,112.4428 1547.8654,112.5698 C1495.3364,123.2158 1441.6474,117.3418 1389.3134,108.5568 C1337.0204,99.7768 1285.2994,89.1378 1232.2544,85.8868 C1177.6604,82.5418 1122.8504,81.7068 1068.1884,79.8778 C1012.7984,78.0238 957.4084,76.1698 902.0184,74.3168 L715.9084,68.0878 C715.2644,68.0668 715.2654,69.0668 715.9084,69.0878" id="Fill-152" fill="#1D1E1B"></path>
                <path d="M711.8367,147.3593 C736.1927,155.4863 761.8977,157.1633 787.3977,157.5363 C814.8257,157.9383 842.1997,157.9953 869.6057,159.4003 C925.2837,162.2543 980.7337,168.2283 1036.1767,173.9013 C1091.6107,179.5743 1147.1287,184.9453 1202.8527,186.6353 C1230.6697,187.4793 1258.2927,188.1633 1285.7567,193.1103 C1312.8717,197.9943 1339.5557,204.8853 1366.7997,209.1093 C1420.8457,217.4883 1475.6347,219.0773 1530.2297,219.9043 C1537.0227,220.0073 1543.8157,220.0983 1550.6087,220.1893 C1551.2527,220.1973 1551.2527,219.1973 1550.6087,219.1893 C1495.7657,218.4573 1440.7587,217.7173 1386.2687,210.8403 C1358.6007,207.3483 1331.5207,201.4533 1304.2567,195.7353 C1277.8757,190.2033 1251.6687,187.1363 1224.7317,186.2633 C1197.1337,185.3683 1169.5847,184.4383 1142.0347,182.4933 C1114.3637,180.5403 1086.7407,177.9773 1059.1387,175.2253 C1003.6667,169.6963 948.2517,163.4003 892.6117,159.7493 C865.0847,157.9423 837.5197,156.8373 809.9317,156.6923 C783.4687,156.5523 756.6927,156.8943 730.6607,151.4293 C724.3777,150.1103 718.1917,148.4263 712.1027,146.3953 C711.4907,146.1913 711.2277,147.1563 711.8367,147.3593" id="Fill-154" fill="#1D1E1B"></path>
                <path d="M1159.7756,106.4301 C1168.4526,106.7161 1177.1256,106.4931 1185.7756,105.7631 C1186.4126,105.7101 1186.4186,104.7091 1185.7756,104.7631 C1177.1256,105.4931 1168.4526,105.7161 1159.7756,105.4301 C1159.1316,105.4091 1159.1326,106.4091 1159.7756,106.4301" id="Fill-156" fill="#1D1E1B"></path>
                <path d="M1218.4026,105.3974 C1246.4406,109.1104 1274.4786,112.8244 1302.5166,116.5384 C1303.1526,116.6224 1303.1466,115.6214 1302.5166,115.5384 C1274.4786,111.8244 1246.4406,108.1104 1218.4026,104.3974 C1217.7666,104.3134 1217.7726,105.3144 1218.4026,105.3974" id="Fill-158" fill="#1D1E1B"></path>
                <path d="M1512.4436,131.1279 C1521.5686,130.8079 1530.5376,129.1819 1539.1926,126.2669 C1539.7986,126.0619 1539.5386,125.0959 1538.9256,125.3019 C1530.3566,128.1899 1521.4826,129.8109 1512.4436,130.1279 C1511.8016,130.1499 1511.7986,131.1499 1512.4436,131.1279" id="Fill-160" fill="#1D1E1B"></path>
                <path d="M1521.6492,138.3779 C1524.3582,138.7899 1526.9592,138.3539 1529.3722,137.0469 C1529.9382,136.7399 1529.4342,135.8769 1528.8672,136.1829 C1526.7082,137.3529 1524.3442,137.7829 1521.9152,137.4139 C1521.2852,137.3179 1521.0142,138.2809 1521.6492,138.3779" id="Fill-162" fill="#1D1E1B"></path>
                <path d="M1287.9373,174.4491 C1325.4283,169.2731 1360.1073,190.4991 1397.1793,191.4761 C1397.8233,191.4931 1397.8223,190.4931 1397.1793,190.4761 C1367.7703,189.7011 1340.6043,176.5981 1311.5833,173.3261 C1303.6203,172.4281 1295.6153,172.3881 1287.6713,173.4851 C1287.0373,173.5731 1287.3073,174.5361 1287.9373,174.4491" id="Fill-164" fill="#1D1E1B"></path>
                <path d="M951.1091,152.0976 C929.1091,150.9796 907.1091,149.8626 885.1101,148.7446 C884.4671,148.7116 884.4681,149.7116 885.1101,149.7446 C907.1091,150.8626 929.1091,151.9796 951.1091,153.0976 C951.7521,153.1306 951.7511,152.1296 951.1091,152.0976" id="Fill-166" fill="#1D1E1B"></path>
                <path d="M895.1038,142.1552 C885.7708,141.2632 876.4378,140.3702 867.1048,139.4782 C866.4638,139.4162 866.4688,140.4172 867.1048,140.4782 C876.4378,141.3702 885.7708,142.2632 895.1038,143.1552 C895.7438,143.2172 895.7398,142.2162 895.1038,142.1552" id="Fill-168" fill="#1D1E1B"></path>
                <path d="M732.4426,77.0966 L738.4426,77.0966 C739.0856,77.0966 739.0876,76.0966 738.4426,76.0966 L732.4426,76.0966 C731.7986,76.0966 731.7976,77.0966 732.4426,77.0966" id="Fill-170" fill="#1D1E1B"></path>
                <path d="M734.5896,137.811 C738.0086,140.622 742.0226,142.188 746.4426,142.42 C747.0856,142.454 747.0846,141.454 746.4426,141.42 C742.2996,141.203 738.5026,139.739 735.2966,137.104 C734.8026,136.698 734.0916,137.402 734.5896,137.811" id="Fill-172" fill="#1D1E1B"></path>
                <path d="M1280.4426,167.0966 C1282.9746,167.2846 1285.4536,167.0536 1287.9086,166.4116 C1288.5306,166.2496 1288.2666,165.2846 1287.6426,165.4486 C1285.2716,166.0666 1282.8846,166.2776 1280.4426,166.0966 C1279.8006,166.0496 1279.8036,167.0496 1280.4426,167.0966" id="Fill-174" fill="#1D1E1B"></path>
            </g>
        </g>
    </g>
</svg>