<svg xmlns="http://www.w3.org/2000/svg" xmlns:xlink="http://www.w3.org/1999/xlink" width="682" height="119" viewBox="0 0 682 119"><defs><path id="a" d="M0 78.276V.344h784.192v77.932H0z"/></defs><g fill="none" fill-rule="evenodd"><path fill="#FFF" d="M11.925 44.274l6.166-12.42 8.215 6.648-2.653 6.366-3.438 2.27-5.971-1.014z"/><g transform="translate(0 10.705)"><mask id="b" fill="#fff"><use xlink:href="#a"/></mask><path fill="#D6906D" d="M24.204 31.378a20.941 20.941 0 0 1-4.143 4.333c-2.798-.2-5.51-.9-8.136-2.142 1.431-2.224 2.4-4.647 3.257-7.14.56-.748 1.001-1.527 1.236-2.313 1.783.534 3.591 1.056 5.26 1.887 1.135.565 2.046 1.396 2.997 2.164a6.622 6.622 0 0 0-.471 3.21m759.953 32.706l-4.91-41.778c1.67-4.111-1.556-9.524-6.053-10.255-1-.254-2.102-.286-3.284-.06-37.861.4-75.71 1.564-113.52 3.484-54.026-.987-108.051 3.07-162.069 5.227a2209.45 2209.45 0 0 0-99.328 4.215 14967 14967 0 0 0-205.489 7.292 15422.32 15422.32 0 0 0-60.799 2.71c-11.566-1.464-23.164-2.724-34.695-4.397-5.174-2.433-10.181-5.207-14.639-8.726-4.017-3.17-7.118-7.264-11.188-10.363-3.729-2.84-6.091-7.245-10.387-9.243-4.859-2.26-9.202-.445-14.196-.328C38.073 1.99 32.978.2 27.481 1.46c-.236-.051-.458-.117-.71-.147a138.23 138.23 0 0 0-4.759-.5c-1.257-.261-2.519-.51-3.816-.464-3.385.119-8.062 2.027-9.978 4.939C6.762 7.5 4.479 9.167 4.063 11.964c-.532 3.577 1.99 6.824 4.396 9.182.141.136.297.242.446.36-.851.25-1.633.695-2.343 1.245C3.086 23.77.392 26.72.045 30.453c-.146 1.58.07 2.887.534 4.023.156.948.479 1.875.901 2.762.398.836.878 1.582 1.444 2.313.078.1.176.21.282.32a2.79 2.79 0 0 0-.271.43c-1.572 3.15-3.271 5.87-1.302 9.337 1.654 2.91 4.636 4.08 7.152 5.945-1.125 1.203-1.568 2.669-1.549 4.216-.508 1.437-.375 3.058.789 4.586l.992 1.302a6.938 6.938 0 0 0 1.761 1.64c4.404 3.684 10.037 5.128 15.625 6.474 3.669.883 7.327 1.47 11.009 1.862 5.5 2.042 11.8 2.22 17.606 2.53 4.391.235 8.807.035 12.988-1.44 3.956-1.396 7.537-3.605 11.544-4.9 8.645-2.794 17.706-3.352 26.695-4.134a307.14 307.14 0 0 0 6.71-.671c62.765 3.983 125.566-1.924 188.345-3.011 6.265-.108 12.531-.16 18.797-.152 24.977 1.41 49.996 2.127 74.999 2.874 36.96 1.105 73.812 1.445 110.718-1.178 7.657-.545 15.319-1.095 22.983-1.486 17.476.799 34.938 2.063 52.421 4.028 20.149 2.265 40.285 4.642 60.56 5.43 20.191.786 40.403.355 60.595-.164 21.619-.556 43.239-1.128 64.858-1.694 1.914.218 3.827.455 5.736.724 2.535.355 5.042-.126 6.859-1.583 2.575-1.251 4.665-3.916 4.331-6.753" mask="url(#b)"/></g><path fill="#E35205" d="M114.874 59.504a3.535 3.535 0 0 0-.706-1.907 42.693 42.693 0 0 0-.57-7.25c-.135-.818-.474-1.418-.929-1.83a111.06 111.06 0 0 0-.27-1.948 2.722 2.722 0 0 0-.616-1.378c-.183-1.457-.566-2.472-2.463-2.826-3.05-.567-6.12-1.047-9.178-1.57-.997-.171-2.304.67-1.845 1.845.116.296.221.59.317.886l.615 2.685c.116.509.391.817.726.97.006.05.006.094.017.145a155.948 155.948 0 0 0 2.114 8.9c.472 5.108-.22 10.362-2.033 15.163-.077.124-.147.25-.226.374a3.342 3.342 0 0 0-.526 1.438c-.217.485-.442.964-.683 1.436-.79 1.55 1.056 2.92 2.356 1.818l.106-.09c.794.463 1.756.688 2.7.539 2.616-.411 5.695.603 7.444-1.942 1.061-1.545 1.423-3.473 2.086-5.252.281-.557.544-1.124.796-1.7.01-.017.017-.034.026-.05l-.004-.002c.121-.277.241-.553.357-.835.4-.966.298-1.826-.1-2.52.518-1.568.624-3.271.49-5.1"/><path fill="#071F2C" d="M12.277 44.887c2.357-4.243 4.131-8.763 5.167-13.511.447-2.044.698-4.097.933-6.173.144-1.275.271-2.725.996-3.837.967-1.483 2.712-2.086 4.286-2.657a195.297 195.297 0 0 1 15.096-4.766c4.903-1.34 11.065-3.737 16.127-2.186 4.952 1.517 8.722 6.655 12.02 10.382 3.198 3.612 6.343 7.298 9.982 10.482 3.048 2.666 6.43 5.002 10.212 6.494 4.502 1.774 9.412 2.117 14.174 2.672l18.6 2.173c2.932.342 5.87.769 8.81 1.029 2.047.18 4.107.04 6.154.223.641.058.637-.943 0-1-1.783-.16-3.575-.058-5.36-.163-2.877-.17-5.763-.641-8.626-.974-5.547-.65-11.094-1.296-16.64-1.944-5.608-.655-11.546-.876-16.846-2.981-4.773-1.896-8.873-5.182-12.484-8.774-3.83-3.808-7.2-8.045-10.917-11.96-2.916-3.072-6.132-6.376-10.53-6.99-4.768-.665-9.954 1.203-14.493 2.43a196.865 196.865 0 0 0-15.106 4.73c-1.738.624-3.7 1.219-4.913 2.708-1.288 1.58-1.4 3.679-1.613 5.622-.712 6.525-2.705 12.73-5.892 18.466-.313.564.55 1.068.863.505"/><path fill="#071F2C" d="M12.862 15.072l9.645 3.701c.6.231.86-.735.266-.965l-9.645-3.7c-.601-.23-.862.735-.266.964"/><path fill="#071F2C" d="M21.41 17.264c.1-1.72-.488-3.33-1.637-4.609-.431-.48-1.136.23-.707.707.98 1.091 1.43 2.443 1.345 3.902-.038.644.962.642 1 0m1.609.873a6.157 6.157 0 0 0 .758-3.218c-.026-.64-1.026-.644-1 0a5.13 5.13 0 0 1-.622 2.713c-.307.566.556 1.071.864.505"/><path fill="#071F2C" d="M16.434 31.55c-2.177-.205-5.058.019-7.124-.674-1.97-.661-3.933-5.172-4.438-7.066-.753-2.83 1.285-5.108 2.902-7.22 1.46-1.91 3.128-3.788 5.27-4.95 2.486-1.35 5.206-1.144 7.931-.973 2.607.164 5.215.332 7.822.498l16.623 1.057c.643.04.64-.96 0-1L23.908 9.854c-2.89-.184-6.02-.73-8.878-.044-2.25.539-4.17 1.9-5.78 3.522-3.096 3.118-6.845 7.267-4.926 11.812a30.621 30.621 0 0 0 1.69 3.356c.454.789 1.313 2.737 2.154 3.224.725.419 2.099.243 2.925.32 1.78.17 3.56.338 5.341.507.642.06.636-.94 0-1m13.5 13.161c5.24-5.645 4.082-14.63 10.171-19.65.498-.41-.213-1.114-.706-.706-6.151 5.07-4.935 14.008-10.172 19.649-.438.47.268 1.18.707.707m-18.228 1.626C15.69 49 20.462 49.62 24.977 47.987c.601-.216.341-1.183-.265-.963-4.293 1.552-8.707.986-12.502-1.55-.537-.358-1.038.508-.505.864"/><path fill="#071F2C" d="M34.109 36.659c2.07-1.622 4.637-2.017 7.04-2.917 1.915-.718 3.66-1.72 5.297-2.944.51-.381.012-1.249-.504-.864-2.22 1.662-4.597 2.747-7.242 3.554-1.93.589-3.695 1.208-5.3 2.464-.504.396.208 1.1.709.707"/><path fill="#071F2C" d="M36.77 34.974c1.943 1.096 1.076 4.477.987 6.24-.108 2.154-.157 4.176-2.179 5.483-2.374 1.531-5.934 2.238-8.663 2.948-4.724 1.23 -9.533 1.08-14.375 1.036-.644-.005-.644.995 0 1 3.51.032 7.066.178 10.556-.264 3.265-.416 6.406-1.439 9.515-2.48 3.105-1.042 5.635-2.094 6.022-5.678.276-2.555 1.45-7.567-1.359-9.148-.562-.316-1.066.547-.505.864M1.59 40.83c.283-4.376 3.294-7.522 7.335-8.881.607-.204.347-1.17-.265-.964C4.169 32.494.903 35.993.59 40.83c-.042.643.958.64 1 0m2.463 8.526l-2.034-2.452c-.411-.496-1.115.215-.707.707l2.034 2.452c.41.496 1.115-.215.707-.707m53.646-20.098a90.803 90.803 0 0 1-8.192 2.452c-.624.155-.36 1.12.266.965a90.906 90.906 0 0 0 8.192-2.453c.603-.212.343-1.18-.266-.964"/><path fill="#071F2C" d="M32.78 60.776c2.892-.823 5.755-1.89 6.932-4.9.556-1.425.66-2.997.462-4.502-.266-2.028-2.175-4.522-1.787-6.525.122-.629-.841-.898-.963-.265-.53 2.723 1.69 4.92 1.833 7.646.236 4.54-2.84 6.471-6.743 7.582-.618.176-.355 1.142.266.964M3.3 62.438c7.313 7.732 18.788-.28 27.247-1.217.633-.07.64-1.07 0-1-4.43.49-8.564 2.145-12.82 3.363-4.815 1.38-9.937 2.147-13.72-1.853-.443-.469-1.149.24-.707.707m-.179-12.935c.034 1.494-.86 2.587-1.464 3.877-.521 1.11-.667 2.179-.467 3.39.104.633 1.068.365.964-.266-.435-2.641 2.026-4.41 1.967-7.001-.015-.643-1.015-.646-1 0"/><path fill="#071F2C" d="M10.2 53.557c.8 2.675.938 5.37.392 8.108-.125.63.838.898.964.267.581-2.914.46-5.794-.392-8.64-.184-.616-1.149-.354-.964.265m21.597-1.031c.262 1.311.37 2.622.342 3.957-.015.644.985.644 1 0a19.254 19.254 0 0 0-.378-4.223c-.126-.63-1.09-.363-.964.266m2.667.741c.22 1.065.296 2.13.246 3.216-.031.643.969.641 1 0a13.943 13.943 0 0 0-.282-3.482c-.13-.63-1.094-.363-.964.266M6.613 36.232C5.028 39.01 4.568 42.11 5.264 45.23c.141.628 1.105.362.965-.266-.638-2.859-.204-5.682 1.247-8.226.32-.56-.544-1.064-.863-.505m-2.644.266a7.29 7.29 0 0 0-1.091 4.198c.029.642 1.029.645 1 0a6.321 6.321 0 0 1 .955-3.693c.339-.55-.526-1.052-.864-.505m4.308 28.969c-.23.604-1.232.669-1.55 1.248-.15.275-.149.55-.23.856-.402 1.48-.193 3.748.096 5.249.27 1.405.892 2.675 1.993 3.619.554.473 1.205.657 1.785 1.05.824.56 1.27 1.358 2.026 1.954.501.393 1.213-.31.707-.707-.839-.661-1.309-1.536-2.228-2.11-1.853-1.158-2.966-1.988-3.347-4.39-.249-1.57-.438-4.024.652-5.32.654-.775.687-.207 1.06-1.183.23-.602-.736-.863-.964-.266m10.051 11.941c4.111-.903 8.419-1.53 12.449-2.742 2.699-.812 4.741-3.292 6.583-5.321 1.716-1.891 1.525-3.655.381-5.833-1.226-2.335-3.031-2.86-5.555-3.055-.642-.05-.639.95 0 1 1.765.137 3.394.409 4.406 2.03.896 1.434 1.145 3.269.339 4.861-.429.847-1.682 1.701-2.355 2.373-.726.723-1.415 1.522-2.258 2.113-1.894 1.328-4.7 1.511-6.93 2.001l-7.326 1.608c-.628.139-.362 1.103.266.965"/><path fill="#071F2C" d="M23.358 79.685c.683-1.965 2.135-3.478 4.034-4.307.588-.255.08-1.118-.505-.863-2.139.934-3.73 2.707-4.493 4.903-.212.61.754.871.964.267m-10.79-8.93c.296 2.552 1.28 4.829 2.95 6.783.419.49 1.124-.22.708-.707a11.248 11.248 0 0 1-2.658-6.076c-.073-.632-1.074-.64-1 0m-1.714 3.179c.242 1.012.953 1.768 1.914 2.137.6.231.86-.736.266-.964-.637-.245-1.06-.786-1.216-1.439-.15-.626-1.113-.36-.964.266m25.353-4.387a41.793 41.793 0 0 0 .529 7.74c.102.635 1.066.366.964-.264a40.421 40.421 0 0 1-.493-7.476c.017-.644-.983-.644-1 0m1.999-12.335c2.653 6.298 1.312 14.498 7.321 19.047.513.389 1.012-.48.505-.863-5.657-4.283-4.362-12.516-6.862-18.45-.246-.584-1.214-.327-.964.266"/><path fill="#071F2C" d="M38.796 56.393a80.117 80.117 0 0 1 6.159 13.771c.205.606 1.172.346.964-.266a81.457 81.457 0 0 0-6.26-14.009c-.317-.56-1.181-.058-.863.504m10.735 5.957c3.571 1.808 7.354 2.87 11.352 3.11.643.037.64-.963 0-1-3.83-.23-7.426-1.242-10.848-2.973-.572-.29-1.079.572-.504.863m-10.216-9.3a27.7 27.7 0 0 0 4.898 5.659c.481.425 1.191-.28.707-.707a26.683 26.683 0 0 1-4.74-5.456c-.352-.537-1.218-.037-.865.505m-35.868-2.91c2.832 1.222 6.05 1.387 9.094 1.54.643.032.64-.968 0-1-2.856-.144-5.928-.256-8.59-1.403-.584-.252-1.094.608-.504.863m62.426-39.145a28.125 28.125 0 0 0-7.584-5.257c-.579-.273-1.087.588-.504.863a27.346 27.346 0 0 1 7.38 5.1c.463.449 1.171-.258.708-.706m-.003-9.348A13.384 13.384 0 0 0 61.955.016c-.625-.15-.892.814-.265.964 1.312.316 2.527.822 3.675 1.531.549.34 1.052-.525.505-.863m-31.646 69.77a17.598 17.598 0 0 0-1.748 6.79c-.033.644.967.642 1 0a16.267 16.267 0 0 1 1.612-6.285c.279-.577-.584-1.085-.864-.505m-2.299 12.895c12.565 2.821 26.24 5.664 38.34-.353.578-.287.072-1.149-.503-.863-11.837 5.886-25.298 3.007-37.571.251-.627-.14-.894.823-.266.965m-17.342-3.731c4.102 1.505 8.043 3.486 12.52 2.852.634-.091.364-1.054-.266-.965-4.25.603-8.114-1.43-11.988-2.851-.605-.223-.866.744-.266.964m16.283-15.373l.212 4.9c.028.643 1.028.646 1 0-.07-1.632-.14-3.266-.212-4.9-.027-.642-1.028-.645-1 0m-1.736.001a14.183 14.183 0 0 0 .424 4.825c.164.622 1.13.359.965-.265a13.37 13.37 0 0 1-.39-4.56c.054-.641-.946-.637-1 0m-6.917-43.68a69.558 69.558 0 0 0 3.91 1.983c1.234.575 2.925.99 3.599 2.276.299.57 1.162.065.864-.505-.626-1.196-1.781-1.652-2.96-2.18a69.138 69.138 0 0 1-4.91-2.438c-.564-.308-1.07.555-.503.864m-1.663 1.296c.653.26 1.209.666 1.685 1.181.438.473 1.144-.236.707-.707a5.708 5.708 0 0 0-2.126-1.438c-.598-.238-.857.729-.266.964m-.42 2.539c.77.282 1.499.646 2.194 1.084.547.344 1.049-.522.505-.863a12.883 12.883 0 0 0-2.433-1.186c-.605-.222-.866.744-.266.965m66.318 41.869a145.31 145.31 0 0 1-.644 5.3c-.088.628.875.9.965.264.26-1.85.487-3.705.68-5.564.065-.64-.936-.635-1 0m.702-15.025c.016 3.194-.07 6.383-.258 9.57-.037.644.963.642 1 0 .188-3.187.274-6.376.257-9.57-.003-.643-1.003-.645-1 0m3.981 9.39a39.545 39.545 0 0 1-1.851 9.6c-.2.615.767.877.964.266a40.649 40.649 0 0 0 1.887-9.867c.043-.642-.958-.64-1 0m132.288 15.896c73.018-1.107 146.033-3.778 219.068-2.632 18.365.288 36.696 1.03 55.065.62 17.977-.4 35.886-.883 53.851.213 35.913 2.191 71.65 6.981 107.647 7.82 40.975.957 81.986-2.475 122.923.488.642.047.64-.953 0-1-36.508-2.642-73.085-.209-109.63-.32-36.074-.109-71.836-4.34-107.758-7.078a548.278 548.278 0 0 0-54.987-1.417c-17.999.433-35.898.325-53.894-.076-36.15-.805-72.317-.596-108.47-.022-41.274.654-82.54 1.778-123.815 2.404-.643.01-.645 1.01 0 1"/><path fill="#071F2C" d="M70.266 83.96c7.514-4.632 16.251-5.913 24.927-6.308a319.879 319.879 0 0 1 27.3-.083c19.871.796 39.665 1.175 59.554.879 11.19-.166 22.377-.424 33.564-.73.642-.018.644-1.02 0-1-20.36.557-40.735 1.039-61.103.872-19.519-.16-38.973-1.752-58.499-.973-9.112.365-18.347 1.61-26.247 6.48-.547.338-.046 1.203.504.864m-2.254-3.606c-2.068-2.31-5.187-3.584-7.542-5.604-2.604-2.233-4.802-4.84-6.644-7.733-.344-.54-1.21-.04-.863.505 1.736 2.727 3.771 5.221 6.177 7.388 2.5 2.252 5.952 3.678 8.164 6.151.431.48 1.136-.228.708-.707m-13.238 4.713a7.707 7.707 0 0 0 .925-3.66c0-.644-1-.645-1 0a6.592 6.592 0 0 1-.79 3.155c-.302.567.56 1.073.865.505m9.856 23.152a196.876 196.876 0 0 1-14.496 9.548c-.552.329-.049 1.194.505.863a197.089 197.089 0 0 0 14.495-9.548c.516-.374.018-1.241-.505-.863m-3.323-6.337c-3.224 3.6-7.191 6.242-11.767 7.8-.606.207-.345 1.173.266.965 4.739-1.615 8.868-4.328 12.208-8.058.428-.478-.276-1.188-.707-.707m95.356-57.375c80.316-2.387 160.59-5.991 240.855-9.646 40.09-1.827 80.178-3.838 120.286-5.256 40.003-1.414 80.024-2.221 120.04-3.13 44.936-1.022 89.874-2.182 134.767-4.452.64-.034.644-1.034 0-1-79.985 4.046-160.083 4.535-240.118 7.088-80.241 2.56-160.427 7.05-240.638 10.435-45.054 1.9-90.116 3.62-135.191 4.96-.643.02-.645 1.02 0 1m-21.829.705a5055.8 5055.8 0 0 0 15.072-.48c.642-.02.645-1.02 0-1a5055.8 5055.8 0 0 1-15.072.48c-.642.02-.645 1.02 0 1M16.882 34.604c3.09.474 5.804 2.05 7.681 4.561.38.51 1.25.011.863-.505-2.032-2.719-4.914-4.504-8.278-5.02-.63-.098-.9.866-.266.964m6.966 5.555l-1.253 1.998c-.344.547.521 1.049.863.505l1.253-1.998c.344-.547-.52-1.049-.863-.505m-11.145 3.324c.98 1.46 2.546 2.322 4.308 2.346.643.008.643-.992 0-1a4.171 4.171 0 0 1-3.445-1.85c-.357-.532-1.224-.032-.864.504m30.178-2.694a22.513 22.513 0 0 0 4.271 1.849c.615.194.878-.772.265-.964a21.345 21.345 0 0 1-4.03-1.748c-.563-.316-1.068.548-.506.863m90.8 18.781h4.1c.642 0 .643-1 0-1h-4.1c-.644 0-.645 1 0 1m24.59-2.731c.644 0 .645-1 0-1-.644 0-.645 1 0 1m111.682 11.937c16.003-.128 32.006.09 48 .652.643.023.643-.977 0-1-15.994-.562-31.997-.78-48-.652-.643.005-.645 1.005 0 1m37.005-4.484l15-1c.639-.043.644-1.043 0-1l-15 1c-.64.042-.644 1.043 0 1m367.999-28a341.445 341.445 0 0 1-39 2c-.644-.004-.644.996 0 1 13.031.078 26.046-.59 39-2 .633-.07.64-1.07 0-1m-43 12h-11c-.644 0-.645 1 0 1h11c.644 0 .645-1 0-1"/><path fill="#071F2C" d="M110.846 76.56c2.598-4.73 4.124-9.95 4.312-15.355.212-6.082-1.498-11.914-3.292-17.658-.192-.612-1.158-.35-.965.266 1.68 5.38 3.325 10.845 3.276 16.536-.048 5.525-1.541 10.874-4.194 15.705-.31.565.553 1.07.863.505m-11.919-.579c2.126-5.624 3.653-11.549 3.567-17.6-.087-6.063-2.638-11.392-3.813-17.238-.127-.63-1.09-.363-.964.267 1.16 5.765 3.685 10.983 3.777 16.971.091 5.964-1.436 11.793-3.53 17.333-.229.603.737.864.963.266"/></g></svg>
