<svg xmlns="http://www.w3.org/2000/svg" viewBox="0 0 730.04 166.87"><defs><style>.cls-1{fill:#fff;}.cls-2{fill:#efebd3;}.cls-3{fill:#d6906d;}.cls-4{fill:#e35205;}.cls-5{fill:#081f2c;}</style></defs><title>fist-bump-group-mobile</title><g id="Layer_2" data-name="Layer 2"><g id="Layer_1-2" data-name="Layer 1"><polygon class="cls-1" points="390.13 83.45 396.3 71.03 404.51 77.67 401.86 84.04 398.42 86.31 392.45 85.3 390.13 83.45"/><path class="cls-2" d="M351.37,96.22a39.6,39.6,0,0,0-.59-5.21c-.31-1.86-.64-3.72-1-5.59a8.49,8.49,0,0,0-.22-1.46l-.08-.29q-.84-4.79-1.7-9.58c-.95-5.34-1.14-14-4.39-19.34a7.34,7.34,0,0,0-1.49-2,8.64,8.64,0,0,0-4.85-2.58,7,7,0,0,0-3.56-.62l-3.41.23a8.71,8.71,0,0,0-3.5.95,8.5,8.5,0,0,0-1.61.6C308,60,286.53,60,267.92,61.25Q236.1,63.42,204.21,64a8.19,8.19,0,0,0-1.82.24L2.05,54.89c-.19,1-.4,2.07-.66,3.08C1,59.57.62,61.16.3,62.76-.67,76.84,1,90.89,1.63,105H2c45.45-.55,90.61-4.65,135.9-7.82l7.26-.1q19.88-.23,39.77-.31c18.49,1.39,36.84,2.27,55.39,1.92,3-.06,6,0,9,.14q1.23.31,2.46.66C265,103.15,277,110,290.25,113.64c14.7,4,29.87,6.63,44.77,9.81,7.18,1.53,11.22-6.52,8.54-11.32a10.11,10.11,0,0,0,.8-1.27l.09-.08,1.33-1a13.86,13.86,0,0,0,2.71-3.08c.06-.1.11-.21.17-.31C351.54,103.93,352.29,100,351.37,96.22Z"/><path class="cls-3" d="M730,76.11q-81.16,2.56-162.29,6-30.4,1.29-60.8,2.71c-11.57-1.46-23.16-2.72-34.7-4.4a74.73,74.73,0,0,1-14.64-8.73c-4-3.17-7.12-7.26-11.19-10.36-3.73-2.84-6.09-7.24-10.39-9.24-4.86-2.26-9.2-.44-14.2-.33-5.53.13-10.62-1.66-16.12-.4-.24-.05-.46-.12-.71-.15-1.58-.2-3.17-.36-4.76-.5a16,16,0,0,0-3.82-.46c-3.39.12-8.06,2-10,4.94-1.46,2.21-3.74,3.88-4.15,6.68-.53,3.58,2,6.82,4.4,9.18a5.32,5.32,0,0,0,.45.36,7.16,7.16,0,0,0-2.34,1.24,9,9,0,0,0-6.52,7.7,8.36,8.36,0,0,0,.53,4,10.39,10.39,0,0,0,.9,2.76,12.53,12.53,0,0,0,1.44,2.31c.08.1.18.21.28.32a2.68,2.68,0,0,0-.27.43c-1.57,3.15-3.27,5.87-1.3,9.34,1.65,2.91,4.64,4.08,7.15,5.95a5.86,5.86,0,0,0-1.55,4.22,4.71,4.71,0,0,0,.79,4.59l1,1.3A6.94,6.94,0,0,0,389,117.2c4.4,3.68,10,5.13,15.63,6.47a85.43,85.43,0,0,0,11,1.86c5.5,2,11.8,2.22,17.61,2.53a33.38,33.38,0,0,0,13-1.44c4-1.4,7.54-3.61,11.54-4.9,8.65-2.79,17.71-3.35,26.69-4.13,2.24-.2,4.48-.43,6.71-.67,62.76,4,125.57-1.92,188.34-3q9.4-.16,18.8-.15,15,.85,30,1.4C729,102.15,729.61,89.13,730,76.11ZM402.41,81.26a21,21,0,0,1-4.14,4.33,22.62,22.62,0,0,1-8.14-2.14,32.54,32.54,0,0,0,3.26-7.14A7.61,7.61,0,0,0,394.63,74a32.76,32.76,0,0,1,5.26,1.89,16.77,16.77,0,0,1,3,2.16A6.61,6.61,0,0,0,402.41,81.26Z"/><path class="cls-4" d="M493.08,98.68a3.53,3.53,0,0,0-.71-1.91,42.73,42.73,0,0,0-.57-7.25,3.06,3.06,0,0,0-.93-1.83c-.09-.65-.17-1.3-.27-1.95a2.72,2.72,0,0,0-.62-1.38c-.18-1.46-.57-2.47-2.46-2.83-3.05-.57-6.12-1-9.18-1.57-1-.17-2.3.67-1.85,1.85.12.3.22.59.32.89l.61,2.69a1.32,1.32,0,0,0,.73,1s0,.09,0,.14q.93,4.49,2.11,8.9a34.27,34.27,0,0,1-2,15.16l-.23.37a3.35,3.35,0,0,0-.53,1.44c-.22.48-.44,1-.68,1.44a1.51,1.51,0,0,0,2.36,1.82l.11-.09a4.14,4.14,0,0,0,2.7.54c2.62-.41,5.7.6,7.44-1.94,1.06-1.54,1.42-3.47,2.09-5.25.28-.56.54-1.12.8-1.7l0,0h0c.12-.28.24-.55.36-.83a2.77,2.77,0,0,0-.1-2.52A13.06,13.06,0,0,0,493.08,98.68Z"/><path class="cls-5" d="M390.49,84.06a49.57,49.57,0,0,0,5.17-13.51,60.8,60.8,0,0,0,.93-6.17,8.8,8.8,0,0,1,1-3.84c1-1.48,2.71-2.09,4.29-2.66,5-1.8,10-3.38,15.1-4.77,4.9-1.34,11.07-3.74,16.13-2.19s8.72,6.66,12,10.38a113.58,113.58,0,0,0,10,10.48,35.48,35.48,0,0,0,10.21,6.49c4.5,1.77,9.41,2.12,14.17,2.67l18.6,2.17c2.93.34,5.87.77,8.81,1,2,.18,4.11,0,6.15.22.64.06.64-.94,0-1-1.78-.16-3.57-.06-5.36-.16-2.88-.17-5.76-.64-8.63-1L482.42,80.3c-5.61-.65-11.54-.88-16.84-3a38.15,38.15,0,0,1-12.48-8.77c-3.83-3.81-7.2-8-10.92-12-2.92-3.07-6.13-6.38-10.53-7-4.77-.67-10,1.2-14.49,2.43q-7.64,2.07-15.11,4.73c-1.74.62-3.7,1.22-4.91,2.71s-1.4,3.68-1.61,5.62a48.71,48.71,0,0,1-5.89,18.47c-.31.56.55,1.07.86.5Z"/><path class="cls-5" d="M391.07,54.24l9.64,3.7c.6.23.86-.74.27-1l-9.64-3.7c-.6-.23-.86.74-.27,1Z"/><path class="cls-5" d="M399.62,56.44A6.27,6.27,0,0,0,398,51.83c-.43-.48-1.14.23-.71.71a5.25,5.25,0,0,1,1.34,3.9c0,.64,1,.64,1,0Z"/><path class="cls-5" d="M401.23,57.31a6.16,6.16,0,0,0,.76-3.22c0-.64-1-.64-1,0a5.13,5.13,0,0,1-.62,2.71c-.31.57.56,1.07.86.5Z"/><path class="cls-5" d="M394.64,70.72c-2.18-.21-5.06,0-7.12-.67s-3.93-5.17-4.44-7.07c-.75-2.83,1.29-5.11,2.9-7.22a17.43,17.43,0,0,1,5.27-5c2.49-1.35,5.21-1.14,7.93-1l7.82.5,16.62,1.06c.64,0,.64-1,0-1L402.12,49c-2.89-.18-6-.73-8.88,0a12.38,12.38,0,0,0-5.78,3.52c-3.1,3.12-6.85,7.27-4.93,11.81a30.69,30.69,0,0,0,1.69,3.36c.45.79,1.31,2.74,2.16,3.22s2.1.24,2.92.32l5.34.51c.64.06.64-.94,0-1Z"/><path class="cls-5" d="M408.14,83.88c5.24-5.64,4.08-14.63,10.17-19.65.5-.41-.21-1.11-.71-.71-6.15,5.07-4.93,14-10.17,19.65-.44.47.27,1.18.71.71Z"/><path class="cls-5" d="M389.91,85.51a14.58,14.58,0,0,0,13.27,1.65c.6-.22.34-1.18-.27-1a13.61,13.61,0,0,1-12.5-1.55c-.54-.36-1,.51-.5.86Z"/><path class="cls-5" d="M412.32,75.83c2.07-1.62,4.64-2,7-2.92a21.26,21.26,0,0,0,5.3-2.94c.51-.38,0-1.25-.5-.86a22.91,22.91,0,0,1-7.24,3.55,15.46,15.46,0,0,0-5.3,2.46c-.51.4.21,1.1.71.71Z"/><path class="cls-5" d="M415,74.15c1.94,1.09,1.08,4.48,1,6.24-.11,2.15-.16,4.18-2.18,5.48-2.37,1.53-5.93,2.24-8.66,2.95-4.72,1.23-9.53,1.08-14.37,1a.5.5,0,0,0,0,1,78.44,78.44,0,0,0,10.56-.27,49.91,49.91,0,0,0,9.51-2.48c3.11-1,5.64-2.09,6-5.68.28-2.55,1.45-7.57-1.36-9.15a.5.5,0,0,0-.5.86Z"/><path class="cls-5" d="M379.8,80c.28-4.38,3.29-7.52,7.34-8.88.61-.2.35-1.17-.27-1-4.49,1.51-7.76,5-8.07,9.85,0,.64,1,.64,1,0Z"/><path class="cls-5" d="M382.26,88.53l-2-2.45c-.41-.5-1.12.22-.71.71l2,2.45c.41.5,1.12-.22.71-.71Z"/><path class="cls-5" d="M435.91,68.43q-4,1.42-8.19,2.45a.5.5,0,0,0,.27,1q4.16-1,8.19-2.45c.6-.21.34-1.18-.27-1Z"/><path class="cls-5" d="M411,99.95c2.89-.82,5.76-1.89,6.93-4.9a9.14,9.14,0,0,0,.46-4.5c-.27-2-2.18-4.52-1.79-6.52.12-.63-.84-.9-1-.27-.53,2.72,1.69,4.92,1.83,7.65.24,4.54-2.84,6.47-6.74,7.58a.5.5,0,0,0,.27,1Z"/><path class="cls-5" d="M381.51,101.61c7.31,7.73,18.79-.28,27.25-1.22.63-.07.64-1.07,0-1-4.43.49-8.56,2.14-12.82,3.36-4.82,1.38-9.94,2.15-13.72-1.85-.44-.47-1.15.24-.71.71Z"/><path class="cls-5" d="M381.33,88.67c0,1.49-.86,2.59-1.46,3.88a5.5,5.5,0,0,0-.47,3.39c.1.63,1.07.36,1-.27-.44-2.64,2-4.41,2-7a.5.5,0,0,0-1,0Z"/><path class="cls-5" d="M388.41,92.73a16.56,16.56,0,0,1,.39,8.11c-.13.63.84.9,1,.27a17.67,17.67,0,0,0-.39-8.64.5.5,0,0,0-1,.27Z"/><path class="cls-5" d="M410,91.7a18,18,0,0,1,.34,4,.5.5,0,0,0,1,0,19.24,19.24,0,0,0-.38-4.22c-.13-.63-1.09-.36-1,.27Z"/><path class="cls-5" d="M412.67,92.44a12.84,12.84,0,0,1,.25,3.22c0,.64,1,.64,1,0a13.93,13.93,0,0,0-.28-3.48c-.13-.63-1.09-.36-1,.27Z"/><path class="cls-5" d="M384.82,75.4a12.39,12.39,0,0,0-1.35,9c.14.63,1.1.36,1-.27a11.31,11.31,0,0,1,1.25-8.23.5.5,0,0,0-.86-.5Z"/><path class="cls-5" d="M382.18,75.67a7.29,7.29,0,0,0-1.09,4.2c0,.64,1,.64,1,0a6.33,6.33,0,0,1,1-3.69c.34-.55-.53-1.05-.86-.5Z"/><path class="cls-5" d="M386.49,104.64c-.23.6-1.23.67-1.55,1.25a3.56,3.56,0,0,0-.23.86,13.47,13.47,0,0,0,.1,5.25,6.16,6.16,0,0,0,2,3.62,17.26,17.26,0,0,0,1.79,1.05c.82.56,1.27,1.36,2,2,.5.39,1.21-.31.71-.71-.84-.66-1.31-1.54-2.23-2.11-1.85-1.16-3-2-3.35-4.39-.25-1.57-.44-4,.65-5.32.65-.78.69-.21,1.06-1.19.23-.6-.74-.86-1-.27Z"/><path class="cls-5" d="M396.54,116.58c4.11-.9,8.42-1.53,12.45-2.74,2.7-.81,4.74-3.29,6.58-5.32s1.53-3.65.38-5.83c-1.23-2.33-3-2.86-5.55-3.05-.64,0-.64,1,0,1,1.77.14,3.39.41,4.41,2a5,5,0,0,1,.34,4.86,12.59,12.59,0,0,1-2.35,2.37,18,18,0,0,1-2.26,2.11c-1.89,1.33-4.7,1.51-6.93,2l-7.33,1.61c-.63.14-.36,1.1.27,1Z"/><path class="cls-5" d="M401.57,118.86a7.28,7.28,0,0,1,4-4.31c.59-.26.08-1.12-.5-.86a8.24,8.24,0,0,0-4.49,4.9c-.21.61.75.87,1,.27Z"/><path class="cls-5" d="M390.78,109.93a12.46,12.46,0,0,0,3,6.78c.42.49,1.12-.22.71-.71a11.26,11.26,0,0,1-2.66-6.08c-.07-.63-1.07-.64-1,0Z"/><path class="cls-5" d="M389.06,113.11a3,3,0,0,0,1.91,2.14c.6.23.86-.74.27-1a2,2,0,0,1-1.22-1.44c-.15-.63-1.11-.36-1,.27Z"/><path class="cls-5" d="M414.42,108.72a41.75,41.75,0,0,0,.53,7.74c.1.63,1.07.36,1-.27a40.32,40.32,0,0,1-.49-7.48.5.5,0,0,0-1,0Z"/><path class="cls-5" d="M416.42,96.38c2.65,6.3,1.31,14.5,7.32,19,.51.39,1-.48.5-.86-5.66-4.28-4.36-12.52-6.86-18.45-.25-.58-1.21-.33-1,.27Z"/><path class="cls-5" d="M417,95.57a80.09,80.09,0,0,1,6.16,13.77c.21.61,1.17.35,1-.27a81.47,81.47,0,0,0-6.26-14,.5.5,0,0,0-.86.5Z"/><path class="cls-5" d="M427.74,101.52a28.7,28.7,0,0,0,11.35,3.11c.64,0,.64-1,0-1a27.35,27.35,0,0,1-10.85-3c-.57-.29-1.08.57-.5.86Z"/><path class="cls-5" d="M417.52,92.22a27.67,27.67,0,0,0,4.9,5.66c.48.42,1.19-.28.71-.71a26.7,26.7,0,0,1-4.74-5.46c-.35-.54-1.22,0-.86.5Z"/><path class="cls-5" d="M381.66,89.31c2.83,1.22,6.05,1.39,9.09,1.54.64,0,.64-1,0-1-2.86-.14-5.93-.26-8.59-1.4-.58-.25-1.09.61-.5.86Z"/><path class="cls-5" d="M444.08,50.17a28.15,28.15,0,0,0-7.58-5.26c-.58-.27-1.09.59-.5.86a27.34,27.34,0,0,1,7.38,5.1c.46.45,1.17-.26.71-.71Z"/><path class="cls-5" d="M444.08,40.82a13.4,13.4,0,0,0-3.91-1.63c-.63-.15-.89.81-.27,1a12.5,12.5,0,0,1,3.68,1.53c.55.34,1.05-.53.5-.86Z"/><path class="cls-5" d="M370.39,26.31Q372.32,15.62,375,5.08a.5.5,0,0,0-1-.27Q371.36,15.36,369.43,26c-.11.63.85.9,1,.27Z"/><path class="cls-5" d="M359.38,20A93.8,93.8,0,0,0,350.12.24c-.34-.55-1.2,0-.86.5a92.65,92.65,0,0,1,9.16,19.5c.2.61,1.17.35,1-.27Z"/><path class="cls-5" d="M345,24.45l-9.27-9.07c-.46-.45-1.17.26-.71.71l9.27,9.07c.46.45,1.17-.26.71-.71Z"/><path class="cls-5" d="M377.48,140.61a233.87,233.87,0,0,1,5.22,25.9c.09.63,1.05.36,1-.27a233.87,233.87,0,0,0-5.22-25.9.5.5,0,0,0-1,.27Z"/><path class="cls-5" d="M364.77,148l-1.15,12.34c-.06.64.94.64,1,0L365.77,148c.06-.64-.94-.64-1,0Z"/><path class="cls-5" d="M352.63,147.78a153.25,153.25,0,0,0-6,15.3c-.2.61.76.87,1,.27a150.82,150.82,0,0,1,5.94-15.07c.27-.58-.6-1.09-.86-.5Z"/><path class="cls-5" d="M412.43,110.59a17.58,17.58,0,0,0-1.75,6.79c0,.64,1,.64,1,0a16.26,16.26,0,0,1,1.61-6.29c.28-.58-.58-1.08-.86-.5Z"/><path class="cls-5" d="M410.13,123.48c12.57,2.82,26.24,5.66,38.34-.35.58-.29.07-1.15-.5-.86-11.84,5.89-25.3,3-37.57.25-.63-.14-.89.82-.27,1Z"/><path class="cls-5" d="M392.79,119.75c4.1,1.5,8,3.49,12.52,2.85.63-.09.36-1.05-.27-1-4.25.6-8.11-1.43-12-2.85-.61-.22-.87.74-.27,1Z"/><path class="cls-5" d="M409.08,104.38l.21,4.9c0,.64,1,.64,1,0l-.21-4.9c0-.64-1-.64-1,0Z"/><path class="cls-5" d="M407.34,104.38a14.18,14.18,0,0,0,.43,4.82.5.5,0,0,0,1-.27,13.36,13.36,0,0,1-.39-4.56c.05-.64-.95-.64-1,0Z"/><path class="cls-5" d="M400.42,60.7c1.28.7,2.58,1.37,3.91,2s2.93,1,3.6,2.27c.3.57,1.16.07.86-.5-.63-1.2-1.78-1.65-3-2.18q-2.5-1.12-4.91-2.44c-.57-.31-1.07.55-.5.86Z"/><path class="cls-5" d="M398.76,62a4.6,4.6,0,0,1,1.68,1.18c.44.47,1.14-.23.71-.71A5.72,5.72,0,0,0,399,61c-.6-.24-.86.73-.27,1Z"/><path class="cls-5" d="M398.34,64.54a11.63,11.63,0,0,1,2.19,1.08c.55.34,1-.52.5-.86a12.88,12.88,0,0,0-2.43-1.19c-.61-.22-.87.74-.27,1Z"/><path class="cls-5" d="M464.66,106.41q-.27,2.66-.64,5.3c-.09.63.87.9,1,.27q.39-2.78.68-5.56c.07-.64-.93-.63-1,0Z"/><path class="cls-5" d="M465.36,91.38q0,4.79-.26,9.57c0,.64,1,.64,1,0q.28-4.78.26-9.57a.5.5,0,0,0-1,0Z"/><path class="cls-5" d="M469.34,100.77a39.54,39.54,0,0,1-1.85,9.6c-.2.61.77.88,1,.27a40.63,40.63,0,0,0,1.89-9.87c0-.64-1-.64-1,0Z"/><path class="cls-5" d="M728.39,113.22l-2.95,0c-41.27.65-82.54,1.78-123.82,2.4a.5.5,0,0,0,0,1c42.24-.64,84.47-1.8,126.71-2.45Z"/><path class="cls-5" d="M448.48,123.13c7.51-4.63,16.25-5.91,24.93-6.31,9.08-.41,18.22-.45,27.3-.08,19.87.8,39.66,1.17,59.55.88q16.78-.25,33.56-.73a.5.5,0,0,0,0-1c-20.36.56-40.73,1-61.1.87-19.52-.16-39-1.75-58.5-1-9.11.36-18.35,1.61-26.25,6.48-.55.34,0,1.2.5.86Z"/><path class="cls-5" d="M446.22,119.53c-2.07-2.31-5.19-3.58-7.54-5.6a34.59,34.59,0,0,1-6.64-7.73c-.34-.54-1.21,0-.86.5a35.62,35.62,0,0,0,6.18,7.39c2.5,2.25,6,3.68,8.16,6.15.43.48,1.14-.23.71-.71Z"/><path class="cls-5" d="M433,124.24a7.71,7.71,0,0,0,.93-3.66.5.5,0,0,0-1,0,6.6,6.6,0,0,1-.79,3.16c-.3.57.56,1.07.86.5Z"/><path class="cls-5" d="M351.08,92.16c2,6.28.4,14.07-6.81,15.78-.63.15-.36,1.11.27,1,7.71-1.82,9.68-10.2,7.51-17-.19-.61-1.16-.35-1,.27Z"/><path class="cls-5" d="M332.45,49.21c3.35,0,7.76.42,10.13,3.11,2.2,2.5,1.85,6.35,2.48,9.42,1.68,8.2,4,16.19,5.2,24.5.09.63,1.05.36,1-.27-1.37-9.6-4.37-18.86-5.75-28.42-.42-2.89-1.16-5.58-3.74-7.23s-6.15-2.11-9.28-2.12a.5.5,0,0,0,0,1Z"/><path class="cls-5" d="M330.28,54A14.33,14.33,0,0,0,322,55.22c-.57.3-.07,1.16.5.86A13.44,13.44,0,0,1,330.28,55c.64.06.64-.94,0-1Z"/><path class="cls-5" d="M341.29,111.15c4.49.19,5.31-7.52,5.78-10.6a42.11,42.11,0,0,0,.24-11.31c-.41-3.52-1.2-7-1.46-10.52-.55-7.53.53-23.21-10.08-24.16-.64-.06-.64.94,0,1,9.72.87,8.59,16.31,9.08,23.16s2.41,13.28,1.46,20.14c-.39,2.8-1,11.47-5,11.29-.64,0-.64,1,0,1Z"/><path class="cls-5" d="M339.07,79.73a94.45,94.45,0,0,1-.25,15.51c-.07.64.93.63,1,0a94.46,94.46,0,0,0,.25-15.51c0-.64-1-.64-1,0Z"/><path class="cls-5" d="M262,99.2c13.47,1.09,27.41,3.92,40.43-1.17.59-.23.33-1.2-.27-1-12.94,5.05-26.78,2.22-40.16,1.13-.64-.05-.64.95,0,1Z"/><path class="cls-5" d="M314.47,91.46c2.66-1.09,5.73-1,8.5-1.82a20.24,20.24,0,0,0,6.57-3.53c.5-.39,0-1.26-.5-.86a19.41,19.41,0,0,1-7,3.6c-2.57.68-5.4.64-7.86,1.65-.59.24-.33,1.21.27,1Z"/><path class="cls-5" d="M320.68,89.81c.27.61,0,1.3.33,1.91.41.86,1.49,1.49,2.2,2.07q2.56,2.11,5.25,4c.52.38,1-.49.5-.86q-2.46-1.79-4.83-3.71a7,7,0,0,1-2-2c-.33-.64-.27-1.29-.57-1.95s-1.12-.08-.86.5Z"/><path class="cls-5" d="M321.4,90.19a8.59,8.59,0,0,0,4.71,1.87c.64.05.64-.95,0-1a7.39,7.39,0,0,1-4-1.57c-.5-.4-1.21.31-.71.71Z"/><path class="cls-5" d="M321.09,91.79a16.46,16.46,0,0,0-4.82,7.37c-.19.62.78.88,1,.27a15.48,15.48,0,0,1,4.56-6.93c.48-.43-.23-1.14-.71-.71Z"/><path class="cls-5" d="M321.11,92.14a12.64,12.64,0,0,0-7.21-1.33c-.63.08-.64,1.08,0,1A11.72,11.72,0,0,1,320.6,93c.57.3,1.08-.56.5-.86Z"/><path class="cls-5" d="M310.82,93.36c-1.89,1.59-3.72,5.57-1.76,7.79a3.19,3.19,0,0,0,1.73.9,16.56,16.56,0,0,1,4.09,1.38c1.81,1,3.17,2.55,5.31,2.88,2.47.38,5.23-.23,7.7-.45,2.17-.19,5.48.13,7.47-.88,3-1.5,4.14-6.8,4.45-9.74.07-.64-.93-.63-1,0a16.57,16.57,0,0,1-1.38,5.24c-.94,2-1.83,3.52-4.21,3.92-3.31.56-6.84.64-10.19.89a8,8,0,0,1-5.43-1.16,24.85,24.85,0,0,0-3.34-2.13,11.72,11.72,0,0,0-1.69-.6c-1.35-.37-1.4-.13-2.39-1.5a2.84,2.84,0,0,1-.53-3.22,5.58,5.58,0,0,1,1.86-2.61c.49-.41-.22-1.12-.71-.71Z"/><path class="cls-5" d="M316.33,104.41a14.47,14.47,0,0,1,2.19,4.25,4.22,4.22,0,0,0,1.12,2c1.34,1,4.18.77,5.72.91a66.67,66.67,0,0,0,16.21-.16c.63-.1.36-1.06-.27-1a63.26,63.26,0,0,1-14.33.26q-1.6-.12-3.19-.29c-1.84-.2-3.21-.21-4.3-2-1-1.56-1.22-3.24-2.44-4.7-.41-.49-1.12.22-.71.71Z"/><path class="cls-5" d="M302.38,113.3c11.35,1,21.21,7.82,32.53,9.23,3.74.47,7.72.37,9.84-3.26,2-3.46.25-7.08-3.07-8.79-.57-.29-1.08.57-.5.86,2.31,1.19,4,3.38,3.28,6.12a5.86,5.86,0,0,1-4.94,4.18c-3.62.49-7.45-.52-10.94-1.42-8.87-2.29-16.95-7.15-26.2-7.93-.64-.05-.64.95,0,1Z"/><path class="cls-5" d="M265,99.67c11.2,3.67,20.18,13.37,32.48,13.54a.5.5,0,0,0,0-1c-12.14-.17-21.14-9.88-32.21-13.51-.61-.2-.88.76-.27,1Z"/><path class="cls-5" d="M277.6,94.91a33.16,33.16,0,0,0,2.55-12.6.5.5,0,0,0-1,0,32.5,32.5,0,0,1-2.52,12.33c-.25.59.72.85,1,.27Z"/><path class="cls-5" d="M223.34,98q16.9.16,33.75,1.46c.64,0,.64-1,0-1Q240.24,97.18,223.34,97a.5.5,0,0,0,0,1Z"/><path class="cls-5" d="M228.83,63.51c8.77-.14,17.52-.75,26.27-1.25S272.43,62,281,60.92c8.34-1,16.52-3,24.82-4.32,3.84-.61,7.8-.87,11.43-2.36,4-1.66,7.57-4.5,12-5,.63-.07.64-1.07,0-1-3.59.39-6.53,2.12-9.67,3.76-3.94,2-7.86,2.7-12.19,3.34-8.84,1.3-17.54,3.48-26.42,4.57-8.56,1.05-17.28.86-25.89,1.35s-17.5,1.11-26.27,1.25a.5.5,0,0,0,0,1Z"/><path class="cls-5" d="M322.76,32.28a13.58,13.58,0,0,0-7,4.91c-.39.51.48,1,.86.5A12.47,12.47,0,0,1,323,33.25a.5.5,0,0,0-.27-1Z"/><path class="cls-5" d="M314.19,31.84l-2.51,1.57c-.54.34,0,1.21.5.86l2.51-1.57c.54-.34,0-1.21-.5-.86Z"/><path class="cls-5" d="M297.18,129.6a33.44,33.44,0,0,0,8,6.2c.56.31,1.07-.55.5-.86a32.56,32.56,0,0,1-7.83-6c-.45-.47-1.15.24-.71.71Z"/><path class="cls-5" d="M306.35,132.17a8.74,8.74,0,0,0,4.11,1.4c.64.05.64-.95,0-1a7.68,7.68,0,0,1-3.61-1.26c-.54-.35-1,.51-.5.86Z"/><path class="cls-5" d="M442.84,147.39q-7,5.09-14.49,9.55a.5.5,0,0,0,.5.86q7.46-4.45,14.49-9.55c.52-.37,0-1.24-.5-.86Z"/><path class="cls-5" d="M439.52,141.05a27.59,27.59,0,0,1-11.77,7.8c-.61.21-.35,1.17.27,1a28.59,28.59,0,0,0,12.21-8.06c.43-.48-.28-1.19-.71-.71Z"/><path class="cls-5" d="M343.32,106.46a4.6,4.6,0,0,1-3-1.61c-.42-.49-1.13.22-.71.71a5.62,5.62,0,0,0,3.73,1.91c.64.07.63-.93,0-1Z"/><path class="cls-5" d="M341.59,108.78l-2.93-2.29c-.5-.39-1.21.31-.71.71l2.93,2.29c.5.39,1.21-.31.71-.71Z"/><path class="cls-5" d="M351.34,99.61l-3.14.62c-.63.13-.36,1.09.27,1l3.14-.62c.63-.13.36-1.09-.27-1Z"/><path class="cls-5" d="M322.13,112a10.71,10.71,0,0,0-1.79,2.64c-.27.58.59,1.09.86.5a9.83,9.83,0,0,1,1.63-2.44c.43-.47-.27-1.18-.71-.71Z"/><path class="cls-5" d="M319.23,111.49a5.36,5.36,0,0,0-1.5,2.08c-.25.59.72.85,1,.27a4.34,4.34,0,0,1,1.25-1.64c.49-.41-.22-1.12-.71-.71Z"/><path class="cls-5" d="M308.24,95.18a34.89,34.89,0,0,0-5.82,6.9c-.35.54.52,1,.86.5a33.88,33.88,0,0,1,5.66-6.7c.48-.44-.23-1.14-.71-.71Z"/><path class="cls-5" d="M730,75q-30,1.4-60,2.69-67.58,2.85-135.19,5c-.64,0-.65,1,0,1C599.94,81.75,665,79,730,76.1,730,75.74,730,75.39,730,75Z"/><path class="cls-5" d="M513,84.38l15.07-.48c.64,0,.64-1,0-1L513,83.38c-.64,0-.64,1,0,1Z"/><path class="cls-5" d="M220.22,62.61C147.43,62.34,74.7,59,2,55c-.06.33-.11.66-.18,1,29.31,1.59,58.63,3.1,88,4.34,43.45,1.84,86.93,3.1,130.42,3.26A.5.5,0,0,0,220.22,62.61Z"/><path class="cls-5" d="M223.34,97c-17.67-.23-35.33-.08-53-.2-19.1-.13-38.22-.7-57.31.32S75,100,55.83,100.29c-18.13.28-36.25.74-54.38,1.27,0,.33,0,.66.05,1,13.5-.4,27-.79,40.5-1,19.16-.36,38.18-1,57.29-2.44,21.46-1.66,42.86-1.54,64.36-1.31,19.89.22,39.79,0,59.68.26A.5.5,0,0,0,223.34,97Z"/><path class="cls-5" d="M395.09,73.78a11.66,11.66,0,0,1,7.68,4.56c.38.51,1.25,0,.86-.5a12.62,12.62,0,0,0-8.28-5c-.63-.1-.9.87-.27,1Z"/><path class="cls-5" d="M402.06,79.33l-1.25,2c-.34.55.52,1,.86.5l1.25-2c.34-.55-.52-1-.86-.5Z"/><path class="cls-5" d="M390.91,82.66A5.21,5.21,0,0,0,395.22,85a.5.5,0,0,0,0-1,4.17,4.17,0,0,1-3.44-1.85c-.36-.53-1.22,0-.86.5Z"/><path class="cls-5" d="M337.85,66.19A6.5,6.5,0,0,0,334.16,61c-.58-.27-1.09.59-.5.86a5.5,5.5,0,0,1,3.2,4.37c.07.63,1.07.64,1,0Z"/><path class="cls-5" d="M331.62,60.18a39.61,39.61,0,0,0-8.17.48c-.63.1-.36,1.07.27,1a38.33,38.33,0,0,1,7.9-.44c.64,0,.64-1,0-1Z"/><path class="cls-5" d="M317,60.89l-4.13,1.38c-.61.2-.35,1.17.27,1l4.13-1.38c.61-.2.35-1.17-.27-1Z"/><path class="cls-5" d="M281.7,95.68A21.44,21.44,0,0,0,285.24,91a.5.5,0,0,0-.86-.5A20.47,20.47,0,0,1,281,95a.5.5,0,0,0,.71.71Z"/><path class="cls-5" d="M287.55,87.2l.23-.92a.5.5,0,0,0-1-.27l-.23.92a.5.5,0,0,0,1,.27Z"/><path class="cls-5" d="M289.76,95.94a21.11,21.11,0,0,0,4.64-6.32c.28-.58-.58-1.09-.86-.5a20.37,20.37,0,0,1-4.49,6.12c-.47.44.24,1.15.71.71Z"/><path class="cls-5" d="M295.38,86.06l1.15-3.67c.19-.62-.77-.88-1-.27l-1.15,3.67c-.19.62.77.88,1,.27Z"/><path class="cls-5" d="M296.64,94.32a4.24,4.24,0,0,0,1.25-2.3c.12-.63-.85-.9-1-.27a3.34,3.34,0,0,1-1,1.86c-.46.45.24,1.15.71.71Z"/><path class="cls-5" d="M334,82.91a6.9,6.9,0,0,0-2.51,1.52c-.47.44.24,1.15.71.71a5.7,5.7,0,0,1,2.07-1.26c.6-.21.34-1.18-.27-1Z"/><path class="cls-5" d="M421.09,80a22.51,22.51,0,0,0,4.27,1.85c.62.19.88-.77.27-1a21.22,21.22,0,0,1-4-1.75.5.5,0,0,0-.5.86Z"/><path class="cls-5" d="M511.89,98.74H516a.5.5,0,0,0,0-1h-4.1a.5.5,0,0,0,0,1Z"/><path class="cls-5" d="M536.48,96a.5.5,0,0,0,0-1,.5.5,0,0,0,0,1Z"/><path class="cls-5" d="M179.38,75.22l-9.56-1.37c-.63-.09-.9.87-.27,1l9.56,1.37c.63.09.9-.87.27-1Z"/><path class="cls-5" d="M648.16,107.95q24-.19,48,.65c.64,0,.64-1,0-1q-24-.84-48-.65a.5.5,0,0,0,0,1Z"/><path class="cls-5" d="M685.17,103.46l15-1c.64,0,.64-1,0-1l-15,1c-.64,0-.64,1,0,1Z"/><path class="cls-5" d="M489.06,115.73a34.35,34.35,0,0,0,4.31-15.35c.21-6.08-1.5-11.91-3.29-17.66-.19-.61-1.16-.35-1,.27,1.68,5.38,3.32,10.84,3.28,16.54a33.17,33.17,0,0,1-4.19,15.71c-.31.56.55,1.07.86.5Z"/><path class="cls-5" d="M477.14,115.15a48.12,48.12,0,0,0,3.57-17.6c-.09-6.06-2.64-11.39-3.81-17.24-.13-.63-1.09-.36-1,.27,1.16,5.77,3.69,11,3.78,17a47.26,47.26,0,0,1-3.53,17.33c-.23.6.74.86,1,.27Z"/></g></g></svg>