<svg xmlns="http://www.w3.org/2000/svg" xmlns:xlink="http://www.w3.org/1999/xlink" width="676" height="104" viewBox="0 0 676 104"><defs><path id="a" d="M9.417 8H.488V.873h8.93z"/></defs><g fill="none" fill-rule="evenodd"><path fill="#EFECD3" d="M673.816 64.455c-.054-1.661-.282-3.371-.589-5.207-.31-1.863-.639-3.725-.963-5.586a8.54 8.54 0 0 0-.22-1.457c-.026-.097-.056-.191-.08-.288-.562-3.195-1.13-6.39-1.699-9.582-.949-5.338-1.136-13.998-4.395-19.341a7.332 7.332 0 0 0-1.492-1.957c-1.255-1.307-2.839-2.225-4.853-2.581-.989-.478-2.175-.715-3.557-.62l-3.408.234c-1.364.094-2.524.437-3.498.95a8.495 8.495 0 0 0-1.608.599c-17.03 8.573-38.477 8.599-57.086 9.869a1275.458 1275.458 0 0 1-63.713 2.727 8.134 8.134 0 0 0-1.82.24L246.93 19.519c-28.905-1.344-57.81-2.69-86.715-4.036-1.183-.055-2.218.125-3.11.48-9.91-.76-19.875-.944-29.835-.947-2.806-.001-5.612.002-8.419.005-52.126-3.68-104.5-4.085-156.499-9.574A437.154 437.154 0 0 1-47.62 3.52c-7.572-1.566-11.653 7.46-8.055 12.08-.215 1.982.395 4.018 2.203 5.626.335.299.683.582 1.026.87.22 1.295.508 3.216.511 3.228l1.26 5.854 2.31 10.73c.707 3.29 1.511 6.383 1.315 9.766-.195 3.346-.87 6.526-.49 9.89.434 3.845 2.042 7.573 4.748 10.219.905 2.684 3.164 4.906 6.775 5.084 41.102 2.026 82.261 2.8 123.41 2.264 20.41-.267 40.814-.852 61.204-1.754 8.402-.371 16.824-.697 25.223-1.241.442.047.901.069 1.394.038a5752.243 5752.243 0 0 1 68.453-3.886c26.918.803 53.843 1.249 80.775.922 45.451-.554 90.608-4.648 135.896-7.822 2.42-.032 4.84-.068 7.258-.095 13.256-.152 26.513-.254 39.77-.314 18.493 1.393 36.84 2.27 55.391 1.917 3.014-.056 6.005-.006 8.977.137.823.209 1.645.427 2.465.656 13.216 3.695 25.26 10.56 38.504 14.184 14.7 4.02 29.867 6.634 44.767 9.808 7.184 1.53 11.221-6.518 8.537-11.316.301-.404.57-.834.805-1.272.033-.03.056-.047.092-.078.45-.342.894-.69 1.334-1.041.98-.883 2.026-1.921 2.706-3.08.06-.1.108-.208.165-.311 2.883-2.415 3.636-6.315 2.708-10.128"/><path fill="#071F2C" d="M673.528 60.4c2.004 6.28.398 14.075-6.811 15.779-.626.148-.361 1.113.266.964 7.714-1.823 9.683-10.2 7.509-17.01-.194-.61-1.16-.348-.964.268M654.9 17.44c3.348.013 7.76.418 10.129 3.115 2.198 2.503 1.853 6.35 2.48 9.42 1.68 8.205 4.013 16.187 5.198 24.503.09.635 1.054.364.964-.266-1.367-9.6-4.365-18.857-5.752-28.421-.42-2.887-1.16-5.58-3.742-7.233-2.696-1.725-6.148-2.106-9.277-2.117-.644-.002-.645.998 0 1m-2.17 4.763c-2.877-.276-5.63-.102-8.23 1.247-.572.296-.067 1.16.504.863 2.444-1.267 5.039-1.369 7.726-1.11.64.063.636-.939 0-1"/><path fill="#071F2C" d="M663.739 79.38c4.489.194 5.311-7.519 5.777-10.604.573-3.786.682-7.496.238-11.309-.41-3.519-1.204-6.984-1.461-10.52-.548-7.532.525-23.21-10.085-24.162-.641-.057-.637.944 0 1 9.721.871 8.586 16.308 9.085 23.162.493 6.783 2.413 13.282 1.463 20.142-.387 2.798-1.004 11.465-5.017 11.291-.643-.027-.642.973 0 1"/><path fill="#071F2C" d="M661.52 47.97c.271 5.244.331 10.272-.249 15.506-.07.64.93.634 1 0 .58-5.233.52-10.263.25-15.506-.034-.64-1.034-.645-1 0m-77.047 19.468c13.472 1.092 27.407 3.919 40.429-1.169.593-.231.335-1.198-.266-.964-12.937 5.055-26.783 2.217-40.163 1.133-.642-.052-.638.948 0 1m52.441-7.739c2.665-1.094 5.73-.993 8.499-1.825 2.436-.733 4.558-1.977 6.566-3.528.502-.387.005-1.256-.504-.863-2.13 1.644-4.348 2.909-6.966 3.605-2.573.682-5.396.635-7.861 1.646-.587.24-.33 1.209.266.965"/><path fill="#071F2C" d="M643.128 58.042c.274.613.041 1.297.333 1.911.413.864 1.493 1.491 2.197 2.071a109.693 109.693 0 0 0 5.246 4.046c.522.38 1.021-.488.505-.863a104.33 104.33 0 0 1-4.825-3.71c-.748-.613-1.577-1.147-2.023-2.013-.332-.64-.275-1.289-.57-1.947-.262-.586-1.124-.078-.863.505"/><path fill="#071F2C" d="M643.85 58.43a8.584 8.584 0 0 0 4.705 1.866c.64.054.638-.946 0-1a7.392 7.392 0 0 1-3.998-1.574c-.5-.395-1.212.31-.707.707m-.31 1.6c-2.224 2.013-3.94 4.49-4.82 7.373-.189.616.776.88.964.266.831-2.722 2.465-5.034 4.563-6.932.478-.434-.23-1.14-.707-.707"/><path fill="#071F2C" d="M643.558 60.371c-2.142-1.126-4.81-1.634-7.215-1.333-.63.08-.638 1.08 0 1 2.236-.28 4.713.147 6.71 1.197.569.3 1.076-.563.505-.864M633.267 61.6c-1.894 1.591-3.715 5.565-1.76 7.785.478.543 1.055.718 1.73.902 1.433.395 2.759.624 4.09 1.38 1.812 1.032 3.169 2.547 5.315 2.876 2.472.38 5.23-.233 7.704-.449 2.17-.188 5.48.13 7.473-.878 2.97-1.5 4.14-6.803 4.453-9.74.068-.64-.933-.635-1 0-.193 1.814-.613 3.574-1.38 5.236-.941 2.04-1.828 3.518-4.21 3.918-3.31.556-6.84.643-10.188.887-2.06.15-3.66-.009-5.434-1.16-1.123-.729-2.098-1.577-3.336-2.129a11.923 11.923 0 0 0-1.691-.6c-1.348-.366-1.404-.128-2.39-1.495-.904-1.256-.983-1.767-.53-3.215.335-1.073 1.01-1.897 1.86-2.612.494-.414-.216-1.118-.706-.707"/><path fill="#071F2C" d="M638.777 72.648c1.076 1.279 1.582 2.729 2.187 4.255.264.664.499 1.542 1.116 1.984 1.339.96 4.185.77 5.723.913 5.377.498 10.859.66 16.212-.162.634-.097.365-1.061-.266-.964-4.726.725-9.571.622-14.326.262a94.823 94.823 0 0 1-3.192-.294c-1.842-.2-3.214-.214-4.303-2.005-.95-1.564-1.218-3.237-2.444-4.696-.415-.493-1.119.218-.707.707"/><path fill="#071F2C" d="M624.832 81.54c11.353.954 21.212 7.814 32.533 9.234 3.74.47 7.718.37 9.842-3.255 2.025-3.46.253-7.084-3.072-8.794-.572-.294-1.078.568-.505.863 2.31 1.189 4.034 3.382 3.276 6.115-.641 2.31-2.64 3.867-4.942 4.18-3.622.49-7.446-.517-10.935-1.417-8.865-2.29-16.95-7.148-26.197-7.926-.641-.055-.638.945 0 1m-37.367-13.633c11.196 3.665 20.175 13.365 32.477 13.543.643.009.644-.991 0-1-12.136-.175-21.139-9.883-32.211-13.507-.613-.201-.876.765-.266.964m12.585-4.763a33.155 33.155 0 0 0 2.555-12.601c.005-.643-.995-.643-1 0a32.5 32.5 0 0 1-2.519 12.335c-.247.594.72.853.964.266m-54.264 3.105c11.264.109 22.518.594 33.75 1.455.641.049.638-.951 0-1a505.467 505.467 0 0 0-33.75-1.455c-.644-.007-.644.993 0 1m5.494-34.502c8.769-.136 17.52-.75 26.273-1.248 8.611-.491 17.327-.297 25.893-1.348 8.34-1.021 16.524-2.994 24.817-4.317 3.841-.613 7.798-.867 11.433-2.357 4.045-1.655 7.567-4.502 12.031-4.989.634-.069.64-1.07 0-1-3.587.392-6.529 2.12-9.673 3.759-3.937 2.05-7.862 2.698-12.19 3.335-8.844 1.303-17.542 3.48-26.418 4.57-8.566 1.051-17.282.855-25.894 1.346-8.753.5-17.504 1.113-26.273 1.25-.643.01-.644 1.01 0 1M645.213.52c-2.85.853-5.238 2.534-7.03 4.905-.389.514.48 1.012.863.505 1.626-2.152 3.853-3.674 6.433-4.446.615-.184.353-1.15-.266-.964m-8.571-.44c-.836.52-1.672 1.044-2.508 1.565-.544.34-.043 1.205.505.864l2.507-1.567c.545-.34.044-1.206-.504-.862"/><g transform="translate(619 96.1)"><mask id="b" fill="#fff"><use xlink:href="#a"/></mask><path fill="#071F2C" d="M.63 1.734a33.444 33.444 0 0 0 8.036 6.2c.564.311 1.068-.553.505-.865a32.56 32.56 0 0 1-7.835-6.043C.891.558.186 1.268.63 1.734" mask="url(#b)"/></g><path fill="#071F2C" d="M628.798 100.407a8.753 8.753 0 0 0 4.11 1.396c.643.053.639-.947 0-1a7.688 7.688 0 0 1-3.605-1.26c-.54-.353-1.042.513-.505.864m36.972-25.713c-1.195-.126-2.236-.711-3.02-1.614-.42-.488-1.125.222-.706.707.964 1.112 2.27 1.754 3.727 1.907.64.066.635-.934 0-1m-1.73 2.323c-.977-.763-1.954-1.525-2.93-2.289-.502-.392-1.215.311-.708.707l2.931 2.29c.501.391 1.214-.312.707-.708m9.748-9.169l-3.14.624c-.631.125-.364 1.09.265.964l3.14-.624c.632-.125.365-1.089-.265-.964m-29.213 12.391a10.69 10.69 0 0 0-1.791 2.644c-.274.578.587 1.086.864.504a9.838 9.838 0 0 1 1.634-2.441c.434-.474-.271-1.183-.707-.707m-2.892-.51c-.68.566-1.163 1.27-1.505 2.081-.25.592.718.851.964.266.274-.65.71-1.192 1.248-1.64.495-.413-.216-1.117-.707-.707m-10.991-16.313a34.936 34.936 0 0 0-5.817 6.903c-.35.543.517 1.044.864.504a33.861 33.861 0 0 1 5.662-6.7c.474-.436-.234-1.142-.709-.707m-88.02-32.566c-77.197-.287-154.319-4.057-231.382-8.301-76.734-4.226-153.46-8.181-230.242-11.489-21.488-.926-42.978-1.84-64.462-2.857C-4.784 7.19-26.178 5.871-47.285 2.206c-.63-.109-.9.854-.266.964C-29.008 6.39-10.23 7.826 8.548 8.805c19.066.994 38.145 1.767 57.217 2.595 38.406 1.666 76.813 3.265 115.21 5.115 77.11 3.715 154.147 8.814 231.28 12.077 43.449 1.838 86.927 3.097 130.417 3.258.644.003.644-.997 0-1m3.114 34.399c-17.667-.23-35.334-.078-53.002-.2-19.104-.13-38.218-.7-57.309.316-19.097 1.02-38.058 2.866-57.197 3.156-19.25.293-38.492.793-57.735 1.364-19.23.567-38.444.942-57.684.993-19.18.052-38.386.118-57.526 1.526-38.74 2.853-77.438 5.225-116.288 5.939-43.499.796-87.02-.02-130.46-2.41-.644-.037-.642.963 0 1 77.572 4.267 155.41 3.478 232.877-2.433 19.186-1.465 38.287-2.424 57.534-2.564 19.233-.138 38.454-.103 57.682-.648 19.258-.545 38.514-1.185 57.777-1.55 19.163-.362 38.175-.963 57.29-2.44 21.46-1.659 42.858-1.544 64.363-1.308 19.892.22 39.786 0 59.678.259.644.008.644-.992 0-1m114.516-30.825c-.257-2.28-1.601-4.255-3.693-5.234-.58-.27-1.089.59-.505.864 1.752.82 2.98 2.43 3.197 4.37.071.632 1.072.64 1 0m-6.233-6.008a39.584 39.584 0 0 0-8.165.476c-.635.102-.365 1.067.265.963a38.4 38.4 0 0 1 7.9-.44c.644.03.643-.97 0-1m-14.592.707l-4.13 1.377c-.609.202-.349 1.169.264.965 1.378-.46 2.755-.92 4.132-1.378.607-.202.347-1.168-.266-.964m-35.327 34.794a21.407 21.407 0 0 0 3.542-4.675c.316-.562-.547-1.066-.863-.505a20.456 20.456 0 0 1-3.387 4.473c-.455.455.252 1.162.708.706m5.853-8.479l.23-.917c.157-.625-.807-.891-.964-.267l-.23.918c-.157.625.807.891.964.266m2.207 8.738a21.118 21.118 0 0 0 4.643-6.32c.277-.578-.585-1.086-.863-.506a20.379 20.379 0 0 1-4.487 6.12c-.471.44.237 1.145.707.706m5.619-9.88l1.147-3.672c.193-.616-.772-.879-.964-.266l-1.147 3.672c-.193.617.772.88.964.266m1.26 8.267a4.24 4.24 0 0 0 1.246-2.302c.116-.629-.848-.899-.964-.265a3.343 3.343 0 0 1-.989 1.86c-.465.447.243 1.153.707.707m37.37-11.414a6.891 6.891 0 0 0-2.51 1.517c-.47.443.239 1.149.707.707a5.687 5.687 0 0 1 2.069-1.26c.604-.21.344-1.175-.266-.964m-154.632-7.691l-9.563-1.367c-.629-.09-.9.875-.266.965l9.563 1.365c.63.092.902-.872.266-.963M9.613 66.755l48 2c.644.027.643-.973 0-1l-48-2c-.643-.026-.642.974 0 1M87.615 63.7c.644 0 .645-1 0-1-.644 0-.645 1 0 1m186.133-27.983l-5-1c-.628-.126-.897.838-.266.964l5 1c.63.126.898-.838.266-.964m33.12 3.051l-6-3c-.574-.287-1.081.575-.505.863l6 3c.574.287 1.08-.575.505-.863"/></g></svg>