<svg xmlns="http://www.w3.org/2000/svg" xmlns:xlink="http://www.w3.org/1999/xlink" width="1440" height="167" viewBox="0 0 1440 167"><defs><path id="a" d="M784.851.353v77.933H.659V.353H784.85z"/></defs><g fill="none" fill-rule="evenodd"><path fill="#FFF" d="M748.584 83.446l6.166-12.42 8.215 6.648-2.653 6.366-3.438 2.27-5.971-1.014z"/><path fill="#EFECD3" d="M709.816 96.219c-.054-1.661-.282-3.371-.589-5.207-.31-1.863-.639-3.725-.963-5.586a8.54 8.54 0 0 0-.22-1.457c-.026-.097-.056-.191-.08-.288-.562-3.195-1.13-6.39-1.699-9.582-.949-5.338-1.136-13.998-4.395-19.341a7.332 7.332 0 0 0-1.492-1.957c-1.255-1.307-2.839-2.225-4.853-2.581-.989-.478-2.175-.715-3.557-.62l-3.408.234c-1.364.094-2.524.437-3.498.95a8.495 8.495 0 0 0-1.608.599c-17.03 8.573-38.477 8.599-57.086 9.869a1275.458 1275.458 0 0 1-63.713 2.727 8.134 8.134 0 0 0-1.82.24L282.93 51.283c-28.905-1.344-57.81-2.69-86.715-4.036-1.183-.055-2.218.125-3.11.48-9.91-.76-19.875-.944-29.835-.947-2.806-.001-5.613.002-8.419.005-52.126-3.68-104.5-4.085-156.499-9.574a437.154 437.154 0 0 1-9.973-1.926c-7.572-1.566-11.653 7.46-8.055 12.08-.215 1.982.395 4.018 2.202 5.626.336.299.684.582 1.027.87.22 1.295.508 3.216.511 3.228l1.26 5.854 2.31 10.73c.707 3.29 1.511 6.383 1.314 9.766-.194 3.346-.87 6.526-.49 9.89.435 3.845 2.042 7.573 4.75 10.219.903 2.684 3.163 4.906 6.774 5.084 41.102 2.026 82.261 2.8 123.41 2.264 20.41-.267 40.814-.852 61.204-1.754 8.402-.371 16.824-.697 25.222-1.241.443.047.902.069 1.395.038a5752.243 5752.243 0 0 1 68.453-3.886c26.918.803 53.843 1.249 80.775.922 45.451-.554 90.608-4.648 135.896-7.822 2.42-.032 4.84-.068 7.258-.095 13.256-.152 26.513-.254 39.77-.314 18.493 1.393 36.84 2.27 55.391 1.917 3.014-.056 6.005-.006 8.977.137.823.209 1.645.427 2.465.656 13.216 3.695 25.26 10.56 38.504 14.184 14.7 4.02 29.867 6.634 44.767 9.808 7.184 1.53 11.221-6.518 8.537-11.316.301-.404.57-.834.805-1.272.033-.03.056-.047.092-.078.45-.342.894-.69 1.334-1.041.98-.883 2.026-1.921 2.706-3.08.06-.1.108-.208.165-.311 2.883-2.415 3.636-6.315 2.708-10.128"/><g transform="translate(736 49.867)"><mask id="b" fill="#fff"><use xlink:href="#a"/></mask><path fill="#D6906D" d="M24.863 31.388a20.941 20.941 0 0 1-4.143 4.333c-2.798-.2-5.51-.9-8.136-2.142 1.431-2.224 2.4-4.647 3.257-7.14.56-.748 1.001-1.527 1.236-2.313 1.783.534 3.591 1.056 5.26 1.887 1.135.565 2.046 1.396 2.997 2.164a6.622 6.622 0 0 0-.471 3.21m759.953 32.706l-4.91-41.778c1.67-4.111-1.556-9.524-6.053-10.255-1-.254-2.102-.286-3.284-.06-37.861.4-75.71 1.564-113.52 3.484-54.026-.987-108.051 3.07-162.069 5.227a2209.45 2209.45 0 0 0-99.328 4.215 14967 14967 0 0 0-205.489 7.292 15422.32 15422.32 0 0 0-60.799 2.71c-11.566-1.464-23.164-2.724-34.695-4.397-5.174-2.433-10.181-5.207-14.639-8.726-4.017-3.17-7.118-7.264-11.188-10.363-3.729-2.84-6.091-7.245-10.387-9.243-4.859-2.26-9.202-.445-14.196-.328C38.732 2 33.637.21 28.14 1.47c-.236-.051-.458-.117-.71-.147a138.23 138.23 0 0 0-4.759-.5c-1.257-.261-2.519-.51-3.816-.464-3.385.119-8.062 2.027-9.978 4.939-1.456 2.212-3.739 3.879-4.155 6.676-.532 3.577 1.99 6.824 4.396 9.182.141.136.297.242.446.36-.851.25-1.633.695-2.343 1.245-3.476 1.019-6.17 3.97-6.517 7.702-.146 1.58.07 2.887.534 4.023.156.948.479 1.875.901 2.762.398.836.878 1.582 1.444 2.313.078.1.176.21.282.32a2.79 2.79 0 0 0-.271.43c-1.572 3.15-3.271 5.87-1.302 9.337 1.654 2.91 4.636 4.08 7.152 5.945-1.125 1.203-1.568 2.669-1.549 4.216-.508 1.437-.375 3.058.789 4.586l.992 1.302a6.938 6.938 0 0 0 1.761 1.64c4.404 3.684 10.037 5.128 15.625 6.474 3.669.883 7.327 1.47 11.009 1.862 5.5 2.042 11.8 2.22 17.606 2.53 4.391.235 8.807.035 12.988-1.44 3.956-1.396 7.537-3.605 11.544-4.9 8.645-2.794 17.706-3.352 26.695-4.134a307.14 307.14 0 0 0 6.71-.671c62.765 3.983 125.566-1.924 188.345-3.011 6.265-.108 12.531-.16 18.797-.152 24.977 1.41 49.996 2.127 74.999 2.874 36.96 1.105 73.812 1.445 110.718-1.178 7.657-.545 15.319-1.095 22.983-1.486 17.476.799 34.938 2.063 52.421 4.028 20.149 2.265 40.285 4.642 60.56 5.43 20.191.786 40.403.355 60.595-.164 21.619-.556 43.239-1.128 64.858-1.694 1.914.218 3.826.455 5.736.724 2.535.355 5.042-.126 6.859-1.583 2.575-1.251 4.665-3.916 4.331-6.753" mask="url(#b)"/></g><path fill="#E35205" d="M851.533 98.676a3.535 3.535 0 0 0-.706-1.907 42.693 42.693 0 0 0-.57-7.25c-.135-.818-.474-1.418-.929-1.83a111.06 111.06 0 0 0-.27-1.948 2.722 2.722 0 0 0-.616-1.378c-.183-1.457-.566-2.472-2.463-2.826-3.05-.567-6.12-1.047-9.178-1.57-.997-.171-2.304.67-1.845 1.845.116.296.221.59.317.886l.615 2.685c.116.509.391.817.726.97.006.05.006.094.017.145a155.948 155.948 0 0 0 2.114 8.9c.472 5.108-.22 10.362-2.033 15.163-.077.124-.147.25-.226.374a3.342 3.342 0 0 0-.526 1.438c-.217.485-.442.964-.683 1.436-.79 1.55 1.056 2.92 2.356 1.818l.106-.09c.794.463 1.756.688 2.7.539 2.616-.411 5.695.603 7.444-1.942 1.061-1.545 1.423-3.473 2.086-5.252.281-.557.544-1.124.796-1.7.01-.017.017-.034.026-.05l-.004-.002c.121-.277.241-.553.357-.835.4-.966.298-1.826-.1-2.52.518-1.568.624-3.271.49-5.1"/><path fill="#071F2C" d="M748.936 84.059c2.357-4.243 4.131-8.763 5.167-13.511.447-2.044.698-4.097.933-6.173.144-1.275.271-2.725.996-3.837.967-1.483 2.712-2.086 4.286-2.657a195.297 195.297 0 0 1 15.096-4.766c4.903-1.34 11.065-3.737 16.127-2.186 4.952 1.517 8.722 6.655 12.02 10.382 3.198 3.612 6.343 7.298 9.982 10.482 3.048 2.666 6.43 5.002 10.212 6.494 4.502 1.774 9.412 2.117 14.174 2.672l18.6 2.173c2.932.342 5.87.769 8.81 1.029 2.047.18 4.107.04 6.154.223.641.058.637-.943 0-1-1.783-.16-3.575-.058-5.36-.163-2.877-.17-5.763-.641-8.626-.974-5.547-.65-11.094-1.296-16.64-1.944-5.608-.655-11.546-.876-16.846-2.981-4.773-1.896-8.873-5.182-12.484-8.774-3.83-3.808-7.2-8.045-10.917-11.96-2.916-3.072-6.132-6.376-10.53-6.99-4.768-.665-9.954 1.203-14.493 2.43a196.865 196.865 0 0 0-15.106 4.73c-1.738.624-3.7 1.219-4.913 2.708-1.288 1.58-1.4 3.679-1.613 5.622-.712 6.525-2.705 12.73-5.892 18.466-.313.564.55 1.068.863.505"/><path fill="#071F2C" d="M749.52 54.244l9.646 3.701c.6.231.86-.735.266-.965l-9.645-3.7c-.601-.23-.862.735-.266.964"/><path fill="#071F2C" d="M758.07 56.436c.1-1.72-.49-3.33-1.639-4.608-.43-.48-1.136.228-.707.706.981 1.091 1.43 2.444 1.345 3.902-.037.645.963.642 1 0m1.611.874a6.157 6.157 0 0 0 .757-3.219c-.026-.64-1.026-.644-1 0a5.13 5.13 0 0 1-.622 2.713c-.307.566.556 1.071.864.505"/><path fill="#071F2C" d="M753.093 70.723c-2.177-.206-5.058.018-7.124-.675-1.97-.661-3.933-5.172-4.438-7.066-.754-2.83 1.285-5.108 2.901-7.22 1.461-1.91 3.128-3.788 5.27-4.95 2.486-1.35 5.207-1.144 7.932-.973 2.607.164 5.215.332 7.822.498l16.623 1.057c.643.04.64-.96 0-1l-21.512-1.368c-2.89-.184-6.02-.73-8.878-.044-2.25.539-4.17 1.9-5.78 3.522-3.096 3.118-6.845 7.267-4.927 11.812a30.621 30.621 0 0 0 1.69 3.356c.454.789 1.314 2.737 2.155 3.224.724.419 2.098.243 2.924.32 1.78.17 3.561.338 5.342.507.641.06.636-.94 0-1m13.5 13.161c5.24-5.645 4.082-14.63 10.171-19.65.497-.41-.214-1.114-.707-.706-6.15 5.07-4.935 14.008-10.17 19.649-.439.47.267 1.18.706.707m-18.229 1.626c3.984 2.662 8.757 3.283 13.272 1.649.601-.216.341-1.183-.266-.963-4.292 1.552-8.707.986-12.502-1.55-.536-.358-1.037.508-.504.864"/><path fill="#071F2C" d="M770.768 75.831c2.07-1.622 4.637-2.017 7.04-2.917 1.915-.718 3.66-1.72 5.297-2.944.51-.381.012-1.249-.504-.864-2.22 1.662-4.597 2.747-7.242 3.554-1.93.589-3.695 1.208-5.3 2.464-.504.396.208 1.1.709.707"/><path fill="#071F2C" d="M773.428 74.146c1.944 1.095 1.077 4.477.988 6.24-.108 2.153-.157 4.176-2.179 5.482-2.374 1.532-5.934 2.24-8.663 2.95-4.724 1.228-9.533 1.078-14.375 1.035-.644-.006-.644.994 0 1 3.51.031 7.066.178 10.556-.265 3.265-.415 6.406-1.438 9.515-2.48 3.105-1.042 5.635-2.094 6.022-5.678.276-2.554 1.45-7.566-1.359-9.147-.562-.317-1.066.547-.505.863m-35.179 5.856c.283-4.376 3.294-7.522 7.335-8.881.607-.204.347-1.17-.265-.964-4.491 1.509-7.757 5.008-8.07 9.845-.042.643.958.64 1 0m2.463 8.526l-2.034-2.452c-.411-.496-1.115.215-.707.707l2.034 2.452c.41.496 1.115-.215.707-.707m53.646-20.098a90.803 90.803 0 0 1-8.192 2.452c-.624.155-.36 1.12.266.965a90.906 90.906 0 0 0 8.192-2.453c.603-.212.343-1.18-.266-.964"/><path fill="#071F2C" d="M769.439 99.948c2.892-.823 5.755-1.89 6.932-4.9.556-1.425.66-2.997.462-4.502-.266-2.028-2.175-4.522-1.787-6.525.122-.629-.841-.898-.963-.265-.53 2.723 1.69 4.92 1.833 7.646.236 4.54-2.84 6.471-6.743 7.582-.618.176-.355 1.142.266.964m-29.479 1.662c7.312 7.732 18.787-.28 27.246-1.217.633-.07.64-1.07 0-1-4.43.49-8.564 2.145-12.82 3.363-4.815 1.38-9.937 2.147-13.72-1.853-.443-.469-1.149.24-.707.707m-.179-12.935c.034 1.494-.86 2.587-1.464 3.877-.521 1.11-.667 2.179-.467 3.39.104.633 1.068.365.964-.266-.435-2.641 2.026-4.41 1.967-7.001-.015-.643-1.015-.646-1 0"/><path fill="#071F2C" d="M746.86 92.73c.798 2.674.937 5.368.391 8.108-.125.629.838.898.964.267.581-2.915.46-5.794-.392-8.641-.184-.615-1.149-.353-.964.266m21.597-1.032c.262 1.311.37 2.622.342 3.957-.015.644.985.644 1 0a19.254 19.254 0 0 0-.378-4.223c-.126-.63-1.09-.363-.964.266m2.667.742c.22 1.064.296 2.13.246 3.215-.031.643.969.641 1 0a13.943 13.943 0 0 0-.282-3.482c-.13-.63-1.094-.363-.964.266m-27.851-17.035c-1.585 2.777-2.045 5.877-1.349 8.997.141.628 1.105.362.965-.266-.638-2.859-.204-5.682 1.247-8.226.32-.56-.544-1.064-.863-.505m-2.644.266a7.29 7.29 0 0 0-1.091 4.199c.029.642 1.029.645 1 0a6.321 6.321 0 0 1 .955-3.693c.339-.55-.526-1.052-.864-.505m4.308 28.969c-.23.604-1.232.669-1.55 1.248-.15.275-.149.55-.23.856-.402 1.48-.193 3.748.096 5.249.27 1.405.892 2.675 1.993 3.619.554.473 1.205.657 1.785 1.05.824.56 1.27 1.358 2.026 1.954.501.393 1.213-.31.707-.707-.839-.661-1.309-1.536-2.228-2.11-1.853-1.158-2.966-1.988-3.347-4.39-.249-1.57-.438-4.024.652-5.32.654-.775.687-.207 1.06-1.183.23-.602-.736-.863-.964-.266m10.051 11.941c4.111-.903 8.419-1.53 12.449-2.742 2.699-.812 4.741-3.292 6.583-5.321 1.716-1.891 1.525-3.655.381-5.833-1.226-2.335-3.031-2.86-5.555-3.055-.642-.05-.639.95 0 1 1.765.137 3.394.409 4.406 2.03.896 1.434 1.145 3.269.339 4.861-.429.847-1.682 1.701-2.355 2.373-.726.723-1.415 1.522-2.258 2.113-1.894 1.328-4.7 1.511-6.93 2.001l-7.326 1.608c-.628.139-.362 1.103.266.965"/><path fill="#071F2C" d="M760.017 118.857c.683-1.965 2.135-3.478 4.034-4.307.588-.255.08-1.118-.505-.863-2.139.934-3.73 2.707-4.493 4.903-.212.61.754.871.964.267m-10.79-8.93c.296 2.552 1.28 4.829 2.95 6.783.419.49 1.124-.22.708-.707a11.248 11.248 0 0 1-2.658-6.076c-.073-.632-1.074-.64-1 0m-1.714 3.179c.242 1.012.953 1.768 1.914 2.137.6.231.86-.736.266-.964-.637-.245-1.06-.786-1.216-1.439-.15-.626-1.113-.36-.964.266m25.353-4.387a41.793 41.793 0 0 0 .529 7.74c.102.635 1.066.366.964-.264a40.421 40.421 0 0 1-.493-7.476c.017-.644-.983-.644-1 0m1.999-12.335c2.653 6.298 1.312 14.498 7.32 19.047.514.389 1.013-.48.506-.863-5.657-4.283-4.362-12.516-6.862-18.45-.246-.584-1.214-.327-.964.266"/><path fill="#071F2C" d="M775.455 95.565a80.117 80.117 0 0 1 6.159 13.771c.205.606 1.172.346.964-.266a81.457 81.457 0 0 0-6.26-14.009c-.317-.56-1.181-.058-.863.504m10.735 5.957c3.571 1.808 7.354 2.87 11.352 3.11.643.037.64-.963 0-1-3.83-.23-7.426-1.242-10.848-2.973-.572-.29-1.079.572-.504.863m-10.216-9.299a27.7 27.7 0 0 0 4.898 5.658c.481.425 1.191-.28.707-.707a26.683 26.683 0 0 1-4.74-5.456c-.352-.537-1.218-.037-.865.505m-35.868-2.91c2.832 1.222 6.05 1.387 9.094 1.54.643.032.64-.968 0-1-2.856-.144-5.928-.256-8.59-1.403-.584-.252-1.094.608-.504.863m62.426-39.145a28.125 28.125 0 0 0-7.584-5.257c-.579-.273-1.087.588-.504.863a27.346 27.346 0 0 1 7.38 5.1c.463.449 1.171-.258.708-.706m-.003-9.348a13.384 13.384 0 0 0-3.915-1.632c-.625-.15-.892.814-.265.964 1.312.316 2.527.822 3.675 1.531.549.34 1.052-.525.505-.863m-73.687-14.51a325.641 325.641 0 0 1 4.565-21.226c.155-.624-.809-.89-.965-.265a324.813 324.813 0 0 0-4.563 21.226c-.115.63.85.9.963.265m-11.016-6.333A93.82 93.82 0 0 0 708.567.236c-.338-.546-1.204-.044-.863.505a92.667 92.667 0 0 1 9.158 19.504c.202.605 1.17.346.964-.268m-14.401 4.474l-9.27-9.07c-.46-.45-1.168.257-.707.707l9.27 9.07c.46.45 1.168-.256.707-.707m32.505 116.156a233.89 233.89 0 0 1 5.223 25.897c.091.635 1.055.365.964-.265a233.631 233.631 0 0 0-5.224-25.898c-.162-.622-1.127-.358-.964.266m-12.712 7.421l-1.15 12.344c-.06.64.94.636 1 0l1.15-12.344c.06-.64-.94-.636-1 0m-12.142-.244a153.245 153.245 0 0 0-6.044 15.305c-.205.611.76.874.964.265a150.833 150.833 0 0 1 5.944-15.066c.266-.58-.596-1.089-.864-.504m59.808-37.194a17.598 17.598 0 0 0-1.748 6.79c-.033.644.967.642 1 0a16.267 16.267 0 0 1 1.612-6.285c.279-.577-.584-1.085-.864-.505m-2.299 12.895c12.565 2.821 26.24 5.664 38.34-.353.578-.287.072-1.149-.503-.863-11.837 5.886-25.298 3.007-37.571.251-.627-.14-.894.823-.266.965m-17.342-3.731c4.102 1.505 8.043 3.486 12.52 2.852.634-.091.364-1.054-.266-.965-4.25.603-8.114-1.43-11.988-2.851-.605-.223-.866.744-.266.964m16.283-15.374l.212 4.902c.028.642 1.028.645 1 0l-.212-4.901c-.027-.642-1.028-.645-1 0m-1.737.002a14.183 14.183 0 0 0 .425 4.824c.164.622 1.13.359.965-.265a13.37 13.37 0 0 1-.39-4.56c.054-.641-.946-.637-1 0m-6.918-43.68a69.558 69.558 0 0 0 3.91 1.983c1.235.575 2.926.99 3.6 2.276.299.57 1.162.065.864-.505-.626-1.196-1.781-1.652-2.96-2.18a69.138 69.138 0 0 1-4.91-2.438c-.564-.308-1.07.555-.503.864m-1.663 1.296c.653.26 1.209.666 1.685 1.181.438.473 1.144-.236.707-.707a5.708 5.708 0 0 0-2.126-1.438c-.598-.238-.857.729-.266.964m-.42 2.539c.77.282 1.499.646 2.194 1.084.547.344 1.049-.522.505-.863a12.883 12.883 0 0 0-2.433-1.186c-.605-.222-.866.744-.266.965m66.318 41.869a145.31 145.31 0 0 1-.644 5.3c-.088.628.875.9.965.264.26-1.85.487-3.705.68-5.564.065-.64-.936-.635-1 0m.701-15.026c.017 3.195-.069 6.384-.257 9.572-.037.643.963.64 1 0 .188-3.188.274-6.377.257-9.571-.003-.643-1.003-.645-1 0m3.981 9.389a39.545 39.545 0 0 1-1.851 9.602c-.2.614.767.877.964.264a40.649 40.649 0 0 0 1.887-9.865c.043-.644-.958-.64-1 0m132.288 15.895c73.018-1.107 146.033-3.778 219.068-2.632 18.365.288 36.696 1.03 55.065.62 17.977-.4 35.886-.883 53.851.213 35.913 2.191 71.65 6.981 107.647 7.82 40.975.957 81.986-2.475 122.923.488.642.047.64-.953 0-1-36.508-2.642-73.085-.209-109.63-.32-36.074-.109-71.836-4.34-107.758-7.078a548.278 548.278 0 0 0-54.987-1.417c-17.999.433-35.898.325-53.894-.076-36.15-.805-72.317-.596-108.47-.022-41.274.654-82.54 1.778-123.815 2.404-.643.01-.645 1.01 0 1"/><path fill="#071F2C" d="M806.925 123.133c7.514-4.633 16.251-5.914 24.927-6.31a319.879 319.879 0 0 1 27.3-.082c19.871.796 39.665 1.175 59.554.879 11.19-.166 22.377-.424 33.564-.73.642-.018.644-1.02 0-1-20.36.557-40.735 1.039-61.103.872-19.519-.16-38.973-1.752-58.499-.973-9.112.365-18.347 1.61-26.247 6.48-.547.338-.046 1.203.504.864m-2.254-3.606c-2.068-2.31-5.187-3.584-7.542-5.604-2.604-2.233-4.802-4.84-6.644-7.733-.344-.54-1.21-.04-.863.505 1.736 2.727 3.771 5.221 6.177 7.388 2.5 2.252 5.952 3.678 8.164 6.151.431.48 1.136-.228.708-.707m-13.238 4.713a7.707 7.707 0 0 0 .925-3.66c0-.644-1-.645-1 0a6.592 6.592 0 0 1-.79 3.155c-.302.567.56 1.073.865.505m-81.905-32.075c2.004 6.279.398 14.074-6.811 15.778-.626.148-.361 1.113.266.964 7.714-1.823 9.683-10.199 7.509-17.009-.194-.61-1.16-.349-.964.267M690.9 49.205c3.348.012 7.76.417 10.129 3.114 2.198 2.503 1.853 6.351 2.48 9.421 1.68 8.204 4.013 16.186 5.198 24.502.09.635 1.054.364.964-.266-1.367-9.599-4.365-18.857-5.752-28.421-.42-2.887-1.16-5.579-3.742-7.233-2.696-1.725-6.148-2.106-9.277-2.117-.644-.002-.645.998 0 1m-2.17 4.764c-2.877-.276-5.63-.102-8.23 1.246-.572.297-.067 1.16.504.863 2.444-1.266 5.039-1.368 7.726-1.11.64.063.636-.938 0-1"/><path fill="#071F2C" d="M699.739 111.145c4.489.194 5.311-7.52 5.777-10.604.573-3.786.682-7.496.238-11.31-.41-3.518-1.204-6.983-1.461-10.52-.548-7.531.525-23.21-10.085-24.161-.641-.057-.637.944 0 1 9.721.87 8.586 16.308 9.085 23.162.493 6.782 2.413 13.281 1.463 20.142-.387 2.797-1.004 11.465-5.017 11.29-.643-.026-.642.974 0 1"/><path fill="#071F2C" d="M697.52 79.734c.271 5.244.331 10.272-.249 15.506-.07.64.93.634 1 0 .58-5.233.52-10.263.25-15.506-.034-.64-1.034-.645-1 0m-77.047 19.468c13.472 1.092 27.407 3.92 40.429-1.169.593-.23.335-1.198-.266-.964-12.937 5.055-26.783 2.217-40.163 1.133-.642-.052-.638.948 0 1m52.441-7.739c2.665-1.094 5.73-.993 8.499-1.825 2.436-.733 4.558-1.977 6.566-3.528.502-.387.005-1.256-.504-.863-2.13 1.644-4.348 2.909-6.966 3.605-2.573.682-5.396.635-7.861 1.646-.587.24-.33 1.209.266.965"/><path fill="#071F2C" d="M679.128 89.807c.274.613.041 1.297.333 1.91.413.865 1.493 1.492 2.197 2.072a109.693 109.693 0 0 0 5.246 4.046c.522.379 1.021-.488.505-.863a104.33 104.33 0 0 1-4.825-3.711c-.748-.612-1.577-1.146-2.023-2.012-.332-.64-.275-1.29-.57-1.947-.262-.586-1.124-.078-.863.505"/><path fill="#071F2C" d="M679.85 90.193a8.584 8.584 0 0 0 4.705 1.867c.64.054.638-.946 0-1a7.392 7.392 0 0 1-3.998-1.574c-.5-.395-1.212.31-.707.707m-.31 1.6c-2.224 2.013-3.94 4.49-4.82 7.373-.189.616.776.88.964.266.831-2.722 2.465-5.034 4.563-6.932.478-.434-.23-1.14-.707-.707"/><path fill="#071F2C" d="M679.558 92.136c-2.142-1.126-4.81-1.634-7.215-1.333-.63.079-.638 1.08 0 1 2.236-.28 4.713.146 6.71 1.196.569.3 1.076-.563.505-.863m-10.291 1.227c-1.894 1.592-3.715 5.566-1.76 7.786.478.543 1.055.718 1.73.902 1.433.395 2.759.624 4.09 1.38 1.812 1.032 3.169 2.547 5.315 2.876 2.472.38 5.23-.233 7.704-.449 2.17-.188 5.48.13 7.473-.878 2.97-1.5 4.14-6.803 4.453-9.74.068-.64-.933-.635-1 0-.193 1.814-.613 3.574-1.38 5.236-.941 2.04-1.828 3.518-4.21 3.918-3.31.556-6.84.643-10.188.887-2.06.15-3.66-.009-5.434-1.16-1.123-.729-2.098-1.577-3.336-2.129a11.923 11.923 0 0 0-1.691-.6c-1.348-.366-1.404-.128-2.39-1.495-.904-1.256-.983-1.767-.53-3.215.335-1.073 1.01-1.897 1.86-2.612.494-.414-.216-1.118-.706-.707"/><path fill="#071F2C" d="M674.777 104.412c1.076 1.28 1.582 2.73 2.187 4.255.264.664.499 1.542 1.116 1.984 1.339.96 4.185.771 5.723.913 5.377.498 10.859.66 16.212-.162.634-.097.365-1.06-.266-.964-4.726.725-9.571.622-14.326.262a94.823 94.823 0 0 1-3.192-.294c-1.842-.199-3.214-.214-4.303-2.005-.95-1.564-1.218-3.237-2.444-4.696-.415-.493-1.119.218-.707.707"/><path fill="#071F2C" d="M660.832 113.304c11.353.955 21.212 7.815 32.533 9.235 3.74.469 7.718.37 9.842-3.256 2.025-3.46.253-7.083-3.072-8.794-.572-.294-1.078.568-.505.863 2.31 1.189 4.034 3.382 3.276 6.115-.641 2.31-2.64 3.867-4.942 4.18-3.622.49-7.446-.517-10.935-1.417-8.865-2.29-16.95-7.148-26.197-7.926-.641-.054-.638.946 0 1M623.465 99.67c11.196 3.666 20.175 13.366 32.477 13.544.643.009.644-.991 0-1-12.136-.175-21.139-9.883-32.211-13.507-.613-.201-.876.765-.266.964m12.585-4.763a33.155 33.155 0 0 0 2.555-12.6c.005-.644-.995-.644-1 0a32.5 32.5 0 0 1-2.519 12.334c-.247.594.72.853.964.266m-54.264 3.105c11.264.109 22.518.594 33.75 1.455.641.049.638-.951 0-1a505.467 505.467 0 0 0-33.75-1.455c-.644-.007-.644.993 0 1m5.494-34.501c8.769-.136 17.52-.75 26.273-1.25 8.611-.49 17.327-.296 25.893-1.346 8.34-1.022 16.524-2.995 24.817-4.317 3.841-.613 7.798-.868 11.433-2.357 4.045-1.656 7.567-4.502 12.031-4.99.634-.068.64-1.07 0-1-3.587.392-6.529 2.12-9.673 3.759-3.937 2.05-7.862 2.698-12.19 3.336-8.844 1.303-17.542 3.479-26.418 4.569-8.566 1.052-17.282.856-25.894 1.347-8.753.499-17.504 1.113-26.273 1.249-.643.01-.644 1.01 0 1m93.934-31.228c-2.85.853-5.238 2.534-7.03 4.905-.389.514.48 1.012.863.505 1.626-2.152 3.853-3.674 6.433-4.446.615-.184.353-1.15-.266-.964m-8.571-.44c-.836.52-1.672 1.044-2.508 1.565-.544.34-.043 1.206.505.864l2.507-1.566c.545-.341.044-1.206-.504-.863m-17.012 97.754a33.444 33.444 0 0 0 8.036 6.2c.564.312 1.068-.552.505-.864a32.56 32.56 0 0 1-7.835-6.044c-.445-.466-1.15.242-.707.708m9.169 2.572a8.753 8.753 0 0 0 4.11 1.397c.643.053.639-.947 0-1a7.688 7.688 0 0 1-3.605-1.26c-.54-.353-1.042.513-.505.864m136.49 15.221a196.876 196.876 0 0 1-14.495 9.548c-.552.329-.049 1.194.505.863a197.089 197.089 0 0 0 14.495-9.548c.516-.374.018-1.241-.505-.863m-3.323-6.337c-3.225 3.6-7.192 6.242-11.768 7.8-.606.207-.345 1.173.266.965 4.74-1.615 8.869-4.328 12.209-8.058.428-.478-.277-1.188-.707-.707m-96.195-34.597c-1.195-.126-2.236-.711-3.02-1.614-.42-.488-1.125.222-.706.707.964 1.112 2.27 1.754 3.727 1.907.64.066.635-.934 0-1m-1.73 2.323c-.977-.763-1.954-1.525-2.93-2.289-.502-.392-1.215.311-.708.707l2.931 2.29c.501.391 1.214-.312.707-.708m9.748-9.169l-3.14.624c-.631.125-.364 1.09.265.964l3.14-.624c.632-.125.365-1.089-.265-.964"/><path fill="#071F2C" d="M680.576 112.003a10.69 10.69 0 0 0-1.791 2.644c-.274.578.587 1.086.864.504a9.838 9.838 0 0 1 1.634-2.441c.434-.474-.271-1.183-.707-.707m-2.892-.51c-.68.566-1.163 1.27-1.505 2.081-.25.592.718.851.964.266.274-.65.71-1.192 1.248-1.64.495-.413-.216-1.117-.707-.707M666.693 95.18a34.936 34.936 0 0 0-5.817 6.903c-.35.543.517 1.045.864.505a33.861 33.861 0 0 1 5.662-6.7c.474-.436-.234-1.142-.709-.707M893.322 83.68c80.316-2.387 160.588-5.991 240.855-9.646 40.09-1.827 80.178-3.838 120.284-5.256 40.004-1.414 80.024-2.221 120.04-3.13 44.937-1.022 89.875-2.182 134.767-4.452.64-.034.644-1.034 0-1-79.984 4.046-160.082 4.535-240.117 7.088-80.242 2.56-160.428 7.05-240.639 10.435-45.053 1.9-90.115 3.62-135.19 4.96-.643.02-.645 1.02 0 1m-21.829.705a5055.8 5055.8 0 0 0 15.072-.48c.642-.02.645-1.02 0-1a5055.8 5055.8 0 0 1-15.072.48c-.642.02-.645 1.02 0 1m-292.82-21.77c-77.197-.287-154.319-4.057-231.382-8.3-76.734-4.227-153.46-8.182-230.242-11.49-21.488-.926-42.978-1.84-64.462-2.857-21.372-1.013-42.766-2.332-63.873-5.997-.63-.109-.9.854-.267.964C6.995 38.154 25.77 39.59 44.55 40.57c19.066.994 38.145 1.767 57.217 2.595 38.406 1.666 76.813 3.265 115.21 5.115 77.11 3.715 154.147 8.814 231.28 12.077 43.449 1.838 86.927 3.097 130.417 3.258.644.003.644-.997 0-1m3.112 34.398c-17.667-.23-35.334-.078-53.002-.2-19.104-.13-38.218-.7-57.309.317-19.097 1.019-38.058 2.865-57.197 3.155-19.25.293-38.492.794-57.735 1.364-19.23.568-38.444.943-57.684.994-19.18.05-38.386.118-57.526 1.526-38.74 2.852-77.438 5.225-116.288 5.938-43.499.797-87.02-.02-130.46-2.41-.644-.036-.642.964 0 1 77.572 4.268 155.41 3.479 232.877-2.432 19.186-1.465 38.287-2.424 57.534-2.564 19.233-.138 38.454-.103 57.682-.648 19.258-.546 38.514-1.186 57.777-1.55 19.163-.362 38.175-.963 57.29-2.44 21.46-1.66 42.858-1.545 64.363-1.31 19.892.22 39.786.002 59.678.26.644.008.644-.992 0-1m171.755-23.237c3.09.474 5.804 2.05 7.681 4.561.38.51 1.25.011.863-.505-2.032-2.719-4.914-4.504-8.278-5.02-.63-.098-.9.866-.266.964m6.966 5.555l-1.253 1.998c-.344.547.521 1.049.863.505l1.253-1.998c.344-.547-.521-1.049-.863-.505m-11.146 3.324c.98 1.46 2.547 2.322 4.308 2.346.644.008.644-.992 0-1a4.171 4.171 0 0 1-3.444-1.85c-.358-.532-1.224-.032-.864.504m-53.059-16.467c-.257-2.28-1.601-4.255-3.693-5.234-.58-.27-1.089.59-.505.864 1.752.82 2.98 2.43 3.197 4.37.071.632 1.072.64 1 0m-6.233-6.008a39.584 39.584 0 0 0-8.165.477c-.635.102-.365 1.066.265.963a38.4 38.4 0 0 1 7.9-.44c.644.029.643-.971 0-1m-14.592.706l-4.13 1.377c-.609.202-.349 1.169.264.965 1.378-.46 2.755-.92 4.132-1.378.607-.202.347-1.168-.266-.964M640.149 95.68a21.407 21.407 0 0 0 3.542-4.675c.316-.561-.547-1.066-.863-.505a20.456 20.456 0 0 1-3.387 4.473c-.455.456.252 1.163.708.707m5.853-8.48l.23-.917c.157-.625-.807-.89-.964-.267l-.23.918c-.157.625.807.891.964.266m2.207 8.738a21.118 21.118 0 0 0 4.643-6.32c.277-.578-.585-1.086-.863-.506a20.379 20.379 0 0 1-4.487 6.12c-.471.44.237 1.145.707.706m5.619-9.879l1.147-3.672c.193-.616-.772-.88-.964-.266l-1.147 3.672c-.193.617.772.879.964.266m1.26 8.266a4.24 4.24 0 0 0 1.246-2.302c.116-.629-.848-.899-.964-.265a3.343 3.343 0 0 1-.989 1.86c-.465.447.243 1.153.707.707m37.37-11.414a6.891 6.891 0 0 0-2.51 1.517c-.47.443.239 1.15.707.707a5.687 5.687 0 0 1 2.069-1.259c.604-.21.344-1.176-.266-.965m87.082-2.951a22.513 22.513 0 0 0 4.27 1.85c.615.194.878-.772.265-.964a21.345 21.345 0 0 1-4.03-1.748c-.563-.316-1.068.548-.506.863m90.801 18.781h4.098c.643 0 .644-1 0-1h-4.099c-.644 0-.645 1 0 1m24.59-2.732c.644 0 .645-1 0-1-.644 0-.645 1 0 1M537.826 75.22l-9.563-1.366c-.629-.09-.9.874-.266.965l9.563 1.365c.63.09.902-.873.266-.964M45.613 98.52l48 2c.644.027.643-.973 0-1l-48-2c-.643-.026-.642.974 0 1m78.002-3.056c.644 0 .645-1 0-1-.644 0-.645 1 0 1m186.133-27.983l-5-1c-.628-.126-.897.838-.266.964l5 1c.63.126.898-.838.266-.964m33.12 3.051l-6-3c-.574-.287-1.081.575-.505.863l6 3c.574.287 1.08-.575.505-.863m663.743 37.416c16.003-.128 32.006.09 48 .652.643.023.643-.977 0-1-15.994-.562-31.997-.78-48-.652-.643.005-.645 1.005 0 1m37.004-4.484l15-1c.64-.043.644-1.043 0-1l-15 1c-.639.042-.644 1.043 0 1m368-28a341.445 341.445 0 0 1-39 2c-.644-.004-.644.996 0 1 13.031.078 26.046-.59 39-2 .633-.07.64-1.07 0-1m-43 12h-11c-.644 0-.645 1 0 1h11c.644 0 .645-1 0-1m-521.11 28.267c2.598-4.73 4.124-9.949 4.312-15.354.212-6.082-1.498-11.914-3.292-17.658-.192-.612-1.158-.35-.965.266 1.68 5.38 3.325 10.845 3.276 16.536-.048 5.525-1.541 10.874-4.194 15.705-.31.565.553 1.07.863.505m-11.919-.58c2.126-5.623 3.653-11.548 3.567-17.599-.087-6.063-2.638-11.392-3.813-17.238-.127-.63-1.09-.363-.964.267 1.16 5.765 3.685 10.983 3.777 16.971.091 5.964-1.436 11.793-3.53 17.333-.229.603.737.864.963.266"/></g></svg>