<svg xmlns="http://www.w3.org/2000/svg" xmlns:xlink="http://www.w3.org/1999/xlink" width="300" height="828" viewBox="0 0 300 828">
    <defs>
        <path id="a" d="M0 1.066V.074h10.234v.992H0z"/>
        <path id="c" d="M3.842.04v4.884H.023V.04h3.82z"/>
        <path id="e" d="M11.412 25.763H.28V.27h11.132z"/>
    </defs>
    <g fill="none" fill-rule="evenodd">
        <path fill="#F2F2F2" d="M203.562 797.5c-.335-.543-1.006-.411-1.301-.023-.021-.003-.04-.01-.061-.012-4.89-.51-9.63 2.156-14.04 3.92-1.061.426-2.138.838-3.218 1.25-5.021 1.68-10.053 3.333-15.061 5.049-4.198 1.438-7.465 4.476-11.353 6.569l-.096.021c-1.155.277-2.14.856-2.996 1.61-.98-1.983-1.966-3.967-2.841-5.991-1.163-2.693-1.424-5.694-3.106-8.155-.97-1.422-1.7-2.543-2.012-4.283-.25-1.39-.422-2.73-.93-4.058-1.075-2.815-2.594-5.504-3.911-8.212a1.147 1.147 0 0 0-.513-.545c-.172-.786-1.496-.721-1.517.197-.002.069.001.138 0 .207a1.276 1.276 0 0 0-.182 1.434c.072.15.15.3.225.449.367 6.571 3.054 12.863 5.253 18.997 2.425 6.767 4.394 14.086 7.761 20.454-.319.481-.13 1.264.58 1.183 11.288-1.296 20.77-7.606 30.162-13.513 2.512-1.58 5.029-3.274 7.802-4.365 2.402-.945 5.43-.493 7.621-1.816 3.039-1.837 5.76-7.072 3.734-10.367"/>
        <path fill="#E35205" d="M149.293 733.261l-3.472 18.481-3.625 30.698 20.59-21.82.634-.749 29.588 3.64-21.756-19.66-16.965-14.322-4.054-2.325z"/>
        <path fill="#1D1E1B" d="M142.197 782.44l3.787-28.09c1.213-8.996 2.302-18.049 4.693-26.825 15.303 10.26 28.014 23.742 42.253 35.336.254.206.618-.154.362-.362-14.31-11.652-27.082-25.203-42.474-35.497l.007-.027c.082-.294-.33-.427-.464-.195-.162.042-.256.274-.128.424-2.426 8.833-3.521 17.95-4.743 27.01l-3.787 28.09c-.044.322.45.462.494.136"/>
        <path fill="#1D1E1B" d="M205.96 795.635a190.204 190.204 0 0 1-12.279-31.626c.118-.12.072-.38-.13-.436l-.045-.152c-.085-.3-.527-.193-.498.09a309.087 309.087 0 0 1-29.32-4.11c-.05-.168-.264-.287-.419-.121l-.034.037-.263-.049a.253.253 0 0 0-.15.02l-.207-.54c-.117-.306-.613-.174-.494.135l.444 1.159a1037.72 1037.72 0 0 0-20.49 22.702c-.181-.072-.435.135-.32.37a230.79 230.79 0 0 1 12.679 32.01c.097.313.592.18.494-.136a231.664 231.664 0 0 0-12.57-31.79 1037.64 1037.64 0 0 1 20.41-22.623l.018.046c.117.304.613.172.494-.137l-.125-.326.265-.287a310.42 310.42 0 0 0 29.735 4.166c3.13 10.86 7.22 21.42 12.218 31.557a191.444 191.444 0 0 0-25.016 8.098 3.111 3.111 0 0 0-.313-.82c-.161-.287-.604-.029-.443.26.134.237.226.487.279.749a191.348 191.348 0 0 0-25.118 12.361c-.284.167-.027.61.259.443a190.936 190.936 0 0 1 24.993-12.307c.15.126.428.071.422-.166a190.967 190.967 0 0 1 25.371-8.2c.17-.043.224-.234.153-.377M162.435 718.534c.17.283.613.026.442-.258l-2.839-4.737c-.17-.282-.613-.025-.443.26l2.84 4.735M167.989 719.253c.1.312.595.179.494-.137l-2.502-7.791c-.1-.313-.595-.179-.494.136l2.502 7.792M150.66 728.407c.37.834.739 1.67 1.107 2.503.134.302.575.04.443-.258l-1.107-2.504c-.133-.3-.575-.04-.443.259M152.898 734.124l.62 1.621c.118.305.614.173.495-.136l-.621-1.621c-.117-.305-.613-.173-.494.136M154.328 738.16c.325.514.57 1.057.739 1.641.09.316.585.182.494-.136a6.833 6.833 0 0 0-.79-1.763c-.176-.278-.62-.021-.443.258M156.037 742.951c.37.63.658 1.29.865 1.991.094.316.588.181.494-.136a9.379 9.379 0 0 0-.917-2.113c-.167-.285-.61-.027-.442.258M158.069 748.547l.703 1.334c.153.291.596.033.442-.259l-.703-1.334c-.153-.291-.596-.033-.442.259M160.079 753.555l.71 1.853c.117.305.612.173.494-.136l-.71-1.853c-.117-.305-.613-.173-.494.136"/>
        <path fill="#1D1E1B" d="M165.554 765.723l-.71-1.853c-.117-.305-.613-.172-.494.136l.71 1.854c.117.304.612.172.494-.137M167.827 770.962l-.665-1.737c-.117-.305-.613-.173-.494.136l.665 1.737c.117.305.613.173.494-.136M169.852 775.898l-.577-1.505c-.117-.305-.613-.173-.494.136l.577 1.506c.116.304.612.172.494-.137M171.778 780.605a4.366 4.366 0 0 0-.576-1.323c-.179-.276-.622-.019-.442.259.242.373.415.768.524 1.2.08.32.574.184.494-.136M173.447 785.28l-.533-1.39c-.117-.305-.612-.173-.494.136l.533 1.39c.117.305.612.173.494-.136M175.612 790.958a6.672 6.672 0 0 0-.776-1.77c-.174-.28-.617-.023-.442.258.322.517.562 1.06.724 1.648.087.318.582.183.494-.136M177.104 795.17l-.533-1.39c-.117-.306-.612-.173-.494.136l.533 1.39c.117.304.613.172.494-.137M179.03 800.541l-.532-1.39c-.117-.304-.613-.172-.494.137l.532 1.39c.117.304.612.172.494-.137M148.65 785.741l1.475 3.852c.117.305.613.173.495-.136l-1.476-3.852c-.117-.304-.613-.173-.494.136M152.863 778.54l-.792 1.777c-.133.298.308.56.442.258l.792-1.776c.133-.299-.308-.56-.442-.259M166.992 746.457l.756.693c.243.221.606-.14.362-.363l-.755-.692c-.243-.222-.607.139-.363.362M190.14 773.62a4.114 4.114 0 0 1-1.6-3.036c-.02-.327-.533-.33-.513 0 .087 1.404.743 2.621 1.854 3.48.261.2.516-.244.259-.444M131.831 760.544a39.618 39.618 0 0 0-7.742-2.861c-.32-.082-.456.413-.136.494a38.979 38.979 0 0 1 7.62 2.81c.295.145.554-.297.258-.443"/>
        <g transform="translate(113 768.638)">
            <mask id="b" fill="#fff">
                <use xlink:href="#a"/>
            </mask>
            <path fill="#1D1E1B" d="M9.99.338A32.72 32.72 0 0 0 .186.567c-.324.057-.187.55.136.494 3.21-.559 6.44-.624 9.67-.21.326.042.323-.471 0-.513" mask="url(#b)"/>
        </g>
        <path fill="#1D1E1B" d="M124.864 800.686c-1.373-.188-2.709.315-3.566 1.417-.2.257.16.622.362.362.736-.946 1.868-1.449 3.067-1.285.323.044.463-.45.137-.494M203.735 755.51a13.194 13.194 0 0 0 2.602 2.87c.254.207.618-.153.363-.362a12.77 12.77 0 0 1-2.522-2.767c-.183-.273-.627-.016-.443.258"/>
        <g transform="translate(204.724 750.703)">
            <mask id="d" fill="#fff">
                <use xlink:href="#c"/>
            </mask>
            <path fill="#1D1E1B" d="M.138.527a8.328 8.328 0 0 1 3.195 4.22c.106.311.601.178.495-.135A8.912 8.912 0 0 0 .397.085C.124-.103-.132.342.138.527" mask="url(#d)"/>
        </g>
        <g>
            <path fill="#F2F2F2" d="M79.868 737.017c-.862.966-5.264 3.047-5.597 4.281-.566.027-14.623 10.609-20.053 16.754-2.711 3.068-5.47 6.12-8.602 8.769-2.513 2.127-4.336 4.306-7.2 5.932-9.317-11.592-20.015-23.404-30.04-34.39-1.223-1.34-3.443-1.518-4.967-.641-4.517 2.598-4.19 8.438-1.096 12.01 1.599 1.846 3.536 2.964 4.718 5.175 1.213 2.27 2.176 4.524 3.844 6.519 3.127 3.736 7.596 6.109 10.802 9.842 3.165 3.684 5.401 8.083 6.762 12.726.572 1.953 2.95 3.695 5.043 2.864 11.257-4.473 25.115-20.14 34.504-27.991 9.14-7.64 12.896-7.449 15.044-19.152.947-5.16.558-6.865-3.162-2.698"/>
            <path fill="#E35205" d="M47.714 692.084l37.443 3.32v20.932l-1.184 15.815-37.135-39.417z"/>
            <path fill="#2D2926" d="M20.579 750.878c8.327-6.764 17.255-12.741 25.617-19.462 4.155-3.34 8.168-6.87 11.837-10.74 1.844-1.946 3.524-4.035 5.339-6.005 2.002-2.176 4.311-3.895 6.743-5.559 5.278-3.611 9.936-7.886 14.525-12.324.237-.23-.125-.591-.362-.362-4.27 4.128-8.587 8.217-13.485 11.602-2.194 1.516-4.439 2.972-6.37 4.826-1.946 1.868-3.602 4.013-5.41 6.01-7.274 8.038-16.01 14.54-24.704 20.941-4.752 3.499-9.511 6.99-14.093 10.71-.256.208.108.569.363.363"/>
            <path fill="#2D2926" d="M46.476 693.097c12.937 12.275 25.163 25.22 36.63 38.88.212.254.573-.11.362-.361C72 717.955 59.775 705.01 46.838 692.734c-.24-.227-.602.135-.362.363M2.015 731.178l36.275 40.659c.22.246.58-.118.362-.362l-36.275-40.66c-.22-.246-.581.117-.362.363"/>
            <path fill="#2D2926" d="M2.522 730.91c2.081-3.01 5.58-4.379 8.499-6.39 3.01-2.073 5.722-4.692 8.373-7.195 5.644-5.329 10.923-11.03 16.639-16.285 3.313-3.045 6.776-5.923 10.49-8.47.27-.186.014-.63-.259-.443-6.475 4.442-12.151 9.88-17.69 15.415-2.851 2.848-5.676 5.724-8.587 8.513-2.871 2.75-5.81 5.619-9.067 7.915-3.036 2.14-6.659 3.525-8.84 6.682-.188.272.256.528.442.259M47.714 692.084c12.405 1.975 24.874 3.28 37.43 3.716.33.01.33-.502 0-.513-12.51-.434-24.933-1.73-37.294-3.697-.322-.052-.461.441-.136.494"/>
            <path fill="#2D2926" d="M85.157 695.403l-.312 19.694-.152 9.594c-.051 3.224.546 6.932-2.066 9.311-2.295 2.09-4.83 3.96-7.236 5.92l-7.719 6.289c-4.46 3.633-8.963 7.219-13.372 10.914-4.638 3.886-9.036 8.016-13.149 12.454-.224.242.137.605.362.363 7.762-8.376 16.703-15.37 25.532-22.563 5.21-4.245 10.563-8.362 15.648-12.755 2.088-1.805 2.413-3.739 2.457-6.398l.16-10.1.36-22.723c.005-.33-.508-.33-.513 0"/>
            <path fill="#1D1E1B" d="M46.85 776.058l-5.555 2.973c-.29.155-.032.598.259.442l5.555-2.973c.29-.155.033-.598-.258-.442M48.692 783.099c-.87 1.181-2.145 1.914-3.592 2.12-.326.047-.187.54.136.495 1.588-.227 2.95-1.069 3.898-2.357.197-.266-.248-.522-.442-.258M41.3 687.832l5.935-2.114c.31-.11.176-.605-.136-.494l-5.936 2.114c-.308.11-.175.605.137.494M40.534 680.607a5.313 5.313 0 0 1 3.856-1.582c.33.002.33-.51 0-.513a5.85 5.85 0 0 0-4.218 1.732c-.234.233.129.596.362.363"/>
            <path fill="#2D2926" d="M29.616 707.37c.15.308.562.726.9.38.237-.242.154-.74-.238-.726-.329.011-.33.524 0 .512-.075-.167-.121-.21-.139-.13.098-.017.116-.04.055-.072-.011-.057-.108-.164-.136-.223-.144-.297-.586-.037-.442.258M34.17 705.533c-.09.457.29.968.79.86.46-.1.662-.645.442-1.04-.16-.287-.603-.03-.442.259.165.296-.358.372-.296.058.063-.322-.43-.46-.494-.137M38.608 705.25l1.525-.262c.324-.055.187-.549-.136-.494l-1.525.262c-.325.056-.187.55.136.494M44.06 704.67a.843.843 0 0 1 .676-.19c.323.051.462-.443.136-.495a1.408 1.408 0 0 0-1.175.323c-.252.213.112.573.363.362M48.165 703.527c.398-.3.861-.385 1.337-.23.314.104.45-.391.136-.493a1.891 1.891 0 0 0-1.732.281c-.26.196-.005.641.259.442M54.52 702.592l1.529-.238c.325-.05.187-.545-.136-.494l-1.53.238c-.324.051-.187.545.137.494M59.432 701.628l1.384-.395c.317-.09.182-.586-.136-.494l-1.384.395c-.317.09-.182.585.136.494M64.474 700.753l1.697-.331c.324-.064.187-.557-.136-.494l-1.698.33c-.323.063-.186.558.137.495M68.824 700.02a2.384 2.384 0 0 1 1.559-.368c.328.033.325-.48 0-.512a2.845 2.845 0 0 0-1.817.438c-.278.175-.02.62.258.442M73.439 699.209c.405.007.809.013 1.213.021.33.006.33-.507 0-.512l-1.213-.022c-.33-.006-.33.506 0 .513M78.876 698.068l1.99-.372c.324-.06.187-.555-.136-.494l-1.99.372c-.324.06-.187.555.136.494M81.335 704.06l-.541 1.262c-.128.3.313.561.442.26.18-.423.361-.843.542-1.264.128-.3-.313-.562-.443-.259M79.357 708.439l-.497 1.351c-.113.31.382.444.495.136l.496-1.35c.114-.31-.38-.445-.494-.137M77.467 713.126l-.102 1.514c-.022.33.491.328.513 0l.101-1.514c.022-.33-.49-.328-.512 0M76.036 717.46a4.174 4.174 0 0 0-.556 2.088c0 .33.512.33.512 0 0-.654.162-1.263.487-1.83.164-.287-.28-.545-.443-.259M74.476 722.408l-.67 1.49c-.135.299.307.56.442.26l.67-1.49c.135-.3-.307-.56-.442-.26M72.256 727.076l-.343.897c-.118.308.377.441.494.136l.343-.896c.117-.309-.378-.443-.494-.137M71.087 730.463c-.224.497-.449.993-.672 1.49-.135.298.306.559.442.259l.672-1.49c.135-.299-.306-.56-.442-.26M69.19 735.152l-.184.752c-.078.32.416.456.494.136l.184-.752c.079-.32-.415-.457-.494-.136M68.052 739.667a1.14 1.14 0 0 0-.48 1.174c.058.324.552.187.493-.137a.604.604 0 0 1 .245-.594c.267-.19.012-.634-.258-.443M66.524 743.693l-.228 1.66c-.044.323.45.463.494.137l.228-1.66c.045-.323-.45-.463-.494-.137M82.663 699.557c.01.58-.107 1.133-.362 1.655-.144.296.297.556.442.259a4.164 4.164 0 0 0 .433-1.914c-.005-.33-.518-.33-.513 0"/>
            <path fill="#1D1E1B" d="M41.505 716.406l-1.757 1.613c-.244.222.119.584.362.362l1.757-1.612c.244-.224-.119-.585-.362-.363M33.29 727.377l-2.956-1.82c-.281-.174-.539.27-.259.442l2.958 1.82c.28.174.539-.27.258-.442M39.226 761.205l-1.054.967c-.244.223.12.585.362.363l1.055-.967c.243-.224-.12-.586-.363-.363M35.803 759.123c.33 0 .33-.512 0-.512s-.33.512 0 .512M91.54 734.779l-.27 5.124c-.017.329.495.328.512 0l.271-5.124c.017-.33-.495-.33-.512 0M94.587 738.62v1.025c0 .33.512.33.512 0v-1.025c0-.33-.512-.33-.512 0M87.993 687.643l-9.48-1.281c-.322-.044-.461.45-.136.494l9.48 1.281c.323.044.462-.45.136-.494M82.288 683.022h-3.33c-.33 0-.33.513 0 .513h3.33c.33 0 .33-.513 0-.513"/>
        </g>
        <g>
            <path fill="#E35205" d="M255.128 136.084c.147-.283 14.417-19.538 14.417-19.538l-3.49-5.601-4.624-5.141-27.415 15.676-18.488 8.804-32.523 20.106 57.467-11.516 14.656-2.79z"/>
            <path fill="#E35205" d="M179.95 151.213l18.611-18.318 27.422-31.49 24.23-4.907 4.386 7.376-22.648 13.158-14.56 11.602-11.223 7.445z"/>
            <path fill="#2D2926" d="M179.391 151.296c3.315-2.977 6.645-5.939 9.943-8.936 3.273-2.974 6.28-6.17 9.227-9.465 5.914-6.61 11.657-13.37 17.445-20.088a813.964 813.964 0 0 1 9.977-11.403c.193-.216-.125-.536-.319-.32-5.961 6.666-11.751 13.482-17.588 20.256-5.73 6.649-11.36 13.558-17.796 19.54-3.683 3.422-7.468 6.737-11.208 10.097-.216.194.103.513.319.32"/>
            <path fill="#2D2926" d="M225.883 101.463a430.92 430.92 0 0 0 24.33-4.965c.282-.066.163-.502-.12-.436a430.613 430.613 0 0 1-24.33 4.964c-.285.05-.164.486.12.437M180.178 151.604l15.878-9.188c5.082-2.94 10.34-5.706 15.175-9.052 4.628-3.203 8.782-7.077 13.279-10.463a189.425 189.425 0 0 1 13.85-9.496 190.674 190.674 0 0 1 16.467-9.14c.26-.13.032-.52-.228-.391a190.047 190.047 0 0 0-28.674 17.413c-4.536 3.34-8.744 7.086-13.24 10.472-4.655 3.506-9.888 6.235-14.92 9.146l-17.815 10.309c-.251.145-.024.536.228.39M250.357 96.901l4.243 6.437c.16.242.55.015.39-.228l-4.244-6.437c-.16-.241-.55-.015-.39.228"/>
            <path fill="#2D2926" d="M254.488 104.069c-.13 1.772-.277 3.543-.407 5.315-.021.29.43.289.45 0 .13-1.772.278-3.543.408-5.315.02-.29-.43-.289-.451 0"/>
            <path fill="#2D2926" d="M214.21 131.141c2.422-1.782 5.264-2.568 7.954-3.826a345.65 345.65 0 0 0 9.98-4.878 371.655 371.655 0 0 0 29.912-16.963c.245-.154.019-.545-.228-.39a373.41 373.41 0 0 1-38.347 21.11c-3.156 1.502-6.659 2.468-9.497 4.557-.232.17-.008.562.227.39M181.772 150.51c19.107-3.638 38.213-7.277 57.32-10.914l16.156-3.077c.285-.054.164-.49-.12-.435l-57.32 10.914-16.156 3.076c-.285.054-.164.49.12.436M255.495 135.66l13.873-18.305c.175-.232-.216-.457-.39-.228l-13.873 18.304c-.175.232.216.457.39.228"/>
            <path fill="#2D2926" d="M261.43 105.804a38.6 38.6 0 0 1 8.115 10.743c.132.259.521.03.39-.228a38.95 38.95 0 0 0-8.185-10.835c-.213-.198-.533.122-.32.32M257.044 133.321l6.433-.23c1.355-.049 2.087.164 2.128-1.35.085-3.16-.038-6.33-.003-9.492.004-.29-.447-.29-.45 0-.031 2.722.01 5.443.008 8.165 0 .493.154 1.264-.01 1.725-.284.796-1.869.507-2.53.53l-5.576.2c-.29.01-.291.463 0 .452M277.455 148.607l12.627 11.66c.214.196.533-.123.32-.32l-12.628-11.66c-.213-.197-.533.123-.319.32"/>
            <g transform="translate(243.025 164.861)">
                <mask id="f" fill="#fff">
                    <use xlink:href="#e"/>
                </mask>
                <path fill="#2D2926" d="M.29.549a109.07 109.07 0 0 0 10.7 25.105c.147.25.537.024.39-.229A108.587 108.587 0 0 1 .724.43C.645.149.21.269.29.549" mask="url(#f)"/>
            </g>
            <path fill="#2D2926" d="M215.047 168.145l-.56 7.712c-.02.29.43.29.452 0l.559-7.712c.02-.29-.43-.289-.451 0"/>
            <path fill="#1D1E1B" d="M191.275 101.668a70.085 70.085 0 0 0-11.076-8.177c-.25-.149-.477.242-.227.39a69.532 69.532 0 0 1 10.984 8.107c.216.194.536-.124.32-.32M212.44 85.41c.39-2.31-.356-4.585-2.061-6.194-.212-.2-.531.12-.32.32 1.584 1.493 2.309 3.602 1.946 5.755-.049.284.386.407.434.12"/>
            <path fill="#2D2926" d="M262.03 100.016L264.284 99c.263-.119.034-.509-.228-.39l-2.253 1.017c-.264.119-.035.509.227.39M266.388 96.783a10.16 10.16 0 0 0 1.866-1.49c.204-.207-.115-.527-.319-.32a9.67 9.67 0 0 1-1.774 1.42c-.247.153-.02.544.227.39M271.435 92.235l1.491-1.27c.222-.188-.098-.506-.318-.32l-1.491 1.27c-.222.189.098.507.318.32M276.404 88.25l1.306-1.296c.206-.204-.112-.524-.319-.32l-1.306 1.297c-.207.205.112.524.319.32M280.36 84.026l1.906-2.29c.184-.221-.133-.543-.319-.319l-1.907 2.29c-.184.221.133.542.32.319M284.36 78.834a6.984 6.984 0 0 0 1.9-2.093c.149-.25-.24-.478-.389-.228a6.444 6.444 0 0 1-1.739 1.93c-.232.17-.007.563.228.39M288.881 73.86l1.526-1.793c.188-.22-.13-.542-.319-.32l-1.525 1.794c-.188.22.13.541.318.32M292.404 68.68l1.656-3.164c.134-.257-.255-.486-.39-.228l-1.656 3.163c-.134.258.255.486.39.229M295.85 61.985l1.013-2.011c.13-.26-.259-.488-.39-.228l-1.013 2.01c-.13.26.258.489.39.23M297.893 56.005c.41-1.061.758-2.14 1.044-3.241.073-.282-.362-.403-.435-.12a29.632 29.632 0 0 1-1.043 3.24c-.105.272.33.39.434.121M299.21 49.846a8.512 8.512 0 0 0 .537-3.335c-.01-.29-.461-.29-.45 0a8.206 8.206 0 0 1-.522 3.215c-.102.272.333.39.434.12M299.179 42.645a8.26 8.26 0 0 0-.307-3.21c-.083-.277-.518-.158-.435.122a7.94 7.94 0 0 1 .291 3.088c-.029.29.422.287.45 0M298.184 35.198l-.984-3.368c-.081-.278-.517-.16-.434.12l.983 3.369c.081.278.517.16.435-.12M295.046 27.618l-1.567-2.534c-.153-.247-.543-.02-.39.228l1.568 2.535c.152.246.542.02.39-.229M291.125 21.614l-1.081-1.817c-.15-.25-.54-.022-.39.229l1.082 1.816c.149.25.539.023.39-.228M287.998 17.037l-.91-1.804c-.13-.26-.52-.031-.39.229l.911 1.803c.13.26.52.03.39-.228M284.978 12.771l-1.578-2.034c-.178-.229-.495.093-.319.32l1.578 2.034c.178.23.495-.093.32-.32M281.587 7.361l-1.12-1.792c-.154-.246-.544-.02-.39.228l1.121 1.793c.154.246.544.019.39-.229M279.26 1.513l-.245-1.408c-.05-.286-.484-.165-.435.12l.245 1.408c.05.286.484.164.435-.12"/>
            <path fill="#1D1E1B" d="M246.702 118.548l-8.168 3.714c-.264.12-.035.51.227.39l8.168-3.714c.265-.12.036-.51-.227-.39M257.467 111.532l-2.091 1.813c-.22.19.1.509.318.32l2.091-1.813c.22-.19-.1-.509-.318-.32M257.724 117.328c.29 0 .29-.452 0-.452s-.291.452 0 .452M214.616 124.01c.29 0 .291-.452 0-.452-.29 0-.29.452 0 .452M220.943 114.814l-1.64 2.336c-.167.239.224.465.39.228l1.639-2.336c.167-.238-.223-.464-.39-.228M204.648 177.098l-.248 3.419c-.021.29.43.29.45 0l.249-3.42c.02-.29-.43-.289-.451 0"/>
        </g>
    </g>
</svg>
