<svg xmlns="http://www.w3.org/2000/svg" xmlns:xlink="http://www.w3.org/1999/xlink" width="60" height="75" viewBox="0 0 60 75">
    <defs>
        <path id="a" d="M56.194.458H0V75h56.194V.458z"/>
        <path id="c" d="M3.988.328v1.098H.923V.328h3.065z"/>
    </defs>
    <g fill="none" fill-rule="evenodd">
        <g transform="translate(0 -.458)">
            <mask id="b" fill="#fff">
                <use xlink:href="#a"/>
            </mask>
            <path fill="#FFF" d="M54.943 68.238c1.168-.354 1.251-.935 1.251-1.673l-.002-.003c-.002-.198-.062-.43-.206-.713-1.12-2.208-1.99-2.45-2.386-3.704-.268-.853-.578-1.3-1.264-1.311-.64-.011-1.055-.055-1.742.37-2.245 1.475-3.792 2.16-5.067 2.644-2.212.809-3.868 1.877-5.133 2.609-3.09 1.774-6.086 3.814-12.624 4.517-3.246.349-4.637-.621-6.8-2.461-1.152-.978-2.006-2.39-2.28-5.441-.658-7.281.582-25.45.582-51.724 0-5.107-4.078-8.688-9.106-8.923-1.859-.087-3.606-.257-5.157.645C4.87 1.846 3.737.467 2.44.458 1.273.45.568 1.264.634 2.38.91 6.967.28 7.216.28 11.33c0 4.729-.28 4.546-.28 9.274 0 19.978 1.033 19.786 1.012 40.15 0 .9.692 1.707 1.6 1.73 1.323.037 3.563-.508 3.545-2.38-.198-20.114-.685-19.804-.943-39.59-.043-3.39-1.227-10.765.54-12.655.882-.946 2.93-.854 4.237-.958 2.943-.233 4.096 2.54 4.201 5.105 1.29 31.443-1.273 27.506-1.157 49.959.017 3.465 1.485 8.897 4.281 10.977 1.914 1.422 5.4 2.16 7.936 2.045 1.032-.046 1.962.002 3.28-.23 8.468-1.487 9.288-4.1 13.95-5.387.362-.1 1.52-.398 2.52-.04.227.095.47.207.75.357 1.587.849 2.5.452 3.666.214 1.166-.24 1.154-.166 2.181-.035 1.905.243 2.221.284 3.027-.172.276-.156.523-.671.352-1.141h.003s-.01-.016-.022-.041l-.005-.01c-.04-.083-.1-.236-.01-.265z" mask="url(#b)"/>
        </g>
        <path fill="#FFF" d="M53.47 54.623c.079.1.109.235.068.366a2.833 2.833 0 0 0-.151.884c-.011.266-.022.567-.188 1.09a.395.395 0 0 1-.753-.238c.133-.422.14-.635.15-.883.01-.265.022-.567.188-1.093a.397.397 0 0 1 .686-.127M59.18 54.859a.402.402 0 0 1-.075.576c-.848.625-1.154 1.075-1.477 1.552-.347.512-.706 1.04-1.664 1.748-.18.132-.45.087-.563-.085a.401.401 0 0 1 .084-.563c.847-.625 1.152-1.076 1.476-1.553.348-.511.707-1.04 1.665-1.747a.403.403 0 0 1 .554.072"/>
        <g transform="translate(56 59.542)">
            <mask id="d" fill="#fff">
                <use xlink:href="#c"/>
            </mask>
            <path fill="#FFF" d="M3.9.48a.406.406 0 0 1-.313.658 3.698 3.698 0 0 0-1.034.132c-.286.071-.609.152-1.22.156a.408.408 0 0 1-.41-.403.406.406 0 0 1 .403-.407A3.718 3.718 0 0 0 2.357.483c.286-.07.61-.152 1.224-.155A.402.402 0 0 1 3.9.48" mask="url(#d)"/>
        </g>
    </g>
</svg>
