<?xml version="1.0" encoding="UTF-8"?>
<svg width="407px" height="341px" viewBox="0 0 407 341" version="1.1" xmlns="http://www.w3.org/2000/svg" xmlns:xlink="http://www.w3.org/1999/xlink">
    <!-- Generator: Sketch 44.1 (41455) - http://www.bohemiancoding.com/sketch -->
    <title>paper-planes-02</title>
    <desc>Created with Sketch.</desc>
    <defs>
        <polygon id="path-1" points="0 2.08002819 0 0.144345623 19.9721286 0.144345623 19.9721286 2.08002819 2.23361911e-15 2.08002819"></polygon>
        <polygon id="path-3" points="7.498 0.0771951527 7.498 9.61000198 0.0456248739 9.61000198 0.0456248739 0.0771951527 7.498 0.0771951527"></polygon>
    </defs>
    <g id="Screens" stroke="none" stroke-width="1" fill="none" fill-rule="evenodd">
        <g id="Post-Referral" transform="translate(-77.000000, -622.000000)">
            <g id="img-paper-planes-together" transform="translate(77.000000, 0.000000)">
                <g id="paper-planes-02" transform="translate(0.000000, 621.000000)">
                    <g id="Page-1" transform="translate(220.000000, 114.000000)">
                        <path d="M176.7314,168.5183 C176.0784,167.4573 174.7674,167.7153 174.1924,168.4733 C174.1514,168.4673 174.1154,168.4543 174.0734,168.4493 C164.5304,167.4533 155.2804,172.6563 146.6764,176.1003 C144.6034,176.9303 142.5024,177.7353 140.3944,178.5393 C130.5954,181.8173 120.7764,185.0423 111.0024,188.3913 C102.8104,191.1973 96.4354,197.1273 88.8484,201.2113 C88.7854,201.2253 88.7254,201.2373 88.6614,201.2523 C86.4074,201.7923 84.4834,202.9223 82.8144,204.3933 C80.9014,200.5243 78.9764,196.6533 77.2694,192.7023 C75.0004,187.4483 74.4904,181.5913 71.2084,176.7883 C69.3134,174.0133 67.8914,171.8253 67.2824,168.4303 C66.7954,165.7183 66.4584,163.1033 65.4684,160.5103 C63.3684,155.0173 60.4054,149.7703 57.8344,144.4853 C57.5794,143.9613 57.2274,143.6203 56.8334,143.4223 C56.4984,141.8873 53.9144,142.0143 53.8724,143.8053 C53.8694,143.9403 53.8754,144.0753 53.8734,144.2093 C53.2634,144.9233 52.9974,145.9413 53.5174,147.0083 C53.6584,147.2993 53.8104,147.5923 53.9564,147.8843 C54.6724,160.7083 59.9174,172.9873 64.2074,184.9573 C68.9404,198.1633 72.7824,212.4463 79.3544,224.8733 C78.7314,225.8123 79.0984,227.3403 80.4874,227.1813 C102.5144,224.6523 121.0174,212.3383 139.3474,200.8113 C144.2494,197.7283 149.1604,194.4223 154.5714,192.2933 C159.2594,190.4483 165.1694,191.3313 169.4454,188.7483 C175.3744,185.1643 180.6864,174.9483 176.7314,168.5183" id="Fill-1" fill="#F2F2F2"></path>
                        <polygon id="Fill-3" fill="#E35205" points="70.8257 43.156 64.0507 79.222 56.9767 139.128 97.1577 96.548 98.3947 95.085 156.1357 102.187 113.6787 63.821 80.5717 35.873 72.6597 31.335"></polygon>
                        <path d="M56.977,139.1277 C59.441,120.8557 61.905,102.5827 64.369,84.3107 C66.736,66.7557 68.861,49.0887 73.527,31.9617 C103.39,51.9847 128.196,78.2947 155.983,100.9197 C156.478,101.3227 157.189,100.6187 156.69,100.2127 C128.765,77.4747 103.84,51.0307 73.801,30.9407 C73.806,30.9237 73.81,30.9057 73.815,30.8887 C73.976,30.3147 73.17,30.0547 72.91,30.5077 C72.593,30.5907 72.41,31.0427 72.66,31.3347 C67.925,48.5737 65.788,66.3657 63.404,84.0447 C60.94,102.3167 58.477,120.5897 56.013,138.8617 C55.928,139.4907 56.892,139.7637 56.977,139.1277" id="Fill-5" fill="#1D1E1B"></path>
                        <path d="M181.4116,164.8787 C171.5966,145.0617 163.5876,124.4047 157.4496,103.1607 C157.6786,102.9247 157.5886,102.4197 157.1956,102.3087 C157.1666,102.2097 157.1356,102.1107 157.1066,102.0127 C156.9406,101.4277 156.0786,101.6367 156.1356,102.1877 C136.9446,100.4307 117.8526,97.7527 98.9176,94.1677 C98.8196,93.8397 98.4026,93.6077 98.1006,93.9307 C98.0786,93.9547 98.0556,93.9797 98.0326,94.0047 C97.8626,93.9717 97.6916,93.9417 97.5206,93.9087 C97.4086,93.8877 97.3136,93.9087 97.2266,93.9457 L96.8226,92.8917 C96.5946,92.2957 95.6276,92.5547 95.8586,93.1567 L96.7256,95.4187 C83.1826,109.9897 69.8496,124.7567 56.7416,139.7207 C56.3866,139.5817 55.8916,139.9857 56.1136,140.4437 C65.9066,160.6217 74.1756,181.5007 80.8576,202.9097 C81.0486,203.5227 82.0146,203.2607 81.8216,202.6447 C75.1866,181.3877 66.9826,160.6527 57.2926,140.6057 C70.3506,125.6937 83.6336,110.9817 97.1236,96.4597 L97.1576,96.5477 C97.3856,97.1427 98.3526,96.8837 98.1216,96.2807 C98.0406,96.0687 97.9596,95.8567 97.8776,95.6447 C98.0506,95.4577 98.2216,95.2707 98.3946,95.0847 C117.5956,98.7297 136.9586,101.4417 156.4216,103.2147 C162.5316,124.4067 170.5116,145.0167 180.2656,164.7977 C163.6406,168.9387 147.3266,174.2287 131.4466,180.6007 C131.3176,180.0467 131.1216,179.5127 130.8366,179.0027 C130.5216,178.4417 129.6576,178.9447 129.9726,179.5077 C130.2326,179.9717 130.4126,180.4587 130.5156,180.9697 C113.6256,187.8007 97.2336,195.8577 81.4986,205.0937 C80.9446,205.4187 81.4466,206.2827 82.0036,205.9567 C97.6636,196.7657 113.9746,188.7437 130.7786,181.9407 C131.0696,182.1867 131.6126,182.0787 131.6006,181.6157 C147.6986,175.1447 164.2436,169.7847 181.1126,165.6127 C181.4446,165.5307 181.5496,165.1577 181.4116,164.8787" id="Fill-7" fill="#1D1E1B"></path>
                        <path d="M96.4716,14.4168 C96.8026,14.9688 97.6676,14.4658 97.3356,13.9118 C95.4886,10.8308 93.6416,7.7498 91.7946,4.6688 C91.4646,4.1178 90.5986,4.6198 90.9306,5.1738 C92.7786,8.2548 94.6246,11.3358 96.4716,14.4168" id="Fill-9" fill="#1D1E1B"></path>
                        <path d="M107.3105,15.8181 C107.5065,16.4281 108.4725,16.1681 108.2745,15.5521 C106.6475,10.4841 105.0195,5.4161 103.3925,0.3471 C103.1965,-0.2629 102.2305,-0.0019 102.4275,0.6131 C104.0555,5.6811 105.6835,10.7501 107.3105,15.8181" id="Fill-11" fill="#1D1E1B"></path>
                        <path d="M73.4936,33.6824 C74.2146,35.3114 74.9346,36.9404 75.6546,38.5684 C75.9146,39.1564 76.7766,38.6474 76.5186,38.0644 C75.7976,36.4354 75.0776,34.8064 74.3576,33.1774 C74.0976,32.5904 73.2356,33.0984 73.4936,33.6824" id="Fill-13" fill="#1D1E1B"></path>
                        <path d="M77.8603,44.8396 C78.2643,45.8946 78.6693,46.9486 79.0723,48.0036 C79.3003,48.5986 80.2683,48.3406 80.0373,47.7376 C79.6323,46.6836 79.2293,45.6286 78.8243,44.5736 C78.5963,43.9796 77.6293,44.2366 77.8603,44.8396" id="Fill-15" fill="#1D1E1B"></path>
                        <path d="M80.6508,52.7166 C81.2848,53.7196 81.7638,54.7786 82.0928,55.9186 C82.2708,56.5356 83.2358,56.2736 83.0568,55.6526 C82.7058,54.4356 82.1918,53.2826 81.5148,52.2116 C81.1718,51.6696 80.3058,52.1706 80.6508,52.7166" id="Fill-17" fill="#1D1E1B"></path>
                        <path d="M83.9863,62.0662 C84.7103,63.2952 85.2713,64.5832 85.6753,65.9512 C85.8573,66.5672 86.8223,66.3042 86.6393,65.6852 C86.2123,64.2372 85.6153,62.8622 84.8493,61.5612 C84.5233,61.0062 83.6583,61.5092 83.9863,62.0662" id="Fill-19" fill="#1D1E1B"></path>
                        <path d="M87.9521,72.9861 C88.4091,73.8531 88.8661,74.7211 89.3231,75.5891 C89.6231,76.1581 90.4871,75.6531 90.1861,75.0841 C89.7291,74.2161 89.2721,73.3481 88.8151,72.4811 C88.5151,71.9121 87.6521,72.4171 87.9521,72.9861" id="Fill-21" fill="#1D1E1B"></path>
                        <path d="M91.874,82.7595 C92.336,83.9645 92.798,85.1705 93.26,86.3755 C93.488,86.9705 94.455,86.7125 94.224,86.1105 C93.762,84.9055 93.3,83.6985 92.838,82.4935 C92.61,81.8995 91.643,82.1565 91.874,82.7595" id="Fill-23" fill="#1D1E1B"></path>
                        <path d="M102.5586,106.5056 C102.0966,105.2996 101.6346,104.0946 101.1726,102.8886 C100.9446,102.2936 99.9776,102.5526 100.2086,103.1546 C100.6706,104.3596 101.1326,105.5666 101.5946,106.7716 C101.8226,107.3656 102.7896,107.1086 102.5586,106.5056" id="Fill-25" fill="#1D1E1B"></path>
                        <path d="M106.9951,116.7293 C106.5621,115.5993 106.1291,114.4693 105.6961,113.3383 C105.4681,112.7443 104.5011,113.0023 104.7321,113.6053 L106.0311,116.9953 C106.2591,117.5903 107.2261,117.3323 106.9951,116.7293" id="Fill-27" fill="#1D1E1B"></path>
                        <path d="M110.9458,126.3621 C110.5708,125.3831 110.1958,124.4031 109.8198,123.4241 C109.5918,122.8291 108.6248,123.0871 108.8558,123.6891 L109.9818,126.6281 C110.2098,127.2221 111.1768,126.9651 110.9458,126.3621" id="Fill-29" fill="#1D1E1B"></path>
                        <path d="M114.7046,135.5467 C114.4746,134.6277 114.0976,133.7597 113.5816,132.9657 C113.2326,132.4277 112.3666,132.9287 112.7186,133.4707 C113.1916,134.1987 113.5286,134.9697 113.7406,135.8137 C113.8966,136.4377 114.8616,136.1727 114.7046,135.5467" id="Fill-31" fill="#1D1E1B"></path>
                        <path d="M117.9624,144.6707 C117.6154,143.7667 117.2694,142.8617 116.9224,141.9577 C116.6944,141.3627 115.7274,141.6207 115.9584,142.2237 C116.3054,143.1277 116.6514,144.0317 116.9984,144.9367 C117.2264,145.5307 118.1934,145.2737 117.9624,144.6707" id="Fill-33" fill="#1D1E1B"></path>
                        <path d="M122.1875,155.7508 C121.8505,154.5278 121.3455,153.3708 120.6735,152.2958 C120.3335,151.7508 119.4685,152.2518 119.8105,152.7998 C120.4395,153.8088 120.9075,154.8708 121.2235,156.0168 C121.3935,156.6368 122.3585,156.3728 122.1875,155.7508" id="Fill-35" fill="#1D1E1B"></path>
                        <path d="M125.0991,163.9695 C124.7521,163.0655 124.4061,162.1605 124.0591,161.2565 C123.8311,160.6615 122.8641,160.9205 123.0951,161.5235 C123.4421,162.4265 123.7881,163.3305 124.1351,164.2355 C124.3631,164.8295 125.3301,164.5725 125.0991,163.9695" id="Fill-37" fill="#1D1E1B"></path>
                        <path d="M128.8574,174.4529 C128.5114,173.5499 128.1644,172.6449 127.8184,171.7409 C127.5904,171.1459 126.6234,171.4039 126.8544,172.0069 C127.2004,172.9109 127.5464,173.8149 127.8934,174.7199 C128.1214,175.3139 129.0884,175.0559 128.8574,174.4529" id="Fill-39" fill="#1D1E1B"></path>
                        <path d="M69.5703,145.5711 C70.5303,148.0771 71.4903,150.5821 72.4503,153.0881 C72.6783,153.6821 73.6463,153.4251 73.4153,152.8221 C72.4553,150.3161 71.4943,147.8101 70.5343,145.3051 C70.3063,144.7111 69.3393,144.9681 69.5703,145.5711" id="Fill-41" fill="#1D1E1B"></path>
                        <path d="M77.7924,131.5183 L76.2474,134.9843 C75.9874,135.5673 76.8484,136.0763 77.1104,135.4893 L78.6554,132.0233 C78.9154,131.4403 78.0544,130.9313 77.7924,131.5183" id="Fill-43" fill="#1D1E1B"></path>
                        <path d="M105.3657,68.908 L106.8407,70.259 C107.3147,70.692 108.0237,69.987 107.5477,69.552 L106.0727,68.201 C105.5987,67.767 104.8897,68.472 105.3657,68.908" id="Fill-45" fill="#1D1E1B"></path>
                        <path d="M150.5385,121.9168 C148.6675,120.4738 147.5605,118.3448 147.4155,115.9918 C147.3765,115.3528 146.3755,115.3488 146.4155,115.9918 C146.5845,118.7318 147.8655,121.1068 150.0335,122.7808 C150.5425,123.1738 151.0405,122.3058 150.5385,121.9168" id="Fill-47" fill="#1D1E1B"></path>
                        <path d="M36.749,96.3992 C31.908,94.0132 26.871,92.1482 21.641,90.8142 C21.017,90.6552 20.75,91.6202 21.374,91.7792 C26.521,93.0902 31.479,94.9152 36.245,97.2622 C36.82,97.5452 37.327,96.6832 36.749,96.3992" id="Fill-49" fill="#1D1E1B"></path>
                        <g id="Group-53" transform="translate(0.000000, 112.193000)">
                            <mask id="mask-2" fill="white">
                                <use xlink:href="#path-1"></use>
                            </mask>
                            <g id="Clip-52"></g>
                            <path d="M19.497,0.6603 C13.103,-0.1577 6.71,0.0013 0.361,1.1063 C-0.272,1.2173 -0.003,2.1813 0.627,2.0713 C6.89,0.9803 13.194,0.8533 19.497,1.6603 C20.134,1.7423 20.127,0.7413 19.497,0.6603" id="Fill-51" fill="#1D1E1B" mask="url(#mask-2)"></path>
                        </g>
                        <path d="M23.1518,174.7351 C20.4728,174.3691 17.8668,175.3491 16.1928,177.5001 C15.8018,178.0021 16.5048,178.7141 16.8998,178.2071 C18.3368,176.3611 20.5448,175.3801 22.8858,175.6991 C23.5158,175.7851 23.7878,174.8221 23.1518,174.7351" id="Fill-54" fill="#1D1E1B"></path>
                        <path d="M177.0698,86.573 C178.4868,88.685 180.1788,90.562 182.1478,92.175 C182.6418,92.579 183.3538,91.876 182.8548,91.468 C180.9528,89.909 179.3038,88.111 177.9328,86.069 C177.5758,85.537 176.7098,86.037 177.0698,86.573" id="Fill-56" fill="#1D1E1B"></path>
                        <g id="Group-60" transform="translate(179.000000, 77.193000)">
                            <mask id="mask-4" fill="white">
                                <use xlink:href="#path-3"></use>
                            </mask>
                            <g id="Clip-59"></g>
                            <path d="M0.2695,1.0285 C3.2095,3.0495 5.3565,5.8885 6.5045,9.2655 C6.7105,9.8715 7.6775,9.6115 7.4695,9.0005 C6.2325,5.3645 3.9385,2.3405 0.7745,0.1655 C0.2425,-0.2005 -0.2575,0.6665 0.2695,1.0285" id="Fill-58" fill="#1D1E1B" mask="url(#mask-4)"></path>
                        </g>
                    </g>
                    <g id="Page-1">
                        <g id="Group-3" transform="translate(0.000000, 109.851000)" fill="#F2F2F2">
                            <path d="M155.8625,5.3208 C154.1795,7.2058 145.5905,11.2658 144.9405,13.6758 C143.8345,13.7278 116.4035,34.3778 105.8065,46.3698 C100.5155,52.3578 95.1315,58.3128 89.0195,63.4828 C84.1155,67.6338 80.5575,71.8858 74.9675,75.0598 C56.7875,52.4368 35.9095,29.3868 16.3465,7.9478 C13.9595,5.3308 9.6265,4.9848 6.6525,6.6958 C-2.1615,11.7658 -1.5225,23.1628 4.5135,30.1338 C7.6335,33.7368 11.4145,35.9188 13.7205,40.2338 C16.0875,44.6628 17.9665,49.0608 21.2235,52.9538 C27.3245,60.2448 36.0465,64.8758 42.3035,72.1608 C48.4785,79.3508 52.8435,87.9348 55.4985,96.9968 C56.6145,100.8078 61.2555,104.2078 65.3395,102.5848 C87.3075,93.8558 114.3525,63.2818 132.6755,47.9608 C150.5105,33.0498 157.8405,33.4248 162.0325,10.5848 C163.8805,0.5178 163.1215,-2.8112 155.8625,5.3208" id="Fill-1"></path>
                        </g>
                        <polygon id="Fill-4" fill="#E35205" points="93.114 27.4843 166.184 33.9623 166.184 74.8133 163.873 105.6763 91.405 28.7543"></polygon>
                        <path d="M40.1589,142.2206 C56.4099,129.0216 73.8339,117.3566 90.1509,104.2416 C98.2589,97.7246 106.0909,90.8356 113.2519,83.2806 C116.8499,79.4836 120.1279,75.4086 123.6699,71.5626 C127.5779,67.3176 132.0839,63.9626 136.8289,60.7156 C147.1299,53.6676 156.2199,45.3246 165.1749,36.6656 C165.6379,36.2176 164.9299,35.5106 164.4679,35.9586 C156.1369,44.0146 147.7109,51.9936 138.1529,58.5996 C133.8709,61.5576 129.4899,64.3996 125.7219,68.0176 C121.9239,71.6636 118.6919,75.8486 115.1639,79.7456 C100.9689,95.4316 83.9199,108.1216 66.9539,120.6126 C57.6809,127.4406 48.3929,134.2516 39.4509,141.5136 C38.9519,141.9186 39.6629,142.6226 40.1589,142.2206" id="Fill-6" fill="#2D2926"></path>
                        <path d="M90.6975,29.4608 C115.9445,53.4168 139.8035,78.6788 162.1805,105.3378 C162.5945,105.8308 163.2995,105.1208 162.8875,104.6308 C140.5105,77.9718 116.6515,52.7098 91.4045,28.7538 C90.9375,28.3108 90.2295,29.0168 90.6975,29.4608" id="Fill-8" fill="#2D2926"></path>
                        <path d="M3.9323,103.7763 C27.5293,130.2243 51.1253,156.6723 74.7223,183.1223 C75.1513,183.6033 75.8563,182.8933 75.4293,182.4153 C51.8323,155.9653 28.2363,129.5173 4.6393,103.0693 C4.2103,102.5883 3.5043,103.2973 3.9323,103.7763" id="Fill-10" fill="#2D2926"></path>
                        <path d="M4.9225,103.2548 C8.9835,97.3788 15.8115,94.7088 21.5075,90.7838 C27.3815,86.7378 32.6745,81.6278 37.8475,76.7428 C48.8615,66.3438 59.1645,55.2158 70.3175,44.9628 C76.7835,39.0198 83.5425,33.4038 90.7895,28.4338 C91.3165,28.0708 90.8175,27.2038 90.2845,27.5688 C77.6475,36.2378 66.5705,46.8488 55.7615,57.6508 C50.1975,63.2098 44.6855,68.8218 39.0045,74.2638 C33.4015,79.6298 27.6655,85.2298 21.3105,89.7098 C15.3855,93.8858 8.3155,96.5898 4.0595,102.7498 C3.6925,103.2808 4.5585,103.7808 4.9225,103.2548" id="Fill-12" fill="#2D2926"></path>
                        <path d="M93.114,27.4843 C117.323,31.3383 141.655,33.8843 166.16,34.7363 C166.804,34.7573 166.803,33.7573 166.16,33.7363 C141.744,32.8883 117.502,30.3603 93.38,26.5203 C92.75,26.4203 92.479,27.3823 93.114,27.4843" id="Fill-14" fill="#2D2926"></path>
                        <path d="M166.1843,33.9618 L165.5753,72.3938 C165.4763,78.6348 165.3773,84.8758 165.2783,91.1168 C165.1783,97.4098 166.3443,104.6448 161.2473,109.2878 C156.7683,113.3658 151.8223,117.0158 147.1263,120.8418 C142.1053,124.9318 137.0833,129.0228 132.0623,133.1128 C123.3583,140.2038 114.5713,147.2008 105.9663,154.4118 C96.9153,161.9958 88.3333,170.0548 80.3063,178.7168 C79.8693,179.1888 80.5743,179.8978 81.0133,179.4248 C96.1593,163.0788 113.6083,149.4298 130.8383,135.3938 C141.0063,127.1098 151.4523,119.0748 161.3743,110.5008 C165.4503,106.9798 166.0843,103.2058 166.1693,98.0158 C166.2763,91.4458 166.3773,84.8758 166.4813,78.3068 C166.7153,63.5248 166.9503,48.7428 167.1843,33.9618 C167.1943,33.3168 166.1943,33.3168 166.1843,33.9618" id="Fill-16" fill="#2D2926"></path>
                        <path d="M91.4289,191.3593 C87.8149,193.2933 84.2009,195.2263 80.5869,197.1613 C80.0199,197.4643 80.5239,198.3283 81.0919,198.0243 C84.7059,196.0903 88.3199,194.1563 91.9329,192.2223 C92.5009,191.9193 91.9969,191.0553 91.4289,191.3593" id="Fill-18" fill="#1D1E1B"></path>
                        <path d="M95.0227,205.0995 C93.3247,207.4055 90.8357,208.8365 88.0117,209.2395 C87.3767,209.3285 87.6477,210.2925 88.2777,210.2035 C91.3777,209.7615 94.0357,208.1175 95.8857,205.6045 C96.2687,205.0845 95.4007,204.5855 95.0227,205.0995" id="Fill-20" fill="#1D1E1B"></path>
                        <path d="M80.5964,19.1864 C84.4574,17.8124 88.3194,16.4374 92.1794,15.0624 C92.7824,14.8484 92.5224,13.8814 91.9144,14.0984 C88.0534,15.4734 84.1914,16.8474 80.3304,18.2224 C79.7284,18.4364 79.9884,19.4034 80.5964,19.1864" id="Fill-22" fill="#1D1E1B"></path>
                        <g id="Group-26" transform="translate(78.000000, 0.851000)" fill="#1D1E1B">
                            <path d="M1.1027,4.2358 C3.1417,2.2018 5.7487,1.1328 8.6277,1.1488 C9.2717,1.1528 9.2717,0.1528 8.6277,0.1488 C5.4987,0.1318 2.6107,1.3188 0.3957,3.5288 C-0.0603,3.9838 0.6467,4.6918 1.1027,4.2358" id="Fill-24"></path>
                        </g>
                        <path d="M57.7946,57.3143 C58.0866,57.9163 58.8926,58.7323 59.5536,58.0553 C60.0136,57.5853 59.8516,56.6133 59.0866,56.6393 C58.4456,56.6623 58.4426,57.6623 59.0866,57.6393 C58.9406,57.3143 58.8506,57.2293 58.8166,57.3853 C59.0066,57.3533 59.0426,57.3063 58.9226,57.2453 C58.9016,57.1333 58.7136,56.9243 58.6576,56.8093 C58.3776,56.2313 57.5146,56.7373 57.7946,57.3143" id="Fill-27" fill="#2D2926"></path>
                        <path d="M66.6818,53.7313 C66.5058,54.6233 67.2468,55.6203 68.2258,55.4083 C69.1218,55.2123 69.5168,54.1503 69.0878,53.3793 C68.7738,52.8183 67.9098,53.3223 68.2238,53.8843 C68.5468,54.4633 67.5248,54.6103 67.6458,53.9973 C67.7698,53.3693 66.8058,53.0993 66.6818,53.7313" id="Fill-29" fill="#2D2926"></path>
                        <path d="M75.3435,53.1786 C76.3355,53.0086 77.3275,52.8386 78.3195,52.6676 C78.9525,52.5596 78.6845,51.5956 78.0535,51.7036 L75.0775,52.2136 C74.4445,52.3236 74.7135,53.2866 75.3435,53.1786" id="Fill-31" fill="#2D2926"></path>
                        <path d="M85.9831,52.0468 C86.3481,51.7388 86.8291,51.5988 87.3021,51.6748 C87.9321,51.7758 88.2031,50.8118 87.5681,50.7098 C86.7131,50.5728 85.9391,50.7808 85.2751,51.3398 C84.7831,51.7548 85.4931,52.4588 85.9831,52.0468" id="Fill-33" fill="#2D2926"></path>
                        <path d="M93.9934,49.8163 C94.7704,49.2303 95.6744,49.0643 96.6034,49.3683 C97.2164,49.5693 97.4794,48.6033 96.8694,48.4043 C95.7184,48.0273 94.4584,48.2213 93.4884,48.9533 C92.9814,49.3363 93.4784,50.2043 93.9934,49.8163" id="Fill-35" fill="#2D2926"></path>
                        <path d="M106.3952,47.9921 L109.3792,47.5261 C110.0132,47.4281 109.7442,46.4641 109.1132,46.5621 L106.1292,47.0281 C105.4952,47.1271 105.7642,48.0911 106.3952,47.9921" id="Fill-37" fill="#2D2926"></path>
                        <path d="M115.9812,46.1102 C116.8812,45.8522 117.7822,45.5952 118.6822,45.3382 C119.3002,45.1622 119.0372,44.1962 118.4172,44.3742 C117.5162,44.6312 116.6152,44.8882 115.7152,45.1462 C115.0972,45.3222 115.3602,46.2882 115.9812,46.1102" id="Fill-39" fill="#2D2926"></path>
                        <path d="M125.82,44.4022 C126.924,44.1862 128.028,43.9712 129.132,43.7562 C129.764,43.6322 129.497,42.6692 128.867,42.7922 C127.763,43.0062 126.658,43.2222 125.554,43.4372 C124.923,43.5602 125.19,44.5252 125.82,44.4022" id="Fill-41" fill="#2D2926"></path>
                        <path d="M134.3107,42.9716 C135.2427,42.3786 136.2537,42.1466 137.3517,42.2546 C137.9917,42.3186 137.9867,41.3176 137.3517,41.2546 C136.0967,41.1316 134.8697,41.4326 133.8057,42.1086 C133.2647,42.4516 133.7657,43.3186 134.3107,42.9716" id="Fill-43" fill="#2D2926"></path>
                        <path d="M143.3156,41.3886 C144.1056,41.4026 144.8946,41.4156 145.6836,41.4306 C146.3276,41.4416 146.3276,40.4416 145.6836,40.4306 C144.8946,40.4156 144.1056,40.4026 143.3156,40.3886 C142.6716,40.3766 142.6716,41.3766 143.3156,41.3886" id="Fill-45" fill="#2D2926"></path>
                        <path d="M153.9265,39.163 C155.2205,38.921 156.5155,38.679 157.8105,38.436 C158.4425,38.318 158.1745,37.354 157.5445,37.473 L153.6605,38.199 C153.0295,38.317 153.2965,39.281 153.9265,39.163" id="Fill-47" fill="#2D2926"></path>
                        <path d="M158.7258,50.8544 C158.3738,51.6754 158.0218,52.4974 157.6688,53.3194 C157.4188,53.9044 158.2798,54.4144 158.5328,53.8244 C158.8848,53.0014 159.2368,52.1804 159.5888,51.3594 C159.8398,50.7734 158.9788,50.2634 158.7258,50.8544" id="Fill-49" fill="#2D2926"></path>
                        <path d="M154.8649,59.4013 C154.5419,60.2803 154.2189,61.1593 153.8959,62.0383 C153.6739,62.6433 154.6399,62.9043 154.8609,62.3033 C155.1829,61.4243 155.5069,60.5463 155.8289,59.6673 C156.0519,59.0623 155.0859,58.8013 154.8649,59.4013" id="Fill-51" fill="#2D2926"></path>
                        <path d="M151.176,68.5487 C151.11,69.5327 151.044,70.5187 150.978,71.5027 C150.935,72.1457 151.936,72.1427 151.978,71.5027 C152.044,70.5187 152.11,69.5327 152.176,68.5487 C152.219,67.9057 151.218,67.9087 151.176,68.5487" id="Fill-53" fill="#2D2926"></path>
                        <path d="M148.3849,77.0048 C147.6669,78.2608 147.3009,79.6348 147.2989,81.0808 C147.2989,81.7248 148.2989,81.7258 148.2989,81.0808 C148.2999,79.8048 148.6149,78.6168 149.2479,77.5098 C149.5679,76.9498 148.7039,76.4458 148.3849,77.0048" id="Fill-55" fill="#2D2926"></path>
                        <path d="M145.34,86.663 C144.904,87.633 144.467,88.601 144.031,89.571 C143.769,90.153 144.631,90.663 144.895,90.076 C145.331,89.106 145.767,88.137 146.204,87.168 C146.465,86.585 145.604,86.076 145.34,86.663" id="Fill-57" fill="#2D2926"></path>
                        <path d="M141.0065,95.7724 C140.7835,96.3554 140.5605,96.9384 140.3385,97.5214 C140.1085,98.1234 141.0745,98.3834 141.3025,97.7884 C141.5255,97.2044 141.7475,96.6214 141.9705,96.0384 C142.2005,95.4364 141.2345,95.1754 141.0065,95.7724" id="Fill-59" fill="#2D2926"></path>
                        <path d="M138.7258,102.3808 C138.2888,103.3508 137.8508,104.3188 137.4138,105.2888 C137.1518,105.8708 138.0128,106.3798 138.2778,105.7938 C138.7148,104.8238 139.1518,103.8558 139.5888,102.8858 C139.8518,102.3038 138.9908,101.7948 138.7258,102.3808" id="Fill-61" fill="#2D2926"></path>
                        <path d="M135.0251,111.5321 C134.9051,112.0211 134.7851,112.5101 134.6651,112.9991 C134.5121,113.6241 135.4761,113.8901 135.6291,113.2641 C135.7491,112.7751 135.8691,112.2871 135.9891,111.7981 C136.1421,111.1731 135.1781,110.9061 135.0251,111.5321" id="Fill-63" fill="#2D2926"></path>
                        <path d="M132.8024,120.3436 C132.0404,120.8816 131.7004,121.7156 131.8654,122.6336 C131.9794,123.2666 132.9434,122.9986 132.8294,122.3676 C132.7504,121.9246 132.9394,121.4666 133.3074,121.2066 C133.8284,120.8386 133.3294,119.9706 132.8024,120.3436" id="Fill-65" fill="#2D2926"></path>
                        <path d="M129.8215,128.1991 C129.6735,129.2801 129.5255,130.3601 129.3765,131.4401 C129.2905,132.0691 130.2535,132.3421 130.3405,131.7061 L130.7855,128.4661 C130.8725,127.8361 129.9085,127.5631 129.8215,128.1991" id="Fill-67" fill="#2D2926"></path>
                        <path d="M161.3176,42.0683 C161.3356,43.2013 161.1076,44.2803 160.6096,45.2983 C160.3286,45.8753 161.1906,46.3823 161.4736,45.8033 C162.0476,44.6273 162.3386,43.3793 162.3176,42.0683 C162.3076,41.4253 161.3076,41.4233 161.3176,42.0683" id="Fill-69" fill="#2D2926"></path>
                        <path d="M80.9973,74.9501 C79.8533,75.9981 78.7103,77.0471 77.5673,78.0961 C77.0913,78.5311 77.8003,79.2371 78.2743,78.8031 C79.4173,77.7541 80.5603,76.7051 81.7043,75.6571 C82.1793,75.2211 81.4713,74.5151 80.9973,74.9501" id="Fill-71" fill="#1D1E1B"></path>
                        <path d="M64.967,96.3593 C63.044,95.1743 61.12,93.9913 59.197,92.8063 C58.648,92.4683 58.145,93.3333 58.692,93.6703 C60.616,94.8543 62.539,96.0393 64.463,97.2223 C65.012,97.5613 65.515,96.6963 64.967,96.3593" id="Fill-73" fill="#1D1E1B"></path>
                        <path d="M76.55,162.3749 L74.492,164.2619 C74.017,164.6969 74.725,165.4029 75.199,164.9689 L77.258,163.0819 C77.733,162.6459 77.024,161.9399 76.55,162.3749" id="Fill-75" fill="#1D1E1B"></path>
                        <path d="M69.8703,158.3114 C70.5143,158.3114 70.5153,157.3114 69.8703,157.3114 C69.2263,157.3114 69.2253,158.3114 69.8703,158.3114" id="Fill-77" fill="#1D1E1B"></path>
                        <path d="M178.6413,110.8036 C178.4653,114.1366 178.2893,117.4696 178.1133,120.8026 C178.0793,121.4456 179.0793,121.4436 179.1133,120.8026 C179.2893,117.4696 179.4653,114.1366 179.6413,110.8036 C179.6753,110.1596 178.6753,110.1616 178.6413,110.8036" id="Fill-79" fill="#1D1E1B"></path>
                        <path d="M184.5856,118.3007 L184.5856,120.3007 C184.5856,120.9447 185.5856,120.9457 185.5856,120.3007 L185.5856,118.3007 C185.5856,117.6567 184.5856,117.6557 184.5856,118.3007" id="Fill-81" fill="#1D1E1B"></path>
                        <path d="M171.7184,18.8183 C165.5514,17.9853 159.3854,17.1523 153.2184,16.3183 C152.5894,16.2333 152.3174,17.1973 152.9524,17.2833 C159.1194,18.1163 165.2854,18.9493 171.4524,19.7833 C172.0824,19.8683 172.3544,18.9043 171.7184,18.8183" id="Fill-83" fill="#1D1E1B"></path>
                        <path d="M160.5856,9.8007 L154.0856,9.8007 C153.4416,9.8007 153.4406,10.8007 154.0856,10.8007 L160.5856,10.8007 C161.2296,10.8007 161.2306,9.8007 160.5856,9.8007" id="Fill-85" fill="#1D1E1B"></path>
                    </g>
                </g>
            </g>
        </g>
    </g>
</svg>