<?xml version="1.0" encoding="UTF-8"?>
<svg width="268px" height="422px" viewBox="0 0 268 422" version="1.1" xmlns="http://www.w3.org/2000/svg" xmlns:xlink="http://www.w3.org/1999/xlink">
    <!-- Generator: Sketch 44.1 (41455) - http://www.bohemiancoding.com/sketch -->
    <title>Page 1</title>
    <desc>Created with Sketch.</desc>
    <defs>
        <polygon id="path-1" points="25.3116968 57 0.620924185 57 0.620924185 0.597015684 25.3116968 0.597015684"></polygon>
    </defs>
    <g id="Screens" stroke="none" stroke-width="1" fill="none" fill-rule="evenodd">
        <g id="Post-Referral" transform="translate(-1106.000000, 0.000000)">
            <g id="img-paper-planes-together" transform="translate(3.000000, 0.000000)">
                <g id="Page-1" transform="translate(1103.000000, 0.000000)">
                    <path d="M168.8441,301.4088 C169.1701,300.7838 200.8191,258.1828 200.8191,258.1828 L193.0771,245.7898 L182.8221,234.4148 L122.0201,269.0988 L81.0141,288.5778 L8.8821,333.0618 L136.3381,307.5828 L168.8441,301.4088 Z" id="Fill-1" fill="#E35205"></path>
                    <polygon id="Fill-3" fill="#E35205" points="2.1073 334.8834 43.3853 294.3544 104.2033 224.6814 157.9413 213.8254 167.6713 230.1454 117.4393 259.2564 85.1483 284.9274 60.2553 301.3984"></polygon>
                    <path d="M0.8671,335.067 C8.2201,328.479 15.6041,321.926 22.9191,315.296 C30.1781,308.716 36.8471,301.643 43.3851,294.354 C56.5001,279.73 69.2371,264.774 82.0761,249.909 C89.3871,241.443 96.7361,233.009 104.2031,224.681 C104.6321,224.203 103.9271,223.494 103.4961,223.974 C90.2741,238.72 77.4331,253.801 64.4871,268.788 C51.7781,283.499 39.2931,298.785 25.0181,312.02 C16.8501,319.592 8.4551,326.927 0.1601,334.36 C-0.3199,334.79 0.3881,335.496 0.8671,335.067" id="Fill-5" fill="#2D2926"></path>
                    <path d="M103.9823,224.8101 C122.0713,221.6661 140.0643,218.0041 157.9413,213.8261 C158.5683,213.6791 158.3033,212.7151 157.6763,212.8621 C139.7983,217.0391 121.8053,220.7031 103.7163,223.8451 C103.0843,223.9561 103.3523,224.9191 103.9823,224.8101" id="Fill-7" fill="#2D2926"></path>
                    <path d="M2.6122,335.7467 C14.3502,328.9717 26.0892,322.1947 37.8282,315.4197 C49.1002,308.9127 60.7632,302.7957 71.4842,295.3927 C81.7482,288.3057 90.9622,279.7337 100.9362,272.2417 C110.8582,264.7897 121.1092,257.7767 131.6522,251.2317 C143.4832,243.8887 155.6802,237.1497 168.1762,231.0087 C168.7542,230.7247 168.2472,229.8617 167.6712,230.1447 C145.3932,241.0957 124.0842,253.9757 104.0752,268.6717 C94.0132,276.0607 84.6812,284.3497 74.7112,291.8397 C64.3852,299.5967 52.7792,305.6347 41.6172,312.0767 C28.4472,319.6797 15.2782,327.2817 2.1072,334.8837 C1.5502,335.2047 2.0532,336.0697 2.6122,335.7467" id="Fill-9" fill="#2D2926"></path>
                    <path d="M158.2616,214.7183 L167.6736,228.9593 C168.0266,229.4943 168.8926,228.9933 168.5366,228.4543 L159.1246,214.2133 C158.7716,213.6793 157.9056,214.1793 158.2616,214.7183" id="Fill-11" fill="#2D2926"></path>
                    <path d="M167.4237,230.5767 C167.1357,234.4977 166.8097,238.4157 166.5217,242.3367 C166.4747,242.9777 167.4747,242.9747 167.5217,242.3367 C167.8097,238.4157 168.1357,234.4977 168.4237,230.5767 C168.4707,229.9347 167.4707,229.9377 167.4237,230.5767" id="Fill-13" fill="#2D2926"></path>
                    <path d="M78.0941,290.4732 C83.4641,286.5312 89.7671,284.7912 95.7321,282.0082 C103.1701,278.5382 110.5441,274.9232 117.8671,271.2162 C132.2341,263.9442 146.3871,256.2502 160.3031,248.1502 C168.3531,243.4642 176.3201,238.6372 184.2091,233.6862 C184.7531,233.3452 184.2511,232.4792 183.7041,232.8232 C156.2911,250.0282 127.8911,265.6452 98.6541,279.5282 C91.6541,282.8522 83.8861,284.9882 77.5901,289.6102 C77.0761,289.9862 77.5741,290.8542 78.0941,290.4732" id="Fill-15" fill="#2D2926"></path>
                    <path d="M6.1478,333.3277 C48.5248,325.2777 90.9008,317.2277 133.2778,309.1797 C145.2218,306.9097 157.1658,304.6407 169.1098,302.3727 C169.7418,302.2527 169.4738,301.2887 168.8438,301.4087 C126.4678,309.4577 84.0908,317.5077 41.7138,325.5567 C29.7698,327.8257 17.8258,330.0947 5.8818,332.3627 C5.2508,332.4827 5.5178,333.4467 6.1478,333.3277" id="Fill-17" fill="#2D2926"></path>
                    <path d="M169.6566,300.4703 C179.9126,286.9703 190.1686,273.4713 200.4256,259.9723 C200.8146,259.4593 199.9466,258.9603 199.5616,259.4673 C189.3056,272.9663 179.0496,286.4663 168.7936,299.9653 C168.4046,300.4783 169.2716,300.9763 169.6566,300.4703" id="Fill-19" fill="#2D2926"></path>
                    <path d="M182.8217,234.4146 C190.1827,241.2396 196.2447,249.2476 200.8197,258.1836 C201.1127,258.7566 201.9757,258.2506 201.6827,257.6786 C197.0717,248.6706 190.9497,240.5886 183.5297,233.7076 C183.0577,233.2696 182.3487,233.9766 182.8217,234.4146" id="Fill-21" fill="#2D2926"></path>
                    <path d="M173.0922,295.2974 L187.3602,294.7874 C190.3672,294.6794 191.9902,295.1514 192.0802,291.8014 C192.2682,284.8074 191.9962,277.7974 192.0742,270.8004 C192.0822,270.1564 191.0822,270.1564 191.0742,270.8004 C191.0072,276.8214 191.0982,282.8434 191.0932,288.8644 C191.0922,289.9554 191.4362,291.6604 191.0712,292.6804 C190.4412,294.4434 186.9272,293.8024 185.4582,293.8554 C181.3362,294.0024 177.2142,294.1504 173.0922,294.2974 C172.4502,294.3204 172.4472,295.3204 173.0922,295.2974" id="Fill-23" fill="#2D2926"></path>
                    <path d="M218.3632,329.1168 C227.6982,337.7158 237.0332,346.3138 246.3682,354.9128 C246.8422,355.3478 247.5502,354.6428 247.0762,354.2058 C237.7402,345.6068 228.4052,337.0088 219.0702,328.4098 C218.5972,327.9738 217.8882,328.6798 218.3632,329.1168" id="Fill-25" fill="#2D2926"></path>
                    <g id="Group-29" transform="translate(142.000000, 365.079000)">
                        <mask id="mask-2" fill="white">
                            <use xlink:href="#path-1"></use>
                        </mask>
                        <g id="Clip-28"></g>
                        <path d="M0.6425,1.2145 C6.1935,20.6515 14.1665,39.3135 24.3755,56.7585 C24.7005,57.3145 25.5655,56.8115 25.2395,56.2535 C15.0725,38.8805 7.1345,20.3045 1.6065,0.9485 C1.4305,0.3315 0.4655,0.5945 0.6425,1.2145" id="Fill-27" fill="#2D2926" mask="url(#mask-2)"></path>
                    </g>
                    <path d="M79.9482,372.3443 C79.5342,378.0323 79.1212,383.7203 78.7082,389.4073 C78.6612,390.0503 79.6612,390.0473 79.7082,389.4073 C80.1212,383.7203 80.5342,378.0323 80.9482,372.3443 C80.9942,371.7023 79.9942,371.7053 79.9482,372.3443" id="Fill-30" fill="#2D2926"></path>
                    <path d="M27.225,225.2652 C19.642,218.4392 11.43,212.3882 2.66,207.1732 C2.106,206.8442 1.602,207.7082 2.156,208.0362 C10.852,213.2082 18.998,219.2032 26.518,225.9722 C26.996,226.4022 27.705,225.6972 27.225,225.2652" id="Fill-32" fill="#1D1E1B"></path>
                    <path d="M74.1645,189.2955 C75.0295,184.1835 73.3775,179.1485 69.5945,175.5885 C69.1255,175.1485 68.4175,175.8545 68.8875,176.2965 C72.3985,179.6005 74.0065,184.2665 73.2005,189.0295 C73.0935,189.6595 74.0575,189.9305 74.1645,189.2955" id="Fill-34" fill="#1D1E1B"></path>
                    <path d="M184.1527,221.6099 L189.1497,219.3599 C189.7347,219.0959 189.2267,218.2339 188.6447,218.4969 L183.6477,220.7469 C183.0617,221.0099 183.5697,221.8719 184.1527,221.6099" id="Fill-36" fill="#2D2926"></path>
                    <path d="M193.8178,214.4566 C195.3248,213.5206 196.7078,212.4216 197.9558,211.1606 C198.4088,210.7026 197.7018,209.9946 197.2488,210.4536 C196.0588,211.6546 194.7498,212.7016 193.3128,213.5936 C192.7668,213.9326 193.2688,214.7976 193.8178,214.4566" id="Fill-38" fill="#2D2926"></path>
                    <path d="M205.0116,204.3941 C206.1146,203.4581 207.2166,202.5221 208.3186,201.5861 C208.8096,201.1681 208.0996,200.4641 207.6116,200.8781 C206.5096,201.8151 205.4076,202.7501 204.3046,203.6871 C203.8136,204.1041 204.5236,204.8081 205.0116,204.3941" id="Fill-40" fill="#2D2926"></path>
                    <path d="M216.0311,195.5787 C216.9971,194.6227 217.9621,193.6667 218.9281,192.7107 C219.3861,192.2577 218.6791,191.5507 218.2211,192.0037 C217.2551,192.9597 216.2891,193.9157 215.3241,194.8717 C214.8661,195.3247 215.5731,196.0317 216.0311,195.5787" id="Fill-42" fill="#2D2926"></path>
                    <path d="M224.8046,186.231 C226.2136,184.544 227.6226,182.855 229.0326,181.167 C229.4416,180.675 228.7386,179.964 228.3256,180.46 C226.9156,182.148 225.5066,183.835 224.0966,185.524 C223.6876,186.015 224.3916,186.726 224.8046,186.231" id="Fill-44" fill="#2D2926"></path>
                    <path d="M233.6762,174.7437 C235.3912,173.4887 236.8092,171.9437 237.8922,170.1147 C238.2212,169.5597 237.3572,169.0567 237.0292,169.6097 C236.0372,171.2857 234.7442,172.7287 233.1722,173.8807 C232.6572,174.2567 233.1552,175.1247 233.6762,174.7437" id="Fill-46" fill="#2D2926"></path>
                    <path d="M243.705,163.7408 C244.833,162.4178 245.961,161.0948 247.089,159.7718 C247.505,159.2848 246.801,158.5738 246.382,159.0648 C245.254,160.3868 244.126,161.7108 242.998,163.0338 C242.583,163.5208 243.287,164.2308 243.705,163.7408" id="Fill-48" fill="#2D2926"></path>
                    <path d="M251.517,152.2779 C252.742,149.9449 253.966,147.6109 255.19,145.2779 C255.489,144.7089 254.626,144.2029 254.327,144.7729 C253.102,147.1059 251.878,149.4399 250.654,151.7729 C250.355,152.3419 251.218,152.8479 251.517,152.2779" id="Fill-50" fill="#2D2926"></path>
                    <path d="M259.1601,137.4664 C259.9091,135.9834 260.6581,134.4994 261.4071,133.0164 C261.6961,132.4434 260.8341,131.9364 260.5431,132.5114 L258.2961,136.9614 C258.0071,137.5344 258.8691,138.0414 259.1601,137.4664" id="Fill-52" fill="#2D2926"></path>
                    <path d="M263.6928,124.2359 C264.6028,121.8879 265.3728,119.5009 266.0068,117.0639 C266.1688,116.4409 265.2048,116.1739 265.0428,116.7989 C264.4088,119.2349 263.6378,121.6229 262.7288,123.9689 C262.4958,124.5699 263.4628,124.8309 263.6928,124.2359" id="Fill-54" fill="#2D2926"></path>
                    <path d="M266.6117,110.608 C267.5057,108.224 267.8987,105.773 267.8047,103.231 C267.7807,102.589 266.7807,102.587 266.8047,103.231 C266.8957,105.686 266.5087,108.043 265.6477,110.342 C265.4217,110.945 266.3877,111.206 266.6117,110.608" id="Fill-56" fill="#2D2926"></path>
                    <path d="M266.5439,94.6773 C266.7859,92.2603 266.5559,89.9033 265.8629,87.5763 C265.6799,86.9613 264.7139,87.2243 264.8989,87.8433 C265.5669,90.0853 265.7769,92.3513 265.5439,94.6773 C265.4799,95.3173 266.4809,95.3123 266.5439,94.6773" id="Fill-58" fill="#2D2926"></path>
                    <path d="M264.3373,78.2008 C263.6093,75.7178 262.8823,73.2328 262.1553,70.7488 C261.9743,70.1328 261.0093,70.3948 261.1913,71.0148 C261.9183,73.4988 262.6453,75.9828 263.3733,78.4668 C263.5533,79.0838 264.5183,78.8208 264.3373,78.2008" id="Fill-60" fill="#2D2926"></path>
                    <path d="M257.3778,61.4303 C256.2188,59.5613 255.0608,57.6923 253.9018,55.8233 C253.5638,55.2763 252.6988,55.7783 253.0388,56.3263 C254.1968,58.1963 255.3558,60.0663 256.5138,61.9353 C256.8528,62.4813 257.7178,61.9793 257.3778,61.4303" id="Fill-62" fill="#2D2926"></path>
                    <path d="M248.682,48.1451 C247.882,46.8061 247.082,45.4661 246.283,44.1261 C245.953,43.5741 245.088,44.0771 245.419,44.6311 C246.219,45.9701 247.018,47.3101 247.818,48.6501 C248.148,49.2031 249.013,48.7001 248.682,48.1451" id="Fill-64" fill="#2D2926"></path>
                    <path d="M241.7465,38.0181 L239.7275,34.0281 C239.4375,33.4541 238.5745,33.9581 238.8645,34.5331 L240.8835,38.5231 C241.1735,39.0971 242.0365,38.5911 241.7465,38.0181" id="Fill-66" fill="#2D2926"></path>
                    <path d="M235.0482,28.5806 C233.8812,27.0806 232.7152,25.5806 231.5482,24.0806 C231.1532,23.5736 230.4502,24.2856 230.8412,24.7876 C232.0072,26.2876 233.1742,27.7876 234.3412,29.2876 C234.7362,29.7956 235.4392,29.0826 235.0482,28.5806" id="Fill-68" fill="#2D2926"></path>
                    <path d="M227.5277,16.6119 C226.6997,15.2899 225.8717,13.9679 225.0427,12.6459 C224.7017,12.1019 223.8367,12.6029 224.1797,13.1509 C225.0077,14.4719 225.8367,15.7949 226.6647,17.1169 C227.0057,17.6609 227.8707,17.1589 227.5277,16.6119" id="Fill-70" fill="#2D2926"></path>
                    <path d="M222.3656,3.6715 C222.1846,2.6325 222.0046,1.5945 221.8236,0.5565 C221.7126,-0.0765 220.7486,0.1915 220.8586,0.8215 C221.0396,1.8595 221.2206,2.8995 221.4016,3.9375 C221.5116,4.5695 222.4756,4.3015 222.3656,3.6715" id="Fill-72" fill="#2D2926"></path>
                    <path d="M150.1561,262.6109 C144.1171,265.3499 138.0781,268.0899 132.0391,270.8279 C131.4541,271.0929 131.9621,271.9559 132.5441,271.6919 C138.5831,268.9529 144.6221,266.2139 150.6601,263.4739 C151.2461,263.2099 150.7381,262.3469 150.1561,262.6109" id="Fill-95" fill="#1D1E1B"></path>
                    <path d="M174.0307,247.0894 C172.4847,248.4264 170.9387,249.7624 169.3927,251.0994 C168.9057,251.5204 169.6147,252.2254 170.0997,251.8064 C171.6457,250.4694 173.1917,249.1334 174.7377,247.7964 C175.2247,247.3744 174.5157,246.6704 174.0307,247.0894" id="Fill-97" fill="#1D1E1B"></path>
                    <path d="M174.601,259.9117 C175.245,259.9117 175.246,258.9117 174.601,258.9117 C173.957,258.9117 173.956,259.9117 174.601,259.9117" id="Fill-99" fill="#1D1E1B"></path>
                    <path d="M78.9931,274.6969 C79.6371,274.6969 79.6381,273.6969 78.9931,273.6969 C78.3501,273.6969 78.3481,274.6969 78.9931,274.6969" id="Fill-101" fill="#1D1E1B"></path>
                    <path d="M93.0243,254.3502 C91.8123,256.0732 90.6013,257.7952 89.3893,259.5182 C89.0183,260.0462 89.8843,260.5462 90.2523,260.0232 C91.4643,258.3002 92.6763,256.5782 93.8873,254.8542 C94.2583,254.3272 93.3923,253.8272 93.0243,254.3502" id="Fill-103" fill="#1D1E1B"></path>
                    <path d="M56.8837,392.1519 C56.7007,394.6729 56.5177,397.1959 56.3337,399.7169 C56.2877,400.3599 57.2877,400.3569 57.3337,399.7169 C57.5177,397.1959 57.7007,394.6729 57.8837,392.1519 C57.9307,391.5089 56.9297,391.5119 56.8837,392.1519" id="Fill-105" fill="#1D1E1B"></path>
                </g>
            </g>
        </g>
    </g>
</svg>