<svg xmlns="http://www.w3.org/2000/svg" xmlns:xlink="http://www.w3.org/1999/xlink" width="807" height="312" viewBox="0 0 807 312">
    <defs>
        <path id="a" d="M677.6 0H0v65.292h677.6V0z"/>
        <path id="c" d="M931.212.489V85H.506V.489h930.706z"/>
        <path id="e" d="M0 3.687V.827h9.713v2.86H0z"/>
        <path id="g" d="M.387.411H3.84v3.532H.387V.411z"/>
    </defs>
    <g fill="none" fill-rule="evenodd">
        <g transform="translate(314 100)">
            <mask id="b" fill="#fff">
                <use xlink:href="#a"/>
            </mask>
            <path fill="#F2F2F2" d="M672.488 44.841c-85.491-12.05-172.121-15.646-258.197-21.44-86.716-5.838-173.418-12.29-260.19-17.256-25.168-1.44-50.357-2.624-75.557-3.33A1019.094 1019.094 0 0 0 53.802.04c-2.524-.25-4.333.684-5.43 2.173-13.867-.159-27.74-.152-41.612.07-9 .146-9.027 14.146 0 14 23.902-.383 47.793-.134 71.674.528 28.794 3.578 57.452 8.2 86.173 12.341 36.747 5.298 73.355 8.603 110.397 10.841 18.956 1.146 37.39 4.007 56.07 7.287 18.3 3.214 36.463 4.916 55.054 4.59 18.669-.328 37.3-1.584 55.978-1.697 19.133-.116 38.266.47 57.367 1.578 6.702.39 13.398.848 20.09 1.358 13.874 1.207 27.732 2.6 41.57 4.116 22.498 2.465 44.959 5.241 67.419 8.02 5.912.73 8.427-7.025 5.83-11.223a1208.817 1208.817 0 0 1 34.384 4.32c3.772.531 7.472-.925 8.61-4.89.94-3.27-1.15-8.084-4.888-8.61" mask="url(#b)"/>
        </g>
        <path fill="#F2F2F2" d="M862.178 264.497c-49.691 4.713-115.015 2.024-165.157 1.532-24.923-.245-49.798-2.094-74.72-2.396-24.934-.304-49.86.574-74.77 1.526-50.004 1.91-97.615 2.687-147.584-.662-56.505-3.787-123.341 8.833-179.476 1.532-3.781-.491-19.102 1.856-19.137 5.285-.044 4.186 11.584 3.904 15.318 4.389 2.845.37 17.073 1.362 19.918 1.732 5.77 2.235 11.5-.02 17.514 1.643 9.146 2.529 23.067-.241 31.639 3.63 8.939 4.038 22.256 2.083 31.92 2.663 9.858.591 22.45.248 31.877 3.074 9.176 2.75 15.61 1.349 25.128 2.655 10.08 1.384 9.746 3.542 19.905 3.753 2.817.06 15.686-.02 18.504 0 5.47.757 15.931-.261 21.478 0 23.336 1.096 31.374-1.445 54.386-3.753 21.642-2.17 43.394.046 64.738 3.753 43.256 7.512 86.924 20.593 131.241 15.322 11.091-1.32 22.066-3.697 33.216-4.482 12.273-.863 24.47.667 36.656 1.93 24.33 2.522 47.816-.184 72.004-2.778 54.24-5.818 108.72-1.563 162.892 2.835 4.852.393 9-4.42 9-9 0-5.198-4.135-8.606-9-9-5.106-.416-10.216-.83-15.328-1.235 4.684-2.416 5.797-8.545 3.333-12.742a34.478 34.478 0 0 1 2.651-4.39c2.244-3.184 1.357-7.857-1.228-10.745 5.86.068 11.718.14 17.573.217 9.012.116 9.017-13.883 0-14-50.386-.651-84.264 12.948-134.491 17.712z"/>
        <g transform="translate(122 14.59)">
            <mask id="d" fill="#fff">
                <use xlink:href="#c"/>
            </mask>
            <path fill="#EFECD3" d="M927.724 68.274c-1.57-1.167-.015-8.496.057-10.123a28.973 28.973 0 0 0-.158-4.377c.003-.384.008-.771-.004-1.147-.145-4.395-1.05-8.786-2.012-13.062-.754-3.356-1.383-6.83-2.14-10.25 1.122-3.218 2.891-6.183 2.91-9.833.062-12.07-10.657-13.936-20.189-15.207a343.052 343.052 0 0 0-32.285-2.767C830.08-.17 786.463 5.747 743.02 10.64c-9.158 1.03-18.324 2.017-27.5 2.884l-63.335.374c-38.618-2.417-77.23-4.687-115.643-.682l-91.212 3.039c-14.662.489-29.368.728-43.983 2.078-14.923 1.378-29.706 4.564-44.758 3.409-1.532-.117-2.816.166-3.859.724-11.267-.351-22.499.742-33.767 1.002-24.418.565-48.863-1.182-73.224 1.15l-58.244-3.641c-19.576-1.223-39.583-3.667-59.272-3.252-10.384-2.162-20.789-4.776-30.173-9.833C91.22 4.21 83.946-.651 76.39.729a2.379 2.379 0 0 0-2.222.363c-.214.183-.45.328-.68.487-.823.333-1.648.744-2.476 1.254a2.728 2.728 0 0 0-.979 1.043c-1.337.24-2.633.62-3.892 1.255-1.75.882-2.11 2.18-3.4 3.274-2.542 2.157-5.376 1.873-6.662 4.45-2.824 2.769-5.16 7.247-8.368 10.125-7.514.523-15.036.643-22.43 2.175-5.224 1.083-10.352-1.202-15.596-.505-1.538.205-3.496.58-4.574 1.857-.226.268-.5.603-.657.955-.375-.04-.749-.08-1.115-.127-3.65-.48-3.613 4.736-.797 5.892.044.019.087.027.131.045.434.892 1.278 1.582 2.55 1.63 6.138.23 11.865 2.226 17.857 3.347 4.503.84 8.995.833 13.517.963-.034 1.372.751 2.752 2.068 3.073.414.233.91.377 1.51.36 1.864-.047 4.742 4.255 6.064 5.367 1.66 1.396 3.463 2.793 5.313 3.922 4.27 2.608 9.362 2.798 13.58 5.502 3.795 2.434 7.28 5.12 12.011 5.127 5.801.008 11.768-2.078 17.587-2.611 5.311-.488 10.343-1.23 15.431-2.877 5.887-1.906 11.382-1.225 17.455-1.128 6.564.104 13.115-.2 19.634-.843 5.431 1.15 10.88 2.21 16.462 2.598 13.12.91 26.291 1.094 39.42 1.959 12.954.853 25.865 2.09 38.793 3.252 5.726.514 11.432.862 17.121.852 19.085 2.712 38.246 5.423 57.524 4.195 18.542-1.182 36.851-3.694 55.353-4.7 24.48 1.08 49.043.425 73.535 1.544 34.131 1.559 67.614 8.597 101.586 11.708 2.198.2 3.887-.432 5.074-1.534 12.607.48 25.256.404 37.826.275 35.234-.363 70.47-.738 105.702-1.107l5.697-.06c23.004 2.21 46.156 2.718 69.285 3.287 16.546.406 33.1.898 49.602 2.216 16.405 1.31 32.737 3.42 49.153 4.605 18.93 1.366 37.833 1.224 56.55-2.212 7.053-1.294 6.402-10.28 1.792-13.708" mask="url(#d)"/>
        </g>
        <path fill="#071F2C" d="M198.125 63.11a7.21 7.21 0 0 1-4.602-.467c-.582-.263-1.091.598-.505.863 1.723.781 3.524.98 5.373.568.628-.14.362-1.104-.266-.964M191.377 61.46c-1.809-1.184-3.79-1.678-5.809-2.378-2.555-.887-4.314-2.568-6.545-3.99-.543-.346-1.046.519-.504.864 1.827 1.163 3.32 2.689 5.334 3.55 2.342 1.004 4.857 1.4 7.02 2.817.54.354 1.042-.511.505-.863M177.499 55.35c-1.815-.297-3.37-1.16-5.018-1.919-.53-.242-1.162-.395-1.661-.68-.658-.374-1.017-1.07-1.625-1.502-.526-.373-1.026.493-.505.863.412.292.547.83.93 1.154.672.569 1.84.79 2.608 1.148 1.645.767 3.194 1.603 5.005 1.9.63.103.9-.86.266-.964"/>
        <path fill="#071F2C" d="M170.117 52.661c-3.254.078-6.508.087-9.762.002-3.062-.081-7.375.408-9.844-1.722-.485-.419-1.196.286-.707.707 2.146 1.851 4.926 1.801 7.624 1.914 4.229.178 8.459.201 12.689.099.643-.016.645-1.016 0-1"/>
        <path fill="#071F2C" d="M151.993 51.888c-2.696.045-5.336-.015-7.991-.55-2.161-.434-5.968-.828-6.94-3.108-.25-.591-1.111-.081-.862.505.937 2.202 3.549 2.603 5.638 3.126 3.389.846 6.67 1.085 10.155 1.027.643-.011.645-1.011 0-1"/>
        <path fill="#071F2C" d="M137.6 49.544c-3.209.165-6.397-.19-9.447-1.233-1.408-.482-2.954-1.041-4.183-1.9-2.158-1.508-1.952-3.4-1.349-5.607.17-.621-.794-.887-.964-.266-.93 3.407-.328 5.68 2.857 7.312 4.052 2.076 8.555 2.926 13.085 2.694.64-.032.644-1.032 0-1M185.547 42.306c5-.203 9.982-.05 14.96.466.64.066.635-.935 0-1-4.978-.515-9.96-.67-14.96-.465-.641.026-.645 1.026 0 1M185.414 44.323c1.206.207 2.452.344 3.676.343.643 0 .644-1 0-1a20.101 20.101 0 0 1-3.41-.307c-.63-.108-.9.856-.266.964M188.569 34.594c-3.424-.743-6.965-1.502-10.477-.93-3.771.618-6.92 3.159-10.786 3.357-.64.032-.644 1.033 0 1 3.159-.161 5.7-1.756 8.624-2.77 4.082-1.413 8.274-.583 12.373.307.627.137.895-.827.266-.964"/>
        <path fill="#071F2C" d="M192.37 23.071c-4.27-1.152-9.39-2.323-13.128.837-2.045 1.728-2.173 4.394-3.71 6.458-1.819 2.437-4.368 4.451-6.623 6.475-.48.43.23 1.135.707.707 3.036-2.724 6.676-5.413 8.168-9.323 2.475-6.487 8.663-5.716 14.32-4.19.621.168.887-.796.265-.964"/>
        <path fill="#071F2C" d="M198.768 17.817c-2.681-.425-6.228-1.696-8.898-.886-2.45.743-4.414 3.116-5.68 5.213-.333.553.532 1.056.864.505 1.664-2.757 3.949-5.066 7.438-4.819 2 .142 4.032.637 6.01.951.63.1.9-.864.266-.964"/>
        <path fill="#071F2C" d="M212.33 17.992c-3.894-1.356-7.177-4.274-11.388-4.692-3.586-.356-7.025.921-9.683 3.301-.48.431.23 1.136.707.707 3.017-2.7 7.156-3.778 11.07-2.566 3.185.987 5.876 3.116 9.027 4.214.61.213.87-.753.266-.964M165.176 37.02c-3.968.047-7.918.477-11.885.534-3.166.047-6.166.085-9.123 1.342-.591.251-.082 1.113.505.863 3.356-1.427 6.949-1.114 10.506-1.256 3.335-.132 6.658-.444 9.997-.483.643-.008.645-1.008 0-1"/>
        <path fill="#071F2C" d="M144.553 38.847c-4.718-1.19-9.604-1.712-14.467-1.423-2.613.154-7.133.102-8.378 2.995-.252.585.609 1.095.863.504 1.308-3.038 7.504-2.577 10.158-2.575 3.905.002 7.774.509 11.558 1.463.624.157.89-.807.266-.964"/>
        <path fill="#071F2C" d="M130.277 38.32c-.734 1.143-1.981 1.854-2.853 2.894-1.431 1.707-3.336 1.728-5.233.7-.566-.308-1.072.555-.505.862 1.654.898 3.597 1.278 5.287.231.826-.512 1.297-1.362 1.99-2.018.772-.732 1.59-1.25 2.177-2.164.349-.543-.516-1.045-.863-.505M150.147 38.087a13.11 13.11 0 0 0-1.545 6.687c.023.642 1.023.645 1 0a12.04 12.04 0 0 1 1.409-6.183c.301-.568-.562-1.074-.864-.504M151.659 38.57l-.614 3.384c-.115.63.849.9.964.265l.614-3.384c.115-.629-.85-.9-.964-.266M154.486 38.339c.054 2.497-1.172 4.757-2.39 6.859-.322.559.54 1.063.864.505 1.304-2.254 2.583-4.691 2.526-7.364-.014-.643-1.014-.645-1 0M147.978 37.985a9.092 9.092 0 0 0-2.538 5.856c-.03.644.97.642 1 0a8.03 8.03 0 0 1 2.245-5.149c.45-.46-.256-1.168-.707-.707M139.39 38.288c-1.258 1.66-2.317 3.595-2.712 5.656-.12.629.843.899.964.266.38-1.985 1.4-3.818 2.61-5.417.39-.513-.479-1.012-.863-.505M135.606 41.018l-.232 1.637c-.089.63.874.901.964.265l.232-1.636c.09-.63-.874-.902-.964-.266M175.085 36.089c-1.179 3.076 1.345 6.322 3.356 8.43.445.467 1.151-.241.707-.706-1.756-1.842-4.135-4.754-3.099-7.458.231-.602-.735-.863-.964-.266M182.378 39.148l-.351 1.637c-.134.628.83.895.965.265l.35-1.636c.135-.627-.829-.896-.964-.266M173.225 40.121c.326 1.748 1.11 3.311 2.285 4.642.427.483 1.132-.227.707-.708-1.066-1.207-1.733-2.619-2.028-4.2-.118-.631-1.082-.364-.964.266M173.025 44.208l.468 1.52c.188.613 1.154.35.964-.266l-.468-1.52c-.19-.613-1.154-.352-.964.266M159.18 53.273c-1.012 1.514-1.814 4.533-.32 6.054.743.758 2.193 1.041 3.17 1.34 1.54.468 3.112.76 4.711.942.638.073.633-.928 0-1-2.052-.233-4.082-.69-6.008-1.442-1.21-.474-1.602-1.073-1.632-2.398-.025-1.106.335-2.082.941-2.99.36-.537-.507-1.039-.863-.506"/>
        <path fill="#071F2C" d="M166.947 60.556c-.697-3.582-4.893-5.03-8.022-5.813-.625-.157-.89.807-.267.963 2.771.695 6.705 1.932 7.325 5.116.123.631 1.087.364.964-.266M173.005 59.537c1.097 1.337 1.908 2.968 1.986 4.717.045.99-.05 1.986.44 2.884.31.564 1.174.06.865-.505-.621-1.137-.207-2.769-.555-4.027-.391-1.41-1.106-2.65-2.03-3.776-.408-.497-1.111.214-.706.707"/>
        <path fill="#071F2C" d="M188.04 71.317c-3.73-2.208-7.547-3.296-11.577-4.746-2.266-.816-3.174-2.536-4.964-3.923-1.454-1.127-3.258-1.67-4.991-2.197-.617-.188-.881.777-.265.965 2.465.75 4.4 1.618 6.15 3.56.917 1.017 1.8 1.746 3.093 2.294 1.706.723 3.575 1.062 5.319 1.691 2.355.847 4.58 1.947 6.73 3.22.556.328 1.059-.536.505-.864M249.244 67.219c-8.532-1.58-17.042 1.259-25.097 3.779-5.211 1.63-10.621 1.742-16.005 2.334-5.505.607-13.238 4.356-17.898-.08-.467-.442-1.175.263-.708.708 3.606 3.432 8.464 2.334 12.837 1.339 6.19-1.41 12.596-1.137 18.794-2.462 9.3-1.99 18.007-6.47 27.81-4.654.63.116.9-.847.267-.964M249.19 30.535c-7.003-1.049-14.072-2.11-20.757-4.534-3.243-1.176-6.195-2.788-9.206-4.437-1.332-.73-3.519-2.511-5.111-2.54-.644-.011-.644.989 0 1 .999.018 2.349 1.205 3.224 1.664 1.181.62 2.338 1.282 3.505 1.928a51.651 51.651 0 0 0 8.154 3.643c6.438 2.225 13.213 3.235 19.925 4.24.63.095.901-.869.266-.964M190.445 36.483a81.556 81.556 0 0 1 6.077 1.996c.604.226.864-.74.266-.964a82.03 82.03 0 0 0-6.077-1.997c-.62-.177-.885.788-.266.965M180.909 26.673a5.927 5.927 0 0 0 1.247 1.738c.462.449 1.17-.258.707-.707a5.164 5.164 0 0 1-1.091-1.535c-.274-.582-1.136-.075-.863.504M179.272 28.777l.818 1.17c.366.522 1.233.023.863-.505l-.818-1.169c-.367-.523-1.234-.024-.864.504M194.188 26.892l5.846 1.988c.611.207.873-.758.266-.964l-5.846-1.988c-.611-.207-.873.758-.266.964M201.547 21.826l7.72 3.381c.584.256 1.094-.606.505-.863l-7.72-3.38c-.584-.257-1.094.604-.505.862M1039.725 19.388c-10.741-4.1-22.967-2.871-34.23-2.685-13.02.215-26.035.65-39.043 1.232-26.028 1.164-52.025 2.914-78.02 4.668-51.553 3.478-102.988 6.149-154.672 6.262-26.076.056-52.152-.11-78.224.333-25.53.434-51.054 1.38-76.571 2.223-51.242 1.693-102.49 4.455-153.757 5.137-14.362.19-28.725.074-43.087.223-14.458.15-28.925.534-43.378-.058-14.386-.59-28.636-2.726-42.982-3.85-14.268-1.116-28.571-1.725-42.878-2.03-.644-.014-.643.986 0 1 12.772.273 25.539.786 38.283 1.689 12.812.908 25.53 2.718 38.332 3.668 25.142 1.867 50.564.608 75.755.523 51.166-.17 102.28-2.854 153.408-4.616 51.593-1.78 103.134-3.234 154.762-3.23 25.553.003 51.114 0 76.658-.788 26.048-.804 52.068-2.41 78.07-4.127 28.599-1.888 57.188-3.956 85.813-5.426 14.566-.748 29.139-1.341 43.72-1.678 7.227-.166 14.458-.298 21.687-.297 6.846 0 13.628.325 20.088 2.79.602.23.862-.735.266-.963"/>
        <path fill="#071F2C" d="M249.11 68.2l78.49 6.056c26.073 2.011 52.156 4.533 78.307 5.18 51.22 1.265 102.492-4.029 153.656-.67 25.093 1.647 50.076 4.602 75.142 6.584 12.777 1.011 25.603 1.897 38.426 1.85 12.78-.047 25.54-.87 38.319-1.03 12.369-.154 24.618 1.01 36.962 1.547 12.975.564 25.965.618 38.95.601 26.149-.033 52.278.138 78.413 1.093a1681.74 1681.74 0 0 1 86.29 5.38c14.587 1.286 29.18 2.997 43.839 3.072 14.635.075 29.445-3.3 44.012-1.05.63.097.9-.867.266-.965-12.167-1.879-24.266.396-36.444.886-13.077.527-26.145-.597-39.156-1.8-26.093-2.41-52.214-4.377-78.388-5.652a1682.148 1682.148 0 0 0-78.575-1.989c-25.475-.049-50.861.136-76.291-1.64-25.525-1.782-51.102 1.36-76.661.028-25.63-1.334-51.132-4.309-76.693-6.503-25.22-2.165-50.278-2.874-75.576-2.198-25.934.693-51.867 1.736-77.815 1.693-29.294-.049-58.38-2.439-87.564-4.69L249.11 67.2c-.642-.049-.64.951 0 1M374.688 70.142l-7.53-.96c-.637-.082-.63.918 0 1l7.53.96c.637.082.63-.918 0-1M350.31 67.233l-16.614-1.036c-.643-.04-.64.96 0 1l16.613 1.036c.643.04.64-.96 0-1M255.046 62.851a34.729 34.729 0 0 1-3.414-7.385c-.198-.609-1.164-.348-.964.266a35.938 35.938 0 0 0 3.514 7.624c.336.548 1.201.047.864-.505M248.96 59.378l-1.09-4.058c-.167-.621-1.132-.357-.965.266l1.091 4.058c.167.62 1.131.357.964-.266M295.828 40.305l1.247.312c.625.156.89-.808.266-.964l-1.247-.312c-.624-.156-.891.808-.266.964M124.578 24.005l-3.502-6.367c-.311-.564-1.174-.06-.864.505l3.502 6.366c.31.564 1.175.06.864-.504"/>
        <g transform="translate(100 27.59)">
            <mask id="f" fill="#fff">
                <use xlink:href="#e"/>
            </mask>
            <path fill="#071F2C" d="M9.354 2.71L.625.84c-.627-.135-.896.83-.266.964l8.729 1.87c.628.135.896-.829.266-.964" mask="url(#f)"/>
        </g>
        <path fill="#071F2C" d="M107.841 47.134a36 36 0 0 0-6.547 1.56c-.606.205-.346 1.17.266.963a36.058 36.058 0 0 1 6.547-1.558c.634-.09.364-1.054-.266-.965M119.14 61.898l-4.36 4.058c-.472.44.236 1.145.707.707l4.36-4.058c.472-.439-.236-1.145-.707-.707M182.454 81.623l3.433 2.802c.495.403 1.206-.3.707-.707l-3.433-2.802c-.495-.403-1.206.3-.707.707M180.994 86.684l1.87.937c.574.287 1.081-.576.505-.864l-1.87-.936c-.574-.287-1.082.576-.505.864M206.666 5.7l3.741.624c.63.105.901-.859.266-.965l-3.74-.623c-.63-.105-.9.86-.266.964"/>
        <g transform="translate(210 -.41)">
            <mask id="h" fill="#fff">
                <use xlink:href="#g"/>
            </mask>
            <path fill="#071F2C" d="M.618 1.357a7.324 7.324 0 0 1 2.284 2.35c.335.548 1.2.046.863-.505A8.48 8.48 0 0 0 1.123.492C.58.143.079 1.008.618 1.358" mask="url(#h)"/>
        </g>
        <path fill="#071F2C" d="M363.923 32.84a41.47 41.47 0 0 0 7.17 0c.637-.055.642-1.055 0-1a41.47 41.47 0 0 1-7.17 0c-.641-.055-.638.945 0 1M684.525 37.093l-17.5.5c-.643.019-.645 1.019 0 1l17.5-.5c.642-.018.645-1.018 0-1M644.026 41.102l-6.5.5c-.638.05-.643 1.05 0 1l6.5-.5c.638-.05.643-1.05 0-1M630.025 50.593h-6.5c-.644 0-.645 1 0 1h6.5c.643 0 .645-1 0-1"/>
        <g>
            <path fill="#623F2B" d="M942.363 255.239c-1.627-1.765-.62-5.55-.43-7.762.384-4.487.784-8.975 1.175-13.461l2.355-26.924c.11-1.266-.188-2.54-.77-3.683.838-3.409-.413-7.268-4.729-8.643-22.195-7.069-45.427-7.186-68.473-6.227-23.489.977-46.712 1.508-70.192-.186-23.799-1.717-47.484-4.684-71.25-6.77a857.537 857.537 0 0 0-71.567-3.294c-26.469-.108-52.908 1.092-79.277 3.356a1163.758 1163.758 0 0 0-43.227-1.614c-25.65-.47-51.215.29-76.8 1.276-30.17-.926-60.355-.623-90.51.84-1.22-.087-2.441-.161-3.66-.263-1.494-.124-2.774.13-3.836.653-3.872.213-7.743.438-11.614.688-10.71.695-21.43 1.414-32.166 1.368-11.981-.052-23.929-1.046-35.876-1.833-22.86-1.506-45.75-2.47-68.648-3.148-21.068-.621-42.144-.998-63.22-1.327-4.667-.777-9.307-1.722-13.895-2.98-10.38-2.85-20.68-6.012-31.011-9.03-1.6-.467-4.441-1.547-7.472-2.355-.103-.062-.208-.117-.311-.179-3.564-2.131-6.93-3.962-11.205-3.375-5.185.711-9.992 3.647-15.1 4.857-5.593 1.324-11.183 1.217-16.844 1.822-.052.005-.096.02-.146.03-4.95.072-9.902.19-14.846.482-3.528.207-10.092-.681-12.155 2.837a2.96 2.96 0 0 0-.196.396c-2.72.732-1.676 5.107 1.288 4.809.247.585.699 1.08 1.387 1.316 4.701 1.614 9.694 1.28 14.6 1.326 4.262.04 8.524.078 12.786.119.132.068.249.15.404.2 4.543 1.512 9.038 1.976 13.692 1.455a5.361 5.361 0 0 0-.783 2.104c-.086.56-.275 1.084-.504 1.597-.445.702-.811 1.348-1.192 1.743-.722.747-1.153 1.566-1.355 2.394-.382.637-.715 1.292-.933 1.991a4.875 4.875 0 0 0-.167.739 30.949 30.949 0 0 0-7.295 1.613c-1.197.422-.784 2.382.43 1.953a31.37 31.37 0 0 1 2.916-.856c.145.226.386.4.752.435.547.051 1.082.14 1.618.225.027.057.07.106.11.16a1.8 1.8 0 0 0 .066 1.583c.376.715.767 1.423 1.152 2.134a.997.997 0 0 0-.208.817c.17 1.084.163 1.902.032 2.964a.898.898 0 0 0 .063.454.863.863 0 0 0-.167.039c-1.422-.11-2.845-.206-4.267-.326-1.284-.107-1.387 1.89-.105 1.997 1.92.163 3.842.297 5.762.44 3.93.622 8.29 1.622 12.22 1.03.053.763.398 1.506 1.086 1.842l1.795.875c.088.054.169.112.266.159l1.82.857c3.125 1.577 7.009 2.48 10.359 3.006 2.38.734 4.686.724 4.715-2.083 2.863.285 5.72.35 8.584.024 2.65.23 5.298.32 7.895.107 5.915-.486 10.775-4.178 16.58-5.248 4.357-.804 8.751-.259 13.108-.412.24.037.475.081.73.1 19.48 1.397 38.968 2.793 58.365 5.106 19 2.266 37.74 6.06 56.672 8.75 38.356 5.451 77.141 3.625 115.739 3.329 3.147-.023 6.295-.032 9.442-.028 34.067 4.274 68.184 8.204 102.446 10.516 41.115 2.776 82.35 3.053 123.54 2.368 2.148.21 4.299.377 6.444.515 11.292.727 22.599 1.23 33.895 1.878 22.908 1.315 45.81 2.767 68.693 4.458 46.065 3.404 92.075 7.778 137.855 13.966 25.963 3.508 51.843 7.615 77.599 12.417 6.627 1.235 10.003-8.13 5.966-12.508"/>
            <path fill="#071F2C" d="M101.325 182.521c-3.873 2.917-8.567 3.994-13.077 5.532-2.334.796-4.426 1.745-6.962 1.55-2.435-.187-4.84-.806-7.275-1.052-4.277-.432-8.7-.334-12.797 1.094-2.667.928-5.763 2.933-5.436 6.135.065.638 1.042.42.977-.216-.566-5.553 9.807-6.276 13.337-6.24 4.051.039 7.992 1.269 12.006 1.334 3.49.056 6.972-1.825 10.247-2.87 3.435-1.1 6.742-2.333 9.65-4.524.514-.387-.159-1.128-.67-.743"/>
            <path fill="#071F2C" d="M94.371 186.782c.533-.706.61-1.48.598-2.348-.018-1.342.128-2.478.852-3.644.34-.547-.495-1.097-.836-.549-.511.822-.858 1.69-.982 2.658-.141 1.106.252 2.38-.467 3.334-.389.515.45 1.06.835.55M92.15 187.207c-.135-1.509-1.118-2.776-1.24-4.277-.051-.632-1.05-.693-.998-.053.13 1.605 1.12 2.951 1.261 4.545.056.637 1.033.42.977-.215M88.358 188.33c-1.36-2.477-3.173-5.014-3.326-7.904-.125-2.369.393-4.688.112-7.06-.074-.64-1.05-.422-.976.213.326 2.762-.537 5.55.003 8.288.49 2.479 2.1 4.742 3.297 6.923.31.563 1.2.107.89-.46"/>
            <path fill="#071F2C" d="M87.205 186.375c-2.08-1.663-4.59-1.99-7.05-2.823-3.263-1.105-6.132-3.06-8.957-4.982-.533-.363-1.081.474-.549.836 2.406 1.636 4.83 3.277 7.508 4.442 2.801 1.222 6.06 1.412 8.5 3.363.504.402 1.047-.437.548-.836M85.802 189.08a9.526 9.526 0 0 1-4.109-2.566c-.439-.47-1.183.198-.743.67a10.521 10.521 0 0 0 4.536 2.846c.615.188.932-.76.316-.95"/>
            <path fill="#071F2C" d="M70.19 179.222c-.503 1.465-1.799 2.55-2.45 3.98-.84 1.845-1.807 3.57-2.986 5.221-.375.525.462 1.072.836.55a29.685 29.685 0 0 0 2.853-4.904c.738-1.612 2.128-2.874 2.696-4.53.21-.61-.74-.926-.949-.317"/>
            <path fill="#071F2C" d="M70.977 178.443c-2.583.306-5.199.625-7.8.334-2.24-.25-4.292-1.23-6.526-1.472-2.038-.22-4.075.122-6.115.07-1.73-.043-3.414-.43-5.137-.546-3.188-.214-6.393-.066-9.586-.146-1.45-.036-2.923-.07-4.358-.301-2.678-.433-8.018-3.995-3.863-6.776.528-.354.076-1.247-.46-.888-2.699 1.806-2.15 5.412.306 7.199 3.208 2.334 8.2 1.79 11.92 1.801 4.707.014 9.382.78 14.066.564 3.165-.147 5.731.874 8.781 1.37 2.982.485 6.011.121 8.987-.233.638-.075.42-1.051-.215-.976"/>
            <path fill="#071F2C" d="M58.494 177.672c-1.41-.74-1.374-2.734-1.618-4.11-.113-.633-1.09-.419-.977.215.296 1.667.342 3.838 2.047 4.73.565.298 1.118-.536.548-.835M46.558 177.16c-1.105-.614-1.988-1.47-1.954-2.816.017-.643-.981-.697-.998-.052-.043 1.696.978 2.91 2.403 3.705.56.311 1.112-.523.549-.837M63.037 165c-2.85.256-5.573-.714-8.416-.08-1.45.325-2.846.844-4.316 1.095-2.073.356-4.104.217-6.19.164-4.772-.12-9.847-.18-14.49 1.065-.618.165-.408 1.144.216.977 5.205-1.397 10.87-1.134 16.21-.962 2.952.096 5.534-.542 8.376-1.254 2.98-.748 5.832.241 8.825-.03.638-.057.419-1.034-.215-.976M95.815 161.648c-2.465-.418-4.394-2.212-6.935-2.522-2.544-.308-5.098.275-7.486 1.118-2.498.883-4.893 2.05-7.44 2.8-2.852.84-5.813 1.2-8.757 1.56-.637.078-.42 1.055.215.978 5.218-.64 9.799-1.879 14.673-3.782 2.764-1.08 5.728-2.073 8.743-1.675 2.523.332 4.45 2.1 6.934 2.522.633.107.68-.891.053-.999M141.489 176.24a150.657 150.657 0 0 1-21.687-6.008c-3.451-1.235-6.92-2.376-10.51-3.13-3.84-.807-7.053-1.826-10.48-3.822-.555-.323-1.106.511-.549.836 6.302 3.671 13.537 4.342 20.355 6.755 7.457 2.64 14.787 4.778 22.555 6.32.623.123.945-.825.316-.95M131.708 202.323c-7.751 3.553-17.057 6.993-25.695 6.546-4.541-.235-9.05-1.275-13.413-2.515-3.845-1.092-7.604-2.921-11.684-2.533-.638.06-.42 1.037.215.976 4.877-.464 10.033 2.322 14.745 3.444 4.18.995 8.504 1.813 12.819 1.655 7.938-.291 16.305-3.398 23.47-6.685.587-.269.127-1.157-.457-.888M79.452 203.853c-4.462.436-8.861-.252-13.27-.878-2.134-.302-4.855-.34-6.744-1.513-1.962-1.216-2.673-3.575-2.672-5.764 0-.641-.998-.698-.999-.052-.002 4.2 2.207 6.91 6.283 7.722 5.667 1.13 11.848 2.025 17.617 1.461.638-.062.42-1.039-.215-.976M74.335 192.856c.147 1.94.218 3.879.217 5.824 0 .641 1 .698 1 .053 0-1.946-.072-3.885-.218-5.825-.048-.632-1.048-.693-.999-.052"/>
            <path fill="#071F2C" d="M72.914 190.975c-.83 3.308-.976 6.668-1.059 10.064-.015.64.983.696.999.052.08-3.303.202-6.58 1.01-9.8.155-.621-.793-.94-.95-.316M77.509 191.51c.43 1.319.58 2.648.447 4.029-.063.641.936.692.998.052a10.47 10.47 0 0 0-.469-4.296c-.196-.605-1.175-.399-.976.216M98.61 208.694c-.52 3.484-3.978 2.61-6.307 1.773-1.444-.519-2.934-.815-4.408-1.228-3.339-.935-6.2-2.814-9.04-4.738-.533-.362-1.08.475-.549.835 2.073 1.405 4.161 2.815 6.455 3.838 2.445 1.092 5.105 1.478 7.613 2.387 3.084 1.117 6.636 1.192 7.235-2.814.095-.637-.905-.685-.999-.053M75.409 172.522a35.585 35.585 0 0 0-2.066 6.134c-.149.622.799.943.949.317.504-2.111 1.19-4.15 2.066-6.135.26-.589-.691-.9-.95-.316M71.696 178.836a12.015 12.015 0 0 0 1.204-5.69c-.02-.638-1.019-.696-.998-.052a11.392 11.392 0 0 1-1.155 5.426c-.28.578.672.888.949.316M58.945 166.891c-.56.55-1.184.978-1.898 1.306-.585.268-.126 1.157.459.889a7.436 7.436 0 0 0 2.108-1.452c.459-.45-.208-1.195-.67-.743M55.947 165.39a7.055 7.055 0 0 0-.199 1.69c.006.641 1.004.698.999.053a6.025 6.025 0 0 1 .149-1.427c.146-.622-.802-.943-.95-.316M82.479 160.732c.893.552 2.085 1.294 2.61 2.232.313.56 1.204.105.888-.459-.613-1.098-1.903-1.962-2.95-2.609-.547-.338-1.096.496-.548.836M110.106 202.586c-1.194 1.96-3.01 3.37-5.217 4.005-.615.177-.406 1.155.215.976 2.454-.705 4.507-2.247 5.837-4.431.335-.55-.5-1.1-.835-.55M96.44 190.018l3.02-.718c.624-.149.413-1.126-.216-.977-1.006.239-2.012.479-3.019.717-.624.15-.413 1.127.215.978M102.952 189.55l.367 1.619c.143.627 1.12.415.978-.215l-.369-1.62c-.141-.627-1.12-.415-.976.215M70.938 182.909a6.874 6.874 0 0 1 2.845 1.07c.541.35 1.09-.485.55-.836a8.069 8.069 0 0 0-3.343-1.233c-.637-.087-.687.912-.052.999M69.818 185.13l2.237.879c.6.235.912-.715.315-.95l-2.236-.878c-.6-.236-.913.715-.316.949M217.858 179.728a862.11 862.11 0 0 1-74.092-3.043c-.642-.055-.694.944-.053.998a862.11 862.11 0 0 0 74.092 3.044c.641-.001.699-1 .053-.999M220.051 209.95c-15.029-2.226-30.02-3.906-45.19-4.808-7.34-.435-14.679-.854-22.014-1.4-3.602-.268-7.205-.54-10.81-.775-3.002-.197-6.238-.802-9.168.102-.61.188-.402 1.168.215.977 3.188-.984 7.05-.208 10.331.015 3.595.244 7.188.517 10.781.785 7.19.53 14.385.92 21.58 1.353 14.843.895 29.517 2.571 44.223 4.749.636.094.684-.906.052-.999M222.544 180.725c23.04-1.58 46.018.995 68.966 2.78 10.93.85 21.97 1.825 32.923.915 12.04-.999 24.034-1.935 36.104-2.521a1916.711 1916.711 0 0 1 140.693-1.67c23.324.582 46.64 2.097 69.973 2.24 11.704.07 23.318-.674 34.999-1.264 5.568-.281 11.149-.42 16.72-.113 5.73.316 11.407 1.134 17.15 1.327 11.536.385 23.06-.5 34.574-1.069 11.697-.579 23.41-.743 35.12-.574 23.477.337 46.91 1.977 70.293 4.028 23.503 2.06 46.972 4.889 70.519 6.413 11.528.747 23 .703 34.531.073 11.474-.629 22.977-1.51 34.47-.86 6.115.344 12.165 1.173 18.122 2.606.622.15.942-.797.316-.948-22.416-5.397-45.339-1.423-68.05-1.248-23.201.18-46.43-2.979-69.493-5.167-23.616-2.24-47.259-4.319-70.963-5.326-23.648-1.005-47.088-.233-70.71.835-11.634.525-22.89-.219-34.475-1.006-11.198-.761-22.388.38-33.567.93-23.51 1.16-47.065-.49-70.558-1.31a1913.238 1913.238 0 0 0-141.309.303c-11.97.467-23.935 1.046-35.895 1.736-11.202.644-22.236 2.284-33.484 1.804-23.25-.992-46.367-4.247-69.657-4.427-5.759-.044-11.513.12-17.26.514-.634.043-.694 1.042-.052.999"/>
            <path fill="#071F2C" d="M937.366 266.539c-46.343-8.454-92.724-16.906-139.493-22.685-23.57-2.911-47.234-5.142-70.956-6.333-23.25-1.168-46.527-1.169-69.777-2.473-23.618-1.326-47.214-3.112-70.86-3.883-23.288-.761-46.535-1.774-69.786-3.318-46.844-3.11-93.681-7.541-140.651-8.165-25.917-.346-51.763 1.537-77.667-.018-26.22-1.575-52.246-5.327-78.124-9.715-.635-.107-.68.891-.053.998 23.109 3.918 46.327 7.33 69.707 9.136 11.68.903 23.395 1.406 35.112 1.37 11.316-.035 22.617-.7 33.932-.81 46.952-.457 93.826 3.72 140.619 7.027 46.877 3.315 93.83 4.46 140.727 7.363 23.231 1.436 46.42 2.153 69.679 2.813 23.741.674 47.442 2.469 71.052 5.032 52.525 5.704 104.538 15.184 156.487 24.66.632.115.678-.885.052-1M58.532 201.62c1.82.19 3.596.036 5.397-.243 1.028-.158 2.042-.102 2.403-1.21.76-2.327-.387-5.41-1.205-7.566-.228-.6-1.115-.137-.889.46.67 1.765 1.546 4.128 1.243 6.047-.212 1.344-1.258 1.235-2.423 1.392-1.502.201-2.965.279-4.473.12-.64-.066-.691.933-.053 1"/>
            <path fill="#071F2C" d="M64.709 192.332c-1.711-.193-3.432-.546-5.161-.42-1.208.087-2.133.573-3.172 1.158-.56.315-.104 1.206.46.888 1.28-.722 2.276-1.111 3.802-1.07 1.347.037 2.683.293 4.019.443.64.071.69-.927.052-.999M108.363 199.995c-.454.465-.98.795-1.608.97-.617.172-.407 1.15.215.976a4.532 4.532 0 0 0 2.062-1.202c.449-.459-.218-1.205-.67-.744M130.572 199.373a28.751 28.751 0 0 1 6.869-1.326c.634-.042.694-1.042.052-.998-2.44.163-4.806.6-7.136 1.347-.606.195-.4 1.174.215.977M134.724 195.897l2.382-.27c.639-.073.42-1.05-.214-.977l-2.383.27c-.638.072-.42 1.048.215.977M325.394 189.589c-12.028-.215-24.056-.43-36.085-.647-.642-.01-.697.988-.053.999 12.03.216 24.058.432 36.086.646.642.012.698-.986.052-.998M272.182 188.103l-5.512-.29c-.642-.033-.695.966-.052 1l5.512.288c.642.034.697-.965.052-.998M29.526 172.213l-.125.445c-.171.62.777.938.95.317.04-.149.083-.297.124-.446.172-.619-.776-.937-.95-.316M103.609 202.005c-3.759-.491-7.135.068-9.421-3.61-.337-.543-1.23-.09-.889.46.867 1.393 1.956 2.59 3.485 3.264 2.118.93 4.532.591 6.772.885.639.083.687-.916.053-.999M94.706 174.889l-.91 1.225c-.386.52.453 1.065.836.55l.909-1.227c.385-.517-.454-1.064-.835-.548M91.684 174.211l-.342.514c-.359.537.479 1.086.835.55.114-.173.228-.343.343-.514.357-.537-.478-1.086-.836-.55M83.518 184.492a12.269 12.269 0 0 1-1.732-4.322c-.123-.632-1.1-.417-.977.216a13.043 13.043 0 0 0 1.82 4.565c.344.537 1.236.085.889-.459M158.308 196.71l-2.118-.11-.053.998a22.225 22.225 0 0 1 5.084.56c.622.145.942-.804.315-.948a23.399 23.399 0 0 0-5.346-.61c-.64 0-.7.964-.053.998l2.118.11c.644.035.697-.964.053-.998M27.903 150.73a30.565 30.565 0 0 0-.545-6.728c-.122-.631-1.1-.418-.976.215.413 2.138.586 4.285.522 6.461-.019.643.98.697.999.053M11.495 155.382a28.946 28.946 0 0 0-7.98-4.566c-.603-.228-.915.722-.315.95a28.066 28.066 0 0 1 7.746 4.453c.5.404 1.045-.435.549-.837M17.321 179.97a179.074 179.074 0 0 0-16.667 6.052c-.594.248-.133 1.137.458.888a176.582 176.582 0 0 1 16.424-5.963c.61-.188.402-1.167-.215-.976M26.993 192.262a20.368 20.368 0 0 1-2.947 4.115c-.434.469.231 1.216.669.743a21.408 21.408 0 0 0 3.114-4.31c.307-.56-.527-1.113-.836-.548M94.243 153.758a18.94 18.94 0 0 1 6.92 2.796c.54.353 1.088-.482.55-.837a19.65 19.65 0 0 0-7.154-2.908c-.624-.12-.946.828-.316.949M96.75 150.182c.861.065 1.588.48 2.113 1.163.392.51 1.134-.162.743-.67a3.867 3.867 0 0 0-2.804-1.492c-.643-.049-.695.95-.053.999M335.62 235.99c-3.496.3-6.993.419-10.501.368-.641-.01-.697.99-.052.999a107.15 107.15 0 0 0 10.768-.39c.638-.055.418-1.032-.215-.977M327.478 233.048l-5.604-.293c-.642-.034-.695.965-.052.998l5.604.294c.643.034.696-.965.052-.999M602.731 222.407a291.142 291.142 0 0 1-42.074.285c-.643-.042-.695.957-.053.998 14.018.92 28.07.825 42.075-.284.631-.05.693-1.05.052-.999M577.422 218.062l-5.492-.288c-.644-.034-.697.965-.053.999l5.493.288c.642.033.696-.965.052-.999M774.852 195.658a1203.53 1203.53 0 0 1 74.026 11.802c.623.12.945-.828.315-.948a1206.57 1206.57 0 0 0-74.289-11.853c-.638-.081-.688.918-.052.999"/>
        </g>
    </g>
</svg>
