<svg xmlns="http://www.w3.org/2000/svg" xmlns:xlink="http://www.w3.org/1999/xlink" width="252" height="238" viewBox="0 0 252 238">
    <defs>
        <path id="a" d="M91.623.24c-4.215.004-8.368.212-12.319 1.11-7.391 1.68-13.57 6.905-20.239 10.123-6.778 3.268-13.082 6.907-18.905 11.556-5.85 4.672-12.889 8.347-17.561 14.198-4.648 5.821-5.865 13.886-9.135 20.664-3.216 6.668-9.286 12.515-10.965 19.906C.872 84.956.157 92.842.157 100.492c0 7.651 2.334 15.169 3.961 22.327 1.68 7.391 5.799 13.765 9.016 20.433 3.27 6.779 5.118 14.442 9.768 20.264 4.671 5.851 10.396 11.034 16.246 15.706 5.822 4.649 12.903 7.509 19.681 10.779 6.668 3.218 13.78 4.891 21.171 6.572C87.157 198.2 94.282 200 101.932 200c7.651 0 14.678-2.227 21.836-3.854 7.39-1.68 14.094-3.973 20.763-7.191 6.777-3.27 13.004-6.784 18.827-11.433 5.85-4.671 11.956-8.935 16.628-14.785 4.649-5.822 8.334-12.29 11.605-19.069 3.216-6.668 7.957-13.121 9.638-20.513.536-2.36.722-4.796.73-7.276v-.33c-.016-4.937-.703-10.04-.703-15.057 0-7.65-.448-15.04-2.075-22.197-1.68-7.391-3.909-14.533-7.125-21.201-3.271-6.778-6.473-13.78-11.122-19.602-4.671-5.85-10.241-11.216-16.091-15.888-5.823-4.649-12.379-8.696-19.158-11.967-6.668-3.216-14.084-5.066-21.475-6.746-7.157-1.627-14.627-2.527-22.278-2.527-3.314 0-6.659-.12-9.969-.125h-.34z"/>
        <path id="c" d="M.946.778c4.516.415 8.947 1.132 13.264 2.113 7.391 1.68 14.807 3.53 21.475 6.746 6.779 3.271 13.335 7.318 19.158 11.967 5.85 4.672 11.42 10.038 16.091 15.888 4.649 5.822 7.851 12.824 11.122 19.602 3.216 6.668 5.445 13.81 7.125 21.201 1.627 7.157 2.075 14.547 2.075 22.197 0 6.707 1.229 13.57.437 19.983H.946V.778z"/>
        <path id="e" d="M2.735 70.066C1.419 64.674.157 59.12.157 53.492c0-7.65.715-15.536 2.342-22.695 1.679-7.391 7.749-13.238 10.965-19.906 1.59-3.295 2.694-6.894 3.944-10.392h74.131v69.567H2.735z"/>
        <path id="g" d="M.85.155h11.267v21.722H.849V.155z"/>
        <path id="i" d="M0 1.59v-1h1.165v1H0z"/>
    </defs>
    <g fill="none" fill-rule="evenodd">
        <g transform="translate(23 37.845)">
            <mask id="b" fill="#fff">
                <use xlink:href="#a"/>
            </mask>
            <path fill="#EFECD3" d="M201.255 100.493c0 7.65 1.6 15.506-.027 22.663-1.68 7.392-6.42 13.845-9.638 20.513-3.27 6.778-6.955 13.247-11.604 19.069-4.672 5.85-10.778 10.113-16.628 14.784-5.823 4.65-12.05 8.163-18.828 11.434-6.668 3.217-13.372 5.51-20.763 7.19-7.158 1.627-14.185 3.855-21.835 3.855S87.157 198.2 80 196.573c-7.39-1.681-14.503-3.354-21.172-6.571-6.778-3.271-13.858-6.13-19.68-10.78-5.85-4.671-11.575-9.855-16.247-15.706-4.648-5.822-6.498-13.485-9.768-20.263-3.216-6.668-7.335-13.043-9.015-20.434C2.491 115.66.156 108.143.156 100.493s.715-15.537 2.342-22.695c1.68-7.391 7.75-13.24 10.966-19.907 3.27-6.778 4.486-14.842 9.135-20.664 4.672-5.85 11.711-9.525 17.561-14.197 5.823-4.65 12.127-8.288 18.905-11.558C65.733 8.256 71.913 3.03 79.303 1.35c7.16-1.627 14.978-.986 22.63-.986 7.65 0 15.12.9 22.277 2.527 7.391 1.68 14.807 3.53 21.475 6.747 6.778 3.27 13.336 7.318 19.158 11.966 5.85 4.672 11.42 10.038 16.091 15.889 4.65 5.82 7.851 12.823 11.121 19.6 3.217 6.669 5.446 13.81 7.126 21.202 1.627 7.158 2.074 14.548 2.074 22.198" mask="url(#b)"/>
        </g>
        <g transform="translate(133 37.845)">
            <mask id="d" fill="#fff">
                <use xlink:href="#c"/>
            </mask>
            <path fill="#E35205" d="M120.17 76.467c1.23-5.669 3.094-11.126 2.382-17.003-.734-6.064-3.489-11.339-2.932-17.582.482-5.399 1.428-10.48-.607-15.697-1.843-4.725-5.357-8.515-9.054-11.88-3.829-3.487-7.809-6.82-11.747-10.189.001-.125.013-.244.004-.376-.285-3.937.99-6.988 1.56-10.754.463-3.066-.746-5.864-3.442-7.46-2.68-1.589-6.11-1.586-9.119-1.355-1.63.125-3.822.155-5.35.781-.065.027-.12.038-.183.058a8.091 8.091 0 0 1-.039-.372 4.5 4.5 0 0 0-.295-1.335c4.162-2.2.204-8.68-4.36-6.73-3.687 1.575-8.017 4.293-11.887 3.611-1.607-.284-2.862-.725-4.542-.489-2.356.33-3.959 1.091-6.428.963-1.677-.087-3.149.01-4.664.797-1.455.756-1.916 2.067-3.099 2.984-1.647 1.278-2.684.29-4.583-.656a33.846 33.846 0 0 0-2.913-1.303c-.533-1.274-1.949-2.128-3.44-1.172a5.757 5.757 0 0 0-.386.275c-1.9.111-3.226 1.545-3.647 3.181-1.376 2.087-1.555 4.474-2.3 7.287a26.461 26.461 0 0 1-2.543 2.603 1.646 1.646 0 0 0-.39-.019c-2.406.194-4.908.38-7.06 1.583C17.122-2.674 15.793-.795 13.997.54c-2.163 1.607-4.37 1.431-6.682 2.498-1.675.773-3.445 4.076-4.924 4.321-1.9.314-1.094 3.206.798 2.893.133-.022.241-.045.356-.067.324.29.77.447 1.311.33.855-.188 1.71-.318 2.564-.423 3.855.734 7.678.606 11.506.143 4.14.38 8.287.853 12.453.59 5.225-.33 11.188.446 16.59-.423 3.263.35 6.46.262 9.757.448 2.416.136 3.798 1.192 4.536 2.701-.914 1.891-.582 4.346-.618 6.382-.016.933-.105 1.93-.033 2.871-.035.214-.05.443-.039.69.506 10.762 1.044 21.617.725 32.392-.155 5.252-.266 10.694-1.17 15.87-.362 2.058-.772 3.944-.698 6.046.113 3.168 1.38 6.551-1.454 8.907-17.81.282-35.624.591-53.437.446-.129 0-.244.021-.365.034-2.807-1.72-5.38 2.11-3.687 4.471a2.799 2.799 0 0 0-.276 1.25l.067 6.711c.001.111.024.207.035.312-1.027 2.315 1.485 5.535 4.205 3.868l.137-.084c1.202 1.018 2.367 2.075 3.455 3.217.742.778 1.87 1.008 2.873.753 2.451.586 5.194.666 7.88.668-.033.24-.063.473-.089.705h-.005l.002.024c-.06.543-.092 1.077-.034 1.641.044.431.155.843.32 1.221l.005.05c0 .007-.002.013-.003.02-.02.19-.053.376-.08.564-.427.74-.535 1.648-.338 2.466.085 1.25.86 2.39 2.154 2.744.962.265 2.053-.025 2.81-.679 12.374-.14 24.68 1.827 37.064 1.848 6.053.011 11.981.213 17.993.953 5.53.681 10.888 1.07 16.175-.8 7.441 1.206 14.718 1.198 22.21-.017 2.783-.45 3.35-3.789 2.391-5.876-4.916-10.7-2.686-25.606-.268-36.752" mask="url(#d)"/>
        </g>
        <g transform="translate(23 84.845)">
            <mask id="f" fill="#fff">
                <use xlink:href="#e"/>
            </mask>
            <path fill="#E35205" d="M91.259 49.074c-.093-1.89-.206-3.778-.325-5.667 1.313-1.08.224-3.842-1.934-3.472-4.191.72-8.176-.134-12.345-.447-3.492-.262-6.896.21-10.376.362-8.42.37-16.901.145-25.328.184a1.833 1.833 0 0 0-.59.107c-1.305-.37-2.471-1.072-3.604-2.176a60.238 60.238 0 0 1-.287-1.503 6.077 6.077 0 0 0-.07-2.421 2.135 2.135 0 0 0-.361-.948 11.65 11.65 0 0 1-.16-1.122c-.008-.076-.03-.143-.044-.215 1.495-8.058 2.799-17.047.7-25.021l.336-1.677c.14-.707.05-1.335-.191-1.867.375-.277.635-.712.613-1.192-.036-.814-.66-1.5-1.5-1.5h-.125c-.573 0-1.124.369-1.368.883-.558-.111-1.131-.084-1.64.109a3.148 3.148 0 0 0-1.25.102c-1.78.496-3.407 1.153-4.707 2.174-2.003.659-3.234 2.405-3.498 4.72-.167 1.466.136 2.889.26 4.336a3.34 3.34 0 0 0-.28.599c-.363 1.028-.803 1.77-1.301 2.3-.966.37-1.933.74-2.911 1.08-1.59-.107-3.397-.938-5.236-1.723-2.31-.985-4.396-1.43-6.742-1.206-2.107-1.1-3.986-2.653-6.624-2.758-1.617-.064-3.007 1.427-3 3 .009 2.402-2.52 4.189-3.312 6.355-.257.7-.438 1.402-.59 2.105-1.453 3.57-2.281 7.528-3.954 11.204-1.885 4.145-1.688 6.723-1.648 11.2.04 4.543-1.616 10.8-4.157 14.576-1.577 2.343-3.817 4.355-2.486 7.407 1.216 2.79 3.61 2.687 6.264 2.577 10.399-.432 20.716-.577 31.115.036a2.59 2.59 0 0 0 1.509-.363c7.91.875 15.81 1.093 23.792.585a2.01 2.01 0 0 0 1.143-.427c4.045.122 8.066-.195 12.14-.362 5.394-.222 10.75.868 16.108.473 2.078-.153 2.477-2.835 1.164-3.722.017-.16.039-.32.059-.477.029-.067.062-.132.085-.205.238-.77.403-1.545.538-2.326.743-.48 2.017-.888 2.574-1.24.072-.046.144-.1.216-.146.962-.187 1.879-.481 2.612-1.045.934-.718 1.937-1.654 2.89-2.577.086-.042.17-.085.255-.125.289.168.652.253 1.099.2 2.47-.293 6.134.099 6.646-3.056.287-1.773-.086-3.895-.174-5.688" mask="url(#f)"/>
        </g>
        <g>
            <path fill="#EFECD3" d="M190.716 106.026c-.253 3.51.399 6.997.483 10.48-.426.152-.843.454-1.086.833a5.844 5.844 0 0 0-1.176-.259 1.994 1.994 0 0 0-1.007-.323 145.976 145.976 0 0 0-22.352.585c-4.474-.202-8.947-.45-13.417-.658-6.874-.32-13.675-.554-20.547-.013-7.698.605-15.292 1.537-23.015.716-.515-.054-.92.07-1.224.297l-6.31-.13a884.236 884.236 0 0 1-23.953-1.73c-.837-.073-1.394.307-1.683.856l-12.67-.107c1.516-10.277 1.172-20.194.27-30.567-.891-10.267-.405-20.78-.307-31.123.136-.216.219-.486.214-.819l-.018-1.096c-.001-.048-.011-.09-.015-.135 6.909-1.546 14.677-1.38 21.959-1.499a75.08 75.08 0 0 0 3.255.138 819.72 819.72 0 0 0 26.796.017c.29-.004.533-.082.736-.2a349.379 349.379 0 0 1 54.418.861c.455.043.798-.096 1.037-.33 3.654-.143 7.306-.19 10.965-.079 2.363.071 6.299-.344 8.73.858a697.389 697.389 0 0 1 1.125 38.202c0 .34.098.616.25.836.085 4.866-1.11 9.553-1.458 14.39m4.874-52.218c-1.448-3.998-1.718-4.307-6.056-4.656-6.53-.524-13.07-.583-19.612-.29-.284.013-.52.095-.72.215a349.397 349.397 0 0 0-54.603-.732c-.22.014-.41.07-.58.151-7.825.11-15.651.116-23.476.006-.236-.203-.554-.328-.965-.308-1.84.09-3.718.13-5.62.158-7.243-.364-15.533-1.583-22.192 1.194a1.552 1.552 0 0 0-.756.65c-.05.013-.1.022-.147.035a1.392 1.392 0 0 0-.8.52c-.195.233-.32.546-.32.952 0 9.387-.382 18.884-.05 28.288a1.537 1.537 0 0 0-.19.652c-.533 7.49.408 14.954.087 22.443-.217 5.065-1.024 9.986-.415 14.95a2.561 2.561 0 0 0-.027.966c-.106-.64-.166.35-.2.544-.09.53-.11 1.05.032 1.574.218.814.746 1.471 1.406 1.971 1.327 1.005 3.126 1.398 4.679 1.935.742.257 1.557-.077 2.054-.658a431.12 431.12 0 0 0 22.02-.4c.099.018.19.047.297.054 7.872.484 15.748.741 23.626.8.466.34.918.706 1.355 1.104a181.74 181.74 0 0 0-.338 9.876c-.01 1.691-.17 3.286.3 4.747-.751.477-1.537.874-2.353 1.212-.614.163-1.206.37-1.776.618-.438.124-.884.234-1.341.322-1.524.295-2.943.536-4.018 1.624-.078.014-.158.025-.236.04-1.264.231-.73 2.16.53 1.928 7.334-1.346 15.143-1.388 22.842-.985.2.035.405.052.614.034 4.187.233 8.337.588 12.354.935.902.078 1.268-1.125.707-1.707-1.943-2.018-4.61-2.565-7.372-2.658.2-4.983 1.08-10.58-.121-15.413-.031-.126-.076-.235-.118-.347.047-.038.099-.06.143-.11.438-.515.877-1.029 1.315-1.54 3.275-.123 6.732.646 9.905.707 5.083.098 10.176-.249 15.255-.395a726.377 726.377 0 0 1 31.208-.204c1.583.022 2.173-1.472 1.806-2.64.2-.959.305-1.908.358-2.854.084-.285.114-.6.059-.945-.007-.039-.012-.078-.02-.117.045-3.41-.545-6.778-.488-10.269.089-5.615 1.747-11.016 1.542-16.66a1.476 1.476 0 0 0-.254-.794 698.008 698.008 0 0 0-.967-34.722c.986.124 2.066-.614 1.637-1.8"/>
            <path fill="#FFF" d="M125.544 106.787c-4.666-4.984-9.478-9.797-15.119-13.696-.53-1.47-.929-3.312-.542-4.701.307-1.1 1.215-1.762 1.071-2.791 1-.366 2.005-.72 3.017-1.053.18-.06.328-.147.46-.245a80.08 80.08 0 0 1 2.596 2.517c.584.597 1.16 1.203 1.726 1.818.238.257 1.861 1.668 1.842 2.002-.012.192.015.36.06.514-.554 1.554 1.803 2.815 2.717 1.236A118.68 118.68 0 0 1 144.11 66c.096.022.196.04.304.045l.154.008a1.6 1.6 0 0 0 .716.04c.015-.002.03-.002.044-.005l3.357.159c-.07.173-.11.359-.1.554l.167 3.333c.02.403.184.777.447 1.05-10.358 10.112-20.696 21.042-23.654 35.602m66.273-51.08a1.23 1.23 0 0 0-.312-.941c.162-.211.28-.454.335-.706.501-.912.092-2.312-1.238-2.243-1.198.062-2.394.105-3.59.138-5.823-.66-11.544-.661-17.352-.283-13.962-.698-27.909-2.168-41.909-1.817-10.552.266-21.082 1.095-31.615 1.647a219.985 219.985 0 0 0-9.748.005 240.185 240.185 0 0 0-22.147-.08 1.445 1.445 0 0 0-.992.424c-.32.239-.559.599-.6 1.096-.076.877-.137 1.758-.2 2.639-.014.072-.03.142-.035.222-.007.143-.009.288-.016.432a205.838 205.838 0 0 0-.467 17.369c-.09.268-.159.547-.179.848-.306 4.8.121 9.775.838 14.738.21 8.698-.304 17.378.08 26.104.037.819.603 1.289 1.234 1.41.236.352.626.602 1.181.6 25.262-.07 50.525-.033 75.787.086.014 0 .026.004.041.004l.242-.002c16.088.078 32.176.18 48.263.334 1.138.01 1.6-1.024 1.397-1.881.075-.167.127-.354.14-.568.531-9.761 1.44-19.59.963-29.366-.494-10.127-.868-20.078-.1-30.21"/>
            <path fill="#E35205" d="M174.175 214.298a30.675 30.675 0 0 0-3.383-4.82c.205-.673.107-1.45-.458-2.236a349.847 349.847 0 0 0-15.193-19.614c.017-1.004-.504-1.997-1.756-2.345-4.427-1.228-8.912-.576-13.428-.265-5.795.398-11.594.733-17.398.943-11.28.409-22.563.305-33.819-.595-.84-.067-1.454.232-1.853.706-.575.13-1.114.486-1.499 1.15-3.494 6.05-6.779 12.21-9.789 18.516-1.599 3.353-4.872 7.89-1.628 11.149.703.706 1.527.853 2.262.656 16.064 1.61 32.094-.344 48.178-.297 7.778.024 15.393 1.154 23.138 1.567 3.431.182 6.723.006 10.125-.442 2.677-.353 5.143-.696 7.826-.408 1.902.204 3.545.588 5.462.5a2.473 2.473 0 0 0 1.34-.447c1.555-.248 2.844-1.998 1.873-3.718"/>
            <path fill="#EFECD3" d="M225.504 216.658c-.082-.204-.183-.391-.27-.591l.018-.007-.11-.197c-1.002-2.244-2.319-4.21-3.957-5.847-3.91-4.727-9.295-8.43-15.147-5.117-.774.438-1.138 1.172-1.183 1.93-.029.062-.067.117-.093.183-.905 2.25.526 5.002 1.221 7.115 1.403 4.268 4.036 6.18 8.567 6.25 1.38.022 4.963.035 7.363-.861 1.748.839 4.466-.67 3.591-2.858"/>
            <path fill="#335890" d="M17.468 178.584c.233-.68 1.504-1.287 2.023-.994.336.669.966 1.13 1.775.906l.095-.027c.21-.06.382-.156.53-.274.02.845.04 1.687.047 2.525.003.367.075.687.19.97-.064.396-.121.79-.18 1.188a6.611 6.611 0 0 1-3.544-1.943c-.573-.606-1.241-1.462-.936-2.351m22.654-9.821c.11-1.035-.852-2.19-1.835-2.411-4.255-.963-10.861-1.738-14.757.814-1.503.984-1.594 2.033-1.673 3.738-.073 1.566-.061 3.148-.028 4.73-1.107-1.182-3.402-1.278-4.742-.696-1.855.805-2.934 2.819-2.634 4.814.513 3.396 3.859 5.485 7.164 6.02-.087 1.728.29 3.194 1.738 4.31 3.997 3.082 11.07.037 15.069-1.355.938-.328 1.972-1.293 1.835-2.412a76.21 76.21 0 0 1-.137-17.552"/>
            <path fill="#E35205" d="M149.697 70.236l-.594-2.605c-.112-.49-.56-.93-1.048-1.048-6.074-1.463-10.933 7.032-14.105 11.003-3.88 4.86-8.389 10.257-11.053 16.065-2.099-1.607-4.039-3.697-5.918-5.644.266-.497.24-1.107-.344-1.584-1.54-1.263-3.108-1.61-4.936-.287-1.514 1.098-1.243 3.294-.85 4.968.648 2.75 3.007 4.032 4.952 5.857 2.998 2.811 5.434 6.146 7.848 9.454.48.656 1.48.882 2.142.497.491-.092.928-.424 1.082-1.042 1.58-6.374 4.21-13.168 7.83-18.679 3.655-5.563 8.868-10.268 13.43-15.089.884-.004 1.822-.737 1.564-1.866"/>
            <path fill="#071F2C" d="M66.162 48.644c21.325-.38 42.651-.228 63.977.003 10.578.113 21.157.235 31.736.354 5.274.06 10.547.12 15.82.178l7.91.09c1.766.02 10.62-.617 8.35 3.502-.31.564.552 1.07.863.505 3.492-6.336-10.815-5.027-13.169-5.053l-27.683-.31c-18.605-.209-37.21-.464-55.817-.499-10.662-.02-21.326.04-31.987.23-.643.012-.645 1.012 0 1M63.305 48.511c-2.256-.062-3.597 1.664-3.974 3.757-.654 3.639-.107 7.755-.089 11.442.04 8.31-.049 16.631.254 24.937.146 3.99.574 7.985.455 11.98-.123 4.082-.907 8.1-1.322 12.154-.388 3.804-1.262 13.232 5.2 12.242.633-.096.364-1.06-.267-.963-6.883 1.053-3.519-14.46-3.1-17.815.775-6.226.201-12.32.002-18.559-.198-6.16-.168-12.329-.197-18.492l-.044-9.47c-.013-2.655-1.183-10.33 3.082-10.212.644.017.643-.983 0-1"/>
            <path fill="#071F2C" d="M64.151 125.042l122.276.507c.644.003.645-.997 0-1-40.758-.17-81.517-.338-122.276-.507-.644-.003-.644.997 0 1M58.714 117.164c34.885.319 69.772.408 104.658.262 9.967-.042 19.935-.105 29.902-.184.643-.005.645-1.005 0-1a7835.062 7835.062 0 0 1-134.56-.078c-.644-.006-.644.994 0 1M189.224 120.25a5.517 5.517 0 0 0-1.946.22c-.616.182-.353 1.147.266.965a4.701 4.701 0 0 1 1.68-.184c.643.043.64-.958 0-1M184.39 120.25a15.731 15.731 0 0 0-3.559.422c-.626.146-.36 1.11.266.964a14.54 14.54 0 0 1 3.292-.385c.643-.003.645-1.003 0-1M177.54 120.25h-2.015c-.643 0-.644 1 0 1h2.015c.644 0 .645-1 0-1M171.496 120.05h-1.61c-.644 0-.645 1 0 1h1.61c.644 0 .645-1 0-1M62.754 119.035c-.18.672-.781 1.863-.368 2.55.403.67 1.51.462 2.158.48.639.02 1.279.038 1.918.057.358.01.79.095 1.132-.06.722-.324.838-1.544 1.048-2.197.086-.268-.102-.53-.35-.615a8.99 8.99 0 0 0-2.933-.488c-.644-.002-.645.998 0 1a8.07 8.07 0 0 1 2.668.453l-.35-.616c-.107.333-.236 1.3-.525 1.51-.282.205-1.623-.014-1.97-.024-.261-.008-1.85.08-1.918-.057-.137-.277.369-1.407.454-1.727.166-.623-.798-.888-.964-.266"/>
            <path fill="#071F2C" d="M133.977 125.385a377.668 377.668 0 0 0 .07 15.715c.016.642 1.016.644 1 0a377.668 377.668 0 0 1-.07-15.715c.01-.646-.99-.646-1 0M113.536 124.964c.68 5.26.663 10.52-.086 15.77-.09.63.874.903.964.267a59.235 59.235 0 0 0 .122-16.037c-.082-.63-1.083-.638-1 0M179.937 54.697l7.071 5.412c.511.392 1.01-.476.505-.863l-7.07-5.412c-.512-.391-1.01.477-.506.863M173.084 54.905l14.875 11.122c.516.386 1.015-.482.504-.863l-14.874-11.122c-.516-.386-1.015.481-.505.863"/>
            <path fill="#071F2C" d="M107.27 142.403a358.663 358.663 0 0 1 31.42.114c.643.031.643-.969 0-1a358.663 358.663 0 0 0-31.42-.114c-.641.026-.645 1.026 0 1"/>
            <path fill="#071F2C" d="M106.722 141.77l-3.646 2.997c-.497.41.214 1.112.708.707l3.646-2.998c.497-.409-.214-1.113-.708-.707M138.297 142.222a16.838 16.838 0 0 1 4.631 4.091c.397.506 1.1-.206.707-.707a17.567 17.567 0 0 0-4.833-4.247c-.554-.33-1.057.533-.505.863"/>
            <path fill="#071F2C" d="M97.796 146.691a567.459 567.459 0 0 1 54.799.167c.643.033.64-.967 0-1a567.459 567.459 0 0 0-54.8-.167c-.64.03-.644 1.03 0 1"/>
            <path fill="#071F2C" d="M97.43 146.383a38.078 38.078 0 0 0-.861 8.817c.013.644 1.013.645 1 0a36.904 36.904 0 0 1 .825-8.55c.136-.627-.828-.897-.964-.267"/>
            <path fill="#071F2C" d="M97.39 156.238a723.794 723.794 0 0 1 55.98 1.045c.643.037.64-.963 0-1a723.794 723.794 0 0 0-55.98-1.045c-.644.013-.646 1.013 0 1M99.109 154.33c.61-2.225.95-4.48 1.03-6.786.023-.644-.977-.644-1 0a28.256 28.256 0 0 1-.994 6.52c-.17.622.794.888.964.267"/>
            <path fill="#071F2C" d="M99.607 148.862a784.714 784.714 0 0 1 52.985-.752c.644.013.644-.987 0-1a784.714 784.714 0 0 0-52.985.752c-.641.031-.645 1.031 0 1M99 154.029a533.992 533.992 0 0 1 54.598 1.815c.64.055.637-.946 0-1A533.992 533.992 0 0 0 99 153.029c-.643.011-.645 1.011 0 1M118.104 126.79l-1.217.793c-.537.35-.037 1.217.505.864l1.216-.793c.538-.35.037-1.217-.504-.864M124.647 126.696a45.395 45.395 0 0 0-8.594 4.268c-.541.344-.04 1.211.505.863a44.143 44.143 0 0 1 8.355-4.167c.597-.223.339-1.19-.266-.964M127.678 127.329a26.574 26.574 0 0 0-8.898 4.736c-.502.404.21 1.108.707.707a25.196 25.196 0 0 1 8.457-4.478c.613-.19.352-1.154-.266-.965M126.56 129.806l-1.638.963c-.554.326-.051 1.19.505.863.546-.32 1.092-.64 1.638-.963.554-.326.052-1.19-.505-.863M115.836 83.578a13.85 13.85 0 0 0-5.068 2.558c-.504.399.208 1.102.707.708a12.622 12.622 0 0 1 4.627-2.302c.62-.165.358-1.131-.266-.964"/>
            <path fill="#071F2C" d="M114.854 85.628c2.781 2.86 5.561 5.722 8.341 8.583.45.462 1.157-.245.707-.707l-8.34-8.583c-.45-.462-1.157.245-.708.707M110.62 89.255a207.774 207.774 0 0 1 14.075 14.332c.429.48 1.134-.228.707-.707a207.989 207.989 0 0 0-14.074-14.332c-.473-.437-1.182.269-.708.707"/>
            <path fill="#071F2C" d="M123.784 93.575a116.05 116.05 0 0 1 20.706-27.298c.46-.45-.247-1.157-.707-.707a116.954 116.954 0 0 0-20.863 27.5c-.31.566.554 1.07.864.505M125.867 102.96c1.001-6.921 5.601-13.472 9.564-19.07 4.205-5.94 9.066-11.367 14.437-16.272.477-.434-.232-1.14-.707-.707-5.434 4.962-10.339 10.466-14.593 16.475-4.015 5.67-8.649 12.283-9.665 19.308-.09.629.872.902.964.266"/>
            <path fill="#071F2C" d="M148.756 65.823a38.624 38.624 0 0 0-9.015-.233c-.635.058-.642 1.058 0 1a37.55 37.55 0 0 1 8.749.198c.63.089.902-.875.266-.965M66.622 100.352l8.662 9.065c.445.466 1.152-.242.707-.707l-8.662-9.065c-.445-.466-1.152.242-.707.707M67.648 106.177l2.03 2.201c.438.474 1.144-.234.708-.707l-2.031-2.2c-.437-.475-1.143.233-.707.706M64.202 108.816l.806 1.007c.402.503 1.105-.209.707-.707l-.806-1.007c-.402-.503-1.105.21-.707.707M5.334 154.974a985.37 985.37 0 0 0 39.28.204c.642-.009.644-1.009 0-1a985.37 985.37 0 0 1-39.28-.204c-.644-.016-.644.984 0 1M61.735 154.629l33.439-.062c.644-.001.645-1.001 0-1-11.146.02-22.293.04-33.44.062-.643 0-.644 1 0 1M155.606 155.637c29.25-2.383 58.426 3.615 87.68 1.454.638-.047.644-1.047 0-1-29.254 2.161-58.43-3.838-87.68-1.454-.637.052-.643 1.053 0 1M154.575 187.44a306.093 306.093 0 0 1 19.75 27.354c.347.541 1.213.04.864-.504a307.992 307.992 0 0 0-19.907-27.558c-.405-.5-1.109.211-.707.707M71.866 213.583a339.956 339.956 0 0 1 14.441-26.324c.335-.552-.529-1.055-.863-.505a340.304 340.304 0 0 0-14.442 26.324c-.283.575.58 1.083.864.505"/>
            <path fill="#071F2C" d="M72.01 214.223l53.033.406c8.66.067 17.33.035 25.989.226 4.065.09 8.09.387 12.128.851 3.957.457 7.859.754 11.726-.393.616-.183.354-1.149-.265-.965-4.092 1.215-8.2.732-12.364.252-4.048-.468-8.096-.69-12.17-.764-8.676-.154-17.358-.147-26.035-.215l-52.042-.398c-.644-.005-.644.995 0 1"/>
            <path fill="#071F2C" d="M71.168 213.403a4.465 4.465 0 0 0 2.44 4.187c.573.291 1.08-.573.504-.863a3.487 3.487 0 0 1-1.944-3.324c.029-.643-.971-.642-1 0"/>
            <path fill="#071F2C" d="M174.048 214.969c1.351 3.691-4.978 2.873-6.639 2.816-2.147-.072-4.294-.151-6.44-.232-3.965-.15-7.929-.311-11.893-.453-8.42-.303-16.847-.532-25.274-.445-16.64.172-33.274 1.924-49.909.636-.642-.05-.638.95 0 1 18.925 1.466 37.904-.794 56.848-.642 9.42.076 18.833.465 28.245.827 2.312.09 4.624.178 6.937.258 1.99.07 4.146.387 6.127.054 2.015-.338 3.748-1.94 2.962-4.086-.219-.599-1.186-.34-.964.267M151.456 191.832l13.789 18.815c.377.514 1.245.015.864-.504l-13.79-18.816c-.376-.514-1.244-.016-.863.505M209.814 219.31c-1.959-3.554-3.893-7.545-4.605-11.578-.742-4.2 4.774-3.983 7.36-3.352 2.057.502 3.942 1.477 5.61 2.77 2.493 1.931 7.474 6.967 6.505 10.33.01 1.124-.585 1.69-1.784 1.696a21.588 21.588 0 0 1-5.212.967c-2.392.146-4.742-.142-7.062-.729-.625-.159-.89.805-.266.963 3.043.772 6.147 1.021 9.267.566 1.788-.26 5.541-.64 6.368-2.67.764-1.878-.87-4.218-1.789-5.702-1.46-2.364-3.249-4.559-5.459-6.26-2.194-1.688-4.807-2.867-7.569-3.19-1.88-.223-4.99-.276-6.38 1.335-1.413 1.64-.438 4.175.107 5.95 1.007 3.278 2.39 6.408 4.045 9.41.311.562 1.175.058.864-.506"/>
            <path fill="#071F2C" d="M215.148 217.173c1.681.035 3.457.734 5.098.096 1.11-.432 1.891-1.298 1.915-2.512.012-.644-.988-.644-1 0-.055 2.799-4.442 1.449-6.013 1.416-.644-.014-.644.986 0 1M209.118 205.329l1.795 2.63c.36.529 1.228.03.864-.504l-1.795-2.631c-.361-.528-1.228-.028-.864.505M36.193 164.964c-3.037-.115-6.054.015-9.063.452-2.075.302-4.27.465-5.554 2.28-.154.218-.04.56.179.684 2.745 1.534 7.147 1.105 10.175.915 2.63-.166 5.917-.197 8.045-1.94.207-.168.179-.533 0-.706-.556-.537-1.016-.798-1.761-.991-.623-.16-.89.804-.266.965.157.699-.096 1.03-.757.995a28.46 28.46 0 0 1-1.586.284c-1.533.239-3.082.38-4.632.44-2.505.099-6.458.435-8.713-.825l.18.684c1.357-1.918 5.652-1.96 7.632-2.125 2.04-.172 4.076-.19 6.12-.112.645.024.644-.976 0-1M39.343 170.102c.177 5.842.216 11.684.116 17.527-.011.644.989.644 1 0 .1-5.843.06-11.685-.116-17.527-.02-.643-1.02-.646-1 0M21.06 169.7a297.6 297.6 0 0 0 .762 18.14c.047.639 1.047.644 1 0a297.6 297.6 0 0 1-.761-18.14c-.008-.643-1.008-.645-1 0"/>
            <path fill="#071F2C" d="M39.627 189.27c.078-.053.155-.105.232-.159.529-.36.07-1.165-.504-.863-3.003 1.577-6.29 2.985-9.743 3-3.513.013-6.335-1.699-9.143-3.604-.534-.362-1.035.504-.505.863 2.97 2.016 5.952 3.763 9.648 3.74 3.636-.023 7.083-1.474 10.247-3.136a660.17 660.17 0 0 1-.504-.863c-.078.052-.155.106-.232.16-.53.36-.03 1.226.504.862M61.059 147.14a446.934 446.934 0 0 0 .453 30.011c.03.64 1.03.644 1 0a446.934 446.934 0 0 1-.453-30.01c.012-.645-.988-.646-1 0M45.522 146.122a227.581 227.581 0 0 1-.484 30.002c-.053.64.947.638 1 0 .82-9.985.983-19.996.484-30.002-.032-.641-1.032-.645-1 0"/>
            <path fill="#071F2C" d="M60.23 176.746c-2.4.987-4.893 1.129-7.456.87-2.517-.253-5.618-.446-7.467-2.376-.446-.465-1.152.242-.707.707 1.808 1.887 4.392 2.196 6.874 2.519 3.09.402 6.1.445 9.023-.755.587-.241.33-1.21-.266-.965M59.788 153.903a58.504 58.504 0 0 1-9.737.791c-.643 0-.644 1 0 1a59.968 59.968 0 0 0 10.003-.827c.633-.106.364-1.069-.266-.964M21.76 177.846c-1.518-1.185-3.774-.446-4.147 1.5-.398 2.072 1.444 3.671 3.428 3.507.637-.052.642-1.053 0-1-1.196.098-2.456-.579-2.483-1.908-.026-1.273 1.398-2.248 2.494-1.392.501.393 1.214-.31.707-.707"/>
            <path fill="#071F2C" d="M20.918 174.72c-2.88-1.667-6.365.457-6.628 3.684-.355 4.338 3.71 6.867 7.428 7.643.628.13.896-.833.265-.965-2.616-.547-5.475-1.785-6.408-4.531-1.01-2.97 1.515-6.891 4.839-4.968.558.323 1.062-.54.504-.863M37.97 207.925c-8.454.145-16.908.214-25.362.207-.547 0-.7.874-.133.982l.78.15c.63.118.898-.846.265-.966-.259-.048-.519-.099-.779-.148l-.133.982c8.454.007 16.908-.061 25.361-.207.643-.01.645-1.01 0-1"/>
            <path fill="#071F2C" d="M37.296 209.204c.147.26-5.199.323-5.59.317l-6.474-.097-12.449-.19c-.643-.01-.644.99 0 1l17.926.273c1.168.017 9.164 1.216 7.45-1.808-.317-.56-1.18-.056-.863.505M49.725 206.191a5.826 5.826 0 0 1 2.99 1.538c.463.446 1.171-.26.706-.707a6.77 6.77 0 0 0-3.43-1.795c-.629-.122-.898.842-.266.964"/>
            <path fill="#071F2C" d="M51.328 207.42a223.177 223.177 0 0 0-20.487 15.403c-.492.417.218 1.12.707.708a221.016 221.016 0 0 1 20.286-15.247c.532-.355.032-1.221-.506-.863"/>
            <path fill="#071F2C" d="M48.01 207.178l-20.216 15.931c-.375.296-.027.822.353.853l1.309.356c.578.275 1.086-.587.505-.865-.913-.436-.804-.407-1.814-.49l.354.853 20.217-15.931c.505-.398-.207-1.102-.707-.707M16.763 103.46c2.008-.553 3.038-2.204 3.988-3.946.592-1.086 1.09-2.797 2.189-3.364 1.66-.856 3.58.126 4.667 1.376 1.717 1.974 3.284 1.338 5.856 1.893 1.542.332 3.029.872 4.48 1.484 1.107.467 3.094 1.936 4.282 2.022 1.448.105 2.79-1.402 3.754-2.321 1.837-1.754.474-4.386.503-6.707.08-6.725 8.242-6.172 12.749-8.165.588-.26.079-1.122-.505-.863-3.752 1.658-9.072 1.24-11.813 4.736-1.6 2.04-1.5 4.302-1.233 6.759.179 1.657.448 2.78-.875 3.973-.466.42-1.217 1.273-1.846 1.436-.798.207-1.741-.462-2.412-.784-2.433-1.166-4.951-2.217-7.62-2.697-1.453-.261-3.16-.085-4.294-1.08-.696-.607-1.096-1.477-1.965-1.914-1.05-.528-3.785-.814-4.682-.082-.972.793-1.504 2.697-2.098 3.793-.802 1.477-1.658 3.01-3.391 3.486-.62.17-.357 1.136.266.965M40.116 80.374a57.22 57.22 0 0 0-11.483-3.233c-.63-.11-.9.854-.266.963a57.354 57.354 0 0 1 11.483 3.234c.598.238.858-.73.266-.964M51.744 36.67a81.539 81.539 0 0 0-17.28-7.832c-.615-.196-.878.77-.266.965a80.383 80.383 0 0 1 17.042 7.73c.552.333 1.055-.531.504-.863M44.67 45.172a10.938 10.938 0 0 0-3.35-1.445c-.626-.154-.893.81-.267.965 1.118.274 2.144.717 3.111 1.343.542.35 1.044-.514.505-.863M38.77 51.357h-.403c-.643 0-.644 1 0 1h.403c.644 0 .645-1 0-1M96.111 23.508a70.982 70.982 0 0 0-7.979-17.82c-.34-.543-1.205-.042-.863.506a70.073 70.073 0 0 1 7.878 17.58c.18.617 1.145.354.964-.266M108.779 20.029a27.95 27.95 0 0 0-.84-5.973c-.158-.624-1.122-.359-.965.266.475 1.877.743 3.772.805 5.707.02.642 1.02.645 1 0"/>
            <g transform="translate(145 -.155)">
                <mask id="h" fill="#fff">
                    <use xlink:href="#g"/>
                </mask>
                <path fill="#071F2C" d="M1.842 21.532A85.904 85.904 0 0 1 12.03.886c.36-.535-.505-1.036-.863-.504A86.845 86.845 0 0 0 .878 21.266c-.205.612.76.874.964.266" mask="url(#h)"/>
            </g>
            <path fill="#071F2C" d="M157.659 21.091a18.19 18.19 0 0 1 4.538-5.555c.497-.409-.214-1.113-.707-.707a18.88 18.88 0 0 0-4.694 5.757c-.302.569.56 1.075.863.506M179.538 22.758c-.59.287-1.302.35-2.247.075-3.389-.982-5.597-5.68-9.663-4.145-3.766 1.424-4.163 5.872-5.328 9.122-.531 1.477-1.324 3.026-2.693 3.902-1.327.848-2.56.52-4.004.46-1.474-.06-2.715.315-3.911 1.18-3.409 2.471-4.61 6.248-9.309 6.415-1.733.06-2.902.2-4.007 1.65-.64.842-.978 1.871-1.532 2.764-1.021 1.645-2.503 2.724-4.324 3.343-.606.206-.346 1.171.266.963 1.521-.516 2.88-1.285 3.962-2.495 1.706-1.904 1.873-4.807 4.876-5.24 1.465-.212 2.652.154 4.057-.505 1.288-.605 2.312-1.656 3.261-2.687 1.06-1.153 2.029-2.448 3.312-3.367 1.984-1.42 3.617-.608 5.798-.874 3.897-.482 5.063-4.723 5.975-7.878.813-2.813 2.643-7.021 6.39-5.837 2.172.686 3.577 2.777 5.593 3.773 1.445.712 2.757.852 3.869.413a11.522 11.522 0 0 1-.341-1.032M40.618 159.191a539.072 539.072 0 0 1-36.781.871c-.643-.007-.644.993 0 1a539.072 539.072 0 0 0 36.78-.87c.64-.038.645-1.039 0-1M9.287 164.14a21.582 21.582 0 0 0-6.267-.398c-.636.052-.642 1.052 0 1a20.667 20.667 0 0 1 6.002.362c.627.131.896-.833.265-.965M193.48 162.604a454.116 454.116 0 0 0 57.626-.26c.639-.044.644-1.044 0-1a454.116 454.116 0 0 1-57.626.26c-.643-.038-.641.962 0 1M209.006 167.184h13.896c.643 0 .645-1 0-1h-13.896c-.644 0-.645 1 0 1M219.887 171.799a76.02 76.02 0 0 0 16.088.638c.64-.042.644-1.043 0-1a74.768 74.768 0 0 1-15.822-.602c-.63-.092-.902.87-.266.964M231.12 218.155a10.681 10.681 0 0 1-2.29 2.374c-.507.383-.01 1.251.505.863a12.13 12.13 0 0 0 2.648-2.732c.37-.527-.495-1.027-.863-.505M234.44 219.31c.202.28-1.182 1.335-1.385 1.48-.52.37-.02 1.237.505.863.707-.503 2.49-1.813 1.742-2.849-.373-.517-1.24-.018-.863.505M235.915 221.094l-.177.44c-.238.597.728.858.964.267l.177-.44c.239-.599-.728-.858-.964-.267M159.075 221.756c-20.5.063-41 .013-61.5-.152-.645-.005-.645.995 0 1 20.5.165 41 .215 61.5.152.644-.002.645-1.002 0-1M119.251 224.409a51.977 51.977 0 0 1-9.516-.135c-.639-.067-.634.933 0 1 3.172.336 6.336.38 9.516.135.637-.05.643-1.05 0-1M65.478 219.346c3.9 4.368 9.608 5.498 15.146 6.406.629.104.898-.86.264-.965-5.356-.878-10.916-1.908-14.704-6.148-.43-.48-1.135.228-.706.707M62.593 222.864c.956.706 2.003 1.24 3.128 1.619.611.206.874-.76.266-.964a10.44 10.44 0 0 1-2.889-1.518c-.518-.383-1.018.484-.505.863M181.815 215.846c-.963 4.682-7.263 7.38-11.191 9.12-.588.261-.08 1.122.504.863 4.187-1.854 10.615-4.68 11.65-9.717.13-.628-.833-.897-.963-.266M181.642 221.893a20.611 20.611 0 0 1-4.726 2.595c-.594.23-.336 1.197.266.964a21.561 21.561 0 0 0 4.964-2.695c.515-.376.017-1.244-.504-.864M87.607 186.657c22.012.572 44.036.415 66.038-.471.641-.026.644-1.026 0-1a997.333 997.333 0 0 1-66.038.471c-.644-.017-.644.983 0 1M89.228 189.573a343.183 343.183 0 0 0-10.516 19.209c-.29.572.573 1.079.864.504a343.245 343.245 0 0 1 10.516-19.209c.327-.556-.537-1.059-.864-.504"/>
            <path fill="#071F2C" d="M90.613 190c20.29.604 40.59.56 60.876-.13.642-.021.645-1.021 0-1a956.355 956.355 0 0 1-60.876.13c-.644-.018-.644.982 0 1M57.583 163.249c-1.207-.14-10.948-1.168-10.021 1.59.432 1.286 3.044 1.325 4.012 1.466 2.992.435 5.984.435 8.984.09.384-.042.612-.387.43-.75-.354-.716-.334-.654-.97-1.136-.511-.39-1.01.478-.503.863l.61.777.433-.753c-3.195.367-7.47.767-10.546-.373l-.874-.19c-.5-.511-.32-.697.54-.561.702-.308 1.808-.21 2.585-.245 1.782-.08 3.549.017 5.32.222.638.073.633-.927 0-1M47.831 166.713a60.003 60.003 0 0 0-.006 7.773c.041.639 1.041.644 1 0a60.003 60.003 0 0 1 .006-7.773c.042-.643-.958-.641-1 0M50.684 175.165c2.89.767 5.824.645 8.632-.385.598-.22.34-1.185-.267-.964-2.657.974-5.364 1.11-8.099.385-.623-.166-.889.799-.266.964M59.084 166.982a21.167 21.167 0 0 0-.803 6.104c.01.643 1.01.644 1 0a20.198 20.198 0 0 1 .767-5.837c.176-.62-.789-.886-.964-.267M8.311 212.552a51.402 51.402 0 0 0 10.277 1.03c.643-.001.644-1.001 0-1-3.376.002-6.7-.325-10.011-.994-.629-.129-.897.835-.266.964M7.844 214.372c.644 0 .645-1 0-1-.643 0-.645 1 0 1"/>
            <path fill="#071F2C" d="M3.865 214.969l3.78.398c.64.067.635-.933 0-1l-3.78-.398c-.639-.067-.634.934 0 1"/>
            <g transform="translate(0 200.845)">
                <mask id="j" fill="#fff">
                    <use xlink:href="#i"/>
                </mask>
                <path fill="#071F2C" d="M.483 1.59h.199c.644 0 .645-1 0-1h-.2c-.642 0-.644 1 0 1" mask="url(#j)"/>
            </g>
            <path fill="#071F2C" d="M57.384 203.031c.644 0 .645-1 0-1-.643 0-.645 1 0 1M51.088 181.305l2.188.405c.628.116.898-.847.265-.965l-2.187-.404c-.63-.116-.9.847-.266.964M49.625 184.727h1.393c.643 0 .645-1 0-1h-1.393c-.643 0-.645 1 0 1M215.82 177.945l1.193.398c.612.204.874-.76.265-.964a416.75 416.75 0 0 0-1.193-.398c-.612-.204-.874.761-.266.964M61.455 145.208c-.319-2.476-4.8-2.237-6.587-2.3-1.869-.064-7.527-.513-8.23 1.89-.078.266.094.536.349.616l1.518.475c.616.192.879-.773.266-.965l-1.518-.475.349.615c.542-1.851 12.614-1.71 12.853.144.081.63 1.082.638 1 0"/>
            <path fill="#071F2C" d="M50.227 146.491c3.236.428 6.479.642 9.744.642.643 0 .644-1 0-1-3.265 0-6.508-.214-9.744-.642-.636-.085-.629.916 0 1M48.612 149.054c.648.87 1.381 1.65 2.23 2.33.496.4 1.208-.305.706-.708a11.695 11.695 0 0 1-2.073-2.127c-.38-.51-1.248-.012-.863.505M168.436 165.43c3.386 1.042 6.674 2.327 9.896 3.802 1.442.66 8.743 3.181 8.233 5.247-.319 1.295-2.814 2.311-3.72 3.258-.829.866-1.15 1.79-.689 2.97.79 2.017 3.39 3.614 5.025 4.905 1.99 1.571 4.052 3.045 6.107 4.527 4.88 3.522 9.722 7.141 13.295 12.055.374.515 1.243.016.863-.505-3.284-4.518-7.582-7.989-12.06-11.26-2.508-1.83-5.06-3.602-7.498-5.524-1.186-.936-2.587-1.895-3.58-3.037-1.417-1.63-1.608-2.74-.109-4 1.486-1.246 5.07-3.24 2.701-5.376-2.166-1.953-5.85-3.126-8.488-4.319-3.164-1.429-6.392-2.685-9.71-3.709-.617-.189-.88.776-.266.965M92.215 193.316a280.665 280.665 0 0 0 35.4.56c.641-.03.645-1.03 0-1a280.665 280.665 0 0 1-35.4-.56c-.642-.05-.639.95 0 1M132.79 193.74l14.126-.172c.643-.008.644-1.008 0-1l-14.126.172c-.643.008-.645 1.008 0 1M88.225 196.912a147.332 147.332 0 0 1 20.879.64c.64.065.635-.935 0-1a147.332 147.332 0 0 0-20.88-.64c-.64.025-.645 1.025 0 1M112.499 197.827c11.129-.19 22.552-1.13 33.648-.133.642.058.638-.942 0-1-11.096-.997-22.52-.057-33.648.133-.643.01-.645 1.01 0 1M149.232 197.43a4.463 4.463 0 0 1 1.859-.16c.639.075.633-.926 0-1a5.165 5.165 0 0 0-2.125.196c-.614.187-.352 1.152.266.964M87.627 200.41l7.162.198c.644.018.644-.982 0-1l-7.162-.197c-.644-.018-.644.982 0 1M98.967 201.065c4.313-.099 8.624-.065 12.935.098.643.024.642-.976 0-1a212.923 212.923 0 0 0-12.935-.098c-.643.015-.645 1.015 0 1M113.888 201.334l22.681.08c.643.003.644-.997 0-1l-22.68-.08c-.645-.002-.645.998 0 1M141.142 201.186a93.029 93.029 0 0 1 13.715.225c.64.058.637-.943 0-1a93.026 93.026 0 0 0-13.715-.225c-.64.037-.644 1.037 0 1M84.644 205.181c6.424.5 12.856.658 19.297.48.642-.019.645-1.019 0-1-6.44.178-12.873.02-19.297-.48-.642-.05-.639.95 0 1M107.326 206.293a193.148 193.148 0 0 1 15.316-.076c.643.022.642-.978 0-1a193.148 193.148 0 0 0-15.316.076c-.64.028-.645 1.028 0 1M124.519 204.86l.377 1.398c.168.622 1.133.358.965-.265l-.378-1.399c-.167-.62-1.132-.357-.964.266M128.412 206.4l27.657.465c.644.011.644-.989 0-1l-27.657-.465c-.644-.01-.644.99 0 1M82.472 209.19c7.274.646 14.563.997 21.866 1.052.644.005.644-.995 0-1a270.079 270.079 0 0 1-21.866-1.052c-.641-.058-.637.943 0 1M105.828 208.699v1.592c0 .643 1 .644 1 0v-1.592c0-.644-1-.645-1 0M108.715 210.273l48.943-.097c.643-.002.644-1.002 0-1l-48.943.097c-.644.001-.645 1.001 0 1M159.004 209.12l.606.384c.545.345 1.048-.52.505-.863l-.607-.384c-.545-.345-1.047.519-.504.863M73.871 214.32a17.66 17.66 0 0 0 3.234 4.105c.468.441 1.177-.264.707-.707a16.687 16.687 0 0 1-3.076-3.904c-.32-.558-1.184-.056-.865.505M77.539 215.416a11.722 11.722 0 0 0 2.676 2.668c.523.376 1.023-.49.504-.863a10.28 10.28 0 0 1-2.317-2.31c-.374-.516-1.241-.017-.863.505M81.487 215.713a4.856 4.856 0 0 0 1.81 2.07c.542.353 1.044-.512.505-.862-.657-.425-1.129-1.003-1.452-1.713-.266-.585-1.128-.077-.863.505M84.883 215.714a10.955 10.955 0 0 0 2.53 2.35c.534.36 1.035-.505.505-.865a10.141 10.141 0 0 1-2.328-2.192c-.395-.508-1.098.205-.707.707M88.466 216.104a13.3 13.3 0 0 0 3.038 2.567c.548.34 1.05-.525.504-.863a12.418 12.418 0 0 1-2.835-2.41c-.424-.486-1.13.224-.707.706M92.05 215.565a8.322 8.322 0 0 0 3.416 2.952c.58.27 1.087-.593.504-.864-1.247-.58-2.29-1.447-3.058-2.593-.356-.532-1.222-.032-.863.505M95.752 216.33c.94.7 1.96 1.245 3.053 1.664.601.23.862-.736.265-.965a11.72 11.72 0 0 1-2.813-1.562c-.517-.385-1.016.482-.505.863M100.78 216.398a5.409 5.409 0 0 0 1.721 1.391c.571.294 1.077-.569.505-.864a4.691 4.691 0 0 1-1.519-1.234c-.407-.498-1.11.213-.707.707M105.285 216.913l1.026.733c.525.374 1.025-.492.505-.864l-1.026-.732c-.525-.375-1.025.492-.505.863M110.118 216.777l.881.437c.575.285 1.082-.578.505-.864-.294-.145-.587-.29-.88-.437-.576-.284-1.083.578-.506.864M86.565 157.63c4.223.685 8.124-1.098 12.293-1.397.639-.046.644-1.046 0-1-4.036.29-7.95 2.094-12.027 1.432-.63-.101-.901.86-.266.965M152.77 157.528c1.307.177 2.613.353 3.92.528.684.092 2.827.09 3.198.533.272.324-.3 2.991-.321 3.515a39.628 39.628 0 0 0 .069 4.235c.042.64 1.042.643 1 0a38.791 38.791 0 0 1-.033-4.94c.052-.84.69-2.717.17-3.45-.492-.697-1.615-.56-2.392-.665l-5.345-.72c-.63-.085-.902.88-.266.964M158.5 166.53c-23.923 2.437-47.95.617-71.843-1.254-.641-.05-.638.95 0 1 23.894 1.871 47.92 3.691 71.844 1.254.634-.064.64-1.065 0-1"/>
            <path fill="#071F2C" d="M85.513 157.86c.046 2.245.188 4.484.425 6.72.068.633 1.069.64 1 0a79.032 79.032 0 0 1-.425-6.72c-.013-.645-1.013-.647-1 0"/>
            <path fill="#071F2C" d="M87.139 160.008c23.565.968 47.154 1.2 70.734.694.642-.013.644-1.013 0-1-23.58.506-47.17.274-70.734-.694-.644-.026-.643.974 0 1M88.036 163.115c23.412 2.054 46.952 1.476 70.427 1.479.644 0 .645-1 0-1-23.475-.003-47.015.575-70.427-1.479-.641-.056-.637.944 0 1M93.864 158.781c20.366-.163 40.733-.041 61.096.368.644.013.644-.987 0-1-20.363-.409-40.73-.531-61.096-.368-.643.005-.645 1.005 0 1M88.281 166.05l-5.2 2.046c-.529.208-.445.928.132.982a2232.316 2232.316 0 0 0 38.572 3.317c.3.023.6-.342.482-.633l-1.23-3.05c-.238-.59-1.206-.332-.964.266l1.23 3.05.482-.632c-12.867-.994-25.724-2.1-38.572-3.317.045.326.09.654.133.982l5.201-2.047c.592-.234.334-1.2-.266-.964"/>
            <path fill="#071F2C" d="M121.633 171.096c15-.51 30.01-.432 45.003.237.643.03.642-.97 0-1a572.337 572.337 0 0 0-45.003-.237c-.642.022-.645 1.022 0 1"/>
            <path fill="#071F2C" d="M159.686 168.178c2.054.813 4.081 1.688 6.083 2.624.58.272 1.088-.591.505-.863a115.28 115.28 0 0 0-6.322-2.726c-.599-.237-.858.73-.266.965M168.296 174.806l.584.292c.574.287 1.082-.575.505-.863l-.585-.292c-.573-.287-1.081.575-.504.863M164.249 175.897l1.315 1.462c.431.48 1.137-.23.707-.707l-1.315-1.462c-.432-.48-1.137.23-.707.707M170.74 172.096a6.43 6.43 0 0 1 2.205.277c.617.19.881-.776.266-.964a7.277 7.277 0 0 0-2.47-.313c-.642.03-.646 1.03 0 1M81.294 162.62h-3.8c-.643 0-.644 1 0 1h3.8c.644 0 .645-1 0-1M80.27 164.813h-.73c-.643 0-.644 1 0 1h.73c.645 0 .646-1 0-1M102.103 150.228c2.425.146 4.85.192 7.279.143.641-.013.644-1.013 0-1a90.623 90.623 0 0 1-7.28-.143c-.642-.038-.64.962 0 1M103.5 152.428c3.432-.077 6.852-.28 10.267-.614.634-.064.64-1.064 0-1-3.415.334-6.835.537-10.266.614-.643.013-.645 1.013 0 1M116.061 150.508l22.722-1.066c.641-.03.644-1.03 0-1-7.574.355-15.148.712-22.722 1.066-.641.03-.645 1.03 0 1M120.146 152.369c2.024-.15 4.05-.22 6.08-.21.643.005.644-.995 0-1a76.603 76.603 0 0 0-6.08.21c-.638.047-.643 1.048 0 1M129.415 152.267l13.059.203c.644.01.644-.99 0-1l-13.06-.203c-.643-.01-.643.99 0 1M149.707 149.699a81.416 81.416 0 0 0-5.583-.381c-.644-.022-.644.978 0 1 1.865.063 3.726.19 5.583.381.64.066.635-.935 0-1M151.044 152.174a40.63 40.63 0 0 1-4.252-.387c-.63-.092-.9.87-.266.964 1.5.219 3.003.363 4.518.423.644.024.643-.976 0-1M91.012 169.235l-2.307 1.675c-.305.221-.35.836.119.914a185.602 185.602 0 0 0 46.126 1.816c.327-.028.565-.297.483-.633l-.504-2.05c-.154-.626-1.118-.362-.964.264l.504 2.052.48-.633a184.462 184.462 0 0 1-45.858-1.78l.119.913 2.306-1.674c.517-.375.018-1.243-.504-.864"/>
            <path fill="#071F2C" d="M129.513 174.565c1.462.82 2.928.741 4.566.714 2.427-.042 4.853-.098 7.28-.146l15.046-.3a.505.505 0 0 0 .43-.752c-.708-1.265-1.545-2.037-2.883-2.606-.585-.249-1.095.612-.504.863 1.156.493 1.895 1.124 2.525 2.247l.432-.752c-4.37.086-8.737.174-13.105.261l-6.31.126c-2.162.043-5.033.57-6.972-.518-.563-.316-1.067.548-.505.863M73.606 180.394a4.153 4.153 0 0 0-1.598.892c-.483.426.226 1.131.707.707a2.979 2.979 0 0 1 1.157-.635c.616-.182.354-1.148-.266-.964M91.767 192.98l-.461 1.222c-.227.602.739.863.964.265l.461-1.222c.228-.603-.738-.864-.964-.266M118.045 197.697v.765c0 .643 1 .644 1 0v-.765c0-.644-1-.645-1 0M136.757 193.83l.917 1.224c.381.508 1.25.01.863-.505-.305-.407-.61-.816-.917-1.224-.38-.51-1.25-.011-.863.505M143.674 201.453l.851 1.417c.33.55 1.195.049.863-.505l-.85-1.417c-.33-.551-1.197-.05-.864.505M151.98 148.81c.107 1.112-.1 2.181-.066 3.285.03 1.008.243 2.023.384 3.02.09.633 1.054.364.965-.267-.15-1.048-.385-2.13-.346-3.19.035-.97.157-1.87.063-2.848-.061-.635-1.062-.64-1 0M152.097 146.436l.052 1.031c.031.641 1.032.645 1 0l-.052-1.03c-.032-.64-1.032-.645-1 0M193.618 54.818c.338 12.146.717 24.311.728 36.463.004 5.97-.557 11.87-1.008 17.814-.22 2.892-.385 5.792-.334 8.693.02 1.197.576 3.316.24 4.448-.553 1.87-2.637 2.055-4.207 2.514-.616.18-.354 1.145.266.964 1.47-.43 3.96-.585 4.735-2.15.417-.84.148-2.012.09-2.882a61.14 61.14 0 0 1-.127-4.825c.08-6.777 1.097-13.503 1.293-20.275.39-13.557-.3-27.21-.676-40.764-.018-.643-1.018-.645-1 0M108.78 70.481a37.327 37.327 0 0 0-6.993-1.54c-.637-.078-.63.923 0 1 2.292.282 4.531.791 6.726 1.505.614.2.876-.767.266-.965M101.41 81.288a10.053 10.053 0 0 0-4.204.1c-.626.148-.361 1.113.266.963a8.798 8.798 0 0 1 3.673-.098c.629.116.899-.848.266-.965M107.741 100.93a8.394 8.394 0 0 0-3.489 2.09c-.457.455.25 1.162.707.707a7.326 7.326 0 0 1 3.048-1.834c.613-.189.351-1.154-.266-.964M154.622 79.085a8.362 8.362 0 0 1 2.534.363c.617.187.882-.778.266-.964a9.314 9.314 0 0 0-2.8-.4c-.643.008-.645 1.008 0 1M130.489 61.693c-.03-1.532.216-3 .733-4.44.218-.608-.748-.87-.964-.267-.546 1.522-.8 3.09-.77 4.707.013.643 1.013.645 1 0M136.506 99.369a13.227 13.227 0 0 1 2.508 3.992c.236.59 1.204.333.964-.265a14.569 14.569 0 0 0-2.765-4.434c-.434-.478-1.139.23-.707.707M147.376 89.357c2.458.807 4.565 2.232 6.252 4.191.42.49 1.126-.22.707-.707-1.798-2.088-4.076-3.589-6.693-4.448-.613-.2-.876.764-.266.964M124.457 104.231l.259 3.108c.053.637 1.053.643 1 0l-.26-3.108c-.053-.637-1.053-.643-1 0M148.916 67.43a23.913 23.913 0 0 0-.104 2.635c.01.642 1.01.644 1 0-.014-.88.02-1.759.104-2.636.06-.64-.94-.636-1 0M109.458 88.705c.09 1.054.215 2.103.368 3.149.093.634 1.057.365.965-.265-.141-.958-.25-1.92-.333-2.884-.055-.637-1.055-.643-1 0"/>
            <path fill="#071F2C" d="M110.13 93.329a109.18 109.18 0 0 1 13.866 13.55c.419.49 1.124-.22.707-.707a109.112 109.112 0 0 0-13.866-13.55c-.494-.403-1.206.3-.707.707M126.839 107.644c1.688-6.924 4.445-13.525 8.3-19.526 4.195-6.525 9.953-11.75 15.373-17.232.453-.458-.253-1.165-.707-.707-5.485 5.546-11.285 10.832-15.528 17.435-3.901 6.07-6.695 12.76-8.402 19.764-.153.625.812.892.964.266"/>
            <path fill="#071F2C" d="M147.795 68.484a19.8 19.8 0 0 0-1.778 4.796c-.143.627.82.894.964.266a18.815 18.815 0 0 1 1.677-4.557c.3-.569-.564-1.075-.863-.505M145.395 69.84a19.322 19.322 0 0 0-1.675 5.487c-.093.629.871.902.965.266a18.444 18.444 0 0 1 1.573-5.248c.274-.578-.588-1.087-.863-.505M142.91 72.219a18.666 18.666 0 0 0-1.755 6.735c-.044.642.956.64 1 0 .15-2.178.688-4.255 1.618-6.23.273-.58-.59-1.088-.863-.505M139.875 76.627a13.21 13.21 0 0 0-1.08 4.799c-.022.643.978.642 1 0 .05-1.488.357-2.924.943-4.294.251-.585-.61-1.096-.863-.505M137.51 79.249a22.141 22.141 0 0 0-.887 4.56c-.057.64.943.637 1 0 .132-1.463.42-2.89.852-4.294.19-.618-.775-.88-.964-.266M135.076 82.98a15.026 15.026 0 0 0-.88 4.835c-.013.643.987.644 1 0 .03-1.575.313-3.088.844-4.57.218-.607-.748-.869-.964-.266M132.903 85.296a16.957 16.957 0 0 0-.525 4.99c.027.642 1.027.645 1 0-.07-1.603.09-3.17.49-4.723.16-.624-.805-.89-.965-.267M130.571 89.635a17.455 17.455 0 0 0-.316 4.144c.028.64 1.028.645 1 0a16.269 16.269 0 0 1 .28-3.877c.123-.63-.84-.898-.964-.267M128.192 94.46l-.17 4.262c-.026.643.974.642 1 0l.17-4.261c.025-.644-.975-.643-1 0M125.473 99.233c.124 1.54.355 3.06.7 4.563.145.627 1.109.362.965-.265a30.021 30.021 0 0 1-.665-4.298c-.051-.638-1.052-.643-1 0M66.871 51.67c36.242-.318 72.599-1.447 108.819.18.643.029.642-.971 0-1-36.22-1.627-72.578-.498-108.819-.18-.643.007-.644 1.007 0 1M62.078 54.094a265.817 265.817 0 0 0 .83 49.798c.07.633 1.07.64 1 0a265.817 265.817 0 0 1-.83-49.797c.05-.642-.95-.64-1 0M190.891 60.153a248.608 248.608 0 0 1-.383 53.604c-.074.638.926.633 1 0a248.608 248.608 0 0 0 .383-53.604c-.064-.635-1.065-.64-1 0M79.12 170.966c1.633 4.243 7.562 4.633 11.372 5.429a189.602 189.602 0 0 0 18.615 2.92c13.055 1.389 26.223 1.375 39.281.047.634-.065.641-1.066 0-1-11.465 1.166-23.013 1.324-34.502.398a186.208 186.208 0 0 1-25.942-3.94c-2.75-.618-6.698-1.1-7.86-4.12-.229-.593-1.196-.336-.964.266"/>
            <path fill="#071F2C" d="M74.265 172.012c5.386 5.99 13.619 7.27 21.216 8.246.637.082.63-.918 0-1-7.333-.944-15.307-2.169-20.51-7.954-.43-.48-1.135.23-.706.708M14.484 191.675c4.73 3.314 10.492 3.733 16.099 3.76 4.28.017 9.337.078 12.104-3.75.377-.523-.49-1.022-.864-.505-2.78 3.845-8.634 3.323-12.841 3.236-4.923-.1-9.864-.712-13.993-3.605-.528-.37-1.028.498-.505.864M16.267 196.244a51.265 51.265 0 0 0 18.082 1.857c.637-.047.643-1.048 0-1a50.453 50.453 0 0 1-17.816-1.822c-.62-.178-.884.787-.266.965M35.152 176.115l2.474 2.825c.425.486 1.13-.223.707-.707l-2.474-2.825c-.425-.485-1.13.224-.707.707M33.215 178.878a18.268 18.268 0 0 0 4.506 3.456c.566.308 1.07-.556.505-.864a17.37 17.37 0 0 1-4.304-3.3c-.445-.466-1.151.242-.707.708M30.855 181.004l6.07 4.537c.515.386 1.014-.481.504-.863l-6.07-4.537c-.515-.386-1.014.482-.504.863M29.928 184.607a18.454 18.454 0 0 0 4.178 3.334c.557.325 1.06-.539.505-.864a17.5 17.5 0 0 1-3.975-3.177c-.441-.47-1.147.237-.708.707M28.003 187.521l1.227.81c.538.353 1.04-.512.504-.866l-1.227-.808c-.538-.355-1.04.51-.504.864M45.944 211.38c-.51-.597-1.203-.908-1.98-.948-.643-.034-.641.966 0 1 .522.027.938.263 1.272.655.419.49 1.124-.22.708-.707M11.732 208.595h-1.597c-.643 0-.644 1 0 1h1.597c.644 0 .645-1 0-1"/>
        </g>
    </g>
</svg>
