<svg xmlns="http://www.w3.org/2000/svg" xmlns:xlink="http://www.w3.org/1999/xlink" width="619" height="233" viewBox="0 0 619 233">
    <defs>
        <path id="a" d="M.082 43.36V.225h558.675V43.36H.082z"/>
    </defs>
    <g fill="none" fill-rule="evenodd">
        <path fill="#EFECD3" d="M577.967 96.115c-.79-.001-1.563-.037-2.343-.171-.57-.099-.924-.693-.935-1.248-1.218-.796-2.1-1.904-1.887-3.62.084-.677.531-1.311 1.29-1.29 1.923.052 4.976 1.049 5.165 3.29.036.434-.117.75-.362.956.605.773.304 2.085-.928 2.083m-1.922 31.124c-.828.454-1.877.392-2.666-.113-.88-.564-1.365-1.607-1.137-2.64.248-1.126 1.214-1.907 2.2-2.398.624-.313 1.392-.172 1.763.462.087.147.137.315.156.487.64.012 1.344.601 1.271 1.288-.124 1.153-.507 2.32-1.587 2.913m-2.296-15.656c1.22-.331 1.901 1.02 1.462 1.883-.003.025.003.051 0 .078-.249 1.755-1.06 6.072-3.807 4.542-3.086-1.718-.033-5.857 2.345-6.503m2.383-9.631c-.15 1.412-.068 3.028-1.253 4.037-.552.469-1.279.498-1.824 0-2.208-2.02-1.716-5.14.636-6.775.34-.238.963-.252 1.302 0 .34.253.604.508.886.826.402.453.411.984.21 1.416.043.145.062.308.043.496m33.964-8.683a33.196 33.196 0 0 0-.298-2.856c.613-.999.798-2.286.257-3.786-2.592-7.194-11.295-10.719-18.067-12.955-3.925-1.296-8.03-2.045-12.15-2.364-3.25-.25-7.035.462-10.174-.618a248.17 248.17 0 0 1 3.265-5.356c6.024-4.163 10.214-10.112 11.634-17.373.805-.493 1.472-1.21 1.801-2.114.42-1.152.7-2.198.911-3.406a4.252 4.252 0 0 0-.227-2.346c-.214-2.988-1.056-5.962-4.803-6.06-3.987-.103-5.31 4.172-7.555 6.581-4.455 4.782-9.867 8.24-12.759 13.578-.093.119-.187.236-.274.367-1.147 1.703-2.42 3.09-3.798 4.32a58.643 58.643 0 0 0-5.18 3.861c-.63.419-1.27.839-1.929 1.27-3.846 2.529-6.359 5.805-8.15 10.02-2.314 5.447-3.885 11.027-6.843 15.747-.277.346-.538.706-.83 1.036a1762.011 1762.011 0 0 1-28.604 6.014 197.236 197.236 0 0 1-13.234 1.6c-23.6.209-47.287-.438-70.785.546-18.323-1.481-36.73-.754-54.874 2.073-18.13-.275-36.272-.102-54.405.005-16.412.096-32.829.117-49.235-.359-15.444-.447-30.866-2.16-46.302-2.477-1.21-.717-2.673-1.166-4.394-1.223-66.94-2.224-133.763-7.8-200.13-16.828-19.144-2.605-38.38-5.288-57.717-3.309-3.987.409-7.465 2.558-8.553 6.401-.22.31-.43.636-.628.994-2.41 4.37-5.074 8.685-7.129 13.236-2.33 5.16-2.298 10.193-1.195 15.67.901 4.47 1.22 7.188.025 11.687-1.273 4.794-2.889 9.179-2.022 14.174.833 4.792 6.711 7.484 11.072 6.286 1.638-.45 2.952-1.273 3.962-2.334 88.196 5.393 176.622 6.881 264.948 4.367 4.573-.13 9.145-.284 13.718-.435 14.822.09 29.645.152 44.467.166a8488.193 8488.193 0 0 0 165.192-1.45c2.221-.041 3.79-1.073 4.733-2.507 17.826-1.82 35.636-3.86 53.481-5.432.61.094 1.26.102 1.947.006 8.44-1.195 17.03-1.03 25.524-.667 1.534.067 3.084.108 4.635.166 4.57.506 9.135 1.496 13.691 2.629 1.078.429 2.156.872 3.254 1.296 3.495 1.347 7.091 2.01 10.731 2.26 12.194 2.857 24.286 4.184 36.194-2.64 1.03-.133 1.92-.469 2.661-.957 1.143-.23 2.248-.73 3.03-1.608.852-.958 1.575-2.034 1.886-3.3.294-1.196.36-2.762-.098-3.923a6.053 6.053 0 0 0-.786-1.7c2.085-1.056 4.065-2.359 5.996-3.89 2.753-2.184 1.793-6.177 0-8.486-.734-.944-1.618-1.664-2.582-2.227 1.645-.763 3.111-1.822 4.034-3.39.626-1.066 1.133-2.928 1.118-4.16.001-.085-.007-.17-.01-.255.504-1.808.375-3.695-.93-5.641a6.92 6.92 0 0 0-1.438-1.571c.23-.335.425-.694.583-1.072 1.984-.862 3.487-2.665 3.338-5.282"/>
        <path fill="#1D1E1B" d="M418.773 99.016c31.256-.812 62.636 1.645 93.768-2.353 7.27-.933 14.653-2.163 21.519-4.815.594-.23.336-1.197-.266-.965-13.58 5.246-29.082 5.924-43.46 6.612-16.771.802-33.57.663-50.354.513-7.067-.062-14.141-.176-21.207.008-.642.017-.645 1.017 0 1"/>
        <path fill="#1D1E1B" d="M534.28 91.719c3.083-2.858 4.674-6.692 6.602-10.36l7.566-14.399c.3-.569-.564-1.075-.864-.505l-7.108 13.527c-2.012 3.829-3.68 8.043-6.903 11.03-.473.438.235 1.144.707.707M550.065 65.112c1.65-1.836 3.465-3.38 5.52-4.75 1.272-.85 2.491-1.663 3.488-2.846 2.155-2.553 3.177-6.035 6.314-7.637.573-.293.067-1.157-.505-.864-2.867 1.465-4.058 4.349-5.82 6.865-1.414 2.015-3.366 3.113-5.316 4.524-1.615 1.168-3.058 2.52-4.389 4.002-.428.477.277 1.185.708.706M566.531 48.455c1.527-1.965 3.7-2.997 5.64-4.475 1.627-1.238 2.738-2.796 3.806-4.518 1.401-2.259 3.198-5.384 6.21-5.53 4.721-.233 4.653 5.27 4.29 8.556-.07.64.93.634 1 0 .314-2.846.561-6.343-1.829-8.449-1.76-1.55-4.097-1.403-6.039-.27-2.668 1.558-3.815 4.395-5.536 6.806-2.198 3.08-5.955 4.22-8.249 7.172-.39.503.312 1.216.707.708M572.53 71.496c-1.476.982-3.432-.3-2.642-2.275.358-.895 1.422-1.77 2.056-2.472l4.292-4.753c.43-.477-.275-1.187-.707-.707-1.699 1.881-3.406 3.756-5.097 5.644-.867.967-1.975 2.117-1.806 3.537.243 2.043 2.806 2.957 4.41 1.89.532-.356.032-1.222-.506-.864M578.517 59.688c4.108-4.01 6.87-9.007 8.065-14.622.134-.627-.83-.896-.964-.266-1.162 5.458-3.814 10.284-7.808 14.18-.46.45.246 1.157.707.708M575.653 72.823l12.781 2.158c4.28.723 8.27 1.31 11.896 3.88.526.373 1.026-.493.505-.862-3.423-2.426-7.087-3.13-11.152-3.817l-13.764-2.323c-.63-.106-.9.857-.266.964M602.014 80.296c1.708.856 3.597 1.581 5.204 2.61 2.125 1.361 1.977 3.427 2.272 5.71.177 1.373.919 3.593.616 4.945-.438 1.957-2.841 2.992-4.368 4.005-.534.353-.034 1.22.505.863 1.298-.86 3.693-1.859 4.512-3.26.999-1.714-.03-4.735-.265-6.553-.221-1.71-.092-4.143-1.26-5.525-1.453-1.72-4.743-2.67-6.711-3.658-.574-.288-1.081.574-.505.863M605.959 100.11c2.958 2.682 3.738 6.943 1.416 10.33-.625.913-1.473 1.657-2.41 2.233-.505.31-1.174.477-1.575.932-.421.478-.5.724-.436 1.373.06.635 1.062.642 1 0-.087-.907 3.13-2.59 3.776-3.362a8.83 8.83 0 0 0 1.912-4.06c.557-3.086-.697-6.087-2.976-8.152-.476-.432-1.186.273-.707.707"/>
        <path fill="#1D1E1B" d="M603.957 115.184c3.44 2.529 3.981 7.187 1.212 10.465-2.498 2.956-6.53 3.49-10.098 2.554-.623-.165-.889.799-.266.963 4.444 1.168 9.504.097 11.993-4.084 2.238-3.756 1.114-8.224-2.336-10.761-.519-.382-1.019.485-.505.863"/>
        <path fill="#1D1E1B" d="M600.365 129.302c-.124 1.29.095 2.464.245 3.738.32 2.722-.856 4.09-3.058 5.517-2.79 1.808-5.926 2.924-9.186 3.508-.631.113-.363 1.077.267.965 3.886-.698 7.772-2.171 10.901-4.636 3.344-2.635 1.482-5.468 1.832-9.092.062-.64-.94-.636-1 0M449.241 141.823c26.475-1.93 53.16-4.596 79.729-3.287.643.031.641-.969 0-1-26.569-1.309-53.254 1.357-79.729 3.287-.638.047-.644 1.047 0 1"/>
        <path fill="#1D1E1B" d="M531.733 138.876c5.226.282 10.385.69 15.298 2.628 4.248 1.677 8.029 2.892 12.63 3.078 9.783.397 19.773.542 29.39-1.526.629-.136.363-1.1-.266-.965-9.765 2.101-20.12 2.001-30.056 1.447-4.985-.277-8.85-2.242-13.48-3.745-4.358-1.416-8.974-1.672-13.516-1.917-.643-.034-.641.966 0 1M533.495 91.114c-3.673 6.008 2.147 13.712 6.899 17.12.524.377 1.023-.49.505-.862-4.332-3.109-9.89-10.275-6.541-15.754.337-.55-.528-1.053-.863-.504M529.958 95.87c-.082 2.566.653 4.994 2.163 7.074.374.517 1.242.018.863-.505-1.415-1.95-2.103-4.156-2.026-6.569.02-.644-.98-.644-1 0M546.238 120.623c5.622 1.111 11.2.465 16.421-1.892.586-.264.078-1.127-.504-.864-4.959 2.238-10.316 2.847-15.65 1.791-.63-.124-.899.84-.267.965M580.657 77.547a20.567 20.567 0 0 0-.867 6.651c.021.642 1.021.645 1 0a19.71 19.71 0 0 1 .831-6.385c.186-.619-.778-.882-.964-.266"/>
        <path fill="#1D1E1B" d="M574.258 87.982c4.945-3.003 10.81-4.132 16.125-1.377.57.296 1.076-.566.504-.863-5.637-2.922-11.866-1.822-17.133 1.377-.55.333-.048 1.198.504.863"/>
        <path fill="#1D1E1B" d="M589.038 85.485c4.182-2.771 9.142-3.015 14.002-2.626.642.05.639-.95 0-1-5.037-.403-10.181-.104-14.507 2.763-.534.353-.034 1.22.505.863"/>
        <path fill="#1D1E1B" d="M588.909 84.932a18.87 18.87 0 0 1 2.489-6.501c.337-.551-.529-1.054-.865-.505a19.668 19.668 0 0 0-2.589 6.74c-.116.629.848.9.965.266M591.311 83.38a5.948 5.948 0 0 1 1.804-2.709c.487-.423-.223-1.128-.707-.707a6.913 6.913 0 0 0-2.06 3.15c-.198.615.767.877.963.266M568.71 73.916c-.14 1.61.546 2.906 1.105 4.38.705 1.853 1.167 3.762 1.464 5.721.096.633 1.06.365.964-.266-.259-1.712-.635-3.393-1.209-5.027-.556-1.582-1.474-3.079-1.325-4.808.055-.642-.945-.638-1 0M571.058 74.68a46.408 46.408 0 0 1 5.662 6.306c.38.51 1.248.012.863-.504a47.745 47.745 0 0 0-5.818-6.51c-.47-.438-1.18.269-.707.708M551.659 77.121c3.034-.76 6.193-.522 9.236-1.236 2.537-.594 4.868-1.683 7.026-3.129.531-.357.031-1.223-.505-.864-2.302 1.542-4.832 2.691-7.569 3.196-2.809.517-5.672.372-8.454 1.07-.624.155-.359 1.12.266.963M566.448 70a56.36 56.36 0 0 1-5.292.312c-.644.007-.645 1.007 0 1a56.36 56.36 0 0 0 5.292-.312c.633-.067.64-1.067 0-1M573.575 60.9c-2.258-.381-4.221-1.424-5.786-3.098-.441-.47-1.147.238-.707.707a10.929 10.929 0 0 0 6.227 3.355c.63.106.9-.858.266-.964M576.872 58.274c-2.774.133-5.338-1.113-6.9-3.422-.36-.53-1.225-.03-.863.505 1.752 2.59 4.629 4.067 7.763 3.917.64-.031.645-1.031 0-1M573.038 88.754c-.786 1.467-1.593 3.136-.979 4.816.513 1.403 1.843 2.294 3.04 3.068.542.35 1.043-.515.504-.863-.908-.588-1.957-1.237-2.466-2.236-.738-1.443.075-2.994.764-4.28.304-.567-.559-1.073-.863-.505M584.521 91.39a15.492 15.492 0 0 0 .08 8.208c.174.618 1.14.355.964-.266a14.411 14.411 0 0 1-.08-7.676c.162-.623-.802-.89-.964-.266M586.403 91.984c-.26 2.325-.411 4.685.793 6.785.32.558 1.185.055.864-.505-1.11-1.936-.894-4.15-.657-6.28.07-.64-.93-.634-1 0M581.167 101.56c-1.027 2.136-1.508 4.398-1.404 6.767.029.64 1.029.644 1 0-.096-2.192.316-4.284 1.268-6.261.278-.577-.585-1.085-.864-.505M581.842 104.144l-.311 2.023c-.097.63.867.902.964.267.104-.675.208-1.35.31-2.023.099-.63-.865-.902-.963-.267M579.533 117.075a13.61 13.61 0 0 0-1.046 4.632c-.033.644.967.642 1 0 .078-1.52.421-2.965 1.01-4.366.249-.592-.718-.851-.964-.266M580.773 113.332c7.554.271 15.116.662 22.547 2.128.63.124.898-.84.266-.964-7.519-1.483-15.17-1.89-22.813-2.164-.644-.022-.643.978 0 1M587.618 100.746a96.769 96.769 0 0 1 9.804-.657c.643-.01.645-1.01 0-1a96.769 96.769 0 0 0-9.804.657c-.631.074-.639 1.075 0 1M599.604 99.825c1.09-.104 2.18-.21 3.268-.315.635-.06.641-1.062 0-1l-3.268.315c-.635.062-.642 1.062 0 1M579.211 125.178a11.917 11.917 0 0 1 4.555.859c.598.238.858-.729.266-.963a12.61 12.61 0 0 0-4.82-.896c-.645.005-.646 1.005 0 1M585.15 126.848c2.444.35 4.826.916 7.166 1.705.61.206.873-.76.265-.964a40.057 40.057 0 0 0-7.165-1.705c-.63-.091-.9.873-.266.964M569.609 116.976c.825 1.538 1.9 2.896 3.278 3.978 1.478 1.162 3.568 1.743 4.616 3.369.347.539 1.213.038.863-.505-.861-1.335-2.161-1.946-3.494-2.726-1.904-1.112-3.36-2.682-4.4-4.621-.304-.567-1.168-.062-.863.505M570.279 115.445c.619-2.525 2.63-4.401 5.182-4.874.632-.117.364-1.081-.265-.965-2.878.533-5.186 2.736-5.881 5.573-.154.625.81.892.964.266M571.524 105.115a42.717 42.717 0 0 0 3.643 3.727c1.257 1.129 2.833 2.073 3.868 3.418.387.504 1.256.006.864-.504-1.003-1.303-2.405-2.2-3.635-3.275a42.134 42.134 0 0 1-4.033-4.073c-.423-.487-1.128.224-.707.707"/>
        <path fill="#1D1E1B" d="M571.974 103.166c-1.378-3.793 4.27-5.235 6.682-4.635 1.77.441 3.471 1.535 5.091 2.36.572.291 1.08-.572.505-.864-3.08-1.567-6.037-3.498-9.566-2.226-2.427.874-4.68 2.866-3.676 5.632.218.6 1.185.34.964-.267M577.053 96.713c.93-.096 1.74.88 2.485-.167.643-.904.346-2.499.346-3.518 0-.968.094-2.068-.836-2.657-1.092-.692-2.785-.766-4.037-.922-.637-.08-.631.921 0 1 .802.1 1.785.177 2.548.467 1.319.501 1.325 1.185 1.325 2.346 0 .61.199 1.55-.021 2.111-.322.824-1.163.274-1.81.34-.634.065-.641 1.065 0 1"/>
        <path fill="#1D1E1B" d="M575.673 106.955a33.89 33.89 0 0 0 1.005-4.662c.103-.738.528-2.1.183-2.76-.39-.745-2.145-1.52-2.938-1.405-.635.093-.365 1.056.266.965.23-.034.86.386 1.083.508.765.417.63.782.53 1.67a32.882 32.882 0 0 1-1.093 5.418c-.178.62.787.885.964.266M570.26 118.05c.412 1.022 2.476 1.613 3.41 1.095.873-.485 1.259-1.719 1.576-2.597.52-1.437.74-2.94.754-4.465a.508.508 0 0 0-.367-.482c-.983-.27-2.647-.818-3.654-.504-.613.191-.351 1.156.265.965.785-.245 2.336.288 3.123.504a87.537 87.537 0 0 0-.367-.483c-.015 1.718-.322 3.418-1.037 4.988-.298.653-.628 1.245-1.401 1.204-.212-.01-1.245-.263-1.337-.492-.236-.589-1.204-.332-.964.266M577.784 115.037l-.642 3.11c-.129.627.834.896.965.265l.641-3.109c.13-.628-.834-.897-.964-.266M600.354 118.91a29.54 29.54 0 0 1-1.393 6.09c-.21.61.757.873.964.265a30.682 30.682 0 0 0 1.429-6.356c.075-.638-.925-.633-1 0M602.092 122.989c.644 0 .645-1 0-1-.644 0-.645 1 0 1M603.688 122.522c-.225 1.102-.665 2.122-1.355 3.015-.39.503.313 1.215.707.707.797-1.031 1.35-2.176 1.612-3.456.129-.628-.835-.897-.964-.266M601.327 111.413a11.326 11.326 0 0 0 2.006-6.513c-.001-.643-1.001-.644-1 0 .003 2.194-.629 4.201-1.869 6.008-.366.532.501 1.032.863.505M604.55 109.979a8.44 8.44 0 0 0 1.152-3.522c.064-.64-.936-.636-1 0a7.27 7.27 0 0 1-1.015 3.017c-.331.555.533 1.058.863.505M604.787 95.874c.437-3.353-.222-6.602-1.892-9.537-.317-.56-1.182-.056-.863.505 1.592 2.798 2.17 5.844 1.755 9.032-.083.637.918.63 1 0M607.385 92.889c.22-1.308.142-2.59-.279-3.85-.203-.607-1.169-.346-.965.266.362 1.083.47 2.189.28 3.318-.106.63.858.9.964.266M581.737 127.995a16.159 16.159 0 0 0-2.35 5.542c-.137.628.827.895.964.267a15.397 15.397 0 0 1 2.249-5.304c.358-.538-.508-1.039-.863-.505M582.982 130.019a12.402 12.402 0 0 0-.984 2.766c-.141.627.822.894.964.265.198-.878.486-1.72.883-2.526.283-.576-.58-1.083-.863-.505"/>
        <path fill="#1D1E1B" d="M572.802 130.348c3.967 4.847 9.357 7.93 14.931 10.602.578.276 1.086-.585.505-.864-5.497-2.634-10.814-5.663-14.729-10.445-.408-.5-1.112.213-.707.707"/>
        <path fill="#1D1E1B" d="M582.844 138.765l1.094 2.489c.258.588 1.12.079.863-.505l-1.094-2.488c-.258-.588-1.12-.08-.863.504M579.529 136.78c.315 1.452.556 2.912.716 4.39.069.632 1.07.639 1 0a44.623 44.623 0 0 0-.752-4.655c-.136-.63-1.1-.362-.964.266M577.468 124.767c-.381.883-1.326 2.823-2.41 2.8-1.11-.025-2.31-1.506-2.972-2.31-.41-.497-1.114.214-.707.707.779.945 2.442 2.855 3.852 2.715 1.446-.142 2.606-2.262 3.1-3.407.253-.585-.608-1.095-.863-.505"/>
        <path fill="#1D1E1B" d="M572.174 125.105c.236-1.333 1.308-2.414 2.682-2.537.635-.058.642-1.058 0-1-1.793.16-3.328 1.474-3.646 3.27-.112.63.852.9.964.267M570.89 127.689a26.642 26.642 0 0 0 2.785 3.447c.445.466 1.152-.242.707-.707a25.197 25.197 0 0 1-2.629-3.245c-.36-.53-1.226-.03-.863.505M564.296 93.728c.232.097-.749 4.186-.876 4.633-.444 1.565-1.062 3.079-1.762 4.546-1.216 2.547-2.717 4.949-4.214 7.338-.342.546.523 1.048.864.504 2.181-3.483 4.37-7.024 5.7-10.936.406-1.192 2.326-6.313.554-7.05-.594-.246-.853.722-.266.965M565.705 104.193l-3.113 5.292c-.327.557.537 1.06.863.505l3.113-5.292c.327-.556-.537-1.06-.863-.505M544.529 116.259c9.52 1.58 19.598.508 26.964-6.258.475-.436-.233-1.141-.707-.707-7.087 6.508-16.843 7.519-25.991 6.001-.63-.104-.9.86-.266.964M534.56 128.685c.662 3.3 2.469 6.103 5.148 8.124.514.388 1.013-.48.505-.863-2.47-1.864-4.082-4.502-4.688-7.527-.126-.63-1.09-.363-.964.266M540.765 133.884c.644 0 .645-1 0-1-.644 0-.645 1 0 1M569.626 121.138a26.113 26.113 0 0 0-9.314 7.048c-.413.489.292 1.2.707.707A25.509 25.509 0 0 1 570.13 122c.585-.264.078-1.127-.505-.863M525.353 129.881a351.96 351.96 0 0 0-34.256 1.44c-.636.057-.642 1.058 0 1a351.96 351.96 0 0 1 34.256-1.44c.644.005.644-.995 0-1M472.9 102.193h-2.022c-.644 0-.645 1 0 1h2.023c.644 0 .645-1 0-1M544.126 82.76l-5.604 7.315c-.391.511.478 1.009.864.505l5.604-7.315c.39-.511-.477-1.01-.864-.505M541.765 91.146c.644 0 .645-1 0-1-.644 0-.645 1 0 1M418.773 98.016c-61.195 2.408-122.462 2.735-183.662.317-59.257-2.341-118.376-7.225-177.332-13.552a4488.633 4488.633 0 0 1-53.147-6.043c-18.095-2.161-36.365-5.188-54.64-3.968-.64.043-.644 1.043 0 1 16.337-1.09 32.605 1.315 48.786 3.266a4764.748 4764.748 0 0 0 47.82 5.529c30.16 3.323 60.36 6.309 90.604 8.776 58.527 4.773 117.207 7.457 175.93 7.664 35.224.124 70.446-.604 105.64-1.99.643-.024.646-1.024 0-1M-69.854 144.884c67.168 2.793 134.384 4.435 201.61 4.802 66.358.362 132.722-.514 199.048-2.598a5699.145 5699.145 0 0 0 113.94-4.736c.64-.032.643-1.033 0-1-67.139 3.454-134.335 5.758-201.554 6.786a5400.714 5400.714 0 0 1-199.065-.639 5700.933 5700.933 0 0 1-113.979-3.615c-.644-.026-.643.974 0 1M-49.925 127.94l103.329 3.448c.644.022.643-.978 0-1-34.444-1.15-68.887-2.3-103.33-3.448-.643-.021-.642.979 0 1M13.407 113.944c5.351-.19 10.684.032 16 .667.639.076.633-.925 0-1a103.681 103.681 0 0 0-16-.667c-.641.022-.644 1.022 0 1M83.407 100.61a61.352 61.352 0 0 1 15.2 1.316c.629.134.897-.83.267-.964a62.576 62.576 0 0 0-15.466-1.351c-.642.023-.646 1.023 0 1M306.074 134.61h11.333c.644 0 .645-1 0-1h-11.333c-.644 0-.645 1 0 1M601.993 29.375l4-2.5c.545-.34.043-1.206-.504-.863l-4 2.5c-.545.34-.044 1.206.504.863M592.223 9.576c.66-2.846.999-5.71 1.018-8.633.004-.643-.996-.644-1 0a37.952 37.952 0 0 1-.982 8.367c-.145.626.818.894.964.266M570.723 19.31l-1.5-4c-.224-.597-1.191-.338-.964.267l1.5 4c.224.596 1.191.338.964-.266M545.251 40.443c-.106-1.39-1.035-2.567-2.385-2.951-.62-.177-.885.788-.266.964.901.256 1.58 1.046 1.651 1.987.048.638 1.05.644 1 0M495.372 86.91c2.999-.467 5.66-1.889 7.729-4.107.438-.47-.267-1.179-.707-.707-1.964 2.106-4.445 3.408-7.288 3.85-.634.098-.365 1.062.266.964M611.875 138.937a13.751 13.751 0 0 1-1.2 6.19c-.263.583.598 1.092.862.505.96-2.13 1.418-4.36 1.338-6.695-.022-.642-1.022-.645-1 0M617.359 140.445l-.021 3.999c-.004.645.996.645 1 0l.02-4c.004-.643-.996-.644-1 0"/>
        <g transform="translate(-97 194.59)">
            <mask id="b" fill="#fff">
                <use xlink:href="#a"/>
            </mask>
            <path fill="#F2F2F2" d="M552.482.332c-19.72-.837-40.474 3.486-60.203 3.57-.766.002-1.526-.093-2.277-.23-4.503-.819-26.86-1.433-28.52-1.549-38.11-2.687-50.062 4-87.993 4.7-19.458.36-38.85-1.416-58.209-2.914-19.499-1.509-38.914-2.299-58.487-1.744-38.968 1.105-77.93 3.74-116.852 5.726-19.412.99-39.045 2.837-58.492 2.785C72.11 10.65 63.415 7.97 54.192 7.19c-9.557-.807-19.106 1.045-28.579 1.891-21.897 1.955-43.81 1.142-65.533-1.858-20.382-2.815-41.346-6.116-61.468-.258-3.719 1.082-4.942 4.121-4.365 6.797a3.983 3.983 0 0 0-.218 1.858c.923 7.566 3.231 14.5 7.368 21.183 1.023 1.652 3.432 3.031 5.612 2.862.52-.04 1.034-.107 1.543-.185 5.084 3.541 13.17 2.961 19.24 3.272 17.26.882 34.561.671 51.833.203 17.301-.468 34.596-1.2 51.907-1.366 8.48-.08 16.96-.028 25.433.26 8.694.296 16.501-3.577 25.201-3.309 12.126.373 18.5-.14 24.608-2.018a15.67 15.67 0 0 1 4.04-.688c28.227-.967 46.62.344 74.287-3.607a46.71 46.71 0 0 1 6.006-.453c32.78-.42 65.603-.727 98.303-2.368 8.294-.416 16.557-1.077 24.806-1.85 13.792-.646 27.558-2.57 41.251-3.849 14.942-1.396 29.91-2.534 44.89-3.516 3.04-.059 6.08-.09 9.128-.065 44.206.376 90.038 4.845 133.411-5.465a7.09 7.09 0 0 0 2.098-.842c2.135-.55 5.335-1.378 7.47-1.928 8.371-.365 8.403-11.203.018-11.559" mask="url(#b)"/>
        </g>
    </g>
</svg>
