<svg xmlns="http://www.w3.org/2000/svg" width="24" height="24" viewBox="0 0 24 24">
    <path fill="#FFF" fill-rule="evenodd" d="M11.997 0h.006C18.62 0 24 5.383 24 12s-5.381 12-11.997 12c-2.44 0-4.704-.727-6.6-1.982L.79 23.492l1.495-4.459A11.912 11.912 0 0 1 0 12C0 5.383 5.381 0 11.997 0zm-3.35 6.095c-.233-.557-.41-.578-.762-.592a6.775 6.775 0 0 0-.402-.014c-.459 0-.938.134-1.227.43-.353.36-1.228 1.2-1.228 2.92 0 1.722 1.256 3.387 1.425 3.62.176.232 2.447 3.816 5.974 5.277 2.757 1.143 3.575 1.037 4.203.903.917-.198 2.067-.875 2.356-1.693.289-.819.289-1.517.204-1.666-.084-.148-.317-.232-.67-.409-.352-.176-2.066-1.023-2.39-1.136-.318-.12-.621-.077-.861.262-.339.472-.67.952-.938 1.241-.212.226-.557.254-.846.134-.388-.162-1.474-.543-2.815-1.735-1.036-.924-1.742-2.074-1.946-2.42-.205-.352-.021-.557.141-.748.176-.218.346-.373.522-.578.176-.205.275-.31.388-.55.12-.233.035-.473-.05-.65-.084-.176-.79-1.897-1.079-2.596z"/>
</svg>
