<?xml version="1.0" encoding="UTF-8"?>
<svg width="940px" height="529px" viewBox="0 0 940 529" version="1.1" xmlns="http://www.w3.org/2000/svg" xmlns:xlink="http://www.w3.org/1999/xlink">
    <!-- Generator: Sketch 50.2 (55047) - http://www.bohemiancoding.com/sketch -->
    <title>Artboard 3</title>
    <desc>Created with Sketch.</desc>
    <defs></defs>
    <g id="Artboard-3" stroke="none" stroke-width="1" fill="none" fill-rule="evenodd">
        <path d="M0,0 L940,0 L940,529 L0,529 L0,0 Z M876.985806,497.696464 C887.844081,497.696464 897.876907,485.906109 897.876907,471.973235 C897.876907,437.463449 896.231077,437.463449 896.231077,402.953664 C896.231077,368.443878 895.94217,368.443878 895.94217,333.933164 C895.94217,299.425237 895.226057,299.425237 895.226057,264.91638 C895.226057,230.409382 898,230.409382 898,195.901455 C898,161.396315 896.233974,161.396315 896.233974,126.890246 C896.233974,92.3832483 895.590268,92.3832483 895.590268,57.8762502 C895.590268,43.9433761 887.844081,32.1846102 876.985806,32.1846102 C851.512014,32.1846102 851.512014,31.5992734 826.037499,31.5992734 C800.563708,31.5992734 800.563708,33.6080006 775.089917,33.6080006 C749.616849,33.6080006 749.616849,31.1179965 724.143782,31.1179965 C698.672163,31.1179965 698.672163,32.3007484 673.19982,32.3007484 C647.728925,32.3007484 647.728925,33.2976792 622.25803,33.2976792 C596.785687,33.2976792 596.785687,31 571.314068,31 C545.841725,31 545.841725,34.3986699 520.369382,34.3986699 C494.898487,34.3986699 494.898487,32.0099383 469.427592,32.0099383 C443.955249,32.0099383 443.955249,31.2499295 418.48363,31.2499295 C393.012011,31.2499295 393.012011,32.5794803 367.540392,32.5794803 C342.070221,32.5794803 342.070221,34.4376923 316.60005,34.4376923 C291.130604,34.4376923 291.130604,34.0864902 265.660433,34.0864902 C240.19171,34.0864902 240.19171,32.9901451 214.722263,32.9901451 C189.251368,32.9901451 189.251368,31.3744297 163.780473,31.3744297 C138.309578,31.3744297 138.309578,32.2310655 112.838684,32.2310655 C87.3670645,32.2310655 87.3670645,33.8467809 61.8954455,33.8467809 C51.0371705,33.8467809 43.0476928,43.9433761 43.0476928,57.8762502 C43.0476928,92.3860356 43.54079,92.3860356 43.54079,126.895821 C43.54079,161.406536 41.5756421,161.406536 41.5756421,195.916321 C41.5756421,230.424248 41,230.424248 41,264.933104 C41,299.440102 41.7523171,299.440102 41.7523171,333.94803 C41.7523171,368.453169 41.0202742,368.453169 41.0202742,402.959238 C41.0202742,437.466237 42.4923249,437.466237 42.4923249,471.973235 C42.4923249,485.906109 51.0371705,498.186103 61.8954455,498.186103 C87.3692367,498.186103 87.3692367,496.626134 112.843752,496.626134 C138.317543,496.626134 138.317543,498.868996 163.791335,498.868996 C189.264402,498.868996 189.264402,496.613127 214.737469,496.613127 C240.209812,496.613127 240.209812,497.9817 265.682155,497.9817 C291.152326,497.9817 291.152326,497.433527 316.623945,497.433527 C342.095564,497.433527 342.095564,496.473761 367.567183,496.473761 C393.039526,496.473761 393.039526,499 418.511869,499 C443.982764,499 443.982764,498.475984 469.453659,498.475984 C494.926002,498.475984 494.926002,496.990344 520.397621,496.990344 C545.86924,496.990344 545.86924,496.806381 571.340859,496.806381 C596.81103,496.806381 596.81103,498.999071 622.281201,498.999071 C647.751372,498.999071 647.751372,498.778873 673.220818,498.778873 C698.689541,498.778873 698.689541,497.26443 724.158988,497.26443 C749.629883,497.26443 749.629883,496.330678 775.100778,496.330678 C800.572397,496.330678 800.572397,498.700828 826.043292,498.700828 C851.514187,498.700828 851.514187,497.696464 876.985806,497.696464 Z" id="Combined-Shape" fill="#fff"></path>
    </g>
</svg>