<?xml version="1.0" encoding="UTF-8"?>
<svg viewBox="0 0 1440 50" version="1.1" xmlns="http://www.w3.org/2000/svg" xmlns:xlink="http://www.w3.org/1999/xlink">
    <!-- Generator: Sketch 48.2 (47327) - http://www.bohemiancoding.com/sketch -->
    <title>bg-wiggle-top-navy</title>
    <desc>Created with Sketch.</desc>
    <defs></defs>
    <g id="Page-1" stroke="none" stroke-width="1" fill="none" fill-rule="evenodd">
        <g id="bg-wiggle-top-navy" transform="translate(720.000000, 25.000000) rotate(180.000000) translate(-720.000000, -25.000000) " fill="#081F2C" fill-rule="nonzero">
            <g id="Page-1">
                <g id="bg-wiggle-1">
                    <g id="Shape">
                        <path d="M1440,45 L1378.2,45 C1332.6,45 1348,48.4 1195.3,48.4 C1112.3,48.4 1080.8,41.5 1029.6,43.1 C986.6,44.5 904.2,49.4 869.4,49.9 C793.1,51 824.8,40.1 714.5,40.1 C679.1,40.1 646.3,45.9 610.8,45.9 C575.4,45.9 532,45 493.8,45 C421.3,45 409.6,48.8 352.3,48.8 C322.1,48.8 250.9,42.5 210.3,44 C173.8,45.3 136.8,48.8 101.9,48.8 C28.3,48.9 0,45 0,45 L0,0 L1440,0 L1440,45 Z" id="path-1_1_"></path>
                    </g>
                </g>
            </g>
        </g>
    </g>
</svg>
