<svg xmlns="http://www.w3.org/2000/svg" width="100%" height="100%" viewBox="0 0 408 146" preserveAspectRatio="none">
    <path fill="#002D72" fill-rule="evenodd" d="M375.728 142.843c-34.775 0-34.775 2.091-69.55 2.091-34.778 0-34.778-4.934-69.555-4.934-34.778 0-34.778 1.944-69.557 1.944-34.78 0-34.78 3.152-69.559 3.152-34.779 0-34.779.458-69.56.458-15.688 0-27.546-15.899-27.546-30.895 0-41.88-.4-41.88-.4-83.763C0 15.9 12.259 1.09 27.948 1.09 62.724 1.09 62.724 0 97.499 0c34.777 0 34.777 5.258 69.554 5.258 34.778 0 34.778-1.997 69.556-1.997 34.78 0 34.78-1.143 69.559-1.143 34.78 0 34.78 2.85 69.56 2.85 15.688 0 32.037 10.932 32.037 25.928 0 41.882-4.884 41.882-4.884 83.763 0 14.996-11.465 28.184-27.153 28.184"/>
</svg>
