<svg id="Layer_1" data-name="Layer 1" xmlns="http://www.w3.org/2000/svg" viewBox="0 0 62.59 66.88" width="100%" height="100%" preserveAspectRatio="none"><defs><style>.cls-1{fill:#1e1f1c;}</style></defs><title>nudj-cta-test</title><path class="cls-1" d="M17,17.71a18.56,18.56,0,0,0-7.64-1.56.5.5,0,0,0,0,1,17.36,17.36,0,0,1,7.13,1.42c.58.25,1.09-.61.5-.86Z"/><path class="cls-1" d="M11.33,29.44A7.94,7.94,0,0,0,5.73,30.8c-.53.36,0,1.23.5.86a7.11,7.11,0,0,1,5.09-1.22c.64.08.63-.92,0-1Z"/><path class="cls-1" d="M17.48,53.93a10.4,10.4,0,0,0-4.79,6.48c-.15.62.81.89,1,.27A9.39,9.39,0,0,1,18,54.8a.5.5,0,0,0-.5-.86Z"/><path class="cls-1" d="M51.52,60.12l-.33,1.67c-.13.63.84.9,1,.27l.33-1.67c.13-.63-.84-.9-1-.27Z"/><path class="cls-1" d="M25.33,56.4a4,4,0,0,0-3.76,2.27c-.27.58.59,1.09.86.5a3,3,0,0,1,2.9-1.77c.64,0,.64-1,0-1Z"/></svg>
