<svg xmlns="http://www.w3.org/2000/svg" width="100%" height="100%" viewBox="0 0 275 230" preserveAspectRatio="none">
    <path fill="#F5F5F4" fill-rule="evenodd" d="M252.571 225.97c-23.367 0-23.367 2.723-46.735 2.723s-23.368-6.424-46.737-6.424c-23.37 0-23.37 2.531-46.74 2.531s-23.37 4.104-46.74 4.104-23.37.596-46.74.596c-10.543 0-18.51-20.7-18.51-40.223 0-54.525-.27-94.525-.27-149.052 0-19.523 8.237-38.805 18.78-38.805C42.245 1.42 42.245 0 65.613 0s23.368 6.847 46.737 6.847c23.37 0 23.37-2.6 46.739-2.6 23.37 0 23.37-1.488 46.74-1.488 23.371 0 23.371 3.709 46.741 3.709 10.542 0 21.528 14.234 21.528 33.757 0 54.527-3.282 94.527-3.282 149.052 0 19.524 1.894 19.91-6.29 26.594l-11.956 10.1z"/>
</svg>
