<svg xmlns="http://www.w3.org/2000/svg" xmlns:xlink="http://www.w3.org/1999/xlink" width="1371" height="1113" viewBox="0 0 1371 1113">
    <defs>
        <path id="a" d="M0 2.08V.144h19.972V2.08H0z"/>
        <path id="c" d="M7.498.077V9.61H.046V.077h7.452z"/>
        <path id="e" d="M25.312 57H.62V.597h24.69z"/>
    </defs>
    <g fill="none" fill-rule="evenodd">
        <path fill="#F2F2F2" d="M396.731 1053.518c-.653-1.06-1.964-.803-2.539-.045-.04-.006-.077-.019-.119-.024-9.543-.996-18.793 4.207-27.397 7.651-2.073.83-4.174 1.635-6.282 2.44-9.799 3.277-19.618 6.502-29.392 9.851-8.192 2.806-14.567 8.736-22.154 12.82l-.187.041c-2.254.54-4.178 1.67-5.847 3.141-1.913-3.869-3.838-7.74-5.545-11.69-2.269-5.255-2.779-11.112-6.06-15.915-1.896-2.775-3.318-4.963-3.927-8.358-.487-2.712-.824-5.327-1.814-7.92-2.1-5.493-5.063-10.74-7.634-16.025-.255-.524-.607-.865-1-1.063-.336-1.535-2.92-1.408-2.962.383-.003.135.003.27.001.404-.61.714-.876 1.732-.356 2.8.141.29.293.583.44.875.715 12.824 5.96 25.103 10.25 37.073 4.733 13.206 8.575 27.49 15.147 39.916-.623.94-.256 2.467 1.133 2.308 22.027-2.529 40.53-14.843 58.86-26.37 4.902-3.083 9.813-6.389 15.224-8.518 4.688-1.845 10.598-.962 14.874-3.545 5.93-3.584 11.241-13.8 7.286-20.23"/>
        <path fill="#E35205" d="M290.826 928.156l-6.775 36.066-7.074 59.906 40.18-42.58 1.238-1.463 57.74 7.102-42.456-38.366-33.107-27.948-7.912-4.538z"/>
        <path fill="#1D1E1B" d="M276.977 1024.128l7.392-54.817c2.367-17.555 4.492-35.222 9.158-52.35 29.863 20.024 54.669 46.334 82.456 68.959.495.403 1.206-.301.707-.707-27.925-22.738-52.85-49.182-82.889-69.272l.014-.052c.161-.574-.645-.834-.905-.381-.317.083-.5.535-.25.827-4.735 17.239-6.872 35.03-9.256 52.71l-7.391 54.817c-.085.629.879.902.964.266"/>
        <path fill="#1D1E1B" d="M401.412 1049.879a371.182 371.182 0 0 1-23.962-61.718c.229-.236.139-.741-.254-.852l-.09-.296c-.165-.585-1.027-.376-.97.175a603.183 603.183 0 0 1-57.218-8.02c-.098-.328-.515-.56-.817-.237l-.068.074c-.17-.033-.341-.063-.512-.096a.493.493 0 0 0-.294.037l-.404-1.054c-.228-.596-1.195-.337-.964.265l.867 2.262a2025.108 2025.108 0 0 0-39.984 44.302c-.355-.14-.85.265-.628.723a450.386 450.386 0 0 1 24.744 62.466c.19.613 1.157.35.964-.265a452.092 452.092 0 0 0-24.53-62.04 2024.953 2024.953 0 0 1 39.832-44.145l.034.088c.228.595 1.195.336.964-.267l-.244-.636.517-.56a605.784 605.784 0 0 0 58.027 8.13 372.74 372.74 0 0 0 23.844 61.583 373.602 373.602 0 0 0-48.82 15.803 6.071 6.071 0 0 0-.61-1.598c-.314-.561-1.178-.058-.863.505.26.464.44.95.543 1.462a373.415 373.415 0 0 0-49.017 24.124c-.554.325-.052 1.189.505.863a372.61 372.61 0 0 1 48.775-24.016c.29.246.834.138.822-.325a372.671 372.671 0 0 1 49.512-16.003c.332-.082.437-.455.299-.734M316.472 899.417c.33.552 1.196.049.864-.505l-5.541-9.243c-.33-.551-1.196-.05-.864.505 1.848 3.08 3.694 6.162 5.54 9.243M327.31 900.818c.196.61 1.162.35.964-.266l-4.882-15.205c-.196-.61-1.162-.349-.965.266a89288.15 89288.15 0 0 1 4.883 15.205M293.494 918.682l2.16 4.886c.26.588 1.123.08.865-.504l-2.161-4.887c-.26-.587-1.122-.079-.864.505M297.86 929.84c.404 1.055.81 2.109 1.212 3.164.228.595 1.196.337.965-.266l-1.213-3.164c-.228-.594-1.195-.337-.964.266M300.65 937.717a12.357 12.357 0 0 1 1.443 3.202c.178.617 1.143.355.964-.266a13.335 13.335 0 0 0-1.542-3.441c-.343-.542-1.21-.041-.864.505M303.986 947.066a17.211 17.211 0 0 1 1.69 3.885c.181.616 1.146.353.963-.266a18.302 18.302 0 0 0-1.79-4.124c-.326-.555-1.19-.052-.863.505M307.952 957.986l1.371 2.603c.3.57 1.164.064.863-.505l-1.37-2.603c-.3-.569-1.164-.064-.864.505M311.874 967.76l1.386 3.616c.228.595 1.195.337.964-.265l-1.386-3.617c-.228-.594-1.195-.337-.964.266"/>
        <path fill="#1D1E1B" d="M322.559 991.506l-1.386-3.617c-.228-.595-1.195-.336-.964.266l1.386 3.617c.228.594 1.195.337.964-.266M326.995 1001.73l-1.299-3.392c-.228-.594-1.195-.336-.964.267l1.3 3.39c.227.595 1.194.337.963-.266M330.946 1011.362l-1.126-2.938c-.228-.595-1.195-.337-.964.265l1.126 2.94c.228.593 1.195.336.964-.267M334.705 1020.547a8.52 8.52 0 0 0-1.123-2.581c-.35-.538-1.215-.037-.863.505a7.68 7.68 0 0 1 1.022 2.343c.156.624 1.12.359.964-.267M337.962 1029.67l-1.04-2.712c-.228-.595-1.195-.337-.964.266l1.04 2.713c.228.594 1.195.337.964-.266M342.188 1040.75a13.02 13.02 0 0 0-1.514-3.454c-.34-.545-1.205-.044-.863.504a12.109 12.109 0 0 1 1.413 3.217c.17.62 1.135.356.964-.266M345.1 1048.97c-.348-.905-.694-1.81-1.04-2.714-.229-.595-1.196-.336-.965.267l1.04 2.713c.228.593 1.195.336.964-.267M348.857 1059.453l-1.039-2.712c-.228-.595-1.195-.337-.964.266.346.904.692 1.808 1.04 2.713.227.594 1.194.336.963-.267M289.57 1030.571l2.88 7.517c.228.594 1.196.337.965-.266l-2.88-7.517c-.229-.594-1.196-.337-.965.266M297.792 1016.518l-1.545 3.466c-.26.583.601 1.092.863.505l1.545-3.466c.26-.583-.6-1.092-.863-.505M325.366 953.908l1.475 1.351c.474.433 1.183-.272.707-.707l-1.475-1.351c-.474-.434-1.183.271-.707.707M370.538 1006.917c-1.87-1.443-2.978-3.572-3.123-5.925-.039-.64-1.04-.643-1 0 .17 2.74 1.45 5.115 3.618 6.789.51.393 1.007-.475.505-.864M256.749 981.4a77.314 77.314 0 0 0-15.108-5.586c-.624-.159-.891.806-.267.965a76.067 76.067 0 0 1 14.871 5.483c.575.283 1.082-.579.504-.863"/>
        <g transform="translate(220 997.193)">
            <mask id="b" fill="#fff">
                <use xlink:href="#a"/>
            </mask>
            <path fill="#1D1E1B" d="M19.497.66a63.853 63.853 0 0 0-19.136.446c-.633.111-.364 1.075.266.965a62.907 62.907 0 0 1 18.87-.41c.637.081.63-.92 0-1" mask="url(#b)"/>
        </g>
        <path fill="#1D1E1B" d="M243.152 1059.735c-2.68-.366-5.285.614-6.96 2.765-.39.502.313 1.214.708.707 1.437-1.846 3.645-2.827 5.986-2.508.63.086.902-.877.266-.964M397.07 971.573a25.749 25.749 0 0 0 5.078 5.602c.494.404 1.206-.299.707-.707a24.92 24.92 0 0 1-4.922-5.399c-.357-.532-1.223-.032-.863.504"/>
        <g transform="translate(399 962.193)">
            <mask id="d" fill="#fff">
                <use xlink:href="#c"/>
            </mask>
            <path fill="#1D1E1B" d="M.27 1.028a16.252 16.252 0 0 1 6.235 8.238c.205.605 1.173.345.965-.265A17.391 17.391 0 0 0 .774.165c-.532-.367-1.032.5-.504.862" mask="url(#d)"/>
        </g>
        <g>
            <path fill="#E35205" d="M1271.844 301.409c.326-.625 31.975-43.226 31.975-43.226l-7.742-12.393-10.255-11.375-60.802 34.684-41.006 19.479-72.132 44.484 127.456-25.48 32.506-6.173z"/>
            <path fill="#E35205" d="M1105.107 334.883l41.278-40.529 60.818-69.673 53.738-10.856 9.73 16.32-50.232 29.111-32.29 25.671-24.894 16.471z"/>
            <path fill="#2D2926" d="M1103.867 335.067c7.353-6.588 14.737-13.141 22.052-19.771 7.26-6.58 13.928-13.653 20.466-20.942 13.115-14.624 25.852-29.58 38.691-44.445 7.311-8.466 14.66-16.9 22.127-25.228.43-.478-.276-1.187-.707-.707-13.222 14.746-26.063 29.827-39.009 44.814-12.709 14.711-25.194 29.997-39.469 43.232-8.168 7.572-16.563 14.907-24.858 22.34-.48.43.228 1.136.707.707"/>
            <path fill="#2D2926" d="M1206.982 224.81a957.785 957.785 0 0 0 53.96-10.984c.626-.147.361-1.11-.266-.964a957.104 957.104 0 0 1-53.96 10.983c-.632.111-.364 1.074.266.965M1105.612 335.747l35.216-20.327c11.272-6.507 22.935-12.624 33.656-20.027 10.264-7.087 19.478-15.66 29.452-23.151a420.167 420.167 0 0 1 30.716-21.01 423.199 423.199 0 0 1 36.524-20.223c.578-.284.071-1.147-.505-.864-22.278 10.95-43.587 23.83-63.596 38.527-10.062 7.389-19.394 15.678-29.364 23.168-10.326 7.757-21.932 13.795-33.094 20.237l-39.51 22.807c-.557.32-.054 1.186.505.863M1261.262 214.718l9.412 14.241c.353.535 1.219.034.863-.505l-9.412-14.24c-.353-.535-1.22-.035-.863.504"/>
            <path fill="#2D2926" d="M1270.424 230.577c-.288 3.92-.614 7.839-.902 11.76-.047.64.953.638 1 0 .288-3.921.614-7.84.902-11.76.047-.642-.953-.64-1 0"/>
            <path fill="#2D2926" d="M1181.094 290.473c5.37-3.942 11.673-5.682 17.638-8.465 7.438-3.47 14.812-7.085 22.135-10.792a824.921 824.921 0 0 0 42.436-23.066 839.326 839.326 0 0 0 23.906-14.464c.544-.34.042-1.207-.505-.863-27.413 17.205-55.813 32.822-85.05 46.705-7 3.324-14.768 5.46-21.064 10.082-.514.376-.016 1.244.504.863M1109.148 333.328c42.377-8.05 84.753-16.1 127.13-24.148 11.944-2.27 23.888-4.54 35.832-6.807.632-.12.364-1.084-.266-.964l-127.13 24.148-35.832 6.806c-.631.12-.364 1.084.266.965M1272.657 300.47l30.769-40.498c.389-.513-.48-1.012-.864-.505l-30.768 40.498c-.39.513.478 1.011.863.505"/>
            <path fill="#2D2926" d="M1285.822 234.415a85.422 85.422 0 0 1 17.998 23.769c.293.573 1.156.067.863-.505a86.196 86.196 0 0 0-18.153-23.971c-.472-.438-1.181.269-.708.707M1276.092 295.297l14.268-.51c3.007-.108 4.63.364 4.72-2.986.188-6.994-.084-14.004-.006-21 .008-.645-.992-.645-1 0-.067 6.02.024 12.042.02 18.063-.002 1.091.342 2.796-.023 3.816-.63 1.763-4.144 1.122-5.613 1.175l-12.366.442c-.642.023-.645 1.023 0 1M1321.363 329.117l28.005 25.796c.474.435 1.182-.27.708-.707l-28.006-25.796c-.473-.436-1.182.27-.707.707"/>
            <g transform="translate(1245 365.079)">
                <mask id="f" fill="#fff">
                    <use xlink:href="#e"/>
                </mask>
                <path fill="#2D2926" d="M.642 1.214a241.004 241.004 0 0 0 23.733 55.544c.326.556 1.19.053.864-.505A239.936 239.936 0 0 1 1.607.95C1.432.332.467.595.643 1.214" mask="url(#f)"/>
            </g>
            <path fill="#2D2926" d="M1182.948 372.344l-1.24 17.063c-.047.643.953.64 1 0l1.24-17.063c.046-.642-.954-.639-1 0"/>
            <path fill="#1D1E1B" d="M1130.225 225.265a155.419 155.419 0 0 0-24.565-18.092c-.554-.329-1.058.535-.504.863a154.193 154.193 0 0 1 24.362 17.936c.478.43 1.187-.275.707-.707M1177.165 189.296c.865-5.112-.787-10.147-4.57-13.707-.47-.44-1.177.266-.707.708 3.51 3.304 5.119 7.97 4.313 12.733-.107.63.857.9.964.266"/>
            <path fill="#2D2926" d="M1287.153 221.61l4.997-2.25c.585-.264.077-1.126-.505-.863l-4.997 2.25c-.586.263-.078 1.125.505.863M1296.818 214.457a22.526 22.526 0 0 0 4.138-3.296c.453-.458-.254-1.166-.707-.707a21.436 21.436 0 0 1-3.936 3.14c-.546.339-.044 1.204.505.863M1308.012 204.394l3.307-2.808c.49-.418-.22-1.122-.707-.708l-3.307 2.81c-.491.416.219 1.12.707.706M1319.031 195.579l2.897-2.868c.458-.453-.249-1.16-.707-.707l-2.897 2.868c-.458.453.25 1.16.707.707M1327.805 186.231l4.228-5.064c.409-.492-.294-1.203-.707-.707l-4.23 5.064c-.408.491.296 1.202.709.707M1336.676 174.744a15.466 15.466 0 0 0 4.216-4.63c.33-.554-.535-1.057-.863-.504a14.27 14.27 0 0 1-3.857 4.27c-.515.377-.017 1.245.504.864M1346.705 163.74l3.384-3.968c.416-.487-.288-1.198-.707-.707l-3.384 3.969c-.415.487.289 1.197.707.707M1354.517 152.278l3.673-7c.299-.57-.564-1.075-.863-.505l-3.673 7c-.299.569.564 1.075.863.505M1362.16 137.466c.75-1.483 1.498-2.967 2.247-4.45.29-.573-.573-1.08-.864-.505l-2.247 4.45c-.289.573.573 1.08.864.505M1366.693 124.236a65.334 65.334 0 0 0 2.314-7.172c.162-.623-.802-.89-.964-.265a65.446 65.446 0 0 1-2.314 7.17c-.233.6.734.862.964.267M1369.612 110.608a18.792 18.792 0 0 0 1.193-7.377c-.024-.642-1.024-.644-1 0a18.116 18.116 0 0 1-1.157 7.111c-.226.603.74.864.964.266M1369.544 94.677a18.235 18.235 0 0 0-.681-7.1c-.183-.616-1.15-.353-.964.266.668 2.242.878 4.508.645 6.834-.064.64.937.635 1 0M1367.337 78.2c-.728-2.482-1.455-4.967-2.182-7.451-.18-.616-1.146-.354-.964.266l2.182 7.452c.18.617 1.145.354.964-.266M1360.378 61.43c-1.16-1.869-2.317-3.738-3.476-5.607-.338-.547-1.203-.045-.863.503l3.475 5.61c.339.545 1.204.043.864-.506M1351.682 48.145l-2.399-4.019c-.33-.552-1.195-.049-.864.505l2.399 4.02c.33.552 1.195.05.864-.506M1344.746 38.018l-2.019-3.99c-.29-.574-1.153-.07-.863.505l2.02 3.99c.29.574 1.152.068.862-.505M1338.048 28.58l-3.5-4.5c-.395-.506-1.098.206-.707.708l3.5 4.5c.395.508 1.098-.205.707-.707M1330.528 16.612l-2.485-3.966c-.341-.544-1.206-.043-.863.505l2.485 3.966c.34.544 1.206.042.863-.505M1325.366 3.671l-.542-3.115c-.111-.633-1.075-.365-.965.265l.543 3.117c.11.631 1.074.363.964-.267"/>
            <path fill="#1D1E1B" d="M1253.156 262.61c-6.039 2.74-12.078 5.48-18.117 8.218-.585.265-.077 1.128.505.864a99644.22 99644.22 0 0 0 18.116-8.218c.586-.264.078-1.127-.504-.863M1277.03 247.09l-4.637 4.01c-.487.42.222 1.125.707.706l4.638-4.01c.487-.422-.222-1.126-.707-.707M1277.601 259.912c.644 0 .645-1 0-1-.644 0-.645 1 0 1M1181.993 274.697c.644 0 .645-1 0-1-.643 0-.645 1 0 1M1196.024 254.35l-3.635 5.168c-.37.528.495 1.028.863.505 1.212-1.723 2.424-3.445 3.635-5.169.371-.527-.495-1.027-.863-.504M1159.884 392.152l-.55 7.565c-.046.643.954.64 1 0l.55-7.565c.047-.643-.954-.64-1 0"/>
        </g>
        <g>
            <path fill="#F2F2F2" d="M155.863 886.172c-1.684 1.885-10.273 5.945-10.923 8.355-1.106.052-28.537 20.702-39.133 32.694-5.291 5.988-10.675 11.943-16.788 17.113-4.904 4.15-8.462 8.403-14.052 11.577-18.18-22.623-39.057-45.673-58.62-67.112-2.388-2.617-6.72-2.963-9.695-1.252-8.814 5.07-8.175 16.467-2.139 23.438 3.12 3.603 6.902 5.785 9.207 10.1 2.367 4.429 4.246 8.827 7.504 12.72 6.1 7.29 14.823 11.922 21.08 19.207 6.174 7.19 10.54 15.774 13.194 24.836 1.117 3.81 5.758 7.21 9.842 5.588 21.968-8.73 49.013-39.303 67.335-54.624 17.835-14.911 25.165-14.536 29.357-37.376 1.849-10.067 1.09-13.396-6.17-5.264"/>
            <path fill="#E35205" d="M93.114 798.484l73.07 6.478v40.851l-2.311 30.863-72.468-76.922z"/>
            <path fill="#2D2926" d="M40.159 913.22c16.25-13.198 33.675-24.863 49.992-37.978 8.108-6.517 15.94-13.406 23.1-20.961 3.599-3.797 6.877-7.872 10.419-11.718 3.908-4.245 8.414-7.6 13.159-10.847 10.3-7.048 19.39-15.391 28.346-24.05.463-.448-.245-1.155-.707-.707-8.331 8.056-16.757 16.035-26.315 22.64-4.282 2.959-8.663 5.8-12.431 9.419-3.798 3.646-7.03 7.83-10.558 11.728-14.195 15.686-31.244 28.376-48.21 40.867-9.273 6.828-18.561 13.639-27.503 20.9-.5.406.212 1.11.708.708"/>
            <path fill="#2D2926" d="M90.698 800.46c25.247 23.957 49.106 49.219 71.483 75.878.413.493 1.118-.217.706-.707-22.376-26.66-46.236-51.921-71.483-75.877-.466-.443-1.174.263-.706.707M3.932 874.776l70.79 79.346c.43.481 1.134-.229.707-.707L4.64 874.07c-.429-.48-1.135.228-.707.707"/>
            <path fill="#2D2926" d="M4.923 874.255c4.06-5.876 10.889-8.546 16.585-12.471 5.873-4.046 11.167-9.156 16.34-14.041 11.014-10.4 21.316-21.527 32.47-31.78 6.466-5.943 13.225-11.56 20.472-16.53.526-.362.027-1.23-.506-.864-12.637 8.669-23.714 19.28-34.523 30.082-5.564 5.559-11.076 11.17-16.757 16.613-5.602 5.366-11.338 10.966-17.693 15.446-5.925 4.176-12.995 6.88-17.252 13.04-.367.53.5 1.03.864.505M93.114 798.484c24.209 3.854 48.541 6.4 73.046 7.252.644.021.643-.979 0-1-24.416-.848-48.658-3.376-72.78-7.216-.63-.1-.901.862-.266.964"/>
            <path fill="#2D2926" d="M166.184 804.962l-.609 38.432-.297 18.723c-.1 6.293 1.066 13.528-4.03 18.17-4.48 4.079-9.426 7.729-14.122 11.555l-15.064 12.27c-8.704 7.092-17.49 14.089-26.096 21.3-9.05 7.584-17.633 15.643-25.66 24.305-.437.472.268 1.18.707.708 15.146-16.346 32.595-29.995 49.825-44.031 10.168-8.284 20.614-16.32 30.536-24.893 4.076-3.521 4.71-7.295 4.795-12.485.107-6.57.208-13.14.312-19.71.234-14.781.47-29.563.703-44.344.01-.645-.99-.645-1 0"/>
            <path fill="#1D1E1B" d="M91.429 962.36c-3.614 1.933-7.228 3.866-10.842 5.801-.567.303-.063 1.167.505.863l10.84-5.802c.569-.303.065-1.167-.503-.863M95.023 976.1c-1.698 2.305-4.187 3.737-7.011 4.14-.635.089-.364 1.053.266.964 3.1-.442 5.758-2.086 7.608-4.6.383-.52-.485-1.018-.863-.504M80.596 790.186l11.583-4.124c.603-.214.343-1.18-.265-.964l-11.584 4.124c-.602.214-.342 1.181.266.964M79.103 776.087c2.039-2.034 4.646-3.103 7.525-3.087.644.004.644-.996 0-1-3.13-.017-6.017 1.17-8.232 3.38-.456.455.25 1.163.707.707"/>
            <path fill="#2D2926" d="M57.795 828.314c.292.602 1.098 1.418 1.759.741.46-.47.298-1.442-.467-1.416-.641.023-.644 1.023 0 1-.146-.325-.236-.41-.27-.254.19-.032.226-.079.106-.14-.021-.112-.21-.32-.265-.436-.28-.578-1.143-.072-.863.505M66.682 824.731c-.176.892.565 1.89 1.544 1.677.896-.196 1.29-1.258.862-2.029-.314-.56-1.178-.057-.864.505.323.58-.7.726-.578.113.124-.628-.84-.898-.964-.266M75.344 824.179l2.976-.511c.633-.108.365-1.072-.266-.964l-2.977.51c-.632.11-.364 1.073.267.965M85.983 823.047a1.644 1.644 0 0 1 1.32-.372c.63.1.9-.863.265-.965-.855-.137-1.629.07-2.293.63-.492.415.218 1.119.708.707M93.993 820.816c.777-.586 1.681-.752 2.61-.448.613.201.876-.765.266-.964a3.691 3.691 0 0 0-3.38.55c-.508.382-.01 1.25.504.862M106.395 818.992l2.984-.466c.634-.098.365-1.062-.266-.964l-2.984.466c-.634.1-.365 1.063.266.964M115.981 817.11l2.701-.772c.618-.176.355-1.142-.265-.964l-2.702.772c-.618.176-.355 1.142.266.964M125.82 815.402l3.312-.646c.632-.124.365-1.087-.265-.964l-3.313.645c-.631.123-.364 1.088.266.965M134.31 813.972a4.652 4.652 0 0 1 3.042-.717c.64.064.635-.937 0-1a5.552 5.552 0 0 0-3.546.854c-.541.343-.04 1.21.505.863M143.316 812.389c.79.014 1.579.027 2.368.042.644.01.644-.99 0-1l-2.368-.042c-.644-.012-.644.988 0 1M153.927 810.163l3.883-.727c.632-.118.364-1.082-.266-.963l-3.883.726c-.631.118-.364 1.082.266.964M158.726 821.854l-1.057 2.465c-.25.585.61 1.095.864.505l1.056-2.465c.25-.586-.61-1.096-.863-.505M154.865 830.401l-.97 2.637c-.221.605.745.866.966.265l.968-2.636c.223-.605-.743-.866-.964-.266M151.176 839.549l-.198 2.954c-.043.643.958.64 1 0l.198-2.954c.043-.643-.958-.64-1 0M148.385 848.005a8.145 8.145 0 0 0-1.086 4.076c0 .644 1 .645 1 0a7.079 7.079 0 0 1 .949-3.571c.32-.56-.544-1.064-.863-.505M145.34 857.663l-1.309 2.908c-.262.582.6 1.092.864.505l1.309-2.908c.261-.583-.6-1.092-.864-.505M141.006 866.772c-.222.583-.446 1.166-.667 1.75-.23.601.736.861.964.266l.667-1.75c.23-.602-.736-.863-.964-.266M138.726 873.38l-1.312 2.909c-.262.582.599 1.09.864.505l1.31-2.908c.264-.582-.597-1.091-.862-.505M135.025 882.532l-.36 1.467c-.153.625.811.891.964.265l.36-1.466c.153-.625-.81-.892-.964-.266M132.802 891.344c-.762.538-1.102 1.372-.937 2.29.114.633 1.078.365.964-.266-.079-.443.11-.901.478-1.161.521-.368.022-1.236-.505-.863M129.821 899.2a3166.12 3166.12 0 0 1-.445 3.24c-.085.63.877.902.964.266l.446-3.24c.087-.63-.877-.903-.965-.267M161.318 813.068a6.993 6.993 0 0 1-.708 3.23c-.281.577.58 1.084.864.505a8.125 8.125 0 0 0 .844-3.735c-.01-.643-1.01-.645-1 0"/>
            <path fill="#1D1E1B" d="M80.997 845.95a5110.593 5110.593 0 0 0-3.43 3.146c-.476.435.233 1.141.707.707l3.43-3.146c.475-.436-.233-1.142-.707-.707M64.967 867.36c-1.923-1.186-3.847-2.369-5.77-3.554-.549-.338-1.052.527-.505.864 1.924 1.184 3.847 2.37 5.771 3.552.549.34 1.052-.526.504-.863M76.55 933.375l-2.058 1.887c-.475.435.233 1.14.707.707l2.059-1.887c.475-.436-.234-1.142-.708-.707M69.87 929.311c.644 0 .645-1 0-1-.644 0-.645 1 0 1M178.641 881.804l-.528 9.999c-.034.643.966.64 1 0l.528-10c.034-.643-.966-.641-1 0M184.586 889.3v2c0 .645 1 .646 1 0v-2c0-.643-1-.644-1 0M171.718 789.818l-18.5-2.5c-.629-.085-.9.88-.266.965l18.5 2.5c.63.085.902-.879.266-.965M160.586 780.8h-6.5c-.644 0-.645 1 0 1h6.5c.644 0 .645-1 0-1"/>
        </g>
    </g>
</svg>
