<svg xmlns="http://www.w3.org/2000/svg" xmlns:xlink="http://www.w3.org/1999/xlink" width="357" height="384" viewBox="0 0 357 384">
    <defs>
        <path id="a" d="M340 376.19H.074V.6H340v375.59z"/>
        <path id="c" d="M252.659 201.19H.205V.739h252.454V201.19z"/>
        <path id="e" d="M242.871 205.19H.178V.696h242.693V205.19z"/>
        <path id="g" d="M10.297 9.19H.609V.7h9.688v8.49z"/>
        <path id="i" d="M314.883 221.19H1V.26h313.884v220.93z"/>
    </defs>
    <g fill="none" fill-rule="evenodd">
        <g transform="translate(-6 7.637)">
            <mask id="b" fill="#fff">
                <use xlink:href="#a"/>
            </mask>
            <path fill="#D6906D" d="M322.853 76.517c-.665-1.062-1.325-2.123-1.815-3.279-.351-.827-.598-1.834-1.275-2.461-.416-.385-.483-1.086-.202-1.563a9.46 9.46 0 0 0 .375-.666c.764-1.421 2.873-.235 2.28 1.172.404.606.683 1.289.96 1.969.513 1.25 1.189 2.383 1.904 3.525.884 1.413-1.35 2.706-2.227 1.303m-12.678 9.396c-1.266.934-2.644 1.598-4.072 2.149-3.38.198-6.66-.393-9.877-1.715-3.112-1.278-6.031-2.779-9.504-2.455a8.497 8.497 0 0 0-1.138.186c.033-.258.07-.518.127-.776.523-2.412 2.172-4.406 2.838-6.779a7.615 7.615 0 0 0 .256-2.419c2.96-1.547 5.77-3.339 8.16-5.689 3.17.079 6.855.998 9.62.397a46.544 46.544 0 0 0 11.78 9.117c-2.546 2.881-5.173 5.76-8.19 7.984m25.83-25.025c-5.557-.175-9.194 3.584-12.653 7.363-2.258-3.662-4.555-7.677-8.474-9.451a72.853 72.853 0 0 0-3.563-1.482 4.28 4.28 0 0 0-.77-.498c-4.513-2.303-9.505-4.849-14.67-4.858a4.21 4.21 0 0 0-1.282-.273c-4.184-.197-7.382 2.902-10.616 5.183l-6.541 4.613c.335-4.207.228-8.583-.026-12.608-.172-2.709-1.003-5.051-2.078-7.298 3.323-4.562 5.49-10.897 4.579-16.347 2.843-8.365 8.232-18.317-1.242-23.91-.028-.018-.056-.025-.084-.039-.803-.891-2.426-1.011-3.255.248l-.85 1.287c-.462.704-.4 1.388-.065 1.922l-.745 2.861c-.19.205-.346.462-.448.781a177.01 177.01 0 0 1-4.246 12.203 17.976 17.976 0 0 0-.462-1.518c.146-.457.104-.989-.23-1.54-.862-1.424-1.818-2.764-2.82-4.078a31.304 31.304 0 0 0-1.214-1.578c-.418-.51-.914-.699-1.393-.67-1.194-.57-2.955-.006-2.927 1.711v.012c-.081.374-.152.743-.223 1.111-.68 1.992-.942 3.945-.837 6.072-1.701.498-3.201 2.096-3.224 3.914-.082 6.326-3.8 12.006-4.32 18.355-.026.327.004.629.058.92a18.894 18.894 0 0 0-.23 4.983c-1.505-1.258-3.321-2.131-5.088-2.948a4.901 4.901 0 0 0-2.407-.453c-1.606-.291-3.49.52-4.232 1.927-.862 1.63-.592 3.294.462 4.562.165.31.35.615.58.896 1.373 1.679 2.49 3.559 3.79 5.304.012.045.013.086.026.132 2.506 8.949 4.659 18.058 7.237 27.003.009 2.999-.084 6.005.418 8.989.8 4.763 2.95 9.15 4.873 13.545 1.737 3.969 3.566 8.107 4.982 12.353.696 10.818-.548 21.479-3.72 31.809-.078.234-.16.467-.237.701-5.558 8.986-12.582 16.825-20.963 23.523-12.01 9.598-23.391 19.909-34.908 30.088-.77.679-1.09 1.457-1.113 2.223l-.77.518c-4.587 3.088-9.584 5.933-13.734 9.615-1.902 1.686-3.394 3.657-4.925 5.597-.03.02-.058.03-.088.05-12.086 8.488-23.462 17.906-35.08 27.005a146.398 146.398 0 0 0-11.868 8.503c-.48.382-.79.803-.98 1.237-.711.52-1.42 1.041-2.132 1.559-7.004 4.273-12.74 11.131-18.48 16.764-7.113 6.982-14.094 14.095-20.79 21.482-9.917 8.816-21.14 17.477-28.538 28.486-.103.077-.208.137-.307.229l-15.928 14.476a3.7 3.7 0 0 0-1.524.736l-10.772 8.657c-5.52 3.9-11.015 7.826-15.784 12.684-.131.134-.23.272-.335.41a3.82 3.82 0 0 0-.952.603l-15.541 13.66c-.886.778-1.142 1.793-.988 2.772-1.161.975-1.75 2.598-.768 4.297 2.495 4.32 6.167 7.26 10.064 10.261 5.377 4.139 9.46 8.959 13.165 14.642 1.64 2.519 3.339 5.132 4.377 7.972 1.35 3.693.747 6.703.15 10.447-.431 2.709-.181 5.231 1.036 7.317.246 1.691 1.592 3.195 3.27 3.182 2.325 1.218 4.458-.613 4.8-2.739 7.104-5.391 13.094-12.018 20.02-17.652 8.485-6.903 17.418-13.016 25.632-20.296a73.863 73.863 0 0 0 10.09-10.927c3.358-4.443 7.426-7.984 11.435-11.81 5.98-5.706 11.48-11.858 16.575-18.348 3.107-2.7 6.027-5.606 8.73-8.78.38-.447.626-.918.769-1.39.443-.162.88-.429 1.289-.836l7.387-7.371a67.938 67.938 0 0 0 6.119-6.106c.242-.274.415-.559.559-.847 3.883-3.731 7.889-7.332 11.917-10.92.838-.746 1.17-1.588 1.152-2.394a336.1 336.1 0 0 0 4.052-3.874c.259-.252.45-.515.613-.78a30.592 30.592 0 0 0 1.665-1.673c.234-.254.408-.518.554-.785l10.627-9.197c.61-.529.915-1.17 1.007-1.834.105-.086.213-.157.315-.259 11.792-11.8 24.933-23.115 35.33-36.179 6.688-8.402 14.64-16.101 21.15-24.734l17.004-19.787c4.29-4.995 8.909-9.85 11.706-15.786 2.188-2.586 4.382-5.169 6.556-7.768 3.348-4.001 6.677-8.017 9.978-12.056 1.538-1.883 3.144-3.606 4.387-5.51.61-.108 1.19-.46 1.61-1.137a147.232 147.232 0 0 0 5.913-10.462c.34-.201.633-.508.822-.955l2.61-6.164a157.719 157.719 0 0 0 2.815-6.647 1.964 1.964 0 0 0-.1-1.719l2.599-7.136c1.586-2.965 3.139-5.947 4.422-9.056 1.742-2.114 4.02-3.454 6.099-5.475 2.587-2.518 4.039-5.768 5.43-9.043 2.323-5.475 3.857-11.094 4.779-16.885 2.145-2.653 3.847-5.688 5.65-8.563 2.869-4.57 5.737-9.142 8.605-13.715a4.978 4.978 0 0 0 .726-1.93c.72-1.925 1.005-3.97 1.107-6.096.167-3.489.566-5.532 2.322-8.565 1.557-2.688-.443-5.924-3.454-6.02" mask="url(#b)"/>
        </g>
        <path fill="#1D1E1B" d="M279.9 92.555c5.249-1.26 8.978 3.725 13.956 4.385 2.422.321 4.966.16 7.078 1.553 2.716 1.793 4.879 4.475 6.983 6.918.42.49 1.125-.22.707-.707-2.091-2.427-4.211-4.943-6.831-6.824-2.085-1.495-4.384-1.575-6.864-1.825-5.498-.554-9.551-5.844-15.294-4.464-.626.151-.36 1.114.266.964"/>
        <path fill="#1D1E1B" d="M299.234 97.005c1.86-.096 3.006-.913 4.695-1.513 1.817-.645 2.491-.13 4.084.415.673.233 1.137.279 1.844.166.634-.098.365-1.063-.266-.963-1.68.264-3.01-1.415-4.766-1.044-1.996.418-3.447 1.83-5.59 1.94-.64.031-.645 1.031 0 1"/>
        <path fill="#1D1E1B" d="M304.47 95.178c1.708-.95 3.273-2.102 4.63-3.515 1.458-1.518 2.485-3.449 4.258-4.643.53-.358.031-1.224-.505-.863-1.537 1.035-2.482 2.512-3.658 3.906-1.472 1.745-3.239 3.143-5.23 4.252-.562.313-.058 1.177.505.863M317.354 77.636c1.07-2.356 4.084-4.6 6.167-6.014 2.017-1.368 6.503-3.644 8.745-1.488l1.052 2.91-.614 1.381c-.39.75-.884 1.438-1.268 2.191a15.32 15.32 0 0 0-1.125 2.908c-.87 3.16-.38 6.44-.89 9.647-.1.63.863.901.964.266.356-2.246.214-4.487.396-6.744.24-2.983 1.442-5.17 2.786-7.763 1.181-2.276 1.231-4.697-1.344-5.959-2.538-1.243-5.6-.304-7.917.984-2.752 1.531-6.49 4.256-7.816 7.176-.263.582.598 1.091.864.505M298.722 145.52c1.417-2.945 4.006-4.79 6.349-6.947 2.126-1.958 3.603-4.137 4.536-6.88 1.128-3.318 2.22-6.557 3.479-9.828 1.309-3.406 1.143-6.866.829-10.442-.055-.636-1.056-.642-1 0 .36 4.11.294 7.704-1.38 11.543-1.206 2.765-1.918 5.616-2.892 8.46-1.153 3.365-3.241 5.544-5.851 7.823-1.954 1.707-3.793 3.395-4.933 5.766-.278.577.584 1.085.863.505"/>
        <path fill="#1D1E1B" d="M314.057 116.46c4.595-8.938 10.403-17.197 16.044-25.508.363-.534-.503-1.035-.863-.505-5.641 8.31-11.45 16.57-16.044 25.508-.294.57.569 1.077.863.505M295.524 140.747c-1.721-8.4-5.984-14.701-12.267-20.36-7.692-6.928-14.175-15.94-17.307-25.882-.193-.612-1.16-.351-.965.265 2.905 9.22 8.71 17.94 15.679 24.6 2.687 2.569 5.537 4.913 7.839 7.858 3.168 4.053 5.029 8.772 6.057 13.786.129.629 1.093.363.964-.267M283.252 115.691c-3.917-5.943-7.314-12.15-9.255-19.038-1.83-6.496-1.948-13.56-5.405-19.509-.323-.556-1.188-.054-.863.505 3.662 6.301 3.623 13.987 5.768 20.831 1.996 6.368 5.234 12.165 8.891 17.716.353.535 1.22.035.864-.505M283.451 95.966c-2.022.294-4.649.396-5.725-1.712-1.008-1.972-.786-4.8-.437-6.91.105-.63-.859-.9-.963-.266-.418 2.516-.776 6.394 1.047 8.502 1.545 1.788 4.227 1.657 6.344 1.352.634-.093.365-1.056-.266-.966"/>
        <path fill="#1D1E1B" d="M279.957 94.245c-.964-5.064 4.361-8.806 3.322-13.983-.126-.63-1.09-.364-.964.265 1.015 5.059-4.306 8.817-3.322 13.984.12.63 1.084.364.964-.266M280.877 78.574a23.193 23.193 0 0 0-7.335-5.46c-.579-.274-1.087.588-.505.863a22.526 22.526 0 0 1 7.133 5.304c.432.479 1.137-.23.707-.707"/>
        <path fill="#1D1E1B" d="M283.53 82.397a17.515 17.515 0 0 0 8.104-7.988c.287-.574-.575-1.08-.864-.505a16.64 16.64 0 0 1-7.745 7.63c-.579.28-.073 1.141.505.863M290.483 72.498c-.323-1.621-1.245-2.984-2.586-3.938-.526-.374-1.026.494-.505.864 1.132.803 1.857 1.985 2.127 3.34.125.63 1.09.364.964-.266"/>
        <path fill="#1D1E1B" d="M290.933 75.419c2.894-.467 5.375 1.705 8.278 1.343 2.075-.26 3.726-1.5 4.825-3.233.344-.545-.52-1.047-.865-.505-1.832 2.895-4.755 3.115-7.767 2.1-1.627-.547-3.02-.946-4.738-.67-.632.103-.363 1.067.267.965"/>
        <path fill="#1D1E1B" d="M301.62 75.51c1.093 3.97 4.04 6.733 7.469 8.821 3.641 2.217 6.974 3.915 11.03 1.721.565-.307.061-1.17-.505-.864-3.852 2.085-7.407-.016-10.717-2.155-2.929-1.892-5.366-4.353-6.313-7.789-.171-.62-1.135-.356-.964.266"/>
        <path fill="#1D1E1B" d="M319.888 84.421l-6.502-15.847c-.24-.587-1.209-.33-.964.267l6.502 15.848c.241.587 1.21.33.964-.267M282.205 62.56c2.471-2.058 4.701-3.502 8.041-2.73 2.273.526 4.525 1.384 6.716 2.177 4.746 1.72 9.345 3.79 13.807 6.147.569.301 1.075-.563.505-.864-5.333-2.816-10.868-5.219-16.589-7.13-2.283-.764-4.922-1.939-7.386-1.58-2.261.328-4.104 1.86-5.801 3.272-.495.412.216 1.116.707.707M271.904 70.529a44.511 44.511 0 0 0 9.014-6.68c.466-.446-.242-1.152-.707-.707a43.515 43.515 0 0 1-8.811 6.524c-.562.315-.058 1.179.504.863"/>
        <path fill="#1D1E1B" d="M273.356 78.086c-2.305-5.623-2.08-10.781-1.216-16.658.602-4.088-.464-7.818-2.19-11.515-.272-.583-1.135-.075-.864.505.966 2.068 1.83 4.313 2.166 6.586.4 2.715-.359 5.334-.703 8.006-.588 4.564.103 9.097 1.843 13.342.241.588 1.21.33.964-.266"/>
        <path fill="#1D1E1B" d="M270 50.297c.692-3.43 3.226-6.002 4.272-9.298 1.07-3.373.773-6.945.079-10.359-.128-.63-1.092-.364-.964.265.824 4.056.956 8.185-.974 11.962-1.225 2.396-2.834 4.477-3.376 7.165-.127.629.837.898.964.266"/>
        <path fill="#1D1E1B" d="M274.472 30.75c.18-2.732 1.869-4.824 2.907-7.261.978-2.295 1.137-4.815.848-7.278-.48-4.092-3.726-7.68-7.826-8.425-.63-.114-.9.85-.266.965 5.572 1.012 7.748 6.417 7.084 11.52-.493 3.793-3.494 6.622-3.747 10.48-.042.643.958.64 1 0M263.733 28.488c1.98-6.332 3.957-12.664 5.935-18.996.192-.615-.772-.879-.964-.266l-5.935 18.996c-.193.616.773.879.964.266M265.78 78.865c-3.393-3.49-2.02-8.532-2.96-12.854-.687-3.165-2.472-5.878-4.941-7.94-.491-.41-1.202.294-.707.707 3.836 3.202 4.898 7.165 5.094 12.014.13 3.23.453 6.359 2.807 8.78.449.463 1.156-.244.707-.707"/>
        <path fill="#1D1E1B" d="M260 60.14c-.947-3.616 1.266-7.458 1.17-11.183-.084-3.21-1.02-6.259-2.604-9.039-.319-.559-1.183-.055-.864.505 1.961 3.441 2.845 7.326 2.313 11.273-.404 3-1.779 5.658-.979 8.71.162.622 1.127.358.964-.266"/>
        <path fill="#1D1E1B" d="M259.794 42.318c-.873-3.303 2.925-6.093 3.65-9.218.595-2.562.233-5.256-.756-7.671-1.645-4.016-5.223-8.851-10.09-8.195-.634.085-.364 1.049.266.964 5.845-.788 10.099 7.879 9.858 12.708-.15 2.977-1.663 4.856-3.1 7.293-.853 1.447-1.226 2.743-.792 4.385.164.621 1.129.357.964-.266M268.051 49.784l-3.274.458c-.635.089-.365 1.053.266.964l3.274-.457c.634-.09.364-1.053-.266-.965"/>
        <path fill="#1D1E1B" d="M263.323 31.267c1.97.24 3.932.265 5.906.072.635-.06.641-1.062 0-1a26.936 26.936 0 0 1-5.906-.072c-.637-.078-.63.923 0 1M271.842 30.917a8.392 8.392 0 0 1-2.649.855c-.635.098-.365 1.062.265.965a9.24 9.24 0 0 0 2.888-.956c.572-.298.067-1.161-.504-.864M245.742 54.962c-.77-3.32.235-6.444 1.313-9.566.93-2.694 1.708-5.358 2.165-8.176.938-5.791 1.53-11.652 2.27-17.47.081-.637-.92-.631-1 0-.839 6.6-1.298 13.406-2.744 19.903-1.152 5.18-4.232 10.132-2.968 15.575.146.627 1.11.36.964-.266"/>
        <path fill="#1D1E1B" d="M250.316 29.125c.607-.056 1.233-.032 1.799-.297.73-.343 1.016-1.056 1.017-1.828.002-.644-.998-.645-1 0-.002 1.13-.953 1.046-1.816 1.125-.636.059-.642 1.06 0 1"/>
        <path fill="#1D1E1B" d="M253.292 19.93a17.073 17.073 0 0 0-1.16 7.07c.03.64 1.03.644 1 0a16.407 16.407 0 0 1 1.124-6.803c.234-.6-.732-.86-.964-.267M248.603 66.562c.427 2.925 2.321 5.02 4.121 7.234 2.408 2.967 3.156 6.1 4.195 9.682.18.617 1.144.355.964-.266-.84-2.896-1.37-5.918-3.135-8.422-1.939-2.75-4.669-4.992-5.18-8.494-.093-.634-1.057-.365-.965.266"/>
        <path fill="#1D1E1B" d="M256.858 83.252c.948 3.403 3.073 6.23 6.072 8.097.548.34 1.051-.524.505-.864-2.782-1.73-4.734-4.343-5.613-7.5-.172-.618-1.137-.354-.964.267M233.293 53.662c2.994-1.078 8.145.343 10.408 2.508 2.497 2.389 3.417 6.387 4.576 9.523.222.599 1.188.34.965-.265-1.297-3.507-2.349-8.07-5.45-10.5-2.597-2.036-7.588-3.374-10.765-2.23-.6.216-.342 1.183.266.964M232.864 56.052c.45 2.778 2.022 4.973 3.365 7.384 1.62 2.913 2.549 6.101 3.277 9.337 1.312 5.84 2.062 11.817 5.019 17.123.314.562 1.177.058.863-.505-3.046-5.467-3.688-11.68-5.1-17.676-.624-2.654-1.416-5.286-2.635-7.732-1.365-2.737-3.324-5.1-3.825-8.197-.102-.633-1.066-.365-.964.266M245.832 93.489c.219 3.818.797 7.584 1.797 11.278 1.057 3.902 2.74 7.518 4.108 11.307 2.774 7.686 5.927 16.58 4.696 24.822-2.133 14.272-8.29 29.05-19.427 38.572-.49.419.22 1.125.707.708 11.1-9.49 17.122-23.954 19.536-38.104 1.382-8.104-1.15-15.888-3.626-23.552-1.304-4.036-3.148-7.865-4.416-11.912a54.224 54.224 0 0 1-2.375-13.12c-.037-.64-1.037-.643-1 0M285 178.115c2.535-4.727 4.913-9.45 6.501-14.588 1.566-5.064 2.82-10.247 6.09-14.54.39-.512-.479-1.011-.864-.505-2.984 3.918-4.333 8.578-5.723 13.23-1.676 5.613-4.105 10.748-6.867 15.898-.304.567.558 1.073.863.505M305.472 132.613a10.354 10.354 0 0 0-4.984-6.814c-.558-.324-1.062.541-.505.863 2.354 1.359 3.95 3.563 4.525 6.217.136.629 1.1.362.964-.266M307.135 127.676l-1.06-1.575c-.357-.532-1.223-.032-.863.504l1.059 1.576c.358.531 1.224.031.864-.505M309.88 125.718c-.38-.938-1.102-1.625-2.084-1.902-.62-.175-.886.79-.267.965.621.174 1.141.598 1.387 1.203.24.588 1.207.331.964-.266M308.735 100.341c1.645 2.944 3.483 6.01 6.702 7.41.585.255 1.094-.606.505-.863-3.07-1.337-4.776-4.247-6.343-7.05-.314-.563-1.178-.058-.864.504M312.645 86.54c1.515 3.64 4.935 6.024 8.893 6.112.644.015.644-.985 0-1-3.467-.076-6.59-2.162-7.93-5.378-.242-.586-1.21-.33-.963.266M301.782 69.607l-1.756 2.227c-.395.5.308 1.211.707.707l1.757-2.227c.394-.5-.309-1.212-.708-.707M314.377 75.103c-1.286.334-1.806 1.624-1.454 2.855.244.854.846 1.513 1.379 2.198a22.345 22.345 0 0 1 2.324 3.697c.29.574 1.152.068.863-.505a22.028 22.028 0 0 0-1.89-3.127c-.584-.798-3.215-3.567-.956-4.154.622-.16.358-1.126-.266-.964M254.56 58.057l-2.253 1.57c-.525.364-.025 1.231.504.863l2.255-1.57c.524-.365.025-1.232-.505-.863M255.14 41.933a9.68 9.68 0 0 0-3.186.39c-.615.181-.353 1.146.267.964a8.816 8.816 0 0 1 2.92-.354c.643.028.642-.972 0-1"/>
        <path fill="#1D1E1B" d="M248.306 66.238c-1.199 1.448-2.69 2.577-4.435 3.288-.588.239-.33 1.207.266.964 1.908-.777 3.56-1.955 4.876-3.545.407-.492-.296-1.203-.707-.707M249.437 69.06a5.044 5.044 0 0 0-2.2 2.16c-.3.57.562 1.075.863.505a4.14 4.14 0 0 1 1.841-1.802c.576-.289.07-1.152-.504-.864M255.683 84.296c-1.08 1.632-2.674 2.754-4.564 3.248-.622.162-.358 1.127.266.964a8.8 8.8 0 0 0 5.161-3.707c.357-.538-.509-1.04-.863-.505M256.4 87.3l-2.008 1.784c-.483.427.227 1.132.707.706l2.007-1.784c.482-.427-.228-1.133-.707-.707M262.954 97.687a69.946 69.946 0 0 1-6.613 4.354c-.558.324-.055 1.188.503.864a69.842 69.842 0 0 0 6.615-4.355c.51-.38.012-1.248-.505-.863M259.78 103.467a6.943 6.943 0 0 0-3.586 1.497c-.504.4.208 1.105.707.707a5.709 5.709 0 0 1 2.88-1.204c.63-.075.639-1.076 0-1M301.824 140.647c-.758-4.4-2.733-8.335-5.78-11.596-.442-.47-1.148.237-.709.707 2.94 3.144 4.795 6.916 5.525 11.155.11.632 1.073.365.964-.266M259.308 145.83a170.145 170.145 0 0 1-4.139 12.084c-.232.6.735.86.964.266a169.301 169.301 0 0 0 4.139-12.083c.186-.618-.778-.882-.964-.266M251.625 165.986a19.551 19.551 0 0 0-2.76 3.068c-.38.521.489 1.021.864.505a18.337 18.337 0 0 1 2.603-2.866c.48-.43-.23-1.135-.707-.707M291.533 147.495a30.063 30.063 0 0 0-5.964-9.985c-.43-.481-1.136.228-.707.707a28.742 28.742 0 0 1 5.707 9.544c.216.6 1.183.34.964-.266M259.983 113.093l-.422.737c-.32.56.543 1.064.863.504l.422-.736c.321-.56-.543-1.064-.863-.505M281.485 100.38c3.496 2.568 7.816 4.073 11.906 5.395 3.89 1.255 7.906 2.378 11.972 2.875.638.078.632-.923 0-1-3.97-.485-7.909-1.615-11.706-2.84-4.02-1.297-8.23-2.77-11.667-5.293-.519-.382-1.019.485-.505.863M281.774 106.055c5.005 4.413 10.959 8.1 17.569 9.426.628.126.897-.837.266-.964-6.438-1.292-12.252-4.869-17.128-9.169-.481-.424-1.191.28-.707.707"/>
        <g transform="translate(28 182.637)">
            <mask id="d" fill="#fff">
                <use xlink:href="#c"/>
            </mask>
            <path fill="#1D1E1B" d="M251.7.955a1091.07 1091.07 0 0 1-90.603 107.716c-33.788 35.263-68.54 69.642-102.883 104.366-18.24 18.441-36.721 36.81-57.791 52.052-.517.373-.018 1.24.505.863 18.399-13.31 34.865-28.993 50.876-45.037 17.296-17.332 34.44-34.817 51.65-52.233C137.61 134.12 172.19 99.978 203.762 62.995A1096.547 1096.547 0 0 0 252.564 1.46c.382-.52-.485-1.02-.863-.505" mask="url(#d)"/>
        </g>
        <g transform="translate(-5 178.637)">
            <mask id="f" fill="#fff">
                <use xlink:href="#e"/>
            </mask>
            <path fill="#1D1E1B" d="M1.006 213.667c13.41-16.443 30.54-29.09 46.868-42.424 16.969-13.855 31.862-29.59 46.794-45.564 7.65-8.186 15.386-16.31 23.616-23.92 8.432-7.8 17.433-14.94 26.634-21.806 17.537-13.086 35.795-25.279 52.238-39.77 7.955-7.01 15.287-14.708 23.44-21.495 7.169-5.966 15.21-10.87 22.117-17.15.477-.433-.232-1.139-.707-.707-5.857 5.324-12.594 9.557-18.791 14.454-7.4 5.848-14.05 12.482-20.938 18.902-16.358 15.246-34.746 27.922-52.738 41.115-8.838 6.48-17.576 13.115-25.865 20.291-8.477 7.34-16.39 15.291-24.105 23.42-15.117 15.922-29.65 32.384-46.456 46.591C35.055 180.87 15.357 194.496.299 212.96c-.403.495.3 1.206.707.707" mask="url(#f)"/>
        </g>
        <g transform="translate(68 374.637)">
            <mask id="h" fill="#fff">
                <use xlink:href="#g"/>
            </mask>
            <path fill="#1D1E1B" d="M1.473 9.544l8.667-8c.474-.438-.235-1.144-.708-.707l-8.666 8c-.474.437.234 1.143.707.707" mask="url(#h)"/>
        </g>
        <path fill="#1D1E1B" d="M84.865 380.913l36.554-32.792c.48-.431-.229-1.136-.707-.707l-36.554 32.792c-.48.43.23 1.136.707.707M220.398 205.432l-8.777 7.2c-.497.407.214 1.112.707.706l8.777-7.199c.498-.408-.213-1.112-.707-.707M157.114 251.048l6.63-4.06c.547-.335.045-1.2-.505-.863l-6.63 4.06c-.548.337-.046 1.202.505.863M236.364 4.89c-2.715 1.494-4.702 3.883-5.71 6.81-.21.61.755.871.964.265.925-2.682 2.768-4.845 5.251-6.212.563-.31.06-1.175-.505-.864M225.14 1.195a19.984 19.984 0 0 0-1.522 7.133c-.02.643.98.642 1 0a19.252 19.252 0 0 1 1.485-6.867c.246-.594-.72-.853-.964-.266M346.62 86.828v6c0 .643 1 .645 1 0v-6c0-.644-1-.645-1 0M354.687 90.203l-.5 3c-.105.63.858.9.964.266l.5-3c.105-.63-.858-.901-.964-.266M323.369 131.653l-3.206 7.411c-.253.584.608 1.095.863.505l3.207-7.411c.252-.584-.61-1.095-.864-.505M325.188 138.075a20.035 20.035 0 0 1-4.422 5.399c-.488.42.222 1.125.707.707a20.818 20.818 0 0 0 4.578-5.601c.316-.562-.548-1.067-.863-.505M238.706 123.445a44.554 44.554 0 0 1 .891 12.881c-.048.641.953.639 1 0 .332-4.44.018-8.8-.927-13.148-.137-.628-1.101-.362-.964.267M232.138 131.46a13.59 13.59 0 0 1 0 5.234c-.123.629.84.899.964.267a14.922 14.922 0 0 0 0-5.767c-.123-.63-1.087-.363-.964.267M129.384 248.423a42.995 42.995 0 0 0-9.631 8.04c-.427.478.277 1.188.707.707a42.094 42.094 0 0 1 9.428-7.885c.548-.335.046-1.2-.504-.862"/>
        <g transform="translate(42 162.637)">
            <mask id="j" fill="#fff">
                <use xlink:href="#i"/>
            </mask>
            <path fill="#F2F2F2" d="M307.856.326c-1.697-.23-3.508.294-5.067 1.948-.85.9-1.71 1.797-2.565 2.695-6.747 5.205-12.465 11.34-17.384 18.097-5.528 5.822-10.961 11.727-16.084 17.86-5.048 6.045-9.541 12.436-12.7 19.677-3.363 7.71-5.33 15.869-8.025 23.813-9.154 26.97-29.422 47.98-49.63 67.204-21.266 20.229-42.154 40.216-60.887 62.89-18.704 22.639-36.035 46.366-54.548 69.158a776.044 776.044 0 0 1-4.853 5.909c-6.22 5.799-12.845 11.163-19.286 16.722-9.338 8.059-17.515 16.992-25.651 26.234-8.101 9.2-16.425 18.265-27.058 24.574-7.19 4.266-.658 15.509 6.56 11.226a77.472 77.472 0 0 0 4.554-2.953 6.477 6.477 0 0 0 2.086-1.01c1.063-.76 2.11-1.535 3.159-2.31.493 1.19 1.316 2.226 2.56 2.896 2.519 1.354 4.775 1.246 7.3-.002a5.11 5.11 0 0 0 1.822-1.533c.444.333.925.608 1.433.815.684 3.954 4.715 7.36 9.07 4.97 1.468.4 3.102.256 4.689-.712a160.54 160.54 0 0 0 4.974-3.171c2.397 3.32 8.242 4.53 11.27.01 7.064-10.536 19.784-15.736 29.153-23.875 5.329-4.63 9.285-10.307 12.539-16.533 3.435-6.572 6.408-13.246 11.818-18.477 5.095-4.926 11.183-8.631 16.818-12.881 5.806-4.376 11.16-9.22 15.942-14.704 9.449-10.838 16.839-23.235 23.267-36.05 3.302-6.58 6.369-13.273 9.412-19.976 3.13-6.896 6.145-14.126 11.44-19.68 5.286-5.544 11.012-10.163 15.393-16.55 4.202-6.122 7.292-12.924 11.442-19.08 4.349-6.451 10.26-11.638 15.513-17.321a106.667 106.667 0 0 0 13.277-17.784c7.436-12.486 12.5-26.28 17.09-40.013 6.5-19.448 12.582-41.17 24.226-58.613l18.283-19.39a66.864 66.864 0 0 1 2.682-1.848C318.023 8.565 313.753-.6 307.856.326" mask="url(#j)"/>
        </g>
    </g>
</svg>
