<?xml version="1.0" encoding="UTF-8"?>
<svg width="119px" height="431px" viewBox="0 0 119 431" version="1.1" xmlns="http://www.w3.org/2000/svg" xmlns:xlink="http://www.w3.org/1999/xlink">
    <!-- Generator: Sketch 48.2 (47327) - http://www.bohemiancoding.com/sketch -->
    <title>Page 1</title>
    <desc>Created with Sketch.</desc>
    <defs>
        <rect id="path-1" x="0" y="0" width="135" height="433"></rect>
    </defs>
    <g id="Nudj-jobs" stroke="none" stroke-width="1" fill="none" fill-rule="evenodd" transform="translate(-661.000000, -450.000000)">
        <g id="Group" transform="translate(661.000000, 448.000000)">
            <g id="Page-1">
                <mask id="mask-2" fill="white">
                    <use xlink:href="#path-1"></use>
                </mask>
                <g id="Mask"></g>
                <g mask="url(#mask-2)">
                    <g transform="translate(0.000000, 2.000000)">
                        <path d="M116.9331,131.6798 C116.6011,130.6858 116.2401,129.6918 115.8641,128.6978 C115.9141,127.0248 115.8081,125.3678 115.4481,123.5878 C115.1331,122.0318 114.0901,119.8928 113.4361,118.4568 C113.7711,114.2598 111.3341,109.4698 106.4281,109.9808 C106.3481,109.9448 106.2701,109.9088 106.1751,109.8668 C105.6151,109.6138 105.0381,109.4198 104.4571,109.2748 C104.5161,108.4348 104.4861,107.5368 104.3841,106.6178 C104.4531,106.2178 104.4981,105.8098 104.4991,105.3898 C104.4991,105.2798 104.5001,105.1688 104.5001,105.0578 C104.5241,104.7798 104.5321,104.5098 104.5021,104.2648 C104.5411,103.2318 104.3261,102.2688 103.8561,101.3748 C103.5541,100.4458 103.0371,99.6408 102.3061,98.9618 C101.9431,98.5708 101.5411,98.2458 101.1071,97.9778 C99.3311,95.5878 96.9341,94.0308 94.1071,94.3728 C93.6801,94.2638 93.2481,94.2048 92.8341,94.2228 C91.4121,94.2868 89.9361,94.7538 88.9451,95.8338 C88.1081,96.7458 87.5371,97.8358 87.3821,99.0538 C86.1331,101.1038 85.3801,103.5468 84.6161,105.7338 C84.2351,105.4998 83.8091,105.3028 83.3591,105.1238 C83.2941,100.5048 83.1411,95.8848 83.9041,91.3178 C84.5001,87.7468 84.7651,84.3648 84.7041,80.9438 C85.7731,70.0968 86.4011,59.2198 86.5971,48.3228 C86.7391,47.1918 86.8481,46.0578 86.9271,44.9198 C87.0831,44.3968 87.1691,43.8178 87.1631,43.1788 C87.1331,39.9068 87.6931,35.6908 85.9951,32.6508 C85.9741,32.4718 85.9681,32.2928 85.9331,32.1128 C85.8981,31.9408 85.8641,31.7678 85.8301,31.5958 C85.4581,29.7258 83.7331,28.2748 81.9881,27.7548 L81.4831,27.6038 C78.2771,26.6478 75.9381,28.5048 75.0721,30.9448 C74.4981,31.7168 74.0961,32.6308 73.9271,33.6848 C73.8291,34.2938 73.8211,34.8678 73.8681,35.4148 C73.8571,35.4798 73.8541,35.5458 73.8441,35.6118 C72.3321,42.8958 70.9911,50.2118 69.6811,57.5358 C68.4401,64.4688 66.9051,71.4458 66.5801,78.4988 C65.9871,83.4558 66.5291,88.6438 66.3291,93.5658 C66.2071,96.5698 66.0711,99.6898 65.3581,102.6278 C65.2251,102.6238 65.0981,102.6138 64.9621,102.6158 C63.3051,102.6478 61.6521,102.9258 60.3661,101.8568 C58.7981,100.5548 57.5621,97.5128 56.6131,95.7588 C54.2451,91.3828 52.5551,86.8008 51.2481,82.0058 C50.8001,80.3588 49.9761,79.1298 48.9411,78.2708 C48.9011,77.9768 48.8491,77.6788 48.7651,77.3698 C48.2461,75.5428 47.7561,73.5588 47.2071,71.5648 C47.1701,71.3758 47.1251,71.1838 47.0681,70.9878 C44.7321,63.0708 44.6341,54.9728 42.9081,46.9348 C42.7231,46.0738 42.3961,45.3648 41.9691,44.7968 C41.9301,44.5698 41.8921,44.3428 41.8511,44.1158 C41.7041,43.2888 41.4221,42.6068 41.0471,42.0498 C39.2741,36.8928 30.3061,37.4978 30.3511,43.9038 C30.4091,52.0728 29.3101,61.4938 32.0231,69.3888 C31.9051,73.2328 32.0511,77.0678 32.4731,80.9098 C32.5851,81.9268 32.8781,82.8978 33.3341,83.7518 C33.8181,88.8288 35.0121,93.7818 37.0071,98.5288 C37.0321,98.5888 37.0611,98.6458 37.0871,98.7048 C38.9521,105.9988 40.5411,113.3568 41.8451,120.7798 C41.4271,128.0888 41.7591,135.5458 43.1261,142.6428 C43.7301,145.7738 44.3021,148.8888 44.8321,152.0048 C44.5931,152.5668 44.4331,153.1958 44.3811,153.8978 C43.9251,160.0498 46.2521,165.7178 46.8311,171.7638 C47.4001,177.6978 46.4791,183.1188 48.5271,188.8758 C50.5601,194.5908 52.1831,200.1438 52.6821,206.2298 C53.1601,212.0798 52.1631,218.1208 52.7801,223.9008 C52.8761,224.8058 53.1161,225.6798 53.4741,226.4818 C53.7911,233.8378 53.8971,241.1708 53.1621,248.5268 C52.2851,257.2948 51.7321,265.8688 51.9591,274.6928 C52.4381,293.3258 53.5611,311.9518 55.0251,330.5318 C55.0561,330.9268 55.1361,331.3228 55.2411,331.7138 C55.2201,344.9778 55.2941,358.2418 55.4801,371.5048 C55.5671,377.7018 55.6001,383.9088 55.8541,390.1018 C55.9741,393.0268 55.8051,396.8938 56.4561,400.3018 C56.3201,400.9478 56.2841,401.6438 56.3881,402.3878 C57.2821,408.7878 57.4471,415.3048 56.9691,421.7458 C56.4851,428.2788 54.7501,434.6008 54.1421,441.1108 C53.9061,443.6408 53.7701,446.1938 53.7021,448.7588 C52.2871,459.1128 50.8581,469.4848 50.5811,479.9458 C50.5781,480.0638 50.5741,480.1818 50.5711,480.3008 C50.2661,482.7598 50.1071,485.1348 49.8471,486.9808 C49.4451,489.8408 49.1001,492.7038 48.8091,495.5708 C48.2681,498.3258 47.7561,501.0858 47.3511,503.8568 C46.3341,510.8108 46.4451,517.8808 46.2791,524.8918 C45.9191,540.0418 45.9361,554.9478 42.2091,569.7348 C41.7511,571.5508 42.1611,573.0878 43.0361,574.2438 C42.9791,577.6448 43.4121,580.9178 43.6751,584.4568 C43.7371,585.2928 43.7661,586.1278 43.7791,586.9628 C43.7141,587.9058 43.6521,588.8368 43.6111,589.7318 C43.5011,592.1098 43.3401,594.4828 43.1531,596.8538 C43.0201,597.9708 42.8781,599.0858 42.7331,600.2008 C42.6651,600.7238 42.6711,601.2018 42.7271,601.6458 C42.5381,603.5508 42.3351,605.4548 42.1051,607.3568 C42.0461,607.8488 42.0501,608.3038 42.1001,608.7258 C41.5481,611.8608 40.9151,614.9948 40.2861,618.1878 C39.0171,624.6308 40.8851,632.8668 37.9631,638.7588 C37.1661,640.3648 37.1871,641.9218 37.7081,643.2478 C38.2441,646.1198 40.7811,648.7038 44.4461,647.7948 C46.9691,647.1698 49.6331,646.3578 52.2491,646.8058 C54.7541,647.2358 56.7051,648.8348 58.8951,650.0138 C63.4981,652.4928 68.2561,653.3168 73.4291,652.5398 C78.4511,651.7868 83.0581,649.6618 87.8291,648.0298 C93.4561,646.1048 99.2051,644.6628 105.0491,643.5718 C108.2401,642.9758 109.3411,640.4178 108.9321,637.9508 C112.0151,631.3418 113.2191,624.6488 113.4981,617.2908 C113.7821,609.8348 113.9591,602.3868 113.2521,594.9618 C113.5121,589.1178 112.8411,583.2168 112.4581,577.4008 L111.6071,564.4898 C112.0021,557.1858 112.1171,549.9478 111.2921,542.5848 C111.2661,542.3518 111.2071,542.1348 111.1551,541.9138 C111.2581,531.5808 111.4131,521.2448 111.4271,510.9108 C111.4331,506.0508 110.2201,501.4718 109.8891,496.6578 C109.5081,491.1308 110.1881,485.5958 110.8451,480.1158 C111.0471,478.4288 110.5591,477.1548 109.6971,476.2838 C109.9081,471.9448 110.0191,467.6038 110.0111,463.2578 C110.4941,458.1718 110.4671,452.9388 110.5351,447.8568 C111.3711,445.9388 111.5591,443.4808 111.6571,440.4358 C112.1091,426.2778 111.6131,412.1198 110.2961,398.0188 C110.6391,396.0678 110.5311,393.9258 110.9381,391.8018 C111.1661,390.6118 111.0351,389.5428 110.6651,388.6178 C111.0521,381.5788 110.0841,374.5868 109.6931,367.5408 C109.2511,359.5978 109.2621,351.6408 109.2001,343.6888 C109.1371,335.7568 109.0221,327.8108 108.3001,319.9058 C107.5681,311.8848 105.2891,303.8908 105.1131,295.8578 C105.1001,295.2868 105.0121,294.7668 104.8731,294.2888 C104.9591,293.9598 105.0281,293.6188 105.0591,293.2518 C106.3281,278.5048 107.3521,262.7838 105.4461,247.9428 C105.5321,242.1268 105.1271,236.2038 104.5861,230.3378 C104.5951,229.1318 104.5651,227.9498 104.5481,226.8638 C104.5371,226.0888 104.3441,225.3848 104.0431,224.7458 C104.0161,224.4768 103.9881,224.2078 103.9611,223.9388 C104.4281,218.4768 104.8951,213.0158 105.3631,207.5548 C106.3561,204.7628 107.2081,201.9298 107.9121,199.0448 C108.0241,198.5858 108.0781,198.1468 108.0871,197.7248 C108.8851,195.5028 109.6501,193.2688 110.3711,191.0178 C110.9251,190.3538 111.3801,189.5828 111.6711,188.6798 C113.4921,183.0388 115.8571,177.3148 116.9331,171.4738 C118.1281,164.9918 117.7961,158.1788 117.9601,151.6148 C118.1241,145.0578 119.0431,138.0118 116.9331,131.6798" id="Fill-1" fill="#7F5C4F"></path>
                        <path d="M88.6694,137.6779 C87.1274,137.5929 86.5204,138.9949 86.8274,140.1639 C86.4814,140.9699 86.1804,141.7919 85.9854,142.6509 C85.7444,143.7169 85.4044,145.0439 85.9744,146.0579 C86.5654,147.1109 87.6434,147.2339 88.7384,147.2249 C89.8664,147.2159 91.1064,147.3529 92.1014,146.7209 C93.1414,146.0599 93.3644,144.7689 93.6484,143.6649 C93.9224,142.5959 94.3764,141.3739 94.3664,140.2629 C94.3434,137.3789 90.6364,137.7869 88.6694,137.6779" id="Fill-3" fill="#FFFFFF"></path>
                        <path d="M97.5771,113.5607 C97.5291,113.3797 97.4671,113.2037 97.3721,113.0367 C96.8921,112.1957 96.1941,111.8917 95.4671,111.9237 C92.0611,110.2157 88.2171,111.5837 85.9091,114.8987 C84.5171,116.8977 83.7911,118.5707 85.2541,120.7607 C86.3701,122.4307 88.3331,123.7987 90.3801,124.0007 C91.2371,124.5107 92.4091,124.3417 93.0501,123.3417 C94.2441,122.4497 94.9041,120.8527 95.5711,119.4307 C96.0601,118.3887 97.0821,116.8497 97.4921,115.3837 C97.8241,114.8267 97.9091,114.1487 97.5771,113.5607" id="Fill-5" fill="#FFFFFF"></path>
                        <path d="M41.4829,123.0905 C41.0669,121.4235 41.3399,119.5035 41.1709,117.7815 C40.9969,116.0005 40.6629,114.2395 40.3149,112.4805 C39.5759,108.7475 38.8699,104.9735 37.6109,101.3685 C36.5359,98.2905 35.4679,95.2365 34.4759,92.1235 C33.9529,90.4855 33.4329,88.5965 33.3729,86.8685 C33.2869,84.4045 35.7239,83.1405 37.8009,82.5385 C38.4179,82.3605 38.1549,81.3945 37.5349,81.5745 C35.2499,82.2365 32.1569,83.1205 32.1979,85.9445 C32.2599,90.1195 34.3839,93.9395 35.2979,97.8995 C36.1999,101.8125 38.0359,105.4695 38.7339,109.4775 C39.2159,112.2395 39.9109,114.9865 40.1709,117.7815 C40.3429,119.6155 40.0739,121.5755 40.5189,123.3565 C40.6749,123.9805 41.6389,123.7155 41.4829,123.0905" id="Fill-7" fill="#1D1E1B"></path>
                        <path d="M32.3344,85.0568 C32.3374,85.0938 32.3394,85.1298 32.3424,85.1658 C32.6704,85.1218 32.9974,85.0778 33.3254,85.0338 C31.9274,81.6218 32.1594,77.7568 32.1674,74.1338 C32.1714,72.0758 32.3174,69.9808 32.0884,67.9318 C32.0234,67.3518 31.8944,66.7958 31.8014,66.2228 C31.4954,64.3458 31.4884,63.6578 33.2534,62.4888 C33.7874,62.1348 33.2874,61.2678 32.7484,61.6248 C31.6304,62.3658 30.6234,62.8068 30.5014,64.2238 C30.4164,65.2028 30.8254,66.2528 30.9814,67.1998 C31.2394,68.7578 31.2024,70.3348 31.1824,71.9068 C31.1274,76.3058 30.6554,81.1348 32.3604,85.2998 C32.5544,85.7708 33.3914,85.7828 33.3424,85.1658 C33.3394,85.1298 33.3374,85.0938 33.3344,85.0568 C33.2844,84.4188 32.2834,84.4138 32.3344,85.0568" id="Fill-9" fill="#1D1E1B"></path>
                        <path d="M31.3164,63.257 C30.7304,59.515 30.1294,55.774 30.2364,51.966 C30.3214,48.977 30.6424,45.347 31.5034,42.495 C31.8834,41.239 32.2874,40.272 33.5654,39.729 C34.7014,39.245 36.5154,38.982 37.7104,39.367 C40.0624,40.126 41.2374,43.437 42.1094,45.475 C43.6254,49.019 44.2554,52.965 44.4884,56.793 C44.7004,60.265 45.4884,63.702 46.0744,67.124 C46.6324,70.375 47.3564,73.709 48.3944,76.844 C49.3234,79.652 49.9264,82.547 51.2444,85.24 C52.7444,88.307 53.0814,91.696 54.3714,94.823 C55.4464,97.431 56.9664,102.103 60.0864,102.854 C61.4644,103.186 62.9114,103.225 64.3254,103.223 C66.2034,103.221 67.8264,102.35 69.6674,102.223 C70.3064,102.179 70.3114,101.179 69.6674,101.223 C68.0544,101.335 66.5634,102.139 64.9324,102.244 C63.1644,102.358 60.3194,102.151 58.8664,101.024 C57.2574,99.777 56.4414,96.98 55.6444,95.19 C54.8754,93.464 54.3384,91.461 53.8774,89.617 C52.9314,85.84 50.8584,82.508 49.9234,78.735 C49.0514,75.214 47.9424,71.718 47.2904,68.133 C46.6464,64.591 45.9244,61.018 45.5484,57.446 C45.1494,53.652 44.9074,49.736 43.4744,46.147 C42.4404,43.554 41.1784,39.59 38.2954,38.522 C35.8834,37.628 32.3044,38.24 31.1454,40.652 C29.5394,43.995 29.5084,48.28 29.2244,51.918 C28.9234,55.78 29.7544,59.712 30.3524,63.523 C30.4514,64.157 31.4154,63.888 31.3164,63.257" id="Fill-11" fill="#1D1E1B"></path>
                        <path d="M64.7661,102.6423 C65.8841,100.8303 66.1581,99.1823 66.1671,97.0573 C66.1771,94.9753 66.5281,92.9483 66.5011,90.8613 C66.4721,88.5983 66.8621,86.3433 66.8921,84.0853 C66.9281,81.4203 65.6781,75.9763 69.4671,75.3723 C70.1011,75.2713 69.8321,74.3073 69.2011,74.4083 C67.6161,74.6613 66.0131,75.8443 65.6651,77.4973 C65.3971,78.7713 65.8431,80.3503 65.8461,81.6613 C65.8491,83.1833 65.8141,84.6113 65.7001,86.1253 C65.5111,88.6183 65.6751,91.1533 65.4001,93.6343 C65.0741,96.5793 65.5181,99.5193 63.9021,102.1383 C63.5631,102.6863 64.4281,103.1893 64.7661,102.6423" id="Fill-13" fill="#1D1E1B"></path>
                        <path d="M66.6499,77.5905 C66.2269,75.8405 67.2759,73.0505 67.6989,71.3015 C68.2259,69.1235 68.6809,66.9565 69.0689,64.7535 C69.4359,62.6715 69.9319,60.6165 70.3189,58.5345 C70.7169,56.3935 70.8459,53.1055 73.3009,52.2055 C73.8999,51.9865 73.6409,51.0195 73.0349,51.2415 C71.5859,51.7725 70.4569,53.2085 70.0349,54.6575 C69.2739,57.2745 68.9039,60.1815 68.3719,62.8525 C67.8039,65.6945 67.3619,68.5295 66.6579,71.3555 C66.1659,73.3325 65.1989,75.8405 65.6859,77.8565 C65.8369,78.4815 66.8009,78.2165 66.6499,77.5905" id="Fill-15" fill="#1D1E1B"></path>
                        <path d="M71.3344,54.2233 C71.4194,47.4493 72.3394,40.2343 73.8024,33.6143 C74.7034,29.5393 78.3434,26.5523 82.6404,27.9343 C86.7844,29.2673 86.8414,35.0573 87.0014,38.6773 C87.2924,45.3053 86.2674,51.8823 85.5384,58.4273 C85.0834,62.5123 85.2584,66.6873 85.3444,70.7693 C85.4244,74.5703 84.8614,78.4223 84.6674,82.2233 C84.6344,82.8663 85.6344,82.8653 85.6674,82.2233 C85.8384,78.8793 85.9724,75.5133 86.2134,72.1783 C86.4964,68.2813 86.2704,64.2743 86.4634,60.3413 C86.7614,54.3163 88.0014,48.3673 88.0014,42.3153 C88.0014,39.1413 87.8444,36.1223 87.3604,32.9833 C86.9604,30.3923 86.2124,28.4403 83.7314,27.2863 C81.3644,26.1843 78.6334,26.3523 76.4794,27.7853 C74.0684,29.3883 73.2484,31.3653 72.6884,34.1123 C71.3614,40.6143 70.4184,47.5773 70.3344,54.2233 C70.3264,54.8673 71.3264,54.8673 71.3344,54.2233" id="Fill-17" fill="#1D1E1B"></path>
                        <path d="M84.5346,85.0387 C84.9596,85.1257 82.6126,103.7007 82.6676,105.5567 C82.6866,106.1987 83.6866,106.2017 83.6676,105.5567 C83.5576,101.8827 84.1286,97.8257 84.6806,94.2037 C85.1546,91.0987 85.7066,87.7187 85.3056,84.5847 C85.2796,84.3757 85.1706,84.1507 84.9386,84.1027 C84.8926,84.0937 84.8466,84.0837 84.8006,84.0747 C84.1726,83.9447 83.9036,84.9087 84.5346,85.0387" id="Fill-19" fill="#1D1E1B"></path>
                        <path d="M54.5864,146.8219 C59.5664,144.4679 62.7384,139.1429 65.4954,134.6109 C66.3184,133.2579 67.0204,131.8449 67.7054,130.4189 C68.8074,128.1229 70.1514,126.9549 72.2284,125.4969 C73.5184,124.5909 74.8734,123.7559 76.1314,122.8209 C76.8114,122.3159 77.9194,121.0919 78.8344,121.0569 C79.4754,121.0319 79.4794,120.0319 78.8344,120.0569 C77.7304,120.0979 77.2054,120.6379 76.2954,121.3239 C74.9864,122.3119 73.6494,123.2369 72.3134,124.2079 C71.1234,125.0729 69.7314,125.7769 68.7154,126.8589 C67.8174,127.8139 67.2994,128.9909 66.7404,130.1529 C65.2994,133.1479 63.6314,136.0579 61.5784,138.6659 C59.3564,141.4889 57.4294,144.3759 54.0824,145.9579 C53.5004,146.2329 54.0074,147.0949 54.5864,146.8219" id="Fill-21" fill="#1D1E1B"></path>
                        <path d="M80.3545,119.2433 C82.6425,116.5783 85.1795,113.9773 87.7985,111.6483 C88.9225,110.6483 90.1085,109.6463 91.4485,108.9363 C93.4395,107.8813 95.7505,108.6573 97.6065,109.7543 C101.1855,111.8703 101.9165,117.1253 101.1075,120.8463 C100.4495,123.8743 98.3615,126.3503 97.5195,129.2573 C97.3395,129.8763 98.3035,130.1403 98.4825,129.5233 C99.0415,127.5983 100.4605,125.6683 101.2285,123.8083 C102.0585,121.7963 102.3895,119.8183 102.3185,117.6623 C102.2115,114.3743 101.1915,110.6413 98.1115,108.8913 C94.8535,107.0403 92.7695,106.9163 89.7155,108.8583 C85.9185,111.2713 82.5705,115.1313 79.6475,118.5363 C79.2305,119.0223 79.9345,119.7323 80.3545,119.2433" id="Fill-23" fill="#1D1E1B"></path>
                        <path d="M62.688,168.5768 C63.859,167.4688 65.493,166.9508 66.773,165.9778 C68.068,164.9938 69.55,163.7318 70.565,162.4808 C72.38,160.2418 73.192,157.2508 75.021,155.0768 C75.433,154.5878 74.729,153.8768 74.314,154.3698 C72.535,156.4858 71.678,159.3068 69.995,161.5378 C68.966,162.9008 67.404,164.2448 66.023,165.2628 C64.721,166.2218 63.16,166.7538 61.981,167.8698 C61.512,168.3128 62.22,169.0188 62.688,168.5768" id="Fill-25" fill="#1D1E1B"></path>
                        <path d="M69.521,169.4103 C71.504,167.8473 73.21,165.4413 74.602,163.3493 C75.332,162.2523 75.759,161.0173 76.257,159.8053 C76.886,158.2733 77.113,156.1923 77.933,154.8083 C78.261,154.2543 77.397,153.7503 77.069,154.3043 C76.553,155.1773 76.49,156.3143 76.185,157.2703 C75.658,158.9163 74.965,160.7403 74.124,162.2403 C72.874,164.4693 70.817,167.1243 68.814,168.7033 C68.309,169.1013 69.021,169.8043 69.521,169.4103" id="Fill-27" fill="#1D1E1B"></path>
                        <path d="M79.1674,151.8898 C78.7404,148.3898 80.9344,145.9848 83.0814,143.4928 C84.4004,141.9608 85.9174,140.2118 87.4394,138.8908 C90.8144,135.9628 94.2944,133.4778 96.9324,129.8088 C97.3094,129.2858 96.4414,128.7858 96.0694,129.3048 C94.2794,131.7938 92.0844,133.9018 89.6804,135.8328 C88.1994,137.0218 86.4974,138.1178 85.2664,139.5878 C82.2674,143.1678 77.5324,146.6938 78.1674,151.8898 C78.2444,152.5208 79.2454,152.5288 79.1674,151.8898" id="Fill-29" fill="#1D1E1B"></path>
                        <path d="M83.4155,119.6549 C83.7465,119.8349 83.8225,120.7179 84.0565,121.0769 C84.5065,121.7649 85.2675,122.1299 85.9065,122.6029 C86.6295,123.1379 87.0345,123.9829 87.8705,124.3669 C88.7085,124.7519 89.6475,125.0999 90.5345,125.3719 C91.1515,125.5609 91.4155,124.5959 90.8005,124.4079 C89.9845,124.1579 88.4775,123.6869 87.8375,123.1619 C87.2535,122.6829 86.8995,122.0739 86.2515,121.6329 C85.3705,121.0329 85.0115,120.7029 84.5825,119.7469 C84.4065,119.3529 84.3175,119.0069 83.9195,118.7919 C83.3535,118.4849 82.8485,119.3479 83.4155,119.6549" id="Fill-31" fill="#1D1E1B"></path>
                        <path d="M84.8164,117.3561 C85.1494,116.1751 86.7714,114.9221 87.6304,114.1791 C88.7844,113.1801 90.7194,111.3891 92.3344,111.2231 C92.9684,111.1581 92.9754,110.1571 92.3344,110.2231 C90.5004,110.4121 88.7154,111.9661 87.3494,113.1081 C86.1814,114.0831 84.2894,115.5421 83.8524,117.0901 C83.6774,117.7101 84.6414,117.9761 84.8164,117.3561" id="Fill-33" fill="#1D1E1B"></path>
                        <path d="M91.5009,124.7233 C91.5079,124.8173 91.5149,124.9113 91.5219,125.0053 C91.5559,125.4543 92.0369,125.6433 92.3759,125.3593 C95.6649,122.6063 98.1129,117.1783 98.8079,113.0153 C98.8459,112.7883 98.7819,112.5743 98.5779,112.4503 C97.1089,111.5533 95.5509,110.7553 93.8339,110.5563 C93.1959,110.4833 93.2019,111.4833 93.8339,111.5563 C93.8099,111.5543 97.4849,112.5773 97.7569,113.0693 C97.9949,113.4983 96.8459,116.1933 96.6749,116.6503 C95.6599,119.3593 93.9329,122.7573 91.6689,124.6523 C91.9529,124.7703 92.2379,124.8883 92.5219,125.0053 C92.5149,124.9113 92.5079,124.8173 92.5009,124.7233 C92.4529,124.0853 91.4519,124.0803 91.5009,124.7233" id="Fill-35" fill="#1D1E1B"></path>
                        <path d="M71.019,127.757 C70.501,129.221 72.02,131.258 72.799,132.339 C73.691,133.578 75.16,135.424 76.701,135.872 C77.32,136.052 77.585,135.088 76.967,134.908 C75.769,134.56 74.477,132.913 73.771,131.972 C73.116,131.099 71.565,129.207 71.983,128.023 C72.198,127.415 71.232,127.153 71.019,127.757" id="Fill-37" fill="#1D1E1B"></path>
                        <path d="M74.3139,129.9103 C74.9819,130.5843 75.4859,131.3963 76.1469,132.0773 C76.5969,132.5393 77.3029,131.8313 76.8549,131.3693 C76.1929,130.6893 75.6889,129.8773 75.0209,129.2033 C74.5679,128.7443 73.8609,129.4523 74.3139,129.9103" id="Fill-39" fill="#1D1E1B"></path>
                        <path d="M75.582,125.9884 C78.304,127.9124 80.111,130.9354 81.352,134.0234 C81.589,134.6124 82.557,134.3554 82.316,133.7574 C80.967,130.4004 79.039,127.2124 76.086,125.1244 C75.56,124.7524 75.06,125.6194 75.582,125.9884" id="Fill-41" fill="#1D1E1B"></path>
                        <path d="M82.6499,115.0231 C82.9639,113.1661 83.5099,111.2941 83.9479,109.4521 C84.3799,107.6331 84.5959,105.6751 85.1869,103.8981 C85.7379,102.2401 86.8169,100.7781 87.4699,99.1521 C88.2059,97.3221 88.5459,95.9331 90.4839,94.9541 C94.1109,93.1231 98.9619,96.0061 101.5879,98.5121 C100.9849,97.9371 103.2829,100.3541 103.4379,100.5761 C104.4729,102.0611 104.5449,103.6541 104.6379,105.3981 C104.7239,107.0061 104.3749,108.5881 104.5289,110.1951 C104.5489,110.4041 104.6699,110.6301 104.8969,110.6771 C104.9419,110.6871 104.9889,110.6961 105.0349,110.7051 C105.6629,110.8351 105.9319,109.8711 105.3009,109.7411 C105.7289,109.8291 105.5019,103.8841 105.4479,103.2961 C105.2719,101.3971 104.5439,100.1951 103.2739,98.7671 C100.8479,96.0371 96.5199,93.2521 92.7349,93.3951 C90.9629,93.4611 89.5329,94.1261 88.2649,95.3781 C86.9219,96.7041 86.6439,98.6281 85.8399,100.3041 C83.6969,104.7731 82.5169,109.8481 81.6859,114.7571 C81.5789,115.3861 82.5429,115.6571 82.6499,115.0231" id="Fill-43" fill="#1D1E1B"></path>
                        <path d="M101.3545,112.7433 C102.0865,111.8103 103.4935,111.2203 104.6185,110.9123 C106.4735,110.4043 107.8725,111.2913 109.4115,112.1523 C110.4025,112.7063 111.3795,113.0253 112.0905,113.9383 C112.9115,114.9933 112.8925,116.2273 113.1595,117.4953 C113.4605,118.9233 113.5725,120.4233 114.0235,121.8123 C115.0745,125.0443 116.0505,127.4173 115.6675,130.8893 C115.5975,131.5283 116.5975,131.5233 116.6675,130.8893 C116.8615,129.1353 116.9895,127.6033 116.5265,125.9003 C116.0615,124.1883 115.2125,122.5433 114.8185,120.8203 C114.3105,118.5973 114.5345,115.3283 113.2125,113.4123 C112.5175,112.4053 111.2725,112.0343 110.2325,111.4723 C109.1275,110.8743 108.0625,110.0443 106.8065,109.7773 C104.8555,109.3613 101.8755,110.4723 100.6475,112.0363 C100.2545,112.5373 100.9575,113.2493 101.3545,112.7433" id="Fill-45" fill="#1D1E1B"></path>
                        <path d="M86.519,138.757 C86.264,140.478 85.677,142.243 85.269,143.94 C85.067,144.78 84.569,146.397 85.336,147.086 C85.568,147.295 86.332,147.426 86.599,147.527 C87.256,147.775 87.834,147.826 88.523,147.891 C89.812,148.011 90.742,148.158 91.92,147.655 C92.51,147.403 92.001,146.541 91.415,146.792 C90.267,147.282 86.53,147.163 85.988,145.966 C85.606,145.124 86.613,142.884 86.802,141.952 C86.998,140.985 87.341,139.984 87.483,139.023 C87.576,138.393 86.613,138.122 86.519,138.757" id="Fill-47" fill="#1D1E1B"></path>
                        <path d="M93.1674,145.8898 C93.1894,145.1818 93.6504,144.3938 93.8724,143.7318 C94.1894,142.7858 94.5074,141.8268 94.7414,140.8558 C94.9124,140.1408 95.3914,138.8878 94.8784,138.2288 C94.3904,137.6028 93.0454,137.4428 92.3224,137.2458 C91.2514,136.9538 90.0374,136.7808 89.0824,137.4578 C88.5614,137.8278 89.0604,138.6948 89.5864,138.3218 C90.5274,137.6548 91.6994,138.1178 92.6934,138.4098 C92.9774,138.4938 93.8524,138.5888 94.0114,138.8128 C94.1824,139.0548 93.9734,139.6258 93.9254,139.8768 C93.6904,141.0988 93.3034,142.2878 92.9084,143.4658 C92.6434,144.2548 92.1934,145.0498 92.1674,145.8898 C92.1474,146.5338 93.1474,146.5328 93.1674,145.8898" id="Fill-49" fill="#1D1E1B"></path>
                        <path d="M85.7011,148.7052 C88.0241,149.2492 90.5001,150.1022 92.9141,149.3522 C95.2491,148.6262 97.3951,146.0542 98.8181,144.2142 C100.5061,142.0322 101.6491,139.1342 102.7391,136.6002 C103.1771,135.5822 104.0471,134.2362 104.1591,133.0782 C104.2821,131.8302 103.5121,131.8192 103.3161,130.7572 C103.2001,130.1252 102.2361,130.3932 102.3521,131.0232 C102.5191,131.9282 102.8421,131.8562 102.7601,133.0502 C102.6821,134.1682 102.3241,134.9642 101.9071,135.9822 C100.8561,138.5422 99.5751,141.6522 97.8371,143.8052 C96.7731,145.1252 95.1871,146.9852 93.7181,147.8572 C91.2951,149.2952 88.4491,148.3222 85.9671,147.7412 C85.3411,147.5942 85.0741,148.5582 85.7011,148.7052" id="Fill-51" fill="#1D1E1B"></path>
                        <path d="M104.021,133.2433 C105.492,131.6633 107.061,130.2233 108.487,128.6033 C109.229,127.7613 109.889,126.9033 110.695,126.1163 C110.764,126.0483 112.195,124.2913 111.801,124.3723 C112.431,124.2433 112.164,123.2793 111.535,123.4083 C111.488,123.4173 111.442,123.4273 111.396,123.4363 C111.231,123.4703 111.086,123.6263 111.047,123.7853 C110.75,124.9753 109.688,125.5853 108.924,126.4603 C108.317,127.1563 107.744,127.8723 107.134,128.5653 C105.922,129.9433 104.57,131.1863 103.314,132.5363 C102.876,133.0073 103.582,133.7163 104.021,133.2433" id="Fill-53" fill="#1D1E1B"></path>
                        <path d="M104.521,132.9103 C105.554,131.9113 107.521,133.2203 108.606,133.5723 C109.909,133.9953 110.857,133.9503 112.167,133.8893 C112.809,133.8603 112.812,132.8603 112.167,132.8893 C111.198,132.9343 110.332,133.0263 109.366,132.7583 C108.365,132.4803 107.446,131.9623 106.448,131.6893 C105.523,131.4363 104.526,131.5153 103.814,132.2033 C103.351,132.6513 104.058,133.3573 104.521,132.9103" id="Fill-55" fill="#1D1E1B"></path>
                        <path d="M98.1499,145.3561 C98.0829,145.6821 103.7299,147.5781 104.0389,147.6951 C106.1749,148.5061 108.0539,148.8731 110.3349,148.8901 C110.9779,148.8951 110.9789,147.8951 110.3349,147.8901 C107.5509,147.8701 105.3419,147.1071 102.7729,146.1531 C101.1809,145.5621 99.4289,144.4581 97.6959,144.5851 C97.4869,144.6001 97.2599,144.7291 97.2139,144.9521 C97.2049,144.9981 97.1949,145.0441 97.1859,145.0901 C97.0559,145.7181 98.0199,145.9871 98.1499,145.3561" id="Fill-57" fill="#1D1E1B"></path>
                        <path d="M93.2485,149.4884 C94.6025,150.4844 95.3475,152.1544 96.1575,153.5694 C96.9305,154.9194 97.2015,156.2914 98.3135,157.4104 C98.7685,157.8664 99.4765,157.1594 99.0205,156.7034 C98.3355,156.0134 98.0655,155.2694 97.6895,154.3894 C97.3285,153.5454 96.8215,152.7964 96.3895,151.9904 C95.7195,150.7384 94.9165,149.4814 93.7535,148.6244 C93.2345,148.2434 92.7355,149.1104 93.2485,149.4884" id="Fill-59" fill="#1D1E1B"></path>
                        <path d="M100.4023,160.3088 C103.1943,164.7998 107.8293,168.6618 108.3343,174.2238 C108.3923,174.8588 109.3923,174.8648 109.3343,174.2238 C108.8043,168.3918 104.1943,164.5158 101.2663,159.8048 C100.9263,159.2588 100.0613,159.7608 100.4023,160.3088" id="Fill-61" fill="#1D1E1B"></path>
                        <path d="M79.9023,153.6423 C80.6753,155.1843 80.9533,157.1123 81.6353,158.7313 C82.4653,160.6983 83.4123,162.6143 84.2543,164.5763 C85.8183,168.2193 86.4533,171.8073 87.0803,175.6993 C87.7893,180.1043 88.0303,184.3293 86.7413,188.6883 C85.4923,192.9143 83.6103,196.5423 81.0693,200.1383 C80.6973,200.6643 81.5643,201.1643 81.9323,200.6423 C86.9653,193.5223 90.0463,185.0183 88.2553,176.2433 C87.5013,172.5503 87.1263,168.8503 85.7373,165.3083 C84.9383,163.2673 83.8543,161.3063 82.9833,159.2883 C82.1303,157.3133 81.7113,155.0223 80.7663,153.1383 C80.4773,152.5623 79.6143,153.0683 79.9023,153.6423" id="Fill-63" fill="#1D1E1B"></path>
                        <path d="M62.6338,102.2414 C60.2088,101.8964 57.9238,102.9814 55.6788,103.9334 C53.0278,105.0574 49.9798,106.2704 47.8138,108.2034 C47.3328,108.6324 48.0418,109.3374 48.5208,108.9104 C50.3498,107.2784 52.8478,106.3404 55.0388,105.3094 C57.1338,104.3244 60.0128,102.8704 62.3678,103.2054 C62.9978,103.2954 63.2698,102.3314 62.6338,102.2414" id="Fill-65" fill="#1D1E1B"></path>
                        <path d="M44.5009,79.7233 C43.1559,79.7353 40.6029,79.7083 40.5009,81.5563 C40.4659,82.2003 41.4659,82.1983 41.5009,81.5563 C41.5539,80.5973 43.8529,80.7293 44.5009,80.7233 C45.1439,80.7173 45.1459,79.7173 44.5009,79.7233" id="Fill-67" fill="#1D1E1B"></path>
                        <path d="M41.8139,83.7033 C40.6439,84.7293 39.1479,85.2683 38.0369,86.3773 C37.0299,87.3813 36.3739,88.6143 35.8519,89.9233 C35.6139,90.5213 36.5809,90.7813 36.8159,90.1893 C37.3829,88.7663 38.1729,87.4433 39.4109,86.5053 C40.4129,85.7463 41.5699,85.2453 42.5209,84.4103 C43.0059,83.9853 42.2959,83.2803 41.8139,83.7033" id="Fill-69" fill="#1D1E1B"></path>
                        <path d="M40.6338,60.5744 C39.5328,60.4124 38.4468,60.5674 37.3528,60.7244 C36.4368,60.8554 35.5068,61.0484 34.8138,61.7034 C34.3458,62.1464 35.0538,62.8524 35.5208,62.4104 C36.0818,61.8794 36.9388,61.7824 37.6718,61.6824 C38.5618,61.5614 39.4718,61.4064 40.3678,61.5384 C40.9978,61.6314 41.2688,60.6684 40.6338,60.5744" id="Fill-71" fill="#1D1E1B"></path>
                        <path d="M39.4673,59.0387 C41.4633,58.6827 41.2513,54.8827 41.6503,53.5227 C41.8313,52.9037 40.8663,52.6397 40.6853,53.2567 C40.4163,54.1747 40.4023,55.1097 40.2283,56.0447 C40.1343,56.5437 39.8513,57.9587 39.2013,58.0747 C38.5693,58.1877 38.8373,59.1517 39.4673,59.0387" id="Fill-73" fill="#1D1E1B"></path>
                        <path d="M76.4155,52.8219 C76.9035,53.1289 77.3785,53.1679 77.9395,53.2229 C78.8305,53.3099 79.6075,53.6859 80.4815,53.8169 C81.8305,54.0179 82.5675,53.1909 83.3545,52.2429 C83.7635,51.7519 83.0595,51.0409 82.6475,51.5359 C82.1905,52.0859 81.7855,52.8109 80.9475,52.8579 C80.5045,52.8819 80.0295,52.6479 79.6225,52.5179 C78.7845,52.2499 77.6385,52.4099 76.9195,51.9579 C76.3735,51.6139 75.8715,52.4799 76.4155,52.8219" id="Fill-75" fill="#1D1E1B"></path>
                        <path d="M80.1338,74.9079 C77.8418,74.3399 75.2658,75.2239 73.0348,75.7409 C72.4078,75.8869 72.6738,76.8509 73.3008,76.7049 C75.2978,76.2429 77.8188,75.3639 79.8678,75.8719 C80.4928,76.0269 80.7588,75.0629 80.1338,74.9079" id="Fill-77" fill="#1D1E1B"></path>
                        <path d="M79.8344,77.3898 C77.4724,77.3768 73.2974,76.7058 71.4804,78.7028 C71.0484,79.1788 71.7534,79.8878 72.1884,79.4108 C73.7024,77.7448 77.8624,78.3788 79.8344,78.3898 C80.4784,78.3938 80.4784,77.3938 79.8344,77.3898" id="Fill-79" fill="#1D1E1B"></path>
                        <path d="M67.9155,99.3219 C69.8025,100.6919 71.3145,101.6949 73.5395,102.4219 C75.6745,103.1189 77.7585,103.2949 80.0005,103.2229 C80.6435,103.2029 80.6455,102.2029 80.0005,102.2229 C77.8765,102.2909 75.8225,102.1159 73.8055,101.4569 C71.6525,100.7539 70.2365,99.7779 68.4195,98.4579 C67.8985,98.0799 67.3985,98.9469 67.9155,99.3219" id="Fill-81" fill="#1D1E1B"></path>
                        <path d="M73.4829,123.1896 C74.0789,119.3586 75.0019,115.4436 76.4829,111.8566 C76.7289,111.2616 75.7609,111.0026 75.5189,111.5906 C74.0379,115.1776 73.1139,119.0926 72.5189,122.9236 C72.4209,123.5536 73.3839,123.8246 73.4829,123.1896" id="Fill-83" fill="#1D1E1B"></path>
                        <path d="M47.2661,159.8088 C48.1421,158.1608 48.4961,156.1748 49.1361,154.4228 C49.9691,152.1368 51.1581,150.3018 52.8541,148.5768 C53.3061,148.1178 52.5991,147.4098 52.1471,147.8698 C50.8891,149.1488 49.6611,150.4658 48.9771,152.1318 C48.0351,154.4288 47.5611,157.1258 46.4021,159.3048 C46.1001,159.8718 46.9631,160.3778 47.2661,159.8088" id="Fill-85" fill="#1D1E1B"></path>
                        <path d="M40.4023,125.9757 C41.2153,127.7207 40.7863,130.7647 40.8433,132.6527 C40.9403,135.8577 40.9643,138.8097 41.5193,141.9977 C42.0043,144.7887 42.7193,147.4947 43.0563,150.3147 C43.4203,153.3687 43.4373,156.4017 43.9693,159.4277 C45.1183,165.9487 46.4423,172.4057 46.3343,179.0607 C46.2843,182.1177 46.3303,185.2377 47.5023,188.1147 C48.8643,191.4597 50.2143,194.8557 51.0913,198.3937 C51.9533,201.8697 52.0633,205.4487 52.4463,208.9837 C52.8513,212.7267 53.3343,216.3687 52.3523,220.0907 C52.1883,220.7127 53.1523,220.9787 53.3163,220.3557 C54.0173,217.6997 54.2913,214.5717 53.9293,211.8437 C53.5503,208.9867 53.3353,206.0987 52.9113,203.2567 C52.3283,199.3597 51.4363,195.7337 50.1183,192.0077 C49.0463,188.9717 47.7333,186.1767 47.4863,182.9147 C46.9803,176.1987 47.1563,169.5477 45.7973,162.8897 C45.4543,161.2087 45.0273,159.5737 44.7553,157.8717 C44.4783,156.1397 44.5583,154.4337 44.3643,152.6967 C44.0293,149.6917 43.5173,146.8577 42.8913,143.9077 C42.4933,142.0307 41.9853,139.9717 41.8303,138.0607 C41.6973,136.4167 42.0323,134.7807 41.9423,133.1517 C41.8143,130.8457 42.2523,127.5867 41.2663,125.4707 C40.9943,124.8887 40.1323,125.3947 40.4023,125.9757" id="Fill-87" fill="#1D1E1B"></path>
                        <path d="M65.8545,203.4103 C67.9815,201.4103 71.5855,201.0503 74.3345,201.0563 C74.9785,201.0583 74.9795,200.0583 74.3345,200.0563 C71.2905,200.0503 67.4795,200.5113 65.1475,202.7033 C64.6775,203.1443 65.3855,203.8503 65.8545,203.4103" id="Fill-89" fill="#1D1E1B"></path>
                        <path d="M87.4829,203.3561 C87.4959,203.3071 87.5079,203.2581 87.5209,203.2091 C87.3159,203.3251 87.1109,203.4411 86.9059,203.5581 C88.5909,204.1971 90.0119,205.3261 91.6849,206.0241 C93.7189,206.8731 95.7059,207.1831 97.8679,207.5391 C98.4979,207.6421 98.7689,206.6791 98.1339,206.5741 C95.7619,206.1841 93.6359,205.8421 91.4249,204.8371 C89.9439,204.1651 88.6989,203.1731 87.1709,202.5941 C86.9219,202.4991 86.6189,202.7001 86.5569,202.9431 C86.5439,202.9921 86.5309,203.0411 86.5189,203.0901 C86.3589,203.7141 87.3239,203.9801 87.4829,203.3561" id="Fill-91" fill="#1D1E1B"></path>
                        <path d="M106.4829,205.8561 C106.9359,203.3631 108.3599,200.9131 109.0479,198.4421 C110.0259,194.9301 111.0609,191.6241 112.3779,188.2171 C113.6139,185.0171 114.4809,181.7371 115.1859,178.3931 C115.8719,175.1431 117.4609,172.1381 118.0659,168.8621 C118.6859,165.5121 117.9449,162.1451 118.2049,158.7651 C118.3989,156.2431 118.5159,153.6761 118.6529,151.1451 C118.8339,147.8401 118.8149,144.4481 118.8349,141.1401 C118.8519,138.2311 118.2969,135.4881 117.3159,132.7571 C117.1009,132.1561 116.1339,132.4151 116.3519,133.0231 C118.4539,138.8771 117.9409,145.4641 117.5459,151.5771 C117.3779,154.1781 117.2989,156.8121 117.1639,159.4081 C116.9769,163.0041 117.7479,166.5651 116.7569,170.0911 C115.9179,173.0751 114.6589,175.9071 114.0649,178.9581 C113.3719,182.5131 112.1589,185.9131 110.8329,189.2791 C109.6829,192.2011 108.9269,195.1621 108.0839,198.1771 C107.3939,200.6401 105.9719,203.0901 105.5189,205.5901 C105.4049,206.2191 106.3679,206.4891 106.4829,205.8561" id="Fill-93" fill="#1D1E1B"></path>
                        <path d="M54.1474,138.0768 C54.9124,138.7088 55.4654,139.5308 56.1474,140.2438 C56.4454,140.5558 56.7374,140.8898 57.0784,141.1548 C57.3134,141.3378 57.9304,141.5698 58.0194,141.8558 C58.2094,142.4688 59.1744,142.2068 58.9824,141.5908 C58.7454,140.8238 57.7964,140.4978 57.2634,139.9598 C56.4344,139.1238 55.7624,138.1208 54.8544,137.3698 C54.3624,136.9628 53.6504,137.6658 54.1474,138.0768" id="Fill-95" fill="#1D1E1B"></path>
                        <path d="M49.6474,126.2018 C52.2464,128.6808 54.6414,131.0508 56.6394,134.0558 C57.3324,135.0978 57.9314,136.1228 58.7644,137.0658 C59.3934,137.7768 60.0564,138.1908 60.8734,138.7798 C61.3964,139.1568 61.8964,138.2898 61.3784,137.9168 C59.2244,136.3638 58.0154,134.1868 56.4484,132.0348 C54.6364,129.5468 52.5804,127.6178 50.3544,125.4948 C49.8884,125.0508 49.1804,125.7568 49.6474,126.2018" id="Fill-97" fill="#1D1E1B"></path>
                        <path d="M63.269,135.3405 C63.262,135.3675 63.254,135.3955 63.248,135.4225 C63.526,135.3495 63.805,135.2755 64.083,135.2015 C62.562,133.9335 61.737,131.6625 60.848,129.9295 C59.696,127.6865 59.052,125.2835 58.058,122.9705 C57.804,122.3815 56.942,122.8905 57.194,123.4755 C58.307,126.0635 59.055,128.6165 60.343,131.1345 C61.176,132.7615 61.942,134.7145 63.376,135.9095 C63.654,136.1405 64.11,136.0785 64.212,135.6885 C64.219,135.6615 64.226,135.6335 64.233,135.6065 C64.395,134.9835 63.431,134.7165 63.269,135.3405" id="Fill-99" fill="#1D1E1B"></path>
                        <path d="M68.2509,126.8483 C68.1719,125.2373 67.8869,123.7623 68.1359,122.1403 C68.3619,120.6693 68.6319,119.3433 68.6259,117.8483 C68.6149,115.2363 67.8449,112.7073 67.1079,110.2153 C66.9259,109.5993 65.9609,109.8623 66.1439,110.4813 C66.9349,113.1593 67.7679,115.9093 67.6459,118.7263 C67.5879,120.0693 67.1779,121.3543 67.0419,122.6833 C66.8949,124.1043 67.1819,125.4373 67.2509,126.8483 C67.2819,127.4893 68.2829,127.4933 68.2509,126.8483" id="Fill-101" fill="#1D1E1B"></path>
                        <path d="M92.1181,97.8302 C93.4271,98.0632 94.6371,98.2002 95.8591,98.7372 C96.8431,99.1692 98.1351,99.8012 98.8971,100.5772 C99.3491,101.0362 100.0561,100.3292 99.6041,99.8702 C98.8691,99.1222 97.6911,98.4812 96.7631,98.0072 C95.3381,97.2792 93.9401,97.1432 92.3841,96.8662 C91.7541,96.7542 91.4841,97.7172 92.1181,97.8302" id="Fill-103" fill="#1D1E1B"></path>
                        <path d="M110.0009,115.9733 C110.0029,115.0133 109.3059,114.2713 108.6519,113.6453 C108.2689,113.2793 107.8629,112.9373 107.4279,112.6333 C106.9359,112.2883 106.3189,112.1193 105.8549,111.7443 C105.3579,111.3453 104.6459,112.0483 105.1469,112.4523 C105.8649,113.0293 106.7429,113.3063 107.4589,113.9133 C108.0419,114.4073 109.0029,115.1463 109.0009,115.9733 C108.9989,116.6173 109.9989,116.6183 110.0009,115.9733" id="Fill-105" fill="#1D1E1B"></path>
                        <path d="M110.5009,118.8483 C109.9589,118.8453 109.4199,118.8203 108.8839,118.7413 C108.2539,118.6483 107.9829,119.6123 108.6179,119.7053 C109.2449,119.7973 109.8679,119.8453 110.5009,119.8483 C111.1449,119.8513 111.1459,118.8513 110.5009,118.8483" id="Fill-107" fill="#1D1E1B"></path>
                        <path d="M107.4795,116.3698 C107.0285,115.9348 106.5255,115.5708 106.0985,115.1088 C105.6795,114.6568 105.2915,114.1808 104.8545,113.7448 C104.3985,113.2898 103.6905,113.9958 104.1475,114.4518 C104.5835,114.8878 104.9725,115.3638 105.3915,115.8158 C105.8185,116.2778 106.3215,116.6418 106.7725,117.0768 C107.2355,117.5238 107.9435,116.8178 107.4795,116.3698" id="Fill-109" fill="#1D1E1B"></path>
                        <path d="M94.1259,99.3483 C93.0589,99.2143 92.0889,98.5363 91.0009,98.5983 C90.3609,98.6353 90.3569,99.6353 91.0009,99.5983 C91.5759,99.5653 92.0779,99.8103 92.6079,99.9953 C93.1069,100.1693 93.6029,100.2833 94.1259,100.3483 C94.7629,100.4283 94.7569,99.4273 94.1259,99.3483" id="Fill-111" fill="#1D1E1B"></path>
                        <path d="M32.1474,58.2018 C33.2774,59.5198 34.6674,60.0098 36.3764,59.9728 C37.0184,59.9598 37.0214,58.9598 36.3764,58.9728 C34.9134,59.0038 33.8214,58.6228 32.8544,57.4948 C32.4354,57.0058 31.7304,57.7158 32.1474,58.2018" id="Fill-113" fill="#1D1E1B"></path>
                        <path d="M47.4795,81.0768 C47.5115,81.0468 47.5435,81.0178 47.5765,80.9878 C47.4585,81.0368 47.3405,81.0858 47.2235,81.1348 C47.4085,81.1198 47.8545,81.3938 48.0235,81.4698 C48.3335,81.6078 48.5845,81.8418 48.8675,82.0298 C49.1715,82.2328 49.3735,82.3948 49.5545,82.7208 C49.7305,83.0378 49.8785,83.3258 50.1475,83.5768 C50.6175,84.0158 51.3265,83.3098 50.8545,82.8698 C50.4945,82.5328 50.3895,82.0218 50.0455,81.6668 C49.7245,81.3368 49.2765,81.0798 48.9015,80.8168 C48.5545,80.5748 48.1225,80.4118 47.7365,80.2378 C47.3715,80.0728 47.0685,80.0988 46.7725,80.3698 C46.2965,80.8058 47.0055,81.5108 47.4795,81.0768" id="Fill-115" fill="#1D1E1B"></path>
                        <path d="M82.3193,146.9757 C83.4083,149.4477 85.3393,151.5027 86.7273,153.8267 C88.6943,157.1177 90.2783,160.5047 91.5433,164.1437 C92.8003,167.7667 94.7423,171.0797 95.8873,174.7437 C96.9953,178.2927 99.1353,181.4317 100.5193,184.8557 C100.7563,185.4457 101.7243,185.1877 101.4833,184.5907 C100.0533,181.0517 97.9003,177.7797 96.7403,174.1047 C95.5813,170.4337 93.6613,167.0727 92.3623,163.4487 C91.2353,160.3047 89.9803,157.3007 88.2223,154.4667 C86.6063,151.8617 84.4083,149.2507 83.1823,146.4707 C82.9233,145.8837 82.0623,146.3917 82.3193,146.9757" id="Fill-117" fill="#1D1E1B"></path>
                        <path d="M87.3193,160.7257 C87.6193,161.3767 87.8613,162.0587 88.2403,162.6697 C88.6503,163.3297 89.1843,163.9137 89.2513,164.7237 C89.3033,165.3597 90.3033,165.3657 90.2513,164.7237 C90.1843,163.9167 89.8593,163.2887 89.4103,162.6237 C88.8963,161.8607 88.5663,161.0527 88.1823,160.2207 C87.9133,159.6377 87.0513,160.1447 87.3193,160.7257" id="Fill-119" fill="#1D1E1B"></path>
                        <path d="M91.7509,174.7233 C92.0179,178.5083 93.0949,182.4063 93.7049,186.1663 C94.4419,190.7143 95.2489,195.3723 95.5009,199.9733 C95.5359,200.6133 96.5359,200.6173 96.5009,199.9733 C96.2759,195.8863 95.6049,191.7783 94.9679,187.7373 C94.6339,185.6163 94.3149,183.4923 93.9729,181.3723 C93.6159,179.1623 92.9089,176.9573 92.7509,174.7233 C92.7059,174.0853 91.7059,174.0803 91.7509,174.7233" id="Fill-121" fill="#1D1E1B"></path>
                        <path d="M105.3193,207.9709 C104.7443,208.8359 104.6953,209.9999 104.5933,211.0109 C104.3883,213.0439 104.2553,215.1269 104.2543,217.1719 C104.2523,221.2229 103.5993,225.1899 103.5013,229.2229 C103.4853,229.8669 104.4853,229.8669 104.5013,229.2229 C104.5863,225.7469 105.1753,222.2979 105.2433,218.8079 C105.2773,217.0869 105.3783,215.4119 105.4683,213.6939 C105.5493,212.1779 105.2963,209.8089 106.1823,208.4759 C106.5403,207.9379 105.6743,207.4369 105.3193,207.9709" id="Fill-123" fill="#1D1E1B"></path>
                        <path d="M52.5009,222.7233 C52.4869,224.4843 52.6909,226.2053 52.6939,227.9613 C52.6949,228.7743 52.7349,229.8883 53.7509,229.9733 C54.3919,230.0273 54.3889,229.0273 53.7509,228.9733 C53.7629,228.9743 53.5009,222.7983 53.5009,222.7233 C53.5059,222.0793 52.5059,222.0793 52.5009,222.7233" id="Fill-125" fill="#1D1E1B"></path>
                        <path d="M104.0009,232.2233 C103.9799,238.5843 104.5179,244.8993 105.1119,251.2233 C105.7239,257.7333 105.5019,264.3033 105.4959,270.8483 C105.4919,274.0053 105.5009,277.1613 105.4979,280.3193 C105.4929,283.7903 105.0409,287.2293 105.0009,290.6973 C104.9259,297.1833 105.7569,303.4213 106.7579,309.8063 C107.2619,313.0143 107.9499,316.3283 108.0689,319.5733 C108.1809,322.6053 107.9529,325.5373 108.3399,328.5593 C108.7659,331.8823 108.5009,335.3303 108.5009,338.6743 C108.5009,342.1423 108.4809,345.6053 108.4149,349.0733 C108.3499,352.4233 108.9859,355.6643 108.9119,359.0093 C108.8459,362.0153 109.4599,364.9363 109.5009,367.9463 C109.5159,369.0823 109.7089,369.9673 109.9019,371.0833 C110.2109,372.8643 109.8449,374.5443 109.9749,376.3203 C110.0809,377.7583 110.4319,379.1553 110.4989,380.5983 C110.5849,382.4393 110.5009,384.3133 110.5009,386.1573 L110.5009,427.6083 C110.5009,430.8213 110.5019,434.0333 110.5009,437.2453 C110.5009,440.5983 110.1299,443.8893 110.0169,447.2313 C109.7979,453.6853 109.5009,460.0773 109.5009,466.5653 C109.5009,473.6113 109.5049,480.6583 109.5069,487.7053 C109.5069,490.7003 109.4939,493.6413 109.8859,496.6173 C110.3539,500.1683 110.9399,503.8823 111.0049,507.4603 C111.2539,521.2113 110.5599,535.0023 111.0029,548.7473 C111.1149,552.2413 111.5059,555.6513 111.5009,559.1653 C111.4949,562.9263 111.5419,566.6893 111.4759,570.4493 C111.3449,577.8913 112.7709,585.3333 112.9869,592.7843 C113.1999,600.1143 113.1449,607.5153 113.0819,614.8493 C113.0179,622.2753 112.3209,629.6493 109.5189,636.5903 C109.2779,637.1873 110.2449,637.4463 110.4829,636.8563 C115.2629,625.0173 114.0139,611.9043 113.9969,599.4223 C113.9869,592.4823 113.7589,585.5013 112.9739,578.5993 C112.2389,572.1433 112.4879,565.6603 112.5009,559.1653 C112.5059,556.4713 112.5399,553.8553 112.2089,551.1773 C111.7319,547.3243 112.0219,543.3083 112.0199,539.4283 C112.0159,532.4633 112.0009,525.4983 112.0009,518.5343 C112.0009,511.9083 112.0109,505.4563 111.1909,498.8783 C110.3179,491.8733 110.5009,484.9003 110.5009,477.8483 C110.5009,471.1233 110.5279,464.3983 110.5119,457.6743 C110.5039,454.4813 110.9819,451.3463 111.0009,448.1383 C111.0199,444.8153 111.5009,441.5273 111.5009,438.1963 C111.5029,424.3143 111.5009,410.4313 111.5009,396.5493 C111.5009,390.4253 112.0839,383.9573 111.1989,377.8933 C110.9329,376.0733 111.1209,374.4313 111.0829,372.6253 C111.0539,371.2933 110.5899,370.0523 110.4959,368.7293 C110.3949,367.3003 110.5809,365.8633 110.4159,364.4343 C110.2239,362.7673 109.8659,361.1803 109.8989,359.4833 C109.9599,356.2573 109.3829,353.1673 109.3979,349.9613 C109.4159,346.5283 109.5009,343.0963 109.5009,339.6613 C109.5009,333.0763 109.1799,326.5773 109.0749,320.0123 C108.9589,312.7893 106.7029,305.6573 106.2159,298.4483 C105.7109,290.9743 106.4929,283.5333 106.4919,276.0573 C106.4919,272.2683 106.5009,268.4803 106.5009,264.6923 C106.5009,260.9233 106.7599,257.0263 106.3979,253.2733 C105.7219,246.2663 104.9769,239.2733 105.0009,232.2233 C105.0029,231.5793 104.0029,231.5783 104.0009,232.2233" id="Fill-127" fill="#1D1E1B"></path>
                        <path d="M53.0009,231.2233 C52.9229,232.8073 52.5039,234.3313 52.4489,235.9213 C52.3969,237.4273 52.5119,238.9623 52.5479,240.4683 C52.6299,243.8553 51.9359,247.1603 52.0329,250.5593 C52.1329,254.0223 52.1459,257.2303 51.6529,260.6733 C51.2089,263.7813 51.4979,267.0823 51.5029,270.2193 C51.5079,273.8813 51.5279,277.5433 51.5229,281.2053 C51.5209,283.1993 51.4319,285.2053 51.4889,287.1973 C51.5369,288.8253 51.8999,290.4063 51.9889,292.0273 C52.0679,293.4673 51.9389,294.9123 51.9369,296.3533 C51.9349,298.0603 52.4179,299.5483 52.5279,301.2213 C52.7169,304.0753 52.7379,306.9413 53.1379,309.7953 C53.5459,312.7063 53.6459,315.6323 54.1439,318.5393 C54.8099,322.4353 54.5009,326.5093 54.5009,330.4603 L54.5009,352.7433 C54.5009,356.0593 54.5439,359.3793 54.4939,362.6963 C54.4409,366.1843 54.0799,369.6863 54.3999,373.1723 C54.7119,376.5573 54.7649,379.9733 55.1089,383.3493 C55.4679,386.8633 55.4799,390.3573 55.8459,393.8743 C56.2009,397.2763 55.9849,400.7573 55.9869,404.1753 C55.9909,408.1293 56.0009,412.0823 55.9999,416.0363 C55.9979,422.7243 54.3409,429.0773 53.8829,435.7273 C53.4429,442.1083 52.8109,448.4723 52.1129,454.8283 C51.3789,461.5013 49.5689,468.1043 49.5389,474.8023 C49.5259,477.7843 49.0729,480.9583 48.7059,483.9183 C48.3509,486.7793 48.1929,489.5823 47.8809,492.4393 C47.1459,499.1683 45.7889,505.7663 45.3689,512.5283 C44.9379,519.4743 44.9959,526.3973 44.9949,533.3693 C44.9949,536.5473 44.3919,539.6383 44.3449,542.8113 C44.2919,546.4243 44.5439,549.9163 44.1479,553.5203 C43.7809,556.8703 43.4809,560.2373 43.1299,563.5923 C42.7859,566.8803 42.2489,569.9213 42.3629,573.2703 C42.6199,580.8483 42.9059,588.6273 42.2189,596.1853 C41.8659,600.0723 41.6629,604.0203 41.2179,607.8903 C40.7869,611.6373 39.5579,615.2333 39.1369,618.9663 C38.6569,623.2213 39.3299,627.4863 38.6169,631.7253 C37.9969,635.4133 36.9109,638.9953 36.5009,642.7233 C36.4309,643.3623 37.4309,643.3573 37.5009,642.7233 C37.9009,639.0863 38.9709,635.5893 39.5819,631.9913 C40.1629,628.5633 39.8659,625.1923 39.9589,621.7393 C40.0599,617.9983 41.1709,614.5063 41.7929,610.8423 C42.3239,607.7153 42.2869,604.5953 42.5879,601.4553 C42.8959,598.2523 43.4149,595.0963 43.4909,591.8693 C43.5809,588.0693 43.5009,584.2573 43.5009,580.4553 C43.5009,577.1893 43.2619,573.9143 43.3169,570.6513 C43.3669,567.7203 44.0499,564.7223 44.3819,561.7993 C44.7219,558.8063 44.8709,555.7963 45.2529,552.8113 C45.6789,549.4813 45.2959,546.1583 45.3449,542.8113 C45.3919,539.6383 45.9949,536.5493 45.9949,533.3693 C45.9959,529.6873 46.0169,526.0043 46.0009,522.3223 C45.9869,519.0143 46.1719,515.8223 46.3689,512.5283 C46.5869,508.8813 46.9359,505.0013 47.5079,501.3903 C48.4649,495.3443 49.0409,489.3383 49.7979,483.2923 C50.1449,480.5273 50.5289,477.5933 50.5389,474.8023 C50.5509,471.4013 51.0369,467.8843 51.6789,464.5203 C52.9389,457.9223 53.4929,451.2583 54.0299,444.5913 C54.5569,438.0563 55.3329,431.5643 56.4139,425.1113 C57.5619,418.2573 56.9929,411.1003 56.9869,404.1753 C56.9819,397.2143 56.8639,390.2533 56.1089,383.3493 C55.3599,376.4873 55.3839,369.5833 55.4939,362.6963 C55.6059,355.6003 55.5009,348.4943 55.5009,341.3983 L55.5009,330.4603 C55.5009,326.9623 55.8779,323.2383 55.4089,319.7733 C54.9649,316.5013 54.6139,313.2283 54.1699,309.9613 C53.7009,306.5103 53.8489,302.9283 53.2349,299.5303 C52.8789,297.5623 52.9749,295.7013 52.9959,293.7153 C53.0159,291.9073 52.6939,290.2143 52.5499,288.4223 C52.2279,284.3983 52.5279,280.2513 52.5179,276.2113 C52.5079,271.9103 52.4879,267.6073 52.5089,263.3063 C52.5259,259.9303 53.2549,256.6743 53.1399,253.2593 C53.0719,251.2293 52.9209,249.1993 53.0619,247.1693 C53.1759,245.5173 53.5419,243.9013 53.5859,242.2443 C53.6339,240.4533 53.4629,238.6513 53.4579,236.8593 C53.4519,234.9453 53.9079,233.1233 54.0009,231.2233 C54.0329,230.5803 53.0329,230.5813 53.0009,231.2233" id="Fill-129" fill="#1D1E1B"></path>
                        <path d="M64.0009,363.7233 C63.9159,368.0653 62.9699,372.3303 62.8389,376.6753 C62.7149,380.7793 63.0619,384.8613 64.0189,388.8563 C64.1689,389.4813 65.1329,389.2173 64.9829,388.5903 C63.9769,384.3893 63.6729,380.0863 63.8729,375.7763 C64.0609,371.7373 64.9209,367.7673 65.0009,363.7233 C65.0139,363.0793 64.0139,363.0793 64.0009,363.7233" id="Fill-131" fill="#1D1E1B"></path>
                        <path d="M66.5009,400.7233 L66.5009,406.2233 C66.5009,406.8673 67.5009,406.8683 67.5009,406.2233 L67.5009,400.7233 C67.5009,400.0793 66.5009,400.0783 66.5009,400.7233" id="Fill-133" fill="#1D1E1B"></path>
                        <path d="M97.5009,216.7233 C97.5009,222.6753 96.7519,229.0033 98.0189,234.8563 C98.1549,235.4853 99.1189,235.2193 98.9829,234.5903 C97.7399,228.8473 98.5009,222.5683 98.5009,216.7233 C98.5009,216.0793 97.5009,216.0783 97.5009,216.7233" id="Fill-139" fill="#1D1E1B"></path>
                        <path d="M97.3545,267.5768 C97.4925,267.4678 97.6305,267.3588 97.7695,267.2488 C97.4905,267.1758 97.2115,267.1018 96.9335,267.0288 C97.2375,267.9718 97.0325,268.9748 97.0055,269.9448 C96.9695,271.2018 97.0005,272.4648 97.0005,273.7228 C97.0005,274.3668 98.0005,274.3678 98.0005,273.7228 C98.0005,272.3558 97.9535,270.9788 98.0205,269.6128 C98.0665,268.6538 98.1975,267.6938 97.8975,266.7628 C97.7735,266.3768 97.3575,266.3088 97.0625,266.5418 C96.9235,266.6518 96.7855,266.7608 96.6475,266.8698 C96.1425,267.2678 96.8545,267.9718 97.3545,267.5768" id="Fill-141" fill="#1D1E1B"></path>
                        <path d="M62.5009,210.7233 C61.4909,210.7453 60.7449,211.6353 60.2049,212.3943 C59.6339,213.1973 59.0539,214.2153 59.0009,215.2233 C58.9669,215.8663 59.9669,215.8643 60.0009,215.2233 C60.0379,214.5223 60.4859,213.7903 60.8539,213.2173 C61.1859,212.6993 61.7959,211.7393 62.5009,211.7233 C63.1439,211.7093 63.1459,210.7093 62.5009,210.7233" id="Fill-143" fill="#1D1E1B"></path>
                        <path d="M95.3545,2.0768 C95.4515,1.9668 95.5475,1.8578 95.6445,1.7478 C95.3825,1.5458 95.1215,1.3438 94.8595,1.1418 C94.2995,2.2888 93.7925,3.4048 93.1495,4.5088 C92.5885,5.4728 92.1795,6.4828 92.0195,7.5908 C91.9275,8.2198 92.8915,8.4918 92.9825,7.8558 C93.1525,6.6858 93.6125,5.6818 94.2185,4.6738 C94.8095,3.6908 95.2215,2.6748 95.7225,1.6468 C95.9565,1.1668 95.3365,0.5878 94.9375,1.0408 C94.8405,1.1498 94.7445,1.2598 94.6475,1.3698 C94.2235,1.8508 94.9285,2.5608 95.3545,2.0768" id="Fill-149" fill="#1D1E1B"></path>
                        <path d="M102.7534,5.1549 C102.9034,5.0459 103.0544,4.9369 103.2054,4.8279 C102.9604,4.6389 102.7154,4.4509 102.4704,4.2629 C102.1004,5.5479 100.7144,6.3789 99.9424,7.4279 C99.2564,8.3609 99.2454,9.5789 98.5694,10.4709 C98.1804,10.9839 99.0484,11.4829 99.4324,10.9759 C99.8154,10.4709 99.9254,9.9789 100.1004,9.3789 C100.3414,8.5509 100.7694,7.9309 101.3484,7.3029 C102.1494,6.4349 103.0954,5.7049 103.4354,4.5289 C103.5474,4.1379 103.0644,3.7009 102.7004,3.9639 C102.5494,4.0729 102.3994,4.1819 102.2484,4.2919 C101.7324,4.6659 102.2314,5.5329 102.7534,5.1549" id="Fill-151" fill="#1D1E1B"></path>
                        <path d="M11.5009,67.2233 L11.8299,67.2233 C12.4739,67.2233 12.4749,66.2233 11.8299,66.2233 L7.0009,66.2233 C6.3569,66.2233 6.3559,67.2233 7.0009,67.2233 L11.8299,67.2233 C12.4739,67.2233 12.4749,66.2233 11.8299,66.2233 L11.5009,66.2233 C10.8569,66.2233 10.8559,67.2233 11.5009,67.2233" id="Fill-153" fill="#1D1E1B"></path>
                        <path d="M10.1338,59.7414 C7.6238,59.3464 2.3968,57.1254 0.1478,59.3694 C-0.3082,59.8244 0.3988,60.5324 0.8548,60.0764 C1.7278,59.2054 3.7368,59.5384 4.8578,59.6594 C6.5648,59.8454 8.1768,60.4394 9.8678,60.7054 C10.4978,60.8044 10.7688,59.8414 10.1338,59.7414" id="Fill-155" fill="#1D1E1B"></path>
                        <path d="M27.4829,21.5905 C27.3509,20.6045 27.0759,19.5925 26.3549,18.8695 C25.8999,18.4135 25.1919,19.1205 25.6479,19.5765 C26.2409,20.1725 26.4109,21.0515 26.5189,21.8565 C26.6049,22.4905 27.5679,22.2205 27.4829,21.5905" id="Fill-157" fill="#1D1E1B"></path>
                        <path d="M13.6338,27.2414 C12.9498,27.1384 12.3178,26.8444 11.6338,26.7414 C11.0048,26.6464 10.7328,27.6104 11.3678,27.7054 C12.0518,27.8084 12.6848,28.1024 13.3678,28.2054 C13.9978,28.3004 14.2688,27.3364 13.6338,27.2414" id="Fill-159" fill="#1D1E1B"></path>
                    </g>
                </g>
            </g>
        </g>
    </g>
</svg>