<?xml version="1.0" encoding="UTF-8"?>
<svg width="1202px" height="250px" viewBox="0 0 1202 250" version="1.1" xmlns="http://www.w3.org/2000/svg" xmlns:xlink="http://www.w3.org/1999/xlink">
    <!-- Generator: Sketch 43.2 (39069) - http://www.bohemiancoding.com/sketch -->
    <title>Page 1</title>
    <desc>Created with Sketch.</desc>
    <defs>
        <polygon id="path-1" points="1.855 0.529624927 1.855 5.49562507 0.834488032 5.49562507 0.834488032 0.529624927 1.855 0.529624927"></polygon>
    </defs>
    <g id="Screens" stroke="none" stroke-width="1" fill="none" fill-rule="evenodd">
        <g id="iPad-Pro-Landscape" transform="translate(-1988.000000, -688.000000)">
            <g id="Page-1" transform="translate(1988.000000, 688.000000)">
                <path d="M1168.7798,107.0641 C1168.7798,121.7471 1164.7848,133.6501 1159.8558,133.6501 C1154.9268,133.6501 1150.9318,121.7471 1150.9318,107.0641 C1150.9318,92.3811 1154.9268,80.4791 1159.8558,80.4791 C1164.7848,80.4791 1168.7798,92.3811 1168.7798,107.0641" id="Fill-1" fill="#FFFFFF"></path>
                <path d="M1170.6636,108.9797 C1170.6636,123.2377 1165.1206,134.7957 1158.2836,134.7957 C1151.4466,134.7957 1145.9036,123.2377 1145.9036,108.9797 C1145.9036,94.7217 1151.4466,83.1637 1158.2836,83.1637 C1165.1206,83.1637 1170.6636,94.7217 1170.6636,108.9797" id="Fill-3" fill="#EFECD3"></path>
                <path d="M1161.4639,95.6545 C1160.6739,95.6535 1159.9009,95.6175 1159.1209,95.4835 C1158.5509,95.3855 1158.1969,94.7905 1158.1859,94.2365 C1156.9679,93.4395 1156.0849,92.3315 1156.2989,90.6145 C1156.3829,89.9385 1156.8299,89.3045 1157.5889,89.3255 C1159.5119,89.3775 1162.5649,90.3735 1162.7539,92.6145 C1162.7899,93.0495 1162.6369,93.3655 1162.3919,93.5715 C1162.9969,94.3455 1162.6959,95.6555 1161.4639,95.6545 M1159.5419,126.7785 C1158.7139,127.2335 1157.6649,127.1705 1156.8759,126.6655 C1155.9949,126.1025 1155.5109,125.0595 1155.7389,124.0265 C1155.9869,122.9005 1156.9529,122.1175 1157.9379,121.6265 C1158.5629,121.3145 1159.3309,121.4545 1159.7019,122.0895 C1159.7889,122.2365 1159.8389,122.4035 1159.8579,122.5775 C1160.4969,122.5895 1161.2019,123.1785 1161.1289,123.8645 C1161.0049,125.0185 1160.6219,126.1845 1159.5419,126.7785 M1157.2459,111.1215 C1158.4649,110.7905 1159.1469,112.1415 1158.7079,113.0035 C1158.7049,113.0305 1158.7109,113.0565 1158.7069,113.0825 C1158.4589,114.8375 1157.6469,119.1545 1154.9009,117.6245 C1151.8149,115.9065 1154.8679,111.7675 1157.2459,111.1215 M1159.6289,101.4895 C1159.4789,102.9025 1159.5609,104.5185 1158.3759,105.5275 C1157.8239,105.9955 1157.0969,106.0255 1156.5519,105.5275 C1154.3439,103.5085 1154.8359,100.3885 1157.1879,98.7515 C1157.5279,98.5145 1158.1509,98.4995 1158.4899,98.7515 C1158.8299,99.0055 1159.0939,99.2605 1159.3759,99.5775 C1159.7779,100.0315 1159.7869,100.5635 1159.5849,100.9955 C1159.6289,101.1395 1159.6479,101.3025 1159.6289,101.4895 M1193.5929,92.8075 C1193.5369,91.8305 1193.4299,90.8865 1193.2949,89.9515 C1193.9079,88.9535 1194.0929,87.6665 1193.5519,86.1655 C1190.9599,78.9725 1182.2569,75.4465 1175.4849,73.2115 C1171.5599,71.9155 1167.4539,71.1655 1163.3339,70.8475 C1160.0839,70.5975 1156.2999,71.3095 1153.1609,70.2285 C1154.2289,68.4285 1155.3149,66.6415 1156.4259,64.8715 C1162.4499,60.7095 1166.6399,54.7605 1168.0599,47.4985 C1168.8649,47.0065 1169.5319,46.2895 1169.8609,45.3855 C1170.2809,44.2335 1170.5609,43.1875 1170.7719,41.9795 C1170.9249,41.1005 1170.8179,40.3145 1170.5449,39.6335 C1170.3309,36.6465 1169.4889,33.6715 1165.7419,33.5735 C1161.7549,33.4705 1160.4319,37.7455 1158.1869,40.1545 C1153.7319,44.9365 1148.3199,48.3955 1145.4279,53.7335 C1145.3349,53.8515 1145.2409,53.9695 1145.1539,54.0995 C1144.0069,55.8035 1142.7329,57.1895 1141.3559,58.4195 C1139.5599,59.6075 1137.8389,60.8975 1136.1759,62.2805 C1135.5449,62.6985 1134.9049,63.1195 1134.2469,63.5515 C1130.4009,66.0785 1127.8879,69.3555 1126.0969,73.5715 C1123.7829,79.0185 1122.2119,84.5985 1119.2539,89.3185 C1118.9769,89.6635 1118.7159,90.0245 1118.4229,90.3545 C1108.9039,92.4295 1099.3729,94.4495 1089.8199,96.3665 C1085.4269,97.0435 1081.0169,97.5885 1076.5859,97.9685 C1052.9859,98.1765 1029.2989,97.5295 1005.8009,98.5135 C987.4779,97.0315 969.0699,97.7605 950.9269,100.5875 C932.7969,100.3125 914.6549,100.4855 896.5219,100.5915 C880.1099,100.6885 863.6929,100.7095 847.2869,100.2335 C831.8429,99.7845 816.4209,98.0735 800.9849,97.7555 C799.7749,97.0375 798.3119,96.5895 796.5909,96.5315 C729.6499,94.3085 662.8279,88.7335 596.4599,79.7045 C586.0039,78.2815 575.5199,76.8415 565.0079,76.1445 C495.7229,66.9775 425.9219,66.3765 356.1549,68.6725 C285.3979,71.0005 214.7159,75.8835 143.8999,76.2275 C104.2439,76.4205 64.5709,75.1365 25.0939,71.2515 C24.0369,71.1475 23.0059,71.2255 22.0059,71.4275 C15.5759,70.9785 8.8809,75.1165 7.3409,81.6325 C2.2149,103.3165 1.4129,125.3895 4.7169,147.2825 C3.3339,150.3795 2.9239,153.9375 3.7689,157.0095 C5.9359,164.8965 13.5109,168.0745 20.9899,166.7885 C53.0939,161.2665 86.0059,163.0165 118.3909,164.2705 C152.4219,165.5875 185.8829,164.9735 219.7789,161.4835 C253.3989,158.0215 286.8469,155.1145 320.6259,153.7295 C354.9079,152.3225 388.5999,146.5015 422.8819,145.0985 C461.8389,143.5055 501.3859,146.3335 540.3439,144.7395 C542.4729,144.6525 544.5069,144.1075 546.3399,143.2155 C630.5349,148.0215 714.9239,149.2775 799.2239,146.8765 C803.7969,146.7455 808.3689,146.5925 812.9419,146.4415 C827.7639,146.5325 842.5869,146.5935 857.4089,146.6075 C892.5719,146.6405 927.7359,146.4555 962.8969,146.0515 C982.7989,145.8235 1002.7009,145.5235 1022.6009,145.1575 C1024.8219,145.1165 1026.3899,144.0835 1027.3339,142.6505 C1045.1599,140.8305 1062.9699,138.7915 1080.8149,137.2185 C1081.4249,137.3125 1082.0749,137.3215 1082.7619,137.2245 C1091.2019,136.0295 1099.7919,136.1945 1108.2859,136.5585 C1109.8199,136.6245 1111.3699,136.6655 1112.9209,136.7235 C1117.4909,137.2305 1122.0559,138.2205 1126.6119,139.3525 C1127.6899,139.7805 1128.7679,140.2245 1129.8659,140.6485 C1133.3609,141.9955 1136.9569,142.6575 1140.5969,142.9085 C1152.7909,145.7665 1164.8829,147.0925 1176.7909,140.2685 C1177.8199,140.1365 1178.7099,139.8005 1179.4519,139.3125 C1180.5949,139.0815 1181.6999,138.5805 1182.4809,137.7035 C1183.3339,136.7445 1184.0569,135.6695 1184.3679,134.4035 C1184.6619,133.2075 1184.7279,131.6425 1184.2699,130.4815 C1184.0959,129.8625 1183.8269,129.2995 1183.4839,128.7805 C1185.5689,127.7245 1187.5489,126.4215 1189.4799,124.8905 C1192.2329,122.7065 1191.2729,118.7135 1189.4799,116.4045 C1188.7459,115.4605 1187.8619,114.7395 1186.8979,114.1785 C1188.5429,113.4145 1190.0089,112.3565 1190.9319,110.7865 C1191.5579,109.7225 1192.0649,107.8605 1192.0499,106.6285 C1192.0509,106.5415 1192.0429,106.4575 1192.0399,106.3725 C1192.5439,104.5655 1192.4149,102.6775 1191.1099,100.7315 C1190.6959,100.1125 1190.2089,99.5875 1189.6719,99.1595 C1189.9009,98.8255 1190.0969,98.4675 1190.2549,98.0885 C1192.2389,97.2275 1193.7419,95.4235 1193.5929,92.8075" id="Fill-5" fill="#EFECD3"></path>
                <path d="M1002.2695,98.5558 C1033.5255,97.7428 1064.9055,100.1998 1096.0375,96.2028 C1103.3075,95.2698 1110.6895,94.0398 1117.5565,91.3878 C1118.1505,91.1578 1117.8925,90.1908 1117.2905,90.4228 C1103.7105,95.6688 1088.2085,96.3468 1073.8305,97.0348 C1057.0595,97.8368 1040.2605,97.6978 1023.4765,97.5478 C1016.4095,97.4858 1009.3355,97.3718 1002.2695,97.5558 C1001.6265,97.5728 1001.6245,98.5728 1002.2695,98.5558" id="Fill-7" fill="#1D1E1B"></path>
                <path d="M1117.7769,91.2585 C1120.8599,88.4005 1122.4509,84.5655 1124.3779,80.8985 C1126.9009,76.0985 1129.4229,71.2995 1131.9439,66.4995 C1132.2439,65.9305 1131.3809,65.4245 1131.0809,65.9945 C1128.7119,70.5035 1126.3419,75.0125 1123.9729,79.5205 C1121.9609,83.3505 1120.2919,87.5645 1117.0699,90.5515 C1116.5969,90.9895 1117.3049,91.6955 1117.7769,91.2585" id="Fill-9" fill="#1D1E1B"></path>
                <path d="M1133.5615,64.652 C1135.2105,62.815 1137.0265,61.273 1139.0825,59.902 C1140.3545,59.052 1141.5725,58.239 1142.5695,57.057 C1144.7245,54.502 1145.7465,51.021 1148.8835,49.418 C1149.4565,49.125 1148.9515,48.261 1148.3785,48.554 C1145.5115,50.02 1144.3205,52.903 1142.5575,55.42 C1141.1445,57.436 1139.1925,58.533 1137.2435,59.944 C1135.6275,61.112 1134.1855,62.463 1132.8545,63.945 C1132.4255,64.423 1133.1305,65.132 1133.5615,64.652" id="Fill-11" fill="#1D1E1B"></path>
                <path d="M1150.0278,47.9943 C1151.5538,46.0293 1153.7268,44.9973 1155.6678,43.5203 C1157.2948,42.2813 1158.4058,40.7233 1159.4738,39.0013 C1160.8748,36.7433 1162.6718,33.6183 1165.6828,33.4703 C1170.4048,33.2393 1170.3368,38.7413 1169.9738,42.0283 C1169.9028,42.6673 1170.9038,42.6623 1170.9738,42.0283 C1171.2878,39.1823 1171.5348,35.6853 1169.1448,33.5793 C1167.3838,32.0283 1165.0478,32.1753 1163.1058,33.3093 C1160.4378,34.8673 1159.2908,37.7033 1157.5698,40.1153 C1155.3718,43.1943 1151.6138,44.3353 1149.3198,47.2873 C1148.9298,47.7893 1149.6328,48.5023 1150.0278,47.9943" id="Fill-13" fill="#1D1E1B"></path>
                <path d="M1156.0269,71.0358 C1154.5509,72.0188 1152.5939,70.7358 1153.3849,68.7608 C1153.7429,67.8658 1154.8069,66.9908 1155.4409,66.2888 C1156.8709,64.7038 1158.3019,63.1198 1159.7329,61.5358 C1160.1629,61.0588 1159.4579,60.3498 1159.0259,60.8288 C1157.3269,62.7098 1155.6199,64.5848 1153.9289,66.4728 C1153.0619,67.4398 1151.9539,68.5898 1152.1229,70.0088 C1152.3659,72.0518 1154.9289,72.9668 1156.5309,71.8988 C1157.0649,71.5438 1156.5649,70.6778 1156.0269,71.0358" id="Fill-15" fill="#1D1E1B"></path>
                <path d="M1162.0137,59.2272 C1166.1217,55.2182 1168.8837,50.2212 1170.0787,44.6052 C1170.2127,43.9782 1169.2487,43.7092 1169.1147,44.3402 C1167.9527,49.7972 1165.3007,54.6232 1161.3067,58.5202 C1160.8457,58.9702 1161.5527,59.6772 1162.0137,59.2272" id="Fill-17" fill="#1D1E1B"></path>
                <path d="M1159.1499,72.3625 L1171.9309,74.5205 C1176.2109,75.2425 1180.1999,75.8305 1183.8269,78.4015 C1184.3529,78.7745 1184.8529,77.9075 1184.3309,77.5385 C1180.9089,75.1125 1177.2449,74.4085 1173.1799,73.7215 C1168.5919,72.9475 1164.0039,72.1725 1159.4159,71.3985 C1158.7859,71.2915 1158.5159,72.2555 1159.1499,72.3625" id="Fill-19" fill="#1D1E1B"></path>
                <path d="M1185.5107,79.8356 C1187.2187,80.6926 1189.1077,81.4176 1190.7147,82.4466 C1192.8387,83.8066 1192.6917,85.8736 1192.9867,88.1566 C1193.1637,89.5296 1193.9057,91.7496 1193.6027,93.1006 C1193.1647,95.0576 1190.7617,96.0926 1189.2347,97.1056 C1188.6997,97.4596 1189.2007,98.3256 1189.7397,97.9686 C1191.0377,97.1086 1193.4327,96.1106 1194.2517,94.7086 C1195.2507,92.9956 1194.2207,89.9736 1193.9867,88.1566 C1193.7647,86.4456 1193.8947,84.0126 1192.7267,82.6306 C1191.2737,80.9096 1187.9837,79.9596 1186.0157,78.9726 C1185.4417,78.6846 1184.9347,79.5466 1185.5107,79.8356" id="Fill-21" fill="#1D1E1B"></path>
                <path d="M1189.4551,99.6501 C1192.4131,102.3311 1193.1931,106.5931 1190.8711,109.9801 C1190.2461,110.8921 1189.3991,111.6361 1188.4621,112.2121 C1187.9571,112.5221 1187.2871,112.6891 1186.8861,113.1441 C1186.4661,113.6221 1186.3881,113.8681 1186.4501,114.5181 C1186.5111,115.1521 1187.5121,115.1591 1187.4501,114.5181 C1187.3631,113.6101 1190.5801,111.9271 1191.2261,111.1551 C1192.1941,109.9971 1192.8701,108.5831 1193.1381,107.0961 C1193.6951,104.0101 1192.4411,101.0081 1190.1621,98.9431 C1189.6861,98.5121 1188.9771,99.2171 1189.4551,99.6501" id="Fill-23" fill="#1D1E1B"></path>
                <path d="M1187.4541,114.7233 C1190.8931,117.2533 1191.4351,121.9103 1188.6661,125.1873 C1186.1671,128.1443 1182.1351,128.6793 1178.5671,127.7423 C1177.9451,127.5773 1177.6791,128.5423 1178.3021,128.7053 C1182.7461,129.8743 1187.8061,128.8033 1190.2951,124.6213 C1192.5321,120.8643 1191.4091,116.3973 1187.9591,113.8603 C1187.4401,113.4783 1186.9401,114.3453 1187.4541,114.7233" id="Fill-25" fill="#1D1E1B"></path>
                <path d="M1183.8623,128.8419 C1183.7373,130.1309 1183.9563,131.3049 1184.1073,132.5799 C1184.4273,135.3009 1183.2513,136.6699 1181.0493,138.0969 C1178.2583,139.9049 1175.1233,141.0199 1171.8633,141.6049 C1171.2313,141.7179 1171.4983,142.6819 1172.1293,142.5689 C1176.0163,141.8719 1179.9023,140.3979 1183.0303,137.9329 C1186.3743,135.2989 1184.5133,132.4659 1184.8623,128.8419 C1184.9243,128.2019 1183.9233,128.2059 1183.8623,128.8419" id="Fill-27" fill="#1D1E1B"></path>
                <path d="M1032.7373,141.3629 C1059.2123,139.4319 1085.8983,136.7669 1112.4663,138.0749 C1113.1093,138.1069 1113.1083,137.1069 1112.4663,137.0749 C1085.8983,135.7669 1059.2123,138.4319 1032.7373,140.3629 C1032.0993,140.4099 1032.0943,141.4099 1032.7373,141.3629" id="Fill-29" fill="#1D1E1B"></path>
                <path d="M1115.2295,138.4162 C1120.4555,138.6982 1125.6145,139.1062 1130.5275,141.0442 C1134.7745,142.7202 1138.5565,143.9352 1143.1585,144.1222 C1152.9405,144.5182 1162.9305,144.6642 1172.5475,142.5952 C1173.1765,142.4602 1172.9105,141.4962 1172.2815,141.6312 C1162.5165,143.7322 1152.1615,143.6312 1142.2255,143.0782 C1137.2405,142.8002 1133.3755,140.8362 1128.7465,139.3332 C1124.3875,137.9172 1119.7715,137.6612 1115.2295,137.4162 C1114.5865,137.3812 1114.5885,138.3812 1115.2295,138.4162" id="Fill-31" fill="#1D1E1B"></path>
                <path d="M1116.9917,90.6525 C1113.3187,96.6625 1119.1387,104.3655 1123.8907,107.7745 C1124.4137,108.1505 1124.9137,107.2835 1124.3947,106.9115 C1120.0637,103.8035 1114.5057,96.6365 1117.8547,91.1575 C1118.1917,90.6075 1117.3267,90.1035 1116.9917,90.6525" id="Fill-33" fill="#1D1E1B"></path>
                <path d="M1113.4546,95.4098 C1113.3726,97.9758 1114.1076,100.4048 1115.6176,102.4848 C1115.9916,102.9998 1116.8596,102.5018 1116.4806,101.9798 C1115.0656,100.0288 1114.3776,97.8228 1114.4546,95.4098 C1114.4756,94.7658 1113.4756,94.7668 1113.4546,95.4098" id="Fill-35" fill="#1D1E1B"></path>
                <path d="M1129.7349,120.1628 C1135.3569,121.2748 1140.9329,120.6278 1146.1559,118.2708 C1146.7419,118.0068 1146.2339,117.1448 1145.6519,117.4078 C1140.6929,119.6448 1135.3359,120.2538 1130.0009,119.1988 C1129.3719,119.0738 1129.1029,120.0378 1129.7349,120.1628" id="Fill-37" fill="#1D1E1B"></path>
                <path d="M1164.1538,77.0866 C1163.5008,79.2606 1163.2118,81.4696 1163.2858,83.7376 C1163.3068,84.3796 1164.3078,84.3826 1164.2858,83.7376 C1164.2148,81.5586 1164.4898,79.4406 1165.1178,77.3526 C1165.3038,76.7346 1164.3388,76.4706 1164.1538,77.0866" id="Fill-39" fill="#1D1E1B"></path>
                <path d="M1157.7544,87.5212 C1162.6994,84.5182 1168.5644,83.3902 1173.8794,86.1452 C1174.4494,86.4402 1174.9554,85.5782 1174.3834,85.2812 C1168.7464,82.3592 1162.5164,83.4592 1157.2494,86.6582 C1156.7004,86.9912 1157.2024,87.8562 1157.7544,87.5212" id="Fill-41" fill="#1D1E1B"></path>
                <path d="M1172.5347,85.0246 C1176.7157,82.2526 1181.6767,82.0096 1186.5367,82.3986 C1187.1787,82.4496 1187.1757,81.4496 1186.5367,81.3986 C1181.4987,80.9946 1176.3557,81.2936 1172.0297,84.1606 C1171.4957,84.5146 1171.9957,85.3816 1172.5347,85.0246" id="Fill-43" fill="#1D1E1B"></path>
                <path d="M1172.4048,84.4718 C1172.8348,82.1448 1173.6568,79.9888 1174.8938,77.9708 C1175.2308,77.4198 1174.3658,76.9168 1174.0298,77.4658 C1172.7538,79.5498 1171.8848,81.8028 1171.4408,84.2058 C1171.3238,84.8348 1172.2878,85.1048 1172.4048,84.4718" id="Fill-45" fill="#1D1E1B"></path>
                <path d="M1174.8081,82.9196 C1175.1501,81.8516 1175.7661,80.9446 1176.6121,80.2106 C1177.0991,79.7886 1176.3891,79.0836 1175.9051,79.5036 C1174.9301,80.3486 1174.2361,81.4276 1173.8441,82.6536 C1173.6471,83.2686 1174.6121,83.5316 1174.8081,82.9196" id="Fill-47" fill="#1D1E1B"></path>
                <path d="M1152.2061,73.4557 C1152.0671,75.0667 1152.7531,76.3627 1153.3121,77.8347 C1154.0161,79.6897 1154.4791,81.5977 1154.7761,83.5567 C1154.8721,84.1907 1155.8351,83.9207 1155.7401,83.2907 C1155.4811,81.5787 1155.1051,79.8987 1154.5311,78.2637 C1153.9751,76.6817 1153.0571,75.1847 1153.2061,73.4557 C1153.2611,72.8147 1152.2611,72.8187 1152.2061,73.4557" id="Fill-49" fill="#1D1E1B"></path>
                <path d="M1154.5547,74.2189 C1156.6317,76.1499 1158.5247,78.2499 1160.2177,80.5259 C1160.5967,81.0359 1161.4657,80.5379 1161.0807,80.0209 C1159.3367,77.6759 1157.4027,75.5029 1155.2627,73.5119 C1154.7907,73.0739 1154.0827,73.7799 1154.5547,74.2189" id="Fill-51" fill="#1D1E1B"></path>
                <path d="M1135.1553,76.6613 C1138.1893,75.9013 1141.3483,76.1383 1144.3923,75.4253 C1146.9283,74.8303 1149.2593,73.7423 1151.4173,72.2963 C1151.9493,71.9393 1151.4493,71.0733 1150.9123,71.4323 C1148.6103,72.9743 1146.0803,74.1223 1143.3433,74.6273 C1140.5353,75.1453 1137.6713,74.9993 1134.8893,75.6973 C1134.2653,75.8533 1134.5303,76.8183 1135.1553,76.6613" id="Fill-53" fill="#1D1E1B"></path>
                <path d="M1149.9438,69.5402 C1148.1838,69.7272 1146.4218,69.8312 1144.6518,69.8522 C1144.0088,69.8592 1144.0068,70.8592 1144.6518,70.8522 C1146.4218,70.8312 1148.1838,70.7272 1149.9438,70.5402 C1150.5768,70.4732 1150.5848,69.4722 1149.9438,69.5402" id="Fill-55" fill="#1D1E1B"></path>
                <path d="M1157.0718,60.4391 C1154.8138,60.0591 1152.8508,59.0161 1151.2858,57.3421 C1150.8448,56.8711 1150.1388,57.5791 1150.5788,58.0491 C1152.2488,59.8351 1154.3918,60.9971 1156.8058,61.4031 C1157.4358,61.5091 1157.7058,60.5451 1157.0718,60.4391" id="Fill-57" fill="#1D1E1B"></path>
                <path d="M1160.3687,57.8131 C1157.5947,57.9461 1155.0307,56.7001 1153.4687,54.3911 C1153.1097,53.8611 1152.2437,54.3611 1152.6047,54.8961 C1154.3577,57.4861 1157.2347,58.9631 1160.3687,58.8131 C1161.0097,58.7821 1161.0137,57.7821 1160.3687,57.8131" id="Fill-59" fill="#1D1E1B"></path>
                <path d="M1156.5347,88.2936 C1155.7487,89.7606 1154.9417,91.4296 1155.5557,93.1106 C1156.0687,94.5126 1157.3987,95.4036 1158.5957,96.1776 C1159.1377,96.5276 1159.6387,95.6626 1159.0997,95.3146 C1158.1917,94.7266 1157.1437,94.0776 1156.6337,93.0796 C1155.8967,91.6356 1156.7087,90.0856 1157.3987,88.7986 C1157.7017,88.2316 1156.8397,87.7256 1156.5347,88.2936" id="Fill-61" fill="#1D1E1B"></path>
                <path d="M1168.0181,90.9298 C1167.3071,93.6658 1167.3321,96.4158 1168.0981,99.1378 C1168.2721,99.7558 1169.2371,99.4928 1169.0621,98.8708 C1168.3421,96.3118 1168.3131,93.7688 1168.9821,91.1958 C1169.1441,90.5728 1168.1801,90.3058 1168.0181,90.9298" id="Fill-63" fill="#1D1E1B"></path>
                <path d="M1169.8989,91.5231 C1169.6399,93.8491 1169.4879,96.2081 1170.6929,98.3081 C1171.0129,98.8661 1171.8769,98.3631 1171.5559,97.8031 C1170.4459,95.8671 1170.6619,93.6531 1170.8989,91.5231 C1170.9699,90.8841 1169.9699,90.8891 1169.8989,91.5231" id="Fill-65" fill="#1D1E1B"></path>
                <path d="M1164.6636,101.1007 C1163.6366,103.2347 1163.1546,105.4977 1163.2596,107.8657 C1163.2886,108.5067 1164.2886,108.5107 1164.2596,107.8657 C1164.1626,105.6747 1164.5746,103.5827 1165.5266,101.6047 C1165.8046,101.0277 1164.9426,100.5197 1164.6636,101.1007" id="Fill-67" fill="#1D1E1B"></path>
                <path d="M1165.3384,103.6838 C1165.2344,104.3588 1165.1304,105.0328 1165.0264,105.7068 C1164.9304,106.3368 1165.8934,106.6078 1165.9914,105.9738 C1166.0954,105.2988 1166.1984,104.6238 1166.3024,103.9498 C1166.3994,103.3198 1165.4364,103.0488 1165.3384,103.6838" id="Fill-69" fill="#1D1E1B"></path>
                <path d="M1163.0293,116.6144 C1162.4043,118.1004 1162.0663,119.6384 1161.9843,121.2474 C1161.9513,121.8904 1162.9513,121.8884 1162.9843,121.2474 C1163.0613,119.7274 1163.4043,118.2814 1163.9933,116.8804 C1164.2423,116.2874 1163.2753,116.0294 1163.0293,116.6144" id="Fill-71" fill="#1D1E1B"></path>
                <path d="M1164.2695,112.8722 C1171.8235,113.1432 1179.3855,113.5342 1186.8175,114.9992 C1187.4455,115.1232 1187.7145,114.1602 1187.0825,114.0352 C1179.5645,112.5532 1171.9135,112.1462 1164.2695,111.8722 C1163.6255,111.8492 1163.6265,112.8492 1164.2695,112.8722" id="Fill-73" fill="#1D1E1B"></path>
                <path d="M1171.1147,100.2858 C1174.3727,99.9008 1177.6377,99.6818 1180.9187,99.6288 C1181.5617,99.6188 1181.5637,98.6188 1180.9187,98.6288 C1177.6377,98.6818 1174.3727,98.9008 1171.1147,99.2858 C1170.4837,99.3598 1170.4757,100.3608 1171.1147,100.2858" id="Fill-75" fill="#1D1E1B"></path>
                <path d="M1183.1006,99.3654 C1184.1896,99.2604 1185.2796,99.1554 1186.3696,99.0504 C1187.0036,98.9894 1187.0106,97.9884 1186.3696,98.0504 C1185.2796,98.1554 1184.1896,98.2604 1183.1006,98.3654 C1182.4656,98.4264 1182.4596,99.4274 1183.1006,99.3654" id="Fill-77" fill="#1D1E1B"></path>
                <path d="M1162.7075,124.7169 C1164.2895,124.7049 1165.7945,124.9939 1167.2635,125.5769 C1167.8615,125.8149 1168.1215,124.8479 1167.5295,124.6129 C1165.9795,123.9969 1164.3735,123.7039 1162.7075,123.7169 C1162.0645,123.7219 1162.0625,124.7219 1162.7075,124.7169" id="Fill-79" fill="#1D1E1B"></path>
                <path d="M1168.647,126.3874 C1171.091,126.7374 1173.473,127.3044 1175.812,128.0924 C1176.423,128.2994 1176.686,127.3334 1176.078,127.1284 C1173.739,126.3394 1171.357,125.7724 1168.913,125.4234 C1168.283,125.3334 1168.011,126.2964 1168.647,126.3874" id="Fill-81" fill="#1D1E1B"></path>
                <path d="M1153.105,116.5153 C1153.93,118.0533 1155.007,119.4113 1156.383,120.4933 C1157.861,121.6553 1159.951,122.2363 1160.999,123.8623 C1161.346,124.4013 1162.212,123.9003 1161.862,123.3573 C1161.001,122.0213 1159.702,121.4113 1158.369,120.6323 C1156.464,119.5193 1155.009,117.9493 1153.969,116.0103 C1153.665,115.4433 1152.801,115.9483 1153.105,116.5153" id="Fill-83" fill="#1D1E1B"></path>
                <path d="M1153.7754,114.9845 C1154.3944,112.4585 1156.4054,110.5825 1158.9574,110.1095 C1159.5894,109.9925 1159.3214,109.0285 1158.6914,109.1455 C1155.8144,109.6785 1153.5064,111.8815 1152.8114,114.7185 C1152.6574,115.3435 1153.6214,115.6095 1153.7754,114.9845" id="Fill-85" fill="#1D1E1B"></path>
                <path d="M1155.0205,104.6545 C1156.1625,105.9665 1157.3695,107.2175 1158.6635,108.3815 C1159.9205,109.5105 1161.4965,110.4545 1162.5315,111.8005 C1162.9185,112.3035 1163.7875,111.8065 1163.3955,111.2965 C1162.3925,109.9925 1160.9895,109.0955 1159.7605,108.0205 C1158.3195,106.7585 1156.9835,105.3915 1155.7275,103.9465 C1155.3045,103.4605 1154.5995,104.1705 1155.0205,104.6545" id="Fill-87" fill="#1D1E1B"></path>
                <path d="M1155.4712,102.7062 C1154.0932,98.9132 1159.7402,97.4712 1162.1532,98.0712 C1163.9222,98.5122 1165.6232,99.6062 1167.2442,100.4312 C1167.8162,100.7222 1168.3232,99.8592 1167.7482,99.5672 C1164.6682,97.9992 1161.7122,96.0692 1158.1832,97.3402 C1155.7562,98.2152 1153.5022,100.2062 1154.5072,102.9722 C1154.7242,103.5722 1155.6912,103.3132 1155.4712,102.7062" id="Fill-89" fill="#1D1E1B"></path>
                <path d="M1160.5488,96.2526 C1161.4788,96.1566 1162.2898,97.1326 1163.0338,96.0856 C1163.6778,95.1816 1163.3798,93.5866 1163.3798,92.5676 C1163.3798,91.5996 1163.4738,90.4996 1162.5438,89.9106 C1161.4518,89.2186 1159.7588,89.1446 1158.5078,88.9886 C1157.8708,88.9096 1157.8768,89.9106 1158.5078,89.9886 C1159.3088,90.0886 1160.2928,90.1666 1161.0548,90.4556 C1162.3748,90.9566 1162.3798,91.6406 1162.3798,92.8016 C1162.3798,93.4116 1162.5788,94.3506 1162.3598,94.9126 C1162.0368,95.7366 1161.1958,95.1866 1160.5488,95.2526 C1159.9148,95.3176 1159.9078,96.3186 1160.5488,96.2526" id="Fill-91" fill="#1D1E1B"></path>
                <path d="M1159.1694,106.4953 C1159.6084,104.9623 1159.9544,103.4133 1160.1744,101.8323 C1160.2774,101.0943 1160.7024,99.7323 1160.3564,99.0723 C1159.9674,98.3283 1158.2124,97.5523 1157.4194,97.6683 C1156.7844,97.7613 1157.0544,98.7243 1157.6854,98.6323 C1157.9154,98.5993 1158.5454,99.0193 1158.7684,99.1413 C1159.5334,99.5583 1159.3984,99.9233 1159.2994,100.8113 C1159.0944,102.6513 1158.7144,104.4513 1158.2054,106.2293 C1158.0274,106.8493 1158.9924,107.1143 1159.1694,106.4953" id="Fill-93" fill="#1D1E1B"></path>
                <path d="M1153.7573,117.589 C1154.1683,118.612 1156.2323,119.203 1157.1663,118.684 C1158.0393,118.2 1158.4253,116.965 1158.7423,116.088 C1159.2623,114.651 1159.4833,113.147 1159.4963,111.623 C1159.4983,111.404 1159.3403,111.198 1159.1293,111.141 C1158.1463,110.871 1156.4813,110.323 1155.4753,110.637 C1154.8623,110.827 1155.1243,111.793 1155.7403,111.601 C1156.5253,111.357 1158.0763,111.889 1158.8633,112.105 C1158.7413,111.944 1158.6193,111.784 1158.4963,111.623 C1158.4813,113.34 1158.1743,115.041 1157.4593,116.611 C1157.1613,117.264 1156.8303,117.856 1156.0583,117.815 C1155.8463,117.804 1154.8133,117.551 1154.7213,117.323 C1154.4853,116.733 1153.5173,116.991 1153.7573,117.589" id="Fill-95" fill="#1D1E1B"></path>
                <path d="M1161.2803,114.5773 C1161.0663,115.6133 1160.8523,116.6503 1160.6383,117.6863 C1160.5093,118.3143 1161.4733,118.5833 1161.6033,117.9523 C1161.8173,116.9153 1162.0303,115.8793 1162.2443,114.8433 C1162.3743,114.2153 1161.4103,113.9463 1161.2803,114.5773" id="Fill-97" fill="#1D1E1B"></path>
                <path d="M1183.8506,118.4489 C1183.6056,120.5309 1183.1336,122.5569 1182.4566,124.5399 C1182.2486,125.1509 1183.2146,125.4129 1183.4216,124.8059 C1184.1286,122.7329 1184.5946,120.6229 1184.8506,118.4489 C1184.9256,117.8109 1183.9256,117.8169 1183.8506,118.4489" id="Fill-99" fill="#1D1E1B"></path>
                <path d="M1185.5884,122.528 C1186.2324,122.528 1186.2334,121.528 1185.5884,121.528 C1184.9444,121.528 1184.9434,122.528 1185.5884,122.528" id="Fill-101" fill="#1D1E1B"></path>
                <path d="M1187.1846,122.0612 C1186.9586,123.1632 1186.5196,124.1842 1185.8296,125.0762 C1185.4406,125.5792 1186.1426,126.2922 1186.5366,125.7832 C1187.3336,124.7522 1187.8876,123.6072 1188.1486,122.3272 C1188.2766,121.6992 1187.3136,121.4302 1187.1846,122.0612" id="Fill-103" fill="#1D1E1B"></path>
                <path d="M1184.8237,110.9528 C1186.1567,109.0108 1186.8327,106.7948 1186.8287,104.4398 C1186.8277,103.7968 1185.8277,103.7958 1185.8287,104.4398 C1185.8327,106.6328 1185.2007,108.6418 1183.9607,110.4478 C1183.5947,110.9798 1184.4617,111.4808 1184.8237,110.9528" id="Fill-105" fill="#1D1E1B"></path>
                <path d="M1188.0464,109.5187 C1188.6964,108.4307 1189.0704,107.2547 1189.1974,105.9957 C1189.2624,105.3557 1188.2624,105.3607 1188.1974,105.9957 C1188.0884,107.0767 1187.7394,108.0827 1187.1834,109.0137 C1186.8524,109.5677 1187.7164,110.0707 1188.0464,109.5187" id="Fill-107" fill="#1D1E1B"></path>
                <path d="M1188.2837,95.4142 C1188.7197,92.0612 1188.0617,88.8122 1186.3917,85.8772 C1186.0737,85.3172 1185.2097,85.8212 1185.5287,86.3812 C1187.1197,89.1802 1187.6987,92.2262 1187.2837,95.4142 C1187.2007,96.0502 1188.2017,96.0442 1188.2837,95.4142" id="Fill-109" fill="#1D1E1B"></path>
                <path d="M1190.8818,92.4289 C1191.1018,91.1209 1191.0238,89.8399 1190.6028,88.5789 C1190.3998,87.9719 1189.4338,88.2319 1189.6378,88.8449 C1189.9998,89.9279 1190.1078,91.0339 1189.9178,92.1629 C1189.8118,92.7929 1190.7758,93.0629 1190.8818,92.4289" id="Fill-111" fill="#1D1E1B"></path>
                <path d="M1165.2334,127.5348 C1164.1044,129.2308 1163.3174,131.0868 1162.8834,133.0768 C1162.7464,133.7048 1163.7104,133.9728 1163.8474,133.3428 C1164.2654,131.4278 1165.0104,129.6718 1166.0964,128.0398 C1166.4544,127.5018 1165.5884,127.0008 1165.2334,127.5348" id="Fill-113" fill="#1D1E1B"></path>
                <path d="M1166.4785,129.5582 C1166.0435,130.4422 1165.7105,131.3622 1165.4945,132.3242 C1165.3535,132.9502 1166.3165,133.2182 1166.4585,132.5892 C1166.6555,131.7112 1166.9445,130.8702 1167.3415,130.0632 C1167.6245,129.4872 1166.7625,128.9802 1166.4785,129.5582" id="Fill-115" fill="#1D1E1B"></path>
                <path d="M1156.2983,129.8874 C1160.2653,134.7344 1165.6553,137.8184 1171.2303,140.4894 C1171.8073,140.7654 1172.3153,139.9044 1171.7343,139.6254 C1166.2373,136.9914 1160.9203,133.9624 1157.0063,129.1804 C1156.5973,128.6814 1155.8943,129.3934 1156.2983,129.8874" id="Fill-117" fill="#1D1E1B"></path>
                <path d="M1166.3398,138.3048 C1166.7048,139.1348 1167.0688,139.9638 1167.4338,140.7938 C1167.6928,141.3818 1168.5538,140.8728 1168.2978,140.2888 C1167.9328,139.4588 1167.5678,138.6298 1167.2038,137.7998 C1166.9448,137.2128 1166.0828,137.7208 1166.3398,138.3048" id="Fill-119" fill="#1D1E1B"></path>
                <path d="M1163.0254,136.3205 C1163.3404,137.7715 1163.5814,139.2325 1163.7414,140.7085 C1163.8104,141.3415 1164.8114,141.3485 1164.7414,140.7085 C1164.5714,139.1435 1164.3234,137.5925 1163.9894,136.0545 C1163.8534,135.4255 1162.8894,135.6925 1163.0254,136.3205" id="Fill-121" fill="#1D1E1B"></path>
                <path d="M1160.9644,124.3068 C1160.5834,125.1888 1159.6374,127.1298 1158.5544,127.1058 C1157.4454,127.0818 1156.2454,125.5998 1155.5814,124.7958 C1155.1724,124.2998 1154.4674,125.0108 1154.8744,125.5038 C1155.6544,126.4488 1157.3174,128.3578 1158.7274,128.2188 C1160.1734,128.0768 1161.3324,125.9568 1161.8274,124.8108 C1162.0804,124.2268 1161.2194,123.7168 1160.9644,124.3068" id="Fill-123" fill="#1D1E1B"></path>
                <path d="M1155.6704,124.6442 C1155.9054,123.3112 1156.9784,122.2302 1158.3524,122.1072 C1158.9874,122.0502 1158.9934,121.0492 1158.3524,121.1072 C1156.5594,121.2682 1155.0244,122.5812 1154.7064,124.3782 C1154.5944,125.0082 1155.5584,125.2782 1155.6704,124.6442" id="Fill-125" fill="#1D1E1B"></path>
                <path d="M1154.3867,127.2282 C1155.2197,128.4532 1156.1477,129.6042 1157.1717,130.6752 C1157.6177,131.1412 1158.3247,130.4332 1157.8787,129.9682 C1156.9127,128.9582 1156.0357,127.8792 1155.2507,126.7232 C1154.8907,126.1942 1154.0237,126.6942 1154.3867,127.2282" id="Fill-127" fill="#1D1E1B"></path>
                <path d="M1147.7925,93.2677 C1148.0255,93.3647 1147.0435,97.4527 1146.9175,97.8997 C1146.4725,99.4657 1145.8545,100.9787 1145.1545,102.4457 C1143.9385,104.9927 1142.4375,107.3947 1140.9415,109.7837 C1140.5985,110.3307 1141.4635,110.8327 1141.8045,110.2887 C1143.9855,106.8057 1146.1745,103.2647 1147.5055,99.3527 C1147.9105,98.1607 1149.8305,93.0397 1148.0585,92.3037 C1147.4645,92.0567 1147.2065,93.0237 1147.7925,93.2677" id="Fill-129" fill="#1D1E1B"></path>
                <path d="M1149.2017,103.7326 C1148.1637,105.4966 1147.1267,107.2606 1146.0887,109.0246 C1145.7617,109.5806 1146.6257,110.0846 1146.9517,109.5296 C1147.9897,107.7656 1149.0277,106.0016 1150.0657,104.2376 C1150.3917,103.6816 1149.5287,103.1776 1149.2017,103.7326" id="Fill-131" fill="#1D1E1B"></path>
                <path d="M1128.0254,115.799 C1137.5464,117.379 1147.6224,116.306 1154.9894,109.541 C1155.4644,109.105 1154.7554,108.399 1154.2824,108.834 C1147.1954,115.342 1137.4394,116.353 1128.2914,114.835 C1127.6614,114.73 1127.3914,115.694 1128.0254,115.799" id="Fill-133" fill="#1D1E1B"></path>
                <path d="M1118.0576,128.2248 C1118.7186,131.5248 1120.5246,134.3268 1123.2046,136.3488 C1123.7186,136.7368 1124.2176,135.8688 1123.7096,135.4848 C1121.2406,133.6218 1119.6276,130.9838 1119.0216,127.9588 C1118.8956,127.3288 1117.9316,127.5958 1118.0576,128.2248" id="Fill-135" fill="#1D1E1B"></path>
                <path d="M1124.2617,133.4235 C1124.9047,133.4235 1124.9067,132.4235 1124.2617,132.4235 C1123.6177,132.4235 1123.6167,133.4235 1124.2617,133.4235" id="Fill-137" fill="#1D1E1B"></path>
                <path d="M1153.1226,120.6769 C1149.4996,122.3119 1146.3666,124.6849 1143.8076,127.7259 C1143.3956,128.2149 1144.1006,128.9259 1144.5156,128.4329 C1147.0226,125.4529 1150.0786,123.1429 1153.6266,121.5409 C1154.2126,121.2759 1153.7056,120.4139 1153.1226,120.6769" id="Fill-139" fill="#1D1E1B"></path>
                <path d="M1108.8496,129.421 C1097.4116,129.344 1085.9846,129.824 1074.5936,130.86 C1073.9576,130.918 1073.9516,131.919 1074.5936,131.86 C1085.9846,130.824 1097.4116,130.344 1108.8496,130.421 C1109.4936,130.425 1109.4946,129.425 1108.8496,129.421" id="Fill-141" fill="#1D1E1B"></path>
                <path d="M1056.3975,101.7326 L1054.3745,101.7326 C1053.7305,101.7326 1053.7295,102.7326 1054.3745,102.7326 L1056.3975,102.7326 C1057.0405,102.7326 1057.0425,101.7326 1056.3975,101.7326" id="Fill-143" fill="#1D1E1B"></path>
                <path d="M1127.6226,82.2995 C1125.7546,84.7375 1123.8866,87.1765 1122.0186,89.6145 C1121.6276,90.1255 1122.4966,90.6245 1122.8826,90.1195 C1124.7506,87.6815 1126.6186,85.2425 1128.4856,82.8035 C1128.8766,82.2935 1128.0086,81.7945 1127.6226,82.2995" id="Fill-145" fill="#1D1E1B"></path>
                <path d="M1125.2617,90.6857 C1125.9047,90.6857 1125.9067,89.6857 1125.2617,89.6857 C1124.6177,89.6857 1124.6167,90.6857 1125.2617,90.6857" id="Fill-147" fill="#1D1E1B"></path>
                <path d="M1002.2695,97.5558 C941.0745,99.9638 879.8075,100.2908 818.6065,97.8728 C759.3505,95.5318 700.2315,90.6468 641.2745,84.3208 C623.5465,82.4178 605.8325,80.3908 588.1285,78.2778 C570.0335,76.1168 551.7635,73.0898 533.4875,74.3088 C532.8495,74.3518 532.8445,75.3518 533.4875,75.3088 C549.8255,74.2198 566.0935,76.6248 582.2745,78.5748 C598.2055,80.4948 614.1445,82.3468 630.0945,84.1038 C660.2555,87.4278 690.4545,90.4138 720.6985,92.8808 C779.2255,97.6528 837.9055,100.3378 896.6285,100.5448 C931.8525,100.6688 967.0745,99.9408 1002.2695,98.5558 C1002.9105,98.5308 1002.9145,97.5308 1002.2695,97.5558" id="Fill-149" fill="#1D1E1B"></path>
                <path d="M513.6426,144.424 C580.8106,147.216 648.0266,148.859 715.2526,149.225 C781.6106,149.588 847.9746,148.712 914.3006,146.628 C952.2956,145.435 990.2766,143.844 1028.2396,141.892 C1028.8796,141.859 1028.8836,140.859 1028.2396,140.892 C961.1016,144.345 893.9056,146.649 826.6866,147.677 C760.3356,148.692 693.9656,148.469 627.6216,147.039 C589.6186,146.219 551.6226,145.003 513.6426,143.424 C512.9986,143.397 513.0006,144.397 513.6426,144.424" id="Fill-151" fill="#1D1E1B"></path>
                <path d="M533.5708,127.4791 C568.0138,128.6281 602.4568,129.7781 636.9008,130.9271 C637.5438,130.9491 637.5438,129.9491 636.9008,129.9271 C602.4568,128.7781 568.0138,127.6281 533.5708,126.4791 C532.9268,126.4581 532.9278,127.4581 533.5708,127.4791" id="Fill-153" fill="#1D1E1B"></path>
                <path d="M596.9043,113.4831 C602.2553,113.2931 607.5873,113.5151 612.9043,114.1501 C613.5423,114.2261 613.5363,113.2251 612.9043,113.1501 C607.5873,112.5151 602.2553,112.2931 596.9043,112.4831 C596.2623,112.5061 596.2593,113.5061 596.9043,113.4831" id="Fill-155" fill="#1D1E1B"></path>
                <path d="M666.9043,100.1501 C672.0333,99.9591 677.0823,100.3921 682.1043,101.4651 C682.7323,101.6001 683.0003,100.6361 682.3703,100.5011 C677.2703,99.4111 672.1163,98.9561 666.9043,99.1501 C666.2623,99.1731 666.2593,100.1741 666.9043,100.1501" id="Fill-157" fill="#1D1E1B"></path>
                <path d="M889.5708,134.15 L900.9038,134.15 C901.5478,134.15 901.5488,133.15 900.9038,133.15 L889.5708,133.15 C888.9268,133.15 888.9258,134.15 889.5708,134.15" id="Fill-159" fill="#1D1E1B"></path>
                <path d="M1185.4897,28.9147 C1186.8227,28.0817 1188.1567,27.2477 1189.4897,26.4147 C1190.0337,26.0747 1189.5327,25.2087 1188.9847,25.5517 C1187.6517,26.3847 1186.3187,27.2177 1184.9847,28.0517 C1184.4407,28.3917 1184.9417,29.2577 1185.4897,28.9147" id="Fill-161" fill="#1D1E1B"></path>
                <path d="M1175.7197,9.1164 C1176.3787,6.2704 1176.7187,3.4054 1176.7377,0.4834 C1176.7417,-0.1606 1175.7417,-0.1606 1175.7377,0.4834 C1175.7197,3.3134 1175.3947,6.0924 1174.7557,8.8504 C1174.6107,9.4764 1175.5737,9.7434 1175.7197,9.1164" id="Fill-163" fill="#1D1E1B"></path>
                <path d="M1154.2197,18.8503 C1153.7197,17.5173 1153.2197,16.1833 1152.7197,14.8503 C1152.4957,14.2533 1151.5287,14.5123 1151.7557,15.1163 C1152.2557,16.4493 1152.7557,17.7833 1153.2557,19.1163 C1153.4787,19.7133 1154.4467,19.4543 1154.2197,18.8503" id="Fill-165" fill="#1D1E1B"></path>
                <path d="M1128.7476,39.9826 C1128.6416,38.5926 1127.7126,37.4146 1126.3626,37.0306 C1125.7426,36.8546 1125.4776,37.8196 1126.0976,37.9956 C1126.9976,38.2516 1127.6756,39.0406 1127.7476,39.9826 C1127.7966,40.6206 1128.7966,40.6256 1128.7476,39.9826" id="Fill-167" fill="#1D1E1B"></path>
                <path d="M1078.8682,86.4499 C1081.8682,85.9839 1084.5292,84.5609 1086.5972,82.3429 C1087.0352,81.8719 1086.3302,81.1629 1085.8902,81.6359 C1083.9262,83.7419 1081.4462,85.0439 1078.6022,85.4859 C1077.9682,85.5839 1078.2382,86.5479 1078.8682,86.4499" id="Fill-169" fill="#1D1E1B"></path>
                <path d="M1195.3721,138.4762 C1195.4451,140.6302 1195.0561,142.7012 1194.1711,144.6672 C1193.9091,145.2492 1194.7701,145.7582 1195.0341,145.1722 C1195.9941,143.0422 1196.4521,140.8122 1196.3721,138.4762 C1196.3501,137.8342 1195.3501,137.8312 1195.3721,138.4762" id="Fill-171" fill="#1D1E1B"></path>
                <g id="Group-175" transform="translate(1200.000000, 138.971000)">
                    <mask id="mask-2" fill="white">
                        <use xlink:href="#path-1"></use>
                    </mask>
                    <g id="Clip-174"></g>
                    <path d="M0.8555,1.013 C0.8485,2.346 0.8405,3.68 0.8345,5.013 C0.8305,5.656 1.8305,5.657 1.8345,5.013 C1.8405,3.68 1.8485,2.346 1.8555,1.013 C1.8585,0.369 0.8585,0.368 0.8555,1.013" id="Fill-173" fill="#1D1E1B" mask="url(#mask-2)"></path>
                </g>
                <path d="M1038.979,194.4621 C1019.259,193.6251 998.505,197.9481 978.776,198.0301 C978.01,198.0341 977.25,197.9381 976.499,197.8011 C971.996,196.9821 949.638,196.3691 947.979,196.2521 C909.869,193.5661 897.917,200.2521 859.986,200.9521 C840.528,201.3111 821.135,199.5371 801.777,198.0391 C782.278,196.5301 762.863,195.7401 743.29,196.2951 C704.322,197.3991 665.359,200.0341 626.438,202.0201 C607.026,203.0101 587.393,204.8581 567.946,204.8061 C558.607,204.7801 549.912,202.0991 540.689,201.3201 C531.132,200.5121 521.583,202.3651 512.11,203.2111 C490.213,205.1661 468.299,204.3521 446.577,201.3531 C432.72,199.4391 418.594,197.3081 404.647,197.9761 C384.749,196.4591 364.778,196.9981 344.777,197.7971 C317.862,198.8721 290.981,199.2741 264.048,198.7391 C210.049,197.6691 156.143,193.9471 102.144,192.8761 C71.896,192.2751 41.628,192.5461 11.431,194.5091 C5.933,194.8661 3.572,199.9541 4.375,204.1101 C4.331,204.1991 4.281,204.2781 4.239,204.3711 C-1.125,215.9591 -1.467,228.6651 3.606,240.1761 C2.242,244.5911 4.509,250.1751 10.452,249.9651 C124.146,245.9441 237.868,242.7571 351.608,240.4221 C383.535,239.7671 415.464,239.1791 447.393,238.6561 C449.057,238.6291 450.427,238.1521 451.518,237.3961 C456.387,237.3231 461.255,237.2171 466.122,237.0851 C483.423,236.6171 500.718,235.8841 518.029,235.7181 C526.508,235.6371 534.989,235.6911 543.462,235.9791 C552.156,236.2741 559.963,232.4021 568.663,232.6701 C580.789,233.0421 587.162,232.5281 593.271,230.6521 C594.572,230.2531 595.934,230.0111 597.31,229.9631 C625.538,228.9971 643.93,230.3071 671.598,226.3561 C673.584,226.0721 675.593,225.9301 677.604,225.9041 C710.383,225.4831 743.207,225.1771 775.907,223.5361 C784.201,223.1191 792.464,222.4581 800.713,221.6851 C814.505,221.0401 828.271,219.1141 841.964,217.8361 C856.906,216.4411 871.873,215.3021 886.854,214.3201 C889.893,214.2621 892.934,214.2291 895.982,214.2551 C940.188,214.6311 986.02,219.1011 1029.393,208.7911 C1030.208,208.5971 1030.904,208.3091 1031.491,207.9491 C1033.626,207.3981 1036.826,206.5711 1038.961,206.0201 C1047.332,205.6561 1047.364,194.8181 1038.979,194.4621" id="Fill-176" fill="#F2F2F2"></path>
                <path d="M18.7237,72.8673 C86.2457,74.1523 153.7747,75.4363 221.3117,75.4023 C255.2447,75.3853 289.1777,75.0353 323.0997,74.1853 C355.9827,73.3613 388.8447,71.9023 421.7367,71.4593 C459.0307,70.9563 496.3557,71.6693 533.5257,74.9273 C534.1667,74.9833 534.1627,73.9823 533.5257,73.9273 C467.5497,68.1453 401.5087,70.9563 335.4357,72.8533 C267.9327,74.7913 200.3897,74.6683 132.8697,73.8033 C94.8187,73.3153 56.7707,72.5913 18.7237,71.8673 C18.0797,71.8553 18.0797,72.8553 18.7237,72.8673" id="Fill-178" fill="#1D1E1B"></path>
                <path d="M10.3477,169.8644 C49.9837,161.5214 90.6417,161.3454 130.9617,162.1844 C171.2447,163.0224 211.6587,164.7804 251.8157,160.4624 C271.6967,158.3244 291.4377,155.0584 311.3427,153.1234 C325.2227,151.7754 339.1267,150.6574 353.0367,149.6574 C383.1077,147.4954 413.2227,145.8584 443.3517,144.7634 C465.2347,143.9694 487.3277,142.9554 509.2167,144.1144 C510.6937,144.1924 512.1697,144.2904 513.6427,144.4244 C514.2837,144.4814 514.2797,143.4814 513.6427,143.4244 C505.7567,142.7114 497.7897,142.7314 489.8797,142.7404 C477.7227,142.7564 465.5657,143.0424 453.4157,143.4234 C423.4387,144.3624 393.4747,145.9094 363.5517,147.9254 C349.0727,148.9014 334.5987,149.9954 320.1447,151.3004 C301.8627,152.9494 283.7177,155.4994 265.5147,157.8314 C245.3487,160.4144 225.1427,161.8554 204.8147,162.1774 C184.5677,162.4994 164.3207,161.9664 144.0797,161.4824 C104.3017,160.5314 64.2167,159.7404 24.8047,166.1494 C19.8757,166.9504 14.9687,167.8714 10.0817,168.9004 C9.4527,169.0324 9.7187,169.9964 10.3477,169.8644" id="Fill-180" fill="#1D1E1B"></path>
                <path d="M36.7652,148.5163 C60.7142,144.1503 85.0372,142.1663 109.3772,142.5813 C110.0212,142.5923 110.0212,141.5923 109.3772,141.5813 C84.9482,141.1653 60.5362,143.1693 36.4992,147.5523 C35.8672,147.6673 36.1352,148.6313 36.7652,148.5163" id="Fill-182" fill="#1D1E1B"></path>
                <path d="M104.0391,138.2355 C107.8171,137.7915 111.5951,137.3475 115.3721,136.9035 C116.0041,136.8295 116.0111,135.8285 115.3721,135.9035 C111.5951,136.3475 107.8171,136.7915 104.0391,137.2355 C103.4071,137.3095 103.4001,138.3105 104.0391,138.2355" id="Fill-184" fill="#1D1E1B"></path>
                <path d="M271.3833,84.2863 C285.1543,84.8533 298.9343,85.0913 312.7153,85.0013 C313.3593,84.9963 313.3603,83.9963 312.7153,84.0013 C298.9343,84.0913 285.1543,83.8533 271.3833,83.2863 C270.7403,83.2603 270.7413,84.2603 271.3833,84.2863" id="Fill-186" fill="#1D1E1B"></path>
                <path d="M316.0489,83.653 L320.7159,83.653 C321.3589,83.653 321.3599,82.653 320.7159,82.653 L316.0489,82.653 C315.4049,82.653 315.4039,83.653 316.0489,83.653" id="Fill-188" fill="#1D1E1B"></path>
            </g>
        </g>
    </g>
</svg>