<svg xmlns="http://www.w3.org/2000/svg" width="90" height="45"><g fill="#ABA9A8" fill-rule="nonzero"><path d="M27.584 25.25c-.087-.001-.173-.006-.26-.016-.455-.05-.838-.13-1.075-.424a1.399 1.399 0 0 1-.263-1.143c.12-.61.649-.806 1.094-1.005.236-.104.487-.195.69-.269l.252-.093c.21-.064.409-.16.59-.286.102-.082.149-.32.129-.466-.026-.185-.19-.599-.626-.598-.748 0-.926.631-1.03.999l-.832-.333c.283-.677 1.01-1.141 1.825-1.141.274-.003.547.05.8.155.674.288.97.736.935 1.515v1.701c0 .244 0 .801.19.929a.3.3 0 0 0 .344 0v.155a.444.444 0 0 1-.417.242 1.028 1.028 0 0 1-.44-.106 1.187 1.187 0 0 1-.508-.443c-.348.41-.861.64-1.398.626zm1.187-2.797a3.668 3.668 0 0 1-.526.24 4.954 4.954 0 0 0-.2.082c-.347.15-.65.389-.878.69a.906.906 0 0 0-.077.83.699.699 0 0 0 .672.401c.508 0 .898-.26 1.033-.64a6.188 6.188 0 0 1-.023-.555l-.001-1.047zM65.726 25.252c-1.083 0-1.68-.512-1.68-1.643v-3.05h1.012v3.042c0 .812.49 1.016.856 1.016.444 0 .854-.165 1.046-.595V20.56h1.017v4.604h-1.011v-.52c-.32.325-.745.608-1.24.608zM30.783 25.165V20.56h1.01v.652c.377-.407.823-.682 1.45-.672v.964a1.48 1.48 0 0 0-.456-.077c-.427 0-.79.045-.993.386v3.353h-1.011zM24.443 25.165v-2.637c0-.666-.095-.909-.24-1.066-.144-.158-.361-.343-.634-.343-.555 0-.968.159-1.165.65v3.396h-1.011v-7.07h1.01v3.03c.333-.343.788-.642 1.317-.642.529 0 .977.051 1.27.346.332.333.464.798.464 1.604v2.732h-1.011zM33.77 18.094h1.012v7.07H33.77zM37.676 25.252c-1.462 0-2.44-.895-2.44-2.392 0-1.496.982-2.383 2.44-2.383 1.459 0 2.44.887 2.44 2.383.005 1.474-1 2.392-2.44 2.392zm0-4.297c-.926 0-1.41 1.014-1.41 1.905 0 .892.484 1.914 1.41 1.914.535 0 .86-.41 1.038-.666.249-.37.379-.806.373-1.251 0-.888-.485-1.901-1.41-1.901v-.001zM44.748 25.252c-.748 0-1.195-.333-1.195-1.084v-3.124h-.88c-.184 0-.377 0-.613.012v3.014c0 .435.13.593.406.594a1.39 1.39 0 0 0 .76-.204l.151.192c-.322.406-.672.595-1.135.595-.748 0-1.194-.333-1.194-1.082v-3.072c-.466.02-.804.041-.876.047l-.333.032.438-.614h.769v-.823l1.013-.914v1.738h1.492v-.824l1.012-.915v1.739h1.425l.333.563-.263-.02a31.814 31.814 0 0 0-1.495-.043v3.016c0 .436.13.585.408.594.27.008.536-.063.765-.204l.15.194c-.323.4-.673.593-1.138.593z"/><path d="M48.544 25.252c-1.427 0-2.385-.922-2.385-2.46 0-1.407.998-2.316 2.376-2.316 1.137 0 1.959.655 2.047 1.794l.027.175h-3.41c0 .178-.006.25-.006.333 0 1.078.592 1.858 1.545 1.858.817 0 1.233-.313 1.494-.571l.197.183c-.434.653-1.021 1.004-1.885 1.004zm1.01-3.291c-.138-.821-.686-1.023-.998-1.023-.666 0-1.035.418-1.22 1.023h2.218zM57.15 18.101h1.012v7.069H57.15zM61.28 25.252a2.17 2.17 0 0 1-1.2-.407v.316H59.07v-7.066h1.011v2.815c.344-.233.763-.416 1.174-.416 1.362 0 2.312.91 2.312 2.37.001 1.495-.913 2.388-2.286 2.388zm-1.2-.839c.302.16.638.245.98.247.922 0 1.472-.74 1.472-1.794s-.548-1.775-1.465-1.775a1.873 1.873 0 0 0-.988.278v3.049l.001-.005zM68.586 20.579l1.01-.025v.658c.333-.357.786-.665 1.348-.665l.513 1.133s-.47-.25-.872-.25c-.43 0-.812.043-.987.395v3.339l-1.01.023V20.58h-.002zM55.25 20.969h1v4.195h-1zM55.202 19.82l.521-.802.524.804-.525.799z"/><path d="M52.49 25.165v-6.51c-.534 0-1.375.018-2.585.066l-.494.019.546-.635h5.868l.062.037.43.608-.444-.028a40.579 40.579 0 0 0-2.347-.069h-.025v6.512h-1.01zM72.293 27.253l.147-.247c.103-.17.718-1.24 1.2-2.238-.12-.268-1.945-4.215-1.945-4.215h1.11l1.341 3.293 1.433-3.29h.846l-.144.305-2.892 6.394h-1.096v-.002zM17.499 25.366c-1.13 0-2.192-.348-2.915-1.148a3.735 3.735 0 0 1 .401-5.414c.71-.59 1.616-.804 2.551-.804 1.177 0 2.272.398 3.067 1.358l-.813.614c-.431-.621-.985-1.158-1.543-1.324a2.551 2.551 0 0 0-.72-.111 2.662 2.662 0 0 0-1.263.34c-.75.422-1.237 1.317-1.403 2.256-.15.973.128 1.963.764 2.713.485.562 1.168.944 1.935.944.157 0 .315-.013.47-.042.793-.145 1.485-.805 1.942-1.621l.99.379c-.687 1.151-2.054 1.86-3.463 1.86z"/></g></svg>