<svg xmlns="http://www.w3.org/2000/svg" width="90" height="45"><path fill="#ABA9A8" fill-rule="evenodd" d="M45.984 22.95a5.258 5.258 0 0 1-1.022.468 5.64 5.64 0 0 1-1.795.287 5.42 5.42 0 0 1-2.148-.426 5.66 5.66 0 0 1-1.763-1.189 5.66 5.66 0 0 1-1.188-1.762 5.42 5.42 0 0 1-.427-2.148c0-.765.142-1.481.427-2.148a5.66 5.66 0 0 1 1.188-1.763 5.66 5.66 0 0 1 1.763-1.188 5.42 5.42 0 0 1 2.148-.427 5.57 5.57 0 0 1 1.803.296c.482.163.93.39 1.343.683.628-.51 1.377-.765 2.248-.765.568 0 1.098.117 1.59.352s.885.56 1.18.976a.717.717 0 0 1 .156.598.776.776 0 0 1-.352.533.747.747 0 0 1-.599.14.791.791 0 0 1-.533-.337 1.505 1.505 0 0 0-.598-.475 1.967 1.967 0 0 0-.844-.18c-.448 0-.831.117-1.148.352-.317.235-.475.505-.475.811 0 .208.079.408.237.599.159.191.375.336.648.434a.77.77 0 0 1 .45.427c.094.207.096.42.009.639a.712.712 0 0 1-.303.369.863.863 0 0 1-.468.14c-.043 0-.09-.003-.139-.009a.41.41 0 0 1-.14-.04c-.59-.23-1.06-.575-1.41-1.034a2.457 2.457 0 0 1-.524-1.525c0-.23.029-.449.086-.658a3.707 3.707 0 0 0-.947-.49 3.852 3.852 0 0 0-1.27-.212 3.69 3.69 0 0 0-1.509.311c-.48.208-.896.486-1.246.836s-.628.76-.836 1.23c-.197.48-.295.99-.295 1.525 0 .535.098 1.038.295 1.508.208.481.486.896.836 1.246s.765.629 1.246.836c.47.208.973.312 1.509.312a3.78 3.78 0 0 0 1.262-.213 4.17 4.17 0 0 0 .978-.497.807.807 0 0 1 .17-.16.786.786 0 0 1 .606-.147c.23.033.41.142.541.328.164.219.405.388.722.508.317.12.694.18 1.131.18.568 0 1.06-.155 1.476-.466.415-.312.623-.675.623-1.09 0-.285-.104-.553-.312-.804a1.94 1.94 0 0 0-.836-.574.77.77 0 0 1-.45-.426.836.836 0 0 1-.025-.64.843.843 0 0 1 .434-.434.815.815 0 0 1 .631-.025c.667.263 1.2.656 1.599 1.18.399.525.598 1.1.598 1.722 0 .448-.098.864-.295 1.246a3.31 3.31 0 0 1-.803 1.009c-.34.29-.733.516-1.18.68-.46.164-.946.246-1.46.246-.71 0-1.336-.115-1.877-.344a3.342 3.342 0 0 1-.716-.41zm8.174 3.23H35.844a.857.857 0 0 1-.17.263.752.752 0 0 1-.574.246h-2.853a.773.773 0 0 1-.565-.238.773.773 0 0 1-.238-.565v-2.82c0-.23.08-.424.238-.582a.828.828 0 0 1 .22-.161v-8.01a.83.83 0 0 1-.22-.167.82.82 0 0 1-.238-.59v-2.853c0-.218.08-.407.238-.565a.773.773 0 0 1 .565-.238h2.82a.835.835 0 0 1 .734.443h18.38a.843.843 0 0 1 .143-.189.773.773 0 0 1 .565-.238h2.853c.23 0 .424.08.582.238a.773.773 0 0 1 .238.566v2.82a.852.852 0 0 1-.525.763v7.967c.1.04.19.1.27.18a.792.792 0 0 1 .239.583v2.853c0 .218-.08.407-.238.565a.792.792 0 0 1-.582.238h-2.82a.773.773 0 0 1-.566-.238.81.81 0 0 1-.182-.27zm.049-.704a.828.828 0 0 1 .133-.172.773.773 0 0 1 .566-.238h2.016v-2.033c0-.23.08-.424.238-.582a.86.86 0 0 1 .156-.125v-8.08a.86.86 0 0 1-.156-.124.792.792 0 0 1-.238-.582v-2H54.89a.773.773 0 0 1-.565-.238.811.811 0 0 1-.16-.222H35.8a.817.817 0 0 1-.15.205.792.792 0 0 1-.583.238h-1.984v2.017a.84.84 0 0 1-.442.761v8.04c.067.037.13.084.188.143a.792.792 0 0 1 .238.582v1.983h2.017c.23 0 .423.08.582.238.058.058.105.121.142.189h18.399zm9.492 7.972v-2.304h-.023a.374.374 0 0 1-.251-.096.307.307 0 0 1-.112-.243.356.356 0 0 1 .363-.35h.023v-.893c0-.09.035-.17.106-.237a.356.356 0 0 1 .257-.102c.093 0 .177.032.251.096a.307.307 0 0 1 .111.243v.892h.223a.356.356 0 0 1 .362.35.315.315 0 0 1-.105.244.368.368 0 0 1-.257.096h-.223v2.395a.382.382 0 0 1-.001-.015 2.094 2.094 0 0 0 .001-.042c0 .015.002.027.006.034.004.008.014.011.03.011.007 0 .015-.003.023-.01.008-.008.012-.02.012-.035 0-.09.035-.17.105-.237a.356.356 0 0 1 .257-.102c.101 0 .185.032.251.096.067.064.1.145.1.243a.696.696 0 0 1-.222.52.732.732 0 0 1-.527.215.752.752 0 0 1-.532-.215.699.699 0 0 1-.205-.336.418.418 0 0 1-.025-.142l.002-.076zm-13.32-2.304h-.023a.374.374 0 0 1-.251-.096.307.307 0 0 1-.111-.243c0-.098.035-.181.105-.249a.356.356 0 0 1 .257-.102h.023v-.892c0-.09.036-.17.106-.237a.356.356 0 0 1 .257-.102c.101 0 .187.032.257.096s.105.145.105.243v.892h.223a.356.356 0 0 1 .362.35.315.315 0 0 1-.105.244.368.368 0 0 1-.257.096h-.223v2.395a.381.381 0 0 1-.001-.015 2.078 2.078 0 0 0 .001-.042c0 .015.002.027.006.034.004.008.014.011.03.011.007 0 .015-.003.023-.01.008-.008.012-.02.012-.035 0-.09.035-.17.105-.237a.356.356 0 0 1 .257-.102c.102 0 .185.032.252.096.066.064.099.145.099.243a.696.696 0 0 1-.222.52.732.732 0 0 1-.526.215.752.752 0 0 1-.533-.215.7.7 0 0 1-.204-.335.418.418 0 0 1-.026-.143l.002-.078v-2.302zm-2.69 3.106c-.49 0-.91-.148-1.256-.446-.347-.297-.52-.66-.52-1.09 0-.09.034-.17.104-.237a.356.356 0 0 1 .258-.102c.101 0 .185.032.251.096s.1.145.1.243c0 .233.105.433.315.599.21.165.46.248.749.248.32 0 .596-.083.83-.248.234-.166.35-.366.35-.6a.67.67 0 0 0-.175-.434 1.041 1.041 0 0 0-.467-.31l-1.123-.43a1.494 1.494 0 0 1-.72-.503 1.212 1.212 0 0 1-.262-.751c0-.384.163-.712.49-.983.328-.271.726-.407 1.194-.407.444 0 .822.134 1.134.401.312.268.468.593.468.978a.32.32 0 0 1-.105.237.356.356 0 0 1-.258.102.353.353 0 0 1-.245-.096.315.315 0 0 1-.106-.243c0-.189-.09-.35-.269-.486a1.059 1.059 0 0 0-.62-.215c-.264 0-.492.07-.683.21-.191.139-.287.302-.287.49 0 .129.047.247.14.356.094.11.223.194.386.255l1.123.429c.335.12.602.307.801.56.199.252.298.528.298.83 0 .436-.183.804-.55 1.101-.366.298-.814.446-1.344.446zm-22.44 0c-.375 0-.73-.067-1.065-.203a2.871 2.871 0 0 1-.877-.576 2.641 2.641 0 0 1-.585-.836 2.47 2.47 0 0 1-.222-1.04c0-.369.07-.715.21-1.039a2.808 2.808 0 0 1 1.474-1.412 2.782 2.782 0 0 1 1.965-.068c.288.098.553.237.795.418a.299.299 0 0 1 .134.22.346.346 0 0 1-.064.255.353.353 0 0 1-.24.13.377.377 0 0 1-.263-.063 2.047 2.047 0 0 0-.59-.31 2.11 2.11 0 0 0-.673-.108c-.561 0-1.04.19-1.438.57-.398.381-.597.846-.597 1.396 0 .542.2 1.006.597 1.39.397.384.877.576 1.438.576.226 0 .447-.034.66-.102.215-.068.412-.17.591-.305a.35.35 0 0 1 .264-.073.313.313 0 0 1 .228.13.336.336 0 0 1-.058.486 2.61 2.61 0 0 1-.79.423 2.83 2.83 0 0 1-.895.141zm8.84 0c-.538 0-.996-.182-1.374-.548a1.778 1.778 0 0 1-.567-1.327c0-.52.189-.964.567-1.333.378-.37.836-.554 1.374-.554a1.978 1.978 0 0 1 1.193.396.336.336 0 0 1 .058.485.313.313 0 0 1-.228.13.377.377 0 0 1-.263-.062 1.189 1.189 0 0 0-.356-.186 1.308 1.308 0 0 0-.404-.062c-.335 0-.624.115-.865.344-.242.23-.363.51-.363.842 0 .324.121.603.363.836.241.234.53.35.865.35.133 0 .265-.02.398-.062.132-.041.253-.103.362-.186a.377.377 0 0 1 .263-.062c.098.01.174.05.228.118a.33.33 0 0 1 .076.26.303.303 0 0 1-.134.226c-.18.128-.37.226-.573.294-.203.068-.41.101-.62.101zm3.532-.01c-.429 0-.797-.15-1.105-.447a1.445 1.445 0 0 1-.462-1.08v-1.84c0-.091.033-.17.1-.238a.337.337 0 0 1 .25-.102c.11 0 .197.032.264.096.066.065.1.145.1.243v1.842c0 .233.083.431.25.593a.836.836 0 0 0 .603.243.85.85 0 0 0 .614-.243.793.793 0 0 0 .251-.593v-1.842c0-.09.033-.17.1-.237a.337.337 0 0 1 .251-.102c.11 0 .197.032.263.096.066.065.1.145.1.243v1.842c0 .414-.154.772-.462 1.073-.308.301-.68.452-1.117.452zm-9.297.01a.353.353 0 0 1-.246-.096.315.315 0 0 1-.105-.243V30.85c0-.09.033-.172.1-.243a.328.328 0 0 1 .25-.107.356.356 0 0 1 .363.35v3.061a.315.315 0 0 1-.105.243.368.368 0 0 1-.257.096zm24.944-3.414c.35-.277.76-.416 1.228-.416.093 0 .175.032.245.097.07.064.106.145.106.242 0 .106-.033.19-.1.255a.347.347 0 0 1-.251.096c-.343 0-.634.116-.871.35a1.131 1.131 0 0 0-.357.836v1.559c0 .098-.037.18-.111.249a.363.363 0 0 1-.503 0 .324.324 0 0 1-.111-.249v-3.05c0-.098.035-.181.105-.249a.356.356 0 0 1 .257-.102c.094 0 .178.034.252.102.074.068.11.15.11.249v.03zm-22.84.064a1.891 1.891 0 0 1 1.229-.423c.093 0 .177.034.251.102.074.067.111.15.111.248s-.035.181-.105.249a.356.356 0 0 1-.257.101c-.336 0-.624.115-.866.345-.241.23-.362.51-.362.842v1.547a.315.315 0 0 1-.105.243.368.368 0 0 1-.258.096.353.353 0 0 1-.245-.096.315.315 0 0 1-.106-.243V30.85c0-.09.034-.172.1-.243a.328.328 0 0 1 .251-.107.356.356 0 0 1 .363.35v.05zm-2.104-.66a.353.353 0 0 1-.246-.096.315.315 0 0 1-.105-.243v-.509c0-.09.033-.171.1-.243a.328.328 0 0 1 .25-.107.356.356 0 0 1 .363.35v.509a.315.315 0 0 1-.105.243.368.368 0 0 1-.257.096zm28.57 3.954c-.539 0-.999-.185-1.38-.554a1.787 1.787 0 0 1-.574-1.333c0-.52.191-.962.573-1.327a1.925 1.925 0 0 1 1.38-.548c.538 0 .996.182 1.374.548.378.365.567.808.567 1.327a.342.342 0 0 1-.362.35h-2.76c.078.241.224.441.439.6.214.157.462.236.742.236.14 0 .283-.024.427-.073.144-.049.271-.122.38-.22a.331.331 0 0 1 .252-.08.35.35 0 0 1 .24.114.322.322 0 0 1-.036.485 1.705 1.705 0 0 1-.59.356c-.223.08-.447.119-.673.119zm-1.182-2.214h2.35a1.214 1.214 0 0 0-.438-.605 1.181 1.181 0 0 0-.73-.243 1.218 1.218 0 0 0-1.182.848zm5.403 2.214c-.538 0-.996-.185-1.374-.554a1.796 1.796 0 0 1-.567-1.333c0-.52.189-.962.567-1.327a1.905 1.905 0 0 1 1.374-.548c.538 0 .996.182 1.374.548.378.365.567.808.567 1.327a.342.342 0 0 1-.35.35h-2.76c.077.241.226.441.444.6.218.157.464.236.737.236a1.254 1.254 0 0 0 .806-.293.37.37 0 0 1 .264-.08.35.35 0 0 1 .24.114c.062.075.089.16.081.254a.33.33 0 0 1-.117.231c-.18.159-.38.277-.602.356-.222.08-.45.119-.684.119zm-1.17-2.214h2.363a1.203 1.203 0 0 0-.445-.605 1.206 1.206 0 0 0-.736-.243 1.218 1.218 0 0 0-1.182.848zm-18.91 2.293a1.7 1.7 0 0 1-.678-.136 1.176 1.176 0 0 1-.503-.395.326.326 0 0 1-.058-.254.318.318 0 0 1 .14-.22.307.307 0 0 1 .258-.068c.101.015.179.06.233.135a.606.606 0 0 0 .252.192.896.896 0 0 0 .357.068.83.83 0 0 0 .48-.135c.132-.09.198-.2.198-.328a.356.356 0 0 0-.1-.237.7.7 0 0 0-.263-.181l-.807-.271h-.011A1.059 1.059 0 0 1 40 32.07a.928.928 0 0 1-.193-.565c0-.279.119-.518.356-.717.238-.2.525-.3.86-.3.21 0 .407.044.59.13.184.087.33.205.439.356.062.083.084.17.064.26a.381.381 0 0 1-.146.226.395.395 0 0 1-.275.056.32.32 0 0 1-.228-.147.461.461 0 0 0-.193-.14.68.68 0 0 0-.263-.052c-.14 0-.259.032-.356.096-.098.064-.147.142-.147.232 0 .06.024.115.07.164.047.049.11.088.188.119l.807.27h.011c.25.099.449.242.597.43a.982.982 0 0 1 .222.621c.015.324-.113.6-.386.825a1.49 1.49 0 0 1-.982.339zm24.477-4.914V29.2h.819v.159h-.316v.756h-.187v-.756h-.316zm1.24-.17l.245.667.234-.656h.269v.938h-.175v-.746l-.27.746h-.151l-.27-.746v.746h-.151V29.2h.269v-.011z"/></svg>