<svg xmlns="http://www.w3.org/2000/svg" xmlns:xlink="http://www.w3.org/1999/xlink" width="90" height="45"><defs><path id="a" d="M3.975.229c.278-.108.579-.162.88-.162.347 0 .695.072 1.009.215 2.045.872 3.317 5.653 3.456 7.326.017.215.026.426.026.633 0 2.013-.833 3.631-2.338 4.498a4.722 4.722 0 0 1-4.9-.137C.506 11.555-.227 9.641.098 7.35.335 5.688 1.884.986 3.976.229zM2.618 11.853a3.755 3.755 0 0 0 2.053.605 3.75 3.75 0 0 0 1.871-.496c.79-.454 2.082-1.616 1.861-4.281-.065-.793-.397-2.307-.97-3.756-.603-1.526-1.31-2.553-1.94-2.82L5.48 1.1a1.54 1.54 0 0 0-1.169-.033l-.014.005c-.644.23-1.41 1.217-2.1 2.707C1.54 5.193 1.12 6.686 1.008 7.474c-.048.34-.07.655-.07.95 0 2.003 1.015 2.994 1.68 3.429zm1.913-6.16a.538.538 0 0 1 .46.013l.015.006c.478.226 1.004 1.046 1.084 2.178.067.937-.223 1.662-.794 1.988a1.257 1.257 0 0 1-1.312-.037c-.46-.298-.708-.861-.708-1.58 0-.144.01-.294.03-.449.146-1.125.72-1.915 1.21-2.113a.2.2 0 0 0 .015-.006z"/></defs><g fill="none" fill-rule="evenodd"><g transform="translate(21.6 15.39)"><mask id="b" fill="#fff"><use xlink:href="#a"/></mask><path fill="#ABA9A8" fill-rule="nonzero" d="M-.153 13.53h9.675V-.105H-.153z" mask="url(#b)"/></g><path fill="#ABA9A8" fill-rule="nonzero" d="M64.478 27.94h1.11v-4.345c0-.263.048-.537.143-.823.095-.285.244-.551.445-.798.202-.247.454-.45.757-.609.303-.159.667-.239 1.093-.239.28 0 .493.028.639.083l.218-1.07a3.074 3.074 0 0 0-.824-.099c-.347 0-.658.047-.933.14a2.623 2.623 0 0 0-.723.37 2.613 2.613 0 0 0-.53.519 2.38 2.38 0 0 0-.335.6h-.034v-1.431h-1.093c.011.56.026 1.015.042 1.366.017.35.025.697.025 1.037v5.3zm-1.65-12.443h-1.11v6.024h-.033a2.863 2.863 0 0 0-.639-.674 3.99 3.99 0 0 0-.773-.461 3.772 3.772 0 0 0-.832-.264 4.536 4.536 0 0 0-2.505.222c-.51.204-.95.486-1.32.848a3.87 3.87 0 0 0-.866 1.284 4.119 4.119 0 0 0-.31 1.613c0 .582.103 1.12.31 1.613.207.494.496.922.866 1.284s.81.645 1.32.847a4.532 4.532 0 0 0 2.505.223c.286-.056.563-.143.832-.264.269-.12.527-.274.773-.46.247-.187.46-.412.64-.675h.033v1.283h1.11V15.497zm-6.968 7.39c.14-.372.339-.696.597-.97.257-.275.568-.491.933-.65a3.061 3.061 0 0 1 1.235-.24c.449 0 .866.08 1.253.24.387.159.72.375 1 .65.28.274.499.598.656.97.157.374.235.774.235 1.202 0 .428-.078.829-.235 1.202a2.94 2.94 0 0 1-.656.97c-.28.275-.613.492-1 .65-.387.16-.804.24-1.253.24-.46 0-.871-.08-1.235-.24a2.799 2.799 0 0 1-.933-.65 2.87 2.87 0 0 1-.597-.97 3.388 3.388 0 0 1-.21-1.202c0-.428.07-.828.21-1.202zm-2.194 1.498v-.493a4.36 4.36 0 0 0-.252-1.49 3.538 3.538 0 0 0-.732-1.218 3.542 3.542 0 0 0-1.185-.831c-.47-.209-1.003-.313-1.597-.313-.56 0-1.082.102-1.564.305a3.87 3.87 0 0 0-1.26.847c-.36.362-.64.79-.841 1.284a4.223 4.223 0 0 0-.303 1.613c0 .582.104 1.12.311 1.613.207.494.49.922.85 1.284.358.362.787.645 1.285.847.499.203 1.04.305 1.623.305.65 0 1.258-.126 1.824-.379.566-.252 1.084-.669 1.555-1.25l-.858-.692c-.224.351-.552.661-.983.93-.432.269-.944.403-1.538.403a2.77 2.77 0 0 1-1.093-.214 2.862 2.862 0 0 1-1.513-1.465 3.245 3.245 0 0 1-.286-1.086h6.557zm-6.523-.888c0-.319.075-.626.227-.922.15-.297.353-.56.605-.79.252-.23.546-.414.882-.552a2.736 2.736 0 0 1 1.043-.205c.807 0 1.434.227 1.883.683.448.455.672 1.05.672 1.786h-5.312zm-2.119.888v-.493a4.36 4.36 0 0 0-.252-1.49 3.543 3.543 0 0 0-.731-1.218 3.544 3.544 0 0 0-1.185-.831c-.471-.209-1.004-.313-1.598-.313a3.99 3.99 0 0 0-1.563.305 3.874 3.874 0 0 0-1.261.847c-.359.362-.639.79-.84 1.284a4.226 4.226 0 0 0-.303 1.613c0 .582.103 1.12.31 1.613.208.494.49.922.85 1.284.358.362.787.645 1.286.847.499.203 1.04.305 1.622.305.65 0 1.258-.126 1.824-.379.566-.252 1.085-.669 1.555-1.25l-.857-.692c-.224.351-.552.661-.983.93-.432.269-.945.403-1.539.403a2.77 2.77 0 0 1-1.093-.214 2.862 2.862 0 0 1-1.513-1.465 3.24 3.24 0 0 1-.285-1.086h6.556zm-6.523-.888c0-.319.076-.626.227-.922a2.77 2.77 0 0 1 .605-.79c.253-.23.547-.414.883-.552a2.735 2.735 0 0 1 1.042-.205c.807 0 1.435.227 1.883.683.449.455.673 1.05.673 1.786H38.5zm-1.412-3.26h-1.866v-1.975a5.6 5.6 0 0 1 .05-.773c.034-.241.101-.453.202-.634.101-.18.246-.32.437-.42.19-.098.437-.148.74-.148.145 0 .291.012.437.034.146.021.286.049.42.082l.202-.988a6.887 6.887 0 0 0-.48-.082 3.606 3.606 0 0 0-.478-.033c-.796 0-1.435.217-1.917.65-.482.434-.723 1.16-.723 2.18v2.108H32.45v.987h1.664v6.715h1.11v-6.715h1.866v-.987z"/></g></svg>