<svg xmlns="http://www.w3.org/2000/svg" width="90" height="45"><g fill="#ABA9A8" fill-rule="nonzero" transform="translate(14 15)"><path d="M5.35848767 6.70203587H3.42101551c-.01371004 0-.02482423.01111418-.02482423.02482423v7.1220213c0 .0137101-.01111419.0248243-.02482423.0248243H1.72300431c-.01371005 0-.02482423-.0111142-.02482423-.0248243V6.7268601c0-.01371005-.01111419-.02482423-.02482424-.02482423H.02482424C.01111418 6.70203587 0 6.69092168 0 6.67721163V5.33585878c0-.01371005.01111419-.02482424.02482423-.02482424h1.64836274c.01371005 0 .02482423-.01111418.02482423-.02482423V3.52267665c0-.5058289.05719143-.97247942.17157428-1.39995156.11438286-.42747213.30109935-.79775285.5601495-1.11084213.25893756-.3129767.59009618-.55986804.99347587-.74067401.40337969-.18080597.89412266-.2708712 1.47222891-.27019572.39977708 0 .7480481.0402479 1.04481306.12074372.0121172.00328597.0198735.01510164.01806934.02752618l-.19200783 1.41363022c-.00097393.0070325-.0049123.01331146-.01081955.01724962-.00590724.00393816-.01321796.0051586-.02008409.0033528-.1238397-.03287381-.24722908-.06051258-.37016813-.08291631a2.55166051 2.55166051 0 0 0-.45156459-.03613868c-.32513551 0-.58705648.05719143-.78576292.17157428-.19274554.10861548-.35206821.26793815-.46068369.4606837-.11221218.20431065-.18572258.4275899-.21683207.65860205a5.30056462 5.30056462 0 0 0-.05420801.76769358v1.76319592c0 .01371005.01111419.02482423.02482423.02482423h1.93747216c.01371004 0 .02482423.01111419.02482423.02482424v1.34135285c0 .01371005-.01111419.02482424-.02482423.02482424zM9.40973469 2.5547005c0 .31331444-.11055509.57225201-.33166525.77681268-.22111016.20456067-.48691519.30695359-.7974151.30717875-.31049991 0-.57326525-.10537633-.788296-.31612898-.21503076-.21075266-.32254614-.46665052-.32254614-.76769358 0-.31297671.10751538-.57489768.32254614-.78576292.21503075-.21086524.47779609-.31624157.788296-.31612899.31049991 0 .57630494.10537633.7974151.31612899.22111016.21075266.33166525.47261734.33166525.78559405z"/><rect width="1.6980112" height="8.56267112" x="7.44034566" y="5.31103454" rx=".2"/><path d="M13.0105992 5.31103454c.0127207-.00007555.0234399.00947697.0248243.02212228.0225163.21120298.0397975.44762424.0518438.70926375.0112581.25893756.0172812.4765577.0180693.6528604.0000928.01355079.0111042.02448681.0246554.02448649h.0086124c.0126946-.00013404.0242418-.00737548.0298904-.01874483.111975-.22849458.2581552-.43856817.4334953-.62297a3.2040172 3.2040172 0 0 1 .6417148-.5235042c.2475001-.15341827.5149823-.27195831.794882-.35226766.2935586-.0848741.5977179-.12746436.9032981-.12648537.5537886 0 1.029502.0933301 1.42714.27999031.397638.18666021.7288529.43653495.9936447.74962424.2647918.31331445.4605149.68061175.5871691 1.1018919.1266542.42128016.1898688.87290104.1896436 1.35486265v5.2857037c0 .01371-.0111142.0248242-.0248242.0248242h-1.6497137c-.0137101 0-.0248243-.0111142-.0248243-.0248242V9.12265174a5.82609336 5.82609336 0 0 0-.0812275-.99364475c-.0541518-.3129767-.153505-.5899836-.2980597-.8310207-.1448433-.24128189-.3501451-.44058816-.5956127-.57821883-.2528581-.14455471-.5780499-.21683206-.9755754-.21683206-.6745886 0-1.2255627.25589786-1.6529223.76769358-.4273595.51179571-.6412645 1.195222-.6417148 2.05027886v4.52746696c0 .0065838-.0026154.0128979-.0072709.0175534-.0046554.0046554-.0109695.0072708-.0175533.0072708h-1.6478562c-.0065838 0-.0128979-.0026154-.0175533-.0072708-.0046555-.0046555-.0072709-.0109696-.0072709-.0175534V7.15360046c0-.22865313-.0060231-.52372937-.0180693-.88522872-.0112582-.34979087-.0285395-.66000933-.0518438-.93065537-.0005704-.0069119.0017967-.01374441.0065208-.01882204.0047241-.00507764.0113684-.00793078.0183034-.00785979h1.5583538-.0001689zM23.2327786 2.5547005c0 .31331444-.110555.57225201-.3316652.77681268-.2211102.20456067-.4869152.30695359-.7974151.30717875-.3104999 0-.5732652-.10537633-.788296-.31612898-.2150308-.21075266-.3225461-.46665052-.3225461-.76769358 0-.31297671.1075153-.57489768.3225461-.78576292.2150308-.21086524.4777961-.31624157.788296-.31612899.3104999 0 .5763049.10537633.7974151.31612899.2211102.21075266.3316652.47261734.3316652.78559405z"/><rect width="1.6980112" height="8.56267112" x="21.2637274" y="5.31103454" rx=".2"/><path d="M27.915777 5.55454843c.4756571-.31894352 1.0385648-.47852787 1.6887233-.47875303.5781062 0 1.0989647.13245219 1.5625756.39735657.4515645.25826208.809011.68224419 1.0723392 1.27194634.0038369.00867657.0122835.01440757.0217638.01476667.0094803.0003591.0183362-.0047165.0228185-.01307795.2871955-.53183523.6826382-.94129433 1.1863281-1.22837727.5178751-.29496366 1.0839351-.44250178 1.69818-.44261436.5537887 0 1.029502.0933301 1.42714.27999031.3976381.18666021.728853.43653495.9936448.74962424.2647918.31331445.4605148.68061175.587169 1.1018919.1266543.42128016.1898688.87290104.1896437 1.35486265v5.2857037c0 .01371-.0111142.0248242-.0248243.0248242H36.692916c-.0137101 0-.0248242-.0111142-.0248242-.0248242V9.12265174a5.26477404 5.26477404 0 0 0-.0903467-.99364475c-.0603437-.3129767-.1626804-.5899836-.3070099-.8310207-.1415422-.23785656-.3402348-.43660719-.57805-.57821883-.2410371-.14455471-.5481595-.21683206-.9213674-.21683206-.3855918 0-.7168067.08128388-.9936447.24385163-.2707826.1566933-.502401.3728935-.6773469.63225798-.1780717.26685929-.3065571.5636456-.3792872.87610961a4.22180531 4.22180531 0 0 0-.1182107.99364474v4.60008204c0 .0137101-.0111141.0248243-.0248242.0248243h-1.6483627c-.0137101 0-.0248243-.0111142-.0248243-.0248243V8.78000979a4.35302173 4.35302173 0 0 0-.0903467-.92136739c-.0603437-.27695061-.1626803-.51483542-.3070098-.71365443-.1458376-.19961715-.3380156-.36078938-.5599807-.46963393-.2288782-.11427027-.5119083-.1714617-.84909-.17157428-.6262912 0-1.1471497.25589786-1.5625756.76769358-.4154259.51179572-.6231952 1.19522201-.6233077 2.05027887v4.52746699c0 .01371-.0111142.0248242-.0248243.0248242h-1.6483627c-.0137101 0-.0248242-.0111142-.0248242-.0248242V7.15360046c0-.22865313-.0060232-.52372937-.0180694-.88522872-.0112581-.34979087-.0285394-.66000933-.0518438-.93065537-.0005704-.0069119.0017967-.01374441.0065208-.01882204.0047242-.00507764.0113684-.00793078.0183034-.00785979h1.5583538c.0127207-.00007555.0234399.00947697.0248243.02212228.0225163.21120298.0397975.44762424.0518438.70926375.0112581.25893756.0172812.4765577.0180693.6528604-1e-7.00656837.0026206.01286529.007281.01749395.0046604.00462866.010975.0072064.0175432.00716141h.0086125c.0126946-.00013404.0242417-.00737547.0298904-.01874483.2175076-.44920037.560825-.83141473 1.0299523-1.14664307zM42.2608053 2.5547005c0 .31331444-.110555.57225201-.3316652.77681268-.2211102.20456067-.4869152.30695359-.7974151.30717875-.3104999 0-.5732653-.10537633-.788296-.31612898-.2150308-.21075266-.3225461-.46665052-.3225461-.76769358 0-.31297671.1075153-.57489768.3225461-.78576292.2150307-.21086524.4777961-.31624157.788296-.31612899.3104999 0 .5763049.10537633.7974151.31612899.2211102.21075266.3316652.47261734.3316652.78559405z"/><rect width="1.69818008" height="8.56267112" x="40.2917541" y="5.31103454" rx=".2"/><path d="M50.7370138 6.70895963l-4.836841 5.69673897c-.0062445.0073735-.007643.0177004-.0035847.0264693.0040583.0087688.012836.014386.0224984.0143978h4.9977763c.0137101 0 .0248243.0111141.0248243.0248242v1.3773227c0 .01371-.0111142.0248242-.0248243.0248242h-7.1220213c-.0065838 0-.0128979-.0026154-.0175534-.0072709-.0046554-.0046554-.0072708-.0109695-.0072708-.0175533v-1.3568892c-.0000389-.0058575.0019949-.0115401.0057416-.0160428l4.8013779-5.73287763c.0062644-.00739686.0076505-.01776336.0035494-.02654616-.004101-.0087828-.012939-.01437525-.022632-.01432094h-4.5283113c-.01371 0-.0248242-.01111419-.0248242-.02482424V5.33585878c0-.01371005.0111142-.02482424.0248242-.02482424h6.6883572c.0137101 0 .0248243.01111419.0248243.02482424v1.35705798c-.0000085.00587878-.0021029.0115638-.0059106.01604287zM60.0207698 9.48572723v.28708295a2.33383416 2.33383416 0 0 1-.0153674.26479182c-.001457.012514-.0120568.0219522-.0246554.0219534h-6.7092974c-.0067631-.0000057-.0132358.0027484-.0179215.0076253-.0046857.004877-.0071787.0114546-.0069027.0182121.0130481.3394539.0950387.6727021.2409808.9794595.1453901.3092344.3493179.58737.60051.8190308.5234216.4790006 1.2083806.7427433 1.917883.7384786.5741659 0 1.0700876-.1254721 1.4877651-.3764164.4095717-.2457655.7332436-.5431496.9710159-.8921524.0038286-.0056778.0098598-.0094929.0166304-.0105197.0067706-.0010268.0136618.0008285.0190016.0051157l1.1434345.9183277c.0101189.0083695.0119691.0231718.0042218.0337745-.4511142.5924041-.9809793 1.0293331-1.5895951 1.310787-.6155959.2842684-1.299754.4264589-2.0524742.4265715-.6453175 0-1.2427878-.1075717-1.7924109-.3227151-.5496231-.2151433-1.0216212-.5168618-1.4159944-.9051556-.3940354-.3881812-.7047042-.8571959-.9320063-1.4070442-.2273022-.5498483-.3408407-1.159027-.3406155-1.82753627 0-.65702591.1107239-1.26350271.3321718-1.8194304.2214479-.55592769.5298088-1.03079666.9250826-1.42460691.3951613-.39403542.8623747-.70172079 1.4016403-.92305612.5392656-.22133532 1.1200175-.3318904 1.7422558-.33166524.6225759 0 1.1884108.10132339 1.6975045.30397018.5090938.20264679.9402248.49535881 1.2933932.87813608.3530557.38288984.6252779.84616292.8166665 1.38981921.1913886.5436563.287083 1.15604363.287083 1.837162zm-1.6939583-.65201604c.0068079.0000056.0133235-.00276622.0180409-.00767483.0047174-.00490861.0072282-.01152917.0069522-.0183315-.0114871-.31420863-.0687758-.6250581-.1700544-.92271837-.0960722-.28425339-.2498032-.54560764-.4515646-.76769358-.1987065-.21671948-.4455978-.38835005-.740674-.51489171-.2950763-.12654167-.6412645-.18969991-1.0385648-.18947475-.349188-.00229271-.6956055.06207309-1.0206643.18964362-.306544.11860359-.5883459.29320513-.8310207.51489171-.2369031.21937162-.4327177.47929497-.5782189.76752471-.1465539.28697448-.2348814.60010928-.2598945.92136739-.0005672.00697211.0018134.01386284.0065634.01899797s.0114346.00804463.0184297.0080216h5.0411766l-.0005066.00033774zM62.9591482 13.0296818c0 .3133144-.1105551.572252-.3316653.7768127-.2211101.2045606-.4869152.3069536-.7974151.3071787-.3104999 0-.5732652-.1053763-.788296-.316129-.2150307-.2107526-.3225461-.4666505-.3225461-.7676935 0-.3129767.1075154-.5748977.3225461-.785763.2150308-.2108652.4777961-.3162415.788296-.3161289.3104999 0 .576305.1053763.7974151.3161289.2211102.2107527.3316653.4726174.3316653.7855941z"/></g></svg>