<svg xmlns="http://www.w3.org/2000/svg" width="90" height="45"><g fill="#ABA9A8" fill-rule="nonzero"><path d="M29.814 20.575h4.402l-.01 1.146h-3.01v1.505h2.766v1.155h-2.765V26.7h-1.383v-6.125zm9.761 1.418V26.7h-1.339v-.831c-.32.589-.846.883-1.575.883-.519 0-.932-.161-1.238-.485-.306-.324-.46-.763-.46-1.317v-2.957h1.348v2.572c0 .298.079.53.236.7.158.17.374.254.648.254.32-.006.575-.12.761-.342.187-.221.28-.507.28-.857v-2.328h1.339zm4.388-.053c.525 0 .944.163 1.256.49.312.327.468.764.468 1.313V26.7h-1.348v-2.564c0-.297-.083-.532-.249-.704-.166-.172-.392-.258-.678-.258-.333.006-.595.12-.788.345-.192.225-.288.512-.288.862V26.7h-1.348v-4.708h1.348v.823c.326-.572.869-.863 1.627-.875zm7.643-1.733V26.7h-1.339v-.691c-.169.245-.379.43-.63.555-.25.126-.536.188-.857.188-.443 0-.833-.1-1.168-.301a2.026 2.026 0 0 1-.779-.854 2.8 2.8 0 0 1-.276-1.268c0-.473.09-.89.272-1.252a1.99 1.99 0 0 1 .77-.84 2.194 2.194 0 0 1 1.146-.297c.665 0 1.172.248 1.523.744v-2.477h1.338zm-2.511 5.46c.344 0 .626-.12.844-.363.22-.242.328-.555.328-.94 0-.385-.109-.699-.328-.94a1.086 1.086 0 0 0-.844-.364c-.35 0-.634.121-.853.363-.219.242-.331.556-.337.94.006.386.118.7.337.941.219.242.503.363.853.363zm6.934-2.292a3.924 3.924 0 0 0-.76-.337 2.278 2.278 0 0 0-.675-.118.772.772 0 0 0-.393.087.285.285 0 0 0-.15.263c0 .128.068.227.202.297.134.07.353.15.656.237.333.099.607.197.823.293.216.096.402.239.56.429.157.19.236.439.236.748 0 .466-.18.83-.538 1.09-.359.259-.818.388-1.378.388-.385 0-.756-.056-1.111-.17a2.864 2.864 0 0 1-.928-.486l.438-.91c.239.187.506.331.8.433.295.102.573.153.836.153.18 0 .325-.03.433-.091a.298.298 0 0 0 .162-.276c0-.134-.069-.24-.206-.315a3.438 3.438 0 0 0-.66-.245 6.683 6.683 0 0 1-.801-.28 1.427 1.427 0 0 1-.547-.424c-.152-.19-.227-.436-.227-.74 0-.466.175-.828.525-1.085.35-.256.793-.385 1.33-.385.32 0 .641.045.962.136.321.09.613.22.875.39l-.464.918zm4.423 3.062a2.202 2.202 0 0 1-.581.241 2.544 2.544 0 0 1-.644.083c-.437 0-.793-.125-1.067-.376-.274-.25-.411-.61-.411-1.076V23.13h-.657v-.928h.657v-1.295h1.338v1.295h1.278v.937h-1.278v1.942c0 .362.143.543.43.543.198 0 .416-.059.655-.175l.28.988zm3.654.263v-.551a1.51 1.51 0 0 1-.613.455c-.25.105-.54.157-.866.157-.496 0-.89-.135-1.181-.407-.292-.27-.438-.625-.438-1.063 0-.443.156-.789.468-1.037.312-.248.754-.374 1.326-.38h1.295v-.088c0-.25-.083-.445-.25-.582-.166-.137-.41-.205-.73-.205-.438 0-.904.137-1.4.411l-.42-.928a5.626 5.626 0 0 1 1.05-.41 4.153 4.153 0 0 1 1.076-.132c.63 0 1.119.149 1.466.446.347.298.523.712.53 1.243l.008 3.071h-1.321zm-1.103-.901c.28 0 .522-.067.726-.202.205-.134.327-.303.368-.507v-.42h-1.059c-.262 0-.456.042-.582.127-.125.084-.188.22-.188.407 0 .18.066.325.197.433.131.108.31.162.538.162zm6.838-2.205a1.285 1.285 0 0 0-1.05-.499c-.338 0-.614.115-.827.346-.213.23-.319.535-.319.914 0 .38.105.687.315.923.21.236.478.354.805.354.49 0 .855-.183 1.094-.55l.927.63c-.198.332-.477.588-.835.77-.36.18-.778.27-1.256.27-.473 0-.89-.099-1.251-.297a2.108 2.108 0 0 1-.845-.84 2.53 2.53 0 0 1-.302-1.251c0-.479.101-.9.302-1.265.202-.364.485-.647.85-.848.364-.202.785-.302 1.263-.302.45 0 .85.086 1.2.258.35.172.63.415.84.73l-.91.657zm5.027 3.106l-1.137-1.916-.604.638V26.7h-1.348v-6.492h1.348v3.57L74.85 22h1.53l-1.723 1.811 1.803 2.888h-1.593zM25.264 24.75a.811.811 0 0 1-.292 1.173l-4.376 2.317a1.97 1.97 0 0 1-1.842.001l-4.366-2.304a.812.812 0 0 1-.313-1.142c.072.106.171.197.293.261l4.366 2.304a1.97 1.97 0 0 0 1.842-.001l4.376-2.317a.812.812 0 0 0 .312-.292z"/><path d="M25.266 23.328a.811.811 0 0 1-.294 1.171l-4.376 2.318a1.97 1.97 0 0 1-1.842 0l-4.366-2.303a.812.812 0 0 1-.314-1.14.808.808 0 0 0 .294.263l4.366 2.304a1.97 1.97 0 0 0 1.842 0l4.376-2.318a.812.812 0 0 0 .314-.295z"/><path d="M14.367 21.635l4.376-2.317a1.97 1.97 0 0 1 1.842-.002l4.366 2.304a.812.812 0 0 1 .001 1.435l-4.376 2.318a1.97 1.97 0 0 1-1.842 0l-4.366-2.303a.812.812 0 0 1-.001-1.435z"/></g></svg>