<svg xmlns="http://www.w3.org/2000/svg" width="90" height="45"><g fill="#ABA9A8" fill-rule="evenodd"><path fill-rule="nonzero" d="M19.814 15.975v9.135c0 .847-.265 1.432-.689 1.769.29.23.655.346 1.062.346 1 0 1.75-.686 1.75-2.115v-9.135h-2.123zm-4.198 9.352v-9.352H13.5v9.352c0 2.638 2.048 4.71 4.567 4.71.365 0 .719-.045 1.058-.127-2.01-.485-3.509-2.326-3.509-4.583zM33.356 12.6h.788v20.25h-.788z"/><path d="M42.955 22.576v-2.808h.62v2.808c0 .217.027.408.078.574.052.167.129.307.23.422.101.115.23.203.388.263.158.061.34.091.547.091.207 0 .389-.03.547-.09a.975.975 0 0 0 .388-.264c.1-.115.177-.255.23-.422.05-.166.077-.357.077-.573v-2.809h.62v2.808a2.6 2.6 0 0 1-.13.875 1.463 1.463 0 0 1-.382.597 1.557 1.557 0 0 1-.587.338c-.226.072-.48.107-.763.107-.284 0-.538-.035-.763-.107a1.557 1.557 0 0 1-.587-.338 1.463 1.463 0 0 1-.382-.597 2.6 2.6 0 0 1-.131-.874zm5.447-2.281v-.527h3.861v.527h-1.62v4.117h-.621v-4.117h-1.62zm5.69 4.117V19.77h3.132v.54h-2.51v1.471h1.997v.54h-1.998v1.553h2.565v.54h-3.186zm5.312 0V19.77h.621v4.104h2.268v.54h-2.889zm4.854 0V19.77h.62v4.644h-.62zm2.99 0V19.77h3.132v.54h-2.511v1.471h1.998v.54h-1.998v1.553h2.565v.54h-3.186zm5.312 0V19.77h1.755c.261 0 .493.03.695.09.203.061.373.151.51.27.137.12.24.265.31.436.07.171.105.364.105.58 0 .172-.021.331-.064.48a1.259 1.259 0 0 1-.516.709c-.126.085-.272.15-.439.195l1.181 1.884h-.675l-1.154-1.81h-1.087v1.81h-.62zm1.782-4.103h-1.16v1.755h1.16c.158 0 .297-.024.419-.071a.877.877 0 0 0 .307-.196.792.792 0 0 0 .185-.29 1.04 1.04 0 0 0-.003-.706.722.722 0 0 0-.189-.266.828.828 0 0 0-.307-.17 1.37 1.37 0 0 0-.412-.056z"/></g></svg>