<svg xmlns="http://www.w3.org/2000/svg" width="90" height="45"><path fill="#ABA9A8" fill-rule="nonzero" d="M16.26 26.176L13.5 18h1.592l2.13 6.632L19.361 18h1.432l-2.771 8.176h-1.764zm9.432 0V18h5.118v1.2h-3.595v2.242h2.886v1.143h-2.886v2.39h3.79v1.2h-5.313zm10.384 0V18h1.493l4.1 5.912V18h1.386v8.176h-1.58l-4.014-5.94v5.94h-1.385zm12.226 0V18h2.748c1.798 0 3.057.732 3.057 2.401v.046c0 1.28-.801 1.932-1.82 2.195l2.301 3.534H52.94l-2.142-3.305h-.973v3.305h-1.523zm1.523-4.391h1.225c1.02 0 1.558-.435 1.558-1.304v-.045c0-.938-.584-1.258-1.558-1.258h-1.225v2.607zm9.674 4.39V18h5.118v1.2h-3.595v2.242h2.885v1.143h-2.885v2.39h3.79v1.2h-5.313zm9.856 0l2.634-4.196L69.539 18h1.717l1.74 2.904L74.726 18h1.568l-2.416 3.945 2.622 4.23h-1.74l-1.924-3.19-1.923 3.19h-1.558z"/></svg>