<svg xmlns="http://www.w3.org/2000/svg" xmlns:xlink="http://www.w3.org/1999/xlink" width="237" height="237" viewBox="0 0 237 237">
    <defs>
        <path id="a" d="M11.549 28H.992V.77H11.55V28z"/>
    </defs>
    <g fill="none" fill-rule="evenodd">
        <path fill="#E35205" d="M215.19 116.434c0 7.65-2.021 14.688-3.65 21.847-1.68 7.39-3.844 14.17-7.061 20.837-3.27 6.778-5.207 14.32-9.857 20.142-4.671 5.85-10.13 11.256-15.98 15.928-5.821 4.648-12.346 8.676-19.124 11.945-6.668 3.217-13.81 6.094-21.201 7.774-7.158 1.627-14.826 1.355-22.476 1.355-7.65 0-14.892-1.605-22.05-3.232-7.391-1.68-15.396-1.776-22.064-4.992-6.778-3.27-12.637-8.49-18.46-13.139-5.85-4.67-10.126-10.916-14.797-16.767-4.65-5.822-7.73-12.367-11-19.144-3.216-6.668-7.032-13.003-8.713-20.394-1.627-7.157-2.608-14.51-2.608-22.16s-.763-15.399.864-22.558c1.68-7.39 4.47-14.665 7.688-21.333 3.27-6.778 7.08-13.615 11.729-19.437 4.672-5.85 11.894-9.33 17.745-14.003 5.822-4.648 11.444-9.615 18.222-12.886 6.668-3.217 13.739-5.863 21.13-7.544 7.158-1.627 14.664-2.153 22.314-2.153s14.867 1.802 22.025 3.43c7.39 1.678 14.28 4.026 20.95 7.243 6.778 3.27 12.866 7.266 18.688 11.916 5.85 4.672 12.809 8.361 17.48 14.212 4.649 5.822 6.618 13.463 9.888 20.241 3.217 6.668 8.495 12.84 10.174 20.23 1.627 7.158.145 14.992.145 22.642"/>
        <path fill="#335890" d="M145.06 215.574c-.338-1.08-.584-2.687-1.256-3.857.036-.797-.525-1.589-1.455-1.589-.285 0-.567.012-.851.017-1.273-.253-2.85-.128-4.32.088a1.25 1.25 0 0 0-.554-.06c-5.756.628-11.58 1.387-16.947 3.683-3.791 1.621-8.663 4.024-10.74 7.86-.833.254-1.512 1.186-.98 2.19a9.934 9.934 0 0 1 1.51 5.066c.103 1.211 1.613 2.085 2.56 1.061 8.194-8.844 19.727-12.614 31.588-12.56.947.004 1.738-.965 1.446-1.899"/>
        <path fill="#EFECD3" d="M101.3 85.668c-1.677-3.674-4.682-6.914-8-9.84-.123-5.815-2.392-7.923-7-11.17-4.48-3.155-7.766-8.434-13.148-9.993C67.06 52.9 61.274 51.86 55.723 48.5c-2.47-1.495-4.729-3.288-7.107-4.92-1.84-1.264-3.955-2.115-5.884-3.201a3.716 3.716 0 0 0-.856-1.015c-.84-1.153-2.293-1.856-3.748-1.381l-.023.007c-.038 0-.074.01-.11.012-4.733.145-7.887 2.422-10.688 6.664-3.788 5.74-6.168 11.75-10.77 17.037-2 2.297-.369 5.318 1.811 5.96.528 1.21 1.83 2.097 3.217 2.202.058.065.1.13.165.194 2.234 2.143 4.582 4.104 7.037 5.978 4.265 4.195 7.528 9.157 10.798 14.243 4.026 6.264 8.404 12.103 13.441 17.598 1.762 1.923 3.542 4.619 6.057 5.594 3.188 1.235 5.507-1.065 8.732-1.097 2.454-.025 4.033.366 6.414-.522 1.654-.618 3.53-1.191 5.328-1.896.072.268.146.532.216.8.595 2.277 3.175 3.114 5.142 2.093 3.042-1.58 3.39-4.121 5.308-6.627 1.97-2.574 5.79-2.251 8.294-4.204 4.865-3.791 5.202-11.09 2.802-16.352"/>
        <path fill="#D6906D" d="M211.588 53.34c-1.562-3.111-3.704-5.821-6.587-7.965-1.892-1.407-3.933-2.394-6.133-3.215-2.266-.844-5.181-1.297-6.634-3.428-2.027-2.975-6.335-1.297-6.632 1.414-5.885 4.353-12.93 6.68-19.387 10.049-2.09 1.089-4.111 2.314-6.096 3.606-4.95 1.28-9.677 4.883-13.85 7.276-3.584 2.057-6.977 4.107-9.73 6.819a3.366 3.366 0 0 0-1.618 1.297 40.55 40.55 0 0 0-2.682 4.705l.02.008-.008.019c-.11.128-.204.254-.32.385-.797.888-1.023 1.888-.885 2.819-1.55.883-2.005 2.943-1.373 4.522.126 1.638-.365 2.932.483 4.615 1.18 2.345 1.998 3.794 2.49 6.456.31 1.673.816 3.084 1.48 4.35.73 2.376 2.242 4.256 2.738 6.892.396 2.108.86 3.935 2.123 5.697 2.737 3.82 5.904 4.617 9.697 3.442l.478 1.222c.147.377.358.704.603.995 1.83 3.166 3.968 4.203 7.993 2.284 4.9-2.335 10.435-4.931 14.905-7.99 4.553-3.113 6.467-7.07 7.04-11.42 4.572-4.244 6.789-12.047 9.452-17.145.387-.74.816-1.448 1.267-2.14 1.159-1.166 2.316-2.333 3.474-3.5.582-.585.886-1.23.984-1.872 3.783-2.902 7.569-5.8 11.382-8.664.46-.346.8-.751 1.044-1.184.208-.117.414-.251.614-.417l2.54-2.12c.314-.262.537-.555.71-.86.277-.15.544-.342.798-.577l.832-.774c2.117-1.968.842-4.693-1.212-5.6"/>
        <path fill="#623F2B" d="M143.119 217.263c-9.46.302-18.307 3.245-25.966 8.828a2.596 2.596 0 0 0-.81.962c-1.893.825-3.626 1.982-5.081 3.813-1.98 2.494 1.535 6.054 3.536 3.535 3.584-4.514 9.677-3.999 14.632-5.975 4.901-1.953 9.271-4.623 14.354-6.252 2.595-.832 2.26-5.005-.665-4.91M139.24 209.746c.009-.003.016-.008.023-.012l.186.221c1.684 1.953 4.502-.887 2.829-2.828-.376-.437-.744-.879-1.117-1.317-.006-.015-.006-.029-.012-.043-1.677-4.306-2.221-7.444-1.42-12.016.527-3.009.837-6.035 1.063-9.081.262-3.539.384-7.08.402-10.622.107-.74.202-1.481.279-2.224.052-.432.09-.865.115-1.299.024-.158.04-.278.05-.379.737-.875.919-1.851.717-2.751.117-.267.226-.537.353-.803.66-1.392.308-2.895-.524-3.961.193-.777.38-1.554.59-2.328.404-1.48-.098-2.653-.977-3.404-.118-4.568-2.474-8.496-7.481-9.546a5.715 5.715 0 0 0-.334-.535 10.927 10.927 0 0 0-3.89-3.364c-2.19-1.124-5.306-2.127-7.947-1.669-3.188-4.27-8.092-7.578-13.633-5.55-.247.091-.666.315-1.09.558a3.8 3.8 0 0 0-.287-.934 6.772 6.772 0 0 0-1.221-1.822c-2.266-2.521-5.853-2.909-9.27-1.703-1.441.509-2.437 1.321-3.18 2.317-.673.391-1.237 1.026-1.533 1.974l-.84 2.683c-1.342.081-2.632.954-3.225 2.487-1.105 2.856-1.225 6.013-2.053 8.965-.95 3.382-2.868 6.459-3.692 9.851-.383 1.578-.252 3.394.34 4.946.042.193.094.39.18.592 1.479 3.509 2.976 7.03 4.019 10.699.886 3.117 1.355 6.291 3.166 9.047 1.22 1.858 2.499 3.601 3.766 5.331.054.399.165.807.379 1.223 4.278 8.332 8.726 16.158 10.819 25.362.13.576.382 1.04.707 1.412-.443 2.075 2.58 3.655 3.625 1.511.112-.229.209-.463.316-.693a4.039 4.039 0 0 0 1.202-.685c7.623-6.341 17.639-7.677 27.132-8.979a2.832 2.832 0 0 0 1.469-.631"/>
        <path fill="#071F2C" d="M147.865 109.624c.853-1.324 2.5-1.53 3.728-2.365 1.162-.79 1.969-2.145 2.825-3.232.394-.5-.31-1.213-.707-.707-1.125 1.429-2.067 2.894-3.758 3.684-1.165.545-2.233 1-2.952 2.115-.35.543.516 1.045.864.505"/>
        <path fill="#071F2C" d="M149.78 103.007c1.863-.396 3.175 1.107 4.945 1.144 1.75.034 2.36-1.09 4.388-.626.928.21 1.38.808 2.461.629 1.351-.222 2.27-1.33 3.064-2.338.394-.5-.309-1.213-.707-.707-1.187 1.507-1.474 1.96-4.313 1.552-.269-.04-.506-.338-.779-.361-.893-.075-1.186-.064-2.06.173-1.102.3-2.036.675-3.158.41-.552-.13-1.074-.467-1.615-.653-.915-.316-1.549-.387-2.493-.188-.629.134-.363 1.098.266.965"/>
        <path fill="#071F2C" d="M147.084 114.101c2.518-1.785 5.077-3.524 7.553-5.367 1.997-1.486 3.143-3.643 5.033-5.149.503-.4-.209-1.104-.707-.707-.713.57-1.193 1.193-1.739 1.908-1.13 1.48-2.23 2.458-3.738 3.553-2.283 1.658-4.605 3.267-6.907 4.9-.52.368-.02 1.236.505.862"/>
        <path fill="#071F2C" d="M155.408 106.725c-.435.065-.816-.19-1.015-.56-.306-.567-1.169-.062-.863.504.43.797 1.27 1.151 2.144 1.02.634-.095.364-1.06-.266-.964M145.956 113.478c-6.681.352-8.535-7.052-8.959-12.28-.186-2.282-.421-4.593-.467-6.88-.066-3.219 1.752-5.379 4.016-7.428.479-.432-.23-1.139-.707-.707-2.082 1.884-4.039 4.006-4.294 6.934-.289 3.303.249 7.048.675 10.327.681 5.247 3.546 11.36 9.736 11.034.64-.034.644-1.034 0-1"/>
        <path fill="#071F2C" d="M138.464 97.624a8.87 8.87 0 0 0 3.774 3.9c.567.306 1.073-.556.505-.862a7.97 7.97 0 0 1-3.416-3.542c-.284-.577-1.147-.071-.863.504M138.57 100.879c.352.516.77.936 1.281 1.295.527.37 1.027-.496.504-.863a3.703 3.703 0 0 1-.923-.937c-.36-.527-1.228-.027-.863.505M147.886 113.482c1.092 1.215 1 2.858 2.27 3.974.92.808 2.667 1.65 3.902 1.758 1.275.114 2.35-.67 3.458-1.218l7.123-3.52c3.643-1.802 7.634-3.27 10.264-6.509 2.271-2.797 3.524-6.262 4.72-9.614.217-.607-.749-.869-.964-.266-1.035 2.898-2.1 5.853-3.884 8.388-2.233 3.176-5.489 4.59-8.859 6.256-3.207 1.586-6.45 3.575-9.795 4.842-2.408.912-5.074.2-6.307-2.334-.449-.92-.515-1.679-1.22-2.464-.432-.48-1.137.23-.708.707M136.732 101.401c-2.056-2.41-3.33-4.476-3.633-7.692-.186-1.979-.436-3.535-1.477-5.273-1.586-2.648-2.208-4.913-1.394-8 .777-2.945 4.405-4.042 6.883-5.325.572-.296.067-1.159-.504-.863-2.335 1.21-5.81 2.2-6.985 4.78-.9 1.977-1.16 4.97-.45 7.015.411 1.184 1.215 2.143 1.797 3.238 1.041 1.961.951 3.957 1.287 6.08.425 2.687 2.05 4.731 3.77 6.747.417.49 1.122-.22.706-.707"/>
        <path fill="#071F2C" d="M131.888 77.597c-.474-3.486 1.512-6.38 4.434-8.057.558-.32.055-1.184-.505-.863-3.356 1.927-5.428 5.257-4.893 9.186.086.634 1.049.365.964-.266"/>
        <path fill="#071F2C" d="M134.087 71.395c-.173-3.383 4.152-5.167 6.654-6.618 2.453-1.423 5.025-2.61 7.53-3.934 2.546-1.344 4.793-2.958 7.12-4.637 2.469-1.784 5.122-2.395 7.967-3.304 2.146-.687 4.239-1.57 6.046-2.94 2.236-1.693 3.926-3.26 6.61-4.294 4.617-1.774 8.725-4.15 12.356-7.536.47-.439-.237-1.145-.707-.707-2.174 2.027-4.554 3.79-7.176 5.196-2.508 1.344-5.362 1.997-7.803 3.446-2.235 1.326-3.883 3.368-6.241 4.547-2.623 1.311-5.504 1.71-8.196 2.8-2.74 1.107-4.862 3.22-7.336 4.78-2.557 1.611-5.321 2.855-7.997 4.251-2.48 1.293-5.093 2.672-7.33 4.36-1.551 1.17-2.6 2.594-2.497 4.59.033.64 1.033.644 1 0M146.437 92.593c.522 1.082.689 2.23.55 3.42-.073.638.928.633 1 0 .16-1.368-.09-2.69-.686-3.925-.28-.58-1.143-.072-.864.505M145.045 95.47a.753.753 0 0 1-.11.403c-.291.573.57 1.078.864.504.15-.297.226-.573.246-.907.038-.643-.962-.641-1 0M131.585 80.335a24.287 24.287 0 0 0 1.117 3.178c.252.59 1.114.08.863-.505a22.726 22.726 0 0 1-1.016-2.94c-.169-.62-1.134-.355-.964.267M130.54 82.224a7.577 7.577 0 0 0 1.053 2.484c.35.538 1.217.037.864-.504a6.766 6.766 0 0 1-.953-2.246c-.142-.629-1.106-.362-.964.266M132.877 77.89c.07.472.273.86.576 1.224.412.495 1.116-.217.707-.708-.194-.233-.276-.489-.319-.782-.093-.633-1.057-.364-.964.267M156.01 106.77c.129 2.064-.125 4.73 1.614 6.214.487.415 1.198-.289.707-.707-1.485-1.267-1.21-3.73-1.321-5.507-.04-.639-1.04-.644-1 0M157.57 104.982a5.412 5.412 0 0 0 1.486 3.528c.442.471 1.148-.237.707-.707a4.33 4.33 0 0 1-1.192-2.82c-.028-.642-1.028-.646-1 0M152.929 109.413c-.701.988-.92 2.177-.685 3.358.126.63 1.09.364.965-.265-.186-.93.039-1.822.583-2.588.374-.526-.493-1.026-.863-.505M180.784 97.448c1.333-2.938 3.438-5.344 5.11-8.077 1.841-3.01 2.646-6.507 4.56-9.48 3.952-6.139 10.571-9.878 16.175-14.302.504-.399-.208-1.102-.707-.707-5.489 4.334-11.809 7.991-15.882 13.837-2.045 2.934-2.863 6.375-4.603 9.461-1.704 3.023-4.073 5.582-5.516 8.764-.264.581.597 1.09.863.504M185.667 63.839a60.036 60.036 0 0 0 3.14 6.186c.324.555 1.19.052.863-.505a60.134 60.134 0 0 1-3.14-6.186c-.257-.588-1.118-.08-.863.505M188.201 65.143a13.914 13.914 0 0 0 1.64 2.353c.42.49 1.124-.22.706-.707a12.63 12.63 0 0 1-1.482-2.15c-.31-.564-1.175-.06-.864.504M148.41 79.351c4.538-3.075 9.075-6.15 13.61-9.226.53-.359.03-1.226-.504-.864l-13.61 9.226c-.53.36-.03 1.226.505.864M141.41 73.032a4.453 4.453 0 0 0 1.585-.774c.503-.388.005-1.257-.504-.864a3.752 3.752 0 0 1-1.347.673c-.621.167-.357 1.132.266.965M147.239 69.71a40.164 40.164 0 0 0 6.732-3.936c.517-.374.018-1.242-.504-.864a40.105 40.105 0 0 1-6.733 3.937c-.583.269-.076 1.132.505.864M141.27 88.835a6.452 6.452 0 0 0-1.23 1.93c-.25.593.718.852.964.266.232-.553.566-1.05.974-1.488.437-.472-.27-1.181-.708-.708M99.384 85.058c1.053 3.563 2.22 7.688 2.042 11.43-.114 2.394-2.017 4.323-4.068 5.313-1.19.573-2.37.264-3.54.883-.57.3-.064 1.165.505.864 1.495-.79 2.979-.19 4.419-1.29 1.416-1.082 2.929-2.441 3.462-4.203.518-1.714.104-3.714-.136-5.439-.37-2.653-.961-5.255-1.72-7.823-.182-.616-1.147-.354-.964.265"/>
        <path fill="#071F2C" d="M92.995 102.969c-3.913.403-3.44 5.09-5.596 7.44-1.635 1.782-3.811 1.86-5.73.234-.532-.453-.898-1.068-1.52-1.433-1.07-.63-2.171-.594-3.294-.117-.806.343-1.418.903-2.103 1.419-1.845 1.389-2.935 1.935-5.41 1.15-1.481-.468-2.422-.843-4.024-.355-.845.259-1.585.846-2.422 1.09-2.77.807-3.927-.324-5.718-1.894-1.787-1.565-3.302-3.37-4.615-5.346-.355-.533-1.221-.033-.864.505 1.212 1.823 2.575 3.514 4.177 5.01 1.202 1.123 2.994 2.95 4.685 3.262 2.306.424 4.193-2.005 6.455-1.948 2.135.053 3.383 1.9 5.608 1.152.576-.193 1.098-.556 1.588-.902.635-.451 1.177-1.054 1.843-1.46 1.007-.616 3.21-.774 4.225-.148 1.457.899 1.864 2.189 3.79 2.275 1.706.076 3.21-.793 4.273-2.081 1.565-1.898 1.823-6.562 4.652-6.853.634-.065.64-1.066 0-1M50.09 103.25c-3.066-2.967-5.25-6.35-7.301-10.058-2.032-3.67-4.417-7.081-6.874-10.475-.374-.516-1.242-.018-.864.505 2.633 3.637 5.116 7.298 7.287 11.229 1.946 3.528 4.139 6.694 7.045 9.507.462.448 1.17-.26.707-.707M99.978 84.638c-1.395-2.229-2.816-4.428-4.761-6.22-1.974-1.82-3.26-4.058-5.088-5.982-.444-.468-1.15.24-.707.707 1.678 1.766 2.739 3.88 4.57 5.52 2.1 1.883 3.633 4.103 5.121 6.48.341.544 1.207.043.865-.505"/>
        <path fill="#071F2C" d="M95.612 78.704c-2.57-3.547-1.16-8.223-4.745-11.314-2.091-1.804-4.441-3.277-6.51-5.122-1.856-1.654-3.558-3.504-5.63-4.901-4.08-2.751-9.302-3.737-13.815-5.592-5.514-2.267-10.765-5.118-15.391-8.902-.493-.404-1.205.299-.707.707 3.827 3.132 8.049 5.663 12.538 7.729 4.78 2.202 9.974 3.439 14.704 5.695 4.702 2.243 8.2 6.75 12.403 9.803 2.522 1.831 3.916 3.601 4.445 6.691.35 2.046.6 3.993 1.844 5.711.374.516 1.242.017.864-.505M84.898 110.547a3.438 3.438 0 0 0 1.773-1.785c.252-.585-.61-1.095-.863-.505a2.623 2.623 0 0 1-1.415 1.426c-.588.259-.08 1.12.505.864M84.908 108.555c.349-.212.548-.478.698-.853.239-.597-.728-.857-.964-.265a.443.443 0 0 1-.24.254c-.548.334-.046 1.199.506.864M70.514 110.315l.285-.61c.271-.58-.59-1.089-.863-.506l-.285.611c-.27.58.591 1.088.863.505M68.684 109.258l-1.148-4.741c-.151-.625-1.116-.361-.964.265l1.148 4.743c.151.625 1.115.36.964-.267M60.454 111.603c.724.131 1.422-.152 1.772-.818.3-.57-.563-1.076-.863-.505-.129.244-.352.411-.643.358-.629-.114-.899.85-.266.965M100.173 98.274l.268-1.516c.11-.629-.852-.899-.964-.265-.09.505-.18 1.01-.268 1.515-.112.63.852.9.964.266"/>
        <path fill="#071F2C" d="M90.562 70.193c.066-.349.063-.656-.068-.989-.232-.593-1.2-.335-.964.265.062.16.101.285.068.457-.119.63.845.9.964.267M80.56 64.313a34.244 34.244 0 0 1-.74 5.323c-.138.627.825.895.964.266.405-1.845.663-3.704.775-5.589.04-.644-.962-.64-1 0M74.574 58.306c1.248 2.063 1.757 4.379 1.425 6.773-.087.63.877.903.965.267.37-2.669-.129-5.236-1.526-7.546-.333-.55-1.198-.047-.864.506M71.798 58.264c.195.547.301 1.094.312 1.675.013.642 1.013.645 1 0a6.086 6.086 0 0 0-.348-1.94c-.214-.602-1.18-.343-.964.265M75.84 104.39a26.413 26.413 0 0 0-3.08-4.927c-.397-.505-1.1.207-.707.708a25.227 25.227 0 0 1 2.922 4.724c.278.58 1.14.074.864-.504M68.92 93.23c-2.074-2.488-3.942-5.12-5.555-7.932-1.334-2.325-2.425-4.737-4.255-6.728-.437-.475-1.142.234-.707.707 2.14 2.327 3.328 5.328 4.972 7.994 1.445 2.344 3.076 4.552 4.838 6.666.412.495 1.116-.216.707-.707M61.512 102.488a43.791 43.791 0 0 1-2.225-3.137c-.349-.538-1.214-.037-.863.505.743 1.15 1.54 2.26 2.381 3.34.395.506 1.098-.206.707-.708M84.957 93.573c-2.557-2.326-3.8-5.638-6.68-7.662-3.462-2.434-6.932-4.294-9.954-7.359-.453-.459-1.16.248-.708.707 2.632 2.668 5.525 4.686 8.718 6.615 3.567 2.154 4.953 5.71 7.917 8.406.475.432 1.185-.273.707-.707M96.797 137.466c-2.488.514-4.47 2.313-5.285 4.709-.207.61.758.873.965.266.705-2.078 2.447-3.57 4.586-4.011.63-.13.363-1.094-.266-.964"/>
        <path fill="#071F2C" d="M87.383 165.218c.953-1.612 1.095-3.292.817-5.127-.506-3.342-1.284-5.938-.359-9.34.74-2.718 1.57-5.415 2.355-8.12.881-3.036 1.526-8.606 5.46-8.956.636-.057.642-1.058 0-1-5.38.479-6.062 8.44-7.223 12.44-.81 2.795-2.035 5.767-2.21 8.7-.218 3.673 2.347 7.429.296 10.898-.328.556.536 1.06.864.505"/>
        <path fill="#071F2C" d="M96.674 132.999c1.307-.377 2.72-.98 4.065-1.16 2.116-.287 3.55.486 4.946 1.969 2.248 2.387.873 4.818 1.692 7.562.184.615 1.15.354.964-.266-.557-1.867.293-3.79-.318-5.627-.432-1.297-1.55-2.411-2.566-3.272-2.891-2.448-5.755-1.121-9.05-.17-.616.178-.354 1.144.267.964"/>
        <path fill="#071F2C" d="M104.439 140.697c1.834 1.243 3.976 1.651 6.145 1.232.63-.122.364-1.086-.266-.964-1.913.37-3.768-.042-5.375-1.13-.534-.364-1.034.503-.504.862M107.756 137.026c6.012-4.21 14.732 3.29 14.49 9.693-.024.644.976.643 1 0 .166-4.403-2.262-7.102-5.632-9.58-3.242-2.385-6.818-3.459-10.363-.976-.523.366-.024 1.233.505.863"/>
        <path fill="#071F2C" d="M117.116 137.691c-1.06-.046-2.033.304-2.86.958-.505.4.207 1.103.707.707.62-.489 1.372-.698 2.153-.665.644.028.642-.972 0-1M121.87 142.684c2.36.724 4.98.35 7.235 1.411 2.211 1.042 3.688 3.053 4.765 5.172.291.572 1.155.067.863-.505-1.045-2.058-2.46-3.988-4.48-5.183-2.52-1.49-5.405-1.029-8.117-1.86-.617-.188-.881.778-.266.965"/>
        <path fill="#071F2C" d="M133.677 148.256c9.063-1.522 8.157 10.52 7.895 16.173-.308 6.667-1.006 13.345-1.712 19.98-.633 5.94-2.865 11.888-.503 17.713 1.174 2.896 2.789 5.514 3.59 8.564.81 3.083 1.21 6.226 2.367 9.215.23.593 1.197.335.965-.266-1.262-3.257-1.613-6.717-2.595-10.05-.965-3.274-3.024-6.1-3.953-9.371-1.212-4.263.09-8.53.743-12.766.513-3.337.743-6.721 1.06-10.082.69-7.295 1.85-15.008.945-22.33-.601-4.843-3.884-8.615-9.068-7.744-.633.107-.364 1.07.266.964M90.094 138.878c-1.854.43-3 1.052-3.28 3.012-.548 3.828-1.598 7.319-2.768 11.007-1.021 3.217-2.744 6.795-2.987 10.177-.186 2.587 1.529 4.912 2.525 7.176 2.669 6.065 2.919 13.019 6.9 18.424 4.043 5.489 6.95 11.195 9.606 17.467.25.59 1.11.082.863-.504-2.238-5.29-4.515-10.607-7.936-15.26-1.614-2.195-3.435-4.28-4.346-6.895-.958-2.75-1.33-5.69-2.221-8.47a54.399 54.399 0 0 0-2.975-7.345c-.994-2.026-1.683-3.394-1.19-5.792.288-1.4.838-2.767 1.27-4.128.966-3.044 1.956-6.081 2.897-9.133.783-2.538.847-8.062 3.908-8.771.627-.146.36-1.111-.266-.965M93.27 149.247a16.79 16.79 0 0 0 6.479 4.265c.604.222.865-.744.265-.965a15.704 15.704 0 0 1-6.037-4.007c-.442-.47-1.148.238-.707.707M103.097 146.096l-.721 3.22c-.14.627.824.894.964.266l.72-3.22c.14-.626-.822-.894-.963-.266M111.48 146.281c-.28 1.541.325 3.021 1.605 3.923.527.372 1.027-.495.505-.863a2.821 2.821 0 0 1-1.146-2.794c.114-.629-.85-.9-.964-.266M120.166 143.74c.738 3.215-.921 6.135-1.782 9.143-.177.62.787.884.964.265.925-3.229 2.57-6.236 1.782-9.674-.144-.627-1.108-.362-.964.266M131.68 148.267c.512 2.183.36 4.337-.42 6.435-.225.603.741.864.964.266.84-2.263.97-4.621.42-6.968-.147-.626-1.11-.36-.964.267M125.18 148.06c.113.65.33 1.26.637 1.844.3.57 1.163.064.863-.505a5.39 5.39 0 0 1-.536-1.606c-.11-.632-1.073-.365-.964.266"/>
        <path fill="#071F2C" d="M138.026 151.517a7.568 7.568 0 0 1 .068 3.254c-.124.629.84.898.964.267a8.785 8.785 0 0 0-.068-3.788c-.149-.626-1.113-.36-.964.267M108.277 157.358a290.804 290.804 0 0 0 4.578 23.293c.15.625 1.114.36.964-.266a291.246 291.246 0 0 1-4.578-23.293c-.098-.633-1.062-.364-.964.266M122.916 159.83a203.215 203.215 0 0 0-1.271 20.263c-.008.643.992.643 1 0 .086-6.776.51-13.531 1.27-20.262.073-.64-.928-.634-1 0M132.182 162.747l-.267 3.997c-.043.643.957.64 1 0l.267-3.997c.042-.642-.958-.64-1 0M130.594 171.57a22.019 22.019 0 0 0-.532 4.033c-.025.644.975.643 1 0 .05-1.274.214-2.524.496-3.767.142-.627-.82-.895-.964-.267M88.3 165.533l-1.074 2.94c-.222.604.744.866.964.265l1.074-2.939c.222-.606-.744-.867-.964-.266M87.207 159.95a5.692 5.692 0 0 0-3.124 1.332c-.493.415.218 1.12.707.707a4.505 4.505 0 0 1 2.417-1.04c.632-.07.64-1.07 0-1M87.199 161.534a4.968 4.968 0 0 0-1.925.548c-.572.297-.067 1.16.505.863.448-.232.916-.37 1.42-.411.637-.051.643-1.052 0-1M44.471 39.954a845.622 845.622 0 0 1-32.02-17.663c-.558-.323-1.062.541-.505.864a844.785 844.785 0 0 0 32.02 17.662c.57.299 1.076-.564.505-.863M31.88 78.582C25.679 72.947 19.19 67.65 12.505 62.6c-.514-.39-1.013.479-.505.863 6.617 5 13.035 10.249 19.175 15.826.476.432 1.185-.273.707-.707"/>
        <g transform="translate(101 208.869)">
            <mask id="b" fill="#fff">
                <use xlink:href="#a"/>
            </mask>
            <path fill="#071F2C" d="M1.032 1.37a332.895 332.895 0 0 1 9.527 26.282c.193.612 1.159.35.964-.266A332.519 332.519 0 0 0 1.996 1.102c-.241-.587-1.21-.33-.964.267" mask="url(#b)"/>
        </g>
        <path fill="#071F2C" d="M207.461 63.935l28.626-18.703c.537-.35.037-1.217-.504-.863l-28.627 18.703c-.537.35-.036 1.217.505.863M186.837 39.085l8.23-5.78c.524-.367.025-1.235-.503-.864l-8.232 5.78c-.523.368-.023 1.235.505.864M132.777 44.693l9.416-17.436c.305-.566-.558-1.072-.864-.504l-9.415 17.435c-.306.567.557 1.072.863.505M118.876 37.459a206.632 206.632 0 0 0-1.048-34.173c-.072-.632-1.073-.64-1 0a206.632 206.632 0 0 1 1.048 34.173c-.034.644.966.642 1 0M99.69 45.2a61.104 61.104 0 0 0-6.429-9.822c-.402-.503-1.105.21-.707.707a59.826 59.826 0 0 1 6.272 9.62c.3.57 1.162.064.863-.506M46.507 139.096a175.75 175.75 0 0 0-44.643 21.512c-.532.356-.032 1.222.504.863a174.86 174.86 0 0 1 44.405-21.41c.611-.195.35-1.16-.266-.965M39.676 153.513c-3.946 1.787-7.202 4.584-9.6 8.188-.356.537.51 1.039.865.504 2.303-3.464 5.453-6.113 9.24-7.828.585-.265.077-1.128-.505-.864M54.102 165.858c-2.071 2.994-3.122 6.402-3.118 10.04 0 .644 1 .645 1 0-.004-3.478 1.004-6.676 2.982-9.535.366-.53-.5-1.03-.864-.505M166.928 139.759a438.2 438.2 0 0 1 24.796 14.93c.542.352 1.044-.514.505-.863a438.2 438.2 0 0 0-24.796-14.931c-.563-.314-1.067.55-.505.864M170.06 154.216l9.04 9.44c.447.466 1.153-.242.708-.707l-9.041-9.44c-.446-.466-1.153.242-.707.707M171.64 130.872a87.408 87.408 0 0 1 17.956 5.753c.583.26 1.092-.602.505-.863a88.485 88.485 0 0 0-18.196-5.854c-.628-.13-.897.834-.266.964M54.138 74.405a43.35 43.35 0 0 0-5.695-5.119c-.514-.387-1.013.481-.505.864a41.823 41.823 0 0 1 5.493 4.962c.439.473 1.145-.235.707-.707M113.94 185.8a8.235 8.235 0 0 0 .293 2.655c.172.62 1.137.357.964-.265a7.36 7.36 0 0 1-.258-2.39c.035-.644-.965-.642-1 0M135.444 209.629a30.326 30.326 0 0 0-5.452.809c-.625.152-.36 1.116.266.963a28.908 28.908 0 0 1 5.186-.772c.64-.036.644-1.036 0-1M135.178 205.789a12.63 12.63 0 0 1-2.26.38c-.638.049-.643 1.05 0 1a14.106 14.106 0 0 0 2.526-.415c.622-.163.358-1.128-.266-.965M161.558 106.235c.448.313.93.545 1.448.715.613.2.876-.765.267-.965a4.54 4.54 0 0 1-1.21-.614c-.528-.369-1.03.497-.505.864M170.937 107.752l.798-.798c.455-.455-.252-1.163-.707-.707l-.798.798c-.456.456.25 1.163.707.707"/>
        <path fill="#071F2C" d="M172.915 106.728c.129-.507-.053-.938-.483-1.225-.538-.358-1.038.508-.505.864l.024.095c-.16.624.805.891.964.266M170.331 107.897l-.93.664c-.52.371-.021 1.24.504.864.311-.22.621-.443.931-.665.519-.37.02-1.238-.505-.863M196.612 67.377a6.184 6.184 0 0 0-1.488-2.332c-.46-.451-1.168.256-.707.707a5.046 5.046 0 0 1 1.231 1.892c.217.599 1.184.34.964-.267M211.523 53.474l2.391-1.731c.516-.373.018-1.242-.505-.864l-2.39 1.73c-.517.374-.018 1.242.504.864M228.618 41.008a17.436 17.436 0 0 1 2.577-2.294c.517-.373.018-1.241-.505-.863a18.602 18.602 0 0 0-2.779 2.45c-.437.472.27 1.18.707.707M141.941 145.815a8.637 8.637 0 0 1 4.108 4.126c.277.58 1.14.073.864-.505a9.499 9.499 0 0 0-4.467-4.485c-.578-.278-1.085.585-.505.864M145.965 146.054a6.45 6.45 0 0 1 1.607 1.855c.32.558 1.185.055.863-.503a7.172 7.172 0 0 0-1.763-2.06c-.5-.396-1.211.308-.707.708M49.887 119.05c2.037 1.814 4.563 2.683 7.125 3.483.616.193.879-.772.266-.964-2.39-.748-4.781-1.531-6.683-3.226-.48-.427-1.19.278-.708.707M49.269 121.714c.546.32 1.108.606 1.689.859.584.254 1.093-.607.505-.864a15.657 15.657 0 0 1-1.69-.858c-.556-.326-1.06.538-.505.863M47.062 123.075c.254.112.508.226.763.34.583.258 1.092-.604.504-.864l-.762-.339c-.583-.26-1.092.601-.505.863M139.52 58.037c-4.406 1.702-8.272 4.294-11.497 7.747-.439.47.267 1.179.707.707 3.102-3.321 6.817-5.851 11.056-7.489.594-.23.336-1.197-.266-.965M134.258 54.618a13.57 13.57 0 0 0-2.875 1.521c-.524.365-.025 1.232.504.863.824-.575 1.7-1.056 2.637-1.42.593-.231.336-1.197-.266-.964M208.64 75.228c-2.333 1.505-4.168 3.57-5.358 6.08-.275.577.587 1.085.863.504 1.12-2.357 2.805-4.305 5-5.72.537-.348.037-1.215-.506-.864M208.482 79.675a4.477 4.477 0 0 0-1.513 2.25c-.186.619.78.883.965.268.223-.741.65-1.333 1.256-1.811.504-.398-.208-1.102-.708-.707M128.583 152.883a.314.314 0 0 1-.29-.135c-.443-.467-1.15.24-.706.708.204.215.434.349.73.39.629.09.9-.873.266-.963M136.53 156.545c.438-.11.854-.265 1.266-.452.585-.267.077-1.13-.505-.863a5.992 5.992 0 0 1-1.028.35c-.624.157-.359 1.122.266.965M87.765 99.365c1.74 1.637 4.02 2.302 6.37 1.897.633-.108.365-1.072-.266-.963-1.984.34-3.933-.265-5.397-1.64-.468-.44-1.177.265-.707.706M96.187 92.111c.078 1.183-.964 1.858-1.846 2.421-.54.345-.04 1.21.505.863 1.18-.752 2.444-1.725 2.341-3.284-.042-.639-1.042-.644-1 0M97.601 88.4l-1.125-1.13c-.455-.458-1.162.25-.707.706l1.125 1.131c.455.457 1.162-.25.707-.707M32.309 39.742a31.28 31.28 0 0 0-4.874-3.2c-.569-.3-1.075.562-.505.864a29.992 29.992 0 0 1 4.672 3.043c.498.397 1.21-.307.707-.707M.232 1.548L4.745 4.43c.544.347 1.046-.518.505-.863L.737.685c-.544-.348-1.046.517-.505.863M3.517.843a6.644 6.644 0 0 0 2.35 1.386c.61.208.872-.757.266-.964A5.406 5.406 0 0 1 4.224.135c-.476-.432-1.185.273-.708.708M65.397 10.54l-.752-.751c-.456-.455-1.163.25-.707.707.25.25.5.502.752.752.456.456 1.163-.251.707-.707M23.926 112.313a22.715 22.715 0 0 0-4.646.257c-.635.1-.365 1.063.265.965a21.34 21.34 0 0 1 4.38-.222c.645.032.643-.968 0-1M109.886 108.926l-.251.5c-.287.575.575 1.082.864.506l.25-.502c.287-.573-.575-1.081-.863-.504M141.303 125.23l2.883 2.256c.501.391 1.214-.31.707-.707-.96-.753-1.922-1.505-2.883-2.257-.5-.393-1.214.311-.707.707M67.64 143.929l-.5 1.128c-.26.583.601 1.093.862.505l.502-1.128c.26-.583-.603-1.093-.864-.505M64.301 142.285l-.25.877c-.176.621.79.886.965.267l.25-.878c.175-.62-.789-.885-.965-.266M190.54 131.215a13.808 13.808 0 0 1 3.26 1.84c.514.388 1.013-.481.505-.863a14.656 14.656 0 0 0-3.498-1.942c-.6-.235-.86.732-.266.965M195.809 131.923a8.22 8.22 0 0 0 1.75.928c.599.236.858-.731.265-.964a7.22 7.22 0 0 1-1.51-.827c-.527-.371-1.027.495-.505.863M108.239 222.351c5.428-4.639 11.245-9.409 18.713-9.687.64-.023.644-1.024 0-1-7.753.29-13.776 5.157-19.42 9.98-.49.418.22 1.123.707.707M138.408 210.7c1.333-.096 2.665-.189 3.998-.284.638-.045.643-1.046 0-1l-3.998.283c-.64.045-.644 1.045 0 1M110.784 232.089c8.235-9.135 20.076-14.313 32.375-14.143.644.009.644-.991 0-1-12.545-.173-24.68 5.117-33.082 14.436-.43.477.275 1.186.707.707"/>
    </g>
</svg>
