<svg xmlns="http://www.w3.org/2000/svg" xmlns:xlink="http://www.w3.org/1999/xlink" width="230" height="249" viewBox="0 0 230 249">
    <defs>
        <path id="a" d="M200.032 102.15l.001-.393c0-7.65-1.328-15.165-2.955-22.324-1.68-7.39-4.508-14.385-7.725-21.053-3.27-6.778-8.215-12.373-12.865-18.196-4.671-5.849-9.456-11.385-15.307-16.056-5.822-4.649-11.206-10.303-17.985-13.573-6.668-3.217-14.591-3.223-21.983-4.903C114.055 4.025 106.926.307 99.275.307c-7.65 0-15.313 1.375-22.47 3.002-7.391 1.679-13.837 5.988-20.505 9.204-6.778 3.271-12.521 7.702-18.342 12.35-5.851 4.672-12.656 8.328-17.327 14.179-4.649 5.822-9.759 11.79-13.028 18.568-3.218 6.668-4.349 14.456-6.029 21.846C-.054 86.615.006 94.107.006 101.757l-.001.393h200.027z"/>
        <path id="c" d="M191.986.874c2.53 5.609 4.703 11.449 6.092 17.559 1.627 7.159 2.955 14.674 2.955 22.324 0 7.651-1.591 15.107-3.218 22.265-1.68 7.39-2.642 15.22-5.858 21.888-3.271 6.778-7.762 13.243-12.41 19.064-4.672 5.851-9.97 11.679-15.82 16.351-5.823 4.648-12.576 8.733-19.354 12.004-6.669 3.216-14.1 5.799-21.49 7.48-7.159 1.626-14.957 1.914-22.608 1.914-7.65 0-15.346-.747-22.504-2.373-7.391-1.681-14.798-4.069-21.468-7.286-6.777-3.27-13.402-7.412-19.224-12.061-5.851-4.672-10.581-10.837-15.252-16.687-4.649-5.823-9.153-12.02-12.423-18.799-3.216-6.668-6.33-13.8-8.009-21.19-1.628-7.158-.389-14.919-.389-22.57 0-7.65-.06-15.142 1.568-22.301C3.907 12.593 4.894 6.48 6.852.874h185.134z"/>
        <path id="e" d="M46.778 47.294c-4.832 3.429-10.11 6.48-15.405 9.035-6.669 3.216-14.1 5.799-21.49 7.48-2.984.678-6.079 1.123-9.228 1.412V.525h46.123v46.77z"/>
    </defs>
    <g fill="none" fill-rule="evenodd">
        <path fill="#E35205" d="M142.55 60.253a.656.656 0 0 0 .063-.153l-.048.096a.596.596 0 0 0-.014.057"/>
        <g transform="translate(24 29.82)">
            <mask id="b" fill="#fff">
                <use xlink:href="#a"/>
            </mask>
            <path fill="#E35205" d="M102.136 7.578c-.106.154-.21.314-.295.502-2.97 6.539-4.49 11.418-3.027 18.246-.407 3.822-.965 7.65-3.563 10.298-1.783 1.817-3.862 3.264-5.956 4.697-2.628.91-5.267 1.79-7.92 2.632-4.844 1.538-10.012 3.708-15.148 3.792-4.934.08-10.424-.176-14.958-2.243-4.504-2.054-8.327-5.397-12.736-7.651-.115-.06-.23-.105-.344-.156a156.692 156.692 0 0 0-8.321-5.461 19.064 19.064 0 0 1-.718-2.903c-.556-3.437.14-6.9-.357-10.343-.4-2.761-1.624-4.925-2.678-7.354.114-3.087.703-5.857 2.322-8.42A346.507 346.507 0 0 0 55.74-17.428l.008-.01c3.007-.007 6.002-1.027 9.348-.466 5.509.92 10.905 4.115 16.223 5.843 5.334 1.733 11.398 2.683 15.949 6.15 4.265 3.25 5.325 8.428 4.868 13.49M229.27 60.365c-1.435-12.391-9.36-23.808-15.703-34.257-6.541-10.775-13.127-21.765-20.706-31.85-6.866-9.138-14.99-16.706-25.404-21.618a93.558 93.558 0 0 0-2.767-1.243c-24.608-15.938-56.356-16.64-84.926-11.022-17.292 3.4-36.776 7.1-49.833 19.795-5.974 5.808-11.54 12.137-17.314 18.153C7.122 4.05 1.684 10.175-1.97 17.28-5.937 25-7.013 33.639-9.654 41.82a82.046 82.046 0 0 0-1.45 4.079c-2.822 7.548-5.473 14.79-5.292 22.694-.55 2.988-1.096 5.98-1.694 8.965-1.383 6.914 9.217 9.872 10.607 2.924l.003-.008c1.737 1.04 3.43 1.869 5.625 2.04 2.39.185 4.85-.458 6.852-1.777A6.104 6.104 0 0 0 7.409 82c1.808 2.407 5.54 3.674 8.525 1.15 7.494-6.335 14.273-12.11 23.75-15.278 7.348-2.455 15.49-2.362 23.36-2.055 3.308 1.345 6.737 2.792 9.282 5.025 3.487 3.058 4.354 7.955 6.426 11.932.942 1.808 2.24 3.3 3.35 4.992 1.536 2.337 1.905 4.885 2.864 7.448 1.262 3.377 3.502 5.812 6.999 6.79 2.833.792 4.594-1.802 4.282-4.04a3.46 3.46 0 0 0 .383-1.62c-.002-3.934 3.88-4.407 4.742-7.856.143-.577.35-1.826.114-2.376.882-.275 1.854-.552 2.11-.64 1.102-.38 2.213-1.22 2.446-2.445.36-1.892 1.247-4.603 1.276-6.98 1.619-2.116 3.275-4.108 5.34-5.907 1.969-1.715 2.5-2.95 3.179-5.575.167-.647.15-1.23.022-1.752.46-1.18.964-2.358 1.194-3.432.468-2.192.897-4.42 1.083-6.658.398-4.8.12-9.626.47-14.445.067-.902-.163-1.606-.56-2.141.11-.333.177-.695.173-1.091-.011-.981.036-1.955.128-2.931.046-.487.103-.975.164-1.46a2.03 2.03 0 0 1 .04-.223c-.023.043-.05.093-.09.152.045-.067.067-.14.104-.208.029-.103.052-.131.048-.097.525-1.063.357-2.35-.265-3.342.335-1.8.559-3.62.62-5.456.088-2.553-.196-5.022.543-7.508.093-.363.115-.701.109-1.027.05-.273.1-.547.152-.821.038-.137.047-.263.07-.395 1.342-.732 2.308-2.003 2.363-3.711.694-.071 1.395-.395 2.02-1.06.466-.495 1.214-2.063 1.67-2.364.405-.267 1.74-.124 2.289-.285 2.286-.671 3.75-2.01 6.059-1.926.402.179.794.306 1.19.372 2.69.78 5.502.757 8.245 1.293.339.55.69 1.087 1.093 1.566 1.68 2.006 5.148 3.424 5.917 6.029.125.422.303.784.52 1.089-.224 1.692.617 3.552 2.545 3.953 1.384 2.062 2.51 3.517 2.742 6.058-.581 2.543-.617 4.976.396 7.24-.638 2.093-2.112 3.818-2.518 6.033-.33 1.797-.11 3.586.312 5.336-.497 2.55-.451 5.57.518 7.87-.06.278-.127.557-.212.839-.534 1.773-1.141 3.095-.907 4.994.15 1.22.959 2.495 1.139 3.76a3.692 3.692 0 0 0-.146 1.715l.157 1.07c.11.756.492 1.33 1.01 1.743-.428 1.449-.97 2.879-1.53 4.29-.552 1.392-.162 2.514.65 3.25.025.17.053.34.092.512.692 3.07 4.19 3.08 5.9 1.312.64.073 1.329-.031 2.035-.4 2.3-1.198 4.984.062 7.435-1.324 2.575-1.455 4.32-3.22 7.457-3.501a3.4 3.4 0 0 0 1.53-.541c4.795 1.826 10.337.565 14.98-1.873a188.537 188.537 0 0 1 28.978.795c2.73.287 5.817-2.763 5.5-5.5" mask="url(#b)"/>
        </g>
        <g transform="translate(23 90.82)">
            <mask id="d" fill="#fff">
                <use xlink:href="#c"/>
            </mask>
            <path fill="#EFECD3" d="M98.69 111.975c-.155 3.806-2.354 6.677-3.066 10.286-.575 2.913.645 5.526.517 8.388-.167 3.726-3.175 6.608-5.902 8.992-1.159 1.013-2.529 1.822-4.02 2.5-2.233.171-4.532-.043-6.767.492-2.934.701-5.435 2.34-8.293 3.201-3.348 1.01-6.915.382-10.283-.274-10.677-2.082-20.362-7.192-28.275-14.496-.83-1.68-1.587-3.392-2.169-5.18-2.67-8.217-3.188-15.054.617-22.873l3.9-3.97c.152-.155.27-.318.386-.48a65.07 65.07 0 0 0 4.356-4.247 24.736 24.736 0 0 0 2.713-2.82h.001c2.888-1.83 5.836-3.56 8.86-5.173.087-.046.151-.104.23-.154a63.097 63.097 0 0 0 3.933-.79c4.405-1.026 9.473-1.44 13.901-.394.59.14 1.202.294 1.823.457l3.313 1.311c6.608 3.124 12.857 7.212 17.938 12.457 2.208 2.28 4.146 4.771 5.921 7.38.275 1.783.438 3.58.365 5.387M224.502.922c-5.527.851-11.274-.29-16.869.212-.118.011-.235.026-.353.036a3.44 3.44 0 0 0-1.07-.042c-1.13.136-2.243.351-3.346.606-3.678.588-7.299 1.471-10.83 2.7-1.207.42-2.399.853-3.588 1.284-1.29.218-2.595.357-3.925.368-3.344.027-5.968-.27-8.876 1.687-3.59 2.415-5.987 3.44-10.43 3.28-.725-.025-1.32.148-1.812.435-2.146.407-4 2.702-2.554 5.146 1.061 1.794.573 4.844.64 6.906.087 2.664.107 5.33-.01 7.992a436.73 436.73 0 0 1-.083 1.744c-2.297 4.873-.147 11.615-2.959 16.241-1.44 2.367-3.476 3.782-3.894 6.71-.35 2.455-.48 5.591-.149 8.253-.157 2.883-.038 5.752-.788 8.606-.603 2.291-.974 3.233.376 5.44 2.854 4.66 4.712 9.741 5.982 15.006-.356 8.024-2.559 15.93-4.777 23.666-1.45 5.055-2.23 10.274-3.756 15.311-1.2 3.964-2.513 7.757-3.088 11.78-2.318 1.116-4.635 1.162-7.265 1.23-4.41.11-8.822-.04-13.228-.228-1.698-5.295-4.64-10.566-6.32-15.048-1.874-4.992-3.235-10.063-4.207-15.303-.737-3.972-1.007-8.237-2.986-11.8a108.707 108.707 0 0 0-.232-3.837c-.255-3.235-.777-6.528-.723-9.779.055-3.339 1.446-6.377 1.355-9.71a1.47 1.47 0 0 0-.24-.758c.14-.37.286-.74.444-1.11.184-.435.165-.854.021-1.213.18-.293.272-.65.208-1.063-.369-2.384-.63-4.8-.617-7.216.011-1.903.56-3.74.588-5.63.022-1.523-.439-2.832-1.437-3.616-.14-.295-.357-.54-.734-.728a1.457 1.457 0 0 0-1.333-.014 1.406 1.406 0 0 0-.417.052c-.974-.02-1.94-.022-2.863-.445-.463-.214-1.42-.614-1.6-1.094-.125-.336.217-1.228.133-1.668-.212-1.107-1.164-1.644-1.382-2.735-.05-.254-.11-.486-.17-.715a1.61 1.61 0 0 0-.05-.385c-.85-3.305-1.135-6.624-.824-9.98 1.182-4.558 1.404-9.53 2.623-14.052A1.41 1.41 0 0 0 107 26.42c.892-.998-.088-2.729-1.547-2.42-3.186.672-3.098 2.495-3.422 4.5-.74.943-1.625 1.5-2.575 2.271-.399.323-.834.593-1.13 1.024-.928 1.355-.64 3.26-.78 4.798-.19 2.093-.968 4.194-3.327 4.843-1.747.48-4.17-1.02-5.587-2.008a7.42 7.42 0 0 1-1.135-1.882c-.508-1.178-2.23-.16-1.727 1.01.025.06.063.108.09.167-.1.105-.19.233-.256.4a101.853 101.853 0 0 1-2.709 6.224C81.06 47.851 79 50.18 76.582 52.15c-2.6 2.118-4.999 4.135-7.122 6.63l-.368.285c-4.904 3.774-8.443 8.847-13.31 12.541-.47.357-.767.798-.922 1.266-4.153 2.494-8.59 2.991-14.247 1.74-5.804-1.284-9.708-5.523-15.237-7.157a2.672 2.672 0 0 0-.695-.103c-1.016-.6-2.05-1.166-3.166-1.654-.987-.433-3.174-.954-4.719-1.776a31.75 31.75 0 0 1-.805-7.132 2.663 2.663 0 0 0-.086-.652c.514-3.793-.098-7.527-2.134-10.949-1.856-3.117-2.002-7.08-1.25-10.985l.008-.05c.084-.435.182-.868.288-1.3l.033-.147c.36-1.446.832-2.867 1.372-4.218.483-1.137 1.053-2.225 1.752-3.236.265-.383.365-.763.35-1.117.116-.206.234-.419.353-.617.357-.59-.007-1.252-.597-1.469-2.003-.735-3.933-1.31-5.883-1.53-1.24-.222-2.37-.195-3.5-.074-1.363-1.553-4.07-1.775-5.596.333-2.064-.36-3.935-1.39-6.115-1.482-4.795-.199-8.568 2.862-11.024 6.728-.88 1.388-.634 2.73.145 3.701l-.923 10.905c-.032.368.016.702.098 1.016-.557 5.575-1.162 11.145-1.149 16.751.01 4.563.516 9.094 1.2 13.6.353 2.334.514 5.173 1.147 7.726.143 2.505.583 5 1.285 7.442.255 1.731.666 3.41 1.303 5.004.96 2.407 2.135 4.766 3.44 7.09.53 3.68 1.304 7.31 2.701 10.688 2.513 6.08 6.31 11.74 9.553 17.443 3.058 5.378 5.91 11.103 10.314 15.542 4.566 4.603 10.397 7.635 16.207 10.35 1.003.467 1.971.447 2.804.13 7.995 5.14 17.593 7.767 26.851 9.91a294.133 294.133 0 0 0 49.72 7.092c27.778 1.565 59.85 1.28 82.21-17.695.802-.68 1.143-1.47 1.154-2.244 10.38-8.336 16.942-21.51 21.323-34.475 3.665-10.848 4.261-22.746 6.024-34.003.29-1.85.398-3.657.38-5.433 3.252-10.93 6.384-21.973 6.457-33.232a3.744 3.744 0 0 0-.16-1.093c2.238-12.036-1.034-25.17 2.761-37.01.896-2.795-1.853-4.684-4.305-4.307" mask="url(#d)"/>
        </g>
        <g transform="translate(136 166.82)">
            <mask id="f" fill="#fff">
                <use xlink:href="#e"/>
            </mask>
            <path fill="#335890" d="M42.624 5.465c-.16-.324-.5-.563-.877-.678.633-.854-.21-2.063-1.242-1.518a26.94 26.94 0 0 1-3.448 1.503c-.498.08-.946.224-1.347.45-5.776 1.774-12.346 1.963-18.578 1.186-.069-.022-.135-.056-.206-.076-1.43-.39-2.864-.505-4.292-.657a61.778 61.778 0 0 1-2.094-.46C8.066 4.263 5.957 2.79 3.515.787c-.513-.42-1.54-.377-1.672.443a36.581 36.581 0 0 0-.474 6.62l.001.006c-.315.511-.432 1.149-.2 1.861l.213.657C.604 15.37.356 20.444 1.11 25.468A37.86 37.86 0 0 0 2.17 30.27c.24 4.645 1.014 9.158 2.9 13.716 3.385 8.183 4.811 16.805 8.678 24.864.362.757 1.004 1.127 1.697 1.207.832.825 2.145 1.223 4.104 1.335 3.613.206 7.274.252 10.891.162 1.584-.04 3.321.136 4.611-.974 1.455-1.252 1.547-3.746 1.897-5.483.338-1.67.662-3.344.977-5.02l.98-2.519c.308-.796.191-1.466-.159-1.973.06-.34.115-.681.174-1.02a102.584 102.584 0 0 0 1.522-4.822c.15-.526.14-.989.03-1.39 1.28-3.143 1.368-6.658 2.28-9.943 1.161-4.175 2.68-8.316 3.588-12.55 1.415-6.6-.802-14.523-3.716-20.396" mask="url(#f)"/>
        </g>
        <g>
            <path fill="#D1CCB2" d="M98.27 205.317a6.123 6.123 0 0 1-3.134-.362c-.305-1.396-.648-2.777-.948-4.092a1.613 1.613 0 0 0-.397-1.692 1.63 1.63 0 0 0-.553-.715.877.877 0 0 0-.594-.475c-.55-.146-1.09-.315-1.63-.478a11.159 11.159 0 0 0-.384-.114 50.9 50.9 0 0 1-1.56-.52 1.005 1.005 0 0 0-.6-.561l-1.056-.388c-1.073-.431-2.438-1.03-3.66-1.346l-.957-.353c-.33-.121-.617-.027-.84.158a1.884 1.884 0 0 0-.358.083c-.056.019-.101.05-.151.076-.41.075-.81.25-1.138.505-.946.735-1.681 1.587-2.331 2.58l-1.428 1.04a1.01 1.01 0 0 0-.363.503c-.356.042-.7.237-.865.65-.028.072-.05.145-.075.216-.356.057-.675.276-.757.69a23.927 23.927 0 0 0-.381 2.867 16.961 16.961 0 0 0-.062 1.53 24.554 24.554 0 0 0-3.748.58c-1.253.295-.722 2.223.532 1.929a21.579 21.579 0 0 1 2.963-.477c-.867 3.41-1.49 7.074-.23 10.419 1.415 3.75 4.944 4.569 8.539 5.382h.01c.166 1.904.22 3.822.162 5.763-.078 2.576 3.922 2.573 4 0 .015-.46.014-.92.016-1.377.112-.12.218-.254.31-.417.689-1.224 1.044-3.238 2.127-4.128.27-.223 2.085-.651 2.452-.882 1.63-1.03 2.76-2.875 3.106-4.752.059-.323.078-.637.1-.95.062-.08.126-.158.18-.253 1.313-2.3 1.476-4.908 1.175-7.558a.487.487 0 0 0 .245-.18c.076-.104.16-.2.247-.293.387-.24.794-.427 1.216-.587a9.17 9.17 0 0 0 1.353-.093c1.268-.19.729-2.116-.532-1.928"/>
            <path fill="#897D60" d="M94.92 191.793c-.304-.535-.495-.713-1.006-1.052a1.174 1.174 0 0 0-.17-.09 2.685 2.685 0 0 0-.494-.508c-.703-.542-1.58-.492-2.235-1.102-.603-.562-.698-1.33-1.48-1.855-2.254-1.509-5.199-.986-7.567.294a7.034 7.034 0 0 0-1.099.625c-.023.014-.044.022-.067.036-.024.014-.036.037-.058.052-.412.297-.81.626-1.194 1.035a.95.95 0 0 0-.274.68c-1.179.471-2.56.945-3.333 1.851-.68.8-.395 1.641-.846 2.538-.47.934.461 1.78 1.368 1.368a32.807 32.807 0 0 1 7.092-2.298c1.224-.012 2.447.026 3.666.171 1.864.224 3.841 1.37 5.675 1.334l.286.074c.652.168 1.236-.312 1.266-.965.011-.246.014-.498.011-.75.508-.22.731-.956.458-1.438"/>
            <path fill="#66604F" d="M78.176 195.124l-1.04.826a.462.462 0 0 0-.607.052l-.344.376a.516.516 0 0 0-.242.104c-.022.018-.04.04-.06.058a.489.489 0 0 0-.462.343l-.225.656a.423.423 0 0 0 .022.335.551.551 0 0 0 .156.491c.099.393.673.613.897.158.072-.144.115-.299.125-.45.894-.675 1.735-1.409 2.487-2.242.44-.488-.211-1.102-.707-.707M94.653 195.123c-.157-.579-.923-.4-.982.133-.003.027-.003.054-.005.08-.418-.164-.869-.28-1.224-.416-2.028-.776-3.958-1.303-6.106-1.318a.518.518 0 0 0-.393 0h-.144c-.642.021-.645 1.021 0 1 .092-.003.197-.003.298-.004 1.35.78 2.753 1.395 4.209 1.87 1.182.53 2.365 1.06 3.546 1.591.032.013.068.011.102.02.005.053.02.102.022.157.015.648.961.64 1 0a9.343 9.343 0 0 0-.323-3.113"/>
            <path fill="#FFF" d="M87.702 224.105c-.05.34-.099.682-.145 1.02-.157.462-.275.946-.424 1.477a19.941 19.941 0 0 1-1.422 3.637 2.987 2.987 0 0 1-1.136.335c-.108.007-.205.029-.304.049a36.7 36.7 0 0 1-1.18-.32c-1.013-1.288-1.985-3.092-1.27-4.541.654-1.331-.13-3.011-1.728-3.01-4.534.006-6.28-4.707-7.437-8.212a9.798 9.798 0 0 1-.087-1.173c.298-1.454.62-2.881.458-4.41.08-.155.141-.318.227-.472.21-.374-.138-.857-.565-.734a6.031 6.031 0 0 1-3.226.032s.002-.006.001-.01l-.203-1.716c-.002-.016-.008-.031-.01-.048.721-.638 2.398-.8 2.847-.737.993.138 1.683-.595 1.844-1.36.16-.311.272-.67.308-1.083.095-1.087.126-2.166.107-3.24.33-.652.43-1.306.454-1.998.11-.332.205-.67.22-1.053.01-.302-.082-.658-.208-1.028-.01-.568-.06-1.242.026-1.757.428-2.518 1.862-3.074 3.607-4.44 1.894-1.481 3.455-3.111 5.95-3.428 1.787-.226 3.471-.023 5.145.438.031.104.057.208.114.313.63 1.16 1.378 1.917 2.626 2.382.811.303 1.563.676 2.303 1.087.304.908.494 1.865.657 2.804a1.636 1.636 0 0 0-.333.412c-.37.677-.11 1.283.09 1.959.35 1.169.577 2.345.678 3.562.004.05.017.092.025.139-.369 1.419-.906 2.859-.908 3.92 0 .288.072.527.185.729-.106 1.19 1.327 2.08 2.267 1.483.85.05 1.821.136 2.375.72.448.474.27.8-.115 1.269a1.748 1.748 0 0 1-.47.41c-.598.01-1.193.02-1.779.016-1.598-.015-2.003 2.264-.629 2.862-.714 2.072-1.102 4.206-1.804 6.302-1.099 3.285-2.733 4.148-5.137 5.962-.872-.005-1.858.544-1.994 1.45m30.828-11.424c1.542-3.698 4.517-6.996 4.066-11.26-.409-3.86-4.055-6.752-5.74-10.056-1.73-3.394-4.348-5.462-7.758-7.04-4.55-2.104-8.788-4.812-13.349-6.881-2.704-1.227-5.526-2.041-8.318-2.28-.073-.02-.139-.046-.218-.06-.22-.034-.443-.055-.665-.081l.001-.007c-.03-.003-.062-.002-.092-.004a19.737 19.737 0 0 0-5.27.13c-2.763.324-5.485 1.109-7.79 2.556-6.537 3.212-12.457 8.74-16.346 14.283-.069.054-.14.093-.208.156a11.24 11.24 0 0 0-2.223 2.827 21.91 21.91 0 0 0-.874 1.426c-3.616 4.16-3.637 10.069-1.638 15.687a1.43 1.43 0 0 0-.068.97c3.173 12.217 16.93 19.962 28.825 21.84a37.177 37.177 0 0 0 5.666 1.289c5.874.832 10.826-.283 15.421-2.7 2.265-.178 4.503-.452 6.625-.984 3.481-.873 6.607-4.1 8.698-6.892 2.328-3.11 1.907-6.731 1.427-10.344a21.663 21.663 0 0 1-.172-2.575"/>
            <path fill="#262318" d="M70.84 140.453c-.18.325-.373.633-.576.93a19.003 19.003 0 0 1-1.843 1.98c-.033.022-.068.04-.1.063-.07-.015-.135-.036-.21-.033l-3.666.154c-.566-1.148-1.501-1.966-2.716-2.436-.036-.074-.075-.149-.11-.223a1.294 1.294 0 0 0-.324-.407c.002-.007.006-.012.008-.02l.03-.2a.392.392 0 0 0 .148-.258c.033-.229.14-.44.297-.639 1.25-.475 2.49-1.077 3.77-1.354.495-.107 1.01-.214 1.531-.296.982-.004 1.915.115 2.62.381.216.14.42.32.6.638.008.015.021.023.031.035a.89.89 0 0 0 .029.313c.135.475.297.928.484 1.37l-.002.002m8.78-1.634l-.183-2.099a.503.503 0 0 0-.22-.387c-.026-.099-.041-.199-.072-.298a.518.518 0 0 0-.055-.22l-.028-.519c.106-.623-.78-.895-.965-.266a1.82 1.82 0 0 0-.075.438c-.099.574-.197 1.15-.294 1.723-.207.016-.4.13-.433.352-.035.23-.092.454-.13.682-.212-.032-.432.07-.52.35-.037.121-.094.225-.136.34a.41.41 0 0 0-.148.094l-.22.215c-.18.136-.326.298-.472.467a.91.91 0 0 0-.627.12c-.019.012-.35-.269-.63-.512-.308-.778-.55-1.59-1.136-2.213-.88-.933-2.344-1.275-3.552-1.424-1.58-.194-3.168.073-4.707.42-1.876.42-4.276 1.93-6.14 1.946a.924.924 0 0 0-.541.18c-.139-.557-1.046-.544-.979.07.116 1.053.337 1.985.745 2.97.148.353.487.414.724.277-.238 1.348.455 2.278 1.334 3.172l.02.04c.16.324.383.535.63.652.084.113.158.23.22.347-.486.256-.868.73-.862 1.304.01 1.008.18 1.402.873 2.117.246.253.555.386.872.42.28.306.564.61.852.907.035.282.159.565.398.824.576.624.894.804 1.716 1.015.42.108.809.008 1.132-.192.084.034.165.068.263.095 2.391.662 2.896-1.059 3.041-2.836a.849.849 0 0 0 .431.067c3.002-.328 7.082-1.753 7.1-4.912.257-.663.499-1.33.712-2.015.112-.364.028-.647-.147-.853a2.161 2.161 0 0 0-.074-.313c.036.005.069.023.105.02a.502.502 0 0 0 .41-.118c.454-.395.87-.812 1.263-1.268.206-.239.14-.532-.031-.71.269.035.55-.114.536-.469"/>
            <path fill="#623F2B" d="M81.998 130.383c-1.268-.252-1.25-.27-2.446-.212.328-2.429.394-4.85.968-7.305.339-1.449.574-1.375.077-2.855-.231-.688-.841-1.117-1.33-1.634-.043-.124-.086-.248-.136-.367.267-1.098.412-2.13.437-3.294.02-.952-1.07-1.206-1.708-.707-1.651 1.293-6.363.57-8.735.545-2.29-.025-2.777.296-5.024 1.343-1.591.741-2.023.732-2.785 2.284a21.788 21.788 0 0 0-1.593 4.29 1.051 1.051 0 0 0-.151.435l-.057.493a16.68 16.68 0 0 0-.315 2.672.842.842 0 0 0 .124.458c-.01.36-.002.721.002 1.083-.045.133-.08.272-.12.408a.797.797 0 0 0-.193.254c-.622 1.33-1.988 1.742-3.296 2.143a.942.942 0 0 0-.598.5c-1.222.365-.698 2.283.539 1.925.674-.196 1.46-.395 2.215-.665a20.461 20.461 0 0 0 .603 5.457c.287 1.181 2.002.765 1.936-.34 1.382.21 3.267-.567 4.53-.778 1.879-.315 7.43-1.25 9.149 1.023-.035.401.017.818.225 1.267a.787.787 0 0 0 .39.38c.377.758 1.475.802 1.842-.136a38.611 38.611 0 0 0 1.42-4.376c.202-.307.358-.573.418-.753.024-.074.032-.143.053-.216a1.08 1.08 0 0 0 .293-.182l3-1.176c1.078-.039 1.419-1.735.266-1.964"/>
            <path fill="#623F2B" d="M69.759 139.628a2.182 2.182 0 0 0-.211-.697c-1.046-2.089-4.897-.55-6.482-.116a1 1 0 0 0-.345.168c-.34-.05-.684.081-.87.505-.212.485-.3.778-.15 1.29.09.305.293.5.547.615.048.064.077.138.136.197.318.32.785.49 1.223.534.09.01.319.041.48.025.26 1.042 1.205 1.226 2.262 1.066.165.066.345.108.553.08.2-.027.399-.085.596-.163a6.89 6.89 0 0 0 2.132-1.085c.373-.28.49-.667.436-1.015.359-.446.144-1.092-.307-1.404M71.278 150.761c.469-1.199-1.464-1.72-1.928-.532-.229.584-.293 1.172-.267 1.774a1.452 1.452 0 0 0-1.353.212c-1.149.868-.609 2.718.009 3.76.671 1.126 2.745 1.162 3.464.028.961-1.514-.563-3.61.075-5.242"/>
            <path fill="#262318" d="M85.116 116.751c.343-.927-.375-1.668-1.19-1.835-.388-1.956-1.855-3.923-3.341-5.575-3.13-3.479-7.57-4.316-11.865-5.107-5.787-1.066-10.076 2.112-11.276 8.205-.93.708-1.923 1.298-2.797 2.072-.484.21-.885.656-1.014 1.167-.422.77-.347 1.563.102 2.461-.15.447-.302.883-.322 1.02a7.943 7.943 0 0 0-.022 2.075c-.065.238-.067.5.022.775l.18.554c.193.59.594.912 1.04 1.02-.138.448-.053.955.408 1.38l1.78 1.64c.899.826 2.637.3 2.56-1.062a22.514 22.514 0 0 1-.024-1.886c.017-.044.039-.083.054-.13a36.942 36.942 0 0 1 3.017-6.973c3.114-.666 5.868-2.393 9.483-1.982 1.488.17 2.76.301 4.237.331 1.262.027 1.037-.647 2.487.044.666.32.97.621 1.112.99-.006.016-.016.031-.022.048-.548 1.457-.564 3.352.996 4.195.103.574.217 1.245-.033 1.771-.331.696-.736 1.321-.405 2.052a8.61 8.61 0 0 0-.415 3.073c.029.573.796.67.982.134.263-.755.448-1.519.574-2.298.958.16 2.01-.605 1.843-1.572.21-.44.39-.875.478-1.398.824-.454 1.148-1.547.88-2.448a3.292 3.292 0 0 0-.238-.554 32.803 32.803 0 0 1 .729-2.187"/>
            <path fill="#FFF" d="M85.105 117.627c-.504.298-.602 1.152-.15 1.535.009.01.02.014.029.022.055 1.61-.793 2.12-1.377 3.476-.133.311-.058.687-.18.977-.378.896-.82.863-1.322 1.256-.835.652-1.235.996-1.76 2.008a1.938 1.938 0 0 0-.162 1.464c-.347.586-.092 1.53.798 1.533.107.087.216.174.354.24.443.205.88.345 1.335.486.049.2.122.39.223.566a2.3 2.3 0 0 0 .013.688c-.47.15-.816.456-1.028.844-.052-.004-.105-.02-.157-.02a2.05 2.05 0 0 0-.674-.116c-2.277 0-2.54 3.127-.784 3.848.107.285.186.566.175.842-.06 1.608-1.75 3.146-2.182 4.666-.197.691-.457 1.937-.86 3.191-1.09.355-1.484 1.584-1.174 2.571-.578.837-1.308 1.38-2.253 1.251-2.16-.29-3.261 2.5-1.925 3.516.034.442.049.885.076 1.327a4.864 4.864 0 0 1-.427 1.588.995.995 0 0 0-.056.697c-2.131 1.181-5.48.852-4.915-2.39.089-.509-.13-1.105-.698-1.229-2.898-.637-4.562-2.946-6.453-5.032-.004-.004-.008-.005-.011-.009.17-.315.343-.628.515-.942.334-.61-.02-1.172-.51-1.394-.287-.814-.813-1.602-1.265-2.543-.68-1.41-1.207-2.515-1.12-4.156.072-1.327.22-2.546.158-3.867.6-.566.41-1.8-.611-1.722-1.13.088-2.84.063-2.27-1.542.006-.016.015-.027.02-.043.295-.235.533-.533.694-.89.46-.309 1.053-.423 1.673-.487.149-.016.278-.06.393-.12.262.037.539-.04.774-.312.084-.096.13-.187.182-.279.564-.493.178-1.614-.688-1.706a8.534 8.534 0 0 0-.691-.429c-1.1-.63-1.874-1.35-2.196-2.618a1.007 1.007 0 0 0-.188-.387.903.903 0 0 0-.395-.44 3.097 3.097 0 0 1-.988-.858c-.087-.144-.171-.289-.26-.433-.243-.518-.307-1.117-.14-1.76.13-.495.494-.848.503-1.383.013-.747-.495-1.36-.51-2.127-.02-.97.49-1.744 1.156-2.375.92-.309 1.968-.384 2.71-1.053.406-.365.489-.757.447-1.29-.075-.965-.214-1.75.54-2.303.795.107 1.363-.9.902-1.56.53-.65 1.052-1.32 1.556-2.023.36-.1.727-.194.966-.505.284-.37.38-.726.657-1.042 1.092-.232 2.183-.465 3.275-.696 1.705.218 3.422-.193 5.167.47 1.63.621 3.244.38 4.889.575.788.766 1.667 1.31 2.69 1.795.659.312.982.771 1.544 1.186.448.331.965.471 1.45.716.176.237.33.501.437.832-.091.457.095.933.693 1.026.214.035.424.081.629.14.344.183.678.387.948.658.252.253.403.562.505.89.02.218.024.444.017.7-.013.46-.051.871.283 1.235.203.222.519.3.779.436.048.096.104.191.176.285.36.476.192 1.565.049 2.545m24.158 4.783c-.538-3.77-2.905-6.538-5.412-9.19-1.707-1.807-2.784-2.873-3.526-5.414-.536-1.834-.834-3.637-1.81-5.316-3.576-6.159-11.158-8.012-17.79-7.459-9.01.752-18.046 3.454-26.873 5.321-1.42.3-2.08 1.303-2.15 2.398-4.126 2.13-7.77 5.602-10.295 9.19-2.635 3.741-5.406 7.412-6.385 11.603-.865 1.91-1.316 3.78-.705 6.278.72 2.95 2.068 5.883 3.428 8.683-.006.354.06.738.233 1.153a23.983 23.983 0 0 1 1.468 4.872c-.472 3.814-1.272 8.025 1.882 10.843 1.355 1.211 3.102 1.681 4.767 2.294 2.683.988 5.012 2.156 7.48 3.585 5.738 3.321 15.26 8.025 21.47 3.371a12.48 12.48 0 0 0 1.842-1.203 3.059 3.059 0 0 0 1.24-.68c3.7-3.284 6.72-7.245 10.476-10.469 3.659-3.142 7.735-5.744 11.179-9.143 3.657-3.61 7.808-9.039 8.356-14.48.949-1.977 1.434-4.074 1.125-6.237"/>
            <path fill="#EFECD3" d="M94.938 32.82c-1.868-1.186-4.555-1.227-7.053-1.586-1.13-.365-2.367-.764-3.529-.99-1.269-.66-2.682-1.881-4.228-1.408-1.58.482-3.922 3.812-4.645 5.09-.974 1.722-.97 3.035-.523 4.875-.008.778-.007 1.23.031 1.629-.433 3.758.742 7.622 2.718 10.869 1.4 2.299 4.442 8.492 7.727 9.41.198 2.219.226 4.882 1.94 6.32.435.367 1.29.438 1.57-.201.391-.9.658-1.757.846-2.61a.727.727 0 0 0 .184-.381c.265-1.841.326-3.41.121-5.28 0-.008-.005-.013-.007-.021 1.611-1.42 2.922-3.347 3.905-5.548a21.408 21.408 0 0 0 2.434-6.435c.763-3.731 2.182-11.402-1.49-13.733M101.165 42.527c-.492-.397-1.076-.573-1.643-.52a.908.908 0 0 0-.58.13 1.75 1.75 0 0 1-.058.036 2.185 2.185 0 0 0-.62.415c-.717.682.005 1.834.85 1.707.008.005.015.014.024.02.704.504 1.823.215 2.184-.576.17-.372.206-.92-.157-1.212M72.372 43.12c-1.287 0-1.289 2 0 2 1.287 0 1.29-2 0-2"/>
            <path fill="#EDE48C" d="M99.42 54.48c.516-2.764.91-5.56 1.076-8.441.054-.936-.598-1.405-1.313-1.433a.513.513 0 0 0-.355-.441 78.954 78.954 0 0 0-.52-.161c-.436-.134-.69.309-.585.647a.596.596 0 0 0-.09.04 42.4 42.4 0 0 0 .333-2.768c.174.12.4.139.577-.077.614-.754 1.815.023 1.868-1.262a5.015 5.015 0 0 0-.068-.917c.2-.17.353-.408.387-.712.433-3.903.227-7.484-2.153-10.672-.652-.875-1.164-1.753-2.125-2.31-1.263-.73-2.36-.978-3.632-1.898-.553-.4-.947-.864-1.594-1.113-4.07-1.561-16.78 1.114-16.286 7.19.005.067.03.128.048.19-1.49 2.095-2.241 4.694-1.996 7.495.036.41.276.674.57.822.149 2.204.039 4.41-.006 6.599-.17.21-.25.49-.134.835l.117.347c-.003 1.756.09 3.497.47 5.21a1.59 1.59 0 0 0-.002.51 30.382 30.382 0 0 0 1.763 6.189c.022.163.059.327.126.496.227.579.427 1.169.613 1.762-.61 2.188-.012 4.26.55 6.518.376 1.51 1.699 1.973 2.877 1.7.36.23.787.374 1.282.379.784.007 1.625-.454 2.107-1.132.148-.12.276-.262.389-.418.24-.127.454-.32.65-.55.754-.377 1.295-1.102 1.207-2.125-.07-.811-.266-1.57-.445-2.337.275-1.102-.13-2.35-1.455-2.863a1.025 1.025 0 0 0-.32-.382c-2.575-1.9-3.931-4.902-5.846-7.422l-2.04-6.07c.037-2.283.216-4.59.112-6.85a.869.869 0 0 0 .21-.627c-.081-1.684-.196-3.424.216-5.076.095-.381.227-.74.374-1.088 1.237-1.632 2.665-2.795 4.465-3.728 1.98 1.504 4.124 2.165 6.583 2.716 3.842.862 8.246 1.308 9.637 5.532.313 5.283-.688 10.596-2.344 15.633-.65 1.23-1.522 2.303-2.355 3.392-.853.727-1.756 1.432-2.161 2.293-.563 1.195.09 2.827.008 4.087-.093 1.406-.371 2.744-.527 4.104l-.237.74c-.207.47-.37.959-.458 1.47-.163.952.097 1.912.765 2.525.09.137.196.264.317.375.982.9 2.299.916 3.325.157.01-.005.033-.017.08-.045l.2-.05c.343-.091.692-.15 1.029-.262.12-.04.226-.094.34-.14.004 0 .007 0 .01.002.9.078 1.788-.074 2.676-.214 1.302-.204 2.118-1.9 1.746-3.075a7.624 7.624 0 0 1-.155-.583c.492-1.993 1.54-3.837 1.702-5.923.184-2.392-.852-4.57-1.603-6.79"/>
            <path fill="#FFF" d="M100.801 47.124c.03.102.08.18.13.258-.63 2.588-1.267 5.404-.644 7.977.373 1.54.842 2.82 1.125 4.151.01.51.02 1.021.026 1.53-.309 2.89-1.606 5.713-2.09 8.606a4.132 4.132 0 0 1-.473.657 30.38 30.38 0 0 1-2.167.72c-.446-.025-.896-.08-1.326-.063-.787.03-1.248.201-2.018.327-1.539.253-2.565.066-3.359-.643a2.552 2.552 0 0 1-.32-.44c-.474-.84-.488-1.795-.146-2.679.078-.117.158-.238.231-.352.318-.5-.382-.954-.766-.607a.42.42 0 0 0-.253.233c-.032.07-.049.141-.078.212-.084.12-.163.237-.247.361-.15.028-.3.055-.45.066-.008 0-.013-.004-.02-.005a5.973 5.973 0 0 1-.867-.025h-.002a.536.536 0 0 0-.319-.09c-.008-.074-.027-.149-.016-.22.157-1.024-1.272-1.873-1.827-.77-1.557 3.09-4.847 2.545-7.61 1.556-.738-.838-1.166-2.05-1.444-3.4.37-1.079.33-2.562.21-3.5a5.947 5.947 0 0 0-.532-1.803c.002-.097-.006-.2-.038-.31a25.446 25.446 0 0 1-.353-1.22c-.096-.39-.178-.784-.244-1.18a.965.965 0 0 0-.15-.336c-.285-1.139-.577-2.275-1.026-3.403-.022-.054-.06-.089-.087-.137-.26-1.162-.41-2.357-.6-3.525.233-.923.6-2.258.135-3.122-.473-.88-3.227-1.984-.466-3.406.44-.227.558-.62.475-.987a1.079 1.079 0 0 0-.047-.404c.171-.763.025-1.685-.202-2.489.17-1.1-.099-2.146-.13-3.229.1-.435.143-.849.131-1.29.763-1.72 1.167-3.522 1.81-5.31.995-2.776 3.538-3.902 5.993-5.2 3.612-.45 7.166-1.56 10.793-1.038 1.034 1.107 2.053 2.134 3.517 2.728.325.132.63.291.921.467 1.673 1.915 3.513 3.853 4.711 6.04.737 3.067.275 6.382-.097 9.536-.058.49.204.787.554.9.08.16.16.318.24.481.406.834.221.861-.294 1.47-.72.847-.59 1.915-.294 2.907m23.733-22.212c-2.62-3.59-8.358-6.412-13.48-6.51-3.665-1.137-7.523-1.755-11.12-3.186-4.893-1.946-10.059-4.83-15.475-4.282-.42.043-.785.163-1.113.325-4.25-.167-8.587 3.348-11.665 6.713-5.532 3.901-10.75 8.493-16.234 12.428-4.876 3.498-6.313 8.467-4.114 14.113.12.304.28.56.455.791.763 3.084 1.744 5.878 1.554 9.18-.16 2.774-.788 5.374.843 7.87 1.405 2.148 3.711 2.921 5.824 4.176.95.565 1.834 1.156 2.71 1.73 3.095 2.817 6.415 5.492 9.986 7.573 4.152 2.42 8.736 2.711 13.458 2.675 6.962-.054 14.358-1.514 20.34-5.197 5.501-1.11 11.048-2.954 14.275-7.885 3.857-5.899 1.652-14.543 2.565-21.225.02-.133.012-.256.015-.384.787-2.342 1.552-4.692 2.228-7.06 1.14-3.988 1.523-8.316-1.052-11.845M141.52 136.42c.08-.106.142-.215.193-.322 3.906.428 8.365-.277 11.492-.298 3.428-.024 6.739.836 10.038 1.608.612 1.29.599 2.867 1.406 3.993.502.701 1.34.958 2.144 1.26.005.04-.002.08.006.12l-.153 1.233-7.351 1.224a152.624 152.624 0 0 0-18.997 2.817c-.38-.04-.755-.094-1.12-.17.194-.527.185-1.124-.144-1.649-2.232-3.545.369-6.993 2.486-9.816m38.935.511c-.486.03-2.152.083-3.498.167-.022-.059-.038-.117-.074-.175l-.058-.092.009-.089c.173-.273.24-.622.069-.993-.02-.044-.044-.085-.065-.129-.113-.97-.551-1.82-1.42-2.528a1.075 1.075 0 0 0-.27-.15c-.221-.318-.43-.64-.665-.953-.472-.627-1.258-.648-1.727 0l-.324.216a1.011 1.011 0 0 0-.606.105l-2.496 1.294c-2.344-.25-4.728-.978-7.1-1.629a1.914 1.914 0 0 0-.105-1.277c.334-.594.452-1.356.232-2.353-.495-2.253-2.378-4.487-3.162-6.732-.955-2.735-1.7-5.55-2.58-8.312-1.826-5.736-3.932-11.304-7.038-16.482a2.216 2.216 0 0 0-.421-.502c-.26-2.15-2.587-2.89-4.232-1.583a139.185 139.185 0 0 1-5.182 3.922 2.32 2.32 0 0 0-1.088.465l-4.705 3.516a2.625 2.625 0 0 0-.951 1.313c-.657.665-1.22 1.412-1.563 2.352-1.231 3.374-1.4 7.504-1.7 11.3a1.743 1.743 0 0 0-.41.85c-1.481 7.876-4.316 17.383-.406 24.751.052.1.11.185.17.268.074 1.707.492 3.352 1.524 4.526 1.369 1.558 3.535 1.361 5.546 1.274.056.324.219.626.483.861-.264.781-.181 1.684.503 2.472 1.497 1.717-.814 6.453.109 8.933.165.444.376.837.604 1.21-.061 1.817.652 3.361 1.829 4.652 1.596 3.102 6.81 4.812 9.732 5.243 8.357 1.23 17.58 1.202 25.69-1.289 2.523-.775 2.134-3.939.199-4.714.326-.566.64-1.19.939-1.909 1.274-3.063 1.628-5.607 1.213-8.845-.467-3.65 1.414-7.242.16-10.75-.038-.108-.097-.196-.145-.295 1.359-1.159 2.512-2.579 3.05-4.269.06-.089.124-.178.184-.267a.805.805 0 0 0 .569-.452l.856-1.855c.518-1.123-1.021-2.098-1.68-1.066"/>
            <path fill="#FFF" d="M184.577 108.82c-1.06-4.392-5.018-7.211-8.867-9.181-.107-.38-.407-.702-.913-.72-.1-.002-.198-.006-.296-.01-.014-.008-.027-.02-.041-.028a2.031 2.031 0 0 0-.544-.248 18.112 18.112 0 0 1-3.39-2.404 1.195 1.195 0 0 0-.61-.248c-.34-.921-1.94-.814-1.924.344.006.514.006.824.046 1.075a.887.887 0 0 0-.075.675c.915 3.196.588 5.637-.074 8.732-.084.389-.157.797-.226 1.208l-2.608-1.263a27.268 27.268 0 0 1-.292-.801c.454-1.17.706-2.181.83-3.252a.831.831 0 0 0 .25-.435c.199-.97.17-1.204-.277-2.085-.031-.061-.075-.1-.114-.15-.053-.207-.101-.414-.162-.624-.012-.044-.035-.073-.055-.108a26.553 26.553 0 0 0-.074-.267c-.06-.216-.201-.325-.358-.352l.316-1.757c.083-.463-.463-.872-.835-.488-1.052 1.088-1.617 3.089-3.12 3.532a1.635 1.635 0 0 0-.297-.066 20.768 20.768 0 0 1-.235-.068c-.195-.755.417-1.753.61-2.424.015-.052.014-.098.015-.145l1.929-2.5c.376-.281.634-.727.613-1.194-.003-.068-.032-.124-.043-.188.384-.238.244-.754-.131-.902-.23-.091-.464-.161-.694-.247-.053-.025-.11-.04-.166-.058-.628-.234-1.254-.471-1.896-.675-.244-.077-.563.092-.615.349-.034.173-.064.399-.095.64-.04.032-.084.055-.12.09-.484.485-.538 1.189-.246 1.759a.454.454 0 0 0-.133.129c-.465.699-.416.63-.735 1.406a.386.386 0 0 0 .004.304c-.244-.067-.516.03-.608.32l-.08.064c-.362-.012-.646.442-.432.753.163.236.309.46.444.685.003.033-.001.064.01.1.16.549.37 1.03.632 1.486-.14.112-.22.283-.136.48.238.568.498 1.015.857 1.465-.264.064-.484.304-.365.602.339.85.71 1.617 1.184 2.406.19.316.53.288.739.104.382.718.774 1.43 1.17 2.138a.954.954 0 0 0 .1.607l1.435 2.704.086.177c.008.147.044.299.134.457 3.22 5.663 6.276 11.315 7.865 17.68.1.403.538.763.964.735a60.76 60.76 0 0 1 9.376.11c.437.039.849-.338.964-.734 1.892-6.486 2.955-12.866 1.309-19.693"/>
            <path fill="#B2AA84" d="M175.634 62.373c-.035 0-.067-.007-.104-.005l-3.075.187c.088-1.29.406-2.556.84-3.794 1.106.037 2.9-.219 3.12 1.336.11.77-.44 1.534-.78 2.276m2.066 22.663a3.77 3.77 0 0 1-.04-.204c.21-.515.13-1.194-.244-1.682l-.037-.306c.686-2.67 2.608-5.588 1.053-8.162a1.457 1.457 0 0 0-.54-.508c.141-.64.177-1.346.174-2.048.153-.222.253-.502.262-.848.068-.99.057-1.98-.034-2.968a1.483 1.483 0 0 0-.236-.708c.03-.478.027-.928-.003-1.353.261-.204.48-.465.601-.752.122-.289.213-.587.315-.882 1.97-2.46 1.608-5.582.468-8.394.114-.197.201-.412.217-.67.192-3.078.162-6.197-1.904-8.68-.51-.612-1.149-1.078-1.682-1.66a8.073 8.073 0 0 1-.999-1.352c-.23-2.845-1.483-6.256-4.574-6.248-.228 0-.437.055-.622.148-.5-1.299-1.239-2.482-2.474-3.232-.925-.56-1.802-.547-2.807-.742-1.713-.332-3.325-1.168-5.076-1.189-.66-.008-1.327.022-1.995.087l-.02-.013c-1.877-.95-3.457-.49-4.682 1.116-2.504.973-4.734 2.552-6.233 4.797-.264.395-.239.888-.078 1.314-.19.031-.383.06-.57.092-.942.161-1.218.953-1.028 1.671a.546.546 0 0 0-.184.16l-.6.811a.392.392 0 0 0-.075.257c-1.01 1.446-1.343 3.19-.984 5.024-.223 2.933-.374 5.873-.543 8.81-.148.137-.134.314-.269.67-.15.391-.166.983-.125 1.636a.459.459 0 0 0-.109.293 41.597 41.597 0 0 0 .202 4.98c.01.095.046.174.092.242.031.93.107 1.853.232 2.787l.001.03.002-.002c.007.045.01.09.017.134.035.252.244.357.46.351.011.063.02.127.03.19a.894.894 0 0 0-.263.68 52 52 0 0 1-.015 2.234 19.709 19.709 0 0 0-.194 2.98c-.663 2.181-.263 4.45-.406 6.726-.08 1.306 1.856 1.25 2 0 .023-.192 2.151-.834 2.357-.907.428-.15.724-.5.735-.965l.1-4.245a.93.93 0 0 0-.178-.58 11.098 11.098 0 0 0-.72-2.813c-.03-.078-.08-.129-.122-.193a.478.478 0 0 0-.056-.27c-.22-.404-.398-.814-.59-1.222-.54-1.29-.894-2.653-1.427-3.949-.067-.265-.142-.528-.199-.796.003-.045.011-.089.002-.139-.05-.222-.073-.447-.105-.67.004-.03.015-.057.012-.092l-.108-1.45a.5.5 0 0 0-.184-.364c.197-3.418.26-6.836.172-10.26 0-.037-.015-.064-.022-.096l.018-.29c.046-.737.02-1.767.057-2.856a.41.41 0 0 0 .186-.386c-.03-.382-.04-.733-.042-1.078a.49.49 0 0 0 .087-.2c.303-1.65 1.01-2.889 2.36-3.915.006-.006.01-.014.017-.02.068-.003.134-.003.206-.014 6.91-1.185 17.23-1.48 21.03 5.668.847 1.593 1.188 3.44 2.231 4.93-.026.026-.054.044-.08.073-2.12 2.346-2.035 6.184-1.568 9.631-.18.841-.359 1.715-.406 2.55-.262.111-.5.302-.679.597-1.467 2.42-3.403 4.957-4.88 7.6-.434.294-.87.601-1.115 1.021-.462.795-.54 1.66-.488 2.551-.03.095-.072.188-.1.283-1.1 3.716-.483 8.263-.49 12.087-.003.652.465 1.28 1.1 1.446.682.18 1.523.203 2.268.3.29.197.588.381.892.555a4.6 4.6 0 0 1-.592 1.971c-.977 1.705-2.51 2.592-3.259 4.51-.468 1.2 1.466 1.72 1.93.531 1.022-2.623 3.546-3.639 3.865-6.68.002-.023 0-.044.002-.067.301.124.558.246.77.371-.862 1.23-1.712 2.558-1.874 3.94-.283 2.397 1.442 4.324 1.207 6.825-.006.067.014.114.02.174-.049.227-.114.453-.17.68-.419.115-.802.448-.837.932-.079 1.08.031 1.857.437 2.882.468 1.183 2.403.668 1.928-.53a3.537 3.537 0 0 1-.278-.684c.024-.042.057-.08.075-.126.753-1.984 1.11-3.86 1.175-5.98.018-.592-.35-.886-.775-.937a18.33 18.33 0 0 1-.136-.67 8.185 8.185 0 0 1-.14-2.094c.002-.016.011-.028.013-.044.091-1.16.98-1.829 1.992-1.857a.13.13 0 0 0 .012.011c2.108 1.887 4.841 2.401 6.706 4.631.884 1.056 2.515.138 2.561-1.06.131-3.418 1.264-6.11.288-9.477-.437-1.509-1.232-2.883-1.672-4.39M146.875 92.326a16.596 16.596 0 0 1-3.182-4.596c-.003-.006-.007-.008-.01-.013-.007-.162 0-.32-.012-.484-.088-1.273-1.965-1.299-2 0-.053 1.973-.3 3.753-1.14 5.555-.623 1.337-1.28 2.573-1.546 4.037-.2 1.097 1.188 1.758 1.828.771 1.314-2.03 3.25-3.215 5.621-3.599.772-.125.921-1.18.441-1.67"/>
            <path fill="#EFECD3" d="M175.567 59.939a1.09 1.09 0 0 0-.177-.421c-.274-.39-.771-.513-1.213-.411-.298-.095-.608-.114-.879.074a.773.773 0 0 0-.255.995c-.015.059-.038.116-.039.178-.002.172.042.32.103.459.005.332.101.65.319.85a.872.872 0 0 0 1.177 0c.023-.02.032-.047.052-.07.08-.007.161-.012.236-.031.447-.104.933-.434.971-.93.021-.275-.109-.503-.295-.693M152.556 96.81c-.085-.048-.158-.102-.238-.152.136-.568.23-1.14.297-1.716.744-.047 1.532-.065 2.203-.313.2.525.411 1.3.5 1.555.056.164.118.336.18.51-.992.792-1.856.73-2.942.116m19.433 32.797c-.906-2.034-1.068-4.368-1.944-6.447-1.074-2.551-2.532-4.913-3.867-7.33-2.95-5.342-5.616-10.824-8.064-16.414a2.052 2.052 0 0 0-.32-.5 1.36 1.36 0 0 0 .128-.425c.093-.744-.21-1.653-.516-2.452.25.237.778.173.84-.216l.004-.023a.492.492 0 0 0 .446-.344 31.55 31.55 0 0 0 .983-4.03.558.558 0 0 0-.014-.246c.027-.052.05-.108.088-.152.09-.1.132-.214.136-.33.122-.298-.082-.656-.375-.704.063-.142.121-.288.151-.45.894-4.683 1.21-9.555 1.45-14.41a2.68 2.68 0 0 0 .775-.688c2.024-2.643 4.048-5.346 5.188-8.51a16.21 16.21 0 0 0 .941-4.487c.083-1.302-.149-2.682-.094-3.982a62.807 62.807 0 0 1 1.8-3.82c.562-1.086.311-2.148-.323-2.857a2.483 2.483 0 0 0-.144-.948c-1.62-4.57-5.022-6.124-9.475-7.311-2.349-.626-3.857-1.176-6.07-.921-1.916.22-5.678.319-7.399 1.394-3.508 2.193-2.245 9.742-2.434 13.282-.147 2.76-.343 5.589.404 8.292.841 3.045 2.736 5.556 3.271 8.72.06.348.248.679.501.962-.359.396-.582.94-.543 1.65.065 1.192.218 2.437.236 3.658-2.97 1.454-6.196 2.513-4.929 6.463.675 2.106 2.555 5.192 4.41 6.534a4.48 4.48 0 0 0 1.167.595.429.429 0 0 0-.118.308.412.412 0 0 0 .007.245c.251.71.54 1.405.855 2.084.005.044-.005.084.006.129a20.69 20.69 0 0 0 1.571 4.175c.186.369.49.498.797.489a16.325 16.325 0 0 0 2.145 3.8c.581 2.26 1.134 4.553 1.932 6.73.861 2.353 2.416 4.354 3.282 6.692.811 2.186 1.016 4.562 1.47 6.835.514 2.584 1.543 4.859 2.288 7.364.288.968 1.32 1.944 2.411 1.836l4.787-.478c1.997-.2 2.97-1.945 2.16-3.762M166.151 142.4a11.462 11.462 0 0 0-2.019-.096c.61-1.1.572-2.424-.192-3.59-1.416-2.16-4.574-2.201-6.85-2.374-2.62-.2-8.191-1.17-11.979-.11-.575-.225-1.245-.228-1.939.104a2.171 2.171 0 0 0-.642.229l-1.275.713c-1.001.56-1.333 1.424-1.229 2.252-.564.465-1.142.953-1.432 1.604-.684 1.54-.56 3.148.065 4.667.556 1.354 1.597 1.994 3.075 1.747l12.947-2.165c2.295-.383 5.647-.32 7.808-1.51a.479.479 0 0 0 .382.06 5.333 5.333 0 0 1 2.301-.06c.337.065.643-.214.637-.512.026.004.051.003.076.007.63.085.902-.88.266-.965M182.48 131.193c-.05-.852-.288-1.63-.925-2.053-.7-.464-1.735-.33-2.524-.342a65.285 65.285 0 0 0-2.542.023c-.636-.01-1.274.002-1.92.056-.453.037-.586.54-.388.818-.282-.243-.408-.3-.904-.475-.446-.158-.737.375-.564.735.378.784.863 1.276 1.634 1.67l.38.515a.558.558 0 0 0 .503.22c.475.598 1.045 1.337 1.652 1.819l.01.014c.477.786.201 1.862.727 2.575.43.582 1.22.647 1.683.105a.579.579 0 0 0 .111-.202.428.428 0 0 0 .281.004c1.035-.337 1.674-.976 2.08-1.762a.446.446 0 0 0 .38-.227c.634-1.137.756-2.291.325-3.493"/>
            <path fill="#071F2C" d="M113.733 227.715c2.373-.679 4.344-2.22 5.471-4.44 1.278-2.518.79-4.847.262-7.479-.859-4.279 2.162-6.997 3.023-10.913.607-2.757-.036-5.608-1.223-8.119-2.856-6.039-8.599-10.67-14.155-14.134-5.809-3.62-12.701-7.075-19.523-8.14-6.732-1.052-13.243 1.28-18.709 5.144-2.936 2.076-5.577 4.527-8.102 7.08-2.458 2.483-5.044 4.978-7.124 7.797-7.774 10.54-1.39 26.331 8.237 33.333 6.453 4.693 15.451 7.682 23.297 8.744 4.047.548 7.904.071 11.826-.976 4.419-1.178 8.733-2.692 13.373-2.472.643.031.641-.969 0-1-6.227-.295-11.827 2.521-17.873 3.447-6.964 1.066-14.083-1.283-20.542-3.69-6.299-2.347-12.032-5.802-15.874-11.45-3.407-5.008-5.285-11.259-4.706-17.333.671-7.033 6.285-11.952 11.036-16.637 4.816-4.749 10.357-9.19 17.093-10.737 6.879-1.58 13.507.911 19.682 3.776 5.654 2.625 11.067 5.925 15.554 10.287 2.682 2.606 5.169 5.627 6.347 9.234 1.394 4.273-.183 7.147-1.906 10.94-1.167 2.57-.995 4.55-.427 7.243.894 4.24-.922 8.277-5.303 9.531-.617.177-.355 1.142.266.964M77.53 83.498c.55-5.479-5.475-8.682-9.287-11.314-2.915-2.014-5.83-4.029-8.746-6.042-3.586-2.478-6.742-4.572-6.424-9.463.187-2.879.595-5.433-.175-8.28-.917-3.393-2.958-6.894-2.127-10.513.771-3.354 3.804-5.623 6.302-7.703 2.912-2.426 5.828-4.847 8.742-7.27 5.154-4.286 10.541-9.42 17.27-10.98 7.237-1.68 13.086 2.77 19.572 5.082 6.554 2.336 14.113 2.786 19.454 7.717 2.578 2.38 4.158 5.515 3.877 9.08-.277 3.507-2.018 6.706-3.153 9.975-1.16 3.343-1.33 6.542-1.13 10.06.241 4.233.546 8.595-2.435 12.028-5.05 5.815-14.746 8.1-22.059 8.791-.635.06-.64 1.061 0 1 7.028-.666 14.707-2.676 20.446-6.979 5.875-4.405 5.12-10.38 4.944-16.985-.112-4.175 1.223-7.707 2.691-11.529 1.09-2.834 2.058-5.818 1.617-8.892-.866-6.042-6.573-9.856-11.9-11.733-3.678-1.297-7.534-1.988-11.236-3.208-3.683-1.214-7.04-3.184-10.669-4.526-6.717-2.484-12.969-.764-18.758 3.115-6.37 4.27-12.094 9.646-17.98 14.546-2.388 1.988-5.035 4.048-6.199 7.036-1.127 2.89-.334 5.858.624 8.675.717 2.11 1.562 4.24 1.67 6.492.1 2.09-.457 4.145-.432 6.232.038 3.32 1.86 5.458 4.442 7.34 3.82 2.781 7.778 5.387 11.665 8.072 3.424 2.364 8.884 5.28 8.394 10.176-.064.64.937.635 1 0M81.903 96.035c5.335.864 11.147 1.822 15.106 5.852 3.537 3.6 3.093 8.966 6.143 12.866 1.588 2.031 3.546 3.725 4.556 6.153 1.168 2.811 1.111 5.998.24 8.887-1.669 5.541-6.013 9.874-10.159 13.69-4.099 3.774-8.492 7.231-12.369 11.242-3.251 3.365-6.122 7.418-10.262 9.774-5.555 3.159-11.73 1.286-16.995-1.529-4.424-2.367-8.525-4.96-13.295-6.6-1.454-.5-3.075-1.046-4.206-2.15-1.699-1.663-1.34-3.905-1.083-6.028.294-2.434.156-4.584-.615-6.928-1.808-5.488-6.547-11.608-3.039-17.4.334-.553-.53-1.056-.864-.506-2.63 4.346-.908 9.252.999 13.522 1.5 3.356 2.994 6.566 2.646 10.332-.228 2.465-.933 5.001.742 7.149 1.184 1.518 3.073 2.239 4.828 2.862 3.094 1.097 5.985 2.384 8.839 4.02 5.029 2.88 10.346 6.234 16.386 5.957 5.172-.238 9.08-3.594 12.445-7.206a184.6 184.6 0 0 1 13.518-13.093c7.29-6.387 18.786-17.072 12.46-27.842-1.893-3.222-4.924-5.284-6.121-8.982-.845-2.614-1.223-5.234-2.888-7.497-3.877-5.272-10.7-6.53-16.746-7.509-.63-.102-.901.861-.266.965M38.083 116.406c7.61-11.537 20.591-18.835 34.4-19.35.642-.022.645-1.023 0-1-14.175.529-27.454 8.005-35.263 19.845-.356.538.51 1.04.863.505M131.384.463c-3.147.401-2.937 4.573-.183 5.474 1.12.365 2.862.255 3.632-.769.92-1.224-.036-2.996-1.045-3.825-.494-.405-1.205.3-.708.707.55.452 1.182 1.224 1.106 2.001-.107 1.091-1.625 1.186-2.416 1.007-.792-.18-1.49-.754-1.704-1.555-.248-.924.334-1.915 1.318-2.04.629-.08.638-1.082 0-1M96.292 159.885c-1.259.476-2.667 1.065-3.134 2.451-.4 1.188.124 2.318 1.266 2.805 1.154.492 2.793.64 3.803-.239.844-.735.996-2.059.195-2.87-.453-.459-1.16.25-.707.707.684.693-.108 1.571-.835 1.735-.692.157-1.677.013-2.295-.36-.822-.5-.64-1.485-.087-2.117.52-.593 1.345-.878 2.06-1.148.596-.226.338-1.193-.266-.964M113.718 104.824c-1.288.331-2.45 1.08-2.182 2.587.275 1.554 1.733 2.28 3.196 2.32 1.135.03 2.965-.207 3.259-1.57.356-1.65-1.561-2.187-2.777-2.297-.641-.059-.637.941 0 1 .723.065 2.713.671 1.308 1.584-.551.359-1.573.33-2.183.25-.79-.105-1.56-.475-1.786-1.305-.282-1.043.605-1.392 1.43-1.605.624-.16.36-1.124-.265-.964M9.912 134.36c-.828 6.153.06 12.165 2.647 17.809.268.584 1.13.077.864-.505a30.754 30.754 0 0 1-2.547-17.036c.085-.63-.88-.903-.964-.267M63.319 3.75a42.444 42.444 0 0 0-15.876 9.898c-.457.454.25 1.161.709.707a41.225 41.225 0 0 1 15.432-9.64c.605-.212.344-1.178-.266-.965M53.691.991a10.216 10.216 0 0 0-3.766 1.948c-.5.406.213 1.11.709.707a8.996 8.996 0 0 1 3.324-1.69c.62-.17.357-1.136-.267-.965M51.333 239.455c3.387 5.574 9.63 7.496 15.587 9.096.622.167.888-.797.266-.964-5.687-1.528-11.747-3.299-14.99-8.637-.333-.549-1.198-.047-.863.505M50.884 246.77a7.582 7.582 0 0 0 5.01 1.415c.637-.046.642-1.046 0-1-1.652.117-3.16-.312-4.505-1.277-.524-.376-1.024.49-.505.863"/>
            <path fill="#071F2C" d="M80.186 28.223c1.654 1.429 3.503 2.57 5.568 3.308.937.335 3.319 1.463 3.98.201.3-.57-.563-1.075-.862-.505-.262.499-3.93-1.088-4.307-1.27-1.336-.644-2.55-1.471-3.672-2.441-.485-.419-1.195.285-.707.707"/>
            <path fill="#071F2C" d="M87.326 29.912c2.19 2.593 6.136 3.346 9.356 3.536.644.038.64-.962 0-1-2.966-.176-6.631-.854-8.65-3.243-.415-.492-1.12.218-.706.707"/>
            <path fill="#071F2C" d="M95.133 33.403c1.202 2.196 1.046 4.972 1.016 7.41-.032 2.509-.256 5.03-.91 7.459-.725 2.693-1.99 5.08-3.751 7.234-1.63 1.992-3.974 5.27-6.88 4.184-.604-.226-.864.74-.266.964 2.968 1.11 4.13-.39 6.14-2.521 2.125-2.255 3.966-4.672 5.074-7.596 1.122-2.96 1.515-6.146 1.584-9.295.059-2.756.218-5.857-1.144-8.344-.31-.564-1.173-.06-.863.505M74.479 40.88c.449 1.967.148 3.934.459 5.904.234 1.484.863 2.767 1.65 4.034 1.784 2.875 3.603 5.991 5.983 8.416.452.46 1.159-.248.707-.708-2.301-2.343-4.097-5.425-5.827-8.212-1.96-3.156-1.226-6.278-2.008-9.7-.143-.628-1.107-.362-.964.266M76.734 37.415a7.73 7.73 0 0 1 4.232-2.37c.631-.126.364-1.09-.265-.964a8.62 8.62 0 0 0-4.674 2.627c-.437.472.269 1.181.707.707"/>
            <path fill="#071F2C" d="M88.146 34.234c1.407.093 2.742.649 3.748 1.65.751.749 1.128 1.754 2.053 2.324.55.338 1.052-.527.504-.864-.635-.391-.928-1.08-1.382-1.64a6.615 6.615 0 0 0-1.38-1.282c-1.058-.734-2.266-1.103-3.543-1.188-.643-.043-.64.957 0 1M89.283 39.827c1.273-.026 2.457.376 3.43 1.207.487.415 1.198-.29.708-.707-1.173-1-2.593-1.53-4.138-1.5-.643.012-.645 1.012 0 1M85.85 46.936c-.62 1.182-1.357 1.345-2.216.487a12.31 12.31 0 0 1-.213-1.531c-.078-.805-.084-1.605-.116-2.411-.04-.967-.08-1.98-.593-2.83-1.174-1.95-3.511-1.501-5.257-.71-.584.266-.077 1.129.505.864 1.596-.723 3.39-.84 4.182 1.099.315.774.152 1.887.19 2.708.052 1.119-.06 2.973.736 3.885 1.179 1.35 3.66-.02 3.783-1.561.05-.642-.95-.64-1 0M85.015 55.76c1.498-.05 2.88-.695 3.848-1.848.41-.49-.292-1.2-.707-.708-.801.955-1.891 1.514-3.141 1.556-.642.022-.645 1.022 0 1M84.928 61.144c-.05 1.726.165 7.467 3.218 6.53 3.366-1.032 2.692-6.89 2.377-9.357-.08-.63-1.08-.638-1 0 .29 2.267.656 4.852-.415 6.984-.164.325-.428.914-.742 1.107-1.425.873-1.815-.775-2.018-1.492-.35-1.242-.458-2.488-.42-3.772.02-.644-.98-.644-1 0M98.908 42.39c.595-.136 2.14-.22 2.343.612.24.986-1.466.953-1.996.935-.644-.023-.643.977 0 1 1.235.043 3.234-.337 2.987-2.034-.229-1.576-2.39-1.754-3.6-1.477-.627.144-.36 1.109.266.964"/>
            <path fill="#071F2C" d="M98.51 38.86c-.133 1.703-.698 3.353-.836 5.07-.153 1.913-.095 3.833-.04 5.748.02.643 1.02.646 1 0-.055-1.914-.117-3.836.04-5.747.142-1.725.702-3.36.837-5.071.05-.643-.95-.64-1 0M72.76 38.433c.667 2.746.07 5.4-.061 8.16-.12 2.51.482 4.728 1.289 7.088.959 2.805 1.619 5.559 1.72 8.544.067 1.917.034 3.665 1.146 5.308.358.53 1.225.03.863-.505-1.46-2.158-.901-5.153-1.232-7.64-.315-2.37-1.075-4.567-1.824-6.823-.862-2.596-1.082-5.025-.816-7.74.222-2.274.423-4.42-.121-6.66-.152-.624-1.116-.36-.964.268"/>
            <path fill="#071F2C" d="M73.125 42.194c-.931.298-1.864.926-1.944 1.992-.068.894.656 1.757 1.59 1.645.632-.075.64-1.076 0-1-.49.058-.7-.381-.54-.811.183-.484.705-.716 1.16-.862.61-.195.349-1.161-.266-.964M75.207 38.056c-.199-1.449-.335-2.799.638-4.041.367-.47.87-.837 1.308-1.235 1.143-1.04 1.962-3.075 3.537-3.346.633-.108.365-1.072-.266-.964-.84.145-1.43.546-1.979 1.181-.927 1.072-1.735 2.124-2.77 3.112-1.666 1.592-1.734 3.367-1.432 5.56.087.634 1.051.364.964-.267M80.397 23.518c-.604.903-1.074 2.272.098 2.965.555.327 1.059-.536.505-.864-.607-.36.005-1.214.26-1.596.359-.536-.507-1.038-.863-.505M81.781 23.537c.995.346 1.863.186 2.873.005 2.006-.36 3.252.287 4.801 1.492.503.39 1.216-.311.708-.707-1.062-.825-2.169-1.684-3.533-1.9-1.549-.247-3.077.669-4.583.145-.609-.212-.87.754-.266.965"/>
            <path fill="#071F2C" d="M86.78 23.279c3.556-1.026 5.67.639 7.364 3.607.319.559 1.183.056.863-.504-.868-1.522-1.815-3.048-3.432-3.863-1.597-.804-3.391-.686-5.061-.205-.617.178-.355 1.144.266.965"/>
            <path fill="#071F2C" d="M93.689 25.844c1.976.534 3.138 1.248 3.934 3.15.396.944.962 1.386 1.553 2.24 2.002 2.89.525 6.82.779 10.075.049.637 1.05.642 1 0-.272-3.487 1.3-7.669-.987-10.76-.645-.87-1.071-1.488-1.546-2.464-.241-.496-.393-.925-.76-1.353-.925-1.08-2.39-1.495-3.707-1.852-.622-.168-.888.796-.266.964M100.009 45.038c.532 4.477-.8 8.656-1.86 12.95-.895 3.627-.975 7.856-3.491 10.827-.414.49.29 1.2.707.707 2.492-2.942 2.693-6.755 3.532-10.369 1.088-4.689 2.692-9.236 2.112-14.115-.075-.632-1.076-.639-1 0M73.579 37.06c-.068-2.878.828-5.495 1.922-8.114 1.286-3.08 3.827-4.068 6.666-5.46.578-.283.072-1.146-.505-.863-2.742 1.344-5.424 2.24-6.741 5.146-1.338 2.95-2.42 6.02-2.342 9.292.015.643 1.015.645 1 0M77.915 53.03c.819 2.633.588 5.535.893 8.262.283 2.529.757 5.025 1.367 7.496.154.625 1.119.36.964-.266-.738-2.993-1.27-6.02-1.508-9.096-.173-2.244-.077-4.492-.752-6.662-.19-.613-1.156-.351-.964.266M80.656 57.65c-.015 2.379.2 4.726.634 7.063.117.632 1.08.365.964-.266a35.856 35.856 0 0 1-.598-6.796c.004-.644-.996-.645-1 0M82.61 59.644c.165 1.99.33 3.983.493 5.976.053.636 1.053.642 1 0-.163-1.993-.328-3.985-.492-5.976-.053-.638-1.053-.643-1 0M91.248 56.224c.064 1.981.703 3.91.613 5.893-.1 2.217-.906 4.333-1.67 6.391-.222.605.744.865.966.266.695-1.877 1.39-3.769 1.627-5.769.275-2.332-.461-4.468-.536-6.781-.021-.642-1.021-.645-1 0M93.074 54.139c-.12 2.887 1.033 5.752.312 8.61-.157.624.808.89.965.266.75-2.976-.401-5.88-.277-8.876.026-.644-.974-.642-1 0M94.89 49.717c-.123 1.656.158 3.355.63 4.94.183.617 1.149.354.964-.265-.45-1.509-.711-3.098-.594-4.675.048-.643-.953-.639-1 0"/>
            <path fill="#071F2C" d="M95.54 57.082c-.313 4.593-1.86 8.79-4.562 12.514-.378.521.489 1.02.864.504 2.802-3.86 4.374-8.26 4.698-13.018.043-.643-.957-.64-1 0M82.725 25.11c-.132.99.362 1.81.91 2.598a25.17 25.17 0 0 0 2.12 2.635c.434.477 1.14-.232.706-.707-.992-1.085-2.948-2.93-2.736-4.526.084-.636-.917-.63-1 0M85.033 26.03c2.332 2.534 4.94 5.076 8.627 4.952.642-.021.645-1.021 0-1-3.419.115-5.776-2.33-7.92-4.658-.437-.475-1.143.234-.707.707M99.551 52.09c-.67 2.645.485 4.318 1.004 6.828.705 3.406-1.816 6.552-1.872 9.955-.01.644.99.644 1 0 .05-3.09 2.076-5.765 2.016-8.854-.052-2.757-1.912-4.79-1.184-7.664.158-.624-.806-.89-.964-.266M80.268 129.138c.007-1.383 1.477-2.358 1.179-3.809-.077-.378-.306-.631-.524-.932-.572-.787-.856-1.559-1.157-2.493-.197-.611-1.163-.35-.965.265.207.643.356 1.348.648 1.955.197.411.553.612.767.981.709 1.223-.942 2.704-.948 4.033-.003.645.997.645 1 0"/>
            <path fill="#071F2C" d="M80.644 123.735c.587-.826 1.075-2.05.75-3.074-.133-.412-.375-.681-.706-.951-.746-.611-1.236-1.01-1.45-1.981-.138-.63-1.103-.363-.965.266.172.778.532 1.473 1.138 2.004.5.436 1.021.85 1.042 1.564.018.599-.34 1.199-.673 1.667-.373.526.494 1.026.864.505M73.226 111.553c.101-.452.766-.247 1.02-.056.365.276.595.77.53 1.227-.09.63.872.901.964.266.143-1-.294-2.024-1.224-2.495-.803-.407-2.033-.207-2.254.792-.139.627.825.896.964.266"/>
            <path fill="#071F2C" d="M77.137 114.404c.707-.06 1.758-.126 1.735.869-.018.774-.426 1.46-.384 2.253.034.64 1.035.645 1 0-.06-1.13.812-2.281.092-3.36-.534-.801-1.582-.833-2.443-.762-.637.053-.643 1.054 0 1M65.405 108.75c-1.357-.144-2.532.535-3.529 1.396-.865.748-1.735 1.735-1.118 2.91.3.568 1.163.063.863-.506-.417-.794.974-1.756 1.52-2.134.692-.48 1.415-.756 2.264-.667.64.067.634-.934 0-1M57.54 114.957c.384 1.557-1.488 2.14-1.6 3.57-.063.8.367 1.44.82 2.05 1.022 1.374 1.483 2.125 1.612 3.915a19.752 19.752 0 0 1-.063 3.631c-.073.638.927.633 1 0 .22-1.923.402-4.57-.418-6.389-.164-.362-.38-.642-.614-.965-1.16-1.592-1.402-.916-.372-3.547.115-.294.562-.406.656-.735.233-.82.145-.979-.056-1.796-.153-.625-1.118-.36-.964.266"/>
            <path fill="#071F2C" d="M60.191 119.49a8.674 8.674 0 0 0-1.833 4.56c-.064.64.937.636 1 0a7.45 7.45 0 0 1 1.54-3.853c.391-.502-.311-1.214-.707-.707M61.053 124.091c1.178-1.055 2.628-1.579 4.207-1.552.643.011.643-.989 0-1-1.844-.032-3.542.617-4.914 1.845-.48.43.229 1.136.707.707M69.635 121.154a15.77 15.77 0 0 0 4.318 1.545c.63.126.898-.838.266-.964a14.86 14.86 0 0 1-4.079-1.444c-.568-.302-1.074.56-.505.863M64.439 135.582a4.057 4.057 0 0 1 2.559-.525c.649.075 1.314.345 1.978.271.816-.09 1.298-.637 1.548-1.382.206-.61-.76-.874-.964-.265-.416 1.241-2.283.304-3.248.337-.86.028-1.636.28-2.378.701-.56.318-.056 1.182.505.863"/>
            <path fill="#071F2C" d="M70.374 134.349c.527-1.382.04-2.696-.035-4.108-.06-1.127.273-2.04 1.134-2.79.94-.82 3.774-1.941 4.428-.033.208.605 1.174.345.964-.265-.873-2.548-4.286-1.891-5.965-.544-.838.674-1.431 1.608-1.555 2.687-.186 1.612.664 3.213.065 4.786-.23.603.737.863.964.267M61.581 142.52c.311-.737.386-1.541.683-2.266.731-1.785 2.13-1.216 3.607-1.366.972-.097 2.087-.78 3.012-.21.92.568.973 2.054 1.206 3.003.153.625 1.117.36.964-.265-.243-.997-.288-2.498-1.063-3.253-.927-.906-2.298-.752-3.404-.488-1.404.337-2.86-.132-4.133.715-1.334.886-1.158 2.258-1.736 3.625-.247.586.614 1.096.864.505M70.085 136.648c1.062.81 2.848.24 3.342 1.689.146.429.223.886.516 1.248.505.625 1.762.738.915 1.775-.403.495.3 1.206.707.707.493-.604.987-1.332.625-2.13-.142-.314-.367-.5-.68-.636-.602-.263-.887-.478-1.083-1.107-.213-.682-.471-1.256-1.138-1.593-.864-.435-1.907-.211-2.7-.816-.51-.39-1.01.477-.504.863"/>
            <path fill="#071F2C" d="M59.24 143.037c-.061-.527-.131-1.067-.052-1.596.11-.73.564-1.027.872-1.628.273-.53.157-1.277.667-1.685.584-.467 1.626-.45 2.323-.41.643.035.64-.965 0-1-1.315-.077-3.272.165-3.67 1.671-.176.668-.168.787-.59 1.443-.166.26-.334.485-.442.78-.283.774-.201 1.624-.108 2.425.073.632 1.074.64 1 0M60.595 127.883c1.404-.963 2.958-1.43 4.662-1.385.643.017.643-.983 0-1a8.618 8.618 0 0 0-5.167 1.522c-.527.362-.028 1.23.505.863M61.517 141.633c.73.458 2.12 1.014 2.356 1.912.182.693.069 1.361.36 2.044.253.59 1.115.081.865-.505-.356-.832-.037-1.788-.586-2.57-.547-.778-1.705-1.252-2.491-1.745-.546-.343-1.048.522-.504.864"/>
            <path fill="#071F2C" d="M64.58 143.804c.642.021 1.311-.004 1.95.087.455.064.85.266 1.322.212 1.218-.14 1.712-1.436 2.803-1.81.605-.208.345-1.174-.266-.965-1.002.345-1.638 1.506-2.629 1.652-.95.139-2.196-.143-3.18-.176-.645-.022-.644.978 0 1M58.547 144.319c.303.65.674.879 1.152 1.358.788.79.038.665-.113 1.58-.075.447.078.773.373 1.099.795.883 1.981 1.057 2.166 2.493.083.63 1.084.638 1 0-.089-.69-.29-1.251-.736-1.798a4.78 4.78 0 0 0-.85-.782 4.32 4.32 0 0 0-.508-.35c-.448-.34-.508-.651-.178-.934.18-.506.538-.7.31-1.294-.316-.825-1.357-1.03-1.753-1.877-.271-.582-1.134-.075-.863.505"/>
            <path fill="#071F2C" d="M63.242 151.373c.662 1.248 1.769 1.021 2.994 1.124 1.498.124 1.996.662 2.982-.652.699-.933.284-2.07.98-2.912.962-1.16 2.86-1.398 3.159-3.038.114-.628-.85-.898-.965-.265-.185 1.02-1.975 1.704-2.703 2.396-.472.448-1.045 1.017-1.157 1.687-.145.861.55 1.906-1.04 2.015-.258.018-.682-.176-.965-.205-.848-.087-1.91.308-2.421-.655-.302-.568-1.166-.063-.864.505M58.309 128.123c-.092 2.191-1.524 3.954-1.398 6.224.112 2.032 1.275 3.63 1.845 5.53.184.614 1.15.352.964-.267-.654-2.18-2.003-3.947-1.76-6.34.184-1.814 1.272-3.308 1.349-5.147.027-.644-.973-.643-1 0M75.963 140.456c1.84-2.344 3.265-4.908 3.475-7.928.045-.64-.956-.638-1 0-.19 2.731-1.52 5.104-3.182 7.221-.393.501.31 1.214.707.707M80.24 130.258c.751-.15 1.921.04 1.961 1.02.042 1.041-1.408.997-2.095.973-.644-.022-.643.978 0 1 1.353.046 3.272-.353 3.08-2.126-.172-1.594-1.848-2.106-3.213-1.83-.63.126-.363 1.09.266.963"/>
            <path fill="#071F2C" d="M57.03 129.655c-1.065.076-2.885.455-3.018 1.778-.15 1.488 1.902 1.556 2.899 1.332.628-.14.362-1.104-.266-.964-.313.07-2.077.15-1.515-.5.405-.471 1.324-.605 1.9-.646.639-.046.644-1.046 0-1M66.276 152.546c.083 1.362-.107 3.695 1.274 4.511 1.024.604 3.034.908 3.895-.097.826-.962.595-2.58.545-3.74a89.845 89.845 0 0 0-.279-4.18c-.057-.636-1.058-.64-1 0 .148 1.627.261 3.265.306 4.9.028 1.027.265 2.428-1.248 2.638-2.465.343-2.392-2.386-2.493-4.032-.039-.639-1.04-.644-1 0M81.224 125.533c.878-.636 2.217-.877 2.575-2.05.295-.966-.188-2.065-1.109-2.48-.582-.262-1.09.6-.505.864.7.314.953 1.19.362 1.749-.504.477-1.267.647-1.828 1.054-.516.373-.018 1.24.505.863"/>
            <path fill="#071F2C" d="M83.381 122.398c.939-.42 1.872-1.342 1.894-2.437.024-1.197-.998-1.877-1.953-2.356-.574-.288-1.081.574-.504.863.625.314 1.511.71 1.44 1.542-.062.732-.771 1.25-1.382 1.525-.586.26-.078 1.123.505.863"/>
            <path fill="#071F2C" d="M84.691 118.375c.516-.812.988-1.968.635-2.929-.392-1.069-1.539-1.373-2.549-1.526-.629-.097-.901.867-.266.964.72.11 1.67.212 1.885 1.03.172.658-.225 1.415-.568 1.957-.346.545.519 1.047.863.504"/>
            <path fill="#071F2C" d="M83.69 114.404c.44-.864.302-1.846-.282-2.613-.676-.89-1.79-1.248-2.842-1.455-.63-.123-.898.84-.267.964 1.116.219 3.329 1.03 2.529 2.599-.292.572.57 1.079.863.505"/>
            <path fill="#071F2C" d="M81.64 111.01c-.002-1.177-1.046-2.257-1.97-2.867-1.082-.713-2.335-.944-3.605-.764-.635.09-.365 1.054.266.965a4.048 4.048 0 0 1 2.604.52c.685.398 1.704 1.263 1.705 2.146 0 .644 1 .645 1 0"/>
            <path fill="#071F2C" d="M77.064 107.461c-.87-2.663-5.137-3.635-7.061-1.645-.447.463.26 1.171.708.708 1.352-1.399 4.748-.76 5.389 1.203.199.61 1.165.348.964-.266"/>
            <path fill="#071F2C" d="M71.326 105.355c-1.895-2.131-5.073-2.132-6.97-.003-.427.48.278 1.189.707.707 1.55-1.74 4.004-1.742 5.556.003.428.482 1.133-.228.707-.707"/>
            <path fill="#071F2C" d="M65.66 104.757c-.098-.654-.976-.742-1.503-.782-.796-.062-1.626.133-2.284.595-1.17.822-1.566 2.451-.835 3.688.327.554 1.192.052.863-.505-.42-.71-.265-1.617.331-2.188.327-.314.757-.492 1.2-.564.117-.019 1.25-.069 1.264.022.095.634 1.06.365.964-.266"/>
            <path fill="#071F2C" d="M60.63 106.078c-1.076.216-2.126.912-2.418 2.024-.254.972.13 1.99.975 2.525.546.347 1.047-.519.506-.862-.535-.34-.688-1.037-.44-1.605.291-.662.97-.981 1.642-1.118.63-.127.363-1.09-.266-.964"/>
            <path fill="#071F2C" d="M58.439 109.428c-2.304.835-1.855 3.484-.695 5.088.373.516 1.24.017.863-.505-.711-.983-1.562-3.018.098-3.619.6-.218.34-1.185-.266-.964M61.77 118.2c.062-.566.109-1.019.727-1.248.246-.09.547-.083.803-.14.54-.12 1.074-.322 1.52-.654.829-.618 1.215-1.569.995-2.58-.136-.628-1.1-.362-.964.266.402 1.85-1.842 1.778-2.925 2.245-.874.374-1.062 1.25-1.156 2.111-.07.64.932.634 1 0"/>
            <path fill="#071F2C" d="M65.479 115.373c.332-.238.708-.547 1.119-.63.515-.103.864.174 1.317.321.5.163.999.21 1.464-.077 1.22-.75.725-2.28.964-3.428.13-.629-.833-.898-.965-.267-.116.561-.07 1.092-.096 1.66-.013.28-.002.72-.207.951-.445.505-.835.213-1.277.038-1.084-.428-1.914-.087-2.824.57-.517.371-.018 1.24.505.862"/>
            <path fill="#071F2C" d="M69.701 114.425c2.14.373 3.793 2.16 6.071 1.886.631-.075.64-1.076 0-1-2.129.257-3.779-1.497-5.805-1.85-.63-.11-.9.853-.266.964M78.555 125.833c.05 1.68.506 3.305.556 4.982.019.642 1.019.645 1 0-.05-1.678-.506-3.304-.556-4.982-.02-.642-1.02-.645-1 0M59.11 127.595a15.276 15.276 0 0 0-2.327-1.729c-.56-.34-1.226-.589-1.477-1.264-.267-.714.255-1.616.733-2.097.453-.456-.254-1.164-.709-.707-.92.925-1.48 2.523-.724 3.728.36.574.97.788 1.535 1.12a13.7 13.7 0 0 1 2.263 1.656c.475.431 1.184-.274.706-.707"/>
            <path fill="#071F2C" d="M54.783 123.267c-1.115-.695-1.662-2.078-1.194-3.334.356-.956 1.077-1.566 1.06-2.645-.011-.643-1.011-.645-1 0 .015.91-.725 1.515-1.017 2.314a3.66 3.66 0 0 0-.172 1.803c.173 1.162.83 2.11 1.819 2.725.547.342 1.049-.522.504-.863"/>
            <path fill="#071F2C" d="M54.004 118.974c.172-.454.002-.687-.21-1.094-.536-1.024-.313-1.908.697-2.525.989-.605 2.106-.837 2.927-1.707.441-.469-.265-1.177-.707-.707-.994 1.054-2.613 1.137-3.583 2.226a2.58 2.58 0 0 0-.642 1.461c-.035.36-.001.729.106 1.075.067.214.519.817.448 1.005-.228.603.738.863.964.266M78.75 133.929c.023 1.014.381 1.972.417 2.961.124 3.325-.633 2.253-1.777 4.03-.179.28-.352.561-.41.886-.24 1.324.342 1.231-.4 2.892-.784 1.752-1.396 3.071-3.54 3.406-1.604.25-2.8.608-4.14 1.539-.524.364-.025 1.231.505.863 1.898-1.319 3.967-.926 5.912-1.865.483-.233.848-.516 1.13-.984.275-.459.2-.92.401-1.371.264-.592.786-1.063 1.081-1.633.195-.378.281-.706.356-1.121.163-.895-.149-1.69.423-2.568.262-.402.76-.649 1.03-1.069 1.165-1.82.057-4.02.011-5.966-.015-.643-1.016-.645-1 0M70.121 141.88l.017.062a.507.507 0 0 0 .482.367c.202-.008.368.028.494.201.375.516 1.243.017.863-.504-.33-.455-.783-.719-1.357-.697l.482.367-.017-.062c-.17-.62-1.134-.356-.964.266M62.69 139.246c1.392 1.354 3.218 2.06 5.161 1.967.641-.03.644-1.03 0-1-1.692.081-3.238-.49-4.455-1.674-.46-.449-1.169.258-.707.707M57.234 136.273c.137.854-.411 1.63-.542 2.456a4.507 4.507 0 0 0 .051 1.693c.335 1.494 1.68 2.422 2.005 3.894.138.628 1.103.362.965-.266-.314-1.421-1.567-2.283-1.955-3.66-.445-1.58.685-2.846.44-4.383-.101-.633-1.065-.365-.964.266M77.282 204.333c1.32-.285 2.95-.9 4.294-.688 1.917.3 1.41 2.071 1.667 3.477.117.633 1.081.364.965-.266-.298-1.618.247-3.178-1.61-3.987-1.683-.73-3.913.14-5.582.5-.629.135-.363 1.1.266.964M82.526 210.418c-.273 1.514 1.305 2.003 2.52 2.021 1.663.025 1.988-1.605 1.852-2.94-.063-.636-1.064-.642-1 0 .066.637.21 1.691-.585 1.91-.45.122-1.951-.012-1.823-.725.115-.629-.849-.899-.963-.266M84.421 208.139l-.64.09c-.634.09-.364 1.053.266.964l.64-.09c.636-.089.365-1.053-.266-.964M86.518 201.255c2.089 1.006 4.329 1.223 6.566.601.619-.172.356-1.137-.266-.964-1.97.548-3.951.387-5.796-.5-.577-.279-1.085.584-.504.863M76.544 202.514c1.73-1.179 3.966-3.208 6.192-2.197.582.263 1.091-.598.505-.864-2.695-1.223-5.062.739-7.2 2.198-.53.36-.03 1.226.503.863M75.822 196.532c-.071-2.147-1.616-2.928 1.009-4.88 1.632-1.212 4.11-1.851 6.09-2.224a20.067 20.067 0 0 1 7.386-.006c.744.14 1.749.232 2.392.62 3.102 1.868 1.482 3.84.524 5.499-.323.558.54 1.062.863.505 1.152-1.993 2.732-4.294.445-6.151-2.271-1.843-6.431-1.944-9.198-1.768-3.142.199-7.028 1.01-9.551 3.03-.864.693-1.602 1.734-1.64 2.893-.03.974.649 1.543.68 2.482.02.642 1.02.645 1 0"/>
            <path fill="#071F2C" d="M75.574 196.963c5.222-3.396 10.927-3.387 16.625-1.205.601.23.861-.735.266-.964-5.934-2.272-11.974-2.22-17.395 1.306-.538.35-.038 1.215.504.863M75.124 211.06c-1.049 2.816-2.755 6.473-.539 9.213 2.006 2.48 6.385 2.979 9.333 2.958.644-.005.645-1.005 0-1-2.615.018-7.236-.431-8.82-2.958-1.528-2.44.114-5.595.99-7.947.225-.604-.74-.865-.964-.266M85.379 223.51c2.849-.11 7.234-.554 8.653-3.497 1.374-2.85.523-6.54-.903-9.172-.306-.566-1.17-.062-.864.504 1.2 2.217 1.983 5.256 1.05 7.737-1.1 2.924-5.266 3.324-7.936 3.428-.642.025-.645 1.025 0 1M80.94 216.283c2.217.422 4.922.533 6.805-.9.505-.385.007-1.254-.505-.864-1.657 1.262-4.07 1.174-6.035.8-.629-.12-.899.844-.266.964M82.953 219.164a3.435 3.435 0 0 1 2.107.097c.607.216.87-.749.266-.964a4.372 4.372 0 0 0-2.639-.097c-.62.166-.358 1.131.266.964M72.11 205.162c-1.201-.156-3.17.067-3.031 1.74.14 1.708 2.443 1.228 3.598 1.215.642-.007.644-1.007 0-1l-1.369.016c-.31.003-1.054.131-1.206-.197-.181-.39.29-.693.6-.789.444-.137.959-.044 1.409.015.635.083.63-.918 0-1M97.037 205.96c.642-.124 1.704-.349 2.103.367a.419.419 0 0 1 .087.261l-.092-.023c-.107.087-.451.14-.582.167-.44.091-.898.095-1.342.03-.63-.095-.902.87-.266.964.969.144 3.6.176 3.25-1.426-.347-1.59-2.183-1.543-3.424-1.305-.631.122-.364 1.086.266.965"/>
            <path fill="#071F2C" d="M81.417 223.34c.21 1.795.23 3.744.718 5.491.322 1.154 1.06 1.795 2.286 1.794 1.158 0 2.1-.374 2.472-1.514.587-1.802.6-3.933.91-5.8.105-.63-.858-.902-.963-.268-.175 1.056-.328 2.114-.486 3.173-.151 1.023-.065 2.87-1.187 3.311-2.73 1.07-2.568-4.635-2.75-6.187-.074-.632-1.075-.639-1 0M78.402 190.338c2.898-3.297 8.968-6.213 12.084-1.59.358.53 1.225.03.864-.506-1.604-2.378-3.328-3.228-6.238-2.786-2.928.445-5.476 1.967-7.417 4.175-.423.481.281 1.191.707.707M73.671 203.07c.214 4.596-3.129 9.519-.134 13.773.368.523 1.235.024.863-.504-2.792-3.966.474-8.92.271-13.27-.03-.641-1.03-.644-1 0M94.203 201.165c-.135 2.88.683 5.544 1.054 8.374.189 1.444.275 2.941-.098 4.37-.301 1.15-1.072 1.997-1.4 3.108-.183.618.782.882.964.265.322-1.087 1.104-1.987 1.4-3.108.304-1.15.335-2.372.255-3.55-.216-3.198-1.327-6.223-1.175-9.459.03-.644-.97-.643-1 0"/>
            <path fill="#071F2C" d="M83.25 194.322c1.724.858 3.432 1.803 5.222 2.52 2.122.849 6.062 1.093 5.768 4.255-.059.64.941.637 1 0 .175-1.882-1.02-3.206-2.668-3.952-1.424-.645-2.99-.895-4.43-1.526-1.49-.651-2.933-1.437-4.389-2.16-.574-.286-1.08.576-.504.863"/>
            <path fill="#071F2C" d="M94.386 195.057c.212 1.268.664 2.322.376 3.642-.219 1.001-.618 1.912-.706 2.943-.055.641.946.638 1 0 .108-1.27.74-2.411.82-3.687.071-1.117-.345-2.086-.526-3.164-.106-.633-1.07-.365-.964.266M74.819 196.558l-.707 3.796c-.117.629.847.898.964.266l.707-3.796c.118-.63-.846-.9-.964-.266M85.893 185.488v-.271c0-.644-1-.645-1 0v.27c0 .645 1 .646 1 0"/>
            <path fill="#071F2C" d="M75.11 199.91c1.203-.504 2.293-1.167 3.22-2.093 1.246-1.24 1.813-2.703 3.564-3.385.594-.23.337-1.196-.265-.963-1.199.465-2.05 1.066-2.79 2.123-1.049 1.496-2.293 2.64-3.995 3.354-.584.245-.326 1.213.267.964M28.675 173.672c1.048 4.43 2.502 8.707 4.454 12.82.276.581 1.138.075.863-.505-1.916-4.04-3.324-8.233-4.353-12.58-.148-.627-1.112-.362-.964.265M24.122 146.752c.117 1.553.273 3.101.471 4.646.08.628 1.082.637 1 0a89.322 89.322 0 0 1-.47-4.646c-.049-.638-1.049-.644-1 0M92.052 217.382c.644 0 .645-1 0-1-.644 0-.645 1 0 1M80.438 205.898a1.091 1.091 0 1 1-2.183 0 1.091 1.091 0 0 1 2.183 0M90.51 205.898a1.091 1.091 0 1 1-2.183 0 1.091 1.091 0 0 1 2.183 0M91.655 42.025a1.092 1.092 0 1 1-2.184 0 1.092 1.092 0 0 1 2.184 0M80.035 42.296a1.092 1.092 0 1 1-2.185.002 1.092 1.092 0 0 1 2.185-.002M64.31 129.138a1.092 1.092 0 1 1-2.185.001 1.092 1.092 0 0 1 2.184-.001M75.107 129.138a1.092 1.092 0 1 1-2.185.001 1.092 1.092 0 0 1 2.185-.001M145.166 46.278c-.764-4.1 7.307-2.763 9.417-4.172 1.051-.702 1.72-1.776 2.51-2.733 1.17-1.415 2.498-2.538 4.06-3.506.546-.34.044-1.204-.505-.864-1.618 1.004-3.044 2.189-4.262 3.662-.8.967-1.502 2.17-2.632 2.804-1.433.803-3.215.554-4.784.639-2.577.14-5.328 1.432-4.768 4.437.117.63 1.081.364.964-.267"/>
            <path fill="#071F2C" d="M155.311 41.051c1.545 1.638 3.522 2.114 5.664 2.578 3.631.786 6.34 2.207 7.67 5.896 1.154 3.203 3.05 9.533 7.8 6.712.552-.329.05-1.194-.506-.864-2.43 1.444-4.495-.884-5.313-2.912-.474-1.174-.719-2.429-1.169-3.61-.607-1.598-1.494-2.988-2.843-4.06-3.124-2.483-7.829-1.515-10.596-4.447-.442-.47-1.149.238-.707.707"/>
            <path fill="#071F2C" d="M172.075 50.457c1.264 2.61 3.75 5.974 7.06 4.201.568-.304.064-1.167-.504-.863-2.743 1.47-4.702-1.796-5.693-3.843-.28-.579-1.143-.072-.863.505M169.78 52.493c-.721 2.221-1.804 4.276-2.164 6.606-.325 2.105-.237 4.243-.064 6.355.38 4.642 1.227 9.332-.638 13.776-.25.593.719.852.964.267 1.682-4.01 1.23-8.23.823-12.447-.203-2.1-.412-4.227-.26-6.337.207-2.889 1.427-5.257 2.303-7.954.2-.614-.766-.876-.964-.266"/>
            <path fill="#071F2C" d="M155.003 78.765c2.96-.775 5.642-2.248 7.762-4.478 2.382-2.505 3.464-5.799 5.344-8.642.356-.538-.51-1.04-.863-.505-1.687 2.55-2.675 5.527-4.674 7.871-2.058 2.413-4.787 3.992-7.835 4.79-.622.163-.36 1.128.266.964M159.256 56.165c1.334-1.387 4.712-1.777 5.524.397.224.598 1.19.34.964-.265-1.076-2.88-5.276-2.83-7.196-.839-.447.464.26 1.172.708.707M159.157 48.788c2.473-1.409 5.578 1.304 7.454 2.753.508.393 1.007-.475.504-.863-2.25-1.74-5.516-4.433-8.463-2.753-.559.318-.056 1.183.505.863M143.985 50.676c2.994-1.48 5.387 1.306 8.306 1.206 1.215-.042 2.026-.79 1.501-1.982-.259-.588-1.121-.079-.864.505.283.641-2.887-.069-3.167-.168-.873-.315-1.724-.673-2.639-.856-1.301-.26-2.459-.153-3.641.432-.578.285-.071 1.147.504.863M150.674 65.146c.098.882.613 1.539 1.437 1.882 1.05.436 2.191.103 3.217-.232.61-.2.348-1.165-.266-.963-.948.308-3.207.94-3.388-.687-.07-.633-1.07-.64-1 0M143.76 55.806c.01 2.813-.194 5.733.18 8.527.45 3.364 2.098 6.572 3.342 9.697.236.59 1.203.333.965-.267-1.143-2.869-2.643-5.806-3.215-8.857-.549-2.937-.262-6.124-.273-9.1-.002-.644-1.002-.646-1 0"/>
            <path fill="#071F2C" d="M144.212 51.065l-.266 1.12c-.148.626.816.893.965.266.089-.373.177-.746.264-1.12.148-.625-.816-.893-.964-.266M145.358 48.41a7.002 7.002 0 0 1 .383-1.963c.209-.61-.757-.873-.965-.267a7.987 7.987 0 0 0-.418 2.23c-.03.645.97.643 1 0M144.339 43.315c-.214-1.181 1.384-1.716 1.855-2.582.606-1.114.234-2.31 1.624-3.101.521-.296 1.182-.228 1.657-.667.757-.697.63-1.977 1.576-2.55.858-.518 2.217-.032 3.178-.5 1.341-.656 2.044-1.566 3.74-1.125 1.565.407 2.628 1.159 4.05.017.502-.403-.209-1.106-.707-.707-1.428 1.146-3.14-.718-4.588-.701-.815.009-1.216.342-1.875.726a4.91 4.91 0 0 1-2.176 1.089 1.95 1.95 0 0 0-.806-.046c-.253.07-.523.06-.774.147-1.024.353-1.263.99-1.819 1.782-.746 1.065-1.187 1.247-2.292 1.748-.747.339-.944.66-1.335 1.357-.144.257-.069.713-.148.93-.818 2.268-.999 1.42-1.874 2.794-.411.646-.378.95-.25 1.655.114.632 1.078.364.964-.266M162.103 34.724c2.391-1.407 5.946-.593 7.191 1.863.272.537.185.919.677 1.325.797.658 1.94.607 2.783 1.356.833.74 1.245 1.646 1.556 2.685.435 1.454.612 2.853 1.376 4.194.318.559 1.183.056.863-.505-1.175-2.064-.965-4.65-2.549-6.512a5.962 5.962 0 0 0-1.716-1.398c-1.114-.595-1.42-.603-2.064-1.861-1.473-2.882-5.84-3.647-8.62-2.01-.556.325-.053 1.19.503.863M149.246 72.775c-.023.026.3.554.335.645.121.303.192.619.242.94.098.635 1.062.365.965-.265-.102-.655-.319-1.464-.814-1.938-.396-.38-1.033-.551-1.435-.09-.42.484.283 1.194.707.708M148.898 74.447a3.24 3.24 0 0 0-2.28 1.324c-.385.517.483 1.016.864.505a2.12 2.12 0 0 1 1.416-.83c.63-.078.638-1.08 0-1"/>
            <path fill="#071F2C" d="M149.076 75.283a22.56 22.56 0 0 1 2.027 3.672c.257.588 1.12.08.864-.505a22.602 22.602 0 0 0-2.027-3.672c-.36-.529-1.227-.029-.864.505M146.85 76.185c.023 1.04.165 2.063.427 3.069.162.623 1.126.359.964-.265-.24-.923-.37-1.851-.39-2.804-.015-.643-1.015-.645-1 0M154.73 81.197a42.88 42.88 0 0 1 .556 6.017c.014.642 1.014.644 1 0a44.69 44.69 0 0 0-.591-6.283c-.104-.633-1.068-.364-.964.266M162.74 90.295c-.287-1.77.451-2.715 1.376-4.058.273-.397.573-.725.73-1.196.497-1.51-.508-2.988-.217-4.523.12-.629-.845-.899-.965-.267-.13.694-.117 1.258-.005 1.957.125.771.241 1.232.134 2.056-.143 1.113-.539 1.295-1.14 2.16-.898 1.29-1.127 2.6-.878 4.137.102.633 1.066.364.964-.266"/>
            <path fill="#071F2C" d="M166.367 88.477c2.386-2.292.88-4.314-.508-6.651-.932-1.57-1.31-3.001-.555-4.765.271-.633.737-1.151.966-1.813.53-1.53.127-3.08-.289-4.581-.17-.62-1.136-.356-.964.266.594 2.145.355 3.663-.577 5.623-.424.893-.634 1.68-.552 2.68.231 2.825 4.385 6.023 1.772 8.534-.465.446.243 1.153.707.707M169.574 94.166c-1.052-3.443 1.817-5.509 1.776-8.727-.035-2.772-2.029-5.042-1.959-7.85.016-.644-.984-.644-1 0-.079 3.162 2.617 6.026 1.777 9.165-.788 2.947-2.536 4.477-1.558 7.678.187.614 1.152.352.964-.266M172.91 56.518c-.664 1.966-1.01 3.275-.776 5.352.257 2.283.27 4.493.002 6.777-.075.638.926.633 1 0 .232-1.974.3-3.922.1-5.903-.23-2.304-.1-3.772.638-5.96.207-.612-.758-.873-.964-.266"/>
            <path fill="#071F2C" d="M172.778 59.148c.62-.043 1.285-.108 1.892.067.572.166 1.361.744 1.12 1.46-.402 1.19-2.536.769-3.45.728-.644-.03-.642.972 0 1 1.472.066 4.308.353 4.478-1.808.175-2.217-2.436-2.558-4.04-2.447-.638.045-.643 1.045 0 1M162.492 69.283l2.063-1.892c.476-.435-.233-1.14-.707-.707l-2.063 1.892c-.476.436.233 1.142.707.707M151.654 79.726c3.138 4.706 3.407 10.667 5.066 15.958 1.34 4.27 3.144 8.37 5.182 12.353 3.917 7.652 8.435 14.925 10.188 23.46.129.63 1.093.364.964-.266-1.723-8.391-6.085-15.581-9.975-23.092-2.248-4.34-4.226-8.81-5.632-13.497-1.55-5.17-1.87-10.83-4.93-15.42-.355-.533-1.221-.033-.863.504M147.778 78.914c-1.058.588-2.12 1.168-3.171 1.766-.692.394-1.41.83-1.886 1.488-.767 1.063-.695 2.531.416 3.307.53.37 1.03-.498.506-.864-2.328-1.625 3.733-4.33 4.638-4.834.564-.313.06-1.177-.504-.863M174.945 132.958c-3.345 2.164-6.8 4.29-10.928 4.147-.644-.02-.643.98 0 1 4.302.15 7.936-2.022 11.433-4.284.538-.347.037-1.214-.505-.863M145.898 91.891c7.338 10.634 11.028 23.059 14.58 35.339.178.617 1.143.354.963-.266-3.574-12.359-7.294-24.876-14.68-35.578-.363-.526-1.23-.026-.863.505"/>
            <path fill="#071F2C" d="M161.604 99.701c.118-1.313.61-2.398 1.493-3.385.46-.516.964-.946 1.297-1.565.675-1.258.638-2.767.59-4.149-.021-.64-1.021-.644-1 0 .037 1.065.09 2.17-.291 3.182-.387 1.026-1.206 1.602-1.846 2.45-.774 1.025-1.13 2.2-1.243 3.468-.058.641.943.637 1 0M176.905 101.155c6.358 1.687 8.22 8.586 7.806 14.416-.42 5.9-2.444 11.543-2.146 17.51.03.64 1.032.644 1 0-.372-7.465 3.008-14.66 2.048-22.128-.624-4.858-3.522-9.456-8.442-10.762-.623-.165-.89.799-.266.964M175.569 106.917c-1.826 2.254-3.591 4.597-3.802 7.59-.045.64.955.638 1 0 .19-2.7 1.868-4.857 3.509-6.883.402-.496-.302-1.208-.707-.707"/>
            <path fill="#071F2C" d="M171.3 110.372c-.236 2.37.547 4.585.814 6.921.35 3.057.074 6.071-.69 9.048-.16.624.805.89.965.265.673-2.623 1.006-5.276.85-7.987-.158-2.759-1.214-5.489-.94-8.247.063-.64-.937-.635-1 0M150.776 135.297A33.464 33.464 0 0 0 150 127.1c-.138-.628-1.102-.363-.964.265.576 2.621.819 5.252.74 7.933-.019.644.981.644 1 0M149.69 125.792c.614-3.187 2.66-6.015 3.477-9.199.798-3.11.213-6.872 1.491-9.768.258-.584-.603-1.093-.863-.505-1.247 2.825-.74 6.13-1.382 9.12-.763 3.556-3.01 6.57-3.688 10.086-.12.63.842.9.964.266M140.566 105.13a10.852 10.852 0 0 0-1.744 5.581c-.022.644.978.643 1 0a9.813 9.813 0 0 1 1.607-5.077c.35-.542-.514-1.044-.863-.505"/>
            <path fill="#071F2C" d="M141.717 106.31c-2.75 4.687-5.064 10.215-6.346 15.498-1.301 5.366.752 9.284 3.955 13.473.386.504 1.254.007.863-.505-1.453-1.902-2.993-3.864-3.772-6.16-.94-2.765-.441-5.552.412-8.264 1.46-4.645 3.284-9.333 5.75-13.536.328-.556-.536-1.06-.862-.505M132.024 106.692c1.097-3.533 4.36-5.187 7.106-7.31 2.659-2.053 4.946-3.97 8.18-5.078.605-.208.345-1.175-.266-.965-3.902 1.339-6.593 3.865-9.872 6.246-2.601 1.888-5.116 3.63-6.112 6.84-.192.618.773.88.964.267M130.002 109.405c-.819 6.09-1.603 12.186-2.514 18.262-.66 4.41-2.253 9.4-.264 13.66.272.584 1.134.076.863-.504-1.238-2.651-.808-5.4-.374-8.184.391-2.511.792-5.02 1.153-7.535.736-5.14 1.408-10.288 2.1-15.433.085-.63-.879-.902-.964-.266M132.862 134.108c.263 3.216-2.484 5.534-2.588 8.684-.075 2.212.958 4.176 2.647 5.559.494.404 1.204-.3.707-.707-2.76-2.26-2.703-5.274-1.227-8.28.856-1.745 1.624-3.262 1.46-5.256-.051-.637-1.052-.643-1 0"/>
            <path fill="#071F2C" d="M129.454 138.056c.148 1.252-.194 2.184-.754 3.279-.27.53-.51 1.042-.538 1.648-.057 1.173.528 2.139 1.448 2.818.518.383 1.017-.485.505-.863-1.62-1.195-.707-2.567-.079-3.975.422-.948.54-1.881.418-2.907-.075-.631-1.076-.639-1 0M140.481 148.19c-1.72-2.007-2.336-5.757-.616-7.942.4-.508.95-.87 1.301-1.42.512-.806.492-1.75 1.211-2.487.45-.461-.257-1.168-.707-.707-.952.976-1.31 2.408-2.136 3.479-.692.896-1.26 1.537-1.496 2.715-.498 2.48.093 5.154 1.736 7.069.42.489 1.124-.221.707-.707"/>
            <path fill="#071F2C" d="M142.017 135.473c-.95.089-1.738-.639-2.697-.484-1.148.185-2.642 1.21-3.571 1.86-.602.422-.825.849-.89 1.575-.127 1.409-.093 2.853-.138 4.267-.02.643.98.642 1 0l.08-2.565c.042-1.32.085-2.216 1.349-2.924.919-.516 1.986-1.366 3.095-1.096.65.158 1.083.431 1.772.367.636-.059.642-1.06 0-1"/>
            <path fill="#071F2C" d="M138.042 135.45l-2.94-.79c-.623-.168-.889.797-.267.964l2.941.79c.622.168.888-.796.266-.963M138.741 148.338c-.468.633-1.275-.043-1.599-.416-.302-.348-.53-.755-.818-1.114-.51-.638-1.084-1.02-1.895-1.126-.637-.083-.63.918 0 1 1.363.178 1.726 2.16 2.951 2.708.823.368 1.694.171 2.224-.548.384-.518-.484-1.017-.863-.504"/>
            <path fill="#071F2C" d="M137.005 148.638c-1.876-.292-7.162 1.097-6.84-2.171.064-.641-.936-.636-1 0-.42 4.253 5.258 2.775 7.573 3.135.63.098.901-.865.267-.964M141.813 136.793c7.067-1.366 14.132.388 21.196.857.642.043.64-.958 0-1-7.17-.477-14.291-2.208-21.462-.82-.631.121-.363 1.085.266.963M139.444 148.679a206.66 206.66 0 0 1 26.636-4.256c.635-.059.641-1.06 0-1a208.86 208.86 0 0 0-26.902 4.291c-.627.143-.361 1.108.266.965"/>
            <path fill="#071F2C" d="M163.239 138.528c1.395.862-.127 2.794 1.02 3.61.432.308 1.153.37 1.644.544.87.308 1.692.703 2.496 1.157.56.316 1.066-.547.505-.864a17.546 17.546 0 0 0-2.194-1.055c-.358-.141-.721-.27-1.088-.384-.586-.184-.762-.084-.753-.738.019-1.235.042-2.411-1.125-3.133-.55-.34-1.052.525-.505.863"/>
            <path fill="#071F2C" d="M166.605 140.698c3.502.306 8.455.109 9.228-4.254.11-.63-.852-.9-.964-.266-.694 3.915-5.221 3.786-8.264 3.52-.641-.056-.637.945 0 1"/>
            <path fill="#071F2C" d="M174.79 133.145c.657.494 1.413 1.14 1.78 1.894.634 1.3.2 1.602-.495 2.554-.698.953-1.05 1.865-1.178 3.036-.07.639.932.634 1 0 .157-1.44.873-2.07 1.553-3.195.348-.574.559-1.134.436-1.812-.25-1.381-1.527-2.54-2.591-3.341-.514-.387-1.012.48-.504.864"/>
            <path fill="#071F2C" d="M176.948 137.246c.506.144 1.306.31 1.62.773.397.586.305 1.412.47 2.081.254 1.035.817 1.934 1.554 2.692.45.462 1.157-.246.708-.708-.627-.644-1.078-1.373-1.298-2.249-.16-.637-.073-1.336-.345-1.943-.433-.97-1.495-1.34-2.443-1.61-.62-.176-.885.79-.266.964M178.063 143.673c-1.458.92-2.973 2.185-4.556 2.862-2.137.916-2.972-.874-4.876-1.188-.63-.104-.9.86-.266.965 1.635.27 2.741 1.95 4.531 1.56 1.974-.429 3.992-2.276 5.671-3.335.543-.343.042-1.208-.504-.864M177.658 56.73c-.185 1.402.38 2.592.157 3.994-.205 1.3-1.005 2.208-1.186 3.524-.219 1.582.072 3.168-.225 4.759-.357 1.91-1.166 3.626-2.255 5.22-.364.532.502 1.033.863.505 1.94-2.84 2.4-5.543 2.581-8.89.074-1.356.346-2.275.905-3.47.287-.612.523-.8.624-1.45.222-1.42-.654-2.748-.464-4.192.083-.636-.917-.63-1 0M177.878 70.715c-.702 2.043.15 3.748.608 5.753.68 2.967-1.44 5.268-1.24 8.2.168 2.463 1.991 4.346 2.218 6.767.28 2.98-1.362 5.758-1.116 8.776.052.638 1.053.643 1 0-.217-2.657.962-5.036 1.144-7.645.178-2.558-1.274-4.155-1.959-6.484-.873-2.967.984-4.855 1.172-7.617.176-2.58-1.744-4.92-.863-7.484.21-.61-.756-.87-.964-.266M173.849 83.029c.069 2.674-.436 5.178.25 7.81.426 1.636.728 3.048.472 4.755-.15 1-.271 1.61.102 2.569.23.593 1.198.335.964-.266-.462-1.186.088-2.42.127-3.611.033-1.013-.213-1.945-.472-2.92-.765-2.882-.368-5.414-.443-8.337-.017-.642-1.017-.645-1 0"/>
            <path fill="#071F2C" d="M168.987 95.76l5.706 3.656c.543.35 1.045-.516.504-.863l-5.706-3.657c-.543-.349-1.045.516-.504.863M143.36 149.728a418.992 418.992 0 0 0 14.153 5.709c.601.229.862-.736.267-.965a410.687 410.687 0 0 1-13.917-5.608c-.584-.248-1.095.613-.504.864M148.782 150.011c5.386 2.008 11.104 2.12 16.567.335.609-.199.349-1.165-.265-.965-5.31 1.734-10.804 1.615-16.036-.335-.604-.224-.865.741-.266.965M138.996 151.267c.838.209.648 4.156.641 4.806-.02 1.703-.207 3.38-.509 5.056-.113.629.85.899.965.266.46-2.558.658-5.134.472-7.731-.082-1.142.081-3.015-1.303-3.361-.624-.156-.89.809-.266.964"/>
            <path fill="#071F2C" d="M137.06 151.594c1.642 4.088-1.966 9.025.802 12.845 1.08 1.49 2.984 2.368 4.517 3.287a170.652 170.652 0 0 0 7.839 4.41c.568.3 1.074-.563.505-.864a172.274 172.274 0 0 1-6.618-3.684c-1.892-1.112-4.708-2.259-5.761-4.259-1.934-3.672 1.246-8.102-.32-12-.235-.59-1.203-.333-.963.265"/>
            <path fill="#071F2C" d="M144.431 162.511c7.378 3.744 15.071 7.466 23.572 6.705.636-.058.642-1.058 0-1-8.33.745-15.838-2.899-23.068-6.568-.572-.29-1.079.571-.504.863M167.45 155.412c-3.811 2.69-8.064 4.305-12.71 4.771-.634.063-.641 1.064 0 1 4.815-.483 9.26-2.116 13.216-4.908.522-.368.022-1.235-.505-.863M137.941 167.148a68.467 68.467 0 0 0 3.218 40.683c.237.589 1.204.333.964-.266-5.125-12.76-6.26-26.738-3.218-40.151.142-.627-.821-.895-.964-.266M176.298 169.454c3.834 6.024 6.126 11.896 5.787 19.15-.318 6.801-2.512 13.322-4.65 19.726-.204.611.761.874.965.266 2.258-6.765 4.549-13.667 4.715-20.865.165-7.104-2.197-12.88-5.954-18.782-.344-.54-1.21-.04-.863.505M147.487 184.59c.108 1.163.37 2.197.983 3.202.762 1.246 2.262 2.004 2.4 3.54.159 1.78-.196 3.696-.244 5.485a132.85 132.85 0 0 0 .001 6.74c.016.641 1.016.644 1 0-.097-4.046.486-8.208.242-12.225-.046-.755-.181-1.262-.625-1.888-1.19-1.674-2.54-2.535-2.757-4.854-.06-.636-1.061-.642-1 0M151.998 171.814l7.525-.478c2.227-.14 5.61-1.005 7.683-.018.578.275 1.085-.587.504-.864-2.044-.974-4.586-.345-6.775-.206l-8.937.566c-.64.04-.644 1.04 0 1M159.135 39.787c1.032.46 2.063.917 3.095 1.376.583.26 1.092-.603.505-.863l-3.095-1.376c-.583-.259-1.092.602-.505.863M162.191 38.229a6.06 6.06 0 0 1 3.789 2.77c.333.549 1.198.047.863-.505a7.075 7.075 0 0 0-4.386-3.23c-.625-.153-.891.81-.266.965M167.927 38.97c1.251.571 1.408 2.121 1.488 3.34.042.638 1.042.643 1 0-.102-1.564-.388-3.475-1.984-4.204-.58-.266-1.089.596-.504.863M171.632 44.13c.582 2.01 1.398 4.134 3.113 5.45.555.426 1.424 1.003 2.158.68 1.017-.45.365-1.39.513-2.17.119-.63-.844-.899-.964-.267-.056.296.127 1.38-.226 1.484-.528.155-1.641-1.22-1.915-1.585-.85-1.137-1.324-2.508-1.715-3.858-.178-.617-1.144-.354-.964.266"/>
            <path fill="#071F2C" d="M177.03 46.134c2.249 2.144 3.078 5.196 2.217 8.181-.18.62.785.883.964.265.954-3.306.018-6.777-2.473-9.153-.466-.444-1.174.262-.707.707M151.527 37.396c.793.23 1.525.6 2.169 1.119.497.4 1.208-.303.707-.707a7.431 7.431 0 0 0-2.61-1.377c-.619-.181-.884.784-.266.965M159.682 90.646a9.194 9.194 0 0 0 4.046 2.134c.625.148.892-.816.266-.965a8.122 8.122 0 0 1-3.605-1.876c-.478-.43-1.187.275-.707.707M153.231 120.377l-.172 1.032c-.105.63.86.9.964.266l.172-1.032c.105-.629-.858-.9-.964-.266M151.512 133.195l.172.516c.203.607 1.168.347.964-.266l-.172-.516c-.202-.607-1.168-.346-.964.266M161.814 131.308l1.548 5.33c.179.616 1.144.355.964-.267l-1.548-5.33c-.18-.616-1.144-.353-.964.267M143.603 87.116a33.592 33.592 0 0 0 1.942 4.246c.308.566 1.172.06.863-.505a31.875 31.875 0 0 1-1.841-4.007c-.225-.596-1.192-.338-.964.266M165.41 173.708c1.33 5.368 7.966 8.08 12.986 7.91.641-.02.644-1.02 0-1-4.575.155-10.796-2.228-12.022-7.176-.154-.624-1.119-.36-.964.266"/>
            <path fill="#071F2C" d="M162.607 177.254a21.726 21.726 0 0 0 11.523 6.766c.626.141.894-.823.266-.964-4.34-.979-8.113-3.197-11.081-6.509-.431-.48-1.136.23-.708.707M152.46 173.683c5.014.022 10.13.336 15.13-.057 3.64-.286 7.085-1.276 9.777-3.838.467-.444-.24-1.15-.707-.707-3.243 3.085-7.597 3.6-11.893 3.648-4.1.046-8.206-.027-12.307-.046-.644-.003-.644.997 0 1"/>
            <path fill="#071F2C" d="M175.116 167.52l1.373 1.736c.398.505 1.102-.207.707-.707l-1.373-1.736c-.399-.504-1.102.208-.707.707M138.649 168.199a34.76 34.76 0 0 0 12.336 6.102c.623.167.889-.798.267-.965a34.05 34.05 0 0 1-12.098-6c-.51-.393-1.007.475-.505.863M133.468 47.915c-.77.104-1.623.375-1.892 1.192-.279.85.26 1.471 1.054 1.69.726.201 1.687.204 2.143-.507.367-.573.283-1.383-.342-1.732-.562-.314-1.067.55-.505.864.214.12-.036.395-.173.454-.295.124-.72.023-1-.086-.337-.13-.303-.402-.044-.617.264-.219.703-.25 1.025-.294.635-.086.364-1.049-.266-.964M150.354 18.807c-2.03.324-2.64 3.04-.876 4.141 1.79 1.119 3.899-.657 3.335-2.62-.177-.618-1.143-.355-.964.266.322 1.121-.823 2.171-1.867 1.49-1.07-.698-.495-2.132.638-2.313.634-.102.365-1.066-.266-.964M189.849 52.29c-.531.281-.763.91-.611 1.486.166.625.76 1.022 1.36 1.165.61.146 1.355.116 1.81-.376.418-.452.402-1.105.013-1.558-.42-.489-1.124.22-.707.707.116.135-.212.271-.282.29-.22.056-.506.004-.714-.068-.273-.092-.82-.542-.364-.784.569-.3.064-1.165-.505-.863M123.454 74.794c.487-.104.348.567.148.764-.318.312-.823.308-1.233.245-.63-.098-.9.866-.267.964 1.03.16 2.27-.056 2.638-1.19.322-.992-.536-1.963-1.552-1.747-.629.133-.362 1.098.266.964M47.977 88.532c.487-.104.347.567.147.764-.317.31-.823.307-1.233.245-.629-.098-.9.866-.266.964 1.03.159 2.27-.057 2.638-1.19.322-.992-.536-1.963-1.552-1.748-.629.134-.363 1.098.266.965M172.951 71.324c.166.862-.062 1.748.16 2.596.25.96.992 1.677 1.28 2.647.478 1.61.402 3.22 1.351 4.672.351.536 1.217.036.863-.505-.992-1.518-.797-3.318-1.422-4.964-.286-.754-.758-1.335-.974-2.121-.237-.861-.125-1.713-.294-2.591-.12-.63-1.085-.364-.964.266M166.312 91.875c.193 3.368-3.389 3.897-1.462 7.016 1.262 2.043 1.138 3.02.327 5.223-.207.562-.454 1.067-.539 1.665-.17 1.202.071 2.03.828 2.92.417.491 1.121-.219.707-.707-1.603-1.887.515-3.969.75-5.912a4.451 4.451 0 0 0-.56-2.797c-.486-.849-.622-.842-.662-2.045-.053-1.544.128-1.104.875-2.174.718-1.028.808-1.928.736-3.189-.037-.64-1.037-.645-1 0"/>
            <path fill="#071F2C" d="M167.024 96.345c-.093 2.381 1.707 4.157 1.2 6.58-.444 2.121-.927 3.73-.67 5.964.073.632 1.075.64 1 0-.174-1.51-.167-2.897.208-4.392.226-.895.733-1.767.82-2.695.197-2.079-1.64-3.31-1.558-5.457.025-.644-.975-.643-1 0M171.06 91.621c.328 1.886-.623 3.81.43 5.567.33.552 1.195.05.864-.505-.932-1.555-.031-3.612-.33-5.329-.11-.632-1.073-.364-.964.267M179.133 56.272c.252 1.183.586 2.379.758 3.577.347 2.418-.654 3.57-1.512 5.593-.615 1.449-.747 2.759.022 4.152.311.564 1.175.06.863-.505-1.434-2.6 1.543-4.991 1.773-7.498.168-1.824-.564-3.823-.94-5.585-.133-.63-1.098-.363-.964.266M144.44 71.396c.29 1.609-.142 2.74-.373 4.286-.18 1.202.45 2.314.248 3.498-.108.63.855.9.964.266.077-.445.113-.807.055-1.26-.15-1.156-.37-1.87-.082-3.083.322-1.362.402-2.587.152-3.973-.113-.632-1.077-.365-.964.266M142.865 90.72l-.584 4.116c-.09.63.874.902.964.266l.584-4.115c.089-.63-.874-.902-.964-.267M141.563 65.367c.184 1.023.658 2.063.786 3.077.148 1.166-.264 2.302-.409 3.44-.222 1.74-.098 3.44.224 5.155.118.632 1.082.364.963-.266-.472-2.523.007-4.51.244-7 .153-1.606-.56-3.097-.844-4.672-.113-.632-1.077-.365-.964.266M140.455 86.652c.513 2.657-.356 5.18-1.25 7.65-.22.607.746.868.963.266.967-2.671 1.802-5.327 1.251-8.182-.122-.63-1.086-.363-.964.266M154.5 97.51c1.003.374 1.568-1.072 1.515-1.84-.072-1.022-.952-1.849-1.97-1.893-1.055-.046-1.958.753-2.123 1.776-.073.457-.104 1.106.224 1.481.357.408 1.084.477 1.583.523.641.058.637-.942 0-1-.287-.027-.722-.035-.842-.364-.059-.164.008-.512.06-.67.142-.43.558-.75 1.016-.75.436 0 .863.298 1.005.712.04.117.024 1.144-.203 1.06-.603-.226-.864.74-.266.964"/>
            <path fill="#071F2C" d="M151.885 97.078l-1.512.832c-.564.311-.06 1.175.505.864l1.512-.832c.564-.31.06-1.174-.505-.864M157.202 94.406a7.114 7.114 0 0 0-1.712.422c-.592.232-.334 1.2.266.965a6.037 6.037 0 0 1 1.446-.387c.63-.081.637-1.082 0-1M144.192 137.431c-.34.535-.607 1.1-.818 1.697-.214.608.752.869.964.266.183-.517.424-.996.717-1.458.346-.545-.519-1.047-.863-.505M146.352 138.371c-.122.305-.122.578-.062.897.116.632 1.08.365.964-.265a.513.513 0 0 1 .062-.366c.239-.598-.728-.858-.964-.266M138.56 132.517a12.692 12.692 0 0 0-4.455-1.028c-.643-.03-.642.97 0 1 1.368.062 2.69.353 3.95.89.585.252 1.095-.61.504-.862M173.154 129.895a9.834 9.834 0 0 1 3.973-.66c.643.026.642-.974 0-1a10.538 10.538 0 0 0-4.24.696c-.593.229-.336 1.195.267.964M175.218 126.107a34.403 34.403 0 0 1 2.595-8.154c.268-.58-.594-1.09-.864-.505a35.471 35.471 0 0 0-2.695 8.393c-.119.629.845.899.964.266M146.075 132.375l-.822.063c-.637.05-.643 1.05 0 1l.822-.063c.638-.049.643-1.049 0-1M148.427 126.675a11.012 11.012 0 0 0-2.605-.238c-.642.018-.645 1.018 0 1a9.924 9.924 0 0 1 2.34.202c.627.132.896-.832.265-.964M151.633 128.934c1.414.367 2.849.579 4.308.64.643.027.642-.973 0-1a19.177 19.177 0 0 1-4.042-.605c-.623-.162-.89.803-.266.965M178.367 184.2v.388c0 .643 1 .644 1 0v-.387c0-.644-1-.645-1 0M177.89 196.57l-1.164 3.103c-.227.603.74.864.964.265l1.164-3.101c.227-.604-.739-.865-.964-.266M172.864 209.663c-.26.743-.517 1.486-.776 2.23-.212.61.754.871.964.266l.776-2.23c.212-.609-.754-.87-.964-.266M151.57 187.02a38.1 38.1 0 0 1 .248-10.152c.101-.63-.863-.901-.964-.266a39.09 39.09 0 0 0-.284 10.418c.068.633 1.068.64 1 0M148.377 181.929a18.6 18.6 0 0 1 .982-7.658c.211-.61-.754-.871-.964-.267a19.26 19.26 0 0 0-1.018 7.925c.05.637 1.051.643 1 0M139.549 171.721a15.267 15.267 0 0 1-2.022 2.184c-.48.429.229 1.135.707.707a16.596 16.596 0 0 0 2.179-2.386c.387-.514-.481-1.013-.864-.505"/>
            <path fill="#071F2C" d="M152.234 102.535c-1.465-1.035-3.315-1.394-5.045-.84-.546.174-.561.438-.797-.028-.118-.235.702-1.674.823-1.962l1.765-4.2c.249-.593-.718-.852-.964-.267l-2 4.762c-.292.694-1.233 2.142-.561 2.92.532.618 1.217.021 1.797-.198 1.526-.576 3.173-.246 4.477.677.526.372 1.026-.495.505-.864M159.81 90.705a14.007 14.007 0 0 1-1.786 5.514c-.32.56.545 1.064.864.505a15.254 15.254 0 0 0 1.923-6.019c.067-.64-.934-.635-1 0M160.728 102.058c.459-.091.906-.09 1.356.056.393.127.688.42 1.076.54.385.12.758.08 1.038-.237.397-.45.388-1.22.484-1.775l.487-2.852c.108-.628-.856-.9-.964-.265l-.396 2.317c-.037.214-.135 1.784-.38 1.85-.036.01-.647-.373-.703-.4a3.447 3.447 0 0 0-.641-.213c-.543-.123-1.08-.092-1.623.015-.63.125-.363 1.089.266.964M137.348 107.965a24.521 24.521 0 0 1 1.355 4.285c.14.628 1.103.362.964-.266a25.928 25.928 0 0 0-1.455-4.524c-.25-.59-1.112-.082-.864.505M172.714 115.212a8.928 8.928 0 0 1 2.838-2.744c.549-.335.047-1.199-.504-.863a10.068 10.068 0 0 0-3.198 3.102c-.353.54.512 1.042.864.505M146.394 84.074l-.328-.466c-.367-.522-1.234-.023-.863.505l.328.466c.367.522 1.234.023.863-.505M148.468 82.806l-.228-.343c-.355-.533-1.222-.032-.864.505l.23.342c.354.533 1.22.033.862-.504M150.557 81.564l-.114-.114c-.455-.455-1.163.252-.707.707l.114.114c.456.456 1.163-.251.707-.707M166.401 134.49a8.883 8.883 0 0 0 7.248-3.002c.425-.48-.279-1.19-.707-.707-1.686 1.902-4.005 2.862-6.541 2.709-.643-.04-.64.96 0 1M178.59 129.213c1.825-.002 3.672.186 4.113 2.386.128.637-.188 2.494-.518 3.134-.394.766-1.327.864-2.012 1.226-.653.345-1.064.733-1.494 1.327-.377.523.49 1.023.864.505.872-1.208 2.648-1.017 3.39-2.204.573-.914.7-2.63.75-3.685.14-3.015-2.602-3.69-5.092-3.689-.644 0-.645 1 0 1"/>
            <path fill="#071F2C" d="M180.822 141.716c.319-1.022 1.36-1.665 1.71-2.726.309-.936.275-1.917-.028-2.847-.198-.61-1.164-.349-.964.265.339 1.043.274 2.152-.354 3.08-.47.694-1.071 1.138-1.328 1.962-.192.616.773.88.964.266M182.99 131.424c-1.72-.59-3.47-.71-5.259-.406-.633.107-.365 1.071.266.964 1.608-.274 3.185-.122 4.726.406.61.21.872-.756.266-.964M182.524 133.057a64.566 64.566 0 0 0-4.128.041c-.641.027-.644 1.027 0 1a64.566 64.566 0 0 1 4.128-.041c.644.015.644-.985 0-1M174.805 132.745a10.001 10.001 0 0 0 1.874-.389c.611-.192.35-1.158-.266-.964-.526.166-1.06.29-1.608.353-.632.073-.639 1.073 0 1M176.338 144.5c.44 1.741.74 3.405-.1 5.11-.529 1.071-1.668 2.057-2.404 2.996-1.23 1.571-2.22 3.18-2.837 5.08-.2.613.766.876.964.265.988-3.044 3.197-4.966 4.93-7.54 1.309-1.944.958-4.016.41-6.178-.157-.624-1.122-.359-.963.266"/>
            <path fill="#071F2C" d="M175.692 150.87c-.277 3.254 1.438 6.233 1.045 9.49-.419 3.47-1.459 6.817-4.537 8.714-.547.338-.045 1.203.505.863 2.886-1.779 3.772-3.977 4.59-7.205.423-1.673.668-3.282.446-5.007-.303-2.35-1.255-4.432-1.049-6.855.055-.642-.946-.638-1 0M139.03 96.332l-.512 1.986c-.161.623.804.89.965.266l.512-1.986c.16-.624-.803-.89-.964-.266M170.47 56.938c-1.31 4.22-.347 7.72.03 11.966.166 1.845.128 3.706.394 5.542.3 2.08 1.365 3.79 1.788 5.8.132.63 1.097.364.964-.265-.364-1.731-1.325-3.234-1.66-4.988-.381-2.004-.31-4.065-.485-6.09-.352-4.094-1.337-7.605-.066-11.7.192-.616-.774-.88-.964-.265M145.928 41.254c1.976-1.34 4.533-1.246 6.812-1 .64.068.635-.933 0-1-2.453-.265-5.196-.304-7.316 1.137-.53.36-.03 1.226.504.863M153.76 34.011c1.378.05 2.696.321 3.985.805.603.227.864-.74.266-.964a13.315 13.315 0 0 0-4.25-.84c-.644-.023-.643.977 0 1M145.96 57.603a6.211 6.211 0 0 1 3.48.504c.58.265 1.09-.597.503-.863a7.438 7.438 0 0 0-4.249-.606c-.634.092-.364 1.055.266.965M148.736 70.765a6.262 6.262 0 0 1 2.703 2.355c.341.543 1.208.042.863-.504a7.197 7.197 0 0 0-3.063-2.715c-.578-.269-1.088.593-.504.864M160.268 75.352c-.524 2.499-.737 5.009-.813 7.56-.038 1.252-.044 2.504-.07 3.756-.023 1.059-.024 1.817-.486 2.807-.565 1.21-1.337 1.306-2.64 1.383-.639.038-.644 1.038 0 1 2.101-.125 3.755-.662 4.048-2.955.567-4.44-.005-8.846.925-13.285.132-.628-.832-.897-.964-.266"/>
            <path fill="#071F2C" d="M147.456 54.203c2.508.246 5.331.86 5.046 4.02-.135 1.511-.872 2.892-1.007 4.42-.057.64.943.636 1 0 .21-2.371 1.993-4.907.435-7.175-1.226-1.785-3.49-2.07-5.474-2.266-.64-.063-.636.939 0 1M142.627 46.715c.233.531.452 1.081.25 1.654-.214.61.75.87.964.267.297-.842-.01-1.65-.35-2.426-.258-.588-1.12-.08-.864.505M142.506 51.85c.085 1.486-.37 2.786-.583 4.23-.218 1.487-.099 2.932.244 4.386.148.626 1.112.362.964-.265-.418-1.777-.382-3.357.015-5.122.246-1.096.425-2.094.36-3.228-.037-.641-1.037-.645-1 0M189.923 27.185a87.915 87.915 0 0 1 9.465-3.983c.602-.213.344-1.18-.266-.964a90.28 90.28 0 0 0-9.705 4.084c-.577.283-.07 1.146.506.863M198.563 84.446l2.982-.662c.628-.14.363-1.105-.266-.965-.993.222-1.987.442-2.982.663-.628.14-.362 1.104.266.964M201.472 105.92h1.657c.643 0 .645-1 0-1h-1.657c-.643 0-.645 1 0 1M192.77 151.75a81.93 81.93 0 0 1 8.183 6.55c.475.431 1.184-.275.707-.708a83.804 83.804 0 0 0-8.385-6.706c-.528-.37-1.03.497-.505.863M150.695 203.889c-.137 8.292.44 16.55 1.711 24.744.098.634 1.062.365.964-.265a144.09 144.09 0 0 1-1.675-24.479c.011-.644-.989-.644-1 0M171.074 217.841v.688c0 .644 1 .645 1 0v-.688c0-.644-1-.645-1 0M170.25 222.618l.323 1.726c.12.631 1.083.364.965-.266l-.324-1.726c-.118-.63-1.082-.364-.964.266M176.656 212.04l-4.17 17.207c-.152.625.812.892.964.266l4.17-17.208c.152-.625-.812-.892-.964-.266M176.028 99.077c-.365-1.058 1.483-3.113 1.812-4.212.388-1.296.431-2.65.335-3.992-.046-.638-1.046-.644-1 0 .142 1.975-.064 3.914-1.21 5.585-.65.951-1.316 1.683-.9 2.885.207.604 1.173.344.963-.266M162.758 57.45a1.091 1.091 0 1 1-2.183.002 1.091 1.091 0 0 1 2.183-.002"/>
            <path fill="#071F2C" d="M148.857 56.123a.938.938 0 1 1-1.876 0 .938.938 0 0 1 1.876 0M116.174 181.427l8.513 7.45c.484.423 1.194-.282.707-.707l-8.514-7.45c-.481-.422-1.191.282-.706.707M117.153 167.974a24.922 24.922 0 0 1 5.064 3.279c.49.41 1.201-.293.707-.707a25.9 25.9 0 0 0-5.268-3.435c-.575-.283-1.083.58-.504.863M25.588 74.96c-4.108 4.238-6.403 9.676-6.579 15.575-.019.644.981.644 1 0 .169-5.638 2.361-10.819 6.286-14.869.448-.462-.258-1.17-.707-.707M32.082 226.684c-3.363.51-6.73.686-10.127.553-.644-.026-.643.974 0 1a54.93 54.93 0 0 0 10.393-.588c.634-.097.364-1.06-.266-.965M40.897 208.445l-9.69-1.71c-.629-.111-.899.853-.266.964l9.69 1.71c.63.11.9-.853.266-.964M84.955 186.473l-.144 2.175c-.042.642.958.639 1 0l.144-2.175c.042-.643-.958-.64-1 0M88.863 219.583c.644 0 .645-1 0-1-.644 0-.645 1 0 1M90.902 219.729c.643 0 .645-1 0-1-.644 0-.645 1 0 1M.626 118.846c3.072-.617 5.397-2.609 7.66-4.658 1.41-1.278 2.802-2.625 4.445-3.609.801-.479 1.662-.872 2.57-1.096 1.645-.408 2.558.21 3.536 1.386 2.186 2.629 4.873 3.16 7.782 1.329 1.945-1.226 3.6-2.258 5.99-2.238 2.68.023 5.205 1.326 6.816 3.446.384.505 1.253.007.863-.505-2.107-2.772-5.474-4.299-8.973-3.872-1.893.23-3.322 1.065-4.888 2.093-1.587 1.042-3.37 1.718-5.144.655-1.17-.702-1.64-1.914-2.614-2.752-2.296-1.973-6.037.271-7.98 1.757-3.329 2.546-6.009 6.232-10.329 7.099-.63.127-.363 1.091.266.965M109.28 127.636a7.778 7.778 0 0 0 5.93 4.595c1.896.305 4.834-.028 5.68-2.08.578-1.409-.176-3.115-.233-4.528-.269-1.798.562-3.073 2.494-3.828.261-.025.523-.055.782-.09.596-.35.761-.155 1.202-.716.581-.74.4-1.685.371-2.547-.105-3.144 2.136-3.613 4.8-3.476.642.032.64-.968 0-1-1.725-.088-4.06-.054-5.239 1.458-.795 1.02-.422 1.88-.56 3.018.197.622-.02 1.117-.65 1.485-.239.701-.69 1.02-1.357.95-.39.208-.807.26-1.179.522-2.419 1.695-1.273 4.335-1.319 6.721-.065 3.311-3.358 3.65-5.736 2.854-1.91-.639-3.329-2.009-4.123-3.843-.255-.589-1.117-.08-.864.505M183.474 104.585c2.536-3.88 8.026-1.305 11.615-3.162 1.981-1.025 3.006-3.025 5.328-3.562 1.993-.46 4.125-.066 6.117.19 3.627.465 6.647.282 10.021-1.188 3.927-1.71 7.802-4.54 12.297-3.59.627.133.896-.83.266-.964-3.774-.797-7.083.79-10.4 2.421-2.293 1.128-4.66 2.342-7.244 2.595-2.417.237-4.83-.326-7.226-.55-1.832-.173-3.76-.198-5.47.581-2.35 1.07-3.368 3.292-6.125 3.742-3.54.577-7.742-.538-10.042 2.982-.353.541.512 1.042.863.505"/>
        </g>
    </g>
</svg>
