<svg xmlns="http://www.w3.org/2000/svg" xmlns:xlink="http://www.w3.org/1999/xlink" viewBox="0 0 1644.76 124.12"><defs><style>.cls-1,.cls-2{fill:none;}.cls-2{clip-rule:evenodd;}.cls-3{clip-path:url(#clip-path);}.cls-4{clip-path:url(#clip-path-2);}.cls-5{clip-path:url(#clip-path-3);}.cls-6{fill:#f2f2f2;}.cls-7{clip-path:url(#clip-path-4);}</style><clipPath id="clip-path" transform="translate(0 -2279.36)"><rect class="cls-1" x="58.7" y="2279.09" width="1434" height="131.43"/></clipPath><clipPath id="clip-path-2" transform="translate(0 -2279.36)"><path class="cls-2" d="M18.32,2360.36c86,7.56,165.81-12.12,252.07-10.84,86.9,1.29,107.2-3,194.12-2.54,25.21.12,70,3.15,95.16,2.54,8.28.59,46.38-.38,54.68,0,2.53.12,39.63,1.54,40.65,0,13.86-.57,53.19,2.87,56.22-5.5s-25.82-6.11-34.83-5.49c-23.85,1.63-46.36-.59-70.25,0-28.94-2.07-57.8-5.18-86.7-7.81-37-3.37-73.71-4.75-110.81-5-19-.15-38.5,4.58-57.33,2.29-18.44-2.25-41.84-1.3-60.39,0s-31-4.8-49.68-3.71c-19.1,1.12-38.24,1.53-57.37,1.43q-10.07-.06-20.13-.3-20.88-.72-41.73-1.93c-22.6-1.28-45.17-2.88-67.75-4.48-5.94-.42-8,7.45-5.24,11.51q-17.29-1-34.56-2.51c-3.79-.33-7.41,1.31-8.34,5.33-.77,3.32,1.57,8,5.33,8.34"/></clipPath><clipPath id="clip-path-3" transform="translate(0 -2279.36)"><rect class="cls-1" x="57.25" width="1440" height="4132"/></clipPath><clipPath id="clip-path-4" transform="translate(0 -2279.36)"><path class="cls-2" d="M1485.37,2332.45c-49.5,6.44-88.35,2.2-138.47,3.46-24.92.62-61.94-.57-86.86,0s-52.82,2.65-77.68,4.47c-49.91,3.65-98,1.6-148.09,0-56.6-1.81-114.56-2.59-170.92-7.93-3.8-.36-17,4.5-16.91,7.93.1,4.18,13.65,5.71,17.4,6.06l8.57.81c5.84,2,18.65,5.38,24.72,6.83,9.23,2.21,23.7-1.57,32.4,2,9.07,3.72,17.51,4.34,27.19,4.58,9.87.25,22,1,31.55,3.49,9.27,2.43,18.63,5.17,28.19,6.14,10.12,1,7.64.14,17.8,0,2.82,0,23.39-1.87,26.21-1.95,5.49.57,16.91-.07,22.46,0,23.36.28,18.83,3.11,41.75,0,21.55-2.92,43.37-1.47,64.83,1.49,43.49,6,87.59,17.55,131.7,10.73,11-1.71,21.92-4.46,33-5.64,12.24-1.29,24.48-.19,36.7.65,24.4,1.67,47.78-1.85,71.86-5.29,54-7.71,108.6-5.36,162.89-2.85,4.86.22,8.84-4.73,8.68-9.31-.18-5.19-4.43-8.46-9.31-8.68l-15.36-.7c4.6-2.58,5.5-8.74,2.89-12.85a34.47,34.47,0,0,1,2.5-4.48c2.13-3.26,1.08-7.9-1.6-10.7l17.57-.4c9-.2,8.53-14.19-.49-14C1580.2,2307.45,1535.4,2325.94,1485.37,2332.45Z"/></clipPath></defs><title>fist-shadows</title><g id="Layer_2" data-name="Layer 2"><g id="Layer_1-2" data-name="Layer 1"><g class="cls-3"><g class="cls-4"><g class="cls-5"><rect class="cls-6" x="1.45" y="2297.99" width="714.1" height="73.97" transform="translate(-121.71 -2257.4) rotate(-3)"/></g></g><g class="cls-7"><g class="cls-5"><rect class="cls-6" x="842.08" y="2314.18" width="801.61" height="75.33" transform="translate(-81.32 -2234.55) rotate(-2)"/></g></g></g></g></g></svg>