<?xml version="1.0" encoding="UTF-8"?>
<svg width="2441px" height="167px" viewBox="0 0 2441 167" version="1.1" xmlns="http://www.w3.org/2000/svg" xmlns:xlink="http://www.w3.org/1999/xlink">
    <!-- Generator: Sketch 43.2 (39069) - http://www.bohemiancoding.com/sketch -->
    <title>Page 1</title>
    <desc>Created with Sketch.</desc>
    <defs></defs>
    <g id="Screens" stroke="none" stroke-width="1" fill="none" fill-rule="evenodd">
        <g id="iPad-Pro-Landscape" transform="translate(-500.000000, -85.000000)">
            <g id="Page-1" transform="translate(500.000000, 84.000000)">
                <polygon id="Fill-1" fill="#FFFFFF" points="1235.967 85.1125 1242.133 72.6915 1250.347 79.3405 1247.695 85.7065 1244.257 87.9755 1238.286 86.9625"></polygon>
                <g id="Group-260" transform="translate(0.000000, 0.867000)">
                    <g id="Group-4" transform="translate(1224.000000, 45.000000)" fill="#D6906D">
                        <path d="M24.2463,37.0541 C23.0713,38.6971 21.6943,40.1411 20.1033,41.3871 C17.3053,41.1871 14.5933,40.4881 11.9673,39.2451 C13.3983,37.0211 14.3673,34.5981 15.2243,32.1061 C15.7843,31.3561 16.2253,30.5791 16.4603,29.7931 C18.2433,30.3271 20.0513,30.8481 21.7193,31.6791 C22.8553,32.2451 23.7663,33.0741 24.7173,33.8431 C24.2943,34.8571 24.1343,35.9711 24.2463,37.0541 M1213.7613,58.7321 C1211.9143,44.2961 1213.8283,28.6561 1215.0863,14.1701 C1215.5653,8.6451 1219.4983,1.1571 1214.2873,0.9401 C1213.4753,0.7171 1200.3033,1.3161 1199.4373,1.2631 C1170.9313,-0.4809 1142.8423,5.2391 1114.7423,9.1061 C1086.5133,12.9921 1058.2603,11.4941 1029.8543,10.5701 C971.7123,8.6811 913.5943,10.9271 855.4993,13.6941 C828.5603,14.9781 801.6363,16.5431 774.7143,18.1561 C774.2413,17.9601 773.7483,17.8101 773.2363,17.7261 C772.2363,17.4721 771.1343,17.4391 769.9523,17.6681 C732.0913,18.0661 694.2423,19.2301 656.4323,21.1491 C602.4063,20.1641 548.3813,24.2211 494.3633,26.3771 C461.2273,27.0331 428.1083,28.4461 395.0353,30.5921 C326.5233,32.5621 258.0243,34.9741 189.5463,37.8851 C169.2783,38.7461 149.0123,39.6521 128.7473,40.5951 C117.1813,39.1301 105.5833,37.8701 94.0523,36.1961 C88.8783,33.7651 83.8713,30.9891 79.4133,27.4711 C75.3963,24.3021 72.2953,20.2071 68.2253,17.1071 C64.4963,14.2681 62.1343,9.8631 57.8383,7.8651 C52.9793,5.6061 48.6363,7.4201 43.6423,7.5381 C38.1153,7.6681 33.0203,5.8761 27.5233,7.1361 C27.2873,7.0861 27.0653,7.0201 26.8133,6.9881 C25.2293,6.7921 23.6433,6.6311 22.0543,6.4901 C20.7973,6.2291 19.5353,5.9801 18.2383,6.0251 C14.8533,6.1441 10.1753,8.0521 8.2603,10.9641 C6.8043,13.1761 4.5213,14.8431 4.1053,17.6401 C3.5733,21.2171 6.0953,24.4641 8.5013,26.8221 C8.6423,26.9591 8.7983,27.0641 8.9473,27.1821 C8.0963,27.4321 7.3143,27.8771 6.6043,28.4271 C3.1283,29.4461 0.4343,32.3971 0.0873,36.1291 C-0.0587,37.7091 0.1573,39.0161 0.6213,40.1511 C0.7773,41.1001 1.1003,42.0271 1.5223,42.9141 C1.9203,43.7501 2.4003,44.4961 2.9663,45.2271 C3.0443,45.3271 3.1423,45.4361 3.2483,45.5481 C3.1503,45.6771 3.0583,45.8161 2.9773,45.9781 C1.4053,49.1271 -0.2947,51.8471 1.6753,55.3131 C3.3293,58.2251 6.3113,59.3941 8.8273,61.2591 C7.7023,62.4621 7.2593,63.9281 7.2783,65.4751 C6.7703,66.9121 6.9033,68.5331 8.0673,70.0611 C8.3983,70.4951 8.7283,70.9291 9.0593,71.3631 C9.5873,72.0551 10.1843,72.5931 10.8203,73.0031 C15.2243,76.6871 20.8573,78.1311 26.4453,79.4771 C30.1143,80.3601 33.7723,80.9481 37.4543,81.3391 C42.9543,83.3811 49.2543,83.5591 55.0603,83.8691 C59.4513,84.1041 63.8673,83.9041 68.0483,82.4291 C72.0043,81.0331 75.5853,78.8241 79.5923,77.5291 C88.2373,74.7341 97.2983,74.1781 106.2873,73.3941 C108.5273,73.1991 110.7633,72.9681 112.9973,72.7241 C175.7623,76.7071 238.5633,70.8001 301.3423,69.7131 C307.6073,69.6041 313.8733,69.5541 320.1393,69.5611 C345.1163,70.9721 370.1353,71.6871 395.1383,72.4351 C432.0983,73.5401 468.9503,73.8801 505.8563,71.2571 C513.5133,70.7131 521.1753,70.1621 528.8393,69.7711 C546.3153,70.5701 563.7773,71.8341 581.2603,73.7991 C601.4093,76.0641 621.5453,78.4401 641.8203,79.2291 C662.0113,80.0151 682.2233,79.5841 702.4153,79.0651 C724.0343,78.5091 745.6543,77.9371 767.2733,77.3711 C768.4273,77.5031 769.5783,77.6591 770.7303,77.8071 C788.4063,80.6161 816.4233,77.9701 834.3163,78.3481 C858.8143,78.8661 883.3133,79.3801 907.8133,79.8251 C956.1473,80.7031 994.4893,84.3131 1042.8323,84.1491 C1070.6433,84.0541 1098.4533,83.6961 1126.2563,83.0031 C1126.9873,82.9841 1127.7043,82.8891 1128.3993,82.7301 C1147.7413,83.4291 1167.0823,84.1271 1186.4233,84.8251 C1188.2473,85.5011 1190.3983,85.6031 1192.8083,84.8661 C1195.8673,83.9301 1199.4133,84.5541 1202.6233,83.7001 C1206.1223,82.7701 1209.3753,81.6281 1211.4573,78.6641 C1216.2373,71.8581 1214.7273,66.2901 1213.7613,58.7321" id="Fill-2"></path>
                    </g>
                    <path d="M1338.9167,99.4755 C1338.8597,98.7045 1338.5937,98.0745 1338.2107,97.5685 C1338.2277,95.1735 1338.0417,92.7675 1337.6397,90.3185 C1337.5057,89.5005 1337.1667,88.9005 1336.7117,88.4885 C1336.6257,87.8395 1336.5387,87.1905 1336.4407,86.5405 C1336.3567,85.9875 1336.1377,85.5285 1335.8257,85.1625 C1335.6427,83.7055 1335.2597,82.6895 1333.3627,82.3365 C1330.3127,81.7695 1327.2427,81.2895 1324.1847,80.7665 C1323.1877,80.5955 1321.8807,81.4355 1322.3397,82.6115 C1322.4557,82.9075 1322.5607,83.2025 1322.6567,83.4975 L1323.2717,86.1825 C1323.3877,86.6905 1323.6627,86.9995 1323.9977,87.1525 C1324.0037,87.2015 1324.0037,87.2465 1324.0147,87.2975 C1324.6317,90.2925 1325.3397,93.2525 1326.1287,96.1975 C1326.6007,101.3055 1325.9087,106.5585 1324.0957,111.3595 C1324.0187,111.4835 1323.9487,111.6105 1323.8697,111.7335 C1323.5577,112.2215 1323.3967,112.7055 1323.3437,113.1725 C1323.1267,113.6565 1322.9017,114.1365 1322.6607,114.6085 C1321.8697,116.1595 1323.7167,117.5295 1325.0167,116.4265 L1325.1227,116.3365 C1325.9167,116.7995 1326.8787,117.0235 1327.8227,116.8755 C1330.4377,116.4645 1333.5177,117.4775 1335.2667,114.9335 C1336.3277,113.3885 1336.6897,111.4605 1337.3527,109.6815 C1337.6337,109.1245 1337.8967,108.5575 1338.1487,107.9805 C1338.1587,107.9645 1338.1657,107.9475 1338.1747,107.9315 L1338.1707,107.9295 C1338.2907,107.6525 1338.4117,107.3765 1338.5277,107.0945 C1338.9267,106.1285 1338.8257,105.2685 1338.4267,104.5745 C1338.9457,103.0065 1339.0517,101.3035 1338.9167,99.4755" id="Fill-5" fill="#E35205"></path>
                    <path d="M1236.3196,84.8578 C1238.6766,80.6148 1240.4506,76.0948 1241.4866,71.3468 C1241.9326,69.3028 1242.1846,67.2498 1242.4196,65.1748 C1242.5636,63.8988 1242.6906,62.4488 1243.4156,61.3378 C1244.3826,59.8538 1246.1276,59.2508 1247.7016,58.6798 C1252.6636,56.8838 1257.7066,55.3028 1262.7976,53.9138 C1267.7006,52.5748 1273.8626,50.1768 1278.9246,51.7278 C1283.8766,53.2448 1287.6466,58.3838 1290.9446,62.1098 C1294.1426,65.7228 1297.2876,69.4078 1300.9266,72.5918 C1303.9746,75.2578 1307.3556,77.5948 1311.1386,79.0858 C1315.6406,80.8598 1320.5506,81.2028 1325.3126,81.7588 C1331.5126,82.4828 1337.7126,83.2068 1343.9116,83.9308 C1346.8446,84.2738 1349.7816,84.6998 1352.7226,84.9598 C1354.7696,85.1418 1356.8296,85.0008 1358.8766,85.1828 C1359.5176,85.2408 1359.5136,84.2398 1358.8766,84.1828 C1357.0936,84.0238 1355.3016,84.1248 1353.5166,84.0198 C1350.6396,83.8518 1347.7536,83.3798 1344.8906,83.0458 C1339.3436,82.3978 1333.7966,81.7498 1328.2496,81.1018 C1322.6426,80.4468 1316.7046,80.2268 1311.4046,78.1208 C1306.6316,76.2248 1302.5316,72.9388 1298.9206,69.3478 C1295.0906,65.5378 1291.7206,61.3028 1288.0036,57.3868 C1285.0876,54.3148 1281.8716,51.0118 1277.4736,50.3978 C1272.7056,49.7318 1267.5196,51.5998 1262.9806,52.8268 C1257.8866,54.2028 1252.8416,55.7768 1247.8746,57.5578 C1246.1366,58.1818 1244.1746,58.7758 1242.9616,60.2648 C1241.6736,61.8458 1241.5616,63.9438 1241.3486,65.8868 C1240.6366,72.4108 1238.6436,78.6168 1235.4566,84.3538 C1235.1436,84.9168 1236.0066,85.4208 1236.3196,84.8578" id="Fill-7" fill="#071F2C"></path>
                    <path d="M1236.9041,55.0434 C1240.1191,56.2774 1243.3341,57.5114 1246.5491,58.7444 C1247.1501,58.9754 1247.4101,58.0094 1246.8151,57.7804 C1243.6001,56.5464 1240.3851,55.3124 1237.1701,54.0794 C1236.5691,53.8484 1236.3081,54.8144 1236.9041,55.0434" id="Fill-9" fill="#071F2C"></path>
                    <path d="M1245.4529,57.2363 C1245.5529,55.5153 1244.9639,53.9053 1243.8149,52.6273 C1243.3839,52.1473 1242.6789,52.8563 1243.1079,53.3343 C1244.0889,54.4253 1244.5379,55.7763 1244.4529,57.2363 C1244.4149,57.8793 1245.4149,57.8773 1245.4529,57.2363" id="Fill-11" fill="#071F2C"></path>
                    <path d="M1247.0627,58.1088 C1247.6037,57.1128 1247.8667,56.0248 1247.8207,54.8908 C1247.7947,54.2498 1246.7947,54.2468 1246.8207,54.8908 C1246.8597,55.8538 1246.6597,56.7558 1246.1987,57.6038 C1245.8917,58.1698 1246.7547,58.6748 1247.0627,58.1088" id="Fill-13" fill="#071F2C"></path>
                    <path d="M1240.4768,71.5221 C1238.2998,71.3161 1235.4188,71.5401 1233.3528,70.8471 C1231.3818,70.1861 1229.4198,65.6761 1228.9148,63.7801 C1228.1608,60.9521 1230.1998,58.6731 1231.8158,56.5611 C1233.2768,54.6501 1234.9438,52.7731 1237.0858,51.6111 C1239.5708,50.2621 1242.2928,50.4671 1245.0178,50.6381 C1247.6248,50.8031 1250.2328,50.9701 1252.8398,51.1361 L1269.4628,52.1931 C1270.1058,52.2331 1270.1028,51.2331 1269.4628,51.1931 C1262.2918,50.7371 1255.1218,50.2811 1247.9508,49.8251 C1245.0598,49.6411 1241.9298,49.0961 1239.0728,49.7811 C1236.8228,50.3201 1234.9028,51.6821 1233.2928,53.3031 C1230.1968,56.4211 1226.4478,60.5701 1228.3658,65.1141 C1228.8518,66.2671 1229.4318,67.3881 1230.0558,68.4711 C1230.5098,69.2601 1231.3698,71.2081 1232.2108,71.6951 C1232.9348,72.1141 1234.3088,71.9381 1235.1338,72.0161 C1236.9148,72.1851 1238.6958,72.3531 1240.4768,72.5221 C1241.1178,72.5831 1241.1128,71.5821 1240.4768,71.5221" id="Fill-15" fill="#071F2C"></path>
                    <path d="M1253.9768,84.683 C1259.2168,79.039 1258.0588,70.053 1264.1478,65.033 C1264.6448,64.624 1263.9338,63.92 1263.4408,64.326 C1257.2898,69.397 1258.5058,78.335 1253.2698,83.976 C1252.8318,84.447 1253.5378,85.156 1253.9768,84.683" id="Fill-17" fill="#071F2C"></path>
                    <path d="M1235.7478,86.309 C1239.7318,88.972 1244.5048,89.593 1249.0198,87.959 C1249.6208,87.742 1249.3608,86.775 1248.7538,86.995 C1244.4618,88.548 1240.0468,87.981 1236.2518,85.446 C1235.7158,85.087 1235.2148,85.953 1235.7478,86.309" id="Fill-19" fill="#071F2C"></path>
                    <path d="M1258.1511,76.6308 C1260.2211,75.0078 1262.7881,74.6138 1265.1901,73.7138 C1267.1061,72.9958 1268.8521,71.9948 1270.4881,70.7698 C1270.9981,70.3888 1270.5001,69.5198 1269.9841,69.9058 C1267.7651,71.5668 1265.3871,72.6528 1262.7421,73.4598 C1260.8121,74.0488 1259.0471,74.6678 1257.4431,75.9238 C1256.9381,76.3198 1257.6501,77.0238 1258.1511,76.6308" id="Fill-21" fill="#071F2C"></path>
                    <path d="M1260.8118,74.9462 C1262.7558,76.0412 1261.8888,79.4222 1261.7998,81.1852 C1261.6918,83.3392 1261.6428,85.3622 1259.6208,86.6672 C1257.2468,88.1992 1253.6858,88.9062 1250.9578,89.6172 C1246.2338,90.8462 1241.4248,90.6962 1236.5828,90.6532 C1235.9388,90.6472 1235.9388,91.6472 1236.5828,91.6532 C1240.0918,91.6842 1243.6488,91.8312 1247.1388,91.3882 C1250.4038,90.9732 1253.5448,89.9502 1256.6538,88.9072 C1259.7588,87.8662 1262.2888,86.8142 1262.6758,83.2302 C1262.9518,80.6762 1264.1248,75.6642 1261.3168,74.0822 C1260.7548,73.7662 1260.2508,74.6302 1260.8118,74.9462" id="Fill-23" fill="#071F2C"></path>
                    <path d="M1225.6321,80.8012 C1225.9151,76.4252 1228.9261,73.2782 1232.9671,71.9202 C1233.5741,71.7172 1233.3141,70.7502 1232.7021,70.9562 C1228.2111,72.4652 1224.9451,75.9652 1224.6321,80.8012 C1224.5901,81.4442 1225.5901,81.4412 1225.6321,80.8012" id="Fill-25" fill="#071F2C"></path>
                    <path d="M1228.095,89.3276 C1227.417,88.5106 1226.74,87.6926 1226.061,86.8756 C1225.65,86.3796 1224.946,87.0906 1225.354,87.5826 C1226.032,88.4006 1226.71,89.2176 1227.388,90.0346 C1227.799,90.5306 1228.503,89.8196 1228.095,89.3276" id="Fill-27" fill="#071F2C"></path>
                    <path d="M1281.741,69.2287 C1279.048,70.1757 1276.32,70.9927 1273.549,71.6817 C1272.925,71.8367 1273.189,72.8017 1273.815,72.6457 C1276.585,71.9567 1279.314,71.1397 1282.007,70.1927 C1282.61,69.9807 1282.35,69.0147 1281.741,69.2287" id="Fill-29" fill="#071F2C"></path>
                    <path d="M1256.822,100.748 C1259.714,99.925 1262.577,98.857 1263.754,95.847 C1264.31,94.423 1264.414,92.85 1264.216,91.345 C1263.95,89.318 1262.041,86.824 1262.429,84.821 C1262.551,84.192 1261.588,83.923 1261.466,84.555 C1260.937,87.279 1263.157,89.474 1263.299,92.202 C1263.535,96.741 1260.46,98.672 1256.556,99.784 C1255.938,99.96 1256.201,100.925 1256.822,100.748" id="Fill-31" fill="#071F2C"></path>
                    <path d="M1227.3425,102.4096 C1234.6555,110.1416 1246.1305,102.1286 1254.5895,101.1926 C1255.2225,101.1226 1255.2295,100.1216 1254.5895,100.1926 C1250.1595,100.6826 1246.0255,102.3376 1241.7695,103.5556 C1236.9545,104.9346 1231.8325,105.7026 1228.0495,101.7026 C1227.6065,101.2336 1226.9005,101.9416 1227.3425,102.4096" id="Fill-33" fill="#071F2C"></path>
                    <path d="M1227.1633,89.474 C1227.1973,90.969 1226.3033,92.061 1225.6993,93.351 C1225.1783,94.462 1225.0323,95.53 1225.2323,96.741 C1225.3363,97.374 1226.3003,97.106 1226.1963,96.475 C1225.7613,93.835 1228.2223,92.065 1228.1633,89.474 C1228.1483,88.831 1227.1483,88.829 1227.1633,89.474" id="Fill-35" fill="#071F2C"></path>
                    <path d="M1234.2424,93.5287 C1235.0414,96.2037 1235.1804,98.8987 1234.6344,101.6377 C1234.5094,102.2657 1235.4724,102.5347 1235.5984,101.9037 C1236.1794,98.9897 1236.0574,96.1107 1235.2064,93.2627 C1235.0224,92.6477 1234.0574,92.9097 1234.2424,93.5287" id="Fill-37" fill="#071F2C"></path>
                    <path d="M1255.8386,92.498 C1256.1016,93.808 1256.2106,95.12 1256.1806,96.455 C1256.1666,97.099 1257.1666,97.099 1257.1806,96.455 C1257.2126,95.032 1257.0826,93.628 1256.8026,92.232 C1256.6766,91.602 1255.7126,91.869 1255.8386,92.498" id="Fill-39" fill="#071F2C"></path>
                    <path d="M1258.5061,93.2392 C1258.7261,94.3042 1258.8021,95.3692 1258.7521,96.4542 C1258.7211,97.0982 1259.7211,97.0962 1259.7521,96.4542 C1259.8061,95.2812 1259.7081,94.1242 1259.4701,92.9732 C1259.3401,92.3432 1258.3761,92.6102 1258.5061,93.2392" id="Fill-41" fill="#071F2C"></path>
                    <path d="M1230.6555,76.2043 C1229.0705,78.9813 1228.6105,82.0803 1229.3065,85.2013 C1229.4475,85.8283 1230.4115,85.5633 1230.2715,84.9353 C1229.6335,82.0763 1230.0665,79.2523 1231.5185,76.7093 C1231.8385,76.1493 1230.9745,75.6443 1230.6555,76.2043" id="Fill-43" fill="#071F2C"></path>
                    <path d="M1228.011,76.4704 C1227.227,77.7424 1226.852,79.1764 1226.92,80.6684 C1226.949,81.3104 1227.949,81.3134 1227.92,80.6684 C1227.859,79.3384 1228.175,78.1104 1228.875,76.9754 C1229.214,76.4264 1228.349,75.9234 1228.011,76.4704" id="Fill-45" fill="#071F2C"></path>
                    <path d="M1232.3196,105.4389 C1232.0886,106.0429 1231.0876,106.1079 1230.7696,106.6869 C1230.6186,106.9619 1230.6206,107.2379 1230.5386,107.5439 C1230.1376,109.0239 1230.3466,111.2909 1230.6356,112.7919 C1230.9056,114.1969 1231.5276,115.4669 1232.6286,116.4099 C1233.1826,116.8849 1233.8336,117.0679 1234.4136,117.4619 C1235.2376,118.0209 1235.6816,118.8189 1236.4396,119.4149 C1236.9396,119.8079 1237.6526,119.1059 1237.1466,118.7079 C1236.3076,118.0479 1235.8376,117.1719 1234.9186,116.5979 C1233.0656,115.4399 1231.9526,114.6099 1231.5716,112.2089 C1231.3226,110.6379 1231.1336,108.1849 1232.2236,106.8899 C1232.8766,106.1129 1232.9106,106.6809 1233.2836,105.7049 C1233.5136,105.1029 1232.5476,104.8429 1232.3196,105.4389" id="Fill-47" fill="#071F2C"></path>
                    <path d="M1242.3704,117.3803 C1246.4814,116.4773 1250.7894,115.8503 1254.8194,114.6383 C1257.5184,113.8263 1259.5604,111.3463 1261.4024,109.3173 C1263.1184,107.4263 1262.9274,105.6633 1261.7834,103.4843 C1260.5574,101.1493 1258.7524,100.6243 1256.2284,100.4293 C1255.5864,100.3793 1255.5894,101.3803 1256.2284,101.4293 C1257.9934,101.5663 1259.6224,101.8383 1260.6344,103.4593 C1261.5304,104.8933 1261.7794,106.7283 1260.9734,108.3213 C1260.5444,109.1683 1259.2914,110.0213 1258.6184,110.6933 C1257.8924,111.4173 1257.2034,112.2153 1256.3604,112.8063 C1254.4664,114.1343 1251.6604,114.3173 1249.4304,114.8073 L1242.1044,116.4163 C1241.4764,116.5533 1241.7424,117.5183 1242.3704,117.3803" id="Fill-49" fill="#071F2C"></path>
                    <path d="M1247.4006,119.6567 C1248.0826,117.6927 1249.5356,116.1787 1251.4346,115.3507 C1252.0226,115.0947 1251.5136,114.2317 1250.9296,114.4877 C1248.7906,115.4197 1247.1996,117.1937 1246.4366,119.3907 C1246.2246,119.9997 1247.1906,120.2617 1247.4006,119.6567" id="Fill-51" fill="#071F2C"></path>
                    <path d="M1236.6101,110.726 C1236.9061,113.278 1237.8901,115.555 1239.5601,117.51 C1239.9791,118 1240.6841,117.289 1240.2681,116.803 C1238.7841,115.067 1237.8731,112.996 1237.6101,110.726 C1237.5371,110.094 1236.5361,110.087 1236.6101,110.726" id="Fill-53" fill="#071F2C"></path>
                    <path d="M1234.8962,113.9057 C1235.1382,114.9177 1235.8492,115.6727 1236.8102,116.0427 C1237.4112,116.2737 1237.6712,115.3077 1237.0762,115.0787 C1236.4392,114.8337 1236.0162,114.2927 1235.8602,113.6397 C1235.7112,113.0147 1234.7472,113.2797 1234.8962,113.9057" id="Fill-55" fill="#071F2C"></path>
                    <path d="M1260.2493,109.518 C1260.1833,112.12 1260.3643,114.691 1260.7783,117.26 C1260.8803,117.893 1261.8443,117.624 1261.7423,116.994 C1261.3433,114.514 1261.1853,112.028 1261.2493,109.518 C1261.2663,108.874 1260.2663,108.874 1260.2493,109.518" id="Fill-57" fill="#071F2C"></path>
                    <path d="M1262.2478,97.1835 C1264.9008,103.4805 1263.5608,111.6815 1269.5698,116.2295 C1270.0828,116.6185 1270.5808,115.7505 1270.0748,115.3665 C1264.4178,111.0845 1265.7118,102.8515 1263.2118,96.9175 C1262.9658,96.3335 1261.9978,96.5905 1262.2478,97.1835" id="Fill-59" fill="#071F2C"></path>
                    <path d="M1262.8381,96.3652 C1265.3241,100.7632 1267.3771,105.3502 1268.9971,110.1362 C1269.2021,110.7422 1270.1691,110.4822 1269.9611,109.8702 C1268.3141,105.0022 1266.2301,100.3352 1263.7011,95.8612 C1263.3841,95.3002 1262.5201,95.8032 1262.8381,96.3652" id="Fill-61" fill="#071F2C"></path>
                    <path d="M1273.5735,102.3217 C1277.1445,104.1297 1280.9275,105.1927 1284.9255,105.4307 C1285.5685,105.4687 1285.5655,104.4687 1284.9255,104.4307 C1281.0945,104.2017 1277.4995,103.1907 1274.0775,101.4587 C1273.5055,101.1687 1272.9985,102.0307 1273.5735,102.3217" id="Fill-63" fill="#071F2C"></path>
                    <path d="M1263.3577,93.0219 C1264.7317,95.1289 1266.3697,97.0169 1268.2557,98.6809 C1268.7367,99.1049 1269.4467,98.3999 1268.9627,97.9739 C1267.1397,96.3649 1265.5497,94.5549 1264.2207,92.5169 C1263.8707,91.9799 1263.0047,92.4799 1263.3577,93.0219" id="Fill-65" fill="#071F2C"></path>
                    <path d="M1227.489,90.1127 C1230.321,91.3347 1233.54,91.4997 1236.583,91.6537 C1237.226,91.6857 1237.224,90.6857 1236.583,90.6537 C1233.727,90.5087 1230.655,90.3967 1227.994,89.2497 C1227.409,88.9967 1226.899,89.8587 1227.489,90.1127" id="Fill-67" fill="#071F2C"></path>
                    <path d="M1289.9158,50.9675 C1287.6798,48.8025 1285.1468,47.0415 1282.3318,45.7105 C1281.7528,45.4365 1281.2448,46.2985 1281.8278,46.5735 C1284.5658,47.8685 1287.0308,49.5665 1289.2078,51.6745 C1289.6708,52.1225 1290.3788,51.4165 1289.9158,50.9675" id="Fill-69" fill="#071F2C"></path>
                    <path d="M1289.9124,41.6193 C1288.6974,40.8693 1287.3864,40.3223 1285.9974,39.9883 C1285.3724,39.8373 1285.1054,40.8013 1285.7324,40.9523 C1287.0444,41.2683 1288.2594,41.7743 1289.4074,42.4833 C1289.9564,42.8223 1290.4594,41.9573 1289.9124,41.6193" id="Fill-71" fill="#071F2C"></path>
                    <path d="M1258.2664,111.3891 C1257.2294,113.5361 1256.6444,115.7991 1256.5184,118.1801 C1256.4854,118.8231 1257.4854,118.8211 1257.5184,118.1801 C1257.6354,115.9751 1258.1694,113.8821 1259.1304,111.8941 C1259.4094,111.3171 1258.5464,110.8091 1258.2664,111.3891" id="Fill-73" fill="#071F2C"></path>
                    <path d="M1255.967,124.2841 C1268.532,127.1061 1282.208,129.9491 1294.308,123.9321 C1294.885,123.6451 1294.379,122.7831 1293.804,123.0681 C1281.967,128.9541 1268.506,126.0761 1256.233,123.3201 C1255.606,123.1791 1255.339,124.1431 1255.967,124.2841" id="Fill-75" fill="#071F2C"></path>
                    <path d="M1238.6257,120.5536 C1242.7277,122.0576 1246.6687,124.0396 1251.1457,123.4046 C1251.7797,123.3146 1251.5097,122.3506 1250.8797,122.4406 C1246.6277,123.0436 1242.7657,121.0106 1238.8917,119.5896 C1238.2867,119.3666 1238.0257,120.3336 1238.6257,120.5536" id="Fill-77" fill="#071F2C"></path>
                    <path d="M1254.9084,105.1801 C1254.9794,106.8141 1255.0504,108.4481 1255.1204,110.0821 C1255.1484,110.7231 1256.1484,110.7261 1256.1204,110.0821 C1256.0504,108.4481 1255.9794,106.8141 1255.9084,105.1801 C1255.8814,104.5391 1254.8804,104.5351 1254.9084,105.1801" id="Fill-79" fill="#071F2C"></path>
                    <path d="M1253.1716,105.1825 C1253.0346,106.8165 1253.1806,108.4215 1253.5966,110.0065 C1253.7606,110.6285 1254.7256,110.3645 1254.5616,109.7405 C1254.1666,108.2375 1254.0426,106.7295 1254.1716,105.1825 C1254.2256,104.5405 1253.2256,104.5445 1253.1716,105.1825" id="Fill-81" fill="#071F2C"></path>
                    <path d="M1246.2542,61.5011 C1247.5382,62.2011 1248.8382,62.8681 1250.1642,63.4851 C1251.3982,64.0591 1253.0892,64.4731 1253.7632,65.7601 C1254.0622,66.3301 1254.9252,65.8251 1254.6272,65.2551 C1254.0012,64.0591 1252.8462,63.6031 1251.6672,63.0761 C1249.9972,62.3301 1248.3642,61.5131 1246.7582,60.6371 C1246.1932,60.3291 1245.6882,61.1921 1246.2542,61.5011" id="Fill-83" fill="#071F2C"></path>
                    <path d="M1244.5911,62.7975 C1245.2441,63.0575 1245.8001,63.4635 1246.2761,63.9775 C1246.7141,64.4515 1247.4201,63.7435 1246.9831,63.2705 C1246.3851,62.6235 1245.6731,62.1585 1244.8571,61.8335 C1244.2591,61.5955 1244.0001,62.5615 1244.5911,62.7975" id="Fill-85" fill="#071F2C"></path>
                    <path d="M1244.1711,65.3361 C1244.9421,65.6181 1245.6701,65.9831 1246.3651,66.4201 C1246.9121,66.7641 1247.4141,65.8991 1246.8701,65.5571 C1246.1011,65.0741 1245.2891,64.6841 1244.4371,64.3721 C1243.8321,64.1501 1243.5711,65.1161 1244.1711,65.3361" id="Fill-87" fill="#071F2C"></path>
                    <path d="M1310.4895,107.2055 C1310.3065,108.9755 1310.0935,110.7415 1309.8455,112.5045 C1309.7575,113.1335 1310.7205,113.4055 1310.8105,112.7695 C1311.0705,110.9195 1311.2975,109.0645 1311.4895,107.2055 C1311.5555,106.5655 1310.5545,106.5705 1310.4895,107.2055" id="Fill-89" fill="#071F2C"></path>
                    <path d="M1311.1917,92.1806 C1311.2087,95.3746 1311.1227,98.5636 1310.9347,101.7516 C1310.8967,102.3946 1311.8977,102.3926 1311.9347,101.7516 C1312.1227,98.5636 1312.2087,95.3746 1312.1917,92.1806 C1312.1887,91.5376 1311.1887,91.5356 1311.1917,92.1806" id="Fill-91" fill="#071F2C"></path>
                    <path d="M1315.1721,101.5702 C1314.9531,104.8542 1314.3341,108.0412 1313.3211,111.1712 C1313.1221,111.7842 1314.0881,112.0472 1314.2851,111.4362 C1315.3261,108.2192 1315.9471,104.9422 1316.1721,101.5702 C1316.2151,100.9272 1315.2141,100.9302 1315.1721,101.5702" id="Fill-93" fill="#071F2C"></path>
                    <path d="M1447.4607,117.4657 C1520.4787,116.3587 1593.4937,113.6877 1666.5287,114.8337 C1684.8937,115.1217 1703.2247,115.8637 1721.5937,115.4537 C1739.5707,115.0527 1757.4797,114.5707 1775.4447,115.6667 C1811.3577,117.8567 1847.0937,122.6477 1883.0917,123.4867 C1924.0667,124.4427 1965.0777,121.0117 2006.0147,123.9747 C2006.6567,124.0207 2006.6537,123.0207 2006.0147,122.9747 C1969.5067,120.3327 1932.9297,122.7657 1896.3837,122.6547 C1860.3107,122.5457 1824.5487,118.3137 1788.6277,115.5767 C1770.2747,114.1787 1752.0387,113.7157 1733.6397,114.1587 C1715.6407,114.5927 1697.7417,114.4847 1679.7457,114.0837 C1643.5947,113.2787 1607.4287,113.4877 1571.2757,114.0607 C1530.0017,114.7157 1488.7357,115.8397 1447.4607,116.4657 C1446.8177,116.4757 1446.8157,117.4757 1447.4607,117.4657" id="Fill-95" fill="#071F2C"></path>
                    <path d="M1294.3083,123.9321 C1301.8223,119.3001 1310.5593,118.0181 1319.2353,117.6231 C1328.3183,117.2101 1337.4513,117.1781 1346.5353,117.5411 C1366.4063,118.3361 1386.2003,118.7161 1406.0893,118.4201 C1417.2793,118.2531 1428.4663,117.9951 1439.6533,117.6891 C1440.2953,117.6711 1440.2973,116.6711 1439.6533,116.6891 C1419.2933,117.2461 1398.9183,117.7281 1378.5503,117.5611 C1359.0313,117.4021 1339.5773,115.8091 1320.0513,116.5881 C1310.9393,116.9531 1301.7043,118.1991 1293.8043,123.0681 C1293.2573,123.4061 1293.7583,124.2711 1294.3083,123.9321" id="Fill-97" fill="#071F2C"></path>
                    <path d="M1292.0544,120.3271 C1289.9864,118.0161 1286.8674,116.7431 1284.5124,114.7231 C1281.9084,112.4901 1279.7104,109.8811 1277.8684,106.9901 C1277.5234,106.4491 1276.6584,106.9501 1277.0054,107.4951 C1278.7414,110.2211 1280.7764,112.7151 1283.1824,114.8821 C1285.6814,117.1351 1289.1344,118.5611 1291.3464,121.0341 C1291.7774,121.5141 1292.4824,120.8061 1292.0544,120.3271" id="Fill-99" fill="#071F2C"></path>
                    <path d="M1278.8162,125.04 C1279.4252,123.901 1279.7392,122.671 1279.7412,121.379 C1279.7422,120.735 1278.7422,120.734 1278.7412,121.379 C1278.7392,122.498 1278.4812,123.548 1277.9522,124.535 C1277.6492,125.102 1278.5122,125.608 1278.8162,125.04" id="Fill-101" fill="#071F2C"></path>
                    <path d="M1288.6716,148.1908 C1283.9806,151.5868 1279.1486,154.7688 1274.1766,157.7388 C1273.6246,158.0678 1274.1276,158.9338 1274.6816,158.6028 C1279.6536,155.6318 1284.4846,152.4498 1289.1766,149.0548 C1289.6926,148.6808 1289.1946,147.8128 1288.6716,148.1908" id="Fill-103" fill="#071F2C"></path>
                    <path d="M1285.3479,141.8539 C1282.1239,145.4549 1278.1569,148.0959 1273.5809,149.6549 C1272.9749,149.8609 1273.2359,150.8269 1273.8469,150.6189 C1278.5859,149.0049 1282.7149,146.2909 1286.0549,142.5609 C1286.4829,142.0829 1285.7789,141.3729 1285.3479,141.8539" id="Fill-105" fill="#071F2C"></path>
                    <path d="M1380.7048,84.4789 C1461.0208,82.0919 1541.2938,78.4879 1621.5598,74.8319 C1661.6498,73.0059 1701.7378,70.9949 1741.8448,69.5769 C1781.8478,68.1619 1821.8688,67.3559 1861.8848,66.4469 C1906.8208,65.4259 1951.7588,64.2659 1996.6518,61.9939 C1997.2918,61.9619 1997.2958,60.9619 1996.6518,60.9939 C1916.6678,65.0409 1836.5688,65.5299 1756.5348,68.0829 C1676.2928,70.6439 1596.1068,75.1339 1515.8958,78.5189 C1470.8418,80.4199 1425.7798,82.1399 1380.7048,83.4789 C1380.0628,83.4979 1380.0598,84.4989 1380.7048,84.4789" id="Fill-107" fill="#071F2C"></path>
                    <path d="M1358.8767,85.183 C1363.9007,85.031 1368.9247,84.87 1373.9487,84.704 C1374.5907,84.683 1374.5937,83.683 1373.9487,83.704 C1368.9247,83.87 1363.9007,84.031 1358.8767,84.183 C1358.2347,84.203 1358.2317,85.203 1358.8767,85.183" id="Fill-109" fill="#071F2C"></path>
                    <path d="M1240.9246,74.5754 C1244.0136,75.0494 1246.7286,76.6254 1248.6056,79.1364 C1248.9856,79.6454 1249.8546,79.1474 1249.4686,78.6314 C1247.4366,75.9124 1244.5546,74.1274 1241.1906,73.6114 C1240.5606,73.5144 1240.2896,74.4784 1240.9246,74.5754" id="Fill-111" fill="#071F2C"></path>
                    <path d="M1247.8904,80.1308 C1247.4724,80.7968 1247.0544,81.4628 1246.6374,82.1288 C1246.2934,82.6748 1247.1584,83.1778 1247.5004,82.6328 C1247.9184,81.9678 1248.3354,81.3018 1248.7534,80.6358 C1249.0974,80.0888 1248.2324,79.5868 1247.8904,80.1308" id="Fill-113" fill="#071F2C"></path>
                    <path d="M1236.7449,83.4545 C1237.7249,84.9135 1239.2909,85.7775 1241.0529,85.8005 C1241.6969,85.8085 1241.6969,84.8085 1241.0529,84.8005 C1239.6559,84.7825 1238.3899,84.1125 1237.6079,82.9495 C1237.2509,82.4185 1236.3849,82.9185 1236.7449,83.4545" id="Fill-115" fill="#071F2C"></path>
                    <path d="M1266.9226,80.7607 C1268.2816,81.5247 1269.7056,82.1397 1271.1936,82.6087 C1271.8086,82.8027 1272.0716,81.8377 1271.4586,81.6447 C1270.0516,81.2007 1268.7136,80.6197 1267.4276,79.8967 C1266.8656,79.5817 1266.3606,80.4447 1266.9226,80.7607" id="Fill-117" fill="#071F2C"></path>
                    <path d="M1357.7224,99.5419 L1361.8214,99.5419 C1362.4644,99.5419 1362.4654,98.5419 1361.8214,98.5419 L1357.7224,98.5419 C1357.0784,98.5419 1357.0774,99.5419 1357.7224,99.5419" id="Fill-119" fill="#071F2C"></path>
                    <path d="M1382.3123,96.81 C1382.9563,96.81 1382.9573,95.81 1382.3123,95.81 C1381.6683,95.81 1381.6673,96.81 1382.3123,96.81" id="Fill-121" fill="#071F2C"></path>
                    <path d="M1493.9944,108.748 C1509.9974,108.62 1526.0004,108.837 1541.9944,109.4 C1542.6374,109.423 1542.6374,108.423 1541.9944,108.4 C1526.0004,107.837 1509.9974,107.62 1493.9944,107.748 C1493.3514,107.753 1493.3494,108.753 1493.9944,108.748" id="Fill-123" fill="#071F2C"></path>
                    <path d="M1530.9988,104.2631 C1535.9988,103.9301 1540.9988,103.5961 1545.9988,103.2631 C1546.6378,103.2211 1546.6428,102.2201 1545.9988,102.2631 C1540.9988,102.5961 1535.9988,102.9301 1530.9988,103.2631 C1530.3598,103.3051 1530.3548,104.3061 1530.9988,104.2631" id="Fill-125" fill="#071F2C"></path>
                    <path d="M1898.9988,76.2631 C1886.0448,77.6741 1873.0298,78.3411 1859.9988,78.2631 C1859.3548,78.2591 1859.3548,79.2591 1859.9988,79.2631 C1873.0298,79.3411 1886.0448,78.6741 1898.9988,77.2631 C1899.6318,77.1941 1899.6388,76.1931 1898.9988,76.2631" id="Fill-127" fill="#071F2C"></path>
                    <path d="M1855.9988,88.2631 L1844.9988,88.2631 C1844.3548,88.2631 1844.3538,89.2631 1844.9988,89.2631 L1855.9988,89.2631 C1856.6428,89.2631 1856.6438,88.2631 1855.9988,88.2631" id="Fill-129" fill="#071F2C"></path>
                    <path d="M1334.8879,116.5312 C1337.4859,111.8012 1339.0119,106.5822 1339.1999,101.1762 C1339.4119,95.0952 1337.7019,89.2632 1335.9079,83.5192 C1335.7159,82.9072 1334.7499,83.1682 1334.9429,83.7852 C1336.6239,89.1642 1338.2679,94.6292 1338.2189,100.3212 C1338.1709,105.8462 1336.6779,111.1952 1334.0249,116.0262 C1333.7149,116.5912 1334.5779,117.0962 1334.8879,116.5312" id="Fill-131" fill="#071F2C"></path>
                    <path d="M1322.9695,115.9511 C1325.0955,110.3281 1326.6225,104.4031 1326.5365,98.3521 C1326.4495,92.2881 1323.8985,86.9601 1322.7235,81.1141 C1322.5965,80.4841 1321.6335,80.7511 1321.7595,81.3801 C1322.9185,87.1461 1325.4445,92.3641 1325.5365,98.3521 C1325.6275,104.3161 1324.1005,110.1451 1322.0055,115.6851 C1321.7775,116.2871 1322.7435,116.5481 1322.9695,115.9511" id="Fill-133" fill="#071F2C"></path>
                    <path d="M1996.4734,61.8952 C2053.8924,66.2162 2111.0054,56.6852 2168.2914,54.5682 C2225.5784,52.4512 2282.8084,59.2772 2340.0894,56.5342 C2372.0764,55.0022 2403.8224,50.5422 2435.5064,46.0932 C2436.1414,46.0052 2435.8714,45.0412 2435.2414,45.1292 C2406.5764,49.1542 2377.8734,53.1812 2348.9704,55.0352 C2320.3664,56.8702 2291.7034,56.1712 2263.0834,55.1082 C2234.4594,54.0452 2205.8174,52.6652 2177.1654,53.3042 C2148.9224,53.9342 2120.7864,56.6472 2092.6404,58.8802 C2060.6594,61.4162 2028.5244,63.3072 1996.4734,60.8952 C1995.8314,60.8472 1995.8344,61.8472 1996.4734,61.8952" id="Fill-135" fill="#071F2C"></path>
                    <path d="M2006.092,123.9882 C2059.614,124.3522 2113.131,125.3042 2166.645,126.2882 C2219.955,127.2672 2273.266,128.2862 2326.584,128.7942 C2357.241,129.0852 2387.907,129.0392 2418.55,130.1472 C2419.194,130.1702 2419.193,129.1702 2418.55,129.1472 C2391.28,128.1612 2363.992,128.1082 2336.709,127.8842 C2310.029,127.6642 2283.349,127.3052 2256.672,126.8802 C2203.185,126.0282 2149.703,124.9082 2096.217,124.0592 C2066.176,123.5822 2036.135,123.1922 2006.092,122.9882 C2005.448,122.9842 2005.448,123.9842 2006.092,123.9882" id="Fill-137" fill="#071F2C"></path>
                    <path d="M2139.3738,114.3661 C2176.9078,112.8081 2214.4888,112.5631 2252.0408,113.6321 C2252.6848,113.6501 2252.6838,112.6501 2252.0408,112.6321 C2214.4888,111.5631 2176.9078,111.8081 2139.3738,113.3661 C2138.7318,113.3921 2138.7288,114.3931 2139.3738,114.3661" id="Fill-139" fill="#071F2C"></path>
                    <path d="M2291.8904,67.0719 C2300.7494,68.7769 2309.7444,69.0739 2318.6954,67.9289 C2319.3254,67.8489 2319.3324,66.8479 2318.6954,66.9289 C2309.8344,68.0619 2300.9304,67.7959 2292.1564,66.1079 C2291.5274,65.9869 2291.2584,66.9499 2291.8904,67.0719" id="Fill-141" fill="#071F2C"></path>
                    <path d="M2301.9016,73.6777 C2304.1406,74.2357 2306.4006,74.4587 2308.7056,74.3397 C2309.3456,74.3067 2309.3496,73.3057 2308.7056,73.3397 C2306.4896,73.4547 2304.3216,73.2507 2302.1676,72.7137 C2301.5426,72.5577 2301.2766,73.5217 2301.9016,73.6777" id="Fill-143" fill="#071F2C"></path>
                    <path d="M1202.5642,97.9648 C1202.5102,96.3028 1202.2822,94.5938 1201.9752,92.7578 C1201.6642,90.8938 1201.3362,89.0328 1201.0122,87.1718 C1200.9782,86.7008 1200.9162,86.2188 1200.7912,85.7148 C1200.7662,85.6178 1200.7362,85.5238 1200.7112,85.4268 C1200.1502,82.2318 1199.5812,79.0378 1199.0132,75.8448 C1198.0642,70.5068 1197.8772,61.8468 1194.6182,56.5048 C1194.2402,55.7768 1193.7362,55.1218 1193.1262,54.5468 C1191.8712,53.2408 1190.2872,52.3218 1188.2732,51.9658 C1187.2842,51.4888 1186.0982,51.2508 1184.7162,51.3458 C1183.5802,51.4238 1182.4442,51.5018 1181.3082,51.5798 C1179.9442,51.6738 1178.7842,52.0168 1177.8102,52.5298 C1177.2812,52.6668 1176.7432,52.8638 1176.2022,53.1288 C1159.1722,61.7018 1137.7252,61.7278 1119.1162,62.9978 C1097.9052,64.4468 1076.6602,65.3388 1055.4032,65.7248 C1054.7502,65.7368 1054.1482,65.8278 1053.5832,65.9658 C960.9482,61.6538 868.3132,57.3418 775.6782,53.0288 L688.9632,48.9918 C687.7802,48.9368 686.7452,49.1178 685.8532,49.4718 C675.9432,48.7128 665.9792,48.5288 656.0192,48.5248 C653.2122,48.5238 650.4062,48.5278 647.5992,48.5298 C595.4732,44.8498 543.0982,44.4448 491.1002,38.9558 C487.7712,38.3488 484.4452,37.7168 481.1272,37.0298 C479.5392,36.7018 478.1082,36.8438 476.8652,37.3088 C418.7532,32.7598 360.5912,28.6318 302.2592,29.7418 C271.7252,30.3228 241.2132,31.6948 210.6672,31.2258 C181.1362,30.7718 151.6442,29.0798 122.1622,27.4278 C88.0952,25.5188 54.0092,23.6958 19.8772,23.8158 C18.8442,23.8188 17.9792,24.0818 17.2772,24.5178 C15.8972,24.4778 14.5172,24.4488 13.1392,24.4368 C0.3512,24.3298 1.5692,36.9678 1.1782,46.4058 C0.2922,67.7988 -0.0818,89.2098 0.0152,110.6208 C0.0172,111.2208 0.0792,111.7818 0.1842,112.3118 C0.2932,116.2188 2.8582,120.0168 7.9002,119.9688 C136.4372,118.7358 264.9542,116.0658 393.4672,113.4098 C429.9492,112.6568 466.4302,111.9028 502.9112,111.1488 C503.5662,111.1348 504.1772,111.0568 504.7492,110.9228 C541.8552,112.5308 579.0012,113.1258 616.1402,112.6398 C636.5492,112.3738 656.9542,111.7888 677.3442,110.8868 C685.7462,110.5158 694.1692,110.1898 702.5672,109.6458 C703.0092,109.6918 703.4682,109.7148 703.9622,109.6838 C726.7712,108.2508 749.5892,106.9588 772.4142,105.7978 C799.3322,106.6008 826.2572,107.0478 853.1902,106.7198 C898.6402,106.1668 943.7972,102.0718 989.0862,98.8978 C991.5052,98.8668 993.9242,98.8298 996.3432,98.8018 C1009.5992,98.6498 1022.8562,98.5478 1036.1122,98.4898 C1054.6062,99.8818 1072.9532,100.7588 1091.5042,100.4068 C1094.5182,100.3488 1097.5092,100.3998 1100.4812,100.5428 C1101.3042,100.7518 1102.0992,101.2818 1102.9462,101.1988 C1127.7942,98.7588 1132.4092,111.7498 1145.6542,115.3728 C1160.3542,119.3948 1169.5482,119.3758 1186.2182,125.1908 C1193.1522,127.6108 1197.4382,118.6728 1194.7542,113.8748 C1195.0552,113.4698 1195.3242,113.0408 1195.5592,112.6018 C1195.5922,112.5728 1195.6152,112.5558 1195.6512,112.5248 C1196.1002,112.1818 1196.5452,111.8358 1196.9852,111.4838 C1197.9652,110.6008 1199.0112,109.5628 1199.6912,108.4048 C1199.7512,108.3038 1199.7992,108.1958 1199.8562,108.0928 C1202.7392,105.6778 1203.4922,101.7778 1202.5642,97.9648" id="Fill-145" fill="#EFECD3"></path>
                    <path d="M1202.2761,93.9111 C1204.2801,100.1901 1202.6751,107.9851 1195.4651,109.6891 C1194.8391,109.8371 1195.1041,110.8021 1195.7311,110.6531 C1203.4451,108.8301 1205.4141,100.4541 1203.2401,93.6451 C1203.0461,93.0341 1202.0801,93.2951 1202.2761,93.9111" id="Fill-147" fill="#071F2C"></path>
                    <path d="M1183.6477,50.9513 C1186.9957,50.9633 1191.4077,51.3683 1193.7767,54.0663 C1195.9747,56.5683 1195.6297,60.4163 1196.2577,63.4863 C1197.9367,71.6903 1200.2697,79.6723 1201.4547,87.9883 C1201.5447,88.6233 1202.5087,88.3533 1202.4187,87.7223 C1201.0517,78.1233 1198.0537,68.8653 1196.6667,59.3003 C1196.2477,56.4133 1195.5067,53.7223 1192.9247,52.0683 C1190.2287,50.3423 1186.7767,49.9623 1183.6477,49.9513 C1183.0037,49.9493 1183.0027,50.9493 1183.6477,50.9513" id="Fill-149" fill="#071F2C"></path>
                    <path d="M1181.4778,55.7145 C1178.6008,55.4385 1175.8488,55.6125 1173.2478,56.9615 C1172.6758,57.2575 1173.1808,58.1205 1173.7518,57.8245 C1176.1958,56.5575 1178.7908,56.4565 1181.4778,56.7145 C1182.1178,56.7765 1182.1138,55.7755 1181.4778,55.7145" id="Fill-151" fill="#071F2C"></path>
                    <path d="M1192.4871,112.891 C1196.9761,113.085 1197.7981,105.372 1198.2641,102.287 C1198.8371,98.501 1198.9461,94.791 1198.5021,90.977 C1198.0921,87.459 1197.2981,83.993 1197.0411,80.458 C1196.4931,72.925 1197.5661,57.247 1186.9561,56.296 C1186.3151,56.239 1186.3191,57.239 1186.9561,57.296 C1196.6771,58.167 1195.5421,73.604 1196.0411,80.458 C1196.5341,87.24 1198.4541,93.739 1197.5041,100.599 C1197.1171,103.398 1196.5001,112.064 1192.4871,111.891 C1191.8441,111.863 1191.8451,112.863 1192.4871,112.891" id="Fill-153" fill="#071F2C"></path>
                    <path d="M1190.2683,81.4804 C1190.5393,86.7244 1190.5993,91.7534 1190.0193,96.9864 C1189.9493,97.6254 1190.9493,97.6204 1191.0193,96.9864 C1191.5993,91.7544 1191.5393,86.7244 1191.2683,81.4804 C1191.2353,80.8404 1190.2353,80.8364 1190.2683,81.4804" id="Fill-155" fill="#071F2C"></path>
                    <path d="M1113.2219,100.9482 C1126.6939,102.0402 1140.6289,104.8672 1153.6509,99.7802 C1154.2439,99.5482 1153.9859,98.5802 1153.3859,98.8152 C1140.4479,103.8702 1126.6019,101.0322 1113.2219,99.9482 C1112.5799,99.8962 1112.5839,100.8962 1113.2219,100.9482" id="Fill-157" fill="#071F2C"></path>
                    <path d="M1165.6628,93.2089 C1168.3278,92.1149 1171.3938,92.2159 1174.1618,91.3839 C1176.5978,90.6509 1178.7198,89.4069 1180.7278,87.8559 C1181.2298,87.4689 1180.7328,86.5999 1180.2238,86.9929 C1178.0938,88.6369 1175.8758,89.9019 1173.2578,90.5979 C1170.6848,91.2809 1167.8618,91.2329 1165.3968,92.2449 C1164.8098,92.4859 1165.0668,93.4539 1165.6628,93.2089" id="Fill-159" fill="#071F2C"></path>
                    <path d="M1171.8762,91.5527 C1172.1502,92.1657 1171.9172,92.8497 1172.2092,93.4647 C1172.6222,94.3287 1173.7022,94.9547 1174.4062,95.5347 C1176.1122,96.9387 1177.8652,98.2827 1179.6522,99.5807 C1180.1742,99.9597 1180.6732,99.0927 1180.1572,98.7177 C1178.5152,97.5257 1176.9022,96.2927 1175.3322,95.0077 C1174.5842,94.3947 1173.7552,93.8607 1173.3092,92.9947 C1172.9772,92.3537 1173.0342,91.7057 1172.7392,91.0487 C1172.4772,90.4617 1171.6152,90.9697 1171.8762,91.5527" id="Fill-161" fill="#071F2C"></path>
                    <path d="M1172.5979,91.9399 C1173.9789,93.0319 1175.5469,93.6599 1177.3029,93.8069 C1177.9439,93.8609 1177.9409,92.8609 1177.3029,92.8069 C1175.8349,92.6839 1174.4619,92.1479 1173.3049,91.2329 C1172.8059,90.8379 1172.0929,91.5409 1172.5979,91.9399" id="Fill-163" fill="#071F2C"></path>
                    <path d="M1172.2883,93.5385 C1170.0643,95.5515 1168.3483,98.0295 1167.4683,100.9115 C1167.2793,101.5285 1168.2443,101.7925 1168.4323,101.1775 C1169.2633,98.4555 1170.8973,96.1445 1172.9953,94.2455 C1173.4733,93.8125 1172.7643,93.1075 1172.2883,93.5385" id="Fill-165" fill="#071F2C"></path>
                    <path d="M1172.3059,93.8818 C1170.1639,92.7558 1167.4959,92.2478 1165.0909,92.5488 C1164.4609,92.6278 1164.4529,93.6288 1165.0909,93.5488 C1167.3269,93.2688 1169.8039,93.6948 1171.8019,94.7458 C1172.3699,95.0448 1172.8769,94.1818 1172.3059,93.8818" id="Fill-167" fill="#071F2C"></path>
                    <path d="M1162.0149,95.1098 C1160.1209,96.7008 1158.2999,100.6758 1160.2549,102.8958 C1160.7329,103.4378 1161.3099,103.6128 1161.9849,103.7978 C1163.4179,104.1928 1164.7439,104.4218 1166.0749,105.1778 C1167.8869,106.2098 1169.2439,107.7248 1171.3899,108.0538 C1173.8619,108.4338 1176.6199,107.8198 1179.0939,107.6048 C1181.2649,107.4158 1184.5749,107.7338 1186.5669,106.7268 C1189.5369,105.2258 1190.7069,99.9238 1191.0199,96.9858 C1191.0879,96.3468 1190.0869,96.3518 1190.0199,96.9858 C1189.8269,98.8008 1189.4069,100.5608 1188.6399,102.2228 C1187.6989,104.2618 1186.8119,105.7408 1184.4309,106.1408 C1181.1209,106.6958 1177.5899,106.7828 1174.2419,107.0268 C1172.1819,107.1768 1170.5829,107.0188 1168.8079,105.8678 C1167.6849,105.1388 1166.7099,104.2898 1165.4719,103.7378 C1164.9269,103.4948 1164.3559,103.2958 1163.7809,103.1388 C1162.4329,102.7728 1162.3779,103.0108 1161.3919,101.6438 C1160.4879,100.3878 1160.4079,99.8758 1160.8609,98.4288 C1161.1959,97.3548 1161.8709,96.5318 1162.7219,95.8168 C1163.2149,95.4018 1162.5049,94.6978 1162.0149,95.1098" id="Fill-169" fill="#071F2C"></path>
                    <path d="M1167.5251,106.1586 C1168.6011,107.4376 1169.1071,108.8866 1169.7121,110.4126 C1169.9761,111.0776 1170.2111,111.9546 1170.8281,112.3976 C1172.1671,113.3566 1175.0131,113.1686 1176.5511,113.3106 C1181.9281,113.8076 1187.4101,113.9696 1192.7631,113.1486 C1193.3971,113.0516 1193.1281,112.0876 1192.4971,112.1836 C1187.7711,112.9096 1182.9271,112.8056 1178.1711,112.4466 C1177.1061,112.3666 1176.0411,112.2676 1174.9791,112.1526 C1173.1371,111.9526 1171.7651,111.9386 1170.6761,110.1476 C1169.7261,108.5826 1169.4581,106.9096 1168.2321,105.4516 C1167.8171,104.9586 1167.1131,105.6686 1167.5251,106.1586" id="Fill-171" fill="#071F2C"></path>
                    <path d="M1153.5798,115.0502 C1164.9328,116.0052 1174.7918,122.8652 1186.1128,124.2842 C1189.8528,124.7542 1193.8308,124.6552 1195.9548,121.0292 C1197.9798,117.5682 1196.2078,113.9462 1192.8828,112.2352 C1192.3108,111.9412 1191.8048,112.8032 1192.3778,113.0982 C1194.6888,114.2872 1196.4118,116.4792 1195.6538,119.2132 C1195.0128,121.5232 1193.0148,123.0802 1190.7118,123.3922 C1187.0898,123.8832 1183.2658,122.8762 1179.7768,121.9752 C1170.9118,119.6862 1162.8278,114.8272 1153.5798,114.0502 C1152.9388,113.9962 1152.9418,114.9962 1153.5798,115.0502" id="Fill-173" fill="#071F2C"></path>
                    <path d="M1116.2131,101.4174 C1127.4091,105.0824 1136.3881,114.7824 1148.6901,114.9594 C1149.3341,114.9694 1149.3341,113.9694 1148.6901,113.9594 C1136.5541,113.7854 1127.5511,104.0774 1116.4791,100.4534 C1115.8661,100.2524 1115.6031,101.2174 1116.2131,101.4174" id="Fill-175" fill="#071F2C"></path>
                    <path d="M1128.7981,96.6547 C1130.4781,92.6077 1131.3181,88.4317 1131.3531,84.0537 C1131.3581,83.4107 1130.3581,83.4097 1130.3531,84.0537 C1130.3191,88.3417 1129.4751,92.4337 1127.8341,96.3887 C1127.5871,96.9827 1128.5541,97.2417 1128.7981,96.6547" id="Fill-177" fill="#071F2C"></path>
                    <path d="M1074.5344,99.7587 C1085.7984,99.8677 1097.0524,100.3527 1108.2834,101.2137 C1108.9254,101.2627 1108.9224,100.2627 1108.2834,100.2137 C1097.0524,99.3527 1085.7984,98.8677 1074.5344,98.7587 C1073.8904,98.7527 1073.8904,99.7527 1074.5344,99.7587" id="Fill-179" fill="#071F2C"></path>
                    <path d="M1080.0276,65.258 C1088.7966,65.122 1097.5476,64.508 1106.3006,64.009 C1114.9126,63.518 1123.6286,63.712 1132.1936,62.663 C1140.5346,61.64 1148.7176,59.668 1157.0106,58.344 C1160.8526,57.731 1164.8096,57.476 1168.4446,55.988 C1172.4896,54.332 1176.0106,51.485 1180.4756,50.999 C1181.1086,50.93 1181.1156,49.929 1180.4756,49.999 C1176.8876,50.39 1173.9466,52.12 1170.8016,53.757 C1166.8656,55.807 1162.9396,56.455 1158.6126,57.093 C1149.7686,58.396 1141.0706,60.573 1132.1936,61.663 C1123.6286,62.714 1114.9126,62.518 1106.3006,63.009 C1097.5476,63.508 1088.7966,64.122 1080.0276,64.258 C1079.3846,64.268 1079.3826,65.268 1080.0276,65.258" id="Fill-181" fill="#071F2C"></path>
                    <path d="M1173.9612,34.0302 C1171.1102,34.8832 1168.7232,36.5652 1166.9302,38.9352 C1166.5422,39.4492 1167.4102,39.9472 1167.7942,39.4402 C1169.4202,37.2882 1171.6472,35.7662 1174.2272,34.9942 C1174.8422,34.8102 1174.5802,33.8452 1173.9612,34.0302" id="Fill-183" fill="#071F2C"></path>
                    <path d="M1165.3904,33.5895 C1164.5544,34.1115 1163.7184,34.6335 1162.8834,35.1555 C1162.3384,35.4955 1162.8394,36.3615 1163.3874,36.0185 C1164.2234,35.4965 1165.0594,34.9745 1165.8944,34.4535 C1166.4394,34.1125 1165.9384,33.2475 1165.3904,33.5895" id="Fill-185" fill="#071F2C"></path>
                    <path d="M1148.3772,131.3432 C1150.7362,133.8162 1153.4232,135.8882 1156.4142,137.5432 C1156.9782,137.8552 1157.4822,136.9922 1156.9192,136.6802 C1154.0012,135.0652 1151.3872,133.0492 1149.0842,130.6362 C1148.6392,130.1702 1147.9332,130.8772 1148.3772,131.3432" id="Fill-187" fill="#071F2C"></path>
                    <path d="M1157.5466,133.9174 C1158.7936,134.7324 1160.1746,135.1884 1161.6566,135.3134 C1162.2986,135.3664 1162.2946,134.3664 1161.6566,134.3134 C1160.3496,134.2034 1159.1486,133.7714 1158.0516,133.0544 C1157.5116,132.7004 1157.0096,133.5664 1157.5466,133.9174" id="Fill-189" fill="#071F2C"></path>
                    <path d="M1194.5193,108.2035 C1193.3233,108.0785 1192.2813,107.4935 1191.4993,106.5895 C1191.0773,106.1025 1190.3733,106.8125 1190.7923,107.2965 C1191.7553,108.4095 1193.0623,109.0505 1194.5193,109.2035 C1195.1583,109.2705 1195.1533,108.2705 1194.5193,108.2035" id="Fill-191" fill="#071F2C"></path>
                    <path d="M1192.7893,110.5278 C1191.8123,109.7648 1190.8353,109.0018 1189.8583,108.2388 C1189.3573,107.8468 1188.6443,108.5498 1189.1513,108.9458 C1190.1283,109.7088 1191.1053,110.4718 1192.0823,111.2348 C1192.5833,111.6268 1193.2963,110.9238 1192.7893,110.5278" id="Fill-193" fill="#071F2C"></path>
                    <path d="M1202.5369,101.3583 C1201.4909,101.5663 1200.4439,101.7743 1199.3969,101.9823 C1198.7659,102.1073 1199.0329,103.0713 1199.6619,102.9463 C1200.7089,102.7383 1201.7559,102.5303 1202.8029,102.3223 C1203.4339,102.1973 1203.1669,101.2333 1202.5369,101.3583" id="Fill-195" fill="#071F2C"></path>
                    <path d="M1173.324,113.7489 C1172.598,114.5409 1171.994,115.4219 1171.533,116.3929 C1171.259,116.9709 1172.12,117.4789 1172.397,116.8979 C1172.822,116.0029 1173.362,115.1869 1174.031,114.4559 C1174.465,113.9819 1173.76,113.2729 1173.324,113.7489" id="Fill-197" fill="#071F2C"></path>
                    <path d="M1170.4319,113.2392 C1169.7529,113.8062 1169.2689,114.5092 1168.9269,115.3202 C1168.6779,115.9122 1169.6449,116.1712 1169.8909,115.5862 C1170.1649,114.9372 1170.6019,114.3952 1171.1389,113.9462 C1171.6339,113.5332 1170.9229,112.8292 1170.4319,113.2392" id="Fill-199" fill="#071F2C"></path>
                    <path d="M1159.4417,96.9267 C1157.1967,98.9817 1155.2727,101.2707 1153.6247,103.8297 C1153.2747,104.3717 1154.1407,104.8737 1154.4877,104.3337 C1156.0907,101.8447 1157.9657,99.6317 1160.1497,97.6337 C1160.6247,97.1977 1159.9167,96.4927 1159.4417,96.9267" id="Fill-201" fill="#071F2C"></path>
                    <path d="M1071.4207,64.3605 C994.2247,64.0735 917.1027,60.3045 840.0397,56.0595 C763.3047,51.8325 686.5787,47.8775 609.7987,44.5705 C588.3097,43.6445 566.8197,42.7305 545.3357,41.7125 C523.9647,40.7005 502.5697,39.3805 481.4627,35.7165 C480.8327,35.6075 480.5627,36.5705 481.1957,36.6805 C499.7417,39.9005 518.5177,41.3365 537.2987,42.3155 C556.3637,43.3095 575.4417,44.0815 594.5147,44.9095 C632.9197,46.5765 671.3277,48.1765 709.7247,50.0255 C786.8347,53.7405 863.8717,58.8395 941.0037,62.1025 C984.4527,63.9405 1027.9307,65.1985 1071.4207,65.3605 C1072.0647,65.3625 1072.0647,64.3625 1071.4207,64.3605" id="Fill-203" fill="#071F2C"></path>
                    <path d="M1074.5344,98.7587 C1056.8674,98.5297 1039.2004,98.6797 1021.5324,98.5597 C1002.4284,98.4287 983.3144,97.8587 964.2234,98.8767 C945.1264,99.8947 926.1654,101.7407 907.0264,102.0317 C887.7764,102.3237 868.5354,102.8257 849.2914,103.3947 C830.0604,103.9637 810.8474,104.3387 791.6074,104.3887 C772.4264,104.4397 753.2214,104.5067 734.0814,105.9157 C695.3414,108.7657 656.6434,111.1397 617.7934,111.8517 C574.2944,112.6497 530.7724,111.8337 487.3324,109.4427 C486.6894,109.4077 486.6914,110.4077 487.3324,110.4427 C564.9054,114.7117 642.7444,113.9217 720.2104,108.0097 C739.3964,106.5467 758.4974,105.5867 777.7444,105.4477 C796.9774,105.3087 816.1984,105.3437 835.4264,104.7987 C854.6844,104.2527 873.9404,103.6127 893.2034,103.2497 C912.3664,102.8867 931.3784,102.2857 950.4934,100.8087 C971.9534,99.1497 993.3514,99.2637 1014.8564,99.5007 C1034.7484,99.7197 1054.6424,99.5007 1074.5344,99.7587 C1075.1784,99.7667 1075.1784,98.7667 1074.5344,98.7587" id="Fill-205" fill="#071F2C"></path>
                    <path d="M1189.0496,67.9342 C1188.7936,65.6542 1187.4486,63.6802 1185.3566,62.7002 C1184.7766,62.4292 1184.2686,63.2912 1184.8516,63.5642 C1186.6046,64.3842 1187.8316,65.9942 1188.0496,67.9342 C1188.1206,68.5662 1189.1216,68.5742 1189.0496,67.9342" id="Fill-207" fill="#071F2C"></path>
                    <path d="M1182.8167,61.9255 C1180.0727,61.7995 1177.3617,61.9645 1174.6507,62.4025 C1174.0167,62.5045 1174.2857,63.4685 1174.9167,63.3665 C1177.5387,62.9435 1180.1637,62.8035 1182.8167,62.9255 C1183.4597,62.9555 1183.4587,61.9555 1182.8167,61.9255" id="Fill-209" fill="#071F2C"></path>
                    <path d="M1168.2244,62.6318 C1166.8474,63.0908 1165.4704,63.5498 1164.0934,64.0088 C1163.4854,64.2118 1163.7454,65.1778 1164.3584,64.9738 C1165.7364,64.5148 1167.1134,64.0548 1168.4904,63.5958 C1169.0974,63.3938 1168.8374,62.4278 1168.2244,62.6318" id="Fill-211" fill="#071F2C"></path>
                    <path d="M1132.8967,97.4257 C1134.2897,96.0317 1135.4747,94.4697 1136.4387,92.7507 C1136.7547,92.1887 1135.8917,91.6847 1135.5757,92.2457 C1134.6517,93.8927 1133.5237,95.3827 1132.1887,96.7187 C1131.7337,97.1747 1132.4407,97.8817 1132.8967,97.4257" id="Fill-213" fill="#071F2C"></path>
                    <path d="M1138.7498,88.9467 C1138.8268,88.6407 1138.9038,88.3347 1138.9798,88.0297 C1139.1368,87.4047 1138.1728,87.1387 1138.0158,87.7627 C1137.9388,88.0697 1137.8618,88.3747 1137.7858,88.6807 C1137.6288,89.3047 1138.5928,89.5717 1138.7498,88.9467" id="Fill-215" fill="#071F2C"></path>
                    <path d="M1140.9568,97.6845 C1142.8938,95.8735 1144.4528,93.7545 1145.5998,91.3635 C1145.8768,90.7865 1145.0148,90.2785 1144.7368,90.8585 C1143.6238,93.1775 1142.1288,95.2205 1140.2498,96.9775 C1139.7788,97.4175 1140.4868,98.1235 1140.9568,97.6845" id="Fill-217" fill="#071F2C"></path>
                    <path d="M1146.5764,87.8051 C1146.9584,86.5811 1147.3414,85.3571 1147.7234,84.1331 C1147.9164,83.5171 1146.9514,83.2541 1146.7594,83.8671 C1146.3774,85.0911 1145.9944,86.3151 1145.6124,87.5391 C1145.4194,88.1551 1146.3844,88.4181 1146.5764,87.8051" id="Fill-219" fill="#071F2C"></path>
                    <path d="M1147.8362,96.0712 C1148.4842,95.4472 1148.9202,94.6552 1149.0822,93.7692 C1149.1982,93.1402 1148.2342,92.8702 1148.1182,93.5042 C1147.9842,94.2342 1147.6642,94.8482 1147.1292,95.3642 C1146.6642,95.8112 1147.3722,96.5172 1147.8362,96.0712" id="Fill-221" fill="#071F2C"></path>
                    <path d="M1185.2058,84.6576 C1184.2608,84.9846 1183.4228,85.4876 1182.6958,86.1746 C1182.2268,86.6166 1182.9348,87.3236 1183.4028,86.8816 C1184.0018,86.3156 1184.6918,85.8916 1185.4718,85.6216 C1186.0758,85.4126 1185.8158,84.4466 1185.2058,84.6576" id="Fill-223" fill="#071F2C"></path>
                    <path d="M1030.5745,76.966 C1027.3865,76.511 1024.1995,76.055 1021.0125,75.6 C1020.3825,75.51 1020.1105,76.473 1020.7465,76.564 C1023.9335,77.019 1027.1215,77.475 1030.3085,77.93 C1030.9385,78.02 1031.2105,77.057 1030.5745,76.966" id="Fill-225" fill="#071F2C"></path>
                    <path d="M538.3611,100.266 C554.3611,100.933 570.3611,101.599 586.3611,102.266 C587.0051,102.293 587.0041,101.293 586.3611,101.266 C570.3611,100.599 554.3611,99.933 538.3611,99.266 C537.7181,99.239 537.7191,100.239 538.3611,100.266" id="Fill-227" fill="#071F2C"></path>
                    <path d="M616.3636,97.2099 C617.0076,97.2099 617.0086,96.2099 616.3636,96.2099 C615.7206,96.2099 615.7186,97.2099 616.3636,97.2099" id="Fill-229" fill="#071F2C"></path>
                    <path d="M802.4969,69.2277 C800.8299,68.8947 799.1639,68.5607 797.4969,68.2277 C796.8679,68.1017 796.5999,69.0657 797.2309,69.1917 C798.8969,69.5257 800.5639,69.8587 802.2309,70.1917 C802.8589,70.3177 803.1279,69.3537 802.4969,69.2277" id="Fill-231" fill="#071F2C"></path>
                    <path d="M835.616,72.278 L829.616,69.278 C829.042,68.991 828.535,69.853 829.111,70.142 L835.111,73.142 C835.685,73.428 836.192,72.566 835.616,72.278" id="Fill-233" fill="#071F2C"></path>
                    <path d="M5.3694,122.3647 C68.8514,117.3347 132.5454,115.9227 196.2044,115.4067 C258.6184,114.9017 321.0104,114.7367 383.4144,113.3137 C418.0704,112.5227 452.7224,111.5527 487.3724,110.5607 C488.0154,110.5427 488.0174,109.5427 487.3724,109.5607 C425.6104,111.3287 363.8414,113.0377 302.0564,113.7587 C238.9164,114.4957 175.7704,114.0197 112.6444,115.8197 C76.8494,116.8407 41.0694,118.5357 5.3694,121.3647 C4.7314,121.4157 4.7264,122.4157 5.3694,122.3647" id="Fill-235" fill="#071F2C"></path>
                    <path d="M5.1419,21.3009 C42.5229,22.7159 79.8899,24.4649 117.2579,26.1849 C150.1669,27.6999 183.0819,29.1039 216.0159,29.9849 C248.6559,30.8579 281.3099,31.2899 313.9619,31.2399 C339.0339,31.2019 364.1119,31.1339 389.1799,31.6499 C399.3579,31.8599 409.5819,32.0399 419.7279,32.9439 C426.6419,33.5599 433.5089,34.4109 440.4469,34.7989 C449.6169,35.3109 458.7989,35.5099 467.9729,35.9269 C471.8919,36.1049 475.8089,36.3299 479.7169,36.6859 C480.3569,36.7439 480.3529,35.7439 479.7169,35.6859 C462.0169,34.0719 444.1859,34.6219 426.5019,32.7009 C416.9729,31.6659 407.4699,31.1369 397.8849,30.8629 C372.4309,30.1329 346.9529,30.1919 321.4899,30.2279 C290.6719,30.2719 259.8569,30.0159 229.0469,29.3089 C195.7229,28.5449 162.4169,27.2329 129.1199,25.7269 C93.0039,24.0939 56.8939,22.3459 20.7689,20.9069 C15.5599,20.6999 10.3509,20.4979 5.1419,20.3009 C4.4979,20.2769 4.4989,21.2769 5.1419,21.3009" id="Fill-237" fill="#071F2C"></path>
                    <path d="M69.7171,39.9745 C98.8461,41.6665 127.9751,43.3585 157.1041,45.0495 C157.7471,45.0875 157.7451,44.0875 157.1041,44.0495 C127.9751,42.3585 98.8461,40.6665 69.7171,38.9745 C69.0741,38.9375 69.0761,39.9375 69.7171,39.9745" id="Fill-239" fill="#071F2C"></path>
                    <path d="M150.4041,53.6232 L166.4041,53.6232 C167.0481,53.6232 167.0491,52.6232 166.4041,52.6232 L150.4041,52.6232 C149.7601,52.6232 149.7591,53.6232 150.4041,53.6232" id="Fill-241" fill="#071F2C"></path>
                    <path d="M466.8157,46.0197 C464.8057,47.1127 462.7957,48.2057 460.7857,49.2987 C460.2207,49.6057 460.7247,50.4697 461.2907,50.1617 C463.3007,49.0687 465.3107,47.9757 467.3207,46.8837 C467.8857,46.5757 467.3817,45.7117 466.8157,46.0197" id="Fill-243" fill="#071F2C"></path>
                    <path d="M450.3919,102.9203 C429.2679,102.0713 408.1149,102.5923 387.0579,104.4813 C386.4219,104.5383 386.4159,105.5383 387.0579,105.4813 C408.1149,103.5923 429.2679,103.0713 450.3919,103.9203 C451.0359,103.9463 451.0349,102.9463 450.3919,102.9203" id="Fill-245" fill="#071F2C"></path>
                    <path d="M1223.6746,26.444 C1224.9596,19.318 1226.4816,12.242 1228.2386,5.217 C1228.3946,4.593 1227.4306,4.326 1227.2746,4.951 C1225.5166,11.976 1223.9956,19.052 1222.7106,26.178 C1222.5966,26.807 1223.5606,27.077 1223.6746,26.444" id="Fill-247" fill="#071F2C"></path>
                    <path d="M1212.658,20.1108 C1210.342,13.1798 1207.251,6.5798 1203.4,0.3688 C1203.061,-0.1772 1202.196,0.3238 1202.536,0.8728 C1206.343,7.0128 1209.404,13.5248 1211.694,20.3768 C1211.897,20.9838 1212.863,20.7238 1212.658,20.1108" id="Fill-249" fill="#071F2C"></path>
                    <path d="M1198.2566,24.5839 C1195.1666,21.5609 1192.0766,18.5379 1188.9866,15.5139 C1188.5266,15.0639 1187.8186,15.7699 1188.2796,16.2209 L1197.5496,25.2909 C1198.0096,25.7409 1198.7176,25.0349 1198.2566,24.5839" id="Fill-251" fill="#071F2C"></path>
                    <g id="Group-255" transform="translate(1230.000000, 140.000000)" fill="#071F2C">
                        <path d="M0.7615,0.7406 C2.9905,9.2716 4.7325,17.9096 5.9855,26.6376 C6.0765,27.2726 7.0405,27.0026 6.9495,26.3716 C5.6975,17.6436 3.9545,9.0056 1.7255,0.4746 C1.5635,-0.1474 0.5985,0.1166 0.7615,0.7406" id="Fill-253"></path>
                    </g>
                    <path d="M1218.0491,148.1615 C1217.6661,152.2765 1217.2821,156.3905 1216.8991,160.5055 C1216.8391,161.1455 1217.8401,161.1415 1217.8991,160.5055 C1218.2821,156.3905 1218.6661,152.2765 1219.0491,148.1615 C1219.1091,147.5215 1218.1091,147.5255 1218.0491,148.1615" id="Fill-256" fill="#071F2C"></path>
                    <path d="M1205.907,147.9169 C1203.619,152.9109 1201.603,158.0109 1199.863,163.2219 C1199.658,163.8339 1200.624,164.0959 1200.827,163.4879 C1202.54,158.3579 1204.518,153.3379 1206.77,148.4209 C1207.036,147.8399 1206.175,147.3319 1205.907,147.9169" id="Fill-258" fill="#071F2C"></path>
                </g>
            </g>
        </g>
    </g>
</svg>