<svg xmlns="http://www.w3.org/2000/svg" xmlns:xlink="http://www.w3.org/1999/xlink" width="1199" height="413" viewBox="0 0 1199 413">
    <defs>
        <path id="a" d="M0 .739V99h1001.368V.739H0z"/>
        <path id="c" d="M.931.848H35.65v7.761H.93V.848z"/>
    </defs>
    <g fill="none" fill-rule="evenodd">
        <path fill="#E35205" d="M235.227 186.417c-3.37-.316-6.738-.64-10.108-.949-2.778-.255-6.368-.923-9.03.262-2.967 1.32-3.17 4.87-2.622 8.263-.07.225-.123.463-.147.723a182.005 182.005 0 0 0-.787 15.077 3.49 3.49 0 0 0 .09.811c-.066.66-.12 1.318-.196 1.977-.189 1.626 1.527 2.984 3 3l17.918.194c1.581.017 3.054-1.388 3-3-.258-7.605.302-15.089 1.775-22.56.402-2.042-.86-3.607-2.893-3.798"/>
        <path fill="#D1CCB2" d="M401.93 179.048c-1.019.98-3.21 1.41-5.34 1.631a3.028 3.028 0 0 0-1.309-.242 269.61 269.61 0 0 0-14.158.742c-6.32-.186-12.627-.735-18.95-.889-3.326-.08-8.728-.814-12.552.374a12.173 12.173 0 0 0-1.003-.624c-2.475-1.367-4.795.878-4.407 3.388.253 1.633.56 3.247.887 4.855l-.829 21.981c-.062 1.628 1.424 2.99 3 3 18.18.112 36.348-.42 54.491-1.598 1.213-.079 2.664-.867 2.893-2.203 1.398-8.18 1.767-16.313.984-24.568.304-.74.637-1.477 1.005-2.21 1.495-2.99-2.17-6.076-4.712-3.637"/>
        <path fill="#EFECD3" d="M329.582 17.812c.486-.163.87-.413 1.178-.712 3.156-.012 6.385.44 9.493.564 2.448.096 4.633.865 6.822 1.669.195.263.437.508.745.723.496.347-.858 1.476-1.07 1.66-.715.618-1.336.9-2.144 1.05a191.245 191.245 0 0 1-6.599-.915 167.59 167.59 0 0 1-5.029-.863l-1.672-.315c-1.685.074-2.26-.88-1.724-2.861m39.061-7.765c-10.964 2.138-23.002-1.702-33.806-3.634-3.642-.653-6.952-1.244-10.573-.122-1.63.504-3.165 1.097-4.674 1.67-2.62.042-5.105.466-7.677 1.316-.416.138-.77.35-1.07.607-.954.126-1.91.243-2.87.343-3.193.329-3.74 3.969-1.628 5.422-1.17 6.833-.876 13.428-.237 20.18a3.262 3.262 0 0 0-.204.874c-.344 4.217.45 8.28.302 12.469-.155 4.369-.808 8.805-2.045 12.994-.612 2.075 1.516 4.479 3.691 3.69 4.138-1.5 8.701-.807 12.98-1.638.31-.06.597-.148.891-.23 2.934.329 6.071.356 8.017-1.164 1.407-1.1 2.326-2.99 3.037-5.022 2.497-4.052 2.87-8.608 3.462-13.18.22-.278.394-.608.5-.996.292-1.087.468-2.113.556-3.164.171-.63.39-1.234.633-1.828.087-.054.173-.095.26-.163 3.463-2.667 7.17.242 10.943-.403 1.826-.312 4.453-1.97 6.012-2.875.784-.456 1.195-.9 1.83-1.472 1.68-1.513.032-1.31 3.174-1.44 3.333-.14 5.782-2.322 8.887-2.427 1.958-.066 3.397-1.862 2.893-3.798-1.105-4.247-.943-8.147.406-12.318.754-2.33-1.578-4.103-3.69-3.691"/>
        <path fill="#D1CCB2" d="M300.704 77.025a28.763 28.763 0 0 1 1.902-.24c2.546-.256 5.132-.074 7.683-.212 1.329-.071 2.932-.465 4.226-.06 1.795-.345 2.137.268 1.03 1.838.154 1.216-.238 1.82-1.173 1.816-.781.443-1.928.66-3.185.768l-.457.01c-3.233-.355-6.47-.734-9.712-1.016a2.663 2.663 0 0 0-.424-1.022l-.08-1.004c.12-.311.168-.6.19-.878m43.36 85.738c.147-.35.221-.738.172-1.166-.034-.304-.07-.61-.106-.915.752-.651 1.188-1.651.867-2.9-1.78-6.942-3.357-15.094-3.213-22.228.151-7.485 2.62-14.781 2.553-22.2-.008-1.001-.424-1.737-1.029-2.22a49.774 49.774 0 0 0-.447-5.92l-.001-.055h-.007c-.035-.266-.062-.53-.1-.798a2.561 2.561 0 0 0-.255-.781c-.05-3.601-.044-7.218-.596-10.785-.531-3.43-1.92-7.044-1.255-10.49.526-2.725.889-4.637.315-7.4a3.054 3.054 0 0 0-.31-.831c.107-1.736.192-3.423 1.485-4.79 2.178-2.302-.053-5.505-2.92-5.013l-6.474 1.11a3.413 3.413 0 0 0-.608.029l-11.875 2.114a2.901 2.901 0 0 0-1.04.395l-.067-.001c-4.82-.062-9.573-.02-14.369.524a3.167 3.167 0 0 0-1.255.417c-.103-.005-.2-.023-.31-.02-4.14.15-7.373-.363-11.276-1.232-3.025-.674-6.236.856-9.296.868-1.901.007-3.47 1.917-2.894 3.797.18.583.346 1.165.509 1.747a3.105 3.105 0 0 0-.125 1.06c.33 5.996.428 11.987.322 17.985-.858 5.957 1.563 11.615 1.248 17.654-.154 2.947-.85 5.83-.998 8.77-.058 1.133.015 2.258.127 3.38a3.17 3.17 0 0 0-.197 1.017c-.14 5.489.43 10.2 1.846 15.468.885 3.287 1.342 6.733 1.748 10.167.003 5.474-.685 10.967-1.498 16.372a3.084 3.084 0 0 0 .738 2.55c-.853 3.023-1.84 5.996-2.69 9.08-1.11 4.03-1.346 8.442-1.737 12.584-.431 4.56 1.29 8.408 2.307 12.68a694.655 694.655 0 0 1-3.132 7.735c-.74 1.799 1.12 3.859 2.892 3.797 10.243-.36 20.392.999 30.615 1.27 10.291.272 20.132-2.272 30.35-2.548 1.54-.041 3.113-1.343 3-3a517.791 517.791 0 0 1-1.013-47.277"/>
        <path fill="#847B5F" d="M280.457 152.977c-1.219.38-2.575.229-3.9.12a3.155 3.155 0 0 0-1.53-.255c-2.155.158-4.065.476-6.129 1.153-.118.038-.214.094-.323.14-5.763.9-11.59.902-17.476.839-1.964-.02-3.775 1.989-3.559 3.913-.492.57-.792 1.279-.7 2.105.956 8.51.311 16.528-.662 24.993-.402 3.493-.329 6.992-.323 10.504.007 3.388 1.256 10.157-.669 12.978-1.765 2.587 1.15 5.916 3.953 5.142 4.187-1.157 9.286-.445 13.607-.49l13.816-.143c.07.002.138.02.206.017.223-.01.447-.018.671-.027 2.956-.115 3.97-3.136 3.026-5.172.524-3.88 1.456-7.527 1.426-11.546-.037-4.834-.123-9.666-.077-14.5.04-4.082.717-7.846 1.226-11.861.6-4.72.063-8.978 1.722-13.605.901-2.51-1.876-5.062-4.305-4.305"/>
        <path fill="#EFECD3" d="M379.59 122.927l-12.796.834c-4.019.262-10.147 1.672-13.124-1.756 3.133-3.493 11.494-2.416 15.425-2.575 3.213-.13 7.018-.715 10.54-.482.027.077.043.151.08.227.003.123.008.247.03.374.045.233.08.468.113.701l-.269 2.677m20.952 41.891c-1.552-5.347-2.148-10.298-2.047-15.876.084-4.619.217-9.196-.259-13.661.697-7.858.29-15.767 1.257-23.609.29-2.343-2.31-2.827-3.9-1.908a1.835 1.835 0 0 0-.268.003 247.81 247.81 0 0 1-7.738.66 2.326 2.326 0 0 0-1.36-.437c-7.57-.056-15.196-.201-22.746.444-.942.081-1.9.17-2.86.283a226.175 226.175 0 0 1-7.498-.489c-1.59-.133-2.966-.385-4.2-.266-2.189-2.134-5.606-.852-5.998 2.366-1.335 10.985-2.42 21.035-.668 32.026 1.841 11.543 2.47 23.147 1.934 34.823-.11 2.426 2.315 3.784 4.43 3.375 8.442-1.635 17.001-.428 25.515-.294 8.103.128 16.146-.518 24.164-1.658 1.078-.153 2.265-1.387 2.445-2.444.781-4.599 1.115-8.794-.203-13.338"/>
        <path fill="#847B5F" d="M349.43 47.303c1.548.369 3.107.644 4.67.885 3.07.884 6.16 1.695 9.303 2.21l-3.457 9.27c-.567 1.522-1.358 3.108-1.922 4.725-1.749-.362-3.526-.613-5.34-1.026a21.913 21.913 0 0 1-7.136-3.03c1.833-3.995 2.914-8.604 3.882-13.034m64.271 4.552c-11.845-4.334-23.78-8.673-36.282-10.685-11.813-1.9-24.076-.858-35.5-4.846-1.286-.45-2.724.515-3.076 1.746a236.518 236.518 0 0 0-4.045 16.319c-1.188 2.616-2.534 5.129-4.029 7.433-1.564 2.412 1.695 4.656 3.661 3.215.018-.002.034 0 .051-.002 1.518-.212 3.154-.318 4.715-.582.102.058.2.12.29.193 1.746 1.375 1.507 3.433 1.454 5.385-.104 3.833-.405 7.585.087 11.41.258 2.017 2.808 3.4 4.247 1.836 1.793.692 3.35 1.745 5.315 2.009 2.118.287 4.257-.567 6.335-.3 2.201.284 3.775 2.105 5.941 2.402 2.375.326 4.777-.886 7.16-.846 2.384.04 4.717.532 7.116.486 3.116-.063 6.113-.613 9.205.072 5.432 1.204 9.825 2.207 15.5 2.028 1.455-.046 2.357-1.116 2.5-2.5.576-5.6 1.827-11.09 3.842-16.35 1.71-4.467 4.618-8.527 5.595-13.242a2.29 2.29 0 0 0 .037-.288c1.905-.587 2.342-3.992-.119-4.893"/>
        <path fill="#EFECD3" d="M306.294 61.701l.224-5.935c.058-1.559-1.763-2.38-2.967-1.76-.025-.004-.047-.012-.072-.015-14.706-1.242-29.62.3-44.32 1.07-2.226.117-2.526 3.155-.872 3.857-.144 2.204.106 4.257.443 6.554.665 4.536-.03 8.381-.665 12.824-.218 1.526-.195 3.011-.048 4.474-.448.308-.733.827-.647 1.575.593 5.162 1.078 10.354 1.315 15.55-1.838 6.106-1.92 12.407-1.573 18.813-.663 3.438-1.308 6.882-1.3 10.412.018 8.057-1.563 15.854-1.367 23.976.027 1.126.896 1.936 2 2 2.45.14 4.788.063 7.224-.238 1.068-.132 2.01-.809 2-2-.055-7.14-2.018-14.109-2-21.24.01-3.569.582-7.1.545-10.67-.015-1.502-.096-2.98-.167-4.455.034.01.066.018.103.021 2.733.274 5.437.4 8.185.233.622-.038 4.175-.806 5.574-.927.114.11.232.216.367.3.946.584 2.165.176 2.736-.718.06-.095.122-.189.182-.285.509-.796.269-1.833-.372-2.46.608-.584.31-3.524.305-4.069-.02-1.89-.07-3.782-.221-5.665-.293-3.628-.97-7.138-.711-10.792.174-2.446.335-4.687.238-7.01.364-.316.582-.803.507-1.468-.372-3.27-.876-6.564-.992-9.863.039-1.113.059-2.229.034-3.35a2.156 2.156 0 0 0-.116-.652c.516-.244.883-.7 1.089-1.205a13.105 13.105 0 0 1 1.706-.048c.808-.012 1.779-.606 1.928-1.468.46-2.646 4.173-2.278 6.503-2.258 2.752.025 5.44.296 8.18.186l3.13.53c.465.077.976.006 1.42-.19.774.112 1.639-.17 2.134-.887l.417-.606c.554-.803.4-1.588-.08-2.14"/>
        <path fill="#0D4391" d="M377.213 228.322c-4.16-4.532-12.856-3.096-18.274-2.977-6.475.145-12.912.679-19.312 1.594-3.08-.538-6.094-.284-9.139.087-11.32.321-22.64.29-33.96-.109a2.809 2.809 0 0 0-1.546.37c-2.12-.063-4.24-.105-6.36-.08-2.095.024-4.547-.224-6.532.623a4.903 4.903 0 0 0-1.23.774c-.09.021-.18.031-.272.063-1.939.64-3.175 1.702-3.909 3.034a3.063 3.063 0 0 0-1.594 1.769 11.567 11.567 0 0 0-.683 4.249 2.744 2.744 0 0 0-.184 1.392c.448 4.06.982 8.11 1.625 12.144-.162 4.029.193 8.05.92 12.379.678 4.03 1.361 8.058 2.041 12.087.404 6.984 1.97 13.822 2.763 20.832.958 8.46.503 16.887 2 25.322.241 1.358 1.658 2.103 2.893 2.202 7.757.615 9.903-7.935 10.336-14.312.362-5.328.3-11.303-.625-17.008.383-2.504.507-4.971.285-7.591a2.938 2.938 0 0 0-.29-1.04c.122-3.376.152-6.756.04-10.14-.077-2.342-.275-4.68-.454-7.017.158-3.772.276-7.565-.234-11.284.087-2.518.188-5.036.108-7.56a3.086 3.086 0 0 0-.26-1.16c6.584.895 14.301-.357 19.797-3.429 1.005-.563 1.98-1.123 2.946-1.674 2.84-.968 5.66-1.995 8.482-2.957.024-.008.043-.02.066-.03 4.618.817 8.753 2.11 13.202 3.722.648.236 1.333.433 2.032.608.482.56 1.188.946 2.14.968 3.312.071 7.106.6 10.625.252-.007.214-.023.458-.046.742-.223 2.752-2.008 5.565-2.388 8.42-.44 3.312-.293 6.613-.193 9.942.2 6.6-1.717 13.526-.467 20.034.357 1.857.901 3.584 1.354 5.339-.218 1.064-.267 2.199-.245 3.394.073 3.805.44 7.636.763 11.449a2.92 2.92 0 0 0-.26.673c-.987 4.084-1.568 11.377 3.275 13.375 5.321 2.195 6.942-4.875 7.886-8.382 1.985-7.372 3.33-14.944 4.692-22.45 1.412-7.774 1.66-16.017 4.253-23.497 2.317-6.683 3.56-13.367 4.826-20.316.85-4.672 2.782-10.82-.893-14.826"/>
        <g transform="translate(0 313.152)">
            <mask id="b" fill="#fff">
                <use xlink:href="#a"/>
            </mask>
            <path fill="#F2F2F2" d="M997.06 8.905c-.436.04-.873.076-1.309.117a2.875 2.875 0 0 0-1.53-.395c-17.267.19-34.535.174-51.802-.05a3.052 3.052 0 0 0-.93.138C889.697 6.449 837.786 9.729 786.046 5.85c-1.207-.091-2.033.437-2.482 1.212-38.349-1.716-76.96-4.193-115.244-2.364-.738.035-1.33.286-1.787.665-16.265-1.484-31.994-1.595-48.383-.122-17.535 1.576-35.086 1.657-52.678 1.57-.909-.003-1.596.333-2.078.839-15.905-.698-31.757-3.496-47.608-4.727C494.102 1.238 472.341.99 450.602.739c-.788-.01-1.406.242-1.873.634-1.596-.867-3.736-.526-4.048 1.727-.687 4.973-1.147 9.942-1.146 14.966 0 5.318.706 10.643-.37 15.9a3.423 3.423 0 0 0-.066.632c-1.025.379-2.189.5-3.119.566-1.689.116-1.653.253-2.537-.847-1.549-1.926-1.825-8.22-1.94-10.416-.28-5.312.085-10.472-1.152-15.685.968-1.7.134-4.575-2.489-4.78-15.338-1.197-31.5-3.074-46.927-2.055a2.796 2.796 0 0 0-1.565-.377c-4.329.158-8.646.45-12.95.958-2.379.28-5.178.39-6.91 2.308-4.51 4.99 2.083 9.6 5.744 11.93 3.513 2.235 7.231 4.307 10.566 6.802 1.825 1.366 4.58 3.484 3.224 6.128-1.23 2.399-4.997 2.446-7.006 1.924-7.322-1.903-15.382-6.856-21.557-11.273-.103-3.148-.089-6.98-1.507-9.277-1.81-2.938-7.92-3.917-10.91-5.047-9.007-3.404-16.3-5.036-25.809-2.367-7.776 2.183-16.1 6.126-22.309 11.346-2.898 2.437-2.967 5.565-4.316 8.954-1.598 4.013-3.642 7.665-4.314 11.988-.049.312-.035.618.01.916-2.628 2.408-6.514 1.952-9.846 2.05-2.417.073-4.75 1.117-4.817-2.462-.022-1.125.783-2.54 1.173-3.556 1.226-3.196 2.662-6.305 4.238-9.344 1.398-2.696 3.13-7.127 6.263-8.148 1.53-.498 2.56-2.07 2.096-3.691a69 69 0 0 1-.892-3.491 15.46 15.46 0 0 0-.296-1.841 2.345 2.345 0 0 0-.3-.728c-.57-1.747-2.257-2.085-3.655-1.48-6.719-.04-13.563.685-20.169-.485-2.545-.451-4.102 2.024-3.689 3.894l-.786 10.693c-.113 1.543-.37 3.12-.389 4.663-9.726.404-19.36 2.599-29.127 1.404a3.072 3.072 0 0 0-.769.006c-1.655-.135-3.469 1.025-3.38 2.94.185 3.919-.775 7.596-1.993 11.244-1.827.73-4.559.638-6.032.068-.567-5.221.041-10.441.274-15.696.246-5.533-.485-10.993-.543-16.518-.016-1.55-1.363-3.098-3-3a51.868 51.868 0 0 1-8.553-.185c-1.338-.14-2.195.505-2.596 1.415-6.395-1.171-13.355-.816-19.415-.857-13.908-.095-27.803.719-41.676 1.625-27.986 1.829-56.094 3.983-84.023.262-1.008-.135-1.739.192-2.21.745-15.582-1.146-31.25-1.283-46.868-1.383-5.792-.037-5.799 8.963 0 9 9.425.06 18.884.112 28.333.399.706 1.104 1.873 1.93 3.53 2.034 16.041.987 30.927 5.605 45.162 12.929 2.93 1.507 5.901 2.869 9.162 3.467 3.101.57 6.333.34 9.404 1.025 3.96.883 5.32 4.128 7.874 6.854 2.33 2.485 5.277 4.286 8.225 5.935 3.135 1.753 6.138 3.387 8.797 5.848 2.653 2.455 5.064 5.134 7.925 7.36 6.103 4.752 13.683 7.22 20.137 11.476 6.436 4.243 12.71 7.88 20.221 9.87 8.271 2.192 16.871 3.432 25.33 4.652 11.74 1.694 23.532 2.933 35.343 3.992 21.738 4.725 43.967 7.015 66.308 6.893 9.38-.052 18.763-.373 28.146-.865 4.86.72 9.717 1.445 14.577 2.158 11.958 1.753 23.254 2.578 35.04-.708 7.21-2.01 14.163-4.677 21.243-6.988 2.938-.245 5.875-.487 8.81-.718l54.16-4.261c17.456-1.373 35.04-2.266 52.4-4.615 16.725-2.263 32.048-7.654 47.821-13.408 7.562-2.758 15.207-5.365 23.094-7.035 8.406-1.78 16.99-2.184 25.512-3.106 9.547-1.033 18.51-3.306 27.72-5.941 9.847-2.817 19.653-3.09 29.725-4.446a89.71 89.71 0 0 0 9.78-1.9c3.376.18 6.748.342 10.1.38 17.294.2 34.085-3.967 50.671-8.431 17.138-4.613 33.98-8.227 51.663-10.002 8.48-.852 16.96-1.72 25.441-2.563 25.383-.547 50.788-.158 76.175-.378a1214.032 1214.032 0 0 0 104.885-5.44c5.715-.546 5.772-9.552 0-9" mask="url(#b)"/>
        </g>
        <path fill="#071F2C" d="M346.626 181.13c10.013.084 20.027.22 30.04.238 9.712.018 19.438-.315 28.976-2.29.63-.13.363-1.094-.266-.965-9.771 2.024-19.733 2.29-29.678 2.252-9.69-.036-19.382-.154-29.072-.235-.644-.006-.645.994 0 1M405.441 181.398a413.293 413.293 0 0 1-1.967 30.6c-.065.639.936.635 1 0a413.293 413.293 0 0 0 1.967-30.6c.018-.644-.982-.644-1 0M344.927 213.132c1.35-4.328.673-9.119.529-13.576l-.49-15.182c-.161-4.963-.395-9.935-.232-14.9.164-5.003.53-9.906-.096-14.896-.611-4.859-1.738-9.644-2.188-14.526-.473-5.136.139-10.185.854-15.269.647-4.597 1.212-9.175 1.08-13.83-.124-4.334-.674-8.642-1.274-12.933-1.49-10.663-3.41-21.618.113-32.097.206-.61-.76-.874-.964-.266-5.95 17.7 2.809 36.273.686 54.348-.564 4.801-1.486 9.567-1.661 14.407-.168 4.634.556 9.191 1.335 13.741.902 5.265 1.589 10.416 1.373 15.766-.196 4.893-.355 9.74-.212 14.637.166 5.694.365 11.39.549 17.082.178 5.487 1.292 11.914-.366 17.228-.193.616.773.88.964.266M354.253 120.487c-.594 1.85-.4 3.308 1.645 3.592 2.168.3 4.689-.072 6.872-.103l6.38-.096c2.127-.032 4.254-.063 6.38-.096 1.19-.018 2.92.223 4.037-.42 2.054-1.183.727-3.525-.561-4.677-.48-.427-1.188.279-.707.707 1.069.7 1.173 1.787.314 3.261-.698.09-1.398.129-2.101.114-.98.033-1.964.03-2.945.044l-6.38.096-6.381.096c-1.786.026-6.631.99-5.59-2.251.199-.616-.767-.879-.963-.267"/>
        <path fill="#071F2C" d="M356.69 120.293c7.22.075 14.43-.197 21.625-.816.636-.056.642-1.056 0-1-7.195.62-14.404.891-21.624.816-.644-.007-.644.993 0 1M344.375 109.555c8.401 1.704 16.604 2.042 25.158 1.699 9.084-.363 18.166-.775 27.25-1.164.64-.027.644-1.027 0-1-8.766.375-17.53.76-26.297 1.125-8.782.365-17.205.128-25.845-1.624-.628-.127-.897.836-.266.964M400.638 179.507c.953-5.494 1.02-10.234-.462-15.635-1.622-5.91-1.656-11.649-1.596-17.73l.363-36.33c.006-.644-.994-.645-1 0l-.353 35.348c-.051 5.14-.36 10.391.718 15.451.595 2.795 1.597 5.493 2.01 8.327.506 3.463-.052 6.886-.644 10.303-.11.63.854.901.964.266M279.569 212.646c-.258-3.733-.11-7.011 2.027-10.232 1.703-2.566 3.61-5.012 5.423-7.501.379-.522-.488-1.021-.864-.505-2.097 2.883-4.536 5.717-6.25 8.849-1.616 2.954-1.563 6.112-1.336 9.389.044.639 1.045.644 1 0"/>
        <path fill="#071F2C" d="M281.16 202.397c-2.662-17.368 4.144-34.382 3.028-51.754-.554-8.633-2.8-17.064-3.235-25.708-.218-4.351.405-8.483.894-12.788.48-4.227-.357-8.314-.713-12.512-.838-9.871-.335-19.943-.353-29.843 0-.643-1-.644-1 0 .016 8.844-.225 17.734.15 26.57.184 4.36 1.16 8.7 1.104 13.062-.055 4.28-1.154 8.458-1.154 12.762 0 8.66 2.201 17.112 3.074 25.69.926 9.09-.329 18.062-1.637 27.048-1.34 9.207-2.544 18.464-1.122 27.739.097.634 1.061.365.964-.266M394.03 196.738c-5.982 1.851-11.957 3.727-17.946 5.553-6.158 1.876-12.38 3.507-18.86 3.536-.643.002-.644 1.002 0 1 6.245-.029 12.27-1.508 18.217-3.297 6.3-1.895 12.571-3.883 18.854-5.828.613-.19.351-1.155-.266-.964M370.344 197.704a61.994 61.994 0 0 1-11.075 1.23c-2.52.05-4.878.055-7.215 1.101-.586.262-.079 1.124.504.863 2.971-1.328 6.365-.874 9.533-1.072 2.867-.18 5.704-.588 8.52-1.157.63-.128.362-1.092-.267-.965M194.139 216.309c35.849-.79 71.697-1.577 107.546-2.365 35.739-.786 71.495-1.881 107.246-1.521 9.915.1 19.829.322 29.737.708a827.655 827.655 0 0 1 18.816.948c.94.058 3.135-.235 3.959.257.954.57.797 1.99.923 2.983l.556 4.39c.08.63 1.08.639 1 0l-.99-7.805c-.036-.283-.2-.48-.5-.5-34.811-2.38-69.722-2.29-104.591-1.66-34.82.629-69.636 1.496-104.452 2.26l-59.25 1.305c-.643.014-.645 1.014 0 1M193.044 217.925c-.02 2.348-.037 4.694-.056 7.042-.01 1.259-.238 2.611.685 3.592.442.47 1.148-.238.707-.707-.891-.946-.386-3.662-.377-4.841.014-1.695.028-3.391.04-5.086.006-.644-.994-.644-1 0M342.557 101.76c2.369.389 4.719.864 7.044 1.46 1.4.358 2.393.948 2.209 2.578-.137 1.218-.304 2.434-.456 3.65-.079.637.921.63 1 0 .208-1.66 1.475-5.375-.364-6.53-1.063-.667-2.664-.808-3.871-1.088a82.78 82.78 0 0 0-5.296-1.034c-.63-.102-.9.86-.266.965"/>
        <path fill="#071F2C" d="M352.577 107.41c4.238-1.034 8.56-.976 12.892-1.003l5.83-.036c.635-.004 2.322-.339 2.913-.019 1.067.578 1.243 2.428 1.528 3.465.168.62 1.133.358.964-.265-.355-1.293-.416-3.415-1.731-4.095-.612-.316-1.577-.099-2.218-.095l-4.371.027c-5.363.034-10.824-.223-16.072 1.055-.625.153-.36 1.117.265.965"/>
        <path fill="#071F2C" d="M345.974 101.226c.091-2.634 10.019-.123 11.78.213 1.666.317 3.332.636 4.996.954.844.16 1.966.165 2.726.52.305.058.606.117.91.174.38.734.546 1.508.498 2.323.032.64 1.032.644 1 0-.057-1.086.203-2.442-.762-3.144-.536-.391-1.656-.37-2.288-.49l-4.09-.781c-4.97-.95-9.939-2.08-15.03-1.836a.514.514 0 0 0-.483.367c-.255.923-.224.743-.257 1.7-.022.644.978.644 1 0M365.442 119.815l-.024 3.003c-.006.643.994.644 1 0l.024-3.003c.005-.644-.995-.645-1 0M340.562 84.106c2.374.959 4.918-.72 7.147.67 1.7 1.06 2.731 1.68 4.85 1.434 3.632-.425 6.424-1.574 9.84.534 2.04 1.258 3.313 1.1 5.607.534 5.923-1.464 11.644.75 17.556-.392 2.335-.451 3.582.023 5.591 1.055a8.633 8.633 0 0 0 2.507.857c3.203.569 6.894-.62 9.45 1.977.451.459 1.158-.248.706-.707-1.409-1.431-3.2-1.933-5.177-2.061-1.638-.105-3.283.09-4.903-.24-1.555-.315-2.61-1.196-4.033-1.752-2.623-1.026-5.284.36-7.957.402-3.208.049-6.322-.95-9.55-.795-3.372.16-6.453 1.912-9.587.063-2.008-1.184-4.169-1.558-6.466-1.211-1.486.226-2.95.785-4.464.819-1.848.042-2.669-1.148-4.16-1.818-2.163-.972-4.498.553-6.69-.333-.598-.241-.857.726-.267.964M330.945 63.176c.708-2.353 1.82-4.28 3.153-6.309 1.19-1.808 1.09-3.817 1.492-5.901.456-2.359 1.106-4.688 1.684-7.02.578-2.332.916-5.336 3.156-6.687.55-.332.048-1.197-.505-.864-3.528 2.128-3.808 8.015-4.685 11.606-.637 2.611-.634 6.085-2.005 8.362-1.31 2.175-2.513 4.086-3.254 6.547-.186.618.78.881.964.266"/>
        <path fill="#071F2C" d="M341.161 37.763c3.534-.434 6.498.623 9.907 1.277 2.814.54 5.682.628 8.534.786 6.784.376 13.542 1.14 20.236 2.31 6.21 1.087 12.494 2.378 18.483 4.375 5.466 1.823 10.42 5.033 16.224 5.735.638.078.633-.923 0-1-6.227-.753-11.677-4.428-17.627-6.227-6.1-1.846-12.41-3.137-18.697-4.165a175.968 175.968 0 0 0-18.62-2.028c-3.205-.178-6.431-.27-9.567-1.03-3.084-.747-5.666-1.427-8.873-1.033-.63.077-.637 1.078 0 1"/>
        <path fill="#071F2C" d="M414.734 52.452c-2.146 6.354-4.173 12.77-6.625 19.015-2.19 5.576-5.212 11.038-4.917 17.205.03.64 1.03.643 1 0-.305-6.368 3.012-12.066 5.23-17.836 2.29-5.965 4.232-12.066 6.276-18.118.206-.612-.759-.874-.964-.266M379.154 87.714c.964 7.208.85 14.55 1.027 21.808.015.642 1.015.644 1 0-.177-7.259-.063-14.6-1.027-21.808-.084-.629-1.085-.637-1 0M394.307 89.126c-.585 3.248-1.929 7.106-1.46 10.432.117.832.439 1.617.596 2.44.27 1.418.091 2.694.121 4.108.023 1.048-.001 2.288.767 3.084a.503.503 0 0 0 .487.13c.076-.023.153-.046.23-.067.617-.179.355-1.144-.266-.965-.194.057-.127-4.298-.145-4.753-.058-1.442-.572-2.765-.772-4.182-.441-3.13.847-6.858 1.406-9.96.114-.63-.85-.9-.964-.267M363.115 49.543a102.472 102.472 0 0 1-13.448-2.62.508.508 0 0 0-.615.35 265.242 265.242 0 0 1-4.374 14.161c-.208.611.758.873.964.266 1.59-4.68 3.048-9.4 4.374-14.163l-.614.35a104.396 104.396 0 0 0 13.713 2.656c.637.08.63-.92 0-1M346.542 62.652a66.626 66.626 0 0 0 12.35 3.506c.239.044.573-.064.615-.35a44.345 44.345 0 0 1 4.395-13.851c.292-.573-.57-1.08-.863-.505a45.203 45.203 0 0 0-4.497 14.09l.616-.348a66.626 66.626 0 0 1-12.35-3.506c-.6-.235-.86.732-.266.964"/>
        <path fill="#071F2C" d="M351.579 50.448a42.07 42.07 0 0 0 6.176 1.7c.628.121.898-.843.265-.966a42.057 42.057 0 0 1-6.175-1.699c-.607-.218-.869.748-.266.965M350.878 52.742c1.258-.129 2.457.078 3.582.66.57.296 1.077-.566.505-.863-1.274-.659-2.657-.943-4.087-.797-.634.065-.641 1.066 0 1M350.136 54.064l2.794.64c.627.142.894-.822.267-.965l-2.795-.64c-.627-.142-.894.82-.266.965M348.69 59.072l5.79 1.096c.627.12.897-.844.264-.965-1.93-.364-3.859-.73-5.789-1.095-.629-.118-.898.846-.266.965M379.538 79.788c2.87 1.157 6.159 1.291 9.197 1.722l9.841 1.396c.63.09.901-.874.265-.965l-9.84-1.395c-3.041-.432-6.325-.564-9.196-1.722-.598-.24-.856.727-.267.964M390.503 79.275c2.37.263 4.722.613 7.064 1.05.63.116.9-.847.267-.965a100.695 100.695 0 0 0-7.33-1.085c-.64-.07-.635.93 0 1M398.04 77.392l-1.596-.423c-.623-.166-.888.799-.266.964l1.596.424c.622.165.888-.8.266-.965M399.938 75.338c-.333.024-.638-.004-.946-.142-.583-.26-1.092.601-.505.864.471.21.935.316 1.451.278.638-.047.643-1.048 0-1M351.24 38.163c1.11-3.642 5.596-2.33 8.366-2.026 2.414.265 4.826.55 7.236.857a434.045 434.045 0 0 1 15.727 2.301l-.3-.735a7.376 7.376 0 0 1-1.288 2.077c-.398.498.305 1.21.707.707a11.396 11.396 0 0 0 1.446-2.28c.125-.259.045-.677-.3-.734a442.314 442.314 0 0 0-19.85-2.809c-2.907-.342-6.652-1.393-9.544-.767-1.651.357-2.688 1.582-3.163 3.143-.188.618.777.881.964.266"/>
        <path fill="#071F2C" d="M357.241 34.007c-.434-1.693 3.637-1.227 4.362-1.22 1.482.013 2.966.054 4.443.176 1.571.13 3.135.34 4.674.685 1.98.442 3.187.878 2.895 3.145-.082.637.92.631 1 0 .17-1.315.51-2.507-.659-3.265-2.09-1.357-5.92-1.422-8.353-1.596-1.816-.13-10.333-1.586-9.326 2.341.16.623 1.124.359.964-.266"/>
        <path fill="#071F2C" d="M365.513 31.336c2.49-2.94 6.265-.604 8.966.688a126.12 126.12 0 0 0 7.165 3.156c5.38 2.173 11.555 3.302 16.506 6.353l-.101-.785c-.93.963-1.86 1.925-2.788 2.888-.447.463.259 1.171.707.707l2.788-2.888a.506.506 0 0 0-.101-.785c-2.827-1.743-5.96-2.623-9.091-3.653a123.997 123.997 0 0 1-10.875-4.157c-3.735-1.633-10.254-6.517-13.883-2.23-.414.487.29 1.198.707.706"/>
        <path fill="#071F2C" d="M379.205 32.554c.245-4.454 7.382-.417 8.869.294a140.58 140.58 0 0 1 5.94 3.035c3.92 2.112 7.757 4.373 11.594 6.632l-.1-.785a15.219 15.219 0 0 0-4.031 4.713c-.314.562.549 1.067.863.504a14.494 14.494 0 0 1 3.875-4.51c.26-.203.148-.64-.101-.786-6.025-3.547-12.063-7.101-18.397-10.075-2.584-1.213-9.22-4.314-9.512.978-.035.644.966.642 1 0"/>
        <path fill="#071F2C" d="M396.322 36.27c1.28-2.952 8.827 1.629 10.254 2.566 2.215 1.455 4.297 3.038 6.729 4.125l-.101-.786a31.815 31.815 0 0 0-5.608 6.285c-.363.534.503 1.035.864.505a30.808 30.808 0 0 1 5.45-6.082c.228-.195.183-.66-.1-.786-3.715-1.66-6.69-4.556-10.428-6.167-2.045-.882-6.584-3.254-7.923-.165-.254.584.608 1.094.863.505M346.495 18.344c-2.72-.449-5.452-.812-8.199-1.05-2.568-.222-5.459-.647-8.026-.328-2.594.321-3.635 3.552-.695 4.282.625.156.89-.808.266-.964l-.026-2.253 1.315-.097c.635-.018 1.279.023 1.913.045 1.435.047 2.868.127 4.3.237 2.977.229 5.938.606 8.885 1.093.63.103.901-.86.267-.965"/>
        <path fill="#071F2C" d="M347.003 20.515c1.56 1.765-3.916 1.31-3.963 1.306a193.867 193.867 0 0 1-3.81-.362c-2.81-.296-5.61-.66-8.405-1.074-.63-.094-.901.87-.265.964 4.724.7 9.606 1.536 14.386 1.625 1.77.032 4.619-1.067 2.764-3.166-.427-.483-1.132.227-.707.707M279.66 69.367c2.396-.027 4.757-.278 7.084-.863 1.792-.45 3.251-1.226 5.146-.648.902.276 1.661.808 2.615 1.018 4.541.995 10.111.595 14.658-.172 1.331-.225 2.671-.577 4.027-.585 1.303-.007 2.51.54 3.797.524 2.263-.028 4.627-1.134 6.834-1.63 5.89-1.325 11.907-1.85 17.938-1.706.643.016.643-.984 0-1-5.32-.127-10.628.265-15.859 1.257-2.6.494-5.197 1.56-7.798 1.918-1.575.22-2.964-.292-4.498-.349-1.026-.039-2.038.127-3.046.3-2.92.497-5.774.8-8.74.811-2.926.012-6.18.28-8.9-.96-1.693-.77-2.323-.953-4.195-.403-2.999.881-5.918 1.453-9.064 1.488-.643.007-.645 1.007 0 1"/>
        <path fill="#071F2C" d="M284.906 67.235c-.052-4.05 9.296-1.675 11.824-1.47a103.94 103.94 0 0 0 21.565-.51c1.473-.188 2.943-.404 4.407-.655.847-.144 7.604-1.76 7.261.146-.114.629.85.899.964.265.618-3.424-3.819-2.27-5.658-1.901a102.525 102.525 0 0 1-17.503 1.956 104.276 104.276 0 0 1-16.697-.921c-2.673-.362-7.213-.843-7.163 3.09.008.643 1.008.645 1 0"/>
        <path fill="#071F2C" d="M305.196 64.705c.63-4.13 1.268-8.274 1.474-12.453.221-4.482-.35-8.905-.474-13.377-.25-9.137.422-18.349.725-27.48.021-.644-.979-.643-1 0-.292 8.818-.88 17.688-.745 26.511.064 4.153.624 8.285.558 12.442-.074 4.731-.79 9.422-1.502 14.091-.096.63.867.901.964.266M306.96 10.695c6.647-.776 12.844-2.606 19.316-4.136 3.929-.928 7.576.28 11.403 1.1 3.447.74 6.922 1.348 10.414 1.83a143.077 143.077 0 0 0 20.264 1.35c2.279-.01 2.389.085 2.408 2.375l.044 5.35.093 11.19c.005.642 1.005.643 1 0l-.161-19.458a.507.507 0 0 0-.5-.5c-11.342.247-22.677-.787-33.766-3.204-2.291-.5-4.588-1.208-6.933-1.406-2.32-.196-4.44.36-6.651 1.013-5.55 1.642-11.18 2.825-16.93 3.496-.631.073-.64 1.075 0 1"/>
        <path fill="#071F2C" d="M258.347 55.491c15.656-1.044 31.184-2.044 46.874-.988.642.044.64-.956 0-1-15.69-1.056-31.22-.056-46.874.988-.64.043-.644 1.043 0 1M257.894 57.324c-.164 1.675-.343 3.405-.007 5.073.368 1.831 1.381 3.154 1.266 5.116-.246 4.242-1.038 8.493-1.497 12.716-.442 4.067.337 7.514.68 11.52.348 4.07-.168 8.254-.404 12.321-.495 8.478-1.04 16.955-1.863 25.408a321.18 321.18 0 0 1-1.586 13.486c-.52 3.705-1.154 7.361.051 11.002.201.607 1.167.347.964-.267-1.36-4.108-.323-8.379.233-12.544a333.56 333.56 0 0 0 1.432-12.65c.804-8.457 1.335-16.935 1.825-25.413.234-4.05.742-8.215.253-12.26-.208-1.722-.65-3.41-.797-5.14-.18-2.13.074-4.256.318-6.37.462-4.005 1.344-8.162 1.431-12.19.024-1.11-.233-1.966-.646-2.973-.94-2.293-.89-4.4-.653-6.835.062-.64-.938-.636-1 0"/>
        <path fill="#071F2C" d="M248.33 155.987c3.713-.344 7.53-1.01 11.244-.416 2.488.397 4.453.442 6.876-.4 2.978-1.037 5.548-2.28 8.802-2.004 2.839.24 5.469.964 8.29.178.62-.172.357-1.137-.265-.964-2.983.83-5.856-.163-8.854-.274-2.685-.099-5.022.898-7.488 1.823-1.423.535-2.902 1.055-4.442 1.031-1.368-.022-2.695-.415-4.05-.56-3.323-.353-6.8.28-10.112.585-.635.06-.642 1.06 0 1M260.558 61.13c3.97.74 4.28 4.027 4.925 7.293a31.187 31.187 0 0 0 1.94 6.292c1.695 3.936 4.248 7.314 7.709 9.853.519.381 1.019-.486.505-.863-4.538-3.329-7.373-8.305-8.767-13.696-1.075-4.16-.916-8.888-6.046-9.844-.63-.117-.9.847-.267.965M316.634 77.112c.903.614.433 1.919-.621 1.922-.643.001-.644 1.001 0 1 2.093-.007 2.825-2.63 1.125-3.785-.533-.364-1.034.504-.504.864M312.429 76.424c-2.908-.018-5.824-.037-8.72.262-1.483.154-3.906.092-4.958 1.33-2.6 3.063 3.603 2.691 4.775 2.528.635-.088.365-1.052-.265-.964-.811.133-1.624.193-2.443.178-.89-1.106-.84-1.664.15-1.674.673-.675 3.17-.448 4.188-.52 2.42-.171 4.848-.155 7.273-.14.644.004.644-.996 0-1M305.792 80.98c2.536.02 5.072.04 7.608.062.643.005.644-.995 0-1l-7.608-.062c-.644-.005-.645.995 0 1M327.14 99.847a3571.462 3571.462 0 0 1-24.741 16.354c-.536.35-.035 1.216.505.863a3559.202 3559.202 0 0 0 24.741-16.354c.533-.354.033-1.221-.505-.863M320.786 109.698a47.607 47.607 0 0 1-11.464 6.239c-.597.225-.339 1.192.265.963a48.577 48.577 0 0 0 11.704-6.34c.513-.377.015-1.245-.505-.862M264.036 53.813c-2.374-.344.714-11.99 1.017-13.511a521.68 521.68 0 0 1 2.55-12.046c.14-.627-.824-.894-.964-.265a515.248 515.248 0 0 0-3.579 17.365c-.392 2.09-2.998 8.885.71 9.422.63.09.902-.872.266-.965M268.987 26.703a139.92 139.92 0 0 0 36.64-5.976c.613-.186.352-1.152-.266-.964a138.958 138.958 0 0 1-36.374 5.94c-.642.02-.645 1.02 0 1M284.278 36.609c.83-.164 1.691.157 2.242.797.254.296.54.763.515 1.167-.039.627-.72.933-1.263 1.084-.816.226-1.848.166-2.399-.555-.479-.625-.474-1.52.15-2.031.497-.407-.214-1.111-.708-.707-.987.808-.994 2.306-.275 3.3.908 1.255 2.672 1.32 4 .78 1.432-.581 1.898-1.803 1.103-3.174a3.421 3.421 0 0 0-3.63-1.626c-.63.125-.364 1.089.265.965"/>
        <g transform="translate(314 -.848)">
            <mask id="d" fill="#fff">
                <use xlink:href="#c"/>
            </mask>
            <path fill="#071F2C" d="M2.451 8.13c-.1-1.017-.843-3.806-.243-4.585.62-.806 3.956-.633 5.007-.727a208.485 208.485 0 0 1 20.32-.82c1.543.013 3.322-.178 4.841.098.667-.17 1.204.012 1.611.546.62.19.802.546.551 1.071.052.156.086.712.1.777.121.632 1.085.365.963-.265-.283-1.466.815-2.693-1.222-3.05-3.385-.593-7.293-.207-10.72-.173-7.43.073-14.845.564-22.226 1.414-.247.028-.528.206-.5.5l.518 5.214c.063.635 1.063.642 1 0" mask="url(#d)"/>
        </g>
        <path fill="#071F2C" d="M337.961 7.09c.5-2.396 6.41-1.909 8.292-2.12 2.02-.229 4.025-.548 6.04-.798 1.74-.216 4.287-.824 6.04-.43.883-.227 1.453.141 1.71 1.103l-.2.968c-.004 1.22-.553 2.671-.8 3.87-.13.628.833.896.963.265.416-2.01 1.32-4.38 1.186-6.434-.016-.242-.148-.397-.367-.483-1.95-.766-4.64-.27-6.675-.07-2.64.261-5.259.711-7.897 1.008-2.696.303-8.492-.81-9.256 2.854-.13.628.832.897.964.266M298.502 164.685l-5.343 11.953c-.261.582.6 1.092.863.505l5.344-11.953c.26-.583-.601-1.092-.864-.505M304.26 153.897c2.155-.431 4.658-1.186 5.176-3.636.133-.628-.831-.896-.964-.265-.44 2.083-2.681 2.578-4.477 2.937-.63.126-.363 1.09.266.964M315.407 122.158a49.347 49.347 0 0 1-11.313 7.858c-.575.291-.07 1.155.504.865a50.308 50.308 0 0 0 11.517-8.016c.473-.437-.236-1.144-.708-.707M318.786 114.89a52.073 52.073 0 0 1-16.51 10.712c-.589.239-.331 1.207.266.964a53.39 53.39 0 0 0 16.952-10.97c.465-.445-.243-1.151-.708-.706M330.015 138.299a26.777 26.777 0 0 0 2.679 5.519c.344.541 1.21.04.863-.505a25.638 25.638 0 0 1-2.578-5.28c-.212-.602-1.178-.342-.964.266M342.49 148.218l-14.23-1.211c-.64-.055-.638.945 0 1l14.23 1.211c.641.055.638-.945 0-1M247.536 155.675a170.168 170.168 0 0 0-.774 15.361c-.018 5.014.236 9.82-.732 14.776-1.796 9.206-.97 18.978-.994 28.319 0 .644 1 .645 1 0 .024-9.96-.471-19.931 1.286-29.759.79-4.418.423-8.874.44-13.336.018-5.131.292-10.254.774-15.361.06-.641-.94-.636-1 0M194.663 228.702a10289.925 10289.925 0 0 0 267.328-4.309c.642-.018.644-1.018 0-1a10321.287 10321.287 0 0 1-267.328 4.309c-.644.002-.645 1.002 0 1M193.319 223.297L297.9 221.15c34.856-.716 69.712-1.459 104.569-2.146 19.544-.385 39.11-.589 58.62.815.643.046.64-.954 0-1-34.693-2.497-69.691-.588-104.424.124l-104.582 2.147-58.765 1.207c-.643.013-.645 1.013 0 1M213.592 215.479l.53-25.837c.019-.875-.24-1.911.545-2.478.462-.334 2.278.007 2.946.009l6.873.022 12.764.042c.644.002.645-.998 0-1l-23.565-.076a.507.507 0 0 0-.5.5l-.593 28.818c-.013.645.987.644 1 0M236.302 214.265c.094-8.498.65-16.974 1.667-25.411.077-.638-.924-.633-1 0a233.863 233.863 0 0 0-1.667 25.41c-.007.645.993.646 1 0"/>
        <path fill="#071F2C" d="M235.786 193.752a372.728 372.728 0 0 0-22.026-.322c-.642.01-.644 1.01 0 1 7.345-.11 14.688-.002 22.026.322.643.028.642-.972 0-1M214.345 200.46c3.753-.066 7.517-.132 11.246-.604 2.024-.257 3.998-.75 6.046-.542 1.414.144 2.634.413 4.06.208.633-.092.363-1.056-.267-.965-1.824.263-3.574-.41-5.398-.33-1.533.067-3.057.446-4.575.638-3.685.465-7.403.53-11.112.595-.643.011-.645 1.011 0 1M419.566 198.823c6.334.367 12.672.597 19.016.689.644.01.644-.99 0-1a437.062 437.062 0 0 1-19.016-.689c-.643-.037-.641.963 0 1"/>
        <path fill="#071F2C" d="M436.253 212.205c.523-3.86 1.606-7.46 3.066-11.064.516-1.273 2.816-5.8 1.432-7.074-.69-.634-2.164-.258-2.947-.217l-5.935.306-12.861.663c-.64.033-.644 1.033 0 1l9.893-.51c3.243-.167 6.652-.673 9.892-.51 1.445.072 1.285.476 1.016 1.813-.178.877-.473 1.74-.781 2.577-.467 1.273-1.034 2.507-1.514 3.776-1.097 2.903-1.81 5.901-2.225 8.973-.085.63.878.903.964.267"/>
        <path fill="#071F2C" d="M418.384 195.53c.125 5.483.631 10.931 1.51 16.345.101.633 1.065.365.963-.266a116.939 116.939 0 0 1-1.473-16.08c-.015-.642-1.015-.644-1 0M427.165 194.39a29.913 29.913 0 0 0-2.423-9.692c-.256-.59-1.118-.08-.863.504a28.43 28.43 0 0 1 2.286 9.188c.05.638 1.05.643 1 0"/>
        <path fill="#071F2C" d="M429.889 194.038a38.187 38.187 0 0 0-3.125-10.712c-.09-.199-.366-.283-.564-.23l-2.241.605c-.621.168-.358 1.133.265.965 1.607-.435 1.81-.673 2.503 1.08.363.914.685 1.846.969 2.788.57 1.89.959 3.816 1.229 5.77.087.634 1.05.365.964-.266M424.567 194.622a24.145 24.145 0 0 0-2.943-7.293c-.334-.55-1.2-.047-.864.505a23.26 23.26 0 0 1 2.843 7.054c.14.628 1.105.362.964-.266M422.048 194.631a68.862 68.862 0 0 0-2.345-5.77c-.269-.584-1.13-.077-.863.504a65.937 65.937 0 0 1 2.244 5.533c.213.601 1.18.342.964-.267"/>
        <path fill="#071F2C" d="M420.908 187.405l-2.002.403c-.63.127-.363 1.09.266.964l2.002-.403c.63-.126.363-1.09-.266-.964M434.08 167.485l-9.017 2.174c-.625.15-.36 1.115.267.964 3.006-.725 6.01-1.45 9.017-2.173.625-.152.36-1.115-.267-.965M431.542 194.028a85.663 85.663 0 0 0-5.098-22.986c-.222-.598-1.189-.34-.964.265a84.706 84.706 0 0 1 5.062 22.72c.052.638 1.052.644 1 0"/>
        <path fill="#071F2C" d="M437.526 193.866a185.562 185.562 0 0 0-3.176-25.189c-.124-.63-1.088-.365-.965.265a183.463 183.463 0 0 1 3.141 24.924c.036.64 1.037.644 1 0M438.295 187.59c.576-1.406 1.16-2.809 1.755-4.206.248-.585.47-1.197.775-1.755.13-.23.273-.455.426-.672.628-.359.935-.126.919.7-.205.612.76.873.964.266.403-1.202-.992-2.847-2.243-2.046-.896.572-1.32 2.098-1.705 3.002a374.968 374.968 0 0 0-1.855 4.444c-.244.596.723.855.964.266"/>
        <path fill="#071F2C" d="M442.22 181.537a44.905 44.905 0 0 0-5.309 11.802c-.177.62.788.885.965.265a43.888 43.888 0 0 1 5.207-11.562c.347-.544-.518-1.047-.863-.505M431.99 172.12c-.134.01-.267.02-.399.028-.639.045-.644 1.045 0 1l.398-.028c.638-.045.644-1.045 0-1M432.965 175.124c-.133 0-.267-.003-.4-.004-.644-.005-.644.995 0 1l.4.004c.644.005.644-.995 0-1M433.345 177.73l-.4-.003c-.644-.005-.645.995 0 1l.4.003c.644.006.644-.994 0-1M434.321 180.741l-.4-.003c-.644-.006-.645.994 0 1l.4.003c.644.005.644-.995 0-1M434.362 183.676c-.017.006-.203-.101-.248-.115a.802.802 0 0 0-.4-.033.613.613 0 0 0-.524.509c-.089.533.447.869.898.645.576-.286.07-1.15-.505-.863l-.055.028h.504l.122.448c-.1.076-.2.152-.299.23.01-.003.263.129.318.142a.738.738 0 0 0 .455-.027c.607-.205.346-1.171-.266-.964M434.477 186.149l-.2-.001c-.644-.006-.645.994 0 1h.2c.644.007.644-.993 0-1M434.98 188.795c-.489-.15-.907-.028-1.297.283-.503.402.21 1.105.707.707a.286.286 0 0 1 .324-.026c.617.188.88-.777.266-.964M434.835 191.358l-.4-.003c-.644-.005-.644.995 0 1l.4.003c.644.006.644-.994 0-1M223.855 142.84c1.267.346 2.931.653 3.778-.664.245-.383.3-.717.31-1.15.02-.837-.73-.285.12-1.645.2-.32.636-.577.865-.892.511-.702 1.004-2.035.405-2.834-.316-.42-.898-.503-1.368-.632-1.07-.296-2.144-.578-3.215-.867-.623-.167-.888.798-.266.965 1.056.284 2.188.49 3.215.865 1.601.587.51 1.771-.344 2.688-.386.414-.598.74-.743 1.283-.046.168.077.382.076.545-.02 2.012-.935 1.82-2.567 1.372-.622-.17-.887.794-.266.965"/>
        <path fill="#071F2C" d="M221.493 100.64c-.795 1.65-.458 3.866 1.15 4.892l-.18-.684c-.938 1.395-2.97.625-3.649 2.432-.267.71.13 1.51-.073 2.188-.528 1.755-1.864 1.119-2.696 2.157-1.078 1.344.666 2.614-.92 3.773-1.252.915-2.283 1.352-1.72 3.159.234.75.767 1.313 1.274 1.878 1.14 1.269 1.822 1.235 1.203 3.872-.06.256-.346.447-.388.713-.263 1.656-.08 2.025 1.336 2.948 1.054.686 1.524 1.227 1.547 2.545.023 1.272 1.853.992-1.159 2.573-.189.1-.61.046-.734.108-1.266.63-1.937 1.055-1.803 2.638.146 1.757.768 2.6-.128 4.465-.395.82-.83 1.16-.862 2.084-.058 1.763 1.112 2.34-.37 4.335-.516.696-1.049.805-1.269 1.696-.309 1.246.44.822-.843 1.47-.923.469-.825.076-1.76.196-.852.108-1.618.193-2.353.682-1.728 1.15-1.16 2.299-1.124 3.958.048 2.117-2.212 3.38-2.55 5.51-.145.912-.572 3.006.404 3.636.791.509 1.651-.264 2.232-.734.451-.364 1.596-1.83 2.105-1.83-.399 0-.566 1.794-.46 2.323.31 1.559 2.404 1.864 3.573 2.498 2 1.083.59 2.042.861 3.547.124.69.824 1.359 1.241 1.869 1.562 1.918 3.227 4.415 5.742 5.152 2.607.764 5.804-.648 8.298-1.285.623-.16.36-1.124-.265-.964-3.487.89-7.173 2.548-10.183-.27-.957-.895-1.76-1.96-2.586-2.974-.7-.86-1.24-1.31-1.11-2.447.048-.423.355-.88.31-1.334-.133-1.343-1.4-1.964-2.49-2.461-.827-.377-2.136-.644-2.386-1.714-.082-.356.134-.882.164-1.26.043-.533.158-1.021-.139-1.492a.503.503 0 0 0-.432-.247c-.565.022-.957.429-1.373.775-.474.393-.9.842-1.375 1.233-1.034.855-1.195.449-1.232-.772-.068-2.186 1.29-3.075 2.331-4.7.612-.955.336-1.592.193-2.642-.348-2.556 2.002-3 4.058-2.936.434.012.731.133 1.141-.003.828-.277.82-.788.997-1.553.26-1.112.451-1.521 1.217-2.424.256-.302.548-.524.72-.902.617-1.36-.39-2.578-.287-3.936.106-1.393 1.512-2.183 1.597-3.62.122-2.06-1.577-4.032 1.6-4.753 2.603-.592 2.275-2.661 1.63-4.857-.193-.654-.35-1.001-.91-1.418-.36-.271-.953-.33-1.273-.628-.942-.88-.449-1.926-.2-3.018.251-1.095.335-1.766-.309-2.778-.328-.516-.79-.907-1.2-1.35-.303-.326-.854-.771-1.01-1.187-1.039-2.75.381-1.92 1.255-2.626.68-.55 1.223-.651 1.251-1.636.005-.171-.128-.344-.113-.511-.327-.5-.234-.96.277-1.377.061-.506.296-.807.705-.902.315-.246.765-.294 1.075-.596 1.11-1.082.295-2.54 1.232-3.688.866-1.064 2.238-.908 3.028-2.084.155-.231.038-.546-.179-.684-1.11-.708-1.315-2.434-.79-3.522.278-.577-.584-1.085-.864-.505M203.762 228.818c.761 1.509 1.37 4.052 3.076 4.649 1.35.473 3.433.175 4.86.238l5.38.234 4.891.213c1.341.058 3.222.507 4.52.147.59-.163.745-.314 1.126-.85.336-.472.567-1.601.782-1.997.571-1.048 1.4-1.828 2.382-2.492.53-.36.03-1.225-.505-.864-1.493 1.01-2.239 2.129-3.115 3.645-1.01 1.745-1.752 1.56-3.723 1.474l-4.403-.191-8.314-.362c-1.24-.054-3.224.246-4.225-.643-.795-.706-1.375-2.726-1.869-3.706-.289-.574-1.153-.07-.863.505M428.187 226.012c1.236 1.322 1.958 2.785 2.294 4.55.04.208.277.373.482.367 5.641-.178 11.284-.342 16.924-.531 1.513-.051 3.286.048 4.486-1.052 1.231-1.127 1.038-3.374 2.64-4.12.581-.271.074-1.133-.506-.862-1.613.75-1.545 2.476-2.598 3.723-1.26 1.494-3.15 1.283-5.017 1.342l-4.978.156c-2.956.093-6.006.41-8.959.28-1.787-.077-1.547-.477-2.209-1.922-.458-1-1.107-1.841-1.852-2.638-.44-.471-1.146.237-.707.707M339.175 195.513a203.707 203.707 0 0 1-34.522 11.742c-.625.153-.36 1.116.266.965a205.092 205.092 0 0 0 34.76-11.843c.588-.26.08-1.123-.504-.864M297.2 201.479c12.039.85 23.218-4.403 34.839-6.575.632-.118.364-1.082-.266-.964-11.532 2.155-22.627 7.382-34.573 6.539-.642-.046-.64.955 0 1M231.893 121.827c2.68-1.367 1.968 2.435 2.913 3.542 1.131 1.326 3.494-.41 3.67 2.136.044.638 1.044.643 1 0-.059-.848-.17-1.857-.916-2.399-.449-.326-.87-.265-1.379-.309-.626-.054-.997.551-1.702-.186-.253-.264-.203-.992-.24-1.305-.244-1.966-1.89-3.342-3.85-2.342-.574.293-.069 1.155.504.863"/>
        <path fill="#071F2C" d="M221.87 121.018c1.086-.59 1.561-1.448 2.323-2.354.725-1.354 1.785-1.618 3.181-.791.12.187.267.344.439.472.259.07.499.293.792.286.327-.008.636-.281.923-.406 1.499-.653 2.687-.543 4.182-.116 1.035.295 1.627.507 2.616-.007.571-.297.066-1.16-.504-.863-1.586.823-3.167-1.324-4.933-.936-.644.142-1.323.994-1.866 1.058-.976.115-1.032-.507-1.677-.88-2.667-1.54-4.241 2.73-5.981 3.673-.566.306-.061 1.17.505.864M235.06 112.153c1.167-1.002-.396-2.247-1.297-2.637-1.766-.765-3.743-.74-5.521-.04-.593.234-.335 1.2.265.965.917-.362 1.848-.555 2.84-.49.209.015 3.777.834 3.007 1.496-.49.42.22 1.124.707.706M230.485 108.498c1.279-.182 1.632-1.868.799-2.735-1.177-1.224-2.91-.528-4.16.154-.564.31-.06 1.173.506.863.694-.379 1.526-.867 2.349-.647.663.177 1.21 1.263.24 1.401-.634.09-.364 1.054.266.964M226.366 100.057c-.4-1.404 1.307-1.845 2.182-1.794.701.042 1.303.313 1.848.732 1.034.794 1.635 1.98 2.13 3.16.244.584 1.212.327.963-.267-.85-2.028-2.117-4.2-4.49-4.574-1.784-.282-4.202.889-3.597 3.009.176.617 1.141.354.964-.266"/>
        <path fill="#071F2C" d="M232.734 104.622c2.852-1.163 6.07 1.597 4.032 4.624-.225.333.078.732.431.752.873.047 1.385 2.313 1.99 2.975.332.363.774.568 1.223.763 1.12.486 1.987.795 2.21 2.214.247 1.58-.634 3.49-1.407 4.79-.329.555.536 1.06.864.505 1.004-1.69 2.881-6.179.743-7.747-.407-.299-1.065-.357-1.522-.513-1.436-.49-1.444-1.349-2.118-2.493-.53-.899-.885-1.434-1.983-1.494l.432.752c2.393-3.553-1.314-7.66-5.16-6.092-.589.24-.33 1.207.265.964M213.185 158.242c2.322-1.588 3.648-.173 5.103 1.45.39.435.56.774 1.182.9.986.2 1.709-.6 2.612-.753 1.657-.28 3.656 2.003 4.867 2.962.498.395 1.21-.308.706-.707-1.24-.982-2.867-2.905-4.474-3.29-1.594-.384-2.76 1.363-4.154.133-.973-.86-1.177-1.81-2.654-2.216-1.313-.36-2.585-.099-3.694.658-.528.36-.028 1.227.506.863"/>
        <path fill="#071F2C" d="M219.52 167.87c.843-.664 2.059-1.507 3.135-1.743 1.28-.28 1.413.077 2.427.62.617.33.807.566 1.539.63 1.027.088 2.01-.393 2.869-.894 1.693-.987 2.492-1.487 4.619-1.468 4.227.04 3.76-5.513 1.877-7.875-.402-.502-1.105.21-.707.708 1.016 1.274 1.859 3.638.712 5.156-1.162 1.538-2.423.696-3.758.905-1.708.268-2.77 1.905-4.397 2.285-1.732.404-2.925-1.504-4.702-1.239-1.596.238-3.086 1.235-4.321 2.207-.505.397.207 1.102.707.707M228.769 153.193c1.443-.895 4.363-2.331 5.302.022.115.29.433.482.734.299 1.517-.917 2.589.088 4.049.283.443.058.935-.206 1.35-.15 1.832.253 2.365 1.149 2.26 2.803-.04.642.96.64 1 0 .109-1.715-.134-3.682-2.171-3.93-.6-.072-.766.172-1.356.164-2.731-.038-1.175-.58-2.605-.746-1.25-.144-1.87.01-3.031.713l.734.299c-1.25-3.133-4.575-1.983-6.771-.62-.546.339-.044 1.204.505.863M241.873 136.937c.656-1.315 2.165-3.044 1.121-4.584-.922-1.36-2.598-.663-3.709.01l.684.685c.384-.712 1.404-1.874 1.013-2.73-.419-.917-2.01-1.098-2.85-1.036-2.789.204-4.338 2.67-5.232 5.047-.227.602.74.863.964.265.557-1.48 1.328-3.045 2.771-3.845.633-.352 1.986-.825 2.642-.384.852.57.145 1.592-.172 2.178-.23.428.244.952.685.684a4.973 4.973 0 0 1 1.268-.62c1.19.273 1.545.808 1.067 1.6-.119.798-.763 1.518-1.115 2.225-.286.574.575 1.08.863.505M225.577 151.2c-.175-1.403-1.022-3.775-2.715-3.963-1.402-.155-1.792 1.447-1.842 2.532l.932-.252c-.934-1.309-2.809-2.685-3.995-.782-1.214 1.95.578 3.69 2.023 4.802.509.392 1.008-.476.504-.864-.761-.586-1.76-1.327-1.885-2.35-.051-.425.045-1.316.577-1.446.785-.193 1.528.607 1.913 1.145.284.4.908.266.931-.253.035-.765.235-1.949 1.343-1.126.733.546 1.108 1.71 1.214 2.556.079.63 1.08.638 1 0"/>
        <path fill="#071F2C" d="M243.187 143.46c-.72 1.122-1.845 2.797-1.47 4.22.165.623.549.967 1.106 1.26 1.16.607 2.046.811 2.647 2.16 2.1 4.714-2.927 5.195-4.771 8.495-.397.711-.658 1.492-.541 2.317.217 1.542 1.758 2.177 1.356 3.753-.387 1.514-1.451 1.143-2.468 2.012-.401.344-.645.681-.692 1.211-.035.385.088.617.217 1.014.162.387.34.767.534 1.14.078 2.341-.761 3.293-2.517 2.857-1.592-.02-1.485-.379-2.702-1.092-.376-.22-.651-.367-1.05-.49-4.182-1.279-6.582 3.591-4.11 6.665l.22-.835c-3.887.613-7.676.15-11.321-1.32-.596-.24-.855.727-.265.964 3.832 1.545 7.776 1.962 11.852 1.32.412-.065.428-.579.22-.836-1.306-1.626-1.106-4.152 1.17-4.978 1.199-.435 2.329.152 3.333.82.72.48 1.279.985 2.182 1.101 1.575.203 3.134-.627 3.763-2.098.228-.533.32-1.11.279-1.687-.036-.51-.333-.926-.373-1.397-.108-1.257.112-1.544 1.025-2.14 1.036-.68 2.285-.916 2.234-2.449-.03-.912-.75-1.47-1.16-2.205-1.463-2.623.323-4.148 2.163-5.607 1.39-1.103 3.164-2.46 3.304-4.402.1-1.395-1.174-3.702-2.215-4.512-.741-.577-2.213-.46-2.471-1.62-.204-.916.9-2.384 1.384-3.136.349-.544-.516-1.046-.863-.505"/>
        <path fill="#071F2C" d="M226.335 179.783a36.616 36.616 0 0 0-.893 5.7c-.05.642.95.64 1 0 .143-1.836.43-3.642.857-5.433.15-.626-.815-.893-.964-.267M223.347 179.863a36.665 36.665 0 0 1-.264 6.063c-.08.637.92.63 1 0 .256-2.016.343-4.032.264-6.063-.025-.642-1.025-.645-1 0M211.502 234.147c-.847 18.684-1.832 37.333-1.087 56.039.744 18.706 2.29 37.446.452 56.14-.063.639.937.634 1 0 1.838-18.694.292-37.435-.452-56.14-.745-18.706.24-37.355 1.087-56.04.03-.643-.97-.642-1 0M221.921 234.671a710.688 710.688 0 0 1-2.17 57.4c-.746 9.462-1.367 18.671-.664 28.162.691 9.348 1.76 18.688.817 28.06-.064.64.936.635 1 0 .927-9.212-.09-18.394-.782-27.583-.727-9.656-.13-19.01.63-28.64a710.688 710.688 0 0 0 2.17-57.399c-.002-.644-1.002-.645-1 0M433.748 232.457c-.252 9.376-.586 18.755-.747 28.134-.078 4.557.31 9.011.821 13.533.515 4.557.518 9.017.216 13.591-1.244 18.843.112 37.473 1.834 56.242.059.635 1.059.642 1 0-1.722-18.769-3.078-37.399-1.834-56.242.302-4.575.302-9.032-.216-13.59-.515-4.526-.899-8.975-.821-13.534.161-9.379.495-18.758.747-28.134.017-.645-.983-.644-1 0M445.953 231.639c-1.507 9.363-3.447 18.773-3.429 28.293.019 9.69 1.331 19.322 1.295 29.022-.072 19.437-.807 38.89-1.237 58.323-.014.643.986.643 1 0 .422-19.112 1.084-38.236 1.232-57.351.074-9.537-1.112-18.99-1.274-28.514-.169-9.948 1.803-19.727 3.377-29.507.102-.63-.862-.901-.964-.266M263.911 188.603l-2.726 1.528c-.561.315-.058 1.179.505.864l2.725-1.53c.562-.313.058-1.177-.504-.862M265.886 184.754l-11.322 5.651c-.575.287-.07 1.151.505.864l11.322-5.652c.576-.287.07-1.15-.505-.863M262.537 181.564a29.278 29.278 0 0 0-6.841 3.95c-.508.394.204 1.097.707.708a27.443 27.443 0 0 1 6.4-3.693c.587-.241.33-1.21-.266-.965M259.963 181.748c.644 0 .645-1 0-1-.644 0-.645 1 0 1M276.4 161.008l-1.96 2.695c-.38.522.486 1.021.862.505l1.962-2.696c.38-.521-.489-1.021-.864-.504M325.263 163.145a16.383 16.383 0 0 1 2.984 4.575c.258.588 1.12.079.864-.505a17.22 17.22 0 0 0-3.141-4.777c-.438-.474-1.144.235-.707.707M331.408 85.251c-1.417-.4-2.834-.804-4.25-1.205-.622-.176-.887.788-.268.964 1.417.402 2.835.803 4.252 1.206.62.176.885-.789.266-.965M329.764 82.32c.644 0 .645-1 0-1-.644 0-.645 1 0 1M430.251 44.878a22.015 22.015 0 0 0-5.214-9.126c-.443-.469-1.15.24-.707.707a20.895 20.895 0 0 1 4.957 8.685c.177.617 1.143.354.964-.266M435.713 36.942a3.788 3.788 0 0 0-1.84-3.126c-.554-.333-1.056.53-.506.863a2.756 2.756 0 0 1 1.346 2.263c.026.642 1.026.645 1 0M222.532 80.412a38.565 38.565 0 0 0-4.663-9.056c-.365-.524-1.233-.024-.864.505a37.476 37.476 0 0 1 4.563 8.818c.215.6 1.182.341.964-.267M212.118 79.518c-1.293-.515-2.586-1.028-3.88-1.542-.597-.238-.856.729-.265.964l3.879 1.542c.598.238.858-.73.266-.964M188.33 202.643l-14.376 4.146c-.617.178-.353 1.144.266.965l14.375-4.146c.618-.18.356-1.144-.266-.965M187.36 196.053a29.274 29.274 0 0 0-9.449 1.485c-.608.201-.347 1.167.266.964a28.471 28.471 0 0 1 9.182-1.449c.644.005.645-.995 0-1M184.306 190.214a4.302 4.302 0 0 0-2.586.817c-.515.375-.017 1.244.505.864a3.396 3.396 0 0 1 2.081-.68c.644.005.645-.995 0-1M426.656 153.843c.01-1.292.02-2.584.032-3.875.005-.645-.995-.645-1 0l-.032 3.875c-.005.644.995.645 1 0M431.74 146l-.76-1.944c-.232-.593-1.199-.335-.965.265l.76 1.945c.232.592 1.2.335.964-.266M453.95 180.121a9.202 9.202 0 0 0-3.229-8.174c-.488-.413-1.199.291-.707.707 2.224 1.878 3.28 4.58 2.935 7.467-.076.638.924.632 1 0M456.894 173.156c-.051-1.888-.925-3.535-2.422-4.674-.512-.39-1.01.478-.504.863 1.204.917 1.885 2.305 1.926 3.811.017.643 1.017.645 1 0"/>
        <path fill="#071F2C" d="M442.246 347.435c-1.682-.111-4.827 1.87-6.071.128-.371-.52-1.239-.021-.864.505 1.764 2.47 4.656.217 6.935.367.643.042.64-.958 0-1M210.667 349.064c-.288 2.372 2.366 2.948 4.204 3.097 2.292.184 4.666-.558 5.64-2.795.254-.584-.607-1.094-.864-.505-.637 1.464-1.964 2.19-3.525 2.319-1.25.103-4.709-.02-4.455-2.116.077-.638-.923-.632-1 0M404.543 202.628c4.53 2.861 10.277 1.84 14.84 4.59.553.332 1.056-.532.505-.864-4.574-2.756-10.325-1.738-14.84-4.589-.546-.345-1.048.52-.505.863M236.285 207.248a110.517 110.517 0 0 1 9.051-3.999c.593-.23.335-1.198-.266-.964a113.615 113.615 0 0 0-9.29 4.1c-.577.286-.071 1.148.505.863M356.504 238.166c-1.222 4.062-2.478 8.116-3.666 12.19-1.101 3.774-1.276 7.04-.87 10.943.418 4.03-.152 7.893-.61 11.891a37.909 37.909 0 0 0 .23 10.493c.656 4.088 1.227 8.07 1.156 12.224-.07 4.117-.501 8.217-.645 12.331-.066 1.893-.096 3.794.025 5.685.067 1.034.03 2.372.847 3.17 1.707 1.664 5.878 1.055 7.946.772.634-.088.364-1.05-.266-.965-1.122.155-2.215.24-3.343.2-1.471-.053-2.29-.064-3.293-1.25-1.298-1.538-.988-3.746-.964-5.715.043-3.486.352-6.959.543-10.437.19-3.467.272-6.948-.121-10.404-.37-3.256-1.181-6.455-1.391-9.73-.217-3.366.339-6.69.734-10.02.408-3.452.262-6.653-.06-10.099-.657-7.04 2.712-14.366 4.712-21.013.186-.619-.778-.882-.964-.266"/>
        <path fill="#071F2C" d="M295.51 252.41c19.158.854 38.52.588 57.643-.847.637-.048.643-1.048 0-1-19.124 1.435-38.485 1.701-57.643.847-.643-.028-.642.972 0 1M354.644 243.439c-5.611-.098-11.193.624-16.803.548-5.096-.07-10.163.038-15.249.405-9.018.65-18.024 2.07-27.082 1.932-.643-.01-.643.99 0 1 9.058.139 18.064-1.281 27.082-1.932 4.923-.355 9.835-.492 14.769-.414 5.77.092 11.512-.64 17.283-.54.644.012.644-.988 0-1M296.144 255.865c4.143-.127 8.295-.009 12.438.036 2.071.024 4.142.048 6.212.03 2.75-.023 7.267-.816 8.02 2.792.132.63 1.096.363.965-.266-1.039-4.981-8.203-3.506-11.898-3.526-5.242-.028-10.495-.228-15.737-.067-.642.02-.645 1.021 0 1M329.237 258.324l-.028.162c-.108.625.835.902.965.266.29-1.42 2.87-1.507 4.037-1.828 1.713-.47 3.241-.847 5.015-1.079 4.223-.555 8.432-.959 12.694-.695.643.04.64-.96 0-1-5.077-.314-10.543.024-15.522 1.125-1.646.364-3.323.82-4.949 1.254-1.112.296-2 .78-2.24 1.957.321.09.643.178.965.266l.027-.162c.11-.63-.855-.9-.964-.266"/>
        <path fill="#071F2C" d="M322.833 259.423c2.25.536 4.503.56 6.766.078.63-.134.362-1.099-.266-.965-2.09.446-4.156.417-6.234-.078-.626-.148-.893.816-.266.965"/>
        <path fill="#071F2C" d="M322.371 259.084a173.027 173.027 0 0 1 .203 36.296c-.064.64.937.636 1 0a173.027 173.027 0 0 0-.203-36.296c-.07-.632-1.071-.64-1 0M329.326 259.371a580.118 580.118 0 0 1-.658 44.998c-.035.644.966.642 1 0a580.118 580.118 0 0 0 .658-44.998c-.016-.642-1.016-.645-1 0"/>
        <path fill="#071F2C" d="M328.003 293.809c-1.68.098-5.37-.155-6.196 1.673-.448.99-.158 3.003-.141 4.057.03 2.008.185 4.005.416 5.999.073.63 1.073.639 1 0a59.36 59.36 0 0 1-.42-7.288c.01-1.27-.22-2.38 1.085-2.922 1.229-.511 2.94-.442 4.256-.52.64-.036.644-1.036 0-1"/>
        <path fill="#071F2C" d="M322.608 306.956c2.012.124 4.017.103 6.026-.064.637-.053.642-1.054 0-1a41.652 41.652 0 0 1-6.026.064c-.643-.04-.64.96 0 1M294.668 316.1a51.57 51.57 0 0 0-1.693 5.854c-.257 1.16-.24 4.696-1.137 5.586-.35.35-2.008.36-2.588.438-2.296.306-3.323-1.193-3.709-3.177-.387-1.983-.803-3.961-1.174-5.947-.118-.632-1.082-.364-.965.266.482 2.577.606 6.084 1.808 8.424.885 1.723 2.617 1.628 4.306 1.398 1.702-.233 3.101-.021 3.597-1.697.548-1.851.567-3.971 1.022-5.874a51.288 51.288 0 0 1 1.497-5.005c.213-.61-.753-.87-.964-.266M353.347 317.326c-.131 2.766-.485 5.622-.397 8.39.058 1.82 1.467 1.55 3.07 1.555 1.294.003 4.245.136 5.287-.884.626-.614.576-1.82.686-2.61l.595-4.31c.087-.63-.876-.903-.964-.267-.228 1.65-.306 3.41-.695 5.03-.336 1.401-.835 1.67-2.186 1.853-.905.122-1.81.19-2.722.188-.881-.002-1.708.085-2.054-.92-.246-.717.102-2.153.138-2.919l.242-5.106c.03-.644-.97-.643-1 0"/>
        <path fill="#071F2C" d="M320.227 315.587c11.941-2.522 22.78 4.322 33.399 8.644.596.243.855-.725.266-.964-10.837-4.41-21.753-11.216-33.931-8.645-.629.133-.363 1.098.266.965M295.748 326.4c6.804-3.877 13.721-8.805 21.391-10.744.623-.158.36-1.122-.266-.964-7.77 1.965-14.743 6.92-21.63 10.846-.559.318-.056 1.182.505.863M294.516 320.27a1092.43 1092.43 0 0 1 27.632-15.298c.568-.304.063-1.167-.505-.863a1091.03 1091.03 0 0 0-27.632 15.298c-.558.32-.055 1.184.505.863M329.026 304.751a189.335 189.335 0 0 1 22.996 10.545c.566.307 1.07-.556.505-.863a191.113 191.113 0 0 0-23.235-10.647c-.602-.228-.863.738-.266.965M331.077 271.86l9.14.39c.643.028.642-.972 0-1l-9.14-.39c-.644-.027-.642.973 0 1"/>
        <path fill="#071F2C" d="M339.972 269.322c-.004 1.51-.01 3.02-.013 4.53-.001.313.322.586.633.484 1.02-.339 2.049-.514 3.129-.434.74.057 1.527.413 2.275.363 1.245-.08 1.18-1.178 1.23-2.157.047-.928.622-3.091-.26-3.762-.46-.35-1.203-.21-1.73-.212l-3.307-.02c-.644-.004-.645.996 0 1 1.23.008 2.559-.126 3.78.023.336.04.474-.072.656.26.088.163-.037.713-.047.904-.034.678-.07 1.355-.103 2.033-.04.782-.285.962-1.052.79a9.516 9.516 0 0 0-1.442-.222c-1.161-.08-2.295.105-3.395.469.21.16.422.32.633.482l.013-4.531c.002-.644-.998-.646-1 0M291.086 288.386c.22 5.142 1.82 10.038 1.183 15.227-.079.636.922.63 1 0 .64-5.206-.962-10.07-1.183-15.227-.028-.641-1.028-.645-1 0M357.55 311.766c1.912-3.128 4.861-5.941 5.087-9.796.038-.643-.962-.641-1 0-.21 3.607-3.16 6.362-4.952 9.292-.336.55.528 1.053.864.504M362.952 230.612l-4.647 3.266c-.522.367-.023 1.234.505.863l4.647-3.267c.522-.367.023-1.233-.505-.862M362.208 230.813c.398-1.08-1.207-1.267-1.887-1.428l-6.455-1.53c-.626-.147-.893.816-.266.965.645.153 7.546 1.993 7.644 1.727-.223.605.743.866.964.266M361.036 325.125a124.516 124.516 0 0 1 12.655 7.64 118.952 118.952 0 0 1 6.732 5.003c1.109.885 1.825 1.547 1.869 3.075.043 1.483-.734 1.828-1.995 2.45-1.407.694-2.728 1.36-4.305 1.425-1.732.07-3.131-.947-4.615-1.772a382.08 382.08 0 0 1-13.33-7.758c-1.376-.838-2.983-1.583-3.829-3-1.165-1.95-.372-3.975.483-5.908.258-.583-.603-1.093-.864-.505-1.028 2.324-2.057 5.04-.367 7.313 1.719 2.311 5.264 3.697 7.677 5.132a389.123 389.123 0 0 0 10.134 5.817c2.919 1.617 4.542 2.308 7.712.954 1.921-.82 4.023-1.252 4.262-3.536.271-2.59-.881-3.419-2.827-4.952-5.909-4.656-12.235-8.732-18.887-12.242-.569-.3-1.075.563-.505.864M291.104 328.537a147.116 147.116 0 0 1-4.571 13.915c-.81 2.096-1.507 4.773-2.765 6.644-1.57 2.333-5.594 2.443-8.145 2.377-2.114-.054-4.915-.133-4.375-3.502.17-1.07 1.34-2.52 1.854-3.485 1.08-2.033 2.162-4.065 3.243-6.098 2.137-4.017 4.04-9.194 8.282-11.424.57-.3.065-1.163-.504-.865-5.157 2.713-7.456 9.555-10.031 14.398l-2.55 4.791c-.58 1.093-1.597 2.427-1.76 3.697-.222 1.755 1.214 2.613 2.702 3.048 2.637.773 5.445.396 8.1-.079 2.986-.534 3.593-1.272 4.784-4.03 2.68-6.21 4.902-12.6 6.7-19.12.172-.622-.793-.887-.964-.267M367.79 315.433c20.399-.756 40.818.03 61.098 2.354.638.073.633-.928 0-1a404.868 404.868 0 0 0-61.097-2.354c-.642.023-.645 1.023 0 1M1047.508 321.918c-36.676-.073-73.352-.365-110.025-.735-50.29-.508-100.578-1.17-150.866-1.768-49.186-.585-98.372-1.123-147.56-1.35-28.106-.128-56.19 2.2-84.288 1.591-14.536-.314-28.922-2.169-43.398-3.354-14.539-1.19-29.113-1.975-43.698-2.248a609.994 609.994 0 0 0-21.43-.019c-.644.011-.646 1.011 0 1 29.18-.477 58.19 1.481 87.207 4.376 28.931 2.888 57.971.211 86.944-.302 24.312-.43 48.673.115 72.987.323 24.873.213 49.746.478 74.618.764 50.37.581 100.738 1.251 151.108 1.794 42.777.462 85.557.83 128.338.916.008-.33.027-.659.063-.988M1197.835 320.197c-18.562.621-37.132 1.019-55.704 1.279.342.303.665.635.98.988 13.936-.204 27.871-.483 41.804-.87 4.307-.12 8.613-.252 12.92-.397.642-.02.645-1.02 0-1M1111.22 321.794c-10.783.073-21.567.115-32.35.136-1.047.002-2.096-.003-3.144 0 .309.322.593.658.854 1.005 11.57-.015 23.14-.059 34.709-.139a9.58 9.58 0 0 1-.07-1.002M206.351 315.947c-12.802.572-25.608 1.149-38.425 1.216-6.429.034-12.859-.23-19.283.072-6.199.29-12.374.935-18.546 1.563-12.3 1.252-24.512 1.918-36.878 1.53-12.158-.38-24.28-1.421-36.42-2.114-13.812-.79-27.658-1.053-41.435.42-.634.068-.64 1.07 0 1 24.38-2.606 48.723.441 73.091 1.513 12.293.541 24.508.326 36.758-.86 6.344-.613 12.678-1.342 19.036-1.79 6.237-.442 12.438-.37 18.684-.336 14.482.084 28.954-.567 43.418-1.214.641-.029.645-1.029 0-1M328.368 227.722a33.327 33.327 0 0 0-1.77 8.266c-.055.64.946.637 1 0a32.27 32.27 0 0 1 1.734-8c.215-.608-.75-.87-.964-.266M323.099 229.353a20.98 20.98 0 0 0 .048 7.968c.125.63 1.089.364.964-.266a19.6 19.6 0 0 1-.048-7.436c.115-.63-.847-.9-.964-.266M356.288 239.825c-7.353-1.492-15.002-4.33-21.538-8.003-.563-.315-1.067.548-.505.864 6.613 3.714 14.349 6.596 21.777 8.103.63.128.898-.836.267-.964M289.31 247.755c.117 2.204-2.758 4.081-3.96 5.733-1.196 1.644-1.868 3.42-1.965 5.453-.031.643.969.641 1 0 .139-2.91 1.744-5.043 3.686-7.076 1.163-1.218 2.334-2.317 2.239-4.11-.034-.64-1.034-.644-1 0M373.332 244.147c-1.986 2.666-4.801 4.43-8.046 5.12-.628.135-.363 1.1.267.965 3.517-.75 6.498-2.702 8.642-5.58.385-.517-.483-1.016-.863-.505M367.726 235.34a22.2 22.2 0 0 0-2.964 8.915c-.072.64.93.634 1 0a20.987 20.987 0 0 1 2.827-8.41c.329-.555-.536-1.059-.863-.505M292.655 321.592c-1.941 1.562-4.385 2.116-6.811 1.576-.627-.139-.895.824-.266.964 2.802.624 5.552-.035 7.784-1.833.5-.403-.21-1.106-.707-.707M354.023 322.49c2.483.974 5.068.89 7.513-.148.59-.25.082-1.111-.504-.863-2.203.934-4.528.915-6.743.046-.6-.236-.86.732-.266.965M324.964 298.263c-.054.452-.002.886.148 1.315.213.603 1.18.344.965-.265a2.22 2.22 0 0 1-.113-1.05c.076-.638-.924-.632-1 0M245.073 209.708c-1.546.286-3.018.864-4.31 1.77-.827.577-2.057 1.401-1.677 2.561.2.61 1.165.35.964-.266-.263-.803 1.731-1.797 2.307-2.1.942-.497 1.94-.808 2.982-1 .631-.118.364-1.082-.266-.965M417.718 212.135l.031.058c.132.248.451.297.684.179l.08-.041c.283-.143.328-.574.101-.785-.827-.772-2.433-.983-3.482-1.378a89.35 89.35 0 0 1-5.345-2.22c-.582-.264-1.09.598-.505.863a96.143 96.143 0 0 0 4.05 1.728c.713.284 1.43.558 2.15.823.646.237 1.922.42 2.425.891l.102-.785-.08.041.684.179-.032-.058c-.3-.568-1.165-.064-.863.505M386.497 272.245a59.814 59.814 0 0 1 10.025 4.836c.553.333 1.056-.532.505-.863a61.203 61.203 0 0 0-10.264-4.937c-.604-.224-.865.741-.266.964M386.863 280.235l3.833 2.833c.518.383 1.018-.484.505-.863l-3.833-2.833c-.518-.383-1.018.484-.505.863M385.773 284.48l.832 1.002c.412.495 1.115-.215.707-.707l-.832-1.001c-.412-.496-1.116.215-.707.707M325.631 309.97a27.194 27.194 0 0 0 .067 3.84c.056.637 1.057.643 1 0a27.194 27.194 0 0 1-.067-3.84c.034-.643-.966-.641-1 0M229.913 140.785c.367-.448 1.401-1.64 2.055-1.449 1.086.316.067 2.095-.22 2.615-.19.347.136.906.565.734.306-.122 1.72-.913 1.995-.796.707.3.305 1.512.311 2.06.014 1.114.38 2.125.966 3.058.343.543 1.207.042.863-.505-.84-1.336-.79-2.383-.659-3.885.047-.52.082-1.018-.292-1.436-.87-.973-2.562.186-3.45.541l.565.734c.513-.935 1.518-3.154.279-3.979-1.2-.798-2.998.763-3.684 1.601-.404.494.299 1.205.707.707M238.798 141.968c.167-2.227 3.798-3.216 5.484-3.829l-.615-.35c-.08.407-.162.812-.243 1.217-.256.376.166.835.564.734.657-.164 1.772-.691 2.44-.612 1.38.164.833 1.729.524 2.702-.195.616.77.878.965.267.342-1.082.943-3.132-.32-3.914-.97-.602-2.934.357-3.874.594l.564.734c.452-.663.531-1.212.344-1.987-.06-.248-.367-.44-.615-.35-2.313.843-5.999 1.873-6.218 4.794-.048.643.952.64 1 0M213.69 126.39c-.901-.556-2.737-1.511-3.726-.623-.994.892-.225 2.176.439 2.968l.487-.836c-1-.2-2.878-1.585-3.516.048-.532 1.359.984 2.959 2 3.602.546.346 1.048-.52.506-.863-.604-.382-1.9-1.494-1.34-2.245.38-.51.734-.106 1.21.122.288.137.56.237.874.3.504.1.81-.45.486-.835a2.224 2.224 0 0 1-.62-1.103c.237-.497.582-.631 1.035-.402.603.144 1.138.409 1.66.73.55.34 1.053-.525.506-.862M211.448 139.179c-.632-1.096-2.106-2.394-3.504-2.1-1.682.353-.359 2.505.135 3.309l.684-.684c-1.034-.736-3.609-1.626-4.412-.055-.799 1.562 1.948 3.573 3.015 4.248.546.344 1.048-.521.505-.864-.694-.438-2.119-1.386-2.358-2.232-.509-1.804 2.107-.688 2.746-.233.416.296.935-.278.684-.685-.317-.515-1.288-1.87-.116-1.693.756.113 1.406.885 1.758 1.494.321.557 1.186.054.863-.505M202.287 147.555c-.944-.857-2.78-1.677-4.036-.935-1.439.85.469 2.492 1.158 3.077l.486-.836c-1.223-.39-4.226-.44-4.254 1.475-.023 1.635 2.92 2.615 4.152 2.932.624.16.89-.804.266-.964-1.034-.266-1.997-.685-2.847-1.338a3.1 3.1 0 0 1-.451-.374c-.002-.535.254-.826.768-.872.714-.208 1.405-.116 2.1.106.461.146.87-.511.487-.836-.264-.224-.557-.457-.781-.722l-.24-.262c-.356-.437-.33-.633.08-.584.778-.286 1.87.355 2.405.84.475.433 1.185-.272.707-.707M243.679 127.686c.559-1.104 1.136-2.82-.225-3.64-1.178-.708-2.272.382-2.663 1.426l.964.266c.158-.718-.078-1.375-.693-1.808-.883-.62-1.986-.285-2.901.063-.596.226-.337 1.193.266.964.425-.162 2.697-.995 2.364.515-.141.636.74.863.964.266.298-.793 1.112-1.284 1.486-.282.218.587-.167 1.214-.426 1.725-.29.573.573 1.08.864.505M214.192 122.563c-.55-1.06-1.34-2.065-2.348-2.726-.397-.26-.834-.437-1.31-.281-.384.125-.7.685-1.08.727-.631.069-.638 1.07 0 1 .282-.031.495-.091.734-.248.45-.297.488-.681 1.15-.334.875.457 1.554 1.525 1.99 2.366.297.57 1.16.066.864-.504M211.855 115.31c.016-.757-.53-1.47-1.306-1.551-.763-.081-1.478.494-1.599 1.243-.102.63.861.9.964.266.106-.654.956-.665.941.043-.014.644.986.644 1 0M228.935 128.784c1.07-1.327-.292-2.673-1.69-2.73-1.513-.064-3.251.994-2.77 2.713.174.62 1.14.356.965-.266-.244-.865.621-1.346 1.356-1.43.315-.038.651-.037.952.075.327.121.798.535.48.931-.4.496.302 1.208.707.707M225.316 131.41c-.716-1.464-2.89-1.18-3.197.425-.12.63.843.898.964.265.147-.766 1.025-.89 1.37-.185.282.578 1.145.071.863-.505M218.524 141.552l.88-.527c.13-.078.335-.27.49-.293.177-.028.075-.115.225.113.362.549.57 1.304.831 1.907.257.589 1.118.081.864-.504-.237-.546-.472-1.092-.71-1.636-.142-.319-.286-.665-.604-.847-.789-.45-1.857.55-2.48.924-.552.331-.05 1.195.504.863M215.178 161.33c.066-.888-.849-1.472-1.663-1.367-1.008.13-1.499 1.163-1.712 2.043-.15.625.813.891.964.265.106-.435.252-.985.661-1.238.264-.163.778-.084.75.297-.048.643.953.64 1 0M244.361 132.07c.078-.195.416.047.474.124.19.249.094.657.014.929-.176.599-.509 1.119-.614 1.743-.105.63.858.9.964.266.192-1.147 1.342-2.54.37-3.649-.635-.722-1.816-.576-2.172.321-.238.599.73.858.964.267M222.647 114.796c.67-.552.236-1.645-.563-1.767-1.083-.167-1.576.936-1.735 1.803-.116.63.848.9.964.266.053-.284.09-.623.266-.862.067-.09.176-.218.303-.222.086-.003.108.034.058.075-.498.408.213 1.112.707.707M231.075 157.513c-.297-3.185-4.313-.98-5.368.487l.914.385c.325-.851-.141-1.574-.992-1.831-1.246-.376-2.656.182-3.661.895-.521.37-.022 1.237.504.864.435-.31.879-.573 1.4-.717.25-.068 2.14-.41 1.785.523-.216.567.607.81.914.385.172-.24 3.317-2.994 3.504-.991.06.636 1.06.642 1 0M225.085 170.482c-1.785-.665-3.69-.162-4.916 1.296h.708c-1.467-1.18-3.85-1.067-3.972 1.2-.034.645.966.643 1 0 .704-1.13 1.46-1.294 2.264-.493.197.158.52.225.708 0 1.017-1.21 2.461-1.59 3.942-1.04.604.226.865-.74.266-.963M231.023 170.396c.324-.248.693-.01.836.33.182.433.096.955.044 1.406-.073.638.927.633 1 0 .092-.802.13-1.735-.487-2.355-.49-.491-1.316-.69-1.897-.244-.505.385-.007 1.255.504.863M214.064 174.864c-1.434-.58-2.868-1.162-4.302-1.744-.596-.24-.855.725-.266.965l4.302 1.743c.597.243.856-.725.266-.964M213.2 171.706a39.967 39.967 0 0 0-6.784-2.554c-.621-.17-.886.793-.266.964a38.578 38.578 0 0 1 6.546 2.453c.577.28 1.085-.583.505-.863M210.757 167.272l-3.84-.633c-.63-.103-.9.86-.265.965 1.28.21 2.559.42 3.839.632.63.103.9-.86.266-.964M369.65 119.805c-.061 1-.124 1.999-.186 2.999-.04.643.96.64 1 0l.187-3c.04-.642-.96-.64-1 0M303.77 77.814a35.68 35.68 0 0 0 3.426 2.92c.515.389 1.014-.48.505-.862a33.928 33.928 0 0 1-3.223-2.765c-.462-.448-1.17.258-.707.707M307.76 77.66a24.958 24.958 0 0 0 3.434 2.746c.537.357 1.038-.508.504-.863a23.62 23.62 0 0 1-3.231-2.59c-.465-.446-1.173.26-.707.706M337.46 17.804a30.195 30.195 0 0 0 .132 4.668c.068.634 1.068.64 1 0a30.195 30.195 0 0 1-.131-4.668c.032-.644-.968-.642-1 0M335.502 17.676l-.58 3.653c-.099.63.864.902.965.267l.58-3.654c.1-.63-.864-.901-.965-.266M342.84 18.795a15.37 15.37 0 0 1 .094 3.173c-.048.642.952.64 1 0a15.37 15.37 0 0 0-.093-3.173c-.083-.629-1.084-.638-1 0M392.112 160.597l-37.825 3.59c-.635.06-.641 1.06 0 1l37.825-3.59c.635-.061.642-1.062 0-1M389.616 163.466a34.545 34.545 0 0 0-7.128.545c-.633.114-.365 1.078.265.964a33.304 33.304 0 0 1 6.863-.509c.644.019.643-.981 0-1M354.202 133.217a5.23 5.23 0 0 0-1.885 1.644c-.377.522.49 1.022.863.504.4-.556.918-.974 1.526-1.285.575-.293.07-1.155-.504-.863M355.616 136.803c.644 0 .645-1 0-1-.644 0-.645 1 0 1M387.397 86.809c.124 3.479-1.395 6.687-1.05 10.2.337 3.42 1.535 6.639 1.199 10.118-.062.64.939.636 1 0 .336-3.483-.847-6.69-1.198-10.117-.36-3.5 1.172-6.727 1.049-10.201-.022-.642-1.022-.645-1 0M420.494 187.334a36.663 36.663 0 0 1-1.441-3.778c-.216-.684-.628-1.382-.065-2.019.264-.298 1.331-.389 1.695-.49a90.106 90.106 0 0 1 7.218-1.68c.632-.122.364-1.086-.266-.965a92.04 92.04 0 0 0-5.513 1.223c-1.088.28-3.136.447-3.988 1.214-.766.69-.503 1.392-.249 2.316.442 1.608 1.074 3.161 1.745 4.684.26.587 1.121.08.864-.505M433.083 199.378a36.989 36.989 0 0 0-1.979 11.925c0 .643 1 .644 1 0a36.209 36.209 0 0 1 1.943-11.659c.207-.61-.758-.873-.964-.266M291.27 231.47a16.875 16.875 0 0 1-2.316 8.31c-.324.558.54 1.062.863.504a17.958 17.958 0 0 0 2.452-8.814c.011-.644-.989-.645-1 0M295.84 244.738c3.33-.93 6.527-3.256 9.485-4.969 4.065-2.352 7.653-4.89 12.439-5.431.632-.072.639-1.073 0-1-4.49.507-7.67 2.5-11.477 4.716-3.328 1.938-6.967 4.674-10.713 5.719-.62.173-.356 1.138.266.965"/>
        <path fill="#071F2C" d="M302.413 241.003c-.3-2.199-.245-4.938.83-6.93.307-.566-.558-1.072-.863-.505-1.21 2.241-1.269 5.234-.93 7.701.087.634 1.05.365.964-.266M305.67 246.395c.259-1.122 1.62-1.755 2.485-2.365a19.742 19.742 0 0 1 3.585-2.021c.589-.257.08-1.118-.505-.863-1.586.69-2.943 1.562-4.356 2.545-.893.62-1.915 1.317-2.173 2.438-.145.627.819.894.964.266M285.782 332.636h-2.167c-.643 0-.644 1 0 1h2.167c.644 0 .645-1 0-1M284.316 335.488c-1.501.32-2.965.205-4.41-.31-.608-.214-.87.75-.266.966 1.612.573 3.27.664 4.942.308.629-.135.363-1.099-.266-.964M281.949 339.801a5.8 5.8 0 0 1-2.38-.448c-.595-.245-.854.721-.266.964a6.512 6.512 0 0 0 2.646.484c.643-.016.645-1.016 0-1M279.282 343.131c-.547.038-1.081-.025-1.588-.243-.585-.25-1.096.611-.505.864.675.288 1.358.431 2.093.38.639-.045.644-1.045 0-1M364.652 327.494l-3.823 1.363c-.602.214-.343 1.181.266.964l3.823-1.362c.602-.215.342-1.182-.266-.965M368.426 328.62a24.5 24.5 0 0 1-5.284 3.017c-.586.242-.33 1.21.266.963a25.365 25.365 0 0 0 5.523-3.117c.51-.38.012-1.249-.505-.863M372.202 330.883a46.578 46.578 0 0 0-4.357 2.291c-.553.328-.05 1.193.505.863a46.816 46.816 0 0 1 4.357-2.291c.584-.268.077-1.131-.505-.863M373.707 333.055a41.727 41.727 0 0 0-2.779 2.004c-.224.176-.158.522 0 .707l.333.39c.42.49 1.123-.22.707-.707l-.333-.39v.707a38.107 38.107 0 0 1 2.577-1.848c.535-.352.035-1.218-.505-.863M262.484 356.115a70.787 70.787 0 0 0 28.966 4.202c.639-.041.644-1.041 0-1a70.05 70.05 0 0 1-28.7-4.166c-.605-.223-.866.743-.266.964M287.148 353.628c3.977.567 7.952.796 11.967.667.642-.02.645-1.02 0-1a67.24 67.24 0 0 1-11.701-.632c-.63-.09-.902.874-.266.965M302.635 331.716a122.4 122.4 0 0 0 39.943-.784c.632-.117.365-1.081-.266-.965a120.847 120.847 0 0 1-39.411.784c-.63-.091-.901.872-.266.965M316.283 338.126c3.287.261 6.555.21 9.833-.154.632-.07.64-1.072 0-1a51.774 51.774 0 0 1-9.833.154c-.642-.05-.638.95 0 1M396.34 347.559a116.588 116.588 0 0 1-44.386 5.984c-.642-.038-.64.963 0 1a117.355 117.355 0 0 0 44.652-6.02c.606-.205.346-1.172-.266-.964M393.871 342.22a57.404 57.404 0 0 1-9.224 3.426c-.619.172-.356 1.137.266.965a59.062 59.062 0 0 0 9.462-3.527c.582-.275.075-1.137-.504-.863M259.426 350.66a6.37 6.37 0 0 0 2.557 1.29c.626.15.892-.813.266-.965a5.243 5.243 0 0 1-2.116-1.032c-.495-.404-1.206.3-.707.707M388.93 355.953c-16.34 4.817-33.456 4.491-50.315 4.077-.644-.015-.644.985 0 1 16.948.416 34.157.73 50.58-4.113.617-.182.355-1.148-.265-.964M348.297 334.77a4.144 4.144 0 0 0 1.133 1.719c.476.429 1.186-.276.707-.707a3.112 3.112 0 0 1-.876-1.278c-.215-.6-1.182-.341-.964.266M227.457 357.048c-7.635.718-15.24.19-22.701-1.593-.625-.149-.892.815-.265.964a70.111 70.111 0 0 0 22.966 1.63c.635-.062.64-1.062 0-1M196.148 360.12a48.025 48.025 0 0 0 10.168 2.663c.63.093.901-.87.266-.965a47.963 47.963 0 0 1-10.168-2.662c-.602-.23-.862.736-.266.964M194.97 365.488c.447.16.893.322 1.339.483.607.219.868-.748.266-.964-.446-.163-.893-.324-1.34-.485-.605-.219-.867.748-.265.966M455.195 351.013c-8.016 6.359-18.926 4.288-28.37 5.729-.634.096-.364 1.06.266.963 9.71-1.48 20.565.557 28.81-5.985.505-.4-.207-1.103-.706-.707M451.713 357.404a19.94 19.94 0 0 1-5.735 1.716c-.634.091-.365 1.055.266.964a20.79 20.79 0 0 0 5.973-1.817c.582-.274.075-1.137-.504-.863M333.064 311.475c.13 1.53.32 3.055.571 4.57.105.634 1.07.366.965-.265a54.174 54.174 0 0 1-.536-4.305c-.054-.637-1.054-.643-1 0M314.872 312.758l.285 2.677c.068.633 1.069.639 1 0l-.285-2.677c-.068-.634-1.068-.641-1 0"/>
        <path fill="#071F2C" d="M329.542 308.87a214.03 214.03 0 0 0 23.792 10.99c.6.234.86-.733.265-.965a211.742 211.742 0 0 1-23.552-10.888c-.567-.305-1.072.557-.505.863M294.248 323.573a353.789 353.789 0 0 1 27.994-14.47c.584-.27.076-1.133-.505-.864a352.594 352.594 0 0 0-27.993 14.471c-.558.321-.055 1.185.504.863M221.96 260.02c4.106.709 8.185.309 12.308-.026l13.538-1.101 3.868-.314c.477-.038 2.465-.53 2.902-.236 1.14.77.528 4.69.545 6.089.054 4.652.11 9.305.162 13.957.206 18.54.256 37.105-1.363 55.592-.056.64.944.637 1 0 2.219-25.332 1.42-50.823 1.123-76.216-.003-.254-.228-.522-.5-.5l-16.44 1.335c-5.553.452-11.34 1.412-16.877.457-.63-.11-.9.855-.266.964M220.827 337.438c10.99 1.972 21.926-1.376 32.952-.868.643.029.64-.971 0-1-10.927-.503-21.8 2.856-32.686.903-.63-.112-.9.85-.266.965"/>
        <path fill="#071F2C" d="M255.576 316.86c9.036.459 18.08.557 27.124.294.642-.02.645-1.02 0-1-9.043.263-18.088.165-27.124-.294-.643-.032-.641.968 0 1M239.528 272.223l-9.041.678c-.637.048-.643 1.049 0 1l9.04-.678c.639-.048.644-1.048 0-1M242.24 291.429c-4.595.15-9.19.3-13.786.452-.642.02-.645 1.02 0 1l13.787-.452c.642-.021.645-1.021 0-1M239.303 308.63a43.424 43.424 0 0 0-6.465.673c-.632.113-.364 1.077.266.964a41.728 41.728 0 0 1 6.2-.638c.641-.018.644-1.019 0-1M238.089 323.07a9.106 9.106 0 0 0-3.078-.19c-.633.07-.64 1.07 0 1a8.281 8.281 0 0 1 2.812.154c.627.144.894-.82.266-.964M362.361 316.929c2.621-8.122 3.552-16.387 4.744-24.795 1.185-8.364 2.473-16.735 4.426-24.96 1.954-8.224 4.346-16.344 6.09-24.62.676-3.216 2.176-7.59 1.503-10.892-.573-2.81-3.237-4.416-5.552-5.698-.563-.312-1.067.55-.504.863 1.596.885 3.328 1.825 4.34 3.395 1.426 2.212.564 5.054.141 7.462-.677 3.85-1.539 7.667-2.472 11.464-1.83 7.45-3.95 14.833-5.544 22.343-3.17 14.943-3.432 30.593-8.136 45.172-.198.615.767.877.964.266M306.144 246.556c5.8-1.062 10.957-3.707 16.448-5.684 4.152-1.494 7.992-1.767 12.261-.551 3.64 1.036 7.068 2.684 10.683 3.796.616.189.88-.776.265-.965-7.285-2.24-13.967-6.261-21.76-3.824-6.148 1.922-11.758 5.09-18.163 6.264-.632.115-.364 1.079.266.964"/>
        <path fill="#071F2C" d="M283.964 317.204c-1.416-3.387-1.365-6.933-1.367-10.537-.002-3.542-.387-7.014-.886-10.516-1.142-8.014-2.319-16.024-3.375-24.05-1.019-7.747-1.934-15.506-2.622-23.289-.525-5.955-3.106-18.618 5.596-19.883.634-.092.365-1.056-.266-.964-6.735.98-7.23 8.67-6.87 14.033.588 8.768 1.56 17.511 2.661 26.227 1.068 8.444 2.285 16.868 3.495 25.292.63 4.382 1.266 8.713 1.267 13.15 0 3.7-.049 7.33 1.403 10.803.244.585 1.213.328.964-.266M297.49 238.153c-2.944 4.703-2.78 10.21-2.345 15.549.546 6.694.693 13.368.787 20.083.102 7.186.167 14.375.03 21.56a323.484 323.484 0 0 1-.353 10.283c-.178 3.477.288 7.154-.94 10.472-.225.605.741.865.963.266 1.02-2.752.8-5.528.865-8.412.078-3.387.322-6.771.41-10.158.18-7.023.15-14.048.064-21.071-.08-6.604-.036-13.24-.554-19.828-.483-6.135-1.51-12.734 1.936-18.24.343-.547-.522-1.05-.863-.504M266.449 239.636c-4.408.006-8.776.35-13.133 1.019-.634.096-.365 1.06.266.963a85.408 85.408 0 0 1 12.867-.982c.644 0 .645-1 0-1M259.316 243.155l-2.5 1c-.59.234-.333 1.202.266.964l2.5-1c.59-.237.333-1.203-.266-.964M210.882 327.117a1644.6 1644.6 0 0 0-55.617.187c-.643.012-.645 1.012 0 1a1644.6 1644.6 0 0 1 55.617-.187c.644.01.644-.99 0-1M409.67 330.184a807.297 807.297 0 0 1 24.507.076c.644.012.644-.988 0-1a807.297 807.297 0 0 0-24.507-.076c-.643.008-.645 1.008 0 1M444.081 325.871c14.678.601 29.368.796 44.056.586.643-.009.645-1.009 0-1-14.688.21-29.378.015-44.056-.586-.644-.026-.642.975 0 1M226.028 343.769c8.9-.307 17.802-.612 26.704-.92.64-.021.645-1.021 0-1-8.902.308-17.803.613-26.704.92-.642.022-.645 1.022 0 1M298.72 327.291a263.333 263.333 0 0 0 48.197-.782c.633-.069.64-1.07 0-1a263.333 263.333 0 0 1-48.197.782c-.642-.048-.64.952 0 1M419.745 73.153c-6.16 7.642-9.057 17.52-16.216 24.401-.464.448.243 1.156.707.709 7.173-6.895 10.053-16.757 16.216-24.404.4-.496-.303-1.209-.707-.706M511.64 106.136l-15.58.687c-1.595.07-3.833-.265-5.334.4-1.218.54-1.478 1.64-1.786 2.835-2.564 9.925-4.926 19.905-7.389 29.855-.155.625.809.89.964.266l6.216-25.116c.538-2.176.793-6.317 3.434-7.07 1.865-.53 4.404-.193 6.33-.278 4.381-.192 8.763-.386 13.145-.58.641-.026.645-1.027 0-1"/>
        <path fill="#071F2C" d="M482.685 134.866c-1.668-.404-3.4.323-5.009-.057-2.815-.665-2.262-6.229-2.281-8.608-.001-.289-.228-.475-.5-.5l-10.28-.958c-2.63-.246-4.906-.662-5.658-3.565-.413-1.603-.79-3.218-1.23-4.815-.543-1.983-1.26-2.437-3.277-2.49-3.715-.097-7.433-.119-11.149-.18-.286-.004-.477.235-.5.5a229.066 229.066 0 0 0-.488 31.611c.034.64 1.035.643 1 0-.45-8.396-.46-16.806.026-25.2.069-1.196-.272-5.244.932-5.895.42-.228 2.42.04 2.907.047l2.909.047c2.238.036 5.577-.612 6.678 1.826.772 1.712.92 3.88 1.452 5.69.682 2.317 1.694 2.967 4.063 3.206 2.023.203 4.05.377 6.074.566l2.804.261c.522.05 2.366-.1 2.803.262 1.01.841.62 4.418.774 5.657.125 1.014.22 2.141 1.026 2.865 1.724 1.546 4.633.205 6.659.695.625.151.892-.814.265-.965M440.624 130.47c-3.393.176-6.801-.375-10.15.385-.9.203-1.88.422-2.52 1.127-.398.438-.35 1.174-.921 1.544-1.152.747-2.424.157-3.62.219-1.33.07-2.516.997-3.406 1.908-.52.533-.972 1.12-1.378 1.745-.266.41-.463 1.088-.827 1.42-.87.798-2.383 1.034-3.504 1.147-5.311.536-10.828.278-16.165.41-.643.017-.645 1.017 0 1 5.227-.13 10.455-.266 15.683-.398 1.526-.038 3.226.137 4.389-1.036 1.546-1.56 1.919-4.062 4.282-4.875 1.52-.524 2.983.528 4.477-.271 1.163-.623 1.416-2.033 2.528-2.634 3.107-1.68 7.777-.517 11.132-.69.64-.033.644-1.033 0-1M114.794 135.797a250.747 250.747 0 0 1-.182-7.56c-.021-2.666-.702-6.2 1.756-8.032.822-.613 2.73-.777 3.726-1.049 1.245-.339 2.493-.668 3.743-.986 2.249-.572 4.747-1.508 7.06-1.679 2.327-.172 2.486.744 3.05 2.576.387 1.254.717 2.531 1.074 3.794.67 2.372 1.342 4.744 2.013 7.115l4.16 14.703c.176.618 1.14.355.965-.267-1.79-6.323-3.58-12.647-5.368-18.97-.765-2.703-1.252-5.808-2.408-8.365-.814-1.8-1.91-1.927-3.75-1.55-3.156.647-6.29 1.461-9.402 2.288-1.973.524-5.146.761-6.72 2.194-1.433 1.306-.902 4.16-.905 5.864-.008 3.31.062 6.617.188 9.924.025.642 1.025.646 1 0"/>
        <path fill="#071F2C" d="M138.007 131.318c2.334-.016 4.653-.166 6.963-.504 2.379-.348 4.894-1.453 7.265-1.56 1.294-.058 2.449 1.35 2.843 2.447.049.137-.084.454-.054.64.057.357.2.698.452.942 1.107 1.078 4.272.726 5.598.79 2.557.125 5.118.114 7.673-.032.639-.036 1.276-.09 1.914-.135 1.013-.072.882-.242 1.542.714.855 1.236.376 3.272.304 4.763l-.815 16.914c-.031.643.969.64 1 0 .32-6.632.68-13.264.959-19.898.054-1.282.287-2.922-1.198-3.46-.818-.295-1.933-.017-2.748.04a73.055 73.055 0 0 1-9.11.07c-.728-.04-1.671.004-2.393-.172-.871.008-1.573-.42-2.106-1.286l.115-.767c-.258-1.15-.535-1.984-1.766-2.462-2.032-.79-4.626.494-6.593.92-3.242.704-6.532 1.015-9.845 1.036-.644.004-.645 1.004 0 1"/>
        <path fill="#071F2C" d="M173.235 147.185l7.79-.944c1.34-.163 3.517.02 4.725-.645 1.118-.617 1.125-1.561 1.275-2.76.3-2.41.534-4.826.7-7.248.169-2.422.27-4.847.305-7.274.017-1.178-.268-2.746-.002-3.884-.303-1.11.23-1.75 1.6-1.92l1.456-.054c5.012-.19 10.025-.376 15.037-.565.64-.023.645-1.024 0-1l-14.552.546c-1.022.039-3.143-.313-4.038.439-1.005.846-.494 2.939-.49 4.01.02 4.694-.21 9.387-.687 14.056-.207 2.018.025 3.927-2.407 4.944-.804.336-2.073.25-2.921.355l-7.791.944c-.631.076-.64 1.077 0 1M243.906 118.603a38.792 38.792 0 0 1 13.062-.284c.63.092.9-.871.266-.965a40.373 40.373 0 0 0-13.594.285c-.631.12-.364 1.085.266.964M511.032 109.393l.285 7.505c.013.33.309.56.633.482 1.456-.352 4.19-1.086 5.518.039 1.09.924.613 2.285.99 3.417.355 1.065 1.139 1.495 2.255 1.483.523-.005.976-.255 1.477-.356.858-.173 2.733-.336 3.396.368 1.009 1.072.48 3.585.228 4.83-.632 3.12-1.457 6.193-2.026 9.33-.496 2.73-.905 5.477-1.236 8.233-.23 1.923-1.18 5.072-.384 6.94.702 1.65 2.865 1.482 4.358 1.6 3.298.264 6.6.288 9.904.14.64-.03.644-1.03 0-1-3.467.156-6.94.129-10.398-.182-1.69-.151-2.555-.377-3.007-2.224-.166-.676.148-1.72.214-2.4a133.79 133.79 0 0 1 2.457-15.567c.58-2.656 1.722-5.488 1.325-8.238-.166-1.148-.484-2.33-1.577-2.895-.584-.303-1.29-.35-1.934-.294-1.725.145-3.69 1.5-4.177-.992-.26-1.324-.026-2.271-1.36-3.056-1.886-1.11-4.311-.62-6.29-.141l.634.483-.285-7.505c-.024-.641-1.024-.645-1 0"/>
        <path fill="#071F2C" d="M571.707 127.38a307.118 307.118 0 0 0-32.078 3.12c-.162.025-.31.196-.349.35l-5.02 20.465c-.154.625.81.891.964.265.99-4.03 1.978-8.062 2.966-12.093.516-2.099.821-4.49 1.598-6.51.534-1.39.586-1.415 2.032-1.799 1.332-.354 2.848-.403 4.205-.58a301.614 301.614 0 0 1 25.682-2.219c.641-.028.645-1.028 0-1M120.809 135.28l-7.604.031c-.494.002-1.449.191-1.901.008-1.046-.421-1.909-1.837-2.315-2.827-.446-1.09-.671-2.355-.899-3.505a34.098 34.098 0 0 1-.617-7.97c.053-1.38.391-3.11-.692-4.212-.972-.989-2.485-.758-3.721-.646-2.581.234-5.159.403-7.751.433-5.627.064-11.229-.439-16.766-1.43-.63-.112-.9.85-.266.964 4.986.892 10.024 1.411 15.091 1.466 2.75.03 5.502-.069 8.242-.297.62-.052 1.314-.219 1.933-.184.864.047 2.443.361 2.942 1.195.472.79-.037 3.224-.039 4.069-.004 2.156.2 4.311.596 6.431.375 2.008.755 4.724 1.918 6.444.799 1.181 1.99 1.059 3.294 1.065 2.851.016 5.704-.023 8.555-.035.643-.004.645-1.004 0-1M262.883 130.485c.138 2.208-.364 4.31-.43 6.502-.051 1.725.264 3.367.674 5.038 1.04 4.25 1.577 8.356 1.175 12.73-.06.64.94.637 1 0 .349-3.792.109-7.541-.773-11.25-.518-2.178-1.138-4.25-1.075-6.518.06-2.191.567-4.293.429-6.502-.04-.64-1.041-.644-1 0M263.663 128.241c.21-2.146.382-4.295.486-6.448.058-1.165-.115-2.559.125-3.695.31-1.47.346-1.268 1.925-1.177 4.661.27 9.322.16 13.971-.262.637-.058.642-1.058 0-1a96.733 96.733 0 0 1-16.377.092c-.272-.022-.498.247-.5.5a131.164 131.164 0 0 1-.63 11.99c-.064.64.938.636 1 0"/>
        <path fill="#071F2C" d="M266.427 119.928a379.81 379.81 0 0 1 13.627-.175c.644.004.645-.996 0-1a379.81 379.81 0 0 0-13.627.175c-.642.02-.645 1.02 0 1M265.676 122.582c4.705-.312 9.414-.517 14.127-.616.643-.014.645-1.014 0-1-4.713.1-9.422.304-14.127.616-.64.042-.644 1.043 0 1M265.31 124.727a9.798 9.798 0 0 1 2.244-.087c.642.045.639-.955 0-1a10.929 10.929 0 0 0-2.51.123c-.633.102-.364 1.066.266.964M269.554 126.745a325.3 325.3 0 0 0 10.501-.038c.644-.014.645-1.014 0-1-3.5.07-7 .082-10.5.038-.645-.009-.645.991 0 1M263.972 132.018c5.685.682 11.387-.313 17.08.226.64.06.635-.94 0-1-5.693-.54-11.395.456-17.08-.226-.638-.076-.632.925 0 1M280.61 133.155c-2.555.11-5.109.222-7.664.333-.64.028-.644 1.028 0 1 2.555-.11 5.11-.222 7.664-.333.641-.028.645-1.028 0-1M270.058 133.494l-4.115-.05c-.835-.01-1.726-.19-2.42.348-.507.393.205 1.097.707.707.471-.365 2.31-.047 2.856-.04.991.011 1.981.022 2.972.035.644.007.644-.993 0-1M263.817 140.288a78.91 78.91 0 0 1 12.113-1.234c.642-.017.645-1.017 0-1a80.858 80.858 0 0 0-12.38 1.27c-.631.113-.363 1.077.267.964M277.723 138.921a41.563 41.563 0 0 0 4.081-.3c.63-.077.638-1.078 0-1a41.563 41.563 0 0 1-4.08.3c-.644.015-.646 1.015 0 1M264.986 144.655c4.518-.423 9.024-.936 13.52-1.536.63-.084.639-1.085 0-1-4.496.6-9.002 1.113-13.52 1.536-.635.06-.641 1.061 0 1M265.411 148.66c2.931-.432 5.872-.772 8.824-1.029.635-.055.642-1.056 0-1-3.042.264-6.07.62-9.09 1.064-.633.093-.363 1.057.267.964M265.378 152.102c2.81-.224 5.481-1.131 8.271-1.48 3.132-.39 6.291-.282 9.437-.173.644.022.643-.978 0-1-3.008-.104-6.034-.214-9.034.117-2.929.324-5.735 1.303-8.674 1.536-.637.05-.643 1.05 0 1M341.669 91.464c12.555 1.528 25.15 3.01 37.822 2.46.64-.028.644-1.029 0-1-12.671.55-25.267-.932-37.822-2.46-.637-.077-.632.924 0 1M379.582 89.827c-8.269-.508-16.537-1.017-24.806-1.524-.643-.039-.64.961 0 1 8.27.507 16.537 1.016 24.806 1.524.643.04.641-.96 0-1M352.647 88.087l-10.584-1.854c-.63-.11-.9.853-.266.964 3.528.62 7.056 1.236 10.584 1.854.629.11.9-.854.266-.964M340.666 85.17a249.092 249.092 0 0 0 38.672 3.373c.644.006.644-.994 0-1a247.26 247.26 0 0 1-38.406-3.338c-.63-.104-.9.86-.266.965M342.947 96.979c12.465.62 24.93 1.242 37.395 1.864.643.032.641-.968 0-1l-37.395-1.864c-.643-.032-.642.968 0 1M367.482 104.487c2.164.043 4.32.169 6.468.43 2.082.255 4.156.83 6.259.58.63-.073.638-1.075 0-1-2.1.25-4.176-.328-6.26-.58a64.732 64.732 0 0 0-6.467-.43c-.644-.014-.644.986 0 1M375.946 108.518c1.621.198 3.218.115 4.813-.226.63-.134.363-1.098-.266-.964a13.647 13.647 0 0 1-4.547.19c-.637-.078-.632.922 0 1M376.589 101.569l3.395.42c.637.079.63-.922 0-1l-3.395-.42c-.637-.08-.631.922 0 1M230.086 203.871l-.28 3.634c-.049.642.951.638 1 0l.28-3.634c.05-.642-.95-.639-1 0M227.216 206.105l-.021 2.517c-.005.643.995.643 1 0l.02-2.517c.006-.644-.994-.644-1 0M439.48 233.074a8.272 8.272 0 0 0 1.79 3.026c.436.474 1.142-.234.706-.707a7.079 7.079 0 0 1-1.533-2.586c-.203-.606-1.169-.346-.964.267M436.438 234.32l3.634 5.312c.362.529 1.228.029.864-.504l-3.634-5.312c-.362-.528-1.228-.028-.864.504M434.726 237.267a28.052 28.052 0 0 0 4.612 7.477c.421.489 1.125-.221.708-.707A26.46 26.46 0 0 1 435.69 237c-.245-.584-1.213-.328-.964.266M435.284 243.979a6.797 6.797 0 0 0 2.076 3.58c.475.433 1.184-.272.707-.706a5.893 5.893 0 0 1-1.82-3.14c-.138-.628-1.102-.362-.963.266M218.383 235.712l.839 1.398c.33.551 1.196.05.863-.504-.28-.466-.56-.932-.838-1.399-.331-.55-1.196-.049-.864.505M214.469 235.712a24.185 24.185 0 0 0 2.874 4.295c.413.495 1.117-.216.707-.707a22.96 22.96 0 0 1-2.717-4.093c-.3-.57-1.162-.065-.864.505M212.523 237.943a58.693 58.693 0 0 0 5.921 9.066c.4.505 1.103-.207.707-.707a57.447 57.447 0 0 1-5.765-8.864c-.3-.57-1.163-.064-.863.505M213.606 244.672l2.24 3.912c.32.558 1.185.055.864-.505-.747-1.303-1.494-2.607-2.24-3.912-.32-.557-1.185-.055-.864.505M213.589 248.877l1.375 2.251c.335.548 1.2.046.863-.505l-1.374-2.25c-.335-.549-1.2-.047-.864.504M326.017 260.873c.651 1.025 1.305 2.051 1.957 3.075.344.542 1.21.041.863-.505a2309.56 2309.56 0 0 1-1.957-3.075c-.344-.54-1.21-.04-.863.505M323.468 261.734a28.403 28.403 0 0 0 4.601 5.372c.476.432 1.185-.273.707-.707a27.314 27.314 0 0 1-4.444-5.17c-.354-.534-1.22-.034-.864.505M323.78 267.024c.84 1.118 1.677 2.237 2.516 3.355.381.509 1.25.01.863-.504-.838-1.12-1.677-2.237-2.516-3.355-.38-.51-1.25-.012-.863.504M323.028 271.591a28.13 28.13 0 0 0 3.603 3.392c.5.394 1.212-.309.707-.707a28.13 28.13 0 0 1-3.603-3.392c-.429-.482-1.134.227-.707.707M323.816 276.667l2.574 3.025c.417.492 1.12-.218.707-.707l-2.574-3.026c-.417-.49-1.122.22-.707.708"/>
    </g>
</svg>
