<?xml version="1.0" encoding="UTF-8"?>
<svg width="1846px" height="387px" viewBox="0 0 1846 387" version="1.1" xmlns="http://www.w3.org/2000/svg" xmlns:xlink="http://www.w3.org/1999/xlink">
    <!-- Generator: Sketch 43.2 (39069) - http://www.bohemiancoding.com/sketch -->
    <title>Page 1</title>
    <desc>Created with Sketch.</desc>
    <defs></defs>
    <g id="Screens" stroke="none" stroke-width="1" fill="none" fill-rule="evenodd">
        <g id="iPad-Pro-Landscape" transform="translate(-1724.000000, -310.000000)">
            <g id="Page-1" transform="translate(1724.000000, 310.000000)">
                <path d="M1750.5455,243.009 C1751.7745,228.517 1758.0845,213.586 1756.3355,199.017 C1755.4985,192.047 1750.9595,186.017 1743.3355,186.017 C1742.8515,186.017 1742.3615,186.062 1741.8695,186.129 C1741.4205,186.095 1740.9575,186.081 1740.4735,186.101 C1706.9925,187.444 1673.5075,188.691 1640.0205,189.863 C1559.3175,188.113 1478.5935,187.372 1397.8725,187.699 C1283.6575,188.163 1169.4505,190.707 1055.3285,195.332 C1010.1975,197.161 965.0795,199.325 919.9795,201.804 C919.0785,201.803 918.1765,201.802 917.2745,201.801 C897.4005,203.402 886.5095,203.593 870.7775,205.074 C847.3715,207.28 822.4985,204.157 798.9625,203.694 C775.1055,203.225 752.2625,204.134 728.4195,203.294 C704.5455,202.452 683.8575,206.194 659.9965,207.347 C633.5575,208.624 603.9995,207.611 577.7855,211.251 C563.3665,211.204 548.9465,211.412 534.5335,211.903 C522.4655,212.313 510.4305,213.001 498.4125,213.85 C473.4985,214.056 448.6075,215.382 423.7285,216.733 C394.8735,218.301 365.9865,220.111 337.5175,225.28 C334.6905,225.584 331.8625,225.88 329.0365,226.201 C327.5755,226.366 326.1735,226.758 324.9005,227.347 C322.0985,227.572 319.2945,227.762 316.4845,227.898 C304.5185,228.474 292.5355,228.106 280.5635,227.945 C257.6565,227.637 234.7465,227.871 211.8445,228.395 C190.7715,228.876 169.7065,229.603 148.6425,230.377 C143.9405,229.845 139.2575,229.146 134.6095,228.127 C124.0955,225.825 113.6435,223.206 103.1685,220.734 C101.5455,220.351 98.6515,219.421 95.5835,218.774 C95.4775,218.718 95.3695,218.667 95.2625,218.611 C91.5935,216.668 88.1365,215.017 83.8975,215.826 C78.7565,216.808 74.1095,219.992 69.0715,221.467 C63.5565,223.082 57.9675,223.269 52.3455,224.168 C52.2955,224.176 52.2515,224.194 52.2025,224.205 C47.2615,224.537 42.3245,224.912 37.4025,225.463 C33.8895,225.857 27.2885,225.312 25.4115,228.933 C25.3415,229.069 25.2845,229.203 25.2375,229.339 C22.5595,230.212 23.8305,234.528 26.7755,234.073 C27.0525,234.645 27.5285,235.116 28.2295,235.316 C33.0085,236.683 37.9765,236.087 42.8775,235.875 C47.1365,235.692 51.3945,235.509 55.6525,235.325 C55.7875,235.388 55.9085,235.462 56.0665,235.505 C60.6835,236.776 65.1955,237.004 69.8165,236.24 C69.4685,236.853 69.2255,237.563 69.1435,238.384 C69.0875,238.946 68.9265,239.48 68.7255,240.004 C68.3165,240.728 67.9855,241.392 67.6245,241.808 C66.9435,242.591 66.5565,243.431 66.3985,244.269 C66.0485,244.924 65.6565,245.174 65.4765,245.883 C65.4115,246.136 65.0595,245.779 65.0355,246.024 C62.5535,246.401 60.1655,247.415 57.8395,248.375 C56.6665,248.86 57.1995,250.284 58.3905,249.793 C59.3335,249.403 62.8615,249.612 63.2295,249.627 C63.7775,249.65 64.5115,249.801 64.5545,249.85 C64.3785,250.339 66.9135,253.432 65.4765,257.461 C65.4185,257.474 61.8865,258.209 60.4605,258.164 C59.1725,258.123 59.9505,260.443 61.2365,260.484 C63.1625,260.544 65.0875,260.578 67.0135,260.62 C70.9705,261.035 75.3755,261.808 79.2715,261.009 C79.3635,261.77 79.7465,262.493 80.4505,262.792 C81.0645,263.052 81.6765,263.313 82.2895,263.572 C82.3795,263.621 82.4635,263.675 82.5635,263.717 L84.4255,264.478 C87.6285,265.889 91.5555,266.588 94.9285,266.938 C97.3445,267.545 99.6465,267.415 99.5285,264.61 C102.4025,264.744 105.2595,264.661 108.1015,264.185 C110.7585,264.277 113.4095,264.227 115.9915,263.878 C121.8725,263.084 126.5315,259.144 132.2745,257.77 C136.5815,256.739 140.9995,257.055 145.3415,256.673 C145.5845,256.697 145.8215,256.729 146.0765,256.734 C165.6015,257.11 185.1375,257.485 204.6285,258.779 C223.7205,260.047 242.6335,262.856 261.6815,264.552 C300.2695,267.988 338.9055,264.134 377.4355,261.818 C380.5775,261.629 383.7205,261.457 386.8635,261.296 C419.7415,259.118 456.1675,260.683 490.5035,261.2 C531.7085,261.82 572.1155,265.175 613.2145,262.335 C615.3695,262.434 617.5265,262.488 619.6765,262.513 C630.9895,262.647 642.3085,262.558 653.6225,262.614 C676.5685,262.729 722.3075,258.966 745.2485,259.457 C791.4285,260.446 814.8105,266.418 860.8515,270.202 C886.9625,272.348 913.0215,275.094 938.9935,278.541 C939.6165,278.624 940.2055,278.615 940.7585,278.53 C984.5235,284.821 1029.2005,284.631 1073.2795,285.891 C1127.2045,287.432 1181.1295,288.95 1235.0575,290.348 C1342.2435,293.127 1449.4445,295.432 1556.6625,296.511 C1617.2605,297.12 1677.8635,297.331 1738.4635,297.026 C1743.3175,297.001 1746.4205,294.27 1747.7905,290.79 C1748.5935,289.647 1749.2605,288.38 1749.7445,287.01 C1752.2885,279.812 1751.9255,272.392 1751.0365,264.95 C1750.1605,257.613 1749.9205,250.382 1750.5455,243.009" id="Fill-1" fill="#623F2B"></path>
                <path d="M1814.5802,40.0618 C1813.5852,36.8128 1812.7292,33.5388 1812.6372,30.1318 C1812.5092,25.3908 1813.8152,21.0308 1811.2312,16.6148 C1808.0032,11.0988 1801.8092,10.7828 1796.1442,10.6128 L1794.0872,10.5518 C1792.4492,9.5298 1790.5172,8.8998 1788.4682,8.7578 C1738.2142,5.2788 1698.0872,5.4498 1647.7422,7.1608 C1591.3092,9.0778 1555.5392,7.9978 1500.7422,7.1608 C1476.1602,6.7848 1438.1222,10.8208 1413.5622,12.3478 C1388.5682,13.9008 1363.5202,14.2128 1338.4872,14.5878 C1288.1332,15.3408 1237.7792,16.0948 1187.4252,16.8478 C1132.0032,17.6768 1076.5802,18.5068 1021.1582,19.3358 C1020.7952,19.2858 1020.4342,19.2368 1020.0732,19.1888 C1009.3582,17.7588 998.5912,16.8358 987.7882,16.4218 C943.9652,14.7448 900.3492,20.6608 856.9052,25.5538 C847.7462,26.5858 838.5802,27.5708 829.4052,28.4378 L766.0702,28.8118 C727.4522,26.3948 688.8392,24.1238 650.4262,28.1298 C620.0222,29.1438 589.6182,30.1568 559.2142,31.1688 C544.5532,31.6578 529.8462,31.8968 515.2312,33.2468 C500.3092,34.6248 485.5252,37.8108 470.4732,36.6558 C468.9422,36.5388 467.6572,36.8218 466.6152,37.3808 C455.3472,37.0288 444.1162,38.1218 432.8472,38.3818 C408.4302,38.9468 383.9852,37.1998 359.6242,39.5318 L301.3792,35.8918 C281.8042,34.6678 261.7962,32.2238 242.1072,32.6398 C231.7242,30.4778 221.3192,27.8628 211.9352,22.8068 C205.1032,19.1248 197.8312,14.2628 190.2732,15.6438 C189.5632,15.4128 188.7812,15.4708 188.0522,16.0058 C187.8382,16.1888 187.6012,16.3338 187.3722,16.4928 C186.5502,16.8258 185.7252,17.2368 184.8962,17.7468 C184.4532,18.0198 184.1392,18.3838 183.9172,18.7898 C182.5802,19.0298 181.2852,19.4098 180.0262,20.0448 C178.2762,20.9278 177.9152,22.2248 176.6262,23.3188 C174.0832,25.4768 171.2492,25.1918 169.9632,27.7698 C167.1402,30.5378 164.8042,35.0158 161.5962,37.8938 C154.0812,38.4168 146.5602,38.5368 139.1652,40.0688 C133.9412,41.1518 128.8132,38.8668 123.5702,39.5638 C122.0312,39.7688 120.0742,40.1438 118.9962,41.4218 C118.7702,41.6888 118.4952,42.0238 118.3382,42.3758 C117.9632,42.3368 117.5902,42.2958 117.2242,42.2488 C113.5732,41.7698 113.6102,46.9848 116.4262,48.1408 C116.4712,48.1598 116.5142,48.1688 116.5582,48.1868 C116.9912,49.0778 117.8352,49.7678 119.1072,49.8158 C125.2462,50.0468 130.9732,52.0418 136.9652,53.1628 C141.4672,54.0038 145.9592,53.9958 150.4812,54.1258 C150.4482,55.4978 151.2322,56.8778 152.5502,57.1988 C152.9632,57.4318 153.4592,57.5758 154.0592,57.5608 C155.9232,57.5118 158.8022,61.8138 160.1232,62.9258 C161.7832,64.3218 163.5862,65.7188 165.4372,66.8488 C169.7072,69.4558 174.7982,69.6458 179.0152,72.3498 C182.8112,74.7838 186.2962,77.4718 191.0272,77.4778 C196.8292,77.4848 202.7952,75.3988 208.6142,74.8658 C213.9252,74.3788 218.9572,73.6358 224.0452,71.9888 C229.9322,70.0828 235.4282,70.7638 241.5002,70.8608 C248.0642,70.9648 254.6162,70.6618 261.1352,70.0188 C266.5652,71.1688 272.0152,72.2278 277.5962,72.6158 C290.7152,73.5268 303.8882,73.7098 317.0162,74.5748 C329.9702,75.4278 342.8822,76.6648 355.8102,77.8268 C361.5362,78.3418 367.2412,78.6888 372.9312,78.6798 C392.0152,81.3918 411.1772,84.1028 430.4552,82.8738 C448.9962,81.6918 467.3062,79.1798 485.8082,78.1748 C510.2872,79.2558 534.8512,78.5998 559.3432,79.7178 C593.4732,81.2768 626.9562,88.3148 660.9282,91.4258 C663.1272,91.6278 664.8152,90.9938 666.0032,89.8928 C678.6102,90.3728 691.2592,90.2968 703.8292,90.1668 C739.0632,89.8038 774.2972,89.4288 809.5312,89.0608 C811.4302,89.0408 813.3292,89.0198 815.2282,88.9998 C838.2312,91.2108 861.3842,91.7178 884.5122,92.2868 C901.0592,92.6928 917.6122,93.1848 934.1152,94.5028 C950.5202,95.8138 966.8512,97.9238 983.2682,99.1078 C1002.1972,100.4738 1021.1012,100.3318 1039.8182,96.8958 C1040.6582,96.7418 1041.3692,96.4618 1041.9962,96.1118 C1132.5282,103.2968 1223.1182,110.0848 1313.9022,113.0008 C1414.5452,116.2348 1515.1812,113.5508 1615.7042,108.2018 C1631.2512,107.3748 1646.7952,106.4858 1662.3372,105.5608 C1711.4632,105.1128 1760.5872,104.4398 1809.7082,103.5508 C1812.2352,103.5058 1814.2892,102.7318 1815.8722,101.5068 C1818.0142,101.0928 1820.0742,100.1008 1821.8522,98.4278 C1825.6212,94.8828 1826.5622,89.8378 1826.9002,84.9038 C1828.0062,68.7918 1819.1272,54.9058 1814.5802,40.0618" id="Fill-3" fill="#EFECD3"></path>
                <path d="M190.0099,63.4348 C188.4439,63.7828 186.8719,63.6318 185.4079,62.9678 C184.8259,62.7048 184.3169,63.5658 184.9029,63.8308 C186.6259,64.6118 188.4269,64.8098 190.2759,64.3988 C190.9039,64.2598 190.6379,63.2958 190.0099,63.4348" id="Fill-5" fill="#071F2C"></path>
                <path d="M183.2633,61.7849 C181.4543,60.6009 179.4733,60.1069 177.4543,59.4069 C174.8993,58.5199 173.1403,56.8389 170.9093,55.4179 C170.3643,55.0709 169.8623,55.9359 170.4043,56.2809 C172.2303,57.4439 173.7243,58.9699 175.7383,59.8319 C178.0793,60.8349 180.5943,61.2319 182.7583,62.6479 C183.2983,63.0019 183.8003,62.1369 183.2633,61.7849" id="Fill-7" fill="#071F2C"></path>
                <path d="M169.3839,55.6755 C167.5689,55.3775 166.0149,54.5145 164.3659,53.7565 C163.8369,53.5125 163.2039,53.3605 162.7049,53.0765 C162.0469,52.7025 161.6879,52.0055 161.0799,51.5735 C160.5539,51.2005 160.0539,52.0675 160.5749,52.4375 C160.9869,52.7295 161.1219,53.2665 161.5049,53.5905 C162.1769,54.1595 163.3449,54.3815 164.1129,54.7385 C165.7579,55.5055 167.3069,56.3425 169.1179,56.6395 C169.7479,56.7425 170.0179,55.7795 169.3839,55.6755" id="Fill-9" fill="#071F2C"></path>
                <path d="M162.0025,52.9861 C158.7485,53.0641 155.4945,53.0731 152.2405,52.9871 C149.1775,52.9071 144.8655,53.3961 142.3965,51.2661 C141.9105,50.8471 141.2005,51.5521 141.6895,51.9731 C143.8355,53.8241 146.6155,53.7751 149.3135,53.8871 C153.5415,54.0651 157.7725,54.0881 162.0025,53.9861 C162.6445,53.9701 162.6475,52.9701 162.0025,52.9861" id="Fill-11" fill="#071F2C"></path>
                <path d="M143.878,52.2127 C141.182,52.2567 138.542,52.1977 135.887,51.6637 C133.726,51.2287 129.919,50.8347 128.948,48.5537 C128.697,47.9637 127.836,48.4727 128.085,49.0587 C129.022,51.2607 131.635,51.6627 133.724,52.1847 C137.112,53.0317 140.394,53.2697 143.878,53.2127 C144.521,53.2027 144.523,52.2017 143.878,52.2127" id="Fill-13" fill="#071F2C"></path>
                <path d="M129.4845,49.8694 C126.2765,50.0334 123.0885,49.6784 120.0385,48.6354 C118.6315,48.1534 117.0845,47.5944 115.8565,46.7364 C113.6975,45.2274 113.9035,43.3364 114.5065,41.1284 C114.6765,40.5074 113.7125,40.2424 113.5425,40.8634 C112.6115,44.2694 113.2145,46.5434 116.3995,48.1754 C120.4515,50.2504 124.9545,51.1014 129.4845,50.8694 C130.1255,50.8364 130.1295,49.8364 129.4845,49.8694" id="Fill-15" fill="#071F2C"></path>
                <path d="M177.4322,42.6321 C182.4322,42.4271 187.4152,42.5821 192.3922,43.0961 C193.0322,43.1621 193.0272,42.1621 192.3922,42.0961 C187.4152,41.5821 182.4322,41.4271 177.4322,41.6321 C176.7912,41.6581 176.7872,42.6581 177.4322,42.6321" id="Fill-17" fill="#071F2C"></path>
                <path d="M177.2994,44.6487 C178.5054,44.8557 179.7514,44.9917 180.9754,44.9907 C181.6184,44.9907 181.6194,43.9907 180.9754,43.9907 C179.8404,43.9917 178.6834,43.8767 177.5654,43.6847 C176.9364,43.5757 176.6654,44.5397 177.2994,44.6487" id="Fill-19" fill="#071F2C"></path>
                <path d="M180.4542,34.9182 C177.0302,34.1752 173.4892,33.4162 169.9782,33.9902 C166.2062,34.6062 163.0572,37.1472 159.1912,37.3452 C158.5512,37.3782 158.5472,38.3782 159.1912,38.3452 C162.3502,38.1842 164.8922,36.5892 167.8152,35.5772 C171.8972,34.1632 176.0892,34.9932 180.1882,35.8822 C180.8152,36.0192 181.0832,35.0552 180.4542,34.9182" id="Fill-21" fill="#071F2C"></path>
                <path d="M184.2545,23.3962 C179.9845,22.2442 174.8645,21.0732 171.1275,24.2332 C169.0825,25.9612 168.9545,28.6272 167.4165,30.6902 C165.5995,33.1282 163.0495,35.1422 160.7945,37.1652 C160.3145,37.5962 161.0235,38.3012 161.5015,37.8732 C164.5375,35.1492 168.1775,32.4602 169.6695,28.5502 C172.1445,22.0632 178.3325,22.8342 183.9885,24.3602 C184.6105,24.5282 184.8765,23.5632 184.2545,23.3962" id="Fill-23" fill="#071F2C"></path>
                <path d="M190.6534,18.1419 C187.9724,17.7179 184.4244,16.4459 181.7544,17.2569 C179.3064,17.9999 177.3404,20.3729 176.0754,22.4699 C175.7424,23.0219 176.6064,23.5249 176.9394,22.9739 C178.6034,20.2179 180.8874,17.9079 184.3774,18.1549 C186.3764,18.2969 188.4094,18.7929 190.3874,19.1059 C191.0174,19.2059 191.2884,18.2429 190.6534,18.1419" id="Fill-25" fill="#071F2C"></path>
                <path d="M204.2144,18.3171 C200.3214,16.9601 197.0384,14.0431 192.8284,13.6251 C189.2424,13.2691 185.8024,14.5461 183.1444,16.9271 C182.6644,17.3571 183.3734,18.0621 183.8524,17.6341 C186.8684,14.9331 191.0074,13.8551 194.9224,15.0671 C198.1074,16.0541 200.7974,18.1831 203.9484,19.2811 C204.5574,19.4931 204.8194,18.5281 204.2144,18.3171" id="Fill-27" fill="#071F2C"></path>
                <path d="M157.0611,37.3455 C153.0931,37.3925 149.1441,37.8215 145.1761,37.8805 C142.0111,37.9265 139.0101,37.9645 136.0531,39.2215 C135.4621,39.4725 135.9721,40.3345 136.5581,40.0845 C139.9141,38.6575 143.5071,38.9705 147.0641,38.8285 C150.3991,38.6965 153.7221,38.3855 157.0611,38.3455 C157.7041,38.3375 157.7061,37.3375 157.0611,37.3455" id="Fill-29" fill="#071F2C"></path>
                <path d="M136.4381,39.1712 C131.7201,37.9822 126.8341,37.4602 121.9711,37.7482 C119.3581,37.9032 114.8381,37.8502 113.5931,40.7432 C113.3411,41.3282 114.2031,41.8382 114.4571,41.2482 C115.7641,38.2102 121.9601,38.6712 124.6141,38.6722 C128.5191,38.6742 132.3881,39.1812 136.1721,40.1352 C136.7961,40.2932 137.0631,39.3282 136.4381,39.1712" id="Fill-31" fill="#071F2C"></path>
                <path d="M122.1622,38.6453 C121.4282,39.7883 120.1812,40.4993 119.3092,41.5383 C117.8792,43.2463 115.9732,43.2673 114.0762,42.2383 C113.5102,41.9313 113.0042,42.7943 113.5712,43.1013 C115.2262,43.9993 117.1682,44.3793 118.8582,43.3323 C119.6842,42.8193 120.1552,41.9713 120.8482,41.3133 C121.6202,40.5823 122.4392,40.0633 123.0262,39.1503 C123.3742,38.6073 122.5092,38.1053 122.1622,38.6453" id="Fill-33" fill="#071F2C"></path>
                <path d="M142.0328,38.4114 C140.9288,40.4944 140.4028,42.7434 140.4878,45.0994 C140.5108,45.7414 141.5108,45.7444 141.4878,45.0994 C141.4078,42.9114 141.8708,40.8514 142.8958,38.9164 C143.1978,38.3484 142.3338,37.8424 142.0328,38.4114" id="Fill-35" fill="#071F2C"></path>
                <path d="M143.544,38.8938 C143.339,40.0218 143.134,41.1508 142.93,42.2788 C142.815,42.9088 143.779,43.1778 143.894,42.5448 C144.099,41.4168 144.304,40.2888 144.508,39.1598 C144.623,38.5308 143.659,38.2608 143.544,38.8938" id="Fill-37" fill="#071F2C"></path>
                <path d="M146.3717,38.6638 C146.4247,41.1608 145.1987,43.4198 143.9817,45.5238 C143.6587,46.0808 144.5227,46.5858 144.8457,46.0278 C146.1497,43.7738 147.4287,41.3358 147.3717,38.6638 C147.3577,38.0208 146.3577,38.0188 146.3717,38.6638" id="Fill-39" fill="#071F2C"></path>
                <path d="M139.8634,38.3103 C138.3484,39.8613 137.4254,42.0023 137.3254,44.1663 C137.2954,44.8103 138.2954,44.8083 138.3254,44.1663 C138.4134,42.2673 139.2424,40.3763 140.5704,39.0173 C141.0204,38.5563 140.3144,37.8493 139.8634,38.3103" id="Fill-41" fill="#071F2C"></path>
                <path d="M131.2745,38.6135 C130.0175,40.2725 128.9585,42.2075 128.5635,44.2685 C128.4435,44.8975 129.4065,45.1675 129.5275,44.5345 C129.9075,42.5495 130.9265,40.7175 132.1375,39.1175 C132.5265,38.6055 131.6585,38.1065 131.2745,38.6135" id="Fill-43" fill="#071F2C"></path>
                <path d="M127.4918,41.343 C127.4138,41.889 127.3368,42.434 127.2598,42.98 C127.1698,43.61 128.1338,43.882 128.2238,43.246 C128.3008,42.7 128.3788,42.155 128.4558,41.609 C128.5448,40.979 127.5818,40.707 127.4918,41.343" id="Fill-45" fill="#071F2C"></path>
                <path d="M166.9708,36.4133 C165.7908,39.4893 168.3158,42.7353 170.3258,44.8443 C170.7718,45.3113 171.4778,44.6033 171.0338,44.1373 C169.2768,42.2953 166.8978,39.3833 167.9348,36.6793 C168.1658,36.0783 167.1988,35.8173 166.9708,36.4133" id="Fill-47" fill="#071F2C"></path>
                <path d="M174.2633,39.4734 C174.1463,40.0184 174.0293,40.5644 173.9123,41.1104 C173.7783,41.7374 174.7423,42.0064 174.8773,41.3754 C174.9933,40.8304 175.1113,40.2854 175.2273,39.7394 C175.3623,39.1114 174.3983,38.8434 174.2633,39.4734" id="Fill-49" fill="#071F2C"></path>
                <path d="M165.1104,40.4465 C165.4374,42.1945 166.2204,43.7565 167.3954,45.0875 C167.8224,45.5705 168.5274,44.8615 168.1024,44.3805 C167.0364,43.1725 166.3704,41.7615 166.0744,40.1805 C165.9574,39.5485 164.9924,39.8165 165.1104,40.4465" id="Fill-51" fill="#071F2C"></path>
                <path d="M164.9102,44.5325 C165.0662,45.0395 165.2222,45.5455 165.3782,46.0525 C165.5662,46.6655 166.5322,46.4045 166.3422,45.7865 C166.1862,45.2805 166.0302,44.7735 165.8742,44.2665 C165.6862,43.6535 164.7202,43.9155 164.9102,44.5325" id="Fill-53" fill="#071F2C"></path>
                <path d="M151.0645,53.5989 C150.0535,55.1119 149.2515,58.1319 150.7445,59.6519 C151.4895,60.4099 152.9385,60.6939 153.9145,60.9909 C155.4545,61.4609 157.0275,61.7529 158.6265,61.9339 C159.2645,62.0069 159.2595,61.0069 158.6265,60.9339 C156.5745,60.7009 154.5445,60.2449 152.6185,59.4919 C151.4085,59.0179 151.0165,58.4199 150.9865,57.0939 C150.9615,55.9879 151.3215,55.0119 151.9285,54.1029 C152.2865,53.5669 151.4205,53.0659 151.0645,53.5989" id="Fill-55" fill="#071F2C"></path>
                <path d="M158.8331,60.8816 C158.1351,57.2986 153.9401,55.8516 150.8101,55.0676 C150.1861,54.9116 149.9191,55.8756 150.5441,56.0316 C153.3151,56.7256 157.2491,57.9636 157.8691,61.1476 C157.9911,61.7786 158.9561,61.5116 158.8331,60.8816" id="Fill-57" fill="#071F2C"></path>
                <path d="M164.8902,59.8626 C165.9872,61.1986 166.7982,62.8306 166.8762,64.5786 C166.9212,65.5696 166.8272,66.5656 167.3172,67.4626 C167.6262,68.0276 168.4902,67.5236 168.1812,66.9576 C167.5602,65.8206 167.9752,64.1896 167.6262,62.9306 C167.2352,61.5216 166.5202,60.2806 165.5972,59.1556 C165.1892,58.6576 164.4852,59.3686 164.8902,59.8626" id="Fill-59" fill="#071F2C"></path>
                <path d="M179.9254,71.6423 C176.1954,69.4343 172.3784,68.3463 168.3474,66.8953 C166.0824,66.0803 165.1734,64.3603 163.3844,62.9733 C161.9304,61.8463 160.1264,61.3033 158.3934,60.7763 C157.7764,60.5883 157.5124,61.5533 158.1274,61.7413 C160.5924,62.4913 162.5294,63.3593 164.2784,65.3003 C165.1954,66.3183 166.0774,67.0473 167.3714,67.5953 C169.0774,68.3173 170.9454,68.6573 172.6904,69.2853 C175.0444,70.1343 177.2704,71.2333 179.4204,72.5053 C179.9754,72.8343 180.4794,71.9703 179.9254,71.6423" id="Fill-61" fill="#071F2C"></path>
                <path d="M241.129,67.5432 C232.597,65.9642 224.087,68.8022 216.032,71.3232 C210.822,72.9532 205.411,73.0642 200.027,73.6572 C194.522,74.2632 186.789,78.0122 182.129,73.5772 C181.663,73.1342 180.954,73.8402 181.421,74.2852 C185.027,77.7162 189.885,76.6192 194.258,75.6242 C200.448,74.2142 206.854,74.4872 213.052,73.1612 C222.353,71.1712 231.059,66.6922 240.863,68.5072 C241.492,68.6242 241.762,67.6602 241.129,67.5432" id="Fill-63" fill="#071F2C"></path>
                <path d="M241.0758,30.8596 C234.0728,29.8116 227.0028,28.7496 220.3178,26.3256 C217.0758,25.1496 214.1228,23.5376 211.1118,21.8886 C209.7798,21.1596 207.5928,19.3786 206.0008,19.3486 C205.3568,19.3376 205.3568,20.3376 206.0008,20.3486 C207.0008,20.3676 208.3508,21.5536 209.2248,22.0136 C210.4068,22.6336 211.5638,23.2956 212.7308,23.9416 C215.3438,25.3886 218.0598,26.6076 220.8838,27.5836 C227.3218,29.8096 234.0978,30.8186 240.8098,31.8236 C241.4388,31.9186 241.7108,30.9546 241.0758,30.8596" id="Fill-65" fill="#071F2C"></path>
                <path d="M182.3307,36.8079 C184.3827,37.3939 186.4077,38.0589 188.4077,38.8049 C189.0117,39.0299 189.2717,38.0639 188.6737,37.8409 C186.6737,37.0949 184.6487,36.4299 182.5967,35.8439 C181.9767,35.6669 181.7117,36.6319 182.3307,36.8079" id="Fill-67" fill="#071F2C"></path>
                <path d="M172.794,26.9983 C173.102,27.6523 173.523,28.2323 174.041,28.7363 C174.503,29.1853 175.211,28.4783 174.748,28.0293 C174.285,27.5793 173.932,27.0763 173.657,26.4933 C173.383,25.9113 172.521,26.4183 172.794,26.9983" id="Fill-69" fill="#071F2C"></path>
                <path d="M171.1573,29.1023 C171.4293,29.4923 171.7023,29.8823 171.9753,30.2713 C172.3423,30.7953 173.2093,30.2953 172.8393,29.7673 C172.5663,29.3773 172.2933,28.9873 172.0203,28.5983 C171.6543,28.0743 170.7863,28.5733 171.1573,29.1023" id="Fill-71" fill="#071F2C"></path>
                <path d="M186.0738,27.2175 C188.0218,27.8805 189.9708,28.5425 191.9198,29.2055 C192.5298,29.4125 192.7918,28.4465 192.1848,28.2405 C190.2368,27.5785 188.2878,26.9155 186.3398,26.2535 C185.7288,26.0455 185.4668,27.0115 186.0738,27.2175" id="Fill-73" fill="#071F2C"></path>
                <path d="M193.4327,22.1511 C196.0067,23.2781 198.5797,24.4051 201.1537,25.5321 C201.7367,25.7881 202.2467,24.9261 201.6577,24.6691 C199.0847,23.5421 196.5107,22.4151 193.9377,21.2871 C193.3537,21.0321 192.8447,21.8931 193.4327,22.1511" id="Fill-75" fill="#071F2C"></path>
                <path d="M1031.61,19.7122 C1020.869,15.6132 1008.643,16.8412 997.381,17.0272 C984.361,17.2432 971.346,17.6782 958.337,18.2602 C932.309,19.4232 906.312,21.1732 880.318,22.9272 C828.764,26.4062 777.329,29.0762 725.645,29.1892 C699.57,29.2452 673.493,29.0792 647.421,29.5232 C621.892,29.9562 596.367,30.9032 570.85,31.7462 C519.608,33.4382 468.361,36.2012 417.093,36.8832 C402.731,37.0742 388.369,36.9562 374.007,37.1062 C359.548,37.2552 345.081,37.6402 330.628,37.0482 C316.243,36.4592 301.992,34.3212 287.646,33.1992 C273.378,32.0822 259.076,31.4732 244.768,31.1682 C244.125,31.1542 244.125,32.1542 244.768,32.1682 C257.54,32.4402 270.307,32.9542 283.051,33.8572 C295.863,34.7642 308.583,36.5752 321.383,37.5252 C346.525,39.3912 371.947,38.1322 397.138,38.0482 C448.304,37.8772 499.418,35.1932 550.546,33.4312 C602.139,31.6522 653.68,30.1972 705.308,30.2022 C730.862,30.2042 756.422,30.2022 781.966,29.4142 C808.015,28.6092 834.034,27.0042 860.036,25.2872 C888.635,23.3982 917.225,21.3302 945.85,19.8602 C960.415,19.1132 974.989,18.5192 989.569,18.1832 C996.797,18.0162 1004.027,17.8852 1011.256,17.8852 C1018.102,17.8852 1024.884,18.2112 1031.344,20.6762 C1031.946,20.9062 1032.206,19.9402 1031.61,19.7122" id="Fill-77" fill="#071F2C"></path>
                <path d="M240.9962,68.5252 L319.4852,74.5812 C345.5582,76.5922 371.6412,79.1142 397.7922,79.7602 C449.0132,81.0252 500.2842,75.7332 551.4482,79.0912 C576.5412,80.7382 601.5242,83.6932 626.5902,85.6752 C639.3672,86.6862 652.1932,87.5722 665.0162,87.5252 C677.7962,87.4782 690.5572,86.6532 703.3352,86.4952 C715.7042,86.3412 727.9542,87.5042 740.2972,88.0412 C753.2722,88.6062 766.2622,88.6592 779.2472,88.6432 C805.3962,88.6102 831.5252,88.7812 857.6602,89.7362 C886.4632,90.7892 915.2402,92.5822 943.9512,95.1152 C958.5372,96.4012 973.1302,98.1132 987.7892,98.1882 C1002.4242,98.2642 1017.2342,94.8872 1031.8022,97.1382 C1032.4312,97.2352 1032.7032,96.2722 1032.0672,96.1732 C1019.9002,94.2942 1007.8012,96.5692 995.6232,97.0592 C982.5462,97.5852 969.4782,96.4622 956.4672,95.2602 C930.3742,92.8492 904.2532,90.8822 878.0792,89.6072 C851.9082,88.3312 825.7062,87.6692 799.5042,87.6182 C774.0292,87.5692 748.6432,87.7532 723.2132,85.9782 C697.6882,84.1952 672.1112,87.3372 646.5522,86.0062 C620.9232,84.6722 595.4202,81.6962 569.8592,79.5032 C544.6402,77.3382 519.5812,76.6292 494.2832,77.3052 C468.3492,77.9982 442.4162,79.0412 416.4682,78.9972 C387.1742,78.9482 358.0892,76.5592 328.9042,74.3072 L240.9962,67.5252 C240.3542,67.4762 240.3572,68.4762 240.9962,68.5252" id="Fill-79" fill="#071F2C"></path>
                <path d="M366.5728,70.4675 L359.0438,69.5065 C358.4068,69.4255 358.4128,70.4255 359.0438,70.5065 L366.5728,71.4675 C367.2098,71.5485 367.2038,70.5485 366.5728,70.4675" id="Fill-81" fill="#071F2C"></path>
                <path d="M342.1944,67.5584 C336.6564,67.2134 331.1194,66.8674 325.5814,66.5214 C324.9384,66.4814 324.9414,67.4814 325.5814,67.5214 C331.1194,67.8674 336.6564,68.2134 342.1944,68.5584 C342.8374,68.5984 342.8354,67.5984 342.1944,67.5584" id="Fill-83" fill="#071F2C"></path>
                <path d="M246.9317,63.177 C245.5037,60.844 244.3677,58.392 243.5187,55.791 C243.3197,55.182 242.3537,55.443 242.5547,56.057 C243.4287,58.736 244.5977,61.278 246.0687,63.681 C246.4037,64.23 247.2687,63.728 246.9317,63.177" id="Fill-85" fill="#071F2C"></path>
                <path d="M240.8463,59.7029 C240.4823,58.3499 240.1183,56.9969 239.7553,55.6449 C239.5883,55.0239 238.6233,55.2869 238.7913,55.9109 C239.1543,57.2639 239.5183,58.6159 239.8823,59.9689 C240.0483,60.5899 241.0133,60.3269 240.8463,59.7029" id="Fill-87" fill="#071F2C"></path>
                <path d="M287.7135,40.6296 C288.1295,40.7336 288.5445,40.8376 288.9605,40.9416 C289.5845,41.0976 289.8515,40.1326 289.2265,39.9766 C288.8105,39.8736 288.3945,39.7696 287.9795,39.6656 C287.3545,39.5086 287.0885,40.4736 287.7135,40.6296" id="Fill-89" fill="#071F2C"></path>
                <path d="M116.463,24.3294 C115.296,22.2074 114.128,20.0844 112.961,17.9624 C112.65,17.3984 111.787,17.9024 112.097,18.4674 L115.6,24.8334 C115.91,25.3984 116.774,24.8934 116.463,24.3294" id="Fill-91" fill="#071F2C"></path>
                <path d="M101.2398,30.6243 C98.3298,30.0003 95.4208,29.3773 92.5108,28.7543 C91.8828,28.6193 91.6148,29.5833 92.2448,29.7183 L100.9738,31.5883 C101.6008,31.7233 101.8698,30.7593 101.2398,30.6243" id="Fill-93" fill="#071F2C"></path>
                <path d="M99.7267,47.4592 C97.4927,47.7752 95.3167,48.2932 93.1797,49.0182 C92.5737,49.2232 92.8337,50.1892 93.4457,49.9822 C95.5827,49.2572 97.7587,48.7392 99.9927,48.4232 C100.6267,48.3342 100.3567,47.3702 99.7267,47.4592" id="Fill-95" fill="#071F2C"></path>
                <path d="M111.025,62.2229 C109.572,63.5759 108.119,64.9289 106.666,66.2809 C106.193,66.7209 106.901,67.4259 107.373,66.9879 C108.826,65.6359 110.279,64.2829 111.732,62.9299 C112.204,62.4909 111.496,61.7849 111.025,62.2229" id="Fill-97" fill="#071F2C"></path>
                <path d="M174.3394,81.948 C175.4844,82.882 176.6284,83.816 177.7724,84.749 C178.2674,85.153 178.9784,84.449 178.4794,84.042 C177.3354,83.109 176.1914,82.175 175.0464,81.241 C174.5524,80.838 173.8404,81.541 174.3394,81.948" id="Fill-99" fill="#071F2C"></path>
                <path d="M172.8795,87.0095 C173.5035,87.3215 174.1265,87.6335 174.7505,87.9455 C175.3235,88.2325 175.8305,87.3695 175.2545,87.0815 C174.6305,86.7695 174.0075,86.4575 173.3845,86.1465 C172.8105,85.8595 172.3035,86.7215 172.8795,87.0095" id="Fill-101" fill="#071F2C"></path>
                <path d="M198.5523,6.0252 C199.7993,6.2332 201.0463,6.4412 202.2933,6.6492 C202.9233,6.7542 203.1933,5.7902 202.5593,5.6842 C201.3123,5.4762 200.0653,5.2692 198.8183,5.0612 C198.1883,4.9562 197.9183,5.9192 198.5523,6.0252" id="Fill-103" fill="#071F2C"></path>
                <path d="M202.503,1.2708 C203.438,1.8768 204.206,2.6708 204.787,3.6208 C205.122,4.1688 205.987,3.6668 205.65,3.1168 C204.98,2.0188 204.087,1.1068 203.008,0.4068 C202.466,0.0558 201.964,0.9218 202.503,1.2708" id="Fill-105" fill="#071F2C"></path>
                <path d="M355.8082,33.1653 C358.2012,33.3723 360.5852,33.3723 362.9782,33.1653 C363.6152,33.1103 363.6202,32.1093 362.9782,32.1653 C360.5852,32.3723 358.2012,32.3723 355.8082,32.1653 C355.1672,32.1103 355.1712,33.1103 355.8082,33.1653" id="Fill-107" fill="#071F2C"></path>
                <path d="M676.4108,37.4182 C670.5778,37.5852 664.7438,37.7512 658.9108,37.9182 C658.2688,37.9362 658.2658,38.9372 658.9108,38.9182 C664.7438,38.7512 670.5778,38.5852 676.4108,38.4182 C677.0528,38.3992 677.0558,37.3992 676.4108,37.4182" id="Fill-109" fill="#071F2C"></path>
                <path d="M635.9113,41.427 C633.7443,41.594 631.5783,41.76 629.4113,41.927 C628.7743,41.977 628.7683,42.977 629.4113,42.927 C631.5783,42.76 633.7443,42.594 635.9113,42.427 C636.5493,42.378 636.5543,41.378 635.9113,41.427" id="Fill-111" fill="#071F2C"></path>
                <path d="M621.9108,50.9182 L615.4108,50.9182 C614.7668,50.9182 614.7658,51.9182 615.4108,51.9182 L621.9108,51.9182 C622.5548,51.9182 622.5558,50.9182 621.9108,50.9182" id="Fill-113" fill="#071F2C"></path>
                <path d="M904.5768,82.1028 C897.6868,81.2178 890.7978,80.3318 883.9088,79.4458 C883.2718,79.3638 883.2788,80.3648 883.9088,80.4458 C890.7978,81.3318 897.6868,82.2178 904.5768,83.1028 C905.2128,83.1848 905.2068,82.1838 904.5768,82.1028" id="Fill-115" fill="#071F2C"></path>
                <path d="M892.567,76.5115 L893.9,76.5115 C894.544,76.5115 894.545,75.5115 893.9,75.5115 L892.567,75.5115 C891.923,75.5115 891.922,76.5115 892.567,76.5115" id="Fill-117" fill="#071F2C"></path>
                <path d="M100.6065,237.137 C96.8915,240.254 92.2595,241.574 87.8365,243.345 C85.5475,244.262 83.5075,245.32 80.9655,245.258 C78.5235,245.198 76.0895,244.706 73.6455,244.588 C69.3515,244.381 64.9395,244.711 60.9225,246.35 C58.3085,247.417 55.3215,249.581 55.8155,252.761 C55.9135,253.395 56.8775,253.126 56.7795,252.495 C55.9235,246.979 66.2445,245.714 69.7715,245.564 C73.8195,245.392 77.8205,246.414 81.8315,246.268 C85.3185,246.142 88.6985,244.083 91.9135,242.866 C95.2865,241.589 98.5245,240.184 101.3135,237.844 C101.8075,237.43 101.0965,236.726 100.6065,237.137" id="Fill-119" fill="#071F2C"></path>
                <path d="M93.8853,241.7556 C94.3803,241.0226 94.4153,240.2456 94.3593,239.3796 C94.2713,238.0416 94.3573,236.8976 95.0193,235.6956 C95.3303,235.1316 94.4673,234.6276 94.1563,235.1916 C93.6883,236.0396 93.3863,236.9246 93.3143,237.8966 C93.2313,239.0086 93.6903,240.2606 93.0213,241.2516 C92.6603,241.7856 93.5263,242.2866 93.8853,241.7556" id="Fill-121" fill="#071F2C"></path>
                <path d="M91.6886,242.2962 C91.4766,240.7972 90.4276,239.5842 90.2276,238.0902 C90.1426,237.4622 89.1416,237.4532 89.2276,238.0902 C89.4406,239.6862 90.4996,240.9782 90.7246,242.5622 C90.8136,243.1962 91.7776,242.9262 91.6886,242.2962" id="Fill-123" fill="#071F2C"></path>
                <path d="M87.9605,243.6174 C86.4725,241.2144 84.5305,238.7754 84.2255,235.8974 C83.9765,233.5384 84.3725,231.1954 83.9685,228.8394 C83.8605,228.2064 82.8965,228.4744 83.0045,229.1054 C83.4745,231.8464 82.7585,234.6754 83.4415,237.3814 C84.0605,239.8314 85.7875,242.0074 87.0975,244.1214 C87.4355,244.6684 88.3005,244.1664 87.9605,243.6174" id="Fill-125" fill="#071F2C"></path>
                <path d="M86.7081,241.7244 C84.5431,240.1734 82.0191,239.9774 79.5181,239.2744 C76.2031,238.3424 73.2361,236.5394 70.3141,234.7684 C69.7621,234.4334 69.2591,235.2984 69.8091,235.6314 C72.2971,237.1404 74.8051,238.6504 77.5391,239.6754 C80.4011,240.7474 83.6641,240.7684 86.2031,242.5884 C86.7271,242.9634 87.2271,242.0964 86.7081,241.7244" id="Fill-127" fill="#071F2C"></path>
                <path d="M85.4474,244.5003 C83.8824,244.1073 82.3714,243.2753 81.2104,242.1523 C80.7474,241.7053 80.0394,242.4113 80.5034,242.8593 C81.7854,244.0993 83.4504,245.0303 85.1814,245.4643 C85.8054,245.6213 86.0724,244.6563 85.4474,244.5003" id="Fill-129" fill="#071F2C"></path>
                <path d="M69.3414,235.4714 C68.9164,236.9614 67.6784,238.1114 67.1034,239.5734 C66.3614,241.4614 65.4854,243.2344 64.3944,244.9444 C64.0474,245.4884 64.9124,245.9904 65.2574,245.4494 C66.2804,243.8454 67.1514,242.1734 67.8504,240.4034 C68.5034,238.7554 69.8244,237.4214 70.3054,235.7374 C70.4834,235.1174 69.5184,234.8524 69.3414,235.4714" id="Fill-131" fill="#071F2C"></path>
                <path d="M70.0865,234.6526 C67.5225,235.0936 64.9265,235.5496 62.3155,235.3956 C60.0645,235.2616 57.9635,234.3906 55.7195,234.2666 C53.6735,234.1526 51.6575,234.6016 49.6175,234.6566 C47.8885,234.7036 46.1855,234.4046 44.4595,234.3796 C41.2645,234.3326 38.0705,234.6486 34.8785,234.7356 C33.4285,234.7756 31.9555,234.8186 30.5105,234.6616 C27.8135,234.3706 22.2945,231.0936 26.2975,228.0986 C26.8075,227.7176 26.3095,226.8496 25.7935,227.2356 C23.1925,229.1816 23.9285,232.7516 26.4755,234.4086 C29.7995,236.5716 34.7565,235.7666 38.4735,235.5836 C43.1745,235.3516 47.8825,235.8706 52.5495,235.4096 C55.7025,235.0986 58.3185,235.9836 61.3895,236.3196 C64.3935,236.6476 67.3995,236.1256 70.3525,235.6166 C70.9845,235.5076 70.7165,234.5436 70.0865,234.6526" id="Fill-133" fill="#071F2C"></path>
                <path d="M57.5802,234.5364 C56.1342,233.8714 56.0652,231.8774 55.7492,230.5164 C55.6042,229.8904 54.6402,230.1554 54.7852,230.7834 C55.1672,232.4314 55.3272,234.5964 57.0762,235.3994 C57.6562,235.6664 58.1652,234.8054 57.5802,234.5364" id="Fill-135" fill="#071F2C"></path>
                <path d="M45.6339,234.6502 C44.4989,234.0942 43.5719,233.2842 43.5359,231.9392 C43.5189,231.2972 42.5189,231.2942 42.5359,231.9392 C42.5819,233.6362 43.6639,234.7962 45.1289,235.5132 C45.7049,235.7962 46.2119,234.9332 45.6339,234.6502" id="Fill-137" fill="#071F2C"></path>
                <path d="M61.4537,221.6428 C58.6217,222.0488 55.8507,221.2238 53.0457,222.0048 C51.6137,222.4038 50.2467,222.9958 48.7927,223.3238 C46.7407,223.7868 44.7047,223.7558 42.6197,223.8118 C37.8487,223.9418 32.7767,224.1458 28.2057,225.6328 C27.5967,225.8308 27.8577,226.7968 28.4717,226.5978 C33.5967,224.9298 39.2667,224.8958 44.6087,224.7888 C47.5617,224.7288 50.1087,223.9588 52.9077,223.0978 C55.8457,222.1948 58.7447,223.0338 61.7197,222.6068 C62.3537,222.5158 62.0837,221.5518 61.4537,221.6428" id="Fill-139" fill="#071F2C"></path>
                <path d="M94.0108,216.5813 C91.5278,216.2913 89.5088,214.6003 86.9538,214.4253 C84.3968,214.2503 81.8768,214.9653 79.5368,215.9333 C77.0878,216.9463 74.7578,218.2363 72.2548,219.1193 C69.4488,220.1073 66.5108,220.6223 63.5908,221.1353 C62.9578,221.2463 63.2258,222.2103 63.8558,222.0993 C69.0328,221.1903 73.5428,219.7113 78.3108,217.5553 C81.0158,216.3323 83.9228,215.1863 86.9538,215.4253 C89.4918,215.6253 91.5078,217.2893 94.0108,217.5813 C94.6488,217.6563 94.6438,216.6553 94.0108,216.5813" id="Fill-141" fill="#071F2C"></path>
                <path d="M140.3863,228.7629 C132.8683,227.6769 125.6883,226.0789 118.4143,223.8979 C114.9033,222.8449 111.3803,221.8869 107.7553,221.3219 C103.8773,220.7169 100.6173,219.8689 97.0903,218.0539 C96.5183,217.7599 96.0113,218.6219 96.5853,218.9169 C103.0703,222.2539 110.3303,222.5449 117.2653,224.5979 C124.8503,226.8439 132.2823,228.5949 140.1203,229.7269 C140.7503,229.8189 141.0213,228.8549 140.3863,228.7629" id="Fill-143" fill="#071F2C"></path>
                <path d="M131.9835,255.3211 C124.4295,259.2761 115.3165,263.1971 106.6675,263.2031 C102.1195,263.2061 97.5615,262.4031 93.1405,261.3941 C89.2435,260.5051 85.3935,258.8741 81.3395,259.4751 C80.7055,259.5701 80.9745,260.5331 81.6055,260.4401 C86.4515,259.7211 91.7465,262.2331 96.5105,263.1061 C100.7365,263.8811 105.0975,264.4721 109.3985,264.0891 C117.3115,263.3821 125.5045,259.8411 132.4885,256.1851 C133.0585,255.8861 132.5535,255.0231 131.9835,255.3211" id="Fill-145" fill="#071F2C"></path>
                <path d="M79.88,259.5837 C75.447,260.2527 71.017,259.7967 66.582,259.4027 C64.435,259.2117 61.716,259.3157 59.768,258.2447 C57.745,257.1317 56.911,254.8147 56.797,252.6277 C56.764,251.9877 55.764,251.9837 55.797,252.6277 C56.016,256.8237 58.363,259.4137 62.477,260.0107 C68.194,260.8417 74.414,261.4137 80.146,260.5477 C80.78,260.4527 80.51,259.4887 79.88,259.5837" id="Fill-147" fill="#071F2C"></path>
                <path d="M74.1939,248.8704 C74.4419,250.7994 74.6159,252.7334 74.7159,254.6754 C74.7499,255.3154 75.7499,255.3194 75.7159,254.6754 C75.6159,252.7334 75.4419,250.7994 75.1939,248.8704 C75.1129,248.2414 74.1119,248.2334 74.1939,248.8704" id="Fill-149" fill="#071F2C"></path>
                <path d="M72.6768,247.0667 C72.0208,250.4127 72.0508,253.7757 72.1458,257.1707 C72.1638,257.8137 73.1638,257.8157 73.1458,257.1707 C73.0528,253.8687 73.0028,250.5897 73.6408,247.3327 C73.7638,246.7037 72.8008,246.4347 72.6768,247.0667" id="Fill-151" fill="#071F2C"></path>
                <path d="M77.2935,247.3606 C77.7915,248.6536 78.0105,249.9736 77.9495,251.3596 C77.9215,252.0026 78.9215,252.0016 78.9495,251.3596 C79.0145,249.8916 78.7855,248.4666 78.2575,247.0946 C78.0285,246.5006 77.0615,246.7586 77.2935,247.3606" id="Fill-153" fill="#071F2C"></path>
                <path d="M99.2647,263.4163 C98.9277,266.9213 95.4287,266.2303 93.0597,265.5173 C91.5897,265.0743 90.0867,264.8563 88.5927,264.5213 C85.2097,263.7623 82.2547,262.0353 79.3177,260.2623 C78.7657,259.9283 78.2627,260.7933 78.8137,261.1253 C80.9567,262.4193 83.1157,263.7173 85.4597,264.6203 C87.9587,265.5833 90.6347,265.8303 93.1867,266.6053 C96.3257,267.5593 99.8767,267.4483 100.2647,263.4163 C100.3267,262.7763 99.3267,262.7803 99.2647,263.4163" id="Fill-155" fill="#071F2C"></path>
                <path d="M74.2022,228.5081 C73.4322,230.5361 72.8522,232.6091 72.4602,234.7421 C72.3442,235.3711 73.3072,235.6411 73.4242,235.0081 C73.8172,232.8741 74.3962,230.8021 75.1662,228.7741 C75.3952,228.1721 74.4292,227.9111 74.2022,228.5081" id="Fill-157" fill="#071F2C"></path>
                <path d="M70.8248,235.0081 C71.5968,233.1751 71.8988,231.2451 71.7298,229.2631 C71.6758,228.6271 70.6758,228.6211 70.7298,229.2631 C70.8918,231.1661 70.6018,232.9821 69.8608,234.7421 C69.6118,235.3341 70.5788,235.5931 70.8248,235.0081" id="Fill-159" fill="#071F2C"></path>
                <path d="M57.4659,223.7463 C56.9349,224.3243 56.3349,224.7853 55.6389,225.1493 C55.0689,225.4483 55.5739,226.3113 56.1439,226.0133 C56.9079,225.6133 57.5899,225.0883 58.1729,224.4533 C58.6079,223.9803 57.9029,223.2713 57.4659,223.7463" id="Fill-161" fill="#071F2C"></path>
                <path d="M54.3936,222.4045 C54.2926,222.9685 54.2486,223.5295 54.2836,224.1025 C54.3226,224.7415 55.3226,224.7465 55.2836,224.1025 C55.2546,223.6195 55.2726,223.1465 55.3576,222.6705 C55.4716,222.0405 54.5076,221.7705 54.3936,222.4045" id="Fill-163" fill="#071F2C"></path>
                <path d="M80.6456,216.364 C81.5666,216.868 82.7956,217.547 83.3686,218.456 C83.7106,218.999 84.5766,218.498 84.2316,217.951 C83.5626,216.888 82.2286,216.091 81.1506,215.5 C80.5856,215.191 80.0806,216.054 80.6456,216.364" id="Fill-165" fill="#071F2C"></path>
                <path d="M110.4249,256.7151 C109.3359,258.7341 107.5959,260.2381 105.4249,260.9871 C104.8209,261.1961 105.0799,262.1621 105.6909,261.9521 C108.1049,261.1181 110.0739,259.4711 111.2889,257.2201 C111.5939,256.6531 110.7309,256.1481 110.4249,256.7151" id="Fill-167" fill="#071F2C"></path>
                <path d="M96.1207,244.8787 C97.1127,244.5867 98.1057,244.2957 99.0987,244.0047 C99.7137,243.8237 99.4517,242.8577 98.8317,243.0407 C97.8397,243.3317 96.8477,243.6237 95.8547,243.9147 C95.2387,244.0957 95.5007,245.0607 96.1207,244.8787" id="Fill-169" fill="#071F2C"></path>
                <path d="M102.5982,244.0701 C102.7492,244.6031 102.8992,245.1361 103.0502,245.6691 C103.2252,246.2871 104.1902,246.0241 104.0152,245.4031 C103.8642,244.8701 103.7132,244.3371 103.5622,243.8041 C103.3882,243.1861 102.4232,243.4491 102.5982,244.0701" id="Fill-171" fill="#071F2C"></path>
                <path d="M70.2809,239.1145 C71.3159,239.2015 72.2809,239.5145 73.1779,240.0335 C73.7369,240.3565 74.2409,239.4915 73.6829,239.1705 C72.6299,238.5615 71.4919,238.2165 70.2809,238.1145 C69.6399,238.0605 69.6429,239.0615 70.2809,239.1145" id="Fill-173" fill="#071F2C"></path>
                <path d="M69.2784,241.3914 C70.0384,241.6444 70.7984,241.8974 71.5584,242.1514 C72.1704,242.3554 72.4324,241.3904 71.8234,241.1864 C71.0644,240.9334 70.3044,240.6804 69.5444,240.4274 C68.9324,240.2234 68.6704,241.1884 69.2784,241.3914" id="Fill-175" fill="#071F2C"></path>
                <path d="M216.8336,228.2493 C192.1406,229.5923 167.4006,229.8723 142.6826,229.0873 C142.0396,229.0673 142.0396,230.0673 142.6826,230.0873 C167.4006,230.8723 192.1406,230.5923 216.8336,229.2493 C217.4736,229.2143 217.4776,228.2143 216.8336,228.2493" id="Fill-177" fill="#071F2C"></path>
                <path d="M220.6051,258.3132 C205.4801,256.8782 190.4211,255.9842 175.2261,255.8782 C167.8721,255.8272 160.5221,255.7932 153.1691,255.6322 C149.5571,255.5532 145.9451,255.4702 142.3331,255.4242 C139.3241,255.3852 136.0611,254.9492 133.1831,256.0052 C132.5841,256.2262 132.8421,257.1922 133.4481,256.9702 C136.5801,255.8202 140.4771,256.3942 143.7661,256.4442 C147.3691,256.4992 150.9711,256.5852 154.5731,256.6632 C161.7801,256.8182 168.9871,256.8292 176.1951,256.8852 C191.0641,257.0022 205.8051,257.9092 220.6051,259.3132 C221.2451,259.3742 221.2411,258.3742 220.6051,258.3132" id="Fill-179" fill="#071F2C"></path>
                <path d="M221.565,228.9988 C244.491,226.2168 267.572,227.5848 290.583,228.1658 C301.543,228.4438 312.618,228.8378 323.508,227.3568 C335.478,225.7298 347.407,224.1658 359.43,222.9498 C406.104,218.2268 452.948,215.2048 499.843,213.9188 C523.167,213.2798 546.528,213.5728 569.837,212.4928 C581.529,211.9518 593.088,210.6008 604.722,209.3998 C610.268,208.8278 615.835,208.3968 621.413,208.4118 C627.153,208.4268 632.864,208.9478 638.61,208.8388 C650.15,208.6208 661.611,207.1328 673.08,205.9618 C684.731,204.7728 696.42,203.9958 708.123,203.5508 C731.584,202.6598 755.072,203.0708 778.529,203.8938 C802.109,204.7208 825.693,206.3178 849.287,206.6088 C860.839,206.7508 872.293,206.1068 883.775,204.8728 C895.2,203.6448 906.641,202.1638 918.152,202.2098 C924.277,202.2348 930.362,202.7448 936.386,203.8658 C937.015,203.9818 937.285,203.0188 936.652,202.9008 C913.984,198.6848 891.302,203.8528 868.631,205.2178 C845.471,206.6118 822.107,204.6718 798.962,203.6948 C775.262,202.6938 751.543,201.8538 727.817,202.0898 C704.15,202.3238 680.782,204.3208 657.248,206.6238 C645.657,207.7578 634.378,207.6038 622.768,207.4238 C611.545,207.2488 600.43,208.9738 589.295,210.1088 C565.878,212.4978 542.269,212.0828 518.765,212.4948 C471.658,213.3188 424.584,215.8918 377.666,220.1918 C365.737,221.2848 353.818,222.4888 341.911,223.8028 C330.758,225.0338 319.825,227.2488 308.567,227.3578 C285.298,227.5828 262.042,225.5428 238.775,226.5818 C233.021,226.8388 227.283,227.3048 221.565,227.9988 C220.934,228.0758 220.926,229.0768 221.565,228.9988" id="Fill-181" fill="#071F2C"></path>
                <path d="M939.899,277.2839 C893.176,271.2679 846.417,265.2549 799.409,261.9319 C775.718,260.2579 751.972,259.2689 728.219,259.3209 C704.94,259.3719 681.694,260.5879 658.408,260.5019 C634.753,260.4149 611.097,259.8669 587.443,260.3329 C564.147,260.7929 540.879,260.9969 517.578,260.6719 C470.635,260.0179 423.631,258.0449 376.693,259.8789 C350.794,260.8909 325.081,264.1229 299.131,263.9259 C272.866,263.7259 246.678,261.3409 220.605,258.3129 C219.967,258.2389 219.972,259.2399 220.605,259.3129 C243.887,262.0169 267.253,264.2089 290.695,264.7879 C302.407,265.0779 314.132,264.9669 325.831,264.3189 C337.128,263.6919 348.379,262.4359 359.674,261.7339 C406.538,258.8209 453.565,260.5379 500.468,261.3929 C547.454,262.2489 594.402,260.9359 641.387,261.3799 C664.661,261.5989 687.856,261.1009 711.118,260.5419 C734.862,259.9719 758.624,260.5249 782.335,261.8489 C835.087,264.7959 887.526,271.5399 939.899,278.2839 C940.535,278.3659 940.529,277.3659 939.899,277.2839" id="Fill-183" fill="#071F2C"></path>
                <path d="M58.8717,258.4485 C60.6987,258.5435 62.4647,258.2965 64.2487,257.9245 C65.2677,257.7125 66.2817,257.7145 66.5847,256.5905 C67.2227,254.2265 65.9157,251.2085 64.9857,249.0975 C64.7267,248.5105 63.8657,249.0185 64.1227,249.6025 C64.8837,251.3305 65.8817,253.6455 65.6797,255.5755 C65.5377,256.9305 64.4877,256.8755 63.3327,257.0935 C61.8427,257.3725 60.3877,257.5275 58.8717,257.4485 C58.2287,257.4155 58.2307,258.4155 58.8717,258.4485" id="Fill-185" fill="#071F2C"></path>
                <path d="M64.5543,248.8504 C62.8353,248.7484 61.0983,248.4854 59.3773,248.7014 C58.1763,248.8514 57.2783,249.3854 56.2713,250.0234 C55.7293,250.3674 56.2303,251.2334 56.7763,250.8874 C58.0183,250.0994 58.9923,249.6574 60.5183,249.6194 C61.8653,249.5864 63.2123,249.7704 64.5543,249.8504 C65.1973,249.8884 65.1953,248.8884 64.5543,248.8504" id="Fill-187" fill="#071F2C"></path>
                <path d="M108.5494,254.219 C108.1204,254.707 107.6124,255.063 106.9944,255.271 C106.3874,255.474 106.6474,256.441 107.2594,256.235 C108.0364,255.974 108.7144,255.543 109.2564,254.926 C109.6794,254.445 108.9754,253.735 108.5494,254.219" id="Fill-189" fill="#071F2C"></path>
                <path d="M130.6954,252.4353 C132.8924,251.6013 135.1504,251.0323 137.4854,250.7523 C138.1164,250.6763 138.1234,249.6753 137.4854,249.7523 C135.0564,250.0433 132.7174,250.6023 130.4294,251.4713 C129.8334,251.6973 130.0914,252.6643 130.6954,252.4353" id="Fill-191" fill="#071F2C"></path>
                <path d="M134.6593,248.7459 L137.0253,248.3519 C137.6583,248.2459 137.3893,247.2829 136.7593,247.3879 C135.9703,247.5189 135.1823,247.6499 134.3933,247.7819 C133.7603,247.8869 134.0293,248.8509 134.6593,248.7459" id="Fill-193" fill="#071F2C"></path>
                <path d="M324.7389,232.468 L288.6689,233.712 C288.0269,233.734 288.0239,234.734 288.6689,234.712 L324.7389,233.468 C325.3809,233.446 325.3839,232.446 324.7389,232.468" id="Fill-195" fill="#071F2C"></path>
                <path d="M271.5216,233.7688 L266.0026,233.7688 C265.3586,233.7688 265.3576,234.7688 266.0026,234.7688 L271.5216,234.7688 C272.1656,234.7688 272.1666,233.7688 271.5216,233.7688" id="Fill-197" fill="#071F2C"></path>
                <path d="M28.3658,230.6008 C28.3328,230.7518 28.2988,230.9018 28.2658,231.0528 C28.1258,231.6798 29.0898,231.9468 29.2298,231.3178 C29.2628,231.1678 29.2968,231.0178 29.3298,230.8668 C29.4698,230.2398 28.5058,229.9718 28.3658,230.6008" id="Fill-199" fill="#071F2C"></path>
                <path d="M103.9063,256.4744 C100.1273,256.1814 96.7853,256.9164 94.3093,253.3624 C93.9443,252.8384 93.0763,253.3374 93.4463,253.8674 C94.3853,255.2144 95.5343,256.3534 97.0973,256.9454 C99.2603,257.7644 101.6533,257.2994 103.9063,257.4744 C104.5483,257.5244 104.5453,256.5244 103.9063,256.4744" id="Fill-201" fill="#071F2C"></path>
                <path d="M93.5963,229.8611 C93.3153,230.2851 93.0333,230.7091 92.7513,231.1331 C92.3943,231.6711 93.2603,232.1731 93.6153,231.6381 C93.8963,231.2141 94.1783,230.7901 94.4603,230.3661 C94.8173,229.8281 93.9513,229.3271 93.5963,229.8611" id="Fill-203" fill="#071F2C"></path>
                <path d="M90.5435,229.343 C90.4385,229.52 90.3335,229.697 90.2285,229.874 C89.8985,230.429 90.7635,230.932 91.0915,230.379 C91.1965,230.202 91.3015,230.025 91.4065,229.848 C91.7365,229.293 90.8725,228.79 90.5435,229.343" id="Fill-205" fill="#071F2C"></path>
                <path d="M82.9264,240.0374 C82.0034,238.7474 81.3544,237.3514 80.9704,235.8124 C80.8154,235.1884 79.8504,235.4524 80.0064,236.0784 C80.4084,237.6914 81.0954,239.1894 82.0634,240.5424 C82.4344,241.0614 83.3014,240.5624 82.9264,240.0374" id="Fill-207" fill="#071F2C"></path>
                <path d="M158.2535,248.325 L156.1325,248.325 L156.1325,249.325 C157.8485,249.23 159.5445,249.321 161.2385,249.618 C161.8675,249.729 162.1375,248.766 161.5035,248.655 C159.7225,248.341 157.9405,248.225 156.1325,248.325 C155.4945,248.36 155.4835,249.325 156.1325,249.325 L158.2535,249.325 C158.8975,249.325 158.8985,248.325 158.2535,248.325" id="Fill-209" fill="#071F2C"></path>
                <path d="M25.6207,209.2322 C25.5687,206.9662 25.2707,204.7422 24.7247,202.5422 C24.5697,201.9172 23.6047,202.1822 23.7607,202.8072 C24.2857,204.9202 24.5707,207.0552 24.6207,209.2322 C24.6357,209.8752 25.6357,209.8772 25.6207,209.2322" id="Fill-211" fill="#071F2C"></path>
                <path d="M9.4786,214.7371 C6.9666,212.9161 4.2256,211.5401 1.2716,210.5951 C0.6576,210.3981 0.3946,211.3631 1.0056,211.5591 C3.8856,212.4811 6.5276,213.8271 8.9746,215.6001 C9.4966,215.9791 9.9956,215.1121 9.4786,214.7371" id="Fill-213" fill="#071F2C"></path>
                <path d="M16.5841,238.9866 C11.0271,241.0226 5.5841,243.3266 0.2561,245.9016 C-0.3229,246.1816 0.1831,247.0436 0.7611,246.7646 C6.0111,244.2286 11.3751,241.9566 16.8501,239.9506 C17.4491,239.7316 17.1901,238.7646 16.5841,238.9866" id="Fill-215" fill="#071F2C"></path>
                <path d="M26.8863,250.7546 C26.1513,252.2866 25.2473,253.7126 24.1583,255.0176 C23.7493,255.5086 24.4523,256.2196 24.8653,255.7246 C26.0103,254.3536 26.9763,252.8706 27.7493,251.2596 C28.0263,250.6816 27.1643,250.1736 26.8863,250.7546" id="Fill-217" fill="#071F2C"></path>
                <path d="M92.0289,208.7835 C94.5489,209.1305 96.8869,209.9285 99.0859,211.2135 C99.6429,211.5385 100.1469,210.6745 99.5909,210.3495 C97.3259,209.0265 94.8949,208.1775 92.2949,207.8195 C91.6649,207.7325 91.3929,208.6965 92.0289,208.7835" id="Fill-219" fill="#071F2C"></path>
                <path d="M94.3448,205.0813 C95.2088,205.1013 95.9558,205.4783 96.5158,206.1313 C96.9348,206.6213 97.6388,205.9113 97.2228,205.4243 C96.4968,204.5763 95.4568,204.1063 94.3448,204.0813 C93.7008,204.0673 93.7008,205.0673 94.3448,205.0813" id="Fill-221" fill="#071F2C"></path>
                <path d="M337.378,278.2707 C333.903,278.7537 330.417,279.0547 326.912,279.1877 C326.27,279.2127 326.267,280.2127 326.912,280.1877 C330.507,280.0517 334.08,279.7297 337.644,279.2347 C338.279,279.1467 338.008,278.1837 337.378,278.2707" id="Fill-223" fill="#071F2C"></path>
                <path d="M329.0938,275.759 L323.4828,275.759 C322.8388,275.759 322.8378,276.759 323.4828,276.759 L329.0938,276.759 C329.7378,276.759 329.7388,275.759 329.0938,275.759" id="Fill-225" fill="#071F2C"></path>
                <path d="M603.4127,250.7273 C589.4857,252.5673 575.4577,253.3983 561.4107,253.2133 C560.7667,253.2053 560.7667,254.2043 561.4107,254.2133 C575.4577,254.3983 589.4857,253.5673 603.4127,251.7273 C604.0417,251.6443 604.0497,250.6433 603.4127,250.7273" id="Fill-227" fill="#071F2C"></path>
                <path d="M577.9108,247.7122 L572.4108,247.7122 C571.7668,247.7122 571.7658,248.7122 572.4108,248.7122 L577.9108,248.7122 C578.5548,248.7122 578.5558,247.7122 577.9108,247.7122" id="Fill-229" fill="#071F2C"></path>
                <path d="M773.8976,215.0061 C798.8206,216.8701 823.6806,219.5061 848.4396,222.9181 C849.0686,223.0051 849.3406,222.0411 848.7046,221.9541 C823.8576,218.5291 798.9106,215.8771 773.8976,214.0061 C773.2556,213.9581 773.2586,214.9591 773.8976,215.0061" id="Fill-231" fill="#071F2C"></path>
                <path d="M877.9186,218.9504 C872.3546,218.6664 866.7916,218.3814 861.2276,218.0964 C860.5846,218.0634 860.5856,219.0644 861.2276,219.0964 C866.7916,219.3814 872.3546,219.6664 877.9186,219.9504 C878.5616,219.9834 878.5596,218.9834 877.9186,218.9504" id="Fill-233" fill="#071F2C"></path>
                <path d="M1836.7823,145.4002 C1835.2383,142.8122 1832.5503,140.8852 1828.7023,140.7072 C1827.9483,140.6722 1827.1943,140.6422 1826.4403,140.6072 C1789.9893,135.6382 1753.3003,135.8032 1716.6163,137.1762 C1673.3483,136.4072 1630.0673,136.2762 1586.7933,136.6432 C1506.4313,137.3232 1426.0953,139.6682 1345.7883,142.6142 C1324.3923,143.3992 1302.9973,144.2292 1281.6043,145.0792 C1230.4773,144.4182 1179.3573,143.1972 1128.2563,141.4142 C1062.6553,139.1252 997.0893,135.9022 931.5783,131.7732 C931.0983,131.7422 930.6413,131.7502 930.1983,131.7752 C883.4833,128.2242 836.6623,125.7142 790.0023,122.5722 C703.2863,116.7342 616.5843,110.2832 529.8133,105.3172 C504.6443,103.8772 479.4553,102.6932 454.2553,101.9862 C446.0203,100.9672 425.1803,99.8972 424.0843,101.3852 C410.2163,101.2262 379.6323,101.9282 378.6133,102.6372 C364.2423,102.8992 349.8733,103.2632 335.5073,103.6342 C322.6603,103.9662 322.6113,123.9672 335.5073,123.6342 C395.3523,122.0882 455.3083,120.7372 514.9593,126.8792 C572.7073,132.8242 629.7363,144.1642 687.4183,150.6462 C709.8583,153.1672 732.3923,154.9102 754.9583,155.3212 C822.6123,161.8332 890.3893,167.0132 958.2353,171.0592 C1033.5903,175.5542 1109.0223,178.6812 1184.4803,180.8042 C1259.9823,182.9292 1335.5093,184.0472 1411.0383,184.5232 C1486.5973,184.9982 1562.1573,184.8302 1637.7163,184.3792 C1675.4903,184.1542 1713.2643,183.8582 1751.0383,183.5362 C1769.9213,183.3752 1788.8033,183.2082 1807.6853,183.0402 C1822.8283,182.9052 1843.4403,181.7722 1845.0413,162.2742 C1845.5853,155.6492 1842.6873,148.7072 1836.7823,145.4002" id="Fill-235" fill="#F2F2F2"></path>
                <g id="Group-239" transform="translate(175.000000, 303.279000)" fill="#F2F2F2">
                    <path d="M1571.464,9.6236 C1462.405,12.2516 1353.312,13.3966 1244.221,13.0356 C1135.132,12.6746 1026.047,10.8126 917.009,7.4526 C870.876,6.0296 824.752,4.3356 778.638,2.3786 C777.676,1.8006 776.499,1.4496 775.106,1.4326 C766.977,1.3266 758.844,1.2246 750.71,1.1426 C744.992,0.8866 739.274,0.6466 733.556,0.3826 C732.127,0.3166 730.745,0.5466 729.443,0.9936 C694.24,0.8836 659.034,1.5676 623.972,4.8926 C574.281,9.6046 525.6,21.1686 475.457,20.6756 C450.534,20.4316 425.659,18.5816 400.737,18.2786 C375.805,17.9756 350.878,18.8536 325.967,19.8066 C275.964,21.7166 226.233,22.4926 176.264,19.1436 C119.759,15.3566 63.572,29.0486 7.437,21.7476 C3.656,21.2556 0.473,25.3176 0.437,28.7476 C0.393,32.9336 3.703,35.2626 7.437,35.7476 C10.282,36.1176 13.128,36.4826 15.973,36.8536 C21.742,39.0886 32.477,40.0226 38.492,41.6856 C47.637,44.2136 57.92,37.8136 66.492,41.6856 C75.431,45.7226 77.208,36.7746 86.872,37.3546 C96.731,37.9456 106.059,40.3396 115.486,43.1656 C124.662,45.9176 133.791,48.7706 143.31,50.0786 C153.39,51.4626 163.667,51.6176 173.827,51.8296 C176.645,51.8886 179.462,51.9246 182.28,51.9436 C187.75,52.7006 193.253,53.2496 198.8,53.5096 C222.137,54.6046 244.346,48.0556 267.358,45.7476 C289,43.5766 310.752,45.7936 332.097,49.5006 C375.352,57.0126 419.02,70.0926 463.338,64.8216 C474.428,63.5026 485.402,61.1246 496.553,60.3406 C508.825,59.4776 521.022,61.0076 533.209,62.2696 C557.539,64.7926 581.025,62.0866 605.213,59.4916 C646.959,55.0146 688.846,56.5046 730.628,59.4336 C755.719,65.2036 781.533,67.2866 807.214,68.3646 C835.399,69.5476 863.61,70.2326 891.805,71.1316 C948.654,72.9436 1005.501,74.8316 1062.353,76.5576 C1090.637,77.4156 1118.934,78.0996 1147.233,77.8246 C1175.586,77.5496 1203.795,75.7366 1232.077,73.8906 C1260.218,72.0536 1288.167,71.7006 1316.311,73.7166 C1344.659,75.7466 1372.876,79.2636 1401.217,81.3716 C1459.926,85.7376 1521.94,82.9756 1573.932,52.3026 C1580.703,48.3076 1581.568,39.5976 1578.031,33.7816 C1587.779,27.7906 1585.63,9.2826 1571.464,9.6236" id="Fill-237"></path>
                </g>
                <path d="M1031.9679,21.1897 C1090.4909,20.2657 1149.0149,19.3417 1207.5379,18.4177 C1265.7289,17.4997 1323.9199,16.5807 1382.1109,15.6617 C1397.3899,15.4207 1412.6799,15.6407 1427.8619,13.6847 C1441.6819,11.9037 1455.5099,8.9627 1469.4919,8.8967 C1470.1349,8.8937 1470.1359,7.8937 1469.4919,7.8967 C1457.5329,7.9537 1445.6669,10.1737 1433.8639,11.8627 C1427.2879,12.8037 1420.6879,13.6607 1414.0529,14.0457 C1407.0799,14.4517 1400.0669,14.3777 1393.0839,14.4887 C1363.8219,14.9507 1334.5609,15.4127 1305.2989,15.8747 C1247.1079,16.7937 1188.9169,17.7117 1130.7259,18.6307 C1097.8069,19.1507 1064.8869,19.6697 1031.9679,20.1897 C1031.3249,20.1997 1031.3229,21.1997 1031.9679,21.1897" id="Fill-240" fill="#071F2C"></path>
                <path d="M1807.9464,9.1248 C1782.6714,7.7908 1757.3774,8.1478 1732.0794,8.0418 C1707.9214,7.9398 1683.8194,6.1398 1659.6644,7.0348 C1637.7194,7.8478 1615.8544,9.3578 1593.8814,9.0208 C1577.3334,8.7668 1560.7924,8.2238 1544.2454,7.8848 C1520.6964,7.4038 1497.1454,7.4888 1473.5964,7.9778 C1472.9534,7.9908 1472.9514,8.9908 1473.5964,8.9778 C1511.5804,8.1898 1549.4614,9.1888 1587.4314,9.9098 C1608.6914,10.3128 1629.8004,9.3658 1651.0334,8.3958 C1662.4044,7.8758 1673.7994,7.4458 1685.1824,7.7638 C1697.7744,8.1148 1710.3394,8.8308 1722.9414,8.9728 C1751.2834,9.2938 1779.6254,8.6298 1807.9464,10.1248 C1808.5894,10.1588 1808.5874,9.1588 1807.9464,9.1248" id="Fill-242" fill="#071F2C"></path>
                <path d="M1036.0031,96.8909 C1083.1851,100.1839 1130.3911,103.1319 1177.6161,105.7289 C1224.8421,108.3249 1272.0861,110.5719 1319.3451,112.4699 C1345.8761,113.5349 1372.4121,114.4879 1398.9511,115.3339 C1399.5951,115.3549 1399.5941,114.3549 1398.9511,114.3339 C1351.6781,112.8279 1304.4171,110.9749 1257.1711,108.7709 C1209.9261,106.5669 1162.6971,104.0139 1115.4891,101.1109 C1088.9871,99.4809 1062.4911,97.7399 1036.0031,95.8909 C1035.3611,95.8459 1035.3631,96.8469 1036.0031,96.8909" id="Fill-244" fill="#071F2C"></path>
                <path d="M1398.7408,115.3274 C1452.6038,114.0134 1506.4618,112.4454 1560.2958,110.2264 C1587.1758,109.1194 1614.0498,107.8484 1640.9108,106.3474 C1668.2428,104.8194 1695.5338,102.6014 1722.9258,103.7554 C1753.7428,105.0524 1784.6918,108.7794 1815.4568,104.6714 C1816.0848,104.5874 1816.0938,103.5864 1815.4568,103.6714 C1788.2828,107.2994 1760.8998,104.8204 1733.6718,103.2914 C1719.9308,102.5204 1706.2008,102.1374 1692.4408,102.5664 C1678.7238,102.9934 1665.0288,103.9554 1651.3288,104.7524 C1597.4678,107.8874 1543.5538,110.0694 1489.6308,111.7974 C1459.3378,112.7674 1429.0398,113.5884 1398.7408,114.3274 C1398.0988,114.3434 1398.0958,115.3434 1398.7408,115.3274" id="Fill-246" fill="#071F2C"></path>
                <path d="M940.8771,204.261 C997.8361,200.064 1054.8601,196.764 1111.9231,194.378 C1168.8211,191.999 1225.7561,190.522 1282.7001,189.95 C1314.7421,189.628 1346.7861,189.595 1378.8281,189.843 C1379.4721,189.847 1379.4721,188.847 1378.8281,188.843 C1321.7161,188.401 1264.5991,188.859 1207.5021,190.231 C1150.5711,191.599 1093.6621,193.871 1036.8041,197.046 C1004.8111,198.832 972.8341,200.907 940.8771,203.261 C940.2391,203.308 940.2341,204.308 940.8771,204.261" id="Fill-248" fill="#071F2C"></path>
                <path d="M1386.8136,190.7302 C1434.4016,191.1902 1481.9896,191.6512 1529.5776,192.1122 C1553.2056,192.3412 1576.8326,192.5702 1600.4606,192.7982 C1624.1536,193.0282 1647.9606,193.9302 1671.6446,193.0442 C1697.6266,192.0732 1723.3636,185.7792 1749.4406,187.5932 C1750.0836,187.6382 1750.0806,186.6372 1749.4406,186.5932 C1726.3116,184.9842 1703.5166,189.9192 1680.5406,191.5662 C1656.9426,193.2572 1633.0826,192.1142 1609.4456,191.8852 C1562.0236,191.4262 1514.6026,190.9672 1467.1806,190.5082 L1386.8136,189.7302 C1386.1696,189.7242 1386.1696,190.7242 1386.8136,190.7302" id="Fill-250" fill="#071F2C"></path>
                <path d="M946.153,279.533 C1012.265,286.734 1078.851,286.164 1145.256,285.79 C1177.897,285.606 1210.526,285.506 1243.153,286.632 C1276.018,287.766 1308.846,289.717 1341.678,291.514 C1378.089,293.507 1414.525,295.322 1450.995,295.577 C1451.639,295.582 1451.64,294.582 1450.995,294.577 C1385.564,294.119 1320.31,288.692 1254.956,286.073 C1189.151,283.436 1123.32,285.707 1057.491,284.73 C1020.315,284.178 983.129,282.56 946.153,278.533 C945.514,278.463 945.519,279.464 946.153,279.533" id="Fill-252" fill="#071F2C"></path>
                <path d="M1454.8458,296.3225 C1491.1738,298.3855 1527.6068,296.2295 1563.9188,294.8255 C1602.3838,293.3395 1640.8228,293.7055 1679.3078,293.8645 C1701.5908,293.9575 1723.8748,294.0495 1746.1578,294.1415 C1746.8018,294.1445 1746.8028,293.1445 1746.1578,293.1415 C1706.5798,292.9775 1667.0018,292.8145 1627.4238,292.6505 C1589.8848,292.4945 1552.4548,294.5805 1514.9458,295.6695 C1494.9188,296.2505 1474.8578,296.4585 1454.8458,295.3225 C1454.2028,295.2865 1454.2048,296.2865 1454.8458,296.3225" id="Fill-254" fill="#071F2C"></path>
                <path d="M1790.9781,28.1882 C1779.8441,27.0682 1768.6781,26.3442 1757.4931,26.0172 C1756.8491,25.9982 1756.8501,26.9982 1757.4931,27.0172 C1768.6781,27.3442 1779.8441,28.0682 1790.9781,29.1882 C1791.6181,29.2522 1791.6131,28.2522 1790.9781,28.1882" id="Fill-256" fill="#071F2C"></path>
                <path d="M1741.9918,20.0525 C1733.3238,19.4035 1724.6558,18.7545 1715.9878,18.1055 C1715.3458,18.0565 1715.3488,19.0575 1715.9878,19.1055 C1724.6558,19.7545 1733.3238,20.4035 1741.9918,21.0525 C1742.6338,21.1005 1742.6308,20.1005 1741.9918,20.0525" id="Fill-258" fill="#071F2C"></path>
                <path d="M1509.9791,29.4148 C1479.4531,26.4358 1449.5971,35.1288 1419.5071,38.6038 C1418.8751,38.6768 1418.8681,39.6778 1419.5071,39.6038 C1449.5961,36.1288 1479.4581,27.4358 1509.9791,30.4148 C1510.6191,30.4768 1510.6151,29.4768 1509.9791,29.4148" id="Fill-260" fill="#071F2C"></path>
                <path d="M1392.9918,33.5149 C1402.6808,33.5409 1412.3598,33.1489 1422.0158,32.3389 C1422.6528,32.2859 1422.6588,31.2849 1422.0158,31.3389 C1412.3598,32.1489 1402.6808,32.5409 1392.9918,32.5149 C1392.3478,32.5139 1392.3468,33.5139 1392.9918,33.5149" id="Fill-262" fill="#071F2C"></path>
                <path d="M1286.6422,99.6604 C1288.9752,99.3214 1291.3072,98.9824 1293.6402,98.6434 C1294.2742,98.5514 1294.0042,97.5874 1293.3742,97.6794 C1291.0412,98.0184 1288.7092,98.3574 1286.3762,98.6964 C1285.7422,98.7884 1286.0122,99.7514 1286.6422,99.6604" id="Fill-264" fill="#071F2C"></path>
                <path d="M1313.4952,101.4846 C1322.8372,101.9856 1332.1802,102.4866 1341.5222,102.9866 C1342.1652,103.0216 1342.1632,102.0216 1341.5222,101.9866 C1332.1802,101.4866 1322.8372,100.9856 1313.4952,100.4846 C1312.8522,100.4506 1312.8542,101.4506 1313.4952,101.4846" id="Fill-266" fill="#071F2C"></path>
                <path d="M1262.4796,208.719 C1277.1276,209.762 1291.8136,210.018 1306.4886,209.486 C1307.1306,209.463 1307.1336,208.463 1306.4886,208.486 C1291.8136,209.018 1277.1276,208.762 1262.4796,207.719 C1261.8376,207.673 1261.8406,208.674 1262.4796,208.719" id="Fill-268" fill="#071F2C"></path>
                <path d="M1392.4918,212.5549 L1410.4918,212.5549 C1411.1348,212.5549 1411.1368,211.5549 1410.4918,211.5549 L1392.4918,211.5549 C1391.8478,211.5549 1391.8468,212.5549 1392.4918,212.5549" id="Fill-270" fill="#071F2C"></path>
                <path d="M1575.4977,278.6643 C1614.7927,276.4123 1654.1347,275.0233 1693.4907,274.4993 C1694.1337,274.4913 1694.1357,273.4913 1693.4907,273.4993 C1654.1347,274.0233 1614.7927,275.4123 1575.4977,277.6643 C1574.8577,277.7013 1574.8537,278.7013 1575.4977,278.6643" id="Fill-272" fill="#071F2C"></path>
                <path d="M1638.6183,266.4983 C1645.2763,265.4403 1651.9333,264.3833 1658.5913,263.3263 C1659.2243,263.2253 1658.9553,262.2613 1658.3253,262.3613 C1651.6673,263.4193 1645.0103,264.4763 1638.3523,265.5343 C1637.7193,265.6343 1637.9883,266.5983 1638.6183,266.4983" id="Fill-274" fill="#071F2C"></path>
                <path d="M994.5065,265.3494 L1027.4815,267.6964 C1028.1235,267.7424 1028.1205,266.7424 1027.4815,266.6964 L994.5065,264.3494 C993.8635,264.3034 993.8665,265.3034 994.5065,265.3494" id="Fill-276" fill="#071F2C"></path>
                <path d="M1018.4918,256.5549 L1031.4918,256.5549 C1032.1348,256.5549 1032.1368,255.5549 1031.4918,255.5549 L1018.4918,255.5549 C1017.8478,255.5549 1017.8468,256.5549 1018.4918,256.5549" id="Fill-278" fill="#071F2C"></path>
            </g>
        </g>
    </g>
</svg>