<svg xmlns="http://www.w3.org/2000/svg" width="100%" height="100%" viewBox="0 0 473 190" preserveAspectRatio="none">
    <path fill="#002D72" fill-rule="evenodd" d="M435.881 186.47c-40.27 0-40.27 2.723-80.54 2.723-40.273 0-40.273-6.424-80.545-6.424-40.274 0-40.274 2.531-80.548 2.531-40.275 0-40.275 4.104-80.55 4.104S73.423 190 33.146 190c-18.167 0-31.899-20.7-31.899-40.223 0-54.525-.464-54.525-.464-109.052C.783 21.202 14.98 1.92 33.146 1.92 73.418 1.92 73.418.5 113.688.5c40.273 0 40.273 6.847 80.544 6.847 40.274 0 40.274-2.6 80.548-2.6 40.275 0 40.275-1.488 80.55-1.488 40.276 0 40.276 3.709 80.551 3.709 18.168 0 37.1 14.234 37.1 33.757 0 54.527-5.656 54.527-5.656 109.052 0 19.524-13.276 36.694-31.444 36.694"/>
</svg>
