<svg id="Layer_1" data-name="Layer 1" xmlns="http://www.w3.org/2000/svg" viewBox="0 0 62.59 66.88" width="100%" height="100%" preserveAspectRatio="none"><defs><style>.cls-1{fill:#1e1f1c;}</style></defs><title>nudj-cta-test</title><path class="cls-1" d="M17,8.15l4.33,4.67c.44.47,1.14-.24.71-.71L17.69,7.44c-.44-.47-1.14.24-.71.71Z"/><path class="cls-1" d="M5.18,16.34a107.57,107.57,0,0,1,10.25,3.84c.58.25,1.09-.61.5-.86A110.1,110.1,0,0,0,5.45,15.38c-.61-.2-.88.77-.27,1Z"/><path class="cls-1" d="M11.13,25.32a6.86,6.86,0,0,0-3.6.33c-.6.23-.34,1.19.27,1a5.87,5.87,0,0,1,3.07-.33c.63.1.9-.86.27-1Z"/><path class="cls-1" d="M17.88,49a18.46,18.46,0,0,0-6.29,4c-.46.45.25,1.16.71.71A17.21,17.21,0,0,1,18.15,50c.59-.23.34-1.2-.27-1Z"/><path class="cls-1" d="M25.92,54.89a4.34,4.34,0,0,0-.82,2.91c0,.64,1.05.64,1,0a3.48,3.48,0,0,1,.69-2.41c.38-.52-.49-1-.86-.5Z"/><path class="cls-1" d="M39.14,56.8A8.67,8.67,0,0,0,40.91,62c.38.51,1.25,0,.86-.5a7.77,7.77,0,0,1-1.63-4.74.5.5,0,0,0-1,0Z"/><path class="cls-1" d="M53,8.44l-2-2a.5.5,0,0,0-.71.71l2,2A.5.5,0,0,0,53,8.44Z"/></svg>
