<svg id="Layer_1" data-name="Layer 1" xmlns="http://www.w3.org/2000/svg" viewBox="0 0 62.59 66.88" width="100%" height="100%" preserveAspectRatio="none"><defs><style>.cls-1{fill:#1e1f1c;}</style></defs><title>nudj-cta-test</title><path class="cls-1" d="M19.84,13.81A11.4,11.4,0,0,0,13,8.58a.5.5,0,0,0-.27,1A10.37,10.37,0,0,1,19,14.32a.5.5,0,0,0,.86-.5Z"/><path class="cls-1" d="M7.85,22.5a17.31,17.31,0,0,0-4.07-1.37c-.63-.13-.9.84-.27,1a16.26,16.26,0,0,1,3.83,1.27c.58.28,1.09-.59.5-.86Z"/><path class="cls-1" d="M12.07,45.15A32,32,0,0,0,.63,50.82c-.51.39.2,1.1.71.71a30.7,30.7,0,0,1,11-5.42.5.5,0,0,0-.27-1Z"/><path class="cls-1" d="M23.67,52.49l-2.61,3c-.42.48.28,1.19.71.71l2.61-3c.42-.48-.28-1.19-.71-.71Z"/><path class="cls-1" d="M56.08,58.3l-.66,2c-.2.61.76.87,1,.27l.66-2c.2-.61-.76-.87-1-.27Z"/><path class="cls-1" d="M44.65,6A12.16,12.16,0,0,0,42.55.64c-.37-.52-1.23,0-.86.5a11.52,11.52,0,0,1,2,5.13c.09.63,1,.36,1-.27Z"/></svg>
