<svg id="Layer_1" data-name="Layer 1" xmlns="http://www.w3.org/2000/svg" viewBox="0 0 62.59 66.88" width="100%" height="100%" preserveAspectRatio="none"><defs><style>.cls-1{fill:#1e1f1c;}</style></defs><title>nudj-cta-test</title><path class="cls-1" d="M22.9,10.1a16.87,16.87,0,0,0-9.09,7.75c-.31.56.55,1.07.86.5a15.82,15.82,0,0,1,8.5-7.29c.6-.22.34-1.19-.27-1Z"/><path class="cls-1" d="M15,9.45a24.22,24.22,0,0,0-4,4c-.39.5.31,1.21.71.71a24.22,24.22,0,0,1,4-4c.5-.4-.21-1.11-.71-.71Z"/><path class="cls-1" d="M17.72,48.16a5.35,5.35,0,0,0,3.84,4.72.5.5,0,0,0,.27-1,4.32,4.32,0,0,1-3.11-3.75c-.05-.64-1.06-.64-1,0Z"/></svg>
