<svg id="Layer_1" data-name="Layer 1" xmlns="http://www.w3.org/2000/svg" viewBox="0 0 62.59 66.88" width="100%" height="100%" preserveAspectRatio="none"><defs><style>.cls-1{fill:#1e1f1c;}</style></defs><title>nudj-cta-test</title><path class="cls-1" d="M37.17,8.83a10.22,10.22,0,0,1,8.93,4.32c.37.52,1.24,0,.86-.5a11.24,11.24,0,0,0-9.79-4.81c-.64,0-.64,1,0,1Z"/><path class="cls-1" d="M48.5,9a6.11,6.11,0,0,1,4,1.58c.48.43,1.19-.28.71-.71A7.2,7.2,0,0,0,48.5,8a.5.5,0,0,0,0,1Z"/><path class="cls-1" d="M49.62,43.13a36.44,36.44,0,0,1-9.75,10.63c-.52.38,0,1.24.5.86a37.7,37.7,0,0,0,10.11-11,.5.5,0,0,0-.86-.5Z"/><path class="cls-1" d="M52.48,51.72l-4,5.64c-.38.52.49,1,.86.5l4-5.64c.38-.52-.49-1-.86-.5Z"/></svg>
