<svg xmlns="http://www.w3.org/2000/svg" xmlns:xlink="http://www.w3.org/1999/xlink" width="345" height="387" viewBox="0 0 345 387"><defs><path id="a" d="M1.004 1h-1V0h1v1z"/></defs><g fill="none" fill-rule="evenodd"><path fill="#F2F2F2" d="M308.504 276.164v-.004l-.057-.192c.019.064.037.131.057.196"/><path fill="#F2F2F2" d="M309.068 273.334a5.66 5.66 0 0 0 .349-.562c3.538-6.25 7.342-12.835 7.913-20.129.723-9.238-5.12-15.807-10.599-22.472-5.387-6.557-11.36-13.367-16.313-19.859-1.856-2.434-3.868-5.422-4.435-7.829-.307-1.306-.283-2.333-.156-4.31.14-2.238.483-4.455.688-6.687.38-4.135.16-8.42-1.29-12.344-.738-1.994-1.654-3.826-2.886-5.546a44.95 44.95 0 0 0-.97-1.296c3.825-2.959 6.47-6.848 7.103-11.802 1.27-9.93-5.455-18.07-13.3-23.167-3.479-2.258-7.418-3.922-11.33-5.458a62.389 62.389 0 0 1-1.175-1.295c-1.42-1.857-3.614-5.848-5.258-8.6-4.095-6.858-9.18-12.809-15.332-17.896-6.774-5.602-14.398-12.532-23.314-14.143-3.633-.657-8.106-.575-11.025-1.212-3.975-.869-7.751-2.529-11.523-4.01-7.675-3.02-16.103-5.178-24.279-2.71-7.802 2.353-13.404 7.973-18.7 13.853-4.632 5.142-9.82 9.56-15.957 12.225-7.17 3.114-14.775 4.955-20.465 10.695-6.251 6.308-7.01 14.735-7.09 23.153-.013 1.283.072 1.295-.26 1.965-.04.08-.07.144-.097.204a2.43 2.43 0 0 0-.346.283 3.335 3.335 0 0 0-.334.342 32.79 32.79 0 0 0-.666.414c-3.28 2.08-6.5 4.24-9.603 6.574-6.613 4.972-12.83 10.377-18.398 16.506-5.864 6.456-15.084 15.303-12.66 24.842 1.127 4.436 4.335 6.675 7.103 9.893l.023.025c.031.082.093.212.194.405.056.108.316.665.507 1.06.076.35.275 1.07.404 1.522.038.325.118.951.12 1.302 0 .126-.043.682-.07 1.112-.097.317-.252.94-.357 1.39-.15-.08-1.522 2.57-.507 1.3-2.442 3.057-2.73 2.71-5.98 4.877-6.29 4.195-12.404 8.575-15.515 15.72-3.631 8.331-2.563 17.692-1.303 26.443 2.038 14.16 7.431 28.092 16.124 39.502 4.954 6.501 10.666 12.041 17.499 16.574 5.79 3.841 14.233 6.96 18.303 10.957 1.306 1.283 1.032.876 1.97 2.43.153.255.243.38.296.436.066.182.142.394.248.676.066.174.175.964.212 1.101.147 2.996-.5 5.99-.21 9.004.481 5.024 2.422 9.49 6.532 12.608 4.228 3.208 9.1 3.696 14.258 3.623 8.552-.12 16.91.792 25.193 2.947 8.585 2.233 17.292 5.565 26.325 4.761 9.4-.835 16.286-5.522 23.122-11.67 5.293-4.76 10.643-8.066 17.632-9.784 6.815-1.674 14.233.085 21.877-.4 8.668-.554 16.21-4.506 21.691-11.21 4.422-5.406 7.526-11.605 11.555-17.273.058-.082.105-.148.144-.206a37.066 37.066 0 0 1 2.192-2.387c1.142-1.128 1.615-1.555 2.577-2.255 3.026-2.202 6.462-3.933 9.883-5.425 6.41-2.797 16.824-4.588 19.906-13.075 1.767-4.86.497-8.414-.803-12.882-.04.46-.382.426-.13-.443a11.724 11.724 0 0 0 .002 0c.005-.023.005-.035.012-.057.008-.026.015-.054.024-.08.078.231.103.43.091.576.313 1.036.012-.256-.09-.58.178-.578.346-1.168.517-1.748.065-.218.107-.372.137-.498"/><path fill="#071F2C" d="M124.59 135.002c1.932 0 1.935-3 0-3-1.93 0-1.933 3 0 3m21.335 152.668c.75 0 1.207-.457 1.374-1.013 3.744-.845 7.222-2.498 10.235-4.762.242.264.592.44 1.057.44 1.348 0 1.753-1.459 1.22-2.342a27.374 27.374 0 0 0 6.3-8.815 244.572 244.572 0 0 0-.18 15.885c-.316.277-.526.672-.506 1.106.036.812.659 1.5 1.5 1.5h.333c.785 0 1.536-.69 1.5-1.5-.036-.812-.66-1.5-1.5-1.5h-.333c-.107-5.46-.031-10.918.226-16.373.273.038.576-.113.57-.47v-.05c.876-.562.863-2.037-.04-2.572l-.541-35.97c1.208-.456 1.194-2.39-.043-2.81l-.312-20.71a1.662 1.662 0 0 0-.027-1.796l-.333-22.077a.508.508 0 0 0-.04-.185c1.798-.133 1.762-2.987-.127-2.987-1.657 0-1.89 2.207-.7 2.832a.454.454 0 0 0-.133.34c.108 7.17.217 14.34.324 21.511-.053-.005-.101-.016-.158-.016-1.93 0-1.934 3 0 3 .072 0 .137-.013.203-.02l.303 20.103c-1.278.424-1.267 2.46.043 2.847l.533 35.367c-.02.036-.043.067-.055.112-.026.105-.063.205-.092.31-1.052.267-1.31 1.575-.773 2.357a26.22 26.22 0 0 1-6.76 9.978 1.545 1.545 0 0 0-.402-.055c-1.007 0-1.483.816-1.44 1.597a26.231 26.231 0 0 1-9.862 4.711c-.175-.539-.63-.974-1.364-.974-1.931 0-1.934 3 0 3m18.333-131.333c-1.931 0-1.934 3 0 3 1.93 0 1.934-3 0-3m1.037-26.715c.72.198 1.589-.362 1.75-1.07.195-.855-.26-1.546-1.048-1.845-.932-.355-2.155-.037-2.778.75-.502.635-.619 1.502 0 2.121.508.508 1.555.627 2.076.044m36.198 38.309c.044.162.122.316.225.457l-.006.493c-.007.592.83.633.97.135.135.027.271.04.408.02.463.325 1.052.41 1.597.092.65-.38 1.014-1.39.538-2.051-.568-.791-1.503-1.304-2.482-1.044l.25-22.885c.03-2.826-.03-5.72-.048-8.625.198.099.416.157.646.147.813-.036 1.5-.66 1.5-1.5v-.333c0-.785-.69-1.537-1.5-1.5-.229.01-.446.072-.642.166.047-4.763.332-9.518 1.451-14.044a26.36 26.36 0 0 1 1.284-3.864c.61-.192 1.103-.766 1.074-1.425a1.652 1.652 0 0 0-.128-.567c2.457-4.615 6.384-8.226 11.716-9.26.25.2.56.327.912.327h.333c.462 0 .907-.242 1.192-.603 7.413-.342 13.927 3.785 18.794 9.096a.463.463 0 0 0-.139.342c.133 22.545.756 45.083 1.85 67.6-.13.22-.209.468-.197.732.013.305.111.593.27.833.414 8.367.892 16.733 1.44 25.093-.597.203-1.043.732-1.043 1.407v.333c0 .785.69 1.536 1.5 1.5.812-.036 1.5-.66 1.5-1.5v-.333c0-.6-.406-1.178-.957-1.402a1572.729 1572.729 0 0 1-1.409-24.451c.066.009.13.02.2.02h.666c.785 0 1.536-.69 1.5-1.5-.036-.813-.66-1.5-1.5-1.5h-.667c-.115 0-.227.019-.338.046-.447-9.286-.814-18.576-1.097-27.87.242.293.608.49 1.102.49 1.93 0 1.933-3 0-3-.54 0-.926.24-1.163.58a1578.928 1578.928 0 0 1-.65-36.481c.216.143.485.235.813.235 1.93 0 1.933-3 0-3a1.55 1.55 0 0 0-.44.067c-.162-6.057.092-12.115.867-18.127.388-3.006.983-5.992 1.21-9.017.061-.814.09-1.63.095-2.444.967-.546.951-2.157-.057-2.66-.065-1.532-.175-3.064-.277-4.593l-2.639-39.917c.08.012.156.024.241.024 1.93 0 1.933-3 0-3-1.279 0-1.706 1.314-1.29 2.202l2.688 40.69c.1 1.49.21 2.98.275 4.474-1.509.3-1.494 2.68.048 2.94a35.129 35.129 0 0 1-.055 1.835c-.202 3.178-.833 6.31-1.239 9.466-.796 6.197-1.049 12.439-.856 18.68-4.919-5.187-11.395-9.126-18.754-8.907-.09-.758-.686-1.38-1.484-1.38h-.333c-.785 0-1.536.69-1.5 1.5.005.098.018.193.04.286-5.204 1.153-9.335 4.637-11.922 9.354a1.44 1.44 0 0 0-.618-.14h-.333c-.786 0-1.536.69-1.5 1.5.031.693.49 1.29 1.145 1.453-3.017 7.707-2.435 16.458-2.524 24.577l-.31 28.485a1.402 1.402 0 0 0-.243 1.247m41.432 93.404c.784 0 1.536-.689 1.5-1.5-.037-.813-.66-1.5-1.5-1.5h-.334c-.186 0-.37.042-.542.111a54.526 54.526 0 0 1-.145-8.755c.299-4.583.97-9.119.77-13.713.08.011.16.024.25.024 1.93 0 1.935-3 0-3-1.287 0-1.712 1.332-1.282 2.221.338 5.17-.532 10.258-.793 15.41a53.655 53.655 0 0 0 .294 8.811c-.01.037-.024.071-.03.107a94.75 94.75 0 0 0-8.741-2.4c-.008-.745-.488-1.482-1.447-1.482-.701 0-1.145.397-1.337.901a91.45 91.45 0 0 0-7.586-1.12c-3.86-.405-7.36-.528-9.683-4.112-1.681-2.594-3.195-5.316-4.742-8.003h.014c.785 0 1.537-.689 1.5-1.5-.036-.812-.658-1.5-1.5-1.5h-.044c-.57-10.119-1.104-20.246-2.122-30.333-.003-.029-.018-.05-.024-.078 1.433-.453 1.28-2.922-.476-2.922-1.748 0-1.91 2.452-.491 2.917-.002.028-.013.052-.01.083 1.025 10.15 1.56 20.341 2.134 30.524-.404.22-.713.61-.781 1.066a.452.452 0 0 0-.045.552c.079.134.155.275.234.411.024.043.046.087.073.128 1.9 3.271 3.666 6.726 5.836 9.811a7.684 7.684 0 0 0 3.06 2.57c-.31.27-.51.654-.51 1.105v.333c0 .785.689 1.536 1.5 1.5.813-.036 1.5-.659 1.5-1.5v-.333c0-.1-.013-.2-.033-.298.412.09.83.168 1.262.23 3.709.528 7.342 1.035 10.942 1.684.195.495.636.884 1.329.884.456 0 .8-.17 1.042-.427 3.119.63 6.222 1.396 9.33 2.421a59.74 59.74 0 0 0 .813 4.641c.135.63 1.1.363.963-.266a57.471 57.471 0 0 1-.68-3.723c.066.01.13.02.198.02h.334zM47.197 318.734c-.779.22-1.263 1.06-1.048 1.846.156.565.647.974 1.203 1.073.346.295.794.436 1.308.295.704-.193 1.362-1.093 1.048-1.845-.43-1.03-1.355-1.695-2.51-1.37m.416-14.58c.797-.441 1.077-1.245.917-2.108-.147-.797-1.112-1.25-1.845-1.048-.03.009-.053.023-.082.034-.922-9.585-1.03-19.283-1.065-28.95a2.43 2.43 0 0 0 .574-.54c.391-.508.222-1.257-.179-1.736a1.531 1.531 0 0 0-.406-.5c-.008-3.08-.016-6.153-.047-9.217-.06-5.847-.127-11.695-.229-17.541 1.043-.134 1.874-1.146 1.411-2.264-.25-.606-.85-.973-1.469-1.026-.013-.596-.017-1.194-.03-1.792-.174-7.311-.973-14.605-1.067-21.912-.032-2.542.121-5.072.335-7.598.541-.306.943-.79.973-1.528.024-.584-.25-1.188-.685-1.587.315-3.208.65-6.416.761-9.64.225-6.552-.324-13.09-1.516-19.531-.118-.632-1.08-.365-.965.266 1.147 6.197 1.676 12.476 1.495 18.778-.094 3.242-.434 6.464-.756 9.689a1.443 1.443 0 0 0-.683.09c-.574.23-1.015.696-1.088 1.279-.318.265-.529.643-.508 1.099.034.763.661 1.56 1.5 1.5.137-.011.276-.028.415-.051a84.661 84.661 0 0 0-.258 4.419c-.222 7.725.803 15.47 1.008 23.197.031 1.183.045 2.365.071 3.547a1.556 1.556 0 0 0-.336.292c-.409.477-.542 1.126-.3 1.675.098.39.34.735.695.935.167 8.855.232 17.71.33 26.567-.134 0-.267.013-.399.055-1.1.35-1.53 1.532-.928 2.52.237.389.623.673 1.064.783.11.028.206.02.308.025.036 2.876.071 5.75.128 8.627.131 6.773.21 13.588.868 20.337.007.06.027.11.05.16a1.332 1.332 0 0 0-.342.242c-.625.624-.51 1.487 0 2.12.535.667 1.571.726 2.28.333m13.337-145.785c-.448-.672-1.324-.959-2.05-.534-.645.378-.957 1.302-.576 1.975-2.388.3-4.595 1.281-6.648 2.578-.2-.598-.768-1.08-1.419-1.05-.813.035-1.5.657-1.5 1.5v.332c0 .367.155.724.4 1-.133.103-.266.205-.396.31-2.21 1.761-4.512 3.83-5.555 6.435-.057-.014-.109-.036-.167-.044h-.025a107.034 107.034 0 0 1-1.634-14.09c1.084-.687.826-2.778-.79-2.778-1.86 0-1.925 2.778-.197 2.98.238 4.725.79 9.41 1.638 14.055-.618.32-.956 1.03-.822 1.838.098.595.672.993 1.256 1.077.043.015.088.01.131.02.02.095.035.192.055.287.117.55 1.003.43.982-.133-.003-.098.005-.192.005-.287.242-.127.463-.3.616-.545.398-.636.26-1.369-.178-1.865.99-2.668 3.462-4.736 5.683-6.465.13-.102.263-.202.396-.303.034.002.067.01.102.008.68-.03 1.266-.475 1.441-1.11 2.215-1.475 4.61-2.58 7.251-2.798.34.485.86.761 1.464.68.556-.075 1.125-.496 1.247-1.075.161-.764-.094-1.569-.71-1.998m125.307 123.3c-.784.006-1.536.685-1.5 1.5.036.807.659 1.507 1.5 1.5h.03c.266 3.045 1.335 6.202 2.083 9.063a165.414 165.414 0 0 0 2.987 10.054c-.181.072-.35.18-.494.323a1.52 1.52 0 0 0 0 2.122l.333.333a1.525 1.525 0 0 0 2.122 0 1.52 1.52 0 0 0 0-2.122c-.112-.11-.222-.222-.333-.333a1.44 1.44 0 0 0-.571-.336 166.97 166.97 0 0 1-2.844-9.41c-.815-3.05-2.043-6.595-2.3-9.88.485-.253.845-.75.82-1.317-.036-.808-.66-1.507-1.5-1.5l-.333.003m16.332 16.667h-.665c-.785 0-1.536.69-1.5 1.5.036.813.659 1.5 1.5 1.5h.666c.785 0 1.537-.689 1.5-1.5-.036-.813-.658-1.5-1.5-1.5m4.999-8c1.932 0 1.935-3 0-3-1.93 0-1.933 3 0 3m75.335-236.999c.812-.037 1.5-.659 1.5-1.5v-.667c0-.785-.69-1.536-1.5-1.5-.812.036-1.5.66-1.5 1.5v.667c0 .784.689 1.536 1.5 1.5"/><path fill="#071F2C" d="M289.794 254.97a322.065 322.065 0 0 0-1.12-24.498c1.131-.66.887-2.803-.749-2.803-.17 0-.32.03-.462.073-.46-8.838-.84-17.68-1.14-26.525.174.074.373.119.602.119 1.93 0 1.933-3 0-3-.267 0-.492.06-.685.158-.228-7.166-.415-14.334-.538-21.503 1.647-.107 1.77-2.472.362-2.912-.572-4.966-1.137-9.938-1.357-14.935-.185-4.196.516-8.693-.462-12.81l.013.002c1.931 0 1.933-3 0-3-.232 0-.433.045-.609.12-1.327-8.66-1.279-17.385-1.018-26.124 1.842-.042 1.874-2.844.094-2.983.341-10.388.737-20.781-.79-31.087.262-.061.516-.165.717-.365l.333-.334a1.523 1.523 0 0 0 0-2.121 1.519 1.519 0 0 0-2.12 0l-.335.333a1.527 1.527 0 0 0 0 2.122c.113.112.25.183.386.252 1.593 10.418 1.191 20.927.844 31.433-.792.545-.82 1.86-.077 2.453-.283 9.223-.358 18.435 1.145 27.572a1.68 1.68 0 0 0 .156.97c.048.267.08.533.13.798a.423.423 0 0 0 .177.28c.998 4.272.233 9.129.464 13.478.247 4.67.776 9.319 1.31 13.963-1.085.39-1.212 1.964-.369 2.619a1456.01 1456.01 0 0 0 1.82 52.105c-.06.288-.047.59.043.87l.007.156a.485.485 0 0 0 .381.458c.19.175.435.298.74.342a321.85 321.85 0 0 1 1.1 23.709c-.064-.007-.126-.02-.196-.02-1.927 0-1.933 2.989-.009 2.999.304 4.466.136 8.97-.596 13.362-1.36.223-1.537 2.09-.53 2.745-.89 3.962-2.278 7.795-4.217 11.388-.51.26-.767.809-.762 1.358a39.892 39.892 0 0 1-2.189 3.339 37.746 37.746 0 0 1-5.349 5.876c-.24-.24-.575-.4-1.014-.4-1.303 0-1.724 1.364-1.27 2.252a33.956 33.956 0 0 1-4.486 2.868 52.132 52.132 0 0 1-3.324 1.59 1.463 1.463 0 0 0-1.254-.71h-.333c-.784 0-1.536.69-1.5 1.5.008.173.047.338.104.493-2.714 1.14-5.418 2.288-7.94 3.82a1.5 1.5 0 0 0-.664-.146c-1.396 0-1.778 1.564-1.155 2.433-1.84 1.09-3.675 2.21-5.574 3.183-3.117 1.599-5.834 1.704-8.417-.855-1.363-1.351-2.47-2.617-3.714-3.701.085-.055.18-.092.254-.166l.333-.333a1.523 1.523 0 0 0 0-2.121 1.518 1.518 0 0 0-2.12 0l-.335.333c-.196.196-.3.445-.362.705a12.118 12.118 0 0 0-2.22-.984c-1.823-.594-3.814-1.19-5.753-1.248.452-.888.032-2.246-1.27-2.246-1.43 0-1.8 1.644-1.11 2.497a6.637 6.637 0 0 0-2.289 1.089c-.992.735-1.804 1.664-2.643 2.568-.555-.25-1.239-.161-1.686.286-.422.42-.527 1.054-.33 1.59-2.087 1.588-4.53 2.552-7.11 2.998-.246.042-.353.212-.359.4-1.378.494-1.209 2.905.527 2.905 1.462 0 1.816-1.72 1.062-2.553 2.437-.565 4.513-1.602 6.398-3.032.05.048.096.097.145.146a1.525 1.525 0 0 0 2.122 0 1.52 1.52 0 0 0 0-2.121c.273-.27.545-.538.814-.825 2.343-2.498 4.886-3.105 8.2-2.358 1.866.42 3.898.96 5.618 1.928.068.133.137.266.246.376.252.25.582.372.918.404.145.11.295.217.432.337 2.371 2.086 4.014 5.51 7.375 6.177.208.042.42.06.63.08a1.28 1.28 0 0 0-.127.608c.036.813.66 1.5 1.5 1.5h.333c.785 0 1.537-.69 1.5-1.5a1.616 1.616 0 0 0-.345-.926c2.981-.853 5.97-3.083 8.4-4.585.038.002.072.01.112.01 1.227 0 1.672-1.21 1.34-2.093 2.52-1.506 5.22-2.643 7.924-3.778.214.127.462.205.736.205h.333c.72 0 1.401-.58 1.485-1.3 1.581-.692 3.144-1.427 4.646-2.291a34.419 34.419 0 0 0 3.72-2.49c.146.048.303.08.483.08 1.03 0 1.506-.853 1.436-1.65a39.296 39.296 0 0 0 5.79-6.32 40.242 40.242 0 0 0 1.81-2.715c.234.213.553.353.964.353 1.747 0 1.91-2.45.493-2.917 1.831-3.512 3.157-7.247 4.021-11.101 1.478-.16 1.66-2.188.54-2.802.708-4.263.9-8.63.643-12.96a.449.449 0 0 0 .2-.387c0-.276-.008-.553-.009-.83a1.673 1.673 0 0 0-.019-1.702m-59.536 72.7c-1.931 0-1.934 3 0 3 1.93 0 1.934-3 0-3m-17.333 1c-1.931 0-1.934 3 0 3 1.93 0 1.934-3 0-3m-89.667 18.332c-.832 0-1.304.558-1.42 1.192-2.436-.245-5.028.88-7.412 1.34-2.953.566-6.011.738-9.01.42.002-.04.01-.078.009-.119-.037-.812-.66-1.5-1.5-1.5h-.334c-.634 0-1.24.454-1.432 1.056a24.087 24.087 0 0 1-2.42-.694c-3.122-1.099-6.008-2.92-8.314-5.304v-.224c0-.778-.68-1.522-1.481-1.499-.11-.143-.23-.278-.334-.424-2.37-3.283-2.831-6.9-3.722-10.618.677-.154 1.203-.723 1.203-1.459v-1.334c0-.784-.69-1.536-1.5-1.5-.022.001-.044.008-.066.01l.726-35.787c.295-.267.486-.637.452-1.062a2.106 2.106 0 0 0-.427-1.11c.035-15.015.468-30.034.76-45.043.065-3.339.136-6.678.207-10.017.739-.052 1.543-.672 1.464-1.495-.066-.684-.33-1.288-.956-1.639a1.88 1.88 0 0 0-.44-.175c.164-7.635.324-15.27.434-22.907.222-.26.363-.587.346-.94a1.625 1.625 0 0 0-.325-.903c.047-3.56.088-7.119.106-10.678.024-4.59.032-9.326-.89-13.86a1.867 1.867 0 0 0-.422-1.813c-.142-.53-.283-1.06-.457-1.584a18.736 18.736 0 0 0-3.473-6.236c.172-.435.155-.955-.077-1.35-.386-.66-1.137-.837-1.813-.612-1.792-1.626-3.872-2.966-6.142-4.146.13-.508.037-1.088-.377-1.427-.188-.154-.374-.308-.562-.46-.626-.515-1.508-.614-2.121 0-.19.188-.321.45-.387.728-.121.163-.156.374-.036.533.032.33.16.643.423.86l.562.46c.567.466 1.344.584 1.94.147 2.097 1.096 4.008 2.33 5.672 3.793-.62.412-.781 1.345-.416 1.971.432.737 1.325.901 2.053.538l.552-.276c1.516 1.828 2.7 3.983 3.479 6.567-.087 0-.167-.02-.26-.007-1.635.22-2.033 2.516-.597 3.311.334.185.714.23 1.069.155a1.54 1.54 0 0 0 .562-.136c.75 4.221.74 8.575.718 12.844a894.477 894.477 0 0 1-.116 10.097c-.055-.006-.107-.017-.165-.017h-.333c-.784 0-1.536.69-1.5 1.5.036.812.659 1.5 1.5 1.5h.333c.038 0 .075-.009.113-.013l-.106 6.075c-.097 5.431-.204 10.861-.31 16.292a2.237 2.237 0 0 0-.455.182c-.715.38-.935 1.373-.538 2.052.213.365.55.595.925.684l.014.011c-.236 12.14-.474 24.28-.69 36.42-.108 6.102-.228 12.207-.26 18.311-.448-.127-.957-.083-1.45.19-.708.394-.94 1.364-.538 2.053.21.36.55.593.926.685.254.246.587.404.98.385.014 0 .028-.004.04-.005l-.726 35.818c-.26.262-.425.618-.425 1.026v1.334c0 .51.294 1.002.72 1.276.925 3.724 1.31 7.38 3.528 10.717.199.3.413.59.628.877a1.45 1.45 0 0 0-.542 1.13v.333c0 .785.689 1.536 1.5 1.5a1.606 1.606 0 0 0 1.14-.549 22.282 22.282 0 0 0 5.482 3.96c1.802.921 3.72 1.583 5.69 2.025.234.522.734.897 1.354.897h.334c.387 0 .765-.169 1.046-.436a29.12 29.12 0 0 0 3.812.21 33.466 33.466 0 0 0 6.785-.793c2.049-.45 4.307-1.414 6.407-1.095.214.445.638.781 1.283.781.218 0 .408-.043.577-.11.379.156.71-.22.654-.566.517-.885.109-2.324-1.231-2.324m89.994-7.606c-.364-.724-1.385-.93-2.053-.538-.736.43-.903 1.326-.538 2.053.112.22.223.443.335.666.363.723 1.385.928 2.052.538.736-.431.903-1.326.538-2.053-.11-.222-.223-.443-.334-.666m8.338 10.606c-1.93 0-1.933 3 0 3 1.932 0 1.935-3 0-3m-19.5-1.5c-.035-.812-.657-1.5-1.5-1.5h-.332c-.086 0-.172.012-.257.027-.012-.968-.552-2.056-.8-2.838-.673-2.135-1.331-4.277-2.03-6.404a94.897 94.897 0 0 0-.976-2.838c.142-.223.23-.487.23-.78v-.334c0-.703-.556-1.375-1.254-1.48-1.574-3.664-3.79-7.303-7.071-8.939.398-.295.678-.79.658-1.245-.028-.634-.356-1.056-.835-1.294-.41-.627-1.12-1.03-1.997-.79-.887.243-1.45 1.061-1.44 1.968.002.242.057.488.149.722-2.31.344-4.841 1.87-6.648 2.763a76.72 76.72 0 0 0-4.123 2.22c-.217-.434-.64-.758-1.273-.758-1.301 0-1.723 1.361-1.27 2.25-.923.557-1.845 1.12-2.762 1.686-2.978 1.838-5.97 3.706-9.054 5.363.494-.887.08-2.299-1.247-2.299-1.902 0-1.93 2.91-.077 2.992-3.543 1.811-7.223 3.295-11.161 4.091.12-.823-.354-1.75-1.43-1.75-1.668 0-1.893 2.24-.675 2.847a.522.522 0 0 0 .487.196c.094-.014.186-.037.282-.052.143-.008.274-.033.395-.072 6.91-1.127 13.08-4.398 19.012-8.004 2.353-1.43 4.68-2.904 7.04-4.32.142.042.29.072.46.072.82 0 1.29-.544 1.413-1.167.358-.206.71-.419 1.07-.62 2.518-1.41 7.054-4.436 10.472-4.387.137.07.28.127.436.153.253.042.47.028.675-.012.01 0 .019-.003.029-.004.237.062.467.145.685.253 3.199 1.566 5.327 5.216 6.76 8.365-.42.262-.706.711-.706 1.252v.334c0 .784.689 1.536 1.5 1.5a1.68 1.68 0 0 0 .43-.084c.383 1.05.738 2.11 1.08 3.173.678 2.103 1.793 4.445 2.097 6.628.269 1.931-.065 2.496-2.01 3.297a90.864 90.864 0 0 1-9.708 3.361c-.923.261-1.753.374-2.525.264-.176-.538-.63-.973-1.364-.973-.194 0-.364.037-.52.092a5.486 5.486 0 0 1-.705-.725c-.58-.72-1.073-1.596-1.59-2.363l-4.052-6.024c.065.008.129.02.2.02 1.93 0 1.934-3 0-3-1.456 0-1.814 1.706-1.073 2.545-.227.121-.365.384-.18.66l3.71 5.515c.903 1.341 1.753 3.01 2.839 4.282-.27.873.185 1.998 1.37 1.998.57 0 .968-.264 1.2-.632 2.163.113 4.88-1.246 6.529-1.789a91.98 91.98 0 0 0 6.135-2.267c.574-.236 1.37-.452 2.026-.8.17.652.725 1.155 1.444 1.155h.333c.785 0 1.537-.689 1.5-1.5m-.561 23.607l-.333.333a1.523 1.523 0 0 0 0 2.12 1.52 1.52 0 0 0 2.121 0l.334-.332a1.525 1.525 0 0 0 0-2.121 1.52 1.52 0 0 0-2.122 0m-64.399-88.71c-.149-.095-.285-.2-.43-.3-.028-.725-.507-1.43-1.443-1.43-.105 0-.2.013-.294.03-2.435-2.311-3.935-5.345-4.916-8.585 1.067-.678.83-2.708-.72-2.771a55.613 55.613 0 0 1-.651-3.611c-1.158-7.77-1.853-15.668-2.483-23.505l.003.003a1.525 1.525 0 0 0 2.121 0 1.518 1.518 0 0 0 0-2.121l-.333-.334c-.535-.534-1.409-.55-1.99-.085-.605-7.964-.926-15.957-.634-23.941l.006-.11c.349-.025.693-.15.951-.41a1.518 1.518 0 0 0 0-2.12l-.333-.334a1.442 1.442 0 0 0-.458-.3c.437-7.061 1.36-14.09 1.584-21.164a54.92 54.92 0 0 0 .013-2.661c1.694-.201 1.66-2.881-.111-2.972-.431-7.356-1.83-14.641-1.626-22.021 1.795-.136 1.759-2.987-.129-2.987-1.576 0-1.866 2-.866 2.733-.244 7.55 1.33 14.993 1.691 22.519-.826.58-.803 1.999.067 2.535.002.315.007.63.003.947-.087 7.697-1.148 15.339-1.623 23.016-.245.065-.479.168-.666.355a1.52 1.52 0 0 0 0 2.122l.333.333c.053.053.122.075.182.118-.352 9.006.073 18.023.824 26.998.669 7.994 1.326 16.076 2.563 24.006.169 1.084.37 2.176.609 3.26-.939.713-.705 2.552.697 2.706 1.009 3.352 2.553 6.489 5.028 8.924-.618.869-.237 2.428 1.158 2.428.53 0 .91-.231 1.149-.56.076.05.144.104.22.152.545.346 1.047-.52.504-.863m-100.85 38.604h.511v-3.544h-1.126v.486h.525c.026 0 .055-.01.085-.04l.045.04c-.03.03-.04.05-.04.095v2.963zm-1.785-20.149l.46.19c.136-.33.4-.464.681-.464.365 0 .605.235.605.549 0 .3-.16.52-.67 1.057l-.986 1.03.005.46h2.267v-.484h-1.587v-.061c.066 0 .101-.03.196-.13l.6-.626c.376-.394.701-.76.701-1.3 0-.641-.465-1.011-1.11-1.011-.56 0-.967.29-1.162.79m-.256-30.136c-.33 0-.55-.199-.62-.545l-.502.135c.12.531.475.926 1.127.926.67 0 1.176-.446 1.176-1.061 0-.58-.356-.867-.657-.906v-.061c.231-.06.516-.324.516-.724 0-.532-.385-.926-1.025-.926-.58 0-.96.359-1.067.855l.466.119c.064-.279.25-.47.591-.47.32 0 .51.191.51.492 0 .324-.255.49-.69.49v.44c.525 0 .83.236.83.646 0 .404-.336.59-.656.59m.531-29.34l-.044.04a.104.104 0 0 0-.08-.035H33.61v-.06c.064 0 .08-.02.12-.07l1-1.286.05.03a.266.266 0 0 0-.044.154v1.137c0 .045.005.06.035.09m.48.04l-.044-.04c.029-.03.034-.045.034-.09v-2.173h-.42l-1.787 2.284v.44h1.612c.024 0 .05-.006.08-.035l.045.04c-.03.03-.035.045-.035.09v.725h.505v-.725c0-.045-.005-.06-.034-.09l.044-.04c.03.03.055.034.08.034h.29v-.455h-.29a.103.103 0 0 0-.08.035m-.031-37.14l.03-.486h-1.71l-.305 1.907.456.07c.16-.19.37-.296.6-.296.415 0 .736.22.736.706 0 .466-.3.706-.726.706s-.636-.27-.716-.56l-.49.135c.145.535.59.94 1.216.94.67 0 1.236-.495 1.236-1.221 0-.786-.57-1.191-1.091-1.191a.954.954 0 0 0-.59.176l-.055-.011.14-.875h1.27zm-1.68-31.632c.405 0 .695.299.695.72 0 .42-.29.69-.695.69-.41 0-.716-.27-.716-.69 0-.435.295-.72.716-.72zm-.155-1.687l-.836 1.585c-.175.33-.25.592-.25.832 0 .666.56 1.192 1.236 1.192.686 0 1.227-.526 1.227-1.207 0-.695-.476-1.192-1.102-1.192a.598.598 0 0 0-.325.077l-.05-.026.665-1.261h-.565zm.116-19.168H31.18v.483h1.811v.063c-.024 0-.064.02-.094.085l-1.342 2.913h.555l1.392-3.058v-.486zm16.269-.481c.373 0 .57.278.57.626 0 .376-.22.626-.57.626s-.57-.25-.57-.626c0-.348.198-.626.57-.626m0-1.433c.275 0 .452.18.452.489 0 .264-.155.497-.451.497-.296 0-.451-.233-.451-.497 0-.31.176-.49.45-.49m-.998 2.06c0 .706.474 1.137.999 1.137.524 0 .998-.431.998-1.137 0-.382-.152-.717-.431-.88v-.028c.21-.168.313-.417.313-.741a.87.87 0 0 0-.88-.893.87.87 0 0 0-.88.893c0 .324.102.573.312.74v.03c-.28.162-.431.497-.431.879m10.734-5.036c.41 0 .716.27.716.695 0 .436-.296.72-.716.72-.405 0-.696-.3-.696-.72 0-.424.291-.695.696-.695m-.12 1.892a.6.6 0 0 0 .325-.076l.05.026-.671 1.26h.571l.836-1.586c.175-.33.25-.59.25-.83 0-.67-.56-1.197-1.236-1.197-.686 0-1.227.528-1.227 1.21 0 .697.476 1.193 1.102 1.193m13.956 6.446l.045.04a.11.11 0 0 0-.04.095v2.963h.51v-3.544h-1.125v.486h.525a.124.124 0 0 0 .085-.04m1.78.84c0-.46.18-.836.67-.836.511 0 .671.41.671.836V158c0 .495-.135.886-.67.886-.557 0-.67-.426-.67-.886v-.92zm.67 2.322c.861 0 1.196-.65 1.196-1.367v-1.025c0-.72-.43-1.286-1.196-1.286-.8 0-1.196.605-1.196 1.286v1.025c0 .756.366 1.367 1.196 1.367zm11.601 1.576l.045.04a.11.11 0 0 0-.04.095v2.963h.51v-3.544h-1.125v.486h.525a.124.124 0 0 0 .085-.04m1.644 0l.045.04a.11.11 0 0 0-.04.095v2.963h.511v-3.544h-1.126v.486h.525a.124.124 0 0 0 .085-.04m3.073 14.262l.046.04a.109.109 0 0 0-.04.095v2.963h.51v-3.544H91.5v.487h.525c.025 0 .055-.012.085-.041m2.255 0c.365 0 .605.236.605.55 0 .301-.16.52-.669 1.056l-.987 1.032.005.46h2.268v-.486H94v-.06c.065 0 .1-.03.195-.13l.601-.625c.376-.395.701-.76.701-1.302 0-.64-.466-1.012-1.11-1.012-.562 0-.967.291-1.163.791l.46.19a.705.705 0 0 1 .681-.464m-.499 31.43h.511v-3.544h-1.126v.486h.525c.026 0 .055-.01.085-.04l.045.04c-.03.03-.04.05-.04.095v2.963zm1.2-2.758l.466.12c.064-.28.25-.47.59-.47.32 0 .51.19.51.491 0 .325-.254.49-.69.49v.44c.525 0 .83.236.83.646 0 .405-.335.591-.655.591-.33 0-.55-.2-.62-.546l-.501.135c.12.531.475.926 1.127.926.67 0 1.175-.445 1.175-1.06 0-.58-.355-.867-.656-.907v-.06c.23-.06.516-.325.516-.726 0-.53-.385-.925-1.026-.925-.581 0-.961.36-1.066.855"/><path fill="#071F2C" d="M94.626 229.458H93.5v.486h.525c.026 0 .055-.01.085-.04l.045.04c-.03.03-.04.05-.04.095v2.963h.511v-3.544zm2.271 2.262l-.045.04a.104.104 0 0 0-.08-.034h-1.036v-.06c.064 0 .08-.02.12-.07l1-1.286.05.029a.266.266 0 0 0-.044.155v1.137c0 .045.005.06.035.09zm.47-2.262h-.42l-1.787 2.284v.439h1.612c.024 0 .05-.005.08-.034l.045.04c-.03.029-.035.045-.035.09v.725h.505v-.725c0-.045-.005-.061-.034-.09l.044-.04c.03.029.055.034.08.034h.29v-.455h-.29a.103.103 0 0 0-.08.035l-.044-.04c.029-.03.034-.045.034-.09v-2.173zm-2.741 56.666H93.5v.486h.525a.117.117 0 0 0 .085-.039l.045.04a.114.114 0 0 0-.04.095v2.963h.511v-3.545zm1.8 3.094c-.426 0-.636-.27-.716-.561l-.49.135c.144.535.59.942 1.216.942.67 0 1.236-.496 1.236-1.221 0-.787-.57-1.191-1.091-1.191a.96.96 0 0 0-.591.175l-.054-.011.139-.875h1.272l.03-.487h-1.712l-.305 1.908.456.071a.773.773 0 0 1 .6-.297c.415 0 .736.221.736.707 0 .465-.3.705-.726.705m-2.311 37.117h.511v-3.545H93.5v.486h.525a.117.117 0 0 0 .085-.039l.045.04a.114.114 0 0 0-.04.095v2.963zm1.68-1.136c0-.437.295-.721.716-.721.405 0 .695.3.695.72s-.29.692-.695.692c-.41 0-.716-.272-.716-.691m1.937-.007c0-.695-.475-1.189-1.101-1.189a.613.613 0 0 0-.325.075l-.05-.025.665-1.262h-.565l-.836 1.587c-.175.33-.25.59-.25.83 0 .666.56 1.191 1.236 1.191.685 0 1.226-.524 1.226-1.207m-1.867 13.471h.511v-3.544H95.25v.486h.525c.026 0 .055-.01.085-.04l.045.04c-.03.03-.04.05-.04.095v2.963zm2.751-2.913l-1.342 2.913h.556l1.391-3.058v-.486H96.9v.484h1.812v.062c-.025 0-.065.021-.095.085m6.523 3.488l.045.04a.11.11 0 0 0-.04.094v2.964h.51v-3.545h-1.125v.486h.525a.124.124 0 0 0 .085-.04m2.385 1.406c.444 0 .681.278.681.626 0 .376-.264.626-.68.626-.417 0-.681-.25-.681-.626 0-.348.237-.626.68-.626m0-1.433c.328 0 .538.18.538.489 0 .264-.184.497-.538.497-.354 0-.538-.233-.538-.497 0-.31.21-.49.538-.49m-1.19 2.06c0 .706.565 1.137 1.19 1.137s1.19-.431 1.19-1.137c0-.382-.18-.717-.513-.88v-.028c.25-.168.373-.417.373-.741 0-.51-.457-.893-1.05-.893s-1.05.384-1.05.893c0 .324.123.573.373.74v.03c-.332.162-.513.497-.513.879m16.159-4.633l.045.04a.11.11 0 0 0-.04.095v2.963h.511v-3.544h-1.126v.486h.525a.124.124 0 0 0 .085-.04m2.311 1.411c-.405 0-.696-.3-.696-.72 0-.425.29-.696.696-.696.41 0 .716.271.716.695 0 .436-.296.721-.716.721m.005-1.927c-.686 0-1.227.528-1.227 1.211 0 .695.476 1.192 1.102 1.192a.6.6 0 0 0 .325-.076l.05.026-.671 1.261h.57l.837-1.587c.175-.33.25-.59.25-.83 0-.669-.56-1.197-1.236-1.197m17.18-4.332c.064 0 .1-.029.194-.13l.601-.626c.376-.394.701-.76.701-1.3 0-.64-.466-1.01-1.11-1.01-.562 0-.967.29-1.162.79l.46.19c.135-.33.4-.466.68-.466.365 0 .606.236.606.55 0 .301-.16.521-.67 1.057l-.987 1.031.005.46h2.268v-.485h-1.587v-.06zm2.615-1.711c0-.46.18-.836.67-.836.51 0 .67.41.67.836v.921c0 .495-.134.886-.67.886-.556 0-.67-.426-.67-.886v-.92zm.67 2.322c.86 0 1.196-.65 1.196-1.367v-1.025c0-.72-.43-1.286-1.196-1.286-.801 0-1.196.605-1.196 1.286v1.025c0 .756.366 1.367 1.196 1.367zm8.279-6.525l.005.46h2.267v-.485h-1.586v-.06c.065 0 .1-.03.195-.13l.6-.627c.376-.394.702-.76.702-1.3 0-.64-.466-1.01-1.112-1.01-.56 0-.966.29-1.161.79l.46.19a.705.705 0 0 1 .68-.466c.366 0 .606.236.606.55 0 .301-.16.521-.67 1.057l-.986 1.031zm3.17.46h.51v-3.544h-1.125v.486h.525c.026 0 .055-.01.085-.04l.045.04c-.03.03-.04.05-.04.095v2.963zm11.138-9.14l.46.19c.136-.33.4-.464.681-.464.365 0 .605.235.605.549 0 .3-.16.52-.67 1.057l-.986 1.03.005.46h2.267v-.484h-1.587v-.061c.066 0 .101-.03.196-.13l.6-.626c.376-.394.701-.76.701-1.3 0-.641-.465-1.011-1.11-1.011-.56 0-.967.29-1.162.79m3.866-.274c.365 0 .605.234.605.55 0 .3-.16.52-.67 1.055l-.986 1.032.005.46h2.268v-.486h-1.587v-.06c.065 0 .1-.03.195-.13l.6-.626c.377-.395.702-.76.702-1.3 0-.642-.466-1.012-1.111-1.012-.561 0-.966.29-1.162.79l.46.191a.705.705 0 0 1 .68-.465m13.005-2.377l.005.46h2.267v-.485h-1.586v-.06c.065 0 .1-.03.195-.13l.6-.627c.376-.394.702-.76.702-1.3 0-.64-.466-1.01-1.112-1.01-.56 0-.966.29-1.161.79l.46.19a.705.705 0 0 1 .68-.466c.366 0 .606.236.606.55 0 .301-.16.521-.67 1.057l-.986 1.031zm3.775.01c-.33 0-.55-.2-.62-.546l-.501.136c.12.53.475.926 1.127.926.67 0 1.176-.446 1.176-1.062 0-.58-.356-.866-.657-.905v-.061c.231-.06.516-.325.516-.725 0-.531-.385-.926-1.025-.926-.581 0-.961.36-1.067.855l.466.12c.064-.28.25-.47.591-.47.32 0 .51.19.51.491 0 .325-.255.49-.691.49v.441c.526 0 .831.235.831.645 0 .405-.336.591-.656.591m10.495 14.99l.005.46h2.267v-.485h-1.586v-.06c.065 0 .1-.03.195-.13l.6-.627c.376-.394.702-.76.702-1.3 0-.64-.466-1.01-1.112-1.01-.56 0-.966.29-1.16.79l.46.19a.705.705 0 0 1 .68-.466c.365 0 .605.236.605.55 0 .301-.16.521-.67 1.057l-.986 1.031zm4.307-.822l-.045.04a.104.104 0 0 0-.08-.034h-1.036v-.06c.064 0 .08-.02.12-.07l1-1.286.05.029a.266.266 0 0 0-.044.155v1.137c0 .045.005.06.035.09m.48.04l-.044-.04c.029-.03.034-.045.034-.09v-2.173h-.42l-1.787 2.284v.439h1.612c.024 0 .05-.005.08-.034l.045.04c-.03.029-.035.045-.035.09v.725h.505v-.725c0-.045-.005-.061-.034-.09l.044-.04c.03.029.055.034.08.034h.29v-.455h-.29a.103.103 0 0 0-.08.035m1.234 26.695c.065 0 .1-.029.195-.13l.6-.626c.377-.394.702-.76.702-1.3 0-.64-.466-1.01-1.111-1.01-.561 0-.966.29-1.161.79l.46.19c.135-.33.4-.466.68-.466.365 0 .606.236.606.55 0 .301-.16.521-.67 1.057l-.987 1.031.005.46h2.268v-.485h-1.587v-.06zm3.15.096c-.426 0-.636-.271-.716-.561l-.49.135c.144.535.591.942 1.216.942.671 0 1.236-.496 1.236-1.222 0-.786-.57-1.191-1.091-1.191a.966.966 0 0 0-.591.175l-.054-.01.139-.875h1.272l.03-.487h-1.712l-.305 1.907.456.071a.775.775 0 0 1 .6-.296c.415 0 .736.221.736.706 0 .466-.3.706-.726.706m-26.9 5.904c.065 0 .1-.029.195-.13l.6-.626c.377-.394.702-.76.702-1.3 0-.64-.466-1.01-1.111-1.01-.561 0-.966.29-1.161.79l.46.19c.135-.33.4-.466.68-.466.365 0 .606.236.606.55 0 .301-.16.521-.67 1.057l-.987 1.031.005.46h2.268v-.485h-1.587v-.06zm3.235.101c-.41 0-.716-.271-.716-.69 0-.436.295-.721.716-.721.405 0 .695.3.695.72s-.29.69-.695.69m.12-1.886c-.16 0-.275.04-.325.075l-.05-.025.665-1.262h-.565l-.836 1.587c-.175.33-.25.59-.25.83 0 .667.56 1.193 1.236 1.193.686 0 1.227-.526 1.227-1.207 0-.696-.476-1.191-1.102-1.191m-52.516-229.765c.364 0 .605.234.605.55 0 .3-.16.52-.67 1.055l-.987 1.032.005.46h2.268v-.486h-1.587v-.06c.065 0 .1-.03.195-.13l.601-.625c.376-.395.702-.76.702-1.302 0-.64-.466-1.01-1.112-1.01-.56 0-.965.29-1.162.79l.46.19a.705.705 0 0 1 .681-.464m2.856 1.405c.444 0 .68.278.68.626 0 .376-.263.626-.68.626-.417 0-.681-.25-.681-.626 0-.348.237-.626.68-.626m0-1.433c.329 0 .539.18.539.489 0 .264-.185.497-.538.497-.354 0-.538-.233-.538-.497 0-.31.209-.49.538-.49m-1.191 2.06c0 .706.565 1.137 1.19 1.137.626 0 1.19-.431 1.19-1.137 0-.382-.18-.717-.512-.88v-.028c.25-.168.372-.417.372-.741 0-.51-.457-.893-1.05-.893-.592 0-1.05.384-1.05.893 0 .324.123.573.373.74v.03c-.332.162-.513.497-.513.879m-2.058 29.314l.46.19c.136-.33.4-.464.68-.464.366 0 .606.235.606.55 0 .3-.16.52-.67 1.056l-.986 1.031.005.46h2.267v-.485h-1.587v-.06c.066 0 .1-.03.196-.13l.6-.627c.376-.394.7-.759.7-1.3 0-.64-.464-1.01-1.11-1.01-.56 0-.966.29-1.161.79m4.637.415c0 .436-.296.721-.716.721-.405 0-.696-.3-.696-.72 0-.425.29-.696.696-.696.41 0 .716.271.716.695m-1.937.005c0 .695.475 1.191 1.1 1.191.16 0 .276-.04.326-.075l.05.025-.671 1.261h.57l.837-1.587c.175-.33.25-.59.25-.83 0-.669-.56-1.196-1.236-1.196-.685 0-1.226.527-1.226 1.211m-.31 26.048c-.33 0-.55-.2-.62-.546l-.5.136c.12.53.475.926 1.126.926.67 0 1.177-.446 1.177-1.062 0-.58-.356-.866-.657-.905v-.061c.23-.06.516-.325.516-.725 0-.531-.386-.926-1.025-.926-.582 0-.962.36-1.067.855l.466.12c.064-.28.25-.47.59-.47.32 0 .51.19.51.491 0 .325-.255.49-.69.49v.441c.525 0 .83.235.83.645 0 .405-.335.591-.656.591m2.235-1.807c0-.46.18-.836.67-.836.512 0 .672.41.672.836v.921c0 .495-.135.886-.671.886-.556 0-.671-.426-.671-.886v-.92zm-.525-.07v1.025c0 .756.365 1.367 1.196 1.367.86 0 1.196-.65 1.196-1.367v-1.025c0-.72-.43-1.286-1.196-1.286-.801 0-1.196.605-1.196 1.286zm-2.706 30.71c-.33 0-.55-.2-.62-.546l-.501.136c.12.53.474.926 1.126.926.67 0 1.177-.446 1.177-1.062 0-.58-.357-.866-.657-.905v-.061c.23-.06.516-.325.516-.725 0-.531-.385-.926-1.025-.926-.581 0-.961.36-1.067.855l.465.12c.064-.28.25-.47.591-.47.32 0 .51.19.51.491 0 .325-.255.49-.69.49v.441c.525 0 .83.235.83.645 0 .405-.335.591-.655.591m2.104.45h.51v-3.544h-1.125v.486h.525c.026 0 .055-.01.085-.04l.045.04c-.03.03-.04.05-.04.095v2.963zm-2.104 23.841c-.33 0-.55-.199-.62-.545l-.501.135c.12.531.474.926 1.126.926.67 0 1.177-.446 1.177-1.061 0-.58-.357-.867-.657-.906v-.061c.23-.06.516-.324.516-.724 0-.532-.385-.926-1.025-.926-.581 0-.961.359-1.067.855l.465.119c.064-.279.25-.47.591-.47.32 0 .51.191.51.492 0 .324-.255.49-.69.49v.44c.525 0 .83.236.83.646 0 .404-.335.59-.655.59m3.931-.035h-1.587v-.061c.066 0 .101-.03.195-.128l.601-.627c.375-.395.701-.76.701-1.301 0-.641-.466-1.01-1.11-1.01-.562 0-.967.289-1.162.789l.46.192a.702.702 0 0 1 .68-.465c.367 0 .607.234.607.548 0 .3-.16.522-.67 1.057l-.987 1.03.004.462h2.268v-.486zm-1.937 27.252c-.33 0-.55-.201-.62-.547l-.501.137c.12.529.475.926 1.127.926.67 0 1.176-.446 1.176-1.063 0-.58-.356-.865-.657-.904v-.061c.23-.06.516-.326.516-.726 0-.53-.385-.926-1.025-.926-.581 0-.961.36-1.067.855l.466.12c.064-.28.25-.47.59-.47.32 0 .51.19.51.49 0 .327-.254.49-.69.49v.443c.526 0 .83.234.83.644 0 .406-.335.592-.655.592m3.236-1.451v-.061c.229-.06.515-.326.515-.726 0-.53-.385-.926-1.026-.926-.581 0-.961.36-1.066.856l.466.12c.064-.281.25-.47.59-.47.32 0 .51.189.51.49 0 .326-.255.49-.69.49v.442c.525 0 .83.234.83.644 0 .407-.335.592-.655.592-.33 0-.55-.201-.62-.547l-.501.137c.12.529.475.926 1.126.926.67 0 1.176-.446 1.176-1.063 0-.58-.355-.865-.655-.904m-5.705 25.447v-.061c.23-.06.516-.326.516-.726 0-.53-.385-.926-1.026-.926-.581 0-.961.36-1.066.856l.466.12c.064-.281.25-.47.59-.47.32 0 .51.189.51.49 0 .326-.255.49-.69.49v.442c.525 0 .83.234.83.644 0 .407-.335.592-.655.592-.33 0-.55-.201-.621-.547l-.5.137c.12.529.475.926 1.126.926.67 0 1.176-.446 1.176-1.063 0-.58-.355-.865-.656-.904m2.716.619l-.046.041a.098.098 0 0 0-.08-.035h-1.035v-.061c.064 0 .08-.019.12-.07l1-1.285.05.029a.263.263 0 0 0-.044.154v1.137c0 .045.005.061.035.09m.48.041l-.045-.041c.03-.029.035-.045.035-.09v-2.172h-.42l-1.787 2.283v.44h1.61a.105.105 0 0 0 .08-.035l.047.041c-.03.029-.035.045-.035.09v.724h.505v-.724c0-.045-.005-.061-.035-.09l.045-.041c.03.029.055.035.08.035h.29v-.455h-.29a.1.1 0 0 0-.08.035m9.605 3.336c-.33 0-.55-.201-.62-.547l-.501.137c.12.529.475.926 1.127.926.67 0 1.176-.446 1.176-1.063 0-.58-.356-.865-.657-.904v-.061c.23-.06.516-.326.516-.726 0-.53-.385-.926-1.025-.926-.581 0-.961.361-1.067.855l.466.121c.064-.281.25-.47.59-.47.32 0 .51.189.51.49 0 .326-.254.49-.69.49v.442c.526 0 .83.234.83.644 0 .406-.335.592-.655.592m2.77 0c-.426 0-.636-.271-.716-.561l-.49.135c.144.535.59.942 1.216.942.671 0 1.236-.496 1.236-1.223 0-.785-.57-1.191-1.09-1.191a.973.973 0 0 0-.592.175l-.054-.009.14-.875h1.271l.03-.487h-1.712l-.305 1.907.456.07c.16-.19.37-.295.6-.295.415 0 .736.221.736.705 0 .467-.3.707-.726.707m10.614-6.051c0-.58-.355-.866-.656-.905v-.06c.23-.06.515-.326.515-.726 0-.53-.384-.926-1.025-.926-.58 0-.96.36-1.066.855l.465.12c.065-.28.25-.47.591-.47.321 0 .51.19.51.491 0 .325-.255.49-.69.49v.441c.525 0 .831.235.831.645 0 .405-.336.591-.657.591-.33 0-.549-.2-.62-.546l-.5.136c.12.53.475.926 1.126.926.67 0 1.176-.446 1.176-1.062m1.674-.861c.405 0 .695.3.695.722 0 .42-.29.69-.695.69-.41 0-.716-.27-.716-.69 0-.436.296-.721.716-.721zm-.155-1.686l-.836 1.586c-.175.33-.25.59-.25.83 0 .667.56 1.193 1.236 1.193.686 0 1.226-.526 1.226-1.207 0-.695-.475-1.191-1.1-1.191a.6.6 0 0 0-.326.076l-.05-.026.665-1.261h-.565zm14.071-20.477v-.061c.23-.06.516-.325.516-.725 0-.53-.385-.926-1.026-.926-.58 0-.96.36-1.066.856l.466.12c.064-.281.25-.471.59-.471.321 0 .51.19.51.49 0 .326-.255.49-.69.49v.442c.525 0 .831.235.831.645 0 .406-.336.59-.656.59-.33 0-.55-.2-.62-.545l-.5.136c.12.53.474.926 1.125.926.67 0 1.176-.446 1.176-1.062 0-.58-.355-.866-.656-.905m2.78-1.097c-.024 0-.064.021-.095.085l-1.341 2.913h.555l1.392-3.058v-.486h-2.322v.484h1.811v.062zm-3.305 22.977c-.33 0-.55-.201-.62-.547l-.501.137c.12.529.475.926 1.127.926.67 0 1.176-.446 1.176-1.063 0-.58-.356-.865-.657-.904v-.061c.23-.06.516-.326.516-.726 0-.53-.385-.926-1.025-.926-.581 0-.961.36-1.067.855l.466.12c.064-.28.25-.47.59-.47.32 0 .51.19.51.49 0 .327-.254.49-.69.49v.443c.526 0 .83.234.83.644 0 .406-.335.592-.655.592m2.841-1.242c.444 0 .68.276.68.625 0 .376-.263.626-.68.626-.417 0-.681-.25-.681-.626 0-.349.237-.625.68-.625m0-1.435c.329 0 .539.18.539.49 0 .264-.185.498-.538.498-.354 0-.538-.233-.538-.498 0-.31.209-.49.538-.49m-1.191 2.06c0 .707.565 1.137 1.19 1.137.626 0 1.19-.43 1.19-1.137 0-.382-.18-.718-.512-.88v-.029c.25-.168.372-.416.372-.74 0-.51-.457-.892-1.05-.892-.592 0-1.05.382-1.05.892 0 .325.123.572.373.74v.03c-.332.161-.513.498-.513.879m-1.125-58.502v-.06c.23-.06.516-.326.516-.726 0-.53-.385-.925-1.026-.925-.58 0-.96.36-1.066.856l.466.12c.064-.281.25-.471.59-.471.321 0 .51.19.51.49 0 .326-.255.49-.69.49v.441c.525 0 .831.236.831.645 0 .406-.336.591-.656.591-.33 0-.55-.2-.62-.546l-.5.137c.12.53.474.925 1.125.925.67 0 1.176-.446 1.176-1.062 0-.58-.355-.865-.656-.905m2.241-1.201c.41 0 .716.271.716.695 0 .436-.297.721-.716.721-.405 0-.696-.3-.696-.72 0-.425.29-.696.696-.696m-.12 1.892a.6.6 0 0 0 .325-.076l.05.026-.671 1.261h.57l.836-1.587c.175-.33.25-.59.25-.83 0-.669-.56-1.197-1.236-1.197-.686 0-1.227.528-1.227 1.211 0 .696.476 1.192 1.102 1.192m-3.275-23.393c.064 0 .08-.02.12-.07l1.001-1.286.05.03a.274.274 0 0 0-.045.154v1.137c0 .045.005.06.035.09l-.045.04a.1.1 0 0 0-.08-.035h-1.036v-.06zm1.116.48l.045.041c-.03.03-.035.044-.035.09v.725h.505v-.726c0-.045-.005-.06-.034-.089l.045-.04a.1.1 0 0 0 .08.034h.29v-.455h-.29a.097.097 0 0 0-.08.035l-.045-.04c.029-.03.034-.045.034-.09v-2.173h-.42l-1.787 2.283v.44h1.612c.025 0 .05-.005.08-.035zm3.25-.48c0 .495-.135.886-.67.886-.557 0-.672-.426-.672-.886v-.92c0-.462.181-.837.671-.837.511 0 .671.41.671.836v.921zm-.67-2.277c-.802 0-1.197.605-1.197 1.286v1.025c0 .756.365 1.367 1.196 1.367.861 0 1.196-.65 1.196-1.367v-1.025c0-.72-.43-1.286-1.196-1.286zm-3.696-22.254c.064 0 .08-.02.12-.07l1.001-1.287.05.03a.277.277 0 0 0-.045.155v1.137c0 .045.005.058.035.09l-.045.04a.103.103 0 0 0-.08-.036h-1.036v-.059zm1.116.48l.045.04c-.03.03-.035.044-.035.09v.726h.505v-.727c0-.045-.005-.06-.034-.089l.045-.04c.029.03.054.034.08.034h.29v-.455h-.29a.1.1 0 0 0-.08.035l-.045-.039c.029-.032.034-.045.034-.09v-2.174h-.42l-1.787 2.283v.44h1.612c.025 0 .05-.004.08-.034zm1.774-2.242l.045.04a.116.116 0 0 0-.04.095v2.963h.51v-3.545h-1.125v.486h.525c.025 0 .055-.01.085-.039m-2.89-22.535c.064 0 .08-.02.12-.07l1.001-1.286.05.03a.274.274 0 0 0-.045.154v1.137c0 .045.005.06.035.09l-.045.04a.1.1 0 0 0-.08-.035h-1.036v-.06zm1.116.48l.045.041c-.03.03-.035.044-.035.09v.725h.505v-.726c0-.045-.005-.06-.034-.089l.045-.04a.1.1 0 0 0 .08.034h.29v-.455h-.29a.097.097 0 0 0-.08.035l-.045-.04c.029-.03.034-.045.034-.09V156h-.42l-1.787 2.283v.44h1.612c.025 0 .05-.005.08-.035zm2.384-2.242c.366 0 .606.236.606.55 0 .302-.16.52-.67 1.056l-.987 1.032.005.46h2.268v-.486h-1.587v-.06c.065 0 .1-.03.195-.13l.601-.625c.375-.395.701-.76.701-1.302 0-.64-.466-1.01-1.111-1.01-.561 0-.966.29-1.162.79l.46.19a.705.705 0 0 1 .681-.465m-3.5-29.496c.064 0 .08-.02.12-.07l1.001-1.286.05.03a.274.274 0 0 0-.045.154v1.137c0 .045.005.06.035.09l-.045.04a.1.1 0 0 0-.08-.035h-1.036v-.06zm1.116.48l.045.041c-.03.03-.035.044-.035.09v.725h.505v-.726c0-.045-.005-.06-.034-.089l.045-.04a.1.1 0 0 0 .08.034h.29v-.455h-.29a.097.097 0 0 0-.08.035l-.045-.04c.029-.03.034-.045.034-.09v-2.173h-.42l-1.787 2.283v.44h1.612c.025 0 .05-.005.08-.035zm2.384.406c-.33 0-.55-.2-.62-.546l-.501.136c.12.53.475.926 1.126.926.671 0 1.177-.446 1.177-1.062 0-.58-.356-.866-.656-.905v-.06c.23-.06.515-.326.515-.726 0-.53-.385-.926-1.025-.926-.581 0-.961.36-1.067.855l.466.12c.064-.28.25-.47.59-.47.32 0 .511.19.511.491 0 .325-.255.49-.691.49v.441c.526 0 .831.235.831.645 0 .405-.336.591-.656.591m72.25-98.003c.064 0 .08-.02.12-.07l1.001-1.286.05.03a.274.274 0 0 0-.045.154v1.137c0 .045.005.06.035.09l-.045.04a.1.1 0 0 0-.08-.035h-1.036v-.06zm1.116.48l.045.041c-.03.03-.035.044-.035.09v.725h.505v-.726c0-.045-.005-.06-.034-.089l.045-.04a.1.1 0 0 0 .08.034h.29v-.455h-.29a.097.097 0 0 0-.08.035l-.045-.04c.029-.03.034-.045.034-.09v-2.173h-.42l-1.787 2.283v.44h1.612c.025 0 .05-.005.08-.035zm1.754-.48c.064 0 .08-.02.12-.07l1.001-1.286.05.03a.274.274 0 0 0-.045.154v1.137c0 .045.005.06.035.09l-.046.04a.097.097 0 0 0-.08-.035h-1.035v-.06zm1.115.48l.046.041c-.03.03-.035.044-.035.09v.725h.505v-.726c0-.045-.005-.06-.035-.089l.046-.04a.1.1 0 0 0 .08.034h.29v-.455h-.29a.097.097 0 0 0-.08.035l-.046-.04c.03-.03.035-.045.035-.09v-2.173h-.42l-1.787 2.283v.44h1.611a.1.1 0 0 0 .08-.035zm38.29 20.167c.405 0 .695.3.695.722 0 .42-.29.69-.695.69-.41 0-.716-.27-.716-.69 0-.436.295-.721.716-.721m-.005 1.922c.686 0 1.227-.526 1.227-1.207 0-.695-.476-1.191-1.102-1.191a.6.6 0 0 0-.325.076l-.05-.026.665-1.261h-.565l-.836 1.586c-.175.33-.25.59-.25.83 0 .667.56 1.193 1.236 1.193m2.174-2.323c0-.46.181-.836.671-.836.511 0 .671.41.671.836v.921c0 .495-.135.886-.67.886-.557 0-.672-.426-.672-.886v-.92zm.671 2.322c.861 0 1.196-.65 1.196-1.367V50.01c0-.72-.43-1.286-1.196-1.286-.8 0-1.196.605-1.196 1.286v1.025c0 .756.365 1.367 1.196 1.367zm-2.84 27.599c.405 0 .695.3.695.721 0 .42-.29.69-.695.69-.41 0-.716-.27-.716-.69 0-.436.295-.72.716-.72m-.005 1.921c.686 0 1.227-.526 1.227-1.207 0-.695-.476-1.19-1.102-1.19a.6.6 0 0 0-.325.075l-.05-.026.665-1.26h-.565l-.836 1.585c-.175.33-.25.591-.25.831 0 .666.56 1.192 1.236 1.192m1.94-3.163l.045.04a.114.114 0 0 0-.04.095v2.963h.51v-3.544h-1.125v.486h.525a.124.124 0 0 0 .085-.04m-1.935 35.22c.405 0 .695.299.695.72 0 .42-.29.69-.695.69-.41 0-.716-.27-.716-.69 0-.435.295-.72.716-.72m-.005 1.922c.686 0 1.227-.526 1.227-1.207 0-.695-.476-1.192-1.102-1.192a.598.598 0 0 0-.325.077l-.05-.026.665-1.261h-.565l-.836 1.585c-.175.33-.25.592-.25.832 0 .666.56 1.192 1.236 1.192m2.48-.742l.601-.626c.375-.395.701-.76.701-1.3 0-.64-.466-1.013-1.112-1.013-.56 0-.965.292-1.161.792l.46.19a.705.705 0 0 1 .681-.466c.366 0 .606.236.606.551 0 .301-.16.52-.671 1.057l-.986 1.031.005.46h2.268v-.486h-1.587v-.06c.065 0 .1-.029.195-.13m-2.475 29.23c-.41 0-.716-.27-.716-.69 0-.435.295-.72.716-.72.405 0 .695.3.695.72s-.29.69-.695.69m1.222-.695c0-.696-.476-1.191-1.102-1.191-.16 0-.275.04-.325.075l-.05-.025.665-1.262h-.565l-.836 1.587c-.175.33-.25.59-.25.83 0 .667.56 1.193 1.236 1.193.686 0 1.227-.526 1.227-1.207m1.423.691c-.33 0-.55-.2-.62-.546l-.501.136c.12.53.475.926 1.126.926.67 0 1.177-.446 1.177-1.062 0-.58-.356-.866-.656-.905v-.061c.23-.06.515-.325.515-.725 0-.531-.385-.926-1.025-.926-.581 0-.961.36-1.067.855l.466.12c.064-.28.25-.47.59-.47.32 0 .51.19.51.491 0 .325-.254.49-.69.49v.441c.526 0 .83.235.83.645 0 .405-.335.591-.655.591m-.645 30.76c.405 0 .695.3.695.72s-.29.69-.695.69c-.41 0-.716-.27-.716-.69 0-.435.295-.72.716-.72m-1.24.73c0 .666.56 1.192 1.235 1.192.686 0 1.227-.526 1.227-1.207 0-.695-.476-1.191-1.102-1.191a.6.6 0 0 0-.325.076l-.05-.026.665-1.261h-.565l-.836 1.586c-.175.33-.25.59-.25.83m3.256-.209c.064 0 .08-.02.12-.07l1.001-1.286.05.03a.274.274 0 0 0-.045.154v1.137c0 .045.005.06.035.09l-.046.04a.097.097 0 0 0-.08-.035h-1.035v-.06zm-.576.515h1.611a.1.1 0 0 0 .08-.035l.046.041c-.03.03-.035.044-.035.09v.725h.505v-.726c0-.045-.005-.06-.035-.089l.046-.04a.1.1 0 0 0 .08.034h.29v-.455h-.29a.097.097 0 0 0-.08.035l-.046-.04c.03-.03.035-.045.035-.09v-2.173h-.42l-1.787 2.283v.44zm.061 21.798c.405 0 .695.3.695.72s-.29.69-.695.69c-.41 0-.716-.27-.716-.69 0-.435.295-.72.716-.72m-.005 1.922c.686 0 1.227-.526 1.227-1.207 0-.695-.476-1.191-1.102-1.191a.6.6 0 0 0-.325.076l-.05-.026.665-1.261h-.565l-.836 1.586c-.175.33-.25.59-.25.83 0 .667.56 1.193 1.236 1.193m3.631-3.123l.03-.486h-1.712l-.305 1.907.456.07c.16-.19.37-.296.6-.296.415 0 .736.22.736.706 0 .466-.3.706-.726.706s-.636-.27-.716-.56l-.49.135c.145.535.59.94 1.216.94.671 0 1.236-.495 1.236-1.221 0-.786-.57-1.191-1.09-1.191a.954.954 0 0 0-.59.176l-.056-.011.14-.875h1.271zm-.626 31.962c-.41 0-.716-.27-.716-.69 0-.436.295-.72.716-.72.405 0 .695.3.695.72s-.29.69-.695.69m.12-1.887a.6.6 0 0 0-.325.076l-.05-.025.665-1.262h-.565l-.836 1.587c-.175.33-.25.59-.25.83 0 .667.56 1.192 1.236 1.192.686 0 1.227-.525 1.227-1.207 0-.696-.476-1.19-1.102-1.19m2.67.476c.405 0 .695.3.695.72s-.29.69-.695.69c-.41 0-.716-.27-.716-.69 0-.436.296-.72.716-.72m-.005 1.921c.686 0 1.226-.526 1.226-1.207 0-.695-.475-1.19-1.1-1.19a.6.6 0 0 0-.326.075l-.05-.026.665-1.26h-.565l-.836 1.585c-.175.33-.25.591-.25.831 0 .666.56 1.192 1.236 1.192m-2.785 26.061c.405 0 .695.3.695.72s-.29.69-.695.69c-.41 0-.716-.27-.716-.69 0-.435.295-.72.716-.72zm-.155-1.687l-.836 1.586c-.175.33-.25.59-.25.83 0 .667.56 1.193 1.236 1.193.686 0 1.227-.526 1.227-1.207 0-.695-.476-1.191-1.102-1.191a.6.6 0 0 0-.325.076l-.05-.026.665-1.261h-.565zm3.216.545c-.024 0-.064.021-.095.085l-1.342 2.913h.556l1.392-3.058v-.486h-2.323v.484h1.812v.062zm-2.062 19.137c-.41 0-.716-.271-.716-.69 0-.436.295-.721.716-.721.405 0 .695.3.695.72s-.29.69-.695.69m.12-1.886c-.16 0-.275.04-.325.075l-.05-.025.665-1.262h-.565l-.836 1.587c-.175.33-.25.59-.25.83 0 .667.56 1.193 1.236 1.193.686 0 1.227-.526 1.227-1.207 0-.696-.476-1.191-1.102-1.191m2.656 1.892c-.417 0-.681-.25-.681-.626 0-.348.237-.626.68-.626.445 0 .682.278.682.626 0 .376-.264.626-.681.626m0-2.685c.328 0 .538.18.538.489 0 .264-.185.497-.538.497-.354 0-.538-.233-.538-.497 0-.31.209-.49.538-.49m.677 1.18v-.028c.25-.168.372-.417.372-.741 0-.51-.457-.893-1.05-.893-.592 0-1.05.384-1.05.893 0 .324.123.573.373.74v.03c-.332.162-.513.497-.513.879 0 .706.565 1.137 1.19 1.137.626 0 1.19-.431 1.19-1.137 0-.382-.18-.717-.512-.88m-8.952 18.746c-.41 0-.716-.27-.716-.689 0-.436.295-.721.716-.721.405 0 .695.299.695.721 0 .419-.29.689-.695.689m.12-1.887a.61.61 0 0 0-.325.076l-.05-.025.665-1.262h-.565l-.836 1.586c-.175.33-.25.592-.25.832 0 .666.56 1.192 1.236 1.192.686 0 1.227-.526 1.227-1.207 0-.696-.476-1.192-1.102-1.192m2.581.647c-.406 0-.697-.301-.697-.721 0-.424.291-.695.697-.695.41 0 .716.27.716.695 0 .436-.297.72-.716.72m.005-1.927c-.687 0-1.228.528-1.228 1.21 0 .697.476 1.193 1.103 1.193.16 0 .274-.04.325-.075l.05.026-.671 1.26h.57l.836-1.586c.175-.33.25-.59.25-.83 0-.67-.56-1.198-1.236-1.198m-16.493 14.232h1.812v.062c-.025 0-.065.022-.095.086l-1.342 2.913h.556l1.391-3.057v-.486h-2.322v.482zm4.556 1.725c0 .496-.134.887-.67.887-.556 0-.67-.426-.67-.887v-.92c0-.461.18-.836.67-.836.51 0 .67.41.67.836v.92zm-.67-2.277c-.801 0-1.196.605-1.196 1.287v1.025c0 .756.366 1.367 1.196 1.367.86 0 1.196-.652 1.196-1.367v-1.025c0-.721-.43-1.287-1.196-1.287zm-16.386 9.544h1.812v.062c-.025 0-.065.02-.095.085l-1.342 2.914h.556l1.391-3.058v-.486h-2.322v.483zm2.496.002h.524c.026 0 .055-.01.085-.04l.045.04a.11.11 0 0 0-.04.096v2.963h.511v-3.544h-1.126v.486zm-15.814 6.346h1.812v.062c-.025 0-.065.021-.095.085l-1.342 2.914h.556l1.39-3.058v-.486h-2.321v.483zm3.325 2.514c.065 0 .101-.028.195-.13l.601-.625c.376-.394.701-.76.701-1.301 0-.64-.466-1.01-1.11-1.01-.562 0-.967.29-1.162.79l.46.19c.135-.33.4-.465.68-.465.365 0 .606.236.606.55 0 .3-.16.52-.67 1.057l-.987 1.03.005.46h2.268v-.484h-1.587v-.061zm-16.112 2.477h1.812v.062c-.025 0-.065.02-.095.084l-1.342 2.914h.556l1.39-3.058v-.486h-2.321v.483zm4.216 1.159v-.061c.23-.06.516-.325.516-.725 0-.53-.385-.926-1.026-.926-.581 0-.961.36-1.066.856l.466.12c.064-.281.25-.471.59-.471.32 0 .51.19.51.49 0 .326-.255.49-.69.49v.442c.525 0 .83.235.83.645 0 .406-.335.59-.655.59-.33 0-.55-.2-.621-.545l-.5.136c.12.53.475.926 1.126.926.67 0 1.176-.446 1.176-1.062 0-.58-.355-.866-.656-.905m-10.935-26.184l-1.342 2.913h.556l1.391-3.058v-.486h-2.322v.484h1.812v.062c-.025 0-.065.021-.095.085m2.28 1.632l-.045.04a.104.104 0 0 0-.08-.035h-1.036v-.06c.064 0 .08-.02.12-.07l1.001-1.286.05.029a.266.266 0 0 0-.045.155v1.137c0 .045.005.06.035.09m.561.46h.29v-.455h-.29a.103.103 0 0 0-.08.035l-.045-.04c.03-.03.034-.045.034-.09v-2.173h-.42l-1.787 2.284v.439h1.612c.024 0 .05-.005.08-.034l.045.04c-.03.029-.035.045-.035.09v.725h.505v-.725c0-.045-.005-.061-.034-.09l.044-.04c.03.029.055.034.081.034m-15.789-5.424l-1.342 2.912h.556l1.39-3.058v-.486h-2.321v.484h1.812v.062c-.025 0-.065.021-.095.085m2.034 2.463c-.426 0-.636-.271-.716-.561l-.49.135c.144.535.591.942 1.216.942.671 0 1.236-.496 1.236-1.222 0-.786-.57-1.191-1.091-1.191a.966.966 0 0 0-.591.175l-.054-.01.139-.875h1.272l.03-.487h-1.712l-.305 1.907.456.071a.775.775 0 0 1 .6-.296c.415 0 .736.221.736.706 0 .466-.3.706-.726.706m-9.983 5.412l-1.342 2.913h.556l1.39-3.058v-.486h-2.321v.484h1.812v.062c-.025 0-.065.021-.095.085m1.929 1.056c.405 0 .695.3.695.722 0 .42-.29.69-.695.69-.41 0-.716-.27-.716-.69 0-.436.295-.721.716-.721m-.005 1.922c.686 0 1.227-.526 1.227-1.207 0-.695-.476-1.191-1.102-1.191a.6.6 0 0 0-.325.076l-.05-.026.665-1.261h-.565l-.836 1.586c-.175.33-.25.59-.25.83 0 .667.56 1.193 1.236 1.193m-11.963 3.637l-1.341 2.912h.555l1.391-3.058v-.486h-2.321v.484h1.811v.062c-.025 0-.065.021-.095.085m2.476.001l-1.343 2.912h.556l1.391-3.058v-.486h-2.322v.484h1.812v.062c-.025 0-.065.021-.095.085m-7.487-16.035l-1.342 2.913h.556l1.39-3.058v-.486h-2.321v.484h1.812v.062c-.025 0-.065.021-.095.085m2.642.276c0 .266-.186.498-.538.498-.354 0-.538-.232-.538-.498 0-.308.21-.488.538-.488.328 0 .538.18.538.488m.143 1.57c0 .377-.264.627-.68.627-.418 0-.682-.25-.682-.627 0-.346.237-.625.681-.625.444 0 .681.279.681.625m-1.73-1.649c0 .325.121.574.371.742v.029c-.332.163-.513.497-.513.878 0 .707.565 1.137 1.191 1.137.625 0 1.19-.43 1.19-1.137 0-.381-.18-.715-.513-.878v-.03c.25-.168.372-.417.372-.74 0-.51-.457-.894-1.049-.894-.593 0-1.05.385-1.05.893m4.779-10.486l-1.342 2.912h.556l1.39-3.057v-.486h-2.321v.483h1.812v.062c-.025 0-.065.022-.095.086m2.029 1.227c-.405 0-.696-.301-.696-.721 0-.424.291-.695.696-.695.41 0 .716.27.716.695 0 .436-.296.72-.716.72zm.155 1.686l.836-1.586c.175-.33.25-.59.25-.83 0-.67-.56-1.198-1.236-1.198-.686 0-1.227.528-1.227 1.21 0 .697.476 1.193 1.102 1.193.16 0 .275-.04.325-.075l.05.026-.67 1.26h.57zm-23.336 16.142c.444 0 .68.279.68.627 0 .375-.263.625-.68.625-.417 0-.681-.25-.681-.625 0-.348.236-.627.68-.627m0-1.432c.329 0 .538.18.538.489 0 .263-.184.496-.537.496-.355 0-.538-.233-.538-.496 0-.31.208-.49.537-.49m-1.19 2.06c0 .705.565 1.137 1.19 1.137.626 0 1.19-.432 1.19-1.137 0-.383-.18-.717-.513-.88v-.028c.25-.168.373-.418.373-.742 0-.508-.458-.893-1.05-.893-.592 0-1.05.385-1.05.893 0 .324.123.574.373.742v.029c-.332.162-.513.496-.513.879m4.775-.27c0 .494-.135.885-.67.885-.557 0-.67-.426-.67-.885v-.922c0-.46.18-.836.67-.836.51 0 .67.41.67.836v.922zm.525-.992c0-.72-.43-1.285-1.196-1.285-.8 0-1.196.605-1.196 1.285v1.025c0 .756.366 1.367 1.196 1.367.861 0 1.196-.65 1.196-1.367v-1.025zm-2.662-23.525c.445 0 .682.278.682.626 0 .376-.264.626-.681.626-.417 0-.681-.25-.681-.626 0-.348.237-.626.68-.626m0-1.433c.329 0 .539.18.539.489 0 .264-.185.497-.538.497-.354 0-.538-.233-.538-.497 0-.31.209-.49.538-.49m-1.191 2.06c0 .706.565 1.137 1.19 1.137.626 0 1.19-.431 1.19-1.137 0-.382-.18-.717-.512-.88v-.028c.25-.168.372-.417.372-.741 0-.51-.457-.893-1.05-.893-.592 0-1.05.384-1.05.893 0 .324.123.573.373.74v.03c-.332.162-.513.497-.513.879m3.3-2.032l.044.04a.11.11 0 0 0-.04.095v2.963h.511v-3.544h-1.126v.486h.525a.124.124 0 0 0 .085-.04m38.93 49.322c-.417 0-.681-.25-.681-.625 0-.348.237-.627.68-.627.445 0 .682.279.682.627 0 .375-.264.625-.681.625m0-2.684c.328 0 .538.18.538.489 0 .263-.185.496-.538.496-.354 0-.538-.233-.538-.496 0-.31.209-.49.538-.49m1.19 2.06c0-.383-.181-.717-.513-.88v-.028c.25-.168.372-.418.372-.742 0-.508-.457-.893-1.05-.893-.592 0-1.05.385-1.05.893 0 .324.123.574.373.742v.029c-.332.162-.513.496-.513.879 0 .705.565 1.137 1.19 1.137.626 0 1.19-.432 1.19-1.137m1.36.39l.6-.627c.377-.394.702-.76.702-1.3 0-.64-.466-1.01-1.112-1.01-.56 0-.965.29-1.161.79l.46.19a.705.705 0 0 1 .68-.465c.366 0 .606.234.606.55 0 .3-.16.52-.67 1.056l-.986 1.031.005.461h2.268v-.487h-1.587v-.06c.065 0 .1-.029.195-.129m-9.088 7.563c-.416 0-.68-.25-.68-.626 0-.348.237-.626.68-.626.445 0 .682.278.682.626 0 .376-.264.626-.681.626m0-2.685c.328 0 .538.18.538.489 0 .264-.185.497-.538.497-.354 0-.538-.233-.538-.497 0-.31.209-.49.538-.49m.677 1.18v-.028c.25-.168.372-.417.372-.741 0-.51-.457-.893-1.05-.893-.592 0-1.05.384-1.05.893 0 .324.123.573.373.74v.03c-.332.162-.513.497-.513.879 0 .706.565 1.137 1.19 1.137.626 0 1.19-.431 1.19-1.137 0-.382-.18-.717-.512-.88m2.042 1.496c-.33 0-.55-.2-.62-.546l-.501.136c.12.53.474.926 1.126.926.67 0 1.177-.446 1.177-1.062 0-.58-.357-.866-.657-.905v-.061c.23-.06.516-.325.516-.725 0-.531-.385-.926-1.025-.926-.582 0-.962.36-1.068.855l.466.12c.064-.28.25-.47.591-.47.32 0 .51.19.51.491 0 .325-.255.49-.69.49v.441c.525 0 .83.235.83.645 0 .405-.335.591-.655.591m-2.72 9.343c-.416 0-.68-.25-.68-.626 0-.348.237-.626.68-.626.445 0 .682.278.682.626 0 .376-.264.626-.681.626m0-2.685c.328 0 .538.18.538.489 0 .264-.185.497-.538.497-.354 0-.538-.233-.538-.497 0-.31.209-.49.538-.49m.677 1.18v-.028c.25-.168.372-.417.372-.741 0-.51-.457-.893-1.05-.893-.592 0-1.05.384-1.05.893 0 .324.123.573.373.74v.03c-.332.162-.513.497-.513.879 0 .706.565 1.137 1.19 1.137.626 0 1.19-.431 1.19-1.137 0-.382-.18-.717-.512-.88m1.412.61c.064 0 .08-.02.12-.07l1-1.286.05.03a.274.274 0 0 0-.044.154v1.137c0 .045.005.06.035.09l-.045.04a.1.1 0 0 0-.08-.035h-1.036v-.06zm-.576.515h1.612c.025 0 .05-.005.08-.035l.045.041c-.03.03-.035.044-.035.09v.725h.505v-.726c0-.045-.005-.06-.034-.089l.045-.04a.1.1 0 0 0 .08.034h.29v-.455h-.29a.097.097 0 0 0-.08.035l-.045-.04c.029-.03.034-.045.034-.09v-2.173h-.42l-1.787 2.283v.44zm6.32 7.216c-.417 0-.681-.25-.681-.626 0-.348.237-.626.68-.626.445 0 .682.278.682.626 0 .376-.264.626-.681.626m0-2.685c.328 0 .538.18.538.489 0 .264-.185.497-.538.497-.354 0-.538-.233-.538-.497 0-.31.209-.49.538-.49m.677 1.18v-.028c.25-.168.372-.417.372-.741 0-.51-.457-.893-1.05-.893-.592 0-1.05.384-1.05.893 0 .324.123.573.373.74v.03c-.332.162-.513.497-.513.879 0 .706.565 1.137 1.19 1.137.626 0 1.19-.431 1.19-1.137 0-.382-.18-.717-.512-.88m2.257-.402a.957.957 0 0 0-.59.176l-.056-.01.14-.875h1.272l.03-.486h-1.712l-.306 1.906.456.07a.78.78 0 0 1 .601-.296c.415 0 .735.221.735.707 0 .466-.299.705-.725.705s-.636-.27-.716-.56l-.49.136c.144.534.59.94 1.215.94.671 0 1.237-.495 1.237-1.221 0-.786-.57-1.192-1.09-1.192m-21.097 31.075c-.417 0-.681-.25-.681-.626 0-.348.237-.626.68-.626.445 0 .682.278.682.626 0 .376-.264.626-.681.626m0-2.685c.328 0 .538.18.538.489 0 .264-.185.497-.538.497-.354 0-.538-.233-.538-.497 0-.31.209-.49.538-.49m.677 1.18v-.028c.25-.168.372-.417.372-.741 0-.51-.457-.893-1.05-.893-.592 0-1.05.384-1.05.893 0 .324.123.573.373.74v.03c-.332.162-.513.497-.513.879 0 .706.565 1.137 1.19 1.137.626 0 1.19-.431 1.19-1.137 0-.382-.18-.717-.512-.88m2.187 1.501c-.41 0-.716-.271-.716-.69 0-.436.295-.721.716-.721.405 0 .695.3.695.72s-.29.69-.695.69m.12-1.886c-.16 0-.275.04-.325.075l-.05-.025.665-1.262h-.565l-.836 1.587c-.175.33-.25.59-.25.83 0 .667.56 1.193 1.236 1.193.686 0 1.227-.526 1.227-1.207 0-.696-.476-1.191-1.102-1.191m38.501-298.171c.064 0 .08-.02.12-.07l1.001-1.286.05.03a.274.274 0 0 0-.045.154v1.137c0 .045.005.06.035.09l-.045.04a.1.1 0 0 0-.08-.035h-1.036v-.06zm-.576.515h1.612c.025 0 .05-.005.08-.035l.045.041c-.03.03-.035.044-.035.09v.725h.505v-.726c0-.045-.005-.06-.034-.089l.045-.04a.1.1 0 0 0 .08.034h.29v-.455h-.29a.097.097 0 0 0-.08.035l-.045-.04c.029-.03.034-.045.034-.09v-2.173h-.42l-1.787 2.283v.44zm5.057-2.236l.03-.486h-1.712l-.305 1.907.456.07c.16-.19.37-.296.6-.296.415 0 .736.22.736.706 0 .466-.3.706-.726.706s-.636-.27-.716-.56l-.49.135c.145.535.59.94 1.216.94.671 0 1.236-.495 1.236-1.221 0-.786-.57-1.191-1.09-1.191a.954.954 0 0 0-.59.176l-.056-.011.14-.875h1.271zm-5.481 34.723c.064 0 .08-.02.12-.07l1.001-1.286.05.03a.274.274 0 0 0-.045.154v1.137c0 .045.005.06.035.09l-.045.04a.1.1 0 0 0-.08-.035h-1.036v-.06zm1.116.48l.045.041c-.03.03-.035.044-.035.09v.725h.505v-.726c0-.045-.005-.06-.034-.089l.045-.04a.1.1 0 0 0 .08.034h.29v-.455h-.29a.097.097 0 0 0-.08.035l-.045-.04c.029-.03.034-.045.034-.09v-2.173h-.42l-1.787 2.283v.44h1.612c.025 0 .05-.005.08-.035zm2.53-1c.405 0 .695.3.695.72s-.29.69-.696.69c-.41 0-.715-.27-.715-.69 0-.435.295-.72.715-.72zm-.155-1.687l-.837 1.586c-.174.33-.25.59-.25.83 0 .667.56 1.193 1.237 1.193.685 0 1.226-.526 1.226-1.207 0-.695-.475-1.191-1.101-1.191a.6.6 0 0 0-.326.076l-.05-.026.666-1.261h-.565zm-1.491 41.705c.064 0 .08-.02.12-.07l1.001-1.286.05.03a.274.274 0 0 0-.045.154v1.137c0 .045.005.06.035.09l-.045.04a.1.1 0 0 0-.08-.035h-1.036v-.06zm-.576.515h1.612c.025 0 .05-.005.08-.035l.045.041c-.03.03-.035.044-.035.09v.725h.505v-.726c0-.045-.005-.06-.034-.089l.045-.04a.1.1 0 0 0 .08.034h.29v-.455h-.29a.097.097 0 0 0-.08.035l-.045-.04c.029-.03.034-.045.034-.09v-2.173h-.42l-1.787 2.283v.44zm2.82-2.239h1.812v.062c-.025 0-.065.02-.095.085l-1.342 2.914h.556l1.391-3.058v-.486h-2.322v.483zM250.007 180c.064 0 .08-.022.12-.07l1.001-1.287.05.03a.274.274 0 0 0-.045.154v1.137c0 .045.005.06.035.09l-.045.04a.1.1 0 0 0-.08-.035h-1.036V180zm-.576.514h1.612c.025 0 .05-.005.08-.035l.045.041c-.03.03-.035.044-.035.09v.725h.505v-.726c0-.045-.005-.06-.034-.089l.045-.04a.1.1 0 0 0 .08.034h.29v-.455h-.29a.097.097 0 0 0-.08.035l-.045-.04c.029-.03.034-.045.034-.09v-2.173h-.42l-1.787 2.283v.44zm3.526-.245c0-.348.236-.626.681-.626.444 0 .68.278.68.626 0 .376-.263.626-.68.626-.417 0-.68-.25-.68-.626m.68-2.06c.328 0 .538.18.538.49 0 .264-.186.497-.538.497-.354 0-.538-.233-.538-.497 0-.31.21-.49.538-.49m1.19 2.06c0-.382-.182-.717-.514-.88v-.028c.25-.168.372-.417.372-.741 0-.51-.457-.893-1.048-.893-.593 0-1.05.384-1.05.893 0 .324.122.573.372.74v.03c-.332.162-.514.497-.514.879 0 .706.566 1.137 1.192 1.137.625 0 1.19-.431 1.19-1.137m-2.66 26.951l-.045.04a.104.104 0 0 0-.08-.034h-1.036v-.06c.064 0 .08-.02.12-.07l1.001-1.286.05.029a.266.266 0 0 0-.045.155v1.137c0 .045.005.06.035.09zm.47-2.262h-.42l-1.787 2.284v.439h1.612c.024 0 .05-.005.08-.034l.045.04c-.03.029-.035.045-.035.09v.725h.505v-.725c0-.045-.005-.061-.034-.09l.044-.04c.03.029.055.034.081.034h.29v-.455h-.29a.103.103 0 0 0-.08.035l-.045-.04c.03-.03.034-.045.034-.09v-2.173zm1.925 1.858c-.405 0-.696-.301-.696-.721 0-.424.29-.695.696-.695.41 0 .716.27.716.695 0 .436-.296.72-.716.72m.005-1.926c-.686 0-1.227.528-1.227 1.21 0 .696.476 1.193 1.102 1.193a.6.6 0 0 0 .325-.076l.05.026-.671 1.26h.57l.836-1.586c.176-.33.25-.59.25-.83 0-.67-.56-1.197-1.235-1.197m-1.624 29.957c0-.786-.57-1.191-1.091-1.191a.966.966 0 0 0-.591.175l-.054-.01.138-.875h1.273l.03-.487h-1.713l-.305 1.908.457.07a.775.775 0 0 1 .6-.296c.415 0 .735.22.735.706 0 .466-.3.706-.726.706-.425 0-.636-.27-.715-.56l-.49.134c.144.535.59.942 1.216.942.67 0 1.236-.496 1.236-1.222m2.329-.18c0 .495-.135.886-.671.886-.556 0-.67-.426-.67-.886v-.92c0-.462.18-.837.67-.837.51 0 .67.41.67.836v.921zm-.671-2.277c-.801 0-1.196.605-1.196 1.286v1.025c0 .756.366 1.367 1.196 1.367.86 0 1.196-.65 1.196-1.367v-1.025c0-.72-.43-1.286-1.196-1.286zm-3.905 28.497c-.426 0-.636-.271-.716-.561l-.49.135c.144.535.591.942 1.216.942.671 0 1.236-.496 1.236-1.223 0-.785-.57-1.191-1.09-1.191a.973.973 0 0 0-.592.175l-.054-.009.14-.875h1.271l.03-.487h-1.712l-.305 1.907.456.07c.16-.19.37-.295.6-.295.415 0 .736.221.736.705 0 .467-.3.707-.726.707m2.103.449h.512v-3.543h-1.126v.486h.525c.026 0 .055-.01.085-.04l.045.04c-.03.03-.04.05-.04.094v2.963zm-22.968 6.217c-.426 0-.636-.271-.716-.561l-.49.135c.144.535.591.942 1.216.942.671 0 1.236-.496 1.236-1.223 0-.785-.57-1.191-1.09-1.191a.973.973 0 0 0-.592.175l-.054-.009.14-.875h1.271l.03-.487h-1.712l-.305 1.907.456.07c.16-.19.37-.295.6-.295.415 0 .736.221.736.705 0 .467-.3.707-.726.707m1.658-.01l.005.46h2.267v-.485h-1.586v-.06c.065 0 .1-.03.195-.132l.6-.625c.376-.394.702-.76.702-1.3 0-.64-.466-1.012-1.112-1.012-.56 0-.966.291-1.16.791l.46.19a.705.705 0 0 1 .68-.466c.365 0 .605.237.605.551 0 .301-.16.52-.67 1.057l-.986 1.031zm-17.162-2.197c0-.785-.57-1.191-1.09-1.191a.973.973 0 0 0-.592.175l-.054-.01.14-.874h1.271l.03-.487h-1.712l-.306 1.907.457.07c.16-.19.37-.295.6-.295.415 0 .735.22.735.705 0 .467-.299.707-.725.707s-.636-.271-.716-.561l-.49.135c.144.535.591.942 1.216.942.671 0 1.236-.496 1.236-1.223m2.645.16c0-.58-.355-.865-.656-.904v-.06c.23-.06.515-.327.515-.727 0-.53-.384-.926-1.025-.926-.581 0-.961.361-1.066.855l.465.121c.065-.28.25-.47.59-.47.322 0 .51.19.51.49 0 .326-.254.49-.69.49v.442c.526 0 .832.234.832.644 0 .406-.336.592-.657.592-.33 0-.55-.2-.62-.547l-.501.137c.12.53.476.925 1.127.925.67 0 1.176-.445 1.176-1.062M196.592 247.4c.67 0 1.236-.495 1.236-1.221 0-.786-.57-1.191-1.09-1.191a.955.955 0 0 0-.591.176l-.055-.011.14-.875h1.27l.03-.486h-1.711l-.305 1.907.456.07c.16-.19.37-.296.6-.296.416 0 .736.22.736.706 0 .466-.3.706-.726.706s-.636-.27-.716-.56l-.49.135c.145.535.59.94 1.216.94m3.23-1.346l-.045.04a.104.104 0 0 0-.08-.035h-1.036v-.06c.064 0 .08-.02.12-.07l1.001-1.286.05.029a.266.266 0 0 0-.045.155v1.137c0 .045.005.06.035.09m.48.04l-.044-.04c.03-.03.034-.045.034-.09v-2.173h-.42l-1.787 2.284v.439h1.612c.024 0 .05-.005.08-.034l.045.04c-.03.029-.035.045-.035.09v.725h.505v-.725c0-.045-.005-.061-.034-.09l.044-.04c.03.029.055.034.081.034h.29v-.455h-.29a.103.103 0 0 0-.08.035m-4.787-37.729l.456.07c.16-.19.37-.296.6-.296.416 0 .736.221.736.706 0 .466-.3.708-.726.708-.425 0-.635-.272-.715-.561l-.491.135c.145.534.59.94 1.216.94.67 0 1.237-.496 1.237-1.222 0-.785-.571-1.19-1.091-1.19a.957.957 0 0 0-.591.175l-.055-.01.14-.875h1.27l.032-.487h-1.712l-.306 1.907zm4.757-1.42l.03-.486h-1.712l-.305 1.907.456.07c.16-.19.37-.296.6-.296.415 0 .736.22.736.706 0 .466-.3.706-.726.706s-.636-.27-.716-.56l-.49.135c.145.535.59.94 1.216.94.67 0 1.236-.495 1.236-1.221 0-.786-.57-1.191-1.091-1.191a.954.954 0 0 0-.59.176l-.055-.011.14-.875h1.27zm-5.167-36.727c-.426 0-.636-.27-.716-.561l-.49.135c.144.535.59.942 1.216.942.67 0 1.236-.496 1.236-1.221 0-.787-.57-1.191-1.091-1.191a.96.96 0 0 0-.591.175l-.054-.011.139-.875h1.272l.03-.487h-1.712l-.305 1.908.456.071a.773.773 0 0 1 .6-.297c.415 0 .736.221.736.707 0 .465-.3.705-.726.705m2.854-1.406c.405 0 .695.3.695.72s-.29.692-.695.692c-.41 0-.716-.271-.716-.691 0-.436.295-.721.716-.721zm-.155-1.687l-.836 1.587c-.175.33-.25.59-.25.83 0 .666.56 1.192 1.236 1.192.686 0 1.227-.526 1.227-1.207 0-.695-.476-1.19-1.102-1.19a.602.602 0 0 0-.325.075l-.05-.026.665-1.261h-.565zm-4.358-32.905c-.426 0-.636-.271-.716-.561l-.49.135c.144.535.591.942 1.216.942.671 0 1.236-.496 1.236-1.223 0-.785-.57-1.191-1.09-1.191a.973.973 0 0 0-.592.175l-.054-.01.14-.874h1.271l.03-.487h-1.712l-.305 1.907.456.07c.16-.19.37-.295.6-.295.415 0 .736.22.736.705 0 .467-.3.707-.726.707m3.305-2.549c-.024 0-.064.021-.095.086l-1.342 2.912h.556l1.392-3.057v-.486h-2.323v.483h1.812v.062zm-.17-24.701c-.426 0-.636-.271-.716-.561l-.49.135c.144.535.591.942 1.216.942.671 0 1.236-.496 1.236-1.223 0-.785-.57-1.191-1.09-1.191a.973.973 0 0 0-.592.175l-.054-.01.14-.874h1.271l.03-.487h-1.712l-.305 1.907.456.07c.16-.19.37-.295.6-.295.415 0 .736.22.736.705 0 .467-.3.707-.726.707m2.84-1.242c.444 0 .681.277.681.625 0 .377-.264.627-.681.627-.417 0-.681-.25-.681-.627 0-.348.237-.625.681-.625m0-1.434c.328 0 .538.18.538.489 0 .265-.185.498-.538.498-.354 0-.538-.233-.538-.498 0-.31.209-.49.538-.49m-1.191 2.06c0 .707.565 1.137 1.191 1.137.625 0 1.19-.43 1.19-1.137 0-.381-.181-.717-.513-.88v-.028c.25-.168.372-.416.372-.74 0-.51-.457-.893-1.049-.893-.593 0-1.05.383-1.05.893 0 .324.122.572.372.74v.029c-.332.162-.513.498-.513.879m19.05-14.383c-.426 0-.636-.271-.716-.561l-.49.135c.144.535.591.942 1.216.942.671 0 1.236-.496 1.236-1.223 0-.785-.57-1.191-1.09-1.191a.973.973 0 0 0-.592.175l-.054-.01.14-.874h1.271l.03-.487h-1.712l-.305 1.907.456.07c.16-.19.37-.295.6-.295.415 0 .736.22.736.705 0 .467-.3.707-.726.707m2.765-2.652c.41 0 .716.27.716.695 0 .436-.296.72-.716.72-.405 0-.696-.3-.696-.72 0-.424.291-.695.696-.695m-.12 1.89c.16 0 .275-.038.325-.074l.05.026-.671 1.26h.571l.836-1.586c.175-.33.25-.59.25-.83 0-.67-.56-1.198-1.236-1.198-.686 0-1.227.528-1.227 1.21 0 .697.476 1.193 1.102 1.193m-52.07 258.081c.065 0 .1-.03.195-.13l.6-.627c.377-.394.702-.76.702-1.3 0-.64-.466-1.01-1.111-1.01-.561 0-.966.29-1.161.79l.46.19c.135-.33.4-.466.68-.466.365 0 .606.236.606.55 0 .301-.16.521-.67 1.057l-.987 1.031.005.46h2.268v-.485h-1.587v-.06zm1.874-2.515h1.812v.062c-.025 0-.065.02-.095.085l-1.342 2.914h.556l1.39-3.058v-.486h-2.321v.483zM13.21 118.665c-.079-.63-1.08-.639-1 0 .242 1.97.91 3.78 2.054 5.405.368.523 1.235.024.864-.505-1.036-1.47-1.698-3.11-1.919-4.9m-3.556 29.211c-3.343-.476-6.564.184-9.42 1.996-.542.344-.04 1.21.504.863 2.615-1.659 5.577-2.332 8.65-1.895.63.09.902-.874.266-.964m312.715 165.417c-.45-.462-1.156.246-.707.707l5.732 5.888c.45.462 1.157-.246.707-.707l-5.732-5.888m15.922-4.648l-4.52-.646c-.63-.09-.902.875-.267.965l4.52.646c.63.09.901-.874.266-.965M277.465 15.857c.644 0 .645-1 0-1-.644 0-.645 1 0 1M263.692 2.05l.647-1.291c.286-.574-.577-1.081-.865-.505l-.644 1.291c-.287.574.575 1.081.863.505M36.93 375.276a23.79 23.79 0 0 0-4.598 6.558c-.274.579.587 1.087.864.504a22.97 22.97 0 0 1 4.44-6.355c.453-.458-.254-1.166-.706-.707"/><g transform="translate(51 385.46)"><mask id="b" fill="#fff"><use xlink:href="#a"/></mask><path fill="#071F2C" d="M.487 0c-.644 0-.645 1 0 1 .644 0 .645-1 0-1" mask="url(#b)"/></g><path fill="#071F2C" d="M148.98 109.476c.645 0 .646-1 0-1-.643 0-.644 1 0 1m116.217 27.762h1.291c.644 0 .645-1 0-1h-1.29c-.645 0-.646 1 0 1m78.902 12.578l-3.23-.646c-.626-.125-.896.838-.264.964l3.228.646c.628.126.898-.838.266-.964"/></g></svg>