<svg xmlns="http://www.w3.org/2000/svg" xmlns:xlink="http://www.w3.org/1999/xlink" width="1440" height="120" viewBox="0 0 1440 120">
    <defs>
        <path id="a" d="M9.417 8H.488V.873h8.93z"/>
        <path id="c" d="M0 78.276V.344h784.192v77.932H0z"/>
    </defs>
    <g fill="none" fill-rule="evenodd">
        <path fill="#E35205" d="M0 35.805h1440V62.5h-158.234c-45.553 0-61.297-8.648-173.723-8.648H907.289c-42.969 0-45.363 8.648-110.098 8.648-60.76 0-97.765-8.01-131.527-8.945-33.762-.935-72.85.297-74.41.297-25.406 0-60.39 8.648-79.223 8.648-18.832 0-39.414-4.27-85.832-4.27-46.418 0-85.935 4.27-140.445 4.27-54.51 0-21.367-15.945-72.29-15.945-50.921 0-80.401 15.945-125.78 15.945H0V35.805z"/>
        <path fill="#EFECD3" d="M673.816 64.455c-.054-1.661-.282-3.371-.589-5.207-.31-1.863-.639-3.725-.963-5.586a8.54 8.54 0 0 0-.22-1.457c-.026-.097-.056-.191-.08-.288-.562-3.195-1.13-6.39-1.699-9.582-.949-5.338-1.136-13.998-4.395-19.341a7.332 7.332 0 0 0-1.492-1.957c-1.255-1.307-2.839-2.225-4.853-2.581-.989-.478-2.175-.715-3.557-.62l-3.408.234c-1.364.094-2.524.437-3.498.95a8.495 8.495 0 0 0-1.608.599c-17.03 8.573-38.477 8.599-57.086 9.869a1275.458 1275.458 0 0 1-63.713 2.727 8.134 8.134 0 0 0-1.82.24L246.93 19.519c-28.905-1.344-57.81-2.69-86.715-4.036-1.183-.055-2.218.125-3.11.48-9.91-.76-19.875-.944-29.835-.947-2.806-.001-5.612.002-8.419.005-52.126-3.68-104.5-4.085-156.499-9.574A437.154 437.154 0 0 1-47.62 3.52c-7.572-1.566-11.653 7.46-8.055 12.08-.215 1.982.395 4.018 2.203 5.626.335.299.683.582 1.026.87.22 1.295.508 3.216.511 3.228l1.26 5.854 2.31 10.73c.707 3.29 1.511 6.383 1.315 9.766-.195 3.346-.87 6.526-.49 9.89.434 3.845 2.042 7.573 4.748 10.219.905 2.684 3.164 4.906 6.775 5.084 41.102 2.026 82.261 2.8 123.41 2.264 20.41-.267 40.814-.852 61.204-1.754 8.402-.371 16.824-.697 25.223-1.241.442.047.901.069 1.394.038a5752.243 5752.243 0 0 1 68.453-3.886c26.918.803 53.843 1.249 80.775.922 45.451-.554 90.608-4.648 135.896-7.822 2.42-.032 4.84-.068 7.258-.095 13.256-.152 26.513-.254 39.77-.314 18.493 1.393 36.84 2.27 55.391 1.917 3.014-.056 6.005-.006 8.977.137.823.209 1.645.427 2.465.656 13.216 3.695 25.26 10.56 38.504 14.184 14.7 4.02 29.867 6.634 44.767 9.808 7.184 1.53 11.221-6.518 8.537-11.316.301-.404.57-.834.805-1.272.033-.03.056-.047.092-.078.45-.342.894-.69 1.334-1.041.98-.883 2.026-1.921 2.706-3.08.06-.1.108-.208.165-.311 2.883-2.415 3.636-6.315 2.708-10.128"/>
        <path fill="#071F2C" d="M673.528 60.4c2.004 6.28.398 14.075-6.811 15.779-.626.148-.361 1.113.266.964 7.714-1.823 9.683-10.2 7.509-17.01-.194-.61-1.16-.348-.964.268M654.9 17.44c3.348.013 7.76.418 10.129 3.115 2.198 2.503 1.853 6.35 2.48 9.42 1.68 8.205 4.013 16.187 5.198 24.503.09.635 1.054.364.964-.266-1.367-9.6-4.365-18.857-5.752-28.421-.42-2.887-1.16-5.58-3.742-7.233-2.696-1.725-6.148-2.106-9.277-2.117-.644-.002-.645.998 0 1M652.73 22.204c-2.877-.276-5.63-.102-8.23 1.247-.572.296-.067 1.16.504.863 2.444-1.267 5.039-1.369 7.726-1.11.64.063.636-.939 0-1"/>
        <path fill="#071F2C" d="M663.739 79.38c4.489.194 5.311-7.519 5.777-10.604.573-3.786.682-7.496.238-11.309-.41-3.519-1.204-6.984-1.461-10.52-.548-7.532.525-23.21-10.085-24.162-.641-.057-.637.944 0 1 9.721.871 8.586 16.308 9.085 23.162.493 6.783 2.413 13.282 1.463 20.142-.387 2.798-1.004 11.465-5.017 11.291-.643-.027-.642.973 0 1"/>
        <path fill="#071F2C" d="M661.52 47.97c.271 5.244.331 10.272-.249 15.506-.07.64.93.634 1 0 .58-5.233.52-10.263.25-15.506-.034-.64-1.034-.645-1 0M584.474 67.438c13.472 1.092 27.407 3.919 40.429-1.169.593-.231.335-1.198-.266-.964-12.937 5.055-26.783 2.217-40.163 1.133-.642-.052-.638.948 0 1M636.915 59.699c2.665-1.094 5.73-.993 8.499-1.825 2.436-.733 4.558-1.977 6.566-3.528.502-.387.005-1.256-.504-.863-2.13 1.644-4.348 2.909-6.966 3.605-2.573.682-5.396.635-7.861 1.646-.587.24-.33 1.209.266.965"/>
        <path fill="#071F2C" d="M643.128 58.042c.274.613.041 1.297.333 1.911.413.864 1.493 1.491 2.197 2.071a109.693 109.693 0 0 0 5.246 4.046c.522.38 1.021-.488.505-.863a104.33 104.33 0 0 1-4.825-3.71c-.748-.613-1.577-1.147-2.023-2.013-.332-.64-.275-1.289-.57-1.947-.262-.586-1.124-.078-.863.505"/>
        <path fill="#071F2C" d="M643.85 58.43a8.584 8.584 0 0 0 4.705 1.866c.64.054.638-.946 0-1a7.392 7.392 0 0 1-3.998-1.574c-.5-.395-1.212.31-.707.707M643.54 60.029c-2.224 2.013-3.94 4.49-4.82 7.373-.189.616.776.88.964.266.831-2.722 2.465-5.034 4.563-6.932.478-.434-.23-1.14-.707-.707"/>
        <path fill="#071F2C" d="M643.558 60.371c-2.142-1.126-4.81-1.634-7.215-1.333-.63.08-.638 1.08 0 1 2.236-.28 4.713.147 6.71 1.197.569.3 1.076-.563.505-.864M633.267 61.6c-1.894 1.591-3.715 5.565-1.76 7.785.478.543 1.055.718 1.73.902 1.433.395 2.759.624 4.09 1.38 1.812 1.032 3.169 2.547 5.315 2.876 2.472.38 5.23-.233 7.704-.449 2.17-.188 5.48.13 7.473-.878 2.97-1.5 4.14-6.803 4.453-9.74.068-.64-.933-.635-1 0-.193 1.814-.613 3.574-1.38 5.236-.941 2.04-1.828 3.518-4.21 3.918-3.31.556-6.84.643-10.188.887-2.06.15-3.66-.009-5.434-1.16-1.123-.729-2.098-1.577-3.336-2.129a11.923 11.923 0 0 0-1.691-.6c-1.348-.366-1.404-.128-2.39-1.495-.904-1.256-.983-1.767-.53-3.215.335-1.073 1.01-1.897 1.86-2.612.494-.414-.216-1.118-.706-.707"/>
        <path fill="#071F2C" d="M638.777 72.648c1.076 1.279 1.582 2.729 2.187 4.255.264.664.499 1.542 1.116 1.984 1.339.96 4.185.77 5.723.913 5.377.498 10.859.66 16.212-.162.634-.097.365-1.061-.266-.964-4.726.725-9.571.622-14.326.262a94.823 94.823 0 0 1-3.192-.294c-1.842-.2-3.214-.214-4.303-2.005-.95-1.564-1.218-3.237-2.444-4.696-.415-.493-1.119.218-.707.707"/>
        <path fill="#071F2C" d="M624.832 81.54c11.353.954 21.212 7.814 32.533 9.234 3.74.47 7.718.37 9.842-3.255 2.025-3.46.253-7.084-3.072-8.794-.572-.294-1.078.568-.505.863 2.31 1.189 4.034 3.382 3.276 6.115-.641 2.31-2.64 3.867-4.942 4.18-3.622.49-7.446-.517-10.935-1.417-8.865-2.29-16.95-7.148-26.197-7.926-.641-.055-.638.945 0 1M587.465 67.907c11.196 3.665 20.175 13.365 32.477 13.543.643.009.644-.991 0-1-12.136-.175-21.139-9.883-32.211-13.507-.613-.201-.876.765-.266.964M600.05 63.144a33.155 33.155 0 0 0 2.555-12.601c.005-.643-.995-.643-1 0a32.5 32.5 0 0 1-2.519 12.335c-.247.594.72.853.964.266M545.786 66.249c11.264.109 22.518.594 33.75 1.455.641.049.638-.951 0-1a505.467 505.467 0 0 0-33.75-1.455c-.644-.007-.644.993 0 1M551.28 31.747c8.769-.136 17.52-.75 26.273-1.248 8.611-.491 17.327-.297 25.893-1.348 8.34-1.021 16.524-2.994 24.817-4.317 3.841-.613 7.798-.867 11.433-2.357 4.045-1.655 7.567-4.502 12.031-4.989.634-.069.64-1.07 0-1-3.587.392-6.529 2.12-9.673 3.759-3.937 2.05-7.862 2.698-12.19 3.335-8.844 1.303-17.542 3.48-26.418 4.57-8.566 1.051-17.282.855-25.894 1.346-8.753.5-17.504 1.113-26.273 1.25-.643.01-.644 1.01 0 1M645.213.52c-2.85.853-5.238 2.534-7.03 4.905-.389.514.48 1.012.863.505 1.626-2.152 3.853-3.674 6.433-4.446.615-.184.353-1.15-.266-.964M636.642.08c-.836.52-1.672 1.044-2.508 1.565-.544.34-.043 1.205.505.864l2.507-1.567c.545-.34.044-1.206-.504-.862"/>
        <g transform="translate(619 96.1)">
            <mask id="b" fill="#fff">
                <use xlink:href="#a"/>
            </mask>
            <path fill="#071F2C" d="M.63 1.734a33.444 33.444 0 0 0 8.036 6.2c.564.311 1.068-.553.505-.865a32.56 32.56 0 0 1-7.835-6.043C.891.558.186 1.268.63 1.734" mask="url(#b)"/>
        </g>
        <path fill="#071F2C" d="M628.798 100.407a8.753 8.753 0 0 0 4.11 1.396c.643.053.639-.947 0-1a7.688 7.688 0 0 1-3.605-1.26c-.54-.353-1.042.513-.505.864M665.77 74.694c-1.195-.126-2.236-.711-3.02-1.614-.42-.488-1.125.222-.706.707.964 1.112 2.27 1.754 3.727 1.907.64.066.635-.934 0-1M664.041 77.017c-.977-.763-1.954-1.525-2.93-2.289-.502-.392-1.215.311-.708.707l2.931 2.29c.501.391 1.214-.312.707-.708M673.789 67.848l-3.14.624c-.631.125-.364 1.09.265.964l3.14-.624c.632-.125.365-1.089-.265-.964M644.576 80.239a10.69 10.69 0 0 0-1.791 2.644c-.274.578.587 1.086.864.504a9.838 9.838 0 0 1 1.634-2.441c.434-.474-.271-1.183-.707-.707M641.684 79.729c-.68.566-1.163 1.27-1.505 2.081-.25.592.718.851.964.266.274-.65.71-1.192 1.248-1.64.495-.413-.216-1.117-.707-.707M630.693 63.416a34.936 34.936 0 0 0-5.817 6.903c-.35.543.517 1.044.864.504a33.861 33.861 0 0 1 5.662-6.7c.474-.436-.234-1.142-.709-.707M542.673 30.85c-77.197-.287-154.319-4.057-231.382-8.301-76.734-4.226-153.46-8.181-230.242-11.489-21.488-.926-42.978-1.84-64.462-2.857C-4.784 7.19-26.178 5.871-47.285 2.206c-.63-.109-.9.854-.266.964C-29.008 6.39-10.23 7.826 8.548 8.805c19.066.994 38.145 1.767 57.217 2.595 38.406 1.666 76.813 3.265 115.21 5.115 77.11 3.715 154.147 8.814 231.28 12.077 43.449 1.838 86.927 3.097 130.417 3.258.644.003.644-.997 0-1M545.786 65.249c-17.667-.23-35.334-.078-53.002-.2-19.104-.13-38.218-.7-57.309.316-19.097 1.02-38.058 2.866-57.197 3.156-19.25.293-38.492.793-57.735 1.364-19.23.567-38.444.942-57.684.993-19.18.052-38.386.118-57.526 1.526-38.74 2.853-77.438 5.225-116.288 5.939-43.499.796-87.02-.02-130.46-2.41-.644-.037-.642.963 0 1 77.572 4.267 155.41 3.478 232.877-2.433 19.186-1.465 38.287-2.424 57.534-2.564 19.233-.138 38.454-.103 57.682-.648 19.258-.545 38.514-1.185 57.777-1.55 19.163-.362 38.175-.963 57.29-2.44 21.46-1.659 42.858-1.544 64.363-1.308 19.892.22 39.786 0 59.678.259.644.008.644-.992 0-1M660.302 34.424c-.257-2.28-1.601-4.255-3.693-5.234-.58-.27-1.089.59-.505.864 1.752.82 2.98 2.43 3.197 4.37.071.632 1.072.64 1 0M654.068 28.416a39.584 39.584 0 0 0-8.165.476c-.635.102-.365 1.067.265.963a38.4 38.4 0 0 1 7.9-.44c.644.03.643-.97 0-1M639.476 29.122l-4.13 1.377c-.609.202-.349 1.169.264.965 1.378-.46 2.755-.92 4.132-1.378.607-.202.347-1.168-.266-.964M604.149 63.916a21.407 21.407 0 0 0 3.542-4.675c.316-.562-.547-1.066-.863-.505a20.456 20.456 0 0 1-3.387 4.473c-.455.455.252 1.162.708.706M610.002 55.436l.23-.917c.157-.625-.807-.891-.964-.267l-.23.918c-.157.625.807.891.964.266M612.209 64.174a21.118 21.118 0 0 0 4.643-6.32c.277-.578-.585-1.086-.863-.506a20.379 20.379 0 0 1-4.487 6.12c-.471.44.237 1.145.707.706M617.828 54.294l1.147-3.672c.193-.616-.772-.879-.964-.266l-1.147 3.672c-.193.617.772.88.964.266M619.088 62.561a4.24 4.24 0 0 0 1.246-2.302c.116-.629-.848-.899-.964-.265a3.343 3.343 0 0 1-.989 1.86c-.465.447.243 1.153.707.707M656.458 51.147a6.891 6.891 0 0 0-2.51 1.517c-.47.443.239 1.149.707.707a5.687 5.687 0 0 1 2.069-1.26c.604-.21.344-1.175-.266-.964M501.826 43.456l-9.563-1.367c-.629-.09-.9.875-.266.965l9.563 1.365c.63.092.902-.872.266-.963M9.613 66.755l48 2c.644.027.643-.973 0-1l-48-2c-.643-.026-.642.974 0 1M87.615 63.7c.644 0 .645-1 0-1-.644 0-.645 1 0 1M273.748 35.717l-5-1c-.628-.126-.897.838-.266.964l5 1c.63.126.898-.838.266-.964M306.868 38.768l-6-3c-.574-.287-1.081.575-.505.863l6 3c.574.287 1.08-.575.505-.863"/>
        <g>
            <path fill="#FFF" d="M769.925 45.274l6.166-12.42 8.215 6.648-2.653 6.366-3.438 2.27-5.971-1.014z"/>
            <g transform="translate(758 11.705)">
                <mask id="d" fill="#fff">
                    <use xlink:href="#c"/>
                </mask>
                <path fill="#D6906D" d="M24.204 31.378a20.941 20.941 0 0 1-4.143 4.333c-2.798-.2-5.51-.9-8.136-2.142 1.431-2.224 2.4-4.647 3.257-7.14.56-.748 1.001-1.527 1.236-2.313 1.783.534 3.591 1.056 5.26 1.887 1.135.565 2.046 1.396 2.997 2.164a6.622 6.622 0 0 0-.471 3.21m759.953 32.706l-4.91-41.778c1.67-4.111-1.556-9.524-6.053-10.255-1-.254-2.102-.286-3.284-.06-37.861.4-75.71 1.564-113.52 3.484-54.026-.987-108.051 3.07-162.069 5.227a2209.45 2209.45 0 0 0-99.328 4.215 14967 14967 0 0 0-205.489 7.292 15422.32 15422.32 0 0 0-60.799 2.71c-11.566-1.464-23.164-2.724-34.695-4.397-5.174-2.433-10.181-5.207-14.639-8.726-4.017-3.17-7.118-7.264-11.188-10.363-3.729-2.84-6.091-7.245-10.387-9.243-4.859-2.26-9.202-.445-14.196-.328C38.073 1.99 32.978.2 27.481 1.46c-.236-.051-.458-.117-.71-.147-1.584-.197-3.17-.358-4.759-.5-1.257-.261-2.519-.51-3.816-.464-3.385.119-8.062 2.027-9.978 4.939C6.762 7.5 4.479 9.167 4.063 11.964c-.532 3.577 1.99 6.824 4.396 9.182.141.136.297.242.446.36-.851.25-1.633.695-2.343 1.245C3.086 23.77.392 26.72.045 30.453c-.146 1.58.07 2.887.534 4.023.156.948.479 1.875.901 2.762.398.836.878 1.582 1.444 2.313.078.1.176.21.282.32-.098.13-.19.269-.271.43-1.572 3.15-3.271 5.87-1.302 9.337 1.654 2.91 4.636 4.08 7.152 5.945-1.125 1.203-1.568 2.669-1.549 4.216-.508 1.437-.375 3.058.789 4.586l.992 1.302a6.938 6.938 0 0 0 1.761 1.64c4.404 3.684 10.037 5.128 15.625 6.474 3.669.883 7.327 1.47 11.009 1.862 5.5 2.042 11.8 2.22 17.606 2.53 4.391.235 8.807.035 12.988-1.44 3.956-1.396 7.537-3.605 11.544-4.9 8.645-2.794 17.706-3.352 26.695-4.134a307.14 307.14 0 0 0 6.71-.671c62.765 3.983 125.566-1.924 188.345-3.011 6.265-.108 12.531-.16 18.797-.152 24.977 1.41 49.996 2.127 74.999 2.874 36.96 1.105 73.812 1.445 110.718-1.178 7.657-.545 15.319-1.095 22.983-1.486 17.476.799 34.938 2.063 52.421 4.028 20.149 2.265 40.285 4.642 60.56 5.43 20.191.786 40.403.355 60.595-.164 21.619-.556 43.239-1.128 64.858-1.694 1.914.218 3.827.455 5.736.724 2.535.355 5.042-.126 6.859-1.583 2.575-1.251 4.665-3.916 4.331-6.753" mask="url(#d)"/>
            </g>
            <path fill="#E35205" d="M872.874 60.504a3.535 3.535 0 0 0-.706-1.907 42.693 42.693 0 0 0-.57-7.25c-.135-.818-.474-1.418-.929-1.83a111.06 111.06 0 0 0-.27-1.948 2.722 2.722 0 0 0-.616-1.378c-.183-1.457-.566-2.472-2.463-2.826-3.05-.567-6.12-1.047-9.178-1.57-.997-.171-2.304.67-1.845 1.845.116.296.221.59.317.886l.615 2.685c.116.509.391.817.726.97.006.05.006.094.017.145a155.948 155.948 0 0 0 2.114 8.9c.472 5.108-.22 10.362-2.033 15.163-.077.124-.147.25-.226.374a3.342 3.342 0 0 0-.526 1.438c-.217.485-.442.964-.683 1.436-.79 1.55 1.056 2.92 2.356 1.818l.106-.09c.794.463 1.756.688 2.7.539 2.616-.411 5.695.603 7.444-1.942 1.061-1.545 1.423-3.473 2.086-5.252.281-.557.544-1.124.796-1.7.01-.017.017-.034.026-.05l-.004-.002c.121-.277.241-.553.357-.835.4-.966.298-1.826-.1-2.52.518-1.568.624-3.271.49-5.1"/>
            <path fill="#071F2C" d="M770.277 45.887c2.357-4.243 4.131-8.763 5.167-13.511.447-2.044.698-4.097.933-6.173.144-1.275.271-2.725.996-3.837.967-1.483 2.712-2.086 4.286-2.657a195.297 195.297 0 0 1 15.096-4.766c4.903-1.34 11.065-3.737 16.127-2.186 4.952 1.517 8.722 6.655 12.02 10.382 3.198 3.612 6.343 7.298 9.982 10.482 3.048 2.666 6.43 5.002 10.212 6.494 4.502 1.774 9.412 2.117 14.174 2.672l18.6 2.173c2.932.342 5.87.769 8.81 1.029 2.047.18 4.107.04 6.154.223.641.058.637-.943 0-1-1.783-.16-3.575-.058-5.36-.163-2.877-.17-5.763-.641-8.626-.974-5.547-.65-11.094-1.296-16.64-1.944-5.608-.655-11.546-.876-16.846-2.981-4.773-1.896-8.873-5.182-12.484-8.774-3.83-3.808-7.2-8.045-10.917-11.96-2.916-3.072-6.132-6.376-10.53-6.99-4.768-.665-9.954 1.203-14.493 2.43a196.865 196.865 0 0 0-15.106 4.73c-1.738.624-3.7 1.219-4.913 2.708-1.288 1.58-1.4 3.679-1.613 5.622-.712 6.525-2.705 12.73-5.892 18.466-.313.564.55 1.068.863.505"/>
            <path fill="#071F2C" d="M770.862 16.072l9.645 3.701c.6.231.86-.735.266-.965l-9.645-3.7c-.601-.23-.862.735-.266.964"/>
            <path fill="#071F2C" d="M779.41 18.264c.1-1.72-.488-3.33-1.637-4.609-.431-.48-1.136.23-.707.707.98 1.091 1.43 2.443 1.345 3.902-.038.644.962.642 1 0M781.02 19.137a6.157 6.157 0 0 0 .758-3.218c-.026-.64-1.026-.644-1 0a5.13 5.13 0 0 1-.622 2.713c-.307.566.556 1.071.864.505"/>
            <path fill="#071F2C" d="M774.434 32.55c-2.177-.205-5.058.019-7.124-.674-1.97-.661-3.933-5.172-4.438-7.066-.754-2.83 1.285-5.108 2.901-7.22 1.461-1.91 3.128-3.788 5.27-4.95 2.486-1.35 5.207-1.144 7.932-.973 2.607.164 5.215.332 7.822.498l16.623 1.057c.643.04.64-.96 0-1l-21.512-1.368c-2.89-.184-6.02-.73-8.878-.044-2.25.539-4.17 1.9-5.78 3.522-3.096 3.118-6.845 7.267-4.927 11.812a30.621 30.621 0 0 0 1.69 3.356c.454.789 1.314 2.737 2.155 3.224.724.419 2.098.243 2.924.32 1.78.17 3.561.338 5.342.507.641.06.636-.94 0-1M787.934 45.712c5.24-5.645 4.082-14.63 10.171-19.65.497-.41-.214-1.114-.707-.706-6.15 5.07-4.935 14.008-10.17 19.649-.438.47.268 1.18.707.707M769.706 47.338c3.984 2.662 8.757 3.283 13.272 1.649.6-.216.34-1.183-.266-.963-4.292 1.552-8.707.986-12.502-1.55-.536-.358-1.037.508-.504.864"/>
            <path fill="#071F2C" d="M792.109 37.659c2.07-1.622 4.637-2.017 7.04-2.917 1.915-.718 3.66-1.72 5.297-2.944.51-.381.012-1.249-.504-.864-2.22 1.662-4.597 2.747-7.242 3.554-1.93.589-3.695 1.208-5.3 2.464-.504.396.208 1.1.709.707"/>
            <path fill="#071F2C" d="M794.77 35.974c1.943 1.096 1.076 4.477.987 6.24-.108 2.154-.157 4.176-2.179 5.483-2.374 1.531-5.934 2.238-8.663 2.948-4.724 1.23-9.533 1.08-14.375 1.036-.644-.005-.644.995 0 1 3.51.032 7.066.178 10.556-.264 3.265-.416 6.406-1.439 9.515-2.48 3.105-1.042 5.635-2.094 6.022-5.678.276-2.555 1.45-7.567-1.359-9.148-.562-.316-1.066.547-.505.864M759.59 41.83c.283-4.376 3.294-7.522 7.335-8.881.607-.204.347-1.17-.265-.964-4.491 1.509-7.757 5.008-8.07 9.845-.042.643.958.64 1 0M762.053 50.356l-2.034-2.452c-.411-.496-1.115.215-.707.707l2.034 2.452c.41.496 1.115-.215.707-.707M815.699 30.258a90.803 90.803 0 0 1-8.192 2.452c-.624.155-.36 1.12.266.965a90.906 90.906 0 0 0 8.192-2.453c.603-.212.343-1.18-.266-.964"/>
            <path fill="#071F2C" d="M790.78 61.776c2.892-.823 5.755-1.89 6.932-4.9.556-1.425.66-2.997.462-4.502-.266-2.028-2.175-4.522-1.787-6.525.122-.629-.841-.898-.963-.265-.53 2.723 1.69 4.92 1.833 7.646.236 4.54-2.84 6.471-6.743 7.582-.618.176-.355 1.142.266.964M761.3 63.438c7.313 7.732 18.788-.28 27.247-1.217.633-.07.64-1.07 0-1-4.43.49-8.564 2.145-12.82 3.363-4.815 1.38-9.937 2.147-13.72-1.853-.443-.469-1.149.24-.707.707M761.121 50.503c.034 1.494-.86 2.587-1.464 3.877-.521 1.11-.667 2.179-.467 3.39.104.633 1.068.365.964-.266-.435-2.641 2.026-4.41 1.967-7.001-.015-.643-1.015-.646-1 0"/>
            <path fill="#071F2C" d="M768.2 54.557c.8 2.675.938 5.37.392 8.108-.125.63.838.898.964.267.581-2.914.46-5.794-.392-8.64-.184-.616-1.149-.354-.964.265M789.797 53.526c.262 1.311.37 2.622.342 3.957-.015.644.985.644 1 0a19.254 19.254 0 0 0-.378-4.223c-.126-.63-1.09-.363-.964.266M792.464 54.267c.22 1.065.296 2.13.246 3.216-.031.643.969.641 1 0a13.943 13.943 0 0 0-.282-3.482c-.13-.63-1.094-.363-.964.266M764.613 37.232c-1.585 2.777-2.045 5.877-1.349 8.997.141.628 1.105.362.965-.266-.638-2.859-.204-5.682 1.247-8.226.32-.56-.544-1.064-.863-.505M761.969 37.499a7.29 7.29 0 0 0-1.091 4.198c.029.642 1.029.645 1 0a6.321 6.321 0 0 1 .955-3.693c.339-.55-.526-1.052-.864-.505M766.277 66.468c-.23.604-1.232.669-1.55 1.248-.15.275-.149.55-.23.856-.402 1.48-.193 3.748.096 5.249.27 1.405.892 2.675 1.993 3.619.554.473 1.205.657 1.785 1.05.824.56 1.27 1.358 2.026 1.954.501.393 1.213-.31.707-.707-.839-.661-1.309-1.536-2.228-2.11-1.853-1.158-2.966-1.988-3.347-4.39-.249-1.57-.438-4.024.652-5.32.654-.775.687-.207 1.06-1.183.23-.602-.736-.863-.964-.266M776.328 78.409c4.111-.903 8.419-1.53 12.449-2.742 2.699-.812 4.741-3.292 6.583-5.321 1.716-1.891 1.525-3.655.381-5.833-1.226-2.335-3.031-2.86-5.555-3.055-.642-.05-.639.95 0 1 1.765.137 3.394.409 4.406 2.03.896 1.434 1.145 3.269.339 4.861-.429.847-1.682 1.701-2.355 2.373-.726.723-1.415 1.522-2.258 2.113-1.894 1.328-4.7 1.511-6.93 2.001l-7.326 1.608c-.628.139-.362 1.103.266.965"/>
            <path fill="#071F2C" d="M781.358 80.685c.683-1.965 2.135-3.478 4.034-4.307.588-.255.08-1.118-.505-.863-2.139.934-3.73 2.707-4.493 4.903-.212.61.754.871.964.267M770.568 71.755c.296 2.552 1.28 4.829 2.95 6.783.419.49 1.124-.22.708-.707a11.248 11.248 0 0 1-2.658-6.076c-.073-.632-1.074-.64-1 0M768.854 74.934c.242 1.012.953 1.768 1.914 2.137.6.231.86-.736.266-.964-.637-.245-1.06-.786-1.216-1.439-.15-.626-1.113-.36-.964.266M794.207 70.547a41.793 41.793 0 0 0 .529 7.74c.102.635 1.066.366.964-.264a40.421 40.421 0 0 1-.493-7.476c.017-.644-.983-.644-1 0M796.206 58.212c2.653 6.298 1.312 14.498 7.321 19.047.513.389 1.012-.48.505-.863-5.657-4.283-4.362-12.516-6.862-18.45-.246-.584-1.214-.327-.964.266"/>
            <path fill="#071F2C" d="M796.796 57.393a80.117 80.117 0 0 1 6.159 13.771c.205.606 1.172.346.964-.266a81.457 81.457 0 0 0-6.26-14.009c-.317-.56-1.181-.058-.863.504M807.531 63.35c3.571 1.808 7.354 2.87 11.352 3.11.643.037.64-.963 0-1-3.83-.23-7.426-1.242-10.848-2.973-.572-.29-1.079.572-.504.863M797.315 54.05a27.7 27.7 0 0 0 4.898 5.659c.481.425 1.191-.28.707-.707a26.683 26.683 0 0 1-4.74-5.456c-.352-.537-1.218-.037-.865.505M761.447 51.141c2.832 1.222 6.05 1.387 9.094 1.54.643.032.64-.968 0-1-2.856-.144-5.928-.256-8.59-1.403-.584-.252-1.094.608-.504.863M823.873 11.996a28.125 28.125 0 0 0-7.584-5.257c-.579-.273-1.087.588-.504.863a27.346 27.346 0 0 1 7.38 5.1c.463.449 1.171-.258.708-.706M823.87 2.648a13.384 13.384 0 0 0-3.915-1.632c-.625-.15-.892.814-.265.964 1.312.316 2.527.822 3.675 1.531.549.34 1.052-.525.505-.863M792.224 72.418a17.598 17.598 0 0 0-1.748 6.79c-.033.644.967.642 1 0a16.267 16.267 0 0 1 1.612-6.285c.279-.577-.584-1.085-.864-.505M789.925 85.313c12.565 2.821 26.24 5.664 38.34-.353.578-.287.072-1.149-.503-.863-11.837 5.886-25.298 3.007-37.571.251-.627-.14-.894.823-.266.965M772.583 81.582c4.102 1.505 8.043 3.486 12.52 2.852.634-.091.364-1.054-.266-.965-4.25.603-8.114-1.43-11.988-2.851-.605-.223-.866.744-.266.964M788.866 66.209l.212 4.9c.028.643 1.028.646 1 0-.07-1.632-.14-3.266-.212-4.9-.027-.642-1.028-.645-1 0M787.13 66.21a14.183 14.183 0 0 0 .424 4.825c.164.622 1.13.359.965-.265a13.37 13.37 0 0 1-.39-4.56c.054-.641-.946-.637-1 0M780.212 22.53a69.558 69.558 0 0 0 3.91 1.983c1.234.575 2.925.99 3.599 2.276.299.57 1.162.065.864-.505-.626-1.196-1.781-1.652-2.96-2.18a69.138 69.138 0 0 1-4.91-2.438c-.564-.308-1.07.555-.503.864M778.549 23.826c.653.26 1.209.666 1.685 1.181.438.473 1.144-.236.707-.707a5.708 5.708 0 0 0-2.126-1.438c-.598-.238-.857.729-.266.964M778.129 26.365c.77.282 1.499.646 2.194 1.084.547.344 1.049-.522.505-.863a12.883 12.883 0 0 0-2.433-1.186c-.605-.222-.866.744-.266.965M844.447 68.234a145.31 145.31 0 0 1-.644 5.3c-.088.628.875.9.965.264.26-1.85.487-3.705.68-5.564.065-.64-.936-.635-1 0M845.15 53.209c.016 3.194-.07 6.383-.258 9.57-.037.644.963.642 1 0 .188-3.187.274-6.376.257-9.57-.003-.643-1.003-.645-1 0M849.13 62.599a39.545 39.545 0 0 1-1.851 9.6c-.2.615.767.877.964.266a40.649 40.649 0 0 0 1.887-9.867c.043-.642-.958-.64-1 0M981.418 78.494c73.018-1.107 146.033-3.778 219.068-2.632 18.365.288 36.696 1.03 55.065.62 17.977-.4 35.886-.883 53.851.213 35.913 2.191 71.65 6.981 107.647 7.82 40.975.957 81.986-2.475 122.923.488.642.047.64-.953 0-1-36.508-2.642-73.085-.209-109.63-.32-36.074-.109-71.836-4.34-107.758-7.078a548.278 548.278 0 0 0-54.987-1.417c-17.999.433-35.898.325-53.894-.076-36.15-.805-72.317-.596-108.47-.022-41.274.654-82.54 1.778-123.815 2.404-.643.01-.645 1.01 0 1"/>
            <path fill="#071F2C" d="M828.266 84.96c7.514-4.632 16.251-5.913 24.927-6.308a319.879 319.879 0 0 1 27.3-.083c19.871.796 39.665 1.175 59.554.879 11.19-.166 22.377-.424 33.564-.73.642-.018.644-1.02 0-1-20.36.557-40.735 1.039-61.103.872-19.519-.16-38.973-1.752-58.499-.973-9.112.365-18.347 1.61-26.247 6.48-.547.338-.046 1.203.504.864M826.012 81.355c-2.068-2.31-5.187-3.584-7.542-5.604-2.604-2.233-4.802-4.84-6.644-7.733-.344-.54-1.21-.04-.863.505 1.736 2.727 3.771 5.221 6.177 7.388 2.5 2.252 5.952 3.678 8.164 6.151.431.48 1.136-.228.708-.707M812.774 86.068a7.707 7.707 0 0 0 .925-3.66c0-.644-1-.645-1 0a6.592 6.592 0 0 1-.79 3.155c-.302.567.56 1.073.865.505M822.63 109.22a196.876 196.876 0 0 1-14.496 9.548c-.552.329-.049 1.194.505.863a197.089 197.089 0 0 0 14.495-9.548c.516-.374.018-1.241-.505-.863M819.306 102.883c-3.224 3.6-7.191 6.242-11.767 7.8-.606.207-.345 1.173.266.965 4.739-1.615 8.868-4.328 12.208-8.058.428-.478-.276-1.188-.707-.707M914.663 45.508c80.316-2.387 160.589-5.991 240.855-9.646 40.09-1.827 80.177-3.838 120.284-5.256 40.004-1.414 80.025-2.221 120.04-3.13 44.936-1.022 89.874-2.182 134.767-4.452.64-.034.645-1.034 0-1-79.983 4.046-160.082 4.535-240.116 7.088-80.243 2.56-160.429 7.05-240.64 10.435-45.054 1.9-90.116 3.62-135.19 4.96-.643.02-.646 1.02 0 1M892.834 46.212c5.024-.152 10.048-.313 15.072-.48.642-.02.645-1.02 0-1-5.024.167-10.048.328-15.072.48-.642.02-.645 1.02 0 1M774.882 35.604c3.09.474 5.804 2.05 7.681 4.561.38.51 1.25.011.863-.505-2.032-2.719-4.914-4.504-8.278-5.02-.63-.098-.9.866-.266.964M781.848 41.159l-1.253 1.998c-.344.547.521 1.049.863.505l1.253-1.998c.344-.547-.52-1.049-.863-.505M770.702 44.483c.98 1.46 2.546 2.322 4.308 2.346.644.008.644-.992 0-1a4.171 4.171 0 0 1-3.445-1.85c-.357-.532-1.223-.032-.863.504M800.88 41.789a22.513 22.513 0 0 0 4.271 1.849c.615.194.878-.772.265-.964a21.345 21.345 0 0 1-4.03-1.748c-.563-.316-1.068.548-.506.863M891.68 60.57h4.1c.642 0 .643-1 0-1h-4.1c-.644 0-.645 1 0 1M916.27 57.839c.644 0 .645-1 0-1-.644 0-.645 1 0 1M1027.952 69.776c16.003-.128 32.006.09 48 .652.643.023.643-.977 0-1-15.994-.562-31.997-.78-48-.652-.643.005-.645 1.005 0 1M1064.957 65.292l15-1c.638-.043.643-1.043 0-1l-15 1c-.64.042-.645 1.043 0 1M1432.956 37.292a341.445 341.445 0 0 1-39 2c-.644-.004-.644.996 0 1 13.031.078 26.046-.59 39-2 .633-.07.64-1.07 0-1M1389.956 49.292h-11c-.644 0-.645 1 0 1h11c.644 0 .645-1 0-1"/>
            <path fill="#071F2C" d="M868.846 77.56c2.598-4.73 4.124-9.95 4.312-15.355.212-6.082-1.498-11.914-3.292-17.658-.192-.612-1.158-.35-.965.266 1.68 5.38 3.325 10.845 3.276 16.536-.048 5.525-1.541 10.874-4.194 15.705-.31.565.553 1.07.863.505M856.927 76.98c2.126-5.624 3.653-11.549 3.567-17.6-.087-6.063-2.638-11.392-3.813-17.238-.127-.63-1.09-.363-.964.267 1.16 5.765 3.685 10.983 3.777 16.971.091 5.964-1.436 11.793-3.53 17.333-.229.603.737.864.963.266"/>
        </g>
    </g>
</svg>
