<svg xmlns="http://www.w3.org/2000/svg" viewBox="0 0 743.84 318.91"><defs><style>.cls-1{fill:#e0e0e0;}.cls-2{fill:#fff;}.cls-3{fill:#f2f2f2;}.cls-4{fill:#cecece;}.cls-5{fill:#e35205;}.cls-6{fill:#d1ccb2;}.cls-7{fill:#847b5f;}.cls-8{fill:#efebd3;}.cls-9{fill:#081f2c;}</style></defs><title>paperwork</title><g id="Layer_2" data-name="Layer 2"><g id="Layer_1-2" data-name="Layer 1"><path class="cls-1" d="M421.93,181.06q-19.45.23-38.9.46c-12.76.17-25.74,2-38.44.34a1.55,1.55,0,0,0-1.54.58,2.07,2.07,0,0,0-1.51,3.44c2.2,2.35,1.78,5.81,3,8.61a13.66,13.66,0,0,0,4,5c4.89,4.1,10.82,7.23,16.27,10.53q3.87,2.35,7.81,4.5a101.74,101.74,0,0,0,10.22,8c5.59,3.61,12,5.55,18,8.46,6.41,3.14,12.34,7.35,18.36,11.17,2,1.27,3.86-1.55,2.45-3.08a2,2,0,0,0,.07-.7c-.1-1.21-.27-2.65-.36-4.12.91-2,1.69-4.38,1.31-6.14a2,2,0,0,0-.29-3.17l-.26-.14a138.71,138.71,0,0,0,.27-23.77l.33-6c0-.76.09-1.52.12-2.26a1.86,1.86,0,0,0-.26-1.08v0a1.9,1.9,0,0,0,.15-.47l.88-5.09a2.09,2.09,0,0,0-.32-1.49C424.37,183.46,423.94,181,421.93,181.06Z"/><path class="cls-2" d="M414.67,197.83a104.52,104.52,0,0,1-7.62-12.19c-.76-1.43-2.94-.16-2.18,1.27a104.49,104.49,0,0,0,7.62,12.19C413.44,200.4,415.63,199.15,414.67,197.83Z"/><path class="cls-2" d="M419,194.47q-3-3.78-5.65-7.77c-.9-1.34-3.09-.08-2.18,1.27q2.87,4.25,6,8.28C418.17,197.53,419.95,195.74,419,194.47Z"/><path class="cls-3" d="M423.73,162.64c.31-3.11,3.12-6.8,2-9.81a2.78,2.78,0,0,0-.19-.38,2.3,2.3,0,0,0-2.4-2.26q-20.86.21-41.72.12c-10.93,0-22.05-.73-32.93.63a2.9,2.9,0,0,0-1,0,37.16,37.16,0,0,0-4.81,1,2.45,2.45,0,0,0-1.31.82l-.4.12a3.47,3.47,0,0,0-2.71,1.12,2.21,2.21,0,0,0-.31,3.05,2.92,2.92,0,0,0-.09.71q0,2.74.12,5.47c-.72,5.15-.8,11.18.57,16.15a2,2,0,0,0,1.12,2.75l.19.08a2.86,2.86,0,0,0,2.17.14,2.61,2.61,0,0,0,.32,0c18.51-1.31,37.09-1,55.66-1.27a2.63,2.63,0,0,0,3.87-.05c6.78-.11,13.55-.3,20.32-.67a2.62,2.62,0,0,0,1.63-4.47C423.87,171.45,423.3,167,423.73,162.64Z"/><path class="cls-4" d="M420.92,149l-.68-.23a1,1,0,0,0-.66-1.07,48.31,48.31,0,0,1-6-2.75,23.14,23.14,0,0,0-6-3.86,1.23,1.23,0,0,0-.44-.1v-.1c.08-.8-.88-1.15-1.49-.88h0a1,1,0,0,0-1,1l-.23,2.3a.83.83,0,0,0,.5.84.82.82,0,0,0,.15.35l.1.13c-.48.08-1,.12-1.44.17-16.32-.91-32.78-.07-49.1.21a.93.93,0,0,0-.67.28l.1-.19a1.07,1.07,0,0,0,.13-.14,2.13,2.13,0,0,0,.32-.73l.08-.18a1,1,0,0,0,0-.18h0a1.55,1.55,0,0,0,.45-.46,1.21,1.21,0,0,0-.05-1.32,1.17,1.17,0,0,0-2,.07,1,1,0,0,0-.12.48,1.4,1.4,0,0,0-.25.38l-.37.24,0,0L345,148.09a1,1,0,0,0-.38,1.19l-.54,0a.94.94,0,0,0-.68.3l-1.09.26c-1.25.3-.72,2.23.53,1.93l2.14-.52c10.32-.28,20.95-1.25,31.21-.22,5.72.57,11.4.11,17.08-.25a118,118,0,0,0,13.91-.05l.35,0a.91.91,0,0,0,.45-.06,83.76,83.76,0,0,1,12.65.23C421.82,151.08,421.95,149.32,420.92,149Z"/><path class="cls-5" d="M363.47,165.16l-.81-.14a1.86,1.86,0,0,0-1,.1h0a1.53,1.53,0,0,0-1.5,1.5,1.52,1.52,0,0,0,1.5,1.5,9.08,9.08,0,0,1,1.44,0,1.5,1.5,0,0,0,.4-2.95Z"/><path class="cls-5" d="M353,166.32l-.13-.07-.07-.07a4.32,4.32,0,0,1-.32-.35,1.35,1.35,0,0,0-1.28-.41,1.82,1.82,0,0,0-1.77.12,1.52,1.52,0,0,0-.3,2.36,3.39,3.39,0,0,0,2.26.95l.1.07a1.5,1.5,0,1,0,1.51-2.59Z"/><path class="cls-5" d="M406.49,165.92a1.52,1.52,0,0,0-1.5-1.5c-4.7.26-10,0-14.64,1.06a1.5,1.5,0,0,0-2.46,1.12v.53a1.41,1.41,0,0,0,.38.92,1.35,1.35,0,0,0,1.61.64h0l.27,0c4.79-1.21,10.35,1.54,15.16.18a1.49,1.49,0,0,0,1-1A6.75,6.75,0,0,0,406.49,165.92Z"/><path class="cls-6" d="M270.6,235.73c-2.1-3.92-1.89-8.23-1.88-12.54q0-5.06,0-10.11a1.65,1.65,0,0,0,.28-.69c0-.18,0-.35.07-.53h0v0a31.72,31.72,0,0,0,.37-4.08,1.79,1.79,0,0,0-.11-.65c0-.07,0-.14,0-.21a.83.83,0,0,0,.09-.22,1,1,0,0,0-.37-1.68l-.27,0h0a7.09,7.09,0,0,0-1.29-.08,7.44,7.44,0,0,0-5.37.91c-2.7.81-5.26,2.06-7.94,2.83a5.24,5.24,0,0,0-3.44.63,2.07,2.07,0,0,0-1.85,2.63,2.4,2.4,0,0,0-.14.57c-.18,1.72-.26,3.43-.29,5.14a1.91,1.91,0,0,0-.37,1.16,112,112,0,0,1-.71,12.18,1.56,1.56,0,0,0,.43,1.3,2,2,0,0,0,0,.39l-.07,2.71a2,2,0,0,0,2,2c6.37.68,12.73,1.17,19.13,1.42A2,2,0,0,0,270.6,235.73Z"/><path class="cls-7" d="M285.38,184a35,35,0,0,0-.67-5.43,1.81,1.81,0,0,0-.1-.31,2,2,0,0,0-2-3.26A57.1,57.1,0,0,1,270,176.8a2,2,0,0,0-1.25,3.46c.81,3.25.23,6.23.54,9.52a21.42,21.42,0,0,0,2.45,7.25l-.52,4.37a1.71,1.71,0,0,0-.14.45l-.19,1.19a1.92,1.92,0,0,0-.34.82c-.26,1.41-.44,2.81-.6,4.21v.07a2,2,0,0,0-.22.63q-.2,1.26-.37,2.5c-2.94,8-.45,17.15,1,25.32a2,2,0,0,0,2.46,1.4c2.32-.81,4.92-.31,7.34-.68a2,2,0,0,0,1.47-1.93c0-2.55,0-5.08.1-7.63a2.24,2.24,0,0,0,0-.49c0-.3,0-.59,0-.89a2.11,2.11,0,0,0,.15-.73l.05-2.24q.1-1.55.16-3.11a1.58,1.58,0,0,0,.29-.72c0-.18,0-.35.07-.53h0l0-.17a89,89,0,0,0,.84-12.87,59.21,59.21,0,0,0,.78-8,2,2,0,0,0,.46-1.76,7.5,7.5,0,0,1-.2-1.31,2.19,2.19,0,0,0,0-.26c0-2.83.84-5.59,1-8.42,0-.07,0-.13,0-.2a1.63,1.63,0,0,0,.16-.88C285.49,184.76,285.43,184.36,285.38,184Z"/><path class="cls-6" d="M387.41,98.29l-.47-3.15a1.51,1.51,0,0,0-1.45-1.9c-13.09,1.1-26.15.37-39.25,2a1.62,1.62,0,0,0-.61.21l-3.74-.06a1.54,1.54,0,0,0-.49.07l-.65-.06c-1.25-.14-1.71,1.35-1.3,2.26q1,2.11,1.8,4.27a1.75,1.75,0,0,0,0,.33,36.05,36.05,0,0,1-.22,15.48,1.45,1.45,0,0,0,.23,1.21,12.79,12.79,0,0,0-.28,9.33l1.43,15.08c-.23,1.23-.49,2.46-.79,3.68a1.54,1.54,0,0,0,0,.59.85.85,0,0,0-.28.34l-.17.36a1.25,1.25,0,0,0,1.56,1.62c2.53-2.17,5.86-3.15,8.11-5.68a1,1,0,0,0,.24-.54,19.7,19.7,0,0,1,3.21-1.81,1.75,1.75,0,0,0,.49-2.88,13.8,13.8,0,0,0,.53-2.93,89.52,89.52,0,0,0,0-18.18,2.48,2.48,0,0,0-.16-.61c0-.55,0-1.09.06-1.64s.07-1,.07-1.53.07-1,.11-1.53c0-.25,0-.5.05-.71a1.44,1.44,0,0,0-2.43-1.08c-.39-.06-.81-.08-1.24-.12a1.31,1.31,0,0,0-.67.12,25.78,25.78,0,0,0-2.73-.16c-.09-.82-.2-1.64-.33-2.46a1.53,1.53,0,0,0,.85-1.48c.82-.12,1.59-.29,2-.39,1.27-.28,3.38-.3,4.21-1.52a5.15,5.15,0,0,0,.52-2.93c10.17.21,20.23-2.14,30.43-1.36A1.51,1.51,0,0,0,387.41,98.29Z"/><path class="cls-8" d="M495,221.93a82.27,82.27,0,0,0,.62-10.34,1.47,1.47,0,0,0-.3-.92,1.42,1.42,0,0,0,0-.18,39.59,39.59,0,0,0-.46-8.94,1.25,1.25,0,0,0-.45-.82,15.89,15.89,0,0,0-.12-3.16,1.52,1.52,0,0,0-1.5-1.5l-11,.67-.17,0a28.06,28.06,0,0,0-4.68.3l-4.29.27a81.19,81.19,0,0,0-14.07,0c-3.82.32-8.48.24-12,2.08l-5.9,0a1.51,1.51,0,0,0-.4,2.95h0a1.37,1.37,0,0,0,0,.45l1.35,13.56a1.52,1.52,0,0,0,.41.91c-.31,3.68-.56,7.37-.71,11.06q-.3,1.79-.45,3.58-.18,1.53-.31,3.06a2.2,2.2,0,0,0-.87,1.94c.07,2.09.3,4.36.48,6.67q-.19,1.09-.3,2.16a2.7,2.7,0,0,0-.1.72c0,.09,0,.18,0,.27a28.05,28.05,0,0,0,0,4,2.63,2.63,0,0,0,.36,1.18c-.06.39-.11.79-.19,1.17a2.53,2.53,0,0,0,3.08,3.08,21,21,0,0,1,2.13-.42c10.17,1.17,20.26.36,30.42,1.21,4.73.4,9.83.69,14.5-.34,4.31-1,3.58-3.72,3.1-7.59a2.69,2.69,0,0,0-.24-.8l1.7-16.46c.29-2.78.88-5.69.56-8.47A10.23,10.23,0,0,0,495,221.93Zm-26.82-13c5.46-.32,12.51-2,17.52.41-.09.62-.19,1.24-.33,1.85a120.31,120.31,0,0,1-15.52,1.69c-6,.3-12.3,1-18-1.25a1.35,1.35,0,0,0-.57-.11,10.1,10.1,0,0,0-.19-1.07C456.75,209.28,462.57,209.27,468.23,208.94Z"/><path class="cls-3" d="M712.1,231.23a49.24,49.24,0,0,0-8.07,1.09,3.11,3.11,0,0,0-2.41-.62h-.19l-12.74,1.11a6.44,6.44,0,0,0-4.85-1.38q-13,1.09-25.94,2.15a2.67,2.67,0,0,0-1.81-.48l-5.38.34a3,3,0,0,0-1-.09l-8.89.69q-46.91,2.7-93.92,2.88a3.37,3.37,0,0,0-.55.05c-16.42-.13-32.85.36-49.27.73a3,3,0,0,0-2.83,3.7,3.32,3.32,0,0,0-.07.37L493,254.45c-17.36.79-34.64,3.35-52,2a3.05,3.05,0,0,0-.84.05A50.89,50.89,0,0,0,439.4,245a.59.59,0,0,0,0-.23c2-2,.24-5.87-2.87-5a23.47,23.47,0,0,1-7.08.87c-1.26,0-2.42-.23-3.59-.23a3.22,3.22,0,0,0-4.86,3.25q.26,1.52.5,3a2.77,2.77,0,0,0-.75,1.87,65.36,65.36,0,0,0,1.43,13.72c-3.41.06-6.83.25-10.24.5q-10.79.8-21.58,1.39-14.65.12-29.29.94h-1q-4.56-.19-9.14-.12l-4.26-.06a3,3,0,0,0-.54.06,2.39,2.39,0,0,0-1.85-1.14c-.23,0-1.11-5.42-1.84-10.1,0-1.26-.09-2.52-.19-3.77a3.2,3.2,0,0,0,0-.63L342,248a3.34,3.34,0,0,0-.17-.71c.74-1.84-.12-4.27-2.61-4.06a243.08,243.08,0,0,1-31.34.72c-9-.39-17.9-1.72-26.8-.38v-.52l.23-1.08a3.2,3.2,0,0,0,0-1.07l.05-.11c.87-2.19-1.67-4.26-3.69-3.69a50.24,50.24,0,0,1-12.68,1.65h-.37c-3-.34-5.94-.78-8.62-.85-7.85-.21-15.71.29-23.55.63l-30.6,1.36q-56.66-.91-113.32-.28A383,383,0,0,0,44.75,238q-10.39-.9-20.83-1a3,3,0,0,0-1.18.22,38.1,38.1,0,0,0-11-1.43c-3.86.05-3.87,6.05,0,6,9.15-.13,15.16,3.67,22.5,8.49a21.42,21.42,0,0,0,3.65,1.92,6.69,6.69,0,0,0,2.29.8c4.42,1.29,9.06,1.28,14,1.48a409.62,409.62,0,0,1,52.13,6c26.07,4.43,35.72,1.42,61,9.46,2.25,1,21.14,8.66,22.94,10.36,3.75,3.54,10.65.51,15.32,3,9.86,5.29,18.18,1.67,29,4.2l26.16,6.18q6.05,2.71,12.17,5.26c19.58,8.13,40.19,6.28,60.84,10.45,21.54,4.35,42,10.32,64.24,9.52,15.44-.55,30.67-3.14,45.74-6.48l3.16-.32c21.35-2.31,44.48-4.75,61.38-19.23,13.87-11.88,22.31-11.14,37.5-21.63a84,84,0,0,1,18.69-9.55c21.14-4.33,43-5.18,64.52-6.59,14.45-.95,28.93-2.17,43.17-4.86,6.8-1.28,13.94-2.57,20.24-5.51,2.78-1.3,5.11-3.21,7.75-4.72,3.73-2.14,7.85-2.45,12.07-2.72C715.93,237,716,231,712.1,231.23Z"/><path class="cls-9" d="M362.61,164.52a.45.45,0,0,0-.25.17c-1.14,0-2.32.27-2.66,1.53-.4,1.46,1.07,2.1,2.28,2.13s2.63-.62,2.66-2A1.74,1.74,0,0,0,362.61,164.52Zm1,2.13c-.28.63-1.18.75-1.79.69s-1.57-.48-.91-1.26,1.59-.43,2.31-.35a.42.42,0,0,0,.25,0A1,1,0,0,1,363.56,166.65Z"/><path class="cls-9" d="M352.57,165.5a.52.52,0,0,0-.41-.78c-1.36-.08-3.12,0-3.6,1.6s.87,2.21,2.06,2.45,3.12.53,3.46-.95C354.35,166.65,353.51,165.94,352.57,165.5Zm.49,2.23c-.32.53-2.06.12-2.46,0-.74-.19-1.52-.72-.86-1.52a1.86,1.86,0,0,1,1.48-.54.49.49,0,0,0,.34.49C352.1,166.34,353.57,166.86,353.06,167.72Z"/><path class="cls-9" d="M344.83,265.1q37.46-.11,74.87-2.16c.64,0,.64-1,0-1q-5.64.31-11.28.57a11.78,11.78,0,0,1,2.77-1.2c.6-.17,1.41-.19,1.89-.67s.64-1.93.63-2.92a5.82,5.82,0,0,0,2.74-.14.5.5,0,0,0-.27-1,4.9,4.9,0,0,1-2.84,0,.51.51,0,0,0-.63.48c0,.38,0,1.1,0,1.67h0c-.59-1.07-1.35-3.6-2.68-3.92a7.49,7.49,0,0,0-2.31.23l-3.72.45a.51.51,0,0,0-.25.11,6.93,6.93,0,0,0-.59-1.43c-.79-1.32-2.85-.42-4-.21h0l-.47-.9c-.52-1-.85-2.19-2-2.5s-5.51.63-6,2c-.52,1.64,2.32,2.76-.27,4.48a9.62,9.62,0,0,1-2.16.67,3.94,3.94,0,0,1-4.37-1,1.17,1.17,0,0,0-.32-.47c-2.45-.8-5.77.16-8.45.14a.49.49,0,0,0-.22,0q-.11-.95-.27-1.9a.5.5,0,0,0-.61-.35L369.49,256c-1.51.56-1.79.86-3.6,0-.23-.11-.37-.41-.61-.5a2.8,2.8,0,0,0-1.64-.39c-1,.12-2.15,1.58-3,1.31s-1.43-2.69-1.92-3.46a2.58,2.58,0,0,0-1.29-1.18c-1.89-.7-5.07.47-7,.78-.63.1-.36,1.06.27,1l4.29-.68c2.53-.38,3.19,1.31,4.15,3.2.45.89.74,1.71,1.86,1.54a4.67,4.67,0,0,0,1-.56,4.14,4.14,0,0,1,3.09-.31c.53.19.82.73,1.42.89a5.38,5.38,0,0,0,3.15-.63l3.93-1.48a32.05,32.05,0,0,1,.33,6.64c0,.64,1,.64,1,0a33,33,0,0,0-.09-4.63.47.47,0,0,0,.14,0c2.05,0,4.28-.48,6.3-.35s1.48.76,2.67,1.57c1.93,1.32,5.44,0,7.31-.86.79-.38,1-.55,1.13-1.44s-.94-2.43-.75-3.09,2.07-1.32,2.73-1.37a3.28,3.28,0,0,1,3.26,1.66,43.88,43.88,0,0,1,2.93,5.59c.3.57,1.16.06.86-.5l-2-3.78a9.23,9.23,0,0,1,1.78-.31l1,.22.17.47a5.84,5.84,0,0,1,.43,1.18l1.46,4c.22.6,1.19.34,1-.27l-1.2-3.29c0-.12-.09-.26-.13-.39l4.62-.56c1.14-.14,1.38.2,2,1.16.45.68.8,1.44,1.19,2.15a.47.47,0,0,0,.76.1.87.87,0,0,1,0,.12c-.42.74-1.19.73-1.88.94a12.88,12.88,0,0,0-2.74,1.23.5.5,0,0,0,.05.88q-31.54,1.47-63.13,1.57A.5.5,0,0,0,344.83,265.1Z"/><path class="cls-9" d="M365.59,109.88q9.08-.31,18.13-1c.64,0,.64-1.05,0-1q-9.06.71-18.13,1C364.95,108.9,364.94,109.9,365.59,109.88Z"/><path class="cls-9" d="M364.28,115.22l8.41-.56c.64,0,.64-1,0-1l-8.41.56C363.64,114.26,363.63,115.26,364.28,115.22Z"/><path class="cls-9" d="M364,120.94l7.1-.26c.64,0,.64-1,0-1l-7.1.26C363.37,120,363.37,121,364,120.94Z"/><path class="cls-9" d="M363,123.93l26.27-1.67c.64,0,.64-1,0-1L363,122.93C362.33,123,362.32,124,363,123.93Z"/><path class="cls-9" d="M362.7,128l34.17-2.33c.64,0,.64-1,0-1L362.7,127C362.06,127.07,362.05,128.07,362.7,128Z"/><path class="cls-9" d="M360.07,132.53q17.81-2.3,35.74-3.4c.64,0,.64-1,0-1q-17.92,1.09-35.74,3.4C359.44,131.61,359.43,132.61,360.07,132.53Z"/><path class="cls-9" d="M384.24,133c.63-.07.64-1.08,0-1l-19.68,2.33c-.63.07-.64,1.08,0,1Z"/><path class="cls-9" d="M392.65,134.27l-29.72,3.31c-.63.07-.64,1.07,0,1l29.72-3.31C393.28,135.2,393.29,134.2,392.65,134.27Z"/><path class="cls-9" d="M396.35,137.72q-15.91,1-31.8,2.28c-.64.05-.64,1.05,0,1q15.89-1.3,31.8-2.28C397,138.68,397,137.68,396.35,137.72Z"/><path class="cls-9" d="M440.48,200.13c-.15-.62-1.12-.36-1,.27a56.66,56.66,0,0,1,1.35,8.3.47.47,0,0,0-.14,0q-8.68.15-17.35.78l-.09,0q0-2.61,0-5.23h0c5.07-.69,10.27-.86,15.38-1.17.64,0,.64-1,0-1-5.11.31-10.31.5-15.39,1.18q0-1.82,0-3.65a.45.45,0,0,0,.24,0,92.36,92.36,0,0,1,10.87-.54c2.19.06,4.34.32,6.51.29-.12.31,0,.7.43.65q11.3-1.32,22.65-2.15a.46.46,0,0,0,.42,0h0q14.3-1.05,28.65-1.35a.5.5,0,0,0,0-1l-2.22.06a.46.46,0,0,0,0-.22c-.23-1.91.23-5.73-1.78-6.81-2.27-1.21-5.14.76-6-2.65-.22-.92.14-1.84-.68-2.57-1.47-1.31-4.32.23-5.36,1.42a2.07,2.07,0,0,0-.47,2.31c-4.27.34-8.55.48-12.81.85a15.94,15.94,0,0,0-4,.55c-1.32.5-.71,1-1.34,2.14a.46.46,0,0,0-.05.34q-2.66,0-5.32-.17l-.7-20.26c-.24-6.79-.74-13.71.39-20.45.46-2.75,1.78-5.46,2-8.22.26-2.94-1.77-5.43-2.1-8.33a79.34,79.34,0,0,1-.45-9.84.52.52,0,0,0,0-.89c0-1,.06-2,.11-3a.54.54,0,0,0,0-.69c.12-2.11.3-4.21.52-6.3.07-.64-.93-.63-1,0q-.13,1.19-.23,2.38a.49.49,0,0,0-.4-.08,48.87,48.87,0,0,1-12,1c-3.63-.18-7.19-1-10.82-1.14-7.13-.32-14.19,1.19-21.32.76a.51.51,0,0,0-.21-.06l-1.33-.07a.45.45,0,0,0-.27.07,26.85,26.85,0,0,1,.29-2.75c3.36.14,6.57.76,9.6-.86,4.2-2.24,9.16-1,13.61,0,3.46.77,6.93,2.38,10.52,1.7,2.11-.4,4.12-1.13,6.25-1.46a36.19,36.19,0,0,1,7.49-.31c.64,0,.64-1,0-1a39.35,39.35,0,0,0-12.33,1.37c-4.69,1.23-8.88-.75-13.48-1.65-3.22-.63-7.22-1.63-10.44-.6-1.81.58-3.08,1.95-5.08,2s-4-.14-6-.22a17.62,17.62,0,0,1,1.33-4,.5.5,0,0,0,0-.11v0a.49.49,0,0,0,0-.09.48.48,0,0,0-.34-.52c-4.69-1.49-6.12-7.48-11.2-8.34a.51.51,0,0,0-.54.25l-7.47.49a.52.52,0,0,0,.09-.58,8.13,8.13,0,0,1-.57-4.91s0,0,0,0a.5.5,0,0,0,0-1q-3,0-6,.08a.45.45,0,0,0,.08-.27l0-1.81a.51.51,0,0,0-.5-.5,53.37,53.37,0,0,1-10.39-.71,23.09,23.09,0,0,0-5.81.06.51.51,0,0,0,0-.23c-.22-1-.2-2.41-1.36-2.74a3.19,3.19,0,0,0-1.59.26c-1.33.38-2.64.77-4,1.08a55.8,55.8,0,0,1-16.29,1.24.41.41,0,0,0-.4.2c0-.16.05-.31.07-.47a15.5,15.5,0,0,0-.42-4.32,13.92,13.92,0,0,1-.47-5.4c.33-1.63,1.56-2.77,2-4.34.34-1.26-.16-2.4-.33-3.64-.26-1.88.44-3.64.53-5.5a6.17,6.17,0,0,0-1-3.82,10.72,10.72,0,0,1-.91-1.71.51.51,0,0,0-.11-.31,4.69,4.69,0,0,1-.22-1.7c0-.79.25-1.56.28-2.36.16-4.13-2.52-8.33-.63-12.33.27-.58-.59-1.09-.86-.5-1.18,2.49-.81,5-.26,7.61a21.63,21.63,0,0,1,.75,5.22c0,1.35-.47,2.63-.25,3.93q-20.33.91-40.69.61a.5.5,0,0,0,0,1q20.51.31,41-.62c.64,1.45,1.82,2.46,2,4.19a9,9,0,0,1-.22,2.45l-.1,0Q310.25,69,279.53,68.9a.46.46,0,0,0-.36.15q.17-3.33.57-6.65h.1a59.26,59.26,0,0,1,15.45,0c.64.08.63-.92,0-1a59.27,59.27,0,0,0-15.43,0c.29-2.32.66-4.64,1.11-6.94.14-.72.28-1.42.41-2.11h.06c9.55.2,19.09.62,28.61,1.44s18.62-.58,28-1.66c.63-.07.64-1.07,0-1-9.36,1.08-18.54,2.47-28,1.66s-19-1.24-28.49-1.44a56.47,56.47,0,0,0,.78-5.77c17.77.79,35.75,2.16,53.39-.86.63-.11.36-1.07-.27-1-17.52,3-35.41,1.62-53.06.83,0-.63,0-1.28,0-1.93q25.83.15,51.61-1.62c.64,0,.64-1,0-1q-25.77,1.77-51.62,1.62c0-.07,0-.14,0-.21,0-.64-1-.64-1,0,.2,5.23-1,9.94-1.85,15.05a105.87,105.87,0,0,0-1.46,13.71,107.1,107.1,0,0,0,2.75,28.66c.15.63,1.11.36,1-.27-.25-1.07-.48-2.14-.69-3.22a109.2,109.2,0,0,1,16.13.19,126.24,126.24,0,0,0,16.09-.1c.64,0,.64-1,0-1a126.24,126.24,0,0,1-16.09.1,109.12,109.12,0,0,0-16.15-.19.51.51,0,0,0-.17.05c-.43-2.24-.8-4.49-1.08-6.75q13.28-.33,26.55.5c.64,0,.64-1,0-1q-13.27-.83-26.57-.5l-.08,0a104.66,104.66,0,0,1-.62-17,.45.45,0,0,0,.39.2q30.66.09,61.31-1.23a9.77,9.77,0,0,0-.23,2.18c.06,1.83.92,3.36,0,5.14A11,11,0,0,0,339,79.44a15,15,0,0,0,.5,5.6,274.61,274.61,0,0,0-29.61,1.7c-.63.07-.64,1.07,0,1A274.57,274.57,0,0,1,339.7,86a11.71,11.71,0,0,1,.21,3.13,19.79,19.79,0,0,1-1,3.58.5.5,0,0,0-.21.91c0,.13,0,.27-.07.4a13.06,13.06,0,0,0,.75,4.91c.19.69.41,1.4.64,2.11a.47.47,0,0,0-.25-.07c-9.75,0-19.5.08-29.22.91a98.4,98.4,0,0,1-13.75.23c-4.34-.23-8.64-.36-12.89.66-.63.15-.36,1.11.27,1,4.49-1.08,9-.82,13.55-.58a100.78,100.78,0,0,0,13.8-.37c9.4-.78,18.83-.81,28.25-.83a.45.45,0,0,0,.45-.31c1,3,2,6.06,2.09,9a11.1,11.1,0,0,1-.28,2.69L285,114.87a.5.5,0,0,0,0,1l56.81-1.44c-.44,1.6-1.07,3.17-1.54,4.77a.48.48,0,0,0-.45-.66,91.07,91.07,0,0,0-13.12,1.55c-2.63.43-4.1-1.35-6.52-1.49-2.14-.13-4.19.82-6.34.73-4.59-.19-9.13.14-13.73,0s-9.37-.32-14,.39c-.63.1-.36,1.06.27,1,5.06-.78,10.13-.38,15.22-.33,2.21,0,4.4-.1,6.6-.24s4.35.26,6.53.19c2.62-.08,4.89-1.34,7.47-.11a6.34,6.34,0,0,0,3.87,1c1.82-.17,3.64-.73,5.44-1a63.77,63.77,0,0,1,8.35-.67.46.46,0,0,0,.45-.32,15.63,15.63,0,0,0-.54,2.51,21.12,21.12,0,0,0,.07,5,.51.51,0,0,0-.22-.05q-27.25-.29-54.47,1.25c-.64,0-.64,1,0,1q27.21-1.54,54.47-1.25a.45.45,0,0,0,.33-.13c.32,2.23.82,4.45,1.18,6.66a44.33,44.33,0,0,1,.56,8.41h-.1c-18,1-36,2.12-54,3.22-.64,0-.64,1,0,1,18-1.1,36-2.24,54-3.22h.06a45.94,45.94,0,0,1-.81,6.63.5.5,0,0,0,.33.58l-2.42,1.7-.19.08a.45.45,0,0,0-.46-.38q-26.22.06-52.34,2.58c.08-1.32.15-2.64.23-4,0-.64-1-.64-1,0q-.44,7-.65,14c-3,.33-5.89,1.28-8.89,1.58a.51.51,0,0,0-.48.63l.39,1.89a.42.42,0,0,0,.39.36c-.62.1-1.23.21-1.83.36-2.28.54-1.79,1.43-1,3.25a.41.41,0,0,0,.21.21.46.46,0,0,0-.1.45l.74,1.77c.24.58,1.21.33,1-.27-.5-1.2-.55-1.67,1-1.7,1,0,2,.1,3.08,0a20.77,20.77,0,0,0,5.33-1c0,.63,0,1.26,0,1.88l-16.24,2.47a.51.51,0,0,0-.35.62,41.22,41.22,0,0,1,1.39,8.42c.11,2.1-.36,4.44.07,6.5a8.67,8.67,0,0,0,1.12,2.24c.92,1.79.78,3.32.46,5.27l0,.14c-1.89,0-3.58-1.08-5.55-1a47.71,47.71,0,0,0-6,1c-2.76.49-3.32,1.26-2.92,4-2.24.27-3.86.62-4,3.55,0,.64,1,.64,1,0,.11-3.34,5.07-2.44,7.38-3.49a15.35,15.35,0,0,1,4.75-1.53c1.66-.21,3.32-.39,5-.58-.35,2-.73,3.9-1.09,5.85a67.57,67.57,0,0,0-1.45,14.7,86.83,86.83,0,0,0,2.35,15,.43.43,0,0,0,.15.25,117.73,117.73,0,0,1-14.36-.13c-7.87-.56-15.74-1.27-23.55.25-.63.12-.36,1.09.27,1,8-1.57,16.14-.7,24.23-.15a120.3,120.3,0,0,0,24.15-.92.54.54,0,0,0,.2-.07c-.08,1.81-.17,3.62-.23,5.43a.49.49,0,0,0,.77.39.42.42,0,0,0,.42.24c9.88-.47,19.7.66,29.56.94,5,.14,9.91,0,14.87-.19,2.48-.1,5-.23,7.45-.34l4-.18c1.06,0,2.84-.48,3.77.18a.46.46,0,0,0,.13.06c.05.85.1,1.7.17,2.55-20.54,2.12-41.12-.4-61.68-.65a.5.5,0,0,0,0,1c20.59.25,41.19,2.77,61.75.64q.52,6.93,1.3,13.84c.07.63,1.07.64,1,0a348.14,348.14,0,0,1-2.26-40.36c0-5.41.46-11,.65-16.56a.52.52,0,0,0,0-.91c.21-6.94,0-13.86-2-20.44,10.67-.41,21.34-.71,32-1a.45.45,0,0,0-.29.44q.18,21.81-.51,43.62c0,.64,1,.64,1,0q.69-21.8.51-43.62a.46.46,0,0,0-.31-.45l6.43-.15a.48.48,0,0,0,0,.1c-.55,6.42-1.41,12.89-1.53,19.33s2,12.8,1.16,19.26c-.08.64.92.63,1,0,.83-6.46-1.26-12.8-1.16-19.26s1-12.91,1.53-19.33a.46.46,0,0,0,0-.12l2.41-.05a.51.51,0,0,0,0,.16,424.4,424.4,0,0,0-.48,43.09c0,.64,1,.65,1,0a424.4,424.4,0,0,1,.48-43.09.48.48,0,0,0,0-.18l2,0a246.74,246.74,0,0,0,2.1,45.79c.09.63,1.05.36,1-.27A245.35,245.35,0,0,1,387,182l2.83-.06a.48.48,0,0,0,0,.21c1.24,12.68-1.43,25.32-.57,38,0,.64,1,.64,1,0-.86-12.68,1.81-25.32.57-38a.51.51,0,0,0-.08-.23l3.15-.07a.48.48,0,0,0,0,.13l-1.11,44.14a.5.5,0,0,0,1,0L394.85,182a.48.48,0,0,0,0-.15l2.63-.06a.53.53,0,0,0-.06.19c-1.35,14.15,1.5,28.22,1.3,42.37a.5.5,0,0,0,1,0c.2-14.15-2.65-28.22-1.3-42.37a.47.47,0,0,0,0-.21l1.78,0,.48,34.16a.5.5,0,0,0,1,0l-.48-34.19,1.37,0a.4.4,0,0,0-.11.35,161.62,161.62,0,0,1,0,37.53c-.07.64.93.63,1,0a161.62,161.62,0,0,0,0-37.53.51.51,0,0,0-.21-.36q9.69-.22,19.38-.47c-.52,13.24-.31,26.41-.24,39.65,0,6.46-1,12.78-1.53,19.2-.14,1.88-.23,3.76-.3,5.65a.51.51,0,0,0-.14-.09c-1.33-.5-1.43-2.31-2.87-2.78-1.16-.38-1.62.22-2.62-.79-.77-.78-.63-1.21-1-2.11a.48.48,0,0,0-.43-.25,20.76,20.76,0,0,1-8.25-.54.52.52,0,0,0-.62.35,16.21,16.21,0,0,0-.78,2.41,2.79,2.79,0,0,0-.41,0,3.17,3.17,0,0,0-.64.13,8.49,8.49,0,0,0-2.85-1.33l.62-3c.34-1.62.26-2.09,2-2.26a10.45,10.45,0,0,0,4.38-1.51,13.65,13.65,0,0,0,2.54,4.07c.43.48,1.14-.23.71-.71-.18-.2-.33-.4-.5-.6a2.77,2.77,0,0,1,2.58,0c.36.18.89-.13.73-.56a10,10,0,0,1-.89-2.54q-.57-.74-.12-.62l1.19-.2,6-1c.63-.11.36-1.07-.27-1l-4.77.79c-.77.13-2.23.06-2.86.57-.8.66-.17,2.12.35,3.23a3.56,3.56,0,0,0-2.52.42,12.33,12.33,0,0,1-1.43-2.8.51.51,0,0,0-.73-.3,9.79,9.79,0,0,1-4.11,1.62c-.68.09-1.78-.1-2.38.4-.44.36-.47,1-.59,1.55-.33,1.36-.59,2.75-.87,4.13l-.21,0c-.87-.13-2,.08-2.3-.67-.42-.92.45-3.58.58-4.6a.5.5,0,0,0-.63-.48c-3.74,1.3-7.43-.48-11.22-.17-1.33.11-2.24.87-3.44,1.11-1.61.32-1.76-.65-2-1.71a.51.51,0,0,0,.44.15l5.91-.86c1.22-.18,2.79-.62,4-.29.64.18,1.12.64,1.73.84,2.23.73,3.83-.49,5.39-2a.47.47,0,0,0,.13-.21c1.12-.8,2.17-1.83,3.62-1.64a10.32,10.32,0,0,0,2.24.33,7.67,7.67,0,0,0,2.17-.65c.82-.29.39-.48,1.47-.49s.88.22,1.68.85a1.63,1.63,0,0,0,2.17.28,18.35,18.35,0,0,1,8.77-1.42c.64,0,.64-1,0-1a19.69,19.69,0,0,0-7.1.52c-1.42.47-2.06,1.44-3.59.48-.55-.35-.89-1-1.6-1.11a2,2,0,0,0-1.35.32c-1.55.78-2.43,1.35-4.28,1-.61-.11-1-.45-1.62-.33-1.06.2-2.41,1.5-3.25,2.08a.49.49,0,0,0-.2.28,7.29,7.29,0,0,1-2.13,1.63c-1.2.51-2.17-.08-3.29-.44a6.06,6.06,0,0,0-2.38-.4,83.47,83.47,0,0,0-8.79,1.26.39.39,0,0,0-.32.24,2.34,2.34,0,0,0-.52-1c-.87-.9-2-.51-3.07-.28a49.16,49.16,0,0,0-6.83,1.49c-.73.27-1,.38-1.36,1.08-.87,1.74-.79,4.67-1.11,6.59a.5.5,0,0,0,.06.33,3.9,3.9,0,0,1-2.78-1.18,8.81,8.81,0,0,1-.7-2.31c-.25-.78-.35-1.51-1.08-1.94s-2.3-.37-3.25-.46l-5.93-.54c-.64-.06-.64.94,0,1l5.48.5c1,.09,2.87.09,3.58.93.47.56.59,2,.82,2.69.75,2.29,2.9,2.25,5.08,2.4.64,0,.64-1,0-1l-.37,0a.46.46,0,0,0,.05-.14,33.88,33.88,0,0,1,.94-5.7c.69-1.91,3.88-1.93,5.71-2.33,1.38-.3,3.48-1.11,4.5.67a13,13,0,0,1,.31,1.27,2.34,2.34,0,0,0,1.38,1.54c1,.24,1.53-.44,2.32-.83a9.2,9.2,0,0,1,5.15-.5c2.69.3,5.31.9,8,.23l-.61,4.84c0,.28.26.49.5.5a12.72,12.72,0,0,1,5.82,1.27c-.76.36-1.51.81-2,1.12-1.49.83-1.5,1.07-2.74-.16a30.84,30.84,0,0,1-2.41-3.12.51.51,0,0,0-.61-.08,28.73,28.73,0,0,1-6,1.92.51.51,0,0,0-.22.84,17.58,17.58,0,0,1,2.57,4.54c.23.59,1.2.34,1-.27a19.35,19.35,0,0,0-2.33-4.3c.66-.15,1.31-.3,2-.5s2.06-1,2.64-1c1.49.16,3.06,3.1,3.91,4.2a.5.5,0,0,0,.61.08c1.18-.78,3.19-2.3,4.82-2.52a.49.49,0,0,0,.55,0,1.91,1.91,0,0,1,.51.1c1.19.43,1.47,1.61,2.61,2.24,2,1.12,4.26.21,6.13-.79a20.37,20.37,0,0,0,.92,4.12c.74,2.15,2.31,4.2,1.66,6.59a.5.5,0,0,0,1,.27,6.25,6.25,0,0,0-.45-4.22,28.49,28.49,0,0,1-2.19-7.55.51.51,0,0,0-.75-.43,8.77,8.77,0,0,1-4.09,1.52c-1.81,0-2.38-1.31-3.41-2.43a3,3,0,0,0-.46-.41,16.21,16.21,0,0,1,.63-2,60.37,60.37,0,0,0,6.2.67,1.27,1.27,0,0,1,1.62.43,2.18,2.18,0,0,0,0,.77c.24.56.06.6.41,1,.79.95,1.74.45,2.77.63,2,.35,2.13,2.25,3.78,2.86a.41.41,0,0,0,.39,0c-.13,4.75-.06,9.52,0,14.27a.5.5,0,0,0,1,0c-.11-6.54-.2-13.09.23-19.62H422l.06,0c5.87,0,11.72-.31,17.58-.79a90,90,0,0,0,.27,16.5c.08.63,1.08.64,1,0C438.54,238,445.05,218.88,440.48,200.13Zm-176.6,1.48c-2.28.41-4.08,1.82-6.41,2.14l-.39,0c-.34-2.25.78-2.69,2.66-3,1.22-.22,2.43-.47,3.66-.65a11,11,0,0,1,5,.34,13.29,13.29,0,0,0,1.71.42C268,201.11,265.91,201.25,263.88,201.61Zm159.5,8.83q8.66-.63,17.35-.78a.5.5,0,0,0,.22-.05q.09,1.22.15,2.44a41.56,41.56,0,0,0-9.69,0c-.63.08-.64,1.08,0,1a41.57,41.57,0,0,1,9.73,0q0,1,0,2a122.68,122.68,0,0,0-16.6.36c-.64.06-.64,1.06,0,1a122.74,122.74,0,0,1,16.61-.36c0,2.51-.11,5-.27,7.54a.5.5,0,0,0-.17,0q-8.72-.17-17.43.22c0-1,.07-1.94.06-2.92q0-5.19-.06-10.37Zm20.25-12.31c-3.38.67-6.8,0-10.21-.05s-6.62.27-9.92.56a.51.51,0,0,0-.23.08q0-3,0-6a.43.43,0,0,0,.29.08q12.2-.74,24.42-1.11a21.71,21.71,0,0,1,.1,3.18q-11.39-.45-22.79-.2a.5.5,0,0,0,0,1q10-.22,19.91.11a2.51,2.51,0,0,0-1.55,2,.41.41,0,0,0,.06.27Zm34.63-10.56a.51.51,0,0,0-.35-.85,1.56,1.56,0,0,1,1.1-2.23,1.33,1.33,0,0,1,2.15.11c1.41.88.69.72,1,2.06a2.71,2.71,0,0,0,1.29,2c1,.6,2,.36,3.07.55,3.4.61,3,3.48,3.36,6.19a.51.51,0,0,0,.1.24q-10.4.27-20.77.94a3.06,3.06,0,0,0,1.52-1.49c1.1-2.26,1.13-5,3.93-6C476,188.55,477.26,188.79,478.26,187.58Zm-17.43,1.68a42.66,42.66,0,0,1,5-.51c2.76-.2,5.53-.33,8.29-.51a3.8,3.8,0,0,0-1.19.54,6,6,0,0,0-1.65,1.93c-4,.2-8,.29-11.95.25C459.83,190,459.56,189.51,460.82,189.26Zm-2.57,2.67c4.18.07,8.36,0,12.54-.21-.06.12-.12.25-.17.37-.76,1.83-.93,3.4-3.09,3.92a16.78,16.78,0,0,0-3.37.86q-10,.74-19.91,1.84a.57.57,0,0,0-.11-.38.55.55,0,0,0,.56-.47c.25-2,5.28-2,6.43-2a18.22,18.22,0,0,1,6.32,1.2c.61.22.87-.74.27-1a18.93,18.93,0,0,0-8.59-1.12c0-.62-.27-3,0-3.2.48-.52,2-.13,2.69-.09C453.91,191.83,456.08,191.9,458.25,191.94Zm-6.19-1.22c-1.2-.07-2.4-.14-3.61-.24a.5.5,0,0,0-.43.25q-12.22.38-24.43,1.11a.48.48,0,0,0-.28.11q0-1.3,0-2.6l.12,0q14.23-.77,28.49-1.16Zm-28.67-2.32q.07-3.43.2-6.87a266,266,0,0,0,28.14-.38l.21,6.07q-14.23.38-28.45,1.16Zm-17.77-71.78c8,.81,15.89-1.15,23.85-.59,3.6.26,7.14,1,10.76,1.12a50.68,50.68,0,0,0,11.3-1.06l.06,0q-.12,1.44-.2,2.88-6.61-.08-13.22-.3c-.64,0-.64,1,0,1q6.58.22,13.16.29-.06,1.36-.09,2.73c-8-.43-16.11-.8-24.16-.68-3.68.06-7.26.7-10.9,1.12s-7.14.51-10.71.6c-.1-2.4-.25-4.83-.18-7.23A.51.51,0,0,0,405.61,116.61Zm-.33-9.08c-2.45,1.42-5.6,1.52-8.38,1.85q0-4.63-.27-9.25C400.19,101.5,401.92,105.68,405.28,107.53ZM395.62,100q.3,5,.28,9.91a.5.5,0,0,0,.5.5c3.08-.4,6.7-.43,9.45-2.08-1.94,4.81-1.57,10-1.37,15.09a129.38,129.38,0,0,1-.86,20.63q-24.22-.51-48.44.23c.16-1,.29-1.94.41-2.91a.39.39,0,0,0,0-.37c1.48-12.76-.33-25.63.54-38.44Zm-41.44,44.31-1.21,0c-.64,0-.64,1,0,1q26.93-.89,53.87-.23a.5.5,0,0,0,0-1l-2.23,0c.17-1.39.31-2.78.43-4.17,5.61,3.23,11.08,6.5,16.46,10.07q-22,.61-44,.35c-7.26-.09-14.51-.37-21.77-.45a49.26,49.26,0,0,0-13.56,1.39c4.17-2.89,8.36-5.74,12.3-8.93-.09.62-.17,1.25-.27,1.87A.5.5,0,0,0,354.19,144.34Zm11.52-53.61a32.61,32.61,0,0,1,7.49.54,34.85,34.85,0,0,0,4.21.35c1.41,0,2.79-.56,2.83,1.22a.47.47,0,0,0,.11.29q-15.73.31-31.42,1.49c.35-.79,2.52-1.54,3.21-1.67s1.23-.09,1.82-.16c1.11-.13,2.21-.32,3.31-.53A81.54,81.54,0,0,1,365.71,90.73Zm-26,3.42a38.91,38.91,0,0,1,1.09-4.09.5.5,0,0,0,.47.45,57.23,57.23,0,0,0,11.59-.37A55.21,55.21,0,0,0,358.73,89c.87-.22,1.77-.6,2.66-.73,1.77-.26,1.77-.08,2.16,1.64a.45.45,0,0,0,0,.09c-.84.13-1.68.28-2.51.44-1.51.3-3,.65-4.51.93-2,.37-4.12.3-6.1.71a2.81,2.81,0,0,0-2.56,2.61c-2.68.21-5.37.42-8,.67a.51.51,0,0,0-.16,0A9.63,9.63,0,0,1,339.72,94.14Zm1.21,33.43c-.63-4.4.25-7.93,1.58-12.08.12-.37.22-.74.31-1.1h0a.51.51,0,0,0,.18-1,16,16,0,0,0-.56-7.29c-.82-3-2.38-6.52-2.72-9.79h.1q23.1-2.1,46.32-2.32a9.3,9.3,0,0,0,.7,5.43.45.45,0,0,0,.08.11l-30.71,2c0-.13,0-.27,0-.4.05-.64-.95-.64-1,0,0,.24,0,.47,0,.71a.56.56,0,0,0,0,.46c-.9,12.84,1,25.77-.54,38.56-4.08,3.39-8.48,6.37-12.84,9.39a45.79,45.79,0,0,0,.83-11.51C342.4,135,341.47,131.33,340.94,127.58Zm-64.63,41.07-.28-1.33c2.77-.36,5.49-1.19,8.26-1.5q0,1.31-.06,2.63c-2.71.26-5.56.37-8.27.79A.5.5,0,0,0,276.31,168.65Zm7.88,2.67a19.94,19.94,0,0,1-6.85,1.08,8.54,8.54,0,0,0-3.51.31.5.5,0,0,0,0-.34c-1-2.1,4-2.2,5.5-2.37l4.91-.55C284.2,170.07,284.19,170.69,284.18,171.31Zm57.47,31.44q0,.47,0,.94l-19,.43a.5.5,0,0,0,0,1l18.94-.43c-.14,3.94-.29,7.89-.37,11.83l-.12,0q-16.83-.71-33.67-.57a.5.5,0,0,0,0,1q16.84-.15,33.67.57l.1,0q0,2.35,0,4.7c0,.63,0,1.26,0,1.88-9.7-.6-19.42-1.19-29.14-.89-9.56.3-19.05,1.38-28.63,1.39a.5.5,0,0,0,0,1c9.58,0,19.07-1.09,28.63-1.39,9.72-.3,19.45.29,29.15.89,0,.72,0,1.45,0,2.17a178.3,178.3,0,0,0-21,.24c-.64,0-.64,1,0,1a178.35,178.35,0,0,1,21-.24q.06,3.29.18,6.57-29,.73-58,.81a.5.5,0,0,0,0,1q29-.08,58-.81.14,3.6.36,7.2c-1.39-.6-3.4-.1-4.82,0l-7.94.37c-5.29.24-10.59.43-15.89.33-10.35-.2-20.66-1.47-31-1a.5.5,0,0,0-.18,0q.43-12.82,1.37-25.62,10.25-.43,20.52-.15a.5.5,0,0,0,0-1q-10.22-.28-20.44.15c.24-3.24.49-6.48.78-9.72a.42.42,0,0,0,.26.05,152.14,152.14,0,0,1,17-1,.5.5,0,0,0,0-1,152.14,152.14,0,0,0-17,1,.52.52,0,0,0-.18.06c.28-3.13.57-6.26.9-9.38.07-.64-.93-.63-1,0q-2.12,20.26-3,40.62a.42.42,0,0,0-.24,0c-3.37.45-6.73.76-10.08,1a.48.48,0,0,0,.16-.48c-1.15-5.32-2.31-10.69-2.34-16.17,0-5.66,1.1-11.22,2.14-16.76.41-2.19.9-4.41,1.13-6.63.26-2.55-1.62-3.78-2-6.19-.35-2.24.13-4.75-.07-7a42.35,42.35,0,0,0-1.19-6.78l15.53-2.36c.08,2.2.25,4.38.5,6.59.38,3.46.63,6.91-1.06,10.09-.3.57.56,1.07.86.5,3-5.6.68-12.37.64-18.37,0-1.57,0-3.15,0-4.73.55-.12.56-1,0-1,0-.88,0-1.76.07-2.64h0c.63,0,.64-1,0-1q.14-4.49.39-9,25.81-2.49,51.76-2.58a.45.45,0,0,0-.24.41q-.06,3.37-.13,6.75c-8.53,0-17.06,0-25.59.12-4.23.07-8.37.75-12.57,1.16a113.19,113.19,0,0,1-12.85.48.5.5,0,0,0,0,1,113.39,113.39,0,0,0,12.37-.43c4.36-.4,8.66-1.13,13-1.2,8.52-.15,17-.08,25.57-.12q-.08,3.92-.14,7.85a.45.45,0,0,0-.45-.32q-12.55.05-25.08.73c-.64,0-.64,1,0,1q12.53-.68,25.08-.73a.46.46,0,0,0,.45-.31c0,.22,0,.43,0,.65,0,.5,0,1,0,1.51-15.8.35-31.4,3.69-47.23,3.35a.5.5,0,0,0,0,1c15.83.34,31.42-3,47.21-3.35,0,3.77.17,7.69,2.14,10.93a.51.51,0,0,0,.91-.11c.29,1,.53,2,.74,3-8.91.22-17.83.53-26.75.64-8.4.1-16.91-2.33-25.24-.63-.63.13-.36,1.09.27,1,8.49-1.73,17.31.81,25.89.65s17.29-.42,25.94-.63l.09,0A69.86,69.86,0,0,1,341.65,202.75Zm21-21.18V171.18a.5.5,0,0,0-1,0v10.41l-10.33.31a.5.5,0,0,0,0-.21,62.23,62.23,0,0,1,.38-8.69c.07-.64-.93-.63-1,0a62.23,62.23,0,0,0-.38,8.69.49.49,0,0,0,.07.24q-5.19.17-10.38.37a.48.48,0,0,0-.46.37c-2.33-4.26-1.77-9.76-1.68-14.44s.18-9.5.27-14.25a.44.44,0,0,0,.24-.08l.87-.62c6-2.44,12.59-2.49,19-2.33l3.22.08c-.56,1.4-.26,2.92-.16,4.39l.42,6c0,.64,1,.64,1,0l-.36-5.22c-.11-1.56-.53-3.5.08-5a.47.47,0,0,0,0-.2c5.63.14,11.27.26,16.9.32q21.65.23,43.3-.4a.49.49,0,0,0,.15,0l.3.2c.53.36,1-.5.5-.86-.86-.59-1.73-1.15-2.6-1.72l28-.64a.5.5,0,0,0,0-1l-28.76.66a.46.46,0,0,0-.38.2c-2.4-1.55-4.83-3.05-7.27-4.52,11.75-.9,23.56-.62,35.33-.29a.5.5,0,0,0,0-1c-12.24-.34-24.52-.66-36.73.39l-.07,0q-2.92-1.74-5.89-3.44a.51.51,0,0,0-.18-.06,125.73,125.73,0,0,0,.41-13.45c0-.24,0-.49,0-.73,3.56-.1,7.13-.19,10.68-.6A108.87,108.87,0,0,1,427.1,123c8-.12,16.12.25,24.15.68q0,1.4,0,2.8l-25.35-.07a.5.5,0,0,0,0,1l25.37.07q.08,2.55.3,5.1c-2.38,0-4.75-.1-7.13-.06a.5.5,0,0,0,0,1c2.41,0,4.81.08,7.22.06a13.13,13.13,0,0,0,.77,3.57c.18.44.36.86.53,1.27h-.05c-15.55-.35-31.21-1.28-46.76-.72-.64,0-.64,1,0,1,15.55-.56,31.21.37,46.76.72a.44.44,0,0,0,.38-.17,6.24,6.24,0,0,1,.44,2.51.4.4,0,0,0-.46-.37l-2.28.24c-.63.07-.64,1.07,0,1l2.28-.24a.51.51,0,0,0,.43-.34c0,.17,0,.34-.07.52-.56,2.93-1.66,5.67-2.07,8.65a70.38,70.38,0,0,0-.49,10.93.5.5,0,0,0-.16,0,61.34,61.34,0,0,0-11,.34,58.93,58.93,0,0,1-10.52.73c-.64,0-.64,1,0,1a58.93,58.93,0,0,0,10.52-.73,61.39,61.39,0,0,1,11-.34.48.48,0,0,0,.18,0c.06,2.33.16,4.65.25,7l.1,2.89a87.31,87.31,0,0,0-8.88.4c-.63.06-.64,1.06,0,1a87.15,87.15,0,0,1,8.91-.4l.22,6.24a266,266,0,0,1-28.09.38.41.41,0,0,0-.16-.26.45.45,0,0,0-.32-.12C403,180.69,382.82,181,362.67,181.57Zm77,57.83c-5.86.48-11.71.77-17.59.79h-.26c.1-1.34.23-2.68.36-4a.53.53,0,0,0,.19.06c5.9.71,11.8-.4,17.63-1.29C439.88,236.42,439.76,237.91,439.67,239.4Zm-17.3-4.18h-.1c.37-3.5.78-7,1-10.5q8.74-.39,17.48-.22l.11,0c-.21,3.14-.49,6.28-.75,9.42C434.22,234.8,428.31,235.94,422.37,235.22Z"/><path class="cls-9" d="M349.56,272.88c-3.07-.24-6.14-.48-9.19-.88-2.06-.27-7.06-.4-8.7-2.1a23.16,23.16,0,0,1,7-3.35.5.5,0,0,0-.27-1,23.84,23.84,0,0,0-7.7,3.77.51.51,0,0,0-.18.68c1.39,2.3,5.45,2.32,7.82,2.68,3.72.57,7.48.87,11.23,1.17C350.2,273.93,350.2,272.93,349.56,272.88Z"/><path class="cls-9" d="M431.81,273.89c-25.72,3.14-51.6,6.24-77.54,4.52-.64,0-.64,1,0,1,25.95,1.73,51.83-1.37,77.54-4.52C432.45,274.81,432.45,273.81,431.81,273.89Z"/><path class="cls-9" d="M433.24,263.71a.5.5,0,0,0-.27,1l-1,2.18q-.58.14-1.16.25c-.78.16-1.57.3-2.35.43q-2.53.43-5.07.75c-2.84.36-5.7.63-8.56.83-6.06.42-12.13.55-18.2.64-11.72.17-23.45.24-35.08,1.87-.63.09-.36,1.05.27,1,14.88-2.08,29.92-1.54,44.89-2.06a167.88,167.88,0,0,0,21.08-1.87c1.82-.29,5.37-.26,6.51-2.08A1.86,1.86,0,0,0,433.24,263.71Z"/><path class="cls-9" d="M476.49,260.82q-5.93,0-11.83.53c-.64.06-.64,1.06,0,1q5.9-.55,11.83-.53A.5.5,0,0,0,476.49,260.82Z"/><path class="cls-9" d="M271.6,247.15a11.16,11.16,0,0,1,3.19-.9c.63-.09.36-1.05-.27-1-1.74.25-6.28,1.31-5.62,4a2.69,2.69,0,0,0,1.86,1.66,56.76,56.76,0,0,0,5.61,1.68.5.5,0,0,0,.27-1,50.15,50.15,0,0,1-5.61-1.68,1.29,1.29,0,0,1-.51-2.14A3.53,3.53,0,0,1,271.6,247.15Z"/><path class="cls-9" d="M334.57,257.14a327.08,327.08,0,0,1-67.75-5c-.63-.11-.9.85-.27,1a328.4,328.4,0,0,0,68,5C335.21,258.12,335.22,257.12,334.57,257.14Z"/><path class="cls-9" d="M320.65,253a.5.5,0,0,0,0-1q-19.48-.26-38.87-2.22c-.64-.06-.64.94,0,1Q301.16,252.78,320.65,253Z"/><path class="cls-9" d="M274.35,141.09c.23-1.15,1-2.8.08-3.8s-3-.62-4.11-.38c-5.52,1.21-11,3.49-16.35,5.22-.61.2-.35,1.16.27,1l10.13-3.27c1.49-.48,3-1,4.49-1.45a60.3,60.3,0,0,0,3.28,5.19c.37.52,1.24,0,.86-.5-1.14-1.62-2.19-3.29-3.17-5a4.79,4.79,0,0,1,2.28-.39c1.53.65,1.55,1.84,1.29,3.15C273.26,141.45,274.22,141.72,274.35,141.09Z"/><path class="cls-9" d="M253.55,139.71a225.35,225.35,0,0,0-14.85-37.44c-.29-.57-1.15-.07-.86.5A223.88,223.88,0,0,1,252.59,140,.5.5,0,0,0,253.55,139.71Z"/><path class="cls-9" d="M239.52,101.61c4-1.72,8.31-1.55,12.58-1.77,2.24-.11,4.52-.53,6.75-.16a22.4,22.4,0,0,1,6.09,2.31c.58.28,1.08-.58.5-.86a25.3,25.3,0,0,0-5.93-2.32c-2.46-.51-4.94-.08-7.42,0-4.47.23-8.89.1-13.08,1.9C238.42,101,238.93,101.87,239.52,101.61Z"/><path class="cls-9" d="M274.91,135.3q-5.22-15.13-9.83-30.45a.5.5,0,0,0-1,.27q4.61,15.32,9.83,30.45C274.16,136.17,275.12,135.91,274.91,135.3Z"/><path class="cls-9" d="M223.4,54.11a136.38,136.38,0,0,0,15.51.69c-.32.34-.06,1,.46.83.76-.29,1.51-.6,2.27-.91.58,0,1.17,0,1.75,0a.52.52,0,0,0,.37-.85,104,104,0,0,0,36.66-26.71c.42-.48-.28-1.19-.71-.71a103.09,103.09,0,0,1-38.26,27.32,136.29,136.29,0,0,1-15.3-.39,57.65,57.65,0,0,0,30.28-24.81c8.53-1,17.26-.39,25.5-3.17.61-.2.35-1.17-.27-1-8.09,2.73-16.66,2.23-25,3.12a.49.49,0,0,0-.78.08h0c-1.4.16-2.79.37-4.17.64-.63.12-.36,1.09.27,1,1.07-.21,2.15-.38,3.24-.52a56.6,56.6,0,0,1-30.84,24.24.48.48,0,0,0-.29.25l-.63-.05C222.76,53,222.76,54,223.4,54.11Z"/><path class="cls-9" d="M350.55,61.94l15.84-8.8c.56-.31.06-1.18-.5-.86L350,61.08C349.48,61.39,350,62.25,350.55,61.94Z"/><path class="cls-9" d="M365.37,55a142.4,142.4,0,0,0,40.32,7.43,60.58,60.58,0,0,1-21.21,12.43A106.77,106.77,0,0,1,351.9,63.29c-.56-.31-1.07.55-.5.86a107.61,107.61,0,0,0,32.43,11.58.42.42,0,0,0,.54.21l.19-.07.36.07a.53.53,0,0,0,.61-.42,61.82,61.82,0,0,0,21.5-13,.45.45,0,0,0,.06-.08h0a.5.5,0,0,0,0-1A141.49,141.49,0,0,1,365.63,54C365,53.81,364.76,54.78,365.37,55Z"/><path class="cls-9" d="M356.52,221.35a222.66,222.66,0,0,0-.59-37.83c-.06-.63-1.06-.64-1,0a222.66,222.66,0,0,1,.59,37.83C355.48,222,356.48,222,356.52,221.35Z"/><path class="cls-9" d="M353,217.42q.6-16.95-.08-33.9c0-.64-1-.64-1,0q.67,16.95.08,33.9C351.95,218.07,352.95,218.07,353,217.42Z"/><path class="cls-9" d="M360.71,206.65q-.63-11.56-1-23.12c0-.64-1-.64-1,0q.41,11.57,1,23.12C359.74,207.29,360.74,207.29,360.71,206.65Z"/><path class="cls-9" d="M363.28,211.39q.09-14.06.17-28.12a.5.5,0,0,0-1,0q-.09,14.06-.17,28.12A.5.5,0,0,0,363.28,211.39Z"/><path class="cls-9" d="M360.28,228.47q.18-9.07-.12-18.14c0-.64-1-.64-1,0q.3,9.07.12,18.14A.5.5,0,0,0,360.28,228.47Z"/><path class="cls-9" d="M366.73,222.43l-.2-39.16a.5.5,0,0,0-1,0l.2,39.16A.5.5,0,0,0,366.73,222.43Z"/><path class="cls-9" d="M368.92,183q-.27,20.89.34,41.78c0,.64,1,.64,1,0q-.61-20.89-.34-41.78A.5.5,0,0,0,368.92,183Z"/><path class="cls-9" d="M376.24,212.44q.57-14.71.34-29.43a.5.5,0,0,0-1,0q.23,14.72-.34,29.43C375.21,213.08,376.21,213.08,376.24,212.44Z"/><path class="cls-9" d="M358.87,240.33a7.32,7.32,0,0,1-3.41,1.88c-1.38.19-1.9-.47-2.82-1.07-.76-.5-1.1-1.11-2.12-1-2.5.32-2.52,3.75-3.56,5.36-.35.54.52,1,.86.5.73-1.12.71-2.91,1.55-3.86,2-2.3,2.78.58,4.19,1.09,1.66.6,3.65-.43,5.11-1.5-.14,2.06-.45,5.33,1.5,5.87,1.2.33,2.56-.38,3.71-.61,3.55-.74,3.08,2.09,4.62,3.93,1,1.23,1.77.53,2.56-.42a2.78,2.78,0,0,1,1.45-2.09,5.67,5.67,0,0,1,1.41-.1c.92,0,1.84.11,2.77.06s1.16-.15,2-.23c1.32-.14,1.73.18,2.25,1l-.24,0c-.62-.19-.88.77-.27,1a4.17,4.17,0,0,0,1.36.19.51.51,0,0,0,.26,0,9.12,9.12,0,0,0,2-.47,8.17,8.17,0,0,1,6.65.41c.57.3,1.08-.57.5-.86a8.89,8.89,0,0,0-4.63-1.1c-1.47.08-3,.88-4.45,1L380.73,247a.51.51,0,0,0-.56-.23,18.23,18.23,0,0,1-5.61.61,6,6,0,0,0-2.84.3,1.91,1.91,0,0,0-.61.46,16.34,16.34,0,0,1-.45-6.43c1.46.82,3.43,2.17,4.87,2.09s1.82-2.09,2.16-3.37a11.17,11.17,0,0,0,1.86.8,5.23,5.23,0,0,0,2.33-.38,28.61,28.61,0,0,0,6.57-3,.5.5,0,0,0-.5-.86,28.78,28.78,0,0,1-5.49,2.62c-1.87.64-3.19,0-5-.29a.52.52,0,0,0-.61.35,10,10,0,0,1-.65,1.84l-.32.92a2.87,2.87,0,0,1-2-.31,36.07,36.07,0,0,1-3.4-1.63.51.51,0,0,0-.73.3,17.55,17.55,0,0,0,.61,8.43c-.11.59-.14,1.26-1.36.64-.29-.15-.51-1.23-.68-1.6-.79-1.71-1.91-2.59-3.85-2.38-1,.11-2.84,1.15-3.76.81-1.59-.59-1-4.71-1-6A.51.51,0,0,0,358.87,240.33Z"/><path class="cls-9" d="M408,254.08l.8-5a.45.45,0,0,0-.1-.66.53.53,0,0,0-.65-.13l-3.5-.48c-.72-.1-2.17-.6-2.91-.27-.51.23-.51.78-.58,1.28-.2,1.32-.36,2.65-.54,4-.09.63.88.9,1,.27l.35-2.55a5.55,5.55,0,0,1,.19-1.42c.27-.59,0-.59.84-.5,1.64.18,3.27.44,4.9.67l-.73,4.59C407,254.45,407.94,254.72,408,254.08Z"/><path class="cls-9" d="M379.2,252.42c1.61-.25,3.44-.94,4.58.6.74,1,1.21,2,2.57,2.14.64.06.64-.94,0-1-1.41-.13-1.83-2.47-3.14-3a4.34,4.34,0,0,0-2.33,0l-3.89.59a.5.5,0,0,0-.37.48l0,2.77a.5.5,0,0,0,1,0c0-.37-.26-1.75,0-2.08C378,252.43,378.64,252.51,379.2,252.42Z"/><path class="cls-9" d="M350.27,232.2c-.94,1.11-2,1.15-3.3,1.18a.51.51,0,0,0-.48.63,14.43,14.43,0,0,1,.46,4.7c0,.64,1,.64,1,0a15.13,15.13,0,0,0-.36-4.36,4.43,4.43,0,0,0,3.19-1.18c1.1-1.18,1.34-2.39,3.31-1.94,1.79.41,2,1.89,2.56,3.42.22.6,1.19.34,1-.27v0a3.7,3.7,0,0,0,2.55.67c2.07,0,4.06,0,5.92,1a.5.5,0,0,0,.5-.86,8.76,8.76,0,0,0-3.5-1.11c-1.42-.15-4,.47-5.05-.72a.44.44,0,0,0-.71,0,5.55,5.55,0,0,0-1.06-2.36,5.43,5.43,0,0,0-3.08-1,2.7,2.7,0,0,0-2.13.9C350.73,231.35,350.58,231.83,350.27,232.2Z"/><path class="cls-9" d="M345.54,249.33a13.16,13.16,0,0,1-1.08.81c-.23.23-.45.32-.61.7-.69,1.74.81,5.32,1.35,6.92.2.61,1.17.35,1-.27a28.6,28.6,0,0,1-1-3.48,23.85,23.85,0,0,1-.38-2.55.58.58,0,0,1,.52-.38c.13-.19.52-.21.7-.43.57-.72.19-1.7,1.72-1.58.64.05,1.41,1.06,2.22,1.18a6.37,6.37,0,0,0,2-.16,53.21,53.21,0,0,0,6.67-1.68.5.5,0,0,0-.27-1c-1.38.41-2.76.79-4.15,1.13a16.32,16.32,0,0,1-2.1.47,2.58,2.58,0,0,1-1.81-.13,2.3,2.3,0,0,1-2-.69c-1-.34-1.52-.45-2.33.29C345.66,248.75,345.8,249,345.54,249.33Z"/><path class="cls-9" d="M360.25,260.33c-1.14-1.23-2.66-3.7-4.21-4.38-1.28-.56-3.08-.18-4.42-.16-3.41.07-4.62,2.18-6.36,4.91-.35.54.52,1,.86.5a17,17,0,0,1,2.33-3.28c1.35-1.27,2.79-1.13,4.54-1.15a4.42,4.42,0,0,1,3.63,1.11,34.58,34.58,0,0,1,2.65,2.86l-.6-.1c-2.33-.31-4.68-.55-7-.83-.64-.07-.63.93,0,1a70.86,70.86,0,0,1,9.36,1.26,13.62,13.62,0,0,0,2.85.79c.81,0,4.13-1.54,4.24,0,0,.64,1,.64,1,0-.21-2.85-3.29-1.31-4.94-1.21a13.08,13.08,0,0,1-3.89-.68A.48.48,0,0,0,360.25,260.33Z"/><path class="cls-9" d="M379.89,261.06c.1-.76,4.21.58,4.79.65a23.39,23.39,0,0,0,6,0,14.68,14.68,0,0,0,6.95-3.07l.38.82c.27.58,1.13.08.86-.5l-.62-1.35a.51.51,0,0,0-.79-.1,15.4,15.4,0,0,1-14.59,2.72c-1.48-.54-3.67-1.54-4,.83C378.8,261.69,379.81,261.68,379.89,261.06Z"/><path class="cls-9" d="M409.27,223.75a193,193,0,0,0-1-41.74c-.08-.63-1.08-.64-1,0a193,193,0,0,1,1,41.74C408.22,224.39,409.22,224.38,409.27,223.75Z"/><path class="cls-9" d="M350.63,162a.5.5,0,0,0,1,0,95,95,0,0,0-.3-10.25c-.05-.64-1.05-.64-1,0A95,95,0,0,1,350.63,162Z"/><path class="cls-9" d="M408.69,159.59l2.63-.26c.63-.06.64-1.06,0-1l-2.63.26C408.05,158.66,408,159.66,408.69,159.59Z"/><path class="cls-9" d="M402.38,158.8h2.1a.5.5,0,0,0,0-1h-2.1A.5.5,0,0,0,402.38,158.8Z"/><path class="cls-9" d="M396.34,159.07h.53a.5.5,0,0,0,0-1h-.53A.5.5,0,0,0,396.34,159.07Z"/><path class="cls-9" d="M390.29,159.07h.26a.5.5,0,0,0,0-1h-.26A.5.5,0,0,0,390.29,159.07Z"/><path class="cls-9" d="M484.06,257c2.85,0,7.36,1,9.6-1.35.45-.46-.26-1.17-.71-.71-1.59,1.65-4.85,1.08-6.92,1.07l-6.38,0-12.28-.07-25-.14a.5.5,0,0,0,0,1l28,.16Z"/><path class="cls-9" d="M461,259.78q-7,0-13.94.65c-.64.06-.64,1.06,0,1q7-.66,13.94-.65A.5.5,0,0,0,461,259.78Z"/><path class="cls-9" d="M498.5,256.78a120.18,120.18,0,0,1-29,9.09c-.63.11-.36,1.08.27,1A121.17,121.17,0,0,0,499,257.65C499.59,257.38,499.08,256.52,498.5,256.78Z"/><path class="cls-9" d="M527.37,227.74c-.47-.55-.68-1.15-1.32-1.6-3.34-2.38-11.28,1.43-10.73-5,.34-4-3.4-3.61-5.84-1.88a23.63,23.63,0,0,1-2.7,1.92,6.7,6.7,0,0,1-4.39.33.48.48,0,0,0,.1-.21,36.3,36.3,0,0,0,.73-4.56c.1-1.08.49-2.89,0-3.9s-1.59-.76-2.43-.83c-1.76-.14-3.53-.22-5.3-.25-.18-5-.51-10.07-1-15.09-.06-.63-1.07-.64-1,0a230.71,230.71,0,0,1-1,55.55c-.09.63.87.9,1,.27a232.17,232.17,0,0,0,2.13-39.73c1.64,0,6.34-.36,6.81,1.11a9.6,9.6,0,0,1-.17,3.2,34.39,34.39,0,0,1-.66,4,.48.48,0,0,0,0,.33c-1.8-.31-3.39-.51-5.06.4-.57.31-.06,1.17.5.86,2.47-1.35,5.17.26,7.77.12,1.88-.1,3.21-1.14,4.67-2.23a13.92,13.92,0,0,1,1.33-.94c1.21-.7,1.17-.67,2.43.31,1.49,1.17,1,.87,1,2.29a4.18,4.18,0,0,0,.1,1.08,3.7,3.7,0,0,0,2.32,2.41,11.94,11.94,0,0,0,4.94.52c1.44,0,3.23,0,4.32,1.1.68.68.82,1.74,1.52,2.42,1.34,1.3,3.79.81,5.47.82h9.57a.5.5,0,0,0,0-1h-9.57C530.61,229.54,528.95,229.57,527.37,227.74Z"/><path class="cls-9" d="M479.52,164.82a7.89,7.89,0,0,0,7.72,3.75c4-.41,6.89-3.51,8.57-6.89.28-.57-.58-1.08-.86-.5-1.38,2.78-3.56,5.38-6.68,6.2a7,7,0,0,1-7.88-3.06A.5.5,0,0,0,479.52,164.82Z"/><path class="cls-9" d="M527.48,179.82a.5.5,0,0,0,0-1A29.31,29.31,0,0,1,500.4,161c-.24-.59-1.21-.33-1,.27A30.34,30.34,0,0,0,527.48,179.82Z"/><path class="cls-9" d="M517.5,188.38a20.33,20.33,0,0,1-12.37-2.93.5.5,0,0,0-.5.86,20.79,20.79,0,0,0,15.3,2.64c3.59-.88,10-3.87,9.68-8.33,0-.64-1-.64-1,0C528.9,185.28,521.1,188,517.5,188.38Z"/><path class="cls-9" d="M502.47,185.89c.56.31,1.07-.55.5-.86a84.89,84.89,0,0,1-22.69-18.43c-.42-.49-1.13.22-.71.71A85.66,85.66,0,0,0,502.47,185.89Z"/><path class="cls-9" d="M348.67,110.89l5.62.42c.64,0,.64-1,0-1l-5.25-.4c-.38-1.11-.74-2.63.58-3.18a11.84,11.84,0,0,1,4.42-.49.5.5,0,0,0,0-1,19.76,19.76,0,0,0-3.4.25,3.92,3.92,0,0,0-2.31.9c-1.05,1.11-.6,2.86-.14,4.13A.53.53,0,0,0,348.67,110.89Z"/><path class="cls-9" d="M254,104.4a12.52,12.52,0,0,1,7.13.69c.6.24.86-.73.27-1a13.48,13.48,0,0,0-7.66-.69C253.14,103.56,253.41,104.52,254,104.4Z"/><path class="cls-9" d="M260.34,107.52c.6.23.86-.74.27-1a8.51,8.51,0,0,0-5.26-.24.5.5,0,0,0,.27,1A7.57,7.57,0,0,1,260.34,107.52Z"/><path class="cls-9" d="M258.35,111.15a2.42,2.42,0,0,1,2-.17c.61.2.88-.76.27-1a3.43,3.43,0,0,0-2.76.27C257.28,110.6,257.78,111.46,258.35,111.15Z"/><path class="cls-9" d="M266.51,31.92a48.07,48.07,0,0,1-8.54-.77c-.63-.11-.9.85-.27,1a49.58,49.58,0,0,0,8.81.81A.5.5,0,0,0,266.51,31.92Z"/><path class="cls-9" d="M263,35c.63-.14.36-1.1-.27-1a10.32,10.32,0,0,1-4.46,0c-.63-.14-.9.83-.27,1A11.57,11.57,0,0,0,263,35Z"/><path class="cls-9" d="M257.58,35.87h-1.84a.5.5,0,0,0,0,1h1.84A.5.5,0,0,0,257.58,35.87Z"/><path class="cls-9" d="M241.68,47.71a.5.5,0,0,0-.27,1l1.05.26a.5.5,0,0,0,.27-1Z"/><path class="cls-9" d="M245.89,45.32c-.63-.12-.9.85-.27,1l2.89.53c.63.12.9-.85.27-1Z"/><path class="cls-9" d="M252.06,44.28l-3.94-.53c-.64-.08-.63.92,0,1l3.94.53C252.7,45.36,252.69,44.36,252.06,44.28Z"/><path class="cls-9" d="M256.4,43.15c.63-.12.36-1.09-.27-1a13.69,13.69,0,0,1-5.25,0c-.63-.12-.9.84-.27,1A15.05,15.05,0,0,0,256.4,43.15Z"/><path class="cls-9" d="M381.77,71.06a102.14,102.14,0,0,0,15.87-7.19.5.5,0,0,0-.5-.86,100.59,100.59,0,0,1-15.63,7.09C380.9,70.3,381.16,71.27,381.77,71.06Z"/><path class="cls-9" d="M388.32,63.74a53.22,53.22,0,0,0-7.21,3.47.5.5,0,0,0,.5.86,51.49,51.49,0,0,1,7-3.37C389.18,64.47,388.92,63.5,388.32,63.74Z"/><path class="cls-9" d="M382.53,64,377,65.81c-.61.2-.35,1.17.27,1l5.52-1.84C383.4,64.73,383.14,63.76,382.53,64Z"/><path class="cls-9" d="M377.81,63.74l-2.89,1.05c-.6.22-.34,1.19.27,1l2.89-1.05C378.67,64.49,378.41,63.52,377.81,63.74Z"/><path class="cls-9" d="M374.52,63.46a.5.5,0,0,0,0,1A.5.5,0,0,0,374.52,63.46Z"/><path class="cls-9" d="M496.16,164.18a14.46,14.46,0,0,1-6.55,5.72c-.59.26-.08,1.12.5.86a15.36,15.36,0,0,0,6.91-6.08C497.37,164.13,496.5,163.63,496.16,164.18Z"/><path class="cls-9" d="M493.59,169.71c-.53.35,0,1.22.5.86a12.67,12.67,0,0,0,4.1-4.4.5.5,0,0,0-.86-.5A11.59,11.59,0,0,1,493.59,169.71Z"/><path class="cls-9" d="M499.57,167.47l-5,4.17c-.5.41.21,1.12.71.71l5-4.17C500.78,167.76,500.06,167.06,499.57,167.47Z"/><path class="cls-9" d="M499,170.56l-2.37,1.84c-.51.4.2,1.1.71.71l2.37-1.84C500.21,170.88,499.5,170.17,499,170.56Z"/><path class="cls-9" d="M508.81,183.79c-.64,0-.64,1,0,1a24.49,24.49,0,0,0,12.65-2.84c.57-.3.06-1.16-.5-.86A23.42,23.42,0,0,1,508.81,183.79Z"/><path class="cls-9" d="M514.88,180a23.82,23.82,0,0,1-7,2.05c-.63.09-.36,1.05.27,1a24.66,24.66,0,0,0,7.22-2.15C516,180.55,515.46,179.69,514.88,180Z"/><path class="cls-9" d="M337.58,76.89Q308.81,78,280,77.49a.5.5,0,0,0,0,1q28.79.47,57.57-.6C338.22,77.87,338.23,76.87,337.58,76.89Z"/><path class="cls-9" d="M337.33,108.18c.64,0,.64-1,0-1l-48.54,1.48c-.64,0-.64,1,0,1Z"/><path class="cls-9" d="M307.77,171.23c.64,0,.64-1,0-1L286,171c-.64,0-.64,1,0,1Z"/><path class="cls-9" d="M339.64,195c-8.86,1.42-17.91.63-26.84.5q-13.15-.2-26.29.11a.5.5,0,0,0,0,1q13.64-.32,27.29-.09c8.7.15,17.48.84,26.11-.55C340.54,195.84,340.27,194.88,339.64,195Z"/><path class="cls-9" d="M318.46,204.38q-6.91,0-13.82-.14a.5.5,0,0,0,0,1q6.91.17,13.82.14A.5.5,0,0,0,318.46,204.38Z"/><path class="cls-9" d="M285.47,239.71a156.07,156.07,0,0,1,21.48.8c.64.07.63-.93,0-1a156.07,156.07,0,0,0-21.48-.8C284.83,238.73,284.83,239.73,285.47,239.71Z"/><path class="cls-9" d="M268.5,205.39a.5.5,0,0,0,.27-1c-3.33-.92-6.42.16-9.51,1.44a37.09,37.09,0,0,1-5.37,2c-1.42.34-3.85-.17-5.07.65-1,.69-.79,2.09-.83,3.17l-.25,7.77-.51,16c0,.64,1,.64,1,0l.4-12.62.22-6.8.09-2.91c0-1.43-.3-2.55.87-3.42s3-.55,4.34-.9a31,31,0,0,0,4.37-1.56C261.72,205.92,265,204.42,268.5,205.39Z"/><path class="cls-9" d="M292.12,261.66a25.17,25.17,0,0,1-7.49-1.31c-.61-.2-.87.76-.27,1a26.07,26.07,0,0,0,7.75,1.34A.5.5,0,0,0,292.12,261.66Z"/><path class="cls-9" d="M285,264.29l-2.32-.33c-.63-.09-.9.87-.27,1l2.32.33C285.34,265.34,285.61,264.38,285,264.29Z"/><path class="cls-9" d="M400.79,283.2H379.26a.5.5,0,0,0,0,1h21.53A.5.5,0,0,0,400.79,283.2Z"/><path class="cls-9" d="M414.62,130.6q7.76-.17,15.52,0a.5.5,0,0,0,0-1q-7.76-.22-15.52,0A.5.5,0,0,0,414.62,130.6Z"/><path class="cls-9" d="M407.48,133.83a37.79,37.79,0,0,1,9.16-.41c.64,0,.64-1,0-1a38.89,38.89,0,0,0-9.42.45C406.58,133,406.85,133.94,407.48,133.83Z"/><path class="cls-9" d="M424.68,151.86c3.86.1,7.85.5,11.69,0a128.71,128.71,0,0,1,13.23-1,.5.5,0,0,0,0-1,109.57,109.57,0,0,0-12.65.94c-4,.53-8.2.13-12.27,0A.5.5,0,0,0,424.68,151.86Z"/><path class="cls-9" d="M423.73,179.06c0-1.49,0-3,0-4.47l16.19-.25a.5.5,0,0,0,0-1l-16.16.25q0-1.16.1-2.32l17.9-.24a.5.5,0,0,0,0-1l-17.84.24c.1-1.59.23-3.17.4-4.75s.44-3.45.66-5.17c4-.93,8.67-.68,12.78-.79s8.16-.1,12.24-.08a.5.5,0,0,0,0-1c-4.41,0-8.82,0-13.23.11-3.78.12-7.94-.07-11.66.72a39.67,39.67,0,0,0,.31-6.79c0-.64-1-.64-1,0,.24,4.38-.62,8.66-1.1,13a110.3,110.3,0,0,0-.63,13.54A.5.5,0,0,0,423.73,179.06Z"/><path class="cls-9" d="M425.22,213.09a16.6,16.6,0,0,1,3.58.07c.64.08.63-.92,0-1a16.57,16.57,0,0,0-3.58-.07C424.58,212.15,424.58,213.15,425.22,213.09Z"/><path class="cls-9" d="M425.11,221.17q6.67-.28,13.33-.08a.5.5,0,0,0,0-1q-6.67-.2-13.33.08C424.47,220.19,424.47,221.19,425.11,221.17Z"/><path class="cls-9" d="M438.66,226.49a66.82,66.82,0,0,0-15,.24c-.63.08-.64,1.08,0,1a66.82,66.82,0,0,1,15-.24C439.3,227.55,439.29,226.55,438.66,226.49Z"/><path class="cls-9" d="M483,211.7a227.35,227.35,0,0,1-29,1.31.5.5,0,0,0,0,1,227.35,227.35,0,0,0,29-1.31C483.62,212.63,483.63,211.63,483,211.7Z"/><path class="cls-9" d="M484.14,211a.5.5,0,0,0,.27,1,2.48,2.48,0,0,0-.2-4.82c-.63-.12-.9.85-.27,1A1.47,1.47,0,0,1,484.14,211Z"/><path class="cls-9" d="M453,211.59a2.3,2.3,0,0,1-.92-.22c-.21-.1-.7-.37-.73-.64-.06-.63,1.25-.84,1.64-.84a.46.46,0,0,0,.31-.12,181.21,181.21,0,0,0,29.17-1.21c.63-.08.64-1.08,0-1a181.24,181.24,0,0,1-30,1.18.43.43,0,0,0-.45.3c-.84.24-1.66.77-1.66,1.66,0,1.24,1.64,1.85,2.65,1.89C453.61,212.62,453.61,211.62,453,211.59Z"/><path class="cls-9" d="M433.46,243.59c.64,0,.64-1,0-1l-1.63.11c-.64,0-.64,1,0,1Z"/><path class="cls-9" d="M435.63,244.44l-2,.11c-.64,0-.64,1,0,1l2-.11C436.27,245.4,436.27,244.4,435.63,244.44Z"/><path class="cls-9" d="M476.4,220.78a16.68,16.68,0,0,1,2.94-.37h1.56a.5.5,0,0,0,0-1c-.53,0-1,0-1.57,0h-3.06a.49.49,0,0,0-.46.67A.52.52,0,0,0,476.4,220.78Z"/><path class="cls-9" d="M481,222.93l-1.82,0a.51.51,0,0,0-.35.85,2,2,0,0,1,.43,2.17c-.23.6.73.86,1,.27a2.9,2.9,0,0,0-.11-2.31l.89,0A.5.5,0,0,0,481,222.93Z"/><path class="cls-9" d="M453.71,245.82a18.3,18.3,0,0,1,5-.76.5.5,0,0,0,0-1,19.28,19.28,0,0,0-5.22.8A.5.5,0,0,0,453.71,245.82Z"/><path class="cls-9" d="M459.45,248.58a.5.5,0,0,0,0-1A.5.5,0,0,0,459.45,248.58Z"/><path class="cls-9" d="M452.11,235.69a8.73,8.73,0,0,0,.41-3.26c0-.64-1-.64-1,0a8,8,0,0,1-.37,3C450.94,236,451.91,236.3,452.11,235.69Z"/><path class="cls-9" d="M266.27,129.41l-1.18-3.13c-.22-.6-1.19-.34-1,.27l1.18,3.13C265.53,130.28,266.5,130,266.27,129.41Z"/><path class="cls-9" d="M260.72,131.22a.5.5,0,0,0,0-1A.5.5,0,0,0,260.72,131.22Z"/><path class="cls-9" d="M412,31.66a28.91,28.91,0,0,1,6.64-6.09c.53-.35,0-1.22-.5-.86a29.74,29.74,0,0,0-6.84,6.25C410.91,31.45,411.61,32.16,412,31.66Z"/><path class="cls-9" d="M393.84,25.62,395,17.79c.09-.63-.87-.9-1-.27l-1.12,7.83C392.79,26,393.75,26.25,393.84,25.62Z"/><path class="cls-9" d="M212.73,152.32a71.43,71.43,0,0,1,15.12-1.16.5.5,0,0,0,0-1,72.79,72.79,0,0,0-15.39,1.19C211.83,151.48,212.1,152.44,212.73,152.32Z"/><path class="cls-9" d="M222.11,140.57a17,17,0,0,1,5.35-.34c.64.06.64-.94,0-1a17.87,17.87,0,0,0-5.61.38C221.22,139.74,221.49,140.71,222.11,140.57Z"/><path class="cls-9" d="M477.56,134.92A43.06,43.06,0,0,0,489,151.21c.48.42,1.19-.28.71-.71-5.86-5.18-9.66-11.54-12.34-18.83-2.2-6-4.15-12.17-8.53-17-.43-.48-1.14.23-.71.71C473.14,120.88,474.83,128.19,477.56,134.92Z"/><path class="cls-9" d="M469.62,137.52c-.26-.59-1.12-.08-.86.5a84,84,0,0,0,10.34,17.25c.39.51,1.1-.2.71-.71A83,83,0,0,1,469.62,137.52Z"/><path class="cls-9" d="M252.25,58.7a46.71,46.71,0,0,1-17.88,6.59c-.63.1-.36,1.06.27,1a47.36,47.36,0,0,0,18.12-6.69C253.3,59.23,252.8,58.36,252.25,58.7Z"/><path class="cls-9" d="M247.55,66.65A11.72,11.72,0,0,0,251.19,65c.53-.36,0-1.22-.5-.86a10.86,10.86,0,0,1-3.4,1.51A.5.5,0,0,0,247.55,66.65Z"/><path class="cls-9" d="M390.68,173.63a6,6,0,0,0-1.89.15c-.63.15-.36,1.12.27,1a5.08,5.08,0,0,1,1.62-.12C391.33,174.68,391.32,173.68,390.68,173.63Z"/><path class="cls-9" d="M396.39,173.19h-1.17a.5.5,0,0,0,0,1h1.17A.5.5,0,0,0,396.39,173.19Z"/><path class="cls-9" d="M405.45,172.91a26,26,0,0,0-4,.1c-.63.06-.64,1.06,0,1a26,26,0,0,1,4-.1C406.09,173.94,406.09,172.94,405.45,172.91Z"/><path class="cls-9" d="M410.71,172.3l-1.31.16c-.63.08-.64,1.08,0,1l1.31-.16C411.34,173.22,411.35,172.22,410.71,172.3Z"/><path class="cls-9" d="M412.62,163.86a.51.51,0,0,0-.7-.07q-11.63.74-23.28,1.2a.47.47,0,0,0-.38.2.5.5,0,0,0-.41.46,13.51,13.51,0,0,0,.13,3.06c.06.41.48.44.75.24a.42.42,0,0,0,.48.47c7.65-.72,15.39,1,22.95-.83.63-.15.36-1.12-.27-1a30.31,30.31,0,0,1-5.07.75v-3.28c1.68-.1,3.35-.18,5-.29a8.84,8.84,0,0,1,.2,1.44c0,.64,1,.64,1,0a10.28,10.28,0,0,0-.28-1.87A.49.49,0,0,0,412.62,163.86Zm-6.8,4.57c-5.51.25-11.09-.53-16.61,0a.49.49,0,0,0-.26.11.51.51,0,0,0,0-.09,12.19,12.19,0,0,1-.1-2.46c5.66-.22,11.32-.51,17-.84Z"/><path class="cls-9" d="M370.8,156.08h-1.9a.5.5,0,0,0,0,1h1.9A.5.5,0,0,0,370.8,156.08Z"/><path class="cls-9" d="M371.24,176.42a4.66,4.66,0,0,0-1.75.12.5.5,0,0,0,.27,1,3.89,3.89,0,0,1,1.48-.09C371.87,177.5,371.87,176.5,371.24,176.42Z"/><path class="cls-9" d="M342.64,160.53l.16,15.64a.5.5,0,0,0,1,0l-.16-15.64A.5.5,0,0,0,342.64,160.53Z"/><path class="cls-9" d="M261.88,216.45l-4.68.55c-.63.07-.64,1.07,0,1l4.68-.55C262.51,217.37,262.52,216.37,261.88,216.45Z"/><path class="cls-9" d="M258.82,220.28a.5.5,0,0,0,.27,1,3.41,3.41,0,0,1,1.33-.12c.64.06.64-.94,0-1A4.21,4.21,0,0,0,258.82,220.28Z"/><path class="cls-9" d="M281.33,180.94a13.64,13.64,0,0,0-2.92.57c-.61.19-.35,1.16.27,1a12.39,12.39,0,0,1,2.65-.54C282,181.89,282,180.89,281.33,180.94Z"/><path class="cls-9" d="M283.51,112.79l-1.79-10.12c-.11-.63-1.08-.36-1,.27,1.27,7.2,3.63,14.91,2.57,22.22-.9,6.24-.53,11.91,2.55,17.54.31.56,1.17.06.86-.5l-.08-.15c9.64.69,19.17-1.2,28.78-1.63.64,0,.64-1,0-1-9.61.43-19.15,2.32-28.79,1.63a.41.41,0,0,0-.4.19,24.88,24.88,0,0,1-1.44-3.54l.12,0a115.16,115.16,0,0,0,13.46-.1c4.48-.38,8.94-1,13.43-1.32s9-.61,13.57-.75q3.4-.11,6.79-.13h2.91c1,0,2.77-.35,3.59.29.5.39,1.22-.31.71-.71-1.2-.93-2.84-.58-4.3-.58q-3.4,0-6.8.06-7.28.15-14.55.68c-4.82.35-9.61.92-14.42,1.38a112.58,112.58,0,0,1-14.41.19.44.44,0,0,0-.37.16,22.27,22.27,0,0,1-.82-5.33c-.1-3.33.86-6.55,1-9.86C284.79,118.7,284,115.7,283.51,112.79Z"/><path class="cls-9" d="M364.89,40.24c.43.48,1.13-.23.71-.71l-8.29-9.32c-.43-.48-1.13.23-.71.71Z"/><path class="cls-9" d="M374.26,17.83a.5.5,0,0,0,.86-.5A72.9,72.9,0,0,0,360.79.13c-.48-.42-1.19.28-.71.71A72.06,72.06,0,0,1,374.26,17.83Z"/><path class="cls-9" d="M482.11,87.73,484.83,85a.5.5,0,0,0-.71-.71L481.4,87A.5.5,0,0,0,482.11,87.73Z"/><path class="cls-9" d="M490.51,102.53l5.88-4.23c.52-.37,0-1.24-.5-.86L490,101.66C489.49,102,490,102.9,490.51,102.53Z"/><path class="cls-9" d="M228.82,176.67l-7,1.94a.5.5,0,0,0,.27,1l7-1.94A.5.5,0,0,0,228.82,176.67Z"/><path class="cls-9" d="M299.23,6.5c.21.61,1.17.35,1-.27l-.65-1.91c-.21-.61-1.17-.35-1,.27Z"/><path class="cls-9" d="M256.56,287.89l-1.91,2.55c-.39.52.48,1,.86.5l1.91-2.55C257.81,287.88,256.94,287.38,256.56,287.89Z"/><path class="cls-9" d="M299.35,299.41,298.07,302c-.29.57.58,1.08.86.5l1.28-2.55C300.5,299.34,299.64,298.84,299.35,299.41Z"/><path class="cls-9" d="M445.68,290.41c-.3-.57-1.17-.06-.86.5l4.17,7.81c.3.57,1.17.06.86-.5Z"/><path class="cls-9" d="M425.89,302c-.21-.6-1.18-.34-1,.27l1.35,3.8c.21.6,1.18.34,1-.27Z"/><path class="cls-9" d="M478.5,238.3c.51-.38,0-1.25-.5-.86a2.85,2.85,0,0,0-.72,3.85c.36.53,1.22,0,.86-.5A1.84,1.84,0,0,1,478.5,238.3Z"/><path class="cls-9" d="M255.18,224.34a.5.5,0,0,0,0-1A.5.5,0,0,0,255.18,224.34Z"/><path class="cls-9" d="M225.37,236.6q-42.71,3.72-85.63,3.44a.5.5,0,0,0,0,1q42.87.29,85.63-3.44C226,237.55,226,236.55,225.37,236.6Z"/><path class="cls-9" d="M131.91,239.89,29.85,236.7.48,235.79c-.64,0-.64,1,0,1L102.54,240l29.37.92C132.55,240.91,132.55,239.91,131.91,239.89Z"/><path class="cls-9" d="M743.35,232.1C692.14,230,641,233.74,589.78,235.23c-14.52.42-29.05.65-43.58.53a.46.46,0,0,0-.28.09h-.05L495.93,237a.5.5,0,0,0,0,1l49.94-1.14a.47.47,0,0,0,.27-.09h.06c51.37.43,102.63-3.72,154-4.26,14.39-.15,28.78,0,43.16.6C744,233.12,744,232.12,743.35,232.1Z"/><path class="cls-9" d="M636,160.44a44.17,44.17,0,0,0,16.06,5.06c4.94.47,11.06.14,15.17-3,7.82-5.94,2-17.43-4.89-21.43l13.09-8.29c.54-.34,0-1.21-.5-.86l-14.42,9.13c-.54.34,0,1.21.5.86l.36-.23c7.91,4.18,13.07,17.63,2.15,21.66-8.81,3.25-19.06.36-27-3.78C635.93,159.28,635.43,160.15,636,160.44Z"/><path class="cls-9" d="M683.75,148.62c.09.63,1.06.36,1-.27a25.49,25.49,0,0,0-7.58-14.74c-.46-.45-1.17.26-.71.71A24.64,24.64,0,0,1,683.75,148.62Z"/><path class="cls-9" d="M672.5,158.4l11-6c.57-.31.06-1.17-.5-.86l-11,6C671.43,157.84,671.94,158.71,672.5,158.4Z"/><path class="cls-9" d="M640.91,158.52l21.54-6.77a.46.46,0,0,0,0,.84,13.9,13.9,0,0,0,6.34,1.36.5.5,0,0,0,0-1,12.76,12.76,0,0,1-5.83-1.22.51.51,0,0,0-.25,0l.26-.08c.61-.19.35-1.16-.27-1l-22,6.92C640,157.75,640.29,158.71,640.91,158.52Z"/><path class="cls-9" d="M675.34,150.24c-.39.51.48,1,.86.5a5.16,5.16,0,0,1,2.68-1.81.5.5,0,0,0-.27-1A6.28,6.28,0,0,0,675.34,150.24Z"/><path class="cls-9" d="M678.11,146.84a3.6,3.6,0,0,1,2.65-.86c.64,0,.64-1,0-1a4.61,4.61,0,0,0-3.35,1.15C676.92,146.55,677.63,147.26,678.11,146.84Z"/><path class="cls-9" d="M671.53,140.94a14.12,14.12,0,0,1,4.86-2c.63-.13.36-1.1-.27-1a14.91,14.91,0,0,0-5.09,2.13C670.49,140.42,671,141.29,671.53,140.94Z"/><path class="cls-9" d="M692.77,155.62l.5-2a.5.5,0,0,0-1-.27l-.5,2A.5.5,0,0,0,692.77,155.62Z"/><path class="cls-9" d="M570,135.37a205.09,205.09,0,0,0,38,17.29c.61.21.87-.76.27-1a203.74,203.74,0,0,1-37.79-17.19A.5.5,0,0,0,570,135.37Z"/><path class="cls-9" d="M152.48,102.45A152.32,152.32,0,0,1,112.4,95c-.61-.2-.88.76-.27,1a153.33,153.33,0,0,0,41.75,7.57.5.5,0,0,0,.35-.85A73.76,73.76,0,0,1,141.45,88.9c-.37-.52-1.24,0-.86.5A74.79,74.79,0,0,0,152.48,102.45Z"/><path class="cls-9" d="M106.49,81.95a59.87,59.87,0,0,0,30.77,7c.64,0,.64-1,0-1A58.84,58.84,0,0,1,107,81.08C106.43,80.78,105.92,81.64,106.49,81.95Z"/><path class="cls-9" d="M112.64,93.1a20,20,0,0,1-5.13-8.69.5.5,0,0,0-1,.27,21.07,21.07,0,0,0,5.39,9.13A.5.5,0,0,0,112.64,93.1Z"/><path class="cls-9" d="M114.74,89a4.35,4.35,0,0,0,2.9,4.45c.61.22.87-.75.27-1A3.35,3.35,0,0,1,115.74,89C115.8,88.34,114.8,88.35,114.74,89Z"/><path class="cls-9" d="M121.69,93.73l-1.5-3c-.29-.58-1.15-.07-.86.5l1.5,3C121.12,94.81,122,94.31,121.69,93.73Z"/><path class="cls-9" d="M88.91,69.84c.49.41,1.2-.29.71-.71l-3-2.5c-.49-.41-1.2.29-.71.71Z"/><path class="cls-9" d="M82.5,85.71a4,4,0,0,1,4.07-.63c.6.23.86-.74.27-1a5.05,5.05,0,0,0-5,.89C81.3,85.42,82,86.12,82.5,85.71Z"/><path class="cls-9" d="M157.76,93a88.16,88.16,0,0,0,19.63-1.07c.63-.11.36-1.07-.27-1a86.92,86.92,0,0,1-19.37,1C157.11,92,157.12,93,157.76,93Z"/><path class="cls-9" d="M127.73,163.35a.5.5,0,0,0-1,.27,42.62,42.62,0,0,0,14.62,21.74c.5.39,1.21-.31.71-.71A41.7,41.7,0,0,1,127.73,163.35Z"/><path class="cls-9" d="M100.76,165a169.14,169.14,0,0,0,24-1c.63-.07.64-1.07,0-1a169.14,169.14,0,0,1-24,1C100.12,164,100.12,165,100.76,165Z"/><path class="cls-9" d="M142.76,189a77.81,77.81,0,0,1-25.39-.83c-.63-.12-.9.84-.27,1a78.64,78.64,0,0,0,25.66.86C143.39,189.88,143.39,188.88,142.76,189Z"/><path class="cls-9" d="M103.75,169.7c-.3-.57-1.16-.07-.86.5a38.07,38.07,0,0,0,17.51,17c.58.27,1.09-.59.5-.86A37.17,37.17,0,0,1,103.75,169.7Z"/><path class="cls-9" d="M122.26,170a.5.5,0,0,0,0-1h-4a.5.5,0,0,0,0,1Z"/><path class="cls-9" d="M124.91,171.45a11.92,11.92,0,0,0-5.28-.42c-.63.09-.36,1.05.27,1a10.79,10.79,0,0,1,4.75.42C125.26,172.61,125.52,171.64,124.91,171.45Z"/><path class="cls-9" d="M123,175.34a3.29,3.29,0,0,1,2.64-.31.5.5,0,0,0,.27-1,4.31,4.31,0,0,0-3.41.41A.5.5,0,0,0,123,175.34Z"/><path class="cls-9" d="M141.1,198.82c.43-.48-.28-1.19-.71-.71a8.37,8.37,0,0,0-2.11,4.87c-.06.64.94.64,1,0A7.22,7.22,0,0,1,141.1,198.82Z"/><path class="cls-9" d="M81.14,152.91l7,1c.63.09.9-.87.27-1l-7-1C80.77,151.85,80.5,152.81,81.14,152.91Z"/><path class="cls-9" d="M92,182.42l2-1.5c.51-.38,0-1.25-.5-.86l-2,1.5C91,181.93,91.5,182.8,92,182.42Z"/><path class="cls-3" d="M138.43,295.62a3.42,3.42,0,0,0-1.92-4.12,116,116,0,0,0-18.25-5c-4.28-.86-8.51-1.87-12.79-1.62l-.28,0a2.38,2.38,0,0,0-1.1.16,19.22,19.22,0,0,0-2.51.47c-3.58.94-2.26,6.28,1.15,5.86a2.74,2.74,0,0,0,1.76,1.15q4.14,1,8.31,1.75A138.81,138.81,0,0,0,133.74,301a3.21,3.21,0,0,0,3.62-2.12A3,3,0,0,0,138.43,295.62Z"/><path class="cls-3" d="M62,273.44a2.71,2.71,0,0,0-2.12-2.54,3.68,3.68,0,0,0-2.2.09l-2.7-.65a3.15,3.15,0,0,0-1.42,0l-.31-.09c-3.72-1.06-5.31,4.73-1.6,5.79l4.77,1.36a2.84,2.84,0,0,0,1.38,0,3.22,3.22,0,0,0,2.91-.4A3.4,3.4,0,0,0,62,273.44Z"/><path class="cls-3" d="M689.65,266.32l-.37.12a3,3,0,0,0-1.19.13,3,3,0,0,0-2.72-.73c-.92.19-1.84.34-2.76.49a2.52,2.52,0,0,0-2.19-.79l-25.13,2a3,3,0,0,0-2.35,1.34c-2.1,1.08-2.59,4.5,0,5.38a2.34,2.34,0,0,0,1.66,1l.8.1h.06a81.6,81.6,0,0,0,13,.65,68.41,68.41,0,0,0,22.81-3.91C694.86,270.83,693.31,265,689.65,266.32Z"/><path class="cls-3" d="M571.76,273.48h-7.33c-3.86,0-3.87,6,0,6h7.33C575.62,279.48,575.63,273.48,571.76,273.48Z"/></g></g></svg>