<svg xmlns="http://www.w3.org/2000/svg" xmlns:xlink="http://www.w3.org/1999/xlink" width="332" height="406" viewBox="0 0 332 406"><defs><path id="a" d="M0 1.446v-1h1.95v1H0z"/></defs><g fill="none" fill-rule="evenodd"><path fill="#F2F2F2" d="M299.185 173.345c-.972-3.678-2.268-7.321-3.844-10.967-3.453-7.986-8.041-15.35-12.238-22.95a141.905 141.905 0 0 1-3.177-6.045c-.438-.895-1.976-4.687-1.36-2.972-.691-1.88-1.347-3.76-1.847-5.705-.217-.844-.366-1.7-.578-2.545-.05-.197-.093-.357-.132-.498.009-.15.017-.326.02-.56.019-1.318-.021-2.652-.013-3.973 0-.162.117-1.704.089-1.681.334-2.686.852-5.365 1.213-8.046 1.052-7.828.83-15.48-2.764-22.701-5.264-10.571-15.591-15.085-26.036-19.003-.851-.318-1.698-.642-2.548-.961a28.102 28.102 0 0 0-.642-.234 23.55 23.55 0 0 0-.566-.346c-1.421-.847-2.847-1.692-4.264-2.546-.135-.082-.24-.142-.35-.206l-.024-.027c-.737-.743-1.632-1.377-2.412-2.08-1.595-1.437-3.128-2.946-4.637-4.475-6.55-6.627-12.726-13.503-20.551-18.705-9.39-6.241-20.435-7.93-31.394-5.74-11.635 2.324-23.114 7.303-34.358 11.057-22.077 7.37-44.535 15.019-64.527 27.158-9.88 5.998-21.173 13.19-26.306 23.968-1.395 2.927-2.435 5.878-3.291 8.98-.282 1.023-.525 2.062-.836 3.077-.094.308-1.14 2.645-1.09 2.697-2.004 3.7-4.396 7.122-6.94 10.482-5.71 7.544-11.515 15.16-13.677 24.603-3.003 13.12 1.705 24.615 7.023 36.377.164.364.969 2.292.965 2.232a42.32 42.32 0 0 1 1.712 5.404c.034.139.552 3.754.532 2.988a55.93 55.93 0 0 1 .126 5.478 74.369 74.369 0 0 1-.28 4.789c-.04.434-.441 3.676-.336 3.046-1.571 10.767-4.204 21.429-4.516 32.348-.366 12.867 3.737 23.823 9.149 35.256.593 1.252 1.224 2.498 1.753 3.779.093.269.208.61.359 1.06.442 1.319.855 2.632 1.184 3.984.114.466.512 2.4.539 2.282.636 4.909.386 9.984.419 14.91.078 11.374 1.12 23.248 7.423 33.073 5.609 8.745 14.199 14.668 23.36 19.21 3.794 1.883 7.663 3.622 11.38 5.656 1.64.896 3.33 2.433 5.053 3.055.085.03.143.046.206.064.082.08.156.153.258.249.94.883 1.85 1.783 2.768 2.689l.092.099c.57.897 1.132 1.79 1.649 2.722.993 1.787 1.86 3.637 2.728 5.487 2.309 4.929 4.669 9.429 8.129 13.678 16.673 20.479 44.972 10.94 63.755-.525 3.813-2.328 7.56-4.762 11.41-7.032 2.126-1.253 4.279-2.464 6.485-3.57.57-.286 1.149-.554 1.724-.826-.173.116 2.19-.888 2.646-1.041 10.21-3.45 21.083-3.775 30.578-9.416 9.98-5.93 14.868-15.482 20.015-25.374.983-1.891 2.025-3.733 3.193-5.516a3.62 3.62 0 0 0 .22-.371l.382-.343c.397-.362.779-.736 1.163-1.108.356-.28.977-.758 1.333-.95.96-.511 1.882-1.098 2.852-1.601 1.963-1.02 3.995-1.902 6.022-2.784 9.267-4.032 18.408-8.774 23.683-17.89 6.378-11.02 6.145-25.143 5.632-37.501-.453-10.925-1.552-21.853-.57-32.782.032-.354.058-.651.079-.903.034-.091.09-.324.177-.777.263-1.364.54-2.723.895-4.067.285-1.081.636-2.128.947-3.2.136-.468.238-.832.315-1.118a5.93 5.93 0 0 0 .333-.652c2.704-5.841 6.36-10.99 8.428-17.167 3.88-11.591 1.488-22.811-4.292-32.457"/><path fill="#FFF" d="M72.874 59.098a11.67 11.67 0 0 0-3.844-.526c-.208-1.09-.408-2.261-.388-3.302.487-.206.99-.39 1.494-.574 1.291.02 2.595-.03 3.89-.011l2.718.037c-1.586 1.186-2.936 2.65-3.87 4.376m36.866 49.396c.562-3.08.675-6.096.363-9.182.18-.552.29-1.16.307-1.826l1.265-44.964c.111-3.94-3.779-6.17-7.13-5.872-.969-.011-1.91.187-2.728.61-2.589-2.356-5.948-3.798-9.852-3.622-3.69.165-7.475 1.689-10.388 4.15-1.678-.023-3.355-.045-5.033-.07-.903-.012-2.216.12-3.566.215a3.135 3.135 0 0 0-1.385-.683c-2.189-.484-3.934-.483-6.105.036-1.512.364-2.448 1.875-2.529 3.374a4.704 4.704 0 0 0-.565.76c-1.068.749-1.79 2.036-1.509 3.66a42.691 42.691 0 0 0 1.117 4.823l.08.345c.067.289.161.547.274.784.028.083.051.167.08.25-1.095 1.066-1.993 2.454-2.562 4.219-1.06 3.285-1.553 6.59-1.71 9.916-.475.549-.772 1.288-.738 2.243.518 14.575-.018 29.458-3.527 43.667-.814 3.295 2.816 5.164 5.118 4.012a757.751 757.751 0 0 0 46.21-2.507c.594.302 1.228.464 2.022.46 2.385-.011 3.84-2.218 3.375-4.43-.757-3.616-1.556-6.681-.884-10.368m88.13-66.926c-7.409 2.35-15.904 2.32-23.742 2.889-3.011-.014-6.017.036-9.022.194l-16.512.3c-.011 0-.02.004-.031.004-2.05-.16-3.841 2.287-2.861 4.558.165.384.335.688.52.973.175.588.352 1.174.528 1.76a3.387 3.387 0 0 0-.483 1.947c.212 3.924-1.167 7.83-1.317 11.796-.113 2.998-1.43 5.615-.716 8.52-.004.049-.01.1-.013.148-.47 4.136-.206 8.254.439 12.353-.136 11.261-.404 22.52-.678 33.78-2.042 2.17-1.112 6.813 2.805 6.898 16.24.36 32.464-.145 48.65-1.517 3.67-.31 4.704-4.543 3.08-6.727.162-.442.266-.938.268-1.51.013-4.751-.663-9.218-.059-13.97.508-3.986 1.113-7.96 1.67-11.94.123-.885-.053-1.73-.411-2.478.005-.077.027-.145.028-.223l.001-.054c.706-.66 1.136-1.58 1.024-2.735-.544-5.568-1.563-11.475-1.99-17.302.322-.334.552-.766.63-1.302.505-3.495 1.03-6.996 1.303-10.517.309-3.993-.362-8.246.579-12.156.514-2.133-1.43-4.407-3.69-3.69m83.42 79.942l.005-.002c1.97-1.1 1.927-4.072 0-5.182a5.105 5.105 0 0 0-.926-.402c.322-1.193-.045-2.512-.932-3.254l2.074-1.785c1.878-1.615.898-3.705-.807-4.563.062-.166.127-.33.18-.5.455-1.465-.392-2.801-1.587-3.43.108-.332.223-.66.322-1 .484-1.667-.403-2.92-1.659-3.426.673-1.874 1.145-3.743.67-5.701a.18.18 0 0 1 .01-.033c.236-.906.08-1.68-.303-2.285.762-.906 1.091-2.214.467-3.443-3.382-6.654-7.694-12.614-12.916-17.945-1.07-1.092-2.366-1.088-3.384-.522-.18-.256-.36-.511-.539-.768-.895-1.282-2.265-1.558-3.434-1.215-.027-.072-.057-.142-.085-.215-.457-1.25-1.536-1.931-2.647-2.063a3.188 3.188 0 0 0-2.232-1.25c-.25-2.444-2.875-3.123-4.607-1.997-.626.049-1.254.32-1.797.882l-.638.66c-.718-.793-1.888-1.23-3.05-1.036-.639-1.048-1.825-1.72-3.227-1.234a20.1 20.1 0 0 0-1.757.705c-.765-.082-1.583.142-2.312.826l-1.952 1.83c-.019.02-.03.039-.049.057-1.33 1.25-2.643 2.627-3.138 4.264-.018.056-.028.117-.044.173-.214.295-.38.655-.477 1.08-1.476 6.393-1.455 12.775-1.039 19.23-.58 7.54-.239 14.992.94 22.45-.555 4.88-1.462 9.72-2.564 14.433-.717 3.069 3.011 4.697 4.88 3.138 8.115.85 16.254 1.306 24.416 1.246 7.743-.058 15.797-.094 23.273-2.322 2.701-.804 2.577-4.112.865-5.401m-169.95 88.424c-.08-.22-.172-.418-.256-.63-.02-.163-.03-.325-.056-.49-.127-.855-.525-1.423-1.048-1.768a12.256 12.256 0 0 0-1.518-2.043l-.469-.767c.212-.682.151-1.474-.34-2.296-2.2-3.688-4.65-7.194-7.172-10.66l-4.907-9.13c-.406-.756-.977-1.187-1.597-1.372a3.457 3.457 0 0 0-.255-.615 75.335 75.335 0 0 1-7.296-17.61c-.62-2.267-4.424-3.191-5.483-.717-2.174 5.077-4.296 10.18-6.194 15.367-5.94 9.583-13.223 19.192-17.64 29.558a3.486 3.486 0 0 0-.209.66 42.151 42.151 0 0 0-.81 1.808 2.646 2.646 0 0 0-.218.514c-.942.41-1.674 1.273-1.69 2.614-.134 10.72.525 21.814-1.924 32.319-.399 1.707.857 4.026 2.893 3.798 8.594-.961 17.256-2.02 25.918-1.491 4.29.26 8.506 1.002 12.818.839 4.473-.17 8.755-.9 13.235-.3 2.602.349 3.408-2.332 2.462-4.234a3.13 3.13 0 0 0 .161-1.61c-.974-6.155-.818-12.213.288-18.335.706-3.905 1.373-7.56 1.26-11.401.264-.565.324-1.242.046-2.008m89.153 36.573c-.82-1.553-1.45-3.173-1.985-4.827a3.1 3.1 0 0 0 .218-1.028l.71-19.478a2.948 2.948 0 0 0-.345-1.553c.168-.963.318-1.931.437-2.913.58-.645.875-1.549.57-2.645-.667-2.409-1.843-4.735-3.166-6.998-2.698-5.613-6.098-10.991-9.428-16.324-2.135-6.188-5.122-11.899-8.922-17.184.275-.895.097-1.902-.842-2.736-1.971-1.751-2.933-3.523-3.395-6.114-.563-3.146-4.905-2.54-5.787 0a52.65 52.65 0 0 1-1.493 3.76c-.39.253-.737.635-.985 1.207-1.52 3.592-3.27 7.068-5.088 10.51a355.787 355.787 0 0 0-2.176 3.904 874.95 874.95 0 0 1-12.117 19.49c-.576.899-.597 1.765-.296 2.491-.068.131-.14.259-.21.39-3.627 3.014-5.083 7.177-4.02 11.974.036.155.088.292.139.428.139 3.358.278 6.714.415 10.071.053 2.498.153 4.997.293 7.496-.385.465-.641 1.081-.665 1.865-.036 1.229-.041 2.455-.05 3.682a25.983 25.983 0 0 1-.968 5.375c-.507 1.732.519 3.06 1.914 3.519.9.931 2.349 1.274 3.638.531 6.358-3.667 16.914-2.831 24.086-2.963 8.363-.154 17.999.452 26.13 2.477 2.598.647 4.612-2.091 3.388-4.407m68.76-12.16a3.336 3.336 0 0 0-.508-1.492c-.008-.138-.006-.272-.014-.41a3.36 3.36 0 0 0-.173-.831c.258-3.742.314-7.48.176-11.233a57.04 57.04 0 0 0 .05-4.738 3.29 3.29 0 0 0-.204-1.024c.583-.884.754-2.062.182-3.15a150.852 150.852 0 0 0-5.547-9.656c-.899-2.96-2.068-5.831-3.332-8.664a46.775 46.775 0 0 0-3.459-7.513c-.526-.922-1.26-1.362-2.02-1.464a87.61 87.61 0 0 0-.419-1 116.37 116.37 0 0 0-4.368-9.508c.355-.267.541-.726.226-1.222l-1.652-2.6a51.903 51.903 0 0 1-3.672-7.364c-.046-.37-.099-.74-.142-1.11-.145-1.251-2.102-1.301-2 0l.074.953c.01.113.048.203.084.297.004.033.01.066.013.099.001.066-.013.123 0 .193l.104.635c.256 1.987.557 3.965.883 5.94-.039.1-.077.202-.083.326-.026.536-.033 1.07-.05 1.607-.516.649-.73 1.506-.354 2.479l.315.814c.02 2.52.14 5.035.38 7.55l-.662 23.559c-.013.46.066.862.206 1.213a217.768 217.768 0 0 0-.11 5.543 3.182 3.182 0 0 0-.297 1.092c-.233 2.725-.414 5.45-.569 8.176a3.499 3.499 0 0 0-.125.832l-.099 3.774a283.313 283.313 0 0 0-.23 8.848c-.012 1.102.463 1.886 1.15 2.359l-1.1 8.625a4.503 4.503 0 0 0-.07.497l-.018.192c-.207 2.46 2.041 3.3 3.852 2.65a2.257 2.257 0 0 1-.038.05c.976-.355 2.881.188 3.99.249l5.24.289 9.734.537c1.171.065 1.98-.447 2.438-1.192.48-.343.87-.853 1.086-1.563.23-.758.42-1.508.581-2.26.02-.073.05-.14.063-.22.042-.247.066-.49.105-.736.103-.584.19-1.171.252-1.76.344-2.878.416-5.708.131-8.668m33.33 81.318c-.71-1.715-1.665-3.028-3.093-4.214-1.214-1.008-2.568-1.816-3.244-3.293-.773-1.689-3.456-1.947-4.669-.642-.145.082-.292.163-.432.272l-1.108.901a17.464 17.464 0 0 0-2.926 2.213c.147-6.12-1.033-12.823-7.52-12.814-2.012.004-4.065 1.168-6.045 1.584-2.554.535-5.179.725-7.705 1.393-2.43.642-4.54 1.626-6.39 3.024-.949-.223-2.015.028-2.708 1.05a324.224 324.224 0 0 1-14.31 19.512c-.046.056-.073.115-.112.171a434.013 434.013 0 0 0-12.109 16.462c-.8.891-1.593 1.761-2.39 2.64a1.314 1.314 0 0 0-.936.428l-5.543 5.94c-.03.032-.05.066-.077.1a66.466 66.466 0 0 1-5.61 3.751c-1.425.846-.5 3.287 1.156 2.742l1.371-.45a1.45 1.45 0 0 0 .831-.664c.1-.025.202-.06.304-.107.43-.2.861-.39 1.293-.575.2.041.407.057.622.011a245.684 245.684 0 0 0 9.145-2.146c.413.017.848-.063 1.281-.278.07-.033.137-.064.204-.097a243.114 243.114 0 0 0 8.313-2.328c.553.254 1.216.331 1.973.115l21.64-6.162c6.92-1.97 14.15-4.872 21.332-5.563.142-.013.267-.049.398-.079 1.276.688 2.881.535 3.642-1.175 2.925-6.583 6.757-12.588 11.592-17.932.084-.094.142-.19.211-.286 1.212-.603 2.168-2.179 1.62-3.504m-130.822 34.569a2.825 2.825 0 0 0-.055-.63l-1.284-6.144c.836 2.989 1.63 5.99 2.33 9.02l-.99-2.246zm-9.875 7.439c-.104-.067-.213-.114-.32-.165-.01-.134-.047-.25-.072-.373.008-.02.02-.036.027-.056.233-.617.418-1.247.58-1.885.074.02.146.04.224.053a2.81 2.81 0 0 0-.478 1.617c.002.267.022.539.04.809zm-2.188 17.712c.027-.123.055-.243.081-.366.262-.036.521-.09.763-.183.11.22.247.44.374.662-.414-.04-.82-.08-1.218-.113zm31.03-3.63c-1.723-2.854-3.409-5.53-4.924-8.4a3.308 3.308 0 0 0-.102-.694c-2.636-10.372-5.448-20.67-10.13-30.308-1.187-6.047-3.668-11.595-6.496-17.097.164-.297.23-.651.121-1.033a104.27 104.27 0 0 0-4.098-11.768 1.6 1.6 0 0 0-1.669-1.013 171.455 171.455 0 0 1-.27-5.672c-.045-1.31-1.34-1.723-2.216-1.264-.038-.054-.093-.09-.138-.136l-.018-4.746c-.002-.547-.364-.847-.777-.93-.05-.491-.116-.98-.158-1.473-.109-1.261-2.042-1.303-2 0 .261 8.117-.114 16.18-1.126 24.237a.833.833 0 0 0 .082.494 2.42 2.42 0 0 0-.215 1.036c.083 7.713.04 15.424-.102 23.136l-2.412 25.193c-.01.119-.002.225.001.335l-1.799 14.274c-.056.449.007.847.15 1.2-1.975 2.45.977 6.004 3.856 4.443 2.16-1.171 6.425.135 8.78.193a51.886 51.886 0 0 0 5.07-.138l2.25 3.84c.433.74 1.123 1.168 1.872 1.333.336.37.694.734 1.094 1.086 1.1.969 3.198 1.344 4.243 0 3.096-3.982 6.743-6.755 10.32-10.193 1.974-1.897 2.27-3.514.81-5.934zM93.18 333.978c-.163-2.607-2.41-3.198-3.929-5.07.057-.48-.064-1-.458-1.53-1.044-1.404-2.062-2.826-3.093-4.24-2.056-6.005-4.634-11.664-9.193-16.271-.015-.016-.034-.027-.05-.041-.166-.478-.332-.955-.494-1.434-.45-2.352-1.229-4.601-2.155-6.88-.362-.89-1.047-1.4-1.793-1.594-1.438-2.798-2.683-5.665-3.413-8.78-.26-1.11-1.96-.85-1.965.267l-.005 1.163c-.398.086-.72.38-.663.917a75.31 75.31 0 0 0 .64 4.613 2.669 2.669 0 0 0-.302 1.259 39.19 39.19 0 0 0 .13 3.436c-.042 1.38-.147 2.773-.2 4.163-.41.407-.662.97-.604 1.689l.36 4.454c-1.27 7.943-2.09 15.856-1.089 23.894a249.35 249.35 0 0 0-.412 12.08c-.01 1.303 1.007 2.155 2.123 2.389.231 2.417 3.626 3.32 4.681 1.192.623.98 1.816 1.308 2.837 1.04.077.07.158.13.242.19.012.58.014 1.159.031 1.74.04 1.399 1.112 2.266 2.254 2.42 1.247.983 3.516.629 4-1.074.034.859.081 1.716.107 2.575.061 2.03 1.793 2.738 3.207 2.26.732.477 1.722.523 2.536.15l-.052.509c-.332 3.198 4.67 3.174 5 0 .65-6.248 1.217-12.471 1.1-18.725.494-2.216.761-4.503.621-6.761"/><path fill="#E35205" d="M285.88 64.695l-.216-.021c.135-.737-.072-1.552-.815-2.108-8.63-6.464-16.53-13.748-23.732-21.768-1.386-1.543-3.79.121-3.356 1.886-2.972 3.489-6.734 5.972-10.218 8.927-3.888 3.296-6.796 8.396-11.73 10.22-.834.308-1.245.98-1.33 1.684-.243.23-.468.478-.675.763a44.624 44.624 0 0 1-2.604 1.656c-1.044.618-.293 1.984.771 1.829 17.884-2.608 35.93-2.945 53.905-1.069 1.278.133 1.27-1.867 0-2M111.368 207.701c-1.613-2.237-3.23-4.472-4.841-6.71a2.358 2.358 0 0 0-.391-.605l-.225-.25c-.514-.713-1.03-1.426-1.543-2.139a1.802 1.802 0 0 0-.108-1.69 53.328 53.328 0 0 0-4.325-6.105c-.234-.393-.465-.787-.721-1.17a2.083 2.083 0 0 0-.82-.723 19.09 19.09 0 0 0-1.173-1.875 61.384 61.384 0 0 0-1.647-2.884 25.132 25.132 0 0 0-3.43-5.702 26.973 26.973 0 0 1-.564-1.549 2.426 2.426 0 0 0-.223-.484 1.817 1.817 0 0 0-.135-.56c-.067-.164-.144-.313-.213-.473l.012-.006c-.02-.03-.038-.063-.058-.095a25.606 25.606 0 0 0-1.434-2.826A43.07 43.07 0 0 0 88.204 169c-.33-.825-.648-1.655-.958-2.489a57.492 57.492 0 0 0-1.534-4.418c-.623-1.587-2.67-2.014-3.656-.478-.964 1.504-1.604 2.912-2.147 4.6a2.492 2.492 0 0 0-.082.365 1.907 1.907 0 0 0-.294.385c-2.708 4.726-6.915 10.345-8.464 15.93-5.671 6.985-10.05 14.894-15.47 22.078-.252.335-.36.666-.377.982-.758.657-1.462 1.387-2.067 2.241-1.49 2.106 1.977 4.107 3.453 2.02 2.35-3.322 7.864-5.003 11.384-6.772.942-.473 1.883-.946 2.825-1.41.282.073.593.1.934.054 3.313-.449 6.128-1.508 8.938-3.289.299-.19.499-.447.646-.725 1.194.506 2.306.81 3.58.98a64.93 64.93 0 0 0 7.226 3.254c1.76.83 3.518 1.66 5.265 2.517.317.155.627.22.923.221l2.606 1.356c.38.197.749.258 1.095.234a101.012 101.012 0 0 1 6.602 3.802c1.62 1.026 3.925-1.087 2.736-2.736m88.042 4.492a64.2 64.2 0 0 0-2.828-4.49 59.802 59.802 0 0 0-3.569-6.764c-.007-.085 0-.165-.02-.255-.48-2.227-1.445-3.977-2.726-5.845-.061-.102-.126-.203-.189-.304.22-.49.206-1.078-.218-1.679a2988.75 2988.75 0 0 0-2.035-2.89c-.667-1.388-1.414-2.707-2.276-3.867-.013-.024-.013-.053-.029-.078l-.143-.237a6.613 6.613 0 0 0-.456-1.197c.028-.376-.124-.782-.475-.945l-.124-.055a5.956 5.956 0 0 0-.34-.421 67.783 67.783 0 0 0-3.274-7.282c-.237-.454-.565-.731-.927-.877a17.503 17.503 0 0 0-.746-1.329 37.311 37.311 0 0 0-1.333-2.368c-.262-.424-.584-.697-.928-.847a28.752 28.752 0 0 0-3.66-5.94c.001-.016.005-.03.005-.047.174-1.642-2.375-2.755-3.413-1.413-5.597 7.222-9.957 15.056-13.107 23.63l-13.296 20.26c-.186.093-.362.196-.548.287-.93.448-1.157 1.258-.956 2.002l-.486.74c-1.073 1.637 1.09 3.865 2.738 2.737a43.019 43.019 0 0 0 5.104-4.09 387.823 387.823 0 0 0 4.153-2.017c.347.121.748.135 1.195-.026a27.613 27.613 0 0 0 6.605-3.414 2.07 2.07 0 0 0 1.036-.166c.963-.415 1.124-.547 1.802-1.346.123-.144.215-.298.293-.458 1.8-.341 3.363-.964 5.078-2.083.274-.178.474-.405.62-.651.077.01.152.026.236.029a9.886 9.886 0 0 1 2.496.208c.706.379 1.425.725 2.142 1.077 1.386 1.672 3.72 2.769 5.44 3.837 3.906 2.428 8.001 4.481 12.234 6.276.21.09.415.133.616.155l.017.029c.288.51.751.785 1.255.88.076.131.18.255.335.361l3.334 2.24c.858.577 1.84-.538 1.368-1.368m69.294-1.164c-.127-.085-.255-.166-.382-.252-.541-1.926-1.428-3.647-2.481-5.27a1.563 1.563 0 0 0-.132-.827c-.762-1.688-1.827-3.27-2.926-4.843.327-.42.443-.996.11-1.597a49.48 49.48 0 0 0-2.776-4.453 1.57 1.57 0 0 0-.49-.46c-.52-1.484-1.084-2.948-1.933-4.297-.052-.082-.125-.138-.19-.206a31.422 31.422 0 0 0-2.916-6.088c-.212-.343-.477-.547-.758-.653-.13-.34-.267-.675-.4-1.013a1.58 1.58 0 0 0-.179-.48c-.02-.036-.04-.07-.06-.102a86.576 86.576 0 0 0-2.066-4.722 1.2 1.2 0 0 0-.721-.64c-.227-.45-.436-.905-.67-1.35a1.573 1.573 0 0 0-.33-.433c-.022-.07-.029-.138-.069-.212l-3.21-5.974a1.05 1.05 0 0 0-.274-.335 99.615 99.615 0 0 0-2.233-5.822l-.005-.018-.002.001c-.034-.08-.063-.16-.097-.24-.463-1.091-2.048-.275-1.83.77a77.863 77.863 0 0 1 1.64 14.11c-.03.1-.06.203-.056.328l.035 1.382c-.273.22-.46.56-.4.988.254 1.78.472 3.561.663 5.344-.18.228-.298.528-.305.9l-.3 12.964c0 .035.007.064.008.099-.06.62-.129 1.24-.208 1.86-.155 1.213.996 1.644 1.922 1.316.067.356.298.685.755.906.888.428 1.776.857 2.663 1.287.206.098.403.151.59.173a132.088 132.088 0 0 1 18.499 10.45c1.605 1.084 3.108-1.514 1.514-2.591M92.397 331.411c-1.391-1.362-2.611-2.703-3.805-4.254l-.568-.82c-.018-.04-.027-.08-.05-.12a131.297 131.297 0 0 0-7.098-11.652 102.752 102.752 0 0 0-5.806-10.656c-.007-.018-.008-.035-.016-.054a274.551 274.551 0 0 0-3.868-7.945 75.997 75.997 0 0 0-2.771-6.438c-.018-.036-.042-.055-.063-.082a27.178 27.178 0 0 0-.263-1.543c-.111-.55-1.01-.43-.982.132.008.147.01.292.017.438l-.211.387c-.021.037-.023.071-.034.107-.161.141-.252.367-.13.613.079.156.152.314.229.47-.227.073-.406.286-.33.587.06.225.11.45.168.675a.57.57 0 0 0-.013.22c.015.098.033.195.047.292-.017.887-.017 1.772.02 2.655a.486.486 0 0 0-.136.321l-.015.28a.45.45 0 0 0-.356.461l-.001 5.694c-.276.167-.493.446-.568.892-.022.132-.031.266-.051.4h-.002v.008c-.596 3.971-.316 8.032 0 12.055-.166 1.471-.353 2.94-.575 4.407a.542.542 0 0 0 .009.214c-.495.927-.116 2.255.987 2.818.974.5 2.182.685 3.226.984l2.307.66a54.98 54.98 0 0 0 7.8 3.298c.05.017.097.021.147.033 2.567 1.562 5.088 3.16 7.57 4.566.35.198.688.24.994.182a54.073 54.073 0 0 1 2.069 1.836c1.406 1.32 3.506-.765 2.122-2.12m96.833 42.136c-1.08-2.459-1.375-4.67-1.931-7.256-.481-2.241-1.09-4.129-2.438-5.799a63.558 63.558 0 0 0-1.14-3.313c.073-.243.089-.523.008-.84a53.167 53.167 0 0 0-2.536-7.562 1.588 1.588 0 0 0-.41-.576 183.292 183.292 0 0 0-3.48-9.991 1.619 1.619 0 0 0-.304-.501 143.545 143.545 0 0 0-4.866-15.571 3.203 3.203 0 0 0-.447-.797 2.042 2.042 0 0 0-.217-1 120.39 120.39 0 0 1-4.227-9.431 2.046 2.046 0 0 0-.452-.672 19.185 19.185 0 0 0-1.771-4.665l-2.64-7.918c-.087-.262-.254-.455-.446-.617-.016-.061-.037-.12-.055-.181a.45.45 0 0 0 .253-.429c-.008-.69-.166-1.237-.546-1.817v-.001l-.338-1.08a.474.474 0 0 0-.188-.251l-.325-1.817a.8.8 0 0 0-.461-.614c-.094-.506-.155-1.02-.226-1.531a13.298 13.298 0 0 0-.154-1.08.392.392 0 0 0-.138-.231c-.17-.444-.932-.377-.963.19-.002.05-.001.099-.004.149a.572.572 0 0 0-.185.493c.133.924.179 1.825.176 2.748a.987.987 0 0 0-.435.738l-.017.189a.978.978 0 0 0-.304.666l-.254 5.194a.896.896 0 0 0 .15.553c-.004.773.037 1.546.115 2.318a124.813 124.813 0 0 0-.444 9.496 279.41 279.41 0 0 0-1.678 25.732l-.745 6.413-.641 5.522c-.062.524-.137 2.688-.196 3.682-.021.017-.044.028-.065.044l-.212.169c-1.377 1.093-.896 3.087 0 4.242l.228.294c.314.405.72.635 1.158.756.99 1.028 1.982 2.057 2.974 3.084.042.102.094.204.17.303l1.782 2.315 1.085 1.704a46.851 46.851 0 0 0 2.18 3.864c.028.14.067.283.137.429a33.76 33.76 0 0 0 1.126 2.13c.024.185.089.371.206.554a41.137 41.137 0 0 0 2.435 3.367 1.45 1.45 0 0 0 .167.707 126.374 126.374 0 0 0 5.087 8.779c.335.619.685 1.227 1.005 1.857.109.212.259.358.424.475.1.244.209.501.347.814.427.97 1.692.841 2.355.303 3.254-2.632 6.508-5.265 9.76-7.898 1.489-1.203 3.695-2.294 3.692-4.395-.002-.845-.823-1.716-1.14-2.439m106.684-67.08c-.847-.79-1.97-.71-2.829 0-9.005 7.44-18.999 13.71-28.996 19.87l-17.1 8.804a144.597 144.597 0 0 0 3.343-3.055c.433.106.911.014 1.323-.397a236.106 236.106 0 0 1 10.624-9.968c.354.019.725-.074 1.063-.346 3.657-2.923 7.23-5.941 10.765-9.008.237-.008.486-.087.741-.275a83.352 83.352 0 0 1 6.335-4.356l4.734-2.543c.791-.425 1.043-1.75.304-2.357-.089-.072-.91-.87-1.742-1.488a2.242 2.242 0 0 0-.313-.514 10.071 10.071 0 0 0-1.378-1.543c.061-.906-.65-1.854-1.832-1.578-.446.106-.724.182-.986.29a1.642 1.642 0 0 0-.49.195 259.627 259.627 0 0 1-21.504 6.203c-.498.12-.81.452-.959.85a1.526 1.526 0 0 0-1.406.659c-11.155 15.565-22.043 31.306-35.07 45.356a260.96 260.96 0 0 1-4.744 2.982c-1.5.918-.377 3.15 1.086 2.768.272.117.596.147.966.038 23.344-6.941 46.665-14.008 70.347-19.726a1.459 1.459 0 0 0 1.095-.667c1.557-2.313 3.352-4.597 4.635-7.08l.01-.015c.676-.79 1.341-1.587 1.94-2.43 2.223-3.126 4.145-6.491 6.181-9.742.275-.44.285-.866.141-1.23.037-.1.091-.196.124-.297 1.345-4.09-3.847-7.013-6.408-9.4"/><path fill="#071F2C" d="M112.544 43.251a926.897 926.897 0 0 0-3.078 79.05c-18.023.566-35.992 2.221-54.017 2.751a.499.499 0 0 0-.168.04c-.716-6.577.272-13.079 1.126-19.596.868-6.619 1.21-13.253 1.141-19.928-.14-13.337-1.557-26.628-1.398-39.969 9.034-.33 18.067-.662 27.1-.993v2.067c0 .643 1 .644 1 0V44.57l25.97-.95c.64-.024.643-1.024 0-1L56.083 44.6c-.216-.373-.923-.294-.933.25-.222 13.593 1.254 27.131 1.397 40.717.07 6.675-.275 13.308-1.14 19.928-.868 6.63-1.886 13.243-1.097 19.935.047.404.472.55.754.436.08.111.204.19.384.185 18.091-.532 36.126-2.197 54.214-2.758a.55.55 0 0 0 .648-.024h.048c.602-.02.634-.888.107-.984a926.957 926.957 0 0 1 3.078-79.035c.052-.64-.948-.638-1 0m89.351-.835c.033-.394-.33-.54-.63-.45.582-.112.575-1.046-.048-.987a966.499 966.499 0 0 1-56.073 3.768.508.508 0 0 0-.482.634c1.534 6.461.536 12.946-.533 19.396-.98 5.91-1.681 11.705-1.403 17.711.288 6.215 1.18 12.391 1.275 18.616.109 7.03-.854 14.008-1.823 20.953-.088.63.875.902.964.265.914-6.55 1.84-13.128 1.869-19.754.03-6.718-.971-13.379-1.285-20.08-.184-3.947.092-7.794.56-11.636.02-.02.044-.03.06-.054a2.995 2.995 0 0 1 1.53-1.04c.616-.186.354-1.15-.264-.964a4.043 4.043 0 0 0-1.133.546c.293-2.177.634-4.356.985-6.556.91-5.684 1.494-11.396.28-17.063 8.434-.326 16.86-.773 25.282-1.319-.49.434-.978.87-1.466 1.303-.482.43.228 1.135.707.708.395-.35.789-.702 1.184-1.054-.17 3.262.398 6.438.742 9.672.343 3.217.392 6.465.137 9.691-.533 6.703-2.351 13.298-2.046 20.061.296 6.58 1.68 13.04 1.82 19.652.15 7.093-.46 14.167-1.745 21.142-9.512.251-19.02.61-28.524 1.081-.64.031-.644 1.031 0 1a1226.298 1226.298 0 0 1 58.13-1.507c.644-.002.646-1.002 0-1-9.532.021-19.063.156-28.591.4 1.18-6.498 1.798-13.079 1.752-19.687-.047-6.807-1.322-13.399-1.79-20.159-.466-6.764 1.27-13.356 1.91-20.047a53.229 53.229 0 0 0-.053-10.627c-.348-3.312-.944-6.554-.735-9.898a.417.417 0 0 0-.262-.437l.186-.165a.438.438 0 0 0 .136-.219h.03a.435.435 0 0 0 .09.557c.639.596 1.357 1.083 1.929 1.75.42.488 1.124-.222.707-.707-.542-.632-1.213-1.105-1.825-1.659a966.151 966.151 0 0 0 27.768-2.274c.009 0 .015-.005.023-.006a.501.501 0 0 0-.345.443c-.583 6.748-1.168 13.502-1.387 20.273a135.137 135.137 0 0 0-.051 3.82c-.033-.043-.064-.086-.113-.12l-1.55-1.108c-.524-.375-1.024.492-.504.864l1.549 1.107c.243.173.475.076.609-.109-.004 5.263.224 10.521.324 15.788.26 13.696-2.077 27.312-1.406 41.006.03.641 1.03.644 1 0-.671-13.694 1.662-27.31 1.406-41.006-.123-6.59-.475-13.165-.278-19.758.207-6.934.804-13.848 1.4-20.757m28.09 76.26c.43-2.192.619-4.344.704-6.576.184-4.8.042-9.605-.157-14.402-.1-2.376-.21-4.754-.307-7.132.474.055 1.009-.107.997-.687-.011-.588-.602-.817-1.043-.537-.273-7.212-.346-14.426.595-21.603a.47.47 0 0 0 .193.027c4.19-.29 8.38-.522 12.573-.707l-.401.602c-.357.537.508 1.038.864.505l.776-1.166c4.516-.188 9.03-.314 13.548-.378-.071 5.687 1.072 11.406 1.143 17.096.186 14.663-2.477 29.167-3.378 43.77-8.931-.123-17.864-.244-26.795-.366-.54-2.885.132-5.616.688-8.446m-1.633 8.845a.447.447 0 0 0 .11.218c.047.201.197.375.462.378l56.202.766c.644.009.644-.991 0-1l-28.035-.382c.9-14.607 3.565-29.115 3.379-43.783-.071-5.696-1.21-11.414-1.14-17.105 4.41-.054 8.82-.05 13.23.016a.544.544 0 0 0 .045.221c.223.516.444 1.033.666 1.549.253.589 1.115.081.863-.504l-.534-1.243c4.155.072 8.309.19 12.465.37.644.028.642-.972 0-1a480.909 480.909 0 0 0-26.713-.409c.034-.876.1-1.751.205-2.625.892-7.355 1.265-14.472 1.07-21.889a.503.503 0 0 0-.055-.22c5.715 5.41 11.43 10.818 17.144 16.229l4.638 4.389c1.359 1.286 3.184 2.575 4.083 4.243 1.123 2.084.492 5.143.36 7.413l-.37 6.287c-.882 15.108-2.457 30.319-1.247 45.447.05.637 1.05.643 1 0-1.285-16.076.479-32.295 1.418-48.35.189-3.213 1.252-7.546.033-10.613-.616-1.55-1.967-2.667-3.143-3.783-1.662-1.579-3.33-3.153-4.994-4.728l-19.263-18.233c-.358-.339-.852-.004-.856.371-9.057 9.195-18.693 17.727-28.797 25.754-.504.399.208 1.103.707.707 10.075-8.003 19.682-16.508 28.716-25.674l.364.346c-.3-.154-.75-.021-.737.415.195 7.419-.17 14.527-1.071 21.889a31.86 31.86 0 0 0-.207 2.633c-9.131.129-18.258.513-27.383 1.145a.517.517 0 0 0-.221.066c-.228-.332-.808-.383-.875.106-1.414 10.222-.766 20.495-.34 30.76.214 5.117.359 10.243.117 15.36-.227 4.822-2.26 9.636-1.296 14.463m-118.206 91.018a148.288 148.288 0 0 0-.982 9.264c-.48 6.408-.515 12.833-.181 19.248-.041-.015-.08-.033-.13-.037a259.529 259.529 0 0 0-26.537-.82c.715-7.026 1.02-14.086.829-21.149-.2-7.4-1.066-14.76-.755-22.174.058-1.349.144-2.696.242-4.044a195.56 195.56 0 0 0 28.166 12.146.429.429 0 0 0 .4-.05c-.141 2.553-.704 5.09-1.052 7.616m-56.66 29.824a.519.519 0 0 0-.315.167c-.28-12.343.038-24.684.947-36.996a289.155 289.155 0 0 1 27.534-12.987 127.678 127.678 0 0 0-.298 5.277c-.24 7.09.602 14.141.79 21.221.19 7.067-.114 14.13-.83 21.16-9.3.221-18.588.938-27.828 2.158m.699-38.88c10.17-15.77 20.287-31.603 28.818-48.335 1.9 12.054-.25 24.091-1.248 36.144-.228-.014-.415.146-.494.343a291.925 291.925 0 0 0-27.06 12.728c.016-.206.029-.412.046-.619a.45.45 0 0 0-.062-.262m56.44-.929c.14.252.387.283.592.2-.001.016-.008.028-.007.047.025.436.03.871.023 1.305a.524.524 0 0 0-.17-.097 193.752 193.752 0 0 1-28.353-12.267c.972-12.254 3.183-24.468 1.278-36.73 4.958 6.371 6.617 14.782 10.946 21.581 5.452 8.563 10.767 17.072 15.69 25.961m.918-.21a.47.47 0 0 0-.053-.294c-2.536-4.578-5.072-9.156-7.76-13.647-2.671-4.463-5.7-8.684-8.431-13.106-4.455-7.217-5.995-16.069-11.817-22.443-.416-.456-1.07.172-.745.644-8.828 17.508-19.434 34.011-30.051 50.468-.254.392.13.76.493.73-.007.082-.012.165-.018.248-.168.167-.16.405-.042.586a384.32 384.32 0 0 0-.936 37.58c.014.582.827.633.97.16a.394.394 0 0 0 .334.094 259.81 259.81 0 0 1 27.736-2.157l-.018.198c-.07.64.93.634 1 0l.019-.209c8.878-.179 17.766.085 26.63.82a.435.435 0 0 0 .299-.085c.283.281.88.178.853-.325-.366-6.599-.334-13.21.159-19.802.259-3.49.642-6.97 1.15-10.434.42-2.853 1.06-5.67.896-8.569-.021-.38-.384-.532-.668-.458m45.064-22.193c4.399-8.052 8.735-16.162 14.05-23.652.045.859.088 1.718.13 2.577.034.64 1.034.644 1 0-.045-.918-.091-1.835-.138-2.753 11.03 15.973 18.546 33.982 28.175 50.779.04.07.092.124.146.162a.568.568 0 0 0-.19.094 336.031 336.031 0 0 1-27.548-15.241c-.08-.23-.314-.411-.59-.356-.065-.041-.133-.08-.198-.12-.007-.004-.014-.003-.022-.008v-.468c0-.644-1-.645-1 0v1.168a1129.52 1129.52 0 0 0-28.34 14.408l14.525-26.59zm44.08 26.446c-9.828-17.144-17.447-35.555-28.857-51.772.215-.425-.352-.803-.743-.57-.274.038-.511.269-.443.546-5.713 7.816-10.267 16.366-14.9 24.845l-14.77 27.036a.46.46 0 0 0-.015.437c-.163.063-.283.208-.263.44a251.36 251.36 0 0 1 .416 37.03c-.04.642.96.64 1 0a251.226 251.226 0 0 0-.38-36.54 1133.258 1133.258 0 0 1 28.762-14.638c.22.374.928.295.928-.25v-.21l.142-.07a336.394 336.394 0 0 0 27.982 15.478c-.665 7.918-.905 15.864-.65 23.808a198.006 198.006 0 0 0 .475 8.797c.025.339.424 2.666.243 2.927-.582.838-4.233-.074-5.192-.166a202.54 202.54 0 0 0-6.281-.506 201.741 201.741 0 0 0-16.18-.384 3.421 3.421 0 0 0-.016-.67c-.083-.63-1.084-.637-1 0 .03.236.03.458.012.678a209.14 209.14 0 0 0-29.808 2.756c-.633.105-.364 1.069.267.964a206.036 206.036 0 0 1 29.594-2.707c.193.159.5.179.688-.008 9.513-.15 19.038.354 28.507 1.518.252.03.522-.255.5-.5a207.012 207.012 0 0 1-.17-36.386c.194-.181.255-.484.052-.681l.006-.082a.398.398 0 0 0-.205-.407c.273-.092.486-.39.3-.713zm68.303 28.938c-.24 2.688-1.192 5.23-1.561 7.893a131.095 131.095 0 0 0-24.97.331c0-.004.003-.007.003-.01-.123-15.403-.192-30.802.512-46.193.65-14.22 1.533-28.5-.39-42.648a914.812 914.812 0 0 1 26.55 52.211.447.447 0 0 0-.298.445v.002a.512.512 0 0 0-.127-.11 549.537 549.537 0 0 0-24.73-13.328c-.572-.29-1.08.572-.505.863a549.571 549.571 0 0 1 24.73 13.327c.26.15.502.04.638-.148l.183 18.732c.028 2.861.22 5.78-.035 8.633m1.355-28.183a914.804 914.804 0 0 0-28.105-55.155c-.28-.504-.994-.152-.918.332a.508.508 0 0 0-.044.291c2.405 15.147 1.333 30.477.65 45.714-.672 15.064-.586 30.14-.466 45.214 0 .197.1.326.23.403-.103.306.042.685.444.64a131.177 131.177 0 0 1 25.187-.372c-.02.578.827.596.97.074.01.001.023.001.034.003.606.053.629-.828.092-.974.344-2.556 1.259-4.993 1.537-7.567.32-2.985.099-6.057.069-9.053l-.184-18.797c.33.015.694-.347.504-.753M90.982 378.31c-.298-.006-.595-.006-.893-.012l-1.135-3.13c-.218-.6-1.185-.34-.965.266l1.034 2.85a516.538 516.538 0 0 0-27.213.256c.005-.02.017-.033.02-.054 1.079-7.194 1.305-14.492 1.73-21.744l1.4-23.93c.206-3.492.41-6.984.615-10.477.02.012.036.029.06.038a403.888 403.888 0 0 1 11.212 4.507.527.527 0 0 0-.036.266c.108.785.297 1.548.567 2.293.219.6 1.185.342.965-.266a11.164 11.164 0 0 1-.487-1.873 399.382 399.382 0 0 1 15.08 6.71 1420.595 1420.595 0 0 0-1.954 44.3m-23.38-90.615c6.684 15.904 15.063 31.024 25.057 45.093A401.748 401.748 0 0 0 65.9 321.41a.416.416 0 0 0-.272-.014l1.973-33.701m26.127 45.586c-.162-.077-.326-.15-.488-.226.308-.067.556-.384.324-.71a234.09 234.09 0 0 1-25.715-46.591c-.153-.374-.598-.403-.841-.224a.48.48 0 0 0-.305.43l-2.686 45.876-1.344 22.953c-.457 7.805-.647 15.689-1.808 23.43a.502.502 0 0 0 .073.348h-.004c-.641.024-.644 1.024 0 1a516.142 516.142 0 0 1 30.016-.257l-.017.512c-.017.644.983.643 1 0a1417.827 1417.827 0 0 1 2.012-45.955c0-.01-.004-.017-.004-.027.082-.202.046-.438-.213-.56m80.935-5.641c-2.456-7.274-5.163-14.27-8.299-21.272-3.189-7.125-4.162-14.937-7.345-22.038-.263-.586-1.125-.078-.864.505.047.103.083.208.126.31a.536.536 0 0 0-.046.177 5141.882 5141.882 0 0 1-4.733 70.502c-.184.169-.257.453-.05.684a4937.263 4937.263 0 0 1-1.882 24.604.407.407 0 0 0 .233.422c-.042.273.108.59.466.609 5.821.279 11.64.289 17.46.03.641-.028.645-1.028 0-1a189.1 189.1 0 0 1-17.17-.02c.001-.015.01-.026.01-.041.623-7.868 1.226-15.737 1.81-23.607 4.026 4.327 7.032 9.426 10.08 14.47l10.862 17.969c.173.286.546.319.786.1 4.233-3.841 8.466-7.684 12.702-11.526.477-.434-.232-1.14-.708-.707l-12.234 11.103-11.061-18.3c-3.079-5.09-6.16-10.185-10.328-14.465a5091.795 5091.795 0 0 0 4.64-68.95c2.32 6.17 3.34 12.77 6.013 18.844 3.313 7.529 6.252 15.004 8.886 22.8 5.328 15.782 10.656 31.566 15.986 47.349.204.605 1.17.345.964-.266-5.436-16.096-10.869-32.191-16.304-48.286m95.117-6.116a371.478 371.478 0 0 1-12.102 7.205c-1.803 1.028-3.72 1.909-5.571 2.887 10.389-9.847 21.87-18.462 34.179-25.76-.005 1.488-.017 2.977-.018 4.465 0 .11.036.194.084.267a373.435 373.435 0 0 1-16.572 10.936m-35.281 22.667l-17.448 11.835-.34.09a.442.442 0 0 0-.341.373c-.15.1-.3.202-.448.304 3.49-3.591 7.03-7.148 10.388-10.86 3.553-3.926 6.72-8.204 9.919-12.42 7.262-9.568 14.284-19.317 21.628-28.825a444.976 444.976 0 0 0 23.702-6.643.475.475 0 0 0 .089.183l4.73 6.139c.057.074.127.12.199.154-.014.007-.026.006-.04.014-12.206 7.163-23.624 15.62-33.976 25.276-2.714 2.53-5.313 5.19-8.234 7.49-3.142 2.473-6.522 4.647-9.828 6.89m64.407-13.862c.029.406.295 1.366.118 1.72-.347.694-1.388.63-2.197.719l-4.477.486 6.079-9.335c.15 2.136.323 4.272.477 6.41m-4.411-24.361c.31-.41-.137-1.095-.611-.75a389.723 389.723 0 0 1-6.615 4.737c.004-1.663.02-3.326.02-4.99a.444.444 0 0 0-.205-.388c-.023-.02-.052-.031-.077-.046.27-.101.458-.38.235-.67l-4.731-6.138a.512.512 0 0 0-.39-.203c.009-.307-.234-.623-.612-.506a442.302 442.302 0 0 1-23.924 6.71.374.374 0 0 0-.306.115.432.432 0 0 0-.152.173c-7 9.063-13.712 18.339-20.611 27.477-3.43 4.545-6.821 9.172-10.623 13.418-3.802 4.246-7.875 8.265-11.833 12.365-.447.464.259 1.172.707.707.013-.013.027-.025.039-.04.068.308.385.556.716.33.654-.443 1.31-.884 1.969-1.325l72.255-19.24c.424-.113.43-.593.195-.837a.49.49 0 0 0 .16-.158l1.546-2.373c2.293-.236 4.63-.373 6.899-.755.8-.135 1.242-.14 1.487-.958.368-1.228-.202-3.32-.3-4.588-.141-1.833-.285-3.666-.401-5.501l3.369-5.174c.352-.541-.514-1.043-.863-.506l-3.373 5.18a.403.403 0 0 0-.117.179l-7.31 11.227a.529.529 0 0 0-.258.397l-1.542 2.367c-.147.226-.076.44.075.58l-69.232 18.435c9.525-6.306 19.264-12.466 27.915-19.896a.498.498 0 0 0 .315-.114c3.117-2.59 7.18-4.071 10.687-6.081a374.415 374.415 0 0 0 12.084-7.237 378.878 378.878 0 0 0 22.598-15.298 39.28 39.28 0 0 1 8.668 9.915c.335.548 1.2.046.864-.505a40.116 40.116 0 0 0-8.717-10.035m18.877 41.432c-.5-.396-1.212.307-.708.707l13.53 10.759c.498.396 1.21-.307.707-.707l-13.53-10.76m-32.868 19.642c-.22-.6-1.187-.34-.965.265a111.512 111.512 0 0 0 12.598 24.436c.36.527 1.227.028.863-.505a110.42 110.42 0 0 1-12.496-24.197m-29.158 4.995v7.767c0 .643 1 .644 1 0v-7.767c0-.644-1-.645-1 0m-28.334-65.105a72.441 72.441 0 0 0-11.669-7.352c-.573-.29-1.08.575-.505.864a72.445 72.445 0 0 1 11.67 7.35c.51.394 1.007-.473.504-.862m20.244-17.615a7.089 7.089 0 0 0-2.593-6.193c-.494-.404-1.206.3-.707.707 1.675 1.365 2.502 3.336 2.3 5.486-.06.64.94.637 1 0m50.185-157.748l1.613-6.297c.16-.624-.804-.89-.964-.265l-1.613 6.295c-.16.624.805.89.965.267m7.284 1.605c.969-1.43 1.282-3.103.959-4.794-.12-.632-1.084-.364-.964.266.274 1.434-.044 2.82-.858 4.024-.363.533.504 1.035.863.504M48.802 28.054a9.586 9.586 0 0 0-5.209 2.165c-.498.409.213 1.112.707.708a8.385 8.385 0 0 1 4.502-1.873c.634-.064.641-1.064 0-1m-6.798-4.168a9.524 9.524 0 0 0-8.7 4.975c-.31.564.553 1.07.862.504 1.58-2.885 4.552-4.583 7.838-4.48.644.02.643-.98 0-1M26.893 232.17a24.083 24.083 0 0 0-1.024 6.952c0 .643 1 .645 1 0a23.2 23.2 0 0 1 .988-6.687c.185-.618-.78-.88-.964-.266m-8.3 4.028c-.005-.643-1.005-.645-1 0a16.03 16.03 0 0 0 1.001 5.495c.222.6 1.19.34.965-.266a15.205 15.205 0 0 1-.966-5.229m40.563 162.827c-2.928-.8-5.854-1.6-8.782-2.397-.621-.17-.887.794-.266.963l8.782 2.398c.62.17.887-.794.266-.964m-4.856 5.785l-5.36-1.462c-.622-.17-.888.795-.267.965 1.787.486 3.574.975 5.36 1.46.622.17.888-.794.267-.963m132.914-248.177l-1.026-5.839c-.112-.633-1.076-.364-.964.266l1.026 5.839c.111.632 1.075.364.964-.266m5.313 3.057c.16-2.924.323-5.848.484-8.771.037-.643-.963-.641-1 0l-.484 8.77c-.036.645.965.643 1 0"/><path fill="#071F2C" d="M83.25 50.216v2.435c0 .643 1 .644 1 0v-2.435c0-.645-1-.645-1 0m-.442 7.084v2.435c0 .643 1 .644 1 0V57.3c0-.644-1-.645-1 0m.664 5.976v2.215c0 .642 1 .644 1 0v-2.215c0-.643-1-.645-1 0m.222 6.42v1.33c0 .643 1 .644 1 0v-1.33c0-.643-1-.645-1 0m.744 8.853l.249-2.433c.065-.639-.936-.634-1 0l-.25 2.433c-.064.64.937.635 1 0m.035 6.423V82.98c0-.643-1-.645-1 0v1.992c0 .645 1 .645 1 0m-.558 4.428v1.993c0 .644 1 .645 1 0V89.4c0-.643-1-.645-1 0m.993 8.279l-.273-1.986c-.088-.635-1.052-.365-.964.266l.273 1.986c.088.634 1.052.364.964-.266m.229 6.111v-1.992c0-.645-1-.645-1 0v1.992c0 .643 1 .645 1 0m-.222 6.42v-2.436c0-.643-1-.644-1 0v2.436c0 .644 1 .645 1 0m-.22 4.206c0-.644-1-.645-1 0v1.55c0 .643 1 .644 1 0v-1.55zm0 7.528v-2.437c0-.642-1-.644-1 0v2.436c0 .645 1 .645 1 0m63.623-55.202l.67-.657c.46-.45-.246-1.158-.706-.707l-.671.657c-.46.451.247 1.158.707.707m3.752-2.668c.149-.169.294-.342.44-.512.026-.027.05-.054.075-.083a.492.492 0 0 0 .227-.17c.104-.143.199-.268.263-.434.079-.203-.053-.459-.23-.565-.002 0-.003 0-.004-.002-.145-.086-.361-.098-.504 0-.385.264-.668.712-.974 1.06-.425.48.28 1.19.707.706m3.661-3.021l1.329-.885c.533-.355.033-1.222-.505-.864l-1.328.886c-.532.355-.032 1.22.505.863m4.532-4.722c.46-.452-.247-1.158-.707-.707l-1.133 1.111c-.295.29-.634.525-.644.965a.51.51 0 0 0 .367.483c.237.071.407 0 .59-.154.105-.088.141-.222.136-.357.11-.08.274-.245.258-.23.118-.116.237-.23.355-.347l.778-.764m3.053-4.697l-1.328 1.328c-.455.456.25 1.163.707.707l1.328-1.328c.456-.456-.251-1.163-.707-.707m3.343-1.753l1.092-.905c.495-.411-.216-1.116-.708-.707l-1.091.905c-.495.411.216 1.115.707.707m10.512-2.475c-.554-.332-1.058.533-.505.863l1.192.715c.554.331 1.058-.533.505-.864l-1.192-.714m5.115 4.164l-1.778-1.319c-.518-.383-1.017.484-.505.864l1.779 1.318c.517.383 1.016-.483.504-.864m2.678 2.186l-.882-.669c-.512-.39-1.01.48-.504.863l.881.67c.513.39 1.012-.48.505-.864m1.816 2.263a7.23 7.23 0 0 1 1.999 1.189c.49.412 1.2-.293.707-.707a8.767 8.767 0 0 0-2.44-1.447c-.6-.234-.86.732-.266.965m5.035 2.623c-.56-.318-1.064.545-.505.865l1.55.885c.56.319 1.064-.545.505-.863l-1.55-.886m2.272 3.662l1.328 1.329c.455.456 1.162-.251.707-.707l-1.328-1.33c-.455-.455-1.162.252-.707.708m39.167 23.382c.345-.555-.02-1.24-.602-1.416-.43-.131-.68.296-.589.63-.34.038-.637.51-.34.87.39.473 1.198.45 1.531-.084m1.674-3.57l.864-1.342c.35-.543-.515-1.045-.863-.505l-.864 1.342c-.35.543.515 1.045.863.505m3.399-4.67c.018-.235.13-.381.304-.528.493-.416-.219-1.12-.707-.707-.382.323-.56.743-.597 1.236-.047.642.953.639 1 0m1.999-3.986c.045-.402.286-.715.629-.913.557-.323.054-1.188-.505-.863-.67.388-1.04 1.015-1.124 1.776-.07.64.93.635 1 0m6.366-9.702l.664-1.328c.287-.574-.575-1.081-.863-.505l-.664 1.328c-.287.574.575 1.081.863.505m2.849-4.443l.932-1.521c.337-.55-.529-1.054-.865-.505l-.93 1.52c-.338.552.527 1.054.863.506m2.503-3.875c.101-.54.334-.971.742-1.342.477-.433-.232-1.14-.707-.707a3.19 3.19 0 0 0-1 1.784c-.116.629.847.899.965.266m2.536-3.976l.861-.908c.444-.466-.262-1.175-.707-.707l-.862.907c-.443.467.263 1.176.707.708m2.961-4.972l1.104-1.773c.341-.548-.523-1.05-.863-.505l-1.104 1.772c-.342.55.523 1.051.863.506m5.894 2.349l.583 1.292c.265.586 1.126.078.863-.505l-.583-1.292c-.263-.586-1.126-.078-.863.505m1.923 4.495l.68 1.32c.296.572 1.159.067.864-.506l-.681-1.319c-.296-.572-1.158-.067-.863.505m2.278 4.752l1.08 1.132c.445.467 1.151-.241.707-.707l-1.08-1.132c-.445-.467-1.15.241-.707.707m2.243 4.004c.248.769.66 1.435 1.254 1.983.473.437 1.182-.27.708-.707a3.523 3.523 0 0 1-.998-1.542c-.197-.61-1.163-.35-.964.266m4.698 9.637l.442.885c.288.576 1.152.07.865-.504-.15-.296-.296-.591-.444-.886-.288-.576-1.15-.07-.863.505m3.316 4.356l-.664-1.55c-.253-.59-1.114-.08-.863.505.22.517.442 1.033.664 1.55.252.59 1.114.081.863-.505m.687 3.604c.147.222.296.442.442.664.356.533 1.222.032.864-.505l-.443-.664c-.355-.533-1.221-.032-.863.505m2.605 3.958c-.052.555.218 1.017.667 1.323.533.364 1.034-.502.505-.863-.172-.117-.19-.27-.172-.46.059-.641-.941-.637-1 0m3.918 4.749c-.367-.444-.735-.888-1.104-1.331-.41-.496-1.114.215-.707.707l1.104 1.33c.41.496 1.115-.214.707-.706M260.94 44.678c.417.372.745.806.953 1.326.235.59 1.202.333.964-.266-.272-.684-.657-1.274-1.208-1.767-.48-.43-1.188.276-.708.707m-89.255 125.985V168.8c0-.644-1-.645-1 0v1.864c0 .644 1 .645 1 0m-1.006 4.659c-.053.641.947.638 1 0a7.748 7.748 0 0 0-.132-2.133c-.123-.63-1.087-.363-.964.266.121.62.146 1.238.095 1.867m-.135 5.859c-.05.642.95.639 1 0 .066-.853.018-1.69-.123-2.532-.106-.634-1.069-.365-.965.265.126.752.147 1.508.088 2.267m.975 5.598c-.064-.536-.13-1.072-.192-1.607-.076-.631-1.077-.638-1 0l.192 1.607c.075.63 1.076.638 1 0m-1.099 4.256v2.131c0 .642 1 .644 1 0v-2.13c0-.645-1-.646-1 0m.266 12.117v2.13c0 .643 1 .645 1 0v-2.13c0-.644-1-.645-1 0m.266 6.257v1.998c0 .643 1 .645 1 0v-1.998c0-.643-1-.645-1 0m.133 5.993v1.73c0 .645 1 .646 1 0v-1.73c0-.644-1-.645-1 0m1.038 5.58c-.127-.63-1.09-.363-.964.266.091.452.1.886.048 1.343-.069.639.931.634 1 0a5.173 5.173 0 0 0-.084-1.61m-.038 6.937v-1.598c0-.643-1-.644-1 0v1.598c0 .644 1 .645 1 0m-.124 4.389c-.12-.632-1.084-.364-.964.267a6.61 6.61 0 0 1 .077 1.868c-.059.64.941.636 1 0a7.572 7.572 0 0 0-.113-2.135m-.009 5.331c0-.643-1-.644-1 0v1.599c0 .643 1 .644 1 0v-1.598zm-1.133 6.126v1.598c0 .643 1 .644 1 0v-1.598c0-.644-1-.645-1 0M68.533 296.27c.193.61 1.159.35.965-.266l-.642-2.036c-.192-.612-1.158-.35-.964.266.214.679.428 1.357.64 2.036m.945 4.43l.374 1.31c.177.617 1.142.354.964-.267l-.374-1.31c-.176-.618-1.142-.354-.964.266m2.53 8.207c.17.62 1.134.356.964-.266-.195-.717-.392-1.434-.588-2.15-.169-.622-1.135-.358-.964.265l.588 2.151m.736 4.601l.249 2.018c.078.629 1.078.637 1 0l-.249-2.018c-.078-.63-1.078-.638-1 0m2.541 9.201c.155.625 1.119.36.964-.266l-.646-2.604c-.155-.624-1.12-.359-.964.266l.646 2.604m4.451 13.812a5.082 5.082 0 0 1-.385-1.743c-.024-.642-1.024-.645-1 0 .026.695.158 1.364.42 2.01.239.588 1.207.33.965-.266m.749 4.011c-.193-.61-1.16-.35-.965.266.21.663.343 1.332.387 2.027.04.64 1.04.644 1 0a9.61 9.61 0 0 0-.422-2.293m1.898 7.567a3.68 3.68 0 0 1-.516-1.48c-.07-.631-1.07-.64-1 0 .08.714.284 1.367.653 1.984.33.553 1.195.05.863-.504m1.213 6.539c-.279-.627-.559-1.253-.837-1.88-.262-.586-1.124-.078-.864.505l.838 1.88c.261.587 1.124.078.863-.505m-.027 4.984l.25 1.73c.093.633 1.057.364.965-.267l-.251-1.729c-.092-.634-1.056-.365-.964.266m2.228 4.91c-.163-.62-1.128-.357-.964.266l.416 1.586c.163.621 1.128.357.964-.267l-.416-1.585zm1.61 5.74c-.188-.613-1.154-.352-.964.267l.44 1.433c.188.613 1.154.352.964-.265l-.44-1.435m206.56-69.657c.73-.394 1.46-.788 2.188-1.183.567-.306.063-1.17-.504-.863l-2.189 1.183c-.566.305-.06 1.17.505.863m4.141-3.556a10.53 10.53 0 0 0 1.823-1.668c.418-.485-.287-1.196-.707-.707a9.633 9.633 0 0 1-1.62 1.512c-.516.376-.017 1.243.504.863m5.494-7.052l-1.405 1.381c-.46.451.247 1.158.707.707l1.405-1.38c.46-.452-.248-1.159-.707-.708m4.512-4.367l-1.218 1.394c-.422.483.283 1.193.707.708l1.218-1.395c.422-.482-.283-1.193-.707-.707m4.117-5.458l-1.748 2.433c-.376.523.49 1.023.863.504l1.748-2.432c.376-.524-.491-1.024-.863-.505m3.615-5.247a6.437 6.437 0 0 1-1.603 2.046c-.49.419.22 1.123.707.707a7.165 7.165 0 0 0 1.76-2.25c.287-.572-.575-1.08-.864-.503m3.857-5.035l-1.401 1.909c-.382.519.485 1.019.863.505.466-.637.934-1.272 1.4-1.908.382-.52-.485-1.02-.863-.505m2.59-2.987l1.433-3.29c.254-.584-.607-1.094-.864-.505l-1.432 3.29c-.255.585.606 1.094.863.505m2.931-9.431l-.871 2.089c-.247.594.72.85.964.265l.871-2.088c.247-.593-.72-.853-.964-.266m1.539-7.32a29.878 29.878 0 0 1-.812 3.324c-.189.616.776.88.964.266.335-1.093.605-2.199.812-3.323.116-.63-.848-.9-.964-.267m.337-6.129a8.019 8.019 0 0 1-.275 3.187c-.183.618.782.882.963.265a8.72 8.72 0 0 0 .312-3.452c-.069-.633-1.07-.639-1 0m.149-3.831a8.485 8.485 0 0 0-.548-3.266c-.226-.596-1.192-.338-.964.266.368.973.54 1.96.512 3-.019.644.981.644 1 0m-3.745-10.497l1.232 3.302c.224.597 1.191.34.965-.266l-1.233-3.302c-.223-.597-1.19-.339-.964.266m-1.529-4.396l-1.759-2.424c-.374-.515-1.241-.017-.863.505l1.759 2.425c.374.516 1.242.017.863-.505m-4.375-5.73l-1.218-1.74c-.367-.524-1.234-.025-.864.504l1.219 1.741c.366.523 1.234.024.863-.505m-4.336-3.852c.33.552 1.195.049.863-.505l-1.046-1.74c-.33-.551-1.195-.05-.863.505l1.046 1.74zm-2.519-4.616c-.578-.64-1.155-1.28-1.733-1.923-.432-.478-1.137.231-.707.708l1.732 1.922c.433.48 1.138-.229.708-.707m-3.76-5.113l-1.256-1.715c-.376-.514-1.244-.015-.863.505l1.256 1.714c.376.514 1.244.016.863-.505m-3.704-5.356c.156.624 1.12.359.965-.266l-.35-1.393c-.154-.623-1.12-.36-.963.266.117.464.233.929.348 1.393m-1.759-7.271v2.263c0 .643 1 .644 1 0v-2.263c0-.644-1-.645-1 0m.205-3.352c.09.636 1.053.366.965-.265a3.428 3.428 0 0 1 .132-1.482c.184-.617-.781-.882-.964-.266-.2.669-.23 1.326-.133 2.014m2.496-5.573a4.17 4.17 0 0 1 1.114-2.21c.447-.465-.26-1.173-.707-.708a5.122 5.122 0 0 0-1.372 2.652c-.113.63.851.9.965.266m2.981-7.308a6.63 6.63 0 0 1 .82-1.795c.353-.542-.512-1.044-.863-.505a7.512 7.512 0 0 0-.92 2.034c-.177.62.788.885.964.266m3.415-5.985l1.223-1.739c.37-.529-.497-1.029-.865-.505l-1.22 1.74c-.37.527.496 1.027.863.504m4.027-5.73a8.176 8.176 0 0 1 1.647-2.349c.457-.454-.251-1.161-.708-.707a8.968 8.968 0 0 0-1.802 2.551c-.272.579.59 1.087.863.505m3.586-5.287a18.377 18.377 0 0 1 2.927-2.993c.5-.406-.212-1.111-.707-.707a18.41 18.41 0 0 0-2.927 2.992c-.391.503.312 1.215.707.708m4.445-7.06a9.706 9.706 0 0 1 1.434-1.856c.452-.459-.255-1.166-.707-.707a10.754 10.754 0 0 0-1.59 2.058c-.33.555.534 1.058.863.505m5.445-9.161l-1.92 2.261c-.413.487.29 1.198.707.707l1.92-2.26c.413-.488-.29-1.199-.707-.708m2.53-4.947l-1.028 1.404c-.381.52.486 1.019.863.504l1.029-1.404c.38-.52-.487-1.02-.864-.504m-183.054 84.368v-4.428c0-.643-1-.644-1 0v4.428c0 .644 1 .645 1 0m5.266-8.011l1.476-1.476c.456-.456-.251-1.163-.707-.707l-1.476 1.476c-.456.456.25 1.163.707.707M70.345 49.646l-3.937.486c-.629.078-.637 1.078 0 1l3.937-.486c.631-.077.64-1.078 0-1m-4.927 8.873v.492c0 .644 1 .645 1 0v-.492c0-.643-1-.645-1 0m27.662 52.035l-.495 2.95c-.106.63.858.9.965.267l.495-2.951c.105-.63-.859-.901-.965-.266m6.787 5.045c.644 0 .645-1 0-1-.644 0-.645 1 0 1m61.983-47.24v3.444c0 .644 1 .645 1 0v-3.444c0-.643-1-.645-1 0m-3.444 13.776v.983c0 .645 1 .645 1 0v-.983c0-.644-1-.645-1 0m21.648 29.028v3.936c0 .643 1 .644 1 0v-3.936c0-.645-1-.645-1 0m3.943 3.436c-.643 0-.645 1 0 1 .644 0 .645-1 0-1m62-24.592v-2.46c0-.644-1-.644-1 0v2.46c0 .644 1 .645 1 0m-1.383 13.158l3.445-.979c.618-.175.356-1.14-.265-.964-1.15.326-2.297.652-3.446.98-.618.174-.355 1.14.266.963m33.856 18.822v-1.477c0-.642-1-.644-1 0v1.477c0 .644 1 .645 1 0m-4.929.008c.644 0 .645-1 0-1-.644 0-.645 1 0 1M91.995 188.906c.643 0 .644-1 0-1-.645 0-.645 1 0 1m3.582 5.757c.402.503 1.105-.209.707-.707-.655-.819-1.311-1.64-1.968-2.459-.401-.503-1.105.21-.707.707l1.968 2.46m-6.535-2.314c.644 0 .645-1 0-1-.644 0-.645 1 0 1m14.752 28.036l.492 6.396c.05.637 1.05.643 1 0l-.492-6.396c-.049-.637-1.05-.643-1 0m76.82-32.711c.288.575 1.15.069.864-.505l-.492-.984c-.288-.575-1.15-.07-.863.505.164.328.328.656.49.984m11.282 31.107a5.251 5.251 0 0 0 .53 4.314c.332.55 1.198.048.864-.504-.663-1.099-.808-2.32-.43-3.544.19-.617-.775-.88-.964-.266m64.148-9.084l-7.842-3.995c-.572-.292-1.079.571-.505.863l7.842 3.995c.572.292 1.08-.57.505-.863m-7.833.416a899.92 899.92 0 0 0-.984-.492c-.575-.287-1.08.575-.505.863l.984.492c.573.287 1.081-.575.504-.863m-1.696-23.551c.234.59 1.201.333.964-.266l-.977-2.463c-.234-.59-1.202-.333-.965.266.327.82.652 1.642.978 2.463M167.27 329.617c.644 0 .645-1 0-1-.644 0-.645 1 0 1m14.17 42.698l-2.89-7.404c-.231-.593-1.198-.335-.964.265l2.889 7.406c.232.59 1.199.334.965-.267m-.886 4.518c-.644 0-.645 1 0 1 .644 0 .645-1 0-1m-9.84-11.308c.086 1.539.59 2.969 1.53 4.193.386.504 1.255.007.864-.504-.833-1.086-1.317-2.318-1.394-3.69-.036-.64-1.036-.643-1 0m-13.716 5.173l.984 1.968c.287.576 1.151.07.864-.504l-.985-1.969c-.288-.575-1.15-.069-.863.505M70.355 346.83c0-.645-1-.646-1 0v2.951c0 .644 1 .645 1 0v-2.952zm-.017 14.759v.984c0 .644 1 .645 1 0v-.984c0-.644-1-.645-1 0m209.336-41.779l-7.933 4.316c-.565.309-.06 1.172.505.865l7.933-4.318c.565-.306.061-1.171-.505-.863m10.241-7.774l-1.968 1.968c-.456.456.251 1.163.707.707l1.968-1.968c.456-.456-.25-1.163-.707-.707m.846 6.266c.644 0 .645-1 0-1-.644 0-.645 1 0 1m-42.804 8.84c-.644 0-.645 1 0 1 .644 0 .645-1 0-1m4.86-6.136l1.477-2.46c.332-.554-.533-1.057-.864-.505l-1.476 2.46c-.332.553.532 1.057.863.505m-11.264 60.754v3.445c0 .644 1 .645 1 0v-3.444c0-.643-1-.645-1 0"/><g transform="translate(0 74.793)"><mask id="b" fill="#fff"><use xlink:href="#a"/></mask><path fill="#071F2C" d="M1.467.446H.483c-.644 0-.645 1 0 1h.984c.644 0 .645-1 0-1" mask="url(#b)"/></g><path fill="#071F2C" d="M4.28 6.506c-.497-.398-1.21.305-.706.707l2.46 1.968c.497.398 1.21-.305.707-.707L4.28 6.506m-2.813 6.741c-.644 0-.645 1 0 1 .644 0 .645-1 0-1M19.66.33c-.242-.585-1.212-.328-.963.267l2.46 5.903c.244.585 1.212.33.965-.266L19.66.33m76.228 235.812c.03-.643-.97-.641-1 0-.04.86.26 1.65.823 2.294.425.485 1.13-.225.707-.707-.394-.45-.558-.993-.53-1.587"/></g></svg>