<svg xmlns="http://www.w3.org/2000/svg" viewBox="0 0 466.38 363.9"><defs><style>.cls-1{fill:#f2f2f2;}.cls-2{fill:#cc4306;}.cls-2,.cls-3,.cls-4,.cls-5{fill-rule:evenodd;}.cls-3{fill:#f46831;}.cls-4{fill:#ffc5ae;}.cls-5,.cls-6{fill:#e35205;}.cls-7{fill:#2d2926;}</style></defs><title>tent-img_3</title><g id="Layer_2" data-name="Layer 2"><g id="Layer_1-2" data-name="Layer 1"><path class="cls-1" d="M465.88,213.43c-.9-1.82-2.94-2.32-4.74-2.85-3.48-1-6.51-1.85-9.65-3.77a64.71,64.71,0,0,0-6.63-3.63,17.89,17.89,0,0,0-4.18-1.66,33,33,0,0,0-5.84-1.36,35.45,35.45,0,0,1-4.25-.88,18.63,18.63,0,0,1-7.35-5.4c-1.89-2.25-3.46-4.59-6.06-6.06a34.35,34.35,0,0,0-7.31-2.57c-2.06-.61-4.08-1.28-6-2.07-3.91-3.42-8.22-7.1-13.36-8.11-6.63-1.3-14-.9-20.74-1-7.1-.08-13.56.43-20.52-1.08-6.32-1.38-10.93,1.53-17,2.73-3.15.63-2.56,4.72-.1,5.65l-10.56,32a.32.32,0,0,1-.09.14L298.8,234.11a.32.32,0,0,1-.2.08l-54.68,2a.31.31,0,0,1-.16,0L128.81,175.5a.28.28,0,0,0-.12,0c-.81-.05-9.38-.6-14.58-1-5.46-.4,0,0-7,.72-5.58.58-7.74.26-16.12.23a2.58,2.58,0,0,0-2.94,0c-5.4,3.46-11.8,2.89-17.91,3.83-6.55,1-12.63,4-19.11,5.48a88.3,88.3,0,0,0-10.49,2.65c-2.24.8-4.36,1.9-6.59,2.68-1.37.34-2.75.67-4.12,1-5.73,1.1-11.1,1.88-15.76,6.15s-1.21,7.66,2,11.39,5,5.37,3.86,10.52c-.66,3-2.38,6.15-2.56,9.2-.3,5.24,3.87,6.63,8,8a34.61,34.61,0,0,1,7.44,3.78c1.37,2.19,2.38,5.1,3.9,6.63,2.85,2.85,7.21,4,10.91,5.24,10.15,3.39,20.75,2.56,30.91,5.52,9.95,2.9,16.75,9,24.9,14.91,3.59,2.61,7.56,3.34,11.85,4.17l9.85,1.92c2.69.9,5.38,1.71,8.11,2.41a27.33,27.33,0,0,0,6,4.06c4.09,1.75,8.81,1.57,13.1,2.53,4.84,1.08,8.48,3.92,12.85,6a41.8,41.8,0,0,0,12.68,3.62c9.82,1.31,19.61-.23,29.43-.6.57,0,1.14,0,1.7,0a92.68,92.68,0,0,1,25.36,5l.69.23a44,44,0,0,0,4,1.89,49.75,49.75,0,0,0,24.68,3.23c2.09-.25,4.18-.46,6.27-.62,9.45-.73,18.92-.79,28.39-.88,4.58,0,9.17-.06,13.75-.24,2.25-.09,4.49-.2,6.73-.38.46,0,4.08-.46,4.61-.49h.17c16-2.56,27.31-10.21,41.2-18.08,6.07-.94,12.09-2.37,16.88-5.86,6.53-4.76,13.92-13.73,22.42-15.08h0c12.71.29,19.11-10.74,25.48-19.93,4.11-5.93,8.88-8.59,14.72-12.41a35.32,35.32,0,0,0,6.35-5.57,20.1,20.1,0,0,1,8.79-5.6C462.84,220.68,468,217.68,465.88,213.43Z"/><path class="cls-2" d="M293.62,247.92s29.75-3.29,48.91-16S364,220.38,364,220.38l16.3,13.7s-21.93,18-35.43,20.8-36,5.33-36,5.33S296.91,256,293.62,247.92Z"/><path class="cls-2" d="M268.76,143.5s-.93-17.58,19-27.22c13.25-6.43,27-12.77,33.85-4.82s8.44,14.12,15,46.29S365.17,225,378.79,232c-17.38-9.79-27.18-15.87-34.78-28.16s-21.77-41-21.77-41-7-20.35-7-20.26-4.23-5.32-4.29-7.48-17.46,2.94-17.46,2.94S274.68,137.3,268.76,143.5Z"/><path class="cls-3" d="M341.3,199.61c-6.87-17.85-20.72-49.75-23.39-54.69s-4.41-14.55-18-13.19-1.16,2.86-1.16,2.86l9.53,43.08,22.32,51.24,5.51,6.4,19.56-10.44,4-3.64S344.51,208,341.3,199.61Z"/><path class="cls-4" d="M268.76,143.5s1.14-3.7,11.73-7.31,16.71-4.25,16.71-4.25,11.3,31.88,13.67,39.18,13.39,39,13.39,39l16,24.45s-19.91,10-28.12,11.37-18.49,2-18.49,2-15.88-37.65-18.88-52.06C267.83,162.75,268.76,143.5,268.76,143.5Z"/><path class="cls-3" d="M306.81,260.27s-13.19-8-20.35-28.22c-6.36-17.93-17.43-57-18-67.33s-.64-23.32-.64-23.32-12.64,50-12.45,71.24.93,41.9,3.81,47.09,3.73-10.48,4.56-10.72a20.77,20.77,0,0,0,3.31-2.17l.77,4.26.5,6.58,2.46-1.67,4.83-3L277,254.1l-.55,4-.74,3.37a14.88,14.88,0,0,1,11-2C292.82,260.87,306.81,260.27,306.81,260.27Z"/><path class="cls-2" d="M95.11,213.76s45.57-56.55,45-55.09-6.22,31.83-6.22,31.83-2,32.62-2,33.87,3.8,7.48.44,6.55a66.44,66.44,0,0,1-11.49-4.8c-1.25-.87-7.93-3.87-8.78-3.69s-7.16-.12-7.16-.12l-2.3-.07-1.76-5.66L99,214.13,97.26,219Z"/><path class="cls-5" d="M304.57,108.59a198.8,198.8,0,0,0-27.37,2.12c-15.64,2.34-33.48,6.91-38.25,4.91-9.25-3.87-23.87-12.75-26.12-12.62s-17.31-6.8-39.9,13.1-29.85,28.78-37.35,55.65-16.13,52.32,5.63,69.79,61.28-.23,68.49-7.79c7.63-8,20.76-18.67,28.37-35.75s12.26-27.62,22.44-45.5,11.16-26.9,26.24-34.89S304.57,108.59,304.57,108.59Z"/><path class="cls-4" d="M166.36,168.64c-1.3,4.33,45.44,10.05,45.44,10.05s12.89-23.23,1.94-31.23c-9.5-6.94-20.15-4.8-25.82-3.09S173.08,146.23,166.36,168.64Z"/><path class="cls-5" d="M267.83,141.39,251.37,170l-7,15.42-7.6,28.94L230.8,231.5l-9.48,20.25L251.58,263,256,257.2v4.56l3.41-.52s-.33-1-2.58-12.23-1.92-30.67-1.92-30.67,2.13-27.49,4.61-41.49S267.83,141.39,267.83,141.39Z"/><path class="cls-2" d="M188.18,245.72c19.48-9.55,29.33-18.91,29.33-18.91L243.83,187l-3.08,21-6.58,25.42-7,13.67-4.49,5.14L205.08,249Z"/><path class="cls-6" d="M170.5,297a2.54,2.54,0,0,0-3.42-.9l-3.29,2.19a2.5,2.5,0,0,0,2.52,4.32l3.29-2.19A2.55,2.55,0,0,0,170.5,297Z"/><path class="cls-6" d="M44,200.26a2.57,2.57,0,0,0-3.42-.9l-3.23,1.54a2.51,2.51,0,0,0-.9,3.42,2.57,2.57,0,0,0,3.42.9l3.23-1.54A2.51,2.51,0,0,0,44,200.26Z"/><path class="cls-6" d="M427.59,205.09l-3-1.93a2.52,2.52,0,0,0-3.42.9,2.55,2.55,0,0,0,.9,3.42l3,1.93a2.52,2.52,0,0,0,3.42-.9A2.55,2.55,0,0,0,427.59,205.09Z"/><path class="cls-7" d="M380.24,233.38a.51.51,0,0,0,.12-.25v0a.37.37,0,0,0,0-.07.39.39,0,0,0-.15-.32c-4.32-4.08-9-7.73-13-12.13a96.76,96.76,0,0,1-10.69-14.14,139.48,139.48,0,0,1-14.34-32c-3.79-11.95-6.42-24.22-8.9-36.5-.22-1.09-.43-2.21-.65-3.36,18.45,23.59,42.18,42.14,66.17,59.77,7.14,5.25,14.32,10.43,21.46,15.69.52.38,1-.49.5-.86-24.3-17.91-49.42-35.07-70.81-56.53A205.36,205.36,0,0,1,332.59,133a.51.51,0,0,0-.33-.2c-1.58-8-3.75-16.62-10.71-21.33a20.88,20.88,0,0,0-12.35-3.35.48.48,0,0,0-.47-.45,150.3,150.3,0,0,0-20,.74c-8,.79-16,2.69-24,3.9a224,224,0,0,1-24,2.51.47.47,0,0,0-.48-.51c-7.74,0-14.11-6.31-20.78-9.45a38.63,38.63,0,0,0-21.92-3.1c-8.09,1.19-14.91,5.07-21.18,10.15A200.54,200.54,0,0,0,156,130.42a48.55,48.55,0,0,0-4.12,5.1.51.51,0,0,0-.16.1,135,135,0,0,1-10.44,8.92,96.86,96.86,0,0,1-11.19,6.8c-7.48,4.12-14.08,9.37-20.85,14.53A419.16,419.16,0,0,1,67,194.49a283.44,283.44,0,0,1-25.15,13.07c-.08-.33-.15-.67-.2-1-.1-.63-1.06-.36-1,.27a12.53,12.53,0,0,0,.27,1.26.49.49,0,0,0,.17.62,12.36,12.36,0,0,0,3,4.91c.45.46,1.16-.25.71-.71a11.34,11.34,0,0,1-2.67-4.36,311.8,311.8,0,0,0,44.65-25.31c7.06-4.75,14-9.73,20.77-14.85s13.49-10.76,21-15c4.35-2.48,8.81-4.71,12.87-7.67a105.23,105.23,0,0,0,8.35-6.92,121.86,121.86,0,0,0-7.27,14.38c-.33.75-.64,1.51-1,2.26a.51.51,0,0,0-.34.2c-4.88,6.46-9.69,13.05-14.56,19.59a.52.52,0,0,0-.61-.47,21,21,0,0,1-6.39.17c-2.24-.27-4.23-1.37-6.43-1.66-3.64-.48-6.51,2.85-10.12,1.93a.5.5,0,0,0-.27,1c4.11,1.05,7.23-2.78,11.36-1.64s7.78,2,12.09,1.2c-4.51,6-9.09,12-13.86,17.85a24.39,24.39,0,0,0-3.45-5.58c-.41-.5-1.11.21-.71.71a23.47,23.47,0,0,1,3.44,5.67l0,0q-1.8,2.18-3.63,4.32A170.18,170.18,0,0,0,97.23,185c-.42-.49-1.13.22-.71.71a167.67,167.67,0,0,1,10.83,13.77l-1.15,1.31a17.79,17.79,0,0,0-5.79-5.14c-.56-.31-1.07.55-.5.86a16.67,16.67,0,0,1,5.46,4.82.5.5,0,0,0,.21.17c-3.42,3.87-7,7.64-10.66,11.24-.13-.69-.26-1.37-.42-2-.44-1.72-.63-4.46-1.58-6-.33-.53-.65-.93-1.34-.89-2.34.15-2.29,5.74-2.51,7.07a15,15,0,0,1-.49,2.94q-.07,1.68-2.4,1.21-.15-.47-.28-.95a5.77,5.77,0,0,0-1.26-2.25.51.51,0,0,0-.79.1,18.08,18.08,0,0,0-3,5.58c-.18.59-.19,1.5-.78,1.85s-.73-.35-1.12-1.16a6.54,6.54,0,0,0-1.46-2.45,1.33,1.33,0,0,0-2.07.2,7.56,7.56,0,0,0-.9,2.65l-1.41,4.68a.5.5,0,0,0,1,.27l1.27-4.21c.39-1.28.68-3.34,2.19-1.75.78.82.88,3.51,2.45,3.42.86-.05,1.2-1,1.44-1.71a24.89,24.89,0,0,1,2.83-6.26c.88,1.5,1.07,4.76,3.43,4,1.06-.36,1.5-1.62,1.74-2.59.3-1.22.43-2.51.64-3.75.17-1.05.13-3.58.73-4.42,1.43-2,1.74,1,2,2l.92,3.61,1,4.07a8.59,8.59,0,0,0,.72,2.67c1.56,2.07,3.25-1.6,4.08-3.35,1.49,2,1.37,5.16,2.09,7.45a25.94,25.94,0,0,0,3.51,7c.36.53,1.23,0,.86-.5a25.57,25.57,0,0,1-3.46-7c5.58.1,10.89.53,15.92,3.19,3.79,2,7.26,4.31,11.59,4.94a.55.55,0,0,0,.61-.43,31.34,31.34,0,0,0,15.84,15.59c8.7,3.73,18.34,3.53,27.59,2.84a55.55,55.55,0,0,0,11.87-2c5.56.9,11.14,1.74,16.71,2.68-10.47,15.9-20.91,31.82-31.87,47.39a1.32,1.32,0,0,0-1.94-.4c-.5.39,0,1.26.5.86q.75,1-.08,1.46a7,7,0,0,1-.77.57,16,16,0,0,1-1.46.91,5.54,5.54,0,0,1-4,.83,19.55,19.55,0,0,1,5.5-4.57c.56-.31.06-1.18-.5-.86a20.29,20.29,0,0,0-6.2,5.3c-.17.22-.23.64.1.79a6,6,0,0,0,4.7-.11,12.72,12.72,0,0,0,1.29,4.92c.28.58,1.15.07.86-.5a11.42,11.42,0,0,1-1.16-4.44.48.48,0,0,0-.17-.35,12.43,12.43,0,0,0,2.69-1.87,3.27,3.27,0,0,0,.75-1,.52.52,0,0,0,.14-.13c11.27-16,22-32.32,32.72-48.63a184.85,184.85,0,0,1,25.11,5.84c5.19,1.66,10.34,3.45,15.48,5.26,2.27.8,4.78,2.09,7.19,2.63q-2,3.54-3.87,7.17c-.29.57.57,1.08.86.5q3.07-6,6.62-11.82c.13,1.44.32,3.29,1.23,3.8s2.41-.7,3-1.41c1.43-1.77,2.13-4.35,3-6.42,1-2.36,2-6.86,4.65-8a58.72,58.72,0,0,0,.07,8.44,3.49,3.49,0,0,0,1.2,2.39c1.95,1.37,4.19-2,5.39-3.09.33-.31,1.51-1.66,1.91-1.59.85.16.33,2.94.2,3.57-.39,1.91-1.17,3.8-1.23,5.77-.1,3.44,1.26,7.52,4.6,9,.58.25,1.09-.61.5-.86-3-1.33-4.12-4.75-4-7.95a45.73,45.73,0,0,1,17.14-1.62,139,139,0,0,0,22.92-.25c15.4-1.33,30.75-4.85,44.53-12a82.59,82.59,0,0,0,20-14.5A.47.47,0,0,0,380.24,233.38ZM314,109.53c12.35,2.3,15.42,14.4,17.55,25,2.43,12.13,4.91,24.27,8.4,36.14,3.57,12.13,8.24,24,14.8,34.84a100.75,100.75,0,0,0,10.33,14.21,139,139,0,0,0,11.85,11.32,87.72,87.72,0,0,1-20.24-13.66c-9-8.43-15.44-19-20.66-30.07-6.17-13.12-11.25-26.71-16.68-40.14-2-4.94-3.76-11.11-8.47-14.19-4.2-2.75-9.69-2.65-14.6-2h-.08l-1.92.29a70.81,70.81,0,0,0-20.45,6.45,18.33,18.33,0,0,0-5,3.93c0-.38,0-.76.07-1.14a.41.41,0,0,0-.26-.43,146.23,146.23,0,0,1,12.88-16.51C289.66,114.71,301.39,107.18,314,109.53ZM294.48,247.65a51.62,51.62,0,0,1-2.93-5.45,141.35,141.35,0,0,0,42.79-8c.6-.21.34-1.18-.27-1a140.47,140.47,0,0,1-43,8c-1.64-3.64-3-7.48-4.28-11.26-6.24-18.27-12.68-36.55-16-55.63a138.61,138.61,0,0,1-2-30.83,16.46,16.46,0,0,1,2.37-2.66c2.61-2.36,6.1-3.49,9.36-4.65a77.69,77.69,0,0,1,15.62-4.1c4.43,7,6.55,15.22,9.11,23l8.32,25.33c2.71,8.26,5.25,16.61,8.16,24.81A80.75,80.75,0,0,0,329,219.5,170.17,170.17,0,0,0,339.34,235a115.55,115.55,0,0,1-44.5,12.45A.49.49,0,0,0,294.48,247.65Zm-26.87-97.83a.52.52,0,0,0,0-.17,5.08,5.08,0,0,1,.11-4.24Q267.6,147.62,267.61,149.82Zm.27-8.42h0l0-.07Zm-137.51,88c-5-.74-8.9-3.85-13.43-5.86s-9.64-2.24-14.64-2.31q-.17-.64-.3-1.29c-.44-2.16-.48-4.32-2.17-5.93a.51.51,0,0,0-.79.1A26.36,26.36,0,0,1,97.44,217c-.81,1.08-.76,1.22-1.33,0a14,14,0,0,1-1-3.31.46.46,0,0,0,.31-.13c16.92-16.41,30.54-36.13,44.65-55q-3.91,9.45-7,19.21c-5.09,16.11-10,34.48-3,50.77.12.28.25.55.37.82A.44.44,0,0,0,130.37,229.42Zm19.38,16.26a30.2,30.2,0,0,1-17.44-14.76c-8.35-15.67-4-34.11.9-50.14a234.39,234.39,0,0,1,9-24.63c3.39-7.87,6.92-16.17,12.47-22.79,5.36-6.38,12-11.87,18.26-17.28s12.94-10.62,21.28-12.67a37.49,37.49,0,0,1,26.23,3c5.25,2.79,10.54,7.17,16.52,8.46a99.56,99.56,0,0,1-30.1-3.69.5.5,0,0,0-.27,1c14.06,4.17,28.89,4.33,43.4,3,7.43-.7,14.82-1.81,22.18-3,6.24-1,12.44-2.41,18.75-2.91,4.53-.36,9.1-.61,13.66-.62a37.81,37.81,0,0,0-11.5,4.12C283,118.3,275.45,128.61,269,137.88c-9.39,13.45-16.15,28.35-23.29,43a.44.44,0,0,0-.21.2,23.69,23.69,0,0,0-1.06,2.39c-3.19,6.5-6.49,12.95-10.16,19.19A130.83,130.83,0,0,1,222.15,220a.51.51,0,0,0-.17.16l-.18.26c-12.2,14.5-28.07,25.8-47.66,26.94C166,248,157.61,248.27,149.75,245.69Zm38.43,0c11.13-3.61,21-10.48,29.33-18.91q-7.16,10.63-14.19,21.34C198.28,247.3,193.23,246.53,188.18,245.72Zm33.9-23.89q2.07-2.42,4-4.95c6.65-8.82,12-18.42,16.92-28.25-.65,3.22-.93,6.53-1.35,9.8a201.09,201.09,0,0,1-4,21.68c-1.48,6.14-3,12.3-5.89,18a79.77,79.77,0,0,1-9,14,.54.54,0,0,0-.1.19c-6-1.6-12.13-2.82-18.27-3.89C210.24,239.47,216.11,230.62,222.08,221.83Zm35.62,39.65q-1.26.28-1.08-1a14,14,0,0,1-.61-3.32.51.51,0,0,0-.91-.12c-1,1.65-2,3.32-3,5-2.42-.49-4.94-1.8-7.23-2.61-5.21-1.84-10.44-3.65-15.71-5.34q-2.74-.88-5.51-1.63a81.88,81.88,0,0,0,8.44-12.91,72.55,72.55,0,0,0,5.82-16.39,200.61,200.61,0,0,0,4.16-20.8c.9-6.14,1-12.71,3.26-18.54,4.78-9.77,9.32-19.68,14.51-29.21q3.42-6.27,7.31-12.27c-3.84,15.74-7.4,31.57-9.7,47.62-2.17,15.08-3.6,30.54-2.79,45.78a136.42,136.42,0,0,0,3.74,25A5.55,5.55,0,0,1,257.7,261.48Zm35.74-1.55a48.11,48.11,0,0,0-17.69,1.52,12.48,12.48,0,0,1,.26-1.55c.61-2.55,1.81-5.41.41-7.9a.51.51,0,0,0-.56-.23c-2.12.73-3.3,3-5.06,4.24-.7.49-1,1.66-2.27.37-.65-.66-.39-2.14-.4-2.92l-.05-7.3a.51.51,0,0,0-.63-.48c-3.12.62-4.05,4.25-5.12,6.8a54.14,54.14,0,0,1-3,7.05l-.12.21c-4.4-18.69-4.17-37.5-2.32-56.53,1.76-18.12,5.41-36,9.6-53.65a5.72,5.72,0,0,0,.23.61c.23.49.87.21.91-.24,0,17.33,3.68,34.46,8.6,51.07,2.9,9.77,6.27,19.39,9.57,29,1.88,5.48,3.63,11,6.46,16.11a32.65,32.65,0,0,0,14.58,14.15A132,132,0,0,1,293.44,259.92Zm47-4.62a137.71,137.71,0,0,1-31.53,4.9.51.51,0,0,0-.26-.24A29,29,0,0,1,295,248.44a116.75,116.75,0,0,0,45.22-12.77.58.58,0,0,0,.28-.14,115.73,115.73,0,0,0,15.63-9.78c.51-.38,0-1.25-.5-.86a115.45,115.45,0,0,1-15.4,9.65c-3.21-4.21-6.13-8.65-8.92-13.14-3.08-5-6.23-10.09-8.33-15.56-3-7.77-5.26-15.89-7.86-23.8l-8.32-25.33c-2.74-8.32-4.94-17.25-9.6-24.76.89-.1,1.78-.17,2.68-.22a19.21,19.21,0,0,1,9.15,1.38c3,1.4,4.82,4,6.22,6.87,2.85,5.81,5,12.05,7.38,18.07,8.45,21.3,16.51,44.65,33.86,60.53,6.8,6.23,14.72,10.87,23,14.87C368.67,244.12,354.94,251.24,340.39,255.3Z"/><path class="cls-7" d="M182.84,120.89a174.34,174.34,0,0,0,63.69,24.76c.63.11.9-.85.27-1A173.61,173.61,0,0,1,183.34,120C182.8,119.68,182.29,120.54,182.84,120.89Z"/><path class="cls-7" d="M193.53,122.08a229.59,229.59,0,0,0,50.19,16c.63.12.9-.84.27-1a228.49,228.49,0,0,1-50-15.92C193.45,121,192.94,121.82,193.53,122.08Z"/><path class="cls-7" d="M150.06,167.29a148.92,148.92,0,0,0,73.07,16.35c.64,0,.64-1,0-1a147.86,147.86,0,0,1-72.56-16.21C150,166.13,149.48,167,150.06,167.29Z"/><path class="cls-7" d="M44.39,202c.62-1.09.06-2.49-.93-2.55.13-.31,0-.72-.43-.68a10.31,10.31,0,0,0-7.15,3.67c-1.66,2.08.16,2.9,2.22,2.83C40.36,205.14,43.2,204,44.39,202Zm-1.58.33-.69.56a7.45,7.45,0,0,1-1.67.9c-1,.38-3,1-3.73.06-.6-.73.18-1.11.77-1.66a9.09,9.09,0,0,1,4.94-2.34c-.42.4.25,1.05.74.67A1.34,1.34,0,0,1,42.81,202.28Z"/><path class="cls-7" d="M420.33,203.88c-1.49.8-.77,2.25.36,3a13.8,13.8,0,0,0,3.5,1.53,6.64,6.64,0,0,0,3.17.47c2-.53.79-2.6-.19-3.49a.43.43,0,0,0-.21-.55C425.21,203.9,422.24,202.85,420.33,203.88Zm5.86,1.68a.39.39,0,0,0,.15.41,3.65,3.65,0,0,1,.83.83l-.35,1.11a6.18,6.18,0,0,1-1.85-.34,13.66,13.66,0,0,1-3.31-1.31c-.55-.31-1.64-.71-.68-1.57.3-.27,1.29-.14,1.63-.12A9,9,0,0,1,426.18,205.56Z"/><path class="cls-7" d="M421.78,208.59a29.36,29.36,0,0,1-3.4,5.43c-.4.5.31,1.21.71.71a30.5,30.5,0,0,0,3.56-5.64C422.92,208.52,422.06,208,421.78,208.59Z"/><path class="cls-7" d="M360.2,174.18a14.21,14.21,0,0,1-5.25.75c-2.43-.3-3.42-1.93-4.83-3.66a.5.5,0,0,0-.61-.08,13.23,13.23,0,0,1-5.95,2.19c-.63.07-.64,1.07,0,1a15,15,0,0,0,3-.6c.64-.21,2.24-1.31,2.77-1.26.92.08,1.74,1.6,2.31,2.1a5.44,5.44,0,0,0,1.75,1c4.68,1.65,9.49-2.89,14-.31a.5.5,0,0,0,.5-.86C365.43,173.06,362.84,173.5,360.2,174.18Z"/><path class="cls-7" d="M429.13,172.56a10,10,0,0,1-5.43.28c-1.22-.3-2.38-.85-3.62-1.07a9.44,9.44,0,0,0-5.43,1,6.81,6.81,0,0,1-4.59.57,28.14,28.14,0,0,0-3.08-.86c-2.84-.42-5.89,0-8.73.17l-19,.89c-.64,0-.64,1,0,1l17.48-.82c2.9-.14,5.9-.5,8.79-.35,2.25.12,4.36,1.4,6.61,1.19,2-.19,3.63-1.57,5.57-1.83,2.78-.37,5.16,1.36,7.89,1.42,5,.11,10.22-4.7,14.91-1.27.52.38,1-.49.5-.86C437.3,169.27,433,171.41,429.13,172.56Z"/><path class="cls-7" d="M221.91,209.47c.39-.51-.48-1-.86-.5a81,81,0,0,1-57.35,31.58c-.64.05-.64,1.05,0,1A82.13,82.13,0,0,0,221.91,209.47Z"/><path class="cls-7" d="M250.26,307c-2.37.45-4-2.08-6.32-1.91-1.09.08-1.71,1.14-2.73.17-.57-.54-.68-1.57-1.32-2.16a.5.5,0,0,0-.49-.13,12.36,12.36,0,0,1-2.91,1.11c-1.89.12-1.66-1.44-1.62-2.78,0-1.59.5-3.66.11-5.19s-1.81-1.52-3-.66a8.82,8.82,0,0,0-2.2,3.11,15.26,15.26,0,0,1-1,2c-1,1.32-2.39,1.09-2.78-.45-.68-2.71-.88-5.42-2.84-7.57a.51.51,0,0,0-.84.22l-3,8.81c-.46,1.36-2,4.94-3.67,2-.38-.67-.44-1.44-.89-2.11a.51.51,0,0,0-.86,0l-2.08,4c-.29.57.57,1.08.86.5l1.64-3.18c.78,1.82,1.58,4.73,4,2.86,1.14-.89,1.54-2.53,2-3.82l2.7-7.9c1.52,2.19,1.5,5,2.34,7.46.37,1.09,1,2.41,2.36,1.93,1.87-.64,2.59-3.73,3.48-5.23a7.65,7.65,0,0,1,1-1.38H234a13.11,13.11,0,0,1-.08,2.75,23.08,23.08,0,0,0-.09,4.25c.19,1.1.68,1.81,1.88,1.68s3-1.84,4.1-.76c.5.51.46,1.45,1.08,1.92a1.56,1.56,0,0,0,1.08.35c.28,0,.53-.22.79-.29,1.33-.39,1.67-.65,3.07,0,1.58.75,2.88,1.68,4.69,1.33C251.15,307.8,250.89,306.83,250.26,307Z"/><path class="cls-7" d="M430,237c-2.62-.18-5.63,0-8.18-.64s-2.68-2.41-3.4-4.67a.51.51,0,0,0-.91-.12c-1.24,1.77-2.1,3.86-3.44,5.55-2.91,3.68-3.39-2.19-3.43-4.33-.08-4.39.6-8.72-.49-13a.51.51,0,0,0-.91-.12c-2.83,4.34-1.89,10.53-5.43,14.37-1.6-4.71-1.3-9.72-2.56-14.49a.51.51,0,0,0-.84-.22c-2.54,2.34-3.81,5.42-4.64,8.71-.36,1.42-.37,3.89-1.17,5.14-2.53,4-3.39-.38-4.81-1s-3.05,1.18-3.8,2.22c-2,2.74-1.45,6.86-1.91,10-.09.63.87.9,1,.27.5-3.38-.14-7.83,2.43-10.45.48-.49,1.44-1.27,2.22-.91.41.19.83,1.29,1.15,1.66a2.41,2.41,0,0,0,1.81,1c2.76.08,3.15-3.45,3.57-5.4.77-3.59,1.75-7.14,4.27-9.86,1.07,4.78.8,9.74,2.63,14.4a.51.51,0,0,0,.84.22c4-3.59,3.29-9.45,5.51-14,.57,3.21.28,6.43.2,9.7-.05,2.11-.39,6.37,1.28,8.06,2.45,2.48,5.42-3.34,6.85-6,.47,1.76.76,3.07,2.68,3.84,2.91,1.16,6.46.86,9.54,1.07C430.65,238,430.65,237,430,237Z"/><path class="cls-7" d="M371.12,213.87l-2,8.12c-.15.63.81.89,1,.27l2-8.12C372.24,213.51,371.27,213.24,371.12,213.87Z"/><path class="cls-7" d="M372.94,224.47l4-11.23c.21-.61-.75-.87-1-.27l-4,11.23C371.76,224.81,372.73,225.07,372.94,224.47Z"/><path class="cls-7" d="M374.84,227.06l2.32-4.28c.31-.57-.56-1.07-.86-.5L374,226.55C373.67,227.12,374.53,227.63,374.84,227.06Z"/><path class="cls-7" d="M387.25,216.9l-9.51,11.81c-.4.5.3,1.21.71.71L388,217.6C388.35,217.11,387.65,216.39,387.25,216.9Z"/><path class="cls-7" d="M108.63,196.36c.2.61,1.17.35,1-.27a23,23,0,0,0-6.17-9.67c-.47-.44-1.18.27-.71.71A22,22,0,0,1,108.63,196.36Z"/><path class="cls-7" d="M118.86,260.2a52.68,52.68,0,0,0-3.41-10c-.27-.58-1.13-.08-.86.5a51.37,51.37,0,0,1,3.31,9.75C118,261.1,119,260.83,118.86,260.2Z"/><path class="cls-7" d="M110.08,250.12c-.44-.47-1.15.24-.71.71a22.31,22.31,0,0,1,4.48,7.08c.23.59,1.2.33,1-.27A23.63,23.63,0,0,0,110.08,250.12Z"/><path class="cls-7" d="M109,258.57l-3-3.41c-.43-.48-1.13.23-.71.71l3,3.41C108.76,259.76,109.46,259.05,109,258.57Z"/><path class="cls-7" d="M128.92,284.28a39.69,39.69,0,0,0-4.81,13.94c-.09.63.87.9,1,.27a39,39,0,0,1,4.71-13.71A.5.5,0,0,0,128.92,284.28Z"/><path class="cls-7" d="M131.54,288.81a58,58,0,0,0-4.25,11.36.5.5,0,0,0,1,.27,56.76,56.76,0,0,1,4.15-11.12C132.69,288.74,131.83,288.23,131.54,288.81Z"/><path class="cls-7" d="M131.49,300.33a21.6,21.6,0,0,1,5.6-11.2c.44-.47-.27-1.18-.71-.71a22.54,22.54,0,0,0-5.86,11.64C130.42,300.69,131.38,301,131.49,300.33Z"/><path class="cls-7" d="M326.56,307.21c-.25-.58-1.21-.33-1,.27a22.83,22.83,0,0,1,1.42,4.58c.05.26.36,3.47.54,5.12a.51.51,0,0,0-.14,0l-.11,0a.51.51,0,0,0-.37.48.67.67,0,0,0,.36.68.51.51,0,0,0,.61-.08c1-.87.48-3.36.36-4.52A22.84,22.84,0,0,0,326.56,307.21Z"/><path class="cls-7" d="M348.73,310.63c-.47-.88-1.19-1.83-2.33-1.68-.78.1-.63.4-1.23.83-.14.1-.08.39-.2.48-1.13.9-1.29.32-1.82-.54-1.31-2.14-1.75-5.16-2.66-7.51-.47-1.23-2.74-6-4.7-4.25-1.13,1-.52,4.17-.56,5.53q-.11,3.64-.21,7.29a9.39,9.39,0,0,0-1.3-1.59.51.51,0,0,0-.85.35c-.13,1.2-.16,2.46-.38,3.65l-.09.91q-.12,2.49-2,2.86c-.78.69-1.36.67-1.59,1.83-.12.63.84.9,1,.27.25-1.26,2.93-1.61,3.43-3.11a20.41,20.41,0,0,0,.63-5.19A8,8,0,0,1,335,312.9a.5.5,0,0,0,1-.13l.2-6.83.08-2.93a10.56,10.56,0,0,1,.08-2.93c1.24-3.21,3.32,2.75,3.72,3.89l2,5.58c.42,1.19.91,4.19,2.81,3,1.24-.76.64-3.73,3.19-1a8.92,8.92,0,0,1,.95,2.5l1.26,3.34c.23.6,1.19.34,1-.27A56.65,56.65,0,0,0,348.73,310.63Z"/><path class="cls-7" d="M400.65,274.94a26.67,26.67,0,0,1,1,7.57.5.5,0,0,0,1,0,27.59,27.59,0,0,0-1.07-7.84A.5.5,0,0,0,400.65,274.94Z"/><path class="cls-7" d="M397.07,277.07c-.14-.63-1.11-.36-1,.27l.47,2.09c.14.63,1.11.36,1-.27Z"/><path class="cls-7" d="M402.83,266.55a37.38,37.38,0,0,1,1,15.67c-.09.63.87.9,1,.27a38.61,38.61,0,0,0-1-16.2A.5.5,0,0,0,402.83,266.55Z"/><path class="cls-7" d="M31.84,175.78C51,173.59,70.26,178.64,89.3,175c.63-.12.36-1.08-.27-1-18.94,3.61-38.15-1.44-57.19.73C31.21,174.86,31.2,175.86,31.84,175.78Z"/><path class="cls-7" d="M376.2,264.7c-3-1.72-6.27-1.12-9.4,0a41.37,41.37,0,0,1-5.63,1.92,46.67,46.67,0,0,1-7.4.41c-3.89.17-6.8,1.59-10.14,3.45a46.13,46.13,0,0,1-12.71,4.81c-.63.14-.36,1.1.27,1a46.14,46.14,0,0,0,9.92-3.33c3.94-1.86,7.29-4.48,11.78-4.84,3.6-.29,7.1.09,10.59-1.07,3.94-1.31,8.14-3.77,12.21-1.45A.5.5,0,0,0,376.2,264.7Z"/><path class="cls-7" d="M74.43,281.68a65.57,65.57,0,0,1-14.66-3.62,63.23,63.23,0,0,1-7.25-3.26,50.57,50.57,0,0,0-5.2-2.81c-2.08-.8-4.55-.12-6.51-1.16-1.81-1-2.75-3-4.22-4.32a8.79,8.79,0,0,0-8.6-1.77c-.61.19-.35,1.15.27,1a7.79,7.79,0,0,1,7.63,1.51c1.38,1.23,2.25,3,3.76,4a6,6,0,0,0,3,1.08,20.64,20.64,0,0,1,3.68.35,15.89,15.89,0,0,1,3.32,1.65,67.12,67.12,0,0,0,24.77,8.33C75.07,282.76,75.06,281.76,74.43,281.68Z"/><path class="cls-7" d="M93.13,298.2l-12.21-2.47c-3.44-.7-7.09-1.83-10.62-1.63a37.93,37.93,0,0,0-4.64,1c-2,.37-4-.16-6.07-.24a19.51,19.51,0,0,0-9.08,1.91c-.58.27-.08,1.13.5.86A19.21,19.21,0,0,1,61.33,296a15.46,15.46,0,0,0,4.59,0c1.82-.35,3.35-1,5.27-1,3.61,0,7.35,1.18,10.87,1.89l10.8,2.19C93.5,299.29,93.77,298.32,93.13,298.2Z"/><path class="cls-7" d="M299.35,336.71c-15.73-2.56-30.76,6-46.47,3.71-.63-.09-.9.87-.27,1,15.73,2.34,30.77-6.26,46.47-3.71C299.72,337.77,300,336.81,299.35,336.71Z"/><path class="cls-7" d="M214.57,41.67c-4.29,4.48-11.56,3.09-17.08,3.82A15.82,15.82,0,0,0,190.15,48c-2.08,1.52-2.7,3.42-3.36,5.8a3.24,3.24,0,0,1-3.08,2.64,15.65,15.65,0,0,0-2,0,5.63,5.63,0,0,0-2.81,2c-2.67,3-5.39,3.74-9.33,3.85-2.88.08-5.92-.06-8.66,1s-4.54,3.33-6.25,5.63a95.29,95.29,0,0,1-15.74,16.7,91,91,0,0,1-9.64,6.94c-3.55,2.23-7.37,4.56-11.58,5.16C110.26,98.83,107,92.54,103,87.62c-3.31-4-7.29-6-12.5-4.54-2.88.81-5.53,2.28-8.37,3.19-3.85,1.24-6.56.5-9.17-2.63-1.69-2-3.36-3.35-6-3.64s-5.19.32-7.74.65c-2.85.37-5.9.57-7.85-1.92-.4-.51-1.1.21-.71.71,3.16,4,8.86,2,13.12,1.6,3.65-.33,6.13.42,8.53,3.3,1.69,2,3.47,3.57,6.22,3.61,5.83.08,10.63-5,16.55-4.41s8.77,7.47,12.47,11.36c4.29,4.52,9.81,4.75,15.38,2.37,6.57-2.81,12.67-7.36,18.08-12a100.33,100.33,0,0,0,14.85-16.14c2.78-3.69,5.63-5.5,10.31-5.74,2.86-.15,5.85.11,8.64-.72a8.87,8.87,0,0,0,3-1.53c1.42-1.13,2.12-2.68,3.85-3.38,2.55-1,4.78.35,5.95-2.86.51-1.41.57-2.88,1.39-4.19a8.53,8.53,0,0,1,4.4-3.27,27.73,27.73,0,0,1,9.24-1.29c4.59-.09,10.68-.6,13.53-4.78,1.93-2.83,1-6,1.13-9.2.17-4.82,4.42-6.91,8.54-8,8.57-2.35,17.61-1.17,26.18.56,3.72.75,8.35,1.17,11.64,3.17,3.1,1.89,4.68,5.35,8,7.07s6.06,1.39,9.52,1.48c4.11.11,5.41,3.82,6.68,7.09,2.13,5.47,5.67,9.05,11.63,10.17,7.28,1.37,14.25-1.65,21-3.88a68.5,68.5,0,0,1,25.66-3.37c4.33.27,8.51,1.31,12.8,1.78a15.2,15.2,0,0,0,9.75-2.2c3.35-1.94,6.5-3.81,10.32-4.72a28.94,28.94,0,0,1,12.15-.26,28.38,28.38,0,0,1,10.28,4.22c.54.35,1-.51.5-.86a29.63,29.63,0,0,0-19.22-4.73,28.84,28.84,0,0,0-8.9,2.33c-3.64,1.63-6.79,4.56-10.83,5.18-4.22.66-8.56-.85-12.74-1.37a68,68,0,0,0-12.83-.36c-8.18.55-15.62,3-23.35,5.48-7.11,2.32-16.62,4-22.34-2.3-3.25-3.56-3.2-11-8.25-12.82a9.79,9.79,0,0,0-4-.29,14.38,14.38,0,0,1-6.73-1.14,14.09,14.09,0,0,1-4.87-3.64,18.24,18.24,0,0,0-3.49-3.53c-2.88-1.88-6.68-2.3-10-3-3.78-.81-7.57-1.53-11.41-2-7.08-.8-15.34-.84-21.84,2.54a8.6,8.6,0,0,0-4.78,5.58C215.54,34.21,217.62,38.48,214.57,41.67Z"/><path class="cls-7" d="M213.45,203A56,56,0,0,1,189,213.39c-.63.1-.36,1.07.27,1A56.62,56.62,0,0,0,214,203.84C214.47,203.46,214,202.6,213.45,203Z"/><path class="cls-7" d="M290.42,142.85c-.2-.61-1.17-.35-1,.27l7.16,21.26c.2.61,1.17.35,1-.27Z"/><path class="cls-7" d="M287.73,158.11c-.15-.62-1.12-.36-1,.27a65.6,65.6,0,0,0,6.58,16.74.5.5,0,0,0,.86-.5A64.65,64.65,0,0,1,287.73,158.11Z"/><path class="cls-7" d="M362.58,228.15l-21.91,11.21c-.57.29-.07,1.16.5.86L363.08,229C363.65,228.72,363.15,227.85,362.58,228.15Z"/><path class="cls-7" d="M360.56,234.05l-5.3,3.31c-.54.34,0,1.21.5.86l5.3-3.31C361.61,234.58,361.11,233.71,360.56,234.05Z"/><path class="cls-7" d="M366,235.37l-3.31,1.33c-.59.24-.33,1.2.27,1l3.31-1.33C366.86,236.1,366.6,235.13,366,235.37Z"/><path class="cls-7" d="M401.77,105.38a107.12,107.12,0,0,1-21.07,4.69c-.63.07-.64,1.08,0,1A108.42,108.42,0,0,0,402,106.34C402.65,106.14,402.39,105.18,401.77,105.38Z"/><path class="cls-7" d="M377.6,81.09a32.9,32.9,0,0,1-6.44,6.46c-.51.38,0,1.25.5.86a34.55,34.55,0,0,0,6.79-6.82C378.85,81.08,378,80.58,377.6,81.09Z"/><path class="cls-7" d="M353.43,71.38l-1,10c-.07.64.93.63,1,0l1-10C354.5,70.74,353.5,70.74,353.43,71.38Z"/><path class="cls-7" d="M251.85,119.67q11.79-1.38,23.41-3.82c.63-.13.36-1.1-.27-1q-11.48,2.42-23.14,3.78C251.22,118.75,251.21,119.75,251.85,119.67Z"/><path class="cls-7" d="M265.95,119.61a22.12,22.12,0,0,1-4.61.67c-.64,0-.64,1,0,1a23.4,23.4,0,0,0,4.87-.71A.5.5,0,0,0,265.95,119.61Z"/><path class="cls-7" d="M197.57,216.95a37.61,37.61,0,0,1-19.6,3.29c-.64-.06-.64.94,0,1a38.56,38.56,0,0,0,20.1-3.43C198.66,217.54,198.15,216.68,197.57,216.95Z"/><path class="cls-7" d="M184.88,187.2l-26.2-9.49c-.61-.22-.87.75-.27,1l26.2,9.49C185.22,188.38,185.48,187.41,184.88,187.2Z"/><path class="cls-7" d="M405.88,181.78a16.14,16.14,0,0,0-6.47,5.63c-.36.54.51,1,.86.5a15.17,15.17,0,0,1,6.11-5.27C407,182.36,406.45,181.5,405.88,181.78Z"/><path class="cls-7" d="M405.75,189.3a14.78,14.78,0,0,1,4.23-4.87c.51-.38,0-1.25-.5-.86a15.9,15.9,0,0,0-4.58,5.23C404.58,189.36,405.44,189.87,405.75,189.3Z"/><path class="cls-7" d="M66.4,258.38a56.71,56.71,0,0,1,7.24,15.22c.19.61,1.15.35,1-.27a57.62,57.62,0,0,0-7.34-15.46C66.91,257.35,66,257.85,66.4,258.38Z"/><path class="cls-7" d="M78.65,271.68a19.47,19.47,0,0,0-3.23-8.84c-.36-.53-1.22,0-.86.5a18.42,18.42,0,0,1,3.1,8.34C77.72,272.31,78.72,272.31,78.65,271.68Z"/><path class="cls-7" d="M83.59,271.09l-1.35-5.42a.5.5,0,0,0-1,.27l1.35,5.42A.5.5,0,0,0,83.59,271.09Z"/><path class="cls-7" d="M66,269.73a67.19,67.19,0,0,0-8.21-19.08c-.34-.54-1.21,0-.86.5A66.33,66.33,0,0,1,65,270,.5.5,0,0,0,66,269.73Z"/><path class="cls-7" d="M57.84,267.15l.46,3.61c.08.63,1.08.64,1,0l-.46-3.61C58.76,266.52,57.76,266.51,57.84,267.15Z"/><path class="cls-7" d="M88.13,271.22a81.94,81.94,0,0,0-.92-15.95c-.1-.63-1.06-.36-1,.27a80.55,80.55,0,0,1,.88,15.68C87.1,271.87,88.1,271.87,88.13,271.22Z"/><path class="cls-7" d="M297.76,278.22A84.64,84.64,0,0,0,288.57,295c-.24.6.72.85,1,.27a83.58,83.58,0,0,1,9.08-16.55C299,278.2,298.12,277.7,297.76,278.22Z"/><path class="cls-7" d="M293.63,294.52a53.19,53.19,0,0,1,6.69-8.94c.44-.47-.27-1.18-.71-.71a54.38,54.38,0,0,0-6.84,9.15A.5.5,0,0,0,293.63,294.52Z"/><path class="cls-7" d="M300.85,287.66l-3.21,5.39a.5.5,0,0,0,.86.5l3.21-5.39A.5.5,0,0,0,300.85,287.66Z"/><path class="cls-7" d="M305.87,277.1,305.37,292c0,.64,1,.64,1,0l.49-14.91C306.89,276.46,305.89,276.46,305.87,277.1Z"/><path class="cls-7" d="M309.86,288.39l-.45,4.07c-.07.64.93.63,1,0l.45-4.07C310.94,287.75,309.93,287.76,309.86,288.39Z"/><path class="cls-7" d="M222.25,266.58a21.67,21.67,0,0,0-3.58-8.29c-.37-.52-1.24,0-.86.5a21,21,0,0,1,3.48,8.05C221.41,267.48,222.38,267.21,222.25,266.58Z"/><path class="cls-7" d="M216.87,266.12a16.39,16.39,0,0,0-3.74-5.65c-.46-.45-1.17.25-.71.71a15.2,15.2,0,0,1,3.48,5.21C216.14,267,217.1,266.72,216.87,266.12Z"/><path class="cls-7" d="M175.72,306a11,11,0,0,0-4,.63c-1.83.68-2.92,1.66-4.94,1.94a9.55,9.55,0,0,0-3.1,1.19,7.41,7.41,0,0,1-6.13.09.5.5,0,0,0-.62.35l-.26,1.58c-.1.63.86.9,1,.27l.18-1.06c2.63.87,4.76.32,7.28-.85,1.47-.68,2.86-.29,4.29-1.05,2.16-1.17,3.74-2.1,6.36-2.08A.5.5,0,0,0,175.72,306Z"/><path class="cls-7" d="M51,216.51c.64,0,.64-1,0-1a27.71,27.71,0,0,1-12.3-1.81c-3-1.19-5.64-2.9-9-2.28-.63.12-.36,1.08.27,1,3.82-.7,7.44,2.14,11,3.16A28.65,28.65,0,0,0,51,216.51Z"/><path class="cls-7" d="M50,15.31a8.76,8.76,0,0,0,5.6.4c2.59-.51,6.32-1.95,8.52.3,2.44,2.5-.36,6.36-1.36,8.87A11.21,11.21,0,0,0,62,30.35c.39,3.49,2.79,8,6.45,9.09a2.18,2.18,0,0,0,2.39-.58,6.44,6.44,0,0,0,1.11-2.29,5.4,5.4,0,0,1,3.9-3.6c5.43-1.33,6.83,5.1,9.43,8.28s6.37,3.15,9.62,1.09C97,41,98.58,38.85,100.2,36.9a27.2,27.2,0,0,1,6.65-5.8c4.53-2.82,9.6-4.73,13.83-8,4.5-3.52,6.35-7.58,7.22-13.13.51-3.26,1.43-7.77,5.16-8.79,5.2-1.42,7.44,5.07,8.47,8.79a.51.51,0,0,0,.62.35,53.82,53.82,0,0,1,13.35-.77,51.74,51.74,0,0,1,6.8.93c2.15.44,5.1.82,6.76,2.35,2.19,2,1.71,5.58,3.35,8a5,5,0,0,0,5.7,1.78c3.21-.88,7.35-6.42,10.09-2.23,1.71,2.61,1.15,5.87,2,8.74.57,2,1.78,3.8,3.94,4.15,2.65.42,4.85-1.56,7.26-2.22,5.5-1.51,5.48,5.56,8.12,8.42,1.56,1.69,4.2,2.22,5.88.44.44-.47-.26-1.18-.71-.71-2.75,2.92-5.37-1.62-6.2-3.71a14.2,14.2,0,0,0-1.86-3.72,4.86,4.86,0,0,0-5.2-1.79c-3,.73-7,4.37-9.51.67-1.64-2.42-1-5.66-1.81-8.36-.51-1.79-1.52-3.82-3.42-4.44-2.77-.9-4.73,1.73-6.86,2.93-2.3,1.3-5.35,1.67-6.86-1-.79-1.39-1-3.08-1.46-4.58a6.44,6.44,0,0,0-4.23-4.48c-7.79-2.79-16.81-2.86-24.9-1.46-1.13-4-3.12-9.12-8-9.25-4.49-.12-6.58,4.7-7.24,8.4-.53,3-.73,5.93-2.29,8.62a20.6,20.6,0,0,1-6.58,6.56c-4.68,3.14-10.1,5-14.58,8.48-4.21,3.24-7.89,11.54-14.11,10.67-4.94-.7-5.34-7.16-8.93-9.77a6.43,6.43,0,0,0-8.78,1.47A8.55,8.55,0,0,0,71,36.3a5.49,5.49,0,0,1-.67,1.61c-1.12,1.2-2.27.3-3.12-.31A10.54,10.54,0,0,1,63,30.74c-.56-3.47,1.08-6,2.28-9.13.72-1.84,1.21-4,0-5.72-3.35-4.88-10.53.5-14.8-1.44C49.93,14.18,49.42,15,50,15.31Z"/><path class="cls-7" d="M76.25,168.26c-.63.12-.36,1.08.27,1l5.21-1c.63-.12.36-1.08-.27-1Z"/><path class="cls-7" d="M317.29,104.26a.5.5,0,0,0,0,1,14.78,14.78,0,0,1,11,5.08c.43.48,1.13-.23.71-.71A15.82,15.82,0,0,0,317.29,104.26Z"/><path class="cls-7" d="M329.55,105a6.36,6.36,0,0,0-5.62-2.66c-.64,0-.64,1,0,1a5.35,5.35,0,0,1,4.76,2.16C329.06,106,329.93,105.52,329.55,105Z"/><path class="cls-7" d="M159.69,167.14a141.65,141.65,0,0,0,46.12,10.52c.64,0,.64-1,0-1a140.58,140.58,0,0,1-18.48-2.29A171,171,0,0,0,205,144a.53.53,0,0,0,0-.16,17.27,17.27,0,0,1,8.67,3.58c3.6,3,4.56,7.34,3.84,11.83a52.48,52.48,0,0,1-3.88,12.15c-.9,2.1-3,4.9-1.9,7.25.27.58,1.13.08.86-.5-.9-1.92,1.53-5.33,2.27-7.11q1.3-3.12,2.31-6.35c1.22-3.9,2.29-8.23,1.07-12.26-2.21-7.32-10.38-9.76-17.21-9.91-7.54-.17-16.75.19-23.11,4.77-6.52,4.7-10.33,13.5-12.57,21q-2.75-1-5.46-2.13C159.36,165.93,159.1,166.9,159.69,167.14Zm19.45-19.4c5.7-3.74,13.53-4.32,20.37-4.22a247.42,247.42,0,0,0-17.71,27.56c-.31.56.55,1.07.86.5a247.41,247.41,0,0,1,17.85-27.76.41.41,0,0,0,.08-.28l.94,0c.84,0,1.68.09,2.52.19a171.07,171.07,0,0,1-17.8,30.41,141,141,0,0,1-19.9-5.52C168.56,161.26,172.45,152.12,179.14,147.74Z"/><path class="cls-7" d="M168.29,222.45c-.64-.08-.63.92,0,1a118.92,118.92,0,0,0,18.54.87c.64,0,.64-1,0-1A118.92,118.92,0,0,1,168.29,222.45Z"/><path class="cls-7" d="M151.78,234.39a43.63,43.63,0,0,1-12.54-10.5c-3.69-4.56-7.2-10.32-7.84-16.25-.07-.63-1.07-.64-1,0,1.25,11.6,11.12,22.12,20.88,27.61A.5.5,0,0,0,151.78,234.39Z"/><path class="cls-7" d="M306.36,199.85a.5.5,0,0,0-.86.5l.94,1.58a.5.5,0,0,0,.86-.5Z"/><path class="cls-7" d="M305.18,204a.5.5,0,0,0-1,.27l.63,2.2a.5.5,0,0,0,1-.27Z"/><path class="cls-7" d="M289.23,89.4l-3.75,4.42c-.41.49.29,1.2.71.71l3.75-4.42C290.35,89.62,289.65,88.91,289.23,89.4Z"/><path class="cls-7" d="M280.35,82.67l.31,1.89c.11.63,1.07.36,1-.27l-.31-1.89C281.21,81.77,280.25,82,280.35,82.67Z"/><path class="cls-7" d="M145.45,110.07c-.59-.24-.85.72-.27,1l7.56,3.1c.6.24.85-.72.27-1Z"/><path class="cls-7" d="M143.44,117.61a.5.5,0,0,0,0-1A.5.5,0,0,0,143.44,117.61Z"/><path class="cls-7" d="M200.52,278.18c.09-.63-.87-.9-1-.27a7.8,7.8,0,0,0,.63,4.48c.27.59,1.13.08.86-.5A6.59,6.59,0,0,1,200.52,278.18Z"/><path class="cls-7" d="M206.74,280.62a.5.5,0,0,0-.86.5l.94,1.57a.5.5,0,0,0,.86-.5Z"/><path class="cls-7" d="M109.33,272.25a21.09,21.09,0,0,1-2.15,4.28c-.35.54.51,1,.86.5a22.24,22.24,0,0,0,2.25-4.52C110.51,271.91,109.55,271.65,109.33,272.25Z"/><path class="cls-7" d="M104,274.62a4.15,4.15,0,0,0-.29,2.61c.13.63,1.09.36,1-.27a3,3,0,0,1,.19-1.84C105.1,274.54,104.24,274,104,274.62Z"/><path class="cls-7" d="M427.08,192.15a5.37,5.37,0,0,1,2.7-2.64c.59-.26.08-1.13-.5-.86a6.21,6.21,0,0,0-3.05,3C425.94,192.23,426.8,192.73,427.08,192.15Z"/><path class="cls-7" d="M431.47,191.78l-.81,2c-.24.6.73.86,1,.27l.81-2C432.67,191.45,431.71,191.19,431.47,191.78Z"/><path class="cls-7" d="M438.78,191.78l-.81,2c-.24.6.73.86,1,.27l.81-2C440,191.45,439,191.19,438.78,191.78Z"/><path class="cls-7" d="M29.05,232.08a.5.5,0,0,0-.5.86A8.44,8.44,0,0,1,32,236.87c.26.59,1.12.08.86-.5A9.32,9.32,0,0,0,29.05,232.08Z"/><path class="cls-7" d="M29,236.19l-1.63-.81c-.57-.29-1.08.58-.5.86l1.63.81C29.1,237.34,29.61,236.47,29,236.19Z"/><path class="cls-7" d="M191.8,116c.54.36,1-.51.5-.86l-1.44-1c-.54-.36-1,.51-.5.86Z"/><path class="cls-7" d="M53.74,182.36q-26.63-.64-53.26-.28a.5.5,0,0,0,0,1q26.63-.36,53.26.28A.5.5,0,0,0,53.74,182.36Z"/><path class="cls-7" d="M28,187.15a72.61,72.61,0,0,1-12.15-.42c-.64-.08-.63.93,0,1a72.61,72.61,0,0,0,12.15.42C28.69,188.12,28.69,187.12,28,187.15Z"/><path class="cls-7" d="M463.46,186.23,449,184.36c-.64-.08-.63.92,0,1l14.48,1.87C464.09,187.31,464.09,186.31,463.46,186.23Z"/><path class="cls-7" d="M109.34,321.71a.5.5,0,0,0,0,1A.5.5,0,0,0,109.34,321.71Z"/><path class="cls-7" d="M143.44,322.68l-24.29-1.86c-.64,0-.64,1,0,1l24.29,1.86C144.08,323.73,144.08,322.73,143.44,322.68Z"/><path class="cls-7" d="M189.22,335.73l-3.74.47c-.63.08-.64,1.08,0,1l3.74-.47C189.85,336.65,189.86,335.65,189.22,335.73Z"/><path class="cls-7" d="M162.59,263.38h6.07a.5.5,0,0,0,0-1h-6.07A.5.5,0,0,0,162.59,263.38Z"/><path class="cls-7" d="M165.86,258.17l-17.75-.94c-.64,0-.64,1,0,1l17.75.94C166.51,259.2,166.51,258.2,165.86,258.17Z"/><path class="cls-7" d="M237.33,345.63c-.48-.43-1.19.28-.71.71a67.62,67.62,0,0,1,7.25,7.58q1.89,2.33,3.55,4.83c.4.61,1,1.14.86,1.88-.13.91-1.6,1.82-2.25,2.43-.47.44.24,1.15.71.71l2.88-2.69a.51.51,0,0,0,.08-.61A68,68,0,0,0,237.33,345.63Z"/><path class="cls-7" d="M145,48c-2.27,1.25-4.27-.27-6.25-1.33-3.7-2-8.07-1.19-10,2.85-.27.58.59,1.09.86.5,1.66-3.55,5.3-4.19,8.59-2.49,1.74.9,3.43,2.17,5.5,2s2.91-1.51,4-2.93a19.54,19.54,0,0,1,7-5.6c.58-.28.07-1.14-.5-.86A20,20,0,0,0,148,44.81C147,45.88,146.29,47.32,145,48Z"/><path class="cls-7" d="M159.3,37.69a8.56,8.56,0,0,1,3.38,4.19c1.06,2.2,2.05,4.7,4.54,5.6,3.69,1.33,6.89-1.52,10.27-2.38a10.09,10.09,0,0,1,7.27.84c1.5.8,2.54,2.11,4.23,2.53a.5.5,0,0,0,.27-1c-1.78-.44-3.12-2.09-4.81-2.83a11,11,0,0,0-5.53-.86c-4.27.46-9.65,5.62-13.31,1.26-1.9-2.26-2.3-5.49-4.62-7.46-2.59-2.19-6.23-1.83-9.33-1.29-.63.11-.36,1.07.27,1C154.26,36.88,157.08,36.5,159.3,37.69Z"/><path class="cls-7" d="M298.71,167.21c-.25-.58-1.21-.33-1,.27L310,196.57c.25.58,1.21.33,1-.27Z"/><path class="cls-7" d="M313.1,202.19a.5.5,0,0,0-1,.27,63.85,63.85,0,0,0,15.72,27.44c.45.46,1.16-.24.71-.71A62.77,62.77,0,0,1,313.1,202.19Z"/><path class="cls-7" d="M314.2,218.67c-.23-.59-1.2-.34-1,.27a29.45,29.45,0,0,0,10.3,13.37c.52.38,1-.49.5-.86A28.26,28.26,0,0,1,314.2,218.67Z"/><path class="cls-7" d="M227.62,199.48a5.41,5.41,0,0,0-1.79,2.74.5.5,0,0,0,1,.27,4.51,4.51,0,0,1,1.53-2.3C228.83,199.78,228.12,199.08,227.62,199.48Z"/><path class="cls-7" d="M231.68,191.48l-1.33,2.34a.5.5,0,0,0,.86.5l1.33-2.34A.5.5,0,0,0,231.68,191.48Z"/><path class="cls-7" d="M234.52,187.56q7-15.09,15-29.65c.31-.56-.55-1.07-.86-.5q-8,14.56-15,29.65C233.39,187.64,234.25,188.15,234.52,187.56Z"/><path class="cls-7" d="M254.1,146.49l-.93,2.08c-.26.58.6,1.09.86.5L255,147C255.22,146.41,254.36,145.9,254.1,146.49Z"/><path class="cls-7" d="M261.84,135.36l-3.36,4.29c-.39.5.31,1.21.71.71l3.36-4.29C262.94,135.56,262.24,134.85,261.84,135.36Z"/><path class="cls-7" d="M131.3,203.29V201.9a.5.5,0,0,0-1,0v1.38A.5.5,0,0,0,131.3,203.29Z"/><path class="cls-7" d="M131.93,197.64l.23-1.15c.13-.63-.84-.9-1-.27l-.23,1.15C130.84,198,131.8,198.27,131.93,197.64Z"/><path class="cls-7" d="M132.82,193.14a7.08,7.08,0,0,0,1-2.64c.11-.63-.86-.9-1-.27a6.33,6.33,0,0,1-.93,2.4C131.61,193.18,132.48,193.68,132.82,193.14Z"/><path class="cls-7" d="M203.63,110.69c.61.2.88-.77.27-1a11.5,11.5,0,0,1-4.5-2.72c-.46-.45-1.17.26-.71.71A12.64,12.64,0,0,0,203.63,110.69Z"/></g></g></svg>